<?xml version="1.0" encoding="UTF-8" standalone="no"?>
<!DOCTYPE svg PUBLIC "-//W3C//DTD SVG 1.1//EN" "http://www.w3.org/Graphics/SVG/1.1/DTD/svg11.dtd">
<svg width="100%" height="100%" viewBox="0 0 200 81" version="1.1" xmlns="http://www.w3.org/2000/svg" xmlns:xlink="http://www.w3.org/1999/xlink" xml:space="preserve" xmlns:serif="http://www.serif.com/" style="fill-rule:evenodd;clip-rule:evenodd;stroke-linejoin:round;stroke-miterlimit:2;">
    <g transform="matrix(3.27758,0,0,3.27758,0.00142369,-1.0773)">
        <path fill="#ffffff" d="M52.927,17.376L52.161,17.376C51.923,17.373 51.742,17.347 51.609,17.236C51.476,17.122 51.432,16.944 51.434,16.706L51.432,16.043C51.432,15.803 51.476,15.626 51.61,15.512C51.743,15.401 51.923,15.374 52.16,15.374L52.667,15.374C53.232,15.373 53.586,15.252 53.799,15.001C54.01,14.748 54.07,14.387 54.07,13.935C54.069,13.281 53.766,12.385 53.235,11.445C52.92,10.906 52.463,10.388 52.063,9.954C51.893,9.771 51.805,9.636 51.805,9.464C51.805,9.351 51.842,9.24 51.895,9.094C52.192,8.246 53.398,4.699 53.421,4.631L53.423,4.615C53.409,4.614 53.389,4.61 53.361,4.61L50.688,4.61C50.646,4.61 50.646,4.612 50.646,4.612C50.651,4.617 50.645,4.614 50.646,4.65L50.645,19.451C50.646,19.69 50.603,19.867 50.471,19.981C50.338,20.093 50.157,20.118 49.921,20.118C49.619,20.118 49.529,20.121 49.316,20.121C49.081,20.118 48.898,20.094 48.766,19.981C48.634,19.867 48.587,19.687 48.588,19.448L48.588,3.343C48.587,3.103 48.634,2.925 48.766,2.811C48.9,2.701 49.081,2.675 49.317,2.674L54.349,2.674C54.812,2.664 55.006,2.809 55.332,3.293C55.351,3.319 55.372,3.344 55.502,3.525C55.664,3.746 55.745,3.9 55.744,4.083C55.744,4.203 55.71,4.328 55.659,4.486C55.315,5.532 54.189,8.551 54.017,8.926C53.927,9.111 53.871,9.226 53.872,9.303C53.872,9.369 53.908,9.447 54.066,9.592C54.839,10.317 55.412,11.102 55.744,12.065C55.968,12.722 56.081,13.415 56.082,14.092C56.077,16.102 55.272,17.391 52.927,17.376M59.522,3.66C54.285,1.658 49.201,0.639 43.597,0.473C42.346,0.502 41.621,0.936 41.322,1.694C40.84,2.871 40.408,4.068 40.028,5.282C40.712,5.184 41.368,5.089 41.538,5.053C42.105,4.913 42.083,4.862 42.107,4.457L42.107,3.252C42.107,3.014 42.148,2.836 42.28,2.722C42.41,2.606 42.59,2.58 42.827,2.58L43.559,2.58C43.795,2.581 43.979,2.609 44.109,2.721C44.241,2.836 44.287,3.014 44.285,3.252L44.287,4.13C44.303,4.346 44.337,4.347 44.479,4.362C44.563,4.362 44.682,4.338 44.811,4.302C45.39,4.125 45.961,3.926 46.524,3.705C46.632,3.647 46.752,3.614 46.874,3.607C47.04,3.607 47.159,3.71 47.263,3.887C47.418,4.149 47.725,4.757 47.766,4.835L47.77,4.845C47.804,4.917 47.82,4.984 47.822,5.043C47.824,5.167 47.748,5.279 47.632,5.323C47.481,5.391 47.326,5.452 47.169,5.505C46.824,5.625 46.427,5.739 46.196,5.795C45.716,5.937 45.347,6.024 44.858,6.143C44.398,6.269 44.303,6.324 44.288,6.761L44.288,8.071C44.309,8.506 44.383,8.539 44.837,8.562C45.299,8.562 47.12,8.562 47.12,8.564C47.359,8.564 47.542,8.591 47.673,8.704C47.803,8.818 47.849,8.996 47.847,9.234L47.847,9.713C47.849,9.953 47.803,10.13 47.673,10.246C47.539,10.356 47.359,10.384 47.123,10.384L44.837,10.384C44.381,10.409 44.311,10.44 44.287,10.878L44.287,12.368C44.309,12.801 44.383,12.837 44.837,12.861L47.122,12.861C47.359,12.861 47.539,12.887 47.672,12.999C47.803,13.113 47.849,13.289 47.849,13.529C47.849,13.839 47.847,13.91 47.847,14.01C47.849,14.248 47.803,14.426 47.673,14.54C47.542,14.651 47.362,14.677 47.128,14.678L44.83,14.678C44.383,14.7 44.308,14.742 44.287,15.148L44.288,15.755C44.288,16.744 44.118,17.305 43.733,18.068C43.36,18.828 42.737,19.438 41.97,19.797C41.83,19.861 41.669,19.91 41.509,19.96C42.939,20.445 44.363,20.864 45.795,21.207C45.62,22.381 45.036,23.457 44.145,24.242C43.95,24.373 43.922,24.453 44.01,24.632C44.038,24.684 44.07,24.741 44.103,24.795C44.18,24.913 44.358,25.005 44.599,24.864C46.129,24.197 47.4,23.27 48.47,21.768C50.93,22.204 53.439,22.444 56.065,22.497C57.007,22.509 57.448,22.029 57.89,21.175C59.983,16.041 60.972,11.096 61.02,5.549C60.966,4.723 60.647,4.249 59.522,3.661M41.557,8.893C42.007,8.87 42.086,8.833 42.107,8.402L42.107,7.155C42.112,7.069 42.082,6.985 42.024,6.921C41.956,6.855 41.866,6.818 41.771,6.817L41.735,6.817C41.681,6.817 41.626,6.823 41.573,6.834C41.08,6.929 40.155,7.089 39.473,7.211C39.329,7.769 39.198,8.33 39.078,8.893L41.557,8.893M42.107,12.368L42.107,11.206C42.086,10.773 42.005,10.735 41.56,10.71L38.846,10.712L38.842,10.71C38.8,10.71 38.772,10.697 38.735,10.692C38.616,11.409 38.515,12.132 38.432,12.861L41.557,12.861C42.007,12.837 42.086,12.801 42.107,12.368M41.954,16.667C42.044,16.352 42.106,16.25 42.107,15.787L42.107,15.173C42.086,14.741 42.007,14.701 41.554,14.678L38.334,14.677L38.33,14.677C38.308,14.677 38.292,14.674 38.27,14.672C38.206,15.614 38.16,16.566 38.155,17.542C38.203,18.435 38.557,18.742 39.245,19.138C39.531,19.25 39.815,19.351 40.101,19.458L40.101,18.414C40.103,18.267 40.143,18.172 40.208,18.118C40.29,18.046 40.414,18.012 40.609,17.974C40.915,17.916 41.149,17.804 41.334,17.662C41.594,17.456 41.805,17.162 41.954,16.667M33.189,13.581L24.675,13.581C24.53,13.581 24.592,13.481 24.694,13.461C25.949,13.203 27.077,13.002 28.059,12.601C28.256,12.532 28.448,12.447 28.648,12.358C28.905,12.234 29.101,12.234 29.504,12.395C30.522,12.82 31.752,13.13 33.174,13.444C33.365,13.486 33.348,13.581 33.189,13.581M32.514,15.411L32.514,18.277C32.514,18.379 32.482,18.403 32.384,18.403L25.311,18.403C25.216,18.403 25.183,18.379 25.183,18.279L25.183,15.411C25.183,15.309 25.217,15.285 25.314,15.285L32.384,15.285C32.482,15.285 32.514,15.309 32.514,15.411M26.858,8.4L30.788,8.4C31.048,8.4 31.108,8.532 30.938,8.685C30.799,8.812 29.956,9.395 29.29,9.795C28.987,9.958 28.79,9.958 28.51,9.798C27.906,9.448 27.318,9.072 26.746,8.672C26.58,8.546 26.629,8.4 26.858,8.4M37.458,12.255C34.744,11.937 33.051,11.581 31.623,11.122C31.378,11.014 31.411,10.869 31.633,10.694C32.708,9.997 33.745,9.244 34.742,8.439C34.856,8.348 34.922,8.301 34.987,8.244C35.127,8.108 35.176,7.881 34.977,7.718C34.879,7.633 34.772,7.562 34.391,7.301C34.19,7.161 33.988,7.022 33.785,6.886C33.455,6.696 33.275,6.637 32.899,6.637L27.479,6.637C27.479,6.637 27.119,6.663 26.903,6.46C26.703,6.31 26.516,6.16 26.358,6.034C26.105,5.852 25.924,5.884 25.715,6.084C25.529,6.258 25.284,6.444 24.825,6.804C24.322,7.195 24.052,7.42 23.467,7.804C22.826,8.234 21.049,9.056 20.827,9.144C20.603,9.228 20.528,9.415 20.707,9.598C20.828,9.724 21.388,10.242 21.716,10.546C21.931,10.723 22.08,10.713 22.382,10.579C22.637,10.466 24.135,9.671 24.409,9.53C24.68,9.39 24.853,9.428 25.011,9.564C25.143,9.676 25.886,10.264 26.486,10.697C26.678,10.853 26.711,11.014 26.488,11.101C24.642,11.778 22.602,12.238 19.965,12.454C19.629,12.49 19.569,12.648 19.608,12.874C19.633,13.022 19.724,13.561 19.78,13.908C19.806,14.106 19.968,14.201 20.23,14.179C21.092,14.094 22.385,13.927 22.677,13.847C22.965,13.769 23.106,13.865 23.106,14.057L23.106,19.071C23.106,19.699 23.446,20.026 24.076,20.026L33.608,20.026C34.233,20.026 34.575,19.701 34.575,19.071L34.575,14.121C34.575,13.865 34.731,13.783 34.992,13.841C35.252,13.898 36.222,14.084 36.897,14.188C37.285,14.233 37.46,14.224 37.555,13.908C37.654,13.594 37.805,13.012 37.867,12.719C37.929,12.427 37.783,12.314 37.457,12.255M21.008,7.008L21.747,7.008C22.203,7.008 22.381,6.889 22.381,6.43L22.381,6.2C22.381,5.748 22.558,5.621 23.021,5.621L34.897,5.621C35.36,5.621 35.535,5.745 35.535,6.204L35.535,6.425C35.535,6.888 35.713,7.007 36.177,7.007L36.915,7.007C37.373,7.007 37.546,6.888 37.546,6.427L37.546,5.492C37.551,4.946 37.373,4.5 37.013,4.209C36.652,3.919 36.124,3.792 35.47,3.792L30.234,3.792C30.234,3.792 30.23,3.346 30.23,3.057C30.23,2.596 30.055,2.477 29.596,2.477L28.268,2.477C27.808,2.477 27.626,2.596 27.626,3.055L27.626,3.792L22.45,3.792C21.796,3.792 21.279,3.919 20.914,4.209C20.548,4.499 20.365,4.945 20.367,5.492L20.367,6.425C20.367,6.89 20.546,7.007 21.008,7.007M8.375,15.297L15.422,15.297C15.521,15.297 15.55,15.323 15.55,15.423L15.55,18.279C15.55,18.379 15.52,18.402 15.423,18.402L8.373,18.402C8.281,18.402 8.248,18.382 8.248,18.28L8.248,15.424C8.248,15.324 8.278,15.297 8.375,15.297M18.303,4.011L13.129,4.007L13.129,3.057C13.129,2.597 12.954,2.475 12.491,2.475L11.101,2.475C10.643,2.475 10.463,2.593 10.463,3.053L10.463,4.007L5.1,4.011C4.436,4.011 3.92,4.151 3.559,4.435C3.196,4.718 3.007,5.161 3.007,5.725L3.007,7.299C3.007,7.549 2.932,7.61 2.65,7.543C2.073,7.415 1.285,7.241 1.122,7.198C0.677,7.083 0.475,7.154 0.354,7.601C0.321,7.726 0.2,8.178 0.147,8.468C0.067,8.917 0.227,9.068 0.677,9.146C0.912,9.188 2.04,9.439 2.657,9.575C2.887,9.641 2.977,9.719 2.971,9.909C2.968,10.092 2.961,10.279 2.953,10.463C2.951,10.519 2.953,10.573 2.949,10.624C2.925,10.83 2.9,10.868 2.667,11.047C2.182,11.417 1.627,11.74 1.16,11.999C0.829,12.182 0.489,12.358 0.43,12.381C0.01,12.57 -0.103,12.755 0.092,13.173C0.207,13.421 0.369,13.787 0.436,13.935C0.632,14.357 0.839,14.388 1.262,14.199C1.492,14.1 1.531,14.083 2.148,13.749L2.46,13.575C2.596,13.505 2.66,13.539 2.645,13.683C2.515,15 2.543,15.769 2.235,16.431C2.041,16.843 1.84,16.937 1.42,17.124C0.998,17.312 0.885,17.49 1.085,17.911C1.172,18.092 1.29,18.407 1.453,18.813C1.645,19.23 1.86,19.264 2.28,19.078C2.519,18.973 3.1,18.743 3.48,18.357C4.146,17.69 4.306,17.341 4.525,15.882C4.666,14.939 4.718,14.725 4.879,12.282C4.881,12.06 5.046,11.969 5.192,12.133C5.282,12.233 5.654,12.629 5.93,12.919C6.15,13.185 6.303,13.201 6.684,13.014C8.086,12.287 9.403,11.406 10.609,10.386C10.751,10.281 10.845,10.362 10.845,10.492L10.845,13.622L7.293,13.622C6.663,13.622 6.324,13.944 6.324,14.58L6.324,19.067C6.324,19.703 6.667,20.027 7.293,20.027L16.651,20.027C17.276,20.027 17.619,19.702 17.619,19.067L17.619,14.58C17.619,13.944 17.28,13.623 16.651,13.623L12.924,13.623L12.924,9.365C12.924,8.903 13.102,8.784 13.564,8.784L17.894,8.784C18.358,8.784 18.536,8.663 18.536,8.198L18.536,7.533C18.536,7.07 18.358,6.951 17.894,6.951L6.28,6.951C5.82,6.951 5.644,7.071 5.644,7.534L5.647,8.204C5.647,8.665 5.821,8.784 6.28,8.784L9.226,8.784C9.399,8.784 9.476,8.884 9.354,9.008C8.285,10.065 6.912,10.798 5.453,11.431C5.161,11.531 4.971,11.404 4.982,11.104C5.007,10.462 5.04,9.806 5.04,9.137C5.04,9.137 5.082,6.596 5.082,6.426C5.082,5.963 5.26,5.843 5.722,5.843L18.297,5.843C18.633,5.843 18.939,5.811 18.939,5.261L18.939,4.59C18.939,4.235 18.822,4.011 18.302,4.011M18.767,11.693C17.579,10.784 16.321,9.97 15.005,9.259C14.782,9.139 14.627,9.173 14.466,9.303C14.206,9.529 13.803,9.881 13.663,10.026C13.493,10.2 13.483,10.462 13.7,10.61C14.894,11.279 16.433,12.373 17.292,13.097C17.396,13.201 17.533,13.225 17.708,13.093C18.059,12.825 18.676,12.242 18.797,12.123C18.961,11.964 18.971,11.843 18.767,11.693"/>
    </g>
</svg>
