<?xml version="1.0" encoding="UTF-8" standalone="no"?>
<!DOCTYPE svg PUBLIC "-//W3C//DTD SVG 1.1//EN" "http://www.w3.org/Graphics/SVG/1.1/DTD/svg11.dtd">
<svg width="100%" height="100%" viewBox="0 0 41 27" version="1.1" xmlns="http://www.w3.org/2000/svg" xmlns:xlink="http://www.w3.org/1999/xlink" xml:space="preserve" xmlns:serif="http://www.serif.com/" style="fill-rule:evenodd;clip-rule:evenodd;stroke-linejoin:round;stroke-miterlimit:2;">
    <g transform="matrix(1,0,0,1,-63,-3459)">
        <path d="M104,3466.82C100.888,3467.05 98.675,3467.32 96.48,3468.52C97.484,3469.19 98.536,3469.62 99.283,3470.39C100.166,3471.3 102.055,3472.53 102.046,3475.01C102.028,3480.09 97.958,3482.66 94.195,3482.63C89.926,3482.6 86.211,3479.97 86.151,3475.01C86.128,3473.02 86.914,3471.73 87.857,3470.72C88.553,3469.97 90.041,3469.01 90.458,3468.52C87.843,3467.2 85.284,3466.92 83.5,3466.91C81.479,3466.89 78.949,3467.4 76.485,3468.52C79.726,3470.24 81.762,3472.32 81.743,3475.01C81.718,3478.39 79.249,3482.57 73.661,3482.54C69.2,3482.53 65.45,3479.23 65.559,3475.01C65.602,3473.31 66.599,3471.3 68.446,3469.58C68.836,3469.21 69.26,3468.85 69.712,3468.5C67.376,3467.78 64.984,3467.24 63,3466.86L63,3486L104,3486L104,3466.82ZM94.195,3470.06C91.668,3470 89.096,3471.87 89.188,3475.01C89.258,3477.39 91.919,3479.58 94.195,3479.56C96.498,3479.54 99.053,3477.21 99.057,3475.01C99.06,3473.25 96.914,3470.13 94.195,3470.06ZM73.626,3469.74C69.951,3469.76 68.442,3473.55 68.471,3474.97C68.524,3477.57 70.906,3479.53 73.661,3479.54C77.314,3479.56 78.669,3476.89 78.679,3475.01C78.687,3473.43 77.695,3469.72 73.626,3469.74ZM104,3463.81L104,3459L63,3459L63,3463.83C65.801,3464.35 70.276,3465.18 73.626,3466.41C77.127,3464.45 80.018,3463.79 83.032,3463.81C85.416,3463.83 90.722,3464.45 94.195,3466.34C97.02,3464.5 99.625,3463.82 104,3463.81Z" style="fill:white;"/>
    </g>
</svg>
