<?xml version="1.0" encoding="windows-1252"?>
<!-- Generator: Adobe Illustrator 16.0.0, SVG Export Plug-In . SVG Version: 6.00 Build 0)  -->
<!DOCTYPE svg PUBLIC "-//W3C//DTD SVG 1.1//EN" "http://www.w3.org/Graphics/SVG/1.1/DTD/svg11.dtd">
<svg version="1.1" id="&#22294;&#23652;_1" xmlns="http://www.w3.org/2000/svg" xmlns:xlink="http://www.w3.org/1999/xlink" x="0px" y="0px" width="111.209px" height="123.071px" viewBox="0 0 111.209 123.071" style="enable-background:new 0 0 111.209 123.071;" xml:space="preserve">
<g>
	<path style="fill-rule:evenodd;clip-rule:evenodd;fill:#FFFFFF;" d="M111.032,123.071c-37.212,0-73.847,0-110.411,0   c-0.965-1.454-0.515-2.914-0.521-4.282c-0.049-9.613-0.11-19.227,0.008-28.839c0.066-5.378,1.356-10.495,4.576-14.938   c3.873-5.345,8.854-9.031,15.533-10.111c4.694-0.758,9.33-1.963,13.969-1.863c7.086-0.764,35.586-0.514,42.626,0.006   c6.112-0.051,12.434,0.902,18.348,3.077c9.977,3.669,15.173,11.625,15.729,21.904C111.513,99.534,111.032,111.103,111.032,123.071z   "/>
	<path style="fill-rule:evenodd;clip-rule:evenodd;fill:#FFFFFF;" d="M55.427,56.83c-15.972,0.251-28.349-12.875-28.358-28.143   C27.057,10.816,42.465-0.065,55.707,0c13.165,0.064,28.59,11.048,28.352,28.965C83.854,44.392,71.379,57.201,55.427,56.83z"/>
</g>
<polygon style="fill:#FF9019;" points="85.302,73.829 74.513,73.829 74.513,86.419 61.922,86.419 61.922,97.21 74.513,97.21   74.513,109.799 85.302,109.799 85.302,97.21 97.893,97.21 97.893,86.419 85.302,86.419 "/>
</svg>