<?xml version="1.0" encoding="UTF-8" standalone="no"?>
<!DOCTYPE svg PUBLIC "-//W3C//DTD SVG 1.1//EN" "http://www.w3.org/Graphics/SVG/1.1/DTD/svg11.dtd">
<svg width="100%" height="100%" viewBox="0 0 1075 634" version="1.1" xmlns="http://www.w3.org/2000/svg" xmlns:xlink="http://www.w3.org/1999/xlink" xml:space="preserve" xmlns:serif="http://www.serif.com/" style="fill-rule:evenodd;clip-rule:evenodd;stroke-linejoin:round;stroke-miterlimit:2;">
    <g transform="matrix(0.999953,0,0,0.999953,-422.905,-3836.14)">
        <g>
            <clipPath id="_clip1">
                <path d="M489.319,3836.32C452.65,3836.32 422.925,3866.04 422.925,3902.71L422.925,4403.25C422.925,4439.92 452.65,4469.65 489.319,4469.65L1430.68,4469.65C1467.35,4469.65 1497.08,4439.92 1497.08,4403.25L1497.08,3902.71C1497.08,3866.04 1467.35,3836.32 1430.68,3836.32L489.319,3836.32Z" clip-rule="nonzero"/>
            </clipPath>
            <g clip-path="url(#_clip1)">
                <g transform="matrix(-1,0,0,1,2000,2649.24)">
                    <rect x="301" y="1171.05" width="1398" height="752" style="fill:rgb(250,223,176);"/>
                </g>
                <g transform="matrix(-1,0,0,1,1907.99,2789.33)">
                    <rect x="208.584" y="944.567" width="1490.82" height="1064.87" style="fill:rgb(244,231,215);"/>
                </g>
                <g transform="matrix(1,0,0,1,1628.01,4299.46)">
                    <path d="M0,-112.721L-1195.2,-112.721C-1200.38,-112.721 -1204.58,-108.52 -1204.58,-103.336L-1204.58,-9.383C-1204.58,-4.201 -1200.38,0 -1195.2,0L0,0C5.182,0 9.383,-4.201 9.383,-9.383L9.383,-103.336C9.383,-108.52 5.182,-112.721 0,-112.721" style="fill:rgb(252,242,235);fill-rule:nonzero;"/>
                </g>
                <g transform="matrix(1,0,0,1,1555.78,4215.41)">
                    <path d="M0,55.365L-31.525,22.717L0,-9.932L31.526,22.717L0,55.365ZM-66.042,55.365L-97.569,22.717L-66.042,-9.932L-34.517,22.717L-66.042,55.365ZM-132.085,55.365L-163.611,22.717L-132.085,-9.932L-100.56,22.717L-132.085,55.365ZM-198.129,55.365L-229.654,22.717L-198.129,-9.932L-166.603,22.717L-198.129,55.365ZM-264.172,55.365L-295.698,22.717L-264.172,-9.932L-232.646,22.717L-264.172,55.365ZM-330.215,55.365L-361.741,22.717L-330.215,-9.932L-298.687,22.717L-330.215,55.365ZM-396.258,55.365L-427.783,22.717L-396.258,-9.932L-364.73,22.717L-396.258,55.365ZM-462.301,55.365L-493.828,22.717L-462.301,-9.932L-430.775,22.717L-462.301,55.365ZM-528.344,55.365L-559.869,22.717L-528.344,-9.932L-496.818,22.717L-528.344,55.365ZM-594.387,55.365L-625.913,22.717L-594.387,-9.932L-562.861,22.717L-594.387,55.365ZM-660.43,55.365L-691.956,22.717L-660.43,-9.932L-628.904,22.717L-660.43,55.365ZM-726.473,55.365L-758,22.717L-726.473,-9.932L-694.947,22.717L-726.473,55.365ZM-792.516,55.365L-824.042,22.717L-792.516,-9.932L-760.99,22.717L-792.516,55.365ZM-858.56,55.365L-890.085,22.717L-858.56,-9.932L-827.033,22.717L-858.56,55.365ZM-924.602,55.365L-956.128,22.717L-924.602,-9.932L-893.076,22.717L-924.602,55.365ZM-990.645,55.365L-1022.17,22.717L-990.645,-9.932L-959.119,22.717L-990.645,55.365ZM-1056.69,55.365L-1088.21,22.717L-1056.69,-9.932L-1025.16,22.717L-1056.69,55.365ZM81.613,71.491L67.539,56.915L81.613,42.338L81.613,39.24L66.043,55.365L34.518,22.717L66.043,-9.932L81.613,6.193L81.613,3.096L67.539,-11.481L80.066,-24.453C79.667,-25.059 79.2,-25.615 78.676,-26.112L66.043,-13.03L50.934,-28.678L47.942,-28.678L64.548,-11.481L33.021,21.169L1.496,-11.481L18.102,-28.678L15.11,-28.678L0,-13.03L-15.109,-28.678L-18.101,-28.678L-1.495,-11.481L-33.021,21.169L-64.547,-11.481L-47.942,-28.678L-50.933,-28.678L-66.042,-13.03L-81.153,-28.678L-84.144,-28.678L-67.538,-11.481L-99.063,21.169L-130.591,-11.481L-113.984,-28.678L-116.976,-28.678L-132.085,-13.03L-147.196,-28.678L-150.187,-28.678L-133.581,-11.481L-165.106,21.169L-196.634,-11.481L-180.027,-28.678L-183.02,-28.678L-198.129,-13.03L-213.239,-28.678L-216.23,-28.678L-199.624,-11.481L-231.149,21.169L-262.677,-11.481L-246.071,-28.678L-249.061,-28.678L-264.172,-13.03L-279.282,-28.678L-282.273,-28.678L-265.668,-11.481L-297.193,21.169L-328.72,-11.481L-312.114,-28.678L-315.104,-28.678L-330.215,-13.03L-345.325,-28.678L-348.316,-28.678L-331.711,-11.481L-363.236,21.169L-394.763,-11.481L-378.156,-28.678L-381.148,-28.678L-396.258,-13.03L-411.368,-28.678L-414.359,-28.678L-397.754,-11.481L-429.279,21.169L-460.805,-11.481L-444.199,-28.678L-447.191,-28.678L-462.301,-13.03L-477.41,-28.678L-480.402,-28.678L-463.797,-11.481L-495.322,21.169L-526.848,-11.481L-510.242,-28.678L-513.234,-28.678L-528.344,-13.03L-543.455,-28.678L-546.445,-28.678L-529.84,-11.481L-561.366,21.169L-592.891,-11.481L-576.285,-28.678L-579.276,-28.678L-594.387,-13.03L-609.498,-28.678L-612.488,-28.678L-595.882,-11.481L-627.409,21.169L-658.934,-11.481L-642.328,-28.678L-645.319,-28.678L-660.43,-13.03L-675.541,-28.678L-678.531,-28.678L-661.926,-11.481L-693.452,21.169L-724.978,-11.481L-708.372,-28.678L-711.362,-28.678L-726.473,-13.03L-741.583,-28.678L-744.574,-28.678L-727.969,-11.481L-759.494,21.169L-791.021,-11.481L-774.415,-28.678L-777.406,-28.678L-792.516,-13.03L-807.626,-28.678L-810.618,-28.678L-794.012,-11.481L-825.538,21.169L-857.063,-11.481L-840.458,-28.678L-843.449,-28.678L-858.56,-13.03L-873.669,-28.678L-876.661,-28.678L-860.054,-11.481L-891.581,21.169L-923.106,-11.481L-906.501,-28.678L-909.492,-28.678L-924.602,-13.03L-939.712,-28.678L-942.704,-28.678L-926.098,-11.481L-957.624,21.169L-989.149,-11.481L-972.544,-28.678L-975.535,-28.678L-990.645,-13.03L-1005.75,-28.678L-1008.75,-28.678L-992.141,-11.481L-1023.67,21.169L-1055.19,-11.481L-1038.59,-28.678L-1041.58,-28.678L-1056.69,-13.03L-1071.8,-28.678L-1074.79,-28.678L-1058.18,-11.481L-1089.71,21.169L-1120.42,-10.641L-1103.01,-28.678L-1106,-28.678L-1121.92,-12.19L-1131.81,-22.436C-1132.1,-21.626 -1132.28,-20.768 -1132.33,-19.877L-1123.41,-10.641L-1132.35,-1.383L-1132.35,1.715L-1121.92,-9.092L-1091.2,22.717L-1127.78,60.59L-1132.35,55.85L-1132.35,58.947L-1129.27,62.138L-1132.35,65.331L-1132.35,68.428L-1127.78,63.687L-1108.12,84.043L-1105.13,84.043L-1126.28,62.138L-1089.71,24.265L-1058.18,56.915L-1084.38,84.043L-1081.39,84.043L-1056.69,58.464L-1031.99,84.043L-1029,84.043L-1055.19,56.915L-1023.67,24.265L-992.141,56.915L-1018.34,84.043L-1015.35,84.043L-990.645,58.464L-965.945,84.043L-962.954,84.043L-989.149,56.915L-957.624,24.265L-926.098,56.915L-952.293,84.043L-949.302,84.043L-924.602,58.464L-899.902,84.043L-896.911,84.043L-923.106,56.915L-891.581,24.265L-860.054,56.915L-886.25,84.043L-883.259,84.043L-858.56,58.464L-833.859,84.043L-830.868,84.043L-857.063,56.915L-825.538,24.265L-794.012,56.915L-820.208,84.043L-817.216,84.043L-792.516,58.464L-767.816,84.043L-764.825,84.043L-791.021,56.915L-759.494,24.265L-727.969,56.915L-754.164,84.043L-751.172,84.043L-726.473,58.464L-701.772,84.043L-698.782,84.043L-724.978,56.915L-693.452,24.265L-661.926,56.915L-688.12,84.043L-685.13,84.043L-660.43,58.464L-635.73,84.043L-632.739,84.043L-658.934,56.915L-627.409,24.265L-595.882,56.915L-622.078,84.043L-619.087,84.043L-594.387,58.464L-569.687,84.043L-566.697,84.043L-592.891,56.915L-561.366,24.265L-529.84,56.915L-556.035,84.043L-553.043,84.043L-528.344,58.464L-503.643,84.043L-500.652,84.043L-526.848,56.915L-495.322,24.265L-463.797,56.915L-489.992,84.043L-487,84.043L-462.301,58.464L-437.6,84.043L-434.609,84.043L-460.805,56.915L-429.279,24.265L-397.754,56.915L-423.949,84.043L-420.959,84.043L-396.258,58.464L-371.559,84.043L-368.565,84.043L-394.763,56.915L-363.236,24.265L-331.711,56.915L-357.904,84.043L-354.915,84.043L-330.215,58.464L-305.516,84.043L-302.522,84.043L-328.72,56.915L-297.193,24.265L-265.668,56.915L-291.861,84.043L-288.872,84.043L-264.172,58.464L-239.473,84.043L-236.48,84.043L-262.677,56.915L-231.149,24.265L-199.624,56.915L-225.819,84.043L-222.829,84.043L-198.129,58.464L-173.429,84.043L-170.438,84.043L-196.634,56.915L-165.106,24.265L-133.581,56.915L-159.776,84.043L-156.785,84.043L-132.085,58.464L-107.386,84.043L-104.395,84.043L-130.591,56.915L-99.063,24.265L-67.538,56.915L-93.734,84.043L-90.742,84.043L-66.042,58.464L-41.343,84.043L-38.352,84.043L-64.547,56.915L-33.021,24.265L-1.495,56.915L-27.69,84.043L-24.699,84.043L0,58.464L24.7,84.043L27.691,84.043L1.496,56.915L33.021,24.265L64.548,56.915L38.353,84.043L41.343,84.043L66.043,58.464L81.613,74.588L81.613,71.491Z" style="fill:rgb(242,233,219);fill-rule:nonzero;"/>
                </g>
                <g transform="matrix(0.707122,-0.707091,-0.707091,-0.707122,1409.83,4122.99)">
                    <path d="M-193.353,-444.117L-161.258,-444.117L-1088.27,482.858L-1104.32,466.811L-193.353,-444.117Z" style="fill:rgb(84,125,127);fill-rule:nonzero;"/>
                </g>
                <g transform="matrix(-1,0,0,1,2846.19,2898.14)">
                    <rect x="1406.03" y="1420.08" width="34.143" height="5.035" style="fill:rgb(216,206,199);"/>
                </g>
                <g transform="matrix(-1,0,0,1,2846.2,2898.14)">
                    <rect x="1413.74" y="1420.08" width="18.715" height="5.035" style="fill:rgb(204,190,182);"/>
                </g>
                <g transform="matrix(1,0,0,1,0,2898.14)">
                    <rect x="1434.83" y="1420.08" width="5.335" height="5.035" style="fill:rgb(204,190,182);"/>
                </g>
                <g transform="matrix(-1,0,0,1,2817.39,2898.15)">
                    <rect x="1406.03" y="1420.08" width="5.337" height="5.035" style="fill:rgb(204,190,182);"/>
                </g>
                <g transform="matrix(1,0,0,1,1444.86,4314.05)">
                    <path d="M0,13.372L-6.371,13.372C-8.074,13.372 -9.455,11.993 -9.455,10.29L-9.455,3.082C-9.455,1.378 -8.074,0 -6.371,0L0,0C1.704,0 3.084,1.378 3.084,3.082L3.084,10.29C3.084,11.993 1.704,13.372 0,13.372" style="fill:rgb(216,206,199);fill-rule:nonzero;"/>
                </g>
                <g transform="matrix(1,0,0,1,1407.71,4314.05)">
                    <path d="M0,13.372L-6.374,13.372C-8.076,13.372 -9.456,11.993 -9.456,10.29L-9.456,3.082C-9.456,1.378 -8.076,0 -6.374,0L0,0C1.702,0 3.083,1.378 3.083,3.082L3.083,10.29C3.083,11.993 1.702,13.372 0,13.372" style="fill:rgb(216,206,199);fill-rule:nonzero;"/>
                </g>
                <g transform="matrix(1,0,0,1,1378.21,4327.12)">
                    <path d="M0,-89.703L0,-77.621C0,-76.28 1.086,-75.193 2.425,-75.193L12.231,-75.193C13.572,-75.193 14.657,-76.28 14.657,-77.621L14.657,-81.205C14.657,-83.754 16.722,-85.818 19.27,-85.818L33.002,-85.818C35.705,-85.818 37.895,-83.628 37.895,-80.926L37.895,10.772L52.553,10.772L52.553,-87.651C52.553,-94.734 46.811,-100.475 39.728,-100.475L10.772,-100.475C4.823,-100.475 0,-95.651 0,-89.703" style="fill:rgb(216,206,199);fill-rule:nonzero;"/>
                </g>
                <g transform="matrix(1,0,0,1,1418.4,4239.38)">
                    <path d="M0,95.492L0,4.478C0,2.006 -2.006,0 -4.479,0L-22.526,0C-24.187,0 -25.533,1.347 -25.533,3.007L-25.533,6.535C-25.533,3.986 -23.469,1.922 -20.921,1.922L-7.188,1.922C-4.485,1.922 -2.296,4.113 -2.296,6.814L-2.296,95.492L0,95.492Z" style="fill:rgb(204,190,182);fill-rule:nonzero;"/>
                </g>
                <g transform="matrix(1,0,0,1,1391.15,4248.71)">
                    <path d="M0,-18.127C-0.528,-17.979 -1.056,-17.862 -1.584,-17.756C-1.848,-17.701 -2.112,-17.654 -2.377,-17.606C-2.64,-17.557 -2.914,-17.521 -3.139,-17.457C-3.257,-17.428 -3.372,-17.408 -3.486,-17.377L-3.826,-17.266C-4.052,-17.206 -4.261,-17.095 -4.475,-17.012C-4.58,-16.971 -4.677,-16.902 -4.779,-16.854C-4.879,-16.798 -4.984,-16.759 -5.076,-16.693C-5.267,-16.566 -5.458,-16.453 -5.629,-16.311C-5.717,-16.242 -5.807,-16.18 -5.892,-16.109L-6.133,-15.883L-6.253,-15.772L-6.363,-15.65L-6.585,-15.413C-6.849,-15.068 -7.109,-14.727 -7.296,-14.344C-7.406,-14.161 -7.477,-13.963 -7.562,-13.77C-7.61,-13.677 -7.631,-13.572 -7.668,-13.473C-7.699,-13.373 -7.739,-13.276 -7.763,-13.174C-7.782,-13.072 -7.809,-12.969 -7.832,-12.867C-7.844,-12.818 -7.859,-12.768 -7.87,-12.716L-7.889,-12.561L-7.933,-12.25C-7.945,-12.147 -7.942,-12.039 -7.949,-11.936L-7.959,-11.78L-7.965,-11.701L-7.965,-11.604L-7.968,-11.205L-7.979,-10.414C-7.991,-9.885 -8.007,-9.356 -8.031,-8.829C-8.054,-8.301 -8.082,-7.773 -8.121,-7.246C-8.155,-6.718 -8.199,-6.188 -8.249,-5.662C-8.458,-3.549 -8.742,-1.436 -9.307,0.676C-9.871,-1.436 -10.152,-3.549 -10.361,-5.662C-10.412,-6.188 -10.456,-6.718 -10.491,-7.246C-10.53,-7.773 -10.559,-8.301 -10.582,-8.829C-10.604,-9.356 -10.62,-9.885 -10.634,-10.414L-10.645,-11.205L-10.648,-11.604L-10.648,-11.701L-10.642,-11.82L-10.632,-12.061C-10.551,-14.624 -8.943,-17.057 -6.711,-18.117C-6.162,-18.398 -5.569,-18.578 -4.979,-18.698L-4.53,-18.76C-4.456,-18.77 -4.383,-18.783 -4.309,-18.787L-4.084,-18.795L-3.639,-18.803C-3.492,-18.796 -3.344,-18.783 -3.196,-18.77C-2.895,-18.744 -2.641,-18.7 -2.377,-18.652C-2.112,-18.602 -1.848,-18.555 -1.584,-18.502C-1.056,-18.395 -0.528,-18.277 0,-18.127" style="fill:rgb(221,215,211);fill-rule:nonzero;"/>
                </g>
                <g transform="matrix(1,0,0,1,1417.94,4336.98)">
                    <path d="M0,-110.339L-8.28,-110.339C-3.088,-110.208 10.439,-109.051 10.439,-99.201L10.439,0L12.825,0L12.825,-97.515C12.825,-104.598 7.083,-110.339 0,-110.339" style="fill:rgb(221,215,211);fill-rule:nonzero;"/>
                </g>
                <g transform="matrix(1,0,0,1,1407.31,4226.65)">
                    <path d="M0,-0.009L-0.197,-0.009L-0.227,0C-0.227,0 -0.147,-0.004 0,-0.009" style="fill:rgb(62,74,94);fill-rule:nonzero;"/>
                </g>
                <g transform="matrix(1,0,0,1,1526.41,4329.72)">
                    <path d="M0,33.725L-221.059,33.725C-224.613,33.725 -227.495,30.844 -227.495,27.29L-227.495,6.561C-227.495,2.916 -224.476,0 -220.834,0.129C-200.575,0.842 -139.333,2.915 -110.529,2.915C-81.726,2.915 -20.482,0.842 -0.225,0.129C3.417,0 6.436,2.916 6.436,6.561L6.436,27.29C6.436,30.844 3.555,33.725 0,33.725" style="fill:rgb(216,206,199);fill-rule:nonzero;"/>
                </g>
                <g transform="matrix(1,0,0,1,1305.35,4335.96)">
                    <path d="M0,27.489L221.059,27.489C224.613,27.489 227.494,24.608 227.494,21.054L227.494,0.325C227.494,0.216 227.491,0.108 227.485,0C203.906,0.765 140.704,2.723 110.529,2.723C80.354,2.723 17.152,0.765 -6.427,0C-6.434,0.108 -6.437,0.216 -6.437,0.325L-6.437,21.054C-6.437,24.608 -3.555,27.489 0,27.489" style="fill:rgb(204,190,182);fill-rule:nonzero;"/>
                </g>
                <g transform="matrix(1,0,0,1,650.939,4596.66)">
                    <path d="M0,-245.927L0,-4.049C0,-1.813 1.813,0 4.049,0L902.261,0C904.499,0 906.312,-1.813 906.312,-4.049L906.312,-245.927L0,-245.927Z" style="fill:rgb(204,142,92);fill-rule:nonzero;"/>
                </g>
                <g transform="matrix(1,0,0,1,1560.33,4350.73)">
                    <path d="M0,-11.858L-912.47,-11.858C-914.695,-11.858 -916.498,-10.054 -916.498,-7.831L-916.498,-4.028C-916.498,-1.803 -914.695,0 -912.47,0L0,0C2.225,0 4.027,-1.803 4.027,-4.028L4.027,-7.831C4.027,-10.054 2.225,-11.858 0,-11.858" style="fill:rgb(160,110,77);fill-rule:nonzero;"/>
                </g>
                <g transform="matrix(-1,0,0,1,1784.03,3199.39)">
                    <rect x="890.755" y="1146.67" width="2.517" height="250.586" style="fill:rgb(160,110,77);"/>
                </g>
                <g transform="matrix(-1,0,0,1,2171.02,3199.39)">
                    <rect x="1084.25" y="1146.67" width="2.518" height="250.586" style="fill:rgb(160,110,77);"/>
                </g>
                <g transform="matrix(-1,0,0,1,2558.01,3199.39)">
                    <rect x="1277.74" y="1146.67" width="2.52" height="250.586" style="fill:rgb(160,110,77);"/>
                </g>
                <g transform="matrix(1,0,0,1,0,3195.9)">
                    <path d="M905.546,1312.27L1072.03,1312.27L1072.03,1371.12L905.546,1371.12L905.546,1312.27ZM1072.03,1309.75L905.546,1309.75L905.546,1264.12L1072.03,1264.12L1072.03,1309.75ZM905.546,1215.96L1072.03,1215.96L1072.03,1261.6L905.546,1261.6L905.546,1215.96ZM1072.03,1213.45L905.546,1213.45L905.546,1176.31L1072.03,1176.31L1072.03,1213.45ZM903.028,1373.64L1074.55,1373.64L1074.55,1173.79L903.028,1173.79L903.028,1373.64Z" style="fill:rgb(212,150,99);fill-rule:nonzero;"/>
                </g>
                <g transform="matrix(1,0,0,1,0,3195.9)">
                    <path d="M1099.04,1312.27L1265.53,1312.27L1265.53,1371.12L1099.04,1371.12L1099.04,1312.27ZM1265.53,1309.75L1099.04,1309.75L1099.04,1264.12L1265.53,1264.12L1265.53,1309.75ZM1099.04,1215.96L1265.53,1215.96L1265.53,1261.6L1099.04,1261.6L1099.04,1215.96ZM1265.53,1213.45L1099.04,1213.45L1099.04,1176.31L1265.53,1176.31L1265.53,1213.45ZM1096.53,1373.64L1268.05,1373.64L1268.05,1173.79L1096.53,1173.79L1096.53,1373.64Z" style="fill:rgb(212,150,99);fill-rule:nonzero;"/>
                </g>
                <g transform="matrix(1,0,0,1,1197.84,4380.69)">
                    <path d="M0,5.98L-29.936,5.98C-31.227,5.98 -32.276,4.931 -32.276,3.638L-32.276,2.341C-32.276,1.048 -31.227,0 -29.936,0L0,0C1.292,0 2.338,1.048 2.338,2.341L2.338,3.638C2.338,4.931 1.292,5.98 0,5.98" style="fill:rgb(212,150,99);fill-rule:nonzero;"/>
                </g>
                <g transform="matrix(1,0,0,1,1197.84,4419.24)">
                    <path d="M0,5.979L-29.936,5.979C-31.227,5.979 -32.276,4.928 -32.276,3.635L-32.276,2.338C-32.276,1.046 -31.227,0 -29.936,0L0,0C1.292,0 2.338,1.046 2.338,2.338L2.338,3.635C2.338,4.928 1.292,5.979 0,5.979" style="fill:rgb(212,150,99);fill-rule:nonzero;"/>
                </g>
                <g transform="matrix(1,0,0,1,1197.84,4466.75)">
                    <path d="M0,5.979L-29.936,5.979C-31.227,5.979 -32.276,4.931 -32.276,3.638L-32.276,2.339C-32.276,1.048 -31.227,0 -29.936,0L0,0C1.292,0 2.338,1.048 2.338,2.339L2.338,3.638C2.338,4.931 1.292,5.979 0,5.979" style="fill:rgb(212,150,99);fill-rule:nonzero;"/>
                </g>
                <g transform="matrix(1,0,0,1,761.215,4379.74)">
                    <path d="M0,5.981L-29.935,5.981C-31.227,5.981 -32.275,4.93 -32.275,3.638L-32.275,2.341C-32.275,1.046 -31.227,0 -29.935,0L0,0C1.293,0 2.341,1.046 2.341,2.341L2.341,3.638C2.341,4.93 1.293,5.981 0,5.981" style="fill:rgb(212,150,99);fill-rule:nonzero;"/>
                </g>
                <g transform="matrix(1,0,0,1,1004.34,4380.69)">
                    <path d="M0,5.98L-29.937,5.98C-31.229,5.98 -32.277,4.931 -32.277,3.638L-32.277,2.341C-32.277,1.048 -31.229,0 -29.937,0L0,0C1.291,0 2.339,1.048 2.339,2.341L2.339,3.638C2.339,4.931 1.291,5.98 0,5.98" style="fill:rgb(212,150,99);fill-rule:nonzero;"/>
                </g>
                <g transform="matrix(1,0,0,1,1004.34,4419.24)">
                    <path d="M0,5.979L-29.937,5.979C-31.229,5.979 -32.277,4.928 -32.277,3.635L-32.277,2.338C-32.277,1.046 -31.229,0 -29.937,0L0,0C1.291,0 2.339,1.046 2.339,2.338L2.339,3.635C2.339,4.928 1.291,5.979 0,5.979" style="fill:rgb(212,150,99);fill-rule:nonzero;"/>
                </g>
                <g transform="matrix(1,0,0,1,1004.34,4466.75)">
                    <path d="M0,5.979L-29.937,5.979C-31.229,5.979 -32.277,4.931 -32.277,3.638L-32.277,2.339C-32.277,1.048 -31.229,0 -29.937,0L0,0C1.291,0 2.339,1.048 2.339,2.339L2.339,3.638C2.339,4.931 1.291,5.979 0,5.979" style="fill:rgb(212,150,99);fill-rule:nonzero;"/>
                </g>
                <g transform="matrix(1,0,0,1,811.881,4379.74)">
                    <path d="M0,5.981L-29.936,5.981C-31.227,5.981 -32.276,4.93 -32.276,3.638L-32.276,2.341C-32.276,1.046 -31.227,0 -29.936,0L0,0C1.292,0 2.341,1.046 2.341,2.341L2.341,3.638C2.341,4.93 1.292,5.981 0,5.981" style="fill:rgb(212,150,99);fill-rule:nonzero;"/>
                </g>
                <g transform="matrix(1,0,0,1,0,3195.9)">
                    <path d="M868.018,1371.12L772.826,1371.12L772.826,1176.31L868.018,1176.31L868.018,1371.12ZM675.114,1176.31L770.307,1176.31L770.307,1371.12L675.114,1371.12L675.114,1176.31ZM672.597,1373.64L870.536,1373.64L870.536,1173.79L672.597,1173.79L672.597,1373.64Z" style="fill:rgb(212,150,99);fill-rule:nonzero;"/>
                </g>
                <g transform="matrix(1,0,0,1,1405.48,4379.74)">
                    <path d="M0,5.981L-29.936,5.981C-31.228,5.981 -32.275,4.93 -32.275,3.638L-32.275,2.341C-32.275,1.046 -31.228,0 -29.936,0L0,0C1.293,0 2.341,1.046 2.341,2.341L2.341,3.638C2.341,4.93 1.293,5.981 0,5.981" style="fill:rgb(212,150,99);fill-rule:nonzero;"/>
                </g>
                <g transform="matrix(1,0,0,1,1456.14,4379.74)">
                    <path d="M0,5.981L-29.935,5.981C-31.227,5.981 -32.273,4.93 -32.273,3.638L-32.273,2.341C-32.273,1.046 -31.227,0 -29.935,0L0,0C1.294,0 2.342,1.046 2.342,2.341L2.342,3.638C2.342,4.93 1.294,5.981 0,5.981" style="fill:rgb(212,150,99);fill-rule:nonzero;"/>
                </g>
                <g transform="matrix(1,0,0,1,1300.61,4567.02)">
                    <path d="M0,-194.812L113.96,-194.812L113.96,0L3.108,0L0,-194.812ZM231.668,0L116.479,0L116.479,-194.812L228.561,-194.812L231.668,0ZM231.039,-197.329L-2.557,-197.329L0.631,2.517L234.227,2.517L231.039,-197.329Z" style="fill:rgb(212,150,99);fill-rule:nonzero;"/>
                </g>
                <g transform="matrix(1,0,0,1,625.454,4350.73)">
                    <path d="M0,245.927L-224.567,245.927C-226.803,245.927 -228.616,244.115 -228.616,241.878L-228.616,0L4.05,0L4.05,241.878C4.05,244.115 2.236,245.927 0,245.927" style="fill:rgb(237,255,255);fill-rule:nonzero;"/>
                </g>
                <g transform="matrix(1,0,0,1,594.769,4410.26)">
                    <path d="M0,134.816L-163.196,134.816C-165.604,134.816 -167.557,132.865 -167.557,130.455L-167.557,4.36C-167.557,1.951 -165.604,0 -163.196,0L0,0C2.409,0 4.361,1.951 4.361,4.36L4.361,130.455C4.361,132.865 2.409,134.816 0,134.816" style="fill:rgb(196,206,206);fill-rule:nonzero;"/>
                </g>
                <g transform="matrix(-1,0,0,1,1026.34,3212.01)">
                    <rect x="434.501" y="1205.41" width="157.338" height="120.506" style="fill:rgb(63,52,49);"/>
                </g>
                <g transform="matrix(1,0,0,1,554.476,4432.13)">
                    <path d="M0,6.684L-82.609,6.684C-84.122,6.684 -85.347,5.457 -85.347,3.945L-85.347,2.739C-85.347,1.227 -84.122,0 -82.609,0L0,0C1.513,0 2.737,1.227 2.737,2.739L2.737,3.945C2.737,5.457 1.513,6.684 0,6.684" style="fill:rgb(196,206,206);fill-rule:nonzero;"/>
                </g>
                <g transform="matrix(1,0,0,1,631.489,4350.73)">
                    <path d="M0,-11.858L-236.636,-11.858C-238.861,-11.858 -240.665,-10.054 -240.665,-7.831L-240.665,-4.028C-240.665,-1.803 -238.861,0 -236.636,0L0,0C2.225,0 4.028,-1.803 4.028,-4.028L4.028,-7.831C4.028,-10.054 2.225,-11.858 0,-11.858" style="fill:rgb(62,74,94);fill-rule:nonzero;"/>
                </g>
                <g transform="matrix(-1,0,0,1,1026.34,3056.93)">
                    <rect x="396.838" y="1342.33" width="232.666" height="1.74" style="fill:rgb(104,84,71);"/>
                </g>
                <g transform="matrix(0,-1,-1,0,418.335,4366.51)">
                    <path d="M-6.377,-6.38C-9.898,-6.38 -12.756,-3.525 -12.756,-0.003C-12.756,3.521 -9.898,6.377 -6.377,6.377C-2.856,6.377 -0,3.521 -0,-0.003C-0,-3.525 -2.856,-6.38 -6.377,-6.38" style="fill:rgb(63,52,49);fill-rule:nonzero;"/>
                </g>
                <g transform="matrix(-1,0,0,1,1026.34,3003.08)">
                    <rect x="439.453" y="1360.76" width="147.435" height="18.722" style="fill:rgb(63,52,49);"/>
                </g>
                <g transform="matrix(0,-1,-1,0,446.873,4385.1)">
                    <path d="M-4.582,-4.584C-7.114,-4.584 -9.165,-2.532 -9.165,-0.001C-9.165,2.53 -7.114,4.582 -4.582,4.582C-2.052,4.582 -0.001,2.53 -0.001,-0.001C-0.001,-2.532 -2.052,-4.584 -4.582,-4.584" style="fill:rgb(63,52,49);fill-rule:nonzero;"/>
                </g>
                <g transform="matrix(0,-1,-1,0,525.148,4385.1)">
                    <path d="M-4.582,-4.584C-7.114,-4.584 -9.165,-2.533 -9.165,-0.001C-9.165,2.529 -7.114,4.582 -4.582,4.582C-2.052,4.582 -0.001,2.529 -0.001,-0.001C-0.001,-2.533 -2.052,-4.584 -4.582,-4.584" style="fill:rgb(63,52,49);fill-rule:nonzero;"/>
                </g>
                <g transform="matrix(0,-1,-1,0,561.361,4385.1)">
                    <path d="M-4.582,-4.584C-7.114,-4.584 -9.165,-2.532 -9.165,-0.001C-9.165,2.53 -7.114,4.582 -4.582,4.582C-2.052,4.582 -0.001,2.53 -0.001,-0.001C-0.001,-2.532 -2.052,-4.584 -4.582,-4.584" style="fill:rgb(63,52,49);fill-rule:nonzero;"/>
                </g>
                <g transform="matrix(0,-1,-1,0,543.254,4385.1)">
                    <path d="M-4.583,-4.584C-7.114,-4.584 -9.166,-2.532 -9.166,-0.001C-9.166,2.529 -7.114,4.583 -4.583,4.583C-2.053,4.583 -0.002,2.529 -0.002,-0.001C-0.002,-2.532 -2.053,-4.584 -4.583,-4.584" style="fill:rgb(63,52,49);fill-rule:nonzero;"/>
                </g>
                <g transform="matrix(0,-1,-1,0,579.467,4385.1)">
                    <path d="M-4.582,-4.584C-7.114,-4.584 -9.165,-2.532 -9.165,-0.001C-9.165,2.531 -7.114,4.582 -4.582,4.582C-2.052,4.582 -0.001,2.531 -0.001,-0.001C-0.001,-2.532 -2.052,-4.584 -4.582,-4.584" style="fill:rgb(63,52,49);fill-rule:nonzero;"/>
                </g>
                <g transform="matrix(-1,0,0,1,1013.74,3004.78)">
                    <rect x="495.803" y="1363.51" width="22.132" height="11.535" style="fill:rgb(226,86,75);"/>
                </g>
            </g>
        </g>
    </g>
</svg>
