<?xml version="1.0" encoding="UTF-8" standalone="no"?>
<!DOCTYPE svg PUBLIC "-//W3C//DTD SVG 1.1//EN" "http://www.w3.org/Graphics/SVG/1.1/DTD/svg11.dtd">
<svg width="100%" height="100%" viewBox="0 0 144 120" version="1.1" xmlns="http://www.w3.org/2000/svg" xmlns:xlink="http://www.w3.org/1999/xlink" xml:space="preserve" xmlns:serif="http://www.serif.com/" style="fill-rule:evenodd;clip-rule:evenodd;stroke-linejoin:round;stroke-miterlimit:2;">
    <g transform="matrix(1,0,0,1,-321.01,-544.868)">
        <g transform="matrix(-0.961241,-0.275879,-0.275879,0.961241,371.489,581.818)">
            <rect x="-7.062" y="-32.257" width="2.524" height="33.251" style="fill:rgb(229,208,163);"/>
        </g>
        <g transform="matrix(0.0638851,0.998004,0.998004,-0.0638851,409.151,585.118)">
            <path d="M-13.487,-49.078L50.099,-49.078L51.407,-20.676L-9.991,-10.389L-13.487,-49.078Z" style="fill:rgb(255,59,59);fill-rule:nonzero;"/>
        </g>
        <g transform="matrix(1.00005,0,0,1.00005,383.025,606.822)">
            <path d="M0,-0.598L-11.64,-22.979L14.469,-24.659L15.12,-31.01L-23.715,-32.027L-19.653,31.429L8.775,30.921L11.803,1.371L0,-0.598Z" style="fill:rgb(214,39,39);fill-rule:nonzero;"/>
        </g>
        <g transform="matrix(1.00005,0,0,1.00005,380.661,598.073)">
            <path d="M0,34.521L1.269,21.07L-15.737,0L-51.019,4.316L-56.603,7.109L-33.251,32.236L0,34.521Z" style="fill:rgb(247,187,141);fill-rule:nonzero;"/>
        </g>
        <g transform="matrix(0.996961,-0.078495,-0.078495,-0.996961,326.315,607.725)">
            <path d="M0.945,1.968L33.28,1.968L49.872,-26.58L19.568,-23.43L0.945,1.968Z" style="fill:rgb(191,124,75);fill-rule:nonzero;"/>
        </g>
        <g transform="matrix(1.00005,0,0,1.00005,324.818,628.534)">
            <path d="M0,15.991L-3.808,8.123L-2.792,0.253L52.288,-0.762L55.841,4.061L48.988,16.753L0,15.991Z" style="fill:rgb(219,155,101);fill-rule:nonzero;"/>
        </g>
        <g transform="matrix(-0.435665,-0.900161,-0.900161,0.435665,367.196,659.928)">
            <path d="M32.324,31.435L41.065,31.435L18.736,-24.026L10.297,-12.328L32.324,31.435Z" style="fill:rgb(193,129,82);fill-rule:nonzero;"/>
        </g>
        <g transform="matrix(1.00005,0,0,1.00005,377.108,645.288)">
            <path d="M0,-17.515L-28.374,-16.992L-28.374,-10.539L-22.33,-0.391L-3.3,0L3.553,-12.692L0,-17.515Z" style="fill:rgb(247,187,141);fill-rule:nonzero;"/>
        </g>
        <g transform="matrix(1.00005,0,0,1.00005,395.481,579.109)">
            <path d="M0,-7.869L-34.775,-7.869C-36.947,-7.869 -38.709,-6.107 -38.709,-3.934C-38.709,-1.761 -36.947,0 -34.775,0L0,0C2.172,0 3.933,-1.761 3.933,-3.934C3.933,-6.107 2.172,-7.869 0,-7.869" style="fill:rgb(229,208,163);fill-rule:nonzero;"/>
        </g>
        <g transform="matrix(1.00005,0,0,1.00005,395.384,575.799)">
            <path d="M0,-4.829L-33.685,-4.829C-35.018,-4.829 -36.098,-3.747 -36.098,-2.416C-36.098,-1.082 -35.018,0 -33.685,0L0,0C1.333,0 2.414,-1.082 2.414,-2.416C2.414,-3.747 1.333,-4.829 0,-4.829" style="fill:rgb(255,241,207);fill-rule:nonzero;"/>
        </g>
        <g transform="matrix(0.275418,-0.961373,-0.961373,-0.275418,405.34,540.541)">
            <path d="M-14.658,-7.592L-10.217,-7.592L-10.216,19.95L-12.754,19.951L-14.658,-7.592Z" style="fill:rgb(255,241,207);fill-rule:nonzero;"/>
        </g>
        <g transform="matrix(0.0540949,-0.998582,-0.998582,-0.0540949,412.377,611.461)">
            <path d="M-25.512,-24.166C-34.434,-24.167 -41.667,-12.727 -41.667,1.384C-41.666,15.493 -34.435,26.931 -25.512,26.932C-16.588,26.933 -9.355,15.494 -9.354,1.383C-9.355,-12.727 -16.588,-24.166 -25.512,-24.166" style="fill:rgb(255,136,9);fill-rule:nonzero;"/>
        </g>
        <g transform="matrix(1.00005,0,0,1.00005,-257.52,-2589.8)">
            <g opacity="0.75">
                <g transform="matrix(0.0540579,-0.998538,-0.998538,-0.0540579,669.118,3203.5)">
                    <path d="M-18.723,-17.733C-23.991,-17.734 -28.261,-9.339 -28.261,1.016C-28.26,11.37 -23.989,19.764 -18.723,19.764C-13.452,19.765 -9.181,11.369 -9.182,1.015C-9.183,-9.339 -13.454,-17.733 -18.723,-17.733" style="fill:rgb(255,179,77);fill-rule:nonzero;"/>
                </g>
            </g>
        </g>
        <g transform="matrix(0.0541005,-0.998582,-0.998582,-0.0541005,411.062,620.398)">
            <path d="M-10.964,-10.385C-13.364,-10.385 -15.305,-5.469 -15.305,0.595C-15.306,6.659 -13.363,11.574 -10.964,11.575C-8.566,11.575 -6.622,6.659 -6.623,0.595C-6.622,-5.468 -8.565,-10.385 -10.964,-10.385" style="fill:rgb(239,132,0);fill-rule:nonzero;"/>
        </g>
        <g transform="matrix(-0.0414659,0.999187,0.999187,0.0414659,410.764,622.681)">
            <path d="M10.229,-10.662C11.806,-9.012 12.945,-5.128 13.003,-0.585C13.064,4.204 11.902,8.291 10.229,9.813C8.652,8.163 7.511,4.278 7.455,-0.265C7.394,-5.055 8.556,-9.141 10.229,-10.662" style="fill:rgb(218,113,0);fill-rule:nonzero;"/>
        </g>
        <g transform="matrix(1.00005,0,0,1.00005,422.908,634.48)">
            <path d="M0,-2.782C-0.359,-2.759 -0.719,-2.706 -1.073,-2.626C-1.426,-2.54 -1.773,-2.425 -2.11,-2.283C-2.79,-1.994 -3.379,-1.581 -3.967,-1.221C-4.545,-0.846 -5.133,-0.517 -5.752,-0.251C-6.983,0.295 -8.327,0.587 -9.691,0.778C-13.021,1.245 -14.077,1.062 -16.865,0.389C-18.204,0.068 -19.505,-0.382 -20.669,-1.057C-21.256,-1.391 -21.804,-1.782 -22.339,-2.217C-22.883,-2.637 -23.427,-3.112 -24.071,-3.472C-24.39,-3.649 -24.723,-3.802 -25.064,-3.926C-25.408,-4.044 -25.759,-4.136 -26.114,-4.196C-26.824,-4.309 -27.552,-4.325 -28.239,-4.157C-26.836,-4.136 -25.497,-3.694 -24.387,-2.957C-23.835,-2.587 -23.332,-2.124 -22.795,-1.66C-22.253,-1.206 -21.671,-0.766 -21.042,-0.408C-19.775,0.306 -18.379,0.726 -16.983,0.955C-15.765,1.16 -14.545,1.411 -13.321,1.387C-12.107,1.543 -10.868,1.426 -9.634,1.354C-8.221,1.276 -6.788,1.011 -5.452,0.437C-4.788,0.149 -4.162,-0.227 -3.573,-0.618C-2.991,-1.021 -2.439,-1.428 -1.852,-1.735C-0.668,-2.35 0.71,-2.643 2.108,-2.511C1.443,-2.755 0.717,-2.817 0,-2.782" style="fill:rgb(213,111,0);fill-rule:nonzero;"/>
        </g>
        <g transform="matrix(1.00005,0,0,1.00005,-257.52,-2589.8)">
            <g opacity="0.37">
                <g transform="matrix(1,0,0,1,666.161,3229.76)">
                    <path d="M0,8.782C-15.695,8.227 -22.324,-0.747 -24.549,-4.864C-24.555,-4.786 -24.562,-4.708 -24.566,-4.63C-25.049,4.279 -14.019,12.12 0.071,12.884C14.161,13.646 25.974,7.043 26.457,-1.866C26.467,-2.052 26.47,-2.237 26.469,-2.422C23.215,3.038 18.201,9.427 0,8.782" style="fill:rgb(213,111,0);fill-rule:nonzero;"/>
                </g>
            </g>
        </g>
        <g transform="matrix(1.00005,0,0,1.00005,405.528,625.372)">
            <path d="M0,-2.571C0,-2.571 -2.3,-4.87 -11.848,0.048C-16.22,2.299 -11.186,2.131 -7.035,0.726C-3.628,-0.426 -0.114,-1.994 0,-2.571" style="fill:rgb(152,20,20);fill-rule:nonzero;"/>
        </g>
        <g transform="matrix(1.00005,0,0,1.00005,420.657,626.583)">
            <path d="M0,-2.126C0,-2.126 -3.74,-4.085 -7.009,-3.927C-10.279,-3.77 -9.666,-2.734 -6.136,-1.537C-2.604,-0.345 5.966,1.959 0,-2.126" style="fill:rgb(255,208,147);fill-rule:nonzero;"/>
        </g>
        <g transform="matrix(0.0541656,-0.998579,-0.998579,-0.0541656,395.001,635.446)">
            <path d="M-2.793,-2.646C-4.107,-2.646 -5.173,-1.394 -5.172,0.151C-5.172,1.695 -4.108,2.948 -2.793,2.948C-1.479,2.948 -0.413,1.695 -0.414,0.152C-0.414,-1.393 -1.479,-2.646 -2.793,-2.646" style="fill:rgb(255,136,9);fill-rule:nonzero;"/>
        </g>
        <g transform="matrix(0.0539239,-0.998592,-0.998592,-0.0539239,424.252,637.781)">
            <path d="M-0.999,-0.948C-1.462,-0.948 -1.835,-0.501 -1.834,0.052C-1.835,0.606 -1.462,1.055 -0.999,1.055C-0.539,1.055 -0.165,0.606 -0.164,0.052C-0.165,-0.501 -0.538,-0.949 -0.999,-0.948" style="fill:rgb(255,136,9);fill-rule:nonzero;"/>
        </g>
        <g transform="matrix(0.0536789,-0.998605,-0.998605,-0.0536789,416.783,636.122)">
            <path d="M-1.126,-1.066C-1.564,-1.066 -1.919,-0.56 -1.917,0.063C-1.917,0.685 -1.563,1.189 -1.126,1.189C-0.686,1.188 -0.332,0.683 -0.332,0.062C-0.332,-0.56 -0.688,-1.066 -1.126,-1.066" style="fill:rgb(255,136,9);fill-rule:nonzero;"/>
        </g>
        <g transform="matrix(0.0545152,-0.99856,-0.99856,-0.0545152,415.199,638.375)">
            <path d="M-0.376,-0.356C-0.63,-0.355 -0.834,-0.187 -0.835,0.02C-0.835,0.227 -0.63,0.397 -0.376,0.397C-0.123,0.397 0.083,0.227 0.084,0.021C0.084,-0.187 -0.123,-0.356 -0.376,-0.356" style="fill:rgb(255,136,9);fill-rule:nonzero;"/>
        </g>
        <g transform="matrix(0.0539013,-0.998593,-0.998593,-0.0539013,391.838,628.584)">
            <path d="M-1.584,-1.5C-2.138,-1.5 -2.586,-0.79 -2.586,0.086C-2.586,0.962 -2.137,1.672 -1.584,1.672C-1.03,1.672 -0.582,0.962 -0.582,0.086C-0.582,-0.79 -1.031,-1.5 -1.584,-1.5" style="fill:rgb(255,136,9);fill-rule:nonzero;"/>
        </g>
        <g transform="matrix(-0.0545105,0.99856,0.99856,0.0545105,425.644,627.403)">
            <path d="M0.833,-0.881C1.111,-0.881 1.334,-0.508 1.335,-0.045C1.334,0.415 1.11,0.789 0.833,0.789C0.557,0.789 0.333,0.415 0.334,-0.046C0.333,-0.508 0.559,-0.881 0.833,-0.881" style="fill:rgb(255,136,9);fill-rule:nonzero;"/>
        </g>
        <g transform="matrix(0.0542118,-0.998576,-0.998576,-0.0542118,409.132,621.2)">
            <path d="M-1.666,-1.581C-2.198,-1.581 -2.628,-0.834 -2.627,0.089C-2.627,1.011 -2.199,1.759 -1.666,1.758C-1.137,1.758 -0.708,1.011 -0.709,0.089C-0.708,-0.834 -1.137,-1.581 -1.666,-1.581" style="fill:rgb(255,136,9);fill-rule:nonzero;"/>
        </g>
        <g transform="matrix(0.0542703,-0.998573,-0.998573,-0.0542703,409.31,640.776)">
            <path d="M-1.334,-1.263C-1.728,-1.264 -2.044,-0.665 -2.045,0.073C-2.044,0.81 -1.727,1.408 -1.334,1.408C-0.942,1.409 -0.624,0.81 -0.624,0.073C-0.624,-0.665 -0.941,-1.263 -1.334,-1.263" style="fill:rgb(255,136,9);fill-rule:nonzero;"/>
        </g>
        <g transform="matrix(0.0539157,-0.998592,-0.998592,-0.0539157,403.584,636.577)">
            <path d="M-1.083,-1.028C-1.499,-1.028 -1.836,-0.541 -1.834,0.058C-1.834,0.657 -1.499,1.143 -1.083,1.143C-0.669,1.143 -0.331,0.656 -0.332,0.057C-0.333,-0.542 -0.669,-1.028 -1.083,-1.028" style="fill:rgb(255,136,9);fill-rule:nonzero;"/>
        </g>
        <g transform="matrix(0.054044,-0.998585,-0.998585,-0.054044,395.896,644.021)">
            <path d="M-1.626,-1.54C-2.664,-1.54 -3.505,-0.811 -3.504,0.089C-3.505,0.987 -2.663,1.717 -1.626,1.717C-0.588,1.717 0.253,0.986 0.252,0.088C0.252,-0.811 -0.589,-1.54 -1.626,-1.54" style="fill:rgb(255,136,9);fill-rule:nonzero;"/>
        </g>
        <g transform="matrix(0.0542156,-0.998576,-0.998576,-0.0542156,409.912,649.964)">
            <path d="M-0.793,-0.749C-1.185,-0.749 -1.501,-0.394 -1.502,0.045C-1.502,0.483 -1.185,0.837 -0.793,0.838C-0.4,0.838 -0.083,0.483 -0.082,0.044C-0.083,-0.394 -0.399,-0.748 -0.793,-0.749" style="fill:rgb(255,136,9);fill-rule:nonzero;"/>
        </g>
        <g transform="matrix(0.0537816,-0.998599,-0.998599,-0.0537816,423.375,645.092)">
            <path d="M-2.127,-2.014C-2.982,-2.014 -3.672,-1.06 -3.672,0.116C-3.67,1.292 -2.979,2.245 -2.127,2.244C-1.273,2.245 -0.581,1.291 -0.583,0.115C-0.583,-1.061 -1.274,-2.014 -2.127,-2.014" style="fill:rgb(255,136,9);fill-rule:nonzero;"/>
        </g>
        <g transform="matrix(-0.0530553,0.998638,0.998638,0.0530553,385.097,636.202)">
            <path d="M0.584,-0.614C1.114,-0.615 1.543,-0.354 1.543,-0.031C1.543,0.291 1.115,0.554 0.584,0.555C0.053,0.555 -0.376,0.294 -0.377,-0.03C-0.377,-0.351 0.053,-0.613 0.584,-0.614" style="fill:rgb(255,136,9);fill-rule:nonzero;"/>
        </g>
        <g transform="matrix(0.0539086,-0.998592,-0.998592,-0.0539086,432.833,640.085)">
            <path d="M-1.167,-1.107C-1.767,-1.106 -2.254,-0.582 -2.253,0.063C-2.252,0.708 -1.767,1.231 -1.167,1.231C-0.568,1.231 -0.081,0.707 -0.082,0.062C-0.082,-0.583 -0.569,-1.106 -1.167,-1.107" style="fill:rgb(255,136,9);fill-rule:nonzero;"/>
        </g>
        <g transform="matrix(0.0539086,-0.998592,-0.998592,-0.0539086,420.873,648.843)">
            <path d="M-0.585,-0.552C-0.791,-0.553 -0.961,-0.29 -0.961,0.032C-0.96,0.355 -0.791,0.617 -0.585,0.616C-0.377,0.617 -0.207,0.354 -0.208,0.032C-0.208,-0.291 -0.377,-0.552 -0.585,-0.552" style="fill:rgb(255,136,9);fill-rule:nonzero;"/>
        </g>
        <g transform="matrix(0.0537429,-0.998601,-0.998601,-0.0537429,389.036,635.788)">
            <path d="M-0.688,-0.652C-1.14,-0.652 -1.502,-0.343 -1.502,0.038C-1.501,0.417 -1.139,0.726 -0.688,0.725C-0.24,0.727 0.126,0.417 0.126,0.037C0.126,-0.343 -0.24,-0.651 -0.688,-0.652" style="fill:rgb(213,111,0);fill-rule:nonzero;"/>
        </g>
        <g transform="matrix(0.0536395,-0.998607,-0.998607,-0.0536395,387.829,630.016)">
            <path d="M-0.438,-0.415C-0.578,-0.415 -0.688,-0.219 -0.688,0.023C-0.687,0.265 -0.577,0.462 -0.438,0.461C-0.299,0.462 -0.188,0.264 -0.189,0.023C-0.188,-0.218 -0.299,-0.415 -0.438,-0.415" style="fill:rgb(213,111,0);fill-rule:nonzero;"/>
        </g>
        <g transform="matrix(0.0543222,-0.99857,-0.99857,-0.0543222,418.648,644.478)">
            <path d="M-0.313,-0.296C-0.589,-0.296 -0.813,-0.156 -0.814,0.016C-0.814,0.189 -0.589,0.33 -0.313,0.329C-0.036,0.33 0.187,0.189 0.188,0.016C0.188,-0.157 -0.036,-0.296 -0.313,-0.296" style="fill:rgb(213,111,0);fill-rule:nonzero;"/>
        </g>
        <g transform="matrix(0.0543222,-0.99857,-0.99857,-0.0543222,431.631,643.302)">
            <path d="M-0.311,-0.296C-0.52,-0.297 -0.687,-0.156 -0.688,0.017C-0.688,0.19 -0.521,0.329 -0.311,0.33C-0.105,0.33 0.063,0.19 0.065,0.016C0.065,-0.156 -0.104,-0.297 -0.311,-0.296" style="fill:rgb(213,111,0);fill-rule:nonzero;"/>
        </g>
        <g transform="matrix(0.0542789,-0.998572,-0.998572,-0.0542789,430.916,632.538)">
            <path d="M-0.627,-0.591C-0.972,-0.591 -1.251,-0.31 -1.251,0.036C-1.251,0.382 -0.972,0.662 -0.627,0.662C-0.28,0.662 0,0.381 -0.001,0.036C-0,-0.31 -0.279,-0.591 -0.627,-0.591" style="fill:rgb(213,111,0);fill-rule:nonzero;"/>
        </g>
        <g transform="matrix(1.00005,0,0,1.00005,-257.52,-2589.8)">
            <g opacity="0.51">
                <g transform="matrix(0.0541436,-0.998533,-0.998533,-0.0541436,650.69,3229.24)">
                    <path d="M-1.439,-1.362C-2.201,-1.361 -2.814,-0.716 -2.816,0.079C-2.816,0.874 -2.2,1.518 -1.439,1.52C-0.678,1.519 -0.062,0.874 -0.061,0.079C-0.061,-0.716 -0.677,-1.361 -1.439,-1.362" style="fill:rgb(213,111,0);fill-rule:nonzero;"/>
                </g>
            </g>
        </g>
        <g transform="matrix(1.00005,0,0,1.00005,-257.52,-2589.8)">
            <g opacity="0.37">
                <g transform="matrix(0.0540386,-0.998539,-0.998539,-0.0540386,658.345,3236.87)">
                    <path d="M-1.063,-1.007C-1.583,-1.007 -2.002,-0.531 -2.002,0.057C-2.002,0.645 -1.582,1.121 -1.063,1.122C-0.545,1.122 -0.123,0.646 -0.124,0.057C-0.124,-0.531 -0.544,-1.007 -1.063,-1.007" style="fill:rgb(213,111,0);fill-rule:nonzero;"/>
                </g>
            </g>
        </g>
        <g transform="matrix(0.1351,-0.990879,-0.990879,-0.1351,396.531,631.858)">
            <path d="M-2.475,-2.677C-3.63,-3.77 -4.67,-4.163 -4.786,-2.75C-4.901,-1.337 -3.406,3.976 -2.475,4.051C-1.545,4.128 -0.698,3.044 -0.582,1.631C-0.467,0.218 -1.796,-2.036 -2.475,-2.677" style="fill:rgb(152,20,20);fill-rule:nonzero;"/>
        </g>
        <g transform="matrix(0.0541015,-0.998582,-0.998582,-0.0541015,392.058,629.307)">
            <path d="M-2.502,-2.368C-3.193,-2.369 -3.753,-1.247 -3.753,0.136C-3.754,1.52 -3.193,2.642 -2.502,2.641C-1.81,2.641 -1.249,1.52 -1.25,0.136C-1.249,-1.247 -1.811,-2.369 -2.502,-2.368" style="fill:rgb(152,20,20);fill-rule:nonzero;"/>
        </g>
        <g transform="matrix(0.05407,-0.998584,-0.998584,-0.05407,407.624,635.547)">
            <path d="M-4.376,-4.147C-5.484,-4.147 -6.381,-2.185 -6.381,0.236C-6.381,2.657 -5.484,4.62 -4.376,4.619C-3.27,4.62 -2.373,2.658 -2.374,0.236C-2.374,-2.185 -3.27,-4.148 -4.376,-4.147" style="fill:rgb(152,20,20);fill-rule:nonzero;"/>
        </g>
        <g transform="matrix(0.0542021,-0.998577,-0.998577,-0.0542021,412.478,638.314)">
            <path d="M-2.94,-2.783C-3.805,-2.783 -4.505,-1.466 -4.505,0.159C-4.505,1.785 -3.806,3.103 -2.94,3.102C-2.076,3.103 -1.374,1.785 -1.374,0.16C-1.374,-1.466 -2.076,-2.783 -2.94,-2.783" style="fill:rgb(152,20,20);fill-rule:nonzero;"/>
        </g>
        <g transform="matrix(0.0543456,-0.998569,-0.998569,-0.0543456,423.764,628.076)">
            <path d="M-1.939,-1.836C-2.63,-1.836 -3.191,-0.968 -3.191,0.104C-3.192,1.177 -2.631,2.047 -1.939,2.046C-1.248,2.047 -0.687,1.177 -0.688,0.106C-0.685,-0.967 -1.247,-1.836 -1.939,-1.836" style="fill:rgb(255,208,147);fill-rule:nonzero;"/>
        </g>
        <g transform="matrix(0.147313,0.989137,0.989137,-0.147313,421.1,633.95)">
            <path d="M5.823,-5.909C6.839,-6.117 9.729,-3.526 6.835,2.482C5.844,4.538 6.839,6.7 5.823,6.908C4.807,7.116 3.118,5.518 3.156,3.236C3.254,-2.907 4.807,-5.701 5.823,-5.909" style="fill:rgb(152,20,20);fill-rule:nonzero;"/>
        </g>
        <g transform="matrix(0.0541995,-0.998577,-0.998577,-0.0541995,426.888,633.075)">
            <path d="M-2.064,-1.954C-2.513,-1.954 -2.877,-1.028 -2.878,0.112C-2.878,1.254 -2.514,2.179 -2.064,2.179C-1.615,2.18 -1.25,1.254 -1.249,0.114C-1.25,-1.029 -1.615,-1.953 -2.064,-1.954" style="fill:rgb(255,208,147);fill-rule:nonzero;"/>
        </g>
        <g transform="matrix(0.183441,-0.983078,-0.983078,-0.183441,403.365,635.167)">
            <path d="M-4.679,-3.886C-5.368,-3.887 -5.931,-1.756 -5.931,0.873C-5.932,3.501 -5.371,5.632 -4.679,5.632C-3.988,5.632 -3.426,3.502 -3.426,0.873C-3.426,-1.755 -3.985,-3.886 -4.679,-3.886" style="fill:rgb(152,20,20);fill-rule:nonzero;"/>
        </g>
        <g transform="matrix(0.0751904,-0.997216,-0.997216,-0.0751904,407.408,636.855)">
            <path d="M-2.249,-2.086C-2.767,-2.086 -3.189,-1.076 -3.19,0.169C-3.188,1.413 -2.766,2.424 -2.249,2.423C-1.73,2.424 -1.309,1.414 -1.309,0.168C-1.309,-1.076 -1.731,-2.085 -2.249,-2.086" style="fill:rgb(174,38,38);fill-rule:nonzero;"/>
        </g>
        <g transform="matrix(0.166394,-0.986107,-0.986107,-0.166394,401.801,636.647)">
            <path d="M-2.654,-2.245C-3.07,-2.246 -3.406,-1.041 -3.405,0.447C-3.407,1.935 -3.07,3.14 -2.654,3.14C-2.239,3.139 -1.904,1.934 -1.905,0.447C-1.904,-1.041 -2.24,-2.246 -2.654,-2.245" style="fill:rgb(174,38,38);fill-rule:nonzero;"/>
        </g>
        <g transform="matrix(0.0543049,-0.998571,-0.998571,-0.0543049,392.043,629.808)">
            <path d="M-1.563,-1.479C-1.943,-1.479 -2.251,-0.779 -2.252,0.087C-2.252,0.95 -1.943,1.651 -1.563,1.651C-1.182,1.651 -0.874,0.951 -0.873,0.086C-0.873,-0.779 -1.182,-1.48 -1.563,-1.479" style="fill:rgb(174,38,38);fill-rule:nonzero;"/>
        </g>
        <g transform="matrix(0.0539545,-0.99859,-0.99859,-0.0539545,424.769,635.344)">
            <path d="M-2.313,-2.192C-2.902,-2.192 -3.379,-1.155 -3.378,0.125C-3.378,1.404 -2.9,2.442 -2.313,2.441C-1.724,2.441 -1.248,1.404 -1.249,0.123C-1.248,-1.155 -1.726,-2.193 -2.313,-2.192" style="fill:rgb(255,229,200);fill-rule:nonzero;"/>
        </g>
        <g transform="matrix(0.272954,-0.962075,-0.962075,-0.272954,418.105,621.736)">
            <path d="M-2.893,-2.186C-3.342,-2.185 -3.706,-0.84 -3.707,0.82C-3.707,2.48 -3.343,3.827 -2.893,3.827C-2.443,3.826 -2.079,2.481 -2.079,0.821C-2.078,-0.839 -2.443,-2.185 -2.893,-2.186" style="fill:rgb(255,229,200);fill-rule:nonzero;"/>
        </g>
        <g transform="matrix(0.054028,-0.998586,-0.998586,-0.054028,403.858,628.44)">
            <path d="M-1.875,-1.779C-2.498,-1.778 -3.005,-0.938 -3.005,0.1C-3.006,1.138 -2.498,1.979 -1.875,1.979C-1.254,1.978 -0.748,1.137 -0.748,0.099C-0.748,-0.938 -1.255,-1.778 -1.875,-1.779" style="fill:rgb(218,113,0);fill-rule:nonzero;"/>
        </g>
        <g transform="matrix(0.0536945,-0.998604,-0.998604,-0.0536945,410.775,628.118)">
            <path d="M-1.758,-1.666C-2.554,-1.666 -3.198,-0.877 -3.199,0.094C-3.199,1.068 -2.552,1.855 -1.758,1.854C-0.962,1.854 -0.318,1.066 -0.318,0.094C-0.319,-0.879 -0.963,-1.666 -1.758,-1.666" style="fill:rgb(218,113,0);fill-rule:nonzero;"/>
        </g>
        <g transform="matrix(0.0539864,-0.998588,-0.998588,-0.0539864,407.469,625.187)">
            <path d="M-1.563,-1.481C-2.117,-1.481 -2.565,-0.78 -2.565,0.083C-2.566,0.949 -2.117,1.65 -1.563,1.65C-1.008,1.651 -0.561,0.949 -0.561,0.084C-0.561,-0.78 -1.008,-1.481 -1.563,-1.481" style="fill:rgb(239,132,0);fill-rule:nonzero;"/>
        </g>
        <g transform="matrix(0.0547773,-0.998545,-0.998545,-0.0547773,417.434,626.978)">
            <path d="M-0.876,-0.828C-1.27,-0.828 -1.586,-0.436 -1.588,0.048C-1.588,0.532 -1.27,0.925 -0.876,0.925C-0.484,0.925 -0.165,0.533 -0.164,0.048C-0.165,-0.434 -0.482,-0.827 -0.876,-0.828" style="fill:rgb(239,132,0);fill-rule:nonzero;"/>
        </g>
        <g transform="matrix(0.450238,-0.892961,-0.892961,-0.450238,455.123,611.799)">
            <path d="M-22.813,-14.046C-31.735,-14.046 -38.97,-2.607 -38.968,11.504C-38.969,25.613 -31.735,37.052 -22.813,37.052C-13.891,37.051 -6.656,25.613 -6.658,11.502C-6.658,-2.609 -13.892,-14.046 -22.813,-14.046" style="fill:rgb(255,136,9);fill-rule:nonzero;"/>
        </g>
        <g transform="matrix(1.00005,0,0,1.00005,-257.52,-2589.8)">
            <g opacity="0.75">
                <g transform="matrix(0.450262,-0.892897,-0.892897,-0.450262,708.886,3201.49)">
                    <path d="M-16.742,-10.307C-22.011,-10.306 -26.28,-1.911 -26.281,8.443C-26.281,18.797 -22.011,27.191 -16.742,27.191C-11.474,27.193 -7.203,18.798 -7.203,8.443C-7.203,-1.912 -11.473,-10.305 -16.742,-10.307" style="fill:rgb(255,179,77);fill-rule:nonzero;"/>
                </g>
            </g>
        </g>
        <g transform="matrix(0.450292,-0.892933,-0.892933,-0.450292,445.872,615.486)">
            <path d="M-9.804,-6.036C-12.202,-6.036 -14.146,-1.121 -14.146,4.944C-14.146,11.007 -12.204,15.923 -9.804,15.924C-7.406,15.924 -5.463,11.008 -5.462,4.944C-5.462,-1.119 -7.405,-6.036 -9.804,-6.036" style="fill:rgb(239,132,0);fill-rule:nonzero;"/>
        </g>
        <g transform="matrix(-0.438912,0.898582,0.898582,0.438912,444.524,617.174)">
            <path d="M9.199,-14.729C10.777,-13.079 11.916,-9.196 11.974,-4.652C12.036,0.138 10.871,4.224 9.199,5.745C7.625,4.097 6.482,0.211 6.424,-4.331C6.363,-9.122 7.525,-13.208 9.199,-14.729" style="fill:rgb(218,113,0);fill-rule:nonzero;"/>
        </g>
        <g transform="matrix(1.00005,0,0,1.00005,448.827,616.098)">
            <path d="M0,11.497C-0.339,11.374 -0.689,11.278 -1.046,11.211C-1.404,11.148 -1.769,11.113 -2.134,11.109C-2.872,11.1 -3.579,11.242 -4.26,11.335C-4.941,11.445 -5.611,11.513 -6.285,11.508C-7.631,11.517 -8.98,11.242 -10.306,10.871C-13.543,9.961 -14.438,9.371 -16.721,7.636C-17.817,6.803 -18.83,5.869 -19.625,4.782C-20.028,4.243 -20.374,3.664 -20.688,3.051C-21.02,2.448 -21.326,1.794 -21.771,1.205C-21.993,0.915 -22.236,0.643 -22.5,0.393C-22.767,0.146 -23.052,-0.078 -23.352,-0.277C-23.958,-0.666 -24.617,-0.972 -25.315,-1.093C-24.038,-0.51 -22.988,0.431 -22.268,1.551C-21.911,2.112 -21.635,2.736 -21.33,3.378C-21.016,4.012 -20.66,4.648 -20.226,5.228C-19.354,6.393 -18.243,7.335 -17.057,8.107C-16.022,8.783 -15.006,9.501 -13.875,9.971C-12.826,10.601 -11.644,10.99 -10.485,11.422C-9.16,11.915 -7.74,12.248 -6.287,12.258C-5.562,12.262 -4.838,12.168 -4.141,12.045C-3.446,11.91 -2.779,11.758 -2.116,11.712C-0.787,11.625 0.594,11.91 1.823,12.59C1.31,12.101 0.67,11.754 0,11.497" style="fill:rgb(213,111,0);fill-rule:nonzero;"/>
        </g>
        <g transform="matrix(1.00005,0,0,1.00005,-257.52,-2589.8)">
            <g opacity="0.37">
                <g transform="matrix(1,0,0,1,686.375,3215.07)">
                    <path d="M0,12.212C-14.154,5.404 -16.625,-5.475 -17.011,-10.138C-17.048,-10.07 -17.085,-10.002 -17.12,-9.932C-21.137,-1.966 -14.18,9.644 -1.581,15.995C11.018,22.35 24.489,21.039 28.506,13.073C28.589,12.907 28.666,12.74 28.74,12.57C23.567,16.269 16.412,20.105 0,12.212" style="fill:rgb(213,111,0);fill-rule:nonzero;"/>
                </g>
            </g>
        </g>
        <g transform="matrix(1.00005,0,0,1.00005,436.478,609.951)">
            <path d="M0,2.521C0,2.521 -1.186,-0.508 -11.903,0.166C-16.812,0.472 -12.133,2.339 -7.768,2.718C-4.185,3.029 -0.338,3.005 0,2.521" style="fill:rgb(255,208,147);fill-rule:nonzero;"/>
        </g>
        <g transform="matrix(1.00005,0,0,1.00005,449.671,620.567)">
            <path d="M0,-0.509C0,-0.509 -2.64,-3.803 -5.699,-4.97C-8.755,-6.138 -8.611,-4.942 -5.856,-2.43C-3.102,0.08 3.825,5.629 0,-0.509" style="fill:rgb(255,208,147);fill-rule:nonzero;"/>
        </g>
        <g transform="matrix(0.450164,-0.892998,-0.892998,-0.450164,422.617,620.593)">
            <path d="M-2.496,-1.538C-3.811,-1.539 -4.876,-0.286 -4.876,1.259C-4.878,2.802 -3.81,4.056 -2.496,4.056C-1.182,4.056 -0.118,2.802 -0.116,1.259C-0.117,-0.287 -1.182,-1.539 -2.496,-1.538" style="fill:rgb(255,136,9);fill-rule:nonzero;"/>
        </g>
        <g transform="matrix(0.449628,-0.893268,-0.893268,-0.449628,447.925,633.979)">
            <path d="M-0.895,-0.551C-1.358,-0.551 -1.73,-0.101 -1.73,0.451C-1.73,1.005 -1.357,1.452 -0.895,1.453C-0.433,1.453 -0.06,1.003 -0.061,0.45C-0.061,-0.103 -0.435,-0.551 -0.895,-0.551" style="fill:rgb(255,136,9);fill-rule:nonzero;"/>
        </g>
        <g transform="matrix(0.449895,-0.893134,-0.893134,-0.449895,441.786,629.496)">
            <path d="M-1.007,-0.62C-1.447,-0.62 -1.799,-0.114 -1.8,0.507C-1.8,1.13 -1.444,1.635 -1.007,1.634C-0.569,1.633 -0.214,1.129 -0.214,0.507C-0.215,-0.116 -0.569,-0.62 -1.007,-0.62" style="fill:rgb(255,136,9);fill-rule:nonzero;"/>
        </g>
        <g transform="matrix(0.452551,-0.891791,-0.891791,-0.452551,439.203,630.724)">
            <path d="M-0.336,-0.204C-0.588,-0.205 -0.794,-0.039 -0.793,0.17C-0.796,0.379 -0.589,0.546 -0.336,0.547C-0.083,0.548 0.125,0.381 0.124,0.173C0.125,-0.034 -0.08,-0.203 -0.336,-0.204" style="fill:rgb(255,136,9);fill-rule:nonzero;"/>
        </g>
        <g transform="matrix(0.450132,-0.893014,-0.893014,-0.450132,422.102,612.707)">
            <path d="M-1.416,-0.873C-1.969,-0.872 -2.419,-0.163 -2.417,0.713C-2.418,1.59 -1.97,2.3 -1.416,2.3C-0.863,2.3 -0.414,1.589 -0.414,0.713C-0.414,-0.163 -0.863,-0.873 -1.416,-0.873" style="fill:rgb(255,136,9);fill-rule:nonzero;"/>
        </g>
        <g transform="matrix(-0.451064,0.892544,0.892544,0.451064,453.312,624.989)">
            <path d="M0.746,-1.212C1.023,-1.212 1.246,-0.838 1.247,-0.376C1.246,0.085 1.022,0.459 0.746,0.458C0.468,0.458 0.244,0.084 0.244,-0.377C0.245,-0.838 0.469,-1.212 0.746,-1.212" style="fill:rgb(255,136,9);fill-rule:nonzero;"/>
        </g>
        <g transform="matrix(0.450107,-0.893027,-0.893027,-0.450107,440.932,612.908)">
            <path d="M-1.49,-0.918C-2.021,-0.918 -2.45,-0.17 -2.449,0.752C-2.45,1.674 -2.02,2.42 -1.49,2.421C-0.959,2.422 -0.532,1.673 -0.531,0.751C-0.53,-0.171 -0.96,-0.919 -1.49,-0.918" style="fill:rgb(255,136,9);fill-rule:nonzero;"/>
        </g>
        <g transform="matrix(0.450973,-0.89259,-0.89259,-0.450973,433.138,630.819)">
            <path d="M-1.193,-0.734C-1.583,-0.734 -1.902,-0.137 -1.903,0.601C-1.903,1.339 -1.587,1.938 -1.193,1.938C-0.801,1.938 -0.484,1.34 -0.484,0.603C-0.483,-0.135 -0.8,-0.733 -1.193,-0.734" style="fill:rgb(255,136,9);fill-rule:nonzero;"/>
        </g>
        <g transform="matrix(0.450548,-0.892804,-0.892804,-0.450548,429.503,624.608)">
            <path d="M-0.969,-0.596C-1.384,-0.596 -1.72,-0.111 -1.722,0.489C-1.721,1.089 -1.385,1.574 -0.969,1.574C-0.554,1.575 -0.218,1.089 -0.218,0.488C-0.217,-0.111 -0.554,-0.597 -0.969,-0.596" style="fill:rgb(255,136,9);fill-rule:nonzero;"/>
        </g>
        <g transform="matrix(0.450548,-0.892804,-0.892804,-0.450548,419.638,628.49)">
            <path d="M-1.453,-0.895C-2.492,-0.896 -3.333,-0.167 -3.331,0.733C-3.333,1.632 -2.491,2.362 -1.453,2.361C-0.415,2.362 0.425,1.634 0.425,0.734C0.424,-0.165 -0.415,-0.895 -1.453,-0.895" style="fill:rgb(255,136,9);fill-rule:nonzero;"/>
        </g>
        <g transform="matrix(0.450005,-0.893078,-0.893078,-0.450005,429.833,639.327)">
            <path d="M-0.708,-0.437C-1.102,-0.437 -1.418,-0.083 -1.416,0.356C-1.417,0.793 -1.1,1.149 -0.708,1.15C-0.317,1.148 0.001,0.794 0.001,0.356C0.001,-0.082 -0.317,-0.437 -0.708,-0.437" style="fill:rgb(255,136,9);fill-rule:nonzero;"/>
        </g>
        <g transform="matrix(0.449864,-0.893149,-0.893149,-0.449864,444.529,640.632)">
            <path d="M-1.901,-1.171C-2.755,-1.172 -3.445,-0.218 -3.445,0.957C-3.445,2.133 -2.753,3.086 -1.901,3.086C-1.046,3.086 -0.356,2.131 -0.357,0.957C-0.356,-0.22 -1.049,-1.172 -1.901,-1.171" style="fill:rgb(255,136,9);fill-rule:nonzero;"/>
        </g>
        <g transform="matrix(-0.450996,0.892578,0.892578,0.450996,412.569,616.711)">
            <path d="M0.521,-0.85C1.053,-0.849 1.482,-0.587 1.481,-0.264C1.481,0.058 1.05,0.318 0.521,0.319C-0.009,0.32 -0.438,0.057 -0.438,-0.266C-0.437,-0.588 -0.008,-0.849 0.521,-0.85" style="fill:rgb(255,136,9);fill-rule:nonzero;"/>
        </g>
        <g transform="matrix(0.450311,-0.892924,-0.892924,-0.450311,454.912,639.581)">
            <path d="M-1.044,-0.642C-1.641,-0.641 -2.128,-0.118 -2.128,0.528C-2.128,1.174 -1.641,1.697 -1.044,1.697C-0.444,1.696 0.041,1.173 0.042,0.528C0.041,-0.118 -0.444,-0.643 -1.044,-0.642" style="fill:rgb(255,136,9);fill-rule:nonzero;"/>
        </g>
        <g transform="matrix(0.452013,-0.892064,-0.892064,-0.452013,440.264,642.644)">
            <path d="M-0.522,-0.32C-0.728,-0.32 -0.897,-0.059 -0.899,0.263C-0.899,0.587 -0.73,0.849 -0.522,0.85C-0.316,0.85 -0.147,0.589 -0.146,0.266C-0.147,-0.057 -0.314,-0.319 -0.522,-0.32" style="fill:rgb(255,136,9);fill-rule:nonzero;"/>
        </g>
        <g transform="matrix(0.449557,-0.893304,-0.893304,-0.449557,416.37,617.938)">
            <path d="M-0.616,-0.38C-1.066,-0.378 -1.431,-0.07 -1.429,0.31C-1.43,0.69 -1.065,0.999 -0.616,0.997C-0.166,0.997 0.199,0.689 0.198,0.31C0.198,-0.071 -0.167,-0.38 -0.616,-0.38" style="fill:rgb(213,111,0);fill-rule:nonzero;"/>
        </g>
        <g transform="matrix(0.449515,-0.893325,-0.893325,-0.449515,417.505,612.099)">
            <path d="M-0.39,-0.241C-0.529,-0.242 -0.641,-0.045 -0.641,0.196C-0.64,0.44 -0.528,0.635 -0.39,0.635C-0.252,0.636 -0.141,0.438 -0.141,0.197C-0.141,-0.045 -0.252,-0.242 -0.39,-0.241" style="fill:rgb(213,111,0);fill-rule:nonzero;"/>
        </g>
        <g transform="matrix(0.451056,-0.892548,-0.892548,-0.451056,439.893,637.679)">
            <path d="M-0.281,-0.172C-0.557,-0.172 -0.781,-0.032 -0.781,0.141C-0.781,0.314 -0.557,0.456 -0.281,0.455C-0.004,0.456 0.22,0.315 0.221,0.141C0.221,-0.031 -0.003,-0.171 -0.281,-0.172" style="fill:rgb(213,111,0);fill-rule:nonzero;"/>
        </g>
        <g transform="matrix(0.449151,-0.893508,-0.893508,-0.449151,452.256,641.809)">
            <path d="M-0.28,-0.172C-0.488,-0.172 -0.656,-0.031 -0.656,0.142C-0.656,0.315 -0.487,0.454 -0.28,0.454C-0.073,0.454 0.097,0.314 0.098,0.141C0.095,-0.033 -0.072,-0.172 -0.28,-0.172" style="fill:rgb(213,111,0);fill-rule:nonzero;"/>
        </g>
        <g transform="matrix(0.449785,-0.893189,-0.893189,-0.449785,456.014,631.749)">
            <path d="M-0.56,-0.345C-0.906,-0.344 -1.186,-0.064 -1.184,0.282C-1.186,0.628 -0.905,0.909 -0.56,0.909C-0.212,0.909 0.067,0.627 0.066,0.282C0.067,-0.064 -0.213,-0.344 -0.56,-0.345" style="fill:rgb(213,111,0);fill-rule:nonzero;"/>
        </g>
        <g transform="matrix(1.00005,0,0,1.00005,-257.52,-2589.8)">
            <g opacity="0.51">
                <g transform="matrix(0.450682,-0.892684,-0.892684,-0.450682,676.378,3212.95)">
                    <path d="M-1.286,-0.791C-2.048,-0.792 -2.663,-0.147 -2.663,0.648C-2.665,1.443 -2.051,2.088 -1.286,2.089C-0.526,2.089 0.091,1.445 0.091,0.649C0.092,-0.145 -0.524,-0.791 -1.286,-0.791" style="fill:rgb(213,111,0);fill-rule:nonzero;"/>
                </g>
            </g>
        </g>
        <g transform="matrix(1.00005,0,0,1.00005,-257.52,-2589.8)">
            <g opacity="0.37">
                <g transform="matrix(0.45003,-0.893013,-0.893013,-0.45003,680.213,3222.9)">
                    <path d="M-0.95,-0.586C-1.471,-0.587 -1.89,-0.109 -1.891,0.478C-1.889,1.066 -1.47,1.542 -0.95,1.542C-0.432,1.542 -0.012,1.065 -0.012,0.477C-0.011,-0.111 -0.432,-0.587 -0.95,-0.586" style="fill:rgb(213,111,0);fill-rule:nonzero;"/>
                </g>
            </g>
        </g>
        <g transform="matrix(0.450425,-0.892866,-0.892866,-0.450425,424.213,616.788)">
            <path d="M-2.293,-1.411C-3.227,-1.411 -3.982,-0.261 -3.985,1.157C-3.985,2.575 -3.227,3.724 -2.293,3.725C-1.361,3.725 -0.602,2.575 -0.603,1.157C-0.603,-0.261 -1.36,-1.41 -2.293,-1.411" style="fill:rgb(255,208,147);fill-rule:nonzero;"/>
        </g>
        <g transform="matrix(0.450108,-0.893026,-0.893026,-0.450108,422.294,613.71)">
            <path d="M-2.236,-1.377C-2.928,-1.377 -3.489,-0.256 -3.489,1.127C-3.488,2.511 -2.927,3.632 -2.236,3.631C-1.545,3.632 -0.984,2.511 -0.984,1.127C-0.984,-0.257 -1.545,-1.378 -2.236,-1.377" style="fill:rgb(255,208,147);fill-rule:nonzero;"/>
        </g>
        <g transform="matrix(0.450334,-0.892912,-0.892912,-0.450334,434.626,626.184)">
            <path d="M-3.914,-2.41C-5.021,-2.409 -5.918,-0.447 -5.918,1.973C-5.92,4.395 -5.022,6.357 -3.914,6.357C-2.808,6.358 -1.91,4.395 -1.91,1.975C-1.911,-0.447 -2.808,-2.41 -3.914,-2.41" style="fill:rgb(255,208,147);fill-rule:nonzero;"/>
        </g>
        <g transform="matrix(0.450087,-0.893037,-0.893037,-0.450087,437.517,630.273)">
            <path d="M-2.629,-1.619C-3.493,-1.618 -4.195,-0.301 -4.192,1.325C-4.193,2.951 -3.493,4.268 -2.629,4.267C-1.763,4.267 -1.062,2.95 -1.062,1.325C-1.064,-0.302 -1.765,-1.618 -2.629,-1.619" style="fill:rgb(255,208,147);fill-rule:nonzero;"/>
        </g>
        <g transform="matrix(0.450118,-0.893021,-0.893021,-0.450118,451.657,625.152)">
            <path d="M-1.732,-1.067C-2.424,-1.067 -2.986,-0.199 -2.983,0.873C-2.985,1.945 -2.423,2.814 -1.732,2.814C-1.039,2.815 -0.48,1.946 -0.48,0.873C-0.48,-0.198 -1.04,-1.068 -1.732,-1.067" style="fill:rgb(255,208,147);fill-rule:nonzero;"/>
        </g>
        <g transform="matrix(-0.450426,0.892866,0.892866,0.450426,451.042,632.046)">
            <path d="M3.691,-5.995C4.73,-5.994 5.57,-4.144 5.569,-1.861C5.569,0.422 4.728,2.271 3.691,2.271C2.653,2.272 1.812,0.422 1.814,-1.861C1.813,-4.144 2.654,-5.995 3.691,-5.995" style="fill:rgb(255,208,147);fill-rule:nonzero;"/>
        </g>
        <g transform="matrix(0.450136,-0.893012,-0.893012,-0.450136,452.551,631.018)">
            <path d="M-1.845,-1.136C-2.295,-1.136 -2.659,-0.211 -2.656,0.93C-2.657,2.072 -2.293,2.997 -1.845,2.997C-1.394,2.996 -1.03,2.072 -1.031,0.93C-1.031,-0.211 -1.394,-1.136 -1.845,-1.136" style="fill:rgb(255,208,147);fill-rule:nonzero;"/>
        </g>
        <g transform="matrix(0.562316,-0.826979,-0.826979,-0.562316,430.607,624.559)">
            <path d="M-3.936,-2.082C-4.626,-2.082 -5.189,0.048 -5.188,2.677C-5.189,5.305 -4.629,7.435 -3.936,7.436C-3.244,7.436 -2.684,5.304 -2.684,2.676C-2.684,0.048 -3.244,-2.083 -3.936,-2.082" style="fill:rgb(255,208,147);fill-rule:nonzero;"/>
        </g>
        <g transform="matrix(0.469193,-0.883148,-0.883148,-0.469193,433.224,626.745)">
            <path d="M-1.992,-1.196C-2.509,-1.196 -2.93,-0.187 -2.93,1.058C-2.931,2.302 -2.511,3.312 -1.992,3.312C-1.472,3.312 -1.051,2.303 -1.052,1.058C-1.05,-0.187 -1.472,-1.196 -1.992,-1.196" style="fill:rgb(255,229,200);fill-rule:nonzero;"/>
        </g>
        <g transform="matrix(0.54828,-0.83635,-0.83635,-0.54828,428.148,624.562)">
            <path d="M-2.252,-1.216C-2.667,-1.215 -3.002,-0.011 -3.003,1.476C-3.002,2.963 -2.666,4.168 -2.252,4.169C-1.836,4.169 -1.499,2.964 -1.499,1.478C-1.5,-0.01 -1.836,-1.215 -2.252,-1.216" style="fill:rgb(255,229,200);fill-rule:nonzero;"/>
        </g>
        <g transform="matrix(0.450426,-0.892866,-0.892866,-0.450426,421.793,613.905)">
            <path d="M-1.398,-0.861C-1.778,-0.86 -2.087,-0.159 -2.087,0.705C-2.087,1.57 -1.779,2.271 -1.398,2.27C-1.019,2.27 -0.71,1.57 -0.71,0.704C-0.709,-0.16 -1.017,-0.859 -1.398,-0.861" style="fill:rgb(255,229,200);fill-rule:nonzero;"/>
        </g>
        <g transform="matrix(0.450426,-0.892866,-0.892866,-0.450426,449.779,632.316)">
            <path d="M-2.067,-1.273C-2.655,-1.273 -3.132,-0.237 -3.132,1.044C-3.133,2.322 -2.656,3.359 -2.067,3.361C-1.481,3.361 -1.003,2.324 -1.002,1.043C-1.002,-0.235 -1.479,-1.274 -2.067,-1.273" style="fill:rgb(255,229,200);fill-rule:nonzero;"/>
        </g>
        <g transform="matrix(0.635999,-0.77175,-0.77175,-0.635999,448.902,617.679)">
            <path d="M-2.32,-1.095C-2.77,-1.095 -3.134,0.251 -3.135,1.911C-3.136,3.572 -2.769,4.918 -2.32,4.917C-1.869,4.917 -1.506,3.571 -1.506,1.911C-1.506,0.251 -1.871,-1.095 -2.32,-1.095" style="fill:rgb(255,229,200);fill-rule:nonzero;"/>
        </g>
        <g transform="matrix(0.450002,-0.89308,-0.89308,-0.450002,433.261,617.481)">
            <path d="M-1.677,-1.033C-2.301,-1.033 -2.805,-0.192 -2.806,0.845C-2.803,1.884 -2.299,2.724 -1.677,2.723C-1.053,2.724 -0.549,1.882 -0.549,0.844C-0.549,-0.193 -1.055,-1.034 -1.677,-1.033" style="fill:rgb(218,113,0);fill-rule:nonzero;"/>
        </g>
        <g transform="matrix(0.450639,-0.892759,-0.892759,-0.450639,439.692,619.931)">
            <path d="M-1.571,-0.967C-2.366,-0.967 -3.012,-0.18 -3.012,0.793C-3.012,1.765 -2.367,2.553 -1.571,2.555C-0.777,2.554 -0.132,1.767 -0.129,0.794C-0.129,-0.178 -0.774,-0.966 -1.571,-0.967" style="fill:rgb(218,113,0);fill-rule:nonzero;"/>
        </g>
        <g transform="matrix(0.450552,-0.892802,-0.892802,-0.450552,437.777,615.864)">
            <path d="M-1.398,-0.861C-1.951,-0.861 -2.399,-0.161 -2.4,0.704C-2.401,1.569 -1.952,2.27 -1.398,2.271C-0.846,2.271 -0.396,1.57 -0.396,0.704C-0.394,-0.159 -0.844,-0.86 -1.398,-0.861" style="fill:rgb(239,132,0);fill-rule:nonzero;"/>
        </g>
        <g transform="matrix(0.44997,-0.893096,-0.893096,-0.44997,445.971,621.314)">
            <path d="M-0.783,-0.483C-1.177,-0.483 -1.496,-0.091 -1.495,0.395C-1.494,0.878 -1.177,1.27 -0.783,1.271C-0.39,1.27 -0.071,0.878 -0.071,0.393C-0.072,-0.09 -0.391,-0.483 -0.783,-0.483" style="fill:rgb(239,132,0);fill-rule:nonzero;"/>
        </g>
    </g>
</svg>
