<?xml version="1.0" encoding="UTF-8" standalone="no"?>
<!DOCTYPE svg PUBLIC "-//W3C//DTD SVG 1.1//EN" "http://www.w3.org/Graphics/SVG/1.1/DTD/svg11.dtd">
<svg width="100%" height="100%" viewBox="0 0 442 740" version="1.1" xmlns="http://www.w3.org/2000/svg" xmlns:xlink="http://www.w3.org/1999/xlink" xml:space="preserve" xmlns:serif="http://www.serif.com/" style="fill-rule:evenodd;clip-rule:evenodd;stroke-linejoin:round;stroke-miterlimit:2;">
    <g transform="matrix(0.999953,0,0,0.999953,-422.156,-4930.96)">
        <g opacity="0.3">
            <g transform="matrix(1,0,0,1,815.494,4513.47)">
                <path d="M0,1157.48L-0.704,1154.43C-0.795,1154.03 -0.87,1153.62 -0.952,1153.21C-1.216,1153.26 -1.479,1153.29 -1.741,1153.33L-3.386,1146.88C-2.23,1146.56 -1.211,1146.19 -0.489,1145.83C2.912,1144.16 -2.19,1126.08 -2.614,1116.62C-3.038,1107.16 -8.706,1089.5 -4.868,1080.99C-0.6,1071.53 6.183,1050.94 6.183,1050.94C5.759,1057.06 3.244,1081.29 3.244,1088.53C3.244,1095.76 9.417,1109.68 13.791,1121.62C18.833,1135.37 24.06,1152.9 25.783,1154.85C27.214,1156.46 28.464,1156.65 33.56,1154.85C33.56,1154.85 33.513,1154.7 33.427,1154.45C33.606,1154.4 33.788,1154.34 33.971,1154.28L35.525,1158.14C35.396,1158.22 35.292,1158.34 35.207,1158.48C27.023,1157.78 17.856,1157.38 8.173,1157.38C5.401,1157.38 2.677,1157.42 0,1157.48M48.751,1160.07C48.549,1159.52 48.278,1159 47.923,1158.53L46.486,1156.63C46.337,1156.43 46.154,1156.3 45.962,1156.21L45.033,1154.98C44.709,1154.55 44.249,1154.37 43.803,1154.44L41.472,1149.33C43.705,1144.16 38.138,1128.76 35.042,1116.61C31.644,1103.25 25.013,1091.57 25.441,1086.56C25.865,1081.55 26.619,1070.55 30.115,1059.85C33.265,1050.19 39.656,1038.71 39.188,1022.48C40.607,1020.2 40.831,1016.29 41.609,1009.4C42.958,997.499 51.804,961.715 48.41,946.86C45.966,936.184 41.766,935.361 34.044,934.237C34.056,934.164 34.067,934.089 34.078,934.014C34.337,933.013 34.51,931.883 34.566,930.596L34.548,929.174C36.338,929.326 38.198,929.275 39.453,929.321C43.687,929.478 42.712,924.624 43.365,921.411C43.929,918.629 49.191,916.078 47.449,911.674C46.4,909.027 46.566,906.098 46.865,904.178C46.983,903.645 47.092,903.141 47.191,902.672C51.299,893.795 45.256,887.018 40.736,885.08L31.935,884.983C30.308,884.965 28.822,884.312 27.654,883.103L24.476,879.808C22.72,877.593 19.812,878.219 18.988,882.948C18.896,883.483 18.623,883.967 18.47,884.475C16.872,889.758 17.973,894.617 20.626,897.401C20.385,897.686 20.155,897.974 19.941,898.264C19.05,899.465 18.712,901.251 18.386,902.671C17.27,907.538 17.713,911.428 19.075,914.522C18.902,920.309 19.432,924.131 22.939,925.798C24.125,926.362 24.755,927.681 24.743,929.074C24.723,929.127 24.711,929.184 24.689,929.237L23.968,930.961C23.831,931.381 23.709,931.819 23.598,932.26C23.483,932.23 23.373,932.204 23.257,932.172C23.257,932.172 12.302,931.893 7.544,937.614C6.799,938.509 6.194,939.533 5.684,940.647C1.032,945.95 -3.166,955.067 -7.249,959.551C-7.603,959.94 -8.107,960.053 -8.721,959.954C-9.382,959.327 -10.007,958.745 -10.571,958.249C-11.09,957.793 -11.659,957.301 -12.253,956.8C-12.247,956.791 -12.241,956.781 -12.235,956.771C-12.277,956.751 -12.317,956.731 -12.36,956.711C-14.399,954.997 -16.747,953.167 -18.659,952.073C-24.324,946.013 -30.32,938.126 -32.538,934.634C-33.352,933.352 -34.367,932.85 -35.463,932.848C-36.41,929.083 -36.858,925.209 -37.067,923.747C-37.376,921.612 -45.284,913.274 -45.192,916.019C-45.115,918.18 -44.977,922.217 -44.922,923.84C-47.896,920.361 -50.937,916.842 -54.05,913.288L-54.486,913.67C-67.047,900.086 -78.737,888.174 -88.655,878.778C-88.917,876.483 -89.17,874.19 -89.419,871.897C-63.24,840.739 -62.973,794.298 -90.617,762.742C-91.348,761.907 -92.104,761.106 -92.861,760.307C-92.008,750.292 -90.74,740.514 -88.951,731.052C-85.646,713.577 -82.607,697.078 -79.813,681.463C-63.606,653.559 -54.2,619.331 -52.555,584.76C-49.753,584.502 -46.736,584.117 -43.487,583.593C-6.345,577.607 -2.719,569.28 -1.958,518.949C-1.324,477.14 5.605,477.24 -22.465,439.764C-113.53,318.182 20.422,274.98 -97.313,178.308C-133.478,148.616 -116.878,128.976 -136.274,88.649C-151.899,56.161 -182.277,65.111 -214.885,27.183C-257.482,-22.362 -361.685,-3.877 -404.117,47.084C-418.16,65.138 -422.56,91.439 -406.75,131.003L-406.749,131.004C-410.97,144.876 -412.865,161.922 -410.811,176.271C-409.932,182.413 -393.075,199.958 -392.401,214.01C-392.421,214.904 -392.446,215.797 -392.479,216.688C-392.903,220.407 -393.402,224.704 -393.864,229.335C-397.236,246.333 -406.75,267.798 -406.75,267.798C-406.687,278.797 -399.558,284.846 -390.366,288.026C-388.235,295.379 -385.907,302.776 -384.337,307.412C-383.895,308.719 -383.42,309.933 -382.92,311.067C-383.437,312.849 -383.011,315.02 -381.776,317.671C-381.062,319.205 -379.196,321.027 -376.937,322.669C-376.112,326.97 -374.218,331.028 -368.963,330.032C-368.613,330.61 -368.299,331.206 -368.032,331.832C-364.083,341.084 -369.901,347.081 -358.285,351.056C-341.959,356.644 -330.145,343.743 -318.443,339.954C-318.106,339.828 -317.611,339.826 -317.276,339.699C-312.853,338.934 -289.19,340.184 -276.229,355.649C-269.039,365.149 -261.999,379.37 -256.103,400.493C-255.547,402.483 -254.992,404.379 -254.437,406.206C-250.312,429.831 -247.781,459.141 -250.812,483.381C-250.932,484.169 -251.043,484.979 -251.14,485.825C-251.145,485.862 -251.15,485.897 -251.155,485.934C-251.209,486.403 -251.29,486.874 -251.362,487.345C-251.426,487.756 -251.494,488.164 -251.561,488.572C-261.184,539.911 -377.344,602.05 -377.344,649.986C-377.344,684.358 -358.596,709.049 -328.591,724.996C-348.759,774.418 -366.7,817.456 -376.185,832.478C-380.147,838.755 -468.914,915.878 -539.831,1001.91C-541.185,1002.41 -542.451,1003.01 -543.639,1003.7C-546.232,1004.32 -548.969,1004.97 -551.756,1005.62C-565.476,998.78 -586.499,990.998 -600.751,993.765C-613.428,996.225 -625.886,996.321 -633.722,997.317C-634.144,997.285 -634.582,997.272 -635.029,997.281C-637.926,997.333 -640.363,998.26 -641.169,999.493C-641.788,1000.08 -642.052,1000.82 -641.886,1001.75C-641.854,1001.93 -641.804,1002.11 -641.739,1002.28C-639.959,1007.2 -625.75,1009.85 -609.764,1014.11C-614.621,1013.95 -619.802,1013.95 -625.202,1014.15C-651.815,1015.18 -661.842,1001.53 -673.743,1006.03C-675.652,1006.75 -677.409,1008.38 -677.627,1010.56C-677.738,1010.79 -677.836,1011.02 -677.907,1011.27C-678.711,1014.06 -676.587,1017.2 -673.161,1018.28C-673.151,1018.28 -673.142,1018.29 -673.132,1018.29C-675.193,1018.01 -677.234,1018.12 -679.361,1018.78C-681.304,1019.39 -683.144,1020.91 -683.483,1023.07C-683.556,1023.24 -683.62,1023.41 -683.672,1023.59C-684.422,1026.2 -682.616,1029.12 -679.582,1030.37C-674.251,1034.97 -662.738,1040.42 -640.403,1045.8C-638.974,1046.14 -637.591,1046.46 -636.232,1046.77C-655.458,1045.59 -664.717,1036.51 -674.757,1040.86C-676.447,1041.6 -677.981,1043.06 -678.357,1044.95C-678.392,1045.04 -678.431,1045.13 -678.459,1045.23C-679.205,1047.83 -677.427,1050.71 -674.432,1051.98C-669.546,1055.65 -659.533,1059.52 -640.869,1062.48C-648.705,1063.04 -652.478,1062.45 -656.959,1063.73L-656.97,1063.73C-658.736,1063.71 -660.675,1064.37 -662.067,1065.4C-663.343,1065.77 -664.281,1066.52 -664.586,1067.58C-664.633,1067.75 -664.659,1067.91 -664.674,1068.08C-665.304,1069.32 -664.764,1070.72 -662.397,1072.03C-661.594,1072.63 -660.617,1073.14 -659.518,1073.49C-659.125,1073.61 -658.733,1073.7 -658.347,1073.78C-652.941,1075.91 -643.056,1077.62 -626.202,1077.9C-597.433,1078.37 -572.578,1078.13 -568.142,1077.27C-561.321,1075.94 -553.216,1074.41 -544.097,1071.37C-535.055,1069.28 -525.377,1065.95 -516.203,1059.95C-435.947,1039.53 -349.19,949.592 -313.628,908.801C-317.74,936.701 -321.277,962.42 -324.213,984.689C-336.285,1076.22 -359.7,1129.11 -323.685,1156.3C-314.121,1156.95 -304.455,1156.99 -294.917,1157C-238.738,1157.04 -182.561,1157.09 -126.384,1157.14C-114.17,1157.14 -101.77,1157.12 -89.624,1155.83C-53.003,1109.26 -71.239,1012.48 -84.514,912.145C-80.38,917.363 -75.962,922.809 -71.304,928.424L-71.603,928.687C-68.229,932.539 -64.883,936.308 -61.577,939.985C-60.853,940.834 -60.132,941.68 -59.399,942.534C-59.028,942.965 -58.625,943.351 -58.207,943.714C-37.247,966.813 -18.18,985.85 -4.928,997.165C-7.593,1005.21 -9.81,1012.14 -9.557,1014.78C-9.556,1014.79 -9.555,1014.8 -9.554,1014.81C-9.543,1014.92 -9.532,1015.02 -9.512,1015.11C-9.484,1015.26 -9.447,1015.39 -9.393,1015.5C-9.249,1015.79 -9.015,1016.1 -8.715,1016.41C-10.278,1021.04 -12.123,1026.16 -14.088,1030.91C-19.614,1044.27 -27.688,1075.43 -26.838,1087.52C-25.987,1099.61 -17.292,1144.86 -17.292,1144.86C-16.739,1146.79 -16.45,1146.88 -13.444,1146.97C-12.967,1147.25 -12.403,1147.45 -11.781,1147.58L-11.125,1152.44C-11.553,1152.91 -12.026,1153.3 -12.577,1153.55C-16.874,1155.51 -22.067,1157.13 -25.249,1159.12C-42.778,1161.11 -54.426,1164.62 -54.426,1168.61C-54.426,1174.81 -26.399,1179.84 8.173,1179.84C42.746,1179.84 70.773,1174.81 70.773,1168.61C70.773,1165.19 62.221,1162.12 48.751,1160.07" style="fill-rule:nonzero;"/>
            </g>
        </g>
    </g>
</svg>
