<?xml version="1.0" encoding="UTF-8" standalone="no"?>
<!DOCTYPE svg PUBLIC "-//W3C//DTD SVG 1.1//EN" "http://www.w3.org/Graphics/SVG/1.1/DTD/svg11.dtd">
<svg width="100%" height="100%" viewBox="0 0 458 411" version="1.1" xmlns="http://www.w3.org/2000/svg" xmlns:xlink="http://www.w3.org/1999/xlink" xml:space="preserve" xmlns:serif="http://www.serif.com/" style="fill-rule:evenodd;clip-rule:evenodd;stroke-linejoin:round;stroke-miterlimit:2;">
    <g transform="matrix(0.999953,0,0,0.999953,-728.345,-4094.66)">
        <g opacity="0.3">
            <g transform="matrix(1,0,0,1,1182.21,4413.46)">
                <path d="M0,-227.453C-0.81,-226.283 -1.552,-225.068 -2.23,-223.818C-2.149,-224.531 -2.088,-225.246 -2.054,-225.958C-1.928,-228.543 -5.805,-228.78 -6.079,-226.208C-6.114,-225.882 -6.151,-225.558 -6.194,-225.241C-6.301,-224.459 -6.469,-223.688 -6.66,-222.923C-7.191,-224.647 -10.086,-224.85 -10.573,-222.681C-10.646,-222.36 -10.719,-222.044 -10.797,-221.734C-11.426,-219.265 -12.562,-216.959 -13.69,-214.676C-14.998,-212.034 -16.309,-209.384 -17.949,-206.936C-20.239,-203.525 -23.307,-200.922 -25.928,-198.001C-27.326,-197.766 -28.777,-197.93 -30.23,-198.057C-29.51,-199.185 -28.53,-200.101 -27.591,-201.023C-23.874,-204.667 -20.636,-208.88 -17.967,-213.546C-17.077,-215.099 -16.334,-217.349 -17.66,-218.923C-18.672,-220.123 -20.296,-220.114 -21.564,-219.75C-28.141,-217.862 -31.204,-210.042 -37.121,-206.728C-38.81,-205.782 -40.693,-205.226 -42.526,-204.578C-47.761,-202.722 -64.43,-193.029 -59.277,-184.17C-59.764,-183.826 -60.247,-183.491 -60.729,-183.168L-64.325,-183.298L-67.963,-100.86L-150.541,-142.444L-150.272,-144.007L-180.104,-154.876L-180.528,-154.103C-182.797,-155.198 -185.492,-155.658 -188.027,-155.996C-190.519,-156.329 -193.017,-156.621 -195.518,-156.876L-195.518,-180.851C-192.223,-182.451 -189.176,-184.447 -186.438,-186.785C-183.119,-185.05 -179.498,-183.812 -175.932,-182.618C-176.937,-184.304 -177.943,-185.99 -178.95,-187.677C-176.426,-187.191 -173.859,-186.996 -171.298,-187.052C-170.523,-184.099 -169.391,-181.218 -167.064,-179.44C-164.969,-177.841 -162.235,-177.433 -159.654,-177.594C-155.83,-177.828 -152.086,-179.21 -148.987,-181.529C-152.455,-179.733 -156.879,-181.517 -159.426,-184.602C-160.391,-185.772 -161.146,-187.084 -161.762,-188.476C-157.001,-189.793 -152.473,-191.971 -148.523,-194.923C-147.808,-195.457 -147.111,-196.016 -146.436,-196.599C-145.084,-197.766 -143.815,-199.027 -142.646,-200.379C-142.061,-201.055 -141.501,-201.752 -140.968,-202.472C-143.258,-201.673 -145.592,-200.994 -147.953,-200.441C-147.44,-200.699 -146.949,-200.994 -146.475,-201.314C-146.46,-201.325 -146.444,-201.334 -146.429,-201.345C-142.664,-203.913 -140.204,-208.362 -140.158,-212.931C-142.1,-211.182 -144.574,-210.034 -147.164,-209.68C-143.037,-212.7 -139.882,-217.025 -138.263,-221.877C-143.603,-218.966 -150.592,-222.499 -153.67,-227.744C-156.747,-232.991 -157.004,-239.356 -157.398,-245.427C-158.206,-257.854 -159.965,-270.387 -164.779,-281.872C-169.594,-293.357 -177.74,-303.797 -188.848,-309.431C-191.635,-310.844 -194.7,-311.928 -197.878,-312.644C-201.524,-315.535 -206.054,-317.334 -210.672,-318.104C-216.71,-319.11 -222.911,-318.502 -228.921,-317.343C-236.425,-315.898 -243.92,-313.522 -250.048,-308.958C-250.502,-308.62 -251.123,-308.103 -251.844,-307.459C-256.138,-305.864 -260.147,-303.533 -263.487,-300.708C-272.997,-292.667 -278.517,-280.629 -280.553,-268.343C-282.59,-256.057 -281.412,-243.456 -279.332,-231.177C-278.316,-225.18 -277.099,-218.929 -278.884,-213.112C-280.669,-207.299 -286.655,-202.249 -292.524,-203.85C-289.829,-199.503 -285.761,-196.023 -281.049,-194.033C-283.65,-193.782 -286.324,-194.33 -288.616,-195.584C-287.499,-191.071 -283.979,-187.26 -279.622,-185.675C-281.456,-185.719 -283.29,-185.81 -285.114,-186C-284.916,-185.833 -284.704,-185.684 -284.501,-185.521C-284.807,-185.55 -285.113,-185.56 -285.417,-185.593C-278.908,-180.105 -270.494,-177.095 -261.997,-176.769C-262.276,-175.896 -262.592,-175.034 -262.986,-174.199C-265.083,-169.763 -269.214,-166.028 -274.101,-165.566C-267.127,-164.244 -259.56,-166.62 -254.596,-171.694C-252.701,-173.631 -251.326,-175.778 -250.356,-178.063C-248.543,-178.557 -246.765,-179.182 -245.046,-179.955C-245.636,-178.081 -246.227,-176.207 -246.817,-174.334C-242.959,-176.731 -239.039,-179.207 -235.855,-182.4C-232.452,-180.409 -228.761,-178.886 -224.879,-177.89C-224.81,-177.769 -224.728,-177.658 -224.652,-177.541L-224.652,-156.705C-228.079,-156.156 -231.409,-155.326 -234.476,-154.105C-234.667,-154.521 -234.866,-154.931 -235.039,-155.357L-242.729,-154.296L-242.94,-154.876L-272.771,-144.007L-271.496,-136.576L-328.431,-61.994L-375.35,-109.174L-381.758,-102.529C-384.705,-109.48 -398.825,-112.533 -403.507,-112.704C-405.451,-112.773 -407.415,-112.739 -409.309,-113.136C-415.946,-114.524 -421.214,-121.067 -428.054,-120.897C-429.373,-120.863 -430.925,-120.385 -431.53,-118.938C-432.325,-117.037 -430.939,-115.113 -429.626,-113.898C-425.681,-110.248 -421.328,-107.199 -416.691,-104.836C-415.517,-104.238 -414.304,-103.662 -413.277,-102.801C-414.628,-102.242 -415.964,-101.65 -417.371,-101.455C-420.748,-103.456 -424.455,-105.02 -427.661,-107.589C-429.961,-109.431 -432.006,-111.566 -434.043,-113.694C-435.805,-115.536 -437.581,-117.393 -438.92,-119.561C-439.088,-119.833 -439.253,-120.112 -439.418,-120.398C-440.533,-122.324 -443.233,-121.262 -443.224,-119.457C-443.636,-120.129 -444.027,-120.814 -444.363,-121.529C-444.499,-121.818 -444.631,-122.115 -444.762,-122.417C-445.795,-124.788 -449.422,-123.398 -448.528,-120.972C-448.282,-120.303 -448.009,-119.639 -447.718,-118.982C-448.74,-119.971 -449.812,-120.909 -450.936,-121.782C-452.432,-122.944 -454.495,-121.227 -453.628,-119.542C-453.248,-118.802 -452.827,-118.078 -452.409,-117.37C-449.563,-112.539 -446.716,-107.71 -443.869,-102.879C-443.172,-101.695 -442.461,-100.494 -441.459,-99.556C-439.874,-98.065 -437.725,-97.374 -435.681,-96.63C-430.544,-94.762 -425.623,-92.307 -421.042,-89.327C-419.986,-88.64 -418.936,-87.918 -417.757,-87.473C-416.17,-86.87 -414.439,-86.799 -412.745,-86.693C-408.012,-86.4 -403.31,-85.795 -398.627,-85.041L-402.957,-80.552C-391.697,-75.751 -360.603,-44.379 -345.221,-28.418C-343.932,-24.693 -341.384,-21.101 -337.74,-18.319C-329.386,-11.941 -318.442,-12.238 -313.294,-18.978C-313.058,-19.289 -312.855,-19.615 -312.651,-19.94L-274.457,-69.974C-273.996,-68.033 -273.294,-66.109 -272.308,-64.217C-270.419,-60.592 -266.719,-58.432 -264.762,-55.006C-260.782,-48.036 -260.439,-36.567 -262.814,-28.985C-264.372,-24.014 -267.64,-19.412 -267.546,-14.202C-267.508,-12.043 -266.858,-10.014 -265.788,-8.191C-272.716,8.893 -275.666,19.723 -276.745,26.542C-279.413,43.396 -282.84,60.116 -287.305,76.585C-288.49,80.958 -289.721,86.024 -290.985,91.657L-135.016,91.657C-139.885,62.704 -143.078,42.257 -143.078,38.443C-143.078,29.228 -149.646,10.143 -155.246,-4.457C-154.277,-4.63 -153.265,-4.887 -152.578,-5.588C-151.318,-6.876 -151.695,-8.982 -152.157,-10.724C-152.837,-13.281 -153.518,-15.841 -154.198,-18.399C-154.674,-20.19 -155.202,-22.074 -156.529,-23.368C-157.475,-24.29 -158.733,-24.815 -159.771,-25.634C-163.72,-28.743 -162.314,-35.059 -161.924,-39.388C-161.482,-44.274 -160.757,-50.672 -158.28,-55.008C-156.323,-58.432 -152.625,-60.592 -150.735,-64.217C-144.248,-76.666 -149.892,-90.521 -157.661,-100.955L-157.272,-103.221L-58.859,-53.662C-58.534,-53.459 -58.209,-53.254 -57.861,-53.079C-50.286,-49.265 -40.313,-53.781 -35.585,-63.168C-33.608,-67.094 -32.878,-71.244 -33.232,-75.03C-32.873,-90.667 -30.841,-165.309 -24.546,-181.854L-27.349,-181.956C-26.871,-182.146 -26.398,-182.348 -25.918,-182.531C-24.332,-183.14 -22.703,-183.725 -21.369,-184.776C-20.379,-185.555 -19.593,-186.558 -18.791,-187.529C-15.314,-191.746 -11.354,-195.563 -7.014,-198.886C-5.287,-200.206 -3.444,-201.513 -2.377,-203.407C-1.704,-204.605 -1.386,-205.964 -1.074,-207.303C0.193,-212.764 1.461,-218.224 2.729,-223.685C2.914,-224.486 3.101,-225.303 3.241,-226.122C3.563,-227.992 1.08,-229.012 0,-227.453" style="fill-rule:nonzero;"/>
            </g>
            <g transform="matrix(1,0,0,1,1042.52,4117.87)">
                <path d="M0,7.953C2.102,7.953 3.861,7.291 5.277,5.963C6.694,4.639 7.403,2.927 7.403,0.823C7.403,-0.318 7.266,-1.256 6.992,-1.986C6.945,-2.261 6.74,-2.798 6.374,-3.598C6.01,-4.397 5.826,-4.981 5.826,-5.346C5.826,-7.082 7.061,-8.499 9.528,-9.596C11.401,-10.418 13.298,-10.83 15.217,-10.83C21.752,-10.83 25.02,-7.266 25.02,-0.137C25.02,2.194 24.562,4.159 23.649,5.758C22.917,7.039 21.592,8.5 19.673,10.145C16.977,12.476 15.171,14.511 14.258,16.246C13.252,18.212 12.75,20.886 12.75,24.267L12.75,27.42L22.141,27.42C22.141,24.724 22.803,22.691 24.129,21.319C24.904,20.496 26.665,19.424 29.407,18.097C37.495,14.169 41.539,7.976 41.539,-0.479C41.539,-7.197 38.935,-12.178 33.726,-15.422C29.43,-18.119 23.739,-19.467 16.657,-19.467C10.168,-19.467 4.661,-17.936 0.137,-14.873C-5.347,-11.173 -8.089,-6.625 -8.089,-1.233C-8.089,4.891 -5.393,7.953 0,7.953" style="fill-rule:nonzero;"/>
            </g>
            <g transform="matrix(1,0,0,1,1060,4167.44)">
                <path d="M0,-17.548C-2.239,-17.548 -4.136,-16.656 -5.689,-14.875C-7.243,-13.092 -8.021,-11.059 -8.021,-8.774C-8.021,-6.306 -7.222,-4.227 -5.621,-2.535C-4.021,-0.845 -1.987,0 0.479,0C2.718,0 4.615,-0.879 6.17,-2.639C7.722,-4.399 8.5,-6.398 8.5,-8.637C8.5,-11.149 7.712,-13.265 6.135,-14.979C4.559,-16.692 2.513,-17.548 0,-17.548" style="fill-rule:nonzero;"/>
            </g>
        </g>
    </g>
</svg>
