<?xml version="1.0" encoding="UTF-8" standalone="no"?>
<!DOCTYPE svg PUBLIC "-//W3C//DTD SVG 1.1//EN" "http://www.w3.org/Graphics/SVG/1.1/DTD/svg11.dtd">
<svg width="100%" height="100%" viewBox="0 0 57 244" version="1.1" xmlns="http://www.w3.org/2000/svg" xmlns:xlink="http://www.w3.org/1999/xlink" xml:space="preserve" xmlns:serif="http://www.serif.com/" style="fill-rule:evenodd;clip-rule:evenodd;stroke-linejoin:round;stroke-miterlimit:2;">
    <g transform="matrix(1.00044,0,0,1.00044,-1392.38,-3094.07)">
        <g transform="matrix(1,0,0,1,1400.76,3321.74)">
            <path d="M0,14.293C1.244,14.113 2.253,13.11 2.406,11.804L3.83,-0.425L5.578,-0.293L5.573,-0.219L4.142,12.089C3.968,13.61 2.628,14.718 1.096,14.605C0.702,14.574 0.325,14.464 0,14.293" style="fill:rgb(96,25,0);fill-rule:nonzero;"/>
        </g>
        <g transform="matrix(1,0,0,1,1399.64,3336.03)">
            <path d="M0,-15.091L4.946,-14.718L3.522,-2.489C3.369,-1.183 2.36,-0.18 1.116,0C0.168,-0.49 -0.463,-1.492 -0.42,-2.628L0,-15.091Z" style="fill:rgb(131,36,0);fill-rule:nonzero;"/>
        </g>
        <g transform="matrix(0.997198,0.0748016,0.0748016,-0.997198,1423.77,3108.69)">
            <rect x="-8.056" y="-215.085" width="6.38" height="215.147" style="fill:rgb(131,36,0);"/>
        </g>
        <g transform="matrix(0.997229,0.0743982,0.0743982,-0.997229,1427.35,3109.09)">
            <path d="M-8.007,0.2L-5.278,0.2L-5.363,-214.949L-8.089,-214.949L-8.007,0.2Z" style="fill:rgb(96,25,0);fill-rule:nonzero;"/>
        </g>
        <g transform="matrix(1,0,0,1,1419.5,3099.43)">
            <path d="M0,21.271L0.895,9.326C1.299,3.942 5.894,-0.152 11.14,0.199L11.221,0.205C11.451,0.22 11.675,0.248 11.898,0.285C7.215,0.621 3.326,4.472 2.957,9.403L2.056,21.423L0,21.271Z" style="fill:rgb(189,160,0);fill-rule:nonzero;"/>
        </g>
        <g transform="matrix(1,0,0,1,1414.59,3093.06)">
            <path d="M0,27.28L0.895,15.322C1.228,10.893 3.271,6.811 6.652,3.83C9.618,1.211 13.262,-0.244 17.057,-0.348C17.611,-0.368 18.165,-0.355 18.721,-0.314C18.726,-0.313 18.729,-0.313 18.729,-0.313C26.02,0.241 32.019,5.396 33.664,12.514L33.958,13.794C34.389,15.674 33.213,17.552 31.335,17.984C30.683,18.133 30.008,18.093 29.393,17.871C29.15,17.791 28.92,17.679 28.698,17.545C27.909,17.05 27.355,16.271 27.147,15.364L26.853,14.086C25.895,9.953 22.428,6.977 18.197,6.658L18.115,6.652C17.677,6.625 17.241,6.624 16.812,6.662C16.589,6.625 16.365,6.597 16.135,6.582L16.054,6.576C10.808,6.225 6.213,10.319 5.809,15.703L4.914,27.648L0,27.28Z" style="fill:rgb(255,225,0);fill-rule:nonzero;"/>
        </g>
        <g transform="matrix(1,0,0,1,1400.28,3130.52)">
            <path d="M0,190.185L1.534,190.29C1.596,153.066 3.209,42.5 5.722,6.12C5.859,4.128 6.006,2.156 6.165,0.197C6.125,0.006 6.104,-0.105 6.104,-0.105C-3.262,28.354 -7.979,5.173 -7.979,5.173C-10.491,41.554 -3.518,152.712 0,190.185" style="fill:rgb(255,184,0);fill-rule:nonzero;"/>
        </g>
        <g transform="matrix(1,0,0,1,1431.64,3317.18)">
            <path d="M0,-180.458C-0.035,-179.897 -0.074,-179.337 -0.112,-178.777C-2.625,-142.396 -20.236,-32.936 -26.961,3.828L-25.427,3.935C-15.122,-32.583 11.076,-141.451 13.588,-177.831C6.172,-159.504 0.809,-181.894 0.244,-184.393C0.188,-183.407 0.129,-182.418 0.062,-181.422C0.042,-181.102 0.023,-180.785 0,-180.458" style="fill:rgb(255,225,0);fill-rule:nonzero;"/>
        </g>
        <g transform="matrix(1,0,0,1,1404.67,3130.72)">
            <path d="M0,190.291C6.725,153.527 24.336,44.066 26.849,7.686C26.887,7.126 26.926,6.565 26.961,6.005C26.984,5.678 27.003,5.361 27.023,5.041C27.09,4.045 27.149,3.056 27.205,2.07C27.175,1.924 27.156,1.846 27.156,1.846C9.99,36.949 2.502,3.581 1.767,0C1.607,1.959 1.461,3.932 1.323,5.923C-1.189,42.304 -2.803,152.869 -2.864,190.094L0,190.291Z" style="fill:rgb(255,202,0);fill-rule:nonzero;"/>
        </g>
    </g>
</svg>
