<?xml version="1.0" encoding="UTF-8" standalone="no"?>
<!DOCTYPE svg PUBLIC "-//W3C//DTD SVG 1.1//EN" "http://www.w3.org/Graphics/SVG/1.1/DTD/svg11.dtd">
<svg width="100%" height="100%" viewBox="0 0 1075 634" version="1.1" xmlns="http://www.w3.org/2000/svg" xmlns:xlink="http://www.w3.org/1999/xlink" xml:space="preserve" xmlns:serif="http://www.serif.com/" style="fill-rule:evenodd;clip-rule:evenodd;stroke-linejoin:round;stroke-miterlimit:2;">
    <g transform="matrix(0.999953,0,0,0.999953,-422.905,-4930.35)">
        <g>
            <clipPath id="_clip1">
                <path d="M489.319,4930.58C452.65,4930.58 422.925,4960.31 422.925,4996.98L422.925,5497.52C422.925,5534.19 452.65,5563.92 489.319,5563.92L1430.68,5563.92C1467.35,5563.92 1497.08,5534.19 1497.08,5497.52L1497.08,4996.98C1497.08,4960.31 1467.35,4930.58 1430.68,4930.58L489.319,4930.58Z" clip-rule="nonzero"/>
            </clipPath>
            <g clip-path="url(#_clip1)">
                <g transform="matrix(-1,0,0,1,1620.65,4751.17)">
                    <rect x="54.996" y="79.861" width="1510.66" height="832.436" style="fill:rgb(233,244,253);"/>
                </g>
                <g transform="matrix(1,0,0,1,1012.39,5028.66)">
                    <path d="M0,-26.734C-3.943,-24.443 -6.698,-20.58 -7.556,-16.134C-8.341,-12.06 -7.487,-7.941 -5.149,-4.537C-2.814,-1.132 0.726,1.149 4.816,1.89C8.483,2.552 12.284,1.882 15.517,0.004C19.462,-2.288 22.216,-6.15 23.072,-10.595C23.859,-14.67 23.005,-18.789 20.668,-22.192C18.333,-25.599 14.792,-27.88 10.702,-28.619C7.035,-29.283 3.234,-28.613 0,-26.734M15.781,0.459C12.438,2.401 8.508,3.094 4.717,2.411C0.486,1.643 -3.174,-0.716 -5.59,-4.236C-8.006,-7.757 -8.889,-12.015 -8.076,-16.228C-7.19,-20.826 -4.342,-24.82 -0.263,-27.189C3.081,-29.132 7.011,-29.824 10.802,-29.138C15.031,-28.374 18.692,-26.014 21.108,-22.494C23.524,-18.974 24.407,-14.714 23.595,-10.502C22.708,-5.904 19.86,-1.909 15.781,0.459M-8.731,32.678C-5.733,30.938 -3.023,30.268 -0.676,30.69C7.106,32.086 11.597,45.435 11.783,46.002C11.879,46.291 12.218,46.501 12.524,46.455L27.308,43.26C27.335,43.251 27.379,43.233 27.423,43.207C27.656,43.073 27.809,42.791 27.785,42.542C27.73,41.946 26.506,27.896 33.059,23.405C36.504,21.043 40.753,20.131 44.833,20.87C48.13,21.466 52.785,25.1 52.981,25.254C53.198,25.426 53.532,25.381 53.703,25.16L61.996,12.536C62.139,12.282 62.065,11.891 61.83,11.697C61.366,11.319 50.493,2.344 51.982,-5.409C52.609,-8.675 55.422,-11.781 60.341,-14.638C63.979,-16.752 67.484,-17.933 67.52,-17.945C67.8,-18.041 68.023,-18.394 67.983,-18.687L64.927,-33.354C64.848,-33.63 64.517,-33.853 64.209,-33.822C63.609,-33.761 49.464,-32.408 45.015,-38.879C40.567,-45.349 46.924,-58.037 47.196,-58.574C47.336,-58.847 47.247,-59.236 47.001,-59.42L34.392,-67.543C34.153,-67.673 33.741,-67.599 33.547,-67.368C33.505,-67.318 29.329,-62.32 24.309,-59.404C21.303,-57.658 18.586,-56.987 16.234,-57.412C8.453,-58.815 3.976,-72.169 3.788,-72.736C3.694,-73.027 3.354,-73.234 3.049,-73.19L-11.737,-70.008C-11.765,-69.999 -11.81,-69.98 -11.853,-69.955C-12.086,-69.819 -12.239,-69.54 -12.216,-69.289C-12.161,-68.695 -10.95,-54.642 -17.508,-50.156C-24.064,-45.664 -36.77,-51.873 -37.295,-52.132C-37.558,-52.263 -37.969,-52.167 -38.147,-51.931L-46.454,-39.313C-46.596,-39.06 -46.524,-38.67 -46.286,-38.476C-45.824,-38.097 -34.962,-29.111 -36.456,-21.361L-36.471,-21.291C-37.098,-18.007 -39.916,-14.894 -44.851,-12.029C-48.476,-9.922 -51.962,-8.742 -51.997,-8.73C-52.29,-8.634 -52.503,-8.282 -52.461,-7.99L-49.392,6.675C-49.358,6.789 -49.271,6.897 -49.15,6.962C-49.029,7.026 -48.891,7.037 -48.759,6.996C-48.517,6.919 -42.796,5.139 -39.486,5.738C-35.38,6.481 -31.824,8.768 -29.475,12.182C-25.021,18.649 -31.364,31.341 -31.638,31.877C-31.777,32.153 -31.688,32.542 -31.442,32.725L-18.824,40.836C-18.584,40.967 -18.171,40.891 -17.979,40.661C-17.938,40.611 -13.757,35.598 -8.731,32.678M27.687,43.662C27.605,43.709 27.521,43.746 27.432,43.772L12.614,46.975C12.034,47.061 11.455,46.705 11.278,46.171C11.234,46.036 6.699,32.55 -0.776,31.209C-2.995,30.811 -5.582,31.458 -8.468,33.134C-13.41,36.004 -17.53,40.945 -17.572,40.995C-17.926,41.42 -18.624,41.552 -19.101,41.288L-31.749,33.158C-32.215,32.81 -32.367,32.149 -32.111,31.644C-32.046,31.516 -25.635,18.696 -29.913,12.483C-32.184,9.186 -35.619,6.974 -39.587,6.257C-42.767,5.68 -48.546,7.481 -48.604,7.499C-48.872,7.585 -49.157,7.558 -49.405,7.428C-49.651,7.295 -49.831,7.075 -49.907,6.805L-52.984,-7.892C-53.063,-8.459 -52.694,-9.05 -52.162,-9.23C-52.129,-9.241 -48.69,-10.407 -45.114,-12.484C-41.818,-14.399 -37.736,-17.496 -36.994,-21.376L-36.979,-21.455C-35.542,-28.902 -46.517,-37.976 -46.627,-38.067C-47.063,-38.422 -47.187,-39.089 -46.907,-39.585L-38.581,-52.232C-38.209,-52.724 -37.539,-52.844 -37.054,-52.604C-36.929,-52.543 -24.104,-46.281 -17.805,-50.589C-11.505,-54.9 -12.731,-69.094 -12.744,-69.238C-12.795,-69.779 -12.393,-70.365 -11.862,-70.519L2.959,-73.709C3.539,-73.795 4.118,-73.439 4.294,-72.905C4.338,-72.768 8.86,-59.28 16.335,-57.929C18.558,-57.53 21.151,-58.179 24.045,-59.859C28.979,-62.726 33.098,-67.652 33.139,-67.7C33.489,-68.127 34.19,-68.259 34.668,-67.996L47.31,-59.853C47.775,-59.505 47.926,-58.843 47.67,-58.338C47.604,-58.211 41.182,-45.394 45.454,-39.179C49.729,-32.961 64.018,-34.334 64.161,-34.346C64.726,-34.404 65.289,-34.024 65.442,-33.482L68.505,-18.782C68.584,-18.216 68.214,-17.624 67.684,-17.446C67.649,-17.435 64.193,-16.267 60.605,-14.182C57.319,-12.273 53.247,-9.187 52.505,-5.315C51.074,2.134 62.059,11.198 62.169,11.289C62.604,11.645 62.728,12.311 62.449,12.805L54.135,25.46C53.743,25.979 53.094,26.019 52.649,25.67C52.602,25.631 47.899,21.96 44.733,21.388C40.791,20.675 36.689,21.554 33.357,23.838C27.063,28.152 28.301,42.346 28.314,42.489C28.356,42.94 28.098,43.422 27.687,43.662" style="fill:rgb(95,171,252);fill-rule:nonzero;"/>
                </g>
                <g transform="matrix(1,0,0,1,1126.68,5057.79)">
                    <path d="M0,-18.578C-2.741,-16.986 -4.654,-14.301 -5.25,-11.21C-6.379,-5.367 -2.521,0.252 3.347,1.313C5.895,1.774 8.535,1.309 10.781,0.002C13.523,-1.589 15.437,-4.273 16.033,-7.363C17.161,-13.208 13.304,-18.826 7.436,-19.889C4.888,-20.348 2.247,-19.884 0,-18.578M11.046,0.457C8.688,1.826 5.918,2.317 3.246,1.83C-2.91,0.718 -6.955,-5.175 -5.772,-11.307C-5.146,-14.547 -3.14,-17.362 -0.264,-19.033C2.094,-20.402 4.863,-20.891 7.536,-20.406C13.692,-19.294 17.737,-13.4 16.555,-7.268C15.929,-4.029 13.922,-1.213 11.046,0.457M-6.193,22.875C-4.075,21.647 -2.16,21.174 -0.499,21.473C4.995,22.458 8.151,31.844 8.283,32.244C8.338,32.41 8.541,32.533 8.716,32.508L19.059,30.272C19.066,30.27 19.092,30.26 19.116,30.244C19.251,30.167 19.343,30.002 19.33,29.856C19.291,29.436 18.431,19.557 23.057,16.387C25.513,14.701 28.481,14.078 31.358,14.599C33.685,15.02 36.957,17.575 37.097,17.685C37.215,17.776 37.394,17.754 37.488,17.633L43.29,8.799C43.368,8.662 43.325,8.428 43.189,8.318C42.863,8.052 35.219,1.74 36.27,-3.732C36.713,-6.042 38.694,-8.234 42.158,-10.246C44.712,-11.73 47.173,-12.561 47.198,-12.569C47.363,-12.623 47.492,-12.832 47.469,-13.002L45.331,-23.263C45.287,-23.413 45.091,-23.547 44.914,-23.529C44.491,-23.486 34.544,-22.535 31.403,-27.101C28.264,-31.67 32.734,-40.59 32.925,-40.969C33.006,-41.127 32.952,-41.357 32.813,-41.463L23.989,-47.146C23.862,-47.217 23.613,-47.171 23.504,-47.039C23.476,-47.005 20.541,-43.496 17.016,-41.447C14.895,-40.214 12.975,-39.741 11.309,-40.043C5.815,-41.033 2.668,-50.423 2.536,-50.822C2.481,-50.989 2.279,-51.112 2.104,-51.086L-8.24,-48.859C-8.248,-48.857 -8.272,-48.848 -8.297,-48.832C-8.434,-48.753 -8.525,-48.586 -8.513,-48.443C-8.474,-48.023 -7.622,-38.142 -12.25,-34.976C-16.86,-31.811 -25.812,-36.171 -26.182,-36.353C-26.335,-36.43 -26.576,-36.373 -26.682,-36.236L-32.491,-27.408C-32.57,-27.27 -32.526,-27.037 -32.391,-26.926C-32.065,-26.66 -24.428,-20.342 -25.482,-14.871L-25.753,-14.861L-25.494,-14.815C-25.936,-12.498 -27.921,-10.303 -31.396,-8.285C-33.939,-6.807 -36.39,-5.976 -36.414,-5.969C-36.58,-5.913 -36.708,-5.707 -36.685,-5.535L-34.536,4.723C-34.521,4.777 -34.474,4.837 -34.407,4.872C-34.342,4.904 -34.266,4.912 -34.194,4.889C-34.024,4.837 -30.001,3.583 -27.667,4.006C-24.771,4.529 -22.264,6.143 -20.607,8.551C-17.462,13.115 -21.925,22.039 -22.115,22.418C-22.196,22.576 -22.142,22.807 -22.001,22.911L-13.174,28.587C-13.046,28.657 -12.795,28.61 -12.688,28.481C-12.658,28.445 -9.722,24.926 -6.193,22.875M19.381,30.701C19.318,30.736 19.252,30.764 19.185,30.783L8.806,33.027C8.357,33.094 7.915,32.822 7.78,32.413C7.747,32.318 4.589,22.923 -0.599,21.992C-2.132,21.717 -3.925,22.168 -5.928,23.33C-9.373,25.331 -12.25,28.779 -12.279,28.813C-12.551,29.139 -13.084,29.241 -13.45,29.04L-22.308,23.345C-22.669,23.077 -22.785,22.57 -22.59,22.184C-22.544,22.094 -18.077,13.162 -21.046,8.852C-22.623,6.561 -25.011,5.025 -27.766,4.526C-29.973,4.127 -33.998,5.38 -34.039,5.393C-34.249,5.459 -34.47,5.439 -34.662,5.337C-34.854,5.234 -34.992,5.063 -35.053,4.854L-37.207,-5.441C-37.269,-5.878 -36.986,-6.329 -36.579,-6.469C-36.555,-6.476 -34.155,-7.288 -31.659,-8.74C-29.367,-10.072 -26.527,-12.222 -26.014,-14.908L-26.003,-14.966C-25.007,-20.133 -32.653,-26.454 -32.73,-26.517C-33.064,-26.789 -33.158,-27.302 -32.944,-27.68L-27.113,-36.537C-26.815,-36.932 -26.316,-37.012 -25.941,-36.826C-25.854,-36.783 -16.937,-32.41 -12.548,-35.41C-8.18,-38.4 -9.032,-48.289 -9.04,-48.39C-9.08,-48.81 -8.776,-49.253 -8.366,-49.371L2.016,-51.605C2.464,-51.672 2.906,-51.399 3.04,-50.992C3.071,-50.895 6.224,-41.496 11.408,-40.561C12.945,-40.283 14.743,-40.736 16.752,-41.902C20.196,-43.903 23.067,-47.338 23.097,-47.372C23.362,-47.697 23.9,-47.801 24.266,-47.598L33.119,-41.896C33.479,-41.627 33.597,-41.121 33.399,-40.734C33.354,-40.644 28.879,-31.716 31.844,-27.402C34.808,-23.09 44.765,-24.044 44.865,-24.053C45.297,-24.098 45.729,-23.807 45.847,-23.394L47.991,-13.097C48.054,-12.658 47.768,-12.203 47.363,-12.07C47.34,-12.061 44.928,-11.245 42.422,-9.791C40.139,-8.465 37.306,-6.32 36.79,-3.638C35.798,1.531 43.451,7.846 43.527,7.908C43.863,8.182 43.956,8.691 43.743,9.069L37.921,17.933C37.607,18.347 37.11,18.37 36.766,18.1C36.731,18.074 33.455,15.516 31.258,15.117C28.52,14.622 25.684,15.219 23.354,16.82C18.987,19.814 19.85,29.702 19.858,29.803C19.891,30.154 19.699,30.514 19.381,30.701" style="fill:rgb(95,171,252);fill-rule:nonzero;"/>
                </g>
                <g transform="matrix(1,0,0,1,1485.62,5204.34)">
                    <path d="M0,56.544L33.007,56.5L49.471,28.228L32.93,0L-0.078,0.044L-16.542,28.316L0,56.544Z" style="fill:rgb(186,226,255);fill-rule:nonzero;"/>
                </g>
                <g transform="matrix(1,0,0,1,1501.67,5209.27)">
                    <path d="M0,-0.072L-13.542,-23.18L-40.563,-23.144L-54.041,-0L-40.498,23.108L-13.479,23.073L0,-0.072ZM-55.012,0.001L-41.17,-23.766L-41.049,-23.974L-13.058,-24.012L0.971,-0.073L-12.871,23.695L-12.992,23.903L-40.983,23.94L-55.012,0.001Z" style="fill:rgb(186,226,255);fill-rule:nonzero;"/>
                </g>
                <g transform="matrix(1,0,0,1,1452.65,5232.64)">
                    <path d="M0,-0.055L-10.785,-18.459L-32.303,-18.431L-43.038,0.002L-32.253,18.405L-10.734,18.377L0,-0.055ZM-44.008,0.003L-32.79,-19.261L-10.301,-19.291L0.971,-0.057L-10.247,19.207L-32.737,19.236L-44.008,0.003Z" style="fill:rgb(186,226,255);fill-rule:nonzero;"/>
                </g>
                <g transform="matrix(0.907249,-0.420595,-0.420595,-0.907249,933.65,5618.24)">
                    <rect x="-11.054" y="40.316" width="193.874" height="9.809" style="fill:white;"/>
                </g>
                <g transform="matrix(0.907251,-0.420589,-0.420589,-0.907251,930.622,5614.26)">
                    <rect x="-9.978" y="40.553" width="193.873" height="4.696" style="fill:rgb(95,171,252);"/>
                </g>
                <g transform="matrix(-0.907249,-0.420593,-0.420593,0.907249,933.649,5463.94)">
                    <rect x="-182.821" y="40.316" width="193.874" height="9.81" style="fill:white;"/>
                </g>
                <g transform="matrix(-0.907251,-0.420591,-0.420591,0.907251,932.774,5463.27)">
                    <rect x="-183.894" y="40.553" width="193.872" height="4.696" style="fill:rgb(95,171,252);"/>
                </g>
                <g transform="matrix(0,-1,-1,0,992.548,5536.62)">
                    <path d="M-4.234,-4.233C-6.503,-4.233 -8.341,-2.338 -8.341,0.001C-8.341,2.339 -6.503,4.234 -4.234,4.234C-1.965,4.234 -0.126,2.339 -0.126,0.001C-0.126,-2.338 -1.965,-4.233 -4.234,-4.233" style="fill:rgb(31,27,24);fill-rule:nonzero;"/>
                </g>
                <g transform="matrix(0.907253,-0.420584,-0.420584,-0.907253,933.892,5541.37)">
                    <rect x="-11.053" y="40.315" width="193.872" height="9.81" style="fill:white;"/>
                </g>
                <g transform="matrix(0.907254,-0.420582,-0.420582,-0.907254,930.865,5537.4)">
                    <rect x="-9.978" y="40.552" width="193.872" height="4.696" style="fill:rgb(95,171,252);"/>
                </g>
                <g transform="matrix(0,1,1,0,911.068,5497.3)">
                    <path d="M4.233,-4.234C6.503,-4.234 8.341,-2.338 8.341,-0C8.341,2.338 6.503,4.233 4.233,4.233C1.965,4.233 0.126,2.338 0.126,-0C0.126,-2.338 1.965,-4.234 4.233,-4.234" style="fill:rgb(31,27,24);fill-rule:nonzero;"/>
                </g>
                <g transform="matrix(-0.907252,-0.420586,-0.420586,0.907252,933.893,5387.08)">
                    <rect x="-182.818" y="40.315" width="193.872" height="9.81" style="fill:white;"/>
                </g>
                <g transform="matrix(-0.907253,-0.420584,-0.420584,0.907253,933.016,5386.41)">
                    <rect x="-183.895" y="40.552" width="193.873" height="4.696" style="fill:rgb(95,171,252);"/>
                </g>
                <g transform="matrix(0,-1,-1,0,992.79,5459.76)">
                    <path d="M-4.233,-4.234C-6.503,-4.234 -8.341,-2.339 -8.341,-0.002C-8.341,2.338 -6.503,4.233 -4.233,4.233C-1.966,4.233 -0.126,2.338 -0.126,-0.002C-0.126,-2.339 -1.966,-4.234 -4.233,-4.234" style="fill:rgb(31,27,24);fill-rule:nonzero;"/>
                </g>
                <g transform="matrix(0,-1,-1,0,1074.51,5497.3)">
                    <path d="M-4.233,-4.234C-6.503,-4.234 -8.341,-2.339 -8.341,-0.002C-8.341,2.336 -6.503,4.233 -4.233,4.233C-1.965,4.233 -0.126,2.336 -0.126,-0.002C-0.126,-2.339 -1.965,-4.234 -4.233,-4.234" style="fill:rgb(31,27,24);fill-rule:nonzero;"/>
                </g>
                <g transform="matrix(0.907251,-0.420589,-0.420589,-0.907251,933.893,5465.05)">
                    <rect x="-11.053" y="40.316" width="193.872" height="9.809" style="fill:white;"/>
                </g>
                <g transform="matrix(0.907252,-0.420587,-0.420587,-0.907252,930.865,5461.08)">
                    <rect x="-9.978" y="40.553" width="193.872" height="4.695" style="fill:rgb(95,171,252);"/>
                </g>
                <g transform="matrix(0,1,1,0,911.068,5420.97)">
                    <path d="M4.233,-4.234C6.502,-4.234 8.341,-2.338 8.341,-0C8.341,2.338 6.502,4.233 4.233,4.233C1.964,4.233 0.126,2.338 0.126,-0C0.126,-2.338 1.964,-4.234 4.233,-4.234" style="fill:rgb(31,27,24);fill-rule:nonzero;"/>
                </g>
                <g transform="matrix(-0.907251,-0.420591,-0.420591,0.907251,933.894,5310.76)">
                    <rect x="-182.818" y="40.316" width="193.872" height="9.809" style="fill:white;"/>
                </g>
                <g transform="matrix(-0.907251,-0.420589,-0.420589,0.907251,933.017,5310.09)">
                    <rect x="-183.895" y="40.553" width="193.873" height="4.695" style="fill:rgb(95,171,252);"/>
                </g>
                <g transform="matrix(0,-1,-1,0,992.79,5383.44)">
                    <path d="M-4.233,-4.234C-6.502,-4.234 -8.341,-2.339 -8.341,-0.002C-8.341,2.338 -6.502,4.233 -4.233,4.233C-1.964,4.233 -0.126,2.338 -0.126,-0.002C-0.126,-2.339 -1.964,-4.234 -4.233,-4.234" style="fill:rgb(31,27,24);fill-rule:nonzero;"/>
                </g>
                <g transform="matrix(0,-1,-1,0,1074.51,5420.97)">
                    <path d="M-4.233,-4.234C-6.502,-4.234 -8.341,-2.339 -8.341,-0.002C-8.341,2.336 -6.502,4.233 -4.233,4.233C-1.964,4.233 -0.126,2.336 -0.126,-0.002C-0.126,-2.339 -1.964,-4.234 -4.233,-4.234" style="fill:rgb(31,27,24);fill-rule:nonzero;"/>
                </g>
                <g transform="matrix(1,0,0,1,1095.17,5338.16)">
                    <path d="M0,13.272C0,15.715 -2.811,17.696 -6.275,17.696L-198.72,17.696C-202.186,17.696 -204.996,15.715 -204.996,13.272L-204.996,0C-204.996,-2.444 -202.186,-4.424 -198.72,-4.424L-6.275,-4.424C-2.811,-4.424 0,-2.444 0,0L0,13.272Z" style="fill:rgb(95,171,252);fill-rule:nonzero;"/>
                </g>
                <g transform="matrix(1,0,0,1,1095.17,5339.33)">
                    <path d="M0,-0.121C0,-3.142 -2.811,-5.591 -6.275,-5.591L-198.72,-5.591C-202.186,-5.591 -204.996,-3.142 -204.996,-0.121L-204.996,5.47L0,5.47L0,-0.121Z" style="fill:white;fill-rule:nonzero;"/>
                </g>
                <g transform="matrix(-1,0,0,1,2557.58,5487.07)">
                    <rect x="1267.46" y="-88.49" width="22.664" height="433.243" style="fill:rgb(95,171,252);"/>
                </g>
                <g transform="matrix(-1,0,0,1,2850.59,5487.07)">
                    <rect x="1413.96" y="-88.49" width="22.665" height="433.243" style="fill:rgb(95,171,252);"/>
                </g>
                <g transform="matrix(-1,0,0,1,2715.42,5184.64)">
                    <rect x="1290.12" y="271.497" width="135.175" height="15.698" style="fill:rgb(95,171,252);"/>
                </g>
                <g transform="matrix(-1,0,0,1,2715.42,5310.2)">
                    <rect x="1290.12" y="208.715" width="135.175" height="15.697" style="fill:rgb(95,171,252);"/>
                </g>
                <g transform="matrix(-1,0,0,1,3001.28,5310.2)">
                    <rect x="1433.05" y="208.715" width="135.175" height="15.697" style="fill:rgb(95,171,252);"/>
                </g>
                <g transform="matrix(-1,0,0,1,2912.6,5211.49)">
                    <rect x="1415.68" y="261.203" width="81.238" height="9.435" style="fill:rgb(95,171,252);"/>
                </g>
                <g transform="matrix(-1,0,0,1,2912.6,5286.95)">
                    <rect x="1415.68" y="223.473" width="81.238" height="9.434" style="fill:rgb(95,171,252);"/>
                </g>
                <g transform="matrix(1,0,0,1,0,5544.62)">
                    <rect x="1128.46" y="-88.49" width="22.665" height="375.686" style="fill:rgb(95,171,252);"/>
                </g>
                <g transform="matrix(1,0,0,1,0,5310.2)">
                    <rect x="1139.79" y="208.715" width="135.175" height="15.697" style="fill:rgb(95,171,252);"/>
                </g>
                <g transform="matrix(1,0,0,1,0,5211.49)">
                    <rect x="1239.44" y="261.203" width="44.563" height="9.435" style="fill:rgb(95,171,252);"/>
                </g>
                <g transform="matrix(1,0,0,1,0,5286.95)">
                    <rect x="1239.44" y="223.473" width="81.238" height="9.434" style="fill:rgb(95,171,252);"/>
                </g>
            </g>
        </g>
    </g>
</svg>
