<?xml version="1.0" encoding="UTF-8" standalone="no"?>
<!DOCTYPE svg PUBLIC "-//W3C//DTD SVG 1.1//EN" "http://www.w3.org/Graphics/SVG/1.1/DTD/svg11.dtd">
<svg width="100%" height="100%" viewBox="0 0 258 438" version="1.1" xmlns="http://www.w3.org/2000/svg" xmlns:xlink="http://www.w3.org/1999/xlink" xml:space="preserve" xmlns:serif="http://www.serif.com/" style="fill-rule:evenodd;clip-rule:evenodd;stroke-linejoin:round;stroke-miterlimit:2;">
    <g transform="matrix(0.999953,0,0,0.999953,-1152.08,-5260.76)">
        <g opacity="0.3">
            <g transform="matrix(1,0,0,1,1375.19,5530.41)">
                <path d="M0,-101.865C1.178,-94.896 2.421,-87.679 4.556,-80.934C2.578,-80.874 -1.032,-80.977 -4.033,-81.02L-4.154,-84.552L0,-101.865ZM34.58,-69.726C35.291,-84.829 32.146,-94.169 29.375,-110.038C27.109,-123.03 24.654,-136.005 22.201,-148.98C21.182,-154.358 20.473,-161.522 19.453,-166.901C19.406,-167.152 19.233,-167.427 18.983,-167.713C17.585,-169.478 12.628,-171.817 11.126,-172.362C11.103,-172.282 11.092,-172.187 11.07,-172.105L-11.43,-184.257L-17.379,-189.524L-27.059,-212.067L-27.126,-212.072C-27.137,-214.517 -27.514,-217.16 -28.186,-219.859C-26.82,-220.728 -25.526,-222.285 -24.691,-224.253C-23.174,-227.83 -23.746,-231.399 -25.974,-232.223C-26.001,-232.234 -26.03,-232.238 -26.058,-232.247C-25.82,-232.245 -25.585,-232.225 -25.355,-232.171C-25.343,-233.006 -25.334,-233.865 -25.327,-234.734C-25.324,-235.069 -25.322,-235.408 -25.319,-235.747C-25.317,-236.078 -25.315,-236.411 -25.313,-236.746C-25.312,-237.17 -25.309,-237.588 -25.307,-238.015C-25.308,-238.015 -25.308,-238.013 -25.309,-238.013C-25.296,-241.598 -25.298,-245.277 -25.246,-248.623C-25.204,-251.387 -28.003,-252.561 -28.971,-255.218C-30.507,-259.438 -31.626,-264.413 -36.092,-266.355C-40.557,-268.3 -42.322,-266.477 -47.212,-266.837C-48.75,-266.949 -53.496,-269.563 -55.017,-269.403C-56.25,-269.27 -57.456,-268.98 -58.588,-268.539C-62.346,-267.082 -63.734,-262.307 -66.784,-260.707C-70.712,-258.647 -74.492,-251.218 -73.176,-247.409C-71.691,-243.107 -76.431,-234.666 -77.074,-228.525C-77.079,-228.482 -77.083,-228.438 -77.088,-228.394C-77.153,-227.706 -77.167,-227.047 -77.111,-226.427C-77.106,-226.367 -77.099,-226.308 -77.092,-226.25C-77.063,-225.998 -77.023,-225.752 -76.971,-225.513C-76.959,-225.46 -76.95,-225.404 -76.937,-225.351C-76.868,-225.078 -76.783,-224.814 -76.678,-224.562C-76.658,-224.515 -76.633,-224.471 -76.612,-224.426C-76.52,-224.221 -76.413,-224.026 -76.292,-223.839C-76.253,-223.777 -76.213,-223.715 -76.171,-223.655C-76.014,-223.435 -75.843,-223.222 -75.642,-223.028C-74.05,-221.49 -71.615,-220.416 -68.878,-219.792C-68.421,-211.789 -67.504,-202.062 -64.123,-195.403C-61.835,-190.892 -58.421,-187.803 -55.19,-185.825L-85.957,-171.182L-85.955,-171.144C-86.075,-171.164 -86.188,-171.202 -86.31,-171.212C-88.976,-171.43 -91.273,-169.347 -91.442,-166.557L-100.951,-108.988L-116.492,-110.258C-118.944,-110.458 -119.882,-108.916 -118.575,-106.832L-110.873,-94.539C-111.978,-92.93 -111.226,-88.871 -108.743,-82.94C-105.918,-76.184 -100.391,-72.528 -98.541,-73.568C-98.326,-73.689 -98.176,-73.874 -98.072,-74.107L-95.735,-70.377C-94.429,-68.292 -91.354,-66.422 -88.902,-66.221L-81.973,-65.655L-82.312,-19.496C-102.89,-16.153 -128.387,-12.129 -135.558,-10.359C-136.199,-10.23 -136.687,-10.107 -136.982,-9.989C-137.65,-9.722 -138.269,-9.416 -138.846,-9.076C-140.545,-8.109 -141.873,-6.851 -142.908,-5.416C-151.193,4.423 -165.996,27.596 -173.915,37.415C-186.7,53.269 -198.521,69.058 -200.979,79.255C-201.457,81.247 -200.367,82.589 -199.171,83.857L-200.859,86.358L-209.112,78.863C-214.664,73.847 -221.607,74.016 -222.62,76.431L-223.061,77.478L-207.994,91.092C-207.991,91.094 -207.989,91.097 -207.987,91.099L-202.049,96.464C-202.148,96.506 -202.234,96.572 -202.297,96.668C-202.534,97.032 -202.357,97.65 -201.898,98.049L-197.627,101.781C-197.169,102.183 -196.606,102.211 -196.371,101.845C-196.334,101.789 -196.325,101.717 -196.308,101.651L-196.182,101.765L-195.741,100.714C-195.161,100.367 -194.629,98.704 -194.288,97.894C-193.552,96.132 -193.803,93.862 -194.782,92.211L-194.406,91.768C-193.687,92.936 -192.901,93.774 -192.023,93.731C-190.393,93.653 -188.604,92.968 -186.673,91.783C-179.762,87.627 -171.009,76.968 -161.104,64.685C-160.44,63.862 -159.749,63.035 -159.037,62.21C-149.788,52.209 -134.61,42.709 -128.075,33.97C-128.092,34.221 -128.108,34.471 -128.115,34.718C-129.382,49.325 -128.538,80.028 -129.545,94.305C-131.167,117.351 -132.417,139.096 -129.141,148.886C-128.239,151.577 -125.376,152.428 -123.328,152.725L-123.435,157.485L-132.798,157.532C-139.334,157.588 -145.323,163.112 -145.386,165.938L-145.413,167.168L-127.692,167.023C-127.688,167.023 -127.683,167.025 -127.677,167.025L-122.193,166.978L-121.192,166.969C-121.128,167.379 -120.711,167.698 -120.186,167.698L-114.831,167.698C-114.278,167.698 -113.832,167.348 -113.806,166.908L-113.781,166.908L-113.754,165.678C-113.366,164.934 -113.467,163.113 -113.444,162.166C-113.394,159.877 -114.606,157.977 -116.269,157.545L-116.161,152.715C-115.781,152.519 -115.441,152.264 -115.166,151.918C-109.764,145.147 -108.244,126.043 -106.645,103.359C-105.271,83.906 -96.591,55.464 -100.668,45.416C-100.695,45.345 -57.156,44.907 -52.248,44.147C-51.275,43.995 -49.806,43.769 -48.041,43.468C-42.854,42.85 -37.973,41.726 -33.46,40.176C-30.726,39.332 -28.224,38.357 -26.352,37.246C-21.965,35.122 -18.035,32.582 -14.636,29.735C-8.71,25.418 -4.496,19.463 -1.928,12.685C0.241,6.963 0.782,-6.305 -1.775,-14.959L-3.245,-57.946C5.037,-57.246 12.271,-56.668 14.507,-56.604C14.771,-56.558 14.979,-56.515 15.114,-56.475C26.457,-53.142 35.245,-60.427 34.598,-69.615C34.595,-69.653 34.584,-69.69 34.58,-69.726" style="fill-rule:nonzero;"/>
            </g>
        </g>
    </g>
</svg>
