<?xml version="1.0" encoding="UTF-8" standalone="no"?>
<!DOCTYPE svg PUBLIC "-//W3C//DTD SVG 1.1//EN" "http://www.w3.org/Graphics/SVG/1.1/DTD/svg11.dtd">
<svg width="100%" height="100%" viewBox="0 0 181 190" version="1.1" xmlns="http://www.w3.org/2000/svg" xmlns:xlink="http://www.w3.org/1999/xlink" xml:space="preserve" xmlns:serif="http://www.serif.com/" style="fill-rule:evenodd;clip-rule:evenodd;stroke-linejoin:round;stroke-miterlimit:2;">
    <g transform="matrix(1.04167,0,0,1.04167,-539.433,-285.212)">
        <g transform="matrix(1,0,0,1,641.021,307.222)">
            <path d="M0,104.699C0.618,105.178 1.248,105.609 1.73,105.791L2.652,106.146C3.667,106.54 4.625,106.911 5.349,107.06C6.617,107.32 7.9,107.451 9.171,107.451C10.407,107.451 11.644,107.327 12.847,107.081C15.25,106.585 21.797,100.411 24.259,95.733C25.324,93.715 23.974,91.316 22.356,89.743C18.542,86.029 19.021,81.276 19.251,78.991C19.274,78.76 19.303,78.48 19.321,78.247C17.907,75.385 16.662,72.497 15.455,69.698L14.658,67.852C13.303,64.726 11.708,61.12 9.895,57.822C8.112,54.581 5.907,51.511 4.185,49.198C0.103,43.721 -4.347,38.758 -9.038,34.446C-14.208,29.691 -19.969,25.556 -25.424,21.796C-32.101,17.198 -38.352,13.274 -44.534,9.803C-50.487,6.465 -56.342,3.332 -62.485,1.706C-65.891,0.806 -69.434,0.178 -72.14,-0.268L-72.685,-0.36C-74.113,-0.602 -75.463,-0.831 -76.694,-0.924C-77.936,-1.016 -79.333,-1.012 -81.158,-0.906C-81.875,-0.866 -82.562,-0.819 -83.25,-0.772C-84.969,-0.655 -86.747,-0.533 -88.623,-0.533C-90.219,-0.533 -91.667,-0.622 -93.052,-0.805C-93.193,-0.824 -93.333,-0.847 -93.472,-0.873C-95.777,1.086 -97.838,3.965 -99.626,7.733C-103.231,15.326 -104.145,21.958 -102.342,27.444C-101.666,29.505 -98.787,33.434 -97.055,35.441C-95.76,36.941 -95.107,38.898 -95.246,40.875C-95.396,43.001 -93.661,46.278 -93.008,47.511C-91.559,50.248 -89.793,52.808 -87.76,55.12C-86.188,56.912 -83.668,58.157 -80.751,59.599C-79.546,60.194 -78.301,60.81 -77.034,61.508C-75.586,62.302 -73.88,63.325 -72.336,64.833C-70.162,66.969 -69.21,69.475 -68.681,71.176C-68.184,72.769 -67.867,74.32 -67.587,75.688C-67.263,77.276 -66.982,78.646 -66.529,79.662C-65.997,80.85 -64.715,82.076 -62.723,83.299C-60.844,84.45 -58.819,85.118 -57.021,85.178L-56.732,85.183C-56.118,85.183 -55.862,85.103 -55.86,85.102C-55.379,84.935 -54.602,84.499 -54.087,84.211C-53.328,83.786 -52.591,83.343 -51.854,82.901C-50.378,82.015 -48.851,81.099 -47.13,80.262C-45.314,79.38 -43.678,78.82 -42.267,78.596C-40.997,78.397 -39.818,78.397 -38.74,78.605C-38.548,78.641 -38.377,78.68 -38.23,78.718C-36.677,79.069 -35.263,79.91 -34.209,81.129C-33.847,81.548 -33.538,81.985 -33.266,82.466C-32.431,83.933 -31.925,85.386 -31.518,86.552C-31.293,87.198 -31.038,87.929 -30.856,88.247C-30.356,89.121 -29.476,90.133 -28.598,91.097C-27.655,92.139 -26.759,92.983 -25.848,93.692C-23.888,95.217 -21.807,96.314 -19.664,96.952C-17.635,97.553 -15.523,97.684 -13.695,97.312C-13.397,97.251 -13.096,97.158 -12.792,97.072C-11.619,96.739 -10.013,96.283 -8.072,96.26L-8.069,96.26C-5.474,96.26 -3.178,97.373 -1.671,99.315C-0.246,101.151 0.066,103.093 0,104.699M9.171,122.451L9.17,122.451C6.889,122.451 4.589,122.217 2.337,121.754C0.38,121.354 -1.295,120.704 -2.772,120.131L-3.574,119.823C-6.866,118.579 -9.411,116.422 -11.096,114.995C-11.383,114.751 -11.634,114.531 -11.848,114.368C-12.566,113.89 -13.291,113.263 -13.901,112.449C-17.216,112.696 -20.627,112.311 -23.937,111.33C-27.882,110.156 -31.62,108.205 -35.057,105.532C-36.663,104.283 -38.184,102.859 -39.705,101.179C-41.145,99.596 -42.659,97.824 -43.875,95.696C-43.888,95.674 -43.901,95.652 -43.914,95.629C-43.988,95.674 -44.063,95.719 -44.137,95.763C-45.006,96.284 -45.875,96.805 -46.758,97.298C-47.992,97.991 -49.341,98.718 -50.957,99.278C-52.919,99.956 -55.2,100.252 -57.532,100.169C-61.934,100.024 -66.446,98.611 -70.566,96.085C-75.18,93.254 -78.428,89.789 -80.221,85.787C-81.349,83.262 -81.845,80.835 -82.283,78.693C-82.512,77.572 -82.729,76.513 -83.003,75.634C-83.041,75.513 -83.073,75.417 -83.1,75.341C-83.472,75.085 -84.039,74.774 -84.259,74.653C-85.248,74.108 -86.292,73.593 -87.396,73.047C-91.194,71.17 -95.5,69.043 -99.03,65.019C-101.833,61.832 -104.267,58.302 -106.264,54.531C-107.907,51.428 -109.712,47.486 -110.154,43.114C-112.188,40.51 -115.272,36.147 -116.593,32.125C-119.638,22.86 -118.489,12.489 -113.177,1.301C-109.107,-7.277 -103.618,-13.23 -96.846,-16.417C-95.62,-17.266 -94.145,-17.752 -92.571,-17.752C-90.55,-17.752 -88.661,-16.934 -87.271,-15.561C-86.311,-15.598 -85.312,-15.666 -84.274,-15.737C-83.518,-15.789 -82.763,-15.841 -82.009,-15.882C-79.555,-16.026 -77.516,-16.027 -75.569,-15.882C-73.639,-15.735 -71.881,-15.438 -70.181,-15.15L-69.675,-15.064C-66.665,-14.568 -62.668,-13.857 -58.65,-12.795C-50.812,-10.72 -43.753,-6.956 -37.194,-3.278C-30.605,0.421 -23.973,4.582 -16.914,9.444C-11.007,13.515 -4.735,18.024 1.114,23.403C6.491,28.345 11.572,34.009 16.213,40.237C18.225,42.937 20.816,46.553 23.039,50.595C25.165,54.462 26.93,58.449 28.418,61.883L29.229,63.759C30.506,66.72 31.712,69.517 33.073,72.211C34.669,75.371 34.375,78.519 34.183,80.428C39.963,87.005 41.304,95.571 37.529,102.726C34.529,108.426 25.089,119.875 15.861,121.775C13.662,122.225 11.414,122.451 9.171,122.451" style="fill:rgb(241,147,0);fill-rule:nonzero;"/>
        </g>
        <g transform="matrix(1,0,0,1,640.678,326.402)">
            <path d="M0,47.086C2.466,47.086 4.792,48.302 6.197,50.363C7.729,52.612 7.923,55.514 6.704,57.946C5.458,60.432 5.767,60.655 7.483,61.895C10.724,64.235 11.56,68.706 9.383,72.058C8.005,74.181 8.744,76.52 9.607,78.108C11.71,81.98 16.151,84.684 20.407,84.684C21.206,84.684 22.002,84.589 22.774,84.402C24.991,83.613 30.432,77.203 30.442,73.106C30.443,72.547 30.444,72.143 28.731,71.529C26.365,70.681 24.581,68.704 23.979,66.263C23.378,63.823 24.04,61.243 25.741,59.393C32.15,52.421 36.19,46.401 35.071,39.678C33.721,31.532 29.03,20.244 23.736,20.227C21.499,20.219 19.382,19.213 17.963,17.483C16.544,15.754 15.971,13.481 16.401,11.285C17.937,3.446 15.791,-3.504 12.983,-6.915C11.651,-8.534 10.217,-9.354 8.721,-9.354C8.364,-9.354 7.983,-9.311 7.589,-9.226C5.176,-8.705 2.666,-9.402 0.868,-11.09C-0.811,-12.667 -1.665,-14.919 -1.47,-17.196C-3.397,-16.261 -5.644,-16.19 -7.634,-17.019C-9.781,-17.914 -11.395,-19.753 -11.996,-22C-13.265,-26.741 -22.413,-32.251 -32.306,-32.251C-36.415,-32.251 -42.219,-31.291 -46.544,-26.714C-48.224,-24.935 -50.668,-24.089 -53.087,-24.445C-55.508,-24.801 -57.603,-26.316 -58.699,-28.503C-62.066,-35.216 -70.524,-37.598 -76.745,-37.598C-79.222,-37.598 -81.588,-37.254 -83.587,-36.603C-96.429,-32.427 -105.059,-24.795 -107.264,-15.665C-109.125,-7.959 -106.349,0.108 -99.446,7.051C-97.308,9.203 -92.216,11.489 -86.995,11.489C-85.227,11.489 -82.005,11.203 -80.295,9.289C-78.196,6.941 -74.854,6.057 -71.929,7.218C-69.003,8.382 -67.114,11.151 -67.202,14.299C-67.179,15.167 -66.844,20.015 -62.609,21.093C-61.285,21.43 -59.985,21.601 -58.748,21.601C-55.246,21.601 -53.098,20.245 -52.662,19.942C-51.166,18.556 -49.307,17.972 -47.263,18.095C-45.188,18.221 -43.408,19.338 -42.084,20.942C-39.999,23.463 -37.237,26.277 -36.039,27.12C-34.891,27.418 -32.828,27.704 -30.532,27.704C-29.483,27.704 -28.665,27.644 -28.07,27.572C-26.721,26.134 -24.809,25.227 -22.681,25.204C-22.653,25.203 -22.625,25.203 -22.599,25.203C-18.495,25.203 -15.146,28.507 -15.101,32.621C-15.084,34.107 -15.124,35.493 -15.162,36.834C-15.312,42.062 -15.29,44.482 -13.215,47.058C-11.876,48.722 -11.265,48.729 -10.676,48.729L-10.669,48.729C-9.658,48.729 -8.186,48.421 -6.628,48.096C-4.88,47.731 -2.899,47.316 -0.674,47.116C-0.449,47.096 -0.224,47.086 0,47.086M20.408,99.683C10.747,99.684 1.109,93.891 -3.574,85.268C-6.353,80.151 -7.087,74.735 -5.789,69.735C-7.21,67.852 -8.169,65.803 -8.654,63.634C-9.31,63.694 -9.98,63.729 -10.668,63.729C-16.311,63.729 -20.967,61.353 -24.9,56.463C-28.635,51.825 -29.801,47.074 -30.114,42.702C-30.252,42.703 -30.392,42.704 -30.532,42.704C-34.419,42.704 -38.25,42.185 -41.044,41.279C-43.457,40.496 -46.326,38.402 -49.607,35.035C-52.055,35.912 -55.129,36.601 -58.748,36.601C-61.232,36.601 -63.776,36.274 -66.309,35.63C-72.873,33.959 -76.915,29.855 -79.279,25.461C-81.67,26.138 -84.261,26.489 -86.994,26.489C-95.667,26.49 -104.731,23.011 -110.084,17.627C-120.643,7.004 -124.929,-6.413 -121.844,-19.186C-118.388,-33.496 -106.136,-45.043 -88.228,-50.868C-84.75,-51.999 -80.779,-52.598 -76.745,-52.598C-68.167,-52.598 -57.739,-49.821 -50.519,-42.518C-45.255,-45.606 -39.018,-47.251 -32.306,-47.251C-19.097,-47.251 -6.557,-41.09 -0.565,-32.379C3.495,-32.196 7.325,-30.324 10.027,-27.18C10.853,-26.22 11.542,-25.169 12.088,-24.057C16.818,-23.21 21.162,-20.582 24.565,-16.448C29.505,-10.446 32.111,-1.866 31.898,7.036C42.117,11.836 47.898,25.338 49.869,37.22C51.582,47.519 47.564,56.024 42.131,63.211C44.469,66.202 45.638,69.942 45.415,74.108C44.821,85.162 34.405,97.025 26.295,98.984C24.372,99.448 22.391,99.683 20.408,99.683" style="fill:rgb(241,147,0);fill-rule:nonzero;"/>
        </g>
        <g transform="matrix(1,0,0,1,586.457,415.072)">
            <path d="M0,40.439C-1.977,40.439 -3.637,39.892 -4.863,39.417C-5.231,39.276 -5.681,39.1 -6.149,38.918C-7.225,38.498 -8.444,38.022 -9.307,37.734C-13.588,36.302 -17.211,34.885 -20.716,33.515C-23.633,32.375 -26.389,31.296 -29.343,30.283C-35.32,28.228 -39.631,26.194 -42.914,23.878C-43.248,23.644 -43.608,23.409 -43.973,23.169C-46.758,21.34 -53.28,17.058 -51.994,8.825C-51.653,6.653 -50.118,1.475 -43.216,0.204C-42.473,0.066 -41.685,0 -40.809,0C-35.997,0 -28.086,2.192 -20.396,4.438L-19.525,4.692C-13.837,6.341 -8.147,9.683 -3.26,12.685C1.161,15.394 7.342,19.754 9.881,26.265C11.481,30.385 10.341,34.829 7.051,37.42C6.807,37.691 6.543,37.946 6.262,38.184C4.508,39.664 2.347,40.439 0,40.439" style="fill:rgb(241,147,0);fill-rule:nonzero;"/>
        </g>
        <g transform="matrix(1,0,0,1,557.738,305.129)">
            <path d="M0,14.62C1.336,14.62 2.667,14.976 3.847,15.682C4.656,16.165 5.354,16.787 5.917,17.51C6.69,16.169 7.866,15.073 9.295,14.419C11.433,13.442 13.918,13.48 15.986,14.595C16.016,14.611 16.045,14.627 16.074,14.642C15.907,13.577 15.708,12.263 15.679,10.735C15.616,7.441 17.712,4.491 20.844,3.466C21.562,3.23 21.576,3.143 21.637,2.722C21.799,1.622 21.384,0.246 20.851,-0.809C19.943,-0.363 18.944,-0.1 17.912,-0.049C15.766,0.056 13.665,-0.767 12.162,-2.313C11.878,-2.605 11.729,-2.759 11.506,-2.883C11.024,-2.813 10.463,-2.757 9.844,-2.757C8.971,-2.757 8.12,-2.871 7.316,-3.095C5.713,-3.535 4.552,-4.371 3.773,-5.002C3.595,-5.046 3.42,-5.08 3.251,-5.106C2.713,-3.26 1.481,-1.676 -0.211,-0.704C-2.227,0.455 -4.667,0.613 -6.816,-0.276C-6.816,-0.273 -6.847,-0.276 -6.893,-0.275C-8.24,-0.275 -10.106,1.177 -10.476,2.055C-8.641,5.62 -9.935,10.026 -13.444,12.016C-13.625,12.119 -13.781,12.215 -13.915,12.305C-13.368,12.625 -12.482,12.933 -11.387,12.882C-8.86,12.766 -6.458,13.938 -4.979,15.986C-4.948,16.03 -4.916,16.074 -4.885,16.119L-3.157,15.317C-2.153,14.851 -1.075,14.62 0,14.62M3.86,34.779C1.643,34.779 -0.588,34.4 -2.673,33.687C-4.021,34.027 -5.42,34.205 -6.804,34.205C-11.21,34.205 -14.989,32.388 -17.173,29.219C-17.599,28.6 -18.086,27.745 -18.462,26.665C-23.648,24.744 -27.714,20.713 -29.034,15.71C-30.058,11.827 -29.458,6.789 -25.521,2.583C-25.609,-0.228 -24.863,-3.082 -23.291,-5.74C-20.199,-10.966 -14.407,-14.621 -8.509,-15.195C-6.004,-18.333 -2.099,-20.159 2.606,-20.159C4.911,-20.159 7.363,-19.709 9.697,-18.858C10.336,-18.627 10.899,-18.335 11.387,-18.033C12.39,-18.105 13.531,-18.001 14.534,-17.701C15.643,-17.366 16.713,-17.015 17.793,-16.514C18.86,-16.842 19.973,-17.011 21.112,-17.011C29.083,-17.011 35.151,-8.835 36.413,-0.93C37.423,5.402 35.436,11.001 31.195,14.593C31.46,17.567 31.181,21.701 27.526,25.725C24.048,29.544 20.182,30.344 17.549,30.344C16.925,30.344 16.315,30.299 15.722,30.219C12.808,33.109 8.654,34.779 3.86,34.779" style="fill:rgb(241,147,0);fill-rule:nonzero;"/>
        </g>
        <g transform="matrix(1,0,0,1,557.753,305.438)">
            <path d="M0,13.721C2.088,13.721 3.999,14.508 5.438,15.816C7.027,13.63 9.587,12.263 12.42,12.263C13.199,12.263 13.975,12.371 14.724,12.58C14.642,11.956 14.575,11.29 14.552,10.583C14.425,6.806 16.842,3.322 20.429,2.117C20.48,2.1 20.526,2.082 20.565,2.066C20.604,1.64 20.508,0.998 20.26,0.299C19.386,0.588 18.457,0.741 17.505,0.741C15.209,0.741 12.991,-0.191 11.419,-1.815C11.293,-1.944 11.176,-2.055 11.071,-2.148C10.693,-2.11 10.271,-2.082 9.819,-2.082C8.219,-2.082 6.707,-2.427 5.326,-3.107C4.722,-3.405 4.21,-3.73 3.792,-4.026C2.469,-1.042 -0.512,0.95 -3.969,0.95C-5.016,0.95 -6.039,0.766 -7.013,0.402C-7.766,0.444 -8.906,1.168 -9.398,1.772C-7.908,5.247 -8.836,9.228 -11.604,11.606C-11.56,11.607 -11.516,11.607 -11.471,11.607L-11.339,11.605C-8.598,11.534 -5.958,12.799 -4.333,14.971C-3.078,14.177 -1.592,13.721 0,13.721M3.757,35.572C1.376,35.572 -0.974,35.17 -3.182,34.396C-4.415,34.665 -5.667,34.806 -6.878,34.806L-6.879,34.806C-11.208,34.806 -14.917,33.195 -17.34,30.27C-18.133,29.313 -18.754,28.256 -19.199,27.122C-23.491,25.462 -26.987,22.432 -28.92,18.509C-31.684,12.896 -30.649,6.689 -26.466,1.937C-26.489,-1.377 -25.46,-4.704 -23.426,-7.678C-20.142,-12.48 -14.64,-15.766 -8.997,-16.419C-7.698,-17.953 -6.08,-19.186 -4.202,-20.047C-0.905,-21.546 2.993,-21.851 7.072,-20.959C8.365,-20.671 9.932,-20.239 11.507,-19.37C11.606,-19.375 11.707,-19.379 11.809,-19.381C11.858,-19.382 11.993,-19.383 12.042,-19.383C14.214,-19.383 16.21,-18.801 17.951,-17.974C20.198,-18.577 22.604,-18.538 24.866,-17.843C32.575,-15.475 36.478,-7.544 37.479,-1.471C38.509,4.767 36.508,10.679 32.339,14.621C32.366,15.045 32.381,15.486 32.378,15.941C32.356,19.479 31.135,22.815 28.845,25.58C26.009,29.015 22.176,30.996 18.06,31.148C17.325,31.176 16.652,31.145 15.992,31.077C12.853,33.936 8.558,35.572 3.757,35.572" style="fill:rgb(241,147,0);fill-rule:nonzero;"/>
        </g>
        <g transform="matrix(1,0,0,1,612.663,330.426)">
            <path d="M0,3.415C0.471,3.415 0.94,3.426 1.404,3.451C6.838,3.734 9.486,5.418 11.894,10.126C12.072,10.477 12.279,10.883 12.537,11.355L13.014,12.233C14.164,14.354 15.156,16.186 16.433,17.743C18.118,19.8 19.957,21.618 21.479,22.736C21.731,22.87 22.805,23.161 23.516,23.353C25.35,23.849 27.632,24.467 29.724,25.943C32.131,27.641 33.445,29.822 34.314,31.266C34.586,31.717 34.958,32.335 35.122,32.499C35.857,33.137 36.967,33.569 38.084,33.648C38.872,33.707 39.622,33.536 40.234,33.32C39.105,31.326 38.986,29.262 39.171,27.632C39.493,24.821 41.091,22.957 42.282,21.751C42.269,20.793 42.136,19.478 41.91,18.623C41.264,16.179 38.228,13.199 36.212,13.035C32.228,12.709 29.198,9.316 29.326,5.32C29.36,4.265 29.426,3.282 29.49,2.346C29.701,-0.729 29.722,-1.596 28.879,-3.128C27.95,-4.822 26.97,-5.915 26.364,-6.438C24.547,-5.942 22.594,-6.144 20.902,-7.033C18.856,-8.107 17.419,-10.064 17.008,-12.338C16.254,-16.507 15.393,-16.507 13.678,-16.507C13.118,-16.507 12.48,-16.456 11.784,-16.356C9.761,-16.062 7.708,-16.609 6.098,-17.866C4.487,-19.122 3.459,-20.981 3.251,-23.014C3.208,-23.437 3.112,-23.824 2.999,-24.148C1.396,-23.612 -0.356,-23.629 -1.967,-24.221C-4.007,-24.971 -5.621,-26.569 -6.392,-28.601C-6.954,-30.083 -9.247,-30.243 -10.207,-30.243C-12.778,-30.243 -15.104,-29.178 -16.073,-28.127C-16.189,-28.001 -16.273,-27.891 -16.334,-27.795C-16.253,-27.238 -16.233,-26.668 -16.281,-26.094L-16.362,-25.11C-16.667,-21.405 -19.637,-18.491 -23.332,-18.243C-24.045,-17.669 -24.577,-17.103 -24.894,-16.66C-23.92,-15.52 -22.857,-13.753 -22.595,-11.16C-22.337,-8.638 -23.197,-6.556 -23.838,-5.19C-23.777,-5.056 -23.708,-4.916 -23.635,-4.776C-22.47,-5.188 -21.035,-5.48 -19.319,-5.381C-14.498,-5.102 -11.293,-2.421 -9.786,2.585C-9.72,2.806 -9.63,3.102 -9.579,3.233C-9.305,3.638 -9.102,3.824 -7.473,3.824C-6.56,3.824 -5.491,3.737 -4.359,3.645C-2.972,3.532 -1.537,3.415 0,3.415M38.354,48.658C37.903,48.658 37.458,48.642 37.02,48.611C32.652,48.301 28.479,46.598 25.276,43.815C23.362,42.155 22.265,40.334 21.464,39.004C21.317,38.759 21.134,38.455 20.988,38.229C20.596,38.103 20.019,37.946 19.598,37.832C17.658,37.307 15.001,36.588 12.603,34.828C9.361,32.448 6.588,29.395 4.833,27.253C2.65,24.592 1.214,21.942 -0.174,19.38L-0.631,18.539C-0.651,18.502 -0.671,18.465 -0.691,18.429C-1.446,18.457 -2.276,18.525 -3.142,18.595C-4.522,18.707 -5.95,18.824 -7.473,18.824C-13.936,18.824 -18.859,16.355 -22.104,11.487C-22.196,11.349 -22.285,11.21 -22.369,11.074C-23.015,11.215 -23.725,11.303 -24.496,11.303C-26.587,11.303 -28.617,10.675 -30.7,9.384C-35.118,6.64 -38.958,-0.097 -39.094,-5.331C-39.132,-6.867 -38.809,-8.2 -38.407,-9.309C-38.745,-9.857 -39.064,-10.49 -39.33,-11.215C-42.314,-19.378 -37.559,-26.766 -30.991,-31.223C-30.331,-33.803 -29.014,-36.219 -27.104,-38.292C-23.093,-42.644 -16.776,-45.243 -10.207,-45.243C-4.475,-45.243 0.541,-43.202 3.981,-39.665C9.218,-39.601 13.749,-36.363 16.241,-31.356C20.816,-30.808 26.653,-28.552 29.916,-21.222C36.329,-19.52 40.423,-13.271 42.026,-10.35C44.243,-6.317 44.655,-2.862 44.611,0.233C50.505,3.342 54.948,9.256 56.413,14.791C57.072,17.29 57.936,23.116 56.498,27.317C56.258,28.018 55.947,28.644 55.602,29.203C55.71,29.525 55.807,29.865 55.887,30.223C56.841,34.456 55.885,38.639 53.196,42.001C49.913,46.106 44.226,48.658 38.354,48.658" style="fill:rgb(241,147,0);fill-rule:nonzero;"/>
        </g>
        <g transform="matrix(1,0,0,1,613.431,331.509)">
            <path d="M0,1.345C1.455,1.345 5.882,1.345 9.229,4.583C10.715,6.022 11.5,7.625 11.97,8.582L12.147,8.939C13.006,10.597 13.749,11.951 14.482,13.195C15.936,15.671 17.83,17.933 20.121,19.93C20.946,20.649 21.388,20.874 21.871,21.019C22.225,21.125 22.591,21.223 22.957,21.322C24.006,21.605 25.195,21.926 26.476,22.44C28.965,23.43 31.102,25.063 32.808,27.285C33.489,28.179 33.996,29.026 34.403,29.706C34.626,30.079 34.933,30.591 35.064,30.745C35.6,31.271 36.822,31.656 37.888,31.583C37.969,31.577 38.048,31.569 38.125,31.56C37.565,30.234 37.228,28.596 37.447,26.617C37.799,23.505 39.448,21.458 40.581,20.272C40.559,19.598 40.48,18.898 40.35,18.214C39.867,15.729 37.271,13.057 35.113,12.841C30.83,12.409 27.479,8.552 27.639,4.242C27.67,3.395 27.73,2.546 27.792,1.696C27.895,0.281 27.991,-1.056 27.883,-2.091C27.808,-2.802 27.395,-3.729 26.655,-4.838C26.108,-5.659 25.662,-6.184 25.345,-6.509C24.786,-6.39 24.219,-6.332 23.643,-6.332C19.591,-6.332 16.115,-9.17 15.377,-13.081C14.837,-15.967 14.244,-16.492 14.201,-16.526C14.224,-16.528 13.891,-16.671 12.927,-16.672C12.384,-16.672 11.752,-16.622 10.993,-16.519C10.653,-16.471 10.268,-16.445 9.886,-16.445C5.642,-16.445 2.072,-19.677 1.582,-23.965C1.576,-24.021 1.568,-24.077 1.559,-24.132C0.99,-24.014 0.413,-23.954 -0.163,-23.954C-3.636,-23.954 -6.708,-26.059 -7.988,-29.316C-8.058,-29.496 -8.186,-29.826 -8.812,-30.103C-9.367,-30.349 -10.199,-30.49 -11.094,-30.49C-13.413,-30.49 -15.343,-29.636 -16.228,-28.859C-16.212,-28.73 -16.2,-28.601 -16.19,-28.472C-16.043,-26.538 -16.555,-24.664 -17.577,-23.119C-17.867,-22.566 -18.225,-22.046 -18.646,-21.571C-19.779,-20.29 -21.292,-19.419 -22.945,-19.065C-23.562,-18.645 -24.086,-18.197 -24.486,-17.746C-21.437,-13.62 -22.43,-9.46 -23.272,-7.148C-20.97,-7.647 -18.562,-7.474 -16.413,-6.652C-11.648,-4.847 -10.178,-0.519 -9.551,1.329C-9.516,1.432 -9.476,1.55 -9.437,1.662C-9.219,1.712 -8.79,1.775 -8.031,1.775C-7.12,1.775 -6.069,1.688 -4.957,1.595C-3.957,1.512 -2.922,1.426 -1.855,1.391L-1.529,1.38C-1.047,1.362 -0.53,1.345 0,1.345M37.655,48.552L37.45,48.551C32.035,48.505 26.833,46.428 23.195,42.85C21.711,41.392 20.778,39.879 20.029,38.663C19.888,38.435 19.749,38.205 19.603,37.978C19.504,37.947 19.377,37.909 19.217,37.864L18.5,37.668C16.993,37.26 15.117,36.752 13.204,35.735C10.824,34.476 8.999,32.788 7.334,31.168C3.985,27.913 1.196,24.21 -1.19,19.851C-1.468,19.343 -1.739,18.825 -2.007,18.307C-2.552,18.342 -3.129,18.392 -3.725,18.445C-4.548,18.517 -5.368,18.588 -6.181,18.633C-6.847,18.669 -7.52,18.692 -8.196,18.692C-11.909,18.692 -15.009,17.977 -17.675,16.508C-19.782,15.343 -21.614,13.721 -23.13,11.683C-23.293,11.464 -23.446,11.244 -23.59,11.026C-23.864,11.072 -24.146,11.107 -24.435,11.128C-24.73,11.15 -25.013,11.16 -25.295,11.16C-30.251,11.16 -34.748,8.105 -37.956,2.558C-38.985,0.781 -41.92,-4.29 -40.149,-10.286C-41.017,-11.811 -41.573,-13.551 -41.808,-15.489C-42.601,-22.162 -38.941,-28.68 -32.096,-33.184C-31.586,-34.968 -30.771,-36.665 -29.667,-38.218C-25.736,-43.76 -18.609,-47.207 -11.071,-47.207C-5.229,-47.207 -0.065,-45.176 3.577,-41.593C6.67,-41.487 9.573,-40.365 11.999,-38.333C13.644,-36.957 15.005,-35.251 16.049,-33.275C19.167,-32.84 21.926,-31.741 24.279,-29.994C26.61,-28.268 28.464,-25.933 29.819,-23.021C33.546,-21.885 37.058,-19.193 39.981,-15.165C42.35,-11.907 43.798,-8.699 44.407,-5.361C44.658,-3.978 44.751,-2.655 44.763,-1.397C52.083,2.656 56.885,10.401 57.389,19.104C57.508,21.136 57.526,23.556 56.759,26.067C56.521,26.845 56.212,27.54 55.87,28.157C56.601,30.515 56.509,32.798 56.335,34.185C55.162,43.517 45.835,48.552 37.655,48.552" style="fill:rgb(241,147,0);fill-rule:nonzero;"/>
        </g>
        <g transform="matrix(1,0,0,1,654.283,394.013)">
            <path d="M0,-9.6C-0.326,-9.6 -0.641,-9.559 -0.936,-9.481C-2.65,-9.015 -2.802,-7.222 -2.816,-6.867C-2.893,-5.109 -2.217,-3.324 -0.96,-2.012C-0.013,-1.022 1.216,-0.359 2.527,-0.11C2.56,-0.142 2.592,-0.175 2.625,-0.209C3.91,-1.532 4.617,-3.358 4.563,-5.219C4.513,-7.528 2.38,-9.6 0,-9.6M0,5.4C-5.82,5.4 -10.305,0.999 -10.432,-4.839C-10.494,-6.953 -9.656,-9.094 -8.134,-10.661C-6.45,-12.394 -4.008,-13.311 -1.647,-13.136C-0.183,-14.31 1.68,-15 3.691,-15C6.03,-15 8.284,-14.046 9.875,-12.384C11.457,-10.732 12.272,-8.556 12.171,-6.255C11.975,-1.063 8.192,3.583 2.975,5.001C1.979,5.268 0.986,5.4 0,5.4" style="fill:rgb(241,147,0);fill-rule:nonzero;"/>
        </g>
        <g transform="matrix(1,0,0,1,667.518,383.79)">
            <path d="M0,-9.639C-0.084,-9.637 -0.167,-9.631 -0.25,-9.621C-0.638,-9.578 -1.244,-9.511 -1.888,-8.324C-2.182,-7.78 -2.362,-7.169 -2.427,-6.543L0,-9.639ZM-2.416,-5.394L2.366,-0.616C3.509,-1.76 4.151,-3.331 4.127,-4.928C4.115,-5.745 3.9,-7.3 2.593,-8.532C1.905,-9.182 1.066,-9.578 0.266,-9.633L-2.433,-6.483C-2.466,-6.121 -2.46,-5.755 -2.416,-5.394M0.074,5.36C-2.905,5.36 -5.667,4.3 -7.704,2.376C-9.675,0.516 -10.832,-2.067 -10.871,-4.705C-10.907,-7.174 -9.975,-9.487 -8.244,-11.219C-7.631,-11.832 -6.917,-12.334 -6.132,-12.703C-4.531,-13.457 -2.657,-13.617 -0.97,-13.161C0.462,-14.335 2.287,-14.999 4.195,-14.999C7.287,-14.999 10.063,-13.312 11.439,-10.595C12.962,-7.566 12.907,-4.14 11.299,-1.174C9.164,2.764 4.803,4.907 1.428,5.284C0.99,5.334 0.53,5.36 0.074,5.36" style="fill:rgb(241,147,0);fill-rule:nonzero;"/>
        </g>
        <g transform="matrix(1,0,0,1,675.776,365.644)">
            <path d="M0,-6.796C-0.878,-6.796 -1.727,-6.629 -2.524,-6.298C-4.521,-5.474 -5.535,-3.233 -5.223,-1.661C-4.953,-0.298 -3.029,0 -2.311,0C-2.171,0 -2.032,-0.006 -1.891,-0.019C1.11,-0.295 3.539,-2.471 4.142,-5.374C2.981,-6.275 1.523,-6.796 0,-6.796M0,8.204C-3.171,8.204 -6.026,6.415 -7.45,3.534C-8.158,2.101 -8.436,0.518 -8.303,-1.024C-10.096,-2.779 -11.006,-5.311 -10.633,-7.921C-10.09,-11.714 -7.065,-14.607 -3.278,-14.955C-2.963,-14.984 -2.637,-15 -2.311,-15C4.012,-15 8.489,-9.63 9.491,-4.578C10.538,0.701 8.012,5.58 3.208,7.563C2.185,7.987 1.103,8.204 0,8.204" style="fill:rgb(241,147,0);fill-rule:nonzero;"/>
        </g>
        <g transform="matrix(1,0,0,1,630.217,380.574)">
            <path d="M0,-9.368C-0.323,-9.152 -0.772,-8.781 -1.209,-8.186C-2.647,-6.241 -2.862,-3.668 -1.761,-1.485C-1.573,-1.113 -1.351,-0.763 -1.099,-0.438C0.373,-1.031 1.626,-2.116 2.419,-3.551C2.856,-4.352 3.087,-5.672 2.476,-7.071C1.987,-8.188 1.021,-9.082 0,-9.368M-0.392,5.563C-1.535,5.563 -2.654,5.428 -3.718,5.163C-7.169,4.295 -9.917,2.028 -11.268,-1.06C-12.614,-4.139 -12.417,-7.68 -10.728,-10.773C-9.304,-13.35 -6.623,-14.931 -3.714,-14.931C-1.522,-14.931 0.473,-14.046 1.921,-12.606C2.608,-12.788 3.353,-12.886 4.099,-12.886C7.3,-12.886 10.187,-11.106 11.632,-8.24C13.096,-5.337 12.801,-1.905 10.862,0.718C8.45,3.996 4.494,4.868 3.194,5.154C1.971,5.425 0.762,5.563 -0.392,5.563" style="fill:rgb(241,147,0);fill-rule:nonzero;"/>
        </g>
        <g transform="matrix(1,0,0,1,636.58,372.863)">
            <path d="M0,-11.065C-1.714,-11.065 -4.036,-9.516 -4.798,-7.013C-5.574,-4.475 -4.455,-1.662 -2.161,-0.113C-0.066,-0.496 1.748,-1.824 2.779,-3.642L1.194,-6.327L2.825,-3.723C3.267,-4.527 3.558,-5.424 3.653,-6.377C3.736,-7.204 3.543,-8.045 3.151,-8.785L1.944,-6.381L3.122,-8.839C2.602,-9.791 1.75,-10.568 0.728,-10.924C0.346,-11.055 0.16,-11.065 0,-11.065M0,3.935C-1.408,3.935 -2.888,3.693 -4.168,3.254C-8.927,1.599 -11.769,-2.867 -11.272,-7.871C-10.861,-11.94 -7.481,-15 -3.407,-15C-1.945,-15 -0.539,-14.604 0.68,-13.895C2.235,-14.073 3.847,-13.802 5.246,-13.116C8.973,-11.291 10.822,-6.798 9.549,-2.635C8.335,1.352 4.586,3.935 0,3.935" style="fill:rgb(241,147,0);fill-rule:nonzero;"/>
        </g>
        <g transform="matrix(1,0,0,1,650.545,362.174)">
            <path d="M0,-10.279C-0.175,-10.279 -0.357,-10.258 -0.543,-10.218C-1.303,-10.055 -2.093,-9.735 -2.711,-8.515C-3.396,-7.165 -3.419,-5.425 -2.772,-3.976C-1.856,-1.901 0.088,-0.443 2.341,-0.086C2.739,-0.574 3.077,-1.12 3.341,-1.713C4.276,-3.815 4.135,-6.211 3.033,-8.167C2.762,-8.559 2.37,-9.031 1.832,-9.476C1.26,-9.949 0.792,-10.125 0.704,-10.155C0.44,-10.244 0.228,-10.279 0,-10.279M0,4.721C-1.409,4.721 -2.804,4.492 -4.146,4.039C-5.571,3.546 -6.724,2.912 -7.728,2.083C-8.754,1.234 -9.369,0.316 -9.7,-0.259C-11.192,-2.46 -11.471,-5.323 -10.363,-7.811C-9.123,-10.599 -6.352,-12.401 -3.306,-12.401C-3.077,-12.401 -2.839,-12.389 -2.601,-12.367C-2.513,-12.459 -2.422,-12.552 -2.328,-12.644C-0.743,-14.175 1.288,-15 3.423,-15C6.665,-15 9.615,-13.063 10.938,-10.064C12.109,-7.443 12.017,-4.394 10.667,-1.733C9.131,1.298 5.971,3.723 2.616,4.445C1.767,4.628 0.886,4.721 0,4.721" style="fill:rgb(241,147,0);fill-rule:nonzero;"/>
        </g>
        <g transform="matrix(1,0,0,1,651.869,339.251)">
            <path d="M0,2.13L1.848,4.494C3.9,3.846 5.448,1.989 5.482,-0.133C5.485,-0.927 5.368,-1.701 5.143,-2.431C4.661,-2.547 4.162,-2.608 3.651,-2.608C1.49,-2.608 -0.428,-1.556 -1.605,0.076L-0.071,2.039L0.011,-1.236L0,2.13ZM-2.824,3.658C-2.815,3.666 -2.806,3.674 -2.796,3.682C-2.084,4.273 -1.132,4.642 -0.138,4.722L-0.073,2.138L-1.609,0.081C-2.322,1.07 -2.763,2.273 -2.822,3.581C-2.823,3.609 -2.824,3.634 -2.824,3.658M-0.008,4.731C0.579,4.759 1.167,4.691 1.715,4.534L0,2.236L-0.008,4.731ZM3.651,12.392C0.108,12.392 -2.946,10.185 -4.177,7.038C-5.341,6.665 -6.416,6.017 -7.287,5.143C-8.733,3.691 -9.525,1.764 -9.517,-0.282C-9.428,-5.917 -5.13,-10.262 0.268,-10.262C2.602,-10.262 4.914,-9.411 6.777,-7.866C10.198,-5.031 12.363,-0.158 12.163,4.258C11.958,8.818 8.219,12.392 3.651,12.392" style="fill:rgb(241,147,0);fill-rule:nonzero;"/>
        </g>
        <g transform="matrix(1,0,0,1,658.761,330.34)">
            <path d="M0,-8.57C-2.435,-8.57 -5.253,-7.214 -6.058,-4.183C-6.474,-2.622 -6.087,-1.448 -4.906,-0.698C-4.197,-0.248 -3.296,0 -2.371,0C0.016,0 2.164,-1.612 2.626,-3.75C2.954,-5.276 2.786,-6.831 2.171,-8.219C1.477,-8.447 0.743,-8.57 0,-8.57M0,6.43C-2.688,6.43 -5.208,5.073 -6.744,2.8C-6.94,2.51 -7.111,2.219 -7.26,1.93C-8.512,1.449 -9.63,0.644 -10.499,-0.431C-11.97,-2.252 -12.531,-4.613 -12.038,-6.91C-11.008,-11.676 -7.034,-15 -2.371,-15C-0.458,-15 1.446,-14.433 3.134,-13.361C7.484,-10.599 9.714,-5.117 8.438,-0.325C7.546,3.029 4.361,6.43 0,6.43" style="fill:rgb(241,147,0);fill-rule:nonzero;"/>
        </g>
        <g transform="matrix(1,0,0,1,648.282,326.471)">
            <path d="M0,-10.604C-2.567,-9.709 -4.436,-7.398 -4.656,-4.543C-4.759,-3.132 -4.266,-1.709 -3.339,-0.712C-2.953,-0.296 -2.155,0.4 -1.149,0.4C-0.244,0.4 1.208,-0.104 2.321,-1.523C3.544,-3.082 3.681,-4.86 3.4,-6.005C2.921,-7.989 1.666,-9.619 0,-10.604M2.389,3.996C1.058,3.996 -0.251,3.656 -1.418,3.011C-2.16,3.247 -2.948,3.372 -3.758,3.372C-7.294,3.372 -10.344,0.974 -11.174,-2.459C-11.903,-5.437 -11.287,-8.479 -9.479,-10.783C-7.575,-13.208 -4.539,-14.6 -1.149,-14.6C2.22,-14.6 5.509,-13.226 7.649,-10.923C9.563,-8.863 10.506,-6.198 10.302,-3.419C9.981,0.75 6.506,3.996 2.389,3.996" style="fill:rgb(241,147,0);fill-rule:nonzero;"/>
        </g>
        <g transform="matrix(1,0,0,1,624.04,364.13)">
            <path d="M0,-10.299C-0.812,-10.299 -1.737,-9.904 -2.473,-9.244C-4.573,-7.335 -5.295,-4.353 -4.305,-1.792C-4.051,-1.133 -3.692,-0.531 -3.251,-0.001C-1.16,-0.039 0.731,-1.039 1.963,-2.598L1.963,-5.061L2.231,-2.961C2.825,-3.823 3.228,-4.832 3.371,-5.928C3.586,-7.57 2.54,-9.394 0.989,-10.08C0.649,-10.23 0.336,-10.299 0,-10.299M0,4.701C-1.747,4.701 -3.5,4.335 -5.072,3.641C-9.633,1.625 -12.156,-2.897 -11.501,-7.88C-10.961,-12.004 -7.543,-15 -3.375,-15C-1.08,-15 1.023,-14.06 2.544,-12.541C5.734,-12.318 8.498,-10.272 9.686,-7.201C10.933,-3.975 10.107,-0.408 7.583,1.887C5.549,3.713 2.869,4.701 0,4.701" style="fill:rgb(241,147,0);fill-rule:nonzero;"/>
        </g>
        <g transform="matrix(1,0,0,1,606.57,360.73)">
            <path d="M0,-11.281C-0.211,-11.281 -0.475,-11.281 -0.965,-10.694C-2.609,-8.74 -2.989,-5.972 -1.915,-3.663C-1.325,-2.396 -0.339,-1.375 0.862,-0.714C2.416,-1.475 3.672,-2.8 4.305,-4.465C4.862,-5.953 4.646,-7.707 3.753,-9.076C2.907,-10.374 1.553,-11.197 0.132,-11.277L0,-11.281ZM0,3.719C-0.238,3.719 -0.475,3.713 -0.708,3.699C-4.037,3.511 -7.062,1.799 -8.811,-0.882C-10.524,-3.509 -10.859,-6.745 -9.73,-9.76C-8.516,-12.956 -5.569,-15 -2.209,-15C-1.041,-15 0.085,-14.747 1.111,-14.29C2.069,-14.674 3.095,-14.875 4.135,-14.875C7.341,-14.875 10.305,-12.958 11.685,-9.992C13.062,-7.033 12.608,-3.526 10.53,-1.056C8.077,1.881 4.035,3.719 0,3.719" style="fill:rgb(241,147,0);fill-rule:nonzero;"/>
        </g>
        <g transform="matrix(1,0,0,1,657.109,401.388)">
            <path d="M0,9.366C2.022,9.546 4.128,8.787 5.572,7.318C6.446,6.421 6.893,5.198 6.821,3.939C6.75,2.686 6.173,1.53 5.24,0.768C4.605,0.253 3.866,-0.028 3.149,-0.028C2.389,-0.028 1.769,0.281 1.382,0.54C-1.035,2.156 -1.214,4.729 -1.179,5.76C-1.134,7.062 -0.712,8.313 0,9.366M3.149,14.972C0.427,14.972 -2.195,14.057 -4.235,12.397C-6.561,10.5 -7.987,7.731 -8.154,4.794C-8.322,1.863 -7.226,-1.041 -5.148,-3.174C-3.598,-4.751 -1.556,-5.606 0.625,-5.606C3.08,-5.606 5.446,-4.464 6.961,-2.549C7.898,-2.386 8.805,-2.066 9.636,-1.598C12.174,-0.144 13.714,2.402 13.813,5.244C13.915,8.23 12.312,11.277 9.728,13.004C7.812,14.289 5.534,14.972 3.149,14.972" style="fill:rgb(241,147,0);fill-rule:nonzero;"/>
        </g>
        <g transform="matrix(1,0,0,1,668.637,398.434)">
            <path d="M0,-4.921L5.593,0.068C7.104,-1.626 7.715,-3.96 7.29,-6.159C6.47,-6.491 5.574,-6.672 4.638,-6.672L4.637,-6.672C3.166,-6.672 1.705,-6.202 0.522,-5.347C0.335,-5.214 0.161,-5.072 0,-4.921M0,-4.921C-1.468,-3.543 -1.857,-1.45 -1.412,-0.045C-0.869,1.664 1.34,1.751 1.777,1.751C3.197,1.751 4.595,1.154 5.515,0.154L0,-4.921ZM4.637,8.328L4.636,8.328C0.934,8.327 -2.234,5.808 -3.144,2.246C-4.893,1.417 -6.281,-0.037 -7.022,-1.895C-8.115,-4.635 -7.57,-7.709 -5.601,-9.917C-5.575,-9.946 -5.549,-9.975 -5.523,-10.003C-3.597,-12.096 -1.004,-13.249 1.777,-13.249C7.265,-13.249 11.519,-8.889 12.886,-4.583C14.283,-0.181 12.852,4.31 9.241,6.859C7.936,7.803 6.32,8.328 4.637,8.328" style="fill:rgb(241,147,0);fill-rule:nonzero;"/>
        </g>
        <g transform="matrix(1,0,0,1,535.183,327.303)">
            <path d="M0,8.176C0.626,8.37 1.29,8.474 1.975,8.474C3.623,8.474 5.151,7.881 6.336,6.872L6.336,5.064L6.563,6.67C7.508,5.789 8.206,4.631 8.529,3.296C8.812,2.154 8.099,1.26 7.778,0.931C7.009,0.139 5.973,-0.298 4.861,-0.298C3.808,-0.298 2.782,0.091 1.973,0.796C-0.138,2.633 -0.925,5.589 0,8.176M4.861,14.702C1.928,14.702 -0.93,13.494 -2.978,11.386C-5.901,8.379 -7.076,3.913 -6.042,-0.268C-5.155,-3.936 -1.855,-6.526 1.975,-6.526C5.298,-6.526 8.127,-4.619 9.427,-1.818C11.525,-0.949 13.248,0.78 14.082,3.009C15.305,6.278 14.419,9.85 11.824,12.108C9.905,13.78 7.431,14.702 4.861,14.702" style="fill:rgb(241,147,0);fill-rule:nonzero;"/>
        </g>
        <g transform="matrix(1,0,0,1,543.598,338.52)">
            <path d="M0,-2.434C0.042,-2.06 0.111,-1.696 0.208,-1.343C0.116,-1.695 0.045,-2.059 0,-2.434M11.233,-6.366C9.938,-6.366 7.688,-5.272 6.741,-2.842C5.942,-0.755 6.203,1.451 7.441,3.25C7.596,3.476 7.763,3.69 7.941,3.892C10.506,3.623 12.722,2.011 13.773,-0.311C13.95,-0.854 14.153,-1.741 14.064,-2.77C13.982,-3.755 13.637,-4.447 13.493,-4.697C13.092,-5.392 12.513,-5.94 11.905,-6.198C11.508,-6.366 11.368,-6.366 11.233,-6.366M11.233,8.634C9.454,8.634 7.619,8.274 6.066,7.619C3.649,6.595 1.729,4.93 0.5,2.799C-0.294,1.424 -0.76,-0.026 -0.883,-1.506C-1.047,-3.413 -0.58,-4.851 -0.166,-5.809C0.9,-8.934 3.835,-11.068 7.178,-11.068C9.327,-11.068 11.286,-10.194 12.7,-8.767C15.497,-8.904 18.201,-7.574 19.799,-5.251C21.378,-2.955 21.728,-0.034 20.733,2.563C19.268,6.324 15.634,8.634 11.233,8.634" style="fill:rgb(241,147,0);fill-rule:nonzero;"/>
        </g>
        <g transform="matrix(1,0,0,1,533.957,299.005)">
            <path d="M0,5.97C0.274,6.164 0.558,6.329 0.844,6.464L0.847,6.242L0,5.97ZM0.855,6.47C1.802,6.913 2.651,7.029 3.675,6.732C4.255,6.563 5.297,6.116 5.823,4.997C6.26,4.067 6.202,2.857 5.665,1.765C5.62,1.674 5.572,1.586 5.523,1.501L1.549,6.332L5.405,1.31C4.878,0.5 4.17,-0.004 3.632,-0.296C3.059,-0.603 2.438,-0.792 1.752,-0.876L1.29,2.911L1.504,6.454L0.881,6.254L0.855,6.47ZM0.933,14.074L0.932,14.074C0.614,14.074 0.207,14.048 -0.109,14.008C-1.519,13.836 -2.73,13.313 -3.49,12.905C-5.332,11.906 -6.847,10.31 -7.791,8.394C-9.274,5.382 -9.26,1.82 -7.752,-1.384C-6.308,-4.462 -3.664,-6.757 -0.501,-7.675C0.469,-7.956 1.545,-8.104 2.615,-8.104C7.386,-8.104 11.235,-5.255 12.192,-1.015C12.692,1.12 12.308,3.35 11.099,5.21C10.535,6.077 9.824,6.815 9.001,7.398C8.946,7.812 8.855,8.225 8.729,8.633C7.913,11.251 5.734,13.204 3.112,13.78C2.629,13.911 1.86,14.074 0.933,14.074" style="fill:rgb(241,147,0);fill-rule:nonzero;"/>
        </g>
        <g transform="matrix(1,0,0,1,548.083,310.757)">
            <path d="M0,-6.358C-0.494,-3.625 0.795,-0.832 3.163,0.571L3.89,-0.066L3.956,-7.505C2.528,-7.505 1.162,-7.092 0,-6.358M3.183,0.583C3.345,0.678 3.511,0.767 3.683,0.849C4.088,1.042 4.583,1.147 5.105,1.147C6.87,1.147 8.58,0.012 9.263,-1.614C9.632,-2.499 9.664,-3.363 9.372,-4.279C9.194,-4.838 8.94,-5.284 8.713,-5.607L4.009,-0.171L4.025,-0.185L3.889,-0.033L3.89,-0.062L3.183,0.583ZM3.956,7.495C3.956,7.495 3.957,7.495 3.956,7.495C2.132,7.495 0.302,6.802 -1.067,5.596L-1.225,5.465C-2.129,4.709 -4.011,3.137 -4.92,0.276C-5.706,-2.183 -5.582,-4.986 -4.575,-7.402C-2.9,-11.39 0.806,-13.853 5.105,-13.853C6.809,-13.853 8.55,-13.451 10.141,-12.69C13.677,-11.006 15.552,-7.156 14.688,-3.332C14.218,-1.251 12.985,0.52 11.333,1.704C11.223,2.154 11.071,2.598 10.875,3.028C9.646,5.742 6.93,7.495 3.956,7.495" style="fill:rgb(241,147,0);fill-rule:nonzero;"/>
        </g>
        <g transform="matrix(1,0,0,1,547.414,319.211)">
            <path d="M0,-4.254L2.503,0.15C2.57,0.037 2.633,-0.081 2.692,-0.201C3.712,-2.29 3.109,-4.747 1.257,-6.041C0.642,-6.468 -0.032,-6.726 -0.729,-6.807L-0.002,-4.262L0.002,-4.266L-0.002,-4.261L0.004,-4.258L0,-4.254ZM-0.053,-4.208L-5.145,1.189C-4.208,2.074 -2.946,2.581 -1.683,2.581C-0.449,2.581 0.704,2.113 1.584,1.296L0,-4.254L-0.053,-4.208ZM-1.211,8.165C-3.414,8.165 -5.524,7.51 -7.313,6.269C-11.509,3.336 -12.992,-2.267 -10.788,-6.78C-9.118,-10.205 -5.543,-12.419 -1.683,-12.419C0.878,-12.419 3.305,-11.461 5.149,-9.721C5.323,-9.557 5.489,-9.384 5.647,-9.204C6.823,-7.859 7.464,-6.159 7.502,-4.419C8.594,-2.389 8.79,-0.005 7.97,2.216C6.582,5.975 2.779,7.896 -0.374,8.133C-0.623,8.153 -0.917,8.165 -1.211,8.165" style="fill:rgb(241,147,0);fill-rule:nonzero;"/>
        </g>
        <g transform="matrix(1,0,0,1,561.504,296.006)">
            <path d="M0,-9.572C-0.33,-9.065 -0.591,-8.508 -0.769,-7.912C-1.582,-5.183 -0.481,-2.185 1.908,-0.623C2.561,-0.197 3.3,0.033 4,0.033C5.479,0.033 6.301,-1.058 6.66,-1.709C7.456,-3.153 7.432,-5.009 6.599,-6.327C5.32,-8.35 3.05,-9.605 0.672,-9.605L0.671,-9.605C0.446,-9.605 0.223,-9.594 0,-9.572M0.671,5.395C-2.089,5.395 -4.614,4.007 -6.083,1.684C-8.175,-1.631 -8.321,-5.605 -6.477,-8.951C-4.461,-12.606 -0.349,-14.967 4,-14.967C6.204,-14.967 8.315,-14.35 10.106,-13.184C13.289,-11.103 14.69,-7.266 13.607,-3.629C12.675,-0.501 10.131,1.735 7.053,2.267C6.93,2.427 6.801,2.582 6.665,2.733C5.143,4.425 2.958,5.395 0.671,5.395" style="fill:rgb(241,147,0);fill-rule:nonzero;"/>
        </g>
        <g transform="matrix(1,0,0,1,593.339,304.275)">
            <path d="M0,-7.68C-0.68,-6.152 -0.771,-4.395 -0.217,-2.774C0.398,-0.957 2.138,0.375 3.914,0.375C4.975,0.375 6.001,-0.098 6.802,-0.957C7.591,-1.803 7.972,-3.022 7.826,-4.223C7.689,-5.346 7.113,-6.315 6.245,-6.883C4.369,-8.098 2.008,-8.355 0,-7.68M2.301,6.945C0.797,6.945 -0.668,6.511 -1.936,5.69C-4.808,3.812 -6.667,0.864 -7.065,-2.415C-7.451,-5.598 -6.396,-8.796 -4.168,-11.187C-2.126,-13.374 0.817,-14.625 3.914,-14.625C8.587,-14.625 12.54,-11.869 13.984,-7.603C14.84,-5.099 14.422,-2.291 12.862,-0.109C11.927,1.197 10.651,2.191 9.208,2.781C9.196,2.803 9.185,2.825 9.173,2.847C7.793,5.374 5.16,6.945 2.301,6.945" style="fill:rgb(241,147,0);fill-rule:nonzero;"/>
        </g>
        <g transform="matrix(1,0,0,1,613.265,298.376)">
            <path d="M0,-6.339C-0.084,-6.214 -0.166,-6.085 -0.243,-5.953C-0.163,-6.088 -0.082,-6.216 0,-6.339M6.138,-3.214C5.857,-2.017 6.01,-0.725 6.591,0.347C7.363,1.771 8.303,1.887 8.809,1.949C9.635,2.048 10.653,1.728 11.426,1.1C11.981,0.649 12.429,0.033 12.724,-0.685C13.206,-1.822 13.202,-2.943 13.147,-3.555C12.854,-5.24 11.985,-6.718 10.749,-7.783C8.939,-7.288 7.368,-6.018 6.514,-4.272C6.351,-3.938 6.227,-3.588 6.141,-3.228L6.757,-2.675L6.138,-3.214ZM12.437,6.99C10.554,6.99 8.81,6.383 7.409,5.334C6.949,5.419 6.479,5.463 6.002,5.463L6.001,5.463C1.957,5.463 -1.347,2.415 -1.711,-1.556C-1.841,-2.378 -2.054,-4.254 -1.119,-6.461C-0.496,-7.979 0.582,-9.415 1.967,-10.541C4.353,-12.478 7.457,-13.329 10.643,-12.939C14.421,-12.475 18.01,-10.065 19.78,-6.798C21.34,-3.919 21.416,-0.593 19.986,2.324C18.6,5.157 15.636,6.99 12.437,6.99" style="fill:rgb(241,147,0);fill-rule:nonzero;"/>
        </g>
        <g transform="matrix(1,0,0,1,582.869,332.049)">
            <path d="M0,23.451C-0.801,23.451 -1.591,23.365 -2.348,23.195C-5.87,22.413 -8.721,19.78 -9.956,16.153C-10.725,13.914 -10.888,11.337 -10.419,8.72C-10.248,7.767 -9.973,6.511 -9.355,5.213C-8.759,3.982 -8.044,3.018 -7.149,2.222C-6.129,1.316 -5.091,0.87 -4.428,0.638C-3.484,0.223 -2.455,0 -1.402,0C1.514,0 4.193,1.708 5.424,4.352C5.633,4.801 5.795,5.265 5.91,5.736C6.048,6.236 6.139,6.721 6.197,7.169C7.459,7.887 8.53,8.945 9.272,10.247C10.423,12.265 10.65,14.67 9.896,16.843C8.509,20.804 4.535,23.451 0,23.451" style="fill:rgb(241,147,0);fill-rule:nonzero;"/>
        </g>
        <g transform="matrix(1,0,0,1,595.366,348.252)">
            <path d="M0,-11.245C-0.684,-10.767 -1.702,-9.623 -1.999,-7.85C-2.324,-5.866 -1.778,-3.883 -0.504,-2.383C-0.062,-1.862 0.451,-1.417 1.016,-1.057C2.197,-1.865 3.127,-3.044 3.642,-4.47C4.185,-5.983 3.895,-7.875 2.9,-9.295C2.144,-10.375 1.037,-11.111 0,-11.245M-0.334,3.734C-4.063,3.734 -7.447,2.079 -9.387,-0.692C-11.186,-3.261 -11.579,-6.495 -10.465,-9.568C-9.382,-12.564 -6.501,-14.683 -3.268,-14.852C-3.213,-14.855 -3.155,-14.858 -3.106,-14.86L-3.102,-14.86C-1.793,-14.923 -0.396,-14.648 0.866,-14.007C1.083,-14.118 1.314,-14.227 1.559,-14.331C2.558,-14.758 3.63,-14.979 4.729,-14.979C7.112,-14.979 9.371,-13.927 10.929,-12.093C12.51,-10.232 13.191,-7.791 12.799,-5.398C11.808,0.526 5.787,3.444 0.258,3.719C0.047,3.729 -0.143,3.734 -0.334,3.734" style="fill:rgb(241,147,0);fill-rule:nonzero;"/>
        </g>
        <g transform="matrix(1,0,0,1,571.08,329.921)">
            <path d="M0,-3.005L1.076,2.857C3.308,2.448 4.958,0.71 5.181,-1.465C5.373,-3.34 4.476,-4.926 3.561,-5.607C3.513,-5.643 3.467,-5.674 3.424,-5.701C2.49,-5.475 0.979,-4.697 0,-3.005M3.887,9.227C3.154,9.227 2.516,9.177 2.1,9.139C-0.806,8.88 -3.334,7.965 -5.404,6.419C-8.484,4.127 -10.109,0.606 -9.741,-2.994C-9.284,-7.444 -5.95,-11.104 -1.632,-11.897C0.192,-12.232 2.075,-11.878 3.655,-10.906C4.92,-10.127 5.897,-9.008 6.508,-7.718C7.423,-7.627 8.31,-7.403 9.153,-7.05C11.148,-6.245 12.795,-4.543 13.581,-2.417C14.376,-0.266 14.229,2.127 13.18,4.149C12.426,5.634 9.947,9.227 3.887,9.227" style="fill:rgb(241,147,0);fill-rule:nonzero;"/>
        </g>
        <g transform="matrix(1,0,0,1,575.076,293.144)">
            <path d="M0,5.337C0.251,5.624 0.529,5.891 0.833,6.136C1.257,6.481 1.877,6.684 2.549,6.684C3.461,6.684 4.364,6.305 4.964,5.67C6.201,4.371 5.771,2.315 4.642,1.018L0,5.337ZM-0.778,13.653C-2.752,13.653 -4.703,12.848 -6.109,11.465C-10.419,7.218 -10.333,-0.013 -5.918,-4.653C-3.689,-7.01 -0.677,-8.316 2.549,-8.316C5.312,-8.316 8.052,-7.326 10.263,-5.529C12.965,-3.356 14.025,0.323 12.871,3.602C11.826,6.567 9.219,8.673 6.172,9.125C5.819,9.924 5.331,10.664 4.727,11.297C3.297,12.794 1.291,13.653 -0.778,13.653" style="fill:rgb(241,147,0);fill-rule:nonzero;"/>
        </g>
        <g transform="matrix(1,0,0,1,619.076,333.579)">
            <path d="M0,-5.59L3.325,-5.184C2.64,-6.17 1.499,-6.822 0.232,-6.959C0.198,-6.963 0.162,-6.966 0.125,-6.969L0,-5.59ZM-1.538,-6.101L-1.601,1.397C1.007,1.397 3.396,-0.344 3.838,-2.568C4.016,-3.486 3.854,-4.365 3.392,-5.084L3.376,-5.109L-0.001,-5.571L-0.379,-1.378L-0.331,-5.617L-1.23,-5.74L-0.331,-5.63L-0.315,-6.986C-2.756,-6.969 -4.98,-4.857 -5.389,-2.164C-5.513,-1.32 -5.479,-0.475 -5.297,0.333C-4.236,0.987 -3.014,1.36 -1.75,1.396L-1.538,-6.101ZM-0.285,8.013C-0.669,8.013 -1.046,7.992 -1.41,7.951C-4.56,7.61 -7.413,5.824 -9.209,3.054C-10.835,0.524 -11.439,-2.568 -10.882,-5.453C-9.925,-10.268 -6.111,-13.603 -1.601,-13.603C-1.499,-13.603 -1.333,-13.599 -1.231,-13.595C0.899,-13.535 2.995,-12.531 4.425,-10.844C5.155,-9.983 5.681,-8.98 5.981,-7.911C6.558,-7.518 7.085,-7.049 7.55,-6.511C9.105,-4.709 9.796,-2.316 9.446,0.056C8.746,4.678 4.655,8.013 -0.285,8.013" style="fill:rgb(241,147,0);fill-rule:nonzero;"/>
        </g>
        <g transform="matrix(1,0,0,1,631.956,321.237)">
            <path d="M0,5.537C0,5.537 0.027,5.566 0.091,5.616C0.266,5.754 0.748,6.135 1.774,6.135C3.679,6.135 5.536,4.841 6.366,3.148L6.794,1.714C6.801,1.65 6.807,1.586 6.811,1.522C6.857,0.838 6.802,0.152 6.653,-0.513C4.596,-0.842 2.495,-0.199 1.052,1.211C-0.536,2.782 -0.399,4.978 0,5.537M5.582,14.402C4.825,14.402 4.072,14.297 3.344,14.091C3.28,14.073 3.216,14.054 3.152,14.035C3.115,14.023 3.078,14.012 3.042,14C0.398,13.188 -1.628,11.146 -2.455,8.522C-3.837,8.146 -5.106,7.393 -6.095,6.336C-7.548,4.783 -8.299,2.673 -8.157,0.546C-7.812,-4.896 -3.635,-8.865 1.774,-8.865C4.432,-8.865 7.205,-7.88 9.38,-6.161C11.801,-4.254 14.481,-0.668 14.725,3.665C14.901,6.793 13.779,9.72 11.566,11.909C9.909,13.528 7.796,14.402 5.582,14.402" style="fill:rgb(241,147,0);fill-rule:nonzero;"/>
        </g>
        <g transform="matrix(1,0,0,1,632.208,342.047)">
            <path d="M0,5.915L4.56,5.915C4.781,5.385 4.925,4.744 4.917,4.043C4.865,1.067 2.341,-1.342 -0.797,-1.552C-1.041,-1.133 -1.238,-0.683 -1.38,-0.207C-1.602,0.535 -1.681,1.299 -1.628,2.047L-1.505,2.926C-1.274,4.027 -0.757,5.063 0,5.915M0.297,6.227C0.59,6.515 0.913,6.777 1.264,7.008C1.724,7.31 2.264,7.482 2.747,7.482C3.166,7.482 3.485,7.361 3.782,7.089C3.802,7.071 3.822,7.052 3.842,7.032L0.297,6.227ZM-1.243,13.433C-6.108,13.433 -9.991,9.402 -10.082,4.258C-10.115,1.18 -8.792,-1.723 -6.357,-3.965C-3.88,-6.229 -0.569,-7.518 2.747,-7.518C5.184,-7.518 7.52,-6.83 9.502,-5.527C12.686,-3.435 14.086,0.431 12.99,4.093C11.917,7.68 8.757,10.103 5.104,10.158C4.201,11.475 2.879,12.503 1.292,13.035C0.855,13.181 0.407,13.286 -0.049,13.35C-0.444,13.405 -0.846,13.433 -1.243,13.433" style="fill:rgb(241,147,0);fill-rule:nonzero;"/>
        </g>
        <g transform="matrix(1,0,0,1,610.633,305.549)">
            <path d="M0,8.191C0.251,8.319 0.666,8.475 1.196,8.507C1.279,8.512 1.361,8.515 1.445,8.515C1.976,8.515 3.219,8.515 4.077,6.703C4.873,5.024 4.641,2.891 3.515,1.516C3.287,1.234 3.04,0.972 2.773,0.732C1.771,1.361 0.93,2.25 0.353,3.337C-0.698,5.275 -0.412,7.208 0,8.191M6.45,14.676C5.897,14.676 5.342,14.619 4.8,14.506C3.44,14.232 2.337,13.69 1.45,13.049C0.394,13.585 -0.8,13.887 -2.06,13.887L-2.061,13.887C-4.422,13.887 -6.632,12.827 -8.122,10.981C-10.658,7.887 -11.179,3.872 -9.48,0.285C-7.593,-3.701 -3.101,-6.485 1.445,-6.485C1.667,-6.485 1.888,-6.478 2.106,-6.465C5.491,-6.259 8.582,-4.657 11.043,-1.83C15.713,3.543 14.994,7.799 13.571,10.427C12.19,13.027 9.451,14.676 6.45,14.676" style="fill:rgb(241,147,0);fill-rule:nonzero;"/>
        </g>
        <g transform="matrix(1,0,0,1,596.807,325.052)">
            <path d="M0,-3.58C-0.188,-2.92 -0.198,-2.205 -0.027,-1.442C0.091,-0.918 0.292,-0.413 0.562,0.054L0.562,-3.654L0,-3.58ZM1.303,1.061C1.833,1.639 2.483,2.111 3.209,2.425C3.422,2.516 3.635,2.595 3.848,2.664C4.78,2.091 5.534,1.268 5.984,0.29C6.673,-1.205 6.549,-2.905 5.644,-4.373C4.762,-5.798 3.501,-6.293 3.027,-6.312L2.977,-6.312C2.315,-6.312 1.49,-5.856 0.874,-5.151C0.812,-5.08 0.754,-5.01 0.698,-4.938L5.112,-1.559L0.638,-4.858C0.345,-4.463 0.133,-4.041 0.004,-3.594L0.562,-3.658L0.562,-3.946L0.604,-3.663L0.813,-3.687L0.604,-3.66L1.303,1.061ZM2.977,8.688C2.789,8.688 2.602,8.683 2.417,8.676C-1.706,8.512 -5.186,6.629 -7.116,3.512C-8.849,0.702 -9.046,-2.933 -7.639,-5.987C-6.311,-8.87 -3.689,-10.876 -0.626,-11.354C0.409,-11.517 1.505,-11.455 2.484,-11.202C4.467,-12.161 6.981,-12.268 9.122,-11.36C11.953,-10.134 13.934,-7.727 14.607,-4.735C15.344,-1.462 14.41,2.161 12.168,4.72C9.974,7.237 6.62,8.688 2.977,8.688" style="fill:rgb(241,147,0);fill-rule:nonzero;"/>
        </g>
        <g transform="matrix(1,0,0,1,580.417,307.389)">
            <path d="M0,8.491C0.089,8.497 0.179,8.5 0.268,8.5C1.111,8.5 1.343,8.361 1.73,7.621C2.453,6.244 2.313,4.351 1.39,3.017C0.245,1.333 -1.629,0.233 -3.693,0.027C-4.521,1.579 -4.709,3.435 -4.185,5.155C-3.662,6.882 -1.95,8.275 -0.169,8.475L0.071,2.775L0,8.491ZM-4.402,14.991L-4.403,14.991C-7.036,14.991 -9.495,13.686 -10.98,11.501C-13.197,8.297 -13.425,4.225 -11.555,0.658C-9.346,-3.556 -4.484,-6.5 0.268,-6.5C4.941,-6.5 8.827,-3.637 10.167,0.794C10.923,3.271 10.442,6.023 8.876,8.139C7.3,10.267 4.799,11.538 2.186,11.538L2.158,11.538C0.711,13.622 -1.696,14.991 -4.402,14.991" style="fill:rgb(241,147,0);fill-rule:nonzero;"/>
        </g>
        <g transform="matrix(1,0,0,1,557.918,325.239)">
            <path d="M0,-6.108C-0.11,-5.178 -0.034,-4.214 0.255,-3.272C1.06,-0.659 3.358,0.729 4.708,0.729C4.763,0.729 4.815,0.726 4.864,0.723C5.997,0.647 7.105,0.021 7.822,-0.951C8.465,-1.825 9.231,-3.826 7.582,-5.214C6.34,-6.26 4.75,-6.837 3.105,-6.837L3.104,-6.837C2.014,-6.837 0.953,-6.579 0,-6.108M3.104,8.163L3.103,8.163C1.218,8.163 -0.622,7.487 -2.079,6.261C-6.854,2.242 -7.831,-4.985 -4.254,-9.848C-2.352,-12.425 0.599,-14.023 3.849,-14.242C4.116,-14.26 4.406,-14.271 4.708,-14.271C9.479,-14.271 13.359,-11.685 14.592,-7.682C15.711,-4.042 14.178,-0.25 10.993,1.621C10.812,2.55 10.465,3.456 9.952,4.299C8.502,6.683 5.878,8.163 3.104,8.163" style="fill:rgb(241,147,0);fill-rule:nonzero;"/>
        </g>
        <g transform="matrix(1,0,0,1,556.486,386.906)">
            <path d="M0,35.501C-4.764,35.501 -8.599,31.794 -8.731,27.061C-8.769,26.473 -8.839,25.315 -8.551,23.953C-8.336,22.986 -8.069,22.255 -7.875,21.721C-7.548,20.85 -7.218,20.074 -6.888,19.302L-6.8,19.099C-6.152,17.557 -5.632,16.257 -5.18,15.049C-4.833,14.12 -4.402,12.691 -4.106,11.492C-4.034,11.196 -3.975,10.875 -3.913,10.556C-3.609,8.987 -3.15,6.616 -1.621,4.293C0.151,1.604 3.108,0 6.291,0C10.216,0 13.61,2.417 14.938,6.158C16.358,10.153 15.423,13.674 14.804,16.004L14.765,16.15C14.275,17.98 13.652,19.876 12.856,21.963C12.129,23.861 11.309,25.685 10.415,27.391C9.857,28.45 9.347,29.319 8.803,30.139C8.391,30.766 7.851,31.54 7.115,32.306C6.105,33.351 5.088,33.927 4.599,34.203C3.214,35.052 1.625,35.501 0,35.501" style="fill:rgb(241,147,0);fill-rule:nonzero;"/>
        </g>
        <g transform="matrix(1,0,0,1,560.562,389.68)">
            <path d="M0,-4.033C0,-3.913 0.004,-3.783 0.014,-3.645C0.216,-0.714 2.822,1.703 5.821,1.703C7.638,1.703 9.371,0.798 10.406,-0.674C10.159,-1.877 9.569,-3.003 8.703,-3.886C7.533,-5.079 5.975,-5.736 4.317,-5.736L4.316,-5.736C2.729,-5.736 1.173,-5.112 0,-4.033M4.316,9.264C1.948,9.264 -0.356,8.3 -2.005,6.618C-3.633,4.959 -4.504,2.77 -4.46,0.454C-4.438,-0.721 -4.36,-2.149 -3.939,-3.769C-3.854,-4.094 -3.771,-4.381 -3.689,-4.668C-3.632,-4.866 -3.574,-5.064 -3.522,-5.263L-3.498,-5.377C-3.337,-6.108 -3.039,-7.468 -2.122,-8.916C-0.384,-11.659 2.585,-13.297 5.821,-13.297C10.703,-13.297 14.639,-9.608 14.976,-4.717C15.171,-2.088 14.237,0.169 13.678,1.518L13.523,1.898C12.823,3.7 11.84,5.055 11.064,6.031C9.395,8.1 6.947,9.264 4.316,9.264" style="fill:rgb(241,147,0);fill-rule:nonzero;"/>
        </g>
        <g transform="matrix(1,0,0,1,592.108,410.254)">
            <path d="M0,32.857C-2.472,32.857 -4.823,31.773 -6.451,29.884C-8.092,27.982 -8.821,25.468 -8.452,22.988C-8.339,22.227 -8.186,21.189 -7.72,19.955C-7.404,19.128 -7.065,18.45 -6.817,17.955C-6.358,17.042 -5.842,16.126 -5.231,15.14C-4.318,13.679 -3.1,11.8 -1.618,9.972C-0.25,8.292 1.173,6.775 2.625,5.453C3.507,4.639 4.432,3.852 5.342,3.142L5.446,3.062C6.576,2.182 8.467,0.709 11.195,0.183C11.813,0.063 12.457,0 13.093,0C16.633,0 19.833,1.918 21.445,5.004C23.066,8.109 22.795,11.874 20.737,14.83C19.54,16.551 18.036,17.602 17.138,18.23C17.007,18.321 16.877,18.41 16.754,18.503C16.34,18.817 15.908,19.169 15.583,19.46C14.716,20.246 13.835,21.172 12.923,22.266C12.035,23.339 11.106,24.524 10.1,25.868C9.539,26.618 8.966,27.365 8.375,28.099C7.292,29.428 6.136,30.475 4.713,31.422C3.337,32.351 1.693,32.857 0,32.857" style="fill:rgb(241,147,0);fill-rule:nonzero;"/>
        </g>
        <g transform="matrix(1,0,0,1,550.448,360.808)">
            <path d="M0,62.541C1.415,63.184 3.182,63.842 4.241,64.236C5.864,64.841 7.266,65.362 8.459,65.971C12.596,68.079 17.196,69.8 22.066,71.622C26.559,73.302 31.153,75.02 35.543,77.126C41.578,69.079 51.244,58.475 61.844,52.769C64.041,51.586 66.323,50.575 68.664,49.694C68.485,49.539 68.316,49.377 68.156,49.212C65.947,50.154 64.113,50.656 62.292,50.656L62.291,50.656C59,50.657 56.087,48.895 54.689,46.058C51.597,39.806 57.211,34.78 59.611,32.805C58.891,31.689 58.439,30.502 58.255,29.246C51.851,36.261 49.252,36.264 47.372,36.265L47.366,36.265C43.95,36.265 41.031,34.161 39.929,30.968C37.795,33.006 35.847,33.854 33.396,33.855L33.391,33.855C30.532,33.855 27.873,32.303 26.449,29.803C24.13,25.736 25.319,21.557 31.042,6.999C28.976,8.172 26.413,8.351 24.392,7.723C24.125,9.589 23.583,10.427 23.095,11.182C21.612,13.475 19.119,14.848 16.427,14.85L16.42,14.85C15.382,14.85 14.444,14.674 13.591,14.355C13.8,17.42 13.77,20.437 13.483,23.297C12.299,35.068 7.929,46.937 4.471,54.822C3.862,56.214 2.97,57.645 1.938,59.301C1.443,60.096 0.641,61.383 0,62.541M37.856,94.417C36.499,94.417 35.125,94.049 33.89,93.277C29.029,90.241 23.094,88.021 16.811,85.671C11.763,83.782 6.542,81.83 1.651,79.336C1.226,79.12 -0.005,78.661 -0.994,78.293C-6.46,76.257 -13.946,73.469 -15.62,66.818C-16.998,61.328 -13.701,56.037 -10.792,51.369C-10.23,50.467 -9.46,49.231 -9.266,48.799C-6.242,41.902 -2.43,31.621 -1.442,21.798C-0.776,15.162 -2.09,6.994 -4.872,0.483C-5.587,-1.191 -6.396,-2.9 -7.252,-4.709C-9.622,-9.719 -12.309,-15.397 -13.475,-21.654C-14.079,-24.896 -12.496,-28.152 -9.572,-29.678C-8.075,-30.459 -6.407,-30.693 -4.824,-30.419C-3.097,-31.172 -1.104,-31.876 1.043,-31.876C2.427,-31.876 3.736,-31.589 4.933,-31.025C6.604,-30.234 8.025,-29.022 9.37,-27.093C10.282,-27.452 11.274,-27.635 12.277,-27.611C13.138,-27.707 15.862,-28.481 19.484,-29.972C21.37,-30.748 23.489,-30.723 25.355,-29.903C26.751,-29.29 27.916,-28.271 28.709,-26.996C30.689,-28.96 33.491,-30.028 36.714,-30.028C42.299,-30.028 51.129,-26.504 53.183,-19.889C53.287,-19.552 53.376,-19.207 53.451,-18.855C55.247,-20.198 57.595,-20.694 59.849,-20.103C61.937,-19.555 64.859,-18.253 66.548,-17.306C67.575,-16.73 68.423,-15.941 69.058,-15.019C70.747,-16.12 72.655,-16.644 74.455,-16.644C79.296,-16.644 83.832,-13.196 86.586,-7.422C86.804,-6.965 87.301,-6.329 87.827,-5.656C89.121,-4.001 91.907,-0.437 91.471,4.194C91.612,4.269 91.752,4.349 91.89,4.433C94.519,6.037 97.116,7.888 99.204,9.645C101.016,11.169 102.001,13.459 101.862,15.823C101.723,18.187 100.477,20.346 98.499,21.648C98.44,21.687 98.381,21.726 98.323,21.765C100.638,22.298 102.647,23.921 103.594,26.261C104.457,28.392 104.643,30.807 104.515,32.729C104.999,32.942 105.462,33.208 105.899,33.525C107.889,34.972 109.043,37.303 108.988,39.763C108.962,40.881 109.13,42.297 109.308,43.795C109.496,45.386 109.71,47.188 109.743,49.071C109.804,52.545 107.471,55.607 104.104,56.469C100.435,57.408 96.538,58.193 92.77,58.953C84.307,60.658 75.556,62.421 68.955,65.977C58.999,71.335 48.695,83.836 44.197,90.932C42.77,93.183 40.34,94.417 37.856,94.417" style="fill:rgb(241,147,0);fill-rule:nonzero;"/>
        </g>
        <g transform="matrix(1,0,0,1,558.034,345.785)">
            <path d="M0,71.614C3.52,72.614 6.433,73.459 8.745,74.171C12.107,66.961 15.767,59.784 19.456,52.731C19.098,52.582 18.75,52.41 18.412,52.217C13.449,49.36 13.056,44.052 15.004,33.506C14.535,33.955 13.983,34.378 13.339,34.726C13.231,34.785 13.122,34.841 13.012,34.893C11.849,35.45 10.606,35.732 9.318,35.733L9.314,35.733C9.275,35.733 9.235,35.733 9.196,35.732C9.173,44.968 6.25,53.345 3.408,61.493C2.461,64.206 1.482,67.011 0.638,69.785C0.429,70.471 0.206,71.074 0,71.614M11.33,90.453C10.173,90.453 9.057,90.211 8.013,89.735C6.339,88.996 -2.521,86.489 -5.432,85.665C-6.332,85.41 -7.081,85.198 -7.599,85.049C-9.355,84.54 -10.662,84.44 -10.675,84.439C-14.102,84.246 -16.897,81.756 -17.553,78.387C-18.261,74.747 -16.523,72.135 -15.688,70.881C-15.357,70.383 -15.257,70.22 -15.231,70.098C-14.927,68.652 -14.475,67.47 -14.111,66.521C-13.972,66.157 -13.827,65.794 -13.711,65.413C-12.78,62.355 -11.75,59.405 -10.755,56.551C-7.659,47.676 -4.984,40.011 -6.039,32.007C-7.026,24.51 -8.745,18.373 -11.296,13.247C-12.972,9.882 -18.003,-2.042 -19.049,-4.59C-20.54,-8.218 -19.313,-10.924 -18.449,-12.213C-17.035,-14.323 -14.67,-15.583 -12.124,-15.583C-6.974,-15.583 -2.788,-9.655 -1.024,-6.705C-1.545,-10.71 -1.167,-13.306 0.512,-15.582C1.906,-17.472 4.04,-18.65 6.367,-18.816C6.597,-18.831 6.809,-18.839 7.022,-18.839C14.249,-18.839 17.678,-11.954 19.719,-2.957C19.722,-2.963 19.725,-2.97 19.727,-2.977C20.912,-6.119 23.839,-8.147 27.187,-8.147C31.783,-8.147 36.252,-3.954 36.563,0.651C36.808,4.361 35.422,10.661 32.952,21.479C32.654,22.787 32.318,24.257 31.971,25.804C33.396,24.817 35.067,24.13 37.031,24.13C39.735,24.13 42.222,25.484 43.682,27.752C46.102,31.509 44.695,35.656 43.427,38.449C41.852,41.917 40,45.939 37.956,49.802L37.499,50.667C32.327,60.446 26.978,70.559 22.317,80.559C21.031,83.325 19.167,85.645 17.805,87.338C16.231,89.291 13.813,90.453 11.33,90.453" style="fill:rgb(241,147,0);fill-rule:nonzero;"/>
        </g>
        <g transform="matrix(1,0,0,1,667.4,335.961)">
            <path d="M0,46.855C-1.77,43.353 -3.281,39.722 -4.842,36.126C-6.406,32.519 -8.015,28.921 -9.913,25.47C-11.742,22.144 -13.913,19.024 -16.179,15.98C-20.41,10.304 -25.126,4.979 -30.342,0.185C-35.687,-4.73 -41.578,-9.003 -47.548,-13.118C-53.931,-17.514 -60.483,-21.68 -67.241,-25.475C-73.528,-29 -79.939,-32.428 -86.946,-34.283C-90.353,-35.183 -93.824,-35.833 -97.298,-36.407C-99.029,-36.698 -100.757,-37.008 -102.505,-37.141C-104.329,-37.277 -106.155,-37.239 -107.979,-37.131C-111.456,-36.941 -114.969,-36.518 -118.446,-36.979C-119.399,-37.107 -119.099,-39.544 -118.866,-38.874C-126.1,-36.013 -130.305,-29.44 -132.781,-24.221C-135.96,-17.525 -138.877,-8.176 -135.846,1.047C-134.375,5.531 -129.107,11.609 -129.107,11.609C-129.369,15.33 -127.714,19.074 -126.015,22.283C-124.299,25.523 -122.192,28.582 -119.773,31.334C-116.358,35.224 -111.455,36.9 -107.035,39.337C-105.94,39.937 -104.852,40.585 -103.956,41.46C-103.073,42.328 -102.583,43.501 -102.222,44.664C-101.266,47.732 -101.08,51.019 -99.756,53.982C-98.4,57.009 -95.81,59.244 -93.025,60.953C-90.212,62.677 -86.962,63.826 -83.648,63.935C-82.368,63.98 -81.012,63.875 -79.792,63.453C-78.749,63.091 -77.758,62.552 -76.797,62.013C-74.6,60.785 -72.497,59.371 -70.23,58.269C-69.386,57.859 -68.25,57.388 -67.473,57.265C-67.087,57.205 -66.711,57.193 -66.514,57.236C-66.435,57.248 -66.344,57.289 -66.263,57.294C-66.245,57.316 -66.208,57.357 -66.167,57.429C-65.157,59.207 -64.787,61.414 -63.744,63.236C-62.876,64.753 -61.694,66.122 -60.524,67.407C-59.389,68.661 -58.165,69.837 -56.832,70.874C-54.243,72.888 -51.332,74.464 -48.184,75.401C-45.094,76.317 -41.748,76.567 -38.58,75.923C-37.175,75.636 -35.807,75.038 -34.36,75.021C-32.902,75.007 -35.247,78.624 -34.061,79.394C-32.815,80.198 -30.268,82.948 -27.299,84.069C-25.72,84.667 -24.175,85.333 -22.533,85.669C-19.063,86.382 -15.499,86.399 -12.03,85.69C-6.262,84.503 1.737,75.769 4.517,70.487C7.023,65.737 5.67,59.97 1.207,55.628C-1.018,53.462 1.387,49.601 0,46.855" style="fill:rgb(71,122,11);fill-rule:nonzero;"/>
        </g>
        <g transform="matrix(1,0,0,1,544.346,445.803)">
            <path d="M0,-108.024C1.362,-100.715 5.314,-94.04 8.127,-87.459C11.353,-79.909 12.917,-70.374 12.123,-62.446C11.141,-52.688 7.648,-42.179 3.705,-33.185C2.396,-30.196 -3.104,-23.435 -2.244,-20.007C-1.283,-16.187 8.036,-13.931 11.159,-12.341C21.583,-7.026 34.268,-4.136 43.965,1.921C48.122,-4.638 59.389,-19.103 71.5,-25.622C82.271,-31.423 96.583,-32.78 108.346,-35.792C108.289,-39.034 107.522,-42.327 107.592,-45.403C99.389,-42.532 88.247,-38.884 80.787,-40.503C74.056,-41.964 95.999,-48.169 103.038,-51.979C103.259,-53.094 103.18,-54.844 102.744,-55.92C97.123,-54.346 91.016,-51.629 85.17,-49.481C79.293,-47.323 68.61,-40.038 67.518,-42.253C66.278,-44.761 78.876,-52.151 83.718,-55.797C89.481,-60.139 94.552,-65.711 100.477,-69.612C98.555,-71.229 96.229,-72.852 94.085,-74.161C87.556,-67.753 73.552,-54.129 72.097,-56.137C69.521,-59.694 83.129,-71.342 88.828,-78.776C92.25,-83.245 87.849,-85.145 85.919,-89.188C83.117,-95.062 78.629,-95.762 77.708,-91.003C75.978,-82.087 71.053,-76.465 66.291,-70.057C62.193,-64.54 53.687,-54.35 53.103,-56.532C51.687,-61.809 57.623,-70.745 60.364,-75.014C64.506,-81.465 66.926,-88.489 68.983,-95.758C67.753,-96.448 65.408,-97.487 64.046,-97.844C59.38,-91.01 57.254,-82.612 52.392,-75.628C48.274,-69.723 40.369,-56.62 39.067,-58.905C37.985,-60.803 44.553,-75.963 46.192,-80.629C47.769,-85.124 53.544,-98.088 52.122,-102.661C51.079,-106.019 42.159,-109.211 39.951,-106.51C37.382,-103.362 36.595,-87.245 33.661,-84.676C30.344,-81.77 30.362,-102.81 28.441,-108.032C26.09,-107.064 20.678,-104.989 18.215,-105.108C21.607,-97.586 23.952,-79.512 22.901,-77.889C21.381,-75.538 15.912,-90.849 14.241,-95.96C13.375,-98.61 10.43,-108.009 7.835,-109.237C6.334,-109.945 2.748,-107.643 0.925,-107.085L0,-108.024Z" style="fill:rgb(103,173,30);fill-rule:nonzero;"/>
        </g>
        <g transform="matrix(1,0,0,1,628.05,418.93)">
            <path d="M0,-28.964C5.765,-33.306 10.833,-38.882 16.76,-42.778C14.837,-44.398 12.513,-46.019 10.369,-47.327C3.839,-40.919 -10.165,-27.296 -11.62,-29.306C-14.194,-32.862 -0.587,-44.509 5.111,-51.944C6.974,-54.374 6.519,-56.044 5.406,-57.718C5.281,-57.618 5.153,-57.521 5.025,-57.427C4.856,-57.296 4.687,-57.171 4.513,-57.05C4.437,-56.993 4.357,-56.907 4.269,-56.872C4.084,-56.796 4.326,-56.96 4.369,-56.993C3.896,-56.73 3.429,-56.153 3.025,-55.79C1.163,-54.105 -0.646,-52.359 -2.405,-50.562C-9.538,-43.304 -15.904,-35.345 -22.12,-27.302C-25.19,-23.323 -28.226,-19.321 -31.311,-15.355C-32.61,-13.677 -33.945,-12.029 -35.211,-10.326C-35.78,-9.558 -36.342,-8.785 -36.89,-8.002C-37.15,-7.632 -37.407,-7.257 -37.664,-6.884C-37.673,-6.871 -37.865,-6.586 -37.932,-6.496C-38.066,-6.289 -38.203,-6.089 -38.337,-5.884C-43.128,1.328 -47.295,8.983 -50.889,16.858C-51.716,18.67 -52.508,20.5 -53.261,22.348C-48.49,24.196 -43.854,26.192 -39.752,28.754C-35.597,22.192 -24.328,7.731 -12.217,1.211C-1.445,-4.589 12.866,-5.947 24.629,-8.961C24.572,-12.199 23.806,-15.494 23.875,-18.569C15.672,-15.701 4.53,-12.05 -2.93,-13.67C-9.661,-15.131 12.281,-21.333 19.321,-25.146C19.542,-26.261 19.463,-28.009 19.027,-29.087C13.406,-27.513 7.297,-24.802 1.453,-22.648C-4.423,-20.491 -15.107,-13.205 -16.198,-15.42C-17.438,-17.929 -4.839,-25.318 0,-28.964" style="fill:rgb(98,160,26);fill-rule:nonzero;"/>
        </g>
        <g opacity="0.26">
            <g transform="matrix(1,0,0,1,587.115,415.992)">
                <path d="M0,-69.05C-0.062,-69.959 -1.966,-71.52 -2.333,-70.544C-3.919,-66.326 -5.082,-61.028 -6.659,-56.807C-8.153,-52.803 -9.144,-48.102 -11.724,-44.627C-12.186,-45.326 -12.48,-46.16 -12.737,-46.926C-12.737,-46.926 -13.908,-53.899 -14.72,-59.635C-15.133,-62.563 -17.319,-81.877 -22.183,-81.541C-24.027,-81.41 -21.282,-71.178 -21.092,-70.058C-19.903,-62.998 -17.659,-51.424 -18.519,-44.186C-18.575,-43.709 -18.655,-43.217 -18.837,-42.776C-18.956,-42.483 -19.235,-42.117 -19.308,-42.078C-22.306,-40.643 -27.702,-54.514 -28.583,-56.219C-31.083,-61.071 -33.064,-66.525 -35.992,-72.09C-37.84,-75.604 -42.139,-79.951 -41.19,-77.643C-39.919,-74.543 -35.141,-63.271 -33.662,-60.301C-30.189,-53.322 -28.551,-45.772 -27.684,-39.18C-26.007,-26.455 -31.79,-15.178 -35.618,-2.606C-36.038,-1.229 -36.672,0.007 -36.97,1.421C-37.589,4.394 -39.524,5.45 -39.271,6.747C-39.271,6.747 -37.287,6.859 -34.6,7.636C-31.562,8.513 -20.505,11.556 -17.954,12.704C-17.684,12.827 -17.304,12.659 -17.121,12.433C-15.813,10.806 -14.446,9.085 -13.562,7.183C-8.683,-3.284 -3.149,-13.71 2.246,-23.912C4.132,-27.477 5.835,-31.156 7.518,-34.86C9.307,-38.799 8.374,-40.166 5.11,-36.186C2.488,-32.983 -3.566,-22.563 -6.937,-24.496C-10.561,-26.582 0.446,-62.276 0,-69.05" style="fill:rgb(196,255,105);fill-rule:nonzero;"/>
            </g>
        </g>
        <g transform="matrix(1,0,0,1,565.976,360.085)">
            <path d="M0,-19.398C-7.125,-11.423 -23.375,-14.617 -30.063,-21.344C-48.874,-40.267 -42.516,-67.236 -11.206,-77.419C-0.505,-80.902 16.475,-77.974 22.707,-65.548C37.214,-80.901 66.256,-71.431 69.951,-57.623C75.229,-60.638 81.588,-56.056 80.705,-50.24C93.251,-52.955 101.535,-36.639 98.463,-20.957C110.348,-20.918 115.807,-3.468 117.172,4.764C118.918,15.26 112.447,23.735 105.964,30.786C121.065,36.198 106.906,56.158 99.237,58.01C84.766,61.504 70.47,45.574 77.794,34.291C72.689,30.604 72.038,26.215 74.701,20.903C67.288,21.571 61.632,25.52 55.645,18.079C50.83,12.098 52.179,6.03 52.102,-0.98C52.133,2.012 40.992,2.088 35.97,0.461C32.992,-0.505 26.834,-7.966 26.834,-7.966C26.834,-7.966 20.627,-2.679 10.243,-5.322C-0.021,-7.934 0,-19.398 0,-19.398" style="fill:rgb(88,145,20);fill-rule:nonzero;"/>
        </g>
        <g transform="matrix(1,0,0,1,589.35,426.321)">
            <path d="M0,17.74C-1.651,13.506 -6.339,10.117 -10.079,7.826C-14.428,5.154 -19.649,2.054 -24.513,0.644C-29.448,-0.791 -41.207,-4.324 -44.75,-3.67C-45.694,-3.496 -47.173,-3.201 -47.477,-1.268C-48.109,2.783 -44.254,4.551 -41.484,6.5C-38.172,8.836 -33.631,10.623 -29.801,11.939C-23.089,14.244 -17.452,16.82 -9.823,19.371C-8.385,19.851 -6.457,20.635 -5.04,21.176C-3.954,21.597 -2.49,22.064 -1.48,21.213C-1.282,21.045 -1.192,20.834 -1.187,20.633C-0.952,20.566 -0.733,20.463 -0.528,20.314C0.285,19.711 0.342,18.621 0,17.74" style="fill:rgb(71,122,11);fill-rule:nonzero;"/>
        </g>
        <g transform="matrix(1,0,0,1,557.738,296.329)">
            <path d="M0,30.92C0.32,36.32 -14.548,38.326 -11.062,29.175C-20.375,29.58 -26.907,19.826 -17.143,14.291C-21.129,7.033 -10.673,-1.234 -3.949,1.594C-3.18,-4.309 2.634,-4.65 7.126,-3.012C7.814,-2.764 8.675,-1.699 9.325,-1.52C10.276,-1.256 11.689,-1.924 12.379,-1.717C14.533,-1.067 15.75,-0.582 17.542,1.262C24.445,-7.406 36.488,15.035 23.177,19.394C23.25,23.242 25.084,26.057 21.973,29.483C19.053,32.69 15.888,31.863 12.425,29.996C10.758,37.495 0.267,37.557 -4.314,32.922L0,30.92Z" style="fill:rgb(103,173,30);fill-rule:nonzero;"/>
        </g>
        <g transform="matrix(1,0,0,1,557.123,299.356)">
            <path d="M0,27.921C-0.104,30.531 -3.875,31.527 -5.942,31.569C-7.076,31.591 -8.423,31.39 -9.279,30.574C-10.374,29.528 -10.057,27.86 -9.589,26.583C-9.344,25.918 -9.709,25.167 -10.493,25.185C-14.008,25.286 -17.968,23.85 -19.713,20.591C-21.626,17.018 -19.026,13.856 -15.985,12.087C-15.494,11.798 -15.471,11.165 -15.707,10.716C-19.104,4.257 -9.749,-2.937 -3.779,-0.55C-3.23,-0.331 -2.467,-0.544 -2.367,-1.222C-2.046,-3.332 -1.004,-4.995 1.115,-5.618C2.974,-6.168 5.114,-5.889 6.926,-5.276C7.851,-4.966 8.41,-4.177 9.27,-3.753C10.13,-3.329 11.04,-3.534 11.943,-3.675C13.989,-3.995 16.102,-2.318 17.437,-0.949C17.837,-0.536 18.619,-0.614 18.974,-1.043C19.89,-2.138 21.038,-2.9 22.485,-2.54C23.937,-2.177 25.123,-0.999 25.988,0.169C28.159,3.093 29.469,7.376 28.208,10.935C27.426,13.142 25.616,14.571 23.445,15.31C22.974,15.468 22.661,15.926 22.677,16.421C22.765,19.112 24.07,22.206 22.536,24.689C21.623,26.169 20.101,27.435 18.304,27.497C16.613,27.555 14.998,26.739 13.546,25.971C12.892,25.62 12.107,26.044 11.94,26.734C10.331,33.372 1.137,33.062 -2.951,29.054C-3.987,28.037 -5.484,29.726 -4.447,30.741C0.916,35.988 12.135,35.466 14.134,27.21C13.597,27.46 13.063,27.716 12.53,27.97C14.332,28.923 16.323,29.811 18.412,29.735C20.524,29.657 22.379,28.476 23.698,26.878C24.871,25.462 25.497,23.806 25.508,21.969C25.521,20.071 24.969,18.215 24.909,16.319C24.653,16.689 24.397,17.057 24.14,17.433C29.209,15.71 31.561,10.995 30.708,5.831C30.038,1.767 27.542,-3.286 23.295,-4.591C21.003,-5.294 18.798,-4.303 17.346,-2.483C17.856,-2.518 18.37,-2.544 18.88,-2.577C17.34,-4.097 14.876,-5.844 12.587,-5.8C11.994,-5.788 11.431,-5.561 10.844,-5.514C10.043,-5.446 9.732,-5.856 9.129,-6.319C8.238,-7.005 7.185,-7.308 6.098,-7.55C3.96,-8.017 1.579,-8.067 -0.449,-7.145C-2.702,-6.113 -3.933,-4.038 -4.299,-1.64C-3.826,-1.862 -3.356,-2.093 -2.886,-2.315C-10.752,-5.454 -21.706,3.525 -17.351,11.808C-17.258,11.353 -17.165,10.897 -17.073,10.437C-20.937,12.691 -23.748,16.84 -21.562,21.276C-19.546,25.37 -14.755,27.263 -10.404,27.112C-10.703,26.648 -11.006,26.181 -11.309,25.716C-12.003,27.636 -12.344,29.866 -10.936,31.567C-9.804,32.934 -7.972,33.39 -6.262,33.389C-3.25,33.394 1.612,31.637 1.224,27.866C1.145,27.074 0.035,27.142 0,27.921" style="fill:rgb(103,173,30);fill-rule:nonzero;"/>
        </g>
        <g transform="matrix(1,0,0,1,588.827,354.873)">
            <path d="M0,-50.172C-2.157,-62.145 20.084,-67.234 24.457,-55.707C30.026,-58.776 34.009,-53.485 34.548,-48.225C42.7,-49.401 46.793,-46.035 48.225,-38.119C52.951,-40.258 57.279,-34.848 59.288,-31.188C61.715,-26.772 60.811,-23.637 60.659,-18.887C66.21,-18.434 71.627,-12.92 72.999,-7.736C73.569,-5.574 73.928,-1.573 73.238,0.443C72.837,1.617 70.579,2.991 70.46,4.034C70.216,6.18 71.97,5.487 72.407,7.426C73.795,13.586 66.695,17.062 61.391,16.683C58.745,16.496 56.064,15.473 54.032,13.707C51.889,11.849 51.378,9.135 49.236,7.625C47.116,6.129 43.299,6.113 40.878,4.336C38.561,2.635 36.281,0.263 34.471,-1.946C32.527,-4.317 31.224,-6.87 29.789,-9.5C27.909,-12.947 28.351,-13.323 24.845,-13.506C18.897,-13.82 12.057,-10.992 7.973,-17.119C6.285,-19.654 7.218,-22.158 4.089,-22.34C1.069,-22.513 0.755,-19.164 -2.914,-21.438C-5.193,-22.854 -7.691,-27.301 -7.76,-29.971C-7.799,-31.545 -6.08,-33.474 -6.221,-34.852C-6.417,-36.793 -7.834,-36.556 -8.449,-38.236C-10.48,-43.793 -4.84,-48.939 0.081,-51.156L0,-50.172Z" style="fill:rgb(103,173,30);fill-rule:nonzero;"/>
        </g>
        <g transform="matrix(1,0,0,1,589.256,357.259)">
            <path d="M0,-52.576C-1.16,-61.762 11.403,-65.81 18.4,-62.711C20.592,-61.74 22.297,-60.059 23.167,-57.81C23.398,-57.221 23.987,-57.058 24.529,-57.337C29.399,-59.865 32.705,-54.935 33.208,-50.566C33.261,-50.109 33.649,-49.63 34.164,-49.702C37.135,-50.103 40.479,-50.137 42.971,-48.204C45.424,-46.302 46.375,-43.144 46.922,-40.221C47.009,-39.76 47.667,-39.459 48.081,-39.631C51.889,-41.232 55.151,-37.632 57.071,-34.748C58.306,-32.894 59.28,-30.867 59.517,-28.622C59.774,-26.169 59.399,-23.685 59.308,-21.23C59.294,-20.861 59.657,-20.41 60.035,-20.372C65.76,-19.799 70.816,-14.48 71.891,-8.945C72.172,-7.472 72.302,-5.934 72.252,-4.433C72.229,-3.781 72.203,-3.031 71.976,-2.402C71.723,-1.718 71.112,-1.228 70.605,-0.728C69.904,-0.031 69.192,0.663 69.076,1.691C68.928,3.029 69.59,3.588 70.467,4.399C72.232,6.037 70.763,9.217 69.336,10.576C67.571,12.266 65.007,13.139 62.607,13.313C59.521,13.537 56.152,12.483 53.929,10.289C52.706,9.082 52.063,7.453 51.033,6.102C50.185,4.996 49.153,4.166 47.857,3.651C46.573,3.135 45.213,2.848 43.89,2.452C42.116,1.92 40.758,1.045 39.367,-0.167C36.542,-2.63 34.095,-5.512 32.196,-8.747C31.306,-10.258 30.469,-11.805 29.661,-13.365C29.237,-14.183 28.866,-15.121 28.19,-15.776C26.814,-17.107 24.315,-16.92 22.562,-16.863C17.766,-16.708 11.832,-15.121 8.54,-19.73C7.264,-21.522 7.411,-24.515 5.085,-25.396C3.986,-25.816 2.706,-25.758 1.634,-25.295C0.775,-24.924 -0.068,-24.019 -1.037,-23.976C-2.661,-23.9 -4.103,-25.592 -4.95,-26.783C-5.9,-28.117 -6.7,-29.637 -7.085,-31.24C-7.763,-34.035 -4.307,-36.519 -6.458,-39.188C-6.854,-39.678 -7.441,-39.996 -7.793,-40.525C-8.224,-41.17 -8.351,-42.086 -8.371,-42.844C-8.41,-44.228 -7.927,-45.558 -7.214,-46.733C-5.603,-49.385 -2.842,-51.383 -0.062,-52.664C1.004,-53.156 0.444,-54.915 -0.635,-54.416C-5.232,-52.306 -10.866,-47.855 -10.188,-42.142C-10.018,-40.746 -9.566,-39.543 -8.525,-38.588C-7.986,-38.092 -7.523,-37.711 -7.589,-36.894C-7.65,-36.185 -8.152,-35.451 -8.441,-34.814C-9.697,-32.074 -8.729,-29.434 -7.289,-26.947C-6.002,-24.722 -3.7,-21.89 -0.816,-22.101C1.1,-22.244 4.188,-25.614 5.332,-22.455C5.831,-21.076 6.169,-19.744 7.062,-18.543C7.889,-17.431 8.905,-16.482 10.12,-15.81C12.386,-14.561 15.06,-14.469 17.585,-14.606C20.252,-14.752 22.997,-15.23 25.663,-14.838C26.522,-14.71 26.893,-14.449 27.323,-13.707C28.12,-12.34 28.802,-10.89 29.564,-9.5C31.508,-5.947 33.83,-2.785 36.739,0.043C37.992,1.262 39.339,2.537 40.896,3.362C42.301,4.108 43.886,4.463 45.404,4.889C47.15,5.375 48.56,5.981 49.637,7.504C50.643,8.928 51.367,10.514 52.628,11.752C54.972,14.057 58.451,15.274 61.703,15.301C66.375,15.35 72.416,12.692 73.068,7.5C73.223,6.272 73.144,4.707 72.419,3.658C71.803,2.762 70.333,2.442 71.358,1.219C72.208,0.199 73.356,-0.547 73.761,-1.875C74.18,-3.246 74.159,-4.795 74.076,-6.213C73.716,-12.435 70.272,-18.185 64.564,-20.971C63.266,-21.605 61.868,-22.031 60.426,-22.178C60.667,-21.89 60.912,-21.603 61.153,-21.316C61.256,-24.125 61.709,-26.973 61.204,-29.765C60.753,-32.236 59.552,-34.494 58.086,-36.51C55.699,-39.799 51.817,-43.187 47.511,-41.376C47.895,-41.178 48.279,-40.982 48.664,-40.791C48.039,-44.119 46.809,-47.631 43.982,-49.722C41.131,-51.84 37.471,-51.987 34.079,-51.523C34.394,-51.232 34.716,-50.941 35.03,-50.652C34.703,-53.486 33.599,-56.459 31.357,-58.334C29.021,-60.291 26.131,-60.238 23.526,-58.848C23.981,-58.69 24.437,-58.533 24.888,-58.375C21.08,-67.926 6.058,-67.289 0.621,-59.623C-0.896,-57.488 -1.372,-54.977 -0.838,-52.424C-0.737,-51.953 0.058,-52.1 0,-52.576" style="fill:rgb(103,173,30);fill-rule:nonzero;"/>
        </g>
        <g transform="matrix(1,0,0,1,651.349,389.485)">
            <path d="M0,-0.474C0.047,1.694 1.889,2.842 3.942,2.292C5.882,1.764 7.535,-0.007 7.613,-2.054C7.662,-3.173 5.844,-3.316 5.656,-2.218C5.279,0.042 2.403,1.714 1.132,-0.845C0.841,-1.421 -0.016,-1.033 0,-0.474" style="fill:rgb(71,122,11);fill-rule:nonzero;"/>
        </g>
        <g transform="matrix(1,0,0,1,664.579,380.06)">
            <path d="M0,-2.187C-0.806,-1.38 -0.375,-0.064 0.387,0.655C1.203,1.426 2.45,1.684 3.535,1.561C5.756,1.313 8.979,-0.908 7.688,-3.474C7.505,-3.835 6.875,-3.871 6.646,-3.548C5.696,-2.216 5.342,-0.816 3.517,-0.445C2.895,-0.316 2.184,-0.332 1.607,-0.611C0.879,-0.962 0.629,-1.71 0.021,-2.187C0.015,-2.193 0.008,-2.191 0,-2.187" style="fill:rgb(71,122,11);fill-rule:nonzero;"/>
        </g>
        <g transform="matrix(1,0,0,1,672.919,365.077)">
            <path d="M0,-5.687C1.153,-5.236 2.122,-4.509 2.686,-3.378C3.328,-2.097 3.007,-1.357 2.208,-0.316C1.691,0.36 2.275,1.583 3.204,1.198C7.273,-0.482 4.004,-7.27 0.266,-6.919C-0.329,-6.865 -0.648,-5.943 0,-5.687" style="fill:rgb(71,122,11);fill-rule:nonzero;"/>
        </g>
        <g transform="matrix(1,0,0,1,626.071,378.328)">
            <path d="M0,-4.932C-1.196,-2.743 -0.21,-0.485 2.245,0.132C3.387,0.418 4.588,0.328 5.726,0.076C6.772,-0.155 8.314,-0.594 8.977,-1.494C9.547,-2.266 8.92,-3.385 7.927,-3.092C7.206,-2.885 6.583,-2.379 5.854,-2.141C5.062,-1.875 4.219,-1.723 3.382,-1.756C1.531,-1.828 1.011,-3.024 0.918,-4.731C0.891,-5.229 0.231,-5.35 0,-4.932" style="fill:rgb(71,122,11);fill-rule:nonzero;"/>
        </g>
        <g transform="matrix(1,0,0,1,632.771,369.021)">
            <path d="M0,-3.287C-0.152,-1.754 0.59,-0.514 2.072,0.002C3.292,0.42 5.719,0.547 6.186,-0.986C6.333,-1.467 6.27,-2.291 5.752,-2.539C5.519,-2.656 5.221,-2.613 5.002,-2.484C4.728,-2.312 4.699,-1.932 4.483,-1.769C4.083,-1.473 2.915,-1.65 2.475,-1.779C1.732,-2 1.263,-2.658 0.945,-3.334C0.768,-3.711 0.055,-3.834 0,-3.287" style="fill:rgb(71,122,11);fill-rule:nonzero;"/>
        </g>
        <g transform="matrix(1,0,0,1,647.081,356.255)">
            <path d="M0,1.485C0.221,1.731 0.221,1.978 0.515,2.221C0.864,2.51 1.292,2.705 1.715,2.851C2.598,3.149 3.586,3.229 4.501,3.032C6.134,2.68 8.371,0.744 7.539,-1.119C7.323,-1.607 6.773,-1.744 6.376,-1.361C5.824,-0.821 5.774,-0.031 5.271,0.554C4.847,1.048 4.266,1.286 3.627,1.366C2.97,1.452 2.325,1.318 1.681,1.184C1.226,1.09 0.615,1.13 0.232,1.028C-0.051,0.954 -0.16,1.307 0,1.485" style="fill:rgb(71,122,11);fill-rule:nonzero;"/>
        </g>
        <g transform="matrix(1,0,0,1,650.106,341.099)">
            <path d="M0,-1.973C0.46,-2.317 1.165,-3.106 1.774,-3.084C2.319,-3.071 2.792,-2.439 3.066,-2.045C3.927,-0.799 4.425,0.652 4.507,2.156C4.575,3.418 6.378,3.287 6.433,2.07C6.527,0.007 5.334,-2.63 3.752,-3.941C2.003,-5.391 -0.219,-4.352 -0.254,-2.1C-0.255,-1.981 -0.096,-1.898 0,-1.973" style="fill:rgb(71,122,11);fill-rule:nonzero;"/>
        </g>
        <g transform="matrix(1,0,0,1,654.458,326.835)">
            <path d="M0,-1.623C0.6,-2.199 1.419,-2.7 2.224,-2.23C2.904,-1.836 3.408,-1.011 3.602,-0.262C3.784,0.447 3.359,1.495 3.774,2.107C4.368,2.987 5.323,1.886 5.493,1.248C5.949,-0.465 4.852,-2.613 3.417,-3.524C1.706,-4.61 0.006,-3.721 -0.403,-1.829C-0.455,-1.586 -0.161,-1.467 0,-1.623" style="fill:rgb(71,122,11);fill-rule:nonzero;"/>
        </g>
        <g transform="matrix(1,0,0,1,644.651,318.851)">
            <path d="M0,3.418C0.638,2.203 1.495,1.596 2.877,2.037C4.078,2.423 4.794,3.432 5.822,4.057C6.131,4.246 6.43,3.944 6.453,3.652C6.728,-0.105 -1.289,-0.828 -0.254,3.398C-0.225,3.518 -0.053,3.522 0,3.418" style="fill:rgb(71,122,11);fill-rule:nonzero;"/>
        </g>
        <g transform="matrix(1,0,0,1,619.975,360.626)">
            <path d="M0,-3.399C-0.211,-1.793 0.506,-0.386 2.022,0.284C3.429,0.905 5.418,0.905 6.603,-0.159C7.124,-0.632 6.623,-1.646 5.938,-1.55C4.938,-1.411 4.062,-0.99 3.037,-1.306C2.117,-1.589 1.605,-2.322 1.535,-3.273C1.471,-4.112 0.119,-4.304 0,-3.399" style="fill:rgb(71,122,11);fill-rule:nonzero;"/>
        </g>
        <g transform="matrix(1,0,0,1,603.864,356.312)">
            <path d="M0,-2.711C-0.672,-0.916 0.637,0.528 2.415,0.629C4.188,0.727 6.349,-0.092 7.499,-1.469C8.099,-2.182 7.145,-3.438 6.37,-2.766C5.465,-1.981 4.433,-1.358 3.231,-1.165C2.791,-1.097 2.238,-1.045 1.826,-1.254C1.33,-1.504 1.346,-1.932 1.265,-2.436C1.172,-3.008 0.266,-3.41 0,-2.711" style="fill:rgb(71,122,11);fill-rule:nonzero;"/>
        </g>
        <g transform="matrix(1,0,0,1,657.333,408.772)">
            <path d="M0,-5.324C-1.285,-4.006 -1.181,-1.992 0.275,-0.804C1.665,0.326 3.862,0.373 5.335,-0.615C5.855,-0.963 6.514,-2 5.737,-2.445C4.979,-2.871 4.079,-1.957 3.35,-1.82C2.583,-1.683 1.69,-1.881 1.149,-2.472C0.571,-3.105 0.758,-4.088 0.941,-4.845C1.077,-5.402 0.367,-5.697 0,-5.324" style="fill:rgb(71,122,11);fill-rule:nonzero;"/>
        </g>
        <g transform="matrix(1,0,0,1,668.839,395.885)">
            <path d="M0,-1.942C1.2,-1.85 2.395,-1.424 3.108,-0.424C3.851,0.613 3.708,1.701 3.907,2.872C3.969,3.24 4.359,3.537 4.713,3.281C7.917,1.019 2.65,-5.479 -0.206,-2.376C-0.372,-2.19 -0.21,-1.96 0,-1.942" style="fill:rgb(71,122,11);fill-rule:nonzero;"/>
        </g>
        <g transform="matrix(1,0,0,1,536.421,334.104)">
            <path d="M0,-5.268C-0.395,-3.671 -0.004,-1.842 1.163,-0.642C2.351,0.581 4.348,0.794 5.662,-0.351C6.185,-0.806 5.679,-1.834 5.001,-1.73C3.918,-1.565 3.067,-1.109 2.261,-2.136C1.61,-2.956 1.467,-4.134 1.451,-5.146C1.436,-6.001 0.192,-6.062 0,-5.268" style="fill:rgb(71,122,11);fill-rule:nonzero;"/>
        </g>
        <g transform="matrix(1,0,0,1,550.524,339.768)">
            <path d="M0,-4.61C-0.138,-4.104 -0.382,-3.932 -0.334,-3.373C-0.299,-2.954 -0.139,-2.559 0.072,-2.194C0.511,-1.433 1.252,-0.88 2.054,-0.54C3.333,-0.001 6.153,0.302 6.804,-1.367C6.987,-1.846 6.709,-2.633 6.061,-2.512C5.512,-2.413 5.083,-2.074 4.535,-1.964C3.979,-1.858 3.375,-1.919 2.843,-2.1C2.296,-2.286 1.776,-2.628 1.392,-3.059C1.129,-3.362 0.569,-4.169 0.522,-4.567C0.489,-4.868 0.077,-4.912 0,-4.61" style="fill:rgb(71,122,11);fill-rule:nonzero;"/>
        </g>
        <g transform="matrix(1,0,0,1,535.506,298.51)">
            <path d="M0,6.827C-0.253,6.619 -0.516,6.216 -0.756,5.96C-1.008,5.688 -1.211,5.405 -1.335,5.059C-1.573,4.38 -1.445,3.639 -1.129,3.008C-0.817,2.384 -0.287,1.818 0.397,1.61C1.282,1.338 1.966,2.044 2.803,1.894C3.197,1.819 3.422,1.536 3.327,1.131C3.039,-0.146 1.052,-0.271 0.04,0.022C-1.09,0.35 -2.021,1.251 -2.516,2.305C-2.991,3.315 -3.119,4.546 -2.613,5.573C-2.376,6.055 -1.979,6.527 -1.496,6.79C-1.266,6.913 -0.97,7.031 -0.707,7.063C-0.432,7.098 -0.288,6.964 -0.045,6.949C0.013,6.946 0.048,6.864 0,6.827" style="fill:rgb(71,122,11);fill-rule:nonzero;"/>
        </g>
        <g transform="matrix(1,0,0,1,552.108,304.249)">
            <path d="M0,6.323C-0.692,5.565 -0.625,3.887 -0.274,2.987C0.159,1.878 1.031,1.711 2.064,2.196C3.117,2.684 3.932,1.085 2.881,0.585C1.151,-0.242 -0.872,0.074 -1.676,1.989C-1.995,2.755 -2.051,3.719 -1.797,4.512C-1.507,5.427 -0.822,5.882 -0.136,6.475C-0.034,6.565 0.084,6.419 0,6.323" style="fill:rgb(71,122,11);fill-rule:nonzero;"/>
        </g>
        <g transform="matrix(1,0,0,1,547.416,318.776)">
            <path d="M0,-3.831C-1.218,-4.98 -3.324,-4.545 -4.051,-3.055C-4.663,-1.802 -4.164,-0.244 -3.042,0.54C-2.431,0.964 -1.682,1.149 -0.938,1.089C-0.211,1.034 1.667,0.274 0.695,-0.692C0.129,-1.255 -0.933,-0.672 -1.59,-0.815C-1.804,-0.859 -1.964,-0.958 -2.094,-1.065C-2.223,-1.175 -2.34,-1.356 -2.398,-1.487C-2.573,-1.871 -2.506,-2.286 -2.188,-2.638C-1.644,-3.251 -0.711,-3.416 -0.002,-3.819C0.005,-3.821 0.003,-3.827 0,-3.831" style="fill:rgb(71,122,11);fill-rule:nonzero;"/>
        </g>
        <g transform="matrix(0.663543,0.748138,0.748138,-0.663543,561.137,291.46)">
            <path d="M2.472,-0.096C0.541,1.267 0.9,3.84 3.155,4.606C4.305,4.999 3.599,6.641 2.472,6.334C-0.811,5.433 -1.911,-0.355 2.078,-1.008C2.561,-1.088 2.889,-0.393 2.472,-0.096" style="fill:rgb(71,122,11);fill-rule:nonzero;"/>
        </g>
        <g transform="matrix(1,0,0,1,595.928,297.299)">
            <path d="M0,5.869C-0.719,4.77 -1.069,3.134 -0.032,2.111C0.323,1.759 0.798,1.533 1.31,1.602C2.077,1.712 2.496,2.419 3.125,2.778C3.757,3.136 4.518,2.44 4.292,1.778C3.513,-0.522 0.224,-0.698 -1.269,0.901C-2.905,2.657 -2.344,5.131 -0.449,6.37C-0.144,6.567 0.175,6.141 0,5.869" style="fill:rgb(71,122,11);fill-rule:nonzero;"/>
        </g>
        <g transform="matrix(1,0,0,1,619.495,294.575)">
            <path d="M0,1.636C0.099,1.469 0.385,1.283 0.527,1.125C0.777,0.838 0.98,0.557 1.316,0.356C1.88,0.021 2.592,-0.056 3.232,0.041C3.822,0.139 4.433,0.402 4.846,0.842C5.368,1.397 5.257,2.008 5.412,2.705C5.579,3.462 6.708,3.464 7.021,2.824C8.116,0.59 5.441,-1.456 3.492,-1.695C2.419,-1.828 1.32,-1.613 0.468,-0.922C0.079,-0.605 -0.251,-0.203 -0.443,0.264C-0.675,0.813 -0.491,1.071 -0.474,1.532C-0.465,1.792 -0.121,1.842 0,1.636" style="fill:rgb(71,122,11);fill-rule:nonzero;"/>
        </g>
        <g transform="matrix(1,0,0,1,581.45,348.182)">
            <path d="M0,-8.625C-0.077,-8.52 -0.593,-8.442 -0.747,-8.306C-0.932,-8.142 -1.06,-7.913 -1.165,-7.696C-1.398,-7.205 -1.522,-6.621 -1.618,-6.091C-1.833,-4.886 -1.838,-3.565 -1.437,-2.397C-1.091,-1.381 -0.373,-0.497 0.714,-0.256C1.954,0.022 3.788,-0.487 4.23,-1.749C4.342,-2.071 4.046,-2.442 3.744,-2.504C2.806,-2.697 1.915,-1.74 1.009,-2.062C0.381,-2.287 0.179,-3.104 0.08,-3.678C-0.064,-4.513 -0.029,-5.417 0.054,-6.256C0.094,-6.634 0.171,-7.009 0.21,-7.393C0.229,-7.555 0.05,-8.604 0.041,-8.597C0.059,-8.618 0.018,-8.647 0,-8.625" style="fill:rgb(71,122,11);fill-rule:nonzero;"/>
        </g>
        <g transform="matrix(1,0,0,1,592.623,344.288)">
            <path d="M0,-3.405C-0.045,-3.402 -0.09,-3.402 -0.133,-3.399C-0.338,-3.388 -0.598,-3.259 -0.669,-3.052C-1.487,-0.807 0.711,0.282 2.628,0.192C4.258,0.111 7.809,-0.668 8.141,-2.648C8.22,-3.131 7.755,-3.687 7.234,-3.465C6.536,-3.168 5.988,-2.621 5.298,-2.283C4.485,-1.888 3.564,-1.614 2.659,-1.54C2.093,-1.494 1.198,-1.437 0.779,-1.929C0.496,-2.267 0.673,-3.437 0,-3.405" style="fill:rgb(71,122,11);fill-rule:nonzero;"/>
        </g>
        <g transform="matrix(1,0,0,1,570.802,331.795)">
            <path d="M0,-6.393C-1.091,-6.193 -1.89,-5.199 -2.002,-4.104C-2.115,-2.997 -1.492,-2.098 -0.639,-1.463C0.418,-0.674 1.763,-0.319 3.056,-0.204C4.175,-0.102 6.202,0 6.801,-1.18C6.946,-1.459 6.841,-1.881 6.531,-2.006C5.746,-2.335 4.954,-1.948 4.136,-1.9C3.122,-1.844 2.069,-1.988 1.127,-2.373C0.452,-2.649 -0.341,-3.077 -0.599,-3.809C-0.903,-4.673 -0.176,-5.551 0.01,-6.379C0.011,-6.385 0.006,-6.389 0,-6.393" style="fill:rgb(71,122,11);fill-rule:nonzero;"/>
        </g>
        <g transform="matrix(1,0,0,1,574.409,292.04)">
            <path d="M0,7.147C-0.076,5.645 0.052,4.147 1.105,2.979C2.258,1.7 3.725,1.639 5.094,2.643C5.943,3.27 7.051,2.079 6.201,1.395C4.379,-0.085 1.858,-0.15 0.183,1.621C-1.213,3.088 -1.725,5.702 -0.177,7.227C-0.112,7.297 0.004,7.232 0,7.147" style="fill:rgb(71,122,11);fill-rule:nonzero;"/>
        </g>
        <g transform="matrix(1,0,0,1,617.539,334.146)">
            <path d="M0,-6.668C-1.1,-6.713 -1.786,-5.574 -1.98,-4.597C-2.179,-3.568 -1.945,-2.475 -1.378,-1.594C-0.852,-0.781 -0.011,-0.175 0.962,-0.069C1.983,0.045 3.391,-0.46 3.564,-1.607C3.628,-2.037 3.334,-2.408 2.89,-2.402C2.279,-2.397 1.761,-1.895 1.159,-1.944C0.681,-1.987 0.307,-2.387 0.077,-2.769C-0.2,-3.236 -0.347,-3.803 -0.3,-4.35C-0.241,-5.059 0.223,-5.618 0.307,-6.307C0.335,-6.51 0.207,-6.662 0,-6.668" style="fill:rgb(71,122,11);fill-rule:nonzero;"/>
        </g>
        <g transform="matrix(1,0,0,1,631.744,324.924)">
            <path d="M0,-2.473C1.39,-3.971 3.024,-3.413 4.304,-2.046C4.862,-1.455 5.377,-0.672 5.511,0.15C5.664,1.084 4.727,1.622 4.876,2.444C4.943,2.804 5.115,3.048 5.476,3.151C5.516,3.165 5.554,3.173 5.596,3.188C5.931,3.283 6.272,3.117 6.504,2.89C8.599,0.818 6.845,-2.463 4.944,-3.961C3.052,-5.455 -0.265,-5.756 -0.462,-2.639C-0.479,-2.391 -0.146,-2.318 0,-2.473" style="fill:rgb(71,122,11);fill-rule:nonzero;"/>
        </g>
        <g transform="matrix(1,0,0,1,631.129,341.579)">
            <path d="M0,6.383C0.14,5.766 -0.242,5.246 -0.049,4.617C0.147,3.985 0.717,3.492 1.255,3.149C2.566,2.322 4.245,2.063 5.571,2.962C6.615,3.67 7.518,1.903 6.463,1.209C4.409,-0.14 1.552,0.421 -0.199,2.022C-0.922,2.688 -1.515,3.574 -1.503,4.594C-1.489,5.427 -0.958,6.523 -0.008,6.39C-0.005,6.389 0,6.387 0,6.383" style="fill:rgb(71,122,11);fill-rule:nonzero;"/>
        </g>
        <g transform="matrix(1,0,0,1,608.842,307.526)">
            <path d="M0,4.131C0.073,3.006 0.153,2.023 1.193,1.376C2.144,0.78 3.353,0.621 4.368,1.134C5.268,1.586 5.921,2.433 6.446,3.266C6.9,3.978 7.205,5.002 8.12,5.187C8.383,5.241 8.642,5.113 8.767,4.878C9.415,3.683 7.931,1.985 7.177,1.118C6.208,0.005 4.953,-0.864 3.442,-0.956C0.902,-1.11 -2.657,1.655 -0.495,4.293C-0.319,4.511 -0.015,4.405 0,4.131" style="fill:rgb(71,122,11);fill-rule:nonzero;"/>
        </g>
        <g transform="matrix(1,0,0,1,597.336,325.69)">
            <path d="M0,-4.582C-1.509,-4.347 -1.998,-2.256 -1.27,-1.075C-0.558,0.074 0.923,0.493 2.2,0.544C3.555,0.601 5.078,0.194 5.997,-0.859C7.019,-2.026 7.295,-4.387 5.661,-5.095C5.454,-5.183 5.154,-5.132 5.063,-4.898C4.819,-4.28 4.859,-3.895 4.86,-3.235C4.863,-2.854 4.812,-2.51 4.582,-2.197C4.088,-1.552 3.162,-1.356 2.395,-1.337C1.687,-1.321 0.797,-1.454 0.278,-1.989C-0.34,-2.626 0.377,-3.511 0.283,-4.325C0.266,-4.459 0.154,-4.605 0,-4.582" style="fill:rgb(71,122,11);fill-rule:nonzero;"/>
        </g>
        <g transform="matrix(1,0,0,1,576.498,306.203)">
            <path d="M0,8.189C0.017,6.603 0.689,5.347 2.092,4.523C2.651,4.195 3.33,3.934 3.989,3.96C4.777,3.994 5.114,4.463 5.614,5C6.184,5.609 7.124,4.861 6.907,4.152C5.446,-0.678 -3.665,4.416 -0.859,8.47C-0.59,8.867 -0.005,8.65 0,8.189" style="fill:rgb(71,122,11);fill-rule:nonzero;"/>
        </g>
        <g transform="matrix(1,0,0,1,561.48,319.523)">
            <path d="M0,5.54C-0.625,4.318 -1.432,2.6 -0.484,1.321C-0.091,0.789 0.492,0.582 1.14,0.607C1.995,0.641 2.688,1.262 3.519,0.926C3.792,0.816 3.955,0.541 3.863,0.242C3.516,-0.885 1.835,-1.114 0.792,-1.043C-0.222,-0.975 -1.168,-0.509 -1.774,0.311C-3.118,2.139 -2.453,4.857 -0.81,6.24C-0.318,6.654 0.271,6.063 0,5.54" style="fill:rgb(103,173,30);fill-rule:nonzero;"/>
        </g>
        <g transform="matrix(1,0,0,1,557.153,394.506)">
            <path d="M0,20.214C0.332,20.013 0.726,19.835 1.042,19.507C1.362,19.175 1.636,18.775 1.887,18.392C2.334,17.718 2.729,17.025 3.105,16.31C3.891,14.81 4.577,13.271 5.182,11.691C5.815,10.03 6.39,8.341 6.849,6.628C7.337,4.785 7.863,2.925 7.202,1.066C6.655,-0.477 4.788,-0.414 3.976,0.818C3.014,2.279 2.915,4.021 2.509,5.687C2.15,7.142 1.639,8.841 1.179,10.073C0.629,11.544 0.038,12.999 -0.572,14.448C-0.887,15.185 -1.207,15.923 -1.49,16.677C-1.636,17.075 -1.789,17.491 -1.88,17.903C-1.981,18.382 -1.913,18.87 -1.901,19.253C-1.874,20.218 -0.775,20.691 0,20.214" style="fill:rgb(255,239,222);fill-rule:nonzero;"/>
        </g>
        <g transform="matrix(1,0,0,1,565.757,384.174)">
            <path d="M0,6.868C0.556,6.169 1.024,5.495 1.35,4.657C1.732,3.684 2.378,2.37 2.299,1.306C2.173,-0.521 -0.082,-0.816 -0.979,0.602C-1.263,1.05 -1.327,1.63 -1.459,2.136C-1.589,2.634 -1.743,3.126 -1.874,3.62C-2.09,4.454 -2.14,5.251 -2.156,6.104C-2.176,7.171 -0.659,7.684 0,6.868" style="fill:rgb(255,239,222);fill-rule:nonzero;"/>
        </g>
        <g transform="matrix(1,0,0,1,592.666,417.971)">
            <path d="M0,17.461C0.778,16.943 1.382,16.406 1.977,15.676C2.512,15.012 3.029,14.336 3.539,13.654C4.53,12.33 5.547,11.024 6.605,9.746C7.664,8.477 8.795,7.266 10.023,6.154C10.475,5.75 11.057,5.27 11.684,4.795C12.479,4.195 13.448,3.654 14.024,2.826C15.115,1.26 13.92,-0.533 12.057,-0.17C11.054,0.024 10.185,0.727 9.396,1.34C8.611,1.951 7.851,2.604 7.12,3.277C5.869,4.418 4.719,5.664 3.651,6.977C2.525,8.365 1.534,9.857 0.587,11.371C0.141,12.092 -0.286,12.834 -0.667,13.592C-0.88,14.018 -1.091,14.441 -1.262,14.889C-1.453,15.393 -1.513,15.848 -1.591,16.375C-1.721,17.244 -0.79,17.994 0,17.461" style="fill:rgb(71,122,11);fill-rule:nonzero;"/>
        </g>
    </g>
</svg>
