<?xml version="1.0" encoding="UTF-8" standalone="no"?>
<!DOCTYPE svg PUBLIC "-//W3C//DTD SVG 1.1//EN" "http://www.w3.org/Graphics/SVG/1.1/DTD/svg11.dtd">
<svg width="100%" height="100%" viewBox="0 0 621 760" version="1.1" xmlns="http://www.w3.org/2000/svg" xmlns:xlink="http://www.w3.org/1999/xlink" xml:space="preserve" xmlns:serif="http://www.serif.com/" style="fill-rule:evenodd;clip-rule:evenodd;stroke-linejoin:round;stroke-miterlimit:2;">
    <g transform="matrix(1.04167,0,0,1.04167,-126.718,-624.209)">
        <g transform="matrix(1,0,0,1,623.417,1072.29)">
            <path d="M0,78.375L54.589,150.006C54.82,150.308 55.027,150.627 55.208,150.961L63.563,166.281L74.138,165.079L55.926,132.415C55.748,132.094 55.592,131.761 55.462,131.417L25.505,52.255L-0.987,22.523C-1.843,21.562 -2.438,20.396 -2.713,19.139L-25.129,-83.202L-76.85,-48.635L-19.478,26.613C-18.908,27.361 -18.483,28.21 -18.227,29.114L-9.792,58.867L0,78.375ZM59.393,181.804C56.672,181.804 54.134,180.322 52.811,177.895L42.313,158.644L-12.354,86.91C-12.636,86.54 -12.883,86.145 -13.092,85.729L-23.517,64.962C-23.729,64.539 -23.901,64.097 -24.03,63.643L-32.27,34.575L-93.618,-45.888C-94.873,-47.533 -95.392,-49.625 -95.051,-51.667C-94.711,-53.709 -93.542,-55.52 -91.821,-56.67L-24.323,-101.783C-22.262,-103.162 -19.652,-103.429 -17.353,-102.505C-15.053,-101.578 -13.36,-99.574 -12.83,-97.152L11.519,14.011L37.627,43.312C38.238,43.997 38.718,44.789 39.042,45.647L69.296,125.592L92.722,167.607C93.943,169.799 93.988,172.455 92.842,174.687C91.696,176.918 89.51,178.429 87.018,178.712L60.242,181.756C59.958,181.788 59.674,181.804 59.393,181.804" style="fill:rgb(241,147,0);fill-rule:nonzero;"/>
        </g>
        <g transform="matrix(1,0,0,1,548.869,1005.79)">
            <path d="M0,22.817C1.785,25.609 3.667,28.095 5.12,29.379C12.059,28.019 34.555,17.262 54.513,6.557L52.422,-2.988L0,22.817ZM4.061,44.52C2.256,44.52 0.629,44.152 -0.774,43.424C-8.717,39.31 -15.331,26.647 -17.168,22.865C-18.971,19.153 -17.437,14.681 -13.734,12.859L54.388,-20.673C56.457,-21.693 58.879,-21.703 60.955,-20.702C63.032,-19.702 64.533,-17.801 65.026,-15.549L70.373,8.858C71.085,12.109 69.569,15.441 66.65,17.041C51.567,25.302 15.275,44.52 4.061,44.52" style="fill:rgb(241,147,0);fill-rule:nonzero;"/>
        </g>
        <g transform="matrix(1,0,0,1,492.78,906.161)">
            <path d="M0,25.311L48.234,27.405L83.767,17.255L75.784,-0.569L26.516,1.96C26.169,1.979 25.822,1.971 25.477,1.942L-10.862,-1.24L-12.95,12.243L0,25.311ZM49.125,42.451C49.016,42.451 48.908,42.449 48.799,42.444L-3.585,40.169C-5.472,40.087 -7.258,39.296 -8.587,37.956L-26.268,20.114C-27.943,18.423 -28.717,16.039 -28.353,13.687L-24.611,-10.47C-24.007,-14.373 -20.479,-17.14 -16.546,-16.794L26.266,-13.046L80.144,-15.813C83.238,-15.97 86.108,-14.214 87.374,-11.388L100.995,19.024C101.884,21.009 101.868,23.283 100.95,25.254C100.031,27.227 98.302,28.704 96.21,29.301L51.185,42.163C50.514,42.354 49.821,42.451 49.125,42.451" style="fill:rgb(241,147,0);fill-rule:nonzero;"/>
        </g>
        <g transform="matrix(1,0,0,1,426.219,1124.78)">
            <path d="M0,25.085L-11.427,108.952C-11.477,109.315 -11.553,109.676 -11.655,110.028L-22.07,145.946L-11.497,144.745L-6.792,127.94C-6.69,127.574 -6.56,127.217 -6.403,126.871L30.71,44.816L35.881,23.606L37.423,-7.278C37.47,-8.218 37.693,-9.141 38.082,-9.997L77.103,-96.201L18.943,-118.279L20.068,-13.518C20.082,-12.23 19.764,-10.961 19.145,-9.832L0,25.085ZM-32.41,162.17C-34.604,162.17 -36.707,161.206 -38.141,159.507C-39.758,157.59 -40.311,154.99 -39.612,152.581L-26.215,106.38L-14.675,21.684C-14.551,20.774 -14.261,19.896 -13.82,19.091L5.048,-15.321L3.826,-129.113C3.799,-131.592 5,-133.925 7.033,-135.344C9.066,-136.762 11.67,-137.085 13.987,-136.205L89.889,-107.392C91.824,-106.657 93.37,-105.155 94.16,-103.241C94.95,-101.328 94.914,-99.173 94.06,-97.287L52.333,-5.108L50.827,25.065C50.803,25.538 50.735,26.008 50.623,26.468L45.118,49.048C45.008,49.499 44.856,49.939 44.665,50.362L7.499,132.533L1.587,153.648C0.765,156.587 -1.756,158.734 -4.788,159.079L-31.562,162.122C-31.845,162.154 -32.128,162.17 -32.41,162.17" style="fill:rgb(241,147,0);fill-rule:nonzero;"/>
        </g>
        <g transform="matrix(1,0,0,1,445.401,1019.77)">
            <path d="M0,-4.447L54.105,17.198L61.455,0.88L0.283,-20.419L0,-4.447ZM57.99,34.332C57.062,34.332 56.119,34.158 55.207,33.794L-10.376,7.558C-13.269,6.401 -15.145,3.575 -15.089,0.461L-14.531,-31.04C-14.488,-33.444 -13.295,-35.682 -11.323,-37.058C-9.35,-38.434 -6.837,-38.779 -4.566,-37.99L74.124,-10.593C76.111,-9.901 77.716,-8.406 78.547,-6.473C79.378,-4.541 79.36,-2.347 78.496,-0.429L64.831,29.91C63.584,32.678 60.857,34.332 57.99,34.332" style="fill:rgb(241,147,0);fill-rule:nonzero;"/>
        </g>
        <g transform="matrix(1,0,0,1,470.738,960.172)">
            <path d="M0,50.214L59.337,68.41L111.706,53.761L157.419,27.707L123.769,-14.681L-0.809,-18.388L-47.104,23.889L0,50.214ZM59.24,83.726C58.499,83.726 57.757,83.615 57.042,83.397L-5.161,64.321C-5.668,64.165 -6.158,63.956 -6.621,63.697L-63.499,31.909C-65.603,30.734 -67.013,28.618 -67.29,26.225C-67.567,23.83 -66.677,21.449 -64.897,19.824L-8.681,-31.513C-7.242,-32.826 -5.354,-33.512 -3.4,-33.472L127.699,-29.57C129.908,-29.504 131.976,-28.468 133.35,-26.736L174.605,25.23C175.966,26.943 176.51,29.167 176.095,31.316C175.68,33.465 174.346,35.325 172.445,36.408L118.33,67.25C117.796,67.555 117.228,67.792 116.637,67.957L61.261,83.448C60.6,83.633 59.92,83.726 59.24,83.726" style="fill:rgb(241,147,0);fill-rule:nonzero;"/>
        </g>
        <g transform="matrix(1,0,0,1,350.726,844.488)">
            <path d="M0,-38.606C1.37,-38.606 2.745,-38.231 3.964,-37.472L84.068,12.412L115.805,-17.89L103.109,-32.853L93.621,-16.05C91.801,-12.826 87.899,-11.416 84.438,-12.722L-17.346,-51.209L-27.757,-41.071L-27.301,-39.775L-11.206,-31.793L-4.661,-36.983C-3.303,-38.059 -1.655,-38.606 0,-38.606M85.039,29.353C83.673,29.353 82.299,28.981 81.076,28.219L0.519,-21.947L-5.614,-17.083C-7.891,-15.278 -11.004,-14.949 -13.606,-16.241L-36.696,-27.691C-38.447,-28.559 -39.791,-30.077 -40.439,-31.92L-43.497,-40.612C-44.467,-43.368 -43.748,-46.436 -41.655,-48.474L-24.391,-65.285C-22.305,-67.317 -19.231,-67.959 -16.506,-66.927L83.724,-29.029L95.337,-49.596C96.543,-51.732 98.717,-53.143 101.158,-53.376C103.601,-53.609 106,-52.63 107.587,-50.761L131.818,-22.202C134.387,-19.173 134.151,-14.668 131.278,-11.924L90.22,27.278C88.786,28.647 86.92,29.353 85.039,29.353" style="fill:rgb(241,147,0);fill-rule:nonzero;"/>
        </g>
        <g transform="matrix(1,0,0,1,303.544,757.123)">
            <path d="M0,28.559C-1.634,28.559 -3.28,28.028 -4.659,26.932L-9.293,23.252C-10.852,22.015 -11.854,20.207 -12.081,18.23C-12.306,16.252 -11.736,14.266 -10.497,12.708L-3.387,3.777C-0.807,0.536 3.911,0 7.152,2.58L11.777,6.261C15.017,8.84 15.554,13.557 12.977,16.797L5.875,25.727C4.394,27.589 2.208,28.559 0,28.559" style="fill:rgb(241,147,0);fill-rule:nonzero;"/>
        </g>
        <g transform="matrix(1,0,0,1,264.266,633.556)">
            <path d="M0,114.757C-1.688,114.757 -3.337,114.187 -4.671,113.125L-127.011,15.75C-128.571,14.509 -129.572,12.697 -129.794,10.717C-130.016,8.736 -129.44,6.748 -128.193,5.193L-127.04,3.753C-124.457,0.528 -119.752,0 -116.517,2.574L5.824,99.934C9.06,102.509 9.6,107.219 7.031,110.461L5.877,111.916C4.641,113.477 2.833,114.482 0.854,114.708C0.569,114.74 0.284,114.757 0,114.757" style="fill:rgb(241,147,0);fill-rule:nonzero;"/>
        </g>
        <g transform="matrix(1,0,0,1,258.48,641.57)">
            <path d="M0,113.997C-1.637,113.997 -3.285,113.464 -4.666,112.365L-126.996,15.006C-130.229,12.433 -130.772,7.729 -128.21,4.487L-127.059,3.03C-125.823,1.467 -124.015,0.459 -122.034,0.23C-120.056,0 -118.064,0.571 -116.504,1.812L5.836,99.18C7.396,100.421 8.397,102.232 8.62,104.213C8.841,106.194 8.266,108.182 7.019,109.737L5.858,111.186C4.377,113.035 2.198,113.997 0,113.997" style="fill:rgb(241,147,0);fill-rule:nonzero;"/>
        </g>
        <g transform="matrix(1,0,0,1,252.714,650.774)">
            <path d="M0,112.056C-1.688,112.056 -3.337,111.486 -4.67,110.424L-124.564,14.998C-127.799,12.423 -128.34,7.715 -125.773,4.474L-124.621,3.019C-123.384,1.457 -121.577,0.452 -119.597,0.224C-117.612,0 -115.629,0.567 -114.071,1.807L5.829,97.23C9.068,99.808 9.606,104.523 7.03,107.764L5.872,109.222C4.633,110.781 2.827,111.783 0.85,112.008C0.566,112.04 0.282,112.056 0,112.056" style="fill:rgb(241,147,0);fill-rule:nonzero;"/>
        </g>
        <g transform="matrix(1,0,0,1,246.94,662.089)">
            <path d="M0,107.995C-1.688,107.995 -3.336,107.425 -4.67,106.363L-119.461,15.004C-122.7,12.427 -123.238,7.713 -120.665,4.472L-119.512,3.02C-118.274,1.462 -116.468,0.459 -114.49,0.233C-112.514,0 -110.525,0.577 -108.968,1.816L5.823,93.172C9.058,95.747 9.599,100.455 7.032,103.696L5.879,105.151C4.643,106.713 2.835,107.719 0.856,107.946C0.57,107.978 0.285,107.995 0,107.995" style="fill:rgb(241,147,0);fill-rule:nonzero;"/>
        </g>
        <g transform="matrix(1,0,0,1,241.166,675.71)">
            <path d="M0,101.626C-1.688,101.626 -3.336,101.056 -4.67,99.994L-111.462,15.009C-114.69,12.439 -115.237,7.745 -112.686,4.503L-111.541,3.048C-110.306,1.479 -108.497,0.467 -106.514,0.236C-104.532,0 -102.538,0.574 -100.976,1.817L5.817,86.812C9.054,89.388 9.594,94.099 7.023,97.34L5.876,98.786C4.639,100.347 2.832,101.351 0.854,101.577C0.569,101.61 0.284,101.626 0,101.626" style="fill:rgb(241,147,0);fill-rule:nonzero;"/>
        </g>
        <g transform="matrix(1,0,0,1,223.221,691.114)">
            <path d="M0,83.802C-1.688,83.802 -3.337,83.232 -4.671,82.17L-89.072,14.991C-92.307,12.416 -92.848,7.709 -90.282,4.468L-89.135,3.02C-87.898,1.457 -86.091,0.451 -84.112,0.224C-82.13,0 -80.143,0.566 -78.584,1.807L5.824,68.985C9.064,71.564 9.601,76.282 7.022,79.523L5.869,80.972C4.63,82.529 2.823,83.53 0.847,83.754C0.564,83.786 0.281,83.802 0,83.802" style="fill:rgb(241,147,0);fill-rule:nonzero;"/>
        </g>
        <g transform="matrix(1,0,0,1,201.004,712.497)">
            <path d="M0,56.59C-1.637,56.59 -3.285,56.057 -4.666,54.958L-54.861,15.009C-58.089,12.441 -58.636,7.746 -56.086,4.504L-54.94,3.047C-53.706,1.478 -51.896,0.465 -49.913,0.235C-47.931,0 -45.937,0.572 -44.374,1.816L5.829,41.774C7.385,43.013 8.385,44.819 8.61,46.795C8.834,48.772 8.265,50.756 7.025,52.313L5.873,53.761C4.392,55.621 2.206,56.59 0,56.59" style="fill:rgb(241,147,0);fill-rule:nonzero;"/>
        </g>
        <g transform="matrix(1,0,0,1,270.039,626.292)">
            <path d="M0,114.762C-1.688,114.762 -3.336,114.192 -4.67,113.13L-127.01,15.762C-128.569,14.522 -129.57,12.711 -129.793,10.732C-130.016,8.751 -129.441,6.764 -128.196,5.208L-127.036,3.758C-124.454,0.531 -119.743,0 -116.509,2.575L5.823,99.944C9.063,102.522 9.6,107.238 7.024,110.479L5.871,111.929C4.633,113.487 2.826,114.489 0.849,114.714C0.566,114.746 0.282,114.762 0,114.762" style="fill:rgb(241,147,0);fill-rule:nonzero;"/>
        </g>
        <g transform="matrix(1,0,0,1,275.82,620.866)">
            <path d="M0,112.932C-1.688,112.932 -3.336,112.362 -4.67,111.3L-125.676,14.994C-128.917,12.415 -129.454,7.697 -126.875,4.456L-125.721,3.007C-124.482,1.451 -122.676,0.45 -120.7,0.225C-118.721,0 -116.738,0.571 -115.182,1.809L5.823,98.116C9.063,100.695 9.6,105.412 7.021,108.654L5.869,110.102C4.63,111.659 2.824,112.66 0.848,112.884C0.564,112.916 0.282,112.932 0,112.932" style="fill:rgb(241,147,0);fill-rule:nonzero;"/>
        </g>
        <g transform="matrix(1,0,0,1,281.587,618.562)">
            <path d="M0,107.981C-1.637,107.981 -3.285,107.448 -4.666,106.349L-119.45,14.99C-122.686,12.415 -123.226,7.706 -120.658,4.464L-119.513,3.019C-118.276,1.458 -116.469,0.453 -114.49,0.225C-112.508,0 -110.523,0.568 -108.964,1.807L5.835,93.156C7.393,94.395 8.394,96.203 8.618,98.18C8.842,100.158 8.271,102.143 7.03,103.7L5.87,105.156C4.389,107.013 2.205,107.981 0,107.981" style="fill:rgb(241,147,0);fill-rule:nonzero;"/>
        </g>
        <g transform="matrix(1,0,0,1,287.36,616.596)">
            <path d="M0,102.687C-1.637,102.687 -3.285,102.154 -4.666,101.055L-112.785,15.005C-116.017,12.433 -116.561,7.731 -114,4.489L-112.849,3.031C-111.613,1.466 -109.805,0.458 -107.824,0.229C-105.838,0 -103.853,0.57 -102.292,1.811L5.836,87.868C7.395,89.108 8.396,90.918 8.619,92.898C8.841,94.877 8.267,96.865 7.022,98.42L5.862,99.872C4.381,101.723 2.201,102.687 0,102.687" style="fill:rgb(241,147,0);fill-rule:nonzero;"/>
        </g>
        <g transform="matrix(1,0,0,1,282.085,618.539)">
            <path d="M0,84.695C-1.688,84.695 -3.337,84.125 -4.671,83.063L-90.186,14.997C-93.426,12.418 -93.962,7.701 -91.385,4.461L-90.232,3.01C-88.994,1.453 -87.187,0.452 -85.21,0.226C-83.23,0 -81.248,0.572 -79.691,1.81L5.83,69.869C9.07,72.447 9.607,77.165 7.029,80.406L5.87,81.864C4.631,83.421 2.825,84.422 0.848,84.647C0.565,84.679 0.282,84.695 0,84.695" style="fill:rgb(241,147,0);fill-rule:nonzero;"/>
        </g>
        <g transform="matrix(1,0,0,1,136.807,617.279)">
            <path d="M0,80.217C-1.69,80.217 -3.34,79.646 -4.674,78.582L-6.009,77.519C-9.247,74.939 -9.781,70.223 -7.203,66.983L43.72,3.002C44.961,1.443 46.772,0.442 48.752,0.22C50.739,0 52.722,0.573 54.277,1.82L55.604,2.883C58.83,5.467 59.357,10.173 56.784,13.406L5.869,77.387C4.629,78.945 2.822,79.946 0.845,80.169C0.563,80.201 0.281,80.217 0,80.217" style="fill:rgb(241,147,0);fill-rule:nonzero;"/>
        </g>
        <g transform="matrix(1,0,0,1,139.835,618.557)">
            <path d="M0,88.812C-1.698,88.812 -3.355,88.236 -4.692,87.163L-6.018,86.099C-9.241,83.515 -9.767,78.811 -7.195,75.579L50.554,3.007C51.793,1.451 53.6,0.45 55.577,0.225C57.556,0 59.54,0.571 61.096,1.811L62.43,2.874C65.668,5.453 66.204,10.17 63.625,13.41L5.868,85.982C4.627,87.542 2.815,88.544 0.833,88.765C0.555,88.796 0.277,88.812 0,88.812" style="fill:rgb(241,147,0);fill-rule:nonzero;"/>
        </g>
        <g transform="matrix(1,0,0,1,143.88,620.136)">
            <path d="M0,95.828C-1.689,95.828 -3.339,95.257 -4.673,94.194L-6.008,93.131C-9.247,90.551 -9.782,85.834 -7.203,82.594L56.139,3.007C57.38,1.448 59.19,0.446 61.171,0.224C63.15,0 65.139,0.577 66.695,1.824L68.022,2.887C71.248,5.47 71.775,10.177 69.202,13.41L5.869,92.998C4.629,94.555 2.823,95.556 0.846,95.78C0.563,95.812 0.281,95.828 0,95.828" style="fill:rgb(241,147,0);fill-rule:nonzero;"/>
        </g>
        <g transform="matrix(1,0,0,1,150.539,622.985)">
            <path d="M0,98.28C-1.635,98.28 -3.28,97.749 -4.66,96.653L-5.994,95.593C-7.552,94.355 -8.555,92.549 -8.781,90.571C-9.006,88.593 -8.437,86.607 -7.197,85.05L57.487,3.775C60.054,0.549 64.747,0 67.989,2.55L69.33,3.603C70.9,4.837 71.914,6.646 72.145,8.63C72.377,10.614 71.808,12.608 70.564,14.171L5.873,95.451C4.393,97.311 2.207,98.28 0,98.28" style="fill:rgb(241,147,0);fill-rule:nonzero;"/>
        </g>
        <g transform="matrix(1,0,0,1,152.008,627.214)">
            <path d="M0,105.884C-1.689,105.884 -3.338,105.314 -4.672,104.251L-5.998,103.196C-9.237,100.615 -9.773,95.899 -7.194,92.658L64.147,3C65.39,1.439 67.204,0.437 69.187,0.216C71.174,0 73.161,0.575 74.716,1.825L76.05,2.899C79.267,5.486 79.789,10.185 77.218,13.414L5.868,103.055C4.629,104.612 2.823,105.612 0.846,105.836C0.563,105.868 0.281,105.884 0,105.884" style="fill:rgb(241,147,0);fill-rule:nonzero;"/>
        </g>
        <g transform="matrix(1,0,0,1,158.673,628.027)">
            <path d="M0,110.373C-1.695,110.373 -3.35,109.798 -4.686,108.728L-6.014,107.666C-9.242,105.083 -9.771,100.375 -7.196,97.14L67.112,3.775C69.69,0.536 74.407,0 77.648,2.575L78.975,3.63C80.532,4.868 81.534,6.675 81.759,8.651C81.984,10.629 81.415,12.614 80.176,14.171L5.869,107.543C4.627,109.102 2.817,110.103 0.837,110.326C0.558,110.357 0.278,110.373 0,110.373" style="fill:rgb(241,147,0);fill-rule:nonzero;"/>
        </g>
        <g transform="matrix(1,0,0,1,165.336,634.099)">
            <path d="M0,109.604C-1.695,109.604 -3.349,109.03 -4.685,107.96L-6.012,106.899C-9.241,104.317 -9.771,99.607 -7.195,96.372L67.114,3.007C68.353,1.451 70.16,0.45 72.137,0.226C74.116,0 76.1,0.573 77.656,1.813L78.981,2.869C82.219,5.449 82.753,10.165 80.175,13.404L5.869,106.774C4.628,108.333 2.818,109.334 0.838,109.557C0.559,109.588 0.278,109.604 0,109.604" style="fill:rgb(241,147,0);fill-rule:nonzero;"/>
        </g>
        <g transform="matrix(1,0,0,1,171.995,639.402)">
            <path d="M0,109.606C-1.636,109.606 -3.284,109.074 -4.664,107.976L-5.997,106.916C-7.554,105.677 -8.556,103.871 -8.78,101.894C-9.005,99.917 -8.436,97.931 -7.197,96.375L67.119,3.005C68.358,1.449 70.165,0.448 72.142,0.224C74.124,0 76.105,0.572 77.661,1.811L78.988,2.869C82.226,5.449 82.76,10.165 80.183,13.404L5.874,106.776C4.393,108.637 2.207,109.606 0,109.606" style="fill:rgb(241,147,0);fill-rule:nonzero;"/>
        </g>
        <g transform="matrix(1,0,0,1,178.66,644.705)">
            <path d="M0,109.607C-1.636,109.607 -3.283,109.075 -4.663,107.977L-5.998,106.916C-7.555,105.677 -8.557,103.871 -8.782,101.894C-9.007,99.917 -8.438,97.931 -7.198,96.375L67.117,3.006C68.356,1.45 70.163,0.45 72.139,0.225C74.115,0 76.1,0.571 77.657,1.81L78.984,2.867C82.224,5.446 82.76,10.164 80.181,13.404L5.874,106.777C4.393,108.638 2.207,109.607 0,109.607" style="fill:rgb(241,147,0);fill-rule:nonzero;"/>
        </g>
        <g transform="matrix(1,0,0,1,185.329,649.241)">
            <path d="M0,110.376C-1.689,110.376 -3.338,109.805 -4.672,108.742L-6.007,107.68C-9.246,105.1 -9.781,100.383 -7.202,97.143L67.113,3.777C69.691,0.538 74.409,0 77.649,2.578L78.976,3.633C80.533,4.871 81.534,6.678 81.759,8.654C81.984,10.631 81.415,12.616 80.176,14.173L5.869,107.546C4.629,109.103 2.823,110.104 0.846,110.328C0.563,110.36 0.281,110.376 0,110.376" style="fill:rgb(241,147,0);fill-rule:nonzero;"/>
        </g>
        <g transform="matrix(1,0,0,1,191.994,654.546)">
            <path d="M0,110.375C-1.689,110.375 -3.337,109.805 -4.671,108.742L-6.006,107.68C-9.246,105.101 -9.782,100.382 -7.203,97.142L67.113,3.775C69.692,0.536 74.407,0 77.647,2.575L78.973,3.629C80.531,4.867 81.533,6.673 81.758,8.65C81.984,10.628 81.414,12.613 80.175,14.17L5.869,107.545C4.63,109.102 2.823,110.103 0.847,110.327C0.564,110.359 0.281,110.375 0,110.375" style="fill:rgb(241,147,0);fill-rule:nonzero;"/>
        </g>
        <g transform="matrix(1,0,0,1,200.692,664.335)">
            <path d="M0,103.32C-1.63,103.32 -3.272,102.792 -4.649,101.701L-5.983,100.645C-7.546,99.409 -8.552,97.601 -8.78,95.622C-9.008,93.642 -8.438,91.653 -7.197,90.093L62.113,3.007C63.353,1.451 65.16,0.45 67.137,0.226C69.117,0 71.1,0.573 72.656,1.813L73.99,2.877C77.228,5.457 77.763,10.174 75.184,13.413L5.873,100.491C4.393,102.35 2.207,103.32 0,103.32" style="fill:rgb(241,147,0);fill-rule:nonzero;"/>
        </g>
        <g transform="matrix(1,0,0,1,208.973,670.714)">
            <path d="M0,100.215C-1.629,100.215 -3.269,99.688 -4.646,98.599L-5.98,97.544C-7.544,96.309 -8.552,94.5 -8.78,92.52C-9.009,90.539 -8.439,88.55 -7.198,86.989L59.031,3.777C61.61,0.537 66.329,0 69.569,2.58L70.903,3.642C72.46,4.88 73.461,6.687 73.686,8.663C73.91,10.64 73.34,12.624 72.102,14.181L5.873,97.386C4.393,99.245 2.207,100.215 0,100.215" style="fill:rgb(241,147,0);fill-rule:nonzero;"/>
        </g>
        <g transform="matrix(1,0,0,1,218.725,677.713)">
            <path d="M0,94.655C-1.689,94.655 -3.339,94.084 -4.673,93.021L-6.008,91.958C-9.247,89.378 -9.782,84.661 -7.203,81.421L54.594,3.774C57.168,0.541 61.874,0 65.115,2.562L66.448,3.617C68.012,4.853 69.019,6.661 69.247,8.641C69.475,10.621 68.905,12.61 67.665,14.17L5.869,91.825C4.629,93.383 2.823,94.383 0.846,94.607C0.563,94.639 0.281,94.655 0,94.655" style="fill:rgb(241,147,0);fill-rule:nonzero;"/>
        </g>
        <g transform="matrix(1,0,0,1,228.27,686.734)">
            <path d="M0,87.302C-1.635,87.302 -3.281,86.77 -4.661,85.674L-5.997,84.613C-7.555,83.374 -8.557,81.568 -8.783,79.59C-9.008,77.613 -8.438,75.627 -7.199,74.07L48.748,3.776C51.327,0.535 56.045,0 59.286,2.577L60.62,3.639C62.177,4.878 63.177,6.684 63.402,8.66C63.627,10.637 63.057,12.622 61.818,14.179L5.873,84.473C4.393,86.333 2.207,87.302 0,87.302" style="fill:rgb(241,147,0);fill-rule:nonzero;"/>
        </g>
        <g transform="matrix(1,0,0,1,270.768,726.962)">
            <path d="M0,27.638L15.564,31.404L16.708,29.965L9.544,15.643L0,27.638ZM28.145,55.041C27.082,55.041 26.009,54.816 24.997,54.348C24.82,54.267 9.845,47.467 -7.214,47.467C-14.981,47.467 -21.985,48.876 -28.032,51.656C-31.188,53.105 -34.926,52.2 -37.067,49.467C-39.209,46.735 -39.195,42.888 -37.033,40.171L13.881,-23.809C16.043,-26.528 19.788,-27.403 22.932,-25.93C26.077,-24.457 27.798,-21.017 27.093,-17.617C21.829,7.779 41.067,33.855 41.262,34.116C43.306,36.846 43.25,40.612 41.125,43.281L34.015,52.212C32.556,54.046 30.375,55.041 28.145,55.041" style="fill:rgb(241,147,0);fill-rule:nonzero;"/>
        </g>
        <g transform="matrix(1,0,0,1,181.729,757.114)">
            <path d="M0,-121.127C-13.876,-121.127 -24.686,-116.762 -31.259,-108.505C-38.521,-99.385 -39.978,-85.969 -35.36,-70.727C-30.104,-53.385 -17.905,-36.426 -1.013,-22.976C15.135,-10.129 34.07,-1.996 51.521,-0.32L92.73,-52.098C87.154,-68.761 74.98,-85.392 58.864,-98.218C41.978,-111.656 22.717,-119.734 4.63,-120.966C3.065,-121.072 1.508,-121.127 0,-121.127M57.571,22.189C33.524,22.187 7.083,12.12 -14.974,-5.434C-35.222,-21.549 -49.959,-42.256 -56.471,-63.742C-63.281,-86.214 -60.389,-106.932 -48.329,-122.08C-37.43,-135.774 -20.023,-143.316 0.683,-143.316C24.525,-143.316 50.819,-133.273 72.823,-115.76C94.958,-98.148 110.733,-74.529 116.102,-50.957C116.607,-48.736 116.076,-46.404 114.657,-44.622L63.743,19.358C62.327,21.139 60.179,22.18 57.904,22.188L57.571,22.189Z" style="fill:rgb(241,147,0);fill-rule:nonzero;"/>
        </g>
        <g transform="matrix(1,0,0,1,390.065,761.579)">
            <path d="M0,93.568C-1.699,93.568 -3.357,92.991 -4.696,91.917L-91.211,22.452C-94.431,19.867 -94.956,15.166 -92.386,11.935L-85.284,3.005C-84.04,1.441 -82.223,0.438 -80.236,0.218C-78.247,0 -76.257,0.583 -74.703,1.839L11.452,71.403C14.613,73.955 15.167,78.559 12.702,81.789L5.961,90.619C4.735,92.225 2.913,93.269 0.906,93.513C0.604,93.549 0.301,93.568 0,93.568" style="fill:rgb(241,147,0);fill-rule:nonzero;"/>
        </g>
        <g transform="matrix(1,0,0,1,460.065,779.517)">
            <path d="M0,15.178L15.449,32.191L28.367,4.332L27.955,-13.374L23.417,-21.043L22.061,-21.611L17.866,-18.921L0,15.178ZM17.497,53.102C15.4,53.102 13.378,52.222 11.945,50.644L-14.628,21.382C-16.745,19.052 -17.181,15.648 -15.72,12.86L5.501,-27.641C6.105,-28.795 6.999,-29.77 8.095,-30.473L17.277,-36.364C19.354,-37.697 21.952,-37.924 24.227,-36.968L31.506,-33.917C32.993,-33.293 34.24,-32.207 35.061,-30.819L41.862,-19.327C42.517,-18.221 42.876,-16.967 42.906,-15.682L43.404,5.729C43.431,6.877 43.193,8.017 42.71,9.059L24.302,48.757C23.244,51.037 21.115,52.636 18.63,53.016C18.252,53.074 17.873,53.102 17.497,53.102" style="fill:rgb(241,147,0);fill-rule:nonzero;"/>
        </g>
        <g transform="matrix(1,0,0,1,481.353,739.517)">
            <path d="M0,151.308L29.311,160.797L89.269,153.983L77.973,105.581C77.815,104.905 77.752,104.208 77.786,103.514L80.916,38.926L73.238,9.26L48.496,-8.56L24.714,-1.67L6.919,13.895L5.885,19.285C5.819,19.628 5.729,19.967 5.616,20.298L-12.799,74.146L2.604,88.53C4.29,90.104 5.158,92.367 4.957,94.665L0,151.308ZM28.545,175.933C27.762,175.933 26.983,175.811 26.235,175.569L-10.302,163.74C-13.627,162.662 -15.769,159.432 -15.463,155.95L-10.305,96.998L-26.585,81.795C-28.745,79.779 -29.52,76.683 -28.563,73.887L-8.747,15.942L-7.327,8.536C-7.012,6.894 -6.157,5.404 -4.898,4.303L16.091,-14.055C16.916,-14.777 17.889,-15.308 18.941,-15.614L47.828,-23.984C50.043,-24.625 52.428,-24.213 54.299,-22.866L84.203,-1.328C85.624,-0.304 86.642,1.184 87.081,2.879L95.723,36.272C95.912,37.003 95.99,37.759 95.953,38.514L92.819,103.194L105.791,158.779C106.277,160.863 105.85,163.056 104.617,164.805C103.383,166.554 101.461,167.693 99.334,167.935L29.392,175.885C29.11,175.917 28.827,175.933 28.545,175.933" style="fill:rgb(241,147,0);fill-rule:nonzero;"/>
        </g>
        <g transform="matrix(1,0,0,1,326.268,801.79)">
            <path d="M0,2.366L15.125,7.06L15.591,6.665L3.401,-2.33L0,2.366ZM16.838,22.945C16.094,22.945 15.345,22.835 14.616,22.608L-8.217,15.521C-10.155,14.92 -11.767,13.557 -12.685,11.747L-15.815,5.566C-17.084,3.059 -16.846,0.053 -15.198,-2.222L-4.308,-17.258C-3.135,-18.878 -1.362,-19.962 0.615,-20.27C2.592,-20.579 4.609,-20.081 6.219,-18.894L32.116,0.217C33.96,1.577 35.081,3.706 35.159,5.996C35.237,8.285 34.265,10.485 32.518,11.969L21.694,21.162C20.32,22.329 18.593,22.945 16.838,22.945" style="fill:rgb(241,147,0);fill-rule:nonzero;"/>
        </g>
        <g transform="matrix(1,0,0,1,352.249,798.752)">
            <path d="M0,-7.242C0.68,-7.242 1.367,-7.149 2.042,-6.959L89.093,17.684C89.39,17.768 89.681,17.87 89.965,17.99L97.396,21.125L105.382,16.537C105.798,16.298 106.235,16.1 106.689,15.945L148.054,1.782L138.919,-16.946L111.095,-0.629C109.318,0.412 107.191,0.676 105.211,0.105L79.526,-7.349L-5.258,-15.319C-7.363,-15.516 -9.286,-16.594 -10.555,-18.284L-18.244,-28.53L-27.674,-27.458C-26.225,-25.293 -25.974,-22.467 -27.154,-20.023L-33.448,-6.991L-32.162,-4.416L-18.976,5.074L-12.198,3.257L-5.786,-4.515C-4.339,-6.268 -2.204,-7.242 0,-7.242M97.906,36.981C96.918,36.981 95.926,36.785 94.992,36.391L84.562,31.991L2.668,8.808L-2.154,14.654C-3.147,15.857 -4.491,16.72 -5.997,17.124L-18.527,20.484C-20.702,21.068 -23.023,20.642 -24.851,19.327L-42.426,6.679C-43.413,5.969 -44.211,5.029 -44.755,3.942L-48.514,-3.585C-49.551,-5.663 -49.568,-8.105 -48.557,-10.197L-43.247,-21.191L-45.568,-23.068C-47.833,-24.899 -48.833,-27.877 -48.133,-30.704L-46.958,-35.445C-46.205,-38.487 -43.639,-40.739 -40.525,-41.094L-15.67,-43.92C-13.027,-44.223 -10.421,-43.097 -8.825,-40.97L-0.55,-29.942L81.636,-22.217C82.106,-22.173 82.571,-22.084 83.025,-21.953L106.292,-15.201L138.316,-33.982C140.117,-35.04 142.278,-35.297 144.278,-34.692C146.278,-34.089 147.935,-32.678 148.851,-30.801L165.258,2.839C166.201,4.773 166.269,7.017 165.444,9.003C164.62,10.989 162.981,12.527 160.947,13.223L112.229,29.903L101.643,35.984C100.491,36.646 99.201,36.981 97.906,36.981" style="fill:rgb(241,147,0);fill-rule:nonzero;"/>
        </g>
        <g transform="matrix(1,0,0,1,505.598,706.034)">
            <path d="M0,28.096L1.301,30.201L6.881,28.862L17.876,14.539L16.475,2.205L-1.687,13.26L0,28.096ZM-2.227,46.262C-4.785,46.262 -7.219,44.949 -8.606,42.703L-13.643,34.553C-14.224,33.613 -14.59,32.556 -14.715,31.457L-17.132,10.192C-17.462,7.288 -16.075,4.458 -13.579,2.939L18.702,-16.711C20.887,-18.041 23.601,-18.166 25.9,-17.04C28.198,-15.915 29.764,-13.694 30.053,-11.151L33.123,15.857C33.342,17.787 32.804,19.729 31.62,21.271L17.162,40.102C16.116,41.464 14.634,42.426 12.964,42.827L-0.475,46.054C-1.058,46.194 -1.646,46.262 -2.227,46.262" style="fill:rgb(241,147,0);fill-rule:nonzero;"/>
        </g>
        <g transform="matrix(1,0,0,1,497.113,687.867)">
            <path d="M0,45.524C-1.221,45.524 -2.441,45.226 -3.548,44.631C-5.715,43.468 -7.174,41.315 -7.452,38.871L-8.647,28.359C-8.977,25.456 -7.59,22.626 -5.094,21.106L27.187,1.457C29.372,0.126 32.086,0 34.385,1.128C36.683,2.253 38.249,4.473 38.538,7.016L40.073,20.521C40.426,23.627 38.815,26.626 36.031,28.047L3.411,44.704C2.339,45.251 1.169,45.524 0,45.524" style="fill:rgb(241,147,0);fill-rule:nonzero;"/>
        </g>
        <g transform="matrix(1,0,0,1,482.863,638.068)">
            <path d="M0,71.487L8.856,75.18L47.575,52.758L58.756,38.709L58.42,26.6L45.102,5.435L30.088,-3.641L8.514,-4.43L-1.997,1.973L-3.985,22.022L-6.455,51.046L0,71.487ZM9.398,91.033C8.42,91.033 7.439,90.841 6.512,90.455L-8.989,83.99C-11.029,83.139 -12.589,81.433 -13.254,79.326L-21.205,54.146C-21.5,53.213 -21.609,52.229 -21.526,51.253L-18.927,20.697C-18.924,20.662 -18.92,20.628 -18.917,20.592L-16.554,-3.227C-16.322,-5.57 -15.003,-7.667 -12.993,-8.892L2.634,-18.412C3.89,-19.177 5.343,-19.546 6.81,-19.502L32.578,-18.56C33.852,-18.513 35.093,-18.143 36.184,-17.483L54.383,-6.482C55.383,-5.877 56.228,-5.047 56.851,-4.058L72.208,20.348C72.924,21.485 73.321,22.793 73.358,24.134L73.826,41.029C73.875,42.797 73.298,44.524 72.198,45.907L58.429,63.208C57.846,63.941 57.13,64.558 56.319,65.028L13.158,90.023C12,90.693 10.702,91.033 9.398,91.033" style="fill:rgb(241,147,0);fill-rule:nonzero;"/>
        </g>
        <g transform="matrix(1,0,0,1,536.116,659.179)">
            <path d="M0,-1.094C1.619,-1.094 3.244,-0.572 4.604,0.486L13.784,7.628C15.303,8.809 16.274,10.496 16.578,12.317L22.098,-3.34L15.739,-22.498L-10.946,-44.485L-38.958,-39.865C-39.627,-39.755 -40.307,-39.737 -40.981,-39.808L-55.171,-41.335L-69.66,-17.251L-65.919,-12.136L-64.707,-15.208C-63.839,-17.407 -61.985,-19.069 -59.704,-19.691C-57.422,-20.314 -54.981,-19.823 -53.118,-18.369L-48.024,-14.397C-47.806,-14.226 -47.596,-14.043 -47.397,-13.849C-46.781,-15.649 -45.488,-17.189 -43.721,-18.094C-40.942,-19.518 -37.571,-19.07 -35.26,-16.97L-29.27,-11.53C-28.446,-13.238 -26.994,-14.593 -25.18,-15.282C-22.798,-16.19 -20.118,-15.823 -18.064,-14.31L-8.197,-7.038C-6.574,-5.842 -5.5,-4.042 -5.22,-2.045L-4.838,0.674C-3.449,-0.499 -1.728,-1.094 0,-1.094M-6.103,59.094C-6.817,59.094 -7.539,58.992 -8.246,58.781C-11.107,57.927 -13.189,55.458 -13.548,52.494L-15.67,34.947C-16.017,32.082 -14.688,29.272 -12.255,27.721L-0.542,20.26L0.574,16.356L0.494,16.294L-5.062,21.587C-7.098,23.525 -10.047,24.162 -12.701,23.24C-15.356,22.316 -17.271,19.985 -17.662,17.201L-19.039,7.41C-19.935,8.497 -21.134,9.329 -22.521,9.777C-25.079,10.6 -27.88,9.998 -29.868,8.191L-30.977,7.184C-31.412,9.48 -32.906,11.493 -35.088,12.546C-37.958,13.932 -41.391,13.35 -43.647,11.097L-54.632,0.126L-56.962,6.031C-57.966,8.573 -60.272,10.369 -62.983,10.717C-65.694,11.063 -68.379,9.911 -69.993,7.705L-84.71,-12.42C-86.492,-14.858 -86.639,-18.126 -85.083,-20.713L-65.556,-53.171C-64.05,-55.674 -61.228,-57.075 -58.327,-56.762L-40.391,-54.831L-10.026,-59.839C-7.89,-60.188 -5.707,-59.604 -4.037,-58.227L26.946,-32.7C28.036,-31.803 28.85,-30.615 29.295,-29.275L37.143,-5.629C37.667,-4.05 37.651,-2.342 37.098,-0.773L29.833,19.831C29.532,20.684 29.079,21.476 28.496,22.169L-0.366,56.426C-1.814,58.145 -3.927,59.094 -6.103,59.094" style="fill:rgb(241,147,0);fill-rule:nonzero;"/>
        </g>
        <g transform="matrix(1,0,0,1,581.361,691.327)">
            <path d="M0,1.786L40.273,26.586L45.52,25.989L45.42,25.932C44.482,25.402 43.671,24.676 43.04,23.803L8.395,-24.07L-1.793,-22.471L-4.351,-16.889L0,1.786ZM38.547,41.83C37.164,41.83 35.802,41.447 34.614,40.717L-10.527,12.92C-12.231,11.87 -13.445,10.183 -13.899,8.235L-19.541,-15.981C-19.918,-17.599 -19.747,-19.297 -19.055,-20.807L-13.752,-32.379C-12.705,-34.665 -10.582,-36.274 -8.098,-36.664L10.611,-39.603C13.399,-40.044 16.196,-38.877 17.851,-36.59L54.233,13.685L72.993,24.307C75.82,25.908 77.295,29.147 76.647,32.331C75.998,35.515 73.374,37.919 70.145,38.286L39.394,41.782C39.112,41.814 38.829,41.83 38.547,41.83" style="fill:rgb(241,147,0);fill-rule:nonzero;"/>
        </g>
        <g transform="matrix(1,0,0,1,503.585,774.152)">
            <path d="M0,-0.217L10.905,26.21L57.254,7.594L66.835,-3.592L68.56,-17.832L55.754,-28.171L36.866,-26.025L0,-0.217ZM6.809,43.44C3.86,43.44 1.066,41.69 -0.127,38.8L-16.159,-0.052C-17.499,-3.3 -16.405,-7.042 -13.527,-9.058L29.824,-39.406C30.849,-40.123 32.036,-40.572 33.279,-40.714L57.178,-43.43C59.171,-43.657 61.174,-43.074 62.736,-41.814L81.217,-26.893C83.229,-25.268 84.262,-22.722 83.951,-20.155L81.454,0.465C81.276,1.934 80.667,3.318 79.704,4.442L67.451,18.747C66.666,19.664 65.67,20.378 64.55,20.828L9.602,42.898C8.686,43.265 7.739,43.44 6.809,43.44" style="fill:rgb(241,147,0);fill-rule:nonzero;"/>
        </g>
        <g transform="matrix(1,0,0,1,331.94,691.045)">
            <path d="M0,18.297C0.646,19.459 1.418,20.549 2.306,21.543C3.336,22.691 4.511,23.696 5.798,24.539C8.285,21.16 12.045,16.781 17.584,11.818C17.64,11.764 17.698,11.711 17.756,11.659C23.375,6.65 28.196,3.366 31.859,1.253C31.155,-0.14 30.269,-1.439 29.219,-2.612C28.333,-3.601 27.338,-4.487 26.254,-5.253C23.768,-1.832 19.954,2.639 14.238,7.764C8.57,12.844 3.685,16.169 0,18.297M8.657,41.505C7.969,41.505 7.272,41.41 6.584,41.212C0.608,39.494 -4.735,36.152 -8.869,31.549C-12.798,27.149 -15.483,21.769 -16.649,15.974C-17.385,12.318 -15.322,8.676 -11.807,7.427C-11.138,7.19 -5.003,4.865 4.225,-3.405C13.796,-11.986 16.543,-17.94 16.57,-18C18.128,-21.458 22.022,-23.208 25.645,-22.079C31.347,-20.298 36.447,-17.026 40.395,-12.618C44.544,-7.984 47.292,-2.278 48.34,3.882C48.944,7.429 46.944,10.905 43.574,12.166C42.473,12.577 36.567,15.013 27.874,22.734C27.764,22.839 27.651,22.942 27.534,23.043C18.925,30.772 15.877,36.341 15.353,37.381C14.053,39.959 11.43,41.505 8.657,41.505" style="fill:rgb(241,147,0);fill-rule:nonzero;"/>
        </g>
        <g transform="matrix(1,0,0,1,322.246,667.451)">
            <path d="M0,42.805C-1.364,42.805 -2.72,42.434 -3.914,41.702C-5.946,40.46 -7.267,38.326 -7.473,35.953C-8.382,25.462 -4.433,15.429 3.365,8.427C9.434,2.991 17.262,0 25.413,0C27.563,0 29.723,0.21 31.832,0.624C34.146,1.077 36.111,2.593 37.139,4.715C38.166,6.837 38.136,9.319 37.057,11.415C35.766,13.924 31.725,20.693 22.107,29.317C22.035,29.381 21.961,29.445 21.886,29.507C12.625,37.778 5.48,41.172 2.825,42.252C1.916,42.622 0.956,42.805 0,42.805" style="fill:rgb(241,147,0);fill-rule:nonzero;"/>
        </g>
        <g transform="matrix(1,0,0,1,347.736,691.152)">
            <path d="M0,42.418C-1.887,42.418 -3.788,42.256 -5.649,41.936C-8.042,41.524 -10.088,39.979 -11.139,37.789C-12.19,35.6 -12.116,33.037 -10.94,30.912C-9.252,27.863 -5.117,21.579 3.621,13.743L3.621,13.744C3.665,13.705 3.71,13.664 3.753,13.627L3.789,13.595C12.563,5.759 19.33,2.303 22.582,0.94C24.826,0 27.387,0.208 29.451,1.496C31.515,2.784 32.826,4.994 32.967,7.423C33.555,17.543 29.58,27.223 22.06,33.98C15.982,39.424 8.151,42.418 0,42.418" style="fill:rgb(241,147,0);fill-rule:nonzero;"/>
        </g>
        <g transform="matrix(1,0,0,1,322.644,667.425)">
            <path d="M0,45.614C-1.281,45.614 -2.555,45.286 -3.694,44.641C-5.586,43.571 -6.92,41.732 -7.352,39.601C-7.586,38.442 -7.755,37.264 -7.869,36.001C-8.163,32.717 -6.278,29.626 -3.224,28.384C-1.705,27.765 3.859,25.204 11.682,18.179C11.751,18.117 11.823,18.055 11.895,17.996C19.925,10.752 22.819,5.553 23.321,4.578C24.851,1.604 28.164,0 31.445,0.652C32.615,0.884 33.79,1.182 34.938,1.54C36.987,2.179 38.664,3.666 39.544,5.624C40.425,7.582 40.424,9.823 39.543,11.78C38.613,13.845 34.708,21.364 23.534,31.384C12.679,41.113 4.698,44.404 2.51,45.181C1.695,45.47 0.846,45.614 0,45.614" style="fill:rgb(241,147,0);fill-rule:nonzero;"/>
        </g>
        <g transform="matrix(1,0,0,1,343.36,688.379)">
            <path d="M0,44.817C-0.423,44.817 -0.85,44.782 -1.277,44.708C-2.427,44.509 -3.595,44.237 -4.849,43.874C-6.992,43.254 -8.748,41.712 -9.639,39.667C-10.53,37.621 -10.465,35.285 -9.46,33.293C-8.131,30.656 -3.947,23.545 6.164,14.483C6.22,14.429 6.278,14.377 6.336,14.325C16.542,5.224 24.117,1.822 26.9,0.781C28.997,0 31.333,0.192 33.271,1.307C35.209,2.424 36.548,4.348 36.922,6.554C37.149,7.901 37.289,9.111 37.346,10.254C37.505,13.411 35.668,16.328 32.753,17.549C31.258,18.175 25.801,20.74 18.217,27.502C18.138,27.574 18.062,27.641 17.984,27.708C10.433,34.485 7.332,39.555 6.56,40.949C5.224,43.363 2.693,44.817 0,44.817" style="fill:rgb(241,147,0);fill-rule:nonzero;"/>
        </g>
        <g transform="matrix(1,0,0,1,490.787,926.612)">
            <path d="M0,14.522L32.838,21.615L71.295,17.243L95.359,8.063L92.773,4.685L70.761,11.915C70.156,12.113 69.529,12.234 68.894,12.274L30.435,14.709C29.816,14.748 29.196,14.71 28.587,14.596L-2.087,8.879C-3.327,8.648 -4.489,8.108 -5.465,7.309L-14.715,-0.265L-15.652,5.181L0,14.522ZM32.46,36.707C31.928,36.707 31.397,36.65 30.876,36.538L-4.37,28.924C-5.167,28.752 -5.93,28.452 -6.63,28.034L-27.759,15.424C-30.422,13.835 -31.833,10.77 -31.307,7.713L-27.317,-15.495C-26.865,-18.125 -25.048,-20.317 -22.548,-21.25C-20.047,-22.185 -17.239,-21.718 -15.174,-20.027L2.551,-5.514L30.418,-0.321L66.991,-2.636L93.151,-11.228C96.181,-12.22 99.508,-11.193 101.446,-8.662L113.382,6.927C114.821,8.807 115.288,11.256 114.642,13.534C113.996,15.812 112.312,17.651 110.1,18.495L75.756,31.595C75.168,31.819 74.555,31.968 73.93,32.04L33.307,36.659C33.025,36.691 32.743,36.707 32.46,36.707" style="fill:rgb(241,147,0);fill-rule:nonzero;"/>
        </g>
        <g transform="matrix(1,0,0,1,376.51,1295.84)">
            <path d="M0,5.676L-1.371,16.735L48.379,11.079L46.345,-6.818L41.484,-11.538L16.176,-8.707L14.255,-5.079C13.684,-4 12.857,-3.076 11.848,-2.388L0,5.676ZM-9.986,32.762C-11.976,32.762 -13.899,31.969 -15.315,30.538C-16.933,28.905 -17.711,26.62 -17.428,24.339L-14.468,0.463C-14.203,-1.678 -13.029,-3.6 -11.246,-4.814L1.869,-13.742L4.775,-19.229C5.936,-21.421 8.105,-22.897 10.57,-23.173L43.335,-26.838C45.563,-27.086 47.786,-26.326 49.394,-24.765L58.719,-15.711C59.963,-14.503 60.75,-12.9 60.946,-11.177L64.13,16.838C64.598,20.953 61.641,24.669 57.525,25.137L-9.138,32.714C-9.421,32.746 -9.705,32.762 -9.986,32.762" style="fill:rgb(241,147,0);fill-rule:nonzero;"/>
        </g>
        <g transform="matrix(1,0,0,1,392.577,1268.69)">
            <path d="M0,1.288L0.652,3.292L8.906,2.379L9.015,0.301L2.781,-1.37L0,1.288ZM-4.595,18.918C-7.808,18.918 -10.708,16.854 -11.722,13.739L-15.724,1.445C-16.616,-1.296 -15.858,-4.307 -13.773,-6.298L-4.532,-15.129C-2.639,-16.938 0.062,-17.63 2.592,-16.951L18.767,-12.614C22.187,-11.697 24.5,-8.513 24.314,-4.976L23.55,9.527C23.357,13.195 20.536,16.184 16.885,16.587L-3.765,18.872C-4.043,18.903 -4.32,18.918 -4.595,18.918" style="fill:rgb(241,147,0);fill-rule:nonzero;"/>
        </g>
        <g transform="matrix(1,0,0,1,535.764,1201.48)">
            <path d="M0,-179.625L62.211,-98.03L70.839,-67.594L81.264,-46.826L136.277,25.361L147.048,45.113L173.824,42.069L150.13,-0.428L119.681,-80.889L92.266,-111.656L67.498,-224.738L0,-179.625Z" style="fill:rgb(255,219,190);fill-rule:nonzero;"/>
        </g>
        <g transform="matrix(-0.123257,-0.992375,-0.992375,0.123257,568.081,982.712)">
            <path d="M-38.688,-39.367C-38.688,-39.367 -61.397,17.89 -57.35,23.786C-53.302,29.683 -38.688,34.666 -38.688,34.666L-13.809,-37.07L-38.688,-39.367Z" style="fill:rgb(255,201,158);fill-rule:nonzero;"/>
        </g>
        <g transform="matrix(1,0,0,1,694.774,1223.48)">
            <path d="M0,21.815L-4,7.854L10.79,0L21.778,6.531L20.637,19.41L0,21.815Z" style="fill:rgb(153,78,69);fill-rule:nonzero;"/>
        </g>
        <g transform="matrix(1,0,0,1,573.309,940.111)">
            <path d="M0,-42.273L13.622,-11.861L-31.404,1L-83.789,-1.274L-101.47,-19.116L-97.729,-43.273L-54.398,-39.48L0,-42.273Z" style="fill:rgb(255,219,190);fill-rule:nonzero;"/>
        </g>
        <g transform="matrix(1,0,0,1,513.446,1250.63)">
            <path d="M0,-226.237L-42.313,-132.761L-43.891,-101.166L-49.396,-78.586L-86.797,4.105L-92.862,25.77L-119.636,28.813L-106.085,-17.918L-94.471,-103.161L-74.659,-139.295L-75.901,-255.05L0,-226.237Z" style="fill:rgb(255,219,190);fill-rule:nonzero;"/>
        </g>
        <g transform="matrix(-0.928463,-0.371425,-0.371425,0.928463,464.056,981.29)">
            <path d="M-60.782,46.03L9.854,46.03L21.035,16.575L-62.202,12.785L-60.782,46.03Z" style="fill:rgb(255,201,158);fill-rule:nonzero;"/>
        </g>
        <g transform="matrix(1,0,0,1,598.214,1032.5)">
            <path d="M0,-94.398L41.255,-42.432L-12.86,-11.59L-68.236,3.901L-130.438,-15.174L-187.316,-46.962L-131.099,-98.299L0,-94.398Z" style="fill:rgb(240,237,220);fill-rule:nonzero;"/>
        </g>
        <g transform="matrix(1,0,0,1,476.825,823.778)">
            <path d="M0,3.361L-41.058,42.563L-126.1,-10.396L-136.374,-2.249L-159.463,-13.7L-162.521,-22.391L-145.258,-39.202L-39.009,0.972L-24.231,-25.199L0,3.361Z" style="fill:rgb(255,184,127);fill-rule:nonzero;"/>
        </g>
        <g transform="matrix(0.622448,-0.782661,-0.782661,-0.622448,308.95,776.768)">
            <rect x="-4.469" y="3.346" width="11.411" height="5.912" style="fill:rgb(145,127,78);"/>
        </g>
        <g transform="matrix(0.621075,-0.783751,-0.783751,-0.621075,280.028,674.602)">
            <path d="M-61.683,-28.769L-59.827,-28.769L-59.504,127.583L-61.348,127.593L-61.683,-28.769Z" style="fill:rgb(140,140,140);fill-rule:nonzero;"/>
        </g>
        <g transform="matrix(0.625286,-0.780396,-0.780396,-0.625286,274.341,682.273)">
            <path d="M-61.26,-28.766L-59.403,-28.766L-59.916,127.589L-61.773,127.577L-61.26,-28.766Z" style="fill:rgb(140,140,140);fill-rule:nonzero;"/>
        </g>
        <g transform="matrix(0.622269,-0.782803,-0.782803,-0.622269,268.209,690.559)">
            <path d="M-60.344,-28.176L-58.482,-28.176L-58.394,125.061L-60.251,125.058L-60.344,-28.176Z" style="fill:rgb(140,140,140);fill-rule:nonzero;"/>
        </g>
        <g transform="matrix(0.620744,-0.784013,-0.784013,-0.620744,261.774,700.437)">
            <path d="M-57.932,-26.948L-56.076,-26.948L-55.707,119.759L-57.561,119.761L-57.932,-26.948Z" style="fill:rgb(140,140,140);fill-rule:nonzero;"/>
        </g>
        <g transform="matrix(0.621452,-0.783452,-0.783452,-0.621452,255.031,712.091)">
            <path d="M-53.857,-25.023L-52.011,-25.023L-51.789,111.464L-53.641,111.457L-53.857,-25.023Z" style="fill:rgb(140,140,140);fill-rule:nonzero;"/>
        </g>
        <g transform="matrix(0.622651,-0.782499,-0.782499,-0.622651,234.365,721.897)">
            <rect x="-42.557" y="-19.623" width="1.862" height="107.878" style="fill:rgb(140,140,140);"/>
        </g>
        <g transform="matrix(0.622915,-0.78229,-0.78229,-0.622915,207.958,734.597)">
            <rect x="-25.442" y="-11.376" width="1.838" height="64.164" style="fill:rgb(140,140,140);"/>
        </g>
        <g transform="matrix(0.622388,-0.782709,-0.782709,-0.622388,285.831,667.469)">
            <path d="M-61.554,-28.77L-59.701,-28.77L-59.629,127.582L-61.486,127.588L-61.554,-28.77Z" style="fill:rgb(140,140,140);fill-rule:nonzero;"/>
        </g>
        <g transform="matrix(0.622584,-0.782553,-0.782553,-0.622584,291.452,660.955)">
            <rect x="-60.867" y="-28.449" width="1.88" height="154.652" style="fill:rgb(140,140,140);"/>
        </g>
        <g transform="matrix(0.62345,-0.781863,-0.781863,-0.62345,296.48,657.151)">
            <path d="M-57.673,-26.946L-55.811,-26.946L-55.96,119.763L-57.805,119.757L-57.673,-26.946Z" style="fill:rgb(140,140,140);fill-rule:nonzero;"/>
        </g>
        <g transform="matrix(0.624761,-0.780816,-0.780816,-0.624761,301.461,653.608)">
            <path d="M-54.231,-25.339L-52.373,-25.339L-52.733,112.855L-54.591,112.843L-54.231,-25.339Z" style="fill:rgb(140,140,140);fill-rule:nonzero;"/>
        </g>
        <g transform="matrix(0.622598,-0.782542,-0.782542,-0.622598,293.367,649.611)">
            <rect x="-43.118" y="-19.888" width="1.876" height="109.298" style="fill:rgb(140,140,140);"/>
        </g>
        <g transform="matrix(0.622717,-0.782447,-0.782447,-0.622717,179.288,708.056)">
            <rect x="-18.163" y="35.968" width="92.751" height="1.706" style="fill:rgb(140,140,140);"/>
        </g>
        <g transform="matrix(0.62267,-0.782484,-0.782484,-0.62267,187.131,717.504)">
            <rect x="-19.857" y="39.472" width="101.717" height="1.699" style="fill:rgb(140,140,140);"/>
        </g>
        <g transform="matrix(0.622738,-0.78243,-0.78243,-0.622738,194.705,723.021)">
            <rect x="-20.259" y="40.317" width="103.871" height="1.706" style="fill:rgb(140,140,140);"/>
        </g>
        <g transform="matrix(0.622721,-0.782444,-0.782444,-0.622721,163.603,686.804)">
            <rect x="-14.078" y="27.496" width="71.099" height="1.706" style="fill:rgb(140,140,140);"/>
        </g>
        <g transform="matrix(0.622694,-0.782465,-0.782465,-0.622694,171.608,697.123)">
            <rect x="-16.094" y="31.669" width="81.773" height="1.702" style="fill:rgb(140,140,140);"/>
        </g>
        <g transform="matrix(0.622762,-0.782411,-0.782411,-0.622762,200.703,735.881)">
            <rect x="-22.28" y="44.504" width="114.579" height="1.712" style="fill:rgb(140,140,140);"/>
        </g>
        <g transform="matrix(0.622697,-0.782463,-0.782463,-0.622697,209.383,741.638)">
            <rect x="-23.175" y="46.365" width="119.33" height="1.695" style="fill:rgb(140,140,140);"/>
        </g>
        <g transform="matrix(0.622705,-0.782456,-0.782456,-0.622705,216.046,746.942)">
            <rect x="-23.175" y="46.365" width="119.331" height="1.694" style="fill:rgb(140,140,140);"/>
        </g>
        <g transform="matrix(0.622707,-0.782455,-0.782455,-0.622707,222.71,752.244)">
            <rect x="-23.177" y="46.364" width="119.334" height="1.697" style="fill:rgb(140,140,140);"/>
        </g>
        <g transform="matrix(0.622698,-0.782462,-0.782462,-0.622698,229.375,757.547)">
            <rect x="-23.178" y="46.364" width="119.332" height="1.697" style="fill:rgb(140,140,140);"/>
        </g>
        <g transform="matrix(0.622693,-0.782466,-0.782466,-0.622693,236.039,762.852)">
            <rect x="-23.177" y="46.364" width="119.331" height="1.694" style="fill:rgb(140,140,140);"/>
        </g>
        <g transform="matrix(0.622685,-0.782473,-0.782473,-0.622685,242.705,768.156)">
            <rect x="-23.177" y="46.364" width="119.332" height="1.694" style="fill:rgb(140,140,140);"/>
        </g>
        <g transform="matrix(0.622768,-0.782407,-0.782407,-0.622768,248,770.123)">
            <rect x="-21.66" y="43.218" width="111.297" height="1.706" style="fill:rgb(140,140,140);"/>
        </g>
        <g transform="matrix(0.622772,-0.782403,-0.782403,-0.622772,254.183,772.922)">
            <rect x="-20.725" y="41.281" width="106.346" height="1.705" style="fill:rgb(140,140,140);"/>
        </g>
        <g transform="matrix(0.622678,-0.782478,-0.782478,-0.622678,260.926,773.673)">
            <rect x="-19.388" y="38.504" width="99.237" height="1.701" style="fill:rgb(140,140,140);"/>
        </g>
        <g transform="matrix(0.622723,-0.782442,-0.782442,-0.622723,266.492,774.44)">
            <rect x="-17.614" y="34.824" width="89.839" height="1.704" style="fill:rgb(140,140,140);"/>
        </g>
        <g transform="matrix(1,0,0,1,257.582,723.2)">
            <path d="M0,35.925L24.18,5.536L38.741,34.651L31.639,43.581L0,35.925ZM-17.979,48.603C8.927,36.236 41.333,51.303 41.333,51.303L48.443,42.371C48.443,42.371 26.924,13.622 32.935,-15.378L-17.979,48.603Z" style="fill:rgb(79,74,60);fill-rule:nonzero;"/>
        </g>
        <g transform="matrix(1,0,0,1,139.268,744.658)">
            <path d="M0,-104.953C-21.667,-77.738 -7.271,-30.225 32.158,1.154C53.796,18.375 78.885,27.229 100.336,27.145L151.25,-36.836C146.494,-57.719 132.228,-80.239 110.614,-97.435C71.194,-128.809 21.672,-132.182 0,-104.953M5.335,-100.72C14.171,-111.82 29.185,-117.25 47.601,-115.992C67.188,-114.659 87.926,-106.01 105.996,-91.63C124.629,-76.801 138.141,-57.447 143.517,-38.057L97.397,19.89C77.334,19.027 55.443,10.198 36.777,-4.652C18.707,-19.04 5.618,-37.307 -0.077,-56.096C-5.428,-73.76 -3.514,-89.608 5.335,-100.72" style="fill:rgb(145,127,78);fill-rule:nonzero;"/>
        </g>
        <g transform="matrix(0.606748,-0.794894,-0.794894,-0.606748,405.537,800.526)">
            <path d="M-46.844,-16.292L-35.735,-16.292L-32.712,94.399L-44.12,94.627L-46.844,-16.292Z" style="fill:rgb(135,69,61);fill-rule:nonzero;"/>
        </g>
        <g transform="matrix(1,0,0,1,481.392,825.119)">
            <path d="M0,-75.653L-9.183,-69.762L-30.403,-29.261L-3.83,0L14.579,-39.698L14.081,-61.109L7.279,-72.601L0,-75.653Z" style="fill:rgb(188,87,121);fill-rule:nonzero;"/>
        </g>
        <g transform="matrix(1,0,0,1,531.269,907.95)">
            <path d="M0,-185.213L29.904,-163.675L38.546,-130.282L35.361,-64.556L48.572,-7.95L-21.371,0L-57.908,-11.829L-52.43,-74.422L-71.382,-92.119L-51.396,-150.562L-49.876,-158.484L-28.887,-176.843L0,-185.213Z" style="fill:rgb(240,139,123);fill-rule:nonzero;"/>
        </g>
        <g transform="matrix(1,0,0,1,343.106,788.931)">
            <path d="M0,28.304L10.824,19.111L-15.073,0L-25.963,15.036L-22.833,21.217L0,28.304Z" style="fill:rgb(255,184,127);fill-rule:nonzero;"/>
        </g>
        <g transform="matrix(1,0,0,1,494.359,819.277)">
            <path d="M0,-48.038L-34.809,-27.624L-61.175,-35.275L-146.666,-43.311L-156.933,-56.993L-181.788,-54.167L-182.963,-49.426L-176.017,-43.81L-183.914,-27.461L-180.155,-19.934L-162.58,-7.286L-150.049,-10.645L-142.11,-20.267L-55.06,4.375L-44.203,8.955L-32.992,2.515L16.408,-14.398L0,-48.038Z" style="fill:rgb(255,219,190);fill-rule:nonzero;"/>
        </g>
        <g transform="matrix(1,0,0,1,528.199,744.794)">
            <path d="M0,-49.065L3.07,-22.057L-11.388,-3.226L-24.827,0L-29.864,-8.15L-32.281,-29.416L0,-49.065Z" style="fill:rgb(255,219,190);fill-rule:nonzero;"/>
        </g>
        <g transform="matrix(0.112934,0.993602,0.993602,-0.112934,529.546,724.381)">
            <path d="M-28.621,1.897L-15.029,1.897L-2.164,-32.396L-12.743,-32.396L-28.621,1.897Z" style="fill:rgb(255,184,127);fill-rule:nonzero;"/>
        </g>
        <g transform="matrix(1,0,0,1,473.772,712.08)">
            <path d="M0,-76.499L-2.363,-52.68L-4.962,-22.124L2.988,3.056L18.49,9.521L61.651,-15.475L75.42,-32.775L74.952,-49.67L59.594,-74.076L41.395,-85.077L15.627,-86.02L0,-76.499Z" style="fill:rgb(255,219,190);fill-rule:nonzero;"/>
        </g>
        <g transform="matrix(1,0,0,1,530.014,606.74)">
            <path d="M0,104.032L-2.123,86.485L11.988,77.495L15.281,65.986L6.101,58.844L-4.133,68.595L-6.545,51.437L-16.412,44.166L-18.724,55.078L-34.2,41.02L-32.245,58.229L-46.535,43.956L-51.628,39.983L-57.837,55.717L-72.554,35.592L-53.027,3.134L-34.076,5.174L-2.704,0L28.279,25.526L36.127,49.172L28.862,69.775L0,104.032Z" style="fill:rgb(102,63,48);fill-rule:nonzero;"/>
        </g>
        <g transform="matrix(1,0,0,1,574.427,722.719)">
            <path d="M0,-60.647L18.708,-63.585L56.049,-11.986L76.232,-0.558L45.481,2.938L0.339,-24.859L-5.303,-49.075L0,-60.647Z" style="fill:rgb(102,63,48);fill-rule:nonzero;"/>
        </g>
        <g transform="matrix(1,0,0,1,569.125,648.041)">
            <path d="M0,33.103C-0.059,33.103 -0.118,33.102 -0.178,33.101L-9.339,32.885C-11.741,32.829 -13.971,31.624 -15.335,29.647C-16.7,27.67 -17.035,25.159 -16.236,22.893L-10.058,5.376C-9.266,3.129 -7.453,1.393 -5.174,0.698C-2.896,0 -0.423,0.431 1.49,1.851L9.776,8.011C12.618,10.124 13.595,13.936 12.12,17.155L6.817,28.727C5.594,31.398 2.927,33.103 0,33.103" style="fill:rgb(241,147,0);fill-rule:nonzero;"/>
        </g>
        <g transform="matrix(0.802561,0.59657,0.59657,-0.802561,571.638,657.033)">
            <path d="M-5.081,-2.38L5.245,-2.38L7.892,-14.83L0.411,-20.124L-5.081,-2.38Z" style="fill:rgb(188,87,121);fill-rule:nonzero;"/>
        </g>
        <g transform="matrix(1,0,0,1,494.359,777.027)">
            <path d="M0,-5.788L43.352,-36.137L67.25,-38.852L85.731,-23.932L83.234,-3.311L70.981,10.993L16.032,33.064L0,-5.788Z" style="fill:rgb(188,87,121);fill-rule:nonzero;"/>
        </g>
        <g transform="matrix(1,0,0,1,322.644,695.635)">
            <path d="M0,9.904C1.567,9.347 8.573,6.511 18.527,-2.41C28.826,-11.644 32.182,-18.349 32.705,-19.51C36.952,-18.184 40.92,-15.76 44.103,-12.205C47.438,-8.482 49.461,-4.044 50.243,0.55C48.378,1.248 41.577,4.167 32.043,12.667C31.997,12.717 31.95,12.758 31.896,12.803C22.568,21.161 18.949,27.438 17.953,29.414C13.496,28.133 9.333,25.651 6.008,21.948C2.852,18.413 0.873,14.243 0,9.904" style="fill:rgb(195,204,104);fill-rule:nonzero;"/>
        </g>
        <g transform="matrix(1,0,0,1,330.622,695.241)">
            <path d="M0,-13.783C6.218,-19.352 14.412,-21.298 22.012,-19.806C21.097,-18.027 17.596,-12.013 8.724,-4.057L8.715,-4.056C0.101,3.679 -6.271,6.658 -8.376,7.515C-9.049,-0.236 -6.23,-8.188 0,-13.783" style="fill:rgb(195,204,104);fill-rule:nonzero;"/>
        </g>
        <g transform="matrix(1,0,0,1,356.364,715.505)">
            <path d="M0,-5.026C0.054,-5.077 0.103,-5.112 0.157,-5.165C8.41,-12.536 14.562,-15.536 16.852,-16.495C17.288,-8.988 14.445,-1.367 8.419,4.048C2.356,9.479 -5.571,11.469 -13.006,10.191C-11.752,7.926 -8.129,2.264 0,-5.026" style="fill:rgb(195,204,104);fill-rule:nonzero;"/>
        </g>
        <g transform="matrix(1,0,0,1,322.246,678.218)">
            <path d="M0,24.538C2.106,23.682 8.478,20.702 17.091,12.967L17.101,12.966C25.973,5.01 29.473,-1.004 30.389,-2.783C31.302,-2.603 32.208,-2.372 33.103,-2.093C32.58,-0.932 29.224,5.773 18.925,15.007C8.971,23.929 1.965,26.765 0.398,27.321C0.211,26.399 0.084,25.475 0,24.538" style="fill:rgb(237,223,59);fill-rule:nonzero;"/>
        </g>
        <g transform="matrix(1,0,0,1,354.539,713.443)">
            <path d="M0,-5.005C0.054,-5.05 0.102,-5.092 0.148,-5.142C9.682,-13.642 16.483,-16.561 18.348,-17.258C18.506,-16.32 18.628,-15.382 18.676,-14.433C16.387,-13.474 10.235,-10.474 1.981,-3.103C1.927,-3.05 1.879,-3.015 1.825,-2.964C-6.305,4.326 -9.928,9.988 -11.181,12.253C-12.115,12.092 -13.035,11.868 -13.943,11.605C-12.947,9.63 -9.327,3.352 0,-5.005" style="fill:rgb(237,223,59);fill-rule:nonzero;"/>
        </g>
        <g transform="matrix(1,0,0,1,586.278,945.697)">
            <path d="M0,-23.187L-27.071,-14.296L-65.53,-11.862L-96.205,-17.579L-115.417,-33.309L-119.407,-10.101L-98.278,2.508L-63.031,10.122L-22.408,5.502L11.936,-7.598L0,-23.187Z" style="fill:rgb(189,123,68);fill-rule:nonzero;"/>
        </g>
        <g transform="matrix(1,0,0,1,387.913,1317.43)">
            <path d="M0,-37.316L-3.776,-30.185L-18.429,-20.211L-21.389,3.665L45.275,-3.912L42.091,-31.926L32.766,-40.981L0,-37.316Z" style="fill:rgb(219,111,99);fill-rule:nonzero;"/>
        </g>
        <g transform="matrix(1,0,0,1,408.637,1261.27)">
            <path d="M0,16.555L0.764,2.052L-15.411,-2.285L-24.652,6.546L-20.65,18.84L0,16.555Z" style="fill:rgb(153,78,69);fill-rule:nonzero;"/>
        </g>
    </g>
</svg>
