<?xml version="1.0" encoding="UTF-8" standalone="no"?>
<!DOCTYPE svg PUBLIC "-//W3C//DTD SVG 1.1//EN" "http://www.w3.org/Graphics/SVG/1.1/DTD/svg11.dtd">
<svg width="100%" height="100%" viewBox="0 0 515 98" version="1.1" xmlns="http://www.w3.org/2000/svg" xmlns:xlink="http://www.w3.org/1999/xlink" xml:space="preserve" xmlns:serif="http://www.serif.com/" style="fill-rule:evenodd;clip-rule:evenodd;stroke-linejoin:round;stroke-miterlimit:2;">
    <g transform="matrix(1.00001,0,0,1.00001,-710.339,-3709.95)">
        <g transform="matrix(1,0,0,1,779.639,3721.11)">
            <path d="M0,84.676L-11.156,84.676C-14.884,84.676 -18.178,82.822 -20.168,79.986L-31.634,79.986C-33.624,82.822 -36.918,84.676 -40.646,84.676L-51.305,84.676C-57.38,84.676 -62.305,79.751 -62.305,73.676L-62.305,11C-62.305,4.925 -57.38,0 -51.305,0L0,0C6.075,0 11,4.925 11,11L11,73.676C11,79.751 6.075,84.676 0,84.676" style="fill:rgb(177,239,151);fill-rule:nonzero;"/>
        </g>
        <g transform="matrix(1,0,0,1,831.009,3717.03)">
            <path d="M0,89.615L-10.73,89.615C-13.942,89.615 -16.833,88.238 -18.845,86.042C-19.832,86.332 -20.876,86.488 -21.958,86.488L-32.474,86.488C-38.549,86.488 -43.474,81.563 -43.474,75.488L-43.474,52.038C-43.474,50.593 -43.196,49.214 -42.689,47.949C-46.002,46.054 -48.235,42.485 -48.235,38.394L-48.235,20.133C-48.235,15.541 -45.422,11.606 -41.424,9.959C-40.204,7.642 -38.184,5.813 -35.698,4.842L-26.247,1.146C-23.314,0 -20.104,0.185 -17.387,1.52C-15.764,0.577 -13.878,0.037 -11.867,0.037L-1.137,0.037C1.01,0.037 3.014,0.652 4.707,1.716C7.073,0.562 9.847,0.261 12.535,1.026L23.762,4.223C27.072,5.166 29.727,7.594 30.978,10.754C34.126,12.689 36.227,16.166 36.227,20.133L36.227,38.394C36.227,42.201 34.293,45.555 31.355,47.53C31.974,48.906 32.318,50.431 32.318,52.038L32.318,66.535C32.318,75.565 28.796,81.788 21.848,85.029C21.788,85.057 21.727,85.086 21.666,85.112C16.605,87.363 11.251,87.54 6.413,87.553C4.607,88.851 2.393,89.615 0,89.615" style="fill:rgb(177,239,151);fill-rule:nonzero;"/>
        </g>
        <g transform="matrix(1,0,0,1,911.584,3715.98)">
            <path d="M0,90.663L-10.375,90.663C-13.632,90.663 -16.559,89.247 -18.573,86.997C-19.45,87.321 -20.373,87.535 -21.32,87.627C-22.172,87.711 -23.023,87.692 -23.857,87.58C-25.812,89.362 -28.412,90.449 -31.266,90.449L-41.073,90.449C-47.148,90.449 -52.073,85.524 -52.073,79.449L-52.073,56.982C-53.434,55.753 -54.487,54.183 -55.102,52.39C-55.661,50.762 -58.028,45.921 -59.178,44.195C-62.114,39.794 -61.5,33.926 -57.716,30.226C-52.492,25.12 -47.229,16.612 -44.309,8.551C-42.286,2.969 -36.202,0 -30.557,1.84L-23.498,4.141L14.354,4.141C20.43,4.141 25.354,9.065 25.354,15.141L25.354,38.014C27.331,40.002 28.552,42.742 28.552,45.767L28.552,55.076C28.552,57.638 27.677,59.995 26.208,61.864C27.114,63.423 27.912,64.918 28.559,66.283C30.981,71.396 29.13,77.514 24.278,80.426L16.106,85.329C13.791,86.718 11.064,87.199 8.444,86.713C6.427,89.127 3.393,90.663 0,90.663" style="fill:rgb(177,239,151);fill-rule:nonzero;"/>
        </g>
        <g transform="matrix(1,0,0,1,947.178,3719.76)">
            <path d="M0,87.375C-2.67,87.375 -5.266,86.402 -7.288,84.613C-8.287,83.74 -11.778,81.563 -13.037,81.029C-16.144,79.711 -18.474,77.038 -19.357,73.78C-20.24,70.522 -19.578,67.039 -17.561,64.332C-15.905,62.108 -15.047,58.959 -14.603,55.882C-19.173,54.546 -22.511,50.324 -22.511,45.322L-22.511,29.191C-22.511,23.544 -18.255,18.891 -12.776,18.264L-12.776,11C-12.776,4.925 -7.851,0 -1.776,0L40.576,0C46.651,0 51.576,4.925 51.576,11L51.576,18.196C57.493,18.377 62.235,23.23 62.235,29.191L62.235,45.322C62.235,50.748 58.308,55.257 53.14,56.158L53.14,66.711C53.14,75.604 49.528,81.624 42.405,84.604C37.268,86.807 31.399,86.807 25.725,86.807C20.492,86.807 16.002,83.124 14.952,78.032C13.76,78.228 12.602,78.418 11.484,78.603C10.728,80.045 9.906,81.403 9.018,82.674C7.222,85.245 4.414,86.928 1.299,87.298C0.865,87.35 0.432,87.375 0,87.375" style="fill:rgb(177,239,151);fill-rule:nonzero;"/>
        </g>
        <g transform="matrix(1,0,0,1,1034.36,3718.39)">
            <path d="M0,88.181C-2.802,88.181 -5.518,87.11 -7.573,85.158C-8.105,84.68 -9.423,83.78 -10.539,83.097C-12.254,84.201 -14.295,84.841 -16.485,84.841L-25.226,84.841C-31.301,84.841 -36.226,79.916 -36.226,73.841L-36.226,63.035C-37.348,61.54 -38.093,59.756 -38.34,57.827C-38.578,55.961 -40.113,50.243 -40.972,48.301C-42.622,44.566 -42.068,40.224 -39.532,37.023C-38.467,35.678 -37.166,33.591 -35.874,30.407C-38.385,28.39 -39.991,25.295 -39.991,21.826L-39.991,12.516C-39.991,6.441 -35.066,1.516 -28.991,1.516L-3.552,1.516C-0.976,1.516 1.394,2.402 3.269,3.885C5.216,0.796 8.658,-1.256 12.579,-1.256L21.675,-1.256C27.44,-1.256 32.169,3.18 32.637,8.825L38.262,9.875C44.038,10.954 47.946,16.383 47.137,22.203C46.606,26.008 45.869,29.946 45.041,33.476C46.284,35.679 46.771,38.312 46.262,40.959C45.024,47.382 43.252,53.154 40.901,58.374C40.938,58.388 40.976,58.401 41.013,58.413C44.715,59.709 47.447,62.879 48.184,66.733C48.92,70.586 47.548,74.539 44.583,77.109C43.659,77.91 41.536,80.611 40.712,82.172C38.015,87.284 31.822,89.437 26.532,87.098C24.108,86.025 21.77,84.779 19.532,83.369C17.4,84.731 15.182,85.959 12.889,87.048C10.042,88.398 6.903,88.421 4.176,87.358C3.277,87.727 2.324,87.979 1.34,88.099C0.893,88.154 0.445,88.181 0,88.181" style="fill:rgb(177,239,151);fill-rule:nonzero;"/>
        </g>
        <g transform="matrix(1,0,0,1,1081.25,3715.98)">
            <path d="M0,91.013C-3.603,91.013 -7.007,89.242 -9.07,86.234L-15.893,76.284C-18.763,72.099 -18.396,66.492 -15.006,62.715C-14.252,61.876 -13.471,61.068 -12.666,60.294C-13.021,59.912 -13.352,59.504 -13.652,59.07C-15.708,56.11 -16.184,52.329 -14.924,48.952C-14.452,47.689 -13.978,46.366 -13.509,45.014C-15.262,43.066 -16.328,40.488 -16.328,37.66L-16.328,28.493C-16.328,24.776 -14.483,21.489 -11.66,19.497C-11.814,19.038 -11.963,18.586 -12.105,18.146C-13.012,15.327 -12.742,12.262 -11.36,9.643C-9.978,7.025 -7.598,5.075 -4.758,4.233L4.835,1.39C9.526,0 14.464,1.887 17.091,5.799L20.519,4.461C22.321,3.758 24.21,3.559 26.016,3.81C27.704,2.755 29.699,2.145 31.837,2.145L42.069,2.145C44.177,2.145 46.146,2.738 47.819,3.765C49.813,3.317 51.91,3.425 53.872,4.112L64.033,7.664C67.12,8.743 69.566,11.141 70.709,14.204C71.852,17.269 71.571,20.683 69.945,23.52C69.481,24.327 69.021,25.129 68.563,25.922C69.987,27.776 70.834,30.097 70.834,32.616L70.834,42.067C70.834,44.729 69.889,47.17 68.314,49.073C69.097,50.242 69.803,51.367 70.399,52.419C71.844,54.969 72.166,57.872 71.495,60.533C73.919,63.643 74.494,67.816 72.995,71.469C71.904,74.126 70.926,77.424 70.812,78.489C70.519,84.04 66.136,88.402 60.59,88.784C53.958,89.241 41.649,89.734 33.329,89.734C23.814,89.734 16.347,89.034 9.4,85.73C7.622,88.654 4.559,90.614 1.093,90.959C0.728,90.995 0.362,91.013 0,91.013" style="fill:rgb(177,239,151);fill-rule:nonzero;"/>
        </g>
        <g transform="matrix(1,0,0,1,1187.77,3720.05)">
            <path d="M0,85.314L-10.446,85.314C-17.447,85.314 -22.88,83.91 -26.78,81.066C-29.947,82.672 -33.818,82.706 -37.118,80.868L-46.428,75.68C-49.197,74.136 -51.166,71.473 -51.83,68.373C-52.493,65.272 -51.786,62.036 -49.891,59.495C-47.81,56.704 -45.825,52.321 -44.628,47.906C-44.757,47.23 -44.825,46.533 -44.825,45.819L-44.825,11C-44.825,4.924 -39.9,0 -33.825,0L18.12,0C24.195,0 29.12,4.924 29.12,11L29.12,45.819C29.12,46.248 29.096,46.67 29.048,47.086C31.876,51.491 35.499,57.915 37.025,63.935C38.361,69.203 35.65,74.657 30.645,76.772L20.554,81.036C18.404,81.943 16.045,82.134 13.817,81.626C10.535,83.888 6.077,85.314 0,85.314" style="fill:rgb(177,239,151);fill-rule:nonzero;"/>
        </g>
        <g transform="matrix(1,0,0,1,779.639,3723.11)">
            <path d="M0,80.676L-11.156,80.676C-14.565,80.676 -17.532,78.78 -19.059,75.986L-32.743,75.986C-34.27,78.78 -37.237,80.676 -40.646,80.676L-51.305,80.676C-56.276,80.676 -60.305,76.647 -60.305,71.676L-60.305,9C-60.305,4.03 -56.276,0 -51.305,0L0,0C4.971,0 9,4.03 9,9L9,71.676C9,76.647 4.971,80.676 0,80.676" style="fill:rgb(177,239,151);fill-rule:nonzero;"/>
        </g>
        <g transform="matrix(1,0,0,1,831.009,3718.96)">
            <path d="M0,85.686L-10.73,85.686C-13.831,85.686 -16.565,84.118 -18.184,81.732C-19.331,82.263 -20.61,82.559 -21.958,82.559L-32.474,82.559C-37.445,82.559 -41.474,78.53 -41.474,73.559L-41.474,50.109C-41.474,48.237 -40.902,46.498 -39.924,45.057C-43.581,43.914 -46.235,40.499 -46.235,36.465L-46.235,18.204C-46.235,14.187 -43.604,10.785 -39.972,9.627C-39.03,7.419 -37.236,5.662 -34.97,4.776L-25.519,1.081C-22.762,0 -19.705,0.363 -17.305,1.936C-15.794,0.789 -13.91,0.108 -11.867,0.108L-1.137,0.108C1.033,0.108 3.024,0.876 4.579,2.155C6.706,0.758 9.395,0.28 11.987,1.02L23.214,4.217C26.141,5.051 28.442,7.304 29.343,10.198C32.243,11.692 34.227,14.716 34.227,18.204L34.227,36.465C34.227,40.245 31.897,43.48 28.596,44.813C29.679,46.299 30.318,48.129 30.318,50.109L30.318,64.606C30.318,67.657 30.318,76.941 21.002,81.288C20.953,81.311 20.903,81.333 20.854,81.356C15.936,83.542 10.547,83.623 5.731,83.625C4.175,84.913 2.178,85.686 0,85.686" style="fill:rgb(177,239,151);fill-rule:nonzero;"/>
        </g>
        <g transform="matrix(1,0,0,1,911.584,3718.22)">
            <path d="M0,86.426L-10.375,86.426C-13.559,86.426 -16.356,84.773 -17.957,82.278C-19.04,82.89 -20.25,83.277 -21.513,83.4C-22.533,83.499 -23.553,83.423 -24.531,83.182C-26.18,85.04 -28.586,86.212 -31.266,86.212L-41.073,86.212C-46.043,86.212 -50.073,82.183 -50.073,77.212L-50.073,53.803C-51.505,52.736 -52.612,51.249 -53.21,49.504C-53.824,47.715 -56.239,42.761 -57.514,40.849C-59.916,37.247 -59.413,32.446 -56.318,29.42C-50.896,24.119 -45.443,15.317 -42.428,6.994C-40.772,2.43 -35.793,0 -31.177,1.504L-23.802,3.907C-23.708,3.905 -23.615,3.904 -23.521,3.904L14.354,3.904C19.325,3.904 23.354,7.933 23.354,12.904L23.354,36.651C25.311,38.301 26.552,40.771 26.552,43.53L26.552,52.839C26.552,55.417 25.468,57.741 23.731,59.383C24.928,61.357 25.966,63.245 26.751,64.903C28.734,69.086 27.219,74.091 23.249,76.474L15.077,81.377C12.833,82.724 10.112,83.027 7.627,82.206C6.035,84.741 3.214,86.426 0,86.426" style="fill:rgb(177,239,151);fill-rule:nonzero;"/>
        </g>
        <g transform="matrix(1,0,0,1,947.178,3721.76)">
            <path d="M0,83.375C-2.185,83.375 -4.31,82.579 -5.964,81.114C-7.086,80.122 -10.79,77.81 -12.255,77.188C-14.798,76.109 -16.704,73.923 -17.426,71.257C-18.149,68.592 -17.607,65.742 -15.958,63.526C-13.712,60.513 -12.782,56.151 -12.397,52.279C-16.952,51.834 -20.511,47.994 -20.511,43.322L-20.511,27.191C-20.511,22.221 -16.482,18.191 -11.511,18.191L-10.776,18.191L-10.776,9C-10.776,4.029 -6.747,0 -1.776,0L40.576,0C45.547,0 49.576,4.029 49.576,9L49.576,18.191L51.235,18.191C56.206,18.191 60.235,22.221 60.235,27.191L60.235,43.322C60.235,48.293 56.206,52.322 51.235,52.322L51.14,52.322L51.14,64.711C51.14,67.696 51.14,76.782 41.634,80.759C37.205,82.657 32.243,82.807 25.725,82.807C21.341,82.807 17.596,79.648 16.854,75.328C16.78,74.898 16.641,74.354 16.457,73.76C14.246,74.121 12.134,74.467 10.159,74.795C9.323,76.493 8.396,78.072 7.379,79.528C5.909,81.633 3.611,83.009 1.062,83.313C0.708,83.354 0.353,83.375 0,83.375" style="fill:rgb(177,239,151);fill-rule:nonzero;"/>
        </g>
        <g transform="matrix(1,0,0,1,1034.36,3720.14)">
            <path d="M0,84.436C-2.3,84.436 -4.529,83.554 -6.213,81.948C-6.91,81.294 -9.279,79.702 -10.674,78.967C-12.241,80.295 -14.271,81.096 -16.486,81.096L-25.227,81.096C-30.197,81.096 -34.227,77.067 -34.227,72.096L-34.227,60.585C-35.368,59.27 -36.127,57.626 -36.356,55.829C-36.619,53.777 -38.187,47.91 -39.143,45.748C-40.493,42.691 -40.04,39.139 -37.966,36.52C-36.274,34.386 -34.752,31.474 -33.445,27.904C-36.161,26.354 -37.992,23.431 -37.992,20.081L-37.992,10.771C-37.992,5.8 -33.963,1.771 -28.992,1.771L-3.553,1.771C-0.468,1.771 2.256,3.324 3.877,5.69C4.896,1.838 8.405,-1.001 12.578,-1.001L21.674,-1.001C26.645,-1.001 30.674,3.029 30.674,7.999L30.674,8.78C30.926,8.805 31.178,8.841 31.428,8.888L37.894,10.096C42.619,10.979 45.817,15.421 45.154,20.183C44.592,24.225 43.793,28.412 42.903,32.076C44.207,33.996 44.765,36.409 44.297,38.836C42.938,45.892 40.92,52.133 38.186,57.7C38.898,58.015 39.62,58.301 40.351,58.556C43.381,59.617 45.616,62.21 46.218,65.363C46.82,68.515 45.698,71.75 43.272,73.852C42.061,74.903 39.835,77.802 38.942,79.494C36.734,83.676 31.667,85.437 27.341,83.524C24.615,82.318 22.003,80.885 19.525,79.238C17.139,80.836 14.635,82.26 12.03,83.496C9.437,84.726 6.546,84.609 4.155,83.419C3.211,83.911 2.177,84.237 1.096,84.37C0.729,84.414 0.363,84.436 0,84.436" style="fill:rgb(177,239,151);fill-rule:nonzero;"/>
        </g>
        <g transform="matrix(1,0,0,1,1081.25,3718)">
            <path d="M0,86.995C-2.947,86.995 -5.732,85.547 -7.421,83.085L-14.243,73.136C-16.592,69.711 -16.292,65.124 -13.518,62.033C-12.299,60.676 -11.004,59.402 -9.658,58.234C-10.566,57.62 -11.367,56.837 -12.01,55.911C-13.691,53.489 -14.08,50.396 -13.05,47.634C-12.436,45.985 -11.814,44.237 -11.209,42.456C-13.119,40.806 -14.328,38.365 -14.328,35.642L-14.328,26.475C-14.328,22.908 -12.253,19.825 -9.243,18.369C-9.582,17.39 -9.908,16.427 -10.201,15.516C-10.942,13.21 -10.723,10.701 -9.592,8.559C-8.46,6.417 -6.513,4.821 -4.19,4.133L5.402,1.29C9.765,0 14.374,2.162 16.191,6.279L21.245,4.307C22.964,3.636 24.777,3.526 26.467,3.903C27.966,2.787 29.824,2.127 31.837,2.127L42.069,2.127C44.091,2.127 45.956,2.793 47.459,3.918C49.318,3.312 51.341,3.327 53.212,3.981L63.373,7.534C65.898,8.418 67.9,10.379 68.835,12.886C69.77,15.392 69.541,18.185 68.21,20.507C67.504,21.739 66.803,22.958 66.111,24.148C67.791,25.783 68.834,28.068 68.834,30.598L68.834,40.049C68.834,42.758 67.638,45.187 65.743,46.837C66.866,48.449 67.867,49.988 68.659,51.387C70.018,53.785 70.162,56.565 69.256,58.985C69.47,59.205 69.674,59.436 69.867,59.679C71.893,62.23 72.382,65.678 71.145,68.691C69.94,71.626 68.906,75.182 68.82,76.284C68.58,80.827 64.99,84.458 60.452,84.77C53.854,85.225 41.607,85.716 33.329,85.716C23.278,85.716 15.612,84.926 8.505,81.005C8.432,81.172 8.358,81.344 8.283,81.52C6.996,84.544 4.164,86.625 0.895,86.951C0.596,86.98 0.297,86.995 0,86.995" style="fill:rgb(177,239,151);fill-rule:nonzero;"/>
        </g>
        <g transform="matrix(1,0,0,1,1187.77,3722.05)">
            <path d="M0,81.314L-10.446,81.314C-17.649,81.314 -22.994,79.789 -26.596,76.628C-29.349,78.557 -33.054,78.84 -36.145,77.121L-45.454,71.933C-47.72,70.669 -49.331,68.491 -49.874,65.954C-50.417,63.418 -49.839,60.769 -48.287,58.69C-45.99,55.61 -43.815,50.756 -42.571,45.952C-42.737,45.268 -42.825,44.554 -42.825,43.819L-42.825,9C-42.825,4.029 -38.796,0 -33.825,0L18.12,0C23.091,0 27.12,4.029 27.12,9L27.12,43.819C27.12,44.406 27.063,44.98 26.957,45.536C29.756,49.818 33.551,56.368 35.087,62.427C36.18,66.737 33.962,71.199 29.866,72.929L19.775,77.193C17.738,78.054 15.472,78.129 13.407,77.434C10.345,79.815 6.053,81.314 0,81.314" style="fill:rgb(177,239,151);fill-rule:nonzero;"/>
        </g>
        <g transform="matrix(1,0,0,1,0,1783.57)">
            <path d="M768.483,1982.22L738.993,1982.22L738.993,1996.08L768.483,1996.08L768.483,1982.22ZM738.993,1971.99L768.483,1971.99L768.483,1958.99L738.993,1958.99L738.993,1971.99ZM779.639,1948.54L779.639,2011.22L768.483,2011.22L768.483,2006.53L738.993,2006.53L738.993,2011.22L728.334,2011.22L728.334,1948.54L779.639,1948.54Z" style="fill:rgb(177,239,151);fill-rule:nonzero;"/>
        </g>
        <g transform="matrix(1,0,0,1,0,1780.38)">
            <path d="M815.518,1978.24L833.497,1978.24L833.497,1975.19L815.518,1975.19L815.518,1978.24ZM852.327,2003.19C852.327,2007.66 851.403,2010.22 848.206,2011.71C845.008,2013.13 841.028,2013.21 836.196,2013.21C835.699,2010.36 834.278,2006.38 832.928,2003.83C835.486,2003.97 839.323,2003.97 840.247,2003.97C841.312,2003.97 841.668,2003.76 841.668,2002.97L841.668,1997.86L831.009,1997.86L831.009,2015.27L820.279,2015.27L820.279,1997.86L809.051,1997.86L809.051,2012.14L798.535,2012.14L798.535,1988.69L820.279,1988.69L820.279,1985.35L805.641,1985.35L805.641,1968.08L844.084,1968.08L844.084,1985.35L831.009,1985.35L831.009,1988.69L852.327,1988.69L852.327,2003.19ZM856.235,1956.78L856.235,1975.05L845.932,1975.05L845.932,1965.6L803.651,1965.6L803.651,1975.05L793.773,1975.05L793.773,1956.78L802.443,1956.78C801.59,1955.08 800.453,1953.23 799.316,1951.74L808.767,1948.04C810.686,1950.17 812.604,1953.16 813.457,1955.29L809.975,1956.78L819.142,1956.78L819.142,1947.69L829.872,1947.69L829.872,1956.78L839.465,1956.78L835.912,1955.58C837.546,1953.44 839.465,1950.46 840.531,1948.26L851.758,1951.45C849.911,1953.44 848.206,1955.29 846.642,1956.78L856.235,1956.78Z" style="fill:rgb(177,239,151);fill-rule:nonzero;"/>
        </g>
        <g transform="matrix(1,0,0,1,920.751,3751.44)">
            <path d="M0,21.033C3.695,25.581 7.532,31.479 9.451,35.529L1.279,40.432C-0.355,36.311 -4.264,29.916 -7.674,25.225L0,21.033ZM-22.953,-3.767L-5.188,-3.767L-5.188,-11.299L-22.953,-11.299L-22.953,-3.767ZM-9.167,19.612L-9.167,44.199L-19.542,44.199L-19.542,19.612L-37.093,19.612L-37.093,10.304L-19.542,10.304L-19.542,5.258L-32.688,5.258L-32.688,-20.323L5.187,-20.323L5.187,5.258L-9.167,5.258L-9.167,10.304L8.385,10.304L8.385,19.612L-9.167,19.612ZM-21.389,23.876C-24.019,29.987 -28.14,36.951 -31.551,41.215C-33.398,39.651 -37.235,36.951 -39.509,35.672C-36.169,31.976 -32.688,26.292 -30.698,21.104L-21.389,23.876ZM-33.541,-20.039C-35.388,-15.207 -37.804,-10.234 -40.433,-5.402L-40.433,43.985L-50.24,43.985L-50.24,9.308C-51.448,10.729 -52.656,12.08 -53.864,13.358C-54.716,10.872 -57.488,5.186 -59.193,2.629C-52.869,-3.554 -46.687,-13.36 -43.133,-23.166L-33.541,-20.039Z" style="fill:rgb(177,239,151);fill-rule:nonzero;"/>
        </g>
        <g transform="matrix(1,0,0,1,0,1783.57)">
            <path d="M977.308,1962.89L970.131,1962.89L970.131,1965.38L977.308,1965.38L977.308,1962.89ZM955.279,1965.38L961.178,1965.38L961.178,1956.85L977.308,1956.85L977.308,1954.86L955.279,1954.86L955.279,1965.38ZM979.369,1991.96L979.369,1983.57L953.929,1983.57L953.929,1983.79C953.929,1987.27 953.716,1991.39 953.147,1995.58C957.837,1995.01 963.807,1994.23 970.273,1993.31C965.228,1992.1 958.903,1991.11 953.787,1990.82L956.559,1984.28C963.594,1984.35 973.328,1985.85 978.587,1987.62L976.668,1992.38L979.369,1991.96ZM988.749,1974.05L944.833,1974.05L944.833,1975.83L988.749,1975.83L988.749,1974.05ZM998.413,1981.51L989.317,1981.51L989.317,2002.9C989.317,2007.24 988.394,2009.37 985.338,2010.65C982.354,2011.92 978.231,2012 972.902,2012C972.476,2009.51 971.196,2006.1 970.06,2003.9C972.831,2004.04 976.882,2004.04 977.876,2004.04C978.942,2003.97 979.369,2003.68 979.369,2002.76L979.369,2000.2C970.771,2001.69 962.243,2003.04 955.421,2004.18L953.005,1996.51C952.082,2002.26 950.305,2008.09 947.178,2012.57C945.331,2010.93 940.783,2008.09 938.438,2007.09C943.625,2000.13 944.052,1990.32 944.052,1983.64L944.052,1981.51L935.667,1981.51L935.667,1965.38L945.402,1965.38L945.402,1947.19L987.754,1947.19L987.754,1965.38L998.413,1965.38L998.413,1981.51Z" style="fill:rgb(177,239,151);fill-rule:nonzero;"/>
        </g>
        <g transform="matrix(1,0,0,1,1047.79,3759.33)">
            <path d="M0,5.046C1.563,8.599 3.553,12.01 5.969,14.994C8.029,12.01 9.735,8.67 11.014,5.046L0,5.046ZM-5.686,-3.766L-0.853,-3.766L-0.853,-12.222L-5.686,-12.222L-5.686,-3.766ZM-0.143,21.958C-2.487,18.831 -4.478,15.421 -6.254,11.654C-6.822,17.126 -7.817,22.811 -9.522,27.927C-6.04,26.435 -2.914,24.445 -0.143,21.958M-26.719,2.843L-29.917,2.843L-29.917,18.831L-26.719,18.831L-26.719,2.843ZM22.028,-2.06C20.181,7.533 16.983,15.278 12.506,21.531C15.846,24.161 19.684,26.364 23.947,27.857C21.815,29.704 18.901,33.541 17.552,36.099C13.217,34.181 9.451,31.693 6.111,28.709C2.7,31.693 -1.066,34.181 -5.259,36.17C-6.254,34.181 -8.243,31.196 -9.948,29.206C-10.943,31.765 -12.08,34.109 -13.431,36.241C-14.994,34.749 -18.902,32.191 -21.034,31.267C-20.323,30.13 -19.684,28.993 -19.115,27.785L-29.917,27.785L-29.917,32.901L-38.657,32.901L-38.657,12.862C-39.367,13.786 -40.078,14.639 -40.86,15.491C-41.215,12.721 -42.991,5.97 -44.342,2.914C-40.007,-2.558 -37.165,-10.517 -35.389,-19.114L-42.423,-19.114L-42.423,-28.424L-16.983,-28.424L-16.983,-19.114L-25.369,-19.114C-26.363,-14.78 -27.571,-10.374 -28.993,-6.11L-17.907,-6.11L-17.907,24.871C-14.781,16.345 -14.496,6.254 -14.496,-1.562L-14.496,-21.176L-0.853,-21.176L-0.853,-31.195L8.243,-31.195L8.243,-21.176L14.852,-21.176L16.344,-21.46L22.81,-20.252C22.028,-14.638 20.679,-8.313 19.328,-4.263L11.512,-5.969C11.938,-7.674 12.293,-9.877 12.648,-12.222L8.243,-12.222L8.243,-3.766L14.567,-3.766L16.13,-4.05L22.028,-2.06Z" style="fill:rgb(177,239,151);fill-rule:nonzero;"/>
        </g>
        <g transform="matrix(1,0,0,1,1141.66,3789.89)">
            <path d="M0,-55.854C-2.771,-51.022 -5.613,-46.119 -7.888,-42.85L-15.988,-46.047C-13.856,-49.671 -11.44,-55.214 -10.161,-59.407L0,-55.854ZM-18.333,-31.835L-18.333,-28.283L-13.004,-31.835L-18.333,-31.835ZM-38.728,-42.139C-39.864,-45.622 -42.564,-51.449 -44.625,-55.783L-35.885,-59.194C-33.753,-55.143 -30.769,-49.53 -29.418,-46.119L-38.728,-42.139ZM-57.771,-46.474C-58.695,-49.814 -60.756,-55.143 -62.035,-59.123L-52.442,-61.965C-50.949,-58.057 -48.96,-53.154 -47.752,-49.885L-57.771,-46.474ZM-28.708,-28.994C-31.55,-22.03 -36.312,-14.284 -41.001,-9.665C-42.493,-11.796 -45.479,-14.923 -47.681,-16.842C-48.463,-14.497 -49.244,-12.294 -50.168,-10.234C-49.173,-9.594 -47.965,-8.741 -46.473,-7.888C-41.712,-4.904 -34.819,-4.548 -26.576,-4.548C-18.901,-4.548 -5.471,-5.331 2.416,-6.609C1.279,-3.838 -0.426,1.208 -0.568,3.908C-6.75,4.334 -18.83,4.832 -27.073,4.832C-36.596,4.832 -42.493,4.049 -47.609,1.208C-50.595,-0.499 -53.081,-2.772 -54.503,-2.772C-56.208,-2.772 -58.767,2.273 -60.4,6.111L-67.223,-3.838C-64.735,-6.609 -62.035,-8.741 -59.548,-10.163C-58.127,-13.36 -56.919,-17.198 -55.924,-21.106L-65.02,-21.106C-63.456,-25.298 -61.608,-30.77 -60.045,-36.242L-65.73,-36.242L-65.73,-45.409L-47.041,-45.409C-48.463,-40.434 -50.168,-34.891 -51.731,-29.917L-50.452,-29.917L-48.96,-30.272L-44.696,-28.78C-45.336,-25.156 -46.26,-21.532 -47.255,-18.122C-43.275,-21.674 -39.296,-27.003 -37.021,-31.835L-46.047,-31.835L-46.047,-41.287L-28.565,-41.287L-28.565,-60.757L-18.333,-60.757L-18.333,-41.287L-0.568,-41.287L-0.568,-31.835L-11.085,-31.835C-7.177,-26.791 -1.989,-20.324 0.427,-16.06L-7.39,-10.447C-9.593,-14.852 -14.425,-21.674 -18.333,-27.003L-18.333,-7.036L-28.565,-7.036L-28.565,-31.835L-36.524,-31.835L-28.708,-28.994Z" style="fill:rgb(177,239,151);fill-rule:nonzero;"/>
        </g>
        <g transform="matrix(1,0,0,1,1205.18,3755.85)">
            <path d="M0,13.715C3.767,18.973 7.675,25.795 8.954,30.84L-1.137,35.104C-2.132,30.343 -5.613,23.095 -9.237,17.552L0,13.715ZM-9.521,-3.34L-20.323,-3.34L-20.323,1.137L-9.521,1.137L-9.521,-3.34ZM-9.521,-15.918L-20.323,-15.918L-20.323,-11.583L-9.521,-11.583L-9.521,-15.918ZM-41.499,1.137L-30.343,1.137L-30.343,-3.34L-41.499,-3.34L-41.499,1.137ZM-41.499,-11.583L-30.343,-11.583L-30.343,-15.918L-41.499,-15.918L-41.499,-11.583ZM-18.262,29.206C-15.562,29.206 -15.064,28.282 -14.638,21.674C-12.577,23.236 -8.101,24.8 -5.329,25.44C-6.466,35.886 -9.309,38.515 -17.409,38.515L-27.855,38.515C-38.23,38.515 -40.717,35.602 -40.717,26.932L-40.717,16.628L-30.271,16.628C-31.337,15.988 -32.403,15.349 -33.398,14.78L-28.353,10.02L-51.234,10.02L-51.234,-24.8L0.711,-24.8L0.711,10.02L-23.449,10.02C-19.328,12.293 -14.993,15.278 -12.648,17.836L-20.039,24.871C-22.1,22.384 -26.221,19.187 -30.271,16.628L-30.271,26.79C-30.271,28.992 -29.703,29.206 -26.505,29.206L-18.262,29.206ZM-58.482,30.272C-55.355,26.079 -52.655,19.968 -51.163,13.999L-41.783,17.41C-43.488,23.592 -45.904,30.698 -49.173,35.459L-58.482,30.272Z" style="fill:rgb(177,239,151);fill-rule:nonzero;"/>
        </g>
        <g transform="matrix(1,0,0,1,772.639,3714.11)">
            <path d="M0,84.676L-11.156,84.676C-14.884,84.676 -18.178,82.822 -20.168,79.986L-31.634,79.986C-33.624,82.822 -36.918,84.676 -40.646,84.676L-51.305,84.676C-57.38,84.676 -62.305,79.751 -62.305,73.676L-62.305,11C-62.305,4.925 -57.38,0 -51.305,0L0,0C6.075,0 11,4.925 11,11L11,73.676C11,79.751 6.075,84.676 0,84.676" style="fill:rgb(0,145,58);fill-rule:nonzero;"/>
        </g>
        <g transform="matrix(1,0,0,1,824.009,3710.03)">
            <path d="M0,89.614L-10.73,89.614C-13.942,89.614 -16.833,88.237 -18.845,86.041C-19.832,86.331 -20.876,86.487 -21.958,86.487L-32.474,86.487C-38.549,86.487 -43.474,81.562 -43.474,75.487L-43.474,52.037C-43.474,50.592 -43.196,49.213 -42.689,47.948C-46.002,46.053 -48.235,42.484 -48.235,38.393L-48.235,20.132C-48.235,15.54 -45.422,11.605 -41.424,9.958C-40.204,7.641 -38.184,5.812 -35.698,4.841L-26.247,1.145C-23.314,0 -20.103,0.184 -17.387,1.519C-15.764,0.576 -13.878,0.036 -11.867,0.036L-1.137,0.036C1.01,0.036 3.014,0.651 4.707,1.715C7.073,0.562 9.846,0.26 12.535,1.025L23.762,4.222C27.072,5.165 29.727,7.593 30.978,10.753C34.126,12.688 36.227,16.165 36.227,20.132L36.227,38.393C36.227,42.2 34.293,45.554 31.355,47.529C31.974,48.905 32.318,50.43 32.318,52.037L32.318,66.534C32.318,75.564 28.796,81.787 21.848,85.028C21.788,85.056 21.727,85.085 21.666,85.111C16.605,87.362 11.251,87.539 6.413,87.552C4.607,88.85 2.393,89.614 0,89.614" style="fill:rgb(0,145,58);fill-rule:nonzero;"/>
        </g>
        <g transform="matrix(1,0,0,1,904.584,3708.98)">
            <path d="M0,90.664L-10.375,90.664C-13.632,90.664 -16.559,89.248 -18.573,86.998C-19.45,87.322 -20.373,87.536 -21.32,87.628C-22.172,87.712 -23.023,87.693 -23.857,87.581C-25.812,89.363 -28.412,90.45 -31.266,90.45L-41.073,90.45C-47.148,90.45 -52.073,85.525 -52.073,79.45L-52.073,56.983C-53.434,55.754 -54.487,54.184 -55.102,52.391C-55.661,50.763 -58.028,45.922 -59.178,44.196C-62.114,39.795 -61.5,33.927 -57.716,30.227C-52.492,25.121 -47.229,16.613 -44.309,8.552C-42.286,2.971 -36.201,0 -30.557,1.841L-23.498,4.142L14.354,4.142C20.43,4.142 25.354,9.066 25.354,15.142L25.354,38.015C27.331,40.003 28.552,42.743 28.552,45.768L28.552,55.077C28.552,57.639 27.677,59.996 26.208,61.865C27.114,63.424 27.912,64.919 28.559,66.284C30.981,71.397 29.13,77.515 24.278,80.427L16.106,85.33C13.792,86.719 11.064,87.198 8.444,86.714C6.427,89.128 3.393,90.664 0,90.664" style="fill:rgb(0,145,58);fill-rule:nonzero;"/>
        </g>
        <g transform="matrix(1,0,0,1,940.178,3712.76)">
            <path d="M0,87.375C-2.67,87.375 -5.266,86.402 -7.288,84.613C-8.287,83.74 -11.778,81.563 -13.037,81.029C-16.144,79.711 -18.474,77.038 -19.357,73.78C-20.24,70.522 -19.578,67.039 -17.561,64.332C-15.905,62.108 -15.047,58.959 -14.603,55.882C-19.173,54.546 -22.511,50.324 -22.511,45.322L-22.511,29.191C-22.511,23.544 -18.255,18.891 -12.776,18.264L-12.776,11C-12.776,4.925 -7.851,0 -1.776,0L40.576,0C46.651,0 51.576,4.925 51.576,11L51.576,18.196C57.493,18.377 62.235,23.23 62.235,29.191L62.235,45.322C62.235,50.748 58.308,55.257 53.14,56.158L53.14,66.711C53.14,75.604 49.528,81.624 42.405,84.604C37.268,86.807 31.399,86.807 25.725,86.807C20.492,86.807 16.002,83.124 14.952,78.032C13.76,78.228 12.602,78.418 11.484,78.603C10.728,80.045 9.906,81.403 9.018,82.674C7.222,85.245 4.414,86.928 1.299,87.298C0.865,87.35 0.432,87.375 0,87.375" style="fill:rgb(0,145,58);fill-rule:nonzero;"/>
        </g>
        <g transform="matrix(1,0,0,1,1027.36,3711.39)">
            <path d="M0,88.18C-2.802,88.18 -5.518,87.109 -7.573,85.157C-8.105,84.679 -9.423,83.779 -10.539,83.096C-12.254,84.2 -14.295,84.84 -16.485,84.84L-25.226,84.84C-31.301,84.84 -36.226,79.915 -36.226,73.84L-36.226,63.034C-37.348,61.539 -38.093,59.755 -38.34,57.826C-38.578,55.96 -40.113,50.242 -40.972,48.3C-42.622,44.565 -42.068,40.223 -39.532,37.022C-38.467,35.677 -37.166,33.59 -35.874,30.406C-38.385,28.389 -39.991,25.294 -39.991,21.825L-39.991,12.515C-39.991,6.44 -35.066,1.515 -28.991,1.515L-3.552,1.515C-0.976,1.515 1.394,2.401 3.269,3.884C5.216,0.795 8.658,-1.257 12.579,-1.257L21.675,-1.257C27.44,-1.257 32.169,3.179 32.637,8.824L38.262,9.874C44.038,10.953 47.946,16.382 47.137,22.202C46.606,26.007 45.869,29.945 45.041,33.475C46.284,35.678 46.771,38.311 46.262,40.958C45.024,47.381 43.252,53.153 40.901,58.373C40.938,58.387 40.976,58.4 41.013,58.412C44.715,59.708 47.447,62.878 48.184,66.732C48.92,70.585 47.548,74.538 44.583,77.108C43.659,77.909 41.536,80.61 40.712,82.171C38.015,87.284 31.821,89.437 26.532,87.097C24.108,86.024 21.77,84.778 19.532,83.368C17.4,84.73 15.182,85.958 12.889,87.047C10.042,88.398 6.903,88.42 4.176,87.357C3.277,87.726 2.324,87.978 1.34,88.098C0.893,88.153 0.445,88.18 0,88.18" style="fill:rgb(0,145,58);fill-rule:nonzero;"/>
        </g>
        <g transform="matrix(1,0,0,1,1074.25,3708.98)">
            <path d="M0,91.013C-3.603,91.013 -7.007,89.242 -9.07,86.234L-15.893,76.284C-18.763,72.099 -18.396,66.492 -15.006,62.715C-14.252,61.876 -13.471,61.068 -12.666,60.294C-13.021,59.912 -13.352,59.504 -13.652,59.07C-15.708,56.11 -16.184,52.329 -14.924,48.952C-14.452,47.689 -13.978,46.366 -13.509,45.014C-15.262,43.066 -16.328,40.488 -16.328,37.66L-16.328,28.493C-16.328,24.776 -14.483,21.489 -11.66,19.497C-11.814,19.038 -11.963,18.586 -12.105,18.146C-13.012,15.327 -12.742,12.262 -11.36,9.643C-9.978,7.025 -7.598,5.075 -4.758,4.233L4.835,1.39C9.524,0 14.464,1.887 17.091,5.799L20.519,4.461C22.321,3.757 24.21,3.56 26.016,3.81C27.704,2.755 29.699,2.145 31.837,2.145L42.069,2.145C44.177,2.145 46.146,2.738 47.819,3.765C49.813,3.317 51.91,3.425 53.872,4.112L64.033,7.664C67.12,8.743 69.566,11.141 70.709,14.204C71.852,17.269 71.571,20.683 69.945,23.52C69.481,24.327 69.021,25.129 68.563,25.922C69.987,27.776 70.834,30.097 70.834,32.616L70.834,42.067C70.834,44.729 69.889,47.17 68.314,49.073C69.097,50.242 69.803,51.367 70.399,52.419C71.844,54.969 72.166,57.872 71.495,60.533C73.919,63.643 74.494,67.816 72.995,71.469C71.904,74.126 70.926,77.424 70.812,78.489C70.519,84.04 66.136,88.402 60.59,88.784C53.958,89.241 41.649,89.734 33.329,89.734C23.814,89.734 16.347,89.034 9.4,85.73C7.622,88.654 4.559,90.614 1.093,90.959C0.728,90.995 0.362,91.013 0,91.013" style="fill:rgb(0,145,58);fill-rule:nonzero;"/>
        </g>
        <g transform="matrix(1,0,0,1,1180.77,3713.05)">
            <path d="M0,85.314L-10.446,85.314C-17.447,85.314 -22.88,83.91 -26.78,81.066C-29.947,82.672 -33.817,82.706 -37.118,80.868L-46.428,75.68C-49.197,74.136 -51.166,71.473 -51.83,68.373C-52.493,65.272 -51.786,62.036 -49.891,59.495C-47.81,56.704 -45.825,52.321 -44.628,47.906C-44.757,47.23 -44.825,46.533 -44.825,45.819L-44.825,11C-44.825,4.924 -39.9,0 -33.825,0L18.12,0C24.195,0 29.12,4.924 29.12,11L29.12,45.819C29.12,46.248 29.096,46.67 29.048,47.086C31.876,51.491 35.499,57.915 37.025,63.935C38.361,69.203 35.65,74.657 30.645,76.772L20.554,81.036C18.404,81.943 16.046,82.134 13.817,81.626C10.535,83.888 6.077,85.314 0,85.314" style="fill:rgb(0,145,58);fill-rule:nonzero;"/>
        </g>
        <g transform="matrix(1,0,0,1,772.639,3716.11)">
            <path d="M0,80.676L-11.156,80.676C-14.565,80.676 -17.532,78.78 -19.059,75.986L-32.743,75.986C-34.27,78.78 -37.237,80.676 -40.646,80.676L-51.305,80.676C-56.276,80.676 -60.305,76.647 -60.305,71.676L-60.305,9C-60.305,4.03 -56.276,0 -51.305,0L0,0C4.971,0 9,4.03 9,9L9,71.676C9,76.647 4.971,80.676 0,80.676" style="fill:white;fill-rule:nonzero;"/>
        </g>
        <g transform="matrix(1,0,0,1,824.009,3711.96)">
            <path d="M0,85.686L-10.73,85.686C-13.831,85.686 -16.565,84.118 -18.184,81.732C-19.331,82.263 -20.61,82.559 -21.958,82.559L-32.474,82.559C-37.445,82.559 -41.474,78.53 -41.474,73.559L-41.474,50.109C-41.474,48.237 -40.902,46.498 -39.924,45.057C-43.581,43.914 -46.235,40.499 -46.235,36.465L-46.235,18.204C-46.235,14.187 -43.604,10.785 -39.972,9.627C-39.03,7.419 -37.236,5.662 -34.97,4.776L-25.519,1.081C-22.761,0 -19.705,0.364 -17.305,1.936C-15.794,0.789 -13.91,0.108 -11.867,0.108L-1.137,0.108C1.033,0.108 3.024,0.876 4.579,2.155C6.706,0.757 9.395,0.28 11.987,1.02L23.214,4.217C26.141,5.051 28.442,7.304 29.343,10.198C32.243,11.692 34.227,14.716 34.227,18.204L34.227,36.465C34.227,40.245 31.897,43.48 28.596,44.813C29.679,46.299 30.318,48.129 30.318,50.109L30.318,64.606C30.318,67.657 30.318,76.941 21.002,81.288C20.953,81.311 20.903,81.333 20.854,81.356C15.936,83.542 10.547,83.623 5.731,83.625C4.175,84.913 2.178,85.686 0,85.686" style="fill:white;fill-rule:nonzero;"/>
        </g>
        <g transform="matrix(1,0,0,1,904.584,3711.22)">
            <path d="M0,86.427L-10.375,86.427C-13.559,86.427 -16.356,84.774 -17.957,82.279C-19.04,82.891 -20.25,83.278 -21.513,83.401C-22.533,83.499 -23.554,83.423 -24.531,83.183C-26.18,85.041 -28.586,86.213 -31.266,86.213L-41.073,86.213C-46.043,86.213 -50.073,82.184 -50.073,77.213L-50.073,53.804C-51.505,52.737 -52.612,51.25 -53.21,49.505C-53.824,47.716 -56.239,42.762 -57.514,40.85C-59.916,37.248 -59.413,32.447 -56.318,29.421C-50.896,24.12 -45.443,15.318 -42.428,6.995C-40.773,2.43 -35.792,0 -31.177,1.505L-23.802,3.908C-23.708,3.906 -23.615,3.905 -23.521,3.905L14.354,3.905C19.325,3.905 23.354,7.934 23.354,12.905L23.354,36.652C25.311,38.302 26.552,40.772 26.552,43.531L26.552,52.84C26.552,55.418 25.468,57.742 23.731,59.384C24.928,61.358 25.966,63.246 26.751,64.904C28.734,69.087 27.219,74.092 23.249,76.475L15.077,81.378C12.832,82.725 10.112,83.029 7.627,82.207C6.035,84.742 3.214,86.427 0,86.427" style="fill:white;fill-rule:nonzero;"/>
        </g>
        <g transform="matrix(1,0,0,1,940.178,3714.76)">
            <path d="M0,83.375C-2.185,83.375 -4.31,82.579 -5.964,81.114C-7.086,80.122 -10.79,77.81 -12.255,77.188C-14.798,76.109 -16.704,73.923 -17.426,71.257C-18.149,68.592 -17.607,65.742 -15.958,63.526C-13.712,60.513 -12.782,56.151 -12.397,52.279C-16.952,51.834 -20.511,47.994 -20.511,43.322L-20.511,27.191C-20.511,22.221 -16.482,18.191 -11.511,18.191L-10.776,18.191L-10.776,9C-10.776,4.029 -6.747,0 -1.776,0L40.576,0C45.547,0 49.576,4.029 49.576,9L49.576,18.191L51.235,18.191C56.206,18.191 60.235,22.221 60.235,27.191L60.235,43.322C60.235,48.293 56.206,52.322 51.235,52.322L51.14,52.322L51.14,64.711C51.14,67.696 51.14,76.782 41.634,80.759C37.205,82.657 32.243,82.807 25.725,82.807C21.341,82.807 17.595,79.648 16.854,75.328C16.78,74.898 16.64,74.354 16.457,73.76C14.246,74.121 12.134,74.467 10.159,74.795C9.323,76.493 8.396,78.072 7.379,79.528C5.909,81.633 3.611,83.009 1.062,83.313C0.708,83.354 0.353,83.375 0,83.375" style="fill:white;fill-rule:nonzero;"/>
        </g>
        <g transform="matrix(1,0,0,1,1027.36,3713.13)">
            <path d="M0,84.437C-2.3,84.437 -4.529,83.555 -6.213,81.949C-6.91,81.295 -9.279,79.703 -10.674,78.968C-12.241,80.296 -14.271,81.097 -16.486,81.097L-25.227,81.097C-30.197,81.097 -34.227,77.068 -34.227,72.097L-34.227,60.586C-35.368,59.271 -36.127,57.627 -36.356,55.83C-36.619,53.778 -38.187,47.911 -39.143,45.749C-40.493,42.692 -40.04,39.14 -37.966,36.521C-36.274,34.387 -34.752,31.475 -33.445,27.905C-36.161,26.355 -37.992,23.432 -37.992,20.082L-37.992,10.772C-37.992,5.801 -33.963,1.772 -28.992,1.772L-3.553,1.772C-0.468,1.772 2.256,3.325 3.877,5.691C4.896,1.839 8.405,-1 12.578,-1L21.674,-1C26.645,-1 30.674,3.03 30.674,8L30.674,8.781C30.926,8.806 31.178,8.842 31.428,8.889L37.894,10.097C42.619,10.98 45.817,15.422 45.154,20.184C44.592,24.226 43.793,28.413 42.903,32.077C44.207,33.997 44.765,36.41 44.297,38.837C42.938,45.893 40.92,52.134 38.186,57.701C38.898,58.016 39.62,58.302 40.351,58.557C43.381,59.618 45.616,62.211 46.218,65.364C46.82,68.516 45.698,71.751 43.272,73.853C42.061,74.904 39.835,77.803 38.942,79.495C36.735,83.677 31.667,85.437 27.341,83.525C24.615,82.319 22.003,80.886 19.525,79.239C17.139,80.837 14.635,82.261 12.03,83.497C9.437,84.727 6.546,84.611 4.155,83.42C3.211,83.912 2.177,84.238 1.096,84.371C0.729,84.415 0.363,84.437 0,84.437" style="fill:white;fill-rule:nonzero;"/>
        </g>
        <g transform="matrix(1,0,0,1,1074.25,3711)">
            <path d="M0,86.994C-2.947,86.994 -5.732,85.546 -7.421,83.084L-14.243,73.135C-16.592,69.71 -16.292,65.123 -13.518,62.032C-12.299,60.675 -11.004,59.401 -9.658,58.233C-10.566,57.619 -11.367,56.836 -12.01,55.91C-13.691,53.488 -14.08,50.395 -13.05,47.633C-12.436,45.984 -11.814,44.236 -11.209,42.455C-13.119,40.805 -14.328,38.364 -14.328,35.641L-14.328,26.474C-14.328,22.907 -12.253,19.824 -9.243,18.368C-9.582,17.389 -9.908,16.426 -10.201,15.515C-10.942,13.209 -10.723,10.7 -9.592,8.558C-8.46,6.416 -6.513,4.82 -4.19,4.132L5.402,1.289C9.765,0 14.373,2.161 16.191,6.278L21.245,4.306C22.964,3.635 24.777,3.525 26.467,3.902C27.966,2.786 29.824,2.126 31.837,2.126L42.069,2.126C44.091,2.126 45.956,2.792 47.459,3.917C49.319,3.311 51.34,3.326 53.212,3.98L63.373,7.533C65.898,8.417 67.9,10.378 68.835,12.885C69.77,15.391 69.541,18.184 68.21,20.506C67.504,21.738 66.803,22.957 66.111,24.147C67.791,25.782 68.834,28.067 68.834,30.597L68.834,40.048C68.834,42.757 67.638,45.186 65.743,46.836C66.866,48.448 67.867,49.987 68.659,51.386C70.018,53.784 70.162,56.564 69.256,58.984C69.47,59.204 69.674,59.435 69.867,59.678C71.893,62.229 72.382,65.677 71.145,68.69C69.94,71.625 68.906,75.181 68.82,76.283C68.58,80.826 64.99,84.457 60.452,84.769C53.854,85.224 41.607,85.715 33.329,85.715C23.278,85.715 15.612,84.925 8.505,81.004C8.432,81.171 8.358,81.343 8.283,81.519C6.996,84.543 4.164,86.624 0.895,86.95C0.596,86.979 0.297,86.994 0,86.994" style="fill:white;fill-rule:nonzero;"/>
        </g>
        <g transform="matrix(1,0,0,1,1180.77,3715.05)">
            <path d="M0,81.314L-10.446,81.314C-17.649,81.314 -22.994,79.789 -26.596,76.628C-29.35,78.557 -33.054,78.839 -36.145,77.121L-45.454,71.933C-47.72,70.669 -49.331,68.491 -49.874,65.954C-50.417,63.418 -49.839,60.769 -48.287,58.69C-45.99,55.61 -43.815,50.756 -42.571,45.952C-42.737,45.268 -42.825,44.554 -42.825,43.819L-42.825,9C-42.825,4.029 -38.796,0 -33.825,0L18.12,0C23.091,0 27.12,4.029 27.12,9L27.12,43.819C27.12,44.406 27.063,44.98 26.957,45.536C29.756,49.818 33.551,56.368 35.087,62.427C36.18,66.737 33.962,71.199 29.866,72.929L19.775,77.193C17.738,78.053 15.473,78.129 13.407,77.434C10.345,79.815 6.053,81.314 0,81.314" style="fill:white;fill-rule:nonzero;"/>
        </g>
        <g transform="matrix(1,0,0,1,0,1769.57)">
            <path d="M761.483,1989.22L731.993,1989.22L731.993,2003.08L761.483,2003.08L761.483,1989.22ZM731.993,1978.99L761.483,1978.99L761.483,1965.99L731.993,1965.99L731.993,1978.99ZM772.639,1955.54L772.639,2018.22L761.483,2018.22L761.483,2013.53L731.993,2013.53L731.993,2018.22L721.334,2018.22L721.334,1955.54L772.639,1955.54Z" style="fill:rgb(0,145,58);fill-rule:nonzero;"/>
        </g>
        <g transform="matrix(1,0,0,1,0,1766.38)">
            <path d="M808.518,1985.24L826.497,1985.24L826.497,1982.19L808.518,1982.19L808.518,1985.24ZM845.327,2010.19C845.327,2014.66 844.403,2017.22 841.206,2018.71C838.008,2020.13 834.028,2020.21 829.196,2020.21C828.699,2017.36 827.278,2013.38 825.928,2010.83C828.486,2010.97 832.323,2010.97 833.247,2010.97C834.312,2010.97 834.668,2010.76 834.668,2009.97L834.668,2004.86L824.009,2004.86L824.009,2022.27L813.279,2022.27L813.279,2004.86L802.051,2004.86L802.051,2019.14L791.535,2019.14L791.535,1995.69L813.279,1995.69L813.279,1992.35L798.641,1992.35L798.641,1975.08L837.084,1975.08L837.084,1992.35L824.009,1992.35L824.009,1995.69L845.327,1995.69L845.327,2010.19ZM849.235,1963.78L849.235,1982.05L838.932,1982.05L838.932,1972.6L796.651,1972.6L796.651,1982.05L786.773,1982.05L786.773,1963.78L795.443,1963.78C794.59,1962.08 793.453,1960.23 792.316,1958.74L801.767,1955.04C803.686,1957.17 805.604,1960.16 806.457,1962.29L802.975,1963.78L812.142,1963.78L812.142,1954.69L822.872,1954.69L822.872,1963.78L832.465,1963.78L828.912,1962.58C830.546,1960.44 832.465,1957.46 833.531,1955.26L844.758,1958.45C842.911,1960.44 841.206,1962.29 839.642,1963.78L849.235,1963.78Z" style="fill:rgb(0,145,58);fill-rule:nonzero;"/>
        </g>
        <g transform="matrix(1,0,0,1,913.751,3744.44)">
            <path d="M0,21.033C3.695,25.581 7.532,31.479 9.451,35.529L1.279,40.432C-0.355,36.311 -4.264,29.916 -7.674,25.225L0,21.033ZM-22.953,-3.767L-5.188,-3.767L-5.188,-11.299L-22.953,-11.299L-22.953,-3.767ZM-9.167,19.612L-9.167,44.199L-19.542,44.199L-19.542,19.612L-37.093,19.612L-37.093,10.304L-19.542,10.304L-19.542,5.258L-32.688,5.258L-32.688,-20.323L5.187,-20.323L5.187,5.258L-9.167,5.258L-9.167,10.304L8.385,10.304L8.385,19.612L-9.167,19.612ZM-21.389,23.876C-24.019,29.987 -28.14,36.951 -31.551,41.215C-33.398,39.651 -37.235,36.951 -39.509,35.672C-36.169,31.976 -32.688,26.292 -30.698,21.104L-21.389,23.876ZM-33.541,-20.039C-35.388,-15.207 -37.804,-10.234 -40.433,-5.402L-40.433,43.985L-50.24,43.985L-50.24,9.308C-51.448,10.729 -52.656,12.08 -53.864,13.358C-54.716,10.872 -57.488,5.186 -59.193,2.629C-52.869,-3.554 -46.687,-13.36 -43.133,-23.166L-33.541,-20.039Z" style="fill:rgb(0,145,58);fill-rule:nonzero;"/>
        </g>
        <g transform="matrix(1,0,0,1,0,1769.57)">
            <path d="M970.308,1969.89L963.131,1969.89L963.131,1972.38L970.308,1972.38L970.308,1969.89ZM948.279,1972.38L954.177,1972.38L954.177,1963.85L970.308,1963.85L970.308,1961.86L948.279,1961.86L948.279,1972.38ZM972.369,1998.96L972.369,1990.57L946.929,1990.57L946.929,1990.79C946.929,1994.27 946.716,1998.39 946.147,2002.58C950.837,2002.01 956.807,2001.23 963.273,2000.31C958.228,1999.1 951.903,1998.11 946.787,1997.82L949.559,1991.28C956.593,1991.35 966.328,1992.85 971.587,1994.62L969.668,1999.38L972.369,1998.96ZM981.749,1981.05L937.833,1981.05L937.833,1982.83L981.749,1982.83L981.749,1981.05ZM991.413,1988.51L982.317,1988.51L982.317,2009.9C982.317,2014.24 981.394,2016.37 978.338,2017.65C975.354,2018.92 971.231,2019 965.902,2019C965.476,2016.51 964.196,2013.1 963.06,2010.9C965.831,2011.04 969.882,2011.04 970.876,2011.04C971.942,2010.97 972.369,2010.68 972.369,2009.76L972.369,2007.2C963.771,2008.69 955.243,2010.04 948.421,2011.18L946.005,2003.51C945.082,2009.26 943.305,2015.09 940.178,2019.57C938.331,2017.93 933.783,2015.09 931.438,2014.09C936.625,2007.13 937.052,1997.32 937.052,1990.64L937.052,1988.51L928.667,1988.51L928.667,1972.38L938.402,1972.38L938.402,1954.19L980.754,1954.19L980.754,1972.38L991.413,1972.38L991.413,1988.51Z" style="fill:rgb(0,145,58);fill-rule:nonzero;"/>
        </g>
        <g transform="matrix(1,0,0,1,1040.79,3752.33)">
            <path d="M0,5.046C1.563,8.599 3.553,12.01 5.969,14.994C8.029,12.01 9.735,8.67 11.014,5.046L0,5.046ZM-5.686,-3.766L-0.853,-3.766L-0.853,-12.222L-5.686,-12.222L-5.686,-3.766ZM-0.143,21.958C-2.487,18.831 -4.478,15.421 -6.254,11.654C-6.822,17.126 -7.817,22.811 -9.522,27.927C-6.04,26.435 -2.914,24.445 -0.143,21.958M-26.719,2.843L-29.917,2.843L-29.917,18.831L-26.719,18.831L-26.719,2.843ZM22.028,-2.06C20.181,7.533 16.983,15.278 12.506,21.531C15.846,24.161 19.684,26.364 23.947,27.857C21.815,29.704 18.901,33.541 17.552,36.099C13.217,34.181 9.451,31.693 6.111,28.709C2.7,31.693 -1.066,34.181 -5.259,36.17C-6.254,34.181 -8.243,31.196 -9.948,29.206C-10.943,31.765 -12.08,34.109 -13.431,36.241C-14.994,34.749 -18.902,32.191 -21.034,31.267C-20.323,30.13 -19.684,28.993 -19.115,27.785L-29.917,27.785L-29.917,32.901L-38.657,32.901L-38.657,12.862C-39.367,13.786 -40.078,14.639 -40.86,15.491C-41.215,12.721 -42.991,5.97 -44.342,2.914C-40.007,-2.558 -37.165,-10.517 -35.389,-19.114L-42.423,-19.114L-42.423,-28.424L-16.983,-28.424L-16.983,-19.114L-25.369,-19.114C-26.363,-14.78 -27.571,-10.374 -28.993,-6.11L-17.907,-6.11L-17.907,24.871C-14.781,16.345 -14.496,6.254 -14.496,-1.562L-14.496,-21.176L-0.853,-21.176L-0.853,-31.195L8.243,-31.195L8.243,-21.176L14.852,-21.176L16.344,-21.46L22.81,-20.252C22.028,-14.638 20.679,-8.313 19.328,-4.263L11.512,-5.969C11.938,-7.674 12.293,-9.877 12.648,-12.222L8.243,-12.222L8.243,-3.766L14.567,-3.766L16.13,-4.05L22.028,-2.06Z" style="fill:rgb(0,145,58);fill-rule:nonzero;"/>
        </g>
        <g transform="matrix(1,0,0,1,1134.66,3782.89)">
            <path d="M0,-55.854C-2.771,-51.022 -5.613,-46.119 -7.888,-42.85L-15.988,-46.047C-13.856,-49.671 -11.44,-55.214 -10.161,-59.407L0,-55.854ZM-18.333,-31.835L-18.333,-28.283L-13.004,-31.835L-18.333,-31.835ZM-38.728,-42.139C-39.864,-45.622 -42.564,-51.449 -44.625,-55.783L-35.885,-59.194C-33.753,-55.143 -30.769,-49.53 -29.418,-46.119L-38.728,-42.139ZM-57.771,-46.474C-58.695,-49.814 -60.756,-55.143 -62.035,-59.123L-52.442,-61.965C-50.949,-58.057 -48.96,-53.154 -47.752,-49.885L-57.771,-46.474ZM-28.708,-28.994C-31.55,-22.03 -36.312,-14.284 -41.001,-9.665C-42.493,-11.796 -45.479,-14.923 -47.681,-16.842C-48.463,-14.497 -49.244,-12.294 -50.168,-10.234C-49.173,-9.594 -47.965,-8.741 -46.473,-7.888C-41.712,-4.904 -34.819,-4.548 -26.576,-4.548C-18.901,-4.548 -5.471,-5.331 2.416,-6.609C1.279,-3.838 -0.426,1.208 -0.568,3.908C-6.75,4.334 -18.83,4.832 -27.073,4.832C-36.596,4.832 -42.493,4.049 -47.609,1.208C-50.595,-0.499 -53.081,-2.772 -54.503,-2.772C-56.208,-2.772 -58.767,2.273 -60.4,6.111L-67.223,-3.838C-64.735,-6.609 -62.035,-8.741 -59.548,-10.163C-58.127,-13.36 -56.919,-17.198 -55.924,-21.106L-65.02,-21.106C-63.456,-25.298 -61.608,-30.77 -60.045,-36.242L-65.73,-36.242L-65.73,-45.409L-47.041,-45.409C-48.463,-40.434 -50.168,-34.891 -51.731,-29.917L-50.452,-29.917L-48.96,-30.272L-44.696,-28.78C-45.336,-25.156 -46.26,-21.532 -47.255,-18.122C-43.275,-21.674 -39.296,-27.003 -37.021,-31.835L-46.047,-31.835L-46.047,-41.287L-28.565,-41.287L-28.565,-60.757L-18.333,-60.757L-18.333,-41.287L-0.568,-41.287L-0.568,-31.835L-11.085,-31.835C-7.177,-26.791 -1.989,-20.324 0.427,-16.06L-7.39,-10.447C-9.593,-14.852 -14.425,-21.674 -18.333,-27.003L-18.333,-7.036L-28.565,-7.036L-28.565,-31.835L-36.524,-31.835L-28.708,-28.994Z" style="fill:rgb(0,145,58);fill-rule:nonzero;"/>
        </g>
        <g transform="matrix(1,0,0,1,1198.18,3748.85)">
            <path d="M0,13.715C3.767,18.973 7.675,25.795 8.954,30.84L-1.137,35.104C-2.132,30.343 -5.613,23.095 -9.237,17.552L0,13.715ZM-9.521,-3.34L-20.323,-3.34L-20.323,1.137L-9.521,1.137L-9.521,-3.34ZM-9.521,-15.918L-20.323,-15.918L-20.323,-11.583L-9.521,-11.583L-9.521,-15.918ZM-41.499,1.137L-30.343,1.137L-30.343,-3.34L-41.499,-3.34L-41.499,1.137ZM-41.499,-11.583L-30.343,-11.583L-30.343,-15.918L-41.499,-15.918L-41.499,-11.583ZM-18.262,29.206C-15.562,29.206 -15.064,28.282 -14.638,21.674C-12.577,23.236 -8.101,24.8 -5.329,25.44C-6.466,35.886 -9.309,38.515 -17.409,38.515L-27.855,38.515C-38.23,38.515 -40.717,35.602 -40.717,26.932L-40.717,16.628L-30.271,16.628C-31.337,15.988 -32.403,15.349 -33.398,14.78L-28.353,10.02L-51.234,10.02L-51.234,-24.8L0.711,-24.8L0.711,10.02L-23.449,10.02C-19.328,12.293 -14.993,15.278 -12.648,17.836L-20.039,24.871C-22.1,22.384 -26.221,19.187 -30.271,16.628L-30.271,26.79C-30.271,28.992 -29.703,29.206 -26.505,29.206L-18.262,29.206ZM-58.482,30.272C-55.355,26.079 -52.655,19.968 -51.163,13.999L-41.783,17.41C-43.488,23.592 -45.904,30.698 -49.173,35.459L-58.482,30.272Z" style="fill:rgb(0,145,58);fill-rule:nonzero;"/>
        </g>
    </g>
</svg>
