<?xml version="1.0" encoding="UTF-8" standalone="no"?>
<!DOCTYPE svg PUBLIC "-//W3C//DTD SVG 1.1//EN" "http://www.w3.org/Graphics/SVG/1.1/DTD/svg11.dtd">
<svg width="100%" height="100%" viewBox="0 0 218 287" version="1.1" xmlns="http://www.w3.org/2000/svg" xmlns:xlink="http://www.w3.org/1999/xlink" xml:space="preserve" xmlns:serif="http://www.serif.com/" style="fill-rule:evenodd;clip-rule:evenodd;stroke-linejoin:round;stroke-miterlimit:2;">
    <g transform="matrix(0.999953,0,0,0.999953,-1155.59,-4947.19)">
        <g opacity="0.3">
            <g transform="matrix(1,0,0,1,1248.33,5228.14)">
                <path d="M0,-275.584C1.431,-275.673 2.759,-274.621 2.967,-273.232C3.104,-272.315 2.711,-271.491 2.021,-271.007C1.815,-270.938 1.601,-270.887 1.368,-270.873C-0.062,-270.786 -1.386,-271.84 -1.593,-273.223C-1.729,-274.14 -1.337,-274.966 -0.646,-275.45C-0.442,-275.518 -0.229,-275.569 0,-275.584M116.621,-256.519L116.592,-256.517C115.699,-256.765 114.739,-256.885 113.734,-256.837L42.475,-253.471L42.474,-253.472L42.377,-253.466L27.721,-252.773C27.667,-252.941 27.606,-253.106 27.561,-253.277L24.484,-264.797C23.916,-266.923 21.786,-268.436 19.543,-268.306L15.844,-268.094C13.909,-267.982 11.935,-268.938 10.809,-270.675C10.405,-271.296 10.158,-271.992 10.05,-272.694C9.323,-277.436 4.771,-281.014 -0.105,-280.693C-1.433,-280.606 -2.641,-280.231 -3.689,-279.649C-6.839,-278.234 -8.748,-274.991 -8.228,-271.352C-7.958,-269.459 -8.801,-267.766 -10.275,-266.869C-10.739,-266.679 -11.237,-266.54 -11.785,-266.509L-15.373,-266.303C-16.076,-266.263 -16.706,-266.042 -17.246,-265.707C-18.71,-265.132 -19.678,-263.75 -19.615,-262.092L-19.195,-250.744C-19.193,-250.681 -19.198,-250.62 -19.197,-250.558L-86.165,-247.394C-89.776,-247.224 -92.691,-244.175 -92.691,-240.587L-92.691,-21.566C-92.691,-17.975 -89.776,-14.776 -86.165,-14.421L113.734,5.337C114.67,5.43 115.566,5.376 116.407,5.206C120.67,5.254 125.354,3.805 125.354,-1.165L125.354,-247.875C125.354,-251.917 121.216,-256.732 116.621,-256.519" style="fill-rule:nonzero;"/>
            </g>
        </g>
    </g>
</svg>
