<?xml version="1.0" encoding="UTF-8" standalone="no"?>
<!DOCTYPE svg PUBLIC "-//W3C//DTD SVG 1.1//EN" "http://www.w3.org/Graphics/SVG/1.1/DTD/svg11.dtd">
<svg width="100%" height="100%" viewBox="0 0 299 461" version="1.1" xmlns="http://www.w3.org/2000/svg" xmlns:xlink="http://www.w3.org/1999/xlink" xml:space="preserve" xmlns:serif="http://www.serif.com/" style="fill-rule:evenodd;clip-rule:evenodd;stroke-linejoin:round;stroke-miterlimit:2;">
    <g transform="matrix(0.999847,0,0,0.999847,-995.451,-2810.5)">
        <g opacity="0.3">
            <g transform="matrix(1,0,0,1,1047.71,2955.47)">
                <path d="M0,168.703C0.128,169.573 0.276,170.462 0.428,171.351C-0.021,169.313 -0.452,167.287 -0.846,165.29C1.443,164.916 3.777,164.552 6.166,164.208C7.46,164.024 8.843,163.836 10.289,163.645C5.073,166.407 0,168.703 0,168.703M8.118,104.282C12.147,100.098 16.281,95.443 20.448,90.468C20.6,94.501 20.771,98.656 20.963,102.906C15.725,104.363 10.505,105.864 5.245,107.438C6.171,106.441 7.132,105.384 8.118,104.282M237.734,97.12C233.849,96.552 228.786,94.118 223.771,93.509C222.024,93.296 219.847,92.054 217.751,90.535C218.387,89.932 218.759,89.565 218.759,89.565C211.836,82.419 195.2,50.161 194.093,45.26C191.825,35.178 189.798,24.719 187.855,14.275L182.182,-17.13L182.147,-17.329C182.015,-18.023 181.854,-18.718 181.655,-19.409C180.369,-23.89 177.298,-28.505 173.576,-31.49C171.692,-33.487 169.461,-35.181 166.947,-36.459C155.068,-42.537 139.5,-48.135 125.14,-50.694L125.276,-58.179L125.334,-61.224C129.234,-67.506 130.554,-75.952 130.393,-84.957C131.895,-86.905 132.882,-90.21 132.882,-93.962C132.882,-99.302 131.851,-103.73 128.557,-104.632C128.136,-107.753 127.606,-110.963 126.776,-114.072L126.46,-117.429C125.866,-123.702 123.121,-129.563 118.646,-133.999C116.435,-136.193 113.957,-138.749 111.625,-141.357C105.249,-148.497 91.42,-141.752 86.64,-139.373C81.854,-136.993 79.914,-131.835 73.364,-127.479C66.809,-123.121 64.439,-116.76 64.839,-103.784C65.026,-97.638 66.95,-91.681 68.924,-87.11C68.573,-84.81 69.518,-81.812 70.899,-78.561C72.332,-75.19 74.467,-72.585 76.563,-71.343C79.962,-64.511 83.907,-58.912 88.858,-55.227L88.201,-50.8C72.145,-48.931 60.058,-45.566 55.568,-43.289C48.097,-39.501 35.739,-29.757 36.7,-26.431C35.656,-24.788 34.699,-22.656 33.86,-19.947C26.229,4.709 11.497,46.036 10.807,47.124C1.285,63.278 -27.977,117.054 -30.9,120.036C-32.337,120.716 -33.517,121.243 -35.466,122.319L-36.798,123.063L-38.709,124.267L-39.653,124.901L-40.844,125.779C-41.933,126.627 -42.982,127.544 -43.963,128.508L-44.763,129.32C-45.326,129.934 -45.862,130.577 -46.374,131.246C-46.893,131.913 -47.373,132.603 -47.824,133.31L-48.475,134.378L-48.884,135.143C-49.911,137.098 -50.761,139.464 -51.03,140.588C-51.225,141.302 -51.395,142.019 -51.546,142.736L-51.795,144.269L-51.986,145.795L-52.059,146.94C-52.21,150.039 -52.002,151.896 -51.806,153.603C-50.917,160.109 -49.61,164.02 -48.326,168.274C-43.043,184.358 -36.875,198.12 -30.349,212.243C-27.062,219.237 -23.665,226.157 -20.026,233.099C-18.198,236.575 -16.317,240.048 -14.248,243.627C-13.204,245.423 -12.13,247.229 -10.868,249.2C-10.251,250.167 -9.54,251.233 -8.724,252.387C-7.74,253.661 -7.152,254.763 -4.382,257.49C-1.12,260.628 3.095,262.155 7.288,262.101L7.076,262.362C7.076,262.362 10.376,267.584 13.188,273.522C15.284,277.914 16.186,282.803 17.087,285.974C20.78,298.89 26.423,306.368 31.917,311.402C37.323,316.354 46.822,315.345 52.427,316.437C56.331,317.2 64.913,301.437 65.03,292.056C65.143,285.171 61.159,285.561 60.296,284.698C58.262,282.693 46.467,275.789 36.056,262.362C29.688,254.147 25.701,249.298 23.563,246.766C23.902,242.04 22.22,237.202 18.538,233.659C19.999,235.065 19.534,234.613 19.505,234.329L18.814,232.712L17.08,228.366C15.896,225.249 14.732,221.931 13.604,218.577C11.354,211.851 9.241,204.941 7.254,198.02C7.254,198.02 13.995,198.275 19.434,191.13C24.881,183.984 45.479,175.6 48.956,174.794C52.154,174.054 57.797,168.406 54.629,163.69C54.097,162.898 53.457,161.462 52.781,159.698C61.419,159.38 73.068,158.833 74.01,158.588C76.305,157.99 78.373,157.118 80.236,156.028C95.101,168.099 121.147,169.321 135.446,157.018C146.474,147.469 150.625,132.911 147.333,119.64C147.331,119.63 147.327,119.621 147.325,119.612C147.344,119.604 147.363,119.599 147.382,119.592C147.953,99.651 155.2,81.155 162.711,61.736C163.937,64.944 165.289,68.266 167.076,72.087C167.829,73.605 168.88,75.886 171.14,78.874C171.774,79.576 172.516,80.472 173.348,81.525L178.697,88.174C186.312,97.393 186.401,96.681 195.882,103.491C196.946,104.257 198.575,104.081 200.479,103.336C201.032,103.577 201.589,103.81 202.148,104.025C202.889,104.306 197.261,108.845 198.448,112.479C199.642,116.115 204.722,115.02 208.73,114.636C212.74,114.254 210.822,109.957 208.101,110.561C206.149,110.996 208.575,109.081 211.277,107.766C213.069,106.894 215.209,106.961 216.93,107.966C220.7,110.168 224.474,113.744 224.794,117.051C225.188,121.123 232.942,122.342 239.84,120.149C246.733,117.955 244.538,116.387 245.792,114.195C247.046,112.001 243.303,97.932 237.734,97.12" style="fill-rule:nonzero;"/>
            </g>
        </g>
    </g>
</svg>
