<?xml version="1.0" encoding="UTF-8" standalone="no"?>
<!DOCTYPE svg PUBLIC "-//W3C//DTD SVG 1.1//EN" "http://www.w3.org/Graphics/SVG/1.1/DTD/svg11.dtd">
<svg width="100%" height="100%" viewBox="0 0 175 205" version="1.1" xmlns="http://www.w3.org/2000/svg" xmlns:xlink="http://www.w3.org/1999/xlink" xml:space="preserve" xmlns:serif="http://www.serif.com/" style="fill-rule:evenodd;clip-rule:evenodd;stroke-linejoin:round;stroke-miterlimit:2;">
    <g transform="matrix(0.999953,0,0,0.999953,-682.283,-3872.77)">
        <g opacity="0.3">
            <g opacity="0.66">
                <g transform="matrix(1,0,0,1,856.476,3971.15)">
                    <path d="M0,8.149C0.063,7.431 0.098,7.038 0.098,7.038C0.098,6.484 -0.162,5.944 -0.649,5.422C-1.501,4.479 -3.116,3.598 -5.331,2.812C-5.422,2.681 -5.529,2.551 -5.649,2.422C-8.856,-1.132 -22.782,-3.805 -39.476,-3.805C-45.485,-3.805 -51.135,-3.458 -56.056,-2.849C-55.952,-11.802 -55.855,-20.445 -55.778,-27.855L-55.78,-27.854C-55.675,-38.101 -55.609,-46.027 -55.618,-49.212C-55.619,-49.52 -55.624,-49.798 -55.631,-50.064C-55.632,-50.087 -55.633,-50.109 -55.634,-50.131C-55.642,-50.384 -55.654,-50.621 -55.67,-50.841L-55.67,-50.848L-55.671,-50.85C-55.833,-53.025 -56.461,-53.783 -58.57,-56.023C-58.921,-56.398 -59.313,-56.812 -59.753,-57.283C-66.241,-64.238 -74.91,-73.583 -77.667,-76.513C-77.827,-76.683 -77.973,-76.843 -78.11,-76.997C-78.162,-77.056 -78.208,-77.11 -78.256,-77.165C-78.336,-77.258 -78.416,-77.349 -78.487,-77.437C-78.541,-77.501 -78.589,-77.563 -78.638,-77.625C-78.696,-77.699 -78.753,-77.771 -78.805,-77.842C-78.853,-77.907 -78.898,-77.969 -78.941,-78.032C-78.986,-78.095 -79.027,-78.158 -79.067,-78.219C-79.108,-78.283 -79.149,-78.345 -79.186,-78.408C-79.219,-78.463 -79.248,-78.518 -79.277,-78.573C-79.313,-78.637 -79.348,-78.703 -79.379,-78.766C-79.4,-78.811 -79.418,-78.856 -79.438,-78.901C-79.514,-79.077 -79.578,-79.251 -79.625,-79.429C-79.7,-79.709 -79.743,-79.999 -79.764,-80.316C-79.765,-80.326 -79.765,-80.336 -79.766,-80.346C-79.775,-80.493 -79.78,-80.644 -79.782,-80.804L-79.782,-80.874C-79.783,-81.029 -79.782,-81.19 -79.778,-81.362C-79.778,-81.383 -79.777,-81.406 -79.776,-81.428C-79.767,-81.83 -79.75,-82.285 -79.735,-82.806C-79.731,-82.96 -79.728,-83.128 -79.724,-83.296C-79.723,-83.392 -79.72,-83.482 -79.719,-83.583C-79.714,-83.864 -79.712,-84.16 -79.714,-84.478C-79.716,-84.805 -79.714,-85.114 -79.712,-85.414C-79.708,-86.156 -79.699,-86.817 -79.706,-87.404L-79.706,-87.408C-79.71,-87.701 -79.72,-87.973 -79.736,-88.23C-79.739,-88.278 -79.743,-88.325 -79.747,-88.371C-79.756,-88.495 -79.767,-88.617 -79.78,-88.733C-79.784,-88.768 -79.79,-88.802 -79.794,-88.837C-79.804,-88.906 -79.812,-88.977 -79.823,-89.042C-79.826,-89.056 -79.827,-89.07 -79.829,-89.082C-79.841,-89.154 -79.859,-89.219 -79.874,-89.287C-79.883,-89.33 -79.893,-89.372 -79.904,-89.414C-79.926,-89.501 -79.952,-89.587 -79.98,-89.668C-79.993,-89.706 -80.007,-89.743 -80.021,-89.779C-80.024,-89.787 -80.027,-89.795 -80.031,-89.804C-80.042,-89.83 -80.05,-89.861 -80.062,-89.886C-80.118,-90.013 -80.181,-90.132 -80.255,-90.242C-80.26,-90.248 -80.263,-90.257 -80.268,-90.264C-80.275,-90.275 -80.283,-90.285 -80.29,-90.294C-80.291,-90.295 -80.291,-90.296 -80.291,-90.296L-80.292,-90.296C-80.385,-90.425 -80.498,-90.539 -80.622,-90.644C-80.653,-90.669 -80.686,-90.695 -80.719,-90.719C-80.858,-90.824 -81.012,-90.918 -81.192,-90.997C-81.198,-91 -81.204,-91.004 -81.21,-91.007C-81.396,-91.087 -81.613,-91.15 -81.848,-91.205C-81.905,-91.218 -81.965,-91.231 -82.025,-91.243C-82.272,-91.291 -82.536,-91.333 -82.838,-91.359C-82.979,-91.371 -83.163,-91.385 -83.382,-91.402C-83.408,-91.404 -83.436,-91.407 -83.463,-91.409C-83.675,-91.425 -83.918,-91.443 -84.193,-91.463C-84.201,-91.464 -84.21,-91.464 -84.219,-91.465C-84.35,-91.475 -84.485,-91.485 -84.628,-91.496C-84.67,-91.498 -84.713,-91.501 -84.756,-91.504C-84.763,-91.582 -84.771,-91.659 -84.78,-91.733C-84.784,-91.768 -84.79,-91.802 -84.794,-91.837C-84.804,-91.906 -84.812,-91.977 -84.823,-92.042C-84.826,-92.056 -84.827,-92.07 -84.829,-92.082C-84.841,-92.154 -84.859,-92.219 -84.874,-92.287C-84.883,-92.33 -84.893,-92.372 -84.904,-92.414C-84.926,-92.501 -84.952,-92.587 -84.98,-92.668C-84.993,-92.706 -85.007,-92.743 -85.021,-92.779C-85.024,-92.787 -85.027,-92.795 -85.031,-92.804C-85.042,-92.83 -85.05,-92.861 -85.062,-92.886C-85.118,-93.013 -85.181,-93.132 -85.255,-93.242C-85.26,-93.248 -85.263,-93.257 -85.268,-93.264C-85.275,-93.275 -85.283,-93.285 -85.29,-93.294C-85.291,-93.295 -85.291,-93.296 -85.291,-93.296L-85.292,-93.296C-85.385,-93.425 -85.498,-93.539 -85.622,-93.644C-85.653,-93.669 -85.686,-93.695 -85.719,-93.719C-85.858,-93.824 -86.012,-93.918 -86.192,-93.997C-86.198,-94 -86.204,-94.004 -86.21,-94.007C-86.396,-94.087 -86.613,-94.15 -86.848,-94.205C-86.905,-94.218 -86.965,-94.231 -87.025,-94.243C-87.272,-94.291 -87.536,-94.333 -87.838,-94.359C-87.979,-94.371 -88.163,-94.385 -88.382,-94.402C-88.408,-94.404 -88.436,-94.407 -88.463,-94.409C-88.675,-94.425 -88.918,-94.443 -89.193,-94.463C-89.201,-94.464 -89.21,-94.464 -89.219,-94.465C-89.35,-94.475 -89.485,-94.485 -89.628,-94.496C-89.686,-94.499 -89.747,-94.503 -89.806,-94.508C-89.926,-94.517 -90.048,-94.526 -90.176,-94.535C-90.223,-94.539 -90.271,-94.541 -90.319,-94.545C-90.438,-94.554 -90.557,-94.562 -90.682,-94.572C-90.824,-94.581 -90.971,-94.591 -91.121,-94.603C-91.136,-94.603 -91.151,-94.605 -91.167,-94.606C-96.392,-94.977 -106.397,-95.657 -116.054,-96.32C-116.052,-96.32 -116.051,-96.319 -116.049,-96.319C-127.274,-97.089 -138.024,-97.837 -140.235,-98.054C-140.527,-98.082 -140.817,-98.107 -141.105,-98.128C-141.197,-98.134 -141.287,-98.137 -141.378,-98.143C-141.573,-98.155 -141.769,-98.167 -141.961,-98.175C-142.102,-98.181 -142.239,-98.182 -142.377,-98.185C-142.516,-98.189 -142.655,-98.195 -142.792,-98.195C-142.985,-98.197 -143.174,-98.192 -143.364,-98.188C-143.44,-98.187 -143.519,-98.187 -143.595,-98.185C-143.829,-98.177 -144.056,-98.164 -144.281,-98.148C-144.309,-98.146 -144.338,-98.146 -144.366,-98.143C-146.951,-97.946 -148.915,-97.158 -149.268,-95.4L-149.269,-95.398C-149.302,-95.224 -149.322,-95.044 -149.325,-94.851C-149.383,-90.539 -149.503,-88.206 -149.503,-88.206C-149.515,-87.324 -149.496,-86.711 -149.623,-86.1C-149.624,-86.098 -149.624,-86.096 -149.625,-86.093C-149.716,-85.659 -149.887,-85.223 -150.201,-84.692C-150.211,-84.673 -150.224,-84.654 -150.235,-84.634C-150.333,-84.472 -150.443,-84.302 -150.569,-84.12C-150.581,-84.103 -150.591,-84.086 -150.603,-84.069C-150.882,-83.669 -151.234,-83.21 -151.675,-82.672C-151.708,-82.631 -151.744,-82.588 -151.778,-82.546C-151.969,-82.315 -152.177,-82.067 -152.402,-81.803C-152.451,-81.747 -152.497,-81.693 -152.546,-81.634C-152.815,-81.321 -153.102,-80.99 -153.42,-80.626C-153.572,-80.454 -153.736,-80.265 -153.906,-80.068C-153.955,-80.01 -154.007,-79.949 -154.058,-79.89C-154.182,-79.746 -154.309,-79.597 -154.44,-79.442C-154.507,-79.363 -154.575,-79.283 -154.644,-79.202C-154.766,-79.058 -154.891,-78.91 -155.019,-78.757C-155.098,-78.663 -155.177,-78.57 -155.259,-78.472C-155.356,-78.356 -155.457,-78.234 -155.557,-78.114C-156.595,-76.871 -157.783,-75.425 -159.053,-73.874C-159.052,-73.875 -159.05,-73.876 -159.049,-73.878C-163.958,-67.883 -169.991,-60.443 -172.392,-58.152C-172.603,-57.951 -172.782,-57.74 -172.943,-57.519C-172.954,-57.504 -172.97,-57.492 -172.981,-57.476L-172.984,-57.465C-173.539,-56.685 -173.813,-55.749 -173.95,-54.449L-173.955,-54.433L-173.955,-54.431L-173.952,-54.43C-174.151,-52.523 -174.065,-49.828 -174.149,-45.639C-174.186,-43.796 -174.139,-39.683 -174.037,-34.073C-174.04,-34.214 -174.042,-34.322 -174.044,-34.396C-173.994,-31.638 -173.93,-28.496 -173.855,-25.064C-173.786,-21.885 -173.706,-18.449 -173.62,-14.851C-173.612,-14.533 -173.604,-14.213 -173.597,-13.892C-173.585,-13.409 -173.574,-12.925 -173.562,-12.435C-173.545,-11.759 -173.529,-11.078 -173.512,-10.391C-173.5,-9.879 -173.487,-9.364 -173.474,-8.846C-173.459,-8.245 -173.444,-7.639 -173.429,-7.031C-173.422,-6.754 -173.416,-6.48 -173.408,-6.203C-173.387,-5.359 -173.366,-4.507 -173.345,-3.654C-173.333,-3.171 -173.32,-2.689 -173.308,-2.205C-173.301,-1.924 -173.294,-1.643 -173.287,-1.363C-173.266,-0.546 -173.245,0.27 -173.224,1.092L-173.212,1.57C-173.206,1.831 -173.199,2.091 -173.192,2.352C-172.973,10.928 -172.74,19.771 -172.52,28.114C-172.519,28.161 -172.519,28.194 -172.517,28.225L-172.517,28.227C-172.516,28.246 -172.516,28.261 -172.516,28.274C-172.516,28.278 -172.515,28.278 -172.515,28.282C-172.398,32.704 -172.286,36.976 -172.181,40.983L-172.181,40.979C-171.824,54.626 -171.559,65.191 -171.545,68.01L-171.545,68.372C-171.546,68.419 -171.546,68.461 -171.547,68.499C-171.547,68.52 -171.547,68.543 -171.548,68.561C-171.548,68.576 -171.548,68.591 -171.549,68.604C-171.551,68.663 -171.553,68.712 -171.556,68.734C-171.768,70.358 -170.897,70.083 -166.545,71.172L-166.545,71.372C-166.546,71.419 -166.546,71.461 -166.547,71.499C-166.547,71.52 -166.547,71.543 -166.548,71.561C-166.548,71.576 -166.548,71.591 -166.549,71.604C-166.551,71.663 -166.553,71.712 -166.556,71.734C-166.777,73.434 -165.824,73.049 -160.923,74.331C-156.017,75.613 -99.072,87.879 -97.166,88.436C-96.99,88.488 -96.824,88.54 -96.663,88.588C-96.333,88.69 -96.026,88.779 -95.714,88.838C-95.703,88.841 -95.691,88.843 -95.68,88.845C-95.374,88.902 -95.057,88.926 -94.704,88.901C-94.696,88.901 -94.688,88.901 -94.681,88.9C-94.533,88.889 -94.379,88.871 -94.215,88.84L-94.215,88.841L-94.208,88.839C-93.977,88.796 -93.723,88.729 -93.449,88.64L-93.43,88.634C-93.194,88.557 -92.939,88.463 -92.664,88.347C-92.661,88.346 -92.658,88.345 -92.655,88.344L-92.654,88.343C-92.477,88.269 -92.291,88.186 -92.095,88.094C-92.076,88.087 -92.056,88.076 -92.037,88.067C-91.796,87.954 -91.538,87.824 -91.265,87.682C-91.205,87.651 -91.145,87.62 -91.083,87.587C-90.778,87.424 -90.459,87.251 -90.11,87.051C-87.288,85.436 -75.814,78.727 -67.653,73.902C-66.754,83.922 -66.055,91.758 -65.829,94.397C-65.829,94.434 -65.736,95.319 -65.706,95.387C-65.648,95.583 -65.564,95.776 -65.469,95.967C-65.448,96.01 -65.426,96.053 -65.403,96.096C-65.302,96.283 -65.186,96.467 -65.05,96.651C-65.031,96.676 -65.008,96.702 -64.988,96.727C-64.859,96.893 -64.715,97.057 -64.559,97.219C-64.524,97.254 -64.492,97.292 -64.455,97.327C-64.277,97.503 -64.084,97.677 -63.874,97.848C-63.833,97.881 -63.789,97.915 -63.746,97.949C-63.548,98.105 -63.338,98.258 -63.114,98.411C-63.08,98.433 -63.049,98.457 -63.014,98.479C-62.763,98.645 -62.494,98.808 -62.213,98.968C-62.155,99.002 -62.096,99.034 -62.036,99.067C-61.667,99.27 -61.276,99.469 -60.86,99.662L-60.86,99.663C-60.849,99.668 -60.836,99.672 -60.825,99.677C-60.589,99.787 -60.347,99.893 -60.096,99.999C-60.032,100.026 -59.968,100.052 -59.902,100.079C-59.789,100.126 -59.676,100.172 -59.56,100.218L-59.559,100.219C-59.524,100.254 -59.492,100.292 -59.455,100.327C-59.277,100.503 -59.084,100.677 -58.874,100.848C-58.833,100.881 -58.789,100.915 -58.746,100.949C-58.548,101.105 -58.338,101.258 -58.114,101.411C-58.08,101.433 -58.049,101.457 -58.014,101.479C-57.763,101.645 -57.494,101.808 -57.213,101.968C-57.155,102.002 -57.096,102.034 -57.036,102.067C-56.667,102.27 -56.276,102.469 -55.86,102.662L-55.86,102.663C-55.849,102.668 -55.836,102.672 -55.825,102.677C-55.589,102.787 -55.347,102.893 -55.096,102.999C-55.032,103.026 -54.968,103.052 -54.902,103.079C-54.746,103.143 -54.587,103.207 -54.426,103.269C-54.412,103.274 -54.398,103.28 -54.384,103.286C-54.188,103.361 -53.99,103.436 -53.786,103.51C-53.765,103.517 -53.743,103.524 -53.722,103.532C-53.424,103.638 -53.119,103.742 -52.806,103.843C-52.805,103.844 -52.803,103.844 -52.802,103.844C-52.717,103.872 -52.63,103.899 -52.544,103.926C-52.492,103.943 -52.44,103.961 -52.386,103.977C-51.962,104.108 -51.526,104.235 -51.077,104.358C-51.036,104.369 -50.995,104.379 -50.954,104.39C-50.5,104.512 -50.034,104.63 -49.556,104.743L-49.528,104.749C-49.037,104.864 -48.533,104.972 -48.018,105.077C-47.972,105.086 -47.925,105.094 -47.878,105.104C-46.841,105.31 -45.759,105.493 -44.636,105.651C-44.602,105.656 -44.566,105.661 -44.531,105.666C-41.392,106.103 -37.948,106.346 -34.333,106.346C-19.696,106.346 -7.83,102.39 -7.83,97.511C-7.827,97.47 -7.823,97.408 -7.816,97.329C-7.441,92.492 -0.879,18.114 0,8.149" style="fill-rule:nonzero;"/>
                </g>
            </g>
            <g opacity="0.66">
                <g transform="matrix(1,0,0,1,682.432,3936.63)">
                    <path d="M0,0.127C-0.001,0.085 -0.001,0.041 -0.002,0C-0.002,0 -0.001,0.049 0,0.127" style="fill-rule:nonzero;"/>
                </g>
            </g>
        </g>
    </g>
</svg>
