<?xml version="1.0" encoding="UTF-8" standalone="no"?>
<!DOCTYPE svg PUBLIC "-//W3C//DTD SVG 1.1//EN" "http://www.w3.org/Graphics/SVG/1.1/DTD/svg11.dtd">
<svg width="100%" height="100%" viewBox="0 0 522 98" version="1.1" xmlns="http://www.w3.org/2000/svg" xmlns:xlink="http://www.w3.org/1999/xlink" xml:space="preserve" xmlns:serif="http://www.serif.com/" style="fill-rule:evenodd;clip-rule:evenodd;stroke-linejoin:round;stroke-miterlimit:2;">
    <g transform="matrix(1.00007,0,0,1.00007,-704.557,-2598.27)">
        <g transform="matrix(1,0,0,1,734.017,2608.07)">
            <path d="M0,87.375C-2.67,87.375 -5.266,86.402 -7.288,84.613C-8.286,83.74 -11.778,81.563 -13.037,81.029C-16.144,79.711 -18.474,77.038 -19.357,73.78C-20.24,70.522 -19.578,67.039 -17.561,64.332C-15.905,62.108 -15.047,58.959 -14.603,55.882C-19.173,54.546 -22.511,50.324 -22.511,45.322L-22.511,29.191C-22.511,23.544 -18.255,18.891 -12.776,18.264L-12.776,11C-12.776,4.925 -7.851,0 -1.776,0L40.576,0C46.651,0 51.576,4.925 51.576,11L51.576,18.196C57.493,18.377 62.235,23.23 62.235,29.191L62.235,45.322C62.235,50.748 58.307,55.257 53.139,56.158L53.139,66.711C53.139,75.604 49.528,81.624 42.405,84.604C37.267,86.807 31.399,86.807 25.725,86.807C20.492,86.807 16.002,83.124 14.952,78.032C13.76,78.228 12.602,78.418 11.484,78.603C10.728,80.045 9.906,81.403 9.019,82.674C7.222,85.245 4.414,86.928 1.299,87.298C0.866,87.35 0.432,87.375 0,87.375" style="fill:rgb(151,196,242);fill-rule:nonzero;"/>
        </g>
        <g transform="matrix(1,0,0,1,849.419,2605.63)">
            <path d="M0,89.532C-2.695,89.532 -5.312,88.537 -7.327,86.743C-13.45,87.178 -20.221,87.72 -21.528,88.123C-24.375,89.19 -27.526,89.029 -30.25,87.685C-30.604,87.511 -30.948,87.317 -31.278,87.107C-33.066,88.364 -35.245,89.102 -37.597,89.102L-46.693,89.102C-50.101,89.102 -53.146,87.553 -55.164,85.12C-57.817,84.5 -60.16,82.914 -61.719,80.65C-62.631,79.328 -64.784,76.916 -65.907,75.958C-68.591,73.672 -70.016,70.237 -69.739,66.722C-69.555,64.386 -68.634,62.202 -67.154,60.461C-67.471,59.433 -67.642,58.342 -67.642,57.211L-67.642,49.537C-67.642,47.303 -66.976,45.226 -65.833,43.491C-66.023,43.001 -66.176,42.501 -66.293,41.994C-67.241,40.369 -67.784,38.478 -67.784,36.462L-67.784,30.99C-67.784,27.018 -65.679,23.539 -62.525,21.605L-62.525,12.443C-62.525,6.368 -57.6,1.443 -51.525,1.443L-22.959,1.443C-19.84,1.443 -17.024,2.741 -15.022,4.827C-12.703,3.953 -10.791,3.091 -9.765,2.413C-6.534,0.277 -2.418,0 1.072,1.68L8.889,5.446C12.432,7.153 14.794,10.622 15.085,14.544C15.167,15.651 15.081,16.748 14.84,17.802C15.765,19.126 16.401,20.657 16.673,22.303C16.911,23.743 16.857,25.192 16.539,26.572C17.347,27.699 17.945,28.985 18.284,30.373C19.171,34.01 18.147,37.848 15.567,40.56C14.467,41.718 13.276,42.807 11.989,43.833C12.984,44.763 14.067,45.563 15.147,46.133C18.306,47.8 20.458,50.896 20.92,54.437C21.383,57.978 20.098,61.523 17.473,63.945C16.958,64.42 16.21,65.256 15.477,66.145C16.254,67.38 16.959,68.547 17.551,69.603C19.06,72.3 19.366,75.507 18.393,78.44C17.42,81.373 15.258,83.761 12.436,85.021L4.478,88.574C3.022,89.223 1.499,89.532 0,89.532" style="fill:rgb(151,196,242);fill-rule:nonzero;"/>
        </g>
        <g transform="matrix(1,0,0,1,918.902,2604.76)">
            <path d="M0,90.189L-10.232,90.189C-11.926,90.189 -13.53,89.806 -14.963,89.123L-31.226,89.123C-32.659,89.806 -34.263,90.189 -35.957,90.189L-45.691,90.189C-51.767,90.189 -56.691,85.264 -56.691,79.189L-56.691,65.758C-56.691,64.736 -56.552,63.747 -56.291,62.807C-62.03,62.435 -66.569,57.664 -66.569,51.831L-66.569,45.151C-66.569,42.771 -65.813,40.568 -64.529,38.768C-66.948,36.734 -68.381,33.742 -68.432,30.535C-68.475,27.832 -67.514,25.25 -65.798,23.242C-66.114,22.215 -66.285,21.126 -66.285,19.996L-66.285,13.956C-66.285,7.88 -61.36,2.956 -55.285,2.956L-53.576,2.956C-51.736,1.572 -49.45,0.752 -46.971,0.752L-39.012,0.752C-38.505,0.752 -38.007,0.787 -37.52,0.853C-37.032,0.787 -36.534,0.752 -36.027,0.752L-28.069,0.752C-25.754,0.752 -23.606,1.467 -21.834,2.689C-19.333,0.802 -16.054,0 -12.781,0.739L-4.609,2.586C-2.254,3.119 -0.159,4.406 1.374,6.224L9.309,6.224C15.384,6.224 20.309,11.149 20.309,17.224L20.309,23.975C20.309,26.367 19.545,28.581 18.249,30.386C19.261,31.831 19.92,33.512 20.148,35.296C20.368,37.007 20.18,38.727 19.622,40.324C20.335,41.781 20.735,43.418 20.735,45.151L20.735,51.831C20.735,57.616 16.27,62.358 10.597,62.797C10.86,63.74 11,64.732 11,65.758L11,79.189C11,85.264 6.075,90.189 0,90.189" style="fill:rgb(151,196,242);fill-rule:nonzero;"/>
        </g>
        <g transform="matrix(1,0,0,1,993.786,2603.76)">
            <path d="M0,91.386C-2.552,91.386 -5.147,90.81 -7.715,89.673C-8.456,89.337 -9.157,88.959 -9.82,88.536C-11.743,90.186 -14.244,91.183 -16.977,91.183L-26.569,91.183C-29.894,91.183 -32.873,89.708 -34.89,87.378C-35.192,87.404 -35.499,87.416 -35.808,87.416L-41.716,87.416C-43.667,89.183 -46.256,90.259 -49.096,90.259L-56.983,90.259C-63.059,90.259 -67.983,85.334 -67.983,79.259L-67.983,54.317C-67.983,54.148 -67.979,53.98 -67.972,53.813C-68.073,53.214 -68.125,52.599 -68.125,51.972L-68.125,44.297C-68.125,43.938 -68.108,43.582 -68.075,43.232C-68.108,42.88 -68.125,42.525 -68.125,42.165L-68.125,39.738C-69.892,37.786 -70.968,35.198 -70.968,32.359L-70.968,24.329C-70.968,19.634 -68.026,15.626 -63.885,14.047C-63.278,10.842 -61.257,7.941 -58.146,6.324L-50.898,2.559C-45.974,0 -39.983,1.527 -36.849,5.963C-35.525,5.399 -34.068,5.086 -32.538,5.086L0.22,5.086C3.217,5.086 6.084,6.309 8.158,8.472C10.233,10.635 11.335,13.551 11.21,16.545C10.69,28.989 10.635,43.46 10.88,53.585C11.347,54.184 11.757,54.837 12.1,55.541C13.337,58.082 15.134,61.036 15.74,61.787C17.78,64.133 18.689,67.18 18.319,70.266C15.967,89.862 3.703,91.386 0,91.386" style="fill:rgb(151,196,242);fill-rule:nonzero;"/>
        </g>
        <g transform="matrix(1,0,0,1,1049.71,2607.12)">
            <path d="M0,87.891C-3.68,87.891 -6.983,86.072 -8.988,83.234C-12.306,85.85 -15.754,86.706 -18.33,87.107C-20.387,87.459 -23.034,87.63 -26.416,87.63C-27.218,87.63 -28.04,87.621 -28.871,87.603C-30.579,87.567 -32.193,87.141 -33.626,86.412C-35.796,87.629 -38.34,88.087 -40.837,87.667C-44.057,87.125 -46.869,85.182 -48.514,82.362C-49.335,80.953 -51.217,78.911 -52.124,78.289C-54.975,76.335 -56.74,73.156 -56.894,69.704C-57.047,66.25 -55.568,62.927 -52.902,60.729C-49.467,57.897 -47.726,53.742 -46.796,48.025C-50.273,46.176 -52.641,42.517 -52.641,38.305L-52.641,12.652C-52.641,6.577 -47.716,1.652 -41.641,1.652L-11.653,1.652C-7.623,1.652 -4.099,3.82 -2.183,7.053L-1.248,7.053C0.285,2.825 4.338,-0.196 9.096,-0.196L19.329,-0.196C25.404,-0.196 30.329,4.729 30.329,10.804L30.329,64.668C30.329,68.672 30.329,79.308 20.082,84.654C19.998,84.697 19.914,84.74 19.83,84.781C14.557,87.362 8.089,87.891 0,87.891" style="fill:rgb(151,196,242);fill-rule:nonzero;"/>
        </g>
        <g transform="matrix(1,0,0,1,1116,2604.27)">
            <path d="M0,89.675L-11.44,89.675C-18.296,89.675 -23.669,88.36 -27.594,85.697C-30.095,86.642 -32.943,86.681 -35.605,85.604L-44.914,81.837C-47.737,80.695 -49.961,78.432 -51.055,75.589C-52.148,72.747 -52.015,69.578 -50.685,66.838C-48.886,63.13 -47.173,57.279 -46.322,51.934C-46.145,50.817 -45.798,49.747 -45.305,48.757C-46.161,46.973 -46.534,44.962 -46.336,42.928C-46.264,42.192 -46.118,41.472 -45.906,40.779C-48.873,38.796 -50.701,35.49 -50.79,31.907C-50.883,28.193 -49.094,24.682 -46.034,22.574C-41.486,19.442 -37.079,13.73 -34.807,8.023C-32.734,2.817 -27.079,0 -21.675,1.485L-11.584,4.255C-9.124,4.93 -6.994,6.433 -5.536,8.482L22.526,8.482C25.546,8.482 28.434,9.723 30.511,11.915C32.588,14.107 33.673,17.057 33.511,20.071L33.297,24.051C32.579,38.531 31.689,46.526 29.896,51.727C32.527,56.949 35.573,63.791 37.023,68.946C38.652,74.736 35.328,80.76 29.562,82.47L19.259,85.526C17.638,86.006 15.945,86.103 14.314,85.828C10.947,88.205 6.339,89.675 0,89.675" style="fill:rgb(151,196,242);fill-rule:nonzero;"/>
        </g>
        <g transform="matrix(1,0,0,1,1172.91,2604.49)">
            <path d="M0,90.452C-1.183,90.452 -2.345,90.261 -3.446,89.896C-4.468,90.21 -5.553,90.379 -6.678,90.379L-16.769,90.379C-22.844,90.379 -27.769,85.454 -27.769,79.379L-27.769,70.365C-27.973,70.289 -28.176,70.207 -28.377,70.118C-31.69,68.66 -34.074,65.665 -34.751,62.108C-35.123,60.156 -36.543,55.958 -37.17,54.743C-38.656,52.166 -39.035,49.095 -38.219,46.23C-37.5,43.713 -35.911,41.546 -33.755,40.104C-35.426,38.175 -36.438,35.658 -36.438,32.905L-36.438,23.668C-36.438,18.946 -33.463,14.919 -29.285,13.359C-28.453,10.98 -26.823,8.941 -24.646,7.608L-16.759,2.776C-12.228,0 -6.358,0.861 -2.815,4.821C-2.469,5.209 -2.123,5.608 -1.78,6.016C0.096,4.53 2.468,3.642 5.047,3.642L37.095,3.642C43.17,3.642 48.095,8.567 48.095,14.642L48.095,55.431C48.095,56.016 48.049,56.591 47.961,57.151C51.216,59.323 53.163,63.142 52.817,67.23C52.339,72.886 50.884,90.095 33.258,90.095L29.207,90.095C22.91,90.095 18.028,88.264 14.662,84.646C11.59,86.72 7.851,88.517 3.292,89.946C2.199,90.289 1.091,90.452 0,90.452" style="fill:rgb(151,196,242);fill-rule:nonzero;"/>
        </g>
        <g transform="matrix(1,0,0,1,734.017,2610.07)">
            <path d="M0,83.375C-2.185,83.375 -4.31,82.579 -5.964,81.114C-7.086,80.122 -10.79,77.81 -12.255,77.188C-14.798,76.109 -16.704,73.923 -17.426,71.257C-18.149,68.592 -17.607,65.742 -15.958,63.526C-13.712,60.513 -12.782,56.151 -12.397,52.279C-16.952,51.834 -20.511,47.994 -20.511,43.322L-20.511,27.191C-20.511,22.221 -16.482,18.191 -11.511,18.191L-10.776,18.191L-10.776,9C-10.776,4.029 -6.747,0 -1.776,0L40.576,0C45.547,0 49.576,4.029 49.576,9L49.576,18.191L51.235,18.191C56.206,18.191 60.235,22.221 60.235,27.191L60.235,43.322C60.235,48.293 56.206,52.322 51.235,52.322L51.139,52.322L51.139,64.711C51.139,67.696 51.139,76.782 41.634,80.759C37.204,82.657 32.243,82.807 25.725,82.807C21.341,82.807 17.595,79.647 16.854,75.327C16.78,74.897 16.641,74.354 16.457,73.76C14.246,74.121 12.134,74.467 10.159,74.795C9.323,76.493 8.396,78.072 7.379,79.529C5.909,81.633 3.611,83.009 1.062,83.313C0.708,83.354 0.353,83.375 0,83.375" style="fill:rgb(151,196,242);fill-rule:nonzero;"/>
        </g>
        <g transform="matrix(1,0,0,1,849.417,2607.74)">
            <path d="M0,85.424C-2.473,85.424 -4.866,84.4 -6.573,82.578C-14.299,83.121 -20.958,83.667 -22.214,84.138C-24.541,85.011 -27.127,84.882 -29.356,83.782C-30.077,83.426 -30.74,82.98 -31.331,82.457C-32.951,84.028 -35.161,84.995 -37.596,84.995L-46.691,84.995C-49.725,84.995 -52.408,83.494 -54.038,81.195C-56.482,80.817 -58.665,79.448 -60.071,77.408C-61.093,75.925 -63.341,73.409 -64.609,72.329C-66.804,70.458 -67.97,67.648 -67.744,64.772C-67.563,62.473 -66.509,60.354 -64.835,58.828C-65.353,57.694 -65.64,56.432 -65.64,55.104L-65.64,47.43C-65.64,45.234 -64.854,43.222 -63.547,41.66C-63.628,41.455 -63.703,41.278 -63.767,41.136C-64.06,40.491 -64.273,39.82 -64.407,39.139C-65.278,37.753 -65.782,36.112 -65.782,34.355L-65.782,28.883C-65.782,25.247 -63.626,22.115 -60.523,20.695L-60.523,10.336C-60.523,5.365 -56.494,1.336 -51.523,1.336L-22.958,1.336C-19.949,1.336 -17.285,2.812 -15.651,5.08C-12.593,3.991 -9.999,2.859 -8.662,1.975C-6.017,0.227 -2.649,0 0.206,1.375L8.022,5.141C10.921,6.537 12.854,9.375 13.092,12.584C13.182,13.802 13.023,15.002 12.646,16.122C13.704,17.354 14.428,18.867 14.701,20.522C14.948,22.015 14.812,23.519 14.336,24.905C15.292,25.986 15.99,27.295 16.342,28.74C17.068,31.716 16.23,34.856 14.12,37.075C12.603,38.67 10.899,40.133 8.992,41.472C10.486,43.246 12.334,44.802 14.215,45.795C16.799,47.158 18.561,49.692 18.939,52.589C19.317,55.487 18.266,58.387 16.118,60.368C15.305,61.119 14.049,62.575 13.025,63.907C14.087,65.561 15.047,67.116 15.807,68.473C17.042,70.68 17.292,73.303 16.496,75.703C15.7,78.103 13.931,80.057 11.623,81.088L3.664,84.641C2.473,85.172 1.227,85.424 0,85.424" style="fill:rgb(151,196,242);fill-rule:nonzero;"/>
        </g>
        <g transform="matrix(1,0,0,1,918.902,2606.76)">
            <path d="M0,86.185L-10.232,86.185C-11.771,86.185 -13.219,85.799 -14.486,85.119L-31.703,85.119C-32.97,85.799 -34.418,86.185 -35.957,86.185L-45.691,86.185C-50.662,86.185 -54.691,82.156 -54.691,77.185L-54.691,63.754C-54.691,62.271 -54.333,60.872 -53.697,59.637L-53.697,58.827L-55.569,58.827C-60.54,58.827 -64.569,54.797 -64.569,49.827L-64.569,43.147C-64.569,40.503 -63.429,38.126 -61.614,36.48C-61.892,36.234 -62.145,36.03 -62.333,35.906C-64.82,34.262 -66.354,31.478 -66.393,28.497C-66.426,25.909 -65.361,23.44 -63.48,21.717C-63.997,20.581 -64.285,19.321 -64.285,17.992L-64.285,11.952C-64.285,6.981 -60.255,2.952 -55.285,2.952L-52.87,2.952C-51.291,1.58 -49.228,0.748 -46.971,0.748L-39.012,0.748C-38.503,0.748 -38.005,0.79 -37.52,0.872C-37.034,0.79 -36.536,0.748 -36.027,0.748L-28.069,0.748C-25.812,0.748 -23.749,1.58 -22.169,2.952L-21.42,2.952C-19.305,0.937 -16.259,0 -13.222,0.686L-5.05,2.534C-2.83,3.036 -0.891,4.358 0.387,6.22L9.309,6.22C14.28,6.22 18.309,10.249 18.309,15.22L18.309,21.971C18.309,24.472 17.289,26.736 15.641,28.367C17.019,29.761 17.913,31.578 18.165,33.547C18.381,35.234 18.113,36.932 17.415,38.451C18.252,39.818 18.735,41.426 18.735,43.147L18.735,49.827C18.735,54.797 14.706,58.827 9.735,58.827L8.147,58.827L8.147,59.926C8.694,61.087 9,62.385 9,63.754L9,77.185C9,82.156 4.971,86.185 0,86.185" style="fill:rgb(151,196,242);fill-rule:nonzero;"/>
        </g>
        <g transform="matrix(1,0,0,1,993.786,2605.85)">
            <path d="M0,87.297C-2.271,87.297 -4.594,86.778 -6.905,85.755C-8.045,85.239 -9.08,84.592 -10.02,83.804C-11.67,85.813 -14.174,87.094 -16.977,87.094L-26.569,87.094C-29.666,87.094 -32.397,85.53 -34.017,83.149C-34.595,83.266 -35.194,83.327 -35.808,83.327L-42.531,83.327C-44.173,85.077 -46.507,86.17 -49.096,86.17L-56.983,86.17C-61.954,86.17 -65.983,82.141 -65.983,77.17L-65.983,52.228C-65.983,52.017 -65.976,51.808 -65.962,51.6C-66.069,51.044 -66.125,50.47 -66.125,49.883L-66.125,42.208C-66.125,41.848 -66.104,41.492 -66.063,41.142C-66.104,40.792 -66.125,40.437 -66.125,40.076L-66.125,36.833C-67.875,35.192 -68.968,32.859 -68.968,30.27L-68.968,22.24C-68.968,17.991 -66.022,14.429 -62.062,13.485C-61.885,10.418 -60.139,7.526 -57.225,6.011L-49.977,2.245C-45.659,0 -40.341,1.596 -37.969,5.844C-37.84,6.074 -37.711,6.308 -37.583,6.543C-36.144,5.568 -34.408,4.997 -32.538,4.997L0.22,4.997C2.672,4.997 5.018,5.998 6.715,7.768C8.412,9.537 9.314,11.923 9.212,14.373C8.675,27.229 8.63,42.049 8.898,52.244C9.451,52.859 9.926,53.556 10.302,54.327C11.649,57.095 13.563,60.216 14.196,60.97C15.865,62.888 16.637,65.414 16.333,67.939C14.236,85.41 4.213,87.297 0,87.297" style="fill:rgb(151,196,242);fill-rule:nonzero;"/>
        </g>
        <g transform="matrix(1,0,0,1,1049.71,2609.14)">
            <path d="M0,83.875C-3.825,83.875 -7.153,81.473 -8.438,78.01C-11.92,81.658 -15.856,82.683 -18.652,83.117C-20.597,83.452 -23.139,83.614 -26.416,83.614C-27.203,83.614 -28.012,83.605 -28.829,83.588C-30.62,83.55 -32.284,82.988 -33.673,82.05C-35.627,83.49 -38.092,84.087 -40.505,83.679C-43.14,83.235 -45.44,81.646 -46.786,79.338C-47.7,77.771 -49.745,75.479 -50.993,74.623C-53.325,73.024 -54.771,70.423 -54.896,67.599C-55.021,64.774 -53.812,62.055 -51.63,60.256C-47.438,56.801 -45.529,51.778 -44.597,44.793C-48.115,43.569 -50.641,40.225 -50.641,36.289L-50.641,10.636C-50.641,5.665 -46.611,1.636 -41.641,1.636L-11.653,1.636C-7.962,1.636 -4.79,3.857 -3.401,7.037L0.266,7.037C1.081,2.904 4.725,-0.212 9.096,-0.212L19.329,-0.212C24.3,-0.212 28.329,3.817 28.329,8.788L28.329,62.652C28.329,66.67 28.329,76.079 19.156,80.864C19.089,80.899 19.02,80.935 18.951,80.969C14.022,83.381 7.811,83.875 0,83.875" style="fill:rgb(151,196,242);fill-rule:nonzero;"/>
        </g>
        <g transform="matrix(1,0,0,1,1116,2606.47)">
            <path d="M0,85.479L-11.44,85.479C-16.663,85.479 -22.829,84.834 -27.338,81.202C-29.595,82.369 -32.326,82.578 -34.855,81.553L-44.164,77.787C-46.474,76.852 -48.293,75.001 -49.188,72.675C-50.083,70.349 -49.973,67.756 -48.885,65.515C-47.008,61.645 -45.227,55.576 -44.347,50.052C-44.147,48.799 -43.688,47.619 -43.016,46.578C-44.056,44.916 -44.541,42.935 -44.345,40.926C-44.237,39.822 -43.929,38.764 -43.449,37.799C-43.843,37.53 -44.207,37.29 -44.523,37.094C-47.11,35.497 -48.715,32.701 -48.791,29.662C-48.867,26.623 -47.403,23.75 -44.899,22.025C-40.048,18.684 -35.357,12.616 -32.948,6.567C-31.253,2.307 -26.624,0 -22.204,1.217L-12.113,3.988C-9.778,4.628 -7.807,6.181 -6.634,8.286L22.526,8.286C24.997,8.286 27.359,9.301 29.059,11.095C30.759,12.888 31.646,15.301 31.514,17.769L31.3,21.749C30.547,36.925 29.636,44.758 27.72,49.666C30.391,54.881 33.614,62.016 35.099,67.291C36.431,72.028 33.712,76.958 28.993,78.357L18.689,81.413C17.091,81.886 15.407,81.903 13.823,81.483C10.69,83.955 6.272,85.479 0,85.479" style="fill:rgb(151,196,242);fill-rule:nonzero;"/>
        </g>
        <g transform="matrix(1,0,0,1,1172.91,2606.71)">
            <path d="M0,86.241C-1.187,86.241 -2.35,86.005 -3.424,85.561C-4.434,85.953 -5.53,86.168 -6.678,86.168L-16.769,86.168C-21.739,86.168 -25.769,82.138 -25.769,77.168L-25.769,66.653C-26.382,66.526 -26.986,66.335 -27.571,66.077C-30.282,64.884 -32.232,62.433 -32.786,59.523C-33.205,57.323 -34.761,52.762 -35.422,51.56C-36.664,49.44 -36.978,46.918 -36.303,44.554C-35.629,42.191 -34.01,40.22 -31.836,39.075C-31.342,38.815 -30.848,38.534 -30.355,38.233C-32.813,36.626 -34.438,33.849 -34.438,30.694L-34.438,21.457C-34.438,17.256 -31.559,13.726 -27.666,12.735C-27.12,10.394 -25.659,8.363 -23.602,7.102L-15.714,2.27C-12.007,0 -7.206,0.704 -4.306,3.944C-3.508,4.835 -2.717,5.791 -1.954,6.776C-0.305,4.736 2.219,3.431 5.047,3.431L37.095,3.431C42.065,3.431 46.095,7.461 46.095,12.431L46.095,53.22C46.095,54.169 45.948,55.084 45.676,55.942C49.032,57.512 51.146,61.04 50.824,64.851C50.338,70.603 49.046,85.884 33.258,85.884L29.207,85.884C21.815,85.884 17.541,83.194 15.069,79.712C11.889,82.134 7.845,84.213 2.694,85.827C1.8,86.107 0.893,86.241 0,86.241" style="fill:rgb(151,196,242);fill-rule:nonzero;"/>
        </g>
        <g transform="matrix(1,0,0,1,0,-439.823)">
            <path d="M764.147,3074.59L756.97,3074.59L756.97,3077.08L764.147,3077.08L764.147,3074.59ZM742.119,3077.08L748.017,3077.08L748.017,3068.55L764.147,3068.55L764.147,3066.56L742.119,3066.56L742.119,3077.08ZM766.208,3103.66L766.208,3095.27L740.769,3095.27L740.769,3095.49C740.769,3098.97 740.555,3103.09 739.987,3107.28C744.677,3106.71 750.646,3105.93 757.112,3105.01C752.067,3103.8 745.743,3102.8 740.626,3102.52L743.398,3095.98C750.433,3096.05 760.168,3097.55 765.426,3099.32L763.508,3104.08L766.208,3103.66ZM775.588,3085.75L731.673,3085.75L731.673,3087.53L775.588,3087.53L775.588,3085.75ZM785.252,3093.21L776.156,3093.21L776.156,3114.6C776.156,3118.93 775.233,3121.07 772.177,3122.35C769.192,3123.62 765.071,3123.7 759.742,3123.7C759.315,3121.21 758.036,3117.8 756.899,3115.6C759.67,3115.74 763.721,3115.74 764.716,3115.74C765.782,3115.67 766.208,3115.38 766.208,3114.46L766.208,3111.9C757.61,3113.39 749.083,3114.74 742.261,3115.88L739.845,3108.2C738.921,3113.96 737.145,3119.79 734.018,3124.26C732.17,3122.63 727.623,3119.79 725.277,3118.79C730.465,3111.83 730.891,3102.02 730.891,3095.34L730.891,3093.21L722.506,3093.21L722.506,3077.08L732.241,3077.08L732.241,3058.89L774.593,3058.89L774.593,3077.08L785.252,3077.08L785.252,3093.21Z" style="fill:rgb(151,196,242);fill-rule:nonzero;"/>
        </g>
        <g transform="matrix(1,0,0,1,847.636,2652.53)">
            <path d="M0,-3.694C2.203,1.351 6.68,6.254 11.796,8.954C9.948,10.66 7.035,14.212 5.685,16.487C1.137,13.218 -2.914,8.67 -5.685,3.98L-11.725,3.98L-11.725,-3.694L0,-3.694ZM7.603,-22.809C2.345,-18.261 -5.756,-15.207 -13.573,-13.288C-14.781,-15.135 -16.983,-17.693 -18.973,-19.328C-12.223,-20.536 -4.193,-23.023 -0.285,-26.007L7.603,-22.809ZM5.898,-31.55C0.355,-27.784 -7.533,-24.657 -13.786,-22.809C-15.207,-24.587 -17.552,-27.003 -19.684,-28.565C-13.999,-29.987 -5.898,-32.687 -1.919,-35.316L5.898,-31.55ZM9.38,-13.927C3.837,-8.1 -5.259,-4.902 -15.705,-2.913C-16.699,-5.045 -18.76,-7.887 -20.607,-9.592C-11.867,-10.659 -3.127,-13.004 1.137,-16.769L9.38,-13.927ZM0.995,14.568C3.766,18.76 7.746,24.516 9.735,28.07L1.776,31.622C1.35,30.699 0.781,29.633 0.071,28.425C-17.907,29.633 -21.318,30.059 -23.592,30.911C-24.089,29.278 -25.582,25.156 -26.648,22.953C-25.155,22.598 -23.805,21.532 -22.242,19.898C-20.679,18.263 -15.847,12.152 -13.075,6.04L-4.477,10.375C-6.751,13.928 -9.665,17.695 -12.862,21.106L-4.548,20.679L-6.467,17.623L0.995,14.568ZM-32.546,-9.521L-30.201,-10.445L-39.936,-10.445C-40.86,-9.592 -41.926,-8.74 -43.063,-7.958L-31.693,-8.527L-32.546,-9.521ZM-25.582,-0.994C-26.15,-1.776 -26.932,-2.771 -27.785,-3.908C-46.971,-2.629 -49.742,-2.486 -51.803,-1.776C-52.158,-2.984 -53.082,-5.826 -53.793,-7.389C-52.869,-7.603 -52.016,-8.1 -51.021,-8.811C-50.524,-9.095 -49.742,-9.664 -48.748,-10.445L-55.001,-10.445L-55.001,-15.917L-49.742,-15.917L-49.742,-34.464L-21.176,-34.464L-21.176,-28.992L-40.434,-28.992L-40.434,-27.642L-23.521,-27.642L-23.521,-23.236L-40.434,-23.236L-40.434,-21.815L-23.521,-21.815L-23.521,-17.409L-40.434,-17.409L-40.434,-15.917L-19.755,-15.917L-19.755,-10.445L-24.587,-10.445C-22.526,-8.242 -20.181,-5.684 -18.831,-3.908L-25.582,-0.994ZM-35.814,11.158C-33.47,12.65 -28.495,16.202 -27.216,17.268L-32.546,24.019C-33.328,22.953 -34.536,21.461 -35.814,19.968L-35.814,31.196L-44.91,31.196L-44.91,20.963C-46.758,23.522 -48.818,25.795 -50.879,27.501C-52.3,25.44 -55.072,22.314 -56.99,20.679C-53.153,18.334 -49.174,14.426 -46.26,10.304L-54.859,10.304L-54.859,2.63L-44.91,2.63L-44.91,-2.06L-35.814,-2.06L-35.814,2.63L-27.927,2.63L-27.927,9.096C-24.8,5.97 -22.171,1.848 -20.75,-2.416L-12.293,-0.355C-14.709,6.325 -18.902,12.791 -23.521,16.771C-24.942,15.207 -28.211,12.294 -30.13,11.015C-29.845,10.802 -29.561,10.518 -29.277,10.304L-35.814,10.304L-35.814,11.158Z" style="fill:rgb(151,196,242);fill-rule:nonzero;"/>
        </g>
        <g transform="matrix(1,0,0,1,0,-443.162)">
            <path d="M882.946,3120.78L908.67,3120.78L908.67,3118.72L882.946,3118.72L882.946,3120.78ZM890.833,3069.9L882.875,3069.9L882.875,3059.67L890.833,3059.67L890.833,3061.87L898.935,3061.87L898.935,3067.91L890.833,3067.91L890.833,3069.9ZM877.759,3081.77L874.561,3081.77L874.561,3084.04L877.759,3084.04L877.759,3081.77ZM874.206,3107.07L918.05,3107.07L918.05,3112.04L874.206,3112.04L874.206,3107.07ZM918.05,3105.93L874.206,3105.93L874.206,3100.95L918.05,3100.95L918.05,3105.93ZM873.211,3113.68L918.902,3113.68L918.902,3127.11L908.67,3127.11L908.67,3126.04L882.946,3126.04L882.946,3127.11L873.211,3127.11L873.211,3113.68ZM873.566,3075.94C873.282,3076.44 872.855,3077.01 872.5,3077.51L884.581,3077.51L884.581,3084.97C885.078,3084.9 885.433,3084.75 885.789,3084.33C886.286,3083.55 886.783,3081.34 887.067,3075.94L873.566,3075.94ZM871.932,3067.91L863.618,3067.91L863.618,3061.87L871.932,3061.87L871.932,3059.67L879.891,3059.67L879.891,3069.26L871.932,3069.26L871.932,3067.91ZM928.638,3093.07L928.638,3099.75L863.333,3099.75L863.333,3093.07L888.986,3093.07C888.773,3092.43 888.489,3091.79 888.275,3091.22L898.295,3089.16C898.935,3090.37 899.645,3091.79 900.071,3093.07L928.638,3093.07ZM867.881,3082.48C867.526,3082.84 867.1,3083.19 866.744,3083.47C865.607,3081.77 863.12,3079.35 861.486,3078.29C865.252,3075.66 867.739,3072.25 869.16,3069.12L876.551,3070.4L876.266,3071.04L895.737,3071.04L895.737,3072.67C899.361,3069.19 902.203,3064.43 903.696,3059.39L911.868,3061.23C911.441,3062.58 910.944,3063.86 910.375,3065.14L928.211,3065.14L928.211,3071.89L923.237,3071.89C922.242,3074.66 920.963,3077.08 919.329,3079.21C922.74,3081.06 925.937,3082.98 928.14,3084.61L922.882,3091.15C920.608,3089.37 917.126,3087.1 913.36,3084.9C909.594,3087.53 905.046,3089.44 899.787,3090.87C899.005,3089.09 896.661,3085.82 895.239,3084.26C899.29,3083.47 902.843,3082.34 905.827,3080.85C904.619,3080.21 903.411,3079.64 902.274,3079.07L907.178,3073.31C908.812,3074.02 910.518,3074.81 912.365,3075.66C913.289,3074.52 914.07,3073.31 914.639,3071.89L906.822,3071.89C904.904,3074.81 902.772,3077.43 900.569,3079.43C899.432,3078.36 897.371,3076.72 895.595,3075.45C895.097,3083.47 894.387,3087.17 893.107,3088.73C891.971,3090.16 890.479,3090.72 888.986,3090.94C887.636,3091.15 885.504,3091.22 883.088,3091.08C883.088,3090.3 882.875,3089.3 882.662,3088.31L874.561,3088.31L874.561,3090.01L867.881,3090.01L867.881,3082.48Z" style="fill:rgb(151,196,242);fill-rule:nonzero;"/>
        </g>
        <g transform="matrix(1,0,0,1,994.006,2681.81)">
            <path d="M0,-61.964C-0.853,-41.569 -0.64,-9.593 1.137,-8.811C1.492,-8.669 1.776,-13.43 1.99,-17.693C3.34,-14.922 5.756,-10.73 7.178,-9.095C5.898,1.564 1.492,3.766 -3.481,1.564C-10.232,-1.491 -10.375,-26.789 -10.304,-52.157L-17.196,-52.157L-17.196,-34.534L-11.725,-34.534L-11.725,-25.013L-17.196,-25.013L-17.196,2.133L-26.789,2.133L-26.789,-25.013L-33.824,-25.013L-33.824,-34.534L-26.789,-34.534L-26.789,-52.157L-32.758,-52.157L-32.758,-61.964L0,-61.964ZM-49.315,-9.806L-44.057,-9.806L-44.057,-15.633L-49.315,-15.633L-49.315,-9.806ZM-36.027,-1.634L-49.315,-1.634L-49.315,1.209L-57.203,1.209L-57.203,-23.734L-36.027,-23.734L-36.027,-1.634ZM-57.345,-33.753L-36.027,-33.753L-36.027,-26.078L-57.345,-26.078L-57.345,-33.753ZM-57.345,-43.56L-36.24,-43.56L-36.24,-35.885L-57.345,-35.885L-57.345,-43.56ZM-33.824,-45.692L-60.188,-45.692L-60.188,-53.721L-49.671,-53.721C-50.666,-56.35 -52.087,-59.477 -53.295,-61.964L-46.047,-65.73C-44.341,-62.675 -42.423,-58.695 -41.428,-55.995L-45.336,-53.721L-33.824,-53.721L-33.824,-45.692Z" style="fill:rgb(151,196,242);fill-rule:nonzero;"/>
        </g>
        <g transform="matrix(1,0,0,1,1069.04,2684.02)">
            <path d="M0,-66.087L0,-12.223C0,-6.467 -1.066,-3.695 -4.335,-1.99C-7.675,-0.356 -12.791,0 -19.329,0C-19.755,-2.985 -21.39,-7.817 -22.882,-10.731C-18.405,-10.518 -13.715,-10.518 -12.151,-10.518C-10.802,-10.518 -10.233,-10.943 -10.233,-12.294L-10.233,-66.087L0,-66.087ZM-16.629,-18.191L-26.648,-18.191L-26.648,-58.837L-16.629,-58.837L-16.629,-18.191ZM-51.661,-47.682L-40.931,-47.682L-40.931,-55.214L-51.661,-55.214L-51.661,-47.682ZM-30.201,-33.754C-30.201,-33.754 -30.272,-31.267 -30.343,-30.13C-30.982,-13.289 -31.693,-6.254 -33.683,-3.767C-35.317,-1.706 -37.094,-0.995 -39.438,-0.64C-41.429,-0.285 -44.626,-0.214 -47.966,-0.285C-48.108,-2.985 -49.174,-6.751 -50.666,-9.167C-48.037,-8.883 -45.55,-8.883 -44.271,-8.883C-43.276,-8.883 -42.565,-9.025 -41.926,-9.807C-41.002,-10.943 -40.434,-15.066 -40.007,-24.801L-45.621,-24.801C-47.397,-15.35 -50.809,-6.538 -58.341,-0.071C-59.833,-2.63 -62.746,-5.97 -65.233,-7.675C-55.925,-15.35 -54.717,-27.287 -54.22,-38.586L-60.97,-38.586L-60.97,-64.239L-30.982,-64.239L-30.982,-38.586L-44.129,-38.586C-44.2,-36.952 -44.342,-35.389 -44.484,-33.754L-30.201,-33.754Z" style="fill:rgb(151,196,242);fill-rule:nonzero;"/>
        </g>
        <g transform="matrix(1,0,0,1,1135.33,2639.82)">
            <path d="M0,19.683C2.7,24.87 5.827,31.834 7.106,36.382L-3.197,39.438C-4.121,34.961 -6.964,27.785 -9.521,22.313L0,19.683ZM-23.094,16.273C-20.536,19.329 -17.48,23.521 -16.13,26.363L-25.155,30.911C-26.292,28.069 -29.135,23.662 -31.551,20.394L-23.094,16.273ZM-20.109,34.037C-16.983,34.037 -16.415,32.901 -15.988,25.51C-13.856,27.074 -9.521,28.637 -6.821,29.277C-7.958,40.29 -10.729,43.133 -19.328,43.133L-30.769,43.133C-41.285,43.133 -43.986,40.22 -43.986,31.409L-43.986,17.765L-33.753,17.765L-33.753,31.266C-33.753,33.753 -33.185,34.037 -29.561,34.037L-20.109,34.037ZM-41.854,-6.893C-44.625,-3.198 -47.61,0.071 -50.595,2.629C-52.513,0.782 -56.706,-2.417 -59.122,-3.909C-52.727,-8.314 -46.971,-15.776 -43.915,-23.45L-33.824,-20.679C-34.464,-19.116 -35.245,-17.552 -36.027,-16.06L3.198,-16.06L2.984,-12.081C2.132,5.116 1.066,12.435 -1.137,15.065C-2.913,17.338 -4.902,18.121 -7.39,18.475C-9.521,18.83 -12.933,18.902 -16.557,18.83C-16.699,15.917 -17.907,11.867 -19.47,9.309C-16.628,9.593 -14.069,9.593 -12.648,9.593C-11.512,9.593 -10.872,9.451 -10.09,8.669C-9.024,7.461 -8.313,3.055 -7.674,-6.893L-11.085,-6.893C-15.42,4.05 -22.312,13.287 -30.271,19.186C-31.835,17.338 -35.672,13.857 -37.804,12.293C-30.769,8.03 -25.155,1.207 -21.602,-6.893L-25.937,-6.893C-31.124,2.629 -39.154,10.659 -47.539,15.775C-49.031,13.857 -52.584,10.09 -54.716,8.455C-47.681,4.974 -41.428,-0.426 -37.093,-6.893L-41.854,-6.893ZM-60.116,36.098C-57.771,31.266 -55.782,24.373 -54.787,18.121L-45.834,21.034C-46.971,27.287 -48.604,35.033 -50.808,39.865L-60.116,36.098Z" style="fill:rgb(151,196,242);fill-rule:nonzero;"/>
        </g>
        <g transform="matrix(1,0,0,1,0,-442.736)">
            <path d="M1187.34,3094.56L1200.13,3094.56L1200.13,3091.36L1187.34,3091.36L1187.34,3094.56ZM1187.34,3083.83L1200.13,3083.83L1200.13,3080.63L1187.34,3080.63L1187.34,3083.83ZM1187.34,3073.1L1200.13,3073.1L1200.13,3069.97L1187.34,3069.97L1187.34,3073.1ZM1205.03,3117.44C1205.96,3117.44 1206.17,3116.59 1206.38,3109.77C1208.09,3111.33 1212.21,3112.89 1214.77,3113.53C1213.91,3123.62 1211.5,3126.33 1206.17,3126.33L1202.12,3126.33C1195.01,3126.33 1193.59,3123.41 1193.59,3115.24L1193.59,3102.66L1190.75,3102.66C1189.9,3114.24 1187.2,3122.2 1172.91,3126.68C1172.06,3124.41 1169.72,3120.92 1167.87,3119.22C1179.45,3116.09 1180.94,3110.91 1181.58,3102.66L1177.96,3102.66L1177.96,3061.87L1210.01,3061.87L1210.01,3102.66L1203.11,3102.66L1203.11,3115.17C1203.11,3117.23 1203.19,3117.44 1203.9,3117.44L1205.03,3117.44ZM1170.21,3106.21C1169.22,3104.58 1167.73,3102.59 1166.23,3100.6L1166.23,3126.61L1156.14,3126.61L1156.14,3101.95C1153.8,3104.01 1151.38,3105.79 1148.97,3107.28C1148.4,3104.3 1146.48,3098.54 1145.27,3096.48C1151.88,3093 1158.13,3086.89 1162.33,3080.14L1147.48,3080.14L1147.48,3070.9L1158.42,3070.9C1157.14,3068.7 1155.5,3066.21 1154.01,3064.22L1161.9,3059.39C1164.32,3062.09 1166.87,3065.78 1168.08,3068.41L1164.32,3070.9L1167.94,3070.9L1169.72,3070.54L1175.12,3074.45C1173.2,3079.64 1170.5,3084.61 1167.3,3089.23C1170.21,3091.65 1175.19,3096.34 1176.54,3097.62L1170.21,3106.21Z" style="fill:rgb(151,196,242);fill-rule:nonzero;"/>
        </g>
        <g transform="matrix(1,0,0,1,727.017,2601.07)">
            <path d="M0,87.375C-2.67,87.375 -5.266,86.402 -7.288,84.613C-8.286,83.74 -11.778,81.563 -13.037,81.029C-16.144,79.711 -18.474,77.038 -19.357,73.78C-20.24,70.522 -19.578,67.039 -17.561,64.332C-15.905,62.108 -15.047,58.959 -14.603,55.882C-19.173,54.546 -22.511,50.324 -22.511,45.322L-22.511,29.191C-22.511,23.544 -18.255,18.891 -12.776,18.264L-12.776,11C-12.776,4.925 -7.851,0 -1.776,0L40.576,0C46.651,0 51.576,4.925 51.576,11L51.576,18.196C57.493,18.377 62.235,23.23 62.235,29.191L62.235,45.322C62.235,50.748 58.307,55.257 53.139,56.158L53.139,66.711C53.139,75.604 49.528,81.624 42.405,84.604C37.267,86.807 31.399,86.807 25.725,86.807C20.492,86.807 16.002,83.124 14.952,78.032C13.76,78.228 12.602,78.418 11.484,78.603C10.728,80.045 9.906,81.403 9.019,82.674C7.222,85.245 4.414,86.928 1.299,87.298C0.866,87.35 0.432,87.375 0,87.375" style="fill:rgb(3,110,184);fill-rule:nonzero;"/>
        </g>
        <g transform="matrix(1,0,0,1,842.419,2598.63)">
            <path d="M0,89.533C-2.695,89.533 -5.312,88.538 -7.327,86.744C-13.45,87.179 -20.221,87.721 -21.528,88.124C-24.375,89.191 -27.526,89.031 -30.25,87.686C-30.604,87.512 -30.948,87.318 -31.278,87.108C-33.066,88.365 -35.245,89.103 -37.597,89.103L-46.693,89.103C-50.101,89.103 -53.146,87.554 -55.164,85.121C-57.817,84.501 -60.16,82.915 -61.719,80.651C-62.631,79.329 -64.784,76.917 -65.907,75.959C-68.591,73.673 -70.016,70.238 -69.739,66.723C-69.555,64.387 -68.634,62.203 -67.154,60.462C-67.471,59.434 -67.642,58.343 -67.642,57.212L-67.642,49.538C-67.642,47.304 -66.976,45.227 -65.833,43.492C-66.023,43.002 -66.176,42.502 -66.293,41.995C-67.241,40.37 -67.784,38.479 -67.784,36.463L-67.784,30.991C-67.784,27.019 -65.679,23.54 -62.525,21.606L-62.525,12.444C-62.525,6.369 -57.6,1.444 -51.525,1.444L-22.959,1.444C-19.84,1.444 -17.024,2.742 -15.022,4.828C-12.703,3.954 -10.791,3.092 -9.765,2.414C-6.534,0.278 -2.417,0 1.072,1.681L8.889,5.447C12.432,7.154 14.794,10.623 15.085,14.545C15.167,15.652 15.081,16.749 14.84,17.803C15.765,19.127 16.401,20.658 16.673,22.304C16.911,23.744 16.857,25.193 16.539,26.573C17.347,27.7 17.945,28.986 18.284,30.374C19.171,34.011 18.147,37.849 15.567,40.561C14.467,41.719 13.276,42.808 11.989,43.834C12.984,44.764 14.067,45.564 15.147,46.134C18.306,47.801 20.458,50.897 20.92,54.438C21.383,57.979 20.098,61.524 17.473,63.946C16.958,64.421 16.21,65.257 15.477,66.146C16.254,67.381 16.959,68.548 17.551,69.604C19.06,72.301 19.366,75.508 18.393,78.441C17.42,81.374 15.258,83.762 12.436,85.022L4.478,88.575C3.022,89.224 1.499,89.533 0,89.533" style="fill:rgb(3,110,184);fill-rule:nonzero;"/>
        </g>
        <g transform="matrix(1,0,0,1,911.902,2597.75)">
            <path d="M0,90.19L-10.232,90.19C-11.926,90.19 -13.53,89.807 -14.963,89.124L-31.226,89.124C-32.659,89.807 -34.263,90.19 -35.957,90.19L-45.691,90.19C-51.767,90.19 -56.691,85.265 -56.691,79.19L-56.691,65.759C-56.691,64.737 -56.552,63.748 -56.291,62.808C-62.03,62.436 -66.569,57.665 -66.569,51.832L-66.569,45.152C-66.569,42.772 -65.813,40.569 -64.529,38.769C-66.948,36.735 -68.381,33.743 -68.432,30.536C-68.475,27.833 -67.514,25.251 -65.798,23.243C-66.114,22.216 -66.285,21.127 -66.285,19.997L-66.285,13.957C-66.285,7.881 -61.36,2.957 -55.285,2.957L-53.576,2.957C-51.736,1.573 -49.45,0.753 -46.971,0.753L-39.012,0.753C-38.505,0.753 -38.007,0.788 -37.52,0.854C-37.032,0.788 -36.534,0.753 -36.027,0.753L-28.069,0.753C-25.754,0.753 -23.606,1.468 -21.834,2.69C-19.333,0.803 -16.055,0 -12.781,0.74L-4.609,2.587C-2.254,3.12 -0.159,4.407 1.374,6.225L9.309,6.225C15.384,6.225 20.309,11.15 20.309,17.225L20.309,23.976C20.309,26.368 19.545,28.582 18.249,30.387C19.261,31.832 19.92,33.513 20.148,35.297C20.368,37.008 20.18,38.728 19.622,40.325C20.335,41.782 20.735,43.419 20.735,45.152L20.735,51.832C20.735,57.617 16.27,62.359 10.597,62.798C10.86,63.741 11,64.733 11,65.759L11,79.19C11,85.265 6.075,90.19 0,90.19" style="fill:rgb(3,110,184);fill-rule:nonzero;"/>
        </g>
        <g transform="matrix(1,0,0,1,986.786,2596.76)">
            <path d="M0,91.387C-2.552,91.387 -5.147,90.811 -7.715,89.674C-8.456,89.338 -9.157,88.96 -9.82,88.537C-11.743,90.187 -14.244,91.184 -16.977,91.184L-26.57,91.184C-29.894,91.184 -32.873,89.71 -34.89,87.379C-35.192,87.405 -35.499,87.417 -35.808,87.417L-41.716,87.417C-43.667,89.184 -46.256,90.26 -49.096,90.26L-56.983,90.26C-63.059,90.26 -67.983,85.335 -67.983,79.26L-67.983,54.318C-67.983,54.149 -67.979,53.981 -67.972,53.814C-68.073,53.215 -68.125,52.6 -68.125,51.973L-68.125,44.298C-68.125,43.939 -68.108,43.583 -68.075,43.233C-68.108,42.881 -68.125,42.526 -68.125,42.166L-68.125,39.739C-69.892,37.787 -70.968,35.199 -70.968,32.36L-70.968,24.33C-70.968,19.635 -68.026,15.627 -63.885,14.048C-63.278,10.843 -61.257,7.942 -58.146,6.325L-50.898,2.56C-45.973,0 -39.982,1.529 -36.85,5.964C-35.526,5.4 -34.068,5.087 -32.539,5.087L0.22,5.087C3.217,5.087 6.084,6.31 8.158,8.473C10.233,10.636 11.335,13.552 11.21,16.546C10.69,28.99 10.635,43.461 10.88,53.586C11.347,54.185 11.757,54.838 12.1,55.542C13.337,58.083 15.134,61.037 15.74,61.788C17.78,64.134 18.689,67.181 18.319,70.267C15.967,89.863 3.703,91.387 0,91.387" style="fill:rgb(3,110,184);fill-rule:nonzero;"/>
        </g>
        <g transform="matrix(1,0,0,1,1042.71,2600.13)">
            <path d="M0,87.89C-3.68,87.89 -6.983,86.071 -8.988,83.233C-12.306,85.849 -15.754,86.705 -18.33,87.106C-20.387,87.458 -23.034,87.629 -26.416,87.629C-27.218,87.629 -28.04,87.62 -28.871,87.602C-30.579,87.566 -32.193,87.14 -33.626,86.411C-35.797,87.628 -38.341,88.087 -40.837,87.666C-44.057,87.124 -46.869,85.181 -48.514,82.361C-49.335,80.952 -51.217,78.91 -52.124,78.288C-54.975,76.334 -56.74,73.155 -56.894,69.703C-57.047,66.249 -55.568,62.926 -52.902,60.728C-49.467,57.896 -47.726,53.741 -46.796,48.024C-50.273,46.175 -52.641,42.516 -52.641,38.304L-52.641,12.651C-52.641,6.576 -47.716,1.651 -41.641,1.651L-11.653,1.651C-7.623,1.651 -4.099,3.819 -2.183,7.052L-1.248,7.052C0.285,2.824 4.338,-0.197 9.096,-0.197L19.329,-0.197C25.404,-0.197 30.329,4.728 30.329,10.803L30.329,64.667C30.329,68.671 30.329,79.307 20.082,84.653C19.998,84.696 19.914,84.739 19.83,84.78C14.557,87.361 8.089,87.89 0,87.89" style="fill:rgb(3,110,184);fill-rule:nonzero;"/>
        </g>
        <g transform="matrix(1,0,0,1,1109,2597.27)">
            <path d="M0,89.676L-11.44,89.676C-18.296,89.676 -23.669,88.361 -27.594,85.698C-30.095,86.643 -32.942,86.682 -35.605,85.605L-44.914,81.838C-47.737,80.696 -49.961,78.433 -51.055,75.59C-52.148,72.748 -52.015,69.579 -50.685,66.839C-48.886,63.131 -47.173,57.28 -46.322,51.935C-46.145,50.818 -45.798,49.748 -45.305,48.758C-46.161,46.974 -46.534,44.963 -46.336,42.929C-46.264,42.193 -46.118,41.473 -45.906,40.78C-48.873,38.797 -50.701,35.491 -50.79,31.908C-50.883,28.194 -49.094,24.683 -46.034,22.575C-41.486,19.443 -37.079,13.731 -34.807,8.024C-32.734,2.818 -27.077,0 -21.675,1.486L-11.584,4.256C-9.124,4.931 -6.994,6.434 -5.536,8.483L22.526,8.483C25.546,8.483 28.434,9.724 30.511,11.916C32.588,14.108 33.673,17.058 33.511,20.072L33.297,24.052C32.579,38.532 31.689,46.527 29.896,51.728C32.527,56.95 35.573,63.792 37.023,68.947C38.652,74.737 35.328,80.761 29.562,82.471L19.259,85.527C17.638,86.006 15.946,86.103 14.314,85.829C10.947,88.206 6.339,89.676 0,89.676" style="fill:rgb(3,110,184);fill-rule:nonzero;"/>
        </g>
        <g transform="matrix(1,0,0,1,1165.91,2597.5)">
            <path d="M0,90.451C-1.183,90.451 -2.345,90.26 -3.446,89.895C-4.468,90.209 -5.553,90.378 -6.678,90.378L-16.769,90.378C-22.844,90.378 -27.769,85.453 -27.769,79.378L-27.769,70.364C-27.973,70.288 -28.176,70.206 -28.377,70.117C-31.69,68.659 -34.074,65.664 -34.751,62.107C-35.123,60.155 -36.543,55.957 -37.17,54.742C-38.656,52.165 -39.035,49.094 -38.219,46.229C-37.5,43.712 -35.911,41.545 -33.755,40.103C-35.426,38.174 -36.438,35.657 -36.438,32.904L-36.438,23.667C-36.438,18.945 -33.463,14.918 -29.285,13.358C-28.453,10.979 -26.823,8.94 -24.646,7.607L-16.759,2.775C-12.227,0 -6.358,0.86 -2.815,4.82C-2.469,5.208 -2.123,5.607 -1.78,6.015C0.096,4.529 2.468,3.641 5.047,3.641L37.095,3.641C43.17,3.641 48.095,8.566 48.095,14.641L48.095,55.43C48.095,56.015 48.049,56.59 47.961,57.15C51.216,59.322 53.163,63.141 52.817,67.229C52.339,72.885 50.884,90.094 33.258,90.094L29.207,90.094C22.91,90.094 18.028,88.263 14.662,84.645C11.59,86.719 7.851,88.516 3.292,89.945C2.199,90.288 1.091,90.451 0,90.451" style="fill:rgb(3,110,184);fill-rule:nonzero;"/>
        </g>
        <g transform="matrix(1,0,0,1,727.017,2603.07)">
            <path d="M0,83.375C-2.185,83.375 -4.31,82.579 -5.964,81.114C-7.086,80.122 -10.79,77.81 -12.255,77.188C-14.798,76.109 -16.704,73.923 -17.426,71.257C-18.149,68.592 -17.607,65.742 -15.958,63.526C-13.712,60.513 -12.782,56.151 -12.397,52.279C-16.952,51.834 -20.511,47.994 -20.511,43.322L-20.511,27.191C-20.511,22.221 -16.482,18.191 -11.511,18.191L-10.776,18.191L-10.776,9C-10.776,4.029 -6.747,0 -1.776,0L40.576,0C45.547,0 49.576,4.029 49.576,9L49.576,18.191L51.235,18.191C56.206,18.191 60.235,22.221 60.235,27.191L60.235,43.322C60.235,48.293 56.206,52.322 51.235,52.322L51.139,52.322L51.139,64.711C51.139,67.696 51.139,76.782 41.634,80.759C37.204,82.657 32.243,82.807 25.725,82.807C21.341,82.807 17.595,79.647 16.854,75.327C16.78,74.897 16.641,74.354 16.457,73.76C14.246,74.121 12.134,74.467 10.159,74.795C9.323,76.493 8.396,78.072 7.379,79.529C5.909,81.633 3.611,83.009 1.062,83.313C0.708,83.354 0.353,83.375 0,83.375" style="fill:white;fill-rule:nonzero;"/>
        </g>
        <g transform="matrix(1,0,0,1,842.417,2600.74)">
            <path d="M0,85.424C-2.473,85.424 -4.866,84.4 -6.573,82.578C-14.299,83.121 -20.958,83.667 -22.214,84.138C-24.542,85.011 -27.126,84.882 -29.356,83.782C-30.077,83.426 -30.74,82.98 -31.331,82.457C-32.951,84.028 -35.161,84.995 -37.596,84.995L-46.691,84.995C-49.725,84.995 -52.408,83.494 -54.038,81.195C-56.482,80.817 -58.665,79.448 -60.071,77.408C-61.093,75.925 -63.341,73.409 -64.609,72.329C-66.804,70.458 -67.97,67.648 -67.744,64.772C-67.563,62.473 -66.509,60.354 -64.835,58.828C-65.353,57.694 -65.64,56.432 -65.64,55.104L-65.64,47.43C-65.64,45.234 -64.854,43.222 -63.547,41.66C-63.628,41.455 -63.703,41.278 -63.767,41.136C-64.06,40.491 -64.273,39.82 -64.407,39.139C-65.278,37.753 -65.782,36.112 -65.782,34.355L-65.782,28.883C-65.782,25.247 -63.626,22.115 -60.523,20.695L-60.523,10.336C-60.523,5.365 -56.494,1.336 -51.523,1.336L-22.958,1.336C-19.949,1.336 -17.285,2.812 -15.651,5.08C-12.593,3.991 -9.999,2.859 -8.662,1.975C-6.017,0.227 -2.649,0 0.206,1.375L8.022,5.141C10.921,6.537 12.854,9.375 13.092,12.584C13.182,13.802 13.023,15.002 12.646,16.122C13.704,17.354 14.428,18.867 14.701,20.522C14.948,22.015 14.812,23.519 14.336,24.905C15.292,25.986 15.99,27.295 16.342,28.74C17.068,31.716 16.23,34.856 14.12,37.075C12.603,38.67 10.899,40.133 8.992,41.472C10.486,43.246 12.334,44.802 14.215,45.795C16.799,47.158 18.561,49.692 18.939,52.589C19.317,55.487 18.266,58.387 16.118,60.368C15.305,61.119 14.049,62.575 13.025,63.907C14.087,65.561 15.047,67.116 15.807,68.473C17.042,70.68 17.292,73.303 16.496,75.703C15.7,78.103 13.931,80.057 11.623,81.088L3.664,84.641C2.473,85.172 1.227,85.424 0,85.424" style="fill:white;fill-rule:nonzero;"/>
        </g>
        <g transform="matrix(1,0,0,1,911.902,2599.76)">
            <path d="M0,86.186L-10.232,86.186C-11.771,86.186 -13.219,85.8 -14.486,85.12L-31.703,85.12C-32.97,85.8 -34.418,86.186 -35.957,86.186L-45.691,86.186C-50.662,86.186 -54.691,82.157 -54.691,77.186L-54.691,63.755C-54.691,62.272 -54.333,60.873 -53.697,59.638L-53.697,58.828L-55.569,58.828C-60.54,58.828 -64.569,54.798 -64.569,49.828L-64.569,43.148C-64.569,40.504 -63.429,38.127 -61.614,36.481C-61.892,36.235 -62.145,36.031 -62.333,35.907C-64.82,34.263 -66.354,31.479 -66.393,28.498C-66.426,25.91 -65.361,23.441 -63.48,21.718C-63.997,20.582 -64.285,19.322 -64.285,17.993L-64.285,11.953C-64.285,6.982 -60.255,2.953 -55.285,2.953L-52.87,2.953C-51.291,1.581 -49.228,0.749 -46.971,0.749L-39.012,0.749C-38.503,0.749 -38.005,0.791 -37.52,0.873C-37.034,0.791 -36.536,0.749 -36.027,0.749L-28.069,0.749C-25.812,0.749 -23.749,1.581 -22.169,2.953L-21.42,2.953C-19.306,0.938 -16.258,0 -13.222,0.687L-5.05,2.535C-2.83,3.037 -0.891,4.359 0.387,6.221L9.309,6.221C14.28,6.221 18.309,10.25 18.309,15.221L18.309,21.972C18.309,24.473 17.289,26.737 15.641,28.368C17.019,29.762 17.913,31.579 18.165,33.548C18.381,35.235 18.113,36.933 17.415,38.452C18.252,39.819 18.735,41.427 18.735,43.148L18.735,49.828C18.735,54.798 14.706,58.828 9.735,58.828L8.147,58.828L8.147,59.927C8.694,61.088 9,62.386 9,63.755L9,77.186C9,82.157 4.971,86.186 0,86.186" style="fill:white;fill-rule:nonzero;"/>
        </g>
        <g transform="matrix(1,0,0,1,986.786,2598.85)">
            <path d="M0,87.297C-2.271,87.297 -4.594,86.778 -6.905,85.755C-8.045,85.239 -9.08,84.592 -10.02,83.804C-11.67,85.813 -14.174,87.094 -16.977,87.094L-26.57,87.094C-29.667,87.094 -32.397,85.53 -34.017,83.15C-34.596,83.266 -35.194,83.327 -35.808,83.327L-42.531,83.327C-44.173,85.077 -46.507,86.17 -49.096,86.17L-56.983,86.17C-61.954,86.17 -65.983,82.141 -65.983,77.17L-65.983,52.228C-65.983,52.017 -65.976,51.808 -65.962,51.6C-66.069,51.044 -66.125,50.47 -66.125,49.883L-66.125,42.208C-66.125,41.848 -66.104,41.492 -66.063,41.142C-66.104,40.792 -66.125,40.437 -66.125,40.076L-66.125,36.833C-67.875,35.192 -68.968,32.859 -68.968,30.27L-68.968,22.24C-68.968,17.991 -66.022,14.429 -62.062,13.485C-61.885,10.418 -60.139,7.526 -57.225,6.011L-49.977,2.245C-45.659,0 -40.341,1.596 -37.969,5.844C-37.84,6.074 -37.712,6.308 -37.583,6.543C-36.145,5.568 -34.408,4.997 -32.539,4.997L0.22,4.997C2.672,4.997 5.018,5.998 6.715,7.768C8.412,9.537 9.314,11.923 9.212,14.373C8.675,27.229 8.63,42.049 8.898,52.244C9.451,52.859 9.926,53.556 10.302,54.327C11.649,57.095 13.563,60.216 14.196,60.97C15.865,62.888 16.637,65.414 16.333,67.939C14.236,85.41 4.213,87.297 0,87.297" style="fill:white;fill-rule:nonzero;"/>
        </g>
        <g transform="matrix(1,0,0,1,1042.71,2602.14)">
            <path d="M0,83.876C-3.825,83.876 -7.153,81.474 -8.438,78.011C-11.92,81.659 -15.856,82.684 -18.652,83.118C-20.597,83.453 -23.139,83.615 -26.416,83.615C-27.203,83.615 -28.012,83.606 -28.829,83.589C-30.62,83.551 -32.284,82.989 -33.673,82.051C-35.627,83.492 -38.093,84.087 -40.505,83.68C-43.14,83.236 -45.44,81.647 -46.786,79.339C-47.7,77.772 -49.745,75.48 -50.993,74.624C-53.325,73.025 -54.771,70.424 -54.896,67.6C-55.021,64.775 -53.812,62.056 -51.63,60.257C-47.438,56.802 -45.529,51.779 -44.597,44.794C-48.115,43.57 -50.641,40.226 -50.641,36.29L-50.641,10.637C-50.641,5.666 -46.611,1.637 -41.641,1.637L-11.653,1.637C-7.962,1.637 -4.79,3.858 -3.401,7.038L0.266,7.038C1.081,2.905 4.725,-0.211 9.096,-0.211L19.329,-0.211C24.3,-0.211 28.329,3.818 28.329,8.789L28.329,62.653C28.329,66.671 28.329,76.08 19.156,80.865C19.089,80.9 19.02,80.936 18.951,80.97C14.022,83.382 7.811,83.876 0,83.876" style="fill:white;fill-rule:nonzero;"/>
        </g>
        <g transform="matrix(1,0,0,1,1109,2599.47)">
            <path d="M0,85.479L-11.44,85.479C-16.663,85.479 -22.829,84.834 -27.338,81.202C-29.596,82.37 -32.327,82.578 -34.855,81.553L-44.164,77.787C-46.474,76.852 -48.293,75.001 -49.188,72.675C-50.083,70.349 -49.973,67.756 -48.885,65.515C-47.008,61.645 -45.227,55.576 -44.347,50.052C-44.147,48.799 -43.688,47.619 -43.016,46.578C-44.056,44.916 -44.541,42.935 -44.345,40.926C-44.237,39.822 -43.929,38.764 -43.449,37.799C-43.843,37.53 -44.207,37.29 -44.523,37.094C-47.11,35.497 -48.715,32.701 -48.791,29.662C-48.867,26.623 -47.403,23.75 -44.899,22.025C-40.048,18.684 -35.357,12.616 -32.948,6.567C-31.253,2.307 -26.625,0 -22.204,1.217L-12.113,3.988C-9.778,4.628 -7.807,6.181 -6.634,8.286L22.526,8.286C24.997,8.286 27.359,9.301 29.059,11.095C30.759,12.888 31.646,15.301 31.514,17.769L31.3,21.749C30.547,36.925 29.636,44.758 27.72,49.666C30.391,54.881 33.614,62.016 35.099,67.291C36.431,72.028 33.712,76.958 28.993,78.357L18.689,81.413C17.091,81.886 15.407,81.903 13.823,81.483C10.69,83.955 6.272,85.479 0,85.479" style="fill:white;fill-rule:nonzero;"/>
        </g>
        <g transform="matrix(1,0,0,1,1165.91,2599.71)">
            <path d="M0,86.241C-1.187,86.241 -2.35,86.005 -3.424,85.561C-4.434,85.953 -5.53,86.168 -6.678,86.168L-16.769,86.168C-21.739,86.168 -25.769,82.138 -25.769,77.168L-25.769,66.653C-26.382,66.526 -26.986,66.335 -27.571,66.077C-30.282,64.884 -32.232,62.433 -32.786,59.523C-33.205,57.323 -34.761,52.762 -35.422,51.56C-36.664,49.44 -36.978,46.918 -36.303,44.554C-35.629,42.191 -34.01,40.22 -31.836,39.075C-31.342,38.815 -30.848,38.534 -30.355,38.233C-32.813,36.626 -34.438,33.849 -34.438,30.694L-34.438,21.457C-34.438,17.256 -31.559,13.726 -27.666,12.735C-27.12,10.394 -25.659,8.363 -23.602,7.102L-15.714,2.27C-12.007,0 -7.205,0.704 -4.306,3.944C-3.508,4.835 -2.717,5.791 -1.954,6.776C-0.305,4.736 2.219,3.431 5.047,3.431L37.095,3.431C42.065,3.431 46.095,7.461 46.095,12.431L46.095,53.22C46.095,54.169 45.948,55.084 45.676,55.942C49.032,57.512 51.146,61.04 50.824,64.851C50.338,70.603 49.046,85.884 33.258,85.884L29.207,85.884C21.815,85.884 17.541,83.194 15.069,79.712C11.889,82.134 7.845,84.213 2.694,85.827C1.8,86.107 0.893,86.241 0,86.241" style="fill:white;fill-rule:nonzero;"/>
        </g>
        <g transform="matrix(1,0,0,1,0,-453.823)">
            <path d="M757.147,3081.59L749.97,3081.59L749.97,3084.08L757.147,3084.08L757.147,3081.59ZM735.119,3084.08L741.017,3084.08L741.017,3075.55L757.147,3075.55L757.147,3073.56L735.119,3073.56L735.119,3084.08ZM759.208,3110.66L759.208,3102.27L733.769,3102.27L733.769,3102.49C733.769,3105.97 733.555,3110.09 732.987,3114.28C737.677,3113.71 743.646,3112.93 750.112,3112.01C745.067,3110.8 738.743,3109.8 733.626,3109.52L736.398,3102.98C743.433,3103.05 753.168,3104.55 758.426,3106.32L756.508,3111.08L759.208,3110.66ZM768.588,3092.75L724.673,3092.75L724.673,3094.53L768.588,3094.53L768.588,3092.75ZM778.252,3100.21L769.156,3100.21L769.156,3121.6C769.156,3125.93 768.233,3128.07 765.177,3129.35C762.192,3130.62 758.071,3130.7 752.742,3130.7C752.315,3128.21 751.036,3124.8 749.899,3122.6C752.67,3122.74 756.721,3122.74 757.716,3122.74C758.782,3122.67 759.208,3122.38 759.208,3121.46L759.208,3118.9C750.61,3120.39 742.083,3121.74 735.261,3122.88L732.845,3115.2C731.921,3120.96 730.145,3126.79 727.018,3131.26C725.17,3129.63 720.623,3126.79 718.277,3125.79C723.465,3118.83 723.891,3109.02 723.891,3102.34L723.891,3100.21L715.506,3100.21L715.506,3084.08L725.241,3084.08L725.241,3065.89L767.593,3065.89L767.593,3084.08L778.252,3084.08L778.252,3100.21Z" style="fill:rgb(3,110,184);fill-rule:nonzero;"/>
        </g>
        <g transform="matrix(1,0,0,1,840.636,2645.53)">
            <path d="M0,-3.694C2.203,1.351 6.68,6.254 11.796,8.954C9.948,10.66 7.035,14.212 5.685,16.487C1.137,13.218 -2.914,8.67 -5.685,3.98L-11.725,3.98L-11.725,-3.694L0,-3.694ZM7.603,-22.809C2.345,-18.261 -5.756,-15.207 -13.573,-13.288C-14.781,-15.135 -16.983,-17.693 -18.973,-19.328C-12.223,-20.536 -4.193,-23.023 -0.285,-26.007L7.603,-22.809ZM5.898,-31.55C0.355,-27.784 -7.533,-24.657 -13.786,-22.809C-15.207,-24.587 -17.552,-27.003 -19.684,-28.565C-13.999,-29.987 -5.898,-32.687 -1.919,-35.316L5.898,-31.55ZM9.38,-13.927C3.837,-8.1 -5.259,-4.902 -15.705,-2.913C-16.699,-5.045 -18.76,-7.887 -20.607,-9.592C-11.867,-10.659 -3.127,-13.004 1.137,-16.769L9.38,-13.927ZM0.995,14.568C3.766,18.76 7.746,24.516 9.735,28.07L1.776,31.622C1.35,30.699 0.781,29.633 0.071,28.425C-17.907,29.633 -21.318,30.059 -23.592,30.911C-24.089,29.278 -25.582,25.156 -26.648,22.953C-25.155,22.598 -23.805,21.532 -22.242,19.898C-20.679,18.263 -15.847,12.152 -13.075,6.04L-4.477,10.375C-6.751,13.928 -9.665,17.695 -12.862,21.106L-4.548,20.679L-6.467,17.623L0.995,14.568ZM-32.546,-9.521L-30.201,-10.445L-39.936,-10.445C-40.86,-9.592 -41.926,-8.74 -43.063,-7.958L-31.693,-8.527L-32.546,-9.521ZM-25.582,-0.994C-26.15,-1.776 -26.932,-2.771 -27.785,-3.908C-46.971,-2.629 -49.742,-2.486 -51.803,-1.776C-52.158,-2.984 -53.082,-5.826 -53.793,-7.389C-52.869,-7.603 -52.016,-8.1 -51.021,-8.811C-50.524,-9.095 -49.742,-9.664 -48.748,-10.445L-55.001,-10.445L-55.001,-15.917L-49.742,-15.917L-49.742,-34.464L-21.176,-34.464L-21.176,-28.992L-40.434,-28.992L-40.434,-27.642L-23.521,-27.642L-23.521,-23.236L-40.434,-23.236L-40.434,-21.815L-23.521,-21.815L-23.521,-17.409L-40.434,-17.409L-40.434,-15.917L-19.755,-15.917L-19.755,-10.445L-24.587,-10.445C-22.526,-8.242 -20.181,-5.684 -18.831,-3.908L-25.582,-0.994ZM-35.814,11.158C-33.47,12.65 -28.495,16.202 -27.216,17.268L-32.546,24.019C-33.328,22.953 -34.536,21.461 -35.814,19.968L-35.814,31.196L-44.91,31.196L-44.91,20.963C-46.758,23.522 -48.818,25.795 -50.879,27.501C-52.3,25.44 -55.072,22.314 -56.99,20.679C-53.153,18.334 -49.174,14.426 -46.26,10.304L-54.859,10.304L-54.859,2.63L-44.91,2.63L-44.91,-2.06L-35.814,-2.06L-35.814,2.63L-27.927,2.63L-27.927,9.096C-24.8,5.97 -22.171,1.848 -20.75,-2.416L-12.293,-0.355C-14.709,6.325 -18.902,12.791 -23.521,16.771C-24.942,15.207 -28.211,12.294 -30.13,11.015C-29.845,10.802 -29.561,10.518 -29.277,10.304L-35.814,10.304L-35.814,11.158Z" style="fill:rgb(3,110,184);fill-rule:nonzero;"/>
        </g>
        <g transform="matrix(1,0,0,1,0,-457.162)">
            <path d="M875.946,3127.78L901.67,3127.78L901.67,3125.72L875.946,3125.72L875.946,3127.78ZM883.833,3076.9L875.875,3076.9L875.875,3066.67L883.833,3066.67L883.833,3068.87L891.935,3068.87L891.935,3074.91L883.833,3074.91L883.833,3076.9ZM870.759,3088.77L867.561,3088.77L867.561,3091.04L870.759,3091.04L870.759,3088.77ZM867.206,3114.07L911.05,3114.07L911.05,3119.04L867.206,3119.04L867.206,3114.07ZM911.05,3112.93L867.206,3112.93L867.206,3107.95L911.05,3107.95L911.05,3112.93ZM866.211,3120.68L911.902,3120.68L911.902,3134.11L901.67,3134.11L901.67,3133.04L875.946,3133.04L875.946,3134.11L866.211,3134.11L866.211,3120.68ZM866.566,3082.94C866.282,3083.44 865.855,3084.01 865.5,3084.51L877.581,3084.51L877.581,3091.97C878.078,3091.9 878.433,3091.75 878.789,3091.33C879.286,3090.55 879.783,3088.34 880.067,3082.94L866.566,3082.94ZM864.932,3074.91L856.618,3074.91L856.618,3068.87L864.932,3068.87L864.932,3066.67L872.891,3066.67L872.891,3076.26L864.932,3076.26L864.932,3074.91ZM921.638,3100.07L921.638,3106.75L856.333,3106.75L856.333,3100.07L881.986,3100.07C881.773,3099.43 881.489,3098.79 881.275,3098.22L891.295,3096.16C891.935,3097.37 892.645,3098.79 893.071,3100.07L921.638,3100.07ZM860.881,3089.48C860.526,3089.84 860.1,3090.19 859.744,3090.47C858.607,3088.77 856.12,3086.35 854.486,3085.29C858.252,3082.66 860.739,3079.25 862.16,3076.12L869.551,3077.4L869.266,3078.04L888.737,3078.04L888.737,3079.67C892.361,3076.19 895.203,3071.43 896.696,3066.39L904.868,3068.23C904.441,3069.58 903.944,3070.86 903.375,3072.14L921.211,3072.14L921.211,3078.89L916.237,3078.89C915.242,3081.66 913.963,3084.08 912.329,3086.21C915.74,3088.06 918.937,3089.98 921.14,3091.61L915.882,3098.15C913.608,3096.37 910.126,3094.1 906.36,3091.9C902.594,3094.53 898.046,3096.44 892.787,3097.87C892.005,3096.09 889.661,3092.82 888.239,3091.26C892.29,3090.47 895.843,3089.34 898.827,3087.85C897.619,3087.21 896.411,3086.64 895.274,3086.07L900.178,3080.31C901.812,3081.02 903.518,3081.81 905.365,3082.66C906.289,3081.52 907.07,3080.31 907.639,3078.89L899.822,3078.89C897.904,3081.81 895.772,3084.43 893.569,3086.43C892.432,3085.36 890.371,3083.72 888.595,3082.45C888.097,3090.47 887.387,3094.17 886.107,3095.73C884.971,3097.16 883.479,3097.72 881.986,3097.94C880.636,3098.15 878.504,3098.22 876.088,3098.08C876.088,3097.3 875.875,3096.3 875.662,3095.31L867.561,3095.31L867.561,3097.01L860.881,3097.01L860.881,3089.48Z" style="fill:rgb(3,110,184);fill-rule:nonzero;"/>
        </g>
        <g transform="matrix(1,0,0,1,987.006,2674.81)">
            <path d="M0,-61.964C-0.853,-41.569 -0.64,-9.593 1.137,-8.811C1.492,-8.669 1.776,-13.43 1.99,-17.693C3.34,-14.922 5.756,-10.73 7.178,-9.095C5.898,1.564 1.492,3.766 -3.481,1.564C-10.232,-1.491 -10.375,-26.789 -10.304,-52.157L-17.196,-52.157L-17.196,-34.534L-11.725,-34.534L-11.725,-25.013L-17.196,-25.013L-17.196,2.133L-26.79,2.133L-26.79,-25.013L-33.824,-25.013L-33.824,-34.534L-26.79,-34.534L-26.79,-52.157L-32.758,-52.157L-32.758,-61.964L0,-61.964ZM-49.315,-9.806L-44.057,-9.806L-44.057,-15.633L-49.315,-15.633L-49.315,-9.806ZM-36.027,-1.634L-49.315,-1.634L-49.315,1.209L-57.203,1.209L-57.203,-23.734L-36.027,-23.734L-36.027,-1.634ZM-57.345,-33.753L-36.027,-33.753L-36.027,-26.078L-57.345,-26.078L-57.345,-33.753ZM-57.345,-43.56L-36.24,-43.56L-36.24,-35.885L-57.345,-35.885L-57.345,-43.56ZM-33.824,-45.692L-60.188,-45.692L-60.188,-53.721L-49.671,-53.721C-50.666,-56.35 -52.087,-59.477 -53.295,-61.964L-46.047,-65.73C-44.341,-62.675 -42.423,-58.695 -41.428,-55.995L-45.336,-53.721L-33.824,-53.721L-33.824,-45.692Z" style="fill:rgb(3,110,184);fill-rule:nonzero;"/>
        </g>
        <g transform="matrix(1,0,0,1,1062.04,2677.02)">
            <path d="M0,-66.087L0,-12.223C0,-6.467 -1.066,-3.695 -4.335,-1.99C-7.675,-0.356 -12.791,0 -19.329,0C-19.755,-2.985 -21.39,-7.817 -22.882,-10.731C-18.405,-10.518 -13.715,-10.518 -12.151,-10.518C-10.802,-10.518 -10.233,-10.943 -10.233,-12.294L-10.233,-66.087L0,-66.087ZM-16.629,-18.191L-26.648,-18.191L-26.648,-58.837L-16.629,-58.837L-16.629,-18.191ZM-51.661,-47.682L-40.931,-47.682L-40.931,-55.214L-51.661,-55.214L-51.661,-47.682ZM-30.201,-33.754C-30.201,-33.754 -30.272,-31.267 -30.343,-30.13C-30.982,-13.289 -31.693,-6.254 -33.683,-3.767C-35.317,-1.706 -37.094,-0.995 -39.438,-0.64C-41.429,-0.285 -44.626,-0.214 -47.966,-0.285C-48.108,-2.985 -49.174,-6.751 -50.666,-9.167C-48.037,-8.883 -45.55,-8.883 -44.271,-8.883C-43.276,-8.883 -42.565,-9.025 -41.926,-9.807C-41.002,-10.943 -40.434,-15.066 -40.007,-24.801L-45.621,-24.801C-47.397,-15.35 -50.809,-6.538 -58.341,-0.071C-59.833,-2.63 -62.746,-5.97 -65.233,-7.675C-55.925,-15.35 -54.717,-27.287 -54.22,-38.586L-60.97,-38.586L-60.97,-64.239L-30.982,-64.239L-30.982,-38.586L-44.129,-38.586C-44.2,-36.952 -44.342,-35.389 -44.484,-33.754L-30.201,-33.754Z" style="fill:rgb(3,110,184);fill-rule:nonzero;"/>
        </g>
        <g transform="matrix(1,0,0,1,1128.33,2632.82)">
            <path d="M0,19.683C2.7,24.87 5.827,31.834 7.106,36.382L-3.197,39.438C-4.121,34.961 -6.964,27.785 -9.521,22.313L0,19.683ZM-23.094,16.273C-20.536,19.329 -17.48,23.521 -16.13,26.363L-25.155,30.911C-26.292,28.069 -29.135,23.662 -31.551,20.394L-23.094,16.273ZM-20.109,34.037C-16.983,34.037 -16.415,32.901 -15.988,25.51C-13.856,27.074 -9.521,28.637 -6.821,29.277C-7.958,40.29 -10.729,43.133 -19.328,43.133L-30.769,43.133C-41.285,43.133 -43.986,40.22 -43.986,31.409L-43.986,17.765L-33.753,17.765L-33.753,31.266C-33.753,33.753 -33.185,34.037 -29.561,34.037L-20.109,34.037ZM-41.854,-6.893C-44.625,-3.198 -47.61,0.071 -50.595,2.629C-52.513,0.782 -56.706,-2.417 -59.122,-3.909C-52.727,-8.314 -46.971,-15.776 -43.915,-23.45L-33.824,-20.679C-34.464,-19.116 -35.245,-17.552 -36.027,-16.06L3.198,-16.06L2.984,-12.081C2.132,5.116 1.066,12.435 -1.137,15.065C-2.913,17.338 -4.902,18.121 -7.39,18.475C-9.521,18.83 -12.933,18.902 -16.557,18.83C-16.699,15.917 -17.907,11.867 -19.47,9.309C-16.628,9.593 -14.069,9.593 -12.648,9.593C-11.512,9.593 -10.872,9.451 -10.09,8.669C-9.024,7.461 -8.313,3.055 -7.674,-6.893L-11.085,-6.893C-15.42,4.05 -22.312,13.287 -30.271,19.186C-31.835,17.338 -35.672,13.857 -37.804,12.293C-30.769,8.03 -25.155,1.207 -21.602,-6.893L-25.937,-6.893C-31.124,2.629 -39.154,10.659 -47.539,15.775C-49.031,13.857 -52.584,10.09 -54.716,8.455C-47.681,4.974 -41.428,-0.426 -37.093,-6.893L-41.854,-6.893ZM-60.116,36.098C-57.771,31.266 -55.782,24.373 -54.787,18.121L-45.834,21.034C-46.971,27.287 -48.604,35.033 -50.808,39.865L-60.116,36.098Z" style="fill:rgb(3,110,184);fill-rule:nonzero;"/>
        </g>
        <g transform="matrix(1,0,0,1,0,-456.736)">
            <path d="M1180.34,3101.56L1193.13,3101.56L1193.13,3098.36L1180.34,3098.36L1180.34,3101.56ZM1180.34,3090.83L1193.13,3090.83L1193.13,3087.63L1180.34,3087.63L1180.34,3090.83ZM1180.34,3080.1L1193.13,3080.1L1193.13,3076.97L1180.34,3076.97L1180.34,3080.1ZM1198.03,3124.44C1198.96,3124.44 1199.17,3123.59 1199.38,3116.77C1201.09,3118.33 1205.21,3119.89 1207.77,3120.53C1206.91,3130.62 1204.5,3133.33 1199.17,3133.33L1195.12,3133.33C1188.01,3133.33 1186.59,3130.41 1186.59,3122.24L1186.59,3109.66L1183.75,3109.66C1182.9,3121.24 1180.2,3129.2 1165.91,3133.68C1165.06,3131.41 1162.72,3127.92 1160.87,3126.22C1172.45,3123.09 1173.94,3117.91 1174.58,3109.66L1170.96,3109.66L1170.96,3068.87L1203.01,3068.87L1203.01,3109.66L1196.11,3109.66L1196.11,3122.17C1196.11,3124.23 1196.19,3124.44 1196.9,3124.44L1198.03,3124.44ZM1163.21,3113.21C1162.22,3111.58 1160.73,3109.59 1159.23,3107.6L1159.23,3133.61L1149.14,3133.61L1149.14,3108.95C1146.8,3111.01 1144.38,3112.79 1141.97,3114.28C1141.4,3111.3 1139.48,3105.54 1138.27,3103.48C1144.88,3100 1151.13,3093.89 1155.33,3087.14L1140.48,3087.14L1140.48,3077.9L1151.42,3077.9C1150.14,3075.7 1148.5,3073.21 1147.01,3071.22L1154.9,3066.39C1157.32,3069.09 1159.87,3072.78 1161.08,3075.41L1157.32,3077.9L1160.94,3077.9L1162.72,3077.54L1168.12,3081.45C1166.2,3086.64 1163.5,3091.61 1160.3,3096.23C1163.21,3098.65 1168.19,3103.34 1169.54,3104.62L1163.21,3113.21Z" style="fill:rgb(3,110,184);fill-rule:nonzero;"/>
        </g>
    </g>
</svg>
