<?xml version="1.0" encoding="UTF-8" standalone="no"?>
<!DOCTYPE svg PUBLIC "-//W3C//DTD SVG 1.1//EN" "http://www.w3.org/Graphics/SVG/1.1/DTD/svg11.dtd">
<svg width="100%" height="100%" viewBox="0 0 325 299" version="1.1" xmlns="http://www.w3.org/2000/svg" xmlns:xlink="http://www.w3.org/1999/xlink" xml:space="preserve" xmlns:serif="http://www.serif.com/" style="fill-rule:evenodd;clip-rule:evenodd;stroke-linejoin:round;stroke-miterlimit:2;">
    <g transform="matrix(1.04167,0,0,1.04167,-101.197,-386.764)">
        <g transform="matrix(1,0,0,1,205.091,590.931)">
            <path d="M0,4.58C6.534,17.287 14.467,32.528 20.918,39.78C27.028,46.644 47.519,52.028 61.068,52.079L61.143,52.079C66.912,52.079 72.474,49.699 78.363,47.18C84.955,44.359 91.771,41.442 99.803,41.272C103.299,41.197 106.487,41.304 109.495,41.401C111.502,41.468 113.399,41.531 115.198,41.531C122.443,41.531 127.624,40.514 134.246,35.144C141.564,29.214 147.999,21.235 152.787,14.946C153.305,14.266 153.822,13.574 154.343,12.879C158.198,7.732 162.568,1.898 168.839,-2.152C169.958,-2.868 171.167,-3.504 172.461,-4.058C174.87,-5.091 181.501,-11.754 188.436,-21.123C189.3,-22.871 188.844,-30.914 184.012,-38.93C182.459,-41.507 178.288,-47.499 173.11,-47.499C172.524,-47.499 171.942,-47.426 171.329,-47.275C169.06,-46.72 166.256,-41.615 164.002,-37.514C161.005,-32.058 157.607,-25.873 152.033,-22.262C151.236,-21.744 150.457,-21.232 149.74,-20.713C149.681,-20.613 149.62,-20.515 149.556,-20.417C148.415,-18.679 146.603,-17.493 144.554,-17.142L6.47,6.524C4.333,6.889 2.149,6.315 0.471,4.95C0.316,4.825 0.16,4.702 0,4.58M61.143,67.079L61.013,67.079C46.496,67.025 20.153,61.48 9.712,49.752C1.746,40.795 -6.67,24.419 -14.095,9.97C-16.749,4.806 -19.255,-0.072 -21.293,-3.687C-22.604,-6.012 -22.585,-8.925 -21.235,-11.228C-20.567,-12.367 -18.561,-15.017 -14.36,-15.017C-11.004,-15.017 1.148,-12.302 7.019,-8.789L139.085,-31.424C140.696,-32.761 142.328,-33.846 143.874,-34.848C146.28,-36.407 148.606,-40.642 150.856,-44.736C154.714,-51.76 159.088,-59.721 167.759,-61.845C169.529,-62.278 171.331,-62.499 173.11,-62.499C183.224,-62.499 192.526,-55.561 198.631,-43.464C203.672,-33.475 206.22,-19.957 200.548,-12.274C195.495,-5.441 185.899,6.501 178.369,9.729C177.827,9.962 177.352,10.208 176.952,10.464C172.963,13.041 169.75,17.33 166.348,21.872C165.805,22.597 165.265,23.318 164.723,24.03C159.425,30.989 152.248,39.863 143.691,46.797C133.142,55.351 123.762,56.531 115.199,56.531L115.198,56.531C113.151,56.531 111.134,56.464 108.999,56.393C106.175,56.3 103.253,56.204 100.121,56.268C94.997,56.378 89.784,58.608 84.264,60.97C77.571,63.834 69.986,67.079 61.143,67.079" style="fill:rgb(241,147,0);fill-rule:nonzero;"/>
        </g>
        <g transform="matrix(1,0,0,1,358.68,593.377)">
            <path d="M0,31.086C-0.094,31.086 -0.188,31.084 -0.282,31.081C-2.619,30.993 -4.78,29.82 -6.128,27.91C-6.514,27.364 -6.958,26.845 -7.448,26.364C-9.175,24.683 -11.631,23.288 -14.736,22.231C-17.765,21.2 -21.063,20.93 -24.881,20.617L-25.188,20.592C-29.983,20.2 -34.788,19.653 -39.434,19.123L-42.664,18.761C-44.823,18.524 -47.056,18.28 -49.35,17.872C-49.77,17.798 -50.203,17.73 -50.635,17.66C-52.999,17.283 -55.94,16.815 -58.873,15.31C-58.908,15.291 -58.943,15.273 -58.979,15.254C-61.768,13.767 -63.382,10.772 -63.093,7.625C-62.807,4.522 -60.7,1.908 -57.724,0.967C-55.604,0.305 -53.342,0 -50.58,0C-49.369,0 -48.19,0.058 -47.149,0.108L-46.315,0.149C-43.792,0.256 -41.3,0.478 -38.89,0.691C-38.064,0.765 -37.239,0.838 -36.414,0.906C-33.704,1.128 -30.984,1.33 -28.264,1.533C-25.311,1.753 -22.356,1.973 -19.404,2.217C-14.278,2.64 -9.164,3.956 -4.617,6.024C0.824,8.505 5.195,11.834 8.379,15.924C10.499,18.648 10.487,22.466 8.35,25.176C7.509,26.242 6.655,27.304 5.785,28.358C4.358,30.089 2.234,31.086 0,31.086" style="fill:rgb(241,147,0);fill-rule:nonzero;"/>
        </g>
        <g transform="matrix(1,0,0,1,377.743,575.918)">
            <path d="M0,26.822C-2.291,26.822 -4.548,25.789 -6.012,23.832C-6.357,23.37 -6.683,22.894 -7.007,22.419C-7.29,22.003 -7.677,21.433 -7.841,21.272C-8.344,20.809 -9.091,20.36 -10.059,19.938C-13.279,18.527 -17.332,17.754 -21.487,17.754C-22.548,17.754 -23.612,17.803 -24.65,17.903C-28.174,18.241 -31.776,19.672 -35.591,21.186C-39.288,22.654 -43.111,24.172 -47.45,25.003C-47.918,25.093 -48.399,25.138 -48.873,25.138C-52.294,25.138 -55.321,22.79 -56.174,19.476C-57.028,16.163 -55.508,12.633 -52.512,10.98L-51.373,10.359C-47.055,8.008 -42.591,5.576 -37.622,3.7C-29.617,0.683 -20.904,0 -12.031,1.693C-7.218,2.611 -3.262,4.035 0.065,6.045C6.523,9.945 8.3,14.584 8.653,17.789C8.99,20.838 7.436,23.783 4.73,25.227C4.601,25.297 4.472,25.373 4.345,25.45L4.29,25.488C2.985,26.387 1.485,26.822 0,26.822" style="fill:rgb(241,147,0);fill-rule:nonzero;"/>
        </g>
        <g transform="matrix(1,0,0,1,334.694,598.667)">
            <path d="M0,46.411C-1.689,46.411 -3.358,45.841 -4.715,44.744C-6.83,43.035 -7.854,40.314 -7.392,37.635C-7.281,36.994 -7.144,36.077 -7.227,35.509C-7.471,33.865 -8.74,31.708 -10.799,29.449C-13.203,26.813 -16.439,24.785 -19.288,23.148C-22.221,21.463 -25.374,20.005 -28.926,18.692C-30.107,18.256 -31.367,17.863 -32.701,17.447C-35.204,16.666 -37.792,15.858 -40.441,14.601C-43.537,13.134 -45.276,9.706 -44.599,6.318C-43.919,2.916 -40.979,0.421 -37.539,0.277C-31.584,0 -25.81,1.81 -21.045,3.572C-16.798,5.144 -12.506,7.201 -8.283,9.685C-4.317,12.018 0.733,15.369 4.618,20.604C8.355,25.647 10.245,30.475 10.399,35.369C10.431,36.309 10.401,37.3 10.308,38.291C10.072,40.819 8.572,43.057 6.323,44.235C5.148,44.851 3.962,45.4 2.798,45.869C1.894,46.233 0.944,46.411 0,46.411" style="fill:rgb(241,147,0);fill-rule:nonzero;"/>
        </g>
        <g transform="matrix(1,0,0,1,279.104,606.87)">
            <path d="M0,48.589C-1.273,48.589 -2.54,48.265 -3.674,47.628C-5.571,46.562 -6.912,44.724 -7.348,42.592C-7.57,41.51 -7.903,40.394 -8.368,39.181C-9.497,36.235 -11.081,33.332 -12.758,30.259L-13.225,29.403C-14.913,26.3 -16.657,23.094 -18.725,20.4C-19.737,19.083 -20.802,17.86 -21.885,16.768C-22.329,16.322 -22.858,15.833 -23.596,15.189C-23.942,14.886 -24.292,14.55 -24.643,14.206C-24.775,14.077 -24.904,13.942 -25.041,13.82C-27.766,11.982 -28.997,8.515 -28.043,5.366C-27.071,2.156 -24.167,0 -20.818,0C-20.308,0 -19.791,0.053 -19.288,0.156C-19.145,0.186 -19.005,0.203 -18.866,0.224C-18.079,0.34 -16.889,0.516 -15.51,1.062C-14.128,1.605 -12.746,2.39 -11.305,3.452C-9.257,4.945 -7.299,6.819 -5.351,9.156C-2.199,12.935 0.062,16.91 2.29,20.991L2.906,22.114C4.922,25.781 7.006,29.573 8.531,33.865C9.103,35.483 9.541,36.981 9.875,38.455C10.689,42.052 8.769,45.706 5.345,47.076C4.414,47.448 3.479,47.808 2.538,48.147C1.715,48.443 0.855,48.589 0,48.589" style="fill:rgb(241,147,0);fill-rule:nonzero;"/>
        </g>
        <g transform="matrix(1,0,0,1,252.38,603.648)">
            <path d="M0,53.014C-0.437,53.014 -0.875,52.976 -1.309,52.899L0,45.514L-1.36,52.89C-2.075,52.763 -2.802,52.634 -3.531,52.493C-6.804,51.863 -9.268,49.147 -9.578,45.827C-9.742,44.071 -9.369,42.344 -8.498,40.833C-8.394,40.656 -8.338,40.541 -8.281,40.43C-7.994,39.875 -7.561,39.036 -6.852,38.106C-6.671,37.868 -6.345,37.443 -6.231,37.238C-5.887,36.62 -5.592,35.797 -5.346,34.772C-4.833,32.644 -4.653,30.195 -4.81,27.493C-4.979,24.606 -5.479,21.827 -6.255,19.461C-6.667,18.197 -7.258,16.883 -7.783,15.763C-7.906,15.5 -8.044,15.243 -8.182,14.984C-8.938,13.546 -10.082,11.373 -10.265,8.568C-10.4,6.499 -9.653,4.405 -8.238,2.892C-6.313,0.834 -3.238,0 -0.525,0.815C4,2.172 6.472,6.048 7.528,7.703C8.807,9.702 9.84,11.951 10.678,14.569C12.03,18.806 12.825,23.035 13.045,27.147C13.288,31.743 12.857,36.107 11.767,40.125C11.079,42.655 10.086,44.974 8.814,47.021C8.123,48.131 7.147,49.554 5.681,50.783C4.73,51.569 3.685,52.16 2.535,52.573C1.718,52.866 0.861,53.014 0,53.014" style="fill:rgb(241,147,0);fill-rule:nonzero;"/>
        </g>
        <g transform="matrix(1,0,0,1,356.888,550.958)">
            <path d="M0,24.109L-0.429,24.104C-4.11,24.029 -7.217,21.594 -8.148,18.045C-9.097,14.423 -7.514,10.568 -4.297,8.671C0.075,6.1 4.817,3.497 9.938,1.819C13.744,0.577 17.869,0 22.927,0C23.334,0 23.743,0.003 24.152,0.009C25.73,0.034 27.313,0.071 28.897,0.107C31.075,0.158 33.254,0.209 35.434,0.225C38.176,0.25 41.127,0.322 44.183,0.686C47.221,1.047 49.735,3.217 50.536,6.171C50.894,7.493 51.195,8.843 51.429,10.184C51.839,12.531 51.11,14.933 49.464,16.656C47.818,18.379 45.451,19.217 43.089,18.915C42.407,18.827 41.704,18.758 40.998,18.71C39.671,18.617 38.214,18.576 36.274,18.576C35.433,18.576 34.591,18.584 33.75,18.59C31.871,18.607 29.991,18.622 28.113,18.568L26.721,18.527C25.478,18.489 24.228,18.45 22.979,18.45C20.018,18.45 17.924,18.697 16.191,19.252C15.026,19.624 13.725,20.197 12.348,20.805C9.011,22.277 4.859,24.109 0,24.109" style="fill:rgb(241,147,0);fill-rule:nonzero;"/>
        </g>
        <g transform="matrix(1,0,0,1,121.208,484.516)">
            <path d="M0,-4.485L0.003,-4.484C0.115,-4.891 0.189,-5.302 0.225,-5.712C0.184,-5.296 0.108,-4.885 0,-4.485M-3.525,0.072L-3.516,0.077C-3.059,-0.187 -2.637,-0.496 -2.255,-0.84C-2.647,-0.491 -3.073,-0.186 -3.525,0.072M-3.805,0.223C-4.857,0.765 -6.033,1.056 -7.24,1.056C-5.952,1.056 -4.794,0.748 -3.795,0.23L-3.805,0.223ZM-1.939,1.055L-1.937,1.056C-2.395,1.793 -2.872,2.452 -3.278,2.999C-3.842,3.744 -4.384,4.416 -4.927,5.086C-5.811,6.178 -6.646,7.21 -7.22,8.165C-8.309,9.974 -8.917,11.869 -9.029,13.799C-9.216,16.948 -8.53,20.551 -6.869,25.15C-5.05,30.189 -2.727,35.172 0.039,39.963C9.255,55.93 23.326,69.395 40.73,78.902C53.717,86 67.363,90.872 81.292,93.385L101.979,25.391C102.568,23.453 103.916,21.836 105.716,20.909C105.905,20.811 106.098,20.721 106.293,20.641C110.701,15.462 116.063,11.251 120.375,8.083C125.081,4.626 130.347,1.136 136.947,-2.9C138.579,-3.896 140.212,-4.881 141.845,-5.864C145.476,-8.051 149.229,-10.313 152.8,-12.621C155.71,-14.506 158.077,-16.133 160.239,-17.738L160.717,-18.091C162.191,-19.182 163.584,-20.213 164.598,-21.263C167.549,-24.315 169.542,-29.105 170.696,-35.911C171.889,-42.939 171.744,-50.688 170.278,-58.323C169.043,-64.752 163.623,-86.146 145.724,-91.512C137.506,-93.973 128.429,-94.974 120.42,-95.856C118.701,-96.045 116.977,-96.228 115.253,-96.41C112.565,-96.695 109.878,-96.98 107.194,-97.288C102.654,-97.806 97.836,-98.311 93.19,-98.21C88.533,-98.115 84.526,-97.405 80.926,-96.038C76.81,-94.478 73.228,-91.858 69.971,-88.026C69.383,-87.335 68.813,-86.631 68.242,-85.929C66.864,-84.234 65.44,-82.481 63.741,-80.775C61.419,-78.439 58.709,-76.3 55.22,-74.049C49.105,-70.099 43.908,-67.419 38.871,-65.618C35.558,-64.436 32.199,-63.513 28.95,-62.62C22.489,-60.844 16.387,-59.168 11.625,-55.763C9.167,-54.006 7.126,-51.061 4.966,-47.944L4.568,-47.371C1.836,-43.433 -0.308,-39.842 -1.982,-36.396C-4.512,-31.185 -6.958,-23.834 -4.239,-18.415C-3.943,-17.826 -3.572,-17.187 -3.179,-16.511C-1.741,-14.038 0.049,-10.959 0.251,-6.809C0.267,-6.497 0.262,-6.186 0.239,-5.879L0.238,-5.837C0.229,-5.509 0.209,-5.212 0.201,-5.112C0.159,-4.695 0.106,-4.34 0.049,-3.993C0.022,-3.808 -0.011,-3.627 -0.05,-3.448C-0.078,-3.321 -0.108,-3.196 -0.142,-3.071C-0.216,-2.801 -0.294,-2.533 -0.385,-2.266C-0.551,-1.766 -0.726,-1.31 -0.918,-0.873C-0.976,-0.744 -1.063,-0.552 -1.149,-0.371L-1.209,-0.246C-1.329,0.013 -1.476,0.29 -1.625,0.534L-1.663,0.599C-1.756,0.758 -1.854,0.919 -1.939,1.055M86.958,108.738L86.957,108.738C86.925,108.738 86.88,108.738 86.849,108.737L86.389,108.731C83.979,108.697 81.485,108.661 78.765,108.171C63.202,105.38 47.984,99.96 33.538,92.065C13.718,81.238 -2.359,65.814 -12.953,47.462C-16.16,41.905 -18.86,36.112 -20.978,30.243C-23.353,23.665 -24.314,18.161 -24.003,12.921C-23.75,8.55 -22.427,4.344 -20.072,0.43C-18.96,-1.418 -17.699,-2.975 -16.586,-4.35C-16.145,-4.896 -15.702,-5.441 -15.277,-6.002C-15.15,-6.172 -15.002,-6.376 -14.868,-6.571C-15.127,-7.218 -15.7,-8.204 -16.146,-8.972C-16.613,-9.774 -17.141,-10.683 -17.644,-11.684C-21.97,-20.305 -21.22,-31.116 -15.475,-42.95C-13.458,-47.101 -10.933,-51.344 -7.753,-55.925L-7.362,-56.489C-4.698,-60.334 -1.677,-64.692 2.901,-67.965C9.836,-72.923 17.532,-75.038 24.976,-77.084C28.096,-77.942 31.044,-78.751 33.825,-79.744C37.745,-81.145 41.959,-83.34 47.085,-86.652C49.649,-88.305 51.561,-89.798 53.107,-91.354C54.277,-92.528 55.405,-93.918 56.6,-95.388C57.243,-96.179 57.886,-96.969 58.545,-97.744C63.482,-103.552 69.063,-107.583 75.604,-110.062C80.761,-112.021 86.573,-113.079 92.875,-113.206C93.383,-113.217 93.902,-113.223 94.421,-113.223C99.443,-113.223 104.328,-112.713 108.9,-112.191C111.545,-111.887 114.189,-111.607 116.834,-111.327C118.576,-111.142 120.317,-110.958 122.059,-110.766C130.279,-109.86 140.505,-108.734 150.03,-105.881C167.563,-100.625 180.639,-83.903 185.009,-61.152C186.81,-51.774 186.974,-42.178 185.484,-33.402C183.808,-23.515 180.505,-16.135 175.387,-10.842C173.51,-8.897 171.452,-7.375 169.636,-6.032L169.177,-5.692C166.754,-3.894 164.139,-2.093 160.948,-0.026C157.172,2.413 153.315,4.737 149.586,6.984C147.978,7.953 146.37,8.921 144.768,9.9C138.542,13.706 133.612,16.972 129.256,20.171C125.239,23.123 120.177,27.097 116.664,31.661C116.26,32.182 115.811,32.65 115.324,33.061L95.433,98.445C95.609,99.344 95.64,100.288 95.506,101.249C94.91,105.519 91.235,108.738 86.958,108.738" style="fill:rgb(241,147,0);fill-rule:nonzero;"/>
        </g>
        <g transform="matrix(1,0,0,1,159.784,431.779)">
            <path d="M0,48.682C-3.21,48.682 -6.146,46.777 -7.48,43.828C-8.792,40.94 -9.744,37.918 -10.564,34.037C-11.09,31.563 -11.64,29.824 -12.344,28.405C-16.76,19.537 -28.454,18.414 -31.932,18.282C-36.261,18.117 -40.642,18.503 -44.817,19.417C-45.006,19.464 -45.16,19.5 -45.314,19.534C-48.131,20.133 -51.045,19.057 -52.805,16.776C-54.565,14.494 -54.862,11.406 -53.568,8.829C-52.944,7.586 -52.29,6.361 -51.625,5.187C-50.566,3.32 -48.759,1.995 -46.659,1.549C-41.258,0.401 -35.327,0 -29.197,0.359C-22.265,0.765 -15.947,2.545 -10.42,5.652C-3.74,9.405 1.556,15.089 4.488,21.659C7.202,27.725 7.912,33.994 8.275,39.864C8.414,42.153 7.598,44.411 6.038,46.069C4.474,47.73 2.273,48.682 0,48.682" style="fill:rgb(241,147,0);fill-rule:nonzero;"/>
        </g>
        <g transform="matrix(1,0,0,1,153.907,466.865)">
            <path d="M0,55.019C-2.364,55.018 -4.639,54.032 -6.241,52.311C-8.543,49.845 -9.91,46.931 -11.007,44.59L-11.426,43.705C-12.599,41.259 -13.666,39.05 -14.805,36.864C-19.297,28.256 -23.526,23.354 -28.944,20.477C-31.743,18.989 -34.351,18.138 -36.702,17.949C-37.496,17.883 -38.167,17.915 -38.918,18.023C-40.905,18.312 -42.922,17.789 -44.521,16.576C-46.119,15.364 -47.166,13.561 -47.426,11.572C-47.437,11.488 -47.478,11.293 -47.631,10.929C-48.491,8.891 -48.406,6.577 -47.4,4.606C-46.395,2.635 -44.57,1.209 -42.415,0.71C-40.087,0.17 -37.554,0 -34.866,0.206C-25.166,0.939 -15.097,6.336 -7.937,14.645C-3.79,19.462 -0.734,24.949 1.464,29.19C2.693,31.549 3.817,33.88 5.053,36.462L5.367,37.111C6.417,39.282 7.724,41.984 8.307,45.061C8.771,47.556 8.124,50.066 6.537,51.974C4.929,53.909 2.546,55.019 0,55.019" style="fill:rgb(241,147,0);fill-rule:nonzero;"/>
        </g>
        <g transform="matrix(1,0,0,1,166.166,414.763)">
            <path d="M0,55.961C-2.726,55.961 -5.291,54.597 -6.861,52.313C-8.126,50.486 -8.886,48.593 -9.497,47.071C-9.626,46.75 -9.754,46.43 -9.887,46.114C-10.532,44.592 -11.238,43.114 -11.984,41.732C-13.413,39.088 -15.166,36.473 -17.19,33.966C-21.255,28.939 -26.354,24.599 -32.775,20.703C-34.938,19.386 -37.468,17.964 -39.92,17.36C-40.153,17.304 -40.25,17.294 -40.254,17.293C-43.276,17.199 -45.929,15.301 -47.009,12.477C-48.089,9.653 -47.351,6.458 -45.163,4.371C-44.14,3.396 -43.138,2.561 -42.103,1.82C-41.981,1.731 -41.857,1.645 -41.735,1.562C-40.099,0.449 -38.048,0 -36.102,0.361C-35.896,0.399 -35.686,0.442 -35.478,0.485L-35.366,0.508C-35.326,0.517 -35.286,0.525 -35.245,0.534C-30.64,1.558 -26.55,3.771 -22.817,6.01C-19.828,7.799 -16.853,9.86 -13.981,12.133C-9.542,15.648 -5.384,19.983 -1.62,25.023C0.628,28.039 2.626,31.224 4.325,34.497L4.617,35.059C6.235,38.157 8.45,42.402 8.561,47.126C8.606,49.448 7.698,51.719 6.068,53.381C4.46,55.021 2.249,55.961 0,55.961" style="fill:rgb(241,147,0);fill-rule:nonzero;"/>
        </g>
        <g transform="matrix(1,0,0,1,187.025,387.203)">
            <path d="M0,53.82L-0.001,53.82C-4.605,53.819 -8.379,50.049 -8.414,45.415C-8.44,42.559 -8.056,40.067 -7.717,37.868C-7.45,36.147 -7.308,34.377 -7.292,32.602C-7.264,29.349 -7.722,25.854 -8.654,22.212C-9.383,19.381 -10.593,16.755 -12.353,14.195C-14.312,11.343 -14.066,7.521 -11.758,4.944C-11.222,4.344 -10.652,3.675 -9.912,2.773C-8.463,1.01 -6.302,0 -4.009,0.034C-1.727,0.066 0.416,1.135 1.813,2.94C5.166,7.266 7.554,12.158 9.113,17.893C10.452,22.797 11.114,27.91 11.078,33.084C11.052,35.782 10.828,38.44 10.41,41.003C9.819,44.618 8.71,47.456 6.816,50.209C5.231,52.483 2.692,53.82 0,53.82" style="fill:rgb(241,147,0);fill-rule:nonzero;"/>
        </g>
        <g transform="matrix(1,0,0,1,197.191,371.551)">
            <path d="M0,63.423C-4.587,63.423 -8.356,59.669 -8.404,55.056C-8.466,49.906 -5.884,46.023 -3.999,43.187C-3.293,42.125 -2.625,41.121 -2.315,40.385C-0.944,37.139 -0.006,33.061 0.399,28.59C0.771,24.481 0.791,20.144 0.457,16.049C0.306,14.206 -0.022,12.473 -0.547,10.753C-1.147,8.786 -0.913,6.659 0.1,4.87C1.113,3.081 2.815,1.786 4.811,1.288C5.731,1.058 6.704,0.85 7.785,0.651C11.336,0 14.846,1.967 16.142,5.337C16.794,7.034 17.312,8.866 17.683,10.782C18.54,15.238 18.613,19.625 18.615,23.737C18.62,27.649 18.495,32.303 17.523,37.116C16.689,41.241 15.507,46.039 13.063,50.379C11.783,52.652 10.359,54.67 8.983,56.623C8.24,57.678 7.538,58.674 6.892,59.662C5.352,62.018 2.775,63.423 0,63.423" style="fill:rgb(241,147,0);fill-rule:nonzero;"/>
        </g>
        <g transform="matrix(1,0,0,1,214.755,374.018)">
            <path d="M0,48.232C-3.157,48.232 -5.956,46.335 -7.13,43.4C-8.209,40.702 -7.69,37.691 -5.826,35.524C-5.511,35.052 -5.052,34.407 -4.366,33.745C-3.612,33.021 -2.888,32.498 -2.359,32.115L-2.036,31.878C-1.064,31.144 0.023,30.376 1.265,29.546C3.25,28.224 5.353,26.816 7.413,25.36C13.138,21.31 18.183,16.493 22.406,11.045C24.229,8.693 25.58,6.579 26.536,4.584C27.923,1.69 31.004,0 34.186,0.378C35.308,0.512 36.434,0.654 37.557,0.806C39.92,1.125 41.991,2.55 43.134,4.644C44.277,6.737 44.356,9.25 43.347,11.411C43.195,11.737 43.036,12.063 42.875,12.391C39.81,18.544 35.264,24.409 28.552,30.885C25.068,34.246 20.98,37.426 16.056,40.609C14.126,41.856 12.058,43.126 9.905,44.387C8.636,45.137 7.37,45.812 6.195,46.427C5.009,47.046 3.959,47.355 3.265,47.56C3.124,47.601 2.981,47.637 2.838,47.69C1.958,48.04 0.947,48.232 0,48.232" style="fill:rgb(241,147,0);fill-rule:nonzero;"/>
        </g>
        <g transform="matrix(1,0,0,1,262.916,380.486)">
            <path d="M0,39.692C-2.331,39.692 -4.58,38.734 -6.17,37.065C-7.783,35.372 -8.608,33.134 -8.493,30.764C-8.33,27.482 -6.611,25.045 -5.687,23.735C-5.117,22.932 -4.527,22.171 -3.935,21.411C-3.669,21.069 -3.404,20.729 -3.143,20.384C-1.32,17.976 0.242,15.708 1.631,13.453C2.386,12.227 4.39,8.976 4.796,6.548C5.194,4.175 6.706,2.137 8.862,1.068C11.018,0 13.555,0.03 15.684,1.15C16.626,1.645 17.56,2.181 18.459,2.742C21.017,4.338 22.369,7.312 21.893,10.289C21.197,14.642 19.247,18.676 17.84,21.333C16.29,24.275 14.421,27.226 11.967,30.607C10.937,32.03 9.969,33.296 9.014,34.469C8.022,35.698 5.917,38.31 2.512,39.323C1.719,39.564 0.861,39.692 0,39.692" style="fill:rgb(241,147,0);fill-rule:nonzero;"/>
        </g>
        <g transform="matrix(1,0,0,1,204.757,446.47)">
            <path d="M0,144.623C8.621,154.536 28.316,168.129 39.203,174.052C49,179.379 60.134,182.08 72.295,182.08C72.848,182.08 73.401,182.074 73.955,182.063C85.438,181.824 102.103,180.774 114.174,174.432C119.634,171.567 125.204,167.666 130.732,162.834C148.753,147.076 166.927,128.237 165.071,108.003C163.442,90.25 155.617,76.439 147.332,61.817C145.616,58.789 143.842,55.658 142.124,52.489C138.848,46.446 136.394,39.095 134.02,31.984C130.691,22.017 127.25,11.711 121.864,5.729C116.255,0.66 52.234,-37.457 23.562,-37.457C21.832,-37.457 20.31,-37.308 19.039,-37.015C5.832,-33.97 -5.151,-30.046 -14.539,-25.019C-19.814,-22.195 -24.736,-19.014 -29.169,-15.561C-34.395,-11.489 -37.961,-8.066 -40.732,-4.463C-54.78,13.803 -57.568,39.961 -57.432,58.687C-57.335,71.838 -50.585,87.09 -37.369,104.019C-24.116,120.994 -8.129,131.996 -7.969,132.104C-2.365,135.814 -0.708,141.631 0,144.623M72.295,197.08C57.604,197.08 44.058,193.766 32.036,187.228C19.82,180.583 -2.817,165.082 -12.617,152.917C-13.833,151.409 -14.191,149.843 -14.479,148.584C-14.78,147.269 -15.235,145.283 -16.332,144.558C-17.137,144.011 -34.436,132.149 -49.192,113.249C-64.491,93.652 -72.31,75.332 -72.432,58.798C-72.584,37.715 -69.271,8.04 -52.622,-13.606C-47.987,-19.634 -42.278,-24.362 -38.387,-27.394C-33.283,-31.369 -27.641,-35.019 -21.619,-38.242C-11.047,-43.905 1.15,-48.285 15.669,-51.631C18.044,-52.179 20.7,-52.457 23.562,-52.457C57.689,-52.457 126.652,-11.273 132.849,-4.486C140.433,3.828 144.405,15.727 148.248,27.234C150.517,34.031 152.661,40.451 155.311,45.34C156.962,48.386 158.701,51.454 160.382,54.423C169.085,69.782 178.084,85.665 180.008,106.632C182.48,133.585 161.477,155.876 140.604,174.127C134.19,179.733 127.644,184.304 121.147,187.713C106.274,195.526 87.267,196.79 74.265,197.06C73.606,197.073 72.951,197.08 72.295,197.08" style="fill:rgb(241,147,0);fill-rule:nonzero;"/>
        </g>
        <g transform="matrix(1,0,0,1,122.717,513.56)">
            <path d="M0,29.814C-2.871,29.814 -5.464,28.313 -6.938,25.8C-8.491,23.191 -9.539,18.668 -5.571,12.174C-3.962,9.536 -1.747,7.193 0.832,5.403C4.994,2.52 10.308,0.772 16.206,0.346C20.993,0 25.464,0.249 29.425,1.086C31.885,1.605 34.106,2.391 36.214,3.49C38.729,4.793 40.251,6.429 41.475,7.745L41.654,7.937C43.734,10.135 44.315,13.409 43.096,16.239C41.868,19.091 39.074,20.934 35.978,20.934L35.977,20.934C34.361,20.934 32.776,20.418 31.47,19.475C31.152,19.358 30.555,19.196 30.177,19.093L29.761,18.98C28.736,18.7 27.461,18.513 26.111,18.315L25.927,18.289C23.291,17.901 20.64,17.807 18.094,18.015C14.879,18.277 12.691,18.86 11.211,19.849C10.558,20.284 10.027,20.816 9.617,21.442C9.465,21.677 9.248,22.096 9.018,22.54C8.84,22.881 8.663,23.222 8.478,23.56C8.415,23.675 8.375,23.76 8.333,23.845C7.816,24.896 6.739,27.084 4.25,28.607C2.925,29.406 1.47,29.814 0,29.814" style="fill:rgb(241,147,0);fill-rule:nonzero;"/>
        </g>
        <g transform="matrix(1,0,0,1,310.498,597.303)">
            <path d="M0,-163.797C-14.556,-163.797 -26.783,-146.488 -31.386,-139.973C-32.362,-138.591 -33.007,-137.678 -33.625,-136.967C-47.627,-120.879 -58.103,-101.566 -62.367,-83.978C-67.5,-62.803 -64.032,-44.727 -52.057,-30.251C-34.979,-9.613 -19.071,0 -1.997,0C-1.307,0 -0.613,-0.017 0.085,-0.049C17.304,-0.847 38.161,-22.41 50.254,-42.108C61.467,-60.374 57.982,-94.083 47.693,-114.107C41.586,-125.984 30.107,-142.364 20.993,-152.204C13.868,-159.897 6.804,-163.797 0,-163.797M-1.997,15C-23.586,15 -43.742,3.326 -63.614,-20.69C-78.555,-38.75 -83.164,-61.857 -76.944,-87.512C-70.357,-114.685 -54.066,-136.329 -44.941,-146.813C-44.771,-147.022 -44.143,-147.912 -43.637,-148.627C-37.808,-156.879 -22.325,-178.797 0,-178.797C11.152,-178.797 21.917,-173.279 31.998,-162.398C42.07,-151.523 54.282,-134.097 61.034,-120.964C73.404,-96.891 77.535,-57.879 63.037,-34.26C60.042,-29.381 32.848,13.449 0.78,14.935C-0.151,14.978 -1.077,15 -1.997,15" style="fill:rgb(241,147,0);fill-rule:nonzero;"/>
        </g>
        <g transform="matrix(1,0,0,1,246.158,612.038)">
            <path d="M0,-201.881C-3.577,-201.881 -6.872,-201.49 -10.075,-200.687C-21.358,-197.854 -32.674,-193.351 -42.798,-187.665C-48.042,-184.718 -52.959,-181.459 -57.413,-177.975C-62.699,-173.837 -66.34,-170.408 -69.216,-166.859C-74.9,-159.847 -79.353,-150.632 -82.83,-138.684C-84.308,-133.598 -85.547,-128.245 -86.619,-122.321C-87.562,-117.092 -88.429,-111.982 -88.682,-106.992C-88.906,-102.523 -88.553,-98.319 -87.631,-94.5C-86.859,-91.306 -85.558,-88.143 -84.18,-84.794C-83.516,-83.179 -82.829,-81.511 -82.181,-79.787C-81.132,-77.006 -80.2,-74.2 -79.298,-71.486C-78.243,-68.308 -77.246,-65.307 -76.084,-62.378C-74.084,-57.33 -71.371,-52.613 -67.788,-47.957C-64.595,-43.806 -61.054,-39.941 -57.305,-35.848L-55.895,-34.307C-51.646,-29.654 -47.858,-26.239 -43.974,-23.558C-40.135,-20.909 -36.024,-18.618 -31.671,-16.193L-29.421,-14.937C-25.511,-12.746 -20.865,-10.217 -16.072,-8.087C-7.305,-4.189 1.481,-1.67 10.041,-0.596C13.207,-0.201 16.549,0 19.976,0L19.977,0C25.717,0 32.01,-0.557 39.213,-1.704C49.725,-3.377 61.771,-5.639 71.707,-11.358C76.418,-14.074 80.313,-17.364 83.278,-21.132C86.647,-25.421 88.996,-30.811 90.47,-34.493C94.291,-44.029 95.22,-53.608 93.157,-62.196C92.216,-66.114 90.7,-69.973 89.096,-74.059C88.588,-75.351 88.081,-76.643 87.589,-77.942C85.303,-83.997 83.661,-90.286 82.175,-96.209C80.336,-103.525 79.158,-109.611 78.468,-115.357C77.876,-120.269 77.163,-126.064 76.351,-131.784C75.554,-137.406 74.819,-143.409 75.31,-149.591C75.449,-151.378 75.744,-153.066 76.004,-154.556C76.173,-155.521 76.332,-156.432 76.437,-157.288C76.667,-159.149 76.723,-161.148 76.604,-163.234C75.726,-178.637 63.142,-191.874 47.333,-194.022C46.748,-194.102 46.164,-194.167 45.577,-194.214C45.401,-194.229 45.227,-194.249 45.054,-194.276C44.866,-194.273 44.682,-194.275 44.495,-194.285C43.127,-194.36 41.713,-194.367 40.316,-194.311C39.643,-194.284 38.929,-194.213 38.136,-194.092C37.392,-193.979 36.635,-193.979 35.893,-194.09C34.079,-194.362 32.182,-194.804 29.923,-195.478C28.137,-196.007 26.374,-196.578 24.669,-197.13C22.041,-197.98 19.558,-198.784 17.05,-199.428C10.611,-201.078 5.032,-201.881 0,-201.881M19.977,15L19.976,15C15.929,15 11.959,14.76 8.176,14.287C-1.844,13.032 -12.052,10.116 -22.165,5.62C-27.517,3.241 -32.544,0.507 -36.755,-1.852L-38.972,-3.089C-43.441,-5.58 -48.063,-8.155 -52.494,-11.213C-57.337,-14.555 -61.938,-18.679 -66.97,-24.191L-68.366,-25.716C-72.164,-29.862 -76.091,-34.15 -79.677,-38.81C-84.06,-44.506 -87.543,-50.577 -90.029,-56.851C-91.347,-60.175 -92.458,-63.522 -93.533,-66.757C-94.427,-69.449 -95.271,-71.991 -96.219,-74.501C-96.789,-76.018 -97.402,-77.508 -98.051,-79.086C-99.584,-82.811 -101.168,-86.663 -102.212,-90.978C-103.472,-96.2 -103.959,-101.84 -103.663,-107.748C-103.365,-113.625 -102.413,-119.256 -101.38,-124.987C-100.214,-131.43 -98.858,-137.28 -97.233,-142.873C-93.187,-156.778 -87.834,-167.713 -80.869,-176.304C-77.255,-180.764 -72.872,-184.923 -66.657,-189.789C-61.604,-193.741 -56.049,-197.425 -50.144,-200.743C-38.715,-207.162 -26.463,-212.038 -13.727,-215.236C-9.374,-216.327 -4.756,-216.881 0,-216.881C6.304,-216.881 13.101,-215.924 20.779,-213.957C23.738,-213.197 26.559,-212.284 29.287,-211.401C30.918,-210.873 32.55,-210.344 34.2,-209.855C35.336,-209.516 36.297,-209.268 37.157,-209.094C38.034,-209.198 38.88,-209.266 39.718,-209.299C41.104,-209.355 42.489,-209.363 43.869,-209.322C45.418,-209.677 47.082,-209.549 48.539,-208.989C48.809,-208.957 49.082,-208.923 49.354,-208.885C72.146,-205.789 90.301,-186.529 91.58,-164.086C91.749,-161.104 91.663,-158.201 91.324,-155.456C91.174,-154.227 90.974,-153.084 90.781,-151.977C90.559,-150.704 90.349,-149.501 90.264,-148.414C89.893,-143.741 90.496,-138.878 91.202,-133.89C92.033,-128.034 92.76,-122.14 93.36,-117.148C93.973,-112.044 95.042,-106.552 96.724,-99.862C98.161,-94.132 99.617,-88.553 101.621,-83.246C102.088,-82.01 102.573,-80.776 103.058,-79.543C104.779,-75.16 106.559,-70.629 107.742,-65.699C110.535,-54.071 109.377,-41.352 104.395,-28.916C102.579,-24.379 99.635,-17.672 95.069,-11.861C90.914,-6.58 85.574,-2.039 79.194,1.639C67.043,8.633 53.403,11.227 41.571,13.11C33.58,14.382 26.516,15 19.977,15" style="fill:rgb(241,147,0);fill-rule:nonzero;"/>
        </g>
        <g transform="matrix(1,0,0,1,206.16,517.16)">
            <path d="M0,-19.587C0.024,-19.349 0.047,-19.112 0.068,-18.879C0.182,-17.607 -0.033,-16.34 -0.538,-15.193C0.503,-15.89 1.569,-16.545 2.658,-17.158C2.589,-17.269 2.522,-17.382 2.458,-17.497C2.123,-18.097 1.877,-18.727 1.72,-19.368C1.28,-19.373 0.837,-19.416 0.398,-19.5C0.264,-19.525 0.132,-19.555 0,-19.587M96.82,2.095C96.971,2.137 97.117,2.179 97.258,2.209C97.555,2.265 97.847,2.312 98.134,2.351C95.619,0.586 92.583,-3.571 85.69,-13.014C82.477,-17.415 78.859,-22.37 77.194,-24.292C69.962,-26.152 59.82,-28.129 49.385,-28.129C48.812,-28.129 48.243,-28.123 47.68,-28.111C50.008,-27.302 52.299,-26.358 54.537,-25.286C64.493,-20.511 73.408,-14.182 82.03,-8.062C84.083,-6.605 86.134,-5.149 88.192,-3.718C90.748,-1.943 93.734,0.108 96.82,2.095M-28.721,45.681C-28.409,46.105 -28.097,46.52 -27.787,46.924C-27.019,47.923 -26.23,48.905 -25.423,49.879C-28.726,39.597 -28.052,32.273 -23.42,27.642C-23.312,27.533 -23.202,27.425 -23.091,27.318C-24.114,26.12 -24.746,24.616 -24.87,23.024C-25.935,25.32 -26.881,27.712 -27.606,30.168C-29.154,35.409 -29.527,40.619 -28.721,45.681M9.123,95.209C7.884,95.209 6.641,94.902 5.512,94.282C4.754,93.865 3.996,93.447 3.242,93.025L1.027,91.788C-3.443,89.298 -8.065,86.723 -12.496,83.665C-17.339,80.322 -21.939,76.198 -26.972,70.686L-28.369,69.16C-32.167,65.015 -36.094,60.727 -39.679,56.067C-40.431,55.088 -41.187,54.059 -41.928,53.005C-42.518,52.166 -42.93,51.214 -43.137,50.209C-44.784,42.239 -44.398,34.067 -41.992,25.92C-39.734,18.27 -35.9,11.322 -32.618,5.934C-32.667,5.413 -32.731,4.898 -32.811,4.392C-33.57,-0.416 -35.549,-5.443 -37.643,-10.765C-41.105,-19.563 -45.029,-29.534 -43.576,-40.279C-42.269,-49.96 -40.044,-56.829 -38.409,-60.887C-35.715,-67.568 -32.857,-72.019 -27.667,-72.019C-24.019,-72.019 -20.856,-69.399 -20.146,-65.789C-19.692,-63.448 -20.266,-61.726 -21.409,-58.293C-22.33,-55.527 -23.722,-51.348 -24.586,-46.843C-25.058,-44.4 -25.1,-41.657 -25.141,-39.004C-25.246,-32.473 -23.199,-24.808 -18.905,-15.705C-18.054,-16.932 -17.168,-18.15 -16.237,-19.348C-15.916,-19.76 -15.589,-20.169 -15.256,-20.577C-15.709,-23.574 -16.203,-26.506 -16.721,-29.279C-19.985,-46.739 -20.084,-60.631 -10.509,-75.917C-6.27,-82.686 2.784,-90.684 9.632,-96.201C24.576,-108.24 27.55,-108.24 29.327,-108.24C32.372,-108.24 35.121,-106.45 36.329,-103.679C37.266,-101.528 37.652,-98.177 34.168,-94.427C32.302,-92.418 30.245,-90.877 28.43,-89.518C27.586,-88.886 26.789,-88.289 26.079,-87.697C24.164,-86.065 22.417,-84.512 20.815,-83.016C21.832,-82.546 22.749,-81.858 23.498,-80.987C24.987,-79.253 25.644,-76.967 25.3,-74.714C25.021,-72.86 24.503,-70.363 22.991,-67.594C21.937,-65.65 20.76,-63.927 19.403,-62.346C17.18,-59.754 14.468,-57.276 10.871,-54.551L9.571,-53.571C7.471,-51.992 5.486,-50.501 3.892,-48.875C3.308,-48.278 2.777,-47.64 2.309,-46.971C2.392,-46.167 2.505,-45.368 2.647,-44.58C3.052,-42.385 3.731,-40.243 4.54,-38.221C5.871,-39.13 7.255,-40.04 8.699,-40.957C9.515,-41.474 10.345,-41.986 11.18,-42.488C11.34,-42.691 11.499,-42.897 11.655,-43.105C13.908,-46.081 16.016,-49.259 18.112,-52.836C19.594,-55.369 21.048,-57.931 22.502,-60.492C28.475,-71.015 34.651,-81.895 43.007,-91.281C44.022,-92.423 47.115,-95.899 62.698,-105.221C77.959,-114.351 79.56,-114.41 81.108,-114.467C82.473,-114.521 83.076,-114.508 83.944,-114.462C85.473,-114.796 87.109,-114.662 88.543,-114.109C88.586,-114.105 88.629,-114.1 88.671,-114.095C91.59,-113.764 94.046,-111.76 94.957,-108.968C95.868,-106.176 95.064,-103.109 92.902,-101.121C92.469,-100.723 91.998,-100.366 91.5,-100.06C91.461,-100.036 91.423,-100.013 91.384,-99.99C88.896,-98.52 86.389,-97.149 83.905,-95.831C84.441,-95.015 84.824,-94.084 85.01,-93.077C85.755,-89.039 83.238,-86.164 80.123,-83.088C77.24,-80.241 74.45,-78.29 71.831,-77.289C68.777,-76.123 65.451,-74.941 61.816,-74.191L61.328,-74.089C58.621,-73.529 56.063,-73.001 53.73,-72.214C53.172,-72.026 52.637,-71.821 52.127,-71.6C49.861,-67.879 47.91,-64.012 46.414,-60.945C46.037,-60.173 45.665,-59.399 45.295,-58.622C47.057,-59.54 48.82,-60.538 50.6,-61.624C54.906,-64.249 59.58,-67.011 64.577,-69.428C69.176,-71.653 73.6,-74.137 78.284,-76.766C82.883,-79.347 87.639,-82.017 92.564,-84.411C98.381,-87.24 111.306,-93.822 113.101,-94.903C114.718,-95.975 116.69,-96.381 118.604,-96.026C120.57,-95.663 122.311,-94.529 123.438,-92.877C124.339,-91.557 125.181,-90.183 125.942,-88.794C127.849,-85.313 126.712,-80.947 123.35,-78.838C122.7,-78.431 122.041,-78.045 121.375,-77.668C120.096,-76.947 118.74,-76.254 117.236,-75.55C117.142,-75.484 117.048,-75.42 116.953,-75.356C118.457,-74.676 119.732,-73.524 120.556,-72.028C121.918,-69.557 121.825,-66.532 120.312,-64.138C117.553,-59.835 113.246,-56.787 107.484,-55.035C102.022,-53.372 96.807,-53.159 92.875,-53.159C90.795,-53.159 88.733,-53.229 86.74,-53.296C85.983,-53.321 85.225,-53.347 84.466,-53.368C83.413,-53.4 82.363,-53.425 81.313,-53.425C79.224,-53.425 77.573,-53.318 76.118,-53.088C75.724,-53.025 75.354,-52.952 75.007,-52.871C73.927,-52.256 72.855,-51.634 71.785,-50.998C70.839,-50.433 69.889,-49.858 68.938,-49.277C76.31,-47.686 84.034,-44.89 92.486,-40.787L93.033,-40.522C99.852,-37.213 106.292,-34.087 113.101,-32.266C118.007,-30.954 122.313,-30.191 126.269,-29.933C129.864,-29.697 132.784,-26.94 133.224,-23.364L133.355,-22.3C133.473,-21.321 133.606,-20.367 133.748,-19.414C134.066,-17.284 133.453,-15.121 132.065,-13.475C130.677,-11.828 128.648,-10.858 126.496,-10.81C120.564,-10.669 114.401,-11.591 108.059,-13.522C107.457,-13.704 106.858,-13.893 106.263,-14.086C106.368,-13.914 106.473,-13.741 106.579,-13.569C107.424,-12.204 107.993,-10.859 108.45,-9.779C108.556,-9.527 108.663,-9.274 108.774,-9.022C109.557,-7.237 111.187,-3.525 108.797,0.134C108.651,0.357 108.494,0.572 108.326,0.777C108.373,0.765 108.42,0.753 108.468,0.741C110.038,0.348 111.661,-0.061 112.877,-0.483C114.954,-1.206 117.507,-3.22 118.597,-4.079C119.802,-5.03 121.454,-6.332 124.125,-6.332C127.024,-6.332 129.677,-4.654 130.917,-2.033C132.983,2.333 130.458,5.413 128.428,7.887C126.615,10.103 124.083,12.18 121.781,13.758C124.719,14.399 127.568,14.62 130.228,14.401C131.861,14.268 133.587,13.981 135.358,13.547C139.017,12.645 142.776,14.605 144.139,18.118C144.641,19.414 145.129,20.719 145.59,22.027C146.266,23.946 146.133,26.058 145.221,27.877C144.31,29.696 142.698,31.067 140.756,31.675C137.757,32.614 134.695,33.218 131.654,33.469C125.699,33.96 119.302,33.242 112.622,31.326C101.696,28.201 91.772,22.517 82.676,16.839C78.995,14.542 75.335,12.142 71.797,9.82C70.485,8.959 69.185,8.105 67.892,7.264C68.1,8.205 68.313,9.142 68.547,10.069L68.83,11.212C69.254,12.946 69.655,14.586 70.244,15.753C70.681,16.615 71.627,17.626 72.722,18.796C73.058,19.156 73.395,19.517 73.727,19.881C77.116,23.622 76.7,26.942 75.756,29.071C74.542,31.811 71.808,33.582 68.794,33.582C67.48,33.582 64.403,33.582 58.232,27.367C55.452,24.567 51.899,20.16 50.758,15.061C50.605,14.378 50.458,13.696 50.309,13.014C49.469,9.143 48.675,5.488 47.236,2.382C46.538,0.875 45.111,-0.87 42.875,-2.954C40.228,-5.419 37.678,-7.275 35.294,-8.474C33.324,-8.678 31.336,-8.784 29.433,-8.784C13.53,-8.784 1.783,-1.493 -5.615,12.923C-0.337,13.714 5.27,15.306 9.48,16.593L10.164,16.8C21.994,20.313 31.31,24.004 39.482,28.416C48.902,33.506 57.41,37.633 66.259,41.403C68.755,42.467 71.25,43.593 73.663,44.681C81.797,48.351 89.48,51.818 97.541,53.25C101.296,53.918 104.597,54.204 107.793,54.123C111.617,53.826 115.379,52.506 119.288,50.089C120.739,49.194 122.471,48.242 124.734,48.242C128.771,48.242 132.11,51.39 132.336,55.406C132.538,59.011 130.588,61.788 124.606,66.412C117.742,71.719 114.112,72.127 112.919,72.262C111.052,72.476 109.128,72.588 107.058,72.601C106.434,72.623 105.809,72.634 105.182,72.634L105.18,72.634C100.431,72.634 95.431,72.019 90.319,70.81C84.172,69.355 78.324,67.04 73.165,64.997C67.805,62.87 62.019,60.385 55.474,57.397C53.387,56.445 51.232,55.451 48.832,54.332C48.884,55.341 48.897,56.336 48.91,57.307C48.935,59.246 48.973,62.176 49.529,63.107C50.96,65.511 51.571,65.579 51.975,65.624C60.917,66.616 61.289,72.534 61.189,74.325C61.146,75.11 60.502,82.003 51.404,82.003C49.394,82.003 44.199,81.618 39.371,78.048C32.883,73.253 31.71,65.607 30.855,60.025C30.682,58.895 30.518,57.829 30.328,56.851C30.225,56.322 30.11,55.679 29.981,54.956C29.634,52.995 28.633,47.35 27.511,45.175C23.644,43.365 17.115,41.459 12.649,40.154C10.339,39.479 8.514,38.947 7.172,38.48C3.086,37.054 -1.627,35.599 -5.681,35.599C-8.583,35.599 -10.695,36.313 -12.455,37.906C-12.688,39.36 -12.211,44.291 -7.63,53.92C-4.925,59.615 -1.392,64.994 2.612,70.933C4.062,73.082 5.807,75.563 7.757,77.669C8.452,78.417 8.881,78.813 9.135,79.022C12.85,79.694 15.745,82.501 16.483,86.265C17.044,89.122 15.9,92.046 13.549,93.765C12.238,94.723 10.684,95.209 9.123,95.209" style="fill:rgb(241,147,0);fill-rule:nonzero;"/>
        </g>
        <g transform="matrix(1,0,0,1,158.996,582.743)">
            <path d="M0,-63.627C0.784,-60.94 1.892,-58.251 3.055,-55.431C3.713,-53.833 4.395,-52.18 5.038,-50.474C6.086,-47.691 7.015,-44.897 7.913,-42.193C8.972,-39.005 9.972,-35.993 11.137,-33.053C12.775,-28.912 14.883,-25.02 17.583,-21.148C17.833,-20.791 18.102,-20.417 18.375,-20.047C18.402,-20.011 18.428,-19.974 18.454,-19.938L18.521,-19.845C18.54,-19.819 18.58,-19.766 18.599,-19.739C18.869,-19.371 19.145,-19.004 19.424,-18.643C19.884,-18.045 20.34,-17.471 20.797,-16.898C29.667,-5.85 38.653,2.598 43.244,5.765C47.051,8.395 51.128,10.667 55.444,13.072L57.801,14.389C58.523,14.794 59.236,15.189 59.959,15.588C64.257,17.961 67.809,19.755 71.147,21.24C79.917,25.141 88.702,27.66 97.258,28.728C100.427,29.125 103.771,29.326 107.199,29.326L107.201,29.326C112.939,29.326 119.231,28.769 126.436,27.625C136.94,25.952 148.984,23.687 158.925,17.967C163.639,15.253 167.532,11.965 170.493,8.195C170.874,7.712 171.233,7.225 171.58,6.731C172.024,6.099 172.563,5.538 173.178,5.07C185.118,-4.011 195.797,-17.715 201.811,-27.512C205.186,-33.011 207.379,-40.216 208.304,-48.392C200.257,-37.782 190.572,-28.075 179.074,-17.454C162.668,-2.304 140.885,5.705 116.08,5.705C86.024,5.705 54.04,-6.054 30.524,-25.749C17.88,-36.34 7.396,-49.298 0.207,-63.223C0.137,-63.357 0.068,-63.491 0,-63.627M107.201,44.326L107.199,44.326C103.151,44.326 99.181,44.086 95.398,43.613C85.379,42.361 75.169,39.445 65.05,34.945C61.309,33.28 57.392,31.304 52.72,28.725C51.97,28.312 51.219,27.895 50.459,27.469L48.143,26.175C43.706,23.703 39.119,21.146 34.722,18.109C29.083,14.219 18.967,4.783 9.089,-7.523C8.561,-8.184 8.046,-8.832 7.542,-9.489C7.208,-9.921 6.866,-10.375 6.531,-10.831C6.439,-10.953 6.351,-11.075 6.263,-11.198C5.933,-11.647 5.607,-12.1 5.29,-12.552C1.952,-17.339 -0.769,-22.372 -2.81,-27.531C-4.129,-30.862 -5.245,-34.219 -6.323,-37.465C-7.214,-40.148 -8.055,-42.681 -8.998,-45.183C-9.561,-46.675 -10.169,-48.151 -10.813,-49.715C-12.355,-53.454 -13.949,-57.32 -14.995,-61.654C-16.254,-66.881 -16.741,-72.522 -16.441,-78.425C-16.143,-84.336 -15.151,-90.184 -14.16,-95.667C-13.814,-97.565 -13.444,-99.452 -13.058,-101.288C-13.057,-101.293 -13.056,-101.298 -13.055,-101.302L-13.055,-101.305C-12.202,-105.357 -8.223,-107.953 -4.172,-107.1C-0.119,-106.247 2.476,-102.271 1.625,-98.218C1.448,-96.886 3.403,-92.975 4.343,-91.095C4.852,-90.077 5.332,-89.111 5.73,-88.227C6.896,-85.648 7.943,-83.05 8.957,-80.537C10.439,-76.862 11.839,-73.392 13.536,-70.102C19.819,-57.934 29.024,-46.572 40.155,-37.249C60.742,-20.006 89.835,-9.295 116.08,-9.295C137.047,-9.295 155.311,-15.927 168.897,-28.474C183.244,-41.726 194.518,-53.352 202.902,-67.012C204.794,-70.091 206.332,-73.703 207.476,-77.754C208.427,-81.123 211.584,-83.398 215.078,-83.205C218.573,-83.025 221.48,-80.452 222.082,-77.004C225.98,-54.666 223.251,-33.767 214.594,-19.665C211.39,-14.444 199.78,3.356 183.165,16.312C182.869,16.713 182.573,17.102 182.28,17.474C178.137,22.746 172.794,27.29 166.408,30.967C154.256,37.96 140.62,40.555 128.792,42.438C120.798,43.709 113.736,44.326 107.201,44.326" style="fill:rgb(241,147,0);fill-rule:nonzero;"/>
        </g>
        <g transform="matrix(1,0,0,1,266.615,428.746)">
            <path d="M0,64.833C14.636,64.833 22.728,69.775 28.636,73.384C32.187,75.552 34.14,76.684 36.309,76.684C38.373,76.684 41.182,75.682 44.655,73.707C53.514,68.673 50.494,50.663 48.784,43.153C45.93,30.63 39.555,18.693 30.835,9.544C18.257,-3.652 -2.974,-11.851 -24.569,-11.851C-37.27,-11.851 -48.889,-9.027 -58.17,-3.686C-69.224,2.677 -77.452,12.348 -80.743,22.847C-82.323,27.898 -82.644,33.645 -81.724,40.409C-81.575,41.509 -81.441,42.638 -81.306,43.784C-80.651,49.339 -79.908,55.634 -76.935,57.877C-66.947,65.409 -55.997,68.917 -42.476,68.917C-34.735,68.917 -26.935,67.815 -19.393,66.75C-15.373,66.183 -11.216,65.595 -7.204,65.201C-4.719,64.957 -2.295,64.833 0,64.833M36.309,91.684C29.821,91.684 25.038,88.763 20.818,86.185C15.705,83.062 10.418,79.833 0,79.833C-1.808,79.833 -3.738,79.933 -5.737,80.129C-9.434,80.492 -13.252,81.031 -17.294,81.603C-25.35,82.74 -33.681,83.917 -42.476,83.917C-59.423,83.917 -73.243,79.448 -85.967,69.853C-94.054,63.753 -95.246,53.655 -96.203,45.542C-96.328,44.482 -96.45,43.438 -96.587,42.426C-97.81,33.438 -97.31,25.566 -95.058,18.365C-90.651,4.308 -79.934,-8.466 -65.653,-16.686C-54.099,-23.335 -39.893,-26.851 -24.569,-26.851C0.989,-26.851 26.38,-16.871 41.693,-0.806C52.251,10.271 59.963,24.7 63.41,39.821C70.154,69.447 60.964,81.691 52.068,86.747C46.146,90.114 41.137,91.684 36.309,91.684" style="fill:rgb(241,147,0);fill-rule:nonzero;"/>
        </g>
        <g transform="matrix(1,0,0,1,224.481,413.163)">
            <path d="M0,30.712L-0.345,30.709C-1.66,30.692 -2.939,30.47 -4.222,30.03C-7.931,29.358 -11.063,26.897 -12.627,23.399C-14.35,19.546 -13.869,15.115 -11.373,11.834C-11.006,11.356 -10.682,10.951 -10.365,10.58C-8.183,7.704 -5.418,6.31 -3.228,5.413C-0.943,4.476 1.265,3.989 3.156,3.606C4.108,3.413 5.063,3.231 6.019,3.049C7.322,2.802 8.625,2.556 9.922,2.272C20.302,0 30.518,0.342 39.179,3.284C46.182,5.66 49.922,13.525 47.514,20.815C45.7,26.275 40.45,29.938 34.446,29.938L34.445,29.938C32.867,29.938 31.323,29.679 29.857,29.17C29.51,29.05 29.158,28.932 28.802,28.828C28.752,28.814 28.702,28.799 28.652,28.783C28.563,28.756 28.47,28.733 28.378,28.708C28.31,28.691 28.242,28.673 28.174,28.654L28.1,28.636L28.101,28.634C28.062,28.622 28.023,28.611 27.986,28.601C27.6,28.569 27.243,28.537 26.951,28.498C25.526,28.304 24.025,28.205 22.467,28.202C22.42,28.202 22.357,28.2 22.283,28.198C22.189,28.2 22.088,28.196 21.99,28.194L21.977,28.195C21.741,28.218 21.508,28.237 21.281,28.251C20.493,28.298 19.691,28.374 18.886,28.455C17.362,28.612 15.854,28.816 14.289,29.077C12.955,29.296 11.631,29.481 10.309,29.665C9.385,29.793 8.462,29.921 7.542,30.063C6.091,30.281 4.614,30.503 2.937,30.591L2.422,30.62C1.703,30.663 0.888,30.712 0,30.712" style="fill:rgb(241,147,0);fill-rule:nonzero;"/>
        </g>
        <g transform="matrix(1,0,0,1,281.938,420.199)">
            <path d="M0,29.026C-1.123,29.026 -2.235,28.874 -3.307,28.574C-6.224,27.752 -8.186,26.231 -9.608,24.733C-9.872,24.498 -10.076,24.287 -10.221,24.134C-10.476,23.99 -10.729,23.843 -10.979,23.689L-11.313,23.483C-12.263,22.901 -13.444,22.176 -14.584,21.191C-14.904,20.916 -15.214,20.624 -15.518,20.308C-16.603,19.268 -17.458,18.013 -18.023,16.632C-20.278,12.12 -19.112,6.756 -15.092,3.354C-12.603,1.159 -9.334,0 -5.628,0C-4.215,0 -2.763,0.17 -1.313,0.504C2.296,1.339 5.729,3.146 8.896,5.877C11.745,8.337 13.34,11.949 13.274,15.79C13.206,19.757 11.352,23.587 8.313,26.033C5.916,27.963 2.963,29.026 0,29.026" style="fill:rgb(241,147,0);fill-rule:nonzero;"/>
        </g>
        <g transform="matrix(1,0,0,1,303.715,580.945)">
            <path d="M0,32.784C-5.238,32.784 -8.924,31.14 -10.958,27.901C-12.41,25.583 -12.783,22.926 -12.011,20.413C-10.679,16.079 -6.691,14.323 -4.775,13.48C-4.625,13.414 -4.486,13.355 -4.37,13.299L-4.161,13.19C-3.705,12.95 -2.94,12.549 -2.097,12.204L-2.012,12.167C-1.764,12.058 -1.515,11.953 -1.266,11.859C-1.216,11.841 -1.166,11.822 -1.116,11.805C-0.985,11.758 -0.042,11.472 0.363,11.355C1.398,11.043 2.245,10.766 3.024,10.486C5.207,9.712 7.263,8.826 9.169,7.841C11.185,6.796 12.248,6.182 13.603,5.089C14.187,4.619 14.797,4.074 15.443,3.496L15.691,3.274C16.33,2.702 17.007,2.187 17.747,1.712C18.397,1.3 19.822,0.397 21.868,0.096C22.369,0.024 22.874,0 23.372,0.029C23.574,0.036 23.999,0.047 24.223,0.054C24.25,0.055 24.276,0.055 24.303,0.055L24.335,0.057C25.416,0.1 26.393,0.339 27.255,0.723C29.48,1.652 31.334,3.49 32.406,5.947C33.507,8.479 33.492,11.264 32.365,14.232C31.331,16.938 29.542,18.912 28.099,20.33C25.878,22.499 23.183,24.462 19.842,26.347C17.417,27.718 14.818,28.932 11.902,30.059L11.753,30.118C9.188,31.11 5.996,32.347 2.475,32.67C1.92,32.722 1.031,32.784 0,32.784" style="fill:rgb(241,147,0);fill-rule:nonzero;"/>
        </g>
        <g transform="matrix(1,0,0,1,269.822,597.996)">
            <path d="M0,21.305L-0.001,21.305C-2.504,21.305 -4.681,21.162 -6.657,20.871C-12.332,20.036 -16.293,14.967 -15.671,9.332C-15.104,3.959 -10.592,0.021 -4.948,0L-4.724,0C-2.875,0 -1.104,0.101 0.61,0.199C2.185,0.288 3.673,0.373 5.099,0.373L5.603,0.372C7.041,0.372 8.954,0.398 10.999,0.599C12.923,0.791 17.391,1.241 20.361,5.199C21.998,7.384 22.489,10.117 21.713,12.702C20.411,17.04 16.171,18.98 14.41,19.612C11.962,20.492 9.31,20.995 6.527,21.11L5.514,21.152C3.738,21.227 1.901,21.305 0,21.305" style="fill:rgb(241,147,0);fill-rule:nonzero;"/>
        </g>
        <g transform="matrix(1,0,0,1,380.504,588.517)">
            <path d="M0,5.25C5.83,2.75 15.204,-9.045 19.102,-14.316C25.683,-23.23 13.08,-56.793 -5.87,-52.146C-15.8,-49.715 -18.58,-31.895 -27.458,-26.143C-28.979,-25.156 -30.491,-24.15 -31.863,-22.965C-32.138,-22.725 -32.198,-22.418 -32.126,-22.121L-170.21,1.545C-170.712,1.137 -171.232,0.744 -171.785,0.355C-176.261,-2.781 -190.652,-5.813 -190.173,-4.957C-182.689,8.314 -170.309,35.699 -160.099,47.178C-151.505,56.832 -127.494,61.943 -114.373,61.992C-100.082,62.043 -88.99,51.471 -75.451,51.184C-59.968,50.855 -49.877,54.275 -36.444,43.383C-29,37.352 -22.456,29.516 -16.659,21.902C-12.488,16.42 -8.397,10.367 -2.504,6.561C-1.72,6.059 -0.88,5.627 0,5.25" style="fill:rgb(114,181,47);fill-rule:nonzero;"/>
        </g>
        <g transform="matrix(1,0,0,1,338.658,614.52)">
            <path d="M0,-11.452C-5.669,-11.921 -11.341,-12.3 -17.012,-12.763C-20.212,-13.028 -23.42,-13.366 -26.627,-13.503C-29.518,-13.632 -32.656,-13.895 -35.439,-13.026C-35.699,-12.944 -35.617,-12.608 -35.427,-12.507C-33.127,-11.327 -30.537,-11.1 -28.014,-10.655C-25.467,-10.202 -22.876,-9.962 -20.309,-9.671C-15.06,-9.075 -9.815,-8.456 -4.553,-8.026C-0.364,-7.682 3.696,-7.376 7.704,-6.013C11.391,-4.757 15.003,-2.882 17.817,-0.141C18.628,0.652 19.368,1.517 20.021,2.443C20.856,1.431 21.676,0.411 22.483,-0.612C19.84,-4.007 16.187,-6.52 12.299,-8.292C8.448,-10.044 4.216,-11.104 0,-11.452" style="fill:rgb(128,204,78);fill-rule:nonzero;"/>
        </g>
        <g transform="matrix(1,0,0,1,373.931,590.463)">
            <path d="M0,-2.08C-2.936,-3.853 -6.277,-4.846 -9.624,-5.484C-16.916,-6.875 -24.194,-6.453 -31.161,-3.828C-36.04,-1.986 -40.515,0.524 -45.076,3.002C-45.119,3.025 -45.104,3.106 -45.048,3.092C-36.939,1.539 -29.878,-3.309 -21.553,-4.107C-15.52,-4.685 -8.824,-3.926 -3.252,-1.482C-1.7,-0.807 -0.198,0.061 1.052,1.211C2.178,2.246 2.901,3.584 3.807,4.795C3.895,4.734 3.981,4.678 4.069,4.615C4.377,4.424 4.693,4.236 5.011,4.066C4.713,1.361 2.209,-0.746 0,-2.08" style="fill:rgb(128,204,78);fill-rule:nonzero;"/>
        </g>
        <g transform="matrix(1,0,0,1,333.289,620.066)">
            <path d="M0,3.674C-2.839,-0.152 -6.615,-2.857 -10.682,-5.25C-14.369,-7.42 -18.227,-9.306 -22.241,-10.793C-26.535,-12.381 -31.202,-13.838 -35.818,-13.629C-35.847,-13.629 -35.846,-13.584 -35.823,-13.574C-32.334,-11.92 -28.539,-11.078 -24.92,-9.742C-21.196,-8.365 -17.589,-6.732 -14.146,-4.754C-10.39,-2.596 -6.789,-0.222 -3.85,2.998C-1.339,5.754 1.04,9.256 1.599,13.022C1.821,14.533 1.661,16.028 1.404,17.512C2.346,17.133 3.289,16.695 4.246,16.194C4.307,15.541 4.331,14.877 4.308,14.205C4.186,10.322 2.268,6.735 0,3.674" style="fill:rgb(128,204,78);fill-rule:nonzero;"/>
        </g>
        <g transform="matrix(1,0,0,1,274.811,630.861)">
            <path d="M0,0.594C-2.03,-3.125 -4.097,-6.769 -6.819,-10.033C-8.196,-11.685 -9.723,-13.234 -11.464,-14.504C-12.229,-15.068 -13.09,-15.607 -13.98,-15.957C-14.833,-16.295 -15.645,-16.31 -16.514,-16.49C-16.567,-16.504 -16.598,-16.418 -16.551,-16.386C-15.76,-15.883 -15.076,-15.068 -14.368,-14.451C-13.65,-13.824 -12.939,-13.181 -12.268,-12.506C-10.913,-11.14 -9.655,-9.683 -8.482,-8.158C-6.086,-5.037 -4.217,-1.617 -2.344,1.826C-0.448,5.309 1.505,8.789 2.929,12.506C3.5,13.998 3.972,15.53 4.293,17.098C5.151,16.789 6.004,16.461 6.854,16.121C6.566,14.854 6.189,13.608 5.757,12.385C4.29,8.254 2.097,4.426 0,0.594" style="fill:rgb(128,204,78);fill-rule:nonzero;"/>
        </g>
        <g transform="matrix(1,0,0,1,254.824,614.078)">
            <path d="M0,32.633C0.943,31.115 1.617,29.451 2.085,27.731C3.021,24.283 3.3,20.676 3.112,17.117C2.919,13.514 2.188,9.863 1.091,6.426C0.519,4.639 -0.224,2.893 -1.239,1.307C-2.172,-0.156 -3.392,-1.912 -5.124,-2.431C-5.183,-2.451 -5.229,-2.41 -5.225,-2.351C-5.119,-0.73 -4.11,0.709 -3.436,2.151C-2.741,3.633 -2.082,5.131 -1.572,6.694C-0.533,9.862 0.039,13.301 0.234,16.629C0.416,19.776 0.243,23.02 -0.498,26.096C-0.856,27.586 -1.363,29.096 -2.115,30.444C-2.465,31.074 -2.891,31.647 -3.331,32.223C-3.816,32.86 -4.047,33.475 -4.444,34.149C-4.536,34.309 -4.572,34.506 -4.554,34.699C-3.845,34.836 -3.138,34.961 -2.444,35.084C-2.134,34.973 -1.845,34.822 -1.58,34.604C-0.951,34.076 -0.431,33.324 0,32.633" style="fill:rgb(128,204,78);fill-rule:nonzero;"/>
        </g>
        <g transform="matrix(1,0,0,1,392.264,567.394)">
            <path d="M0,-8.711C-3.784,-8.74 -7.564,-8.869 -11.345,-8.928C-15.34,-8.992 -19.279,-8.738 -23.103,-7.49C-27.539,-6.037 -31.852,-3.664 -35.862,-1.307C-36.444,-0.963 -36.503,0.152 -35.64,0.17C-30.593,0.281 -26.134,-2.84 -21.47,-4.328C-16.816,-5.816 -11.862,-5.494 -7.053,-5.365C-2.658,-5.242 1.75,-5.514 6.142,-5.209C6.985,-5.15 7.826,-5.068 8.665,-4.961C8.475,-6.051 8.227,-7.174 7.921,-8.303C5.295,-8.615 2.643,-8.688 0,-8.711" style="fill:rgb(128,204,78);fill-rule:nonzero;"/>
        </g>
        <g transform="matrix(1,0,0,1,208.63,380.697)">
            <path d="M0,203.072C-0.023,203.064 -0.044,203.054 -0.068,203.051L21.732,131.392C22.252,131.566 22.862,131.468 23.298,130.906C27.167,125.88 32.306,121.684 37.394,117.946C42.573,114.141 47.96,110.667 53.438,107.317C58.784,104.053 64.19,100.895 69.449,97.498C72.111,95.773 74.736,93.996 77.287,92.103C79.106,90.754 80.99,89.404 82.573,87.763C87.358,82.814 89.542,75.808 90.668,69.162C92.068,60.914 91.797,52.287 90.222,44.082C87.06,27.619 77.526,10.24 60.456,5.123C51.856,2.547 42.717,1.488 33.82,0.508C29.421,0.025 25.02,-0.416 20.627,-0.92C15.634,-1.49 10.636,-1.998 5.605,-1.889C0.565,-1.787 -4.433,-1.026 -9.159,0.769C-14.779,2.9 -19.293,6.381 -23.165,10.935C-25.101,13.211 -26.885,15.633 -28.995,17.752C-31.173,19.943 -33.674,21.795 -36.267,23.467C-40.892,26.455 -45.874,29.279 -51.076,31.138C-60.746,34.59 -71.623,35.851 -80.159,41.955C-83.866,44.605 -86.446,48.472 -89.014,52.17C-91.667,55.994 -94.118,59.963 -96.15,64.144C-99.777,71.617 -102.312,80.9 -98.364,88.767C-96.882,91.717 -94.817,94.189 -94.662,97.375C-94.675,97.375 -94.683,97.939 -94.691,98.031C-94.714,98.259 -94.753,98.488 -94.792,98.716C-94.793,98.739 -94.796,98.759 -94.8,98.774C-94.835,98.903 -94.871,99.032 -94.915,99.159C-95.002,99.423 -95.097,99.68 -95.208,99.934C-95.241,100.012 -95.388,100.315 -95.442,100.434C-95.514,100.551 -95.685,100.852 -95.732,100.921C-96.036,101.411 -96.375,101.88 -96.721,102.346C-98.177,104.268 -99.819,106.042 -101.068,108.116C-102.734,110.885 -103.751,113.948 -103.938,117.184C-104.229,122.085 -102.997,126.942 -101.345,131.515C-99.345,137.058 -96.825,142.427 -93.879,147.531C-83.623,165.299 -68.229,179.502 -50.287,189.302C-36.904,196.617 -22.353,201.914 -7.328,204.609C-5.071,205.015 -2.854,205.021 -0.478,205.056C0.597,205.07 1.214,203.418 0,203.072" style="fill:rgb(112,194,50);fill-rule:nonzero;"/>
        </g>
        <g transform="matrix(1,0,0,1,128.138,470.082)">
            <path d="M0,-27.516C10.299,-27.123 21.16,-22.993 26.021,-13.233C27.185,-10.887 27.876,-8.373 28.42,-5.817C29.032,-2.92 29.772,-0.27 31,2.433C31.366,3.244 32.486,2.853 32.436,2.023C32.107,-3.291 31.489,-8.662 29.285,-13.588C26.916,-18.897 22.593,-23.282 17.551,-26.114C12.756,-28.809 7.48,-30.137 2.008,-30.457C-3.128,-30.76 -8.407,-30.491 -13.454,-29.418C-14.071,-28.328 -14.658,-27.227 -15.22,-26.108C-15.109,-26.131 -15,-26.161 -14.889,-26.188C-10.014,-27.266 -4.985,-27.703 0,-27.516" style="fill:rgb(145,227,91);fill-rule:nonzero;"/>
        </g>
        <g transform="matrix(1,0,0,1,128.481,508.413)">
            <path d="M0,-27.695C8.058,-23.416 13.143,-16.062 17.272,-8.15C18.488,-5.816 19.63,-3.449 20.767,-1.08C21.853,1.191 22.936,3.79 24.674,5.652C25.281,6.304 26.55,5.906 26.365,4.909C25.92,2.562 24.74,0.29 23.715,-1.847C22.582,-4.215 21.444,-6.58 20.232,-8.906C17.845,-13.511 15.202,-18.064 11.807,-22.008C6.433,-28.244 -1.661,-33.233 -10.011,-33.864C-11.775,-33.999 -13.567,-33.932 -15.294,-33.532C-14.945,-32.704 -14.681,-31.852 -14.563,-30.948C-13.276,-31.133 -11.967,-31.184 -10.672,-31.075C-6.945,-30.774 -3.285,-29.442 0,-27.695" style="fill:rgb(145,227,91);fill-rule:nonzero;"/>
        </g>
        <g transform="matrix(1,0,0,1,128.039,461.387)">
            <path d="M0,-36.545C3.286,-35.736 6.373,-34.08 9.242,-32.332C15.932,-28.274 21.825,-23.488 26.772,-17.369C29.024,-14.58 31.041,-11.604 32.745,-8.451C33.628,-6.813 34.426,-5.135 35.151,-3.422C35.843,-1.781 36.426,-0.033 37.448,1.441C38.068,2.344 39.207,1.541 39.19,0.678C39.115,-2.518 37.235,-5.897 35.795,-8.672C34.264,-11.623 32.484,-14.449 30.5,-17.111C27.34,-21.34 23.64,-25.324 19.492,-28.609C16.94,-30.629 14.25,-32.508 11.452,-34.182C8.297,-36.074 4.876,-37.963 1.255,-38.768C1.055,-38.809 0.852,-38.852 0.652,-38.889C0.581,-38.84 0.504,-38.789 0.433,-38.734C-0.384,-38.154 -1.143,-37.508 -1.859,-36.824C-1.232,-36.805 -0.601,-36.693 0,-36.545" style="fill:rgb(145,227,91);fill-rule:nonzero;"/>
        </g>
        <g transform="matrix(1,0,0,1,187.232,408.797)">
            <path d="M0,11.072C-0.018,13.201 -0.187,15.32 -0.512,17.418C-0.845,19.58 -1.142,21.574 -1.121,23.765C-1.115,24.558 -0.105,25.133 0.431,24.363C1.768,22.42 2.42,20.531 2.801,18.203C3.166,15.965 3.35,13.701 3.371,11.437C3.402,6.98 2.843,2.566 1.668,-1.733C0.43,-6.289 -1.453,-10.358 -4.322,-14.061C-4.993,-13.244 -5.675,-12.432 -6.378,-11.647C-4.19,-8.463 -2.583,-5.082 -1.595,-1.241C-0.57,2.765 0.036,6.935 0,11.072" style="fill:rgb(145,227,91);fill-rule:nonzero;"/>
        </g>
        <g transform="matrix(1,0,0,1,205.059,406.648)">
            <path d="M0,-5.832C-0.426,-1.123 -1.427,3.832 -3.273,8.203C-4.903,12.066 -8.826,15.441 -8.772,19.881C-8.765,20.643 -7.763,21.238 -7.254,20.461C-5.32,17.502 -3.079,14.686 -1.34,11.602C0.561,8.227 1.54,4.311 2.303,0.535C3.098,-3.404 3.252,-7.352 3.247,-11.357C3.245,-15.215 3.182,-19.092 2.452,-22.891C2.181,-24.291 1.796,-25.707 1.272,-27.07C0.433,-26.916 -0.412,-26.74 -1.242,-26.533C-0.57,-24.33 -0.133,-22.061 0.063,-19.658C0.435,-15.109 0.411,-10.375 0,-5.832" style="fill:rgb(145,227,91);fill-rule:nonzero;"/>
        </g>
        <g transform="matrix(1,0,0,1,226.497,391.162)">
            <path d="M0,14.34C-2.078,15.809 -4.191,17.227 -6.311,18.639C-7.32,19.313 -8.313,20.006 -9.28,20.736C-9.82,21.141 -10.41,21.527 -10.898,21.996C-11.283,22.367 -11.484,22.875 -11.857,23.244C-12.011,23.391 -11.875,23.658 -11.659,23.57C-10.768,23.217 -9.909,23.1 -9.026,22.639C-7.881,22.039 -6.742,21.43 -5.628,20.772C-3.651,19.613 -1.687,18.412 0.243,17.166C4.28,14.557 8.138,11.686 11.602,8.344C16.584,3.537 21.295,-1.826 24.401,-8.06C24.541,-8.344 24.678,-8.625 24.809,-8.906C23.726,-9.053 22.64,-9.189 21.557,-9.318C20.221,-6.531 18.48,-3.941 16.591,-1.504C11.879,4.574 6.275,9.901 0,14.34" style="fill:rgb(145,227,91);fill-rule:nonzero;"/>
        </g>
        <g transform="matrix(1,0,0,1,265.752,395.714)">
            <path d="M0,9.684C-0.794,10.733 -1.63,11.754 -2.394,12.83C-3.006,13.698 -3.783,14.807 -3.837,15.899C-3.876,16.694 -3.185,17.125 -2.464,16.907C-1.342,16.573 -0.349,15.387 0.361,14.506C1.296,13.358 2.192,12.174 3.062,10.973C5.01,8.289 6.83,5.53 8.376,2.594C9.725,0.047 11.159,-3.045 11.652,-6.125C10.907,-6.589 10.142,-7.029 9.358,-7.441C8.778,-3.98 6.812,-0.49 5.182,2.157C3.584,4.75 1.841,7.252 0,9.684" style="fill:rgb(145,227,91);fill-rule:nonzero;"/>
        </g>
        <g opacity="0.45">
            <g transform="matrix(1,0,0,1,340.425,416.968)">
                <path d="M0,197.983C17.784,182.432 39.103,161.139 36.872,136.819C34.737,113.551 23.084,96.92 13.049,78.416C5.535,64.552 2.391,41.856 -8.357,30.073C-13.267,24.696 -89.967,-21.355 -118.313,-14.822C-130.616,-11.986 -142.808,-7.988 -153.747,-2.128C-159.261,0.823 -164.527,4.194 -169.445,8.024C-174.145,11.686 -178.677,15.698 -182.345,20.467C-196.632,39.044 -200.765,65.357 -200.6,88.244C-200.466,106.37 -189.835,124.19 -178.948,138.135C-164.746,156.327 -147.859,167.805 -147.859,167.805C-143.133,170.934 -142.995,177.03 -142.444,177.713C-133.589,188.706 -112.215,203.522 -100.049,210.141C-88.217,216.575 -74.975,219.338 -61.559,219.063C-47.361,218.768 -30.715,217.251 -18.005,210.573C-11.762,207.297 -5.708,202.971 0,197.983" style="fill:rgb(71,148,11);fill-rule:nonzero;"/>
            </g>
        </g>
        <g transform="matrix(1,0,0,1,158.887,530.467)">
            <path d="M0,-3.854C-1.099,-5.032 -1.963,-6.01 -3.422,-6.766C-4.97,-7.573 -6.591,-8.124 -8.295,-8.483C-11.91,-9.247 -15.751,-9.346 -19.424,-9.081C-23.508,-8.786 -27.668,-7.694 -31.062,-5.342C-32.768,-4.159 -34.257,-2.6 -35.341,-0.823C-36.26,0.681 -37.652,3.396 -36.638,5.099C-36.449,5.421 -36.149,5.492 -35.834,5.302C-35.008,4.796 -34.723,3.863 -34.268,3.044C-33.79,2.173 -33.373,1.267 -32.83,0.431C-31.858,-1.055 -30.61,-2.307 -29.126,-3.293C-26.056,-5.346 -22.303,-6.073 -18.683,-6.368C-15.506,-6.625 -12.304,-6.502 -9.154,-6.04C-7.569,-5.807 -5.956,-5.579 -4.412,-5.157C-3.104,-4.795 -1.382,-4.389 -0.316,-3.518C-0.118,-3.358 0.181,-3.663 0,-3.854" style="fill:rgb(145,227,91);fill-rule:nonzero;"/>
        </g>
        <g transform="matrix(1,0,0,1,367.143,449.516)">
            <path d="M0,109.603C13.153,88.175 8.777,51.772 -2.281,30.252C-8.72,17.73 -20.51,0.894 -30.15,-9.514C-64.617,-46.723 -92.142,1.542 -95.93,5.898C-122.436,36.352 -144.23,86.355 -114.481,122.316C-98.728,141.353 -79.823,156.326 -56.212,155.23C-33.996,154.201 -10.897,127.353 0,109.603" style="fill:rgb(130,204,57);fill-rule:nonzero;"/>
        </g>
        <g transform="matrix(1,0,0,1,335.33,426.146)">
            <path d="M0,169.397C3.561,164.866 6.127,159.516 8.261,154.186C12.358,143.96 13.873,132.751 11.277,121.944C9.897,116.196 7.517,110.803 5.432,105.295C3.292,99.626 1.752,93.733 0.278,87.858C-1.23,81.858 -2.52,75.789 -3.258,69.64C-3.924,64.101 -4.611,58.58 -5.396,53.053C-6.152,47.711 -6.814,42.293 -6.385,36.895C-6.191,34.401 -5.595,31.993 -5.291,29.518C-4.993,27.104 -4.942,24.661 -5.08,22.233C-6.184,2.868 -21.838,-12.982 -40.83,-15.562C-41.546,-15.66 -42.266,-15.74 -42.988,-15.798C-43.124,-16.042 -43.417,-16.218 -43.721,-16.089C-43.904,-16.015 -44.088,-15.945 -44.272,-15.882C-45.9,-15.97 -47.528,-15.978 -49.153,-15.914C-50.176,-15.873 -51.176,-15.765 -52.164,-15.615C-53.839,-15.867 -55.488,-16.29 -57.104,-16.773C-61.511,-18.08 -65.794,-19.654 -70.254,-20.8C-80.401,-23.4 -90.777,-24.652 -101.072,-22.07C-113.067,-19.058 -124.863,-14.367 -135.643,-8.312C-141.077,-5.259 -146.296,-1.832 -151.206,2.008C-155.9,5.684 -160.448,9.663 -164.215,14.311C-171.458,23.245 -176.013,34.149 -179.203,45.112C-180.838,50.739 -182.128,56.47 -183.171,62.236C-184.14,67.609 -185.068,73.062 -185.344,78.521C-185.591,83.434 -185.249,88.364 -184.094,93.151C-182.778,98.594 -180.333,103.53 -178.374,108.743C-176.187,114.538 -174.513,120.514 -172.229,126.278C-169.904,132.143 -166.748,137.512 -162.904,142.508C-159.092,147.463 -154.815,152.034 -150.604,156.643C-146.573,161.057 -142.338,165.102 -137.406,168.506C-132.569,171.844 -127.381,174.626 -122.261,177.497C-117.691,180.057 -113.083,182.528 -108.291,184.659C-99.318,188.647 -89.82,191.514 -80.064,192.737C-69.579,194.049 -59.167,193.249 -48.779,191.594C-36.773,189.684 -24.375,187.165 -13.724,181.034C-8.476,178.008 -3.759,174.174 0,169.397" style="fill:rgb(144,217,72);fill-rule:nonzero;"/>
        </g>
        <g transform="matrix(1,0,0,1,313.062,432.535)">
            <path d="M0,149.727C1.733,149.719 3.459,149.631 5.178,149.434C10.224,148.866 22.288,137.418 16.329,141.094C11.675,143.971 6.683,145.858 1.271,146.241C-2.726,146.36 -6.749,145.957 -10.674,145.26C-22.273,143.2 -32.849,137.502 -43.583,132.928C-53.108,128.87 -61.856,124.573 -70.983,119.641C-79.797,114.883 -89.191,111.491 -98.872,108.616C-101.947,107.704 -122.492,101 -124.293,107.069C-116.582,81.073 -98.931,65.708 -70.618,68.714C-70.239,68.757 -69.87,68.806 -69.493,68.857C-69.156,69.011 -68.827,69.165 -68.499,69.322C-64.982,71.044 -61.769,73.527 -58.915,76.184C-56.53,78.407 -54.201,80.963 -52.862,83.854C-50.786,88.334 -49.894,93.262 -48.825,98.049C-47.108,105.723 -34.92,113.752 -38.726,109.551C-40.398,107.711 -42.218,105.997 -43.354,103.756C-44.498,101.491 -45.012,98.973 -45.626,96.536C-46.879,91.584 -47.559,86.334 -49.897,81.737C-51.538,78.512 -54.077,75.819 -56.7,73.376C-57.114,72.99 -57.537,72.613 -57.969,72.24C-57.083,72.634 -56.204,73.046 -55.34,73.484C-43.054,79.684 -31.904,87.834 -20.255,95.102C-11.461,100.59 -2.241,105.873 7.787,108.743C13.092,110.264 18.608,111.077 24.134,110.62C26.687,110.409 29.187,109.903 31.613,109.143C31.179,107.909 30.718,106.678 30.244,105.456C28.175,105.963 26.071,106.329 23.934,106.502C19.279,106.881 14.59,106.223 10.129,104.899C4.322,103.166 -1.202,100.616 -6.509,97.637C-4.187,97.633 -1.869,97.297 0.369,96.696C3.107,95.956 5.847,95.014 8.331,93.635C10.771,92.286 13.967,89.907 15.727,87.756C20.005,82.539 14.438,89.137 8.437,91.227C5.946,92.092 2.794,92.733 0.253,93.465C-2.146,94.151 -4.684,94.639 -7.189,94.61C-8.483,94.592 -9.785,94.44 -11.06,94.2C-11.688,94.081 -12.402,93.84 -13.11,93.686C-16.475,91.551 -19.761,89.309 -22.989,87.067C-33.574,79.713 -43.937,71.701 -55.607,66.103C-64.769,61.712 -75.002,59.683 -85.139,60.662C-89.389,61.068 -93.721,62.015 -97.896,63.472C-94.931,61.06 -91.775,58.867 -88.605,56.814C-71.131,45.504 -45.074,48.339 -25.729,53.63C-25.302,54.056 -24.883,54.492 -24.482,54.927C-19.651,60.162 -0.645,88.532 -4.996,78.618C-5.542,77.373 -5.999,76.137 -6.706,74.996C-7.512,73.689 -8.269,72.357 -9.058,71.04C-10.985,67.835 -12.974,64.66 -15.072,61.566C-16.425,59.562 -17.873,57.498 -19.456,55.535C-11.778,58.109 -4.417,61.572 3.34,63.929C8.666,65.55 14.04,66.437 19.428,66.318C19.275,65.296 19.133,64.273 19.01,63.251C18.965,62.894 18.921,62.535 18.877,62.177C13.914,61.853 8.95,60.859 4.261,59.605C-3.437,57.546 -10.554,54.048 -17.691,50.585C-32.137,43.575 -47.058,39.11 -63.435,42.284C-55.198,37.368 -47.182,32.106 -38.95,27.18C-37.563,26.356 -36.173,25.555 -34.769,24.762C-33.847,24.485 -32.908,24.284 -31.955,24.129C-28.741,23.622 -25.469,23.664 -22.222,23.76C-15.258,23.959 -8.374,24.477 -1.6,22.414C1.882,21.356 5.071,19.598 7.069,16.483C7.23,16.227 6.937,15.971 6.691,16.129C4.004,17.877 1,19.305 -2.162,19.918C-5.48,20.563 -8.757,20.411 -12.11,20.319C-16.694,20.194 -21.414,19.801 -26.059,19.946C-25.874,19.842 -25.689,19.739 -25.505,19.635C-21.073,17.168 -16.801,14.43 -12.38,11.95C-8.038,9.516 -3.498,7.688 1.022,5.631C2.919,4.77 4.86,3.819 6.542,2.567C7.981,1.909 9.395,1.209 10.775,0.432C11.344,0.11 11.907,-0.218 12.461,-0.566C11.811,-1.753 11.102,-2.908 10.34,-4.025C8.976,-3.078 -5.767,4.385 -11.059,6.959C-20.587,11.592 -29.523,17.334 -39.061,21.95C-43.673,24.18 -48.027,26.741 -52.397,29.405C-56.891,32.145 -61.452,34.473 -66.34,36.414C-70.071,37.899 -73.761,39.428 -77.389,41.071C-76.883,40.182 -76.392,39.284 -75.917,38.395C-72.788,32.51 -70.149,26.373 -67.229,20.391C-65.044,15.913 -62.726,11.463 -60.02,7.272C-59.883,7.192 -59.745,7.116 -59.61,7.041C-58.316,6.344 -56.965,5.774 -55.569,5.305C-52.646,4.319 -49.62,3.715 -46.603,3.09C-43.547,2.459 -40.669,1.446 -37.749,0.331C-33.398,-1.332 -27.893,-8.363 -29.578,-6.912C-31.644,-5.142 -33.918,-3.41 -35.206,-2.765C-36.618,-2.062 -38.102,-1.572 -39.633,-1.199C-42.688,-0.451 -45.826,-0.003 -48.909,0.643C-51.49,1.182 -54.101,1.739 -56.602,2.606C-52.328,-2.779 -46.314,-7.136 -40.336,-10.498C-33.351,-14.425 -26.237,-17.744 -19.333,-21.822C-19.238,-21.88 -19.154,-21.945 -19.076,-22.017C-19.627,-22.08 -20.17,-22.14 -20.721,-22.187C-20.856,-22.431 -21.149,-22.607 -21.453,-22.478C-21.637,-22.404 -21.82,-22.334 -22.005,-22.271C-23.633,-22.359 -23.887,-22.41 -25.516,-22.347C-26.517,-22.31 -53.157,-7.443 -58.293,-1.669C-68.078,9.323 -74.817,22.756 -82.319,35.581C-84.434,39.19 -86.726,42.69 -89.254,46.03C-89.734,46.668 -90.231,47.287 -90.736,47.9C-91.894,48.578 -93.045,49.279 -94.185,50.001C-97.94,52.384 -101.621,54.951 -105.104,57.757C-108.03,52.613 -110.551,47.265 -111.636,41.379C-111.962,39.575 -112.16,37.75 -112.231,35.924C-112.002,35.434 -111.759,34.946 -111.474,34.481C-110.596,33.041 -109.543,31.702 -108.365,30.498C-106,28.086 -103.239,26.131 -100.56,24.096C-97.936,22.108 -95.336,19.897 -93.191,17.395C-92.142,16.172 -91.262,14.854 -90.494,13.438C-89.659,11.909 -89.274,10.489 -89.017,8.78C-88.965,8.444 -89.486,8.215 -89.661,8.534C-91.308,11.495 -93.497,14.11 -96.072,16.307C-98.685,18.536 -101.587,20.336 -104.342,22.373C-107.019,24.356 -109.609,26.44 -111.828,28.94C-111.618,27.598 -111.336,26.27 -110.974,24.959C-108.021,14.309 -100.823,5.424 -93.021,-2.144C-90.635,-4.462 -88.154,-6.677 -85.623,-8.835C-83.169,-10.878 -80.394,-12.576 -78.229,-14.906C-72.11,-21.492 -103.366,0.413 -111.055,12.69C-119.631,26.381 -119.098,38.737 -116.251,53.968C-115.64,57.24 -115.092,60.556 -114.604,63.851C-114.482,64.705 -114.381,65.556 -114.305,66.412C-115.314,67.535 -116.285,68.683 -117.216,69.878C-120.234,73.763 -122.798,77.963 -125.363,82.153C-125.63,82.588 -125.905,83.024 -126.176,83.457C-127.384,82.073 -128.339,80.373 -129.133,78.911C-134.492,69.064 -139.725,56.894 -139.542,45.506C-139.495,42.446 -139.434,39.37 -138.854,36.37C-137.261,28.065 -134.217,21.264 -134.408,20.284C-134.714,18.727 -140.636,27.506 -143.046,45.352C-145.021,59.955 -134.543,73.679 -132.305,87.848C-132.06,89.405 -131.932,90.963 -131.91,92.516C-132.081,92.793 -132.256,93.065 -132.427,93.34C-136.185,99.413 -139.671,105.789 -141.702,112.67C-143.691,119.407 -144.12,126.418 -142.695,133.317C-142.029,134.264 -141.345,135.198 -140.636,136.12C-136.825,141.075 -132.547,145.645 -128.336,150.254C-124.306,154.668 -120.071,158.713 -115.139,162.118C-110.302,165.456 -105.114,168.237 -99.994,171.108C-99.258,171.52 -98.518,171.928 -97.778,172.334C-97.912,171.653 -98.412,171.069 -99.325,171C-101.273,170.854 -103.234,168.913 -104.647,167.391C-106.831,165.034 -108.715,162.411 -110.509,159.75C-114.395,153.987 -118.322,148.049 -121.305,141.768C-123.779,136.567 -129.979,122.53 -125.02,117.571C-117.399,109.948 -106.421,112.825 -97.267,116.022C-93.11,117.467 -80.627,120.516 -74.644,123.799C-71.226,126.561 -69.949,136.274 -69.213,140.043C-68.065,145.938 -68.02,152.987 -63.072,156.643C-57.174,161.004 -48.978,158.456 -55.758,157.704C-59.579,157.278 -61.862,154.854 -63.815,151.575C-65.996,147.918 -65.268,142.559 -65.62,138.467C-65.896,135.346 -66.214,132.225 -67.07,129.2C-67.334,128.262 -67.647,127.334 -68.022,126.43C-65.772,127.338 -63.522,128.248 -61.29,129.198C-61.041,129.299 -60.797,129.409 -60.546,129.51C-56.481,131.428 -52.405,133.334 -48.314,135.2C-42.594,137.811 -36.825,140.329 -30.976,142.649C-25.703,144.737 -20.384,146.829 -14.855,148.137C-10.11,149.26 -5.018,149.914 0,149.727" style="fill:rgb(163,242,111);fill-rule:nonzero;"/>
        </g>
        <g opacity="0.26">
            <g transform="matrix(1,0,0,1,335.386,507.635)">
                <path d="M0,87.937C0.459,87.355 0.902,86.755 1.328,86.148C14.042,76.478 25.187,62.314 31.812,51.519C40.296,37.699 41.49,17.658 38.303,-0.607C37.013,3.96 35.235,8.224 32.904,12.019C23.523,27.302 10.69,40.048 -2.405,52.144C-40.77,87.574 -104.472,74.246 -141.051,43.609C-152.486,34.031 -162.553,21.937 -169.52,8.445C-172.611,2.453 -174.729,-3.912 -177.499,-10.039C-179.325,-14.093 -183.086,-19.986 -182.106,-24.652C-182.486,-22.845 -182.841,-21.035 -183.17,-19.226C-184.142,-13.847 -185.066,-8.398 -185.342,-2.937C-185.591,1.972 -185.249,6.906 -184.095,11.693C-182.781,17.136 -180.334,22.072 -178.37,27.281C-176.186,33.078 -174.51,39.054 -172.226,44.818C-170.333,49.603 -167.884,54.056 -164.96,58.25C-164.665,58.671 -164.361,59.093 -164.053,59.511C-163.983,59.609 -163.915,59.705 -163.842,59.8C-163.534,60.22 -163.22,60.638 -162.901,61.05C-162.426,61.669 -161.94,62.281 -161.453,62.89C-151.856,74.845 -142.334,83.646 -137.405,87.046C-132.571,90.386 -127.379,93.164 -122.261,96.037C-121.52,96.453 -120.788,96.859 -120.045,97.267C-116.2,99.39 -112.308,101.414 -108.292,103.201C-99.316,107.193 -89.821,110.06 -80.062,111.279C-69.58,112.589 -59.168,111.791 -48.778,110.14C-36.773,108.228 -24.376,105.705 -13.725,99.576C-8.475,96.552 -3.755,92.716 0,87.937" style="fill:rgb(71,148,11);fill-rule:nonzero;"/>
            </g>
        </g>
        <g opacity="0.37">
            <g transform="matrix(1,0,0,1,314.977,414.942)">
                <path d="M0,94.031C12.344,87.016 10.727,68.434 7.735,55.293C4.589,41.49 -2.325,28.427 -12.098,18.174C-35.243,-6.108 -81.147,-13.145 -110.274,3.619C-122.018,10.379 -132.157,21.312 -136.262,34.408C-138.39,41.213 -138.473,48.201 -137.518,55.224C-136.447,63.131 -136.194,72.856 -129.813,77.669C-103.937,97.183 -77.481,88.694 -54.833,86.469C-20.25,83.073 -23.117,107.176 0,94.031" style="fill:rgb(224,255,206);fill-rule:nonzero;"/>
            </g>
        </g>
        <g transform="matrix(1,0,0,1,261.248,433.651)">
            <path d="M0,-10.102C-8.055,-12.838 -17.001,-12.692 -25.243,-10.889C-27.528,-10.389 -29.831,-9.997 -32.121,-9.532C-33.836,-9.184 -35.527,-8.801 -37.152,-8.135C-38.901,-7.418 -40.26,-6.635 -41.275,-5.213C-41.587,-4.86 -41.88,-4.493 -42.171,-4.112C-43.972,-1.745 -42.318,1.97 -39.349,2.207C-39.291,2.211 -39.185,2.228 -39.082,2.242C-38.44,2.523 -37.775,2.712 -37.003,2.722C-36.065,2.736 -35.151,2.664 -34.221,2.613C-32.911,2.544 -31.662,2.357 -30.363,2.162C-28.151,1.822 -25.922,1.554 -23.711,1.191C-22.023,0.91 -20.342,0.681 -18.636,0.505C-17.729,0.414 -16.826,0.33 -15.912,0.275C-15.466,0.25 -14.98,0.166 -14.535,0.211C-14.792,0.185 -14.956,0.169 -15.063,0.16C-14.843,0.179 -14.433,0.214 -14.284,0.214C-12.461,0.218 -10.635,0.33 -8.827,0.576C-8.123,0.669 -6.81,0.662 -6.201,1.033C-7.048,0.822 -7.141,0.798 -6.485,0.966C-6.278,1.021 -6.071,1.076 -5.866,1.14C-5.39,1.279 -4.918,1.435 -4.451,1.597C-1.362,2.669 2.539,1.246 3.625,-2.026C4.656,-5.147 3.316,-8.977 0,-10.102" style="fill:rgb(255,239,222);fill-rule:nonzero;"/>
        </g>
        <g transform="matrix(1,0,0,1,285.935,437.724)">
            <path d="M0,-5.968C-2.034,-7.722 -4.354,-9.101 -6.996,-9.712C-9.443,-10.277 -12.318,-10.189 -14.187,-8.493C-15.5,-7.415 -16.121,-5.669 -15.224,-4.081C-15.199,-4.029 -15.171,-3.97 -15.143,-3.904C-14.963,-3.374 -14.658,-2.921 -14.231,-2.544C-14.053,-2.351 -13.876,-2.179 -13.677,-2.007C-12.895,-1.331 -11.916,-0.761 -11.031,-0.214C-10.722,-0.023 -10.398,0.149 -10.088,0.335C-10.006,0.391 -9.652,0.653 -9.483,0.776C-9.343,0.891 -9.208,1.012 -9.168,1.048C-8.918,1.276 -8.011,2.307 -8.904,1.188C-7.876,2.475 -6.883,3.376 -5.284,3.827C-3.559,4.309 -1.734,3.751 -0.388,2.667C2.176,0.602 2.661,-3.671 0,-5.968" style="fill:rgb(255,239,222);fill-rule:nonzero;"/>
        </g>
        <g opacity="0.34">
            <g transform="matrix(1,0,0,1,326.558,598.957)">
                <path d="M0,-3.031C0.978,-3.992 2.013,-5.136 2.511,-6.441C2.826,-7.269 3.057,-8.22 2.689,-9.066C2.489,-9.525 1.964,-10.441 1.075,-10.463C2.014,-10.439 0.094,-10.488 0.115,-10.494C-0.324,-10.429 -0.671,-10.224 -1.041,-9.99C-1.445,-9.73 -1.8,-9.461 -2.158,-9.14C-2.937,-8.445 -3.717,-7.74 -4.529,-7.086C-6.454,-5.533 -8.048,-4.638 -10.228,-3.51C-12.504,-2.332 -14.865,-1.324 -17.279,-0.468C-18.299,-0.101 -19.325,0.227 -20.362,0.539C-20.586,0.602 -21.362,0.83 -21.462,0.865C-21.674,0.946 -21.885,1.045 -22.097,1.133C-22.798,1.42 -23.523,1.83 -23.864,1.998C-25.228,2.682 -28.783,3.772 -27.448,5.903C-26.468,7.463 -22.649,7.338 -21.053,7.19C-18.522,6.957 -16.006,5.967 -13.644,5.053C-11.259,4.131 -8.918,3.065 -6.686,1.803C-4.3,0.457 -1.97,-1.107 0,-3.031" style="fill:rgb(71,148,11);fill-rule:nonzero;"/>
            </g>
        </g>
        <g opacity="0.34">
            <g transform="matrix(1,0,0,1,284.184,609.796)">
                <path d="M0,-2.101C-0.963,-3.384 -2.578,-3.585 -4.096,-3.738C-5.827,-3.908 -7.525,-3.935 -9.264,-3.927C-12.606,-3.927 -15.947,-4.316 -19.283,-4.3C-20.899,-4.294 -22.396,-3.378 -22.579,-1.646C-22.762,0.018 -21.531,1.415 -19.924,1.651C-16.101,2.215 -11.992,1.971 -8.142,1.815C-6.23,1.737 -4.291,1.401 -2.487,0.753C-1.649,0.452 0.958,-0.822 0,-2.101" style="fill:rgb(71,148,11);fill-rule:nonzero;"/>
            </g>
        </g>
    </g>
</svg>
