<?xml version="1.0" encoding="UTF-8" standalone="no"?>
<!DOCTYPE svg PUBLIC "-//W3C//DTD SVG 1.1//EN" "http://www.w3.org/Graphics/SVG/1.1/DTD/svg11.dtd">
<svg width="100%" height="100%" viewBox="0 0 189 154" version="1.1" xmlns="http://www.w3.org/2000/svg" xmlns:xlink="http://www.w3.org/1999/xlink" xml:space="preserve" xmlns:serif="http://www.serif.com/" style="fill-rule:evenodd;clip-rule:evenodd;stroke-linejoin:round;stroke-miterlimit:2;">
    <g transform="matrix(1.04167,0,0,1.04167,-1128.09,-1002.23)">
        <g transform="matrix(1,0,0,1,1117.89,978.953)">
            <path d="M0,114.607C1.789,114.635 3.563,114.649 5.308,114.649C76.489,114.649 106.374,92.917 117.853,79.962C138.933,56.166 123.74,28.452 122.471,26.24C122.266,25.921 122.085,25.587 121.93,25.241C121.82,25.01 108.249,-0.042 80.372,-0.042C78.36,-0.042 76.292,0.091 74.225,0.356C44.623,4.148 10.912,33.37 -18.527,80.67C15.208,58.565 39.782,47.371 54.568,47.371C59.594,47.371 63.808,48.61 67.091,51.055C67.961,51.703 68.68,52.532 69.198,53.484L70.342,55.584C70.858,56.532 71.164,57.581 71.237,58.659C71.931,68.797 65.235,85.588 0,114.607M5.308,129.649C5.305,129.649 5.312,129.649 5.308,129.649C2.54,129.649 -0.298,129.616 -3.125,129.55C-9.964,129.395 -15.456,124.779 -16.788,118.065C-18.126,111.321 -14.665,104.677 -8.373,101.909C35.816,82.469 51.866,68.861 55.45,62.396C55.182,62.379 54.889,62.371 54.568,62.371C42.977,62.371 18.579,74.108 -12.366,94.575C-14.802,96.183 -17.579,97.033 -20.401,97.033C-25.651,97.033 -30.524,94.157 -33.12,89.527C-35.642,85.03 -35.513,79.671 -32.774,75.194C-0.136,21.839 37.187,-10.023 72.319,-14.523C75.018,-14.868 77.727,-15.042 80.372,-15.042C112.813,-15.042 131.537,10.696 135.38,18.598C135.421,18.671 135.462,18.747 135.501,18.822C136.781,21.086 141.352,29.81 143.167,41.706C145.918,59.732 141.046,76.4 129.08,89.909C106.374,115.535 62.412,129.649 5.308,129.649" style="fill:rgb(241,147,0);fill-rule:nonzero;"/>
        </g>
        <g transform="matrix(1,0,0,1,1184.71,1034.72)">
            <path d="M0,-1.48C-0.12,-1.48 -0.232,-1.45 -0.346,-1.389C-0.703,-1.194 -0.837,-0.743 -0.642,-0.384C-0.447,-0.028 -0.09,0 0.015,0C0.135,0 0.248,-0.03 0.361,-0.092C0.542,-0.19 0.66,-0.337 0.718,-0.531C0.774,-0.725 0.754,-0.914 0.656,-1.092C0.461,-1.452 0.104,-1.48 0,-1.48M0.015,15C-5.746,15 -11.043,11.859 -13.808,6.803C-17.963,-0.823 -15.145,-10.401 -7.529,-14.556C-5.222,-15.815 -2.618,-16.48 0,-16.48C5.767,-16.48 11.064,-13.336 13.824,-8.277C15.839,-4.585 16.294,-0.332 15.107,3.703C13.921,7.737 11.233,11.067 7.54,13.079C5.236,14.335 2.633,15 0.015,15" style="fill:rgb(241,147,0);fill-rule:nonzero;"/>
        </g>
        <g transform="matrix(1,0,0,1,1238.8,1019.42)">
            <path d="M0,-17.157C-0.78,-16.079 -1.646,-15.007 -2.586,-13.94C-1.314,-14.168 -0.104,-14.333 1.049,-14.434L0.455,-16.683L0,-17.157ZM-52.19,23.812C-52.802,23.812 -53.416,23.737 -54.019,23.584C-56.044,23.072 -57.778,21.746 -58.779,19.911L-61.623,14.697C-62.597,12.909 -62.804,10.803 -62.194,8.862C-61.585,6.919 -60.213,5.308 -58.393,4.398L-58.105,4.255C-57.054,3.732 -55.936,3.479 -54.832,3.47L-36.685,-6.43C-18.514,-17.337 -11.549,-25.561 -10.664,-28.381C-12.822,-31.453 -12.381,-35.704 -9.539,-38.261C-6.531,-40.969 -1.919,-40.8 0.885,-37.883L12.617,-25.676C13.501,-24.756 14.136,-23.626 14.462,-22.393L19.223,-4.362C20.265,-0.414 17.958,3.642 14.032,4.764C10.37,5.811 6.559,3.948 5.086,0.53C4.801,0.483 4.376,0.439 3.777,0.439C0.365,0.439 -8.18,1.835 -27.089,11.165L-48.342,22.756C-48.346,22.759 -48.351,22.761 -48.355,22.764C-49.521,23.452 -50.851,23.812 -52.19,23.812" style="fill:rgb(241,147,0);fill-rule:nonzero;"/>
        </g>
        <g transform="matrix(1,0,0,1,1234.68,1029.1)">
            <path d="M0,34.118L-0.004,34.118C-31.193,34.117 -50.918,17.498 -51.742,16.79C-54.88,14.098 -55.247,9.376 -52.564,6.23L-50.256,3.524C-47.582,0.392 -42.884,0 -39.729,2.647C-39.592,2.761 -23.826,15.553 0.28,15.553C4.191,15.553 8.171,15.216 12.108,14.551C14.067,14.218 16.083,14.681 17.705,15.835C19.326,16.989 20.422,18.739 20.753,20.702L21.202,23.372C21.476,25.002 21.204,26.677 20.428,28.137C20.231,28.506 20.024,28.876 19.813,29.246C18.69,31.224 16.729,32.586 14.483,32.947C9.656,33.724 4.783,34.118 0,34.118" style="fill:rgb(241,147,0);fill-rule:nonzero;"/>
        </g>
        <g transform="matrix(1,0,0,1,1191.26,1050.54)">
            <path d="M0,49.49C-1.055,49.49 -2.106,49.267 -3.083,48.827C-17.394,42.375 -25.584,31.515 -29.936,23.543C-32.679,18.516 -34.136,14.226 -34.76,12.117C-35.673,9.032 -34.517,5.708 -31.886,3.855C-31.066,3.279 -30.277,2.705 -29.501,2.129C-29.351,2.017 -29.196,1.912 -29.038,1.811L-28.563,1.511C-26.547,0.237 -24.046,0 -21.827,0.867C-19.607,1.735 -17.932,3.606 -17.313,5.909C-17.083,6.783 -11.677,26.497 7.888,33.222C10.932,34.269 12.968,37.14 12.949,40.359C12.931,43.578 10.86,46.426 7.805,47.435C5.838,48.087 3.836,48.68 2.113,49.186C1.422,49.389 0.71,49.49 0,49.49" style="fill:rgb(241,147,0);fill-rule:nonzero;"/>
        </g>
        <g transform="matrix(1,0,0,1,1136.03,1067.2)">
            <path d="M0,41.124C-2.628,41.124 -5.073,39.746 -6.432,37.48L-6.647,37.125C-6.934,36.653 -7.219,36.178 -7.471,35.715C-11.759,27.854 -13.352,20.364 -12.199,13.461C-11.938,11.904 -11.521,10.409 -10.891,8.746C-10.216,6.971 -8.894,5.518 -7.189,4.68C-5.221,3.711 -3.248,2.717 -1.288,1.704C2.008,0 6.053,0.963 8.229,3.968C10.404,6.973 10.057,11.116 7.411,13.716C7.107,14.016 6.37,14.894 6.1,16.576C5.582,19.824 7.049,24.257 10.344,29.387C11.786,31.631 11.928,34.473 10.715,36.849C9.503,39.225 7.12,40.778 4.457,40.929C3.073,41.007 1.678,41.068 0.271,41.119C0.181,41.122 0.09,41.124 0,41.124" style="fill:rgb(241,147,0);fill-rule:nonzero;"/>
        </g>
        <g transform="matrix(1,0,0,1,1182.08,963.682)">
            <path d="M0,73.519C-3.688,73.519 -6.9,70.799 -7.42,67.045C-7.613,65.644 -11.863,32.365 14.853,2.616C16.387,0.907 18.628,0 20.908,0.141L21.199,0.16C21.498,0.177 21.795,0.195 22.092,0.219C23.746,0.353 25.31,1.033 26.536,2.15L28.541,3.975C30.012,5.315 30.89,7.185 30.982,9.172C31.074,11.161 30.373,13.103 29.032,14.574C8.161,37.459 10.912,64.001 10.979,64.594C11.227,66.54 10.703,68.507 9.516,70.073C8.31,71.665 6.52,72.708 4.541,72.975L1.012,73.451C0.672,73.497 0.334,73.519 0,73.519" style="fill:rgb(241,147,0);fill-rule:nonzero;"/>
        </g>
        <g transform="matrix(1,0,0,1,1151.95,986.736)">
            <path d="M0,59.739C-2.138,59.739 -4.227,58.824 -5.683,57.136C-7.109,55.481 -9.916,51.95 -12.676,46.9C-17.026,38.922 -21.723,26.158 -19.4,10.628C-19.136,8.859 -18.248,7.244 -16.897,6.072C-15.072,4.489 -13.671,3.305 -12.354,2.236C-9.852,0.205 -6.333,0 -3.611,1.724C-0.891,3.45 0.425,6.719 -0.344,9.848C-5.266,29.885 8.357,45.135 8.939,45.774C10.492,47.479 11.18,49.808 10.794,52.082C10.409,54.356 9.004,56.331 6.977,57.429L6.484,57.696C6.186,57.858 5.877,57.999 5.559,58.119C4.651,58.461 3.734,58.82 2.799,59.196C1.89,59.562 0.94,59.739 0,59.739" style="fill:rgb(241,147,0);fill-rule:nonzero;"/>
        </g>
        <g transform="matrix(1,0,0,1,1119.66,1029.39)">
            <path d="M0,33.818C-0.516,33.818 -1.033,33.765 -1.545,33.657C-3.301,33.288 -4.798,32.82 -6.256,32.185C-12.658,29.429 -18.095,24.037 -22.385,16.17C-22.625,15.729 -22.858,15.256 -23.087,14.785L-23.292,14.366C-24.511,11.915 -24.297,8.994 -22.734,6.746C-21.93,5.589 -21.122,4.45 -20.306,3.327C-18.738,1.166 -16.143,0 -13.484,0.27C-10.828,0.538 -8.515,2.197 -7.409,4.627C-4.886,10.173 -1.956,13.805 1.065,15.131C1.854,15.475 2.635,15.652 3.382,15.652C3.774,15.652 4.053,15.602 4.184,15.573C7.796,14.765 11.471,16.716 12.814,20.173C14.158,23.63 12.773,27.55 9.557,29.396C7.641,30.496 5.744,31.618 3.859,32.749C2.686,33.454 1.35,33.818 0,33.818" style="fill:rgb(241,147,0);fill-rule:nonzero;"/>
        </g>
        <g transform="matrix(1,0,0,1,1139.16,962.141)">
            <path d="M0,147.384L-0.008,147.384C-7.949,147.384 -16.255,147.006 -24.692,146.262C-29.862,145.806 -32.405,141.894 -32.246,138.265C-32.067,134.215 -28.68,131.042 -24.534,131.042C-24.478,131.042 -24.384,131.043 -24.327,131.044C30.393,132.316 74.302,119.234 95.248,95.592C115.749,72.446 100.432,45.274 99.63,43.893C99.608,43.858 99.588,43.821 99.566,43.785L99.384,43.469C99.321,43.361 99.262,43.251 99.205,43.14C98.674,42.178 85.302,18.553 59.124,18.553C57.184,18.553 55.186,18.683 53.186,18.94C22.342,22.885 -12.063,52.468 -41.209,100.103C-41.914,101.256 -42.919,102.197 -44.115,102.826L-44.247,102.896C-47.13,104.411 -50.663,103.895 -52.989,101.613C-55.315,99.332 -55.903,95.81 -54.443,92.898C-41.421,66.917 -24.48,44.55 -5.453,28.215C12.892,12.466 32.352,2.891 50.825,0.525C53.545,0.176 56.283,0 58.963,0C92.892,0 112.271,27.227 115.876,34.979C117.962,38.566 122.067,47.486 123.711,58.4C126.494,76.882 121.458,94.001 109.146,107.905C93.188,125.916 61.297,147.384 0,147.384" style="fill:rgb(241,147,0);fill-rule:nonzero;"/>
        </g>
        <g transform="matrix(1,0,0,1,1229,1085.09)">
            <path d="M0,-54.053C-2.917,-54.053 -6.405,-52.586 -10.662,-49.569C-14.568,-46.802 -17.374,-42.353 -20.624,-37.199C-25.135,-30.047 -30.248,-21.941 -39.935,-15.277C-44.042,-12.451 -50.383,-8.87 -57.097,-5.079C-58.815,-4.109 -60.797,-2.99 -62.858,-1.81C-51.209,-3.752 -37.533,-7.039 -28.791,-10.574C-7.11,-19.334 8.584,-36.365 9.109,-46.17C9.219,-48.209 8.783,-50.585 4.729,-52.753C3.07,-53.64 1.568,-54.053 0,-54.053M-79.794,15L-79.796,15C-83.648,14.999 -87.979,14.63 -90.879,11.889C-92.861,10.015 -93.809,7.387 -93.478,4.677C-92.698,-1.701 -85.754,-6.122 -64.473,-18.141C-58.057,-21.764 -51.996,-25.187 -48.437,-27.635C-41.29,-32.551 -37.414,-38.697 -33.312,-45.201C-29.554,-51.16 -25.668,-57.322 -19.334,-61.808C-12.457,-66.683 -6.132,-69.053 0,-69.053C4.021,-69.053 7.991,-68.02 11.802,-65.981C20.196,-61.492 24.56,-54.172 24.088,-45.368C23.034,-25.712 -1.047,-5.606 -23.171,3.334C-37.734,9.22 -65.781,15 -79.794,15" style="fill:rgb(241,147,0);fill-rule:nonzero;"/>
        </g>
        <g transform="matrix(1,0,0,1,1197.31,1035.89)">
            <path d="M0,-48.798C-12.095,-48.798 -28.646,-42.518 -41.185,-33.171C-48.997,-27.35 -58.856,-17.336 -66.415,-8.59C-64.318,-9.748 -62.313,-10.87 -60.578,-11.843C-53.855,-15.609 -47.505,-19.165 -42.959,-21.208C-32.23,-26.021 -22.648,-26.177 -14.194,-26.316C-8.103,-26.415 -2.841,-26.501 1.55,-28.401C11.084,-32.526 12.083,-36.498 12.271,-39.9C12.488,-43.847 11.124,-45.288 10.676,-45.762C8.823,-47.72 5.031,-48.798 0,-48.798M-83.842,15C-88.23,15 -91.762,12.27 -92.629,8.208C-93.235,5.384 -94.254,0.64 -77.306,-18.886C-70.089,-27.2 -59.165,-38.48 -50.148,-45.197C-34.758,-56.671 -15.541,-63.798 0,-63.798C9.328,-63.798 16.787,-61.126 21.571,-56.072C24.422,-53.06 27.722,-47.664 27.247,-39.073C26.644,-28.113 20.186,-20.119 7.506,-14.634C0.383,-11.552 -6.903,-11.433 -13.949,-11.318C-21.64,-11.192 -28.903,-11.072 -36.816,-7.524C-40.754,-5.754 -46.822,-2.356 -53.248,1.244C-70.323,10.808 -78.378,15 -83.842,15" style="fill:rgb(241,147,0);fill-rule:nonzero;"/>
        </g>
        <g transform="matrix(1,0,0,1,1241.36,1005.98)">
            <path d="M0,57.912C25.532,29.089 5.437,-4.651 5.391,-4.722C5.353,-4.803 5.311,-4.845 5.311,-4.845C3.664,-8.527 -14.947,-38.617 -50.193,-34.108C-79.919,-30.3 -115.92,-3.37 -149.842,52.083C-153.698,58.39 -146.139,65.371 -139.97,61.295C-113.494,43.785 -73.601,20.555 -60.854,30.047L-59.711,32.146C-58.626,48.003 -99.76,68.967 -128.818,81.75C-135.58,84.724 -133.804,94.86 -126.418,95.028C-61.428,96.529 -19.876,80.344 0,57.912" style="fill:rgb(255,112,68);fill-rule:nonzero;"/>
        </g>
        <g transform="matrix(0.877935,-0.47878,-0.47878,-0.877935,1191.64,1038.44)">
            <path d="M-3.944,-1.005C-8.495,-1.005 -12.18,2.681 -12.185,7.234C-12.183,11.781 -8.5,15.47 -3.944,15.472C0.604,15.473 4.294,11.784 4.294,7.234C4.296,2.682 0.606,-1.007 -3.944,-1.005" style="fill:rgb(255,242,186);fill-rule:nonzero;"/>
        </g>
        <g transform="matrix(1,0,0,1,1246.01,1023.53)">
            <path d="M0,-24.592L-11.732,-36.799C-4.901,-28.685 -23.539,-13.997 -40.169,-4.033L-61.557,7.635L-61.978,6.857C-62.143,6.939 -62.248,6.992 -62.248,6.992L-59.404,12.207C-59.404,12.207 -59.304,12.141 -59.147,12.048L-59.143,12.058L-37.756,0.394C-20.375,-8.195 1.638,-16.698 4.761,-6.561L0,-24.592Z" style="fill:rgb(255,242,186);fill-rule:nonzero;"/>
        </g>
        <g transform="matrix(1,0,0,1,1247.97,1043.27)">
            <path d="M0,11.367C0.176,11.057 0.35,10.749 0.514,10.44L0.064,7.77C-34.557,13.614 -57.611,-5.59 -57.842,-5.783L-60.15,-3.077C-59.173,-2.238 -35.941,17.15 0,11.367" style="fill:rgb(255,242,186);fill-rule:nonzero;"/>
        </g>
        <g transform="matrix(1,0,0,1,1191.26,1058.39)">
            <path d="M0,34.138C1.846,33.596 3.678,33.049 5.449,32.463C-18.296,24.3 -24.493,0.241 -24.558,0L-25.032,0.3C-25.857,0.912 -26.697,1.523 -27.568,2.136C-27.031,3.951 -25.765,7.676 -23.352,12.098C-19.345,19.441 -12.177,28.648 0,34.138" style="fill:rgb(255,242,186);fill-rule:nonzero;"/>
        </g>
        <g transform="matrix(1,0,0,1,1134.72,1093.8)">
            <path d="M0,-11.217C0.603,-14.969 2.436,-17.23 3.46,-18.237C1.456,-17.201 -0.561,-16.185 -2.573,-15.195C-2.951,-14.199 -3.289,-13.137 -3.496,-11.907C-4.368,-6.684 -3.051,-0.84 0.424,5.528C0.69,6.018 1.01,6.525 1.307,7.02C2.662,6.971 4.007,6.912 5.34,6.837C0.973,0.039 -0.826,-6.034 0,-11.217" style="fill:rgb(255,242,186);fill-rule:nonzero;"/>
        </g>
        <g transform="matrix(1,0,0,1,1202.52,1029.7)">
            <path d="M0,-58.392C0.354,-58.37 0.704,-58.352 1.054,-58.324L3.058,-56.498C-20.602,-30.555 -16.936,-0.775 -16.894,-0.476L-20.423,0C-20.599,-1.271 -24.322,-31.308 0,-58.392" style="fill:rgb(255,242,186);fill-rule:nonzero;"/>
        </g>
        <g transform="matrix(1,0,0,1,1139.96,1035.3)">
            <path d="M0,-36.824C1.454,-38.086 2.909,-39.328 4.355,-40.502C-1.635,-16.118 15.217,2.084 15.387,2.274L14.895,2.54C13.937,2.902 12.968,3.28 11.98,3.678C10.746,2.246 8.303,-0.84 5.889,-5.258C1.884,-12.6 -1.976,-23.616 0,-36.824" style="fill:rgb(255,242,186);fill-rule:nonzero;"/>
        </g>
        <g transform="matrix(1,0,0,1,1117.71,1041.45)">
            <path d="M0,9.948C3.478,11.469 6.369,11.155 7.771,10.841C5.812,11.965 3.874,13.111 1.947,14.267C0.903,14.048 -0.176,13.754 -1.315,13.258C-6.183,11.163 -10.382,6.893 -13.853,0.528C-14.121,0.036 -14.373,-0.509 -14.629,-1.024C-13.854,-2.139 -13.075,-3.236 -12.289,-4.319C-8.943,3.036 -4.808,7.84 0,9.948" style="fill:rgb(255,242,186);fill-rule:nonzero;"/>
        </g>
        <g transform="matrix(1,0,0,1,1242.69,1007.08)">
            <path d="M0,57.991C26.383,28.196 5.76,-6.473 5.681,-6.564L5.595,-6.674L5.601,-6.677C2.467,-13.682 -17.687,-41.342 -51.753,-36.978C-85.13,-32.703 -124.792,-1.507 -151.27,51.316L-151.138,51.247C-119.99,0.341 -83.582,-29.312 -51.299,-33.442C-15.393,-38.042 2.174,-5.617 2.349,-5.222L2.531,-4.905C2.738,-4.578 21.788,28.011 -2.67,55.624C-24.731,80.524 -69.463,94.949 -128.029,93.6C-128.499,93.59 -128.306,93.784 -127.564,93.849C-65.392,99.333 -22.768,83.687 0,57.991" style="fill:rgb(183,43,0);fill-rule:nonzero;"/>
        </g>
        <g opacity="0.2">
            <g transform="matrix(1,0,0,1,1237.27,1091.41)">
                <path d="M0,-65.691C-7.135,-69.507 -14.316,-68.353 -23.264,-62.011C-34.471,-54.073 -36.957,-38.437 -52.45,-27.78C-64.072,-19.785 -97.907,-3.586 -93.993,0.114C-90.074,3.816 -51.931,-2.795 -34.245,-9.944C-3.027,-22.557 22.034,-53.909 0,-65.691" style="fill:white;fill-rule:nonzero;"/>
            </g>
        </g>
        <g opacity="0.13">
            <g transform="matrix(1,0,0,1,1217.07,1022.86)">
                <path d="M0,-26.449C-0.445,-18.371 -5.166,-12.834 -15.23,-8.48C-27.832,-3.027 -42.487,-9.025 -59.645,-1.329C-72.517,4.453 -103.928,24.949 -105.053,19.68C-106.184,14.415 -80.725,-14.747 -65.426,-26.146C-38.431,-46.269 1.376,-51.398 0,-26.449" style="fill:white;fill-rule:nonzero;"/>
            </g>
        </g>
    </g>
</svg>
