<?xml version="1.0" encoding="UTF-8" standalone="no"?>
<!DOCTYPE svg PUBLIC "-//W3C//DTD SVG 1.1//EN" "http://www.w3.org/Graphics/SVG/1.1/DTD/svg11.dtd">
<svg width="100%" height="100%" viewBox="0 0 150 203" version="1.1" xmlns="http://www.w3.org/2000/svg" xmlns:xlink="http://www.w3.org/1999/xlink" xml:space="preserve" xmlns:serif="http://www.serif.com/" style="fill-rule:evenodd;clip-rule:evenodd;stroke-linejoin:round;stroke-miterlimit:2;">
    <g transform="matrix(0.999953,0,0,0.999953,-1265.29,-4072.46)">
        <g opacity="0.3">
            <g transform="matrix(1,0,0,1,1315.2,4086.8)">
                <path d="M0,174.753C-0.602,176.698 -1.461,178.627 -2.543,180.35C-3.063,181.184 -3.609,182.026 -4.328,182.706C-4.827,183.18 -5.32,183.287 -5.861,183.533C-4.084,182.007 -2.697,180.016 -1.65,177.946C-0.228,175.136 0.045,172.176 0.213,169.191C0.543,171.061 0.531,173.043 0,174.753M81.972,40.73C82.104,40.553 82.214,40.399 82.313,40.256C82.342,40.215 82.367,40.177 82.394,40.139C82.461,40.037 82.521,39.945 82.57,39.861C82.589,39.83 82.61,39.797 82.627,39.768C82.683,39.668 82.727,39.579 82.752,39.508C82.757,39.495 82.756,39.486 82.76,39.475C82.777,39.419 82.783,39.373 82.779,39.336C82.777,39.322 82.773,39.311 82.769,39.299C82.757,39.27 82.734,39.25 82.703,39.236C82.695,39.234 82.69,39.229 82.682,39.226C82.634,39.215 82.569,39.217 82.487,39.232L82.486,39.232C82.401,39.248 82.294,39.28 82.172,39.323C82.171,39.323 82.171,39.323 82.171,39.324C81.988,39.388 81.766,39.481 81.503,39.598C82.33,38.123 83.232,36.69 84.318,35.355C87.199,31.821 90.423,28.589 93.356,25.103C96.066,21.886 99.534,17.822 99.758,13.396C99.773,13.1 99.683,12.811 99.519,12.584C99.531,12.567 99.545,12.553 99.558,12.537C99.443,12.408 99.299,12.311 99.133,12.253C98.96,12.168 98.761,12.126 98.536,12.159C97.055,12.375 95.601,12.758 94.175,13.259C94.495,12.324 94.709,11.369 94.758,10.396C94.773,10.1 94.683,9.811 94.519,9.584C94.531,9.567 94.545,9.553 94.558,9.537C94.443,9.408 94.299,9.311 94.133,9.253C93.96,9.168 93.761,9.126 93.536,9.159C88.43,9.906 83.623,12.574 79.324,15.541C80.321,12.618 81.286,9.687 82.09,6.702C83.59,1.149 84.657,-4.82 83.189,-10.489C83.058,-10.994 82.302,-11.293 81.854,-11.064C81.715,-10.993 81.593,-10.9 81.461,-10.818C81.463,-10.827 81.465,-10.836 81.467,-10.844C81.391,-10.797 81.325,-10.737 81.251,-10.687C81.106,-10.59 80.965,-10.489 80.829,-10.381C80.714,-10.287 80.604,-10.188 80.494,-10.088C80.363,-9.967 80.233,-9.846 80.11,-9.715C80.012,-9.609 79.918,-9.499 79.824,-9.388C79.705,-9.248 79.587,-9.108 79.477,-8.96C79.391,-8.846 79.311,-8.726 79.229,-8.608C79.123,-8.452 79.015,-8.298 78.915,-8.137C78.906,-8.122 78.896,-8.109 78.887,-8.095C78.86,-9.908 78.649,-11.713 78.189,-13.489C78.058,-13.994 77.302,-14.293 76.854,-14.064C76.715,-13.993 76.593,-13.9 76.461,-13.818C76.463,-13.827 76.465,-13.836 76.467,-13.844C76.391,-13.797 76.325,-13.737 76.251,-13.687C76.106,-13.59 75.965,-13.489 75.829,-13.381C75.714,-13.287 75.604,-13.188 75.494,-13.088C75.363,-12.967 75.233,-12.846 75.11,-12.715C75.012,-12.609 74.918,-12.499 74.824,-12.388C74.705,-12.248 74.587,-12.108 74.477,-11.96C74.391,-11.846 74.311,-11.726 74.229,-11.608C74.123,-11.452 74.015,-11.298 73.915,-11.137C73.84,-11.017 73.771,-10.893 73.701,-10.77C73.604,-10.603 73.507,-10.437 73.416,-10.268C73.351,-10.143 73.29,-10.016 73.227,-9.891C73.141,-9.718 73.052,-9.547 72.971,-9.373C72.911,-9.246 72.856,-9.121 72.8,-8.995C72.722,-8.821 72.641,-8.647 72.566,-8.475C72.439,-8.184 72.318,-7.895 72.201,-7.613C71.055,-4.854 70.259,-1.954 69.032,0.772C68.895,1.078 68.764,1.389 68.628,1.696C67.985,-0.882 66.706,-3.172 64.404,-4.475C64.403,-4.477 64.403,-4.48 64.402,-4.483C64.381,-4.496 64.354,-4.504 64.332,-4.517C64.08,-4.656 63.814,-4.781 63.538,-4.895C63.432,-4.94 63.328,-4.99 63.218,-5.031C62.996,-5.112 62.758,-5.177 62.521,-5.241C62.371,-5.283 62.236,-5.34 62.081,-5.374C61.988,-5.394 61.89,-5.387 61.792,-5.374C61.159,-6.216 60.368,-6.93 59.404,-7.475C59.403,-7.477 59.403,-7.48 59.402,-7.483C59.381,-7.496 59.354,-7.504 59.332,-7.517C59.08,-7.656 58.814,-7.781 58.538,-7.895C58.432,-7.94 58.328,-7.99 58.218,-8.031C57.996,-8.112 57.758,-8.177 57.521,-8.241C57.371,-8.283 57.236,-8.34 57.081,-8.374C56.633,-8.476 56.079,-8.14 55.918,-7.72C51.524,3.896 50.921,16.417 48.821,28.568C46.945,26.455 45.372,25.26 45.348,27.177C45.291,31.959 44.271,35.971 42.283,40.499C41.072,43.262 39.817,44.768 38.37,45.73C38.111,45.721 37.858,45.721 37.598,45.708C36.387,45.652 35.147,45.603 33.896,45.557C33.897,45.557 33.899,45.556 33.901,45.556C33.722,45.549 33.537,45.545 33.355,45.538C32.66,45.514 31.963,45.49 31.257,45.471C30.869,45.459 30.477,45.452 30.087,45.443C29.508,45.43 28.931,45.414 28.346,45.404C27.672,45.393 26.99,45.389 26.31,45.383C25.992,45.381 25.678,45.375 25.359,45.374C24.348,45.371 23.332,45.377 22.312,45.39C22.064,45.393 21.815,45.4 21.567,45.404C20.786,45.418 20.005,45.434 19.221,45.459C18.9,45.469 18.581,45.484 18.261,45.496C17.547,45.524 16.833,45.553 16.118,45.59C15.767,45.607 15.416,45.632 15.064,45.653C14.382,45.694 13.699,45.738 13.019,45.789C12.648,45.818 12.279,45.852 11.91,45.883C11.25,45.94 10.591,45.999 9.933,46.066C9.552,46.106 9.173,46.149 8.794,46.192C8.149,46.266 7.508,46.344 6.869,46.43C6.484,46.481 6.101,46.535 5.718,46.59C5.089,46.682 4.463,46.781 3.84,46.886C3.456,46.949 3.073,47.015 2.691,47.084C2.073,47.196 1.46,47.318 0.849,47.444C0.473,47.522 0.098,47.598 -0.275,47.681C-0.888,47.816 -1.493,47.965 -2.098,48.117C-2.457,48.207 -2.818,48.293 -3.175,48.389C-3.791,48.554 -4.396,48.734 -5.001,48.916C-5.332,49.017 -5.668,49.109 -5.995,49.215C-6.646,49.424 -7.284,49.651 -7.92,49.882C-8.188,49.979 -8.461,50.066 -8.726,50.167C-9.619,50.507 -10.498,50.867 -11.356,51.253C-37.113,62.84 -59.021,93.117 -45.96,121.538C-45.539,122.455 -45.081,123.37 -44.586,124.282C-38.556,135.396 -27.398,146.158 -13.685,154.305C-15.324,155.096 -16.766,156.387 -18.059,157.623C-19.767,159.264 -21.371,161.038 -23.208,162.54C-24.06,163.237 -24.954,163.827 -25.957,164.282C-26.407,164.486 -26.872,164.638 -27.314,164.851C-27.641,165.009 -28.03,165.394 -28.367,165.478C-28.465,165.504 -28.498,165.648 -28.389,165.684C-27.527,165.986 -27.116,166.39 -26.101,166.202C-25.189,166.036 -24.34,165.654 -23.533,165.209C-21.56,164.113 -19.815,162.64 -18.161,161.12C-16.605,159.692 -15.07,158.108 -13.274,156.983C-12.61,156.571 -11.855,156.179 -11.068,156.114C-10.913,156.102 -10.763,156.117 -10.613,156.132C-10.456,156.23 -10.298,156.326 -10.141,156.422C-11.604,157.789 -12.69,159.482 -13.692,161.248C-15.168,162.707 -16.601,164.226 -18.208,165.54C-19.06,166.237 -19.954,166.827 -20.957,167.282C-21.407,167.486 -21.872,167.638 -22.314,167.851C-22.641,168.009 -23.03,168.394 -23.367,168.478C-23.465,168.504 -23.498,168.648 -23.389,168.684C-22.527,168.986 -22.116,169.39 -21.101,169.202C-20.189,169.036 -19.34,168.654 -18.533,168.209C-18.24,168.047 -17.963,167.861 -17.68,167.684C-17.792,167.816 -17.9,167.953 -18.018,168.083C-20.596,170.937 -24.392,173.066 -28.082,174.056C-28.458,174.157 -28.529,174.634 -28.159,174.808C-24.567,176.462 -19.608,172.804 -17.077,170.487C-15.321,168.882 -14.115,166.849 -12.877,164.841C-12.356,163.998 -11.827,163.184 -11.291,162.383C-10.338,161.507 -9.355,160.66 -8.274,159.983C-7.897,159.75 -7.489,159.529 -7.064,159.364C-7.264,160.231 -7.299,161.178 -7.319,162.01C-9.322,164.953 -10.661,168.471 -13.018,171.083C-15.596,173.937 -19.392,176.066 -23.082,177.056C-23.458,177.157 -23.529,177.634 -23.159,177.808C-19.567,179.462 -14.608,175.804 -12.077,173.487C-10.321,171.882 -9.115,169.849 -7.877,167.841C-7.734,167.609 -7.588,167.39 -7.445,167.162C-7.525,168.669 -7.7,170.162 -8.127,171.575C-8.861,174.014 -10.174,176.382 -11.963,178.205C-13.838,180.113 -16.237,180.708 -18.362,182.173C-18.45,182.235 -18.449,182.393 -18.354,182.451C-16.293,183.726 -13.667,182.582 -11.869,181.325C-9.595,179.737 -7.889,177.394 -6.65,174.946C-4.723,171.138 -4.901,167.057 -4.599,163.004C-4.08,162.315 -3.536,161.635 -2.966,160.967C-2.875,161.708 -2.579,162.473 -2.211,163.223C-2.309,164.041 -2.313,164.875 -2.333,165.565C-2.427,168.528 -2.264,171.718 -3.127,174.575C-3.861,177.014 -5.174,179.382 -6.963,181.205C-8.838,183.113 -11.237,183.708 -13.362,185.173C-13.45,185.235 -13.449,185.393 -13.354,185.451C-11.293,186.726 -8.667,185.582 -6.869,184.325C-6.687,184.197 -6.514,184.058 -6.338,183.921C-6.351,183.982 -6.352,184.046 -6.325,184.114C-5.578,186.046 -2.667,184.023 -1.892,183.239C-0.125,181.452 1.075,179.068 2.01,176.761C3.088,174.096 3.246,171.33 2.786,168.483C2.658,167.691 2.458,166.932 2.216,166.189C2.66,166.677 3.104,167.164 3.549,167.653C3.896,168.28 4.226,168.875 4.439,169.411C5.432,171.91 5.808,175.151 5,177.753C4.398,179.698 3.539,181.627 2.457,183.35C1.937,184.184 1.391,185.026 0.672,185.706C0.085,186.263 -0.489,186.301 -1.15,186.671C-1.313,186.763 -1.396,186.93 -1.325,187.114C-0.578,189.046 2.333,187.023 3.108,186.239C4.875,184.452 6.075,182.068 7.01,179.761C7.817,177.764 8.109,175.709 8.011,173.607C8.18,173.981 8.332,174.363 8.449,174.768C8.717,175.702 8.777,176.686 8.574,177.641C8.354,178.678 7.658,179.658 7.597,180.715C7.598,180.744 7.623,180.778 7.66,180.771C9.668,180.348 10.461,177.46 10.425,175.71C10.392,174.099 9.808,172.611 9.05,171.211C9.381,171.58 9.711,171.951 10.031,172.331C11.426,173.987 12.835,175.643 13.449,177.768C13.717,178.702 13.777,179.686 13.574,180.641C13.354,181.678 12.658,182.658 12.597,183.715C12.598,183.744 12.623,183.778 12.66,183.771C14.668,183.348 15.461,180.46 15.425,178.71C15.377,176.405 14.211,174.349 13.006,172.447C11.65,170.316 9.905,168.442 8.303,166.502C7.916,166.035 7.556,165.547 7.201,165.056C30.189,174.012 56.874,175.131 78.461,160.611C84.051,156.851 88.174,151.801 91.185,146.024C94.476,139.709 96.437,132.524 97.47,125.157C100.138,106.083 90.098,86.377 80.773,70.512C73.971,58.943 73.249,52.413 81.972,40.73" style="fill-rule:nonzero;"/>
            </g>
        </g>
    </g>
</svg>
