<?xml version="1.0" encoding="UTF-8" standalone="no"?>
<!DOCTYPE svg PUBLIC "-//W3C//DTD SVG 1.1//EN" "http://www.w3.org/Graphics/SVG/1.1/DTD/svg11.dtd">
<svg width="100%" height="100%" viewBox="0 0 236 303" version="1.1" xmlns="http://www.w3.org/2000/svg" xmlns:xlink="http://www.w3.org/1999/xlink" xml:space="preserve" xmlns:serif="http://www.serif.com/" style="fill-rule:evenodd;clip-rule:evenodd;stroke-linejoin:round;stroke-miterlimit:2;">
    <g transform="matrix(0.999953,0,0,0.999953,-1174.05,-5260.76)">
        <clipPath id="_clip1">
            <path d="M489.319,4930.58C452.65,4930.58 422.925,4960.31 422.925,4996.98L422.925,5497.52C422.925,5534.19 452.65,5563.92 489.319,5563.92L1430.68,5563.92C1467.35,5563.92 1497.08,5534.19 1497.08,5497.52L1497.08,4996.98C1497.08,4960.31 1467.35,4930.58 1430.68,4930.58L489.319,4930.58Z" clip-rule="nonzero"/>
        </clipPath>
        <g clip-path="url(#_clip1)">
            <g transform="matrix(1,0,0,1,1331.16,5317.08)">
                <path d="M0,39.321L12.442,32.49L26.658,23.807L16.979,1.264L1.504,0L0,39.321Z" style="fill:rgb(222,138,123);fill-rule:nonzero;"/>
            </g>
            <g transform="matrix(1,0,0,1,1273.26,5361.77)">
                <path d="M0,65.614C-0.171,68.402 8.688,67.476 11.353,67.693C14.021,67.909 19.661,66.116 19.831,63.329L20.146,2.876C20.316,0.085 18.291,-2.352 15.626,-2.57C12.96,-2.788 10.662,-0.705 10.493,2.085L0,65.614Z" style="fill:rgb(135,92,127);fill-rule:nonzero;"/>
            </g>
            <g transform="matrix(1,0,0,1,1292.62,5346.16)">
                <path d="M0,200.06L0.684,106.88L-3.387,13.074L30.186,-2.904L65.191,-5.268L71.141,-0.001L98.759,14.915L78.416,99.705L81.535,190.939L52.715,204.894L52.674,205.328L17.694,202.47L17.689,202.585L0,200.06Z" style="fill:rgb(135,92,127);fill-rule:nonzero;"/>
            </g>
            <g transform="matrix(1,0,0,1,1305.97,5328.32)">
                <path d="M0,-24.352C0.468,-15.863 0.697,-1.982 5.099,6.689C9.498,15.362 18.068,18.826 21.477,19.102C28.295,19.66 41.024,8.719 42.07,-8.487C42.706,-18.892 35.885,-33.957 27.79,-40.04C22.501,-44.012 15.872,-41.014 13.179,-41.232C6.36,-41.789 -0.949,-41.627 0,-24.352" style="fill:rgb(229,168,135);fill-rule:nonzero;"/>
            </g>
            <g transform="matrix(1,0,0,1,1289.46,5548.72)">
                <path d="M0,-189.49L5.811,-192.254C4.391,-179.664 3.633,-166.451 3.633,-152.827C3.633,-75.781 27.816,-11.816 59.576,0.644L56.098,2.33L56.061,2.764L21.081,-0.094L21.073,0.022L3.388,-2.504L4.07,-95.683L0,-189.49Z" style="fill:rgb(123,76,114);fill-rule:nonzero;"/>
            </g>
            <g transform="matrix(-0.346988,0.937869,0.937869,0.346988,1349.27,5301.41)">
                <path d="M4.027,-5.787C7.912,-5.971 11.059,-4.193 11.058,-1.821C11.059,0.552 7.91,2.625 4.027,2.807C0.146,2.989 -3.003,1.214 -3.003,-1.162C-3.004,-3.533 0.145,-5.604 4.027,-5.787" style="fill:rgb(229,168,135);fill-rule:nonzero;"/>
            </g>
            <g transform="matrix(1,0,0,1,1343.26,5271.9)">
                <path d="M0,29.583C1.566,28.054 4.278,25.8 6.574,26.345C6.653,21.13 6.604,15.106 6.684,9.893C6.726,7.128 3.927,5.954 2.959,3.298C1.423,-0.923 0.304,-5.897 -4.162,-7.84C-8.627,-9.784 -10.393,-7.962 -15.282,-8.321C-16.82,-8.434 -21.566,-11.048 -23.087,-10.888C-24.32,-10.755 -25.526,-10.465 -26.658,-10.023C-30.416,-8.566 -31.805,-3.792 -34.854,-2.191C-38.782,-0.132 -42.563,7.298 -41.246,11.106C-39.22,16.979 -48.803,30.573 -43.712,35.487C-38.782,40.251 -25.802,40.631 -20.596,36.632C-14.487,31.937 -3.722,28.147 0,29.583" style="fill:rgb(17,27,38);fill-rule:nonzero;"/>
            </g>
            <g transform="matrix(1,0,0,1,1279.46,5426.77)">
                <path d="M0,33.269C1.307,35.354 4.381,37.224 6.833,37.424L36.885,39.88C39.337,40.081 40.274,38.539 38.968,36.455L16.126,-0.002C14.819,-2.086 11.745,-3.956 9.293,-4.156L-20.757,-6.612C-23.209,-6.812 -24.146,-5.27 -22.84,-3.186L0,33.269Z" style="fill:rgb(114,113,113);fill-rule:nonzero;"/>
            </g>
            <g transform="matrix(1,0,0,1,1306.71,5438.81)">
                <path d="M0,-2.098C-0.66,-1.677 -1.395,-1.134 -1.345,-0.396C-1.305,0.184 -0.761,0.676 -0.147,0.885C0.463,1.094 1.128,1.083 1.77,1.054C4.604,0.931 7.422,0.579 10.266,0.721C12.155,0.815 14.342,1.04 15.62,-0.165C12.351,-2.102 8.348,-2.569 4.508,-2.983C3.532,-3.089 2.52,-3.192 1.603,-2.915C1.017,-2.74 0.505,-2.417 0,-2.098" style="fill:rgb(216,152,126);fill-rule:nonzero;"/>
            </g>
            <g transform="matrix(1,0,0,1,1345.75,5447.83)">
                <path d="M0,10.598C-0.162,10.324 -0.54,10.194 -1.415,9.874C-2.518,9.471 -3.365,8.638 -4.1,7.898C-5.708,6.281 -7.346,4.625 -8.217,2.711C-8.623,1.818 -8.853,0.882 -9.33,0.008C-10.404,-1.954 -12.603,-3.406 -14.716,-4.778C-15.221,-5.108 -15.729,-5.436 -16.233,-5.763C-17.665,-6.694 -19.113,-7.628 -20.753,-8.303C-23.799,-9.563 -27.432,-9.828 -30.572,-9.018C-33.714,-8.212 -36.322,-6.34 -37.627,-3.964C-38.082,-3.132 -38.28,-1.983 -37.32,-1.406C-36.737,-1.057 -35.924,-1.08 -35.282,-1.292C-34.64,-1.508 -34.119,-1.885 -33.577,-2.225C-32.029,-3.192 -30.193,-3.881 -28.238,-4.239C-30.102,-3.788 -31.287,-2.402 -32.983,-1.674C-33.491,-1.46 -34.047,-1.299 -34.494,-1.016C-34.941,-0.733 -35.275,-0.28 -35.134,0.177C-34.885,1.013 -33.396,1.187 -32.403,0.902C-31.494,0.64 -30.715,0.176 -29.816,-0.104C-26.856,-1.032 -23.268,0.262 -20.981,2.176C-19.361,3.529 -18.148,5.574 -19.249,7.108C-22.556,6.156 -25.711,4.822 -28.573,3.168C-29.512,2.625 -30.715,2.02 -31.688,2.433C-32.64,2.836 -32.621,3.918 -32.354,4.773C-32.21,5.236 -32.019,5.702 -31.666,6.101C-31.119,6.718 -30.244,7.1 -29.465,7.54C-27.537,8.636 -26.114,10.187 -24.604,11.633C-21.705,14.413 -13.003,19.999 -12.023,20.2C-10.912,20.426 -9.768,20.284 -8.66,20.139C-8.023,20.054 -0.33,19.143 -0.387,19.541C-0.021,17.015 0.147,14.466 0.125,11.908C0.121,11.199 0.147,10.844 0,10.598" style="fill:rgb(216,152,129);fill-rule:nonzero;"/>
            </g>
            <g transform="matrix(1,0,0,1,1340.68,5366.9)">
                <path d="M0,98.16C0.105,96.602 1.489,90.652 1.209,89.095C0.901,87.383 10.632,85.851 13.313,85.117C17.971,83.84 22.181,82.636 26.966,82.489C29.844,82.402 36.189,82.662 39.069,82.574C36.219,73.568 34.958,63.72 33.319,54.746C31.719,45.99 36.482,36.564 38.24,27.795C39.8,19.998 42.007,12.328 44.213,4.662C45.284,0.931 44.57,-5.123 45.64,-8.854C47.347,-8.235 53.52,-5.298 53.857,-3.52C54.875,1.86 55.588,9.023 56.605,14.404C59.061,27.379 61.513,40.353 63.78,53.342C66.548,69.211 69.696,78.554 68.986,93.656C68.988,93.692 68.996,93.728 69.002,93.765C69.752,100.673 61.027,106.559 49.518,106.908C45.975,107.014 0.173,102.765 -0.617,102.883C-0.832,101.244 -0.158,100.473 0,98.16" style="fill:rgb(135,92,127);fill-rule:nonzero;"/>
            </g>
            <g transform="matrix(1,0,0,1,1308.19,5438.31)">
                <path d="M0,7.881C0.647,5.986 2.685,4.833 4.582,3.839C5.535,3.339 6.508,2.831 7.595,2.609C9.242,2.274 11.003,2.628 12.677,2.403C13.135,2.344 13.605,2.233 13.935,1.948C14.265,1.663 14.408,1.171 14.147,0.819C13.915,0.495 13.458,0.388 13.04,0.323C10.247,-0.11 7.324,0.216 4.85,1.348C2.372,2.478 0.374,4.428 -0.565,6.784C-0.663,7.026 -0.748,7.286 -0.666,7.536C-0.58,7.783 -0.259,7.991 0,7.881" style="fill:rgb(216,152,137);fill-rule:nonzero;"/>
            </g>
            <g transform="matrix(1,0,0,1,1326.81,5466.99)">
                <path d="M0,-20.377C-1.432,-21.308 -12.351,-21.562 -14.047,-20.834C-14.555,-20.619 -15.11,-20.459 -15.558,-20.176C-16.005,-19.893 -16.339,-19.44 -16.197,-18.982C-15.948,-18.147 -13.982,-17.268 -12.987,-17.551C-12.08,-17.811 -10.925,-18.412 -10.027,-18.691C-7.069,-19.619 -4.331,-18.898 -2.045,-16.983C-0.425,-15.631 0.788,-13.586 -0.312,-12.052C-3.619,-13.004 -6.774,-14.338 -9.637,-15.991C-10.575,-16.534 -11.778,-17.14 -12.752,-16.727C-13.703,-16.323 -13.685,-15.241 -13.417,-14.387C-13.273,-13.924 -13.082,-13.457 -12.729,-13.059C-12.183,-12.441 -11.308,-12.06 -10.528,-11.619C-8.601,-10.523 -7.178,-8.973 -5.667,-7.526C-2.769,-4.746 5.81,1.185 6.913,1.04C7.238,0.999 2.469,-5.455 3.78,-12.815C4.914,-19.151 0.248,-20.217 0,-20.377" style="fill:rgb(216,152,126);fill-rule:nonzero;"/>
            </g>
            <g transform="matrix(1,0,0,1,1174.22,5515.27)">
                <path d="M0,94.398C2.458,84.201 14.278,68.412 27.063,52.558C34.982,42.739 49.785,19.566 58.07,9.727C59.429,7.843 61.287,6.261 63.832,5.249C69.093,3.156 129.227,-5.706 143.725,-8.646C160.057,-11.963 186.201,-14.588 195.42,-6.362C201.779,-0.694 201.773,20.304 198.887,27.921C192.539,44.671 171.64,59.162 143.725,59.162C133.633,59.162 124.229,57.173 116.336,53.753C109.916,52.593 91.68,43.541 86.832,42.398C82.577,41.396 83.406,40.175 79.651,39.098C79.641,39.173 75.938,42.83 75.927,42.909C73.938,54 50.502,66.539 39.712,79.922C27.128,95.527 16.402,108.517 8.955,108.874C6.635,108.986 4.956,102.967 3.468,100.875C2.052,98.89 -0.713,97.365 0,94.398" style="fill:rgb(95,171,252);fill-rule:nonzero;"/>
            </g>
            <g transform="matrix(-0.490088,-0.871673,-0.871673,0.490088,1267.52,5445.19)">
                <path d="M-1.462,-5.635C-8.739,-4.787 -14.632,-4.371 -14.632,-2.249C-14.631,-0.126 -8.735,2.899 -1.462,2.051C5.813,1.205 9.874,-0.409 9.874,-2.531C9.871,-4.656 5.81,-6.484 -1.462,-5.635" style="fill:rgb(216,152,125);fill-rule:nonzero;"/>
            </g>
            <g transform="matrix(1,0,0,1,1174.38,5515.18)">
                <path d="M0,94.397C2.456,84.198 16.577,69.173 29.364,53.318C37.279,43.5 49.785,19.566 58.067,9.725C59.428,7.839 61.287,6.26 63.831,5.248C69.09,3.155 132.199,-0.755 146.7,-3.696C163.031,-7.011 186.198,-14.589 195.421,-6.364C201.776,-0.697 201.773,20.303 198.886,27.921C192.539,44.669 176.159,56.4 148.67,50.777C137.497,48.493 125.665,44.302 114.819,43.542C108.398,42.382 102.246,42.017 97.399,40.875C93.142,39.871 83.406,40.174 79.648,39.097C79.64,39.172 75.972,42.847 75.927,42.907C68.035,52.81 50.502,66.539 39.709,79.921C27.128,95.525 16.4,108.515 8.952,108.873C6.632,108.986 4.957,102.964 3.465,100.873C2.052,98.888 -0.713,97.364 0,94.397" style="fill:white;fill-rule:nonzero;"/>
            </g>
            <g transform="matrix(0.144362,0.989525,0.989525,-0.144362,1269.04,5431.31)">
                <path d="M4.208,-3.324C5.614,-3.526 6.979,-2.363 7.156,-1.151C7.333,0.062 5.613,4.611 4.208,4.816C2.803,5.021 1.89,4.103 1.344,2.989C0.769,1.825 2.662,-3.1 4.208,-3.324" style="fill:rgb(216,152,125);fill-rule:nonzero;"/>
            </g>
            <g transform="matrix(1,0,0,1,1269.59,5439.8)">
                <path d="M0,-0.477C0,0.14 1.675,1.713 1.97,2.189C2.464,2.984 4.273,2.159 5.15,1.747C6.627,1.048 7.888,0.409 7.888,-1.239C7.888,-2.887 6.662,-3.461 5.15,-3.461C3.638,-3.461 0,-2.123 0,-0.477" style="fill:rgb(216,152,125);fill-rule:nonzero;"/>
            </g>
            <g transform="matrix(0,1,1,0,1276.06,5440.55)">
                <path d="M2.895,-4.169C4.824,-4.169 6.39,-2.586 6.39,-0.636C6.39,1.315 4.824,2.896 2.895,2.896C0.97,2.896 0.674,1.344 0.674,-0.609C0.674,-2.56 0.97,-4.169 2.895,-4.169" style="fill:rgb(216,152,125);fill-rule:nonzero;"/>
            </g>
            <g transform="matrix(0,1,1,0,1278.44,5445.72)">
                <path d="M2.046,-5.566C3.412,-5.566 6.935,-4.821 6.935,-2.718C6.935,-0.615 3.412,2.047 2.046,2.047C0.677,2.047 0.902,0.314 0.902,-1.789C0.902,-3.889 0.677,-5.566 2.046,-5.566" style="fill:rgb(216,152,125);fill-rule:nonzero;"/>
            </g>
            <g transform="matrix(1,0,0,1,1246.05,5555.72)">
                <path d="M0,123.577C-3.276,113.787 -2.026,92.042 -0.404,68.996C0.603,54.719 -0.241,24.016 1.025,9.409C1.099,6.811 1.698,4.001 3.099,1.022C5.991,-5.141 30.495,-0.466 37.233,1.185C46.788,3.527 61.124,7.639 75.301,12.614C94.842,19.472 112.155,6.382 104.522,10.709C99.129,15.446 81.786,18.077 76.893,18.838C71.984,19.598 28.445,20.036 28.473,20.107C32.55,30.155 23.87,58.597 22.496,78.05C20.896,100.734 19.377,119.838 13.975,126.609C12.294,128.718 8.338,127.737 6.168,127.47C4.113,127.219 0.953,126.424 0,123.577" style="fill:rgb(1,141,253);fill-rule:nonzero;"/>
            </g>
            <g transform="matrix(1,0,0,1,1360.14,5367.05)">
                <path d="M0,101.351C8.902,101.673 19.866,101.623 24.649,101.478C27.53,101.39 43.384,98.175 45.027,96.017C46.232,90.685 43.896,79.262 43.933,65.921C43.972,51.8 38.315,33.037 35.935,25.796C33.13,17.265 25.219,-5.137 26.292,-8.87C27.997,-8.253 34.173,-5.318 34.509,-3.538C35.528,1.841 36.237,9.005 37.257,14.383C39.71,27.359 42.165,40.333 44.431,53.326C47.202,69.195 50.347,78.535 49.636,93.637C49.64,93.673 49.65,93.71 49.653,93.748C50.301,102.937 41.513,110.221 30.17,106.888C26.767,105.889 -19.176,102.749 -19.966,102.867C-20.181,101.224 -3.507,101.224 0,101.351" style="fill:rgb(123,76,114);fill-rule:nonzero;"/>
            </g>
            <g transform="matrix(1,0,0,1,1326.42,5301.54)">
                <path d="M0,1.843C9.481,1.843 17.937,-2.444 23.467,-9.144C23.457,-7.141 23.447,-5.168 23.418,-3.3C21.122,-3.844 18.41,-1.591 16.844,-0.061C13.122,-1.497 2.356,2.293 -3.752,6.988C-8.958,10.987 -21.938,10.607 -26.868,5.843C-28.665,4.109 -28.631,1.291 -27.926,-1.888C-20.982,1.81 -10.135,1.843 0,1.843" style="fill:rgb(11,22,35);fill-rule:nonzero;"/>
            </g>
        </g>
    </g>
</svg>
