<?xml version="1.0" encoding="UTF-8" standalone="no"?>
<!DOCTYPE svg PUBLIC "-//W3C//DTD SVG 1.1//EN" "http://www.w3.org/Graphics/SVG/1.1/DTD/svg11.dtd">
<svg width="100%" height="100%" viewBox="0 0 138 109" version="1.1" xmlns="http://www.w3.org/2000/svg" xmlns:xlink="http://www.w3.org/1999/xlink" xml:space="preserve" xmlns:serif="http://www.serif.com/" style="fill-rule:evenodd;clip-rule:evenodd;stroke-linejoin:round;stroke-miterlimit:2;">
    <g transform="matrix(1.00005,0,0,1.00005,-578.53,-3134.67)">
        <g opacity="0.3">
            <g transform="matrix(-0.961309,-0.275474,-0.275474,0.961309,641.122,3135.11)">
                <path d="M-27.106,-0.489L0.435,-0.489L0.435,2.049L-27.107,3.952L-27.106,-0.489Z" style="fill-rule:nonzero;"/>
            </g>
            <g transform="matrix(1,0,0,1,699.342,3182.73)">
                <path d="M0,19.484C-12.498,13.181 -25.84,14.428 -29.976,22.224C-29.977,22.216 -29.978,22.209 -29.978,22.201C-30.015,22.268 -30.052,22.337 -30.087,22.407C-30.905,24.03 -31.261,25.805 -31.213,27.656C-31.263,27.653 -31.312,27.648 -31.363,27.645C-37.918,27.291 -43.979,28.532 -48.637,30.857L-47.024,15.112L-43.958,-14.819C-43.04,-15.538 -42.438,-16.646 -42.438,-17.905C-42.438,-19.579 -43.488,-21 -44.962,-21.568C-45.376,-21.902 -45.895,-22.11 -46.468,-22.11L-59.894,-22.11L-54.676,-40.32L-57.115,-41.02L-62.534,-22.11L-80.153,-22.11C-80.555,-22.11 -80.929,-22.002 -81.262,-21.828C-83.379,-21.764 -85.08,-20.037 -85.08,-17.905C-85.08,-16.127 -83.894,-14.643 -82.277,-14.155L-81.02,5.493L-112.209,9.308L-117.793,12.101L-96.261,35.271L-119.823,35.705L-120.839,43.575L-117.031,51.443L-68.043,52.205L-64.106,44.914L-57.598,44.796C-56.196,52.673 -45.918,59.216 -33.111,59.911C-22.167,60.504 -12.599,56.65 -8.645,50.725C2.012,54.097 12.147,52.138 15.539,45.412C15.623,45.246 15.699,45.079 15.773,44.909C15.771,44.911 15.768,44.913 15.765,44.915C19.261,36.969 12.341,25.707 0,19.484" style="fill-rule:nonzero;"/>
            </g>
        </g>
    </g>
</svg>
