<?xml version="1.0" encoding="UTF-8" standalone="no"?>
<!DOCTYPE svg PUBLIC "-//W3C//DTD SVG 1.1//EN" "http://www.w3.org/Graphics/SVG/1.1/DTD/svg11.dtd">
<svg width="100%" height="100%" viewBox="0 0 143 207" version="1.1" xmlns="http://www.w3.org/2000/svg" xmlns:xlink="http://www.w3.org/1999/xlink" xml:space="preserve" xmlns:serif="http://www.serif.com/" style="fill-rule:evenodd;clip-rule:evenodd;stroke-linejoin:round;stroke-miterlimit:2;">
    <g transform="matrix(0.999953,0,0,0.999953,-1076.66,-3869.94)">
        <g opacity="0.3">
            <g transform="matrix(1,0,0,1,1219.42,3883.38)">
                <path d="M0,159.683C-0.011,159.513 -0.028,159.343 -0.059,159.173C-0.071,159.1 -0.088,159.026 -0.104,158.953C-0.15,158.754 -0.208,158.558 -0.279,158.363C-0.302,158.298 -0.319,158.234 -0.346,158.169C-0.428,157.968 -0.522,157.767 -0.631,157.568L-0.64,157.568C-1.735,155.544 -4.147,153.686 -7.371,152.419C-10.292,149.735 -15.603,147.732 -21.688,147.732C-22.617,147.732 -23.522,147.79 -24.409,147.878L-24.451,147.769L-24.498,147.787C-25.222,146.21 -26.905,145.027 -29.188,144.349L-29.182,144.343C-29.243,144.326 -29.313,144.315 -29.376,144.297C-29.526,144.255 -29.674,144.209 -29.829,144.171C-30.675,142.898 -32.211,141.936 -34.188,141.349L-34.182,141.343C-34.243,141.326 -34.313,141.315 -34.376,141.297C-34.747,141.193 -35.132,141.103 -35.53,141.025C-35.657,141 -35.783,140.975 -35.913,140.954C-36.386,140.873 -36.874,140.809 -37.38,140.767C-37.407,140.765 -37.432,140.759 -37.459,140.757L-37.46,140.758C-38.979,140.639 -40.631,140.7 -42.353,140.946L-42.353,42.121C-42.353,35.533 -51.109,29.491 -57.819,25.826C-58.834,25.152 -59.859,24.519 -60.863,23.931L-50.397,23.931L-50.397,-10.26L-55.397,-10.26L-55.397,-13.26L-134.665,-13.26L-134.665,20.931L-129.665,20.931L-129.665,23.931L-129.609,23.931C-129.872,24.082 -130.135,24.236 -130.398,24.393C-130.473,24.437 -130.547,24.483 -130.62,24.527C-130.897,24.694 -131.173,24.863 -131.45,25.036C-131.513,25.076 -131.576,25.117 -131.64,25.156C-131.926,25.336 -132.211,25.519 -132.496,25.706C-132.549,25.742 -132.602,25.778 -132.654,25.813C-132.948,26.008 -133.241,26.206 -133.532,26.409C-133.569,26.434 -133.604,26.46 -133.641,26.486C-133.947,26.701 -134.252,26.917 -134.553,27.14C-134.561,27.146 -134.569,27.153 -134.577,27.159C-136.539,28.613 -138.355,30.228 -139.773,31.973C-139.785,31.988 -139.799,32.001 -139.811,32.016C-140.006,32.258 -140.188,32.505 -140.368,32.751C-140.412,32.812 -140.459,32.87 -140.501,32.931C-140.66,33.156 -140.806,33.384 -140.95,33.614C-141.004,33.699 -141.062,33.783 -141.113,33.868C-141.243,34.083 -141.36,34.302 -141.476,34.522C-141.529,34.623 -141.587,34.724 -141.637,34.826C-141.741,35.037 -141.833,35.25 -141.923,35.464C-141.971,35.578 -142.021,35.69 -142.065,35.804C-142.146,36.012 -142.213,36.223 -142.278,36.434C-142.316,36.556 -142.356,36.677 -142.39,36.8C-142.446,37.008 -142.49,37.218 -142.532,37.428C-142.548,37.511 -142.573,37.593 -142.588,37.676C-142.584,37.674 -142.58,37.671 -142.576,37.669C-142.658,38.148 -142.715,38.631 -142.715,39.121L-142.715,156.836C-142.715,158.197 -140.927,159.383 -137.856,160.393C-137.838,160.4 -137.821,160.406 -137.802,160.412C-137.718,160.439 -137.641,160.467 -137.556,160.494C-137.076,161.582 -135.42,162.55 -132.856,163.393C-132.838,163.4 -132.821,163.406 -132.802,163.412C-132.511,163.507 -132.204,163.6 -131.891,163.692C-131.846,163.704 -131.803,163.718 -131.757,163.732C-131.447,163.821 -131.125,163.909 -130.795,163.995C-130.742,164.008 -130.691,164.023 -130.638,164.036C-130.304,164.122 -129.958,164.206 -129.604,164.289C-129.552,164.302 -129.499,164.314 -129.445,164.327C-129.08,164.411 -128.704,164.494 -128.318,164.576L-128.201,164.599C-127.798,164.684 -127.384,164.767 -126.96,164.847C-126.942,164.851 -126.924,164.855 -126.905,164.858C-111.476,167.786 -82.837,168.398 -63.196,166.448C-63.19,166.447 -63.186,166.447 -63.181,166.447C-62.642,166.393 -62.11,166.337 -61.586,166.28C-61.525,166.273 -61.464,166.267 -61.404,166.259C-60.915,166.205 -60.433,166.15 -59.956,166.092C-59.866,166.081 -59.777,166.071 -59.688,166.06C-59.235,166.003 -58.788,165.947 -58.348,165.888C-58.241,165.873 -58.137,165.859 -58.031,165.845C-57.607,165.787 -57.189,165.728 -56.778,165.667C-56.665,165.652 -56.555,165.634 -56.442,165.617C-56.041,165.556 -55.644,165.495 -55.255,165.432C-55.148,165.414 -55.045,165.396 -54.939,165.378C-54.551,165.314 -54.166,165.248 -53.791,165.18C-53.706,165.165 -53.624,165.149 -53.539,165.133C-53.442,165.115 -53.347,165.097 -53.251,165.079C-50.423,168.296 -42.816,169.166 -35.219,166.202C-35.138,166.17 -35.063,166.133 -34.982,166.101C-33.877,166.916 -32.55,167.648 -31.033,168.245C-30.858,168.406 -30.68,168.566 -30.488,168.722C-27.48,171.172 -22.425,172.943 -16.688,172.943C-7.573,172.943 -0.167,168.471 0.01,163.9L0.04,159.683L0,159.683Z" style="fill-rule:nonzero;"/>
            </g>
            <g transform="matrix(1,0,0,1,1159.1,4071.72)">
                <path d="M0,-15.833C-2.921,-18.519 -8.231,-20.521 -14.319,-20.521C-17.872,-20.521 -21.159,-19.837 -23.867,-18.736L-23.873,-18.733C-24.38,-18.527 -24.862,-18.304 -25.326,-18.07C-25.416,-18.024 -25.503,-17.979 -25.591,-17.933C-25.985,-17.726 -26.361,-17.509 -26.72,-17.284C-26.765,-17.256 -26.816,-17.231 -26.86,-17.203L-26.854,-17.2C-29.343,-15.601 -30.885,-13.597 -31.003,-11.566L-31.028,-11.566L-31.028,-11.313L-31.022,-7.354C-30.913,-4.514 -28.015,-1.718 -23.652,-0.003C-20.735,2.688 -15.417,4.688 -9.319,4.688C-0.204,4.688 7.206,0.221 7.377,-4.354L7.408,-8.566L7.362,-8.566C7.199,-11.369 4.327,-14.134 0,-15.833" style="fill-rule:nonzero;"/>
            </g>
        </g>
    </g>
</svg>
