<?xml version="1.0" encoding="UTF-8" standalone="no"?>
<!DOCTYPE svg PUBLIC "-//W3C//DTD SVG 1.1//EN" "http://www.w3.org/Graphics/SVG/1.1/DTD/svg11.dtd">
<svg width="100%" height="100%" viewBox="0 0 226 256" version="1.1" xmlns="http://www.w3.org/2000/svg" xmlns:xlink="http://www.w3.org/1999/xlink" xml:space="preserve" xmlns:serif="http://www.serif.com/" style="fill-rule:evenodd;clip-rule:evenodd;stroke-linejoin:round;stroke-miterlimit:2;">
    <g transform="matrix(0.999953,0,0,0.999953,-887.756,-5077.7)">
        <g opacity="0.3">
            <g transform="matrix(1,0,0,1,1038.19,5216.89)">
                <path d="M0,-21.66C-0.333,-23.426 -1.874,-24.576 -3.717,-24.87C-3.803,-24.884 -3.883,-24.883 -3.968,-24.891C-4.126,-25.228 -4.426,-25.482 -4.795,-25.619L-4.795,-30.584C-4.399,-30.396 -3.98,-30.244 -3.533,-30.168C-3.084,-30.091 -2.656,-30.098 -2.247,-30.148C-1.34,-27.838 3.551,-26.942 9.467,-23.38C11.384,-22.225 13.193,-21.433 14.855,-20.933C15.202,-19.962 15.525,-18.977 15.793,-17.98C15.884,-17.641 16.06,-17.158 16.28,-16.568C15.417,-16.728 14.535,-16.898 13.621,-17.093C5.86,-18.738 2.364,-21.789 0,-21.66M71.072,87.891C70.471,87.242 68.953,85.77 67.979,84.963C67.97,84.955 67.963,84.944 67.953,84.936C67.698,84.729 67.542,84.574 67.47,84.574C67.418,84.539 67.354,84.49 67.313,84.468C67.296,84.459 67.29,84.46 67.275,84.452C66.433,83.887 65.524,83.682 65.248,83.701C64.993,83.72 57.477,77.245 56.535,77.105C52.318,73.364 46.617,68.967 40.785,64.09C39.291,62.731 37.771,61.339 36.244,59.929C36.21,46.491 39.7,30.545 39.876,21.409C40.802,20.119 39.439,16.473 40.205,7.14C40.504,3.511 35.967,-6.598 35.613,-8.761C34.814,-13.655 34.436,-13.242 35.24,-19.543C35.415,-20.915 35.67,-22.373 35.952,-23.861C38.532,-23.628 41.306,-24.068 43.744,-26.776C45.506,-28.731 49.693,-27.744 50.781,-32.875C51.777,-37.568 51.102,-47.972 50.732,-49.502C49.523,-54.506 46.441,-59.547 45.729,-61.314C41.771,-71.144 42.738,-71.922 40.045,-78.56C38.428,-82.545 33.949,-86.358 30.24,-86.767C25.699,-87.267 20.789,-86.803 17.598,-83.221C12.941,-77.998 12.014,-76.36 11.195,-70.998C11.15,-70.701 11.72,-70.367 12.631,-70.116C12.415,-69.387 12.24,-68.631 12.121,-67.849C11.834,-65.969 11.903,-64.283 12.245,-62.808C12.999,-58.501 15.588,-55.277 19.113,-54.889C20.818,-54.702 22.51,-55.201 24.031,-56.218C23.486,-54.31 23.691,-52.067 23.318,-49.627C23.021,-47.681 22.265,-45.408 21.767,-43.677C20.651,-41.854 18.821,-39.806 17.219,-38.002C13.84,-36.9 10.987,-35.938 10.762,-33.628C10.601,-31.98 11.043,-30.241 11.741,-28.423C5.419,-30.409 2.446,-34.333 0.347,-34.564C-0.231,-35.873 -1.562,-36.943 -3.166,-37.223C-3.493,-37.635 -4.068,-37.881 -4.686,-37.81C-4.724,-37.806 -4.758,-37.795 -4.795,-37.789L-4.795,-104.65C-4.795,-123.598 -20.156,-138.959 -39.104,-138.959L-116.086,-138.959C-135.034,-138.959 -150.395,-123.598 -150.395,-104.65L-150.395,82.354C-150.395,101.303 -135.034,116.662 -116.086,116.662L-39.104,116.662C-20.156,116.662 -4.795,101.303 -4.795,82.354L-4.795,-17.773C-4.133,-17.683 -3.438,-17.656 -2.996,-17.586C-2.991,-17.585 -2.987,-17.586 -2.982,-17.585C-2.01,-15.215 4.232,-13.967 11.832,-11.18C14.037,-10.371 16.042,-9.818 17.847,-9.478C18.155,-7.05 18.312,-4.32 18.09,-1.526C17.111,10.821 12.58,18.41 14.176,20.76C14.292,20.932 14.426,21.093 14.573,21.246C13.217,28.306 13.727,42.467 13.182,54.324C12.82,62.192 12.557,69.247 11.211,79.005C10.561,83.716 10.156,87.052 9.758,90.292C9.743,90.303 9.718,90.309 9.707,90.32C8.914,91.23 5.117,109.164 4.553,109.94C4.172,110.46 2.154,110.675 1.605,110.853C1.073,111.026 0.865,111.492 0.808,111.981C0.807,111.985 0.8,111.98 0.799,111.985C0.797,112.006 0.798,112.046 0.796,112.072C0.77,112.416 0.812,112.751 0.878,113.005C0.892,113.063 0.907,113.111 0.924,113.16C0.959,113.262 0.995,113.344 1.027,113.382C1.447,113.87 5.182,117.299 7.623,115.108C8.436,114.377 9.188,112.524 9.963,111.505C10.498,110.854 11.125,109.764 12.008,109.449C12.582,109.243 13.488,109.384 13.488,109.384C13.488,109.384 12.754,115.834 12.719,116.647L14.281,116.822C14.406,116.016 14.842,112.847 15.053,110.858C15.155,109.869 15.513,107.374 15.584,106.18C15.6,106.061 15.604,105.978 15.592,105.933C15.594,105.858 15.599,105.768 15.596,105.712C15.595,105.688 15.592,105.671 15.59,105.65C15.618,104.62 15.32,103.718 15.162,103.485C15.006,103.253 17.816,90.666 17.152,91.031C17.147,91.033 17.138,91.033 17.133,91.036C19.168,83.061 20.934,72.314 22.262,62.452C22.811,58.383 23.849,54.434 25.1,50.67C25.987,59.725 26.776,63.316 27.908,64.104C33.393,67.713 33.766,68.389 36.654,70.278C38.811,71.836 40.904,73.386 42.973,74.975C47.538,78.482 50.411,80.762 53.537,83.236C55.206,85.66 64.56,95.688 64.883,96.522C65.117,97.127 64.479,98.953 64.344,99.531C64.212,100.094 64.491,100.52 64.864,100.822C64.867,100.825 64.859,100.83 64.863,100.833C64.881,100.847 64.916,100.867 64.938,100.883C65.206,101.081 65.503,101.216 65.745,101.287C65.8,101.306 65.849,101.317 65.899,101.327C66.001,101.348 66.087,101.36 66.135,101.35C66.756,101.231 71.518,99.688 70.965,96.392C70.781,95.292 69.639,93.669 69.195,92.454C68.934,91.645 68.357,90.525 68.551,89.58C68.678,88.964 69.262,88.233 69.262,88.233C69.262,88.233 73.629,92.816 74.281,93.267L75.313,92.315C74.709,91.787 72.406,89.324 71.072,87.891" style="fill-rule:nonzero;"/>
            </g>
        </g>
    </g>
</svg>
