<?xml version="1.0" encoding="UTF-8" standalone="no"?>
<!DOCTYPE svg PUBLIC "-//W3C//DTD SVG 1.1//EN" "http://www.w3.org/Graphics/SVG/1.1/DTD/svg11.dtd">
<svg width="100%" height="100%" viewBox="0 0 226 256" version="1.1" xmlns="http://www.w3.org/2000/svg" xmlns:xlink="http://www.w3.org/1999/xlink" xml:space="preserve" xmlns:serif="http://www.serif.com/" style="fill-rule:evenodd;clip-rule:evenodd;stroke-linejoin:round;stroke-miterlimit:2;">
    <g transform="matrix(0.999953,0,0,0.999953,-887.757,-5077.7)">
        <g transform="matrix(1,0,0,1,1000.24,5250.12)">
            <path d="M0,23.052L-0.031,-0.053L-19.821,-11.579L-39.581,0.001L-39.55,23.106L-19.76,34.631L0,23.052Z" style="fill:rgb(233,244,253);fill-rule:nonzero;"/>
        </g>
        <g transform="matrix(1,0,0,1,964.06,5299.77)">
            <path d="M0,-37.828L-16.176,-28.348L-16.15,-9.434L0.05,0.001L16.227,-9.477L16.201,-28.392L0,-37.828ZM0.052,0.68L-16.586,-9.009L-16.731,-9.094L-16.758,-28.686L-0.001,-38.508L16.637,-28.818L16.782,-28.734L16.809,-9.14L0.052,0.68Z" style="fill:rgb(233,244,253);fill-rule:nonzero;"/>
        </g>
        <g transform="matrix(1,0,0,1,980.427,5326.38)">
            <path d="M0,-30.125L-12.883,-22.576L-12.862,-7.514L0.04,0.001L12.923,-7.549L12.903,-22.612L0,-30.125ZM0.041,0.681L-13.443,-7.172L-13.465,-22.916L-0.001,-30.806L13.484,-22.953L13.505,-7.209L0.041,0.681Z" style="fill:rgb(233,244,253);fill-rule:nonzero;"/>
        </g>
        <g transform="matrix(-0.988012,0.154377,0.154377,0.988012,1034.13,5181.72)">
            <path d="M0.21,-2.704C1.084,-2.743 1.792,-2.165 1.793,-1.412C1.795,-0.66 1.084,-0.02 0.21,0.016C-0.665,0.056 -1.372,-0.524 -1.373,-1.275C-1.374,-2.027 -0.666,-2.668 0.21,-2.704" style="fill:rgb(248,160,129);fill-rule:nonzero;"/>
        </g>
        <g transform="matrix(-0.998738,-0.0502269,-0.0502269,0.998738,1034.48,5186.71)">
            <path d="M-0.178,-7.063C2.056,-7.332 3.867,-5.968 3.866,-4.018C3.868,-2.065 2.056,-0.265 -0.178,0.004C-2.41,0.273 -4.221,-1.091 -4.221,-3.042C-4.223,-4.994 -2.411,-6.794 -0.178,-7.063" style="fill:rgb(248,160,129);fill-rule:nonzero;"/>
        </g>
        <g transform="matrix(-0.908545,-0.417786,-0.417786,0.908545,1048.18,5188.73)">
            <path d="M-1.521,-0.972C7.422,0.182 12.248,-4.526 12.685,0.344C13.203,6.099 7.673,3.54 -1.521,4.564C-10.367,5.55 -15.291,2.058 -15.703,-1.057C-16.117,-4.172 -10.097,-2.078 -1.521,-0.972" style="fill:white;fill-rule:nonzero;"/>
        </g>
        <g transform="matrix(1,0,0,1,1067.91,5163.53)">
            <path d="M0,-12.676C1.021,-19.361 -2.072,-25.213 -6.906,-25.747C-11.742,-26.28 -16.488,-21.291 -17.51,-14.605C-18.529,-7.919 -15.438,-2.066 -10.604,-1.533C-8.898,-1.346 -7.207,-1.845 -5.686,-2.862C-6.23,-0.954 -6.025,1.289 -6.398,3.729C-6.896,6.985 -8.686,11.168 -8.383,12.175C-7.955,13.604 -5.146,11.053 -4.195,11.16C-2.57,11.339 -0.561,11.953 0.643,4.079C1.631,-2.405 0.4,-7.388 -0.973,-9.046C-0.529,-10.177 -0.195,-11.394 0,-12.676" style="fill:rgb(248,154,128);fill-rule:nonzero;"/>
        </g>
        <g transform="matrix(1,0,0,1,1063.27,5183.52)">
            <path d="M0,-17.169C-1.424,-18.139 -0.764,-15.531 -2.764,-11.296C-4.764,-7.059 -12.268,-0.863 -10.816,0.054C-9.367,0.97 0.406,-4.107 2.406,-8.343C3.064,-9.737 4.842,-12.07 3.883,-13.306C2.455,-15.142 0.973,-16.505 0,-17.169" style="fill:rgb(250,170,129);fill-rule:nonzero;"/>
        </g>
        <g transform="matrix(1,0,0,1,1066.85,5158.64)">
            <path d="M0,-4.039C0.443,-5.168 0.775,-6.387 0.973,-7.668C1.992,-14.353 -1.1,-20.207 -5.934,-20.739C-10.77,-21.271 -15.516,-16.283 -16.537,-9.598C-17.559,-2.91 -14.197,1.412 -9.361,1.944C-7.658,2.133 -5.416,1.984 -3.893,0.969C-4.439,2.875 -4.557,6.229 -4.93,8.669C-6.131,16.543 -8.82,16.129 -7.195,16.307C-6.176,16.42 0.723,17.232 1.75,15.48C2.359,14.441 1.166,12.017 1.613,9.087C2.604,2.605 1.371,-2.381 0,-4.039" style="fill:rgb(250,170,129);fill-rule:nonzero;"/>
        </g>
        <g transform="matrix(-0.958797,-0.284094,-0.284094,0.958797,1064.17,5153.99)">
            <path d="M-0.896,-6.16C0.682,-6.176 1.96,-4.782 1.96,-3.045C1.961,-1.309 0.683,0.112 -0.896,0.13C-2.473,0.146 -3.751,-1.248 -3.751,-2.985C-3.75,-4.722 -2.474,-6.142 -0.896,-6.16" style="fill:rgb(250,170,129);fill-rule:nonzero;"/>
        </g>
        <g transform="matrix(-0.992009,-0.126171,-0.126171,0.992009,1065.55,5153.73)">
            <path d="M-0.281,-5.09C0.537,-5.231 1.595,-4.182 2.152,-3.555C0.485,-2.86 -0.446,-1.759 -0.281,0.268C-1.078,-0.09 -2.097,-0.858 -2.263,-1.88C-2.513,-3.42 -1.626,-4.856 -0.281,-5.09" style="fill:rgb(248,154,128);fill-rule:nonzero;"/>
        </g>
        <g transform="matrix(1,0,0,1,1105.59,5245.36)">
            <path d="M0,57.794C-0.484,56.067 -1.344,55.661 -2.99,55.617C-3.359,55.606 -3.785,55.95 -4.314,56.056C-4.32,56.042 -4.318,56.025 -4.328,56.014C-4.369,55.972 -4.414,55.924 -4.455,55.882C-6.555,51.254 -16.395,44.167 -26.617,35.619C-28.111,34.26 -29.631,32.868 -31.158,31.458C-31.199,15.143 -26.041,-4.881 -27.934,-11.909C-28.646,-14.55 -32.994,-10.747 -34.857,-10.648C-36.307,-10.572 -38.641,-10.746 -40.766,-10.451C-43.703,-10.173 -46.455,-9.223 -46.518,-6.111C-46.613,-1.26 -44.557,9.301 -42.566,19.402C-41.566,30.548 -40.736,34.768 -39.494,35.633C-34.01,39.242 -33.637,39.918 -30.748,41.807C-28.592,43.365 -26.498,44.915 -24.43,46.504C-18.852,50.788 -15.801,53.242 -11.729,56.453C-10.447,57.464 -9.246,58.551 -8.254,58.988C-7.68,59.508 -6.635,60.118 -6.189,60.688C-4.793,62.464 -2.746,65.444 -2.281,67.107C-1.643,69.398 -3.158,72.344 -1.975,72.155C-1.541,72.089 -1.074,71.895 -0.637,71.541C0.736,70.993 1.709,69.076 1.076,63.812C0.687,60.567 0.771,60.537 0,57.794" style="fill:rgb(255,91,66);fill-rule:nonzero;"/>
        </g>
        <g transform="matrix(1,0,0,1,1053.42,5158.5)">
            <path d="M0,0.019C0,0.014 -0.002,0.008 -0.002,0.003C0.01,0 0.01,0.005 0,0.019" style="fill:white;fill-rule:nonzero;"/>
        </g>
        <g transform="matrix(1,0,0,1,1052.48,5332.3)">
            <path d="M0,-12.688C1.285,-11.561 0.129,-10.49 -0.947,-9.344C-2.871,-7.297 -2.939,-7.359 -5.471,-5.408C-9.365,-2.405 -10.418,-0.727 -11.264,-1.066C-10.303,0 -9.563,-1.706 -5.111,-5.135C-2.578,-7.086 -2.512,-7.026 -0.588,-9.073C0.574,-10.31 1.83,-11.46 0,-12.688" style="fill:white;fill-rule:nonzero;"/>
        </g>
        <g transform="matrix(1,0,0,1,1046.52,5324.6)">
            <path d="M0,-5.585C-0.803,-3.452 -2.428,-0.681 -2.939,0.966C-2.969,1.057 -3.004,1.148 -3.039,1.241C-2.973,1.126 -2.91,1.013 -2.855,0.899C-1.816,-1.192 -0.668,-3.111 0.137,-5.245C0.256,-5.558 0.391,-6.159 0.52,-6.793L0.234,-6.826C0.186,-6.36 0.123,-5.909 0,-5.585" style="fill:white;fill-rule:nonzero;"/>
        </g>
        <g transform="matrix(1,0,0,1,1052.25,5319.34)">
            <path d="M0,0.113C0.086,0.165 0.158,0.216 0.234,0.266C0.076,0.128 -0.113,-0.011 -0.352,-0.153C-0.232,-0.049 -0.115,0.045 0,0.113" style="fill:white;fill-rule:nonzero;"/>
        </g>
        <g transform="matrix(-0.602487,0.798129,0.798129,0.602487,1040.56,5326.35)">
            <path d="M3.463,2.843C3.536,3.104 3.546,3.304 3.5,3.473C3.49,3.413 3.481,3.358 3.463,3.293C3.146,2.168 -0.092,2.637 -2.162,2.035C0.002,2.305 3.15,1.733 3.463,2.843" style="fill:white;fill-rule:nonzero;"/>
        </g>
        <g transform="matrix(1,0,0,1,1052.25,5329.92)">
            <path d="M0,-10.469C-0.115,-10.537 -0.232,-10.631 -0.352,-10.735C-0.355,-10.737 -0.357,-10.739 -0.359,-10.74C-0.678,-10.929 -0.463,-11.113 -0.803,-11.52L-5.207,-12.114C-5.336,-11.48 -5.471,-10.878 -5.59,-10.566C-6.395,-8.432 -7.543,-6.513 -8.582,-4.421C-8.637,-4.308 -8.699,-4.195 -8.766,-4.079C-9.533,-2.065 -11.857,0.237 -11.15,1.169C-11.109,1.222 -11.07,1.262 -11.029,1.306C-10.184,1.645 -9.131,-0.032 -5.236,-3.035C-2.705,-4.987 -2.637,-4.925 -0.713,-6.972C0.363,-8.117 1.52,-9.189 0.234,-10.316C0.158,-10.366 0.086,-10.417 0,-10.469" style="fill:white;fill-rule:nonzero;"/>
        </g>
        <g transform="matrix(1,0,0,1,1070.64,5329.27)">
            <path d="M0,-92.982C-1.437,-94.09 -3.135,-94.9 -4.066,-95.106C-5.893,-95.509 -9.582,-96.318 -12.623,-95.879C-14.947,-95.666 -16.93,-94.804 -17.539,-92.623C-19.32,-86.245 -18.684,-70.812 -19.27,-58.058C-19.631,-50.191 -19.895,-43.135 -21.24,-33.378C-22.223,-26.259 -22.645,-22.279 -23.33,-17.027C-23.547,-15.375 -23.867,-13.755 -23.744,-12.646C-23.898,-11.873 -23.896,-10.63 -24.154,-9.947C-24.957,-7.813 -26.582,-5.043 -27.094,-3.394C-27.121,-3.304 -27.158,-3.211 -27.193,-3.122C-28.281,-1.23 -30.635,0.938 -29.936,1.856C-29.771,2.074 -29.617,2.21 -29.455,2.274C-28.494,3.336 -27.752,1.623 -23.303,-1.804C-20.771,-3.755 -20.705,-3.695 -18.781,-5.742C-17.617,-6.978 -16.363,-8.128 -18.191,-9.356C-18.35,-9.495 -18.541,-9.635 -18.779,-9.775C-18.998,-9.968 -19.221,-10.211 -19.451,-10.487C-19.441,-10.5 -19.432,-10.507 -19.422,-10.52C-15.666,-15.496 -12.35,-33.89 -10.189,-49.93C-8.539,-62.173 -2.498,-73.363 0.629,-81.513C1.803,-84.489 2.559,-87.086 2.535,-89.25C2.52,-90.65 1.367,-91.97 0,-92.982" style="fill:rgb(255,91,66);fill-rule:nonzero;"/>
        </g>
        <g transform="matrix(1,0,0,1,1052.9,5332.26)">
            <path d="M0,-9.204C-0.385,-9.247 -1.068,-7.947 -1.219,-5.988C-1.219,-5.988 -1.953,0.462 -1.988,1.275L-0.426,1.45C-0.301,0.644 0.135,-2.525 0.346,-4.515C0.465,-5.66 0.928,-8.843 0.889,-9.66C0.838,-10.654 0.252,-9.175 0,-9.204" style="fill:rgb(7,9,9);fill-rule:nonzero;"/>
        </g>
        <g transform="matrix(1,0,0,1,1055.34,5332.84)">
            <path d="M0,-24.922C-0.662,-24.557 -6.893,-26.268 -7.445,-25.633C-8.238,-24.724 -12.035,-6.789 -12.6,-6.014C-12.98,-5.493 -14.998,-5.278 -15.547,-5.101C-16.752,-4.709 -16.34,-2.821 -16.125,-2.571C-15.705,-2.083 -11.971,1.346 -9.529,-0.846C-8.717,-1.576 -7.965,-3.43 -7.189,-4.448C-6.662,-5.142 -6.027,-6.19 -5.145,-6.504C-4.57,-6.71 -3.664,-6.569 -3.664,-6.569C-2.871,-7.543 -1.902,-8.453 -1.674,-9.406C-1.346,-10.768 -1.787,-12.169 -1.99,-12.469C-2.146,-12.7 0.664,-25.287 0,-24.922" style="fill:rgb(1,141,253);fill-rule:nonzero;"/>
        </g>
        <g transform="matrix(1,0,0,1,1052.13,5332.06)">
            <path d="M0,-7.207C-0.301,-6.957 -0.73,-6.703 -1.234,-6.521C-2.367,-6.112 -3.617,-5.312 -4.525,-4.368C-5.164,-3.708 -6.273,-1.37 -6.826,-0.735C-7.252,-0.246 -9.42,-0.01 -10.709,-1.125C-11.818,-2.085 -13.109,-3.475 -13.141,-3.187C-13.174,-2.885 -13.127,-2.04 -12.912,-1.79C-12.492,-1.302 -8.758,2.127 -6.316,-0.064C-5.504,-0.795 -4.787,-2.682 -3.977,-3.667C-3.441,-4.318 -2.814,-5.408 -1.932,-5.723C-1.357,-5.929 -0.451,-5.788 -0.451,-5.788C0.342,-6.762 1.48,-7.676 1.6,-8.651C1.654,-9.095 1.719,-9.334 1.58,-9.277C1.275,-9.15 0.674,-7.769 0,-7.207" style="fill:rgb(7,9,9);fill-rule:nonzero;"/>
        </g>
        <g transform="matrix(1,0,0,1,1078.4,5185.5)">
            <path d="M0,38.532C0.299,34.903 -4.238,24.794 -4.592,22.632C-5.391,17.737 -5.77,18.15 -4.965,11.849C-4.256,6.282 -2.244,-0.672 -2.271,-5.507C-2.316,-13.352 -4.715,-19.213 -9.082,-18.168C-10.701,-17.781 -13.314,-10.87 -17.174,-8.858C-22.344,-6.16 -29.092,-5.842 -29.443,-2.236C-29.893,2.349 -25.699,7.643 -24.154,13.403C-23.598,15.47 -21.527,22.443 -22.115,29.866C-23.094,42.214 -27.625,49.803 -26.029,52.152C-22.234,57.745 -1.178,53.325 -1.178,53.325C1.234,52.748 -0.918,49.719 0,38.532" style="fill:white;fill-rule:nonzero;"/>
        </g>
        <g transform="matrix(1,0,0,1,1103.73,5310.18)">
            <path d="M0,1.262C-1.23,-0.716 -2.262,-2.708 -3.645,-4.494C-3.949,-4.884 -4.768,-5.629 -5.439,-6.229L-6.033,-5.541C-5.463,-5.102 -4.768,-4.671 -4.418,-4.221C-3.035,-2.434 -1.006,0.562 -0.557,2.233C0.064,4.533 -1.486,7.491 -0.297,7.305C0.141,7.236 0.613,7.042 1.057,6.684C0.879,6.755 0.695,6.807 0.506,6.836C-0.686,7.024 1.154,3.118 0,1.262" style="fill:white;fill-rule:nonzero;"/>
        </g>
        <g transform="matrix(1,0,0,1,1105.66,5315.03)">
            <path d="M0,-11.965C-0.451,-13.721 -1.078,-14.3 -2.998,-14.14C-3.377,-14.11 -3.818,-13.787 -4.363,-13.669C-4.369,-13.684 -4.371,-13.696 -4.377,-13.712C-4.408,-13.799 -4.562,-13.861 -4.6,-13.948C-4.617,-13.967 -7.393,-11.06 -7.393,-11.06C-6.719,-10.461 -5.898,-9.717 -5.598,-9.325C-4.219,-7.534 -3.203,-5.527 -1.984,-3.535C-0.84,-1.667 -2.773,2.335 -1.559,2.124C-1.367,2.091 -1.18,2.035 -0.996,1.96C0.277,0.931 1.361,-1.381 0.939,-5.834C0.627,-9.143 0.713,-9.175 0,-11.965" style="fill:white;fill-rule:nonzero;"/>
        </g>
        <g transform="matrix(1,0,0,1,1109.26,5306.26)">
            <path d="M0,-1.483C-0.771,-2.314 -3.063,-4.519 -3.76,-4.906C-4.607,-5.376 -3.686,-4.09 -3.84,-3.883C-4.074,-3.563 -3.352,-2.286 -1.811,-1.141C-1.811,-1.141 2.557,3.442 3.209,3.893L4.24,2.941C3.637,2.413 1.334,-0.049 0,-1.483" style="fill:rgb(7,9,9);fill-rule:nonzero;"/>
        </g>
        <g transform="matrix(1,0,0,1,1106.74,5305.1)">
            <path d="M0,1.367C0.127,0.751 0.711,0.019 0.711,0.019C0.316,-1.188 0.062,-2.516 -0.605,-3.21C-1.564,-4.203 -2.949,-4.537 -3.303,-4.512C-3.574,-4.492 -12.076,-11.832 -12.115,-11.056C-12.156,-10.279 -15.504,-6.233 -15.266,-5.414C-14.924,-4.242 -4.018,7.407 -3.668,8.308C-3.434,8.914 -4.072,10.74 -4.207,11.318C-4.506,12.591 -2.732,13.199 -2.416,13.137C-1.795,13.017 2.967,11.474 2.414,8.179C2.23,7.079 1.088,5.456 0.645,4.241C0.344,3.415 -0.193,2.311 0,1.367" style="fill:rgb(1,141,253);fill-rule:nonzero;"/>
        </g>
        <g transform="matrix(1,0,0,1,1106.74,5313.2)">
            <path d="M0,-6.73C0.127,-7.346 0.711,-8.078 0.711,-8.078C0.316,-9.285 0.148,-10.764 -0.598,-11.375C-0.937,-11.651 -1.102,-11.832 -1.125,-11.681C-1.178,-11.345 -0.348,-10.098 -0.23,-9.21C-0.178,-8.814 -0.189,-8.302 -0.299,-7.761C-0.547,-6.545 -0.609,-4.501 -0.299,-3.207C-0.082,-2.3 1.359,-0.631 1.598,0.187C1.783,0.817 0.859,2.862 -0.729,3.43C-2.096,3.918 -3.91,4.346 -3.688,4.523C-3.455,4.708 -2.732,5.102 -2.416,5.04C-1.795,4.92 2.967,3.377 2.414,0.082C2.23,-1.018 1.041,-2.627 0.645,-3.856C0.383,-4.666 -0.193,-5.786 0,-6.73" style="fill:rgb(7,9,9);fill-rule:nonzero;"/>
        </g>
        <g transform="matrix(1,0,0,1,1072.57,5200.55)">
            <path d="M0,7.595C-0.992,2.427 -0.197,3.109 0.605,-3.192C1.316,-8.759 3.328,-15.713 3.299,-20.548C3.254,-28.392 0.855,-34.254 -3.512,-33.209C-5.131,-32.822 -7.312,-24.632 -11.172,-22.618C-16.342,-19.922 -22.668,-20.97 -23.021,-17.364C-23.469,-12.779 -20.129,-7.397 -18.582,-1.637C-18.053,0.338 -14.771,6.923 -15.059,14.032C-15.572,26.732 -20.877,33.846 -19.238,36.258C-15.441,41.849 3.98,38.474 3.98,38.474C6.395,37.896 4.676,33.185 4.193,22.125C4.037,18.535 0.598,10.707 0,7.595" style="fill:white;fill-rule:nonzero;"/>
        </g>
        <g transform="matrix(1,0,0,1,1070.6,5205.31)">
            <path d="M0,-35.042C-3.268,-36.109 -3.797,-29.257 -5.729,-19.691C-7.658,-10.125 -10.26,-1.468 -6.992,-0.4C-5.955,-0.063 -5.254,1.067 -4.039,-0.083C-1.426,-2.559 1.76,-9.665 3.078,-16.197C5.01,-25.764 3.268,-33.975 0,-35.042" style="fill:white;fill-rule:nonzero;"/>
        </g>
        <g transform="matrix(1,0,0,1,1083.92,5170.04)">
            <path d="M0,-14.461C-3.957,-24.291 -2.99,-25.068 -5.684,-31.707C-7.301,-35.691 -11.779,-39.505 -15.488,-39.914C-20.029,-40.414 -24.939,-39.949 -28.131,-36.367C-32.787,-31.145 -33.715,-29.507 -34.533,-24.145C-34.643,-23.424 -31.176,-22.483 -27.857,-23.047C-25.1,-23.513 -24.379,-23.726 -24.271,-23.389C-23.559,-21.137 -22.41,-19.267 -19.725,-19C-18.615,-18.89 -17.512,-13.531 -17.369,-13.476C-15.6,-12.788 -22.145,-3.273 -21.729,4.488C-21.584,7.188 -13.717,7.73 -13.797,10.282C-14.041,18.031 -18.342,22.265 -17.182,21.959C-14.145,21.16 -7.273,25.953 -1.984,20.077C-0.223,18.122 3.965,19.109 5.053,13.978C6.049,9.285 5.373,-1.119 5.004,-2.648C3.795,-7.652 0.713,-12.693 0,-14.461" style="fill:rgb(15,18,43);fill-rule:nonzero;"/>
        </g>
        <g transform="matrix(1,0,0,1,1081.61,5167.88)">
            <path d="M0,-12.884C-3.793,-22.339 -1.504,-23.23 -4.084,-29.614C-5.633,-33.446 -9.928,-37.113 -13.484,-37.505C-17.838,-37.986 -22.549,-37.536 -25.611,-34.091C-30.08,-29.064 -31.127,-27.587 -31.873,-22.423C-31.971,-21.749 -30.988,-21.125 -26.984,-21.486C-24.039,-21.751 -21.551,-23.525 -21.447,-23.197C-21.152,-22.267 -20.986,-20.661 -20.324,-19.511C-19.447,-17.986 -18.029,-16.956 -17.512,-16.406C-17.262,-16.142 -15.209,-9.706 -15.129,-9.462C-14.328,-7.015 -19.85,1.198 -18.785,7.249C-18.543,8.62 -11.502,7.018 -11.291,8.454C-10.346,14.938 -14.775,23.593 -13.553,23.269C-10.572,22.481 -3.102,25.102 0.559,21.524C2.756,19.378 5.65,18.406 6.502,15.438C6.986,13.751 7.051,1.906 5.965,-2.206C4.781,-6.682 0.355,-11.998 0,-12.884" style="fill:rgb(15,18,43);fill-rule:nonzero;"/>
        </g>
        <g transform="matrix(-0.957151,-0.28959,-0.28959,0.957151,1047.52,5202.18)">
            <path d="M-3.419,-3.519C6.45,-2.68 10.599,-5.873 12.259,-2.763C15.562,3.43 7.727,2.015 -3.419,2.659C-13.312,3.231 -18.612,0.552 -19.069,-2.905C-19.527,-6.359 -12.883,-4.324 -3.419,-3.519" style="fill:white;fill-rule:nonzero;"/>
        </g>
        <g transform="matrix(1,0,0,1,999.088,5077.93)">
            <path d="M0,255.621L-76.981,255.621C-95.93,255.621 -111.29,240.262 -111.29,221.312L-111.29,34.309C-111.29,15.361 -95.93,0 -76.981,0L0,0C18.948,0 34.31,15.361 34.31,34.309L34.31,221.312C34.31,240.262 18.948,255.621 0,255.621" style="fill:rgb(112,191,254);fill-rule:nonzero;"/>
        </g>
        <g transform="matrix(1,0,0,1,953.46,5091.88)">
            <path d="M0,218.124L2.132,218.021C1.655,212.318 1.056,205.395 0.478,198.699C-0.102,192.005 -0.7,185.084 -1.177,179.385C-1.212,178.957 -1.692,176.945 -2.774,172.436C-6.955,155.023 -18.061,108.769 -15.517,96.316C-15.082,94.186 -14.684,91.875 -14.263,89.429C-12.713,80.43 -10.956,70.23 -6.385,63.097C-4.989,60.917 -3.278,58.771 -1.625,56.695C-1.024,55.943 -0.404,55.164 0.194,54.393C6.51,46.255 11.444,37.571 16.218,29.174C17.63,26.687 19.091,24.116 20.271,21.513C23.44,14.523 24.65,7.285 23.868,0L21.739,0.132C22.497,7.192 21.324,14.208 18.252,20.984C17.098,23.529 15.653,26.072 14.256,28.53C9.51,36.883 4.601,45.519 -1.646,53.568C-2.238,54.332 -2.855,55.107 -3.452,55.855C-5.131,57.963 -6.867,60.141 -8.306,62.387C-13.028,69.759 -14.81,80.098 -16.381,89.219C-16.8,91.654 -17.196,93.955 -17.628,96.067C-20.227,108.789 -9.075,155.24 -4.876,172.727C-4.017,176.307 -3.338,179.135 -3.309,179.487C-2.832,185.188 -2.233,192.111 -1.654,198.805C-1.075,205.5 -0.477,212.424 0,218.124" style="fill:rgb(153,153,153);fill-rule:nonzero;"/>
        </g>
        <g transform="matrix(1,0,0,1,947.767,5309.42)">
            <path d="M0,1.06C0,3.206 3.173,4.944 6.974,4.944C10.775,4.944 13.948,3.206 13.948,1.06L13.948,-0C13.948,-2.145 10.775,-3.884 6.974,-3.884C3.173,-3.884 0,-2.145 0,-0L0,1.06Z" style="fill:rgb(179,179,179);fill-rule:nonzero;"/>
        </g>
        <g transform="matrix(1,0,0,1,958.477,5321.05)">
            <path d="M0,-7.915C-1.778,-5.735 -1.203,-3.238 1.284,-2.336L15.921,2.97C18.408,3.872 21.866,2.836 23.644,0.656L24.18,-0.001C25.958,-2.18 25.383,-4.678 22.896,-5.579L8.259,-10.886C5.771,-11.787 2.314,-10.752 0.536,-8.572L0,-7.915Z" style="fill:white;fill-rule:nonzero;"/>
        </g>
        <g transform="matrix(1,0,0,1,982.6,5309.47)">
            <path d="M0,11.648C1.536,9.765 0.764,7.509 -1.723,6.609L-16.359,1.301C-18.847,0.4 -22.107,1.195 -23.644,3.076L-23.587,3.007C-21.81,0.828 -18.352,-0.207 -15.864,0.694L-1.228,6.001C1.26,6.902 1.835,9.4 0.057,11.579L-0.168,11.855L0,11.648Z" style="fill:rgb(179,179,179);fill-rule:nonzero;"/>
        </g>
        <g transform="matrix(1,0,0,1,958.477,5324.9)">
            <path d="M0,-11.766L0.016,-11.787C-1.52,-9.904 -0.748,-7.648 1.739,-6.745L16.376,-1.439C18.863,-0.537 22.124,-1.332 23.66,-3.214L23.644,-3.195C21.866,-1.015 18.408,0.021 15.921,-0.881L1.284,-6.187C-1.203,-7.089 -1.778,-9.586 0,-11.766" style="fill:rgb(179,179,179);fill-rule:nonzero;"/>
        </g>
        <g transform="matrix(1,0,0,1,952.125,5313.11)">
            <path d="M0,-1.878C0,-0.148 5.014,3.986 7.608,3.986L15.007,1.968C17.603,1.968 9.59,-0.148 9.59,-1.878L9.59,-2.732C9.59,-4.462 7.391,-5.864 4.795,-5.864C2.199,-5.864 0,-4.462 0,-2.732L0,-1.878Z" style="fill:white;fill-rule:nonzero;"/>
        </g>
        <g transform="matrix(1,0,0,1,950.928,5297.51)">
            <path d="M0,5.554C1.514,7.569 5.418,8.19 8.772,6.922C12.127,5.654 13.578,3.008 12.064,0.994L11.317,-0.001C9.804,-2.014 5.898,-2.636 2.545,-1.369C-0.811,-0.1 -2.261,2.545 -0.748,4.559L0,5.554Z" style="fill:rgb(179,179,179);fill-rule:nonzero;"/>
        </g>
        <g transform="matrix(1,0,0,1,962.322,5301.32)">
            <path d="M0,0.635C-0.031,3.275 2.238,5.428 5.069,5.445L21.729,5.545C24.561,5.562 26.882,3.437 26.913,0.798L26.923,-0C26.954,-2.638 24.685,-4.793 21.854,-4.809L5.192,-4.909C2.361,-4.927 0.041,-2.801 0.009,-0.161L0,0.635Z" style="fill:white;fill-rule:nonzero;"/>
        </g>
        <g transform="matrix(1,0,0,1,989.244,5296.65)">
            <path d="M0,4.761C0.027,2.482 -2.246,0.619 -5.077,0.603L-21.738,0.503C-24.569,0.486 -26.887,2.32 -26.914,4.6L-26.913,4.516C-26.881,1.876 -24.561,-0.25 -21.729,-0.232L-5.068,-0.133C-2.237,-0.116 0.032,2.038 0.001,4.677L-0.003,5.011L0,4.761Z" style="fill:rgb(179,179,179);fill-rule:nonzero;"/>
        </g>
        <g transform="matrix(1,0,0,1,962.322,5306.86)">
            <path d="M0,-4.904L0,-4.927C-0.027,-2.649 2.246,-0.788 5.077,-0.77L21.738,-0.671C24.569,-0.653 26.886,-2.487 26.914,-4.766L26.913,-4.741C26.882,-2.102 24.561,0.023 21.729,0.006L5.069,-0.094C2.238,-0.111 -0.031,-2.264 0,-4.904" style="fill:rgb(179,179,179);fill-rule:nonzero;"/>
        </g>
        <g transform="matrix(1,0,0,1,955.228,5299.97)">
            <path d="M0,2.371C1.221,3.996 8.633,6.178 10.923,5.312L15.908,0.993C18.198,0.128 9.515,0.86 8.294,-0.765L7.691,-1.567C6.471,-3.191 3.625,-3.807 1.334,-2.941C-0.956,-2.075 -1.823,-0.056 -0.604,1.568L0,2.371Z" style="fill:white;fill-rule:nonzero;"/>
        </g>
        <g transform="matrix(1,0,0,1,950.305,5280.97)">
            <path d="M0,6.538C1.454,8.909 5.204,9.641 8.427,8.147C11.648,6.655 13.042,3.542 11.588,1.171L10.871,-0C9.417,-2.371 5.666,-3.103 2.444,-1.609C-0.777,-0.117 -2.172,2.996 -0.718,5.367L0,6.538Z" style="fill:rgb(179,179,179);fill-rule:nonzero;"/>
        </g>
        <g transform="matrix(1,0,0,1,961.249,5285.46)">
            <path d="M0,0.747C-0.03,3.853 2.149,6.388 4.87,6.408L20.872,6.525C23.592,6.546 25.82,4.044 25.851,0.937L25.86,-0.001C25.89,-3.107 23.71,-5.642 20.99,-5.662L4.988,-5.779C2.269,-5.799 0.04,-3.297 0.009,-0.19L0,0.747Z" style="fill:white;fill-rule:nonzero;"/>
        </g>
        <g transform="matrix(1,0,0,1,987.107,5279.96)">
            <path d="M0,5.603C0.026,2.92 -2.156,0.729 -4.876,0.708L-20.879,0.59C-23.598,0.571 -25.823,2.729 -25.85,5.413L-25.85,5.313C-25.818,2.207 -23.59,-0.294 -20.87,-0.275L-4.868,-0.158C-2.148,-0.137 0.031,2.397 0.002,5.503L-0.002,5.897L0,5.603Z" style="fill:rgb(179,179,179);fill-rule:nonzero;"/>
        </g>
        <g transform="matrix(1,0,0,1,961.249,5291.98)">
            <path d="M0,-5.77L0.001,-5.799C-0.025,-3.117 2.157,-0.925 4.877,-0.905L20.88,-0.788C23.599,-0.767 25.824,-2.926 25.851,-5.609L25.851,-5.58C25.82,-2.473 23.592,0.029 20.872,0.008L4.869,-0.109C2.149,-0.129 -0.03,-2.664 0,-5.77" style="fill:rgb(179,179,179);fill-rule:nonzero;"/>
        </g>
        <g transform="matrix(1,0,0,1,954.435,5283.87)">
            <path d="M0,2.791C1.172,4.703 8.292,7.271 10.492,6.252L15.28,1.17C17.479,0.15 9.139,1.013 7.967,-0.899L7.388,-1.844C6.216,-3.756 3.482,-4.48 1.281,-3.46C-0.918,-2.442 -1.751,-0.065 -0.579,1.847L0,2.791Z" style="fill:white;fill-rule:nonzero;"/>
        </g>
        <g transform="matrix(1,0,0,1,947.371,5266.74)">
            <path d="M0,7.044C1.811,9.03 5.6,9.296 8.506,7.609C11.413,5.923 12.266,2.967 10.455,0.981L9.561,-0C7.75,-1.987 3.962,-2.252 1.055,-0.565C-1.852,1.12 -2.705,4.076 -0.894,6.064L0,7.044Z" style="fill:rgb(179,179,179);fill-rule:nonzero;"/>
        </g>
        <g transform="matrix(1,0,0,1,957.863,5268.07)">
            <path d="M0,3.397C0.48,6.204 3.028,8.26 5.691,7.994L21.363,6.414C24.026,6.145 25.797,3.653 25.316,0.847L25.172,0C24.692,-2.806 22.145,-4.863 19.481,-4.595L3.81,-3.017C1.146,-2.749 -0.624,-0.256 -0.145,2.55L0,3.397Z" style="fill:white;fill-rule:nonzero;"/>
        </g>
        <g transform="matrix(1,0,0,1,983.051,5265.76)">
            <path d="M0,2.402C-0.414,-0.022 -2.909,-1.77 -5.572,-1.501L-21.244,0.078C-23.908,0.346 -25.73,2.529 -25.316,4.952L-25.332,4.863C-25.812,2.056 -24.041,-0.436 -21.378,-0.704L-5.706,-2.283C-3.043,-2.55 -0.495,-0.494 -0.016,2.312L0.045,2.668L0,2.402Z" style="fill:rgb(179,179,179);fill-rule:nonzero;"/>
        </g>
        <g transform="matrix(1,0,0,1,957.863,5273.75)">
            <path d="M0,-2.287L-0.004,-2.312C0.41,0.111 2.905,1.858 5.568,1.59L21.24,0.011C23.903,-0.258 25.727,-2.439 25.312,-4.863L25.316,-4.837C25.797,-2.031 24.026,0.461 21.363,0.73L5.691,2.31C3.028,2.576 0.48,0.52 0,-2.287" style="fill:rgb(179,179,179);fill-rule:nonzero;"/>
        </g>
        <g transform="matrix(1,0,0,1,951.273,5268.83)">
            <path d="M0,3.757C1.46,5.36 8.845,6.927 10.829,5.777L14.68,0.686C16.664,-0.466 8.647,1.191 7.187,-0.411L6.467,-1.202C5.006,-2.804 2.213,-3.17 0.229,-2.018C-1.756,-0.867 -2.182,1.364 -0.722,2.966L0,3.757Z" style="fill:white;fill-rule:nonzero;"/>
        </g>
        <g transform="matrix(1,0,0,1,943.367,5253.27)">
            <path d="M0,6.25C1.668,8.014 5.157,8.248 7.835,6.752C10.513,5.256 11.299,2.633 9.63,0.87L8.807,-0.001C7.139,-1.764 3.65,-1.998 0.972,-0.503C-1.705,0.994 -2.491,3.617 -0.823,5.38L0,6.25Z" style="fill:rgb(179,179,179);fill-rule:nonzero;"/>
        </g>
        <g transform="matrix(1,0,0,1,953.032,5254.45)">
            <path d="M0,3.015C0.442,5.506 2.788,7.331 5.241,7.093L19.677,5.692C22.13,5.454 23.761,3.243 23.318,0.753L23.186,0C22.743,-2.49 20.396,-4.316 17.943,-4.078L3.509,-2.677C1.056,-2.439 -0.575,-0.227 -0.134,2.264L0,3.015Z" style="fill:white;fill-rule:nonzero;"/>
        </g>
        <g transform="matrix(1,0,0,1,976.231,5252.39)">
            <path d="M0,2.133C-0.382,-0.017 -2.68,-1.569 -5.133,-1.331L-19.567,0.071C-22.021,0.308 -23.7,2.245 -23.318,4.396L-23.333,4.318C-23.774,1.826 -22.144,-0.386 -19.69,-0.624L-5.256,-2.024C-2.803,-2.263 -0.456,-0.436 -0.015,2.054L0.042,2.368L0,2.133Z" style="fill:rgb(179,179,179);fill-rule:nonzero;"/>
        </g>
        <g transform="matrix(1,0,0,1,953.032,5259.49)">
            <path d="M0,-2.03L-0.004,-2.053C0.378,0.098 2.675,1.649 5.128,1.41L19.563,0.01C22.017,-0.229 23.696,-2.166 23.314,-4.316L23.318,-4.292C23.761,-1.802 22.13,0.409 19.677,0.647L5.241,2.048C2.788,2.286 0.442,0.461 0,-2.03" style="fill:rgb(179,179,179);fill-rule:nonzero;"/>
        </g>
        <g transform="matrix(1,0,0,1,946.962,5255.12)">
            <path d="M0,3.334C1.345,4.756 8.146,6.147 9.975,5.126L13.521,0.607C15.349,-0.414 7.965,1.057 6.62,-0.365L5.956,-1.067C4.61,-2.488 2.038,-2.813 0.21,-1.791C-1.618,-0.77 -2.01,1.21 -0.665,2.632L0,3.334Z" style="fill:white;fill-rule:nonzero;"/>
        </g>
        <g transform="matrix(1,0,0,1,941.865,5240.72)">
            <path d="M0,5.597C1.485,7.176 4.592,7.386 6.976,6.046C9.36,4.706 10.059,2.358 8.574,0.78L7.841,0C6.355,-1.579 3.25,-1.789 0.865,-0.449C-1.519,0.891 -2.218,3.24 -0.733,4.82L0,5.597Z" style="fill:rgb(179,179,179);fill-rule:nonzero;"/>
        </g>
        <g transform="matrix(1,0,0,1,950.47,5241.77)">
            <path d="M0,2.7C0.394,4.929 2.483,6.564 4.667,6.351L17.521,5.097C19.704,4.884 21.155,2.904 20.763,0.674L20.644,0.001C20.25,-2.229 18.161,-3.864 15.977,-3.651L3.124,-2.397C0.94,-2.183 -0.511,-0.203 -0.118,2.027L0,2.7Z" style="fill:white;fill-rule:nonzero;"/>
        </g>
        <g transform="matrix(1,0,0,1,971.126,5239.93)">
            <path d="M0,1.912C-0.34,-0.015 -2.386,-1.403 -4.569,-1.189L-17.423,0.064C-19.606,0.278 -21.102,2.012 -20.762,3.937L-20.774,3.867C-21.168,1.637 -19.716,-0.343 -17.532,-0.557L-4.68,-1.811C-2.495,-2.025 -0.406,-0.389 -0.013,1.841L0.037,2.122L0,1.912Z" style="fill:rgb(179,179,179);fill-rule:nonzero;"/>
        </g>
        <g transform="matrix(1,0,0,1,950.47,5246.29)">
            <path d="M0,-1.817L-0.003,-1.838C0.337,0.088 2.383,1.476 4.567,1.263L17.419,0.009C19.604,-0.205 21.099,-1.939 20.759,-3.864L20.763,-3.843C21.155,-1.613 19.704,0.367 17.521,0.579L4.667,1.834C2.483,2.047 0.394,0.412 0,-1.817" style="fill:rgb(179,179,179);fill-rule:nonzero;"/>
        </g>
        <g transform="matrix(1,0,0,1,945.065,5242.38)">
            <path d="M0,2.985C1.197,4.257 7.253,5.504 8.881,4.589L12.039,0.545C13.667,-0.37 7.092,0.946 5.895,-0.327L5.303,-0.955C4.105,-2.229 1.815,-2.519 0.187,-1.604C-1.44,-0.69 -1.789,1.084 -0.591,2.357L0,2.985Z" style="fill:white;fill-rule:nonzero;"/>
        </g>
        <g transform="matrix(1,0,0,1,938.745,5228.81)">
            <path d="M0,5.279C1.335,6.913 4.404,7.245 6.893,6.003C9.381,4.758 10.285,2.442 8.949,0.807L8.29,0.001C6.955,-1.633 3.886,-1.966 1.397,-0.722C-1.091,0.521 -1.995,2.838 -0.659,4.472L0,5.279Z" style="fill:rgb(179,179,179);fill-rule:nonzero;"/>
        </g>
        <g transform="matrix(1,0,0,1,947.461,5230.7)">
            <path d="M0,1.883C0.192,4.124 2.124,5.838 4.313,5.711L17.198,4.966C19.388,4.84 21.007,2.919 20.814,0.678L20.756,0.001C20.563,-2.24 18.633,-3.955 16.443,-3.828L3.559,-3.082C1.369,-2.955 -0.251,-1.035 -0.059,1.206L0,1.883Z" style="fill:white;fill-rule:nonzero;"/>
        </g>
        <g transform="matrix(1,0,0,1,968.223,5227.95)">
            <path d="M0,2.822C-0.166,0.886 -2.075,-0.58 -4.266,-0.453L-17.15,0.294C-19.34,0.42 -20.98,2.092 -20.813,4.027L-20.82,3.956C-21.013,1.715 -19.393,-0.205 -17.203,-0.332L-4.318,-1.078C-2.129,-1.205 -0.198,0.509 -0.006,2.751L0.019,3.034L0,2.822Z" style="fill:rgb(179,179,179);fill-rule:nonzero;"/>
        </g>
        <g transform="matrix(1,0,0,1,947.461,5235.31)">
            <path d="M0,-2.729L-0.002,-2.75C0.164,-0.815 2.074,0.653 4.264,0.526L17.149,-0.22C19.338,-0.347 20.979,-2.019 20.812,-3.955L20.814,-3.934C21.007,-1.693 19.388,0.228 17.198,0.354L4.312,1.099C2.124,1.226 0.192,-0.488 0,-2.729" style="fill:rgb(179,179,179);fill-rule:nonzero;"/>
        </g>
        <g transform="matrix(1,0,0,1,942.01,5230.64)">
            <path d="M0,2.622C1.077,3.939 6.984,5.423 8.685,4.572L12.182,0.659C13.881,-0.191 7.23,0.865 6.153,-0.452L5.621,-1.104C4.545,-2.422 2.294,-2.801 0.596,-1.952C-1.104,-1.104 -1.608,0.653 -0.531,1.971L0,2.622Z" style="fill:white;fill-rule:nonzero;"/>
        </g>
        <g transform="matrix(1,0,0,1,936.182,5216.84)">
            <path d="M0,5.279C1.335,6.913 4.404,7.245 6.893,6.002C9.381,4.758 10.285,2.441 8.95,0.807L8.291,-0C6.955,-1.634 3.887,-1.966 1.397,-0.722C-1.091,0.52 -1.994,2.838 -0.659,4.472L0,5.279Z" style="fill:rgb(179,179,179);fill-rule:nonzero;"/>
        </g>
        <g transform="matrix(1,0,0,1,944.897,5218.74)">
            <path d="M0,1.882C0.192,4.123 2.124,5.837 4.313,5.71L17.198,4.964C19.388,4.837 21.007,2.917 20.814,0.676L20.757,0C20.563,-2.241 18.633,-3.955 16.443,-3.829L3.559,-3.083C1.368,-2.955 -0.25,-1.036 -0.058,1.205L0,1.882Z" style="fill:white;fill-rule:nonzero;"/>
        </g>
        <g transform="matrix(1,0,0,1,965.66,5215.99)">
            <path d="M0,2.823C-0.166,0.886 -2.076,-0.579 -4.266,-0.453L-17.15,0.293C-19.34,0.419 -20.98,2.092 -20.814,4.027L-20.82,3.956C-21.014,1.715 -19.395,-0.204 -17.204,-0.332L-4.319,-1.078C-2.13,-1.204 -0.199,0.51 -0.006,2.751L0.018,3.034L0,2.823Z" style="fill:rgb(179,179,179);fill-rule:nonzero;"/>
        </g>
        <g transform="matrix(1,0,0,1,944.897,5223.35)">
            <path d="M0,-2.729L-0.001,-2.75C0.165,-0.815 2.074,0.652 4.265,0.525L17.149,-0.22C19.339,-0.347 20.979,-2.02 20.812,-3.955L20.814,-3.935C21.007,-1.694 19.388,0.226 17.198,0.353L4.313,1.099C2.124,1.226 0.192,-0.488 0,-2.729" style="fill:rgb(179,179,179);fill-rule:nonzero;"/>
        </g>
        <g transform="matrix(1,0,0,1,939.446,5218.68)">
            <path d="M0,2.622C1.077,3.94 6.985,5.423 8.685,4.573L12.183,0.659C13.882,-0.19 7.23,0.866 6.153,-0.452L5.622,-1.103C4.545,-2.421 2.294,-2.801 0.595,-1.952C-1.104,-1.103 -1.608,0.653 -0.531,1.972L0,2.622Z" style="fill:white;fill-rule:nonzero;"/>
        </g>
        <g transform="matrix(1,0,0,1,934.503,5206.31)">
            <path d="M0,5.279C1.276,6.913 4.209,7.245 6.587,6.002C8.965,4.758 9.829,2.441 8.553,0.807L7.923,-0C6.646,-1.634 3.714,-1.966 1.336,-0.723C-1.042,0.52 -1.906,2.838 -0.63,4.471L0,5.279Z" style="fill:rgb(179,179,179);fill-rule:nonzero;"/>
        </g>
        <g transform="matrix(1,0,0,1,942.832,5208.2)">
            <path d="M0,1.883C0.184,4.123 2.029,5.838 4.121,5.711L16.435,4.965C18.526,4.838 20.074,2.918 19.891,0.677L19.834,0C19.65,-2.24 17.805,-3.955 15.713,-3.828L3.4,-3.082C1.308,-2.956 -0.239,-1.035 -0.056,1.205L0,1.883Z" style="fill:white;fill-rule:nonzero;"/>
        </g>
        <g transform="matrix(1,0,0,1,962.672,5205.45)">
            <path d="M0,2.82C-0.158,0.884 -1.983,-0.581 -4.076,-0.454L-16.389,0.291C-18.48,0.418 -20.048,2.09 -19.89,4.026L-19.896,3.954C-20.079,1.713 -18.532,-0.207 -16.439,-0.333L-4.127,-1.079C-2.035,-1.206 -0.189,0.508 -0.006,2.749L0.018,3.033L0,2.82Z" style="fill:rgb(179,179,179);fill-rule:nonzero;"/>
        </g>
        <g transform="matrix(1,0,0,1,942.832,5212.81)">
            <path d="M0,-2.728L-0.002,-2.749C0.157,-0.814 1.982,0.653 4.074,0.526L16.387,-0.22C18.479,-0.347 20.047,-2.019 19.889,-3.955L19.891,-3.934C20.074,-1.693 18.526,0.227 16.435,0.354L4.121,1.1C2.029,1.227 0.184,-0.488 0,-2.728" style="fill:rgb(179,179,179);fill-rule:nonzero;"/>
        </g>
        <g transform="matrix(1,0,0,1,937.623,5208.14)">
            <path d="M0,2.623C1.028,3.941 6.674,5.423 8.299,4.574L11.641,0.66C13.265,-0.189 6.908,0.867 5.88,-0.451L5.371,-1.102C4.343,-2.42 2.192,-2.8 0.568,-1.951C-1.056,-1.102 -1.537,0.654 -0.508,1.973L0,2.623Z" style="fill:white;fill-rule:nonzero;"/>
        </g>
        <g transform="matrix(1,0,0,1,933.135,5196.32)">
            <path d="M0,4.451C1.241,5.828 4.094,6.107 6.407,5.059C8.721,4.012 9.562,2.058 8.319,0.681L7.707,0.002C6.465,-1.376 3.612,-1.656 1.3,-0.608C-1.014,0.439 -1.854,2.392 -0.613,3.77L0,4.451Z" style="fill:rgb(179,179,179);fill-rule:nonzero;"/>
        </g>
        <g transform="matrix(1,0,0,1,941.237,5197.92)">
            <path d="M0,1.586C0.179,3.475 1.974,4.92 4.009,4.813L15.987,4.184C18.022,4.077 19.528,2.459 19.35,0.57L19.295,0C19.116,-1.889 17.321,-3.334 15.285,-3.227L3.308,-2.598C1.271,-2.492 -0.233,-0.873 -0.054,1.016L0,1.586Z" style="fill:white;fill-rule:nonzero;"/>
        </g>
        <g transform="matrix(1,0,0,1,960.538,5195.6)">
            <path d="M0,2.376C-0.154,0.745 -1.93,-0.491 -3.966,-0.385L-15.943,0.244C-17.979,0.352 -19.504,1.761 -19.35,3.394L-19.354,3.332C-19.534,1.443 -18.029,-0.176 -15.993,-0.281L-4.016,-0.911C-1.979,-1.018 -0.185,0.428 -0.006,2.316L0.017,2.555L0,2.376Z" style="fill:rgb(179,179,179);fill-rule:nonzero;"/>
        </g>
        <g transform="matrix(1,0,0,1,941.237,5201.8)">
            <path d="M0,-2.301L-0.002,-2.319C0.153,-0.687 1.929,0.549 3.964,0.442L15.941,-0.187C17.977,-0.293 19.502,-1.703 19.348,-3.334L19.35,-3.317C19.528,-1.428 18.022,0.19 15.987,0.297L4.009,0.926C1.974,1.033 0.179,-0.412 0,-2.301" style="fill:rgb(179,179,179);fill-rule:nonzero;"/>
        </g>
        <g transform="matrix(1,0,0,1,936.17,5197.86)">
            <path d="M0,2.21C1.001,3.321 6.493,4.57 8.072,3.855L11.324,0.557C12.903,-0.158 6.721,0.73 5.72,-0.381L5.226,-0.929C4.225,-2.039 2.133,-2.36 0.553,-1.644C-1.027,-0.929 -1.496,0.551 -0.494,1.662L0,2.21Z" style="fill:white;fill-rule:nonzero;"/>
        </g>
        <g transform="matrix(1,0,0,1,934.127,5185.33)">
            <path d="M0,3.749C0.965,5.222 3.739,5.744 6.236,4.904C8.732,4.064 9.945,2.201 8.98,0.728L8.505,0.001C7.541,-1.472 4.766,-1.995 2.269,-1.155C-0.229,-0.315 -1.439,1.549 -0.476,3.021L0,3.749Z" style="fill:rgb(179,179,179);fill-rule:nonzero;"/>
        </g>
        <g transform="matrix(1,0,0,1,942.407,5188.61)">
            <path d="M0,-0.088C-0.188,1.802 1.312,3.388 3.351,3.457L15.351,3.865C17.39,3.934 19.195,2.46 19.384,0.571L19.441,0.001C19.63,-1.888 18.13,-3.476 16.09,-3.544L4.091,-3.952C2.052,-4.022 0.246,-2.547 0.057,-0.657L0,-0.088Z" style="fill:white;fill-rule:nonzero;"/>
        </g>
        <g transform="matrix(1,0,0,1,961.842,5184.77)">
            <path d="M0,3.905C0.163,2.273 -1.357,0.895 -3.396,0.825L-15.396,0.418C-17.436,0.348 -19.221,1.614 -19.384,3.245L-19.378,3.186C-19.189,1.297 -17.383,-0.178 -15.344,-0.109L-3.345,0.3C-1.305,0.368 0.195,1.956 0.007,3.844L-0.018,4.083L0,3.905Z" style="fill:rgb(179,179,179);fill-rule:nonzero;"/>
        </g>
        <g transform="matrix(1,0,0,1,942.407,5192.53)">
            <path d="M0,-4.003L0.002,-4.022C-0.161,-2.39 1.36,-1.011 3.399,-0.941L15.399,-0.534C17.437,-0.465 19.223,-1.731 19.386,-3.361L19.384,-3.344C19.195,-1.456 17.39,0.019 15.351,-0.05L3.351,-0.458C1.312,-0.527 -0.188,-2.113 0,-4.003" style="fill:rgb(179,179,179);fill-rule:nonzero;"/>
        </g>
        <g transform="matrix(1,0,0,1,937.271,5187.2)">
            <path d="M0,1.451C0.777,2.638 5.981,4.35 7.687,3.776L11.55,0.785C13.255,0.212 6.951,0.561 6.174,-0.626L5.79,-1.213C5.013,-2.401 3,-2.899 1.296,-2.324C-0.41,-1.751 -1.161,-0.323 -0.384,0.864L0,1.451Z" style="fill:white;fill-rule:nonzero;"/>
        </g>
        <g transform="matrix(1,0,0,1,934.562,5175)">
            <path d="M0,2.438C0.465,4.014 3.005,4.924 5.715,4.463C8.425,4.002 10.212,2.356 9.747,0.781L9.518,0C9.053,-1.576 6.513,-2.486 3.803,-2.025C1.092,-1.563 -0.694,0.083 -0.229,1.659L0,2.438Z" style="fill:rgb(179,179,179);fill-rule:nonzero;"/>
        </g>
        <g transform="matrix(1,0,0,1,942.828,5180.97)">
            <path d="M0,-2.883C-0.795,-1.066 0.156,0.7 2.125,1.061L13.71,3.185C15.679,3.546 17.92,2.365 18.715,0.549L18.955,-0C19.75,-1.817 18.799,-3.582 16.83,-3.944L5.245,-6.068C3.276,-6.429 1.036,-5.248 0.24,-3.432L0,-2.883Z" style="fill:white;fill-rule:nonzero;"/>
        </g>
        <g transform="matrix(1,0,0,1,961.758,5174.71)">
            <path d="M0,6.314C0.687,4.745 -0.353,3.18 -2.321,2.819L-13.906,0.697C-15.875,0.335 -18.027,1.314 -18.715,2.883L-18.689,2.825C-17.894,1.008 -15.653,-0.172 -13.685,0.189L-2.1,2.313C-0.131,2.674 0.82,4.44 0.025,6.256L-0.075,6.486L0,6.314Z" style="fill:rgb(179,179,179);fill-rule:nonzero;"/>
        </g>
        <g transform="matrix(1,0,0,1,942.828,5184.5)">
            <path d="M0,-6.413L0.008,-6.429C-0.679,-4.86 0.36,-3.296 2.329,-2.934L13.914,-0.81C15.883,-0.449 18.035,-1.43 18.723,-2.998L18.715,-2.981C17.92,-1.165 15.679,0.016 13.71,-0.345L2.125,-2.469C0.156,-2.83 -0.795,-4.596 0,-6.413" style="fill:rgb(179,179,179);fill-rule:nonzero;"/>
        </g>
        <g transform="matrix(1,0,0,1,937.771,5177.35)">
            <path d="M0,0.125C0.375,1.396 4.902,3.815 6.753,3.501L11.493,1.136C13.344,0.821 7.075,0.256 6.701,-1.016L6.516,-1.644C6.141,-2.914 4.337,-3.69 2.486,-3.375C0.636,-3.061 -0.561,-1.774 -0.186,-0.503L0,0.125Z" style="fill:white;fill-rule:nonzero;"/>
        </g>
        <g transform="matrix(1,0,0,1,937.305,5164.58)">
            <path d="M0,1.166C0,2.772 2.437,3.992 5.229,3.889C8.021,3.786 10.462,2.4 10.462,0.794L10.462,0.001C10.462,-1.606 8.025,-2.826 5.232,-2.723C2.439,-2.62 0,-1.235 0,0.372L0,1.166Z" style="fill:rgb(179,179,179);fill-rule:nonzero;"/>
        </g>
        <g transform="matrix(1,0,0,1,945.623,5172.71)">
            <path d="M0,-5.268C-1.307,-3.587 -0.885,-1.733 0.941,-1.124L11.693,2.451C13.521,3.058 16.061,2.189 17.368,0.508L17.763,0.002C19.069,-1.679 18.647,-3.535 16.82,-4.142L6.069,-7.718C4.242,-8.326 1.701,-7.456 0.395,-5.775L0,-5.268Z" style="fill:white;fill-rule:nonzero;"/>
        </g>
        <g transform="matrix(1,0,0,1,963.344,5164.54)">
            <path d="M0,8.223C1.129,6.771 0.562,5.102 -1.264,4.494L-12.016,0.918C-13.843,0.311 -16.238,0.994 -17.367,2.446L-17.326,2.393C-16.02,0.712 -13.479,-0.158 -11.651,0.45L-0.9,4.026C0.927,4.633 1.349,6.489 0.042,8.169L-0.123,8.381L0,8.223Z" style="fill:rgb(179,179,179);fill-rule:nonzero;"/>
        </g>
        <g transform="matrix(1,0,0,1,945.623,5175.75)">
            <path d="M0,-8.31L0.013,-8.326C-1.116,-6.874 -0.55,-5.206 1.277,-4.598L12.028,-1.022C13.855,-0.414 16.251,-1.098 17.38,-2.549L17.368,-2.534C16.061,-0.853 13.521,0.016 11.693,-0.591L0.941,-4.166C-0.885,-4.775 -1.307,-6.629 0,-8.31" style="fill:rgb(179,179,179);fill-rule:nonzero;"/>
        </g>
        <g transform="matrix(1,0,0,1,940.792,5167.26)">
            <path d="M0,-1.069C0,0.227 3.764,3.184 5.671,3.115L11.03,1.404C12.937,1.333 6.975,-0.029 6.975,-1.325L6.975,-1.965C6.975,-3.26 5.396,-4.253 3.488,-4.182C1.581,-4.112 0,-3.005 0,-1.709L0,-1.069Z" style="fill:white;fill-rule:nonzero;"/>
        </g>
        <g transform="matrix(1,0,0,1,940.356,5156.03)">
            <path d="M0,1.166C0,2.772 2.218,3.992 5.011,3.89C7.804,3.785 10.025,2.4 10.025,0.794L10.025,0.001C10.025,-1.605 7.807,-2.826 5.015,-2.722C2.222,-2.619 0,-1.234 0,0.373L0,1.166Z" style="fill:rgb(179,179,179);fill-rule:nonzero;"/>
        </g>
        <g transform="matrix(1,0,0,1,948.614,5164.17)">
            <path d="M0,-5.269C-1.308,-3.588 -0.886,-1.734 0.941,-1.126L11.692,2.45C13.52,3.057 16.061,2.188 17.367,0.507L17.762,0.001C19.068,-1.68 18.647,-3.535 16.82,-4.142L6.068,-7.718C4.241,-8.326 1.701,-7.457 0.394,-5.776L0,-5.269Z" style="fill:white;fill-rule:nonzero;"/>
        </g>
        <g transform="matrix(1,0,0,1,966.334,5156)">
            <path d="M0,8.219C1.129,6.768 0.563,5.1 -1.264,4.491L-12.016,0.916C-13.842,0.308 -16.238,0.991 -17.367,2.444L-17.326,2.39C-16.019,0.709 -13.479,-0.16 -11.651,0.448L-0.899,4.024C0.928,4.631 1.349,6.486 0.042,8.166L-0.123,8.379L0,8.219Z" style="fill:rgb(179,179,179);fill-rule:nonzero;"/>
        </g>
        <g transform="matrix(1,0,0,1,948.614,5167.21)">
            <path d="M0,-8.31L0.012,-8.326C-1.117,-6.874 -0.551,-5.205 1.276,-4.597L12.027,-1.02C13.854,-0.414 16.25,-1.097 17.379,-2.547L17.367,-2.534C16.061,-0.853 13.52,0.016 11.692,-0.591L0.941,-4.167C-0.886,-4.775 -1.308,-6.629 0,-8.31" style="fill:rgb(179,179,179);fill-rule:nonzero;"/>
        </g>
        <g transform="matrix(1,0,0,1,943.844,5158.71)">
            <path d="M0,-1.066C0,0.229 3.733,3.186 5.64,3.116L10.796,1.406C12.703,1.335 6.538,-0.026 6.538,-1.322L6.538,-1.962C6.538,-3.257 5.177,-4.252 3.27,-4.18C1.363,-4.11 0,-3.003 0,-1.707L0,-1.066Z" style="fill:white;fill-rule:nonzero;"/>
        </g>
        <g transform="matrix(1,0,0,1,947.33,5147.48)">
            <path d="M0,1.168C0,2.775 1.955,3.996 4.357,3.893C6.762,3.789 8.718,2.403 8.718,0.795L8.718,0.002C8.718,-1.606 6.764,-2.828 4.36,-2.724C1.957,-2.621 0,-1.234 0,0.373L0,1.168Z" style="fill:rgb(179,179,179);fill-rule:nonzero;"/>
        </g>
        <g transform="matrix(1,0,0,1,954.185,5155.62)">
            <path d="M0,-5.273C-1.124,-3.59 -0.762,-1.735 0.811,-1.127L10.063,2.453C11.636,3.06 13.822,2.19 14.947,0.508L15.287,0C16.411,-1.681 16.049,-3.538 14.477,-4.146L5.224,-7.724C3.651,-8.333 1.465,-7.461 0.34,-5.78L0,-5.273Z" style="fill:white;fill-rule:nonzero;"/>
        </g>
        <g transform="matrix(1,0,0,1,969.436,5147.45)">
            <path d="M0,8.228C0.972,6.775 0.484,5.105 -1.088,4.498L-10.341,0.918C-11.913,0.31 -13.976,0.995 -14.946,2.447L-14.911,2.394C-13.786,0.713 -11.6,-0.159 -10.027,0.45L-0.774,4.028C0.798,4.636 1.16,6.493 0.036,8.174L-0.106,8.387L0,8.228Z" style="fill:rgb(179,179,179);fill-rule:nonzero;"/>
        </g>
        <g transform="matrix(1,0,0,1,954.185,5158.66)">
            <path d="M0,-8.318L0.011,-8.333C-0.961,-6.881 -0.474,-5.21 1.099,-4.602L10.352,-1.024C11.924,-0.416 13.986,-1.1 14.958,-2.552L14.947,-2.537C13.822,-0.855 11.636,0.015 10.063,-0.592L0.811,-4.172C-0.762,-4.78 -1.124,-6.635 0,-8.318" style="fill:rgb(179,179,179);fill-rule:nonzero;"/>
        </g>
        <g transform="matrix(1,0,0,1,950.382,5150.16)">
            <path d="M0,-1.069C0,0.227 3.062,3.187 4.703,3.116L9.236,1.405C10.877,1.334 5.666,-0.028 5.666,-1.325L5.666,-1.965C5.666,-3.262 4.476,-4.256 2.834,-4.185C1.192,-4.115 0,-3.006 0,-1.71L0,-1.069Z" style="fill:white;fill-rule:nonzero;"/>
        </g>
        <g transform="matrix(1,0,0,1,952.56,5139.26)">
            <path d="M0,1.13C0,2.69 1.935,3.874 4.141,3.774C6.346,3.673 8.282,2.328 8.282,0.771L8.282,-0.001C8.282,-1.56 6.348,-2.744 4.143,-2.644C1.937,-2.544 0,-1.199 0,0.359L0,1.13Z" style="fill:rgb(179,179,179);fill-rule:nonzero;"/>
        </g>
        <g transform="matrix(1,0,0,1,958.915,5147.15)">
            <path d="M0,-5.113C-1.032,-3.482 -0.698,-1.682 0.744,-1.092L9.235,2.379C10.679,2.968 12.685,2.124 13.717,0.493L14.028,0.001C15.062,-1.631 14.729,-3.43 13.285,-4.02L4.794,-7.491C3.351,-8.081 1.345,-7.237 0.312,-5.606L0,-5.113Z" style="fill:white;fill-rule:nonzero;"/>
        </g>
        <g transform="matrix(1,0,0,1,972.911,5139.23)">
            <path d="M0,7.98C0.892,6.571 0.444,4.952 -0.999,4.362L-9.49,0.891C-10.933,0.3 -12.825,0.964 -13.717,2.373L-13.685,2.321C-12.651,0.69 -10.646,-0.154 -9.202,0.436L-0.711,3.907C0.732,4.497 1.065,6.296 0.032,7.928L-0.098,8.134L0,7.98Z" style="fill:rgb(179,179,179);fill-rule:nonzero;"/>
        </g>
        <g transform="matrix(1,0,0,1,958.915,5150.11)">
            <path d="M0,-8.067L0.01,-8.082C-0.882,-6.671 -0.435,-5.053 1.009,-4.463L9.5,-0.993C10.942,-0.403 12.835,-1.067 13.727,-2.474L13.717,-2.46C12.685,-0.829 10.679,0.015 9.235,-0.574L0.744,-4.046C-0.698,-4.635 -1.032,-6.435 0,-8.067" style="fill:rgb(179,179,179);fill-rule:nonzero;"/>
        </g>
        <g transform="matrix(1,0,0,1,955.612,5141.86)">
            <path d="M0,-1.035C0,0.222 2.716,3.092 4.222,3.024L8.444,1.364C9.95,1.296 5.23,-0.026 5.23,-1.283L5.23,-1.904C5.23,-3.163 4.122,-4.127 2.616,-4.058C1.11,-3.989 0,-2.914 0,-1.657L0,-1.035Z" style="fill:white;fill-rule:nonzero;"/>
        </g>
        <g transform="matrix(1,0,0,1,958.227,5130.23)">
            <path d="M0,1.122C0,2.67 1.45,3.845 3.485,3.745C5.522,3.645 6.974,2.311 6.974,0.765L6.974,-0C6.974,-1.547 5.524,-2.723 3.488,-2.623C1.452,-2.524 0,-1.19 0,0.358L0,1.122Z" style="fill:rgb(179,179,179);fill-rule:nonzero;"/>
        </g>
        <g transform="matrix(1,0,0,1,963.883,5138.06)">
            <path d="M0,-5.074C-0.952,-3.456 -0.646,-1.67 0.687,-1.084L8.527,2.36C9.858,2.945 11.711,2.108 12.664,0.488L12.952,0C13.905,-1.618 13.598,-3.403 12.266,-3.99L4.426,-7.433C3.094,-8.019 1.241,-7.181 0.288,-5.563L0,-5.074Z" style="fill:white;fill-rule:nonzero;"/>
        </g>
        <g transform="matrix(1,0,0,1,976.805,5130.2)">
            <path d="M0,7.918C0.822,6.521 0.41,4.912 -0.922,4.327L-8.762,0.884C-10.094,0.298 -11.841,0.957 -12.664,2.355L-12.634,2.303C-11.681,0.685 -9.828,-0.153 -8.496,0.433L-0.656,3.876C0.676,4.463 0.983,6.248 0.03,7.866L-0.09,8.071L0,7.918Z" style="fill:rgb(179,179,179);fill-rule:nonzero;"/>
        </g>
        <g transform="matrix(1,0,0,1,963.883,5140.99)">
            <path d="M0,-8.003L0.01,-8.019C-0.813,-6.621 -0.4,-5.013 0.932,-4.428L8.771,-0.984C10.104,-0.399 11.85,-1.058 12.673,-2.455L12.664,-2.441C11.711,-0.821 9.858,0.016 8.527,-0.569L0.687,-4.013C-0.646,-4.599 -0.952,-6.385 0,-8.003" style="fill:rgb(179,179,179);fill-rule:nonzero;"/>
        </g>
        <g transform="matrix(1,0,0,1,960.843,5132.81)">
            <path d="M0,-1.028C0,0.219 2.503,3.067 3.894,2.999L7.56,1.352C8.949,1.284 4.358,-0.027 4.358,-1.275L4.358,-1.891C4.358,-3.139 3.57,-4.095 2.181,-4.028C0.79,-3.961 0,-2.893 0,-1.645L0,-1.028Z" style="fill:white;fill-rule:nonzero;"/>
        </g>
        <g transform="matrix(1,0,0,1,962.15,5123.68)">
            <path d="M0,1.123C0,2.67 1.668,3.845 3.704,3.745C5.74,3.645 7.41,2.313 7.41,0.765L7.41,0C7.41,-1.547 5.742,-2.722 3.706,-2.622C1.67,-2.523 0,-1.19 0,0.359L0,1.123Z" style="fill:rgb(179,179,179);fill-rule:nonzero;"/>
        </g>
        <g transform="matrix(1,0,0,1,968.155,5131.51)">
            <path d="M0,-5.076C-0.952,-3.458 -0.646,-1.671 0.687,-1.086L8.526,2.358C9.858,2.944 11.711,2.106 12.664,0.487L12.952,-0.001C13.904,-1.618 13.598,-3.406 12.265,-3.991L4.426,-7.435C3.094,-8.02 1.241,-7.183 0.288,-5.564L0,-5.076Z" style="fill:white;fill-rule:nonzero;"/>
        </g>
        <g transform="matrix(1,0,0,1,981.076,5123.65)">
            <path d="M0,7.919C0.824,6.521 0.411,4.913 -0.922,4.328L-8.761,0.884C-10.093,0.299 -11.84,0.958 -12.663,2.356L-12.633,2.304C-11.68,0.685 -9.827,-0.152 -8.495,0.433L-0.656,3.877C0.677,4.462 0.983,6.25 0.031,7.867L-0.09,8.071L0,7.919Z" style="fill:rgb(179,179,179);fill-rule:nonzero;"/>
        </g>
        <g transform="matrix(1,0,0,1,968.155,5134.44)">
            <path d="M0,-8.004L0.009,-8.02C-0.813,-6.621 -0.401,-5.014 0.931,-4.428L8.771,-0.984C10.103,-0.4 11.85,-1.058 12.673,-2.455L12.664,-2.441C11.711,-0.822 9.858,0.016 8.526,-0.57L0.687,-4.014C-0.646,-4.599 -0.952,-6.386 0,-8.004" style="fill:rgb(179,179,179);fill-rule:nonzero;"/>
        </g>
        <g transform="matrix(1,0,0,1,965.201,5126.26)">
            <path d="M0,-1.032C0,0.216 2.461,3.066 3.851,2.996L7.538,1.35C8.928,1.282 4.359,-0.03 4.359,-1.278L4.359,-1.893C4.359,-3.141 3.571,-4.098 2.181,-4.03C0.791,-3.963 0,-2.896 0,-1.648L0,-1.032Z" style="fill:white;fill-rule:nonzero;"/>
        </g>
        <g transform="matrix(1,0,0,1,968.688,5117.34)">
            <path d="M0,0.975C0,2.321 1.326,3.343 3.051,3.256C4.775,3.169 6.103,2.009 6.103,0.664L6.103,-0.001C6.103,-1.346 4.776,-2.368 3.053,-2.282C1.328,-2.195 0,-1.036 0,0.311L0,0.975Z" style="fill:rgb(179,179,179);fill-rule:nonzero;"/>
        </g>
        <g transform="matrix(1,0,0,1,973.215,5124.15)">
            <path d="M0,-4.41C-0.808,-3.004 -0.547,-1.45 0.581,-0.941L7.22,2.054C8.348,2.563 9.917,1.834 10.724,0.427L10.968,0.002C11.774,-1.405 11.514,-2.96 10.386,-3.467L3.747,-6.464C2.619,-6.973 1.051,-6.244 0.243,-4.837L0,-4.41Z" style="fill:white;fill-rule:nonzero;"/>
        </g>
        <g transform="matrix(1,0,0,1,984.156,5117.31)">
            <path d="M0,6.885C0.697,5.67 0.348,4.272 -0.78,3.763L-7.419,0.768C-8.547,0.259 -10.027,0.832 -10.724,2.047L-10.698,2.002C-9.891,0.595 -8.322,-0.134 -7.194,0.375L-0.556,3.372C0.572,3.879 0.833,5.434 0.026,6.841L-0.076,7.019L0,6.885Z" style="fill:rgb(179,179,179);fill-rule:nonzero;"/>
        </g>
        <g transform="matrix(1,0,0,1,973.215,5126.7)">
            <path d="M0,-6.958L0.007,-6.973C-0.689,-5.758 -0.341,-4.359 0.787,-3.851L7.427,-0.855C8.555,-0.346 10.034,-0.919 10.731,-2.135L10.724,-2.121C9.917,-0.714 8.348,0.015 7.22,-0.494L0.581,-3.489C-0.547,-3.998 -0.808,-5.552 0,-6.958" style="fill:rgb(179,179,179);fill-rule:nonzero;"/>
        </g>
        <g transform="matrix(1,0,0,1,969.996,5119.59)">
            <path d="M0,-0.896C0,0.19 2.441,2.667 3.619,2.608L6.678,1.176C7.855,1.116 3.924,-0.024 3.924,-1.109L3.924,-1.646C3.924,-2.731 3.141,-3.563 1.963,-3.503C0.785,-3.444 0,-2.517 0,-1.43L0,-0.896Z" style="fill:white;fill-rule:nonzero;"/>
        </g>
        <g transform="matrix(1,0,0,1,971.305,5111.54)">
            <path d="M0,0.895C0,2.129 1.418,3.068 3.05,2.988C4.682,2.909 6.102,1.844 6.102,0.609L6.102,-0.001C6.102,-1.236 4.684,-2.173 3.052,-2.093C1.42,-2.014 0,-0.951 0,0.286L0,0.895Z" style="fill:rgb(179,179,179);fill-rule:nonzero;"/>
        </g>
        <g transform="matrix(1,0,0,1,975.965,5117.79)">
            <path d="M0,-4.05C-0.764,-2.758 -0.518,-1.331 0.55,-0.864L6.832,1.884C7.9,2.35 9.385,1.682 10.148,0.39L10.379,0.001C11.143,-1.291 10.896,-2.717 9.828,-3.184L3.546,-5.933C2.479,-6.4 0.994,-5.732 0.23,-4.44L0,-4.05Z" style="fill:white;fill-rule:nonzero;"/>
        </g>
        <g transform="matrix(1,0,0,1,986.319,5111.51)">
            <path d="M0,6.319C0.659,5.204 0.328,3.921 -0.739,3.454L-7.021,0.704C-8.089,0.237 -9.489,0.763 -10.148,1.879L-10.124,1.838C-9.36,0.546 -7.876,-0.122 -6.809,0.344L-0.526,3.093C0.541,3.56 0.788,4.986 0.024,6.278L-0.072,6.441L0,6.319Z" style="fill:rgb(179,179,179);fill-rule:nonzero;"/>
        </g>
        <g transform="matrix(1,0,0,1,975.965,5120.12)">
            <path d="M0,-6.388L0.007,-6.4C-0.652,-5.284 -0.322,-4.001 0.746,-3.534L7.028,-0.785C8.096,-0.319 9.495,-0.844 10.155,-1.959L10.148,-1.948C9.385,-0.656 7.9,0.012 6.832,-0.454L0.55,-3.202C-0.518,-3.669 -0.764,-5.096 0,-6.388" style="fill:rgb(179,179,179);fill-rule:nonzero;"/>
        </g>
        <g transform="matrix(1,0,0,1,973.483,5113.6)">
            <path d="M0,-0.823C0,0.173 2.028,2.447 3.143,2.392L6.065,1.077C7.18,1.023 3.487,-0.024 3.487,-1.02L3.487,-1.512C3.487,-2.508 2.858,-3.27 1.745,-3.217C0.63,-3.162 0,-2.311 0,-1.314L0,-0.823Z" style="fill:white;fill-rule:nonzero;"/>
        </g>
        <g transform="matrix(1,0,0,1,974.419,5105.38)">
            <path d="M0,1.421C0.239,2.614 1.569,3.397 2.991,3.165C4.413,2.936 5.354,1.783 5.115,0.589L4.997,-0.001C4.759,-1.194 3.429,-1.976 2.007,-1.746C0.584,-1.515 -0.356,-0.362 -0.118,0.831L0,1.421Z" style="fill:rgb(179,179,179);fill-rule:nonzero;"/>
        </g>
        <g transform="matrix(1,0,0,1,978.752,5110.55)">
            <path d="M0,-2.932C-0.423,-1.612 0.071,-0.257 1.103,0.094L7.171,2.155C8.202,2.505 9.38,1.719 9.803,0.399L9.93,0.001C10.352,-1.321 9.858,-2.674 8.827,-3.025L2.759,-5.086C1.728,-5.437 0.549,-4.651 0.127,-3.33L0,-2.932Z" style="fill:white;fill-rule:nonzero;"/>
        </g>
        <g transform="matrix(1,0,0,1,988.668,5105.24)">
            <path d="M0,5.354C0.365,4.213 -0.176,3.004 -1.206,2.656L-7.275,0.592C-8.306,0.243 -9.438,0.883 -9.803,2.023L-9.789,1.981C-9.367,0.661 -8.188,-0.125 -7.157,0.225L-1.089,2.287C-0.058,2.637 0.436,3.991 0.014,5.312L-0.039,5.479L0,5.354Z" style="fill:rgb(179,179,179);fill-rule:nonzero;"/>
        </g>
        <g transform="matrix(1,0,0,1,978.752,5113.04)">
            <path d="M0,-5.425L0.004,-5.437C-0.361,-4.296 0.18,-3.089 1.21,-2.737L7.278,-0.676C8.311,-0.325 9.441,-0.966 9.807,-2.107L9.803,-2.094C9.38,-0.774 8.202,0.012 7.171,-0.338L1.103,-2.399C0.071,-2.75 -0.423,-4.105 0,-5.425" style="fill:rgb(179,179,179);fill-rule:nonzero;"/>
        </g>
        <g transform="matrix(1,0,0,1,976.237,5107.27)">
            <path d="M0,-0.326C0.193,0.636 2.492,2.633 3.463,2.477L5.718,0.937C6.688,0.778 3.167,0.123 2.974,-0.84L2.878,-1.315C2.685,-2.277 2.013,-2.959 1.042,-2.802C0.07,-2.643 -0.289,-1.764 -0.096,-0.802L0,-0.326Z" style="fill:white;fill-rule:nonzero;"/>
        </g>
        <g transform="matrix(1,0,0,1,973.564,5098.54)">
            <path d="M0,1.419C0.239,2.612 1.568,3.396 2.991,3.165C4.413,2.934 5.355,1.781 5.115,0.588L4.998,-0.001C4.759,-1.194 3.43,-1.977 2.007,-1.747C0.584,-1.516 -0.356,-0.364 -0.118,0.829L0,1.419Z" style="fill:rgb(179,179,179);fill-rule:nonzero;"/>
        </g>
        <g transform="matrix(1,0,0,1,977.896,5103.72)">
            <path d="M0,-2.932C-0.422,-1.612 0.072,-0.257 1.104,0.093L7.172,2.155C8.203,2.505 9.381,1.72 9.804,0.399L9.931,0.001C10.354,-1.32 9.859,-2.674 8.828,-3.025L2.76,-5.087C1.729,-5.437 0.551,-4.651 0.128,-3.33L0,-2.932Z" style="fill:white;fill-rule:nonzero;"/>
        </g>
        <g transform="matrix(1,0,0,1,987.814,5098.4)">
            <path d="M0,5.354C0.364,4.213 -0.176,3.005 -1.207,2.654L-7.275,0.593C-8.307,0.243 -9.438,0.882 -9.804,2.023L-9.79,1.981C-9.367,0.661 -8.189,-0.125 -7.158,0.224L-1.09,2.287C-0.059,2.637 0.436,3.992 0.013,5.312L-0.04,5.479L0,5.354Z" style="fill:rgb(179,179,179);fill-rule:nonzero;"/>
        </g>
        <g transform="matrix(1,0,0,1,977.896,5106.21)">
            <path d="M0,-5.425L0.005,-5.437C-0.36,-4.297 0.18,-3.088 1.211,-2.738L7.279,-0.675C8.312,-0.325 9.442,-0.966 9.808,-2.106L9.804,-2.094C9.381,-0.773 8.203,0.012 7.172,-0.338L1.104,-2.4C0.072,-2.75 -0.422,-4.105 0,-5.425" style="fill:rgb(179,179,179);fill-rule:nonzero;"/>
        </g>
        <g transform="matrix(1,0,0,1,975.383,5100.43)">
            <path d="M0,-0.326C0.193,0.636 2.492,2.633 3.463,2.475L5.718,0.936C6.689,0.778 3.166,0.123 2.973,-0.84L2.878,-1.314C2.685,-2.277 2.013,-2.959 1.042,-2.801C0.07,-2.642 -0.289,-1.763 -0.096,-0.802L0,-0.326Z" style="fill:white;fill-rule:nonzero;"/>
        </g>
        <g transform="matrix(1,0,0,1,974.156,5092.49)">
            <path d="M0,1.27C0.208,2.338 1.364,3.039 2.602,2.832C3.84,2.625 4.659,1.594 4.451,0.526L4.348,-0.001C4.14,-1.069 2.983,-1.769 1.746,-1.563C0.508,-1.356 -0.311,-0.326 -0.103,0.743L0,1.27Z" style="fill:rgb(179,179,179);fill-rule:nonzero;"/>
        </g>
        <g transform="matrix(1,0,0,1,977.926,5097.12)">
            <path d="M0,-2.624C-0.367,-1.443 0.062,-0.23 0.959,0.083L6.239,1.928C7.137,2.242 8.161,1.537 8.529,0.355L8.64,0C9.008,-1.181 8.577,-2.394 7.681,-2.708L2.4,-4.553C1.503,-4.866 0.479,-4.163 0.11,-2.981L0,-2.624Z" style="fill:white;fill-rule:nonzero;"/>
        </g>
        <g transform="matrix(1,0,0,1,986.554,5092.36)">
            <path d="M0,4.791C0.317,3.77 -0.153,2.689 -1.05,2.375L-6.33,0.532C-7.228,0.217 -8.212,0.79 -8.529,1.811L-8.518,1.772C-8.149,0.591 -7.125,-0.112 -6.228,0.201L-0.947,2.046C-0.051,2.36 0.38,3.573 0.012,4.754L-0.035,4.903L0,4.791Z" style="fill:rgb(179,179,179);fill-rule:nonzero;"/>
        </g>
        <g transform="matrix(1,0,0,1,977.926,5099.35)">
            <path d="M0,-4.854L0.003,-4.866C-0.314,-3.845 0.156,-2.763 1.053,-2.45L6.333,-0.604C7.23,-0.292 8.215,-0.865 8.532,-1.884L8.529,-1.875C8.161,-0.693 7.137,0.012 6.239,-0.302L0.959,-2.147C0.062,-2.46 -0.367,-3.673 0,-4.854" style="fill:rgb(179,179,179);fill-rule:nonzero;"/>
        </g>
        <g transform="matrix(1,0,0,1,975.738,5094.18)">
            <path d="M0,-0.294C0.168,0.567 2.168,2.355 3.013,2.214L4.975,0.836C5.819,0.694 2.755,0.108 2.586,-0.753L2.504,-1.179C2.335,-2.04 1.751,-2.649 0.906,-2.509C0.062,-2.366 -0.252,-1.58 -0.083,-0.72L0,-0.294Z" style="fill:white;fill-rule:nonzero;"/>
        </g>
        <g transform="matrix(1,0,0,1,966.489,5222.33)">
            <path d="M0,-42.371C-11.747,-42.371 -21.305,-32.868 -21.305,-21.185C-21.305,-9.504 -11.747,0.001 0,0.001C11.747,0.001 21.304,-9.504 21.304,-21.185C21.304,-32.868 11.747,-42.371 0,-42.371M0,1.735C-12.704,1.735 -23.039,-8.547 -23.039,-21.185C-23.039,-33.824 -12.704,-44.106 0,-44.106C12.704,-44.106 23.039,-33.824 23.039,-21.185C23.039,-8.547 12.704,1.735 0,1.735" style="fill:rgb(234,85,20);fill-rule:nonzero;"/>
        </g>
        <g transform="matrix(1,0,0,1,966.489,5213.51)">
            <path d="M0,-24.73C-6.857,-24.73 -12.436,-19.183 -12.436,-12.366C-12.436,-5.548 -6.857,-0.001 0,-0.001C6.856,-0.001 12.436,-5.548 12.436,-12.366C12.436,-19.183 6.856,-24.73 0,-24.73M0,1.734C-7.813,1.734 -14.171,-4.591 -14.171,-12.366C-14.171,-20.14 -7.813,-26.464 0,-26.464C7.813,-26.464 14.171,-20.14 14.171,-12.366C14.171,-4.591 7.813,1.734 0,1.734" style="fill:rgb(234,85,20);fill-rule:nonzero;"/>
        </g>
        <g transform="matrix(0,-1,-1,0,966.489,5193.16)">
            <path d="M-7.982,-7.982C-12.367,-7.982 -15.92,-4.409 -15.92,-0.001C-15.92,4.408 -12.367,7.982 -7.982,7.982C-3.597,7.982 -0.044,4.408 -0.044,-0.001C-0.044,-4.409 -3.597,-7.982 -7.982,-7.982" style="fill:rgb(234,85,20);fill-rule:nonzero;"/>
        </g>
        <g transform="matrix(-0.966247,0.257619,0.257619,0.966247,1033.42,5193.83)">
            <path d="M0.368,-2.816C1.279,-2.841 2.017,-2.219 2.017,-1.428C2.016,-0.637 1.278,0.024 0.368,0.048C-0.542,0.072 -1.28,-0.549 -1.28,-1.34C-1.281,-2.13 -0.541,-2.792 0.368,-2.816" style="fill:rgb(248,160,129);fill-rule:nonzero;"/>
        </g>
        <g transform="matrix(1,0,0,1,1034.48,5199.31)">
            <path d="M0,-7.286C-2.16,-7.629 -3.902,-6.676 -4.039,-4.356C-4.121,-2.978 -3.574,-1.657 -2.662,-0.738C-2.041,-0.113 -0.156,-0.14 0.721,-0.002C2.881,0.343 3.652,-0.79 3.787,-3.109C3.924,-5.427 2.162,-6.941 0,-7.286" style="fill:rgb(248,160,129);fill-rule:nonzero;"/>
        </g>
    </g>
</svg>
