<?xml version="1.0" encoding="UTF-8" standalone="no"?>
<!DOCTYPE svg PUBLIC "-//W3C//DTD SVG 1.1//EN" "http://www.w3.org/Graphics/SVG/1.1/DTD/svg11.dtd">
<svg width="100%" height="100%" viewBox="0 0 256 573" version="1.1" xmlns="http://www.w3.org/2000/svg" xmlns:xlink="http://www.w3.org/1999/xlink" xml:space="preserve" xmlns:serif="http://www.serif.com/" style="fill-rule:evenodd;clip-rule:evenodd;stroke-linejoin:round;stroke-miterlimit:2;">
    <g transform="matrix(1.04167,0,0,1.04167,-1308.15,-426.415)">
        <g transform="matrix(1,0,0,1,1447.02,714.786)">
            <path d="M0,197.713L9.514,197.713L12.348,184.345L9.805,163.807C9.758,163.423 9.739,163.036 9.752,162.65L10.522,138.109L-1.684,113.986C-2.049,113.265 -2.295,112.488 -2.412,111.688L-16.867,12.981L-27.733,0.845L-98.34,11.957L-106.764,26.134L-112.543,91.343C-112.591,91.888 -112.699,92.426 -112.864,92.947L-127.953,140.53L-131.241,166.922C-131.309,167.463 -131.435,167.994 -131.617,168.507C-133.041,172.516 -134.666,177.505 -135.229,179.741C-134.613,182.42 -133.752,187.451 -132.213,197.713L-122.448,197.713L-113.318,169.489L-107.577,136.094C-107.418,135.17 -107.088,134.285 -106.604,133.484L-99.226,121.283L-96.983,108.947C-96.867,108.308 -96.668,107.686 -96.392,107.098L-66.824,44.228C-65.56,41.54 -62.807,39.857 -59.859,39.921C-56.89,39.991 -54.241,41.808 -53.106,44.553L-22.953,117.475L-16.641,126.087C-15.921,127.068 -15.451,128.211 -15.271,129.415L-13.148,143.661L-9.2,159.168C-9.099,159.568 -9.03,159.976 -8.995,160.388L-7.234,181.24L0,197.713ZM15.591,212.713L-4.897,212.713C-7.873,212.713 -10.567,210.953 -11.765,208.229L-21.47,186.13C-21.802,185.374 -22.007,184.568 -22.076,183.745L-23.89,162.268L-27.779,146.993C-27.842,146.747 -27.892,146.499 -27.929,146.248L-29.834,133.459L-35.587,125.611C-35.942,125.126 -36.239,124.6 -36.469,124.044L-60.479,65.98L-82.4,112.595L-84.715,125.324C-84.878,126.222 -85.204,127.082 -85.676,127.863L-93.034,140.032L-98.626,172.559C-98.687,172.91 -98.771,173.257 -98.882,173.597L-109.855,207.522C-110.856,210.616 -113.738,212.713 -116.991,212.713L-138.684,212.713C-142.405,212.713 -145.564,209.984 -146.104,206.301C-147.488,196.863 -149.17,186.172 -149.797,183.209C-151.127,180.412 -150.528,176.989 -146.025,164.258L-142.753,137.993C-142.696,137.538 -142.599,137.09 -142.46,136.653L-127.412,89.198L-121.555,23.109C-121.455,21.988 -121.105,20.905 -120.531,19.94L-109.435,1.265C-108.295,-0.654 -106.358,-1.966 -104.153,-2.313L-26.034,-14.607C-23.521,-15 -20.979,-14.099 -19.281,-12.201L-4.187,4.656C-3.204,5.753 -2.566,7.115 -2.353,8.572L12.253,108.305L24.771,133.046C25.338,134.166 25.615,135.412 25.575,136.667L24.763,162.54L27.389,183.749C27.49,184.575 27.455,185.412 27.282,186.227L22.928,206.769C22.193,210.234 19.134,212.713 15.591,212.713" style="fill:rgb(241,147,0);fill-rule:nonzero;"/>
        </g>
        <g transform="matrix(1,0,0,1,1308.33,763.212)">
            <path d="M0,-22.343C-6.162,-22.343 -11.176,-17.331 -11.176,-11.172C-11.176,-5.012 -6.162,0 0,0C6.159,0 11.17,-5.012 11.17,-11.172C11.17,-17.331 6.159,-22.343 0,-22.343M0,15C-14.434,15 -26.176,3.26 -26.176,-11.172C-26.176,-25.603 -14.434,-37.343 0,-37.343C14.43,-37.343 26.17,-25.603 26.17,-11.172C26.17,3.26 14.43,15 0,15" style="fill:rgb(241,147,0);fill-rule:nonzero;"/>
        </g>
        <g transform="matrix(1,0,0,1,1291.01,671.622)">
            <path d="M0,71.933L9.8,79.529L13.668,78.423L16.639,71.742L14.533,67.41C13.289,64.848 13.603,61.802 15.343,59.548L41.242,25.998L42.264,-8.351L36.247,-8.351L36.247,11.537C36.247,12.616 36.015,13.682 35.564,14.663L16.58,56.057C15.944,57.444 14.9,58.603 13.588,59.381L-0.535,67.754L0,71.933ZM8.208,95.284C6.563,95.284 4.943,94.743 3.613,93.711L-11.64,81.889C-13.209,80.673 -14.231,78.884 -14.484,76.914L-16.04,64.771C-16.42,61.803 -15,58.893 -12.426,57.367L3.922,47.673L21.247,9.899L21.247,-15.851C21.247,-19.994 24.604,-23.351 28.747,-23.351L49.99,-23.351C52.018,-23.351 53.959,-22.53 55.372,-21.075C56.784,-19.62 57.547,-17.655 57.487,-15.629L56.163,28.877C56.115,30.459 55.569,31.986 54.603,33.238L30.057,65.035L31.655,68.323C32.621,70.312 32.661,72.627 31.763,74.648L25.951,87.719C25.049,89.748 23.293,91.274 21.158,91.884L10.269,94.995C9.591,95.189 8.897,95.284 8.208,95.284" style="fill:rgb(241,147,0);fill-rule:nonzero;"/>
        </g>
        <g transform="matrix(1,0,0,1,1417.79,462.81)">
            <path d="M0,-23.413C-6.454,-23.413 -11.704,-18.161 -11.704,-11.705C-11.704,-5.251 -6.454,0 0,0C6.454,0 11.705,-5.251 11.705,-11.705C11.705,-18.161 6.454,-23.413 0,-23.413M0,15C-14.725,15 -26.704,3.021 -26.704,-11.705C-26.704,-26.432 -14.725,-38.413 0,-38.413C14.726,-38.413 26.705,-26.432 26.705,-11.705C26.705,3.021 14.726,15 0,15" style="fill:rgb(241,147,0);fill-rule:nonzero;"/>
        </g>
        <g transform="matrix(1,0,0,1,1427.9,435.466)">
            <path d="M0,6.334L0.227,6.51L8.804,2.582L8.086,1.361L0.249,4.55L0,6.334ZM-0.769,22.714C-2.398,22.714 -4.015,22.184 -5.351,21.152L-12.613,15.549C-14.747,13.902 -15.833,11.239 -15.46,8.57L-14.007,-1.809C-13.636,-4.457 -11.883,-6.707 -9.406,-7.716L8.439,-14.977C11.892,-16.38 15.846,-15.041 17.732,-11.83L22.917,-3.008C23.595,-1.856 23.951,-0.544 23.951,0.792L23.951,7.33C23.951,10.264 22.24,12.928 19.573,14.149L2.353,22.033C1.355,22.489 0.29,22.714 -0.769,22.714" style="fill:rgb(241,147,0);fill-rule:nonzero;"/>
        </g>
        <g transform="matrix(1,0,0,1,1426.56,582.755)">
            <path d="M0,-127.745L8.513,-123.103C9.413,-122.612 10.187,-121.952 10.803,-121.173L10.803,-132.644L7.285,-130.241C5.186,-128.806 2.5,-128.532 0.151,-129.519C0.034,-129.568 -0.082,-129.621 -0.197,-129.676L0,-127.745ZM1.976,-0.31L3.295,1.887L22.403,-50.015L12.62,-108.193L13.974,-50.87C13.998,-49.821 13.803,-48.779 13.399,-47.811L0.566,-16.981L1.976,-0.31ZM4.92,26.676C2.304,26.676 -0.146,25.308 -1.509,23.034L-11.781,5.914C-12.371,4.933 -12.728,3.829 -12.824,2.688L-14.535,-17.542C-14.636,-18.74 -14.448,-19.945 -13.985,-21.056L-1.06,-52.106L-2.474,-112.009L-10.652,-116.468C-12.824,-117.652 -14.272,-119.832 -14.523,-122.293L-16.234,-139.102C-16.546,-142.172 -14.948,-145.118 -12.205,-146.53L-1.934,-151.818C0.183,-152.909 2.692,-152.928 4.824,-151.873C6.171,-151.207 7.267,-150.163 7.998,-148.893L13.556,-152.69C15.798,-154.222 18.693,-154.421 21.127,-153.212C23.559,-152.002 25.146,-149.572 25.277,-146.859L25.794,-136.175C25.8,-136.054 25.803,-135.933 25.803,-135.812L25.803,-120.256L37.526,-50.537C37.742,-49.249 37.619,-47.927 37.168,-46.702L11.96,21.767C10.963,24.477 8.499,26.372 5.625,26.643C5.389,26.665 5.153,26.676 4.92,26.676" style="fill:rgb(241,147,0);fill-rule:nonzero;"/>
        </g>
        <g transform="matrix(1,0,0,1,1324.46,607.965)">
            <path d="M0,42.853L8.411,43.292L5.584,6.481L-0.928,11.481L0,42.853ZM16.543,58.727C16.413,58.727 16.283,58.724 16.152,58.717L-7.683,57.473C-11.582,57.269 -14.673,54.108 -14.789,50.205L-16.035,8.089C-16.106,5.681 -15.017,3.385 -13.105,1.918L7.435,-13.85C9.618,-15.526 12.542,-15.874 15.059,-14.75C17.572,-13.628 19.27,-11.219 19.479,-8.475L24.021,50.653C24.187,52.803 23.417,54.921 21.911,56.465C20.496,57.916 18.559,58.727 16.543,58.727" style="fill:rgb(241,147,0);fill-rule:nonzero;"/>
        </g>
        <g transform="matrix(1,0,0,1,1415.77,574.062)">
            <path d="M0,34.6L6.649,40.607L13.241,29.438L2.39,13.776C1.628,12.676 1.174,11.392 1.075,10.058L0.663,4.494L-1.576,7.715C-2.681,9.303 -4.331,10.373 -6.157,10.766L0,34.6ZM8.438,59.83C6.594,59.83 4.799,59.15 3.411,57.896L-11.726,44.221C-12.815,43.237 -13.593,41.954 -13.96,40.532L-21.946,9.621C-22.333,8.122 -22.247,6.541 -21.7,5.094L-19.779,0.01C-18.527,-3.304 -15.136,-5.289 -11.624,-4.753L-11.221,-4.69L0.424,-21.438C2.238,-24.046 5.498,-25.23 8.56,-24.391C11.623,-23.554 13.827,-20.878 14.062,-17.711L15.884,6.913L28.306,24.842C29.973,27.248 30.088,30.405 28.6,32.925L14.897,56.142C13.753,58.082 11.797,59.405 9.57,59.745C9.192,59.802 8.814,59.83 8.438,59.83" style="fill:rgb(241,147,0);fill-rule:nonzero;"/>
        </g>
        <g transform="matrix(1,0,0,1,1364.88,507.908)">
            <path d="M0,58.408C2.045,58.408 4.045,59.246 5.488,60.796L7.093,59.744C8.114,59.074 9.241,58.684 10.381,58.559L12.802,54.375C13.952,52.387 15.949,51.036 18.222,50.708C18.679,50.642 19.136,50.619 19.59,50.637L22.218,44.269C22.71,43.078 23.493,42.049 24.478,41.264L28.871,25.506L26.222,10.007C26.026,8.863 26.101,7.705 26.421,6.62L24.668,4.016C24.419,3.647 24.207,3.261 24.03,2.861L18.021,-0.567L13.691,-0.086C12.396,0.056 11.082,-0.138 9.882,-0.658L9.249,-0.933C8.501,-0.448 7.665,-0.097 6.775,0.097L-11.941,4.186L-19.821,18.359C-18.747,19.468 -18.025,20.897 -17.79,22.465L-14.537,44.119C-13.593,44.682 -12.767,45.459 -12.133,46.415L-3.636,59.245L-2.536,58.85C-1.707,58.553 -0.85,58.408 0,58.408M4.256,78.074C2.205,78.074 0.176,77.235 -1.291,75.626L-2.172,74.659L-4.101,75.352C-7.354,76.522 -10.982,75.316 -12.891,72.436L-22.045,58.614C-23.19,58.462 -24.298,58.046 -25.274,57.383C-27.005,56.208 -28.166,54.362 -28.478,52.293L-32.044,28.551L-33.328,27.91C-35.161,26.996 -36.54,25.373 -37.146,23.417C-37.751,21.462 -37.531,19.343 -36.536,17.554L-28.251,2.652C-29.128,1.247 -29.536,-0.444 -29.339,-2.169C-28.975,-5.357 -26.623,-7.96 -23.488,-8.645L-3.853,-12.935C-3.573,-14.46 -2.823,-15.894 -1.652,-17.011C0.527,-19.091 3.74,-19.666 6.507,-18.467L14.016,-15.214L22.285,-16.133C25.533,-16.5 28.642,-14.709 29.969,-11.721C30.098,-11.429 30.208,-11.132 30.298,-10.832L38.467,-6.172C41.573,-4.401 42.994,-0.684 41.869,2.706L43.258,4.768C44.853,7.137 44.964,10.207 43.544,12.685C43.173,13.332 42.716,13.909 42.19,14.405L43.939,24.636C44.126,25.727 44.068,26.846 43.771,27.913L37.621,49.974C37.103,51.834 35.894,53.403 34.271,54.383L30.046,64.618C29.103,66.903 27.094,68.577 24.677,69.092C23.651,69.311 22.608,69.308 21.609,69.104L19.667,72.463C18.397,74.656 16.107,76.06 13.577,76.196C12.415,76.253 11.282,76.051 10.247,75.612L8.365,76.845C7.105,77.673 5.676,78.074 4.256,78.074" style="fill:rgb(241,147,0);fill-rule:nonzero;"/>
        </g>
        <g transform="matrix(1,0,0,1,0,-4579.72)">
            <path d="M1366.89,5174.15L1378.75,5174.15L1378.75,5148.9L1366.89,5148.9L1366.89,5174.15ZM1386.25,5189.15L1359.39,5189.15C1355.24,5189.15 1351.89,5185.79 1351.89,5181.65L1351.89,5141.4C1351.89,5137.26 1355.24,5133.9 1359.39,5133.9L1386.25,5133.9C1390.4,5133.9 1393.75,5137.26 1393.75,5141.4L1393.75,5181.65C1393.75,5185.79 1390.4,5189.15 1386.25,5189.15" style="fill:rgb(241,147,0);fill-rule:nonzero;"/>
        </g>
        <g transform="matrix(1,0,0,1,1344.54,649.029)">
            <path d="M0,4.007L3.997,10.989C4.669,12.162 5.011,13.494 4.987,14.845L4.095,66.202L46.866,64.192L71.657,55.233L65.952,5.575C65.855,4.73 65.902,3.873 66.093,3.044L71.571,-20.866L60.155,-32.781C59.348,-33.624 58.748,-34.643 58.403,-35.759L50.732,-60.626L48.371,-61.039L48.137,-58.698C47.884,-56.167 46.364,-53.935 44.102,-52.773L32.796,-46.965C31.024,-46.055 28.962,-45.887 27.067,-46.497L15.445,-50.243C13.037,-51.019 11.183,-52.958 10.514,-55.397L-2.478,-45.597L-4.066,-28.343L0,4.007ZM-3.543,81.57C-5.489,81.57 -7.364,80.813 -8.768,79.45C-10.255,78.007 -11.078,76.012 -11.042,73.94L-10.047,16.65L-13.763,10.156C-14.255,9.297 -14.572,8.349 -14.695,7.366L-19.051,-27.282C-19.118,-27.821 -19.128,-28.365 -19.078,-28.905L-17.11,-50.274C-16.916,-52.378 -15.845,-54.302 -14.158,-55.574L10.327,-74.046C12.313,-75.545 14.914,-75.961 17.271,-75.155C19.626,-74.349 21.428,-72.428 22.081,-70.026L23.917,-63.272L28.708,-61.728L33.617,-64.251L34.248,-70.564C34.455,-72.639 35.518,-74.533 37.178,-75.794C38.84,-77.054 40.95,-77.563 43.004,-77.206L57.839,-74.61C60.613,-74.125 62.882,-72.125 63.713,-69.433L72.214,-41.877L85.2,-28.323C86.947,-26.501 87.659,-23.921 87.096,-21.46L81.001,5.141L87.236,59.413C87.633,62.867 85.604,66.142 82.334,67.323L50.898,78.684C50.192,78.939 49.452,79.086 48.702,79.122L-3.19,81.562C-3.309,81.567 -3.426,81.57 -3.543,81.57" style="fill:rgb(241,147,0);fill-rule:nonzero;"/>
        </g>
        <g transform="matrix(1,0,0,1,1366.89,573.471)">
            <path d="M0,-4.293L0,-1.654L11.867,-4.034L11.867,-4.293L0,-4.293ZM-7.5,15C-9.218,15 -10.901,14.409 -12.253,13.302C-13.992,11.877 -15,9.748 -15,7.5L-15,-11.793C-15,-15.936 -11.643,-19.293 -7.5,-19.293L19.367,-19.293C23.51,-19.293 26.867,-15.936 26.867,-11.793L26.867,2.11C26.867,5.684 24.346,8.761 20.843,9.464L-6.024,14.853C-6.515,14.952 -7.009,15 -7.5,15" style="fill:rgb(241,147,0);fill-rule:nonzero;"/>
        </g>
        <g transform="matrix(1,0,0,1,1359.24,536.687)">
            <path d="M0,22.977L10.815,31.332L21.634,22.976L26.653,6.773L25.557,-5.01L22.051,-9.823L10.815,-10.322L-0.42,-9.823L-3.926,-5.011L-5.019,6.772L0,22.977ZM10.815,48.309C9.198,48.309 7.581,47.788 6.23,46.745L-11.048,33.397C-12.27,32.453 -13.171,31.155 -13.627,29.68L-19.788,9.784C-20.08,8.842 -20.183,7.853 -20.092,6.873L-18.671,-8.452C-18.546,-9.797 -18.061,-11.084 -17.265,-12.176L-10.419,-21.572C-9.076,-23.415 -6.969,-24.546 -4.69,-24.647L10.482,-25.322C10.703,-25.332 10.928,-25.332 11.148,-25.322L26.321,-24.647C28.6,-24.546 30.708,-23.414 32.05,-21.571L38.895,-12.175C39.689,-11.085 40.176,-9.798 40.301,-8.455L41.728,6.87C41.819,7.852 41.716,8.842 41.424,9.785L35.26,29.681C34.803,31.156 33.902,32.454 32.681,33.397L15.4,46.745C14.05,47.788 12.433,48.309 10.815,48.309" style="fill:rgb(241,147,0);fill-rule:nonzero;"/>
        </g>
        <g transform="matrix(1,0,0,1,1390.56,506.461)">
            <path d="M0,33.1C-0.576,33.1 -1.156,33.034 -1.729,32.898C-3.45,32.49 -4.942,31.496 -5.979,30.127L-10.355,31.4C-12.814,32.115 -15.464,31.525 -17.39,29.841C-18.304,29.04 -18.995,28.044 -19.427,26.948L-19.982,27.243C-22.038,28.333 -24.486,28.408 -26.603,27.445C-28.101,26.764 -29.314,25.619 -30.085,24.204L-42.734,30.839C-45.283,32.177 -48.371,31.935 -50.684,30.223C-52.996,28.509 -54.123,25.623 -53.586,22.796L-51.174,10.113C-50.725,7.751 -49.17,5.747 -46.994,4.726C-46.583,4.533 -36.766,0 -22.199,0C-19.679,0 -17.126,0.136 -14.61,0.404C3.466,2.329 11.411,16.032 11.74,16.614C13.389,19.529 12.905,23.182 10.557,25.568L5.345,30.862C3.918,32.311 1.985,33.1 0,33.1" style="fill:rgb(241,147,0);fill-rule:nonzero;"/>
        </g>
        <g transform="matrix(1,0,0,1,1389.05,530.96)">
            <path d="M0,31.911C-0.27,31.911 -0.539,31.896 -0.807,31.867C-2.363,31.699 -10.094,30.255 -9.45,18.329C-9.083,11.521 -6.048,0 2.997,0C3.322,0 3.646,0.016 3.974,0.053C4.932,0.156 5.86,0.443 6.709,0.899L13.815,4.71C16.727,6.27 18.273,9.551 17.626,12.789L15.345,24.201C14.757,27.144 12.471,29.453 9.533,30.071L1.543,31.751C1.035,31.857 0.518,31.911 0,31.911" style="fill:rgb(241,147,0);fill-rule:nonzero;"/>
        </g>
        <g transform="matrix(1,0,0,1,1350.76,530.96)">
            <path d="M0,31.911C-0.518,31.911 -1.035,31.857 -1.543,31.751L-9.53,30.071C-12.467,29.453 -14.753,27.145 -15.342,24.203L-17.626,12.791C-18.273,9.553 -16.727,6.27 -13.815,4.71L-6.709,0.899C-5.86,0.443 -4.931,0.156 -3.973,0.053C-3.646,0.016 -3.321,0 -2.997,0C6.049,0 9.083,11.517 9.451,18.324C10.095,30.254 2.363,31.699 0.808,31.867C0.539,31.896 0.27,31.911 0,31.911" style="fill:rgb(241,147,0);fill-rule:nonzero;"/>
        </g>
        <g transform="matrix(1,0,0,1,1453.79,450.228)">
            <path d="M0,-25.87C-7.134,-25.87 -12.938,-20.067 -12.938,-12.935C-12.938,-5.803 -7.134,0 0,0C7.133,0 12.936,-5.803 12.936,-12.935C12.936,-20.067 7.133,-25.87 0,-25.87M0,15C-15.405,15 -27.937,2.468 -27.937,-12.935C-27.937,-28.339 -15.405,-40.87 0,-40.87C15.403,-40.87 27.936,-28.339 27.936,-12.935C27.936,2.468 15.403,15 0,15" style="fill:rgb(241,147,0);fill-rule:nonzero;"/>
        </g>
        <g transform="matrix(1,0,0,1,1288.75,927.499)">
            <path d="M0,16.431L37.201,16.431L37.201,5.957L35.563,-0L22.677,-0L12.537,10.064C11.928,10.669 11.219,11.164 10.44,11.53L0,16.431ZM44.701,31.431L-7.061,31.431C-10.951,31.431 -14.195,28.456 -14.532,24.58L-15.573,12.598C-15.846,9.465 -14.135,6.495 -11.288,5.16L2.892,-1.497L14.304,-12.823C15.709,-14.217 17.607,-15 19.587,-15L41.279,-15C44.655,-15 47.615,-12.744 48.511,-9.488L51.933,2.956C52.111,3.604 52.201,4.273 52.201,4.945L52.201,23.931C52.201,28.074 48.844,31.431 44.701,31.431" style="fill:rgb(241,147,0);fill-rule:nonzero;"/>
        </g>
        <g transform="matrix(1,0,0,1,1315.56,899.622)">
            <path d="M0,27.877L-7.222,27.877C-9.845,27.877 -12.277,26.507 -13.636,24.264L-19.484,14.61C-20.592,12.782 -20.867,10.568 -20.241,8.525C-19.614,6.482 -18.146,4.803 -16.205,3.91L-9.673,0.905C-7.917,0.098 -5.919,0 -4.094,0.628L4.622,3.633C8.236,4.879 10.335,8.645 9.494,12.374L7.316,22.027C6.545,25.447 3.506,27.877 0,27.877" style="fill:rgb(241,147,0);fill-rule:nonzero;"/>
        </g>
        <g transform="matrix(1,0,0,1,1327.23,931.169)">
            <path d="M0,27.761L-4.36,27.761C-7.422,27.761 -10.176,25.901 -11.318,23.06L-16.452,10.299C-17.382,7.989 -17.104,5.366 -15.709,3.302C-14.314,1.238 -11.985,0 -9.494,0L-5.138,0C-2.077,0 0.677,1.86 1.819,4.699L6.957,17.46C7.888,19.771 7.609,22.394 6.215,24.458C4.82,26.524 2.491,27.761 0,27.761" style="fill:rgb(241,147,0);fill-rule:nonzero;"/>
        </g>
        <g transform="matrix(1,0,0,1,1321.18,934.655)">
            <path d="M0,24.275L-3.166,24.275C-6.227,24.275 -8.98,22.415 -10.124,19.576L-13.857,10.3C-14.787,7.989 -14.509,5.366 -13.114,3.301C-11.72,1.237 -9.391,0 -6.899,0L-3.734,0C-0.674,0 2.08,1.859 3.223,4.699L6.957,13.974C7.888,16.286 7.609,18.908 6.215,20.972C4.82,23.038 2.491,24.275 0,24.275" style="fill:rgb(241,147,0);fill-rule:nonzero;"/>
        </g>
        <g transform="matrix(1,0,0,1,1446.2,927.499)">
            <path d="M0,16.431L37.2,16.431L26.762,11.53C25.984,11.164 25.275,10.669 24.666,10.064L14.525,-0L1.639,-0L0,5.957L0,16.431ZM44.264,31.431L-7.5,31.431C-11.643,31.431 -15,28.074 -15,23.931L-15,4.945C-15,4.273 -14.909,3.603 -14.731,2.955L-11.308,-9.489C-10.412,-12.744 -7.452,-15 -4.076,-15L17.615,-15C19.595,-15 21.493,-14.217 22.898,-12.823L34.312,-1.497L48.487,5.16C51.332,6.495 53.043,9.463 52.771,12.595L51.735,24.577C51.4,28.454 48.155,31.431 44.264,31.431" style="fill:rgb(241,147,0);fill-rule:nonzero;"/>
        </g>
        <g transform="matrix(1,0,0,1,1463.81,899.622)">
            <path d="M0,27.877L-7.222,27.877C-10.728,27.877 -13.767,25.447 -14.538,22.027L-16.716,12.374C-17.557,8.645 -15.458,4.88 -11.844,3.633L-3.129,0.628C-1.306,0 0.694,0.098 2.448,0.904L8.983,3.909C10.926,4.803 12.395,6.481 13.021,8.525C13.647,10.569 13.372,12.783 12.265,14.611L6.414,24.265C5.055,26.507 2.623,27.877 0,27.877" style="fill:rgb(241,147,0);fill-rule:nonzero;"/>
        </g>
        <g transform="matrix(1,0,0,1,1449.27,931.169)">
            <path d="M0,27.761L-4.356,27.761C-6.848,27.761 -9.177,26.524 -10.571,24.459C-11.966,22.395 -12.244,19.773 -11.314,17.461L-6.18,4.7C-5.037,1.861 -2.283,0 0.778,0L5.138,0C7.629,0 9.958,1.238 11.353,3.303C12.747,5.367 13.025,7.99 12.095,10.301L6.957,23.062C5.814,25.902 3.061,27.761 0,27.761" style="fill:rgb(241,147,0);fill-rule:nonzero;"/>
        </g>
        <g transform="matrix(1,0,0,1,1454.13,934.655)">
            <path d="M0,24.275L-3.164,24.275C-5.655,24.275 -7.983,23.038 -9.379,20.974C-10.773,18.91 -11.052,16.288 -10.122,13.976L-6.392,4.701C-5.249,1.861 -2.495,0 0.566,0L3.734,0C6.226,0 8.555,1.237 9.949,3.302C11.344,5.367 11.622,7.989 10.691,10.3L6.957,19.576C5.814,22.416 3.061,24.275 0,24.275" style="fill:rgb(241,147,0);fill-rule:nonzero;"/>
        </g>
        <g transform="matrix(1,0,0,1,1339.68,611.851)">
            <path d="M0,25.277C-1.687,25.277 -3.344,24.707 -4.687,23.632C-6.465,22.209 -7.5,20.054 -7.5,17.777L-7.5,12.177C-7.5,8.669 -5.067,5.63 -1.645,4.86L17.755,0.5C19.978,0 22.306,0.538 24.085,1.961C25.864,3.384 26.899,5.539 26.899,7.817L26.899,13.423C26.899,16.931 24.466,19.972 21.042,20.741L1.643,25.095C1.099,25.217 0.548,25.277 0,25.277" style="fill:rgb(241,147,0);fill-rule:nonzero;"/>
        </g>
        <g transform="matrix(1,0,0,1,1344.03,907.705)">
            <path d="M0,-187.823L-11.097,-169.148L-17.026,-102.238L-32.323,-53.999L-35.696,-26.924C-35.696,-26.924 -40.456,-13.536 -39.834,-12.603C-39.211,-11.67 -35.696,12.294 -35.696,12.294L-14.004,12.294L-3.03,-21.631L2.802,-55.554L10.894,-68.936L13.383,-82.63L42.95,-145.5L73.449,-71.741L80.298,-62.398L82.477,-47.776L86.519,-31.9L88.385,-9.804L98.09,12.294L118.578,12.294L122.933,-8.248L120.235,-30.034L121.066,-56.487L107.996,-82.318L93.214,-183.26L78.119,-200.117L0,-187.823Z" style="fill:rgb(76,79,98);fill-rule:nonzero;"/>
        </g>
        <g transform="matrix(0,-1,-1,0,1308.33,733.367)">
            <path d="M-18.673,-18.673C-28.989,-18.673 -37.344,-10.314 -37.344,-0.003C-37.344,10.311 -28.989,18.673 -18.673,18.673C-8.359,18.673 -0.001,10.311 -0.001,-0.003C-0.001,-10.314 -8.359,-18.673 -18.673,-18.673" style="fill:rgb(77,77,77);fill-rule:nonzero;"/>
        </g>
        <g transform="matrix(1,0,0,1,1319.76,759.405)">
            <path d="M0,-103.635L0,-76.247L-18.984,-34.854L-37.348,-23.966L-35.792,-11.822L-20.539,0L-9.649,-3.112L-3.838,-16.183L-7.468,-23.653L19.919,-59.129L21.243,-103.635L0,-103.635Z" style="fill:rgb(255,219,190);fill-rule:nonzero;"/>
        </g>
        <g transform="matrix(0,-1,-1,0,1417.79,431.899)">
            <path d="M-19.206,-19.203C-29.811,-19.203 -38.411,-10.607 -38.411,0.002C-38.411,10.607 -29.811,19.206 -19.206,19.206C-8.599,19.206 0.002,10.607 0.002,0.002C0.002,-10.607 -8.599,-19.203 -19.206,-19.203" style="fill:rgb(77,77,77);fill-rule:nonzero;"/>
        </g>
        <g transform="matrix(1,0,0,1,1419.87,433.039)">
            <path d="M0,12.037L1.453,1.658L19.299,-5.604L24.483,3.219L24.483,9.757L7.263,17.641L0,12.037Z" style="fill:rgb(255,191,138);fill-rule:nonzero;"/>
        </g>
        <g transform="matrix(1,0,0,1,1419.5,473.608)">
            <path d="M0,90.973L13.537,58.453L11.983,-7.372L0,-13.906L-1.711,-30.715L8.561,-36.004L10.116,-27.288L24.848,-37.35L25.364,-26.666L25.364,-10.483L37.191,59.854L11.983,128.323L1.711,111.202L0,90.973Z" style="fill:rgb(255,219,190);fill-rule:nonzero;"/>
        </g>
        <g transform="matrix(-0.793202,0.608958,0.608958,0.793202,1340.12,657.95)">
            <path d="M-32.348,-48.143L-6.453,-48.143L18.205,-13.978L0.057,1.523L-32.348,-48.143Z" style="fill:rgb(191,95,87);fill-rule:nonzero;"/>
        </g>
        <g transform="matrix(1,0,0,1,1401.09,601.492)">
            <path d="M0,-19.685L1.921,-24.769L6.95,-23.996L21.267,-44.586L23.239,-17.925L36.825,1.684L23.123,24.901L7.986,11.226L0,-19.685Z" style="fill:rgb(191,95,87);fill-rule:nonzero;"/>
        </g>
        <g transform="matrix(1,0,0,1,1370.06,574.128)">
            <path d="M0,-73.449L-27.062,-67.537L-23.561,-65.877L-35.156,-45.021L-30.382,-42.64L-26.235,-15.041L-23.561,-15.663L-11.813,2.075L-5.174,-0.311L-0.922,4.355L6.03,-0.204L8,2.488L14.119,-8.089L17.938,-4.463L23.976,-19.089L25.222,-18.259L31.372,-40.32L28.439,-57.476L31.861,-57.262L25.715,-66.391L29.576,-65.877L16.302,-73.449L17.938,-74.898L7.688,-73.76L-1.649,-77.804L0,-73.449Z" style="fill:rgb(121,85,71);fill-rule:nonzero;"/>
        </g>
        <g transform="matrix(-1,0,0,1,2745.64,-4579.72)">
            <rect x="1359.39" y="5141.4" width="26.867" height="40.253" style="fill:rgb(255,219,190);"/>
        </g>
        <g transform="matrix(1,0,0,1,1359.39,721.339)">
            <path d="M0,-140.368L-24.485,-121.896L-26.453,-100.527L-22.098,-65.879L-17.355,-57.595L-18.387,1.76L33.506,-0.68L64.941,-12.04L58.56,-67.591L64.941,-95.444L50.727,-110.279L41.702,-139.532L26.867,-142.128L25.83,-131.754L14.524,-125.945L2.902,-129.691L0,-140.368Z" style="fill:rgb(229,115,104);fill-rule:nonzero;"/>
        </g>
        <g transform="matrix(-0.980464,0.196699,0.196699,0.980464,1358.81,569.794)">
            <path d="M-25.767,11.072L1.635,11.072L-2.16,-7.844L-28.502,-2.559L-25.767,11.072Z" style="fill:rgb(255,184,127);fill-rule:nonzero;"/>
        </g>
        <g transform="matrix(1,0,0,1,1392.08,567.426)">
            <path d="M0,-38.498L-6.845,-47.894L-22.018,-48.568L-37.19,-47.894L-44.036,-38.498L-45.457,-23.174L-39.296,-3.277L-22.018,10.07L-4.737,-3.277L1.427,-23.174L0,-38.498Z" style="fill:rgb(255,219,190);fill-rule:nonzero;"/>
        </g>
        <g transform="matrix(1,0,0,1,1346.75,526.618)">
            <path d="M0,-8.643L-2.412,4.041L18.574,-6.967L20.308,0.461L32.911,-6.228L31.356,4.041L42.324,0.852L43.806,5.443L49.018,0.149C49.018,0.149 42.85,-10.757 28.4,-12.295C11.591,-14.086 0,-8.643 0,-8.643" style="fill:rgb(121,85,71);fill-rule:nonzero;"/>
        </g>
        <g transform="matrix(-0.978602,0.205764,0.205764,0.978602,1385.79,540.862)">
            <path d="M-8.376,14.871L-0.212,14.871C3.818,13.558 -2.757,-2.333 -6.787,-1.019L-12.957,4.173L-8.376,14.871Z" style="fill:rgb(255,219,190);fill-rule:nonzero;"/>
        </g>
        <g transform="matrix(0.978586,0.205838,0.205838,-0.978586,1341.43,552.521)">
            <path d="M1.547,-0.871L9.709,-0.871C13.738,0.443 7.168,16.335 3.132,15.019L-3.037,9.827L1.547,-0.871Z" style="fill:rgb(255,219,190);fill-rule:nonzero;"/>
        </g>
        <g transform="matrix(0,-1,-1,0,1453.79,416.857)">
            <path d="M-20.436,-20.437C-31.724,-20.437 -40.872,-11.287 -40.872,-0.001C-40.872,11.288 -31.724,20.436 -20.436,20.436C-9.147,20.436 -0.001,11.288 -0.001,-0.001C-0.001,-11.287 -9.147,-20.437 -20.436,-20.437" style="fill:rgb(77,77,77);fill-rule:nonzero;"/>
        </g>
        <g transform="matrix(1,0,0,1,1283.76,737.38)">
            <path d="M0,-25.87C-7.136,-25.87 -12.94,-20.067 -12.94,-12.934C-12.94,-5.803 -7.136,0 0,0C7.132,0 12.935,-5.803 12.935,-12.934C12.935,-20.067 7.132,-25.87 0,-25.87M0,15C-15.406,15 -27.94,2.469 -27.94,-12.934C-27.94,-28.338 -15.406,-40.87 0,-40.87C15.403,-40.87 27.935,-28.338 27.935,-12.934C27.935,2.469 15.403,15 0,15" style="fill:rgb(241,147,0);fill-rule:nonzero;"/>
        </g>
        <g transform="matrix(0,-1,-1,0,1283.76,704.007)">
            <path d="M-20.438,-20.437C-31.727,-20.437 -40.873,-11.286 -40.873,-0.002C-40.873,11.288 -31.727,20.438 -20.438,20.438C-9.15,20.438 -0.002,11.288 -0.002,-0.002C-0.002,-11.286 -9.15,-20.437 -20.438,-20.437" style="fill:rgb(77,77,77);fill-rule:nonzero;"/>
        </g>
        <g transform="matrix(1,0,0,1,1308.33,951.43)">
            <path d="M0,-31.431L-12.333,-19.191L-27.688,-11.983L-26.647,0L25.114,0L25.114,-18.987L21.692,-31.431L0,-31.431Z" style="fill:rgb(204,204,204);fill-rule:nonzero;"/>
        </g>
        <g transform="matrix(1,0,0,1,1317.73,916.994)">
            <path d="M0,-6.648L-8.716,-9.653L-15.248,-6.648L-9.399,3.005L-2.178,3.005L0,-6.648Z" style="fill:rgb(204,204,204);fill-rule:nonzero;"/>
        </g>
        <g transform="matrix(-1,0,0,1,1322.87,951.43)">
            <path d="M0.782,-12.761L5.138,-12.761L0.005,0L-4.356,0L0.782,-12.761Z" style="fill:rgb(204,112,112);fill-rule:nonzero;"/>
        </g>
        <g transform="matrix(-1,0,0,1,1318.02,951.429)">
            <path d="M0.569,-9.275L3.734,-9.275L0.001,0L-3.165,0L0.569,-9.275Z" style="fill:rgb(204,112,112);fill-rule:nonzero;"/>
        </g>
        <g transform="matrix(1,0,0,1,1463.81,951.43)">
            <path d="M0,-31.431L12.334,-19.191L27.685,-11.983L26.648,0L-25.115,0L-25.115,-18.987L-21.691,-31.431L0,-31.431Z" style="fill:rgb(204,204,204);fill-rule:nonzero;"/>
        </g>
        <g transform="matrix(1,0,0,1,1454.41,916.994)">
            <path d="M0,-6.648L8.715,-9.653L15.25,-6.648L9.399,3.005L2.178,3.005L0,-6.648Z" style="fill:rgb(204,204,204);fill-rule:nonzero;"/>
        </g>
        <g transform="matrix(1,0,0,1,1450.05,951.43)">
            <path d="M0,-12.761L4.359,-12.761L-0.778,0L-5.135,0L0,-12.761Z" style="fill:rgb(204,112,112);fill-rule:nonzero;"/>
        </g>
        <g transform="matrix(1,0,0,1,1454.69,951.429)">
            <path d="M0,-9.275L3.168,-9.275L-0.566,0L-3.73,0L0,-9.275Z" style="fill:rgb(204,112,112);fill-rule:nonzero;"/>
        </g>
        <g transform="matrix(-0.975726,0.218996,0.218996,0.975726,1339.77,626.162)">
            <path d="M-19.027,3.36L0.855,3.36L-0.371,-2.103L-20.254,-2.109L-19.027,3.36Z" style="fill:rgb(242,242,242);fill-rule:nonzero;"/>
        </g>
    </g>
</svg>
