<?xml version="1.0" encoding="UTF-8" standalone="no"?>
<!DOCTYPE svg PUBLIC "-//W3C//DTD SVG 1.1//EN" "http://www.w3.org/Graphics/SVG/1.1/DTD/svg11.dtd">
<svg width="100%" height="100%" viewBox="0 0 57 244" version="1.1" xmlns="http://www.w3.org/2000/svg" xmlns:xlink="http://www.w3.org/1999/xlink" xml:space="preserve" xmlns:serif="http://www.serif.com/" style="fill-rule:evenodd;clip-rule:evenodd;stroke-linejoin:round;stroke-miterlimit:2;">
    <g transform="matrix(1.00044,0,0,1.00044,-1392.38,-3094.07)">
        <g opacity="0.3">
            <g transform="matrix(1,0,0,1,1448.55,3322.3)">
                <path d="M0,-215.446L-0.294,-216.725C-1.939,-223.843 -7.938,-228.999 -15.229,-229.552C-15.229,-229.552 -15.232,-229.552 -15.237,-229.553C-15.793,-229.594 -16.347,-229.608 -16.901,-229.588C-20.696,-229.484 -24.34,-228.029 -27.306,-225.41C-30.687,-222.428 -32.73,-218.346 -33.063,-213.918L-33.958,-201.96L-33.729,-201.943L-35.657,-176.24C-39.711,-180.676 -41.742,-189.798 -42.107,-191.576C-42.147,-191.766 -42.169,-191.878 -42.169,-191.878C-51.534,-163.419 -56.252,-186.599 -56.252,-186.599C-58.702,-151.112 -52.127,-44.488 -48.538,-4.492L-48.774,-1.343L-48.905,-1.353L-49.325,11.11C-49.368,12.245 -48.737,13.247 -47.789,13.738C-47.464,13.908 -47.087,14.019 -46.693,14.049C-45.161,14.162 -43.821,13.055 -43.647,11.533L-42.216,-0.774L-42.211,-0.848L-42.415,-0.864L-42.392,-1.182L-42.34,-1.178C-32.035,-37.696 -5.837,-146.564 -3.325,-182.944C-10.741,-164.617 -16.104,-187.007 -16.669,-189.506C-16.699,-189.652 -16.718,-189.73 -16.718,-189.73C-21.768,-179.404 -25.979,-175.008 -29.428,-174.03L-27.37,-201.467L-26.988,-201.439L-26.087,-213.46C-25.718,-218.39 -21.829,-222.242 -17.146,-222.578C-16.717,-222.616 -16.281,-222.615 -15.843,-222.588L-15.761,-222.582C-11.53,-222.262 -8.063,-219.287 -7.105,-215.154L-6.811,-213.876C-6.603,-212.968 -6.049,-212.19 -5.26,-211.695C-5.038,-211.56 -4.808,-211.449 -4.565,-211.369C-3.95,-211.146 -3.275,-211.107 -2.623,-211.256C-0.745,-211.687 0.431,-213.566 0,-215.446" style="fill-rule:nonzero;"/>
            </g>
        </g>
    </g>
</svg>
