<?xml version="1.0" encoding="UTF-8" standalone="no"?>
<!DOCTYPE svg PUBLIC "-//W3C//DTD SVG 1.1//EN" "http://www.w3.org/Graphics/SVG/1.1/DTD/svg11.dtd">
<svg width="100%" height="100%" viewBox="0 0 286 602" version="1.1" xmlns="http://www.w3.org/2000/svg" xmlns:xlink="http://www.w3.org/1999/xlink" xml:space="preserve" xmlns:serif="http://www.serif.com/" style="fill-rule:evenodd;clip-rule:evenodd;stroke-linejoin:round;stroke-miterlimit:2;">
    <g transform="matrix(1.33347,0,0,1.33347,-27.7512,-17.224)">
        <g opacity="0.3">
            <g transform="matrix(1,0,0,1,229.067,234.266)">
                <path d="M0,0.819C-0.807,14.314 -8,25.936 -18.458,32.924L-19.718,26.489C-11.878,20.411 -6.588,11.122 -5.951,0.464C-5.77,-2.587 -5.979,-5.573 -6.538,-8.444C-4.198,-9.027 -2.389,-10.222 -1.088,-11.405C-0.144,-7.499 0.251,-3.395 0,0.819M-21.975,14.956C-22.102,13.93 -22.448,12.558 -22.962,10.964C-20.752,7.726 -19.36,3.872 -19.11,-0.318C-18.797,-5.566 -20.327,-10.501 -23.134,-14.505C-23.125,-15.47 -23.115,-16.417 -23.099,-17.333C-21.705,-15.395 -16.542,-10.283 -15.201,-9.266C-14.352,-6.343 -13.976,-3.232 -14.167,-0.025C-14.563,6.625 -17.314,12.583 -21.557,17.09L-21.975,14.956ZM-23.834,8.465C-24.327,7.144 -24.896,5.734 -25.516,4.294C-25.486,4.215 -25.466,4.133 -25.438,4.055C-24.556,3.495 -23.977,2.814 -23.787,1.973C-23.27,-0.255 -23.197,-5.325 -23.161,-10.582C-21.667,-7.528 -20.905,-4.067 -21.121,-0.438C-21.315,2.824 -22.288,5.851 -23.82,8.506C-23.825,8.492 -23.829,8.479 -23.834,8.465M-7.462,0.376C-8.053,10.308 -12.864,19.005 -20.043,24.827L-21.205,18.891C-16.305,14.053 -13.1,7.465 -12.658,0.065C-12.479,-2.935 -12.768,-5.857 -13.459,-8.629C-11.433,-8.083 -9.625,-7.981 -8.026,-8.172C-7.49,-5.417 -7.287,-2.552 -7.462,0.376M-14.884,-127.366C-15.253,-127.528 -15.625,-127.684 -16.008,-127.824C-20.584,-129.49 -25.546,-131.64 -31.316,-133.389C-27.358,-136.987 -24.642,-141.958 -23.86,-148.732C-22.898,-157.048 -21.726,-229.872 -79.889,-215.471C-110.231,-201.924 -102.131,-149.201 -99.227,-134.55C-98.765,-132.188 -96.993,-130.321 -94.665,-129.716C-93.902,-129.519 -93.03,-129.3 -92.073,-129.07C-94.61,-128.142 -96.984,-127.161 -99.15,-126.148C-107.969,-125.79 -112.984,-112.734 -115.311,-94.923C-119.567,-62.313 -129.002,-38.665 -129.002,-38.665L-171.309,15.341C-171.93,16.127 -171.759,17.767 -171.098,19.725C-171.221,19.864 -171.346,20.001 -171.467,20.139C-175.734,25.038 -189.465,29.41 -191.777,30.284C-194.089,31.152 -207.724,37.122 -208.212,38.834C-208.882,41.19 -201.711,38.526 -195.789,36.304C-192.875,35.213 -189.787,34.624 -186.675,34.678C-181.353,34.766 -174.149,34.051 -174.149,34.051C-174.149,34.051 -175.231,34.799 -178.248,34.507C-180.551,34.285 -184.651,38.048 -181.47,38.333C-178.289,38.618 -174.728,38.231 -173.367,37.568C-172.067,36.933 -166.507,35.97 -165.177,34.942C-164.42,34.356 -162.748,33.39 -161.181,32.09C-160.779,32.095 -160.405,31.995 -160.074,31.748C-149.551,22.947 -139.515,13.448 -130.847,4.723C-128.05,2.02 -125.251,-0.727 -122.55,-3.442C-123.306,-0.712 -123.983,2.208 -124.56,5.36C-125.036,5.646 -137.736,14.334 -145.899,20.349C-149.431,22.88 -152.103,24.883 -152.628,25.553C-155.828,29.467 -159.743,34.146 -162.415,42.929C-163.035,45.173 -163.465,47.607 -163.607,50.329C-163.752,52.908 -163.465,55.963 -163.083,57.918C-162.319,61.833 -161.698,63.123 -161.031,64.983C-158.691,70.999 -128.667,127.042 -121.409,139.928L-121.409,139.977C-121.253,140.264 -121.107,140.531 -120.971,140.775C-121.082,141.074 -121.106,141.37 -121.022,141.662C-120.927,141.958 -120.413,142.778 -119.567,144.008C-119.322,144.39 -119.05,144.798 -118.745,145.241C-118.447,145.677 -118.144,146.116 -117.84,146.614C-117.567,146.998 -117.264,147.436 -116.99,147.875C-111.05,156.926 -101.107,173.679 -105.476,184.665C-106.816,188.048 -109.479,194.486 -110.608,199.824C-111.497,203.82 -111.519,207.176 -109.502,208.174C-104.841,210.484 -88.371,212.732 -82.308,207.117C-81.706,206.51 -80.75,204.325 -79.897,201.546C-79.074,198.676 -78.349,195.189 -78.257,192.277C-78.141,187.762 -77.793,183.241 -76.735,178.827C-76.002,175.842 -75.943,171.386 -79.324,166.735C-82.769,161.965 -88.024,149.068 -90.899,140.397C-91.026,140.01 -91.151,139.631 -91.246,139.275C-91.535,138.393 -91.79,137.571 -92.012,136.812C-91.981,136.733 -91.975,136.659 -92.005,136.589C-92.079,136.418 -92.152,136.241 -92.225,136.07C-92.689,134.405 -92.954,133.143 -92.969,132.481C-93.141,132.354 -93.447,132.272 -93.844,132.221C-94.233,131.282 -94.623,130.342 -95.013,129.378C-96.968,124.417 -115.921,63.504 -116.351,61.643C-115.827,61.547 -109.188,58.73 -106.993,58.395C-106.426,58.137 -105.85,57.889 -105.271,57.645C-105.083,57.566 -104.895,57.487 -104.705,57.409C-104.312,57.247 -103.916,57.087 -103.52,56.928C-103.296,56.84 -103.075,56.75 -102.851,56.663C-102.826,56.653 -102.802,56.643 -102.777,56.633C-93.586,53.055 -83.829,50.565 -80.319,45.21C-80.316,45.213 -80.312,45.215 -80.309,45.218L-59.542,56.2C-58.011,57.687 -56.256,58.965 -54.34,59.991C-54.069,61.289 -53.762,62.644 -53.399,64.09C-51.798,70.448 -50.458,81.063 -50.355,87.618C-49.973,111.096 -46.703,127.983 -41.86,146.711C-42.971,148.027 -43.188,149.342 -42.09,150.542C-41.917,151.133 -41.708,151.788 -41.504,152.559C-41.387,153.006 -41.27,153.508 -41.124,154.013C-41.006,154.577 -40.858,155.171 -40.71,155.764L-40.71,155.796C-40.625,156.181 -40.532,156.568 -40.446,156.954C-38.624,164.998 -36.628,176.574 -36.919,182.333C-37.245,188.746 -37.891,204.715 -39.917,214.572C-40.297,216.381 -40.71,217.985 -41.178,219.291C-44.176,227.633 -19.822,230.691 -12.742,218.313C-11.98,216.856 -11.623,214.542 -11.596,211.692C-11.363,200.917 -15.298,182.839 -15.501,178.03C-15.829,171.024 -14.331,161.969 -11.505,147.481C-11.419,147.066 -11.333,146.62 -11.242,146.176C-10.889,144.364 -10.506,142.435 -10.094,140.418C-10.095,139.221 -10.994,138.465 -12.489,138.063C-11.35,129.34 -10.376,120.305 -10.148,111.56C-10.008,106.223 -10.17,100.879 -10.621,95.561C-11.093,90.027 -12,84.526 -13.398,79.149C-16.995,65.323 -15.738,56.565 -16.466,49.214C-16.084,47.704 -15.991,46.044 -16.248,44.217L-18.248,33.996C-7.348,26.865 0.17,14.852 1.002,0.88C1.272,-3.648 0.814,-8.05 -0.258,-12.224C0.919,-13.483 1.492,-14.54 1.492,-14.54C3.055,-17.431 3.389,-19.079 3.799,-20.584C4.15,-22.043 4.389,-23.337 4.568,-24.5C4.934,-26.866 5.119,-28.935 5.273,-30.98C5.546,-34.677 7.937,-124.405 -14.884,-127.366" style="fill-rule:nonzero;"/>
            </g>
        </g>
    </g>
</svg>
