<?xml version="1.0" encoding="UTF-8" standalone="no"?>
<!DOCTYPE svg PUBLIC "-//W3C//DTD SVG 1.1//EN" "http://www.w3.org/Graphics/SVG/1.1/DTD/svg11.dtd">
<svg width="100%" height="100%" viewBox="0 0 520 98" version="1.1" xmlns="http://www.w3.org/2000/svg" xmlns:xlink="http://www.w3.org/1999/xlink" xml:space="preserve" xmlns:serif="http://www.serif.com/" style="fill-rule:evenodd;clip-rule:evenodd;stroke-linejoin:round;stroke-miterlimit:2;">
    <g transform="matrix(1.00003,0,0,1.00003,-704.53,-4804.5)">
        <g transform="matrix(1,0,0,1,734.018,4814.04)">
            <path d="M0,87.375C-2.67,87.375 -5.266,86.402 -7.288,84.613C-8.286,83.74 -11.778,81.563 -13.037,81.029C-16.144,79.711 -18.474,77.038 -19.357,73.78C-20.24,70.522 -19.578,67.039 -17.561,64.332C-15.905,62.108 -15.047,58.959 -14.603,55.882C-19.173,54.546 -22.511,50.324 -22.511,45.322L-22.511,29.191C-22.511,23.544 -18.255,18.891 -12.776,18.264L-12.776,11C-12.776,4.925 -7.851,0 -1.776,0L40.576,0C46.651,0 51.576,4.925 51.576,11L51.576,18.196C57.493,18.377 62.235,23.23 62.235,29.191L62.235,45.322C62.235,50.748 58.307,55.257 53.139,56.158L53.139,66.711C53.139,75.604 49.528,81.624 42.405,84.604C37.267,86.807 31.399,86.807 25.725,86.807C20.492,86.807 16.002,83.124 14.952,78.032C13.76,78.228 12.602,78.418 11.484,78.603C10.728,80.045 9.906,81.403 9.019,82.674C7.222,85.245 4.414,86.928 1.299,87.298C0.866,87.35 0.432,87.375 0,87.375" style="fill:rgb(244,214,132);fill-rule:nonzero;"/>
        </g>
        <g transform="matrix(1,0,0,1,852.322,4811.74)">
            <path d="M0,89.757C-1.54,89.757 -3.099,89.434 -4.577,88.756C-9.179,86.648 -17.2,83.485 -24.748,81.173C-25.943,80.807 -27.053,80.244 -28.037,79.522C-34.658,83.006 -44.094,86.868 -51.797,89.209C-57.052,90.805 -62.682,88.281 -64.983,83.293C-65.999,81.093 -67.904,77.571 -68.56,76.682C-70.809,73.632 -71.354,69.606 -69.963,66.08C-68.594,62.613 -65.589,60.047 -61.945,59.306L-61.945,46.742C-62.602,46.179 -63.195,45.535 -63.709,44.82C-64.346,43.982 -66.586,41.787 -67.477,41.137C-70.478,39.177 -72.338,35.875 -72.456,32.288C-72.575,28.669 -70.905,25.223 -67.991,23.073C-66.5,21.975 -66.066,21.222 -66.066,18.355L-66.066,14.091C-66.066,8.217 -61.452,3.38 -55.585,3.104C-47.976,2.744 -41.019,1.754 -37.863,0.582C-33.919,-0.885 -29.504,0.034 -26.472,2.903C-26.385,2.898 -26.297,2.893 -26.209,2.889C-16.283,2.445 -9.976,1.254 -7.591,0.368C-3.782,-1.048 0.496,-0.247 3.536,2.448L9.789,7.991C11.789,9.764 13.044,12.173 13.393,14.746C14.836,16.608 15.695,18.944 15.695,21.482L15.695,28.871C15.695,34.096 12.052,38.47 7.168,39.592L7.168,60.763C7.707,60.969 8.221,61.171 8.71,61.366C11.759,62.586 14.103,65.104 15.103,68.232C16.102,71.36 15.651,74.771 13.874,77.532L9.255,84.709C7.173,87.944 3.642,89.757 0,89.757" style="fill:rgb(244,214,132);fill-rule:nonzero;"/>
        </g>
        <g transform="matrix(1,0,0,1,911.584,4810.26)">
            <path d="M0,90.666L-10.375,90.666C-13.632,90.666 -16.559,89.25 -18.573,87C-19.45,87.324 -20.373,87.538 -21.32,87.63C-22.172,87.714 -23.023,87.695 -23.857,87.583C-25.812,89.365 -28.412,90.452 -31.266,90.452L-41.073,90.452C-47.148,90.452 -52.073,85.527 -52.073,79.452L-52.073,56.985C-53.434,55.756 -54.487,54.186 -55.102,52.393C-55.661,50.765 -58.028,45.924 -59.178,44.198C-62.114,39.797 -61.5,33.929 -57.716,30.229C-52.492,25.123 -47.229,16.615 -44.309,8.554C-42.286,2.972 -36.202,0 -30.557,1.843L-23.498,4.144L14.354,4.144C20.43,4.144 25.354,9.068 25.354,15.144L25.354,38.017C27.331,40.005 28.552,42.745 28.552,45.77L28.552,55.079C28.552,57.641 27.677,59.998 26.208,61.867C27.114,63.426 27.912,64.921 28.559,66.286C30.981,71.399 29.13,77.517 24.278,80.429L16.106,85.332C13.791,86.722 11.064,87.201 8.444,86.716C6.427,89.13 3.393,90.666 0,90.666" style="fill:rgb(244,214,132);fill-rule:nonzero;"/>
        </g>
        <g transform="matrix(1,0,0,1,947.889,4811.5)">
            <path d="M0,89.35L-8.954,89.35C-15.029,89.35 -19.954,84.425 -19.954,78.35L-19.954,53.607C-20.699,52.543 -21.262,51.338 -21.597,50.037C-22.038,48.32 -24.072,43.085 -25.047,41.321C-27.153,37.511 -26.815,32.818 -24.184,29.35C-20.523,24.525 -16.945,16.463 -14.845,8.312C-14.101,5.423 -12.216,2.961 -9.622,1.489C-7.028,0.018 -3.945,-0.338 -1.085,0.504L8.082,3.204C8.803,3.417 9.487,3.697 10.127,4.036L21.105,4.036C21.231,4.036 21.358,4.037 21.483,4.042C23.498,1.485 26.622,-0.157 30.129,-0.157L38.514,-0.157C42.395,-0.157 45.806,1.853 47.764,4.888L48.463,4.888C54.539,4.888 59.463,9.813 59.463,15.888L59.463,17.031C61.648,19.041 63.016,21.924 63.016,25.126L63.016,32.445C63.016,35.647 61.648,38.53 59.463,40.54L59.463,40.915C59.741,41.881 59.889,42.902 59.889,43.956L59.889,48.204C60.925,49.881 61.524,51.859 61.524,53.976L61.524,61.826C61.862,62.256 62.17,62.716 62.445,63.202C64.417,66.69 64.334,70.972 62.237,74.38C61.841,75.146 61.108,77.402 60.848,78.828C59.896,84.057 55.341,87.858 50.026,87.858L36.098,87.858C30.473,87.858 23,87.422 15.668,84.529C14.496,85.574 13.268,86.528 11.979,87.398C9.258,89.232 6.001,89.688 3.048,88.922C2.08,89.201 1.058,89.35 0,89.35" style="fill:rgb(244,214,132);fill-rule:nonzero;"/>
        </g>
        <g transform="matrix(1,0,0,1,1064.06,4812.85)">
            <path d="M0,87.788C-1.542,87.788 -3.105,87.463 -4.592,86.778C-12.919,82.946 -19.896,77.569 -25.646,70.517C-31.119,77.068 -38.077,82.459 -46.471,86.635C-51.682,89.226 -58.009,87.311 -60.907,82.267C-61.807,80.702 -63.915,78.167 -65.753,76.8C-68.879,74.474 -70.541,70.668 -70.123,66.794C-69.705,62.92 -67.269,59.557 -63.718,57.951C-58.768,55.714 -54.862,53.02 -51.851,49.697L-57.765,49.697C-63.84,49.697 -68.765,44.772 -68.765,38.697L-68.765,27.968C-68.765,21.892 -63.84,16.968 -57.765,16.968L-43.106,16.968C-43.091,15.678 -43.081,14.392 -43.072,13.119C-43.063,11.877 -43.055,10.645 -43.04,9.43C-42.968,3.406 -38.064,-1.438 -32.041,-1.438L-20.672,-1.438C-17.731,-1.438 -14.913,-0.26 -12.847,1.831C-10.78,3.923 -9.637,6.755 -9.673,9.695L-9.675,9.881C-9.702,12.142 -9.73,14.518 -9.791,16.968L5.905,16.968C11.98,16.968 16.905,21.892 16.905,27.968L16.905,38.697C16.905,44.772 11.98,49.697 5.905,49.697L0.945,49.697C4,52.801 7.57,55.146 11.642,56.717C15.221,58.098 17.821,61.244 18.506,65.018C19.189,68.794 17.857,72.652 14.99,75.201C13.5,76.524 10.758,80.056 9.654,82.071C7.665,85.703 3.903,87.788 0,87.788" style="fill:rgb(244,214,132);fill-rule:nonzero;"/>
        </g>
        <g transform="matrix(1,0,0,1,1095.79,4812.41)">
            <path d="M0,88.379C-0.56,88.379 -1.13,88.375 -1.714,88.369C-6.953,88.317 -11.428,84.575 -12.408,79.428C-12.703,77.883 -14.104,74.134 -15.26,72.123C-15.442,71.806 -15.608,71.481 -15.757,71.15C-16.285,70.887 -16.795,70.579 -17.28,70.229C-18.819,69.117 -22.686,67.084 -25.086,66.124C-28.275,64.849 -30.686,62.157 -31.603,58.848C-32.52,55.537 -31.838,51.989 -29.76,49.255C-26.397,44.83 -23.063,35.044 -21.652,25.457C-21.222,22.531 -19.631,19.902 -17.239,18.163C-14.848,16.425 -11.856,15.724 -8.939,16.213L-3.151,17.19L-3.151,11C-3.151,4.925 1.773,0 7.849,0L19.218,0C25.293,0 30.218,4.925 30.218,11L30.218,16.273L31.241,15.893C36.332,14.006 42.037,16.115 44.677,20.859C47.36,25.683 56.326,42.488 59.007,56.218C60.024,61.426 57.178,66.617 52.24,68.562L40.87,73.038C37.761,74.263 34.262,74.008 31.363,72.342C30.791,72.013 30.254,71.637 29.757,71.218C28.882,76.043 26.347,81.946 19.001,85.404C18.922,85.441 18.843,85.478 18.764,85.513C13.066,88.031 6.379,88.379 0,88.379" style="fill:rgb(244,214,132);fill-rule:nonzero;"/>
        </g>
        <g transform="matrix(1,0,0,1,1167.94,4811.41)">
            <path d="M0,89.721C-5.188,89.721 -9.676,86.076 -10.761,81.002C-10.838,80.642 -11.052,80.028 -11.329,79.346L-14.141,79.346C-19.958,79.346 -24.721,74.83 -25.114,69.113C-29.169,67.492 -32.033,63.528 -32.033,58.895L-32.033,51.15C-32.033,46.29 -28.883,42.167 -24.514,40.711C-24.292,39.283 -23.796,37.945 -23.08,36.753L-23.08,33.399C-27.271,31.845 -30.257,27.812 -30.257,23.081L-30.257,15.051C-30.257,8.976 -25.332,4.051 -19.257,4.051L-1.848,4.051C0.169,1.578 3.24,0 6.68,0L17.196,0C20.636,0 23.707,1.578 25.724,4.051L43.773,4.051C49.849,4.051 54.773,8.976 54.773,15.051L54.773,23.081C54.773,27.732 51.888,31.707 47.81,33.318L47.81,37.258C48.368,38.311 48.762,39.465 48.954,40.687C53.363,42.119 56.55,46.263 56.55,51.15L56.55,58.895C56.55,63.733 53.428,67.84 49.088,69.314L49.088,71.26C49.088,77.335 44.163,82.26 38.088,82.26L27.571,82.26C26.538,82.26 25.538,82.117 24.59,81.851C23.05,83.902 20.853,85.814 17.716,87.274C17.586,87.333 17.455,87.392 17.323,87.447C12.28,89.558 6.963,89.721 0,89.721" style="fill:rgb(244,214,132);fill-rule:nonzero;"/>
        </g>
        <g transform="matrix(1,0,0,1,734.018,4816.04)">
            <path d="M0,83.375C-2.185,83.375 -4.31,82.579 -5.964,81.114C-7.086,80.122 -10.79,77.81 -12.255,77.188C-14.798,76.109 -16.704,73.923 -17.426,71.257C-18.149,68.592 -17.607,65.742 -15.958,63.526C-13.712,60.513 -12.782,56.151 -12.397,52.279C-16.952,51.834 -20.511,47.994 -20.511,43.322L-20.511,27.191C-20.511,22.221 -16.482,18.191 -11.511,18.191L-10.776,18.191L-10.776,9C-10.776,4.029 -6.747,0 -1.776,0L40.576,0C45.547,0 49.576,4.029 49.576,9L49.576,18.191L51.235,18.191C56.206,18.191 60.235,22.221 60.235,27.191L60.235,43.322C60.235,48.293 56.206,52.322 51.235,52.322L51.139,52.322L51.139,64.711C51.139,67.696 51.139,76.782 41.634,80.759C37.204,82.657 32.243,82.807 25.725,82.807C21.341,82.807 17.595,79.647 16.854,75.327C16.78,74.897 16.641,74.354 16.457,73.76C14.246,74.121 12.134,74.467 10.159,74.795C9.323,76.493 8.396,78.072 7.379,79.529C5.909,81.633 3.611,83.009 1.062,83.313C0.708,83.354 0.353,83.375 0,83.375" style="fill:rgb(244,214,132);fill-rule:nonzero;"/>
        </g>
        <g transform="matrix(1,0,0,1,852.323,4813.66)">
            <path d="M0,85.828C-1.26,85.828 -2.535,85.563 -3.745,85.009C-8.407,82.873 -16.528,79.671 -24.163,77.332C-25.542,76.909 -26.78,76.168 -27.791,75.189C-34.321,78.774 -44.311,82.914 -52.379,85.367C-56.681,86.674 -61.286,84.608 -63.168,80.526C-64.172,78.351 -66.19,74.58 -66.958,73.556C-68.826,71.065 -69.273,67.786 -68.142,64.886C-67.01,61.985 -64.46,59.876 -61.399,59.308C-60.918,59.219 -60.433,59.126 -59.946,59.03L-59.946,43.837C-60.765,43.263 -61.491,42.551 -62.087,41.723C-62.781,40.774 -65.415,38.2 -66.355,37.552C-68.851,35.953 -70.38,33.242 -70.478,30.281C-70.575,27.32 -69.189,24.513 -66.805,22.755C-64.681,21.188 -64.067,19.769 -64.067,16.426L-64.067,12.162C-64.067,7.356 -60.292,3.398 -55.492,3.172C-47.574,2.799 -40.552,1.785 -37.167,0.528C-33.793,-0.727 -29.995,0.152 -27.513,2.762L-27.216,3.073C-26.858,3.014 -26.493,2.974 -26.121,2.958C-17.761,2.585 -10.214,1.547 -6.896,0.314C-3.777,-0.846 -0.279,-0.191 2.208,2.016L8.461,7.559C10.236,9.133 11.294,11.319 11.466,13.625C12.854,15.208 13.694,17.282 13.694,19.553L13.694,26.942C13.694,31.754 9.917,35.684 5.167,35.931L5.167,60.215C6.173,60.591 7.11,60.952 7.966,61.294C10.46,62.292 12.378,64.352 13.196,66.912C14.014,69.471 13.645,72.262 12.191,74.52L7.573,81.697C5.869,84.345 2.98,85.828 0,85.828" style="fill:rgb(244,214,132);fill-rule:nonzero;"/>
        </g>
        <g transform="matrix(1,0,0,1,911.584,4812.5)">
            <path d="M0,86.425L-10.375,86.425C-13.559,86.425 -16.356,84.772 -17.957,82.277C-19.04,82.889 -20.25,83.276 -21.513,83.399C-22.533,83.496 -23.553,83.421 -24.531,83.181C-26.18,85.039 -28.586,86.211 -31.266,86.211L-41.073,86.211C-46.043,86.211 -50.073,82.182 -50.073,77.211L-50.073,53.802C-51.505,52.735 -52.612,51.248 -53.21,49.503C-53.824,47.714 -56.239,42.76 -57.514,40.848C-59.916,37.246 -59.413,32.445 -56.318,29.419C-50.896,24.118 -45.443,15.316 -42.428,6.993C-40.772,2.429 -35.793,0 -31.177,1.503L-23.802,3.906C-23.708,3.904 -23.615,3.903 -23.521,3.903L14.354,3.903C19.325,3.903 23.354,7.932 23.354,12.903L23.354,36.65C25.311,38.3 26.552,40.77 26.552,43.529L26.552,52.838C26.552,55.416 25.468,57.74 23.731,59.382C24.928,61.356 25.966,63.244 26.751,64.902C28.734,69.085 27.219,74.09 23.249,76.473L15.077,81.376C12.833,82.724 10.112,83.027 7.627,82.205C6.035,84.74 3.214,86.425 0,86.425" style="fill:rgb(244,214,132);fill-rule:nonzero;"/>
        </g>
        <g transform="matrix(1,0,0,1,947.889,4813.55)">
            <path d="M0,85.303L-8.954,85.303C-13.924,85.303 -17.954,81.274 -17.954,76.303L-17.954,50.894C-18.744,49.912 -19.333,48.758 -19.66,47.491C-20.144,45.612 -22.215,40.263 -23.297,38.306C-25.02,35.189 -24.743,31.349 -22.59,28.512C-18.78,23.489 -15.07,15.156 -12.908,6.764C-12.3,4.401 -10.757,2.386 -8.634,1.181C-6.512,-0.023 -3.992,-0.315 -1.65,0.376L7.517,3.076C8.265,3.296 8.963,3.606 9.603,3.989L21.105,3.989C21.561,3.989 22.012,4.023 22.457,4.09C24.04,1.514 26.884,-0.204 30.129,-0.204L38.514,-0.204C42.066,-0.204 45.137,1.853 46.601,4.841L48.463,4.841C53.434,4.841 57.463,8.87 57.463,13.841L57.463,15.914C59.623,17.559 61.016,20.157 61.016,23.079L61.016,30.398C61.016,33.321 59.623,35.918 57.463,37.563L57.463,39.166C57.74,40.031 57.889,40.952 57.889,41.909L57.889,46.755C58.919,48.219 59.524,50.003 59.524,51.929L59.524,59.817C59.524,60.04 59.516,60.262 59.5,60.482C59.958,60.981 60.362,61.534 60.704,62.139C62.332,65.02 62.249,68.562 60.485,71.363C60.06,72.103 59.192,74.713 58.88,76.422C58.102,80.701 54.375,83.811 50.026,83.811L36.098,83.811C30.365,83.811 22.647,83.347 15.252,80.143C13.873,81.466 12.414,82.645 10.86,83.693C8.47,85.306 5.574,85.618 3.021,84.783C2.076,85.12 1.06,85.303 0,85.303" style="fill:rgb(244,214,132);fill-rule:nonzero;"/>
        </g>
        <g transform="matrix(1,0,0,1,1064.06,4814.59)">
            <path d="M0,84.051C-1.262,84.051 -2.542,83.784 -3.758,83.225C-12.548,79.18 -19.788,73.341 -25.631,65.546C-31.145,72.776 -38.411,78.654 -47.363,83.107C-51.626,85.226 -56.803,83.662 -59.175,79.533C-60.196,77.757 -62.489,74.999 -64.561,73.458C-67.118,71.555 -68.479,68.441 -68.137,65.272C-67.794,62.102 -65.801,59.35 -62.896,58.036C-56.1,54.964 -51.16,51.073 -47.732,45.96L-57.767,45.96C-62.737,45.96 -66.767,41.931 -66.767,36.96L-66.767,26.231C-66.767,21.26 -62.737,17.231 -57.767,17.231L-41.14,17.231C-41.102,15.274 -41.088,13.322 -41.074,11.397C-41.065,10.156 -41.057,8.929 -41.042,7.717C-40.982,2.789 -36.971,-1.175 -32.043,-1.175L-20.674,-1.175C-18.268,-1.175 -15.962,-0.212 -14.271,1.5C-12.581,3.211 -11.646,5.529 -11.675,7.934L-11.677,8.119C-11.713,11.105 -11.749,14.141 -11.848,17.231L5.903,17.231C10.874,17.231 14.903,21.26 14.903,26.231L14.903,36.96C14.903,41.931 10.874,45.96 5.903,45.96L-3.429,45.96C0.384,50.988 5.181,54.631 10.92,56.846C13.848,57.976 15.976,60.55 16.535,63.638C17.095,66.727 16.005,69.884 13.659,71.969C11.981,73.46 9.128,77.127 7.898,79.373C6.271,82.344 3.193,84.051 0,84.051" style="fill:rgb(244,214,132);fill-rule:nonzero;"/>
        </g>
        <g transform="matrix(1,0,0,1,1095.79,4814.41)">
            <path d="M0,84.379C-0.554,84.379 -1.118,84.376 -1.694,84.37C-5.981,84.326 -9.643,81.266 -10.444,77.054C-10.807,75.153 -12.362,71.152 -13.527,69.126C-13.799,68.653 -14.024,68.162 -14.204,67.658C-14.874,67.389 -15.515,67.037 -16.109,66.608C-17.94,65.285 -22.039,63.189 -24.345,62.267C-26.954,61.224 -28.926,59.022 -29.676,56.314C-30.427,53.606 -29.869,50.702 -28.169,48.465C-24.009,42.99 -20.905,32.107 -19.675,23.749C-19.322,21.355 -18.021,19.204 -16.063,17.78C-14.107,16.358 -11.658,15.782 -9.273,16.185L-1.152,17.556L-1.152,9C-1.152,4.029 2.877,0 7.848,0L19.217,0C24.187,0 28.217,4.029 28.217,9L28.217,17.147L31.936,15.769C36.099,14.223 40.769,15.949 42.928,19.831C45.576,24.59 54.418,41.161 57.043,54.602C57.875,58.862 55.547,63.11 51.507,64.7L40.137,69.177C37.595,70.179 34.729,69.97 32.358,68.608C30.346,67.452 28.872,65.573 28.217,63.379C28.207,67.418 27.902,77.003 18.147,81.595C18.083,81.625 18.019,81.654 17.954,81.684C12.597,84.052 6.158,84.379 0,84.379" style="fill:rgb(244,214,132);fill-rule:nonzero;"/>
        </g>
        <g transform="matrix(1,0,0,1,1167.94,4813.41)">
            <path d="M0,85.721C-4.251,85.721 -7.923,82.746 -8.805,78.587C-8.948,77.91 -9.446,76.585 -10.021,75.346L-14.141,75.346C-19.111,75.346 -23.141,71.317 -23.141,66.346L-23.141,65.647C-27.095,64.699 -30.033,61.14 -30.033,56.895L-30.033,49.15C-30.033,44.729 -26.846,41.052 -22.643,40.293C-22.619,38.456 -22.047,36.753 -21.08,35.338L-21.08,29.897C-25.177,29.054 -28.257,25.427 -28.257,21.081L-28.257,13.051C-28.257,8.08 -24.228,4.051 -19.257,4.051L-0.839,4.051C0.771,1.611 3.537,0 6.68,0L17.196,0C20.339,0 23.104,1.611 24.715,4.051L43.773,4.051C48.744,4.051 52.773,8.08 52.773,13.051L52.773,21.081C52.773,25.352 49.8,28.927 45.81,29.85L45.81,35.783C46.601,37.101 47.063,38.637 47.087,40.281C51.325,41.01 54.55,44.703 54.55,49.15L54.55,56.895C54.55,61.341 51.326,65.034 47.088,65.764L47.088,69.26C47.088,74.231 43.059,78.26 38.088,78.26L27.571,78.26C26.231,78.26 24.96,77.967 23.817,77.443C22.431,79.756 20.258,81.884 16.872,83.46C16.766,83.509 16.659,83.557 16.551,83.602C11.853,85.569 6.728,85.721 0,85.721" style="fill:rgb(244,214,132);fill-rule:nonzero;"/>
        </g>
        <g transform="matrix(1,0,0,1,0,3972.13)">
            <path d="M764.148,868.614L756.971,868.614L756.971,871.101L764.148,871.101L764.148,868.614ZM742.12,871.101L748.018,871.101L748.018,862.574L764.148,862.574L764.148,860.584L742.12,860.584L742.12,871.101ZM766.209,897.677L766.209,889.293L740.77,889.293L740.77,889.506C740.77,892.988 740.556,897.109 739.988,901.301C744.678,900.733 750.647,899.952 757.113,899.028C752.068,897.82 745.744,896.825 740.627,896.541L743.399,890.003C750.434,890.074 760.169,891.566 765.427,893.342L763.509,898.104L766.209,897.677ZM775.589,879.77L731.674,879.77L731.674,881.546L775.589,881.546L775.589,879.77ZM785.253,887.232L776.157,887.232L776.157,908.621C776.157,912.956 775.234,915.088 772.178,916.366C769.193,917.645 765.072,917.716 759.743,917.716C759.316,915.229 758.037,911.818 756.9,909.616C759.671,909.758 763.722,909.758 764.717,909.758C765.783,909.686 766.209,909.402 766.209,908.478L766.209,905.921C757.611,907.413 749.083,908.763 742.262,909.9L739.846,902.225C738.922,907.981 737.146,913.808 734.019,918.285C732.171,916.65 727.624,913.808 725.278,912.813C730.466,905.849 730.892,896.043 730.892,889.363L730.892,887.232L722.507,887.232L722.507,871.101L732.242,871.101L732.242,852.91L774.594,852.91L774.594,871.101L785.253,871.101L785.253,887.232Z" style="fill:rgb(244,214,132);fill-rule:nonzero;"/>
        </g>
        <g transform="matrix(1,0,0,1,0,3969.58)">
            <path d="M811.325,902.368L838.044,902.368L838.044,900.236L811.325,900.236L811.325,902.368ZM811.325,894.623L838.044,894.623L838.044,892.491L811.325,892.491L811.325,894.623ZM838.044,884.817L811.325,884.817L811.325,886.949L838.044,886.949L838.044,884.817ZM838.328,877.781L838.328,871.03L833.922,871.03C833.07,873.873 831.791,876.573 829.659,878.848L848.49,878.848L848.49,908.337L841.384,908.337C847.282,910.185 853.038,912.175 856.946,913.738L852.327,920.915C847.21,918.57 838.684,915.231 830.796,912.815L833.425,908.337L816.015,908.337L820.705,911.108C814.381,914.661 804.575,918.641 797.326,920.844C796.474,918.996 794.058,914.235 792.565,912.245C797.54,911.322 803.58,909.9 808.483,908.337L801.377,908.337L801.377,878.848L827.598,878.848C825.75,877.426 822.908,875.578 821.274,874.797C822.624,873.589 823.619,872.31 824.4,871.03L818.431,871.03L818.431,877.568L809.335,877.568L809.335,871.03L804.361,871.03C803.083,874.513 800.951,877.853 797.54,880.553C796.261,878.776 792.636,875.224 790.86,874.086C796.545,869.894 797.255,864.706 797.255,860.514L797.255,856.25C804.788,855.895 813.315,854.9 818.289,853.053L823.832,858.879C818.929,860.727 812.391,861.793 806.067,862.29C805.996,862.717 805.996,863.143 805.925,863.641L824.685,863.641L824.685,870.533C826.319,867.336 826.603,863.996 826.603,861.225L826.603,856.037C834.562,855.682 843.586,854.687 848.561,852.839L854.814,858.382C849.414,860.372 842.094,861.509 835.13,862.006C835.13,862.504 835.13,863.072 835.06,863.641L857.017,863.641L857.017,871.03L847.495,871.03L847.495,877.781L838.328,877.781Z" style="fill:rgb(244,214,132);fill-rule:nonzero;"/>
        </g>
        <g transform="matrix(1,0,0,1,920.751,4845.72)">
            <path d="M0,21.033C3.695,25.581 7.532,31.479 9.451,35.529L1.279,40.432C-0.355,36.311 -4.264,29.916 -7.674,25.225L0,21.033ZM-22.953,-3.767L-5.188,-3.767L-5.188,-11.299L-22.953,-11.299L-22.953,-3.767ZM-9.167,19.612L-9.167,44.199L-19.542,44.199L-19.542,19.612L-37.093,19.612L-37.093,10.304L-19.542,10.304L-19.542,5.258L-32.688,5.258L-32.688,-20.323L5.187,-20.323L5.187,5.258L-9.167,5.258L-9.167,10.304L8.385,10.304L8.385,19.612L-9.167,19.612ZM-21.389,23.876C-24.019,29.987 -28.14,36.951 -31.551,41.215C-33.398,39.651 -37.235,36.951 -39.509,35.672C-36.169,31.976 -32.688,26.292 -30.698,21.104L-21.389,23.876ZM-33.541,-20.039C-35.388,-15.207 -37.804,-10.234 -40.433,-5.402L-40.433,43.985L-50.24,43.985L-50.24,9.308C-51.448,10.729 -52.656,12.08 -53.864,13.358C-54.716,10.872 -57.488,5.186 -59.193,2.629C-52.869,-3.554 -46.687,-13.36 -43.133,-23.166L-33.541,-20.039Z" style="fill:rgb(244,214,132);fill-rule:nonzero;"/>
        </g>
        <g transform="matrix(1,0,0,1,0,3968.87)">
            <path d="M988.749,875.08L986.403,875.08L986.403,877.354L988.749,877.354L988.749,875.08ZM986.403,867.762L988.749,867.762L988.749,865.772L986.403,865.772L986.403,867.762ZM978.019,865.772L971.196,865.772L971.196,858.524L978.019,858.524L978.019,853.479L986.403,853.479L986.403,858.524L996.353,858.524L996.353,867.762L999.905,867.762L999.905,875.08L996.353,875.08L996.353,884.603L986.403,884.603L986.403,886.592L996.778,886.592L996.778,894.48L986.403,894.48L986.403,896.611L998.413,896.611L998.413,904.499L986.403,904.499L986.403,909.758L978.019,909.758L978.019,904.499L969.562,904.499L969.562,896.611L978.019,896.611L978.019,894.48L970.842,894.48L970.842,886.592L978.019,886.592L978.019,884.603L971.196,884.603L971.196,877.355L978.019,877.355L978.019,875.08L968.212,875.08L968.212,867.762L978.019,867.762L978.019,865.772ZM947.889,914.448C950.803,912.458 953.219,909.971 955.137,906.702C952.934,903.291 951.016,899.099 949.452,893.841L956.559,891.354C957.198,893.77 957.979,895.83 958.903,897.749C959.827,894.338 960.538,890.571 960.964,886.237L950.376,886.237C952.508,880.907 955.066,873.446 957.198,866.34L951.584,866.34L951.584,860.513C950.518,863.782 949.239,867.122 947.889,870.391L947.889,914.448ZM969.704,879.274C968.994,890.146 967.359,898.886 964.801,905.637C970.06,910.042 976.952,911.321 984.627,911.321C987.47,911.393 997.205,911.321 1000.76,911.25C999.55,913.169 998.342,917.149 997.915,919.493L983.987,919.493C974.821,919.493 967.146,918.001 961.106,913.24C958.975,916.438 956.559,918.996 953.716,920.914C952.579,919.351 949.808,916.651 947.889,915.301L947.889,920.985L938.936,920.985L938.936,887.232C938.296,888.155 937.585,889.079 936.946,889.932C936.306,887.445 933.961,881.334 932.469,878.634C937.159,872.451 941.28,863.071 943.696,853.692L952.863,856.392L952.508,857.671L968.994,857.671C967.004,864.351 964.518,872.025 962.243,878.491L963.096,878.491L964.588,878.35L969.704,879.274Z" style="fill:rgb(244,214,132);fill-rule:nonzero;"/>
        </g>
        <g transform="matrix(1,0,0,1,1045.8,4860.5)">
            <path d="M0,-8.954C4.619,3.908 12.862,14.283 25.937,19.328C23.379,21.603 19.897,26.15 18.263,29.135C5.756,23.379 -2.061,13.928 -7.532,1.35C-11.583,12.293 -19.115,22.171 -33.114,29.135C-34.748,26.292 -37.875,22.597 -40.931,20.323C-25.368,13.288 -18.831,2.629 -15.988,-8.954L-39.509,-8.954L-39.509,-19.683L-14.283,-19.683C-13.785,-25.937 -13.856,-32.19 -13.785,-38.089L-2.416,-38.089C-2.487,-32.19 -2.558,-25.937 -3.126,-19.683L24.161,-19.683L24.161,-8.954L0,-8.954Z" style="fill:rgb(244,214,132);fill-rule:nonzero;"/>
        </g>
        <g transform="matrix(1,0,0,1,1130.85,4874.64)">
            <path d="M0,-36.027C5.614,-25.936 11.37,-13.004 13.146,-3.908L1.776,0.569C0.427,-8.172 -4.761,-21.673 -10.161,-32.26L0,-36.027ZM-15.847,-51.234L-15.847,2.772C-15.847,8.741 -17.125,11.512 -20.749,13.218C-24.444,14.852 -29.632,15.207 -36.667,15.136C-37.235,12.152 -39.154,7.248 -40.788,4.407C-36.383,4.691 -30.982,4.691 -29.419,4.619C-27.784,4.619 -27.216,4.122 -27.216,2.701L-27.216,-51.234L-15.847,-51.234ZM-34.038,-33.184C-36.454,-22.312 -40.22,-8.811 -45.904,-0.923C-48.463,-2.771 -53.224,-5.187 -56.066,-6.324C-50.666,-13.43 -47.184,-26.007 -45.834,-35.174L-34.038,-33.184Z" style="fill:rgb(244,214,132);fill-rule:nonzero;"/>
        </g>
        <g transform="matrix(1,0,0,1,0,3969.22)">
            <path d="M1195.51,901.088L1185.14,901.088L1185.14,903.22L1195.51,903.22L1195.51,901.088ZM1185.14,893.343L1195.51,893.343L1195.51,891.424L1185.14,891.424L1185.14,893.343ZM1185.14,876.147L1194.16,876.147L1194.16,873.731L1185.14,873.731L1185.14,876.147ZM1174.62,873.731L1165.74,873.731L1165.74,876.147L1174.62,876.147L1174.62,873.731ZM1213.49,901.088L1206.03,901.088L1206.03,913.454L1195.51,913.454L1195.51,910.54L1185.14,910.54L1185.14,911.392C1185.14,916.083 1184.07,918.072 1181.02,919.494C1177.96,920.773 1174.05,920.915 1167.94,920.915C1167.44,918.57 1165.88,915.016 1164.6,912.956C1167.52,913.098 1171.71,913.098 1172.84,913.098C1174.19,913.027 1174.62,912.6 1174.62,911.392L1174.62,910.54L1153.8,910.54L1153.8,903.22L1174.62,903.22L1174.62,901.088L1146.91,901.088L1146.91,893.343L1174.62,893.343L1174.62,891.424L1154.3,891.424L1154.3,884.603L1174.62,884.603L1174.62,882.471L1155.86,882.471L1155.86,867.407L1174.62,867.407L1174.62,865.275L1148.68,865.275L1148.68,857.245L1174.62,857.245L1174.62,853.194L1185.14,853.194L1185.14,857.245L1211.71,857.245L1211.71,865.275L1185.14,865.275L1185.14,867.407L1204.75,867.407L1204.75,882.471L1185.14,882.471L1185.14,884.603L1206.03,884.603L1206.03,893.343L1213.49,893.343L1213.49,901.088Z" style="fill:rgb(244,214,132);fill-rule:nonzero;"/>
        </g>
        <g transform="matrix(1,0,0,1,727.018,4807.04)">
            <path d="M0,87.375C-2.67,87.375 -5.266,86.402 -7.288,84.613C-8.286,83.74 -11.778,81.563 -13.037,81.029C-16.144,79.711 -18.474,77.038 -19.357,73.78C-20.24,70.522 -19.578,67.039 -17.561,64.332C-15.905,62.108 -15.047,58.959 -14.603,55.882C-19.173,54.546 -22.511,50.324 -22.511,45.322L-22.511,29.191C-22.511,23.544 -18.255,18.891 -12.776,18.264L-12.776,11C-12.776,4.925 -7.851,0 -1.776,0L40.576,0C46.651,0 51.576,4.925 51.576,11L51.576,18.196C57.493,18.377 62.235,23.23 62.235,29.191L62.235,45.322C62.235,50.748 58.307,55.257 53.139,56.158L53.139,66.711C53.139,75.604 49.528,81.624 42.405,84.604C37.267,86.807 31.399,86.807 25.725,86.807C20.492,86.807 16.002,83.124 14.952,78.032C13.76,78.228 12.602,78.418 11.484,78.603C10.728,80.045 9.906,81.403 9.019,82.674C7.222,85.245 4.414,86.928 1.299,87.298C0.866,87.35 0.432,87.375 0,87.375" style="fill:rgb(234,85,20);fill-rule:nonzero;"/>
        </g>
        <g transform="matrix(1,0,0,1,845.322,4804.73)">
            <path d="M0,89.759C-1.54,89.759 -3.099,89.436 -4.577,88.758C-9.179,86.65 -17.2,83.487 -24.748,81.175C-25.943,80.809 -27.053,80.246 -28.037,79.524C-34.658,83.008 -44.094,86.87 -51.797,89.211C-57.051,90.805 -62.682,88.283 -64.983,83.295C-65.999,81.095 -67.904,77.573 -68.56,76.684C-70.809,73.634 -71.354,69.608 -69.963,66.082C-68.594,62.615 -65.589,60.049 -61.945,59.308L-61.945,46.744C-62.602,46.181 -63.195,45.537 -63.709,44.822C-64.346,43.984 -66.586,41.789 -67.477,41.139C-70.478,39.179 -72.338,35.877 -72.456,32.29C-72.575,28.671 -70.905,25.225 -67.991,23.075C-66.5,21.977 -66.066,21.224 -66.066,18.357L-66.066,14.093C-66.066,8.219 -61.452,3.382 -55.585,3.106C-47.976,2.746 -41.019,1.756 -37.863,0.584C-33.921,-0.882 -29.503,0.036 -26.472,2.905C-26.385,2.9 -26.297,2.895 -26.209,2.891C-16.283,2.447 -9.976,1.256 -7.591,0.37C-3.782,-1.046 0.496,-0.245 3.536,2.45L9.789,7.993C11.789,9.766 13.044,12.175 13.393,14.748C14.836,16.61 15.695,18.946 15.695,21.484L15.695,28.873C15.695,34.098 12.052,38.472 7.168,39.594L7.168,60.765C7.707,60.971 8.221,61.173 8.71,61.368C11.759,62.588 14.103,65.106 15.103,68.234C16.102,71.362 15.651,74.773 13.874,77.534L9.255,84.711C7.173,87.946 3.642,89.759 0,89.759" style="fill:rgb(234,85,20);fill-rule:nonzero;"/>
        </g>
        <g transform="matrix(1,0,0,1,904.584,4803.26)">
            <path d="M0,90.663L-10.375,90.663C-13.632,90.663 -16.559,89.247 -18.573,86.997C-19.45,87.321 -20.373,87.535 -21.32,87.627C-22.172,87.712 -23.023,87.692 -23.857,87.58C-25.812,89.362 -28.412,90.449 -31.266,90.449L-41.073,90.449C-47.148,90.449 -52.073,85.524 -52.073,79.449L-52.073,56.982C-53.434,55.753 -54.487,54.183 -55.102,52.39C-55.661,50.762 -58.028,45.921 -59.178,44.195C-62.114,39.794 -61.5,33.926 -57.716,30.226C-52.492,25.12 -47.229,16.612 -44.309,8.551C-42.286,2.969 -36.201,0 -30.557,1.84L-23.498,4.141L14.354,4.141C20.43,4.141 25.354,9.065 25.354,15.141L25.354,38.014C27.331,40.002 28.552,42.742 28.552,45.767L28.552,55.076C28.552,57.638 27.677,59.995 26.208,61.864C27.114,63.423 27.912,64.918 28.559,66.283C30.981,71.396 29.13,77.514 24.278,80.426L16.106,85.329C13.792,86.718 11.064,87.2 8.444,86.713C6.427,89.127 3.393,90.663 0,90.663" style="fill:rgb(234,85,20);fill-rule:nonzero;"/>
        </g>
        <g transform="matrix(1,0,0,1,940.889,4804.5)">
            <path d="M0,89.347L-8.954,89.347C-15.029,89.347 -19.954,84.422 -19.954,78.347L-19.954,53.604C-20.699,52.54 -21.262,51.335 -21.597,50.034C-22.038,48.317 -24.072,43.082 -25.047,41.318C-27.153,37.508 -26.815,32.815 -24.184,29.347C-20.523,24.522 -16.945,16.46 -14.845,8.309C-14.101,5.42 -12.216,2.958 -9.622,1.486C-7.028,0.015 -3.946,-0.341 -1.085,0.501L8.082,3.201C8.803,3.414 9.487,3.694 10.127,4.033L21.105,4.033C21.231,4.033 21.358,4.034 21.483,4.039C23.498,1.482 26.622,-0.16 30.129,-0.16L38.514,-0.16C42.395,-0.16 45.806,1.85 47.764,4.885L48.463,4.885C54.539,4.885 59.463,9.81 59.463,15.885L59.463,17.028C61.648,19.038 63.016,21.921 63.016,25.123L63.016,32.442C63.016,35.644 61.648,38.527 59.463,40.537L59.463,40.912C59.741,41.878 59.889,42.899 59.889,43.953L59.889,48.201C60.925,49.878 61.524,51.856 61.524,53.973L61.524,61.823C61.862,62.253 62.17,62.713 62.445,63.199C64.417,66.687 64.334,70.969 62.237,74.377C61.841,75.143 61.108,77.399 60.848,78.825C59.896,84.054 55.341,87.855 50.026,87.855L36.098,87.855C30.473,87.855 23,87.419 15.668,84.526C14.496,85.571 13.269,86.525 11.979,87.395C9.258,89.229 6.001,89.688 3.048,88.919C2.08,89.198 1.058,89.347 0,89.347" style="fill:rgb(234,85,20);fill-rule:nonzero;"/>
        </g>
        <g transform="matrix(1,0,0,1,1057.06,4805.85)">
            <path d="M0,87.788C-1.542,87.788 -3.105,87.463 -4.592,86.778C-12.919,82.946 -19.896,77.569 -25.646,70.517C-31.119,77.068 -38.077,82.459 -46.471,86.635C-51.683,89.226 -58.009,87.312 -60.907,82.267C-61.807,80.702 -63.915,78.167 -65.753,76.8C-68.879,74.474 -70.541,70.668 -70.123,66.794C-69.705,62.92 -67.269,59.557 -63.718,57.951C-58.768,55.714 -54.862,53.02 -51.851,49.697L-57.765,49.697C-63.84,49.697 -68.765,44.772 -68.765,38.697L-68.765,27.968C-68.765,21.892 -63.84,16.968 -57.765,16.968L-43.106,16.968C-43.091,15.678 -43.081,14.392 -43.072,13.119C-43.063,11.877 -43.055,10.645 -43.04,9.43C-42.968,3.406 -38.064,-1.438 -32.041,-1.438L-20.672,-1.438C-17.731,-1.438 -14.913,-0.26 -12.847,1.831C-10.78,3.923 -9.637,6.755 -9.673,9.695L-9.675,9.881C-9.702,12.142 -9.73,14.518 -9.791,16.968L5.905,16.968C11.98,16.968 16.905,21.892 16.905,27.968L16.905,38.697C16.905,44.772 11.98,49.697 5.905,49.697L0.945,49.697C4,52.801 7.57,55.146 11.642,56.717C15.221,58.098 17.821,61.244 18.506,65.018C19.189,68.794 17.857,72.652 14.99,75.201C13.5,76.524 10.758,80.056 9.654,82.071C7.665,85.703 3.903,87.788 0,87.788" style="fill:rgb(234,85,20);fill-rule:nonzero;"/>
        </g>
        <g transform="matrix(1,0,0,1,1088.79,4805.41)">
            <path d="M0,88.379C-0.56,88.379 -1.13,88.375 -1.714,88.369C-6.953,88.317 -11.428,84.575 -12.408,79.428C-12.703,77.883 -14.104,74.134 -15.26,72.123C-15.442,71.806 -15.608,71.481 -15.757,71.15C-16.285,70.887 -16.795,70.579 -17.28,70.229C-18.819,69.117 -22.686,67.084 -25.086,66.124C-28.275,64.849 -30.686,62.157 -31.603,58.848C-32.52,55.537 -31.838,51.989 -29.76,49.255C-26.397,44.83 -23.063,35.044 -21.652,25.457C-21.222,22.531 -19.631,19.902 -17.239,18.163C-14.847,16.424 -11.856,15.724 -8.939,16.213L-3.151,17.19L-3.151,11C-3.151,4.925 1.773,0 7.849,0L19.218,0C25.293,0 30.218,4.925 30.218,11L30.218,16.273L31.241,15.893C36.33,14.004 42.037,16.115 44.677,20.859C47.36,25.683 56.326,42.488 59.007,56.218C60.024,61.426 57.178,66.617 52.24,68.562L40.87,73.038C37.762,74.263 34.262,74.008 31.363,72.342C30.791,72.013 30.254,71.637 29.757,71.218C28.882,76.043 26.347,81.946 19.001,85.404C18.922,85.441 18.843,85.478 18.764,85.513C13.066,88.031 6.379,88.379 0,88.379" style="fill:rgb(234,85,20);fill-rule:nonzero;"/>
        </g>
        <g transform="matrix(1,0,0,1,1160.94,4804.41)">
            <path d="M0,89.721C-5.188,89.721 -9.676,86.076 -10.761,81.002C-10.838,80.642 -11.052,80.028 -11.329,79.346L-14.141,79.346C-19.958,79.346 -24.721,74.83 -25.114,69.113C-29.169,67.492 -32.033,63.528 -32.033,58.895L-32.033,51.15C-32.033,46.29 -28.883,42.167 -24.514,40.711C-24.292,39.283 -23.796,37.945 -23.08,36.753L-23.08,33.399C-27.271,31.845 -30.257,27.812 -30.257,23.081L-30.257,15.051C-30.257,8.976 -25.332,4.051 -19.257,4.051L-1.848,4.051C0.169,1.578 3.24,0 6.68,0L17.196,0C20.636,0 23.707,1.578 25.724,4.051L43.773,4.051C49.849,4.051 54.773,8.976 54.773,15.051L54.773,23.081C54.773,27.732 51.888,31.707 47.81,33.318L47.81,37.258C48.368,38.311 48.762,39.465 48.954,40.687C53.363,42.119 56.55,46.263 56.55,51.15L56.55,58.895C56.55,63.733 53.428,67.84 49.088,69.314L49.088,71.26C49.088,77.335 44.163,82.26 38.088,82.26L27.571,82.26C26.538,82.26 25.538,82.117 24.59,81.851C23.05,83.902 20.853,85.814 17.716,87.274C17.586,87.333 17.455,87.392 17.323,87.447C12.28,89.558 6.963,89.721 0,89.721" style="fill:rgb(234,85,20);fill-rule:nonzero;"/>
        </g>
        <g transform="matrix(1,0,0,1,727.018,4809.04)">
            <path d="M0,83.375C-2.185,83.375 -4.31,82.579 -5.964,81.114C-7.086,80.122 -10.79,77.81 -12.255,77.188C-14.798,76.109 -16.704,73.923 -17.426,71.257C-18.149,68.592 -17.607,65.742 -15.958,63.526C-13.712,60.513 -12.782,56.151 -12.397,52.279C-16.952,51.834 -20.511,47.994 -20.511,43.322L-20.511,27.191C-20.511,22.221 -16.482,18.191 -11.511,18.191L-10.776,18.191L-10.776,9C-10.776,4.029 -6.747,0 -1.776,0L40.576,0C45.547,0 49.576,4.029 49.576,9L49.576,18.191L51.235,18.191C56.206,18.191 60.235,22.221 60.235,27.191L60.235,43.322C60.235,48.293 56.206,52.322 51.235,52.322L51.139,52.322L51.139,64.711C51.139,67.696 51.139,76.782 41.634,80.759C37.204,82.657 32.243,82.807 25.725,82.807C21.341,82.807 17.595,79.647 16.854,75.327C16.78,74.897 16.641,74.354 16.457,73.76C14.246,74.121 12.134,74.467 10.159,74.795C9.323,76.493 8.396,78.072 7.379,79.529C5.909,81.633 3.611,83.009 1.062,83.313C0.708,83.354 0.353,83.375 0,83.375" style="fill:white;fill-rule:nonzero;"/>
        </g>
        <g transform="matrix(1,0,0,1,845.323,4806.66)">
            <path d="M0,85.828C-1.26,85.828 -2.535,85.563 -3.745,85.009C-8.407,82.873 -16.528,79.671 -24.163,77.332C-25.542,76.909 -26.78,76.168 -27.791,75.189C-34.321,78.774 -44.311,82.914 -52.379,85.367C-56.68,86.674 -61.285,84.608 -63.168,80.526C-64.172,78.351 -66.19,74.58 -66.958,73.556C-68.826,71.065 -69.273,67.786 -68.142,64.886C-67.01,61.985 -64.46,59.876 -61.399,59.308C-60.918,59.219 -60.433,59.126 -59.946,59.03L-59.946,43.837C-60.765,43.263 -61.491,42.551 -62.087,41.723C-62.781,40.774 -65.415,38.2 -66.355,37.552C-68.851,35.953 -70.38,33.242 -70.478,30.281C-70.575,27.32 -69.189,24.513 -66.805,22.755C-64.681,21.188 -64.067,19.769 -64.067,16.426L-64.067,12.162C-64.067,7.356 -60.292,3.398 -55.492,3.172C-47.574,2.799 -40.552,1.785 -37.167,0.528C-33.793,-0.728 -29.996,0.153 -27.513,2.762L-27.216,3.073C-26.858,3.014 -26.493,2.974 -26.121,2.958C-17.761,2.585 -10.214,1.547 -6.896,0.314C-3.777,-0.846 -0.279,-0.191 2.208,2.016L8.461,7.559C10.236,9.133 11.294,11.319 11.466,13.625C12.854,15.208 13.694,17.282 13.694,19.553L13.694,26.942C13.694,31.754 9.917,35.684 5.167,35.931L5.167,60.215C6.173,60.591 7.11,60.952 7.966,61.294C10.46,62.292 12.378,64.352 13.196,66.912C14.014,69.471 13.645,72.262 12.191,74.52L7.573,81.697C5.869,84.345 2.98,85.828 0,85.828" style="fill:white;fill-rule:nonzero;"/>
        </g>
        <g transform="matrix(1,0,0,1,904.584,4805.5)">
            <path d="M0,86.427L-10.375,86.427C-13.559,86.427 -16.356,84.774 -17.957,82.279C-19.04,82.891 -20.25,83.278 -21.513,83.401C-22.533,83.5 -23.554,83.424 -24.531,83.183C-26.18,85.041 -28.586,86.213 -31.266,86.213L-41.073,86.213C-46.043,86.213 -50.073,82.184 -50.073,77.213L-50.073,53.804C-51.505,52.737 -52.612,51.25 -53.21,49.505C-53.824,47.716 -56.239,42.762 -57.514,40.85C-59.916,37.248 -59.413,32.447 -56.318,29.421C-50.896,24.12 -45.443,15.318 -42.428,6.995C-40.773,2.43 -35.792,0 -31.177,1.505L-23.802,3.908C-23.708,3.906 -23.615,3.905 -23.521,3.905L14.354,3.905C19.325,3.905 23.354,7.934 23.354,12.905L23.354,36.652C25.311,38.302 26.552,40.772 26.552,43.531L26.552,52.84C26.552,55.418 25.468,57.742 23.731,59.384C24.928,61.358 25.966,63.246 26.751,64.904C28.734,69.087 27.219,74.092 23.249,76.475L15.077,81.378C12.832,82.725 10.112,83.028 7.627,82.207C6.035,84.742 3.214,86.427 0,86.427" style="fill:white;fill-rule:nonzero;"/>
        </g>
        <g transform="matrix(1,0,0,1,940.889,4806.55)">
            <path d="M0,85.302L-8.954,85.302C-13.924,85.302 -17.954,81.273 -17.954,76.302L-17.954,50.893C-18.744,49.911 -19.333,48.757 -19.66,47.49C-20.144,45.611 -22.215,40.262 -23.297,38.305C-25.02,35.188 -24.743,31.348 -22.59,28.511C-18.78,23.488 -15.07,15.155 -12.908,6.763C-12.3,4.4 -10.757,2.385 -8.634,1.18C-6.512,-0.024 -3.99,-0.316 -1.65,0.375L7.517,3.075C8.265,3.295 8.963,3.605 9.603,3.988L21.105,3.988C21.561,3.988 22.012,4.022 22.457,4.089C24.04,1.513 26.884,-0.205 30.129,-0.205L38.514,-0.205C42.066,-0.205 45.137,1.852 46.601,4.84L48.463,4.84C53.434,4.84 57.463,8.869 57.463,13.84L57.463,15.913C59.623,17.558 61.016,20.156 61.016,23.078L61.016,30.397C61.016,33.32 59.623,35.917 57.463,37.562L57.463,39.165C57.74,40.03 57.889,40.951 57.889,41.908L57.889,46.754C58.919,48.218 59.524,50.002 59.524,51.928L59.524,59.816C59.524,60.039 59.516,60.261 59.5,60.481C59.958,60.98 60.362,61.533 60.704,62.138C62.332,65.019 62.249,68.561 60.485,71.362C60.06,72.102 59.192,74.712 58.88,76.421C58.102,80.7 54.375,83.81 50.026,83.81L36.098,83.81C30.365,83.81 22.647,83.346 15.252,80.142C13.873,81.465 12.414,82.644 10.86,83.692C8.469,85.305 5.574,85.618 3.021,84.782C2.076,85.119 1.06,85.302 0,85.302" style="fill:white;fill-rule:nonzero;"/>
        </g>
        <g transform="matrix(1,0,0,1,1057.06,4807.59)">
            <path d="M0,84.049C-1.262,84.049 -2.542,83.782 -3.758,83.223C-12.548,79.178 -19.788,73.339 -25.631,65.544C-31.145,72.774 -38.411,78.652 -47.363,83.105C-51.626,85.226 -56.803,83.659 -59.175,79.531C-60.196,77.755 -62.489,74.997 -64.561,73.456C-67.118,71.553 -68.479,68.439 -68.137,65.27C-67.794,62.1 -65.801,59.348 -62.896,58.034C-56.1,54.962 -51.16,51.071 -47.732,45.958L-57.767,45.958C-62.737,45.958 -66.767,41.929 -66.767,36.958L-66.767,26.229C-66.767,21.258 -62.737,17.229 -57.767,17.229L-41.14,17.229C-41.102,15.272 -41.088,13.32 -41.074,11.395C-41.065,10.154 -41.057,8.927 -41.042,7.715C-40.982,2.787 -36.971,-1.177 -32.043,-1.177L-20.674,-1.177C-18.268,-1.177 -15.962,-0.214 -14.271,1.498C-12.581,3.209 -11.646,5.527 -11.675,7.932L-11.677,8.117C-11.713,11.103 -11.749,14.139 -11.848,17.229L5.903,17.229C10.874,17.229 14.903,21.258 14.903,26.229L14.903,36.958C14.903,41.929 10.874,45.958 5.903,45.958L-3.429,45.958C0.384,50.986 5.181,54.629 10.92,56.844C13.848,57.974 15.976,60.548 16.535,63.636C17.095,66.725 16.005,69.882 13.659,71.967C11.981,73.458 9.128,77.125 7.898,79.371C6.271,82.342 3.193,84.049 0,84.049" style="fill:white;fill-rule:nonzero;"/>
        </g>
        <g transform="matrix(1,0,0,1,1088.79,4807.41)">
            <path d="M0,84.379C-0.554,84.379 -1.118,84.376 -1.694,84.37C-5.981,84.326 -9.643,81.266 -10.444,77.054C-10.807,75.153 -12.362,71.152 -13.527,69.126C-13.799,68.653 -14.024,68.162 -14.204,67.658C-14.874,67.389 -15.515,67.037 -16.109,66.608C-17.94,65.285 -22.039,63.189 -24.345,62.267C-26.954,61.224 -28.926,59.022 -29.676,56.314C-30.427,53.606 -29.869,50.702 -28.169,48.465C-24.009,42.99 -20.905,32.107 -19.675,23.749C-19.322,21.355 -18.021,19.204 -16.063,17.78C-14.107,16.358 -11.659,15.786 -9.273,16.185L-1.152,17.556L-1.152,9C-1.152,4.029 2.877,0 7.848,0L19.217,0C24.187,0 28.217,4.029 28.217,9L28.217,17.147L31.936,15.769C36.098,14.224 40.769,15.948 42.928,19.831C45.576,24.59 54.418,41.161 57.043,54.602C57.875,58.862 55.547,63.11 51.507,64.7L40.137,69.177C37.594,70.18 34.73,69.97 32.358,68.608C30.346,67.452 28.872,65.573 28.217,63.379C28.207,67.418 27.902,77.003 18.147,81.595C18.083,81.625 18.019,81.654 17.954,81.684C12.597,84.052 6.158,84.379 0,84.379" style="fill:white;fill-rule:nonzero;"/>
        </g>
        <g transform="matrix(1,0,0,1,1160.94,4806.41)">
            <path d="M0,85.721C-4.251,85.721 -7.923,82.746 -8.805,78.587C-8.948,77.91 -9.446,76.585 -10.021,75.346L-14.141,75.346C-19.111,75.346 -23.141,71.317 -23.141,66.346L-23.141,65.647C-27.095,64.699 -30.033,61.14 -30.033,56.895L-30.033,49.15C-30.033,44.729 -26.846,41.052 -22.643,40.293C-22.619,38.456 -22.047,36.753 -21.08,35.338L-21.08,29.897C-25.177,29.054 -28.257,25.427 -28.257,21.081L-28.257,13.051C-28.257,8.08 -24.228,4.051 -19.257,4.051L-0.839,4.051C0.771,1.611 3.537,0 6.68,0L17.196,0C20.339,0 23.104,1.611 24.715,4.051L43.773,4.051C48.744,4.051 52.773,8.08 52.773,13.051L52.773,21.081C52.773,25.352 49.8,28.927 45.81,29.85L45.81,35.783C46.601,37.101 47.063,38.637 47.087,40.281C51.325,41.01 54.55,44.703 54.55,49.15L54.55,56.895C54.55,61.341 51.326,65.034 47.088,65.764L47.088,69.26C47.088,74.231 43.059,78.26 38.088,78.26L27.571,78.26C26.231,78.26 24.96,77.967 23.817,77.443C22.431,79.756 20.258,81.884 16.872,83.46C16.766,83.509 16.659,83.557 16.551,83.602C11.853,85.569 6.728,85.721 0,85.721" style="fill:white;fill-rule:nonzero;"/>
        </g>
        <g transform="matrix(1,0,0,1,0,3958.13)">
            <path d="M757.148,875.614L749.971,875.614L749.971,878.101L757.148,878.101L757.148,875.614ZM735.12,878.101L741.018,878.101L741.018,869.574L757.148,869.574L757.148,867.584L735.12,867.584L735.12,878.101ZM759.209,904.677L759.209,896.293L733.77,896.293L733.77,896.506C733.77,899.988 733.556,904.109 732.988,908.301C737.678,907.733 743.647,906.952 750.113,906.028C745.068,904.82 738.744,903.825 733.627,903.541L736.399,897.003C743.434,897.074 753.169,898.566 758.427,900.342L756.509,905.104L759.209,904.677ZM768.589,886.77L724.674,886.77L724.674,888.546L768.589,888.546L768.589,886.77ZM778.253,894.232L769.157,894.232L769.157,915.621C769.157,919.956 768.234,922.088 765.178,923.366C762.193,924.645 758.072,924.716 752.743,924.716C752.316,922.229 751.037,918.818 749.9,916.616C752.671,916.758 756.722,916.758 757.717,916.758C758.783,916.686 759.209,916.402 759.209,915.478L759.209,912.921C750.611,914.413 742.083,915.763 735.262,916.9L732.846,909.225C731.922,914.981 730.146,920.808 727.019,925.285C725.171,923.65 720.624,920.808 718.278,919.813C723.466,912.849 723.892,903.043 723.892,896.363L723.892,894.232L715.507,894.232L715.507,878.101L725.242,878.101L725.242,859.91L767.594,859.91L767.594,878.101L778.253,878.101L778.253,894.232Z" style="fill:rgb(234,85,20);fill-rule:nonzero;"/>
        </g>
        <g transform="matrix(1,0,0,1,0,3955.58)">
            <path d="M804.325,909.368L831.044,909.368L831.044,907.236L804.325,907.236L804.325,909.368ZM804.325,901.623L831.044,901.623L831.044,899.491L804.325,899.491L804.325,901.623ZM831.044,891.817L804.325,891.817L804.325,893.949L831.044,893.949L831.044,891.817ZM831.328,884.781L831.328,878.03L826.922,878.03C826.07,880.873 824.791,883.573 822.659,885.848L841.49,885.848L841.49,915.337L834.384,915.337C840.282,917.185 846.038,919.175 849.946,920.738L845.327,927.915C840.21,925.57 831.684,922.231 823.796,919.815L826.425,915.337L809.015,915.337L813.705,918.108C807.381,921.661 797.575,925.641 790.326,927.844C789.474,925.996 787.058,921.235 785.565,919.245C790.54,918.322 796.58,916.9 801.483,915.337L794.377,915.337L794.377,885.848L820.598,885.848C818.75,884.426 815.908,882.578 814.274,881.797C815.624,880.589 816.619,879.31 817.4,878.03L811.431,878.03L811.431,884.568L802.335,884.568L802.335,878.03L797.361,878.03C796.083,881.513 793.951,884.853 790.54,887.553C789.261,885.776 785.636,882.224 783.86,881.086C789.545,876.894 790.255,871.706 790.255,867.514L790.255,863.25C797.788,862.895 806.315,861.9 811.289,860.053L816.832,865.879C811.929,867.727 805.391,868.793 799.067,869.29C798.996,869.717 798.996,870.143 798.925,870.641L817.685,870.641L817.685,877.533C819.319,874.336 819.603,870.996 819.603,868.225L819.603,863.037C827.562,862.682 836.586,861.687 841.561,859.839L847.814,865.382C842.414,867.372 835.094,868.509 828.13,869.006C828.13,869.504 828.13,870.072 828.06,870.641L850.017,870.641L850.017,878.03L840.495,878.03L840.495,884.781L831.328,884.781Z" style="fill:rgb(234,85,20);fill-rule:nonzero;"/>
        </g>
        <g transform="matrix(1,0,0,1,913.751,4838.72)">
            <path d="M0,21.033C3.695,25.581 7.532,31.479 9.451,35.529L1.279,40.432C-0.355,36.311 -4.264,29.916 -7.674,25.225L0,21.033ZM-22.953,-3.767L-5.188,-3.767L-5.188,-11.299L-22.953,-11.299L-22.953,-3.767ZM-9.167,19.612L-9.167,44.199L-19.542,44.199L-19.542,19.612L-37.093,19.612L-37.093,10.304L-19.542,10.304L-19.542,5.258L-32.688,5.258L-32.688,-20.323L5.187,-20.323L5.187,5.258L-9.167,5.258L-9.167,10.304L8.385,10.304L8.385,19.612L-9.167,19.612ZM-21.389,23.876C-24.019,29.987 -28.14,36.951 -31.551,41.215C-33.398,39.651 -37.235,36.951 -39.509,35.672C-36.169,31.976 -32.688,26.292 -30.698,21.104L-21.389,23.876ZM-33.541,-20.039C-35.388,-15.207 -37.804,-10.234 -40.433,-5.402L-40.433,43.985L-50.24,43.985L-50.24,9.308C-51.448,10.729 -52.656,12.08 -53.864,13.358C-54.716,10.872 -57.488,5.186 -59.193,2.629C-52.869,-3.554 -46.687,-13.36 -43.133,-23.166L-33.541,-20.039Z" style="fill:rgb(234,85,20);fill-rule:nonzero;"/>
        </g>
        <g transform="matrix(1,0,0,1,0,3954.87)">
            <path d="M981.749,882.08L979.403,882.08L979.403,884.354L981.749,884.354L981.749,882.08ZM979.403,874.762L981.749,874.762L981.749,872.772L979.403,872.772L979.403,874.762ZM971.019,872.772L964.196,872.772L964.196,865.524L971.019,865.524L971.019,860.479L979.403,860.479L979.403,865.524L989.353,865.524L989.353,874.762L992.905,874.762L992.905,882.08L989.353,882.08L989.353,891.603L979.403,891.603L979.403,893.592L989.778,893.592L989.778,901.48L979.403,901.48L979.403,903.611L991.413,903.611L991.413,911.499L979.403,911.499L979.403,916.758L971.019,916.758L971.019,911.499L962.562,911.499L962.562,903.611L971.019,903.611L971.019,901.48L963.842,901.48L963.842,893.592L971.019,893.592L971.019,891.603L964.196,891.603L964.196,884.355L971.019,884.355L971.019,882.08L961.212,882.08L961.212,874.762L971.019,874.762L971.019,872.772ZM940.889,921.448C943.803,919.458 946.219,916.971 948.137,913.702C945.934,910.291 944.016,906.099 942.452,900.841L949.559,898.354C950.198,900.77 950.979,902.83 951.903,904.749C952.827,901.338 953.538,897.571 953.964,893.237L943.376,893.237C945.508,887.907 948.066,880.446 950.198,873.34L944.584,873.34L944.584,867.513C943.518,870.782 942.239,874.122 940.889,877.391L940.889,921.448ZM962.704,886.274C961.994,897.146 960.359,905.886 957.801,912.637C963.06,917.042 969.952,918.321 977.627,918.321C980.47,918.393 990.205,918.321 993.758,918.25C992.55,920.169 991.342,924.149 990.915,926.493L976.987,926.493C967.821,926.493 960.146,925.001 954.106,920.24C951.975,923.438 949.559,925.996 946.716,927.914C945.579,926.351 942.808,923.651 940.889,922.301L940.889,927.985L931.936,927.985L931.936,894.232C931.296,895.155 930.585,896.079 929.946,896.932C929.306,894.445 926.961,888.334 925.469,885.634C930.159,879.451 934.28,870.071 936.696,860.692L945.863,863.392L945.508,864.671L961.994,864.671C960.004,871.351 957.517,879.025 955.243,885.491L956.096,885.491L957.588,885.35L962.704,886.274Z" style="fill:rgb(234,85,20);fill-rule:nonzero;"/>
        </g>
        <g transform="matrix(1,0,0,1,1038.8,4853.5)">
            <path d="M0,-8.954C4.619,3.908 12.862,14.283 25.937,19.328C23.379,21.603 19.897,26.15 18.263,29.135C5.756,23.379 -2.061,13.928 -7.532,1.35C-11.583,12.293 -19.115,22.171 -33.114,29.135C-34.748,26.292 -37.875,22.597 -40.931,20.323C-25.368,13.288 -18.831,2.629 -15.988,-8.954L-39.509,-8.954L-39.509,-19.683L-14.283,-19.683C-13.785,-25.937 -13.856,-32.19 -13.785,-38.089L-2.416,-38.089C-2.487,-32.19 -2.558,-25.937 -3.126,-19.683L24.161,-19.683L24.161,-8.954L0,-8.954Z" style="fill:rgb(234,85,20);fill-rule:nonzero;"/>
        </g>
        <g transform="matrix(1,0,0,1,1123.85,4867.64)">
            <path d="M0,-36.027C5.614,-25.936 11.37,-13.004 13.146,-3.908L1.776,0.569C0.427,-8.172 -4.761,-21.673 -10.161,-32.26L0,-36.027ZM-15.847,-51.234L-15.847,2.772C-15.847,8.741 -17.125,11.512 -20.749,13.218C-24.444,14.852 -29.632,15.207 -36.667,15.136C-37.235,12.152 -39.154,7.248 -40.788,4.407C-36.383,4.691 -30.982,4.691 -29.419,4.619C-27.784,4.619 -27.216,4.122 -27.216,2.701L-27.216,-51.234L-15.847,-51.234ZM-34.038,-33.184C-36.454,-22.312 -40.22,-8.811 -45.904,-0.923C-48.463,-2.771 -53.224,-5.187 -56.066,-6.324C-50.666,-13.43 -47.184,-26.007 -45.834,-35.174L-34.038,-33.184Z" style="fill:rgb(234,85,20);fill-rule:nonzero;"/>
        </g>
        <g transform="matrix(1,0,0,1,0,3955.22)">
            <path d="M1188.51,908.088L1178.14,908.088L1178.14,910.22L1188.51,910.22L1188.51,908.088ZM1178.14,900.343L1188.51,900.343L1188.51,898.424L1178.14,898.424L1178.14,900.343ZM1178.14,883.147L1187.16,883.147L1187.16,880.731L1178.14,880.731L1178.14,883.147ZM1167.62,880.731L1158.74,880.731L1158.74,883.147L1167.62,883.147L1167.62,880.731ZM1206.49,908.088L1199.03,908.088L1199.03,920.454L1188.51,920.454L1188.51,917.54L1178.14,917.54L1178.14,918.392C1178.14,923.083 1177.07,925.072 1174.02,926.494C1170.96,927.773 1167.05,927.915 1160.94,927.915C1160.44,925.57 1158.88,922.016 1157.6,919.956C1160.52,920.098 1164.71,920.098 1165.84,920.098C1167.19,920.027 1167.62,919.6 1167.62,918.392L1167.62,917.54L1146.8,917.54L1146.8,910.22L1167.62,910.22L1167.62,908.088L1139.91,908.088L1139.91,900.343L1167.62,900.343L1167.62,898.424L1147.3,898.424L1147.3,891.603L1167.62,891.603L1167.62,889.471L1148.86,889.471L1148.86,874.407L1167.62,874.407L1167.62,872.275L1141.68,872.275L1141.68,864.245L1167.62,864.245L1167.62,860.194L1178.14,860.194L1178.14,864.245L1204.71,864.245L1204.71,872.275L1178.14,872.275L1178.14,874.407L1197.75,874.407L1197.75,889.471L1178.14,889.471L1178.14,891.603L1199.03,891.603L1199.03,900.343L1206.49,900.343L1206.49,908.088Z" style="fill:rgb(234,85,20);fill-rule:nonzero;"/>
        </g>
    </g>
</svg>
