<?xml version="1.0" encoding="UTF-8" standalone="no"?>
<!DOCTYPE svg PUBLIC "-//W3C//DTD SVG 1.1//EN" "http://www.w3.org/Graphics/SVG/1.1/DTD/svg11.dtd">
<svg width="100%" height="100%" viewBox="0 0 169 153" version="1.1" xmlns="http://www.w3.org/2000/svg" xmlns:xlink="http://www.w3.org/1999/xlink" xml:space="preserve" xmlns:serif="http://www.serif.com/" style="fill-rule:evenodd;clip-rule:evenodd;stroke-linejoin:round;stroke-miterlimit:2;">
    <g transform="matrix(0.999953,0,0,0.999953,-515.983,-4101.02)">
        <g opacity="0.3">
            <g transform="matrix(1,0,0,1,684.194,4149.68)">
                <path d="M0,55.68L0.002,55.68C0,55.669 -0.003,55.658 -0.005,55.648C-0.105,55.074 -0.237,54.487 -0.395,53.893C-0.4,53.874 -0.402,53.857 -0.407,53.838L-0.409,53.838C-1.863,48.432 -5.639,42.505 -10.669,41.305C-11.744,40.226 -12.939,39.353 -14.236,38.79C-13.92,34.313 -14.219,29.642 -15.001,25.162C-15.009,25.193 -15.021,25.222 -15.029,25.251C-15.993,19.672 -17.686,14.383 -19.863,10.147C-23.409,3.251 -29.903,-6.023 -35.213,-11.756C-37.648,-14.383 -40.019,-16.233 -42.309,-17.464C-42.438,-17.668 -42.557,-17.879 -42.693,-18.078C-42.695,-18.081 -42.697,-18.083 -42.698,-18.086L-42.699,-18.085C-45.125,-21.635 -48.561,-24.472 -52.537,-26.223C-54.647,-27.88 -57.042,-29.184 -59.625,-30.032C-61.635,-33.871 -64.421,-37.252 -68.037,-39.51C-68.037,-39.514 -68.035,-39.518 -68.034,-39.523C-68.444,-39.779 -68.866,-40.02 -69.297,-40.248C-69.297,-40.247 -69.298,-40.247 -69.298,-40.246C-69.833,-40.526 -70.386,-40.781 -70.955,-41.011C-71.616,-41.553 -72.309,-42.055 -73.037,-42.51C-73.037,-42.514 -73.035,-42.518 -73.034,-42.523C-73.444,-42.779 -73.866,-43.02 -74.297,-43.248C-74.297,-43.247 -74.298,-43.247 -74.298,-43.246C-75.34,-43.792 -76.446,-44.248 -77.616,-44.598C-80.79,-45.549 -84.098,-46.122 -87.41,-46.561C-87.409,-46.561 -87.409,-46.561 -87.409,-46.562C-87.563,-46.583 -87.718,-46.601 -87.873,-46.622C-88.218,-46.666 -88.563,-46.711 -88.908,-46.753C-89.005,-46.764 -89.103,-46.778 -89.2,-46.79L-89.201,-46.788C-90.232,-46.911 -91.263,-47.028 -92.287,-47.141C-94.709,-47.407 -97.133,-47.65 -99.553,-47.927C-102.303,-48.242 -105.056,-48.521 -107.827,-48.462C-109.291,-48.432 -110.746,-48.292 -112.178,-48.03C-112.179,-48.032 -112.179,-48.035 -112.18,-48.037C-112.643,-47.952 -113.108,-47.854 -113.565,-47.741C-113.563,-47.736 -113.563,-47.731 -113.562,-47.727C-114.371,-47.526 -115.173,-47.296 -115.958,-46.997C-119.055,-45.823 -121.541,-43.905 -123.673,-41.397C-124.151,-40.836 -124.613,-40.258 -125.081,-39.687L-125.081,-39.688C-125.438,-39.253 -125.801,-38.823 -126.174,-38.404C-126.406,-38.145 -126.639,-37.888 -126.884,-37.642C-128.084,-36.435 -129.462,-35.416 -130.889,-34.495C-133.437,-32.849 -136.181,-31.293 -139.046,-30.269C-144.327,-28.385 -150.257,-27.682 -154.94,-24.396C-154.941,-24.397 -154.943,-24.397 -154.944,-24.397C-154.984,-24.37 -155.026,-24.341 -155.065,-24.312C-155.484,-24.012 -155.872,-23.679 -156.243,-23.331C-156.27,-23.305 -156.301,-23.285 -156.328,-23.259C-156.326,-23.259 -156.323,-23.258 -156.321,-23.258C-157.726,-21.919 -158.838,-20.274 -159.942,-18.684C-160.908,-17.295 -161.816,-15.864 -162.649,-14.393C-162.653,-14.392 -162.656,-14.391 -162.659,-14.391C-162.699,-14.321 -162.733,-14.249 -162.773,-14.178C-163.013,-13.749 -163.242,-13.315 -163.466,-12.878C-163.52,-12.774 -163.579,-12.673 -163.632,-12.567C-163.63,-12.567 -163.628,-12.568 -163.626,-12.569C-163.707,-12.408 -163.794,-12.251 -163.873,-12.09C-165.871,-7.974 -167.267,-2.86 -165.093,1.473C-164.538,2.577 -163.841,3.562 -163.421,4.63C-163.365,4.773 -163.312,4.915 -163.267,5.062C-163.241,5.144 -163.222,5.228 -163.201,5.312C-163.166,5.449 -163.136,5.587 -163.113,5.728C-163.087,5.888 -163.062,6.047 -163.053,6.213C-163.061,6.213 -163.065,6.525 -163.069,6.575C-163.082,6.701 -163.104,6.826 -163.125,6.951C-163.126,6.965 -163.127,6.975 -163.129,6.984C-163.149,7.056 -163.168,7.125 -163.192,7.197C-163.241,7.34 -163.293,7.483 -163.354,7.623C-163.373,7.666 -163.453,7.832 -163.483,7.898C-163.523,7.963 -163.616,8.128 -163.643,8.166C-163.811,8.436 -163.997,8.695 -164.187,8.951C-164.99,10.01 -165.894,10.988 -166.582,12.13C-167.5,13.656 -168.06,15.342 -168.163,17.124C-168.323,19.823 -167.645,22.499 -166.735,25.019C-165.633,28.072 -164.245,31.029 -162.622,33.84C-156.973,43.626 -148.494,51.449 -138.612,56.847C-138.543,56.884 -138.473,56.917 -138.405,56.954C-136.849,57.982 -135.252,58.951 -133.612,59.847C-130.363,61.622 -126.984,63.167 -123.518,64.484C-121.899,66.216 -120.204,67.833 -118.341,69.284C-114.29,77.109 -108.97,87.925 -104.429,93.032C-103.018,94.617 -100.844,95.974 -98.309,97.107C-94.826,100.063 -88.705,102.122 -82.978,103.23C-82.978,103.233 -82.98,103.236 -82.979,103.238C-82.819,103.268 -82.662,103.295 -82.501,103.325C-82.389,103.345 -82.277,103.367 -82.164,103.386C-82.049,103.408 -81.931,103.429 -81.817,103.45C-81.814,103.449 -81.811,103.447 -81.808,103.446C-79.015,103.928 -76.368,104.183 -74.243,104.191C-71.713,104.201 -69.367,103.602 -67.098,102.784L-67.098,102.786C-67.009,102.754 -66.921,102.718 -66.832,102.685C-66.464,102.55 -66.097,102.411 -65.732,102.267C-65.717,102.26 -65.702,102.255 -65.688,102.249L-65.688,102.248C-61.423,100.548 -57.366,98.335 -52.805,98.238C-46.359,98.101 -41.609,99.138 -36.479,97.066L-36.479,97.07C-36.417,97.044 -36.354,97.009 -36.292,96.983C-35.888,96.814 -35.482,96.626 -35.073,96.417C-35.02,96.39 -34.967,96.37 -34.914,96.343L-34.914,96.329C-33.751,95.72 -32.563,94.951 -31.319,93.943C-28.393,91.57 -25.723,88.69 -23.27,85.71C-23.269,85.712 -23.269,85.713 -23.268,85.714C-23.213,85.648 -23.161,85.58 -23.106,85.515C-22.802,85.142 -22.503,84.769 -22.205,84.396C-22.108,84.274 -22.008,84.154 -21.912,84.032C-21.913,84.031 -21.913,84.031 -21.914,84.031C-21.408,83.39 -20.909,82.748 -20.422,82.11C-18.125,79.091 -15.872,75.757 -12.626,73.66C-12.194,73.383 -11.732,73.146 -11.247,72.938C-8.036,71.562 -2.873,65.064 -0.726,62.16C0.28,60.798 0.47,58.392 0,55.68" style="fill-rule:nonzero;"/>
            </g>
        </g>
    </g>
</svg>
