<?xml version="1.0" encoding="UTF-8" standalone="no"?>
<!DOCTYPE svg PUBLIC "-//W3C//DTD SVG 1.1//EN" "http://www.w3.org/Graphics/SVG/1.1/DTD/svg11.dtd">
<svg width="100%" height="100%" viewBox="0 0 799 320" version="1.1" xmlns="http://www.w3.org/2000/svg" xmlns:xlink="http://www.w3.org/1999/xlink" xml:space="preserve" xmlns:serif="http://www.serif.com/" style="fill-rule:evenodd;clip-rule:evenodd;stroke-linejoin:round;stroke-miterlimit:2;">
    <g transform="matrix(0.240014,0,0,0.240014,207.389,51.8143)">
        <g transform="matrix(4.16667,0,0,4.16667,-3145.18,-14063.7)">
            <path d="M645.665,3512.31L637.9,3512.31L637.9,3520.76L645.665,3520.76L645.665,3512.31ZM641.62,3493.93C642.125,3493.96 642.415,3494.11 642.415,3494.39C642.415,3494.54 642.234,3494.79 641.873,3495.08L641.873,3499.89L649.494,3499.89L649.494,3502.7L641.873,3502.7L641.873,3509.49L648.627,3509.49L648.627,3525.13L645.665,3525.13L645.665,3523.43L637.9,3523.43L637.9,3525.13L634.938,3525.13L634.938,3509.49L638.767,3509.49L638.767,3493.67L641.62,3493.93ZM634.396,3523.43L631.977,3524.01C631.76,3522.57 631.218,3520.87 630.424,3518.92L632.555,3518.38C633.421,3520.18 634.035,3521.88 634.396,3523.43M630.135,3499.27C629.99,3499.41 629.882,3499.52 629.737,3499.6C629.376,3500.57 628.907,3501.66 628.329,3502.85L626.631,3502.31L626.631,3503.97L630.135,3503.97L630.135,3499.27ZM627.173,3500.46C627.462,3499.67 627.679,3498.84 627.896,3498.04L629.882,3498.73C630.026,3498.8 630.099,3498.84 630.135,3498.84L630.135,3497.07L626.631,3497.07L626.631,3501.91C626.848,3501.4 627.029,3500.9 627.173,3500.46M629.882,3524.3L627.462,3524.84C627.317,3523.33 626.92,3521.56 626.342,3519.5L628.473,3518.92C629.124,3520.87 629.593,3522.64 629.882,3524.3M624.645,3519.21L624.645,3524.84L621.683,3524.7C621.972,3523 622.153,3521.16 622.261,3519.06L624.645,3519.21ZM623.669,3502.41L621.539,3502.85C621.358,3501.62 620.925,3500.14 620.274,3498.48L622.117,3498.04C622.839,3499.63 623.345,3501.08 623.669,3502.41M623.958,3497.07L620.129,3497.07L620.129,3503.97L623.958,3503.97L623.958,3497.07ZM632.844,3494.65L632.844,3506.39L626.631,3506.39L626.631,3508.91L632.699,3508.91L632.699,3511.44L626.631,3511.44L626.631,3514.15L633.241,3514.15L633.241,3516.68L616.735,3516.68L616.735,3514.15L623.958,3514.15L623.958,3511.44L617.458,3511.44L617.458,3508.91L623.958,3508.91L623.958,3506.39L617.458,3506.39L617.458,3494.65L632.844,3494.65ZM620.419,3518.92C619.914,3520.98 619.191,3522.96 618.288,3524.99L615.615,3524.01C616.627,3522.1 617.385,3520.22 617.891,3518.38L620.419,3518.92Z" style="fill-rule:nonzero;"/>
        </g>
        <g transform="matrix(4.16667,0,0,4.16667,-325.343,571.045)">
            <path d="M0,-5.742C0.217,-5.525 0.469,-5.381 0.722,-5.236C1.011,-5.381 1.264,-5.561 1.48,-5.706C2.275,-6.212 3.034,-6.971 3.72,-7.945L-1.878,-7.945C-1.409,-7.078 -0.795,-6.356 0,-5.742M5.02,-10.221C5.237,-10.365 5.381,-10.473 5.454,-10.473C5.598,-10.473 5.779,-10.401 5.996,-10.257L7.332,-9.101C7.476,-8.957 7.548,-8.812 7.548,-8.668C7.548,-8.451 7.259,-8.234 6.718,-7.945C5.67,-6.212 4.515,-4.875 3.287,-4.009C4.406,-3.539 6.284,-3.141 8.957,-2.852L7.007,-0.18C4.587,-0.685 2.672,-1.3 1.228,-1.986C0.867,-2.131 0.542,-2.311 0.289,-2.491C-1.228,-1.914 -3.106,-1.408 -5.273,-1.047L-6.971,-3.286C-5.165,-3.503 -3.72,-3.72 -2.601,-4.009C-2.384,-4.045 -2.167,-4.117 -1.951,-4.189C-2.095,-4.298 -2.239,-4.406 -2.312,-4.514C-3.214,-5.381 -3.973,-6.537 -4.623,-7.945L-6.14,-7.945L-6.14,-10.221L5.02,-10.221ZM-13.616,-2.599L-10.221,-2.599L-10.221,-4.153L-13.616,-4.153L-13.616,-2.599ZM-9.644,-10.221L-13.617,-10.221L-13.617,-9.21L-9.644,-9.21L-9.644,-10.221ZM-13.616,-11.882L-9.643,-11.882L-9.643,-12.894L-13.616,-12.894L-13.616,-11.882ZM-20.082,-2.599L-16.579,-2.599L-16.579,-4.153L-20.082,-4.153L-20.082,-2.599ZM-16.578,-10.221L-20.515,-10.221L-20.515,-9.21L-16.578,-9.21L-16.578,-10.221ZM-16.578,-12.893L-20.515,-12.893L-20.515,-11.881L-16.578,-11.881L-16.578,-12.893ZM0.361,1.626C-1.3,1.915 -3.143,2.132 -5.129,2.276L-5.129,3.612L5.887,3.612L5.887,6.032L-5.129,6.032L-5.129,7.152L8.849,7.152L8.849,9.68L-5.129,9.68L-5.129,10.547C-5.129,11.702 -5.562,12.533 -6.357,13.075C-7.043,13.617 -8.741,13.905 -11.485,13.905L-12.605,10.945L-9.716,10.945C-8.705,10.945 -8.163,10.619 -8.09,9.969L-8.09,9.68L-24.054,9.68L-24.054,7.152L-8.09,7.152L-8.09,6.032L-20.948,6.032L-20.948,3.612L-8.09,3.612L-8.09,2.492C-11.125,2.709 -14.52,2.781 -18.203,2.781L-19.937,0.362L-16.434,0.362C-9.788,0.362 -3.72,-0.143 1.77,-1.191L3.828,0.976C3.973,1.048 4.045,1.229 4.045,1.518C4.045,1.626 3.973,1.662 3.9,1.662C3.648,1.662 3.431,1.626 3.214,1.482C2.853,1.409 2.601,1.373 2.492,1.373C2.059,1.373 1.336,1.482 0.361,1.626M-16.578,-17.95L-16.578,-19.647L-13.797,-19.467C-13.292,-19.43 -13.039,-19.322 -13.039,-19.105C-13.039,-18.888 -13.255,-18.599 -13.616,-18.239L-13.616,-17.95L-6.393,-17.95L-6.393,-15.855L-13.616,-15.855L-13.616,-14.844L-6.971,-14.844L-6.971,-13.255C-5.959,-13.761 -5.273,-14.229 -4.876,-14.735C-4.406,-15.241 -4.154,-16.505 -4.154,-18.528L4.189,-18.528L4.189,-14.735C4.189,-13.869 4.262,-13.435 4.406,-13.435L6.104,-13.435C6.176,-13.435 6.284,-13.508 6.356,-13.652C6.393,-13.797 6.465,-14.374 6.573,-15.422L9.102,-14.591C8.704,-12.929 8.271,-11.918 7.837,-11.521C7.332,-11.088 6.646,-10.907 5.743,-10.907L4.298,-10.907C2.42,-10.907 1.48,-11.99 1.48,-14.157L1.48,-16.144L-1.481,-16.144C-1.662,-15.06 -1.951,-14.265 -2.348,-13.688C-2.926,-12.821 -3.973,-11.954 -5.418,-11.052L-6.971,-12.315L-6.971,-7.222L-13.616,-7.222L-13.616,-6.248L-5.996,-6.248L-5.996,-4.153L-7.404,-4.153L-7.404,-0.613L-22.898,-0.613L-22.898,-4.153L-24.307,-4.153L-24.307,-6.248L-16.578,-6.248L-16.578,-7.222L-23.187,-7.222L-23.187,-14.844L-16.578,-14.844L-16.578,-15.855L-24.054,-15.855L-24.054,-17.95L-16.578,-17.95Z" style="fill-rule:nonzero;"/>
        </g>
        <g transform="matrix(4.16667,0,0,4.16667,-3145.18,-14061.9)">
            <path d="M762.603,3519.75L748.806,3519.75L748.806,3521.45L762.603,3521.45L762.603,3519.75ZM762.603,3515.38L748.806,3515.38L748.806,3517.22L762.603,3517.22L762.603,3515.38ZM762.603,3511.15L748.806,3511.15L748.806,3512.85L762.603,3512.85L762.603,3511.15ZM762.567,3496.24C759.389,3496.6 755.668,3496.81 751.479,3496.92C751.407,3497.54 751.298,3498.11 751.226,3498.62L767.551,3498.62L767.551,3501.44L750.648,3501.44C750.468,3502.16 750.287,3502.88 750.07,3503.53L768.96,3503.53L768.96,3506.35L749.095,3506.35C749.023,3506.46 748.987,3506.53 748.987,3506.6C748.662,3507.29 748.337,3507.9 748.048,3508.48L765.709,3508.48L765.709,3525.42L762.603,3525.42L762.603,3524.16L748.806,3524.16L748.806,3525.42L745.7,3525.42L745.7,3512.24C745.375,3512.67 745.086,3513.03 744.797,3513.39C743.497,3514.91 741.908,3516.43 740.03,3517.94L737.068,3516.1C738.874,3514.84 740.283,3513.64 741.294,3512.53C743.063,3510.76 744.544,3508.7 745.7,3506.35L737.646,3506.35L737.646,3503.53L746.892,3503.53C747.109,3502.88 747.326,3502.16 747.542,3501.44L739.885,3501.44L739.885,3498.62L748.12,3498.62C748.229,3498.11 748.337,3497.57 748.409,3496.99C746.386,3497.07 744.292,3497.07 742.125,3497.07L740.174,3494.21L744.292,3494.21C751.443,3494.21 758.016,3493.82 764.012,3492.95L766.468,3495.44C766.612,3495.55 766.721,3495.77 766.721,3496.06C766.721,3496.27 766.648,3496.35 766.576,3496.35C766.287,3496.35 765.998,3496.31 765.782,3496.16C765.312,3496.09 765.023,3496.06 764.878,3496.06C764.373,3496.06 763.614,3496.13 762.567,3496.24" style="fill-rule:nonzero;"/>
        </g>
        <g transform="matrix(4.16667,0,0,4.16667,209.302,621.007)">
            <path d="M0,-29.688C0,-25.354 -0.181,-22.645 -0.542,-21.561C-0.758,-20.478 -1.192,-19.719 -1.915,-19.322C-2.673,-18.889 -3.973,-18.672 -5.779,-18.672L-7.187,-21.633C-5.417,-21.633 -4.37,-21.742 -4.009,-21.959C-3.72,-22.103 -3.467,-22.501 -3.287,-23.151C-3.07,-23.657 -2.926,-24.884 -2.854,-26.834L-7.404,-26.834C-7.585,-24.667 -8.018,-23.079 -8.741,-21.995C-9.752,-20.478 -11.449,-19.213 -13.833,-18.239L-16.217,-20.767C-13.869,-21.633 -12.28,-22.609 -11.449,-23.692C-10.944,-24.415 -10.655,-25.462 -10.51,-26.834L-14.808,-26.834L-14.808,-29.688L0,-29.688ZM-21.707,-8.776L-19.468,-8.776L-19.468,-12.893L-21.707,-12.893L-21.707,-8.776ZM-21.707,-15.71L-19.468,-15.71L-19.468,-19.647L-21.707,-19.647L-21.707,-15.71ZM-24.416,-19.647L-26.511,-19.647L-26.511,-15.71L-24.416,-15.71L-24.416,-19.647ZM-24.416,-8.776L-24.416,-12.893L-26.583,-12.893C-26.655,-11.449 -26.799,-10.076 -26.944,-8.776L-24.416,-8.776ZM-22.898,-22.464L-20.876,-25.571L-25.824,-25.571C-26.691,-24.451 -27.558,-23.404 -28.461,-22.464L-22.898,-22.464ZM-23.187,-30.663C-22.79,-30.59 -22.574,-30.447 -22.574,-30.23C-22.574,-30.013 -22.79,-29.796 -23.151,-29.543C-23.44,-29.038 -23.729,-28.568 -24.018,-28.135L-19.756,-28.135L-19.034,-28.387C-18.781,-28.387 -18.528,-28.28 -18.275,-28.135L-16.687,-27.124C-16.47,-26.979 -16.361,-26.834 -16.361,-26.726C-16.361,-26.437 -16.614,-26.148 -17.083,-25.86L-19.648,-22.464L-16.506,-22.464L-16.506,-10.834C-15.133,-12.785 -13.978,-15.132 -13.111,-17.805L-10.51,-16.938C-10.185,-16.83 -10.004,-16.686 -10.004,-16.542C-10.004,-16.433 -10.113,-16.289 -10.293,-16.144C-10.438,-16.072 -10.691,-15.566 -11.016,-14.699L-8.163,-14.699L-8.163,-18.528L-5.31,-18.275C-4.804,-18.239 -4.515,-18.094 -4.515,-17.805C-4.515,-17.661 -4.731,-17.408 -5.093,-17.119L-5.093,-14.699L0.145,-14.699L0.145,-11.882L-5.093,-11.882L-5.093,-7.945L0.867,-7.945L0.867,-5.128L-5.093,-5.128L-5.093,1.518L-8.163,1.518L-8.163,-5.128L-15.928,-5.128L-15.928,-7.945L-8.163,-7.945L-8.163,-11.882L-12.244,-11.882C-12.75,-10.871 -13.255,-9.931 -13.833,-9.065L-16.506,-10.545L-16.506,-1.444C-16.506,-0.072 -17.192,0.832 -18.564,1.265C-19.648,1.626 -20.695,1.806 -21.707,1.806L-22.862,-1.155L-20.479,-1.227C-19.829,-1.299 -19.467,-1.661 -19.467,-2.311L-19.467,-5.959L-27.305,-5.959C-27.738,-3.213 -28.389,-0.793 -29.183,1.374L-32.181,-0.18C-31.242,-2.419 -30.556,-4.767 -30.158,-7.223C-29.725,-10.22 -29.472,-13.218 -29.472,-16.252L-29.472,-21.453C-29.761,-21.165 -29.978,-20.948 -30.194,-20.767L-32.578,-22.753C-29.761,-25.209 -27.485,-28.135 -25.68,-31.494L-23.187,-30.663Z" style="fill-rule:nonzero;"/>
        </g>
        <g transform="matrix(4.16667,0,0,4.16667,325.92,624.324)">
            <path d="M0,-31.026C0.433,-30.954 0.65,-30.809 0.65,-30.592C0.65,-30.339 0.325,-30.123 -0.325,-29.906C-0.578,-29.4 -0.831,-28.931 -1.047,-28.498L8.416,-28.498L8.416,-25.825L3.865,-25.825C4.442,-24.669 4.876,-23.513 5.165,-22.429L2.348,-21.852C1.878,-23.26 1.336,-24.596 0.686,-25.825L-2.709,-25.825C-3.359,-24.849 -4.082,-23.911 -4.84,-23.007L-7.657,-24.417C-5.562,-26.692 -4.009,-29.147 -2.998,-31.748L0,-31.026ZM-1.373,-15.242C-1.481,-15.278 -1.589,-15.314 -1.662,-15.386C-3.756,-16.615 -5.815,-18.059 -7.837,-19.721C-9.535,-18.095 -11.269,-16.723 -13.039,-15.567C-13.255,-15.422 -13.436,-15.314 -13.616,-15.242L-1.373,-15.242ZM-0.47,-7.477L-14.303,-7.477L-14.303,-3.396L-0.47,-3.396L-0.47,-7.477ZM2.637,-10.295L2.637,0.722L-0.47,0.722L-0.47,-0.543L-14.303,-0.543L-14.303,0.722L-17.409,0.722L-17.409,-10.295L2.637,-10.295ZM-5.31,-22.827C-5.021,-22.718 -4.84,-22.574 -4.84,-22.429C-4.84,-22.285 -4.912,-22.14 -4.984,-21.997C-5.273,-21.924 -5.598,-21.816 -5.887,-21.599C-3.106,-19.505 -0.758,-18.059 1.156,-17.265C2.889,-16.398 5.417,-15.639 8.704,-14.954L6.14,-11.992C3.829,-12.787 1.697,-13.653 -0.181,-14.629L-0.181,-12.534L-14.447,-12.534L-14.447,-14.773C-16.47,-13.689 -18.745,-12.642 -21.346,-11.703L-23.766,-14.087C-20.587,-15.026 -17.589,-16.326 -14.808,-18.023C-12.75,-19.215 -10.619,-21.057 -8.379,-23.549L-5.31,-22.827ZM-14.556,-31.026C-14.122,-30.954 -13.869,-30.809 -13.869,-30.592C-13.869,-30.339 -14.23,-30.123 -14.88,-29.906C-15.169,-29.4 -15.422,-28.931 -15.675,-28.498L-7.115,-28.498L-7.115,-25.825L-11.919,-25.825C-11.485,-24.669 -11.125,-23.513 -10.908,-22.429L-13.725,-21.852C-14.086,-23.26 -14.52,-24.596 -14.953,-25.825L-17.481,-25.825C-18.528,-24.38 -19.684,-23.007 -20.948,-21.708L-23.766,-23.116C-20.984,-25.789 -18.926,-28.678 -17.553,-31.748L-14.556,-31.026Z" style="fill-rule:nonzero;"/>
        </g>
        <g transform="matrix(4.16667,0,0,4.16667,-165.755,556.882)">
            <path d="M0,0.285C-1.908,0.285 -3.444,-1.275 -3.444,-3.172C-3.444,-5.09 -1.908,-6.626 0,-6.626C1.906,-6.626 3.453,-5.09 3.453,-3.172C3.453,-1.275 1.906,0.285 0,0.285M-3.061,-8.423C-7.804,-8.423 -11.644,-4.582 -11.644,0.161C-11.644,4.895 -7.804,8.708 -3.061,8.708C1.683,8.708 5.5,4.895 5.5,0.161C5.5,-4.582 1.683,-8.423 -3.061,-8.423M-20.104,0.57C-14.381,6.925 -8.573,10.143 -2.774,10.143C5.648,10.143 11.954,3.257 14.033,0.644C8.805,-6.329 3.243,-9.858 -2.516,-9.858C-10.95,-9.858 -17.788,-2.304 -20.104,0.57M-2.774,13.71C-9.983,13.71 -17.018,9.723 -23.745,1.796C-24.278,1.177 -24.303,0.308 -23.869,-0.347C-23.485,-0.893 -14.765,-13.425 -2.516,-13.425C4.732,-13.425 11.544,-9.042 17.699,-0.383C18.133,0.237 18.133,1.03 17.726,1.649C17.389,2.13 9.475,13.71 -2.774,13.71" style="fill-rule:nonzero;"/>
        </g>
        <g transform="matrix(4.16667,0,0,4.16667,2271.31,788.16)">
            <path d="M0,-98.258L-28.893,-46.197C-28.893,-46.197 -43.183,-23.707 -41.188,-16.43C-38.271,-5.824 -44.431,14.906 -58.486,9.601C-70.95,4.91 -72.374,-3.625 -72.541,-5.507C-74.215,-4.654 -82.196,-1.368 -92.749,-9.526C-104.654,-18.712 -81.931,-39.216 -74.365,-42.65C-66.783,-46.074 -55.623,-60.831 -55.623,-60.831L-26.707,-113.164L0,-98.258Z" style="fill:white;fill-rule:nonzero;"/>
        </g>
        <g transform="matrix(4.16667,0,0,4.16667,2171.96,834.73)">
            <path d="M0,-125.009L-29.927,-70.836L-30.002,-70.741C-30.478,-70.119 -41.554,-55.553 -49.479,-51.972C-55.348,-49.308 -69.572,-36.585 -70.137,-27.722C-70.278,-25.407 -69.493,-23.655 -67.637,-22.237C-58.132,-14.899 -51.123,-17.829 -49.822,-18.499L-46.854,-20.008L-46.566,-16.683C-46.436,-15.222 -45.235,-7.691 -34.002,-3.464C-30.666,-2.194 -27.812,-2.614 -25.266,-4.73C-19.742,-9.314 -17.584,-20.605 -19.404,-27.252C-21.521,-34.957 -9.355,-54.652 -6.903,-58.525L22.901,-112.226L26.714,-110.097L-3.137,-56.306C-8.555,-47.788 -16.565,-32.658 -15.267,-27.972C-13.097,-20.046 -15.447,-7.252 -22.312,-1.554C-25.977,1.482 -30.461,2.134 -35.283,0.312C-45.6,-3.573 -49.081,-10.036 -50.249,-13.889C-54.118,-12.85 -61.439,-12.415 -70.16,-19.155C-73.172,-21.474 -74.638,-24.643 -74.401,-28.3C-73.716,-39.038 -58.008,-52.761 -51.566,-55.681C-44.83,-58.717 -34.604,-71.911 -33.63,-73.188L-3.822,-127.143L0,-125.009Z" style="fill-rule:nonzero;"/>
        </g>
        <g transform="matrix(2.03056,-3.6384,-3.6384,-2.03056,2044.23,684.383)">
            <path d="M-11.481,-9.905C-4.595,-9.888 -1.089,-1.328 -1.09,6.357C-1.088,14.046 -4.592,22.58 -11.481,22.564C-18.368,22.546 -30.196,13.978 -30.196,6.289C-30.196,-1.397 -18.372,-9.92 -11.481,-9.905" style="fill:white;fill-rule:nonzero;"/>
        </g>
        <g transform="matrix(4.16667,0,0,4.16667,1964.04,680.027)">
            <path d="M0,22.612C5.304,25.569 17.377,20.257 20.384,14.841C23.039,10.053 18.146,3.958 12.198,0.636C6.25,-2.685 -1.489,-3.636 -4.144,1.149C-7.15,6.565 -5.288,19.661 0,22.612M14.128,-2.841C21.925,1.512 28.102,9.936 24.198,16.97C20.509,23.614 6.21,30.628 -1.927,26.087C-10.061,21.546 -11.656,5.663 -7.969,-0.984C-4.063,-8.016 6.33,-7.193 14.128,-2.841" style="fill:rgb(251,190,95);fill-rule:nonzero;"/>
        </g>
        <g transform="matrix(4.16667,0,0,4.16667,2080.98,696.145)">
            <path d="M0,-9.057L3.545,0L0,-9.057Z" style="fill:white;fill-rule:nonzero;"/>
        </g>
        <g transform="matrix(4.16667,0,0,4.16667,2058.53,88.9842)">
            <path d="M0,99.056L28.297,46.669C28.297,46.669 42.33,24.019 40.253,16.766C37.215,6.193 43.139,-14.603 57.254,-9.461C69.771,-4.911 71.292,3.608 71.479,5.486C73.144,4.617 81.087,1.238 91.73,9.275C103.741,18.326 81.253,39.085 73.727,42.606C66.184,46.117 55.191,60.999 55.191,60.999L26.873,113.659L0,99.056Z" style="fill:white;fill-rule:nonzero;"/>
        </g>
        <g transform="matrix(4.16667,0,0,4.16667,2158.6,43.0167)">
            <path d="M0,125.389L29.31,70.881L29.384,70.785C29.852,70.158 40.762,55.467 48.646,51.796C54.484,49.065 68.563,36.182 69.025,27.311C69.141,24.997 68.337,23.252 66.463,21.856C56.876,14.625 49.9,17.636 48.607,18.323L45.656,19.865L45.333,16.54C45.184,15.082 43.896,7.565 32.617,3.469C29.268,2.235 26.419,2.688 23.896,4.832C18.426,9.477 16.395,20.793 18.289,27.42C20.495,35.1 8.555,54.932 6.146,58.832L-23.045,112.869L-26.882,110.785L2.355,56.657C7.675,48.078 15.514,32.858 14.162,28.186C11.902,20.285 14.105,7.467 20.908,1.689C24.535,-1.388 29.012,-2.091 33.854,-0.322C44.216,3.444 47.77,9.869 48.983,13.707C52.84,12.622 60.156,12.106 68.952,18.746C71.99,21.029 73.49,24.182 73.296,27.841C72.732,38.586 57.183,52.489 50.776,55.481C44.073,58.594 33.998,71.903 33.039,73.191L3.846,127.48L0,125.389Z" style="fill-rule:nonzero;"/>
        </g>
        <g transform="matrix(-1.98919,3.66118,3.66118,1.98919,2373.3,107.806)">
            <path d="M17.043,-19.316C23.931,-19.299 27.437,-10.737 27.437,-3.051C27.437,4.636 23.931,13.171 17.043,13.155C10.155,13.137 -1.672,4.566 -1.672,-3.122C-1.671,-10.808 10.155,-19.33 17.043,-19.316" style="fill:white;fill-rule:nonzero;"/>
        </g>
        <g transform="matrix(4.16667,0,0,4.16667,2361.27,197.08)">
            <path d="M0,-22.637C-5.336,-25.533 -17.35,-20.084 -20.295,-14.633C-22.896,-9.817 -17.932,-3.776 -11.946,-0.525C-5.963,2.73 1.786,3.593 4.389,-1.225C7.332,-6.673 5.321,-19.744 0,-22.637M-13.838,2.974C-21.683,-1.289 -27.957,-9.641 -24.133,-16.721C-20.521,-23.407 -6.302,-30.58 1.887,-26.135C10.073,-21.685 11.847,-5.823 8.236,0.866C4.412,7.943 -5.991,7.238 -13.838,2.974" style="fill:rgb(251,190,95);fill-rule:nonzero;"/>
        </g>
        <g transform="matrix(4.16667,0,0,4.16667,2245.66,182.356)">
            <path d="M0,9.015L-3.647,0L0,9.015Z" style="fill:white;fill-rule:nonzero;"/>
        </g>
        <g transform="matrix(4.16667,0,0,4.16667,776.058,923.375)">
            <path d="M0,-190.645C34.804,-199.15 70.033,-177.76 78.534,-142.977C87.042,-108.157 65.648,-72.947 30.844,-64.442C-3.946,-55.938 -39.172,-77.311 -47.683,-112.131C-56.181,-146.916 -34.79,-182.143 0,-190.645M-67.831,37.413L-24.351,-34.195C-4.855,-25.872 17.388,-23.522 39.523,-28.932C93.902,-42.22 127.324,-97.264 114.035,-151.655C100.751,-206.003 45.708,-239.427 -8.672,-226.138C-63.035,-212.853 -96.456,-157.809 -83.172,-103.457C-78.421,-84.017 -68.328,-67.284 -54.842,-54.379L-99.064,18.449C-101.689,22.763 -102.313,27.717 -101.201,32.271C-100.094,36.801 -97.249,40.932 -92.93,43.544C-84.308,48.782 -73.075,46.037 -67.831,37.413" style="fill-rule:nonzero;"/>
        </g>
        <g transform="matrix(4.16667,0,0,4.16667,829.82,465.269)">
            <path d="M0,-53.602C1.312,-52.712 2.402,-51.518 3.167,-50.122C3.933,-51.518 5.022,-52.712 6.334,-53.602C5.022,-54.493 3.933,-55.687 3.167,-57.083C2.402,-55.687 1.312,-54.493 0,-53.602M45.1,-45.98C45.766,-45.646 46.396,-45.236 46.98,-44.754C47.85,-44.038 48.583,-43.187 49.157,-42.243C49.851,-44.11 51.088,-45.73 52.695,-46.889C51.961,-47.257 51.269,-47.718 50.636,-48.265C49.844,-48.951 49.172,-49.748 48.638,-50.626C47.944,-48.756 46.705,-47.138 45.1,-45.98M-0.812,-17.635C-0.328,-17.372 0.137,-17.065 0.577,-16.719C1.168,-16.253 1.699,-15.728 2.163,-15.155C2.754,-17.923 4.497,-20.306 6.927,-21.715C6.5,-21.962 6.089,-22.244 5.698,-22.556C5.113,-23.024 4.587,-23.551 4.128,-24.126C3.479,-21.355 1.671,-18.993 -0.812,-17.635M21.942,-5.281L21.942,2.861C26.565,0.594 31.071,-2.169 35.423,-5.409C34.955,-7.323 34.516,-9.304 34.102,-11.36C32.776,-9.164 30.617,-7.486 27.964,-6.823C26.096,-6.356 24.206,-5.867 22.303,-5.373C22.183,-5.343 22.062,-5.312 21.942,-5.281M54.213,5.611C54.793,5.611 55.377,5.662 55.957,5.764C57.313,6.004 58.588,6.518 59.712,7.258C59.696,7.231 59.681,7.205 59.664,7.177C57.459,3.396 57.97,-1.38 60.924,-4.61C61.682,-5.438 62.427,-6.274 63.16,-7.118C61.934,-6.942 60.668,-6.994 59.421,-7.293C57.725,-7.701 56.202,-8.532 54.97,-9.669C55.409,-7.904 55.874,-6.215 56.365,-4.599C57.479,-0.931 56.397,3.036 53.609,5.629C53.81,5.617 54.011,5.611 54.213,5.611M79.501,21.612C79.561,21.617 79.619,21.62 79.678,21.62C79.971,21.62 80.838,21.016 81.932,19.132C80.253,19.796 78.712,19.942 77.683,19.942L77.682,19.942C77.134,19.942 76.579,19.903 76.033,19.825C75.938,19.811 75.845,19.796 75.751,19.78C72.706,19.256 69.892,18.033 67.323,16.123C70.674,19.253 74.656,21.032 79.501,21.612M-14.136,41.802C-19.243,41.802 -23.529,37.955 -24.078,32.877C-24.429,29.634 -26.261,23.561 -27.999,19.881C-29.483,16.737 -29.229,13.047 -27.326,10.138C-25.423,7.228 -22.152,5.516 -18.67,5.615C-17.673,5.643 -16.634,5.666 -15.608,5.682L-15.608,3.781C-20.538,4.397 -25.262,1.285 -26.536,-3.635L-30.985,-20.815C-31.679,-23.494 -31.232,-26.34 -29.75,-28.677C-28.268,-31.014 -25.883,-32.633 -23.164,-33.147L-21.774,-33.41C-19.832,-33.777 -17.77,-34.166 -15.608,-34.586L-15.608,-35.322L-19.698,-35.322C-25.221,-35.322 -29.698,-39.799 -29.698,-45.322L-29.698,-61.883C-29.698,-67.406 -25.221,-71.883 -19.698,-71.883L-15.608,-71.883L-15.608,-84.625C-15.608,-90.148 -11.131,-94.625 -5.608,-94.625L11.942,-94.625C17.465,-94.625 21.942,-90.148 21.942,-84.625L21.942,-71.883L24.302,-71.883C25.761,-71.883 27.146,-71.571 28.396,-71.01C28.252,-74.942 28.129,-79.129 28.024,-83.652C27.962,-86.343 28.987,-88.947 30.869,-90.873C32.75,-92.798 35.329,-93.884 38.021,-93.884L56.438,-93.884C59.365,-93.884 62,-92.625 63.828,-90.621L67.239,-92.802C71.31,-95.404 76.653,-94.727 79.944,-91.196C81.269,-89.774 82.773,-88.19 84.34,-86.54C89.054,-81.576 93.929,-76.442 97.019,-72.556C98.145,-71.14 98.854,-69.459 99.097,-67.701C101.667,-66.129 103.499,-63.42 103.833,-60.196L105.563,-43.51C105.838,-40.867 105.048,-38.221 103.368,-36.161C102.565,-35.176 101.592,-34.364 100.505,-33.755C101.028,-31.641 100.865,-29.348 99.907,-27.233C97.713,-22.383 95.105,-17.533 92.139,-12.758C94.988,-10.543 99.035,-8.012 101.448,-6.805C105.306,-4.876 107.492,-0.693 106.873,3.574C103.213,28.819 94.063,41.62 79.678,41.62C78.937,41.62 78.18,41.581 77.426,41.503C77.378,41.5 77.33,41.494 77.282,41.488C67.363,40.335 59.001,36.291 52.313,29.432C47.47,32.741 42.653,35.556 37.919,37.841C33.571,39.94 28.343,38.632 25.495,34.732C24.037,32.734 21.823,30.347 19.428,28.119C17.786,31.69 15.116,34.89 10.811,37.293C4.245,41.062 -3.317,41.802 -14.136,41.802" style="fill:rgb(255,186,60);fill-rule:nonzero;"/>
        </g>
        <g transform="matrix(4.16667,0,0,4.16667,1362.03,387.281)">
            <path d="M0,-1.417C0.058,-1.354 0.113,-1.289 0.17,-1.225C0.232,-1.151 0.294,-1.077 0.354,-1.002C0.804,-1.558 1.312,-2.063 1.867,-2.511C1.745,-2.646 1.627,-2.784 1.513,-2.925C1.063,-2.37 0.556,-1.864 0,-1.417M-15.467,59.499C-16.08,59.499 -16.695,59.442 -17.307,59.328C-20.036,58.817 -22.43,57.194 -23.915,54.849C-25.228,52.777 -30.263,47.462 -32.333,45.962C-34.929,44.083 -36.466,41.074 -36.469,37.87C-36.472,34.666 -34.938,31.655 -32.347,29.771C-27.01,25.895 -23.138,21.166 -20.552,15.279L-24.67,15.279C-30.192,15.279 -34.67,10.802 -34.67,5.279L-34.67,-9.214C-34.67,-10.381 -34.47,-11.502 -34.103,-12.544C-35.52,-13.933 -36.506,-15.727 -36.905,-17.707C-37.465,-20.479 -36.826,-23.356 -35.146,-25.631C-31.177,-31 -27.707,-40.93 -25.864,-52.192C-25.426,-54.872 -23.916,-57.259 -21.682,-58.803C-19.448,-60.347 -16.684,-60.916 -14.021,-60.38L0.684,-57.418C5.413,-56.466 8.689,-52.319 8.711,-47.671L19.866,-47.671C21.694,-50.051 24.568,-51.585 27.802,-51.585L69.8,-51.585C75.322,-51.585 79.8,-47.107 79.8,-41.585L79.8,45.056C79.8,50.578 75.322,55.056 69.8,55.056L54.143,55.056C52.518,55.056 50.982,54.668 49.626,53.979C47.83,55.695 45.396,56.749 42.718,56.749L27.802,56.749C24.345,56.749 21.296,54.994 19.5,52.326C18.408,52.646 17.255,52.785 16.088,52.71C12.836,52.513 9.884,50.744 8.177,47.969C7.207,46.394 6.062,44.628 4.792,42.743C0.812,48.492 -3.973,53.441 -9.525,57.543C-11.259,58.823 -13.345,59.499 -15.467,59.499" style="fill:rgb(255,186,60);fill-rule:nonzero;"/>
        </g>
        <g transform="matrix(4.16667,0,0,4.16667,1964.07,129.545)">
            <path d="M0,121.463C-3.072,121.463 -6.096,120.05 -8.051,117.404C-8.696,116.53 -10.026,115.12 -11.432,113.81C-12.797,114.509 -14.343,114.902 -15.981,114.902L-27.898,114.902C-29.246,115.579 -30.768,115.96 -32.379,115.96L-40.577,115.96C-42.395,118.46 -45.343,120.086 -48.671,120.086L-59.249,120.086C-64.771,120.086 -69.249,115.609 -69.249,110.086L-69.249,73.377C-69.249,72.887 -69.214,72.405 -69.146,71.935C-69.283,71.274 -69.355,70.589 -69.355,69.887L-69.355,58.461C-69.355,57.921 -69.313,57.391 -69.23,56.874C-69.313,56.358 -69.355,55.827 -69.355,55.287L-69.355,47.896C-71.246,46.076 -72.423,43.52 -72.423,40.689L-72.423,28.734C-72.423,24.206 -69.412,20.381 -65.284,19.15C-66.217,16.763 -66.2,14.101 -65.222,11.716C-64.167,9.146 -62.092,7.13 -59.491,6.151L-48.807,2.131C-44.147,0.376 -38.905,2.319 -36.514,6.689C-35.697,8.18 -34.814,9.905 -33.946,11.724C-33.341,11.425 -32.7,11.185 -32.033,11.012C-31.888,10.515 -31.703,10.027 -31.479,9.552C-30.23,6.906 -27.888,4.941 -25.065,4.171L-13.429,0.997C-9.779,0 -5.966,1.161 -3.483,3.823C-1.673,2.257 0.648,1.385 3.061,1.385L16.496,1.385C20.503,1.385 23.96,3.741 25.556,7.145C29.637,6.746 33.689,8.888 35.554,12.754C38.521,18.91 42.396,27.439 43.997,33.104C44.452,34.713 44.485,36.353 44.157,37.897C44.771,39.192 45.114,40.641 45.114,42.17L45.114,54.97C45.114,56.722 44.664,58.368 43.872,59.8C44.402,61.621 44.418,63.606 43.826,65.528C42.382,70.221 40.615,74.832 38.539,79.334C39.599,80.184 40.7,81.003 41.621,81.601C44.966,83.775 46.699,87.728 46.032,91.66C41.939,115.767 31.681,120.827 23.795,120.827L23.615,120.829C19.973,120.829 15.437,119.733 11.136,115.666C9.306,117.143 7.438,118.517 5.54,119.782C3.838,120.917 1.909,121.463 0,121.463" style="fill:rgb(255,186,60);fill-rule:nonzero;"/>
        </g>
        <g transform="matrix(4.16667,0,0,4.16667,1208.14,377.878)">
            <path d="M0,-10.382C-5.314,1.36 -13.225,12.978 -22.494,23.113C-19.899,27.562 -16.933,30.282 -13.349,30.899C-10.753,31.27 -9.394,25.585 -8.775,12.484C-5.314,16.439 2.719,21.383 6.18,23.113C2.596,47.832 -5.067,53.27 -12.359,52.529C-22.989,51.293 -30.899,45.854 -36.584,36.585C-43.135,41.776 -50.057,46.349 -57.225,49.809C-60.563,45.237 -66.495,39.552 -71.686,35.967C-61.675,32.136 -52.281,26.327 -44,19.282C-46.967,9.517 -48.944,-2.348 -50.18,-16.067L-63.528,-14.707L-65.259,-31.887L-51.54,-33.123C-52.157,-42.393 -52.528,-52.28 -52.775,-62.91L-34.359,-62.91C-34.359,-53.023 -34.112,-43.629 -33.618,-34.854L-16.809,-36.337C-20.394,-41.404 -27.067,-49.068 -31.888,-54.629L-18.169,-63.404C-13.102,-57.966 -5.438,-50.18 -1.606,-45.36L-14.584,-36.584L3.09,-38.191L4.82,-21.505L-32.259,-17.797C-31.517,-9.64 -30.404,-2.348 -29.045,3.956C-23.112,-3.336 -18.292,-11.37 -14.708,-19.404L0,-10.382ZM-65.259,4.45C-69.708,5.562 -74.281,6.799 -78.854,7.911L-78.854,34.484C-78.854,42.641 -80.214,46.968 -84.911,49.562C-89.607,52.282 -96.034,52.776 -104.933,52.776C-105.428,48.203 -107.652,41.034 -109.753,36.585C-105.428,36.709 -100.36,36.709 -98.753,36.709C-97.023,36.709 -96.405,36.091 -96.405,34.36L-96.405,12.113L-107.652,14.832L-112.102,-2.348C-107.529,-3.213 -102.214,-4.201 -96.405,-5.438L-96.405,-24.348L-110.495,-24.348L-110.495,-40.909L-96.405,-40.909L-96.405,-63.652L-78.854,-63.652L-78.854,-40.909L-66.495,-40.909L-66.495,-24.348L-78.854,-24.348L-78.854,-9.393C-75.022,-10.258 -71.191,-11.246 -67.36,-12.111L-65.259,4.45Z" style="fill:rgb(255,186,60);fill-rule:nonzero;"/>
        </g>
        <g transform="matrix(4.16667,0,0,4.16667,-3145.18,-14411.2)">
            <path d="M1135.87,3524.44L1124.45,3524.44L1124.45,3576.7L1135.87,3576.7L1135.87,3524.44ZM1151.53,3510.06L1151.53,3596.7L1135.87,3596.7L1135.87,3591.09L1124.45,3591.09L1124.45,3598.39L1109.53,3598.39L1109.53,3510.06L1151.53,3510.06ZM1089.85,3556.92C1089.75,3557.87 1089.64,3558.82 1089.43,3559.67C1095.04,3565.38 1106.04,3577.97 1108.79,3581.36L1098.42,3594.37C1095.04,3588.87 1089.96,3581.68 1085.2,3575.43C1081.5,3585.17 1075.57,3594.26 1066.26,3601.14C1064.25,3597.97 1058.33,3591.72 1055.26,3589.5C1067.64,3580.51 1072.51,3568.45 1074.3,3556.92L1057.06,3556.92L1057.06,3542.43L1075.47,3542.43L1075.47,3528.14L1073.46,3528.14C1071.45,3533.01 1069.23,3537.35 1066.9,3540.84C1064.15,3538.3 1058.01,3533.96 1054.63,3531.95C1060.02,3524.65 1063.83,3512.7 1065.73,3501.06L1080.44,3504.03C1079.8,3507.31 1079.06,3510.69 1078.11,3513.97L1104.77,3513.97L1104.77,3528.14L1091.02,3528.14L1091.02,3542.43L1107.1,3542.43L1107.1,3556.92L1089.85,3556.92Z" style="fill:rgb(255,186,60);fill-rule:nonzero;"/>
        </g>
        <g transform="matrix(4.16667,0,0,4.16667,-3145.18,-14413.4)">
            <path d="M1216.69,3572.68L1210.24,3572.68L1210.24,3577.44L1216.69,3577.44L1216.69,3572.68ZM1210.24,3562.74L1216.69,3562.74L1216.69,3558.08L1210.24,3558.08L1210.24,3562.74ZM1208.97,3522.54C1209.92,3525.61 1210.66,3529.52 1211.08,3532.48L1213.31,3532.48C1213.94,3529.31 1214.58,3525.5 1214.89,3522.54L1208.97,3522.54ZM1260.49,3552.9C1257.53,3562.53 1253.29,3571.09 1248.43,3578.61C1249.17,3581.89 1249.8,3583.68 1250.44,3583.68C1251.6,3583.58 1252.34,3579.45 1252.66,3571.73C1254.78,3574.8 1260.28,3578.92 1262.39,3580.3C1259.43,3597.75 1253.82,3601.14 1250.02,3601.14C1245.57,3601.24 1241.98,3597.44 1239.12,3590.67C1234.99,3595.11 1230.65,3598.81 1226.21,3601.77C1224.41,3599.34 1220.5,3595.53 1217.64,3593.52C1219.44,3592.36 1221.13,3591.09 1222.83,3589.71L1216.69,3589.71L1216.69,3587.39L1210.24,3587.39L1210.24,3595.21L1198.18,3595.21L1198.18,3548.03L1229.07,3548.03L1229.07,3583.89C1231.18,3581.67 1233.19,3579.24 1235.1,3576.49C1233.41,3567.92 1232.14,3557.34 1231.18,3545.28L1195.53,3545.28L1195.53,3532.48L1200.29,3532.48C1199.98,3529.73 1199.34,3526.56 1198.71,3523.91L1206.96,3522.54L1196.7,3522.54L1196.7,3511.01L1206.54,3511.01C1205.8,3508.68 1204.74,3506.25 1203.79,3504.13L1215.42,3500.96C1217.01,3504.02 1218.81,3507.94 1219.87,3511.01L1227.69,3511.01L1227.69,3522.54L1218.7,3522.54L1226.32,3523.6C1225.26,3526.77 1224.41,3529.84 1223.67,3532.48L1230.34,3532.48C1229.81,3522.96 1229.49,3512.59 1229.28,3501.7L1242.72,3501.7C1242.72,3504.87 1242.82,3508.15 1242.82,3511.32L1252.77,3507.41C1255.62,3513.33 1259.22,3521.27 1260.59,3526.13L1248.85,3531.21C1247.9,3526.88 1245.36,3520.21 1242.93,3514.39C1243.03,3520.63 1243.35,3526.66 1243.67,3532.48L1261.33,3532.48L1261.33,3545.28L1244.41,3545.28C1244.83,3549.51 1245.15,3553.64 1245.47,3557.34C1246.84,3554.06 1248.01,3550.57 1248.96,3546.97L1260.49,3552.9ZM1177.55,3584.64L1183.05,3584.64L1183.05,3575.33L1177.55,3575.33L1177.55,3584.64ZM1193.84,3596.27L1177.55,3596.27L1177.55,3600.4L1166.97,3600.4L1166.97,3563.69L1193.84,3563.69L1193.84,3596.27ZM1166.86,3548.77L1193.63,3548.77L1193.63,3560.2L1166.86,3560.2L1166.86,3548.77ZM1193.63,3545.6L1166.86,3545.6L1166.86,3534.17L1193.63,3534.17L1193.63,3545.6ZM1180.19,3519.05L1195.32,3519.05L1195.32,3531L1163.8,3531L1163.8,3519.05L1175.33,3519.05C1174.27,3515.13 1172.15,3509.95 1170.25,3505.82L1180.93,3501.8C1183.37,3506.25 1186.12,3512.38 1187.18,3516.19L1180.19,3519.05Z" style="fill:rgb(255,186,60);fill-rule:nonzero;"/>
        </g>
        <g transform="matrix(4.16667,0,0,4.16667,792.32,427.769)">
            <path d="M0,-53.602C1.312,-52.712 2.402,-51.518 3.167,-50.122C3.933,-51.518 5.022,-52.712 6.334,-53.602C5.022,-54.493 3.933,-55.687 3.167,-57.083C2.402,-55.687 1.312,-54.493 0,-53.602M45.1,-45.98C45.766,-45.646 46.396,-45.236 46.98,-44.754C47.85,-44.038 48.583,-43.187 49.157,-42.243C49.851,-44.11 51.088,-45.73 52.695,-46.889C51.961,-47.257 51.269,-47.718 50.636,-48.265C49.844,-48.951 49.172,-49.748 48.638,-50.626C47.944,-48.756 46.705,-47.138 45.1,-45.98M-0.812,-17.635C-0.328,-17.372 0.137,-17.065 0.577,-16.719C1.168,-16.253 1.699,-15.728 2.163,-15.155C2.754,-17.923 4.497,-20.306 6.927,-21.715C6.5,-21.962 6.089,-22.244 5.698,-22.555C5.113,-23.024 4.587,-23.551 4.128,-24.126C3.479,-21.355 1.671,-18.993 -0.812,-17.635M21.942,-5.281L21.942,2.861C26.565,0.594 31.071,-2.169 35.423,-5.409C34.955,-7.323 34.516,-9.304 34.102,-11.36C32.776,-9.164 30.617,-7.486 27.964,-6.823C26.096,-6.356 24.206,-5.867 22.303,-5.373C22.183,-5.343 22.062,-5.312 21.942,-5.281M54.213,5.611C54.793,5.611 55.377,5.662 55.957,5.764C57.313,6.004 58.588,6.518 59.712,7.258C59.696,7.231 59.681,7.205 59.664,7.177C57.459,3.396 57.97,-1.38 60.924,-4.61C61.682,-5.438 62.427,-6.274 63.16,-7.118C61.933,-6.941 60.667,-6.995 59.421,-7.293C57.725,-7.701 56.202,-8.532 54.97,-9.669C55.409,-7.904 55.874,-6.215 56.365,-4.599C57.479,-0.931 56.397,3.036 53.609,5.629C53.81,5.617 54.011,5.611 54.213,5.611M79.501,21.612C79.561,21.617 79.619,21.62 79.678,21.62C79.971,21.62 80.838,21.016 81.932,19.132C80.253,19.796 78.712,19.942 77.683,19.942L77.682,19.942C77.134,19.942 76.579,19.903 76.033,19.825C75.938,19.811 75.845,19.796 75.751,19.78C72.706,19.256 69.892,18.033 67.323,16.123C70.674,19.253 74.656,21.032 79.501,21.612M-14.136,41.802C-19.243,41.802 -23.529,37.955 -24.078,32.877C-24.429,29.634 -26.261,23.561 -27.999,19.881C-29.483,16.737 -29.229,13.047 -27.326,10.138C-25.423,7.228 -22.146,5.504 -18.67,5.615C-17.673,5.643 -16.634,5.666 -15.608,5.682L-15.608,3.781C-20.538,4.404 -25.262,1.285 -26.536,-3.635L-30.985,-20.815C-31.679,-23.494 -31.232,-26.34 -29.75,-28.677C-28.268,-31.014 -25.883,-32.633 -23.164,-33.147L-21.774,-33.41C-19.832,-33.777 -17.77,-34.166 -15.608,-34.586L-15.608,-35.322L-19.698,-35.322C-25.221,-35.322 -29.698,-39.799 -29.698,-45.322L-29.698,-61.883C-29.698,-67.406 -25.221,-71.883 -19.698,-71.883L-15.608,-71.883L-15.608,-84.625C-15.608,-90.148 -11.131,-94.625 -5.608,-94.625L11.942,-94.625C17.465,-94.625 21.942,-90.148 21.942,-84.625L21.942,-71.883L24.302,-71.883C25.761,-71.883 27.146,-71.571 28.396,-71.01C28.252,-74.942 28.129,-79.129 28.024,-83.652C27.962,-86.343 28.987,-88.947 30.869,-90.873C32.75,-92.798 35.329,-93.884 38.021,-93.884L56.438,-93.884C59.365,-93.884 62,-92.625 63.828,-90.621L67.239,-92.802C71.31,-95.404 76.652,-94.727 79.944,-91.196C81.269,-89.774 82.773,-88.19 84.34,-86.54C89.054,-81.576 93.929,-76.442 97.019,-72.556C98.145,-71.14 98.854,-69.459 99.097,-67.701C101.667,-66.129 103.499,-63.42 103.833,-60.196L105.563,-43.51C105.838,-40.867 105.048,-38.221 103.368,-36.161C102.565,-35.176 101.592,-34.364 100.505,-33.755C101.028,-31.641 100.865,-29.348 99.907,-27.233C97.713,-22.383 95.105,-17.533 92.139,-12.758C94.988,-10.543 99.035,-8.012 101.448,-6.805C105.306,-4.876 107.492,-0.693 106.873,3.574C103.213,28.819 94.063,41.62 79.678,41.62C78.937,41.62 78.18,41.581 77.426,41.503C77.378,41.5 77.33,41.494 77.282,41.488C67.363,40.335 59.001,36.291 52.313,29.432C47.47,32.741 42.653,35.556 37.919,37.841C33.571,39.941 28.343,38.633 25.495,34.732C24.037,32.734 21.823,30.347 19.428,28.119C17.786,31.69 15.116,34.89 10.811,37.293C4.245,41.062 -3.317,41.802 -14.136,41.802" style="fill-rule:nonzero;"/>
        </g>
        <g transform="matrix(4.16667,0,0,4.16667,1324.53,349.785)">
            <path d="M0,-1.418C0.058,-1.355 0.113,-1.29 0.17,-1.226C0.232,-1.152 0.294,-1.078 0.354,-1.003C0.804,-1.559 1.312,-2.064 1.867,-2.512C1.745,-2.647 1.627,-2.785 1.513,-2.926C1.063,-2.371 0.556,-1.865 0,-1.418M-15.467,59.498C-16.08,59.498 -16.695,59.441 -17.307,59.327C-20.036,58.816 -22.43,57.193 -23.915,54.848C-25.228,52.776 -30.263,47.461 -32.333,45.961C-34.929,44.082 -36.466,41.073 -36.469,37.869C-36.472,34.665 -34.938,31.654 -32.347,29.77C-27.01,25.894 -23.138,21.165 -20.552,15.278L-24.67,15.278C-30.192,15.278 -34.67,10.801 -34.67,5.278L-34.67,-9.215C-34.67,-10.382 -34.47,-11.503 -34.103,-12.545C-35.52,-13.934 -36.506,-15.728 -36.905,-17.708C-37.465,-20.48 -36.826,-23.357 -35.146,-25.632C-31.177,-31.001 -27.707,-40.931 -25.864,-52.193C-25.426,-54.873 -23.916,-57.26 -21.682,-58.804C-19.448,-60.348 -16.683,-60.916 -14.021,-60.381L0.684,-57.419C5.413,-56.467 8.689,-52.32 8.711,-47.672L19.866,-47.672C21.694,-50.052 24.568,-51.586 27.802,-51.586L69.8,-51.586C75.322,-51.586 79.8,-47.108 79.8,-41.586L79.8,45.055C79.8,50.577 75.322,55.055 69.8,55.055L54.143,55.055C52.518,55.055 50.982,54.667 49.626,53.978C47.83,55.694 45.396,56.748 42.718,56.748L27.802,56.748C24.345,56.748 21.296,54.993 19.5,52.325C18.407,52.645 17.255,52.781 16.088,52.709C12.836,52.512 9.884,50.743 8.177,47.968C7.207,46.393 6.062,44.627 4.792,42.742C0.812,48.491 -3.973,53.44 -9.525,57.542C-11.259,58.822 -13.345,59.498 -15.467,59.498" style="fill-rule:nonzero;"/>
        </g>
        <g transform="matrix(4.16667,0,0,4.16667,1926.57,92.0492)">
            <path d="M0,121.462C-3.072,121.462 -6.096,120.049 -8.051,117.403C-8.696,116.529 -10.026,115.119 -11.432,113.809C-12.797,114.508 -14.343,114.901 -15.981,114.901L-27.898,114.901C-29.246,115.578 -30.768,115.959 -32.379,115.959L-40.577,115.959C-42.395,118.459 -45.343,120.085 -48.671,120.085L-59.249,120.085C-64.771,120.085 -69.249,115.608 -69.249,110.085L-69.249,73.376C-69.249,72.886 -69.214,72.404 -69.146,71.934C-69.283,71.273 -69.355,70.588 -69.355,69.886L-69.355,58.46C-69.355,57.92 -69.313,57.39 -69.23,56.873C-69.313,56.357 -69.355,55.826 -69.355,55.286L-69.355,47.895C-71.246,46.075 -72.423,43.519 -72.423,40.688L-72.423,28.733C-72.423,24.205 -69.412,20.38 -65.284,19.149C-66.217,16.762 -66.2,14.1 -65.222,11.715C-64.167,9.145 -62.092,7.129 -59.491,6.15L-48.807,2.13C-44.148,0.376 -38.905,2.318 -36.514,6.688C-35.697,8.179 -34.814,9.904 -33.946,11.723C-33.341,11.424 -32.7,11.184 -32.033,11.011C-31.888,10.514 -31.703,10.026 -31.479,9.551C-30.23,6.905 -27.888,4.94 -25.065,4.17L-13.429,0.996C-9.779,0 -5.966,1.16 -3.483,3.822C-1.673,2.256 0.648,1.384 3.061,1.384L16.496,1.384C20.503,1.384 23.96,3.74 25.556,7.144C29.637,6.745 33.689,8.887 35.554,12.753C38.521,18.909 42.396,27.438 43.997,33.103C44.452,34.712 44.485,36.352 44.157,37.896C44.771,39.191 45.114,40.64 45.114,42.169L45.114,54.969C45.114,56.721 44.664,58.367 43.872,59.799C44.402,61.62 44.418,63.605 43.826,65.527C42.382,70.22 40.615,74.831 38.539,79.333C39.599,80.183 40.7,81.002 41.621,81.6C44.966,83.774 46.699,87.727 46.032,91.659C41.939,115.766 31.681,120.826 23.795,120.826L23.615,120.828C19.973,120.828 15.437,119.732 11.136,115.665C9.306,117.142 7.438,118.516 5.54,119.781C3.838,120.916 1.909,121.462 0,121.462" style="fill-rule:nonzero;"/>
        </g>
        <g transform="matrix(4.16667,0,0,4.16667,1170.64,340.378)">
            <path d="M0,-10.382C-5.314,1.36 -13.225,12.978 -22.494,23.113C-19.899,27.562 -16.933,30.282 -13.349,30.899C-10.753,31.27 -9.394,25.585 -8.775,12.484C-5.314,16.439 2.719,21.383 6.18,23.113C2.596,47.832 -5.067,53.27 -12.359,52.529C-22.989,51.293 -30.899,45.854 -36.584,36.585C-43.135,41.776 -50.057,46.349 -57.225,49.809C-60.563,45.237 -66.495,39.552 -71.686,35.967C-61.675,32.136 -52.281,26.327 -44,19.282C-46.967,9.517 -48.944,-2.348 -50.18,-16.067L-63.528,-14.707L-65.259,-31.887L-51.54,-33.123C-52.157,-42.393 -52.528,-52.28 -52.775,-62.91L-34.359,-62.91C-34.359,-53.023 -34.112,-43.629 -33.618,-34.854L-16.809,-36.337C-20.394,-41.404 -27.067,-49.068 -31.888,-54.629L-18.169,-63.404C-13.102,-57.966 -5.438,-50.18 -1.606,-45.36L-14.584,-36.584L3.09,-38.191L4.82,-21.505L-32.259,-17.797C-31.517,-9.64 -30.404,-2.348 -29.045,3.956C-23.112,-3.336 -18.292,-11.37 -14.708,-19.404L0,-10.382ZM-65.259,4.45C-69.708,5.562 -74.281,6.799 -78.854,7.911L-78.854,34.484C-78.854,42.641 -80.214,46.968 -84.911,49.562C-89.607,52.282 -96.034,52.776 -104.933,52.776C-105.428,48.203 -107.652,41.034 -109.753,36.585C-105.428,36.709 -100.36,36.709 -98.753,36.709C-97.023,36.709 -96.405,36.091 -96.405,34.36L-96.405,12.113L-107.652,14.832L-112.102,-2.348C-107.529,-3.213 -102.214,-4.201 -96.405,-5.438L-96.405,-24.348L-110.495,-24.348L-110.495,-40.909L-96.405,-40.909L-96.405,-63.652L-78.854,-63.652L-78.854,-40.909L-66.495,-40.909L-66.495,-24.348L-78.854,-24.348L-78.854,-9.393C-75.023,-10.258 -71.191,-11.246 -67.36,-12.111L-65.259,4.45Z" style="fill:rgb(255,199,0);fill-rule:nonzero;"/>
        </g>
        <g transform="matrix(4.16667,0,0,4.16667,-3145.18,-14486.2)">
            <path d="M1126.87,3533.44L1115.45,3533.44L1115.45,3585.7L1126.87,3585.7L1126.87,3533.44ZM1142.53,3519.06L1142.53,3605.7L1126.87,3605.7L1126.87,3600.09L1115.45,3600.09L1115.45,3607.39L1100.53,3607.39L1100.53,3519.06L1142.53,3519.06ZM1080.85,3565.92C1080.75,3566.87 1080.64,3567.82 1080.43,3568.67C1086.04,3574.38 1097.04,3586.97 1099.79,3590.36L1089.42,3603.37C1086.04,3597.87 1080.96,3590.68 1076.2,3584.43C1072.5,3594.17 1066.57,3603.26 1057.26,3610.14C1055.25,3606.97 1049.33,3600.72 1046.26,3598.5C1058.64,3589.51 1063.51,3577.45 1065.3,3565.92L1048.06,3565.92L1048.06,3551.43L1066.47,3551.43L1066.47,3537.14L1064.46,3537.14C1062.45,3542.01 1060.23,3546.35 1057.9,3549.84C1055.15,3547.3 1049.01,3542.96 1045.63,3540.95C1051.02,3533.65 1054.83,3521.7 1056.73,3510.06L1071.44,3513.03C1070.8,3516.31 1070.06,3519.69 1069.11,3522.97L1095.77,3522.97L1095.77,3537.14L1082.02,3537.14L1082.02,3551.43L1098.1,3551.43L1098.1,3565.92L1080.85,3565.92Z" style="fill:white;fill-rule:nonzero;"/>
        </g>
        <g transform="matrix(4.16667,0,0,4.16667,-3145.18,-14488.4)">
            <path d="M1207.69,3581.68L1201.24,3581.68L1201.24,3586.44L1207.69,3586.44L1207.69,3581.68ZM1201.24,3571.74L1207.69,3571.74L1207.69,3567.08L1201.24,3567.08L1201.24,3571.74ZM1199.97,3531.54C1200.92,3534.61 1201.66,3538.52 1202.08,3541.48L1204.31,3541.48C1204.94,3538.31 1205.58,3534.5 1205.89,3531.54L1199.97,3531.54ZM1251.49,3561.9C1248.53,3571.53 1244.29,3580.09 1239.43,3587.61C1240.17,3590.89 1240.8,3592.68 1241.44,3592.68C1242.6,3592.58 1243.34,3588.45 1243.66,3580.73C1245.78,3583.8 1251.28,3587.92 1253.39,3589.3C1250.43,3606.75 1244.82,3610.14 1241.02,3610.14C1236.57,3610.24 1232.98,3606.44 1230.12,3599.67C1225.99,3604.11 1221.65,3607.81 1217.21,3610.77C1215.41,3608.34 1211.5,3604.53 1208.64,3602.52C1210.44,3601.36 1212.13,3600.09 1213.83,3598.71L1207.69,3598.71L1207.69,3596.39L1201.24,3596.39L1201.24,3604.21L1189.18,3604.21L1189.18,3557.03L1220.07,3557.03L1220.07,3592.89C1222.18,3590.67 1224.19,3588.24 1226.1,3585.49C1224.41,3576.92 1223.14,3566.34 1222.18,3554.28L1186.53,3554.28L1186.53,3541.48L1191.29,3541.48C1190.98,3538.73 1190.34,3535.56 1189.71,3532.91L1197.96,3531.54L1187.7,3531.54L1187.7,3520.01L1197.54,3520.01C1196.8,3517.68 1195.74,3515.25 1194.79,3513.13L1206.42,3509.96C1208.01,3513.02 1209.81,3516.94 1210.87,3520.01L1218.69,3520.01L1218.69,3531.54L1209.7,3531.54L1217.32,3532.6C1216.26,3535.77 1215.41,3538.84 1214.67,3541.48L1221.34,3541.48C1220.81,3531.96 1220.49,3521.59 1220.28,3510.7L1233.72,3510.7C1233.72,3513.87 1233.82,3517.15 1233.82,3520.32L1243.77,3516.41C1246.62,3522.33 1250.22,3530.27 1251.59,3535.13L1239.85,3540.21C1238.9,3535.88 1236.36,3529.21 1233.93,3523.39C1234.03,3529.63 1234.35,3535.66 1234.67,3541.48L1252.33,3541.48L1252.33,3554.28L1235.41,3554.28C1235.83,3558.51 1236.15,3562.64 1236.47,3566.34C1237.84,3563.06 1239.01,3559.57 1239.96,3555.97L1251.49,3561.9ZM1168.55,3593.64L1174.05,3593.64L1174.05,3584.33L1168.55,3584.33L1168.55,3593.64ZM1184.84,3605.27L1168.55,3605.27L1168.55,3609.4L1157.97,3609.4L1157.97,3572.69L1184.84,3572.69L1184.84,3605.27ZM1157.86,3557.77L1184.63,3557.77L1184.63,3569.2L1157.86,3569.2L1157.86,3557.77ZM1184.63,3554.6L1157.86,3554.6L1157.86,3543.17L1184.63,3543.17L1184.63,3554.6ZM1171.19,3528.05L1186.32,3528.05L1186.32,3540L1154.8,3540L1154.8,3528.05L1166.33,3528.05C1165.27,3524.13 1163.15,3518.95 1161.25,3514.82L1171.93,3510.8C1174.37,3515.25 1177.12,3521.38 1178.18,3525.19L1171.19,3528.05Z" style="fill:white;fill-rule:nonzero;"/>
        </g>
        <g transform="matrix(4.16667,0,0,4.16667,-462.011,279.637)">
            <path d="M0,-66.893C-4.436,-65.3 -6.689,-60.377 -5.009,-55.983L-3.038,-50.83L-6.852,-60.803C-8.56,-65.267 -13.516,-67.76 -18.009,-66.134C-22.587,-64.48 -24.9,-59.399 -23.168,-54.872L-20.471,-47.82L-25.077,-59.861C-26.801,-64.372 -31.81,-66.892 -36.352,-65.249C-40.979,-63.576 -43.315,-58.442 -41.565,-53.867L-37.417,-43.019L-52.449,-82.326C-56.817,-93.746 -62.394,-95.968 -67.305,-93.833C-71.799,-91.878 -73.939,-86.305 -72.189,-81.728L-46.13,-13.589L-48.226,-19.068L-61.72,-28.234C-64.927,-30.007 -68.956,-29.48 -71.519,-26.861C-71.533,-26.845 -71.548,-26.83 -71.562,-26.816C-74.853,-23.415 -72.461,-17.786 -70.022,-13.48C-60.997,2.452 -48.624,16.747 -33.151,26.624C-29.884,28.708 -25.806,29.075 -22.185,27.69L20.367,11.416C25.581,9.422 28.912,4.313 28.687,-1.264C28.282,-11.354 26.237,-21.324 22.621,-30.78L10.788,-61.722C9.137,-66.039 4.349,-68.455 0,-66.893" style="fill:white;fill-rule:nonzero;"/>
        </g>
        <g transform="matrix(4.16667,0,0,4.16667,-744.411,116.106)">
            <path d="M0,12.829C-0.73,13.107 -1.405,13.54 -1.972,14.12C-3.669,15.873 -3.024,19.369 -0.09,24.547C9.329,41.173 21.794,54.74 35.958,63.781C38.525,65.42 41.796,65.735 44.706,64.623L87.258,48.35C91.466,46.741 94.17,42.615 93.988,38.082C93.592,28.229 91.605,18.563 88.083,9.352L76.25,-21.59C75.05,-24.724 71.625,-26.395 68.613,-25.315C67.099,-24.777 65.9,-23.668 65.23,-22.209C64.561,-20.749 64.507,-19.12 65.081,-17.621L67.052,-12.466C67.541,-11.188 66.901,-9.756 65.623,-9.267C64.345,-8.777 62.913,-9.418 62.424,-10.695L58.609,-20.671C57.354,-23.955 53.765,-25.698 50.609,-24.558C49.032,-23.981 47.773,-22.832 47.075,-21.307C46.377,-19.779 46.322,-18.076 46.922,-16.51L49.619,-9.456C50.107,-8.179 49.468,-6.746 48.19,-6.257C46.911,-5.769 45.479,-6.408 44.991,-7.686L40.385,-19.729C39.111,-23.061 35.469,-24.83 32.267,-23.672C30.665,-23.088 29.39,-21.92 28.681,-20.372C27.972,-18.824 27.917,-17.094 28.524,-15.503L32.673,-4.656C33.161,-3.378 32.521,-1.945 31.244,-1.457C29.966,-0.969 28.534,-1.609 28.045,-2.887L13.013,-42.193C10.317,-49.241 7.52,-51.658 5.647,-52.444C4.316,-53.003 2.947,-52.959 1.458,-52.315C-1.729,-50.927 -3.392,-46.745 -2.099,-43.365L23.959,24.773C24.447,26.051 23.808,27.482 22.53,27.972C21.252,28.461 19.819,27.82 19.331,26.543L17.514,21.793L4.766,13.133C3.254,12.331 1.509,12.25 0,12.829M89.028,52.976L46.476,69.252C42.105,70.922 37.177,70.438 33.291,67.958C18.449,58.483 5.415,44.316 -4.402,26.988C-5.947,24.262 -10.65,15.961 -5.566,10.709C-5.563,10.706 -5.517,10.658 -5.514,10.654C-2.197,7.266 3.054,6.521 7.255,8.847C7.321,8.883 7.385,8.923 7.447,8.965L14.42,13.7L-6.728,-41.595C-8.96,-47.434 -6.116,-54.423 -0.518,-56.858C2.197,-58.046 4.995,-58.093 7.566,-57.014C11.585,-55.324 14.975,-50.934 17.641,-43.962L25.192,-24.216C26.509,-26.101 28.364,-27.547 30.582,-28.332C35.177,-29.993 40.255,-28.346 43.235,-24.611C44.55,-26.74 46.523,-28.369 48.924,-29.218C53.462,-30.858 58.473,-29.246 61.434,-25.578C62.72,-27.611 64.637,-29.138 66.938,-29.977L66.939,-29.977C72.469,-31.963 78.723,-28.994 80.877,-23.359L92.71,7.582C96.426,17.297 98.521,27.491 98.939,37.885C99.206,44.542 95.224,50.607 89.028,52.976" style="fill-rule:nonzero;"/>
        </g>
        <g transform="matrix(-1.41633,-3.91856,-3.91856,1.41633,-736.291,-190.873)">
            <path d="M-9.555,6.707L4.707,6.707" style="fill:none;fill-rule:nonzero;"/>
        </g>
        <g transform="matrix(4.16667,0,0,4.16667,-743.617,-214.813)">
            <path d="M0,20.61C-1.878,21.371 -3.983,20.376 -4.702,18.388L-9.55,4.973C-10.269,2.987 -9.328,0.758 -7.45,-0.001C-5.571,-0.761 -3.466,0.235 -2.747,2.221L2.101,15.635C2.819,17.622 1.879,19.85 0,20.61" style="fill-rule:nonzero;"/>
        </g>
        <g transform="matrix(-3.80254,-1.70347,-1.70347,3.80254,-831.179,-129.342)">
            <path d="M-9.216,1.97L0.421,1.97" style="fill:none;fill-rule:nonzero;"/>
        </g>
        <g transform="matrix(4.16667,0,0,4.16667,-793.79,-139.319)">
            <path d="M0,11.549C-0.915,11.9 -1.964,11.901 -2.929,11.467L-11.725,7.525C-13.655,6.659 -14.521,4.389 -13.658,2.452C-12.795,0.516 -10.531,-0.352 -8.601,0.513L0.194,4.455C2.125,5.32 2.991,7.591 2.128,9.528C1.697,10.495 0.916,11.197 0,11.549" style="fill-rule:nonzero;"/>
        </g>
        <g transform="matrix(-3.89462,1.4809,1.4809,3.89462,-843.395,-28.6766)">
            <path d="M-13.252,-2.435L0.447,-2.435" style="fill:none;fill-rule:nonzero;"/>
        </g>
        <g transform="matrix(4.16667,0,0,4.16667,-789.912,-51.7374)">
            <path d="M0,1.965L-12.805,6.833C-14.703,7.554 -16.829,6.611 -17.554,4.724C-18.28,2.838 -17.33,0.724 -15.433,0.002L-2.628,-4.866C-0.73,-5.589 1.396,-4.643 2.122,-2.757C2.847,-0.87 1.897,1.243 0,1.965" style="fill-rule:nonzero;"/>
        </g>
        <g transform="matrix(-1.36807,3.93567,3.93567,1.36807,-768.345,28.0819)">
            <path d="M-6.026,-4.285L3.047,-4.285" style="fill:none;fill-rule:nonzero;"/>
        </g>
        <g transform="matrix(4.16667,0,0,4.16667,-785.54,-15.9549)">
            <path d="M0,15.136C-0.616,15.439 -1.322,15.439 -1.973,15.065C-3.273,14.319 -3.856,12.359 -3.275,10.689L-0.296,2.118C0.285,0.448 1.81,-0.303 3.11,0.444C4.411,1.19 4.994,3.152 4.413,4.822L1.434,13.392C1.143,14.228 0.617,14.832 0,15.136" style="fill-rule:nonzero;"/>
        </g>
        <g transform="matrix(3.71222,1.89223,1.89223,-3.71222,-634.793,-62.495)">
            <path d="M-0.51,-2.122L8.836,-2.122" style="fill:none;fill-rule:nonzero;"/>
        </g>
        <g transform="matrix(4.16667,0,0,4.16667,-601.031,-72.2212)">
            <path d="M0,11.8C-0.8,12.15 -1.716,12.15 -2.559,11.721L-10.885,7.477C-12.571,6.618 -13.327,4.361 -12.573,2.437C-11.821,0.514 -9.843,-0.35 -8.156,0.511L0.169,4.753C1.856,5.613 2.612,7.87 1.858,9.792C1.481,10.755 0.799,11.452 0,11.8" style="fill-rule:nonzero;"/>
        </g>
        <g transform="matrix(3.85919,-1.57092,-1.57092,-3.85919,-644.337,-97.346)">
            <path d="M-0.474,2.422L12.374,2.422" style="fill:none;fill-rule:nonzero;"/>
        </g>
        <g transform="matrix(4.16667,0,0,4.16667,-595.298,-120.112)">
            <path d="M0,1.954L-11.9,6.798C-13.664,7.516 -15.641,6.576 -16.315,4.699C-16.989,2.822 -16.106,0.718 -14.343,0.001L-2.442,-4.844C-0.679,-5.562 1.298,-4.62 1.972,-2.744C2.646,-0.868 1.764,1.235 0,1.954" style="fill-rule:nonzero;"/>
        </g>
        <g transform="matrix(1.53187,-3.87485,-3.87485,-1.53187,-669.671,-151.254)">
            <path d="M-3.149,4.632L6.811,4.632" style="fill:none;fill-rule:nonzero;"/>
        </g>
        <g transform="matrix(4.16667,0,0,4.16667,-687.129,-202.327)">
            <path d="M0,17.25C-0.853,17.619 -1.831,17.619 -2.73,17.166C-4.53,16.258 -5.336,13.873 -4.533,11.84L-0.872,2.576C-0.068,0.543 2.043,-0.369 3.842,0.54C5.642,1.447 6.449,3.831 5.645,5.865L1.983,15.129C1.582,16.146 0.852,16.883 0,17.25" style="fill-rule:nonzero;"/>
        </g>
        <g transform="matrix(4.16667,0,0,4.16667,-7.19363,237.684)">
            <path d="M0,-54.462L0,-51.293C0.54,-51.891 1.15,-52.424 1.819,-52.877C1.15,-53.331 0.54,-53.864 0,-54.462M-56.44,-23.585C-56.302,-23.431 -56.168,-23.272 -56.039,-23.108C-55.911,-23.272 -55.777,-23.431 -55.638,-23.585C-55.777,-23.739 -55.911,-23.899 -56.039,-24.062C-56.168,-23.899 -56.302,-23.739 -56.44,-23.585M-2.146,-21.596L-0.426,-21.596C-0.744,-21.999 -1.032,-22.427 -1.286,-22.877C-1.541,-22.427 -1.829,-21.999 -2.146,-21.596M-15.667,18.677C-15.64,18.87 -15.619,19.064 -15.604,19.261C-15.489,19.169 -15.372,19.08 -15.253,18.994C-15.394,18.892 -15.532,18.786 -15.667,18.677M14.905,18.994C15.326,19.3 15.723,19.638 16.09,20.005L16.09,17.984C15.723,18.351 15.326,18.688 14.905,18.994M-76.993,41.415C-78.522,41.415 -80.064,41.065 -81.499,40.34L-92.994,34.531C-95.717,33.155 -97.663,30.611 -98.278,27.622C-98.893,24.633 -98.11,21.527 -96.151,19.187C-94.347,17.032 -92.71,13.732 -91.472,9.89C-91.6,9.781 -91.725,9.671 -91.848,9.556C-93.79,7.743 -94.93,5.232 -95.018,2.577L-95.512,-12.378C-95.6,-15.051 -94.614,-17.649 -92.773,-19.589C-92.583,-19.79 -92.385,-19.982 -92.18,-20.165L-92.18,-30.059C-92.658,-31.227 -92.921,-32.504 -92.921,-33.844L-92.921,-82.664C-92.921,-88.187 -88.444,-92.664 -82.921,-92.664L-28.292,-92.664C-24.701,-92.664 -21.553,-90.772 -19.789,-87.93C-18.842,-92.468 -14.819,-95.877 -10,-95.877L7.427,-95.877C12.95,-95.877 17.427,-91.4 17.427,-85.877L17.427,-71.158L30.045,-71.158C35.568,-71.158 40.045,-66.681 40.045,-61.158L40.045,-44.597C40.045,-40.095 37.071,-36.288 32.981,-35.034C34.896,-33.213 36.09,-30.64 36.09,-27.787L36.09,30.798C36.09,36.32 31.613,40.798 26.09,40.798L9.034,40.798C5.895,40.798 3.094,39.351 1.261,37.09L-1.233,37.09C-3.046,39.633 -6.021,41.292 -9.382,41.292L-25.573,41.292C-30.118,41.292 -33.955,38.261 -35.17,34.108C-36.689,34.188 -38.206,33.927 -39.618,33.327L-49.771,35.403C-51.338,35.726 -52.941,35.662 -54.45,35.242C-54.559,35.259 -54.668,35.273 -54.778,35.287L-66.025,36.646C-66.803,36.741 -67.582,36.74 -68.345,36.656C-68.718,37.132 -69.104,37.596 -69.505,38.048C-71.453,40.245 -74.199,41.415 -76.993,41.415" style="fill:rgb(255,186,60);fill-rule:nonzero;"/>
        </g>
        <g transform="matrix(4.16667,0,0,4.16667,545.272,-85.6595)">
            <path d="M0,117.326L-14.916,117.326C-17.902,117.326 -20.583,116.016 -22.416,113.941L-70.679,113.941C-72.511,116.016 -75.192,117.326 -78.178,117.326L-92.354,117.326C-97.877,117.326 -102.354,112.848 -102.354,107.326L-102.354,10C-102.354,4.477 -97.877,0 -92.354,0L0,0C5.523,0 10,4.477 10,10L10,107.326C10,112.848 5.523,117.326 0,117.326" style="fill:rgb(255,186,60);fill-rule:nonzero;"/>
        </g>
        <g transform="matrix(4.16667,0,0,4.16667,-3145.18,-14932.9)">
            <path d="M762.149,3629.33L743.733,3629.33L743.733,3651.83L762.149,3651.83L762.149,3629.33ZM711.104,3595.34L711.104,3582.86C709.621,3586.32 708.385,3589.78 707.149,3592.25L702.329,3590.4L702.329,3595.34L711.104,3595.34ZM711.104,3570.01L702.329,3570.01L702.329,3585.46C703.688,3581.13 704.925,3576.31 705.542,3572.72L711.104,3574.58L711.104,3570.01ZM707.273,3643.55C709.498,3650.1 711.599,3658.62 712.217,3664.31L701.34,3666.53C700.97,3660.85 698.992,3652.07 696.891,3645.4L707.273,3643.55ZM683.295,3595.34L691.823,3595.34L691.823,3590.15L685.273,3592.38C685.149,3588.92 684.284,3584.22 683.295,3579.77L683.295,3595.34ZM683.295,3570.01L683.295,3574.46L688.857,3572.72C689.97,3576.19 691.082,3580.26 691.823,3583.97L691.823,3570.01L683.295,3570.01ZM760.543,3596.33L760.543,3613.14L779.206,3613.14L779.206,3671.73L762.149,3671.73L762.149,3668.02L743.734,3668.02L743.734,3672.22L727.543,3672.22L727.543,3660.97L717.408,3665.05C716.172,3659.49 712.711,3650.96 709.127,3644.66L719.385,3640.95C700.97,3641.82 682.06,3642.68 668.093,3643.18L667.599,3628.22C673.778,3628.1 681.194,3627.97 689.228,3627.85L689.228,3624.02L670.936,3624.02L670.936,3610.67L689.228,3610.67L689.228,3607.08L670.194,3607.08L670.194,3558.26L724.824,3558.26L724.824,3607.08L704.925,3607.08L704.925,3610.67L723.835,3610.67L723.835,3624.02L704.925,3624.02L704.925,3627.36C711.846,3627.23 719.015,3626.98 725.936,3626.74L725.565,3640.58L719.633,3640.95C722.723,3645.77 725.812,3652.07 727.543,3657.26L727.543,3613.14L743.116,3613.14L743.116,3555.05L760.543,3555.05L760.543,3579.77L783.161,3579.77L783.161,3596.33L760.543,3596.33ZM694.913,3644.53C696.273,3651.46 697.138,3660.36 697.138,3666.29L685.891,3667.65C686.138,3662.83 685.644,3656.03 684.902,3649.97C683.295,3658.25 680.947,3666.91 676.127,3672.34L664.632,3666.53C669.082,3661.22 672.048,3652.82 673.284,3644.91L684.655,3648.37L684.284,3645.77L694.913,3644.53Z" style="fill:rgb(255,186,60);fill-rule:nonzero;"/>
        </g>
        <g transform="matrix(4.16667,0,0,4.16667,-3145.18,-14863.8)">
            <path d="M836.198,3619.58L841.064,3619.58L841.064,3617.57L836.198,3617.57L836.198,3619.58ZM829.745,3581.6L847.623,3581.6L847.623,3578.96L829.745,3578.96L829.745,3581.6ZM828.37,3611.65L849.422,3611.65L849.422,3625.51L828.37,3625.51L828.37,3611.65ZM825.514,3627.83L851.961,3627.83L851.961,3609.32L825.514,3609.32L825.514,3627.83ZM813.982,3601.39L864.232,3601.39L864.232,3635.87L813.982,3635.87L813.982,3601.39ZM868.464,3591.12L868.464,3599.06L810.28,3599.06L810.28,3591.12L832.284,3591.12L832.284,3588.9L817.685,3588.9L817.685,3571.66L860.424,3571.66L860.424,3588.9L845.084,3588.9L845.084,3591.12L868.464,3591.12ZM870.792,3569.22L807.53,3569.22L807.53,3638.2L870.792,3638.2L870.792,3569.22ZM885.708,3556.74L885.708,3654.07L870.792,3654.07L870.792,3650.68L807.529,3650.68L807.529,3654.07L793.354,3654.07L793.354,3556.74L885.708,3556.74Z" style="fill:rgb(255,186,60);fill-rule:nonzero;"/>
        </g>
        <g transform="matrix(4.16667,0,0,4.16667,-44.6936,200.184)">
            <path d="M0,-54.462L0,-51.293C0.54,-51.891 1.15,-52.424 1.819,-52.877C1.15,-53.331 0.54,-53.864 0,-54.462M-56.44,-23.585C-56.302,-23.431 -56.168,-23.272 -56.039,-23.108C-55.911,-23.272 -55.777,-23.431 -55.638,-23.585C-55.777,-23.739 -55.911,-23.899 -56.039,-24.062C-56.168,-23.899 -56.302,-23.739 -56.44,-23.585M-2.146,-21.596L-0.426,-21.596C-0.744,-21.999 -1.032,-22.427 -1.286,-22.877C-1.541,-22.427 -1.829,-21.999 -2.146,-21.596M-15.667,18.677C-15.64,18.87 -15.619,19.064 -15.604,19.261C-15.489,19.169 -15.372,19.08 -15.253,18.994C-15.394,18.892 -15.532,18.786 -15.667,18.677M14.905,18.994C15.326,19.3 15.723,19.638 16.09,20.005L16.09,17.984C15.723,18.351 15.326,18.688 14.905,18.994M-76.993,41.415C-78.522,41.415 -80.064,41.065 -81.499,40.34L-92.994,34.531C-95.717,33.155 -97.663,30.611 -98.278,27.622C-98.893,24.633 -98.11,21.527 -96.151,19.187C-94.347,17.032 -92.71,13.732 -91.472,9.89C-91.6,9.781 -91.725,9.671 -91.848,9.556C-93.79,7.743 -94.93,5.232 -95.018,2.577L-95.512,-12.378C-95.6,-15.051 -94.614,-17.649 -92.773,-19.589C-92.583,-19.79 -92.385,-19.982 -92.18,-20.165L-92.18,-30.059C-92.658,-31.227 -92.921,-32.504 -92.921,-33.844L-92.921,-82.664C-92.921,-88.187 -88.444,-92.664 -82.921,-92.664L-28.292,-92.664C-24.701,-92.664 -21.553,-90.772 -19.789,-87.93C-18.842,-92.468 -14.819,-95.877 -10,-95.877L7.427,-95.877C12.95,-95.877 17.427,-91.4 17.427,-85.877L17.427,-71.158L30.045,-71.158C35.568,-71.158 40.045,-66.681 40.045,-61.158L40.045,-44.597C40.045,-40.095 37.071,-36.288 32.981,-35.034C34.896,-33.213 36.09,-30.64 36.09,-27.787L36.09,30.798C36.09,36.32 31.613,40.798 26.09,40.798L9.034,40.798C5.895,40.798 3.094,39.351 1.261,37.09L-1.233,37.09C-3.046,39.633 -6.021,41.292 -9.382,41.292L-25.573,41.292C-30.118,41.292 -33.955,38.261 -35.17,34.108C-36.69,34.191 -38.206,33.928 -39.618,33.327L-49.771,35.403C-51.339,35.726 -52.941,35.661 -54.45,35.242C-54.559,35.259 -54.668,35.273 -54.778,35.287L-66.025,36.646C-66.803,36.741 -67.582,36.74 -68.345,36.656C-68.718,37.132 -69.104,37.596 -69.505,38.048C-71.453,40.245 -74.199,41.415 -76.993,41.415" style="fill-rule:nonzero;"/>
        </g>
        <g transform="matrix(4.16667,0,0,4.16667,507.772,-123.16)">
            <path d="M0,117.326L-14.916,117.326C-17.902,117.326 -20.583,116.016 -22.416,113.941L-70.679,113.941C-72.511,116.016 -75.192,117.326 -78.178,117.326L-92.354,117.326C-97.877,117.326 -102.354,112.848 -102.354,107.326L-102.354,10C-102.354,4.477 -97.877,0 -92.354,0L0,0C5.523,0 10,4.477 10,10L10,107.326C10,112.848 5.523,117.326 0,117.326" style="fill-rule:nonzero;"/>
        </g>
        <g transform="matrix(4.16667,0,0,4.16667,-3145.18,-15007.9)">
            <path d="M753.149,3638.33L734.733,3638.33L734.733,3660.83L753.149,3660.83L753.149,3638.33ZM702.104,3604.34L702.104,3591.86C700.621,3595.32 699.385,3598.78 698.149,3601.25L693.329,3599.4L693.329,3604.34L702.104,3604.34ZM702.104,3579.01L693.329,3579.01L693.329,3594.46C694.688,3590.13 695.925,3585.31 696.542,3581.72L702.104,3583.58L702.104,3579.01ZM698.273,3652.55C700.498,3659.1 702.599,3667.62 703.217,3673.31L692.34,3675.53C691.97,3669.85 689.992,3661.07 687.891,3654.4L698.273,3652.55ZM674.295,3604.34L682.823,3604.34L682.823,3599.15L676.273,3601.38C676.149,3597.92 675.284,3593.22 674.295,3588.77L674.295,3604.34ZM674.295,3579.01L674.295,3583.46L679.857,3581.72C680.97,3585.19 682.082,3589.26 682.823,3592.97L682.823,3579.01L674.295,3579.01ZM751.543,3605.33L751.543,3622.14L770.206,3622.14L770.206,3680.73L753.149,3680.73L753.149,3677.02L734.734,3677.02L734.734,3681.22L718.543,3681.22L718.543,3669.97L708.408,3674.05C707.172,3668.49 703.711,3659.96 700.127,3653.66L710.385,3649.95C691.97,3650.82 673.06,3651.68 659.093,3652.18L658.599,3637.22C664.778,3637.1 672.194,3636.97 680.228,3636.85L680.228,3633.02L661.936,3633.02L661.936,3619.67L680.228,3619.67L680.228,3616.08L661.194,3616.08L661.194,3567.26L715.824,3567.26L715.824,3616.08L695.925,3616.08L695.925,3619.67L714.835,3619.67L714.835,3633.02L695.925,3633.02L695.925,3636.36C702.846,3636.23 710.015,3635.98 716.936,3635.74L716.565,3649.58L710.633,3649.95C713.723,3654.77 716.812,3661.07 718.543,3666.26L718.543,3622.14L734.116,3622.14L734.116,3564.05L751.543,3564.05L751.543,3588.77L774.161,3588.77L774.161,3605.33L751.543,3605.33ZM685.913,3653.53C687.273,3660.46 688.138,3669.36 688.138,3675.29L676.891,3676.65C677.138,3671.83 676.644,3665.03 675.902,3658.97C674.295,3667.25 671.947,3675.91 667.127,3681.34L655.632,3675.53C660.082,3670.22 663.048,3661.82 664.284,3653.91L675.655,3657.37L675.284,3654.77L685.913,3653.53Z" style="fill:rgb(255,199,0);fill-rule:nonzero;"/>
        </g>
        <g transform="matrix(4.16667,0,0,4.16667,-3145.18,-14938.8)">
            <path d="M827.198,3628.58L832.064,3628.58L832.064,3626.57L827.198,3626.57L827.198,3628.58ZM820.745,3590.6L838.623,3590.6L838.623,3587.96L820.745,3587.96L820.745,3590.6ZM819.37,3620.65L840.422,3620.65L840.422,3634.51L819.37,3634.51L819.37,3620.65ZM816.514,3636.83L842.961,3636.83L842.961,3618.32L816.514,3618.32L816.514,3636.83ZM804.982,3610.39L855.232,3610.39L855.232,3644.87L804.982,3644.87L804.982,3610.39ZM859.464,3600.12L859.464,3608.06L801.28,3608.06L801.28,3600.12L823.284,3600.12L823.284,3597.9L808.685,3597.9L808.685,3580.66L851.424,3580.66L851.424,3597.9L836.084,3597.9L836.084,3600.12L859.464,3600.12ZM861.792,3578.22L798.53,3578.22L798.53,3647.2L861.792,3647.2L861.792,3578.22ZM876.708,3565.74L876.708,3663.07L861.792,3663.07L861.792,3659.68L798.529,3659.68L798.529,3663.07L784.354,3663.07L784.354,3565.74L876.708,3565.74Z" style="fill:white;fill-rule:nonzero;"/>
        </g>
    </g>
</svg>
