<?xml version="1.0" encoding="UTF-8" standalone="no"?>
<!DOCTYPE svg PUBLIC "-//W3C//DTD SVG 1.1//EN" "http://www.w3.org/Graphics/SVG/1.1/DTD/svg11.dtd">
<svg width="100%" height="100%" viewBox="0 0 416 338" version="1.1" xmlns="http://www.w3.org/2000/svg" xmlns:xlink="http://www.w3.org/1999/xlink" xml:space="preserve" xmlns:serif="http://www.serif.com/" style="fill-rule:evenodd;clip-rule:evenodd;stroke-linejoin:round;stroke-miterlimit:2;">
    <g transform="matrix(1.04167,0,0,1.04167,-1512.11,-313.714)">
        <g transform="matrix(1,0,0,1,1471.61,384.86)">
            <path d="M0,136.52C10.79,146.036 24.439,152.297 39.232,154.394C42.948,154.919 46.741,155.186 50.501,155.186L50.504,155.186C64.832,155.186 78.572,151.415 90.24,144.279C109.114,132.75 123.183,113.999 134.456,97.176C144.028,82.896 152.421,67.436 160.537,52.485C164.262,45.624 168.112,38.529 172.053,31.588C173.977,28.194 176.052,24.917 178.06,21.749C181.035,17.051 183.847,12.614 186.124,7.93C190.451,-0.936 191.582,-7.784 189.588,-13.015C189.122,-14.241 188.554,-15.353 187.858,-16.394C187.499,-16.57 187.152,-16.775 186.824,-17.007C185.247,-18.124 183.206,-18.666 180.586,-18.666C175.173,-18.666 167.59,-16.137 160.3,-11.9C153.946,-8.199 147.388,-3.574 140.258,2.233C133.04,8.121 126.891,14.33 121.982,20.684C118.848,24.748 116.021,29.035 113.028,33.573C110.843,36.888 108.583,40.315 106.188,43.651C99.799,52.583 93.583,60.198 87.195,66.919C86.209,67.957 85.213,68.989 84.217,70.02C81.858,72.461 79.631,74.768 77.514,77.187C74.595,80.545 71.718,84.082 68.935,87.504C63.417,94.274 57.168,101.94 49.902,108.56C41.227,116.445 31.241,121.493 21.585,126.374C19.93,127.209 18.285,128.082 16.636,128.958C11.35,131.762 5.943,134.63 0,136.52M50.504,170.186L50.501,170.186C46.041,170.186 41.543,169.87 37.131,169.246C15.832,166.227 -3.53,155.955 -17.392,140.321C-19.948,137.43 -20.679,133.461 -19.306,129.958C-17.908,126.394 -14.623,123.939 -10.731,123.55C-3.854,122.847 2.685,119.379 9.605,115.708C11.347,114.784 13.082,113.863 14.823,112.985C23.985,108.353 32.644,103.976 39.808,97.465C46.244,91.601 51.866,84.704 57.303,78.034C60.156,74.525 63.112,70.889 66.21,67.327C68.586,64.612 71.048,62.063 73.429,59.598C74.395,58.598 75.361,57.597 76.32,56.587C82.227,50.374 88.008,43.285 93.996,34.914C96.224,31.811 98.304,28.656 100.506,25.315C103.518,20.749 106.632,16.026 110.108,11.519C115.718,4.255 122.672,-2.779 130.78,-9.394C138.526,-15.703 145.713,-20.762 152.756,-24.866C158.416,-28.155 169.548,-33.666 180.586,-33.666C185.843,-33.666 190.484,-32.424 194.405,-29.973C196.24,-29.261 197.88,-28.028 199.144,-26.386C201.01,-23.945 202.507,-21.247 203.607,-18.349C207.157,-9.038 205.851,1.709 199.609,14.499C196.969,19.93 193.798,24.936 190.73,29.776C188.732,32.931 186.846,35.91 185.101,38.989C181.228,45.81 177.411,52.841 173.72,59.641C165.439,74.894 156.877,90.667 146.916,105.527C134.738,123.702 119.409,144.04 98.063,157.078C84.042,165.652 67.594,170.186 50.504,170.186" style="fill:rgb(241,147,0);fill-rule:nonzero;"/>
        </g>
        <g transform="matrix(1,0,0,1,1471.62,377.787)">
            <path d="M0,143.672C4.899,147.969 10.45,151.659 16.42,154.571C21.704,152.445 26.619,148.843 31.781,145.06C33.354,143.906 34.922,142.758 36.501,141.649C44.529,136.019 52.825,130.2 58.992,122.696C64.554,115.936 69.313,107.978 73.512,100.957C76.034,96.718 78.329,92.886 80.782,89.07C82.743,86.037 84.815,83.161 86.819,80.379C87.632,79.251 88.445,78.121 89.251,76.984C93.362,71.158 97.313,64.742 101.251,57.48C96.547,63.633 91.906,69.107 87.182,74.075C86.189,75.121 85.183,76.163 84.177,77.205C81.829,79.637 79.612,81.934 77.506,84.344C74.478,87.818 71.399,91.61 68.927,94.657C63.405,101.431 57.159,109.096 49.89,115.718C41.238,123.593 31.24,128.647 21.571,133.533C19.93,134.362 18.296,135.23 16.657,136.099C11.365,138.907 5.951,141.779 0,143.672M16.021,170.152C14.987,170.152 13.956,169.939 12.996,169.516C1.342,164.38 -9.17,156.762 -17.402,147.486C-19.964,144.583 -20.691,140.613 -19.315,137.11C-17.918,133.549 -14.633,131.096 -10.744,130.707C-3.854,130 2.694,126.526 9.628,122.848C11.356,121.932 13.08,121.018 14.809,120.145C23.982,115.508 32.65,111.127 39.79,104.628C46.234,98.756 51.854,91.86 57.29,85.193C59.827,82.067 62.997,78.161 66.203,74.483C68.562,71.783 71.014,69.243 73.387,66.786C74.361,65.776 75.337,64.766 76.305,63.746C82.192,57.553 87.975,50.468 93.987,42.078C96.204,38.987 98.28,35.837 100.478,32.503C103.494,27.925 106.613,23.192 110.098,18.679C115.771,11.325 122.532,4.484 130.768,-2.235C138.521,-8.554 145.709,-13.616 152.744,-17.713C156.681,-19.994 164.529,-24.056 173.015,-25.72C176.871,-26.48 180.654,-24.128 181.691,-20.339C182.728,-16.55 180.665,-12.603 176.962,-11.29C170.896,-9.141 165.295,-5.098 162.495,-2.88C156.686,1.742 150.861,7.261 144.7,13.985C138.411,20.841 133.221,27.872 129.271,34.884C126.741,39.374 124.553,44.042 122.236,48.984C120.561,52.562 118.826,56.26 116.951,59.885C111.897,69.647 106.844,78.071 101.501,85.639C100.667,86.818 99.828,87.984 98.989,89.148C97.008,91.899 95.135,94.497 93.39,97.197C91.076,100.797 88.852,104.511 86.394,108.642C81.916,116.128 76.851,124.598 70.578,132.224C63.113,141.306 53.966,147.721 45.119,153.926C43.626,154.975 42.14,156.065 40.648,157.157C33.903,162.101 26.93,167.213 18.174,169.837C17.47,170.048 16.744,170.152 16.021,170.152" style="fill:rgb(241,147,0);fill-rule:nonzero;"/>
        </g>
        <g transform="matrix(1,0,0,1,1551.37,410.269)">
            <path d="M0,93.288C-10.568,93.288 -19.167,101.555 -19.167,111.715C-19.167,121.603 -11.009,129.697 -0.818,130.11C5.881,126.767 30.591,100.77 64.457,57.825C99.981,12.778 117.752,-15.493 119.667,-22.235C118.018,-25.934 108.948,-36.839 97.07,-36.839C83.166,-36.839 66.183,-26.408 66.183,-14.233C66.183,-11.748 66.58,-9.307 67.364,-6.979C68.186,-4.541 67.7,-1.852 66.077,0.145C64.454,2.142 61.922,3.165 59.367,2.863C58.392,2.746 57.428,2.687 56.501,2.687C44.189,2.687 34.173,12.324 34.173,24.171C34.173,28.707 35.63,33.048 38.387,36.724C40.316,39.297 40.391,42.813 38.571,45.466C36.753,48.118 33.442,49.315 30.35,48.441C28.37,47.883 26.332,47.6 24.293,47.6C12.528,47.6 2.957,56.809 2.957,68.129C2.957,72.884 4.602,77.351 7.712,81.05C9.665,83.372 10.026,86.642 8.627,89.335C7.229,92.027 4.341,93.615 1.322,93.349C0.853,93.308 0.42,93.288 0,93.288M0,145.127C-18.84,145.127 -34.167,130.139 -34.167,111.715C-34.167,96.698 -23.993,83.963 -10.036,79.759C-11.354,76.04 -12.043,72.107 -12.043,68.129C-12.043,49.882 2.097,34.804 20.226,32.82C19.528,30.017 19.173,27.119 19.173,24.171C19.173,5.795 33.145,-9.452 51.251,-11.953C51.205,-12.711 51.183,-13.471 51.183,-14.233C51.183,-35.757 75.409,-51.839 97.07,-51.839C117.712,-51.839 134.788,-32.422 134.788,-22.512C134.788,-19.783 134.788,-14.104 115.668,13.938C105.064,29.489 90.64,48.906 75.051,68.613C59.29,88.537 43.865,106.819 31.615,120.093C10.297,143.194 4.308,145.127 0,145.127" style="fill:rgb(241,147,0);fill-rule:nonzero;"/>
        </g>
        <g transform="matrix(1,0,0,1,1644.26,425.024)">
            <path d="M0,-43.593C-12.019,-43.593 -21.797,-33.817 -21.797,-21.8C-21.797,-9.78 -12.019,0 0,0C12.018,0 21.794,-9.78 21.794,-21.8C21.794,-33.817 12.018,-43.593 0,-43.593M0,15C-20.29,15 -36.797,-1.508 -36.797,-21.8C-36.797,-42.088 -20.29,-58.593 0,-58.593C20.288,-58.593 36.794,-42.088 36.794,-21.8C36.794,-1.508 20.288,15 0,15" style="fill:rgb(241,147,0);fill-rule:nonzero;"/>
        </g>
        <g transform="matrix(1,0,0,1,1640.98,419.562)">
            <path d="M0,-35.586C-9.809,-35.586 -17.789,-27.603 -17.789,-17.791C-17.789,-7.981 -9.809,0 0,0C9.811,0 17.792,-7.981 17.792,-17.791C17.792,-27.603 9.811,-35.586 0,-35.586M0,15C-18.08,15 -32.789,0.29 -32.789,-17.791C-32.789,-35.874 -18.08,-50.586 0,-50.586C18.082,-50.586 32.792,-35.874 32.792,-17.791C32.792,0.29 18.082,15 0,15" style="fill:rgb(241,147,0);fill-rule:nonzero;"/>
        </g>
        <g transform="matrix(1,0,0,1,1638.27,406.592)">
            <path d="M0,-18.743C-2.632,-18.743 -6.282,-16.819 -8.504,-12.52C-9.824,-9.959 -10.28,-7.081 -9.752,-4.633C-9.509,-3.506 -8.822,-1.473 -6.961,-0.516C-6.294,-0.172 -5.559,-0 -4.766,-0C-2.135,-0 1.51,-1.921 3.721,-6.213C5.051,-8.787 5.509,-11.662 4.982,-14.108C4.739,-15.235 4.053,-17.269 2.185,-18.233C1.528,-18.571 0.793,-18.743 0,-18.743M-4.766,15C-7.975,15 -11.023,14.266 -13.828,12.819C-19.188,10.063 -23.05,4.854 -24.414,-1.469C-25.682,-7.343 -24.766,-13.711 -21.834,-19.399C-17.33,-28.116 -8.761,-33.743 0,-33.743C3.208,-33.743 6.256,-33.01 9.061,-31.564C14.427,-28.795 18.283,-23.585 19.646,-17.268C20.912,-11.392 19.99,-5.023 17.051,0.665C12.566,9.37 4.001,15 -4.766,15" style="fill:rgb(241,147,0);fill-rule:nonzero;"/>
        </g>
        <g transform="matrix(1,0,0,1,1633.44,390.426)">
            <path d="M0,-5.128C0.06,-4.203 0.363,-3.306 0.896,-2.512C1.729,-1.268 3.044,-0.381 4.527,-0.054C4.578,-0.671 4.49,-1.449 4.098,-2.195C3.297,-3.754 1.694,-4.893 0,-5.128M-0.644,9.827C-4.311,9.827 -7.593,7.872 -9.21,4.726C-11.069,1.195 -10.861,-3.01 -8.605,-6.747C-5.734,-11.503 0.133,-14.955 5.345,-14.955C6.064,-14.955 6.776,-14.89 7.46,-14.763C9.862,-14.324 11.965,-12.938 13.354,-10.865C14.8,-8.709 15.319,-6.011 14.779,-3.462C13.816,1.055 10.365,3.148 8.892,4.042C8.852,4.067 8.812,4.091 8.771,4.115C8.736,4.158 8.7,4.202 8.664,4.247C6.998,6.305 4.716,9.123 1.037,9.693C0.535,9.777 -0.058,9.827 -0.644,9.827" style="fill:rgb(241,147,0);fill-rule:nonzero;"/>
        </g>
        <g transform="matrix(1,0,0,1,1628.01,389.553)">
            <path d="M0,21.322C-1.678,21.322 -3.319,20.89 -4.746,20.073C-7.565,18.499 -9.421,15.606 -9.768,12.175C-10.146,8.422 -8.675,4.623 -5.929,2.261C-4.263,0.812 -2.113,0 0.093,0C3.111,0 5.94,1.518 7.66,4.062C7.689,4.105 7.719,4.15 7.747,4.194C8.813,5.844 9.393,7.818 9.438,9.938C9.675,11.332 9.541,12.542 9.426,13.261C9.424,13.368 9.421,13.468 9.419,13.561C9.42,13.66 9.418,13.76 9.415,13.859L9.415,13.86C9.277,17.858 6.028,21.048 2.043,21.113C1.384,21.25 0.7,21.322 0,21.322" style="fill:rgb(241,147,0);fill-rule:nonzero;"/>
        </g>
        <g transform="matrix(1,0,0,1,1612.96,459.597)">
            <path d="M0,-39.954C-11.017,-39.954 -19.979,-30.991 -19.979,-19.972C-19.979,-8.959 -11.017,0 0,0C11.011,0 19.969,-8.959 19.969,-19.972C19.969,-30.991 11.011,-39.954 0,-39.954M0,15C-19.287,15 -34.979,-0.689 -34.979,-19.972C-34.979,-39.261 -19.287,-54.954 0,-54.954C19.282,-54.954 34.969,-39.261 34.969,-19.972C34.969,-0.689 19.282,15 0,15" style="fill:rgb(241,147,0);fill-rule:nonzero;"/>
        </g>
        <g transform="matrix(1,0,0,1,1609.89,454.483)">
            <path d="M0,-32.453C-8.947,-32.453 -16.227,-25.174 -16.227,-16.226C-16.227,-7.279 -8.947,0 0,0C8.939,0 16.213,-7.279 16.213,-16.226C16.213,-25.174 8.939,-32.453 0,-32.453M0,15C-17.219,15 -31.227,0.992 -31.227,-16.226C-31.227,-33.445 -17.219,-47.453 0,-47.453C17.211,-47.453 31.213,-33.445 31.213,-16.226C31.213,0.992 17.211,15 0,15" style="fill:rgb(241,147,0);fill-rule:nonzero;"/>
        </g>
        <g transform="matrix(1,0,0,1,1607.35,442.312)">
            <path d="M0,-16.646C-2.253,-16.646 -5.582,-14.897 -7.565,-11.055C-8.892,-8.488 -9.245,-5.583 -8.511,-3.288C-8.21,-2.347 -7.586,-1.088 -6.317,-0.435C-5.747,-0.14 -5.148,0 -4.474,0C-2.226,0 1.095,-1.746 3.071,-5.577C5.474,-10.231 4.339,-14.924 1.819,-16.226C1.272,-16.507 0.675,-16.646 0,-16.646M-4.474,15C-7.562,15 -10.498,14.291 -13.198,12.893C-17.737,10.556 -21.153,6.429 -22.799,1.279C-24.747,-4.816 -24.053,-11.821 -20.894,-17.938C-16.593,-26.266 -8.392,-31.646 0,-31.646C3.077,-31.646 6.003,-30.943 8.695,-29.557C18.987,-24.24 22.439,-10.399 16.401,1.301C12.108,9.623 3.914,15 -4.474,15" style="fill:rgb(241,147,0);fill-rule:nonzero;"/>
        </g>
        <g transform="matrix(1,0,0,1,1602.75,427.83)">
            <path d="M0,-3.277C0.137,-2.948 0.307,-2.63 0.51,-2.326C1.367,-1.043 2.73,-0.13 4.264,0.193C3.358,-1.497 1.813,-2.733 0,-3.277M8.878,3.153C8.87,3.168 8.67,3.524 8.304,4.079C8.477,3.862 8.688,3.553 8.878,3.153M-2.095,11.416L-2.098,11.416C-5.012,11.415 -7.649,9.812 -8.982,7.231C-10.956,3.488 -10.532,-1.299 -7.789,-5.847C-5.327,-9.928 -0.415,-14.693 5.326,-14.693C5.94,-14.693 6.553,-14.637 7.146,-14.527C9.557,-14.07 11.62,-12.698 12.982,-10.658C14.398,-8.538 14.911,-5.885 14.388,-3.379C13.424,1.064 10.095,3.091 8.673,3.957C8.528,4.045 8.381,4.129 8.244,4.225C8.216,4.247 8.188,4.269 8.163,4.289C6.629,6.556 2.767,11.416 -2.095,11.416" style="fill:rgb(241,147,0);fill-rule:nonzero;"/>
        </g>
        <g transform="matrix(1,0,0,1,1597.73,426.333)">
            <path d="M0,20.926C-1.638,20.926 -3.243,20.509 -4.642,19.72C-7.468,18.136 -9.292,15.286 -9.628,11.913C-9.993,8.246 -8.551,4.534 -5.863,2.226C-4.201,0.793 -2.088,0 0.079,0C3.052,0 5.843,1.49 7.544,3.987C8.307,5.133 8.833,6.396 9.111,8.839C9.576,10.503 9.441,11.99 9.326,12.806C9.326,12.978 9.324,13.118 9.32,13.218C9.314,13.426 9.3,13.634 9.275,13.841C8.903,17.104 6.472,19.682 3.369,20.334C2.321,20.719 1.185,20.926 0,20.926" style="fill:rgb(241,147,0);fill-rule:nonzero;"/>
        </g>
        <g transform="matrix(1,0,0,1,1583.29,500.366)">
            <path d="M0,-38.144C-10.512,-38.144 -19.064,-29.586 -19.064,-19.068C-19.064,-8.554 -10.512,0 0,0C10.519,0 19.076,-8.554 19.076,-19.068C19.076,-29.586 10.519,-38.144 0,-38.144M0,15C-18.783,15 -34.064,-0.283 -34.064,-19.068C-34.064,-37.858 -18.783,-53.144 0,-53.144C18.79,-53.144 34.076,-37.858 34.076,-19.068C34.076,-0.283 18.79,15 0,15" style="fill:rgb(241,147,0);fill-rule:nonzero;"/>
        </g>
        <g transform="matrix(1,0,0,1,1580.33,495.408)">
            <path d="M0,-30.871C-8.512,-30.871 -15.437,-23.944 -15.437,-15.431C-15.437,-6.922 -8.512,0 0,0C8.512,0 15.437,-6.922 15.437,-15.431C15.437,-23.944 8.512,-30.871 0,-30.871M0,15C-16.783,15 -30.437,1.349 -30.437,-15.431C-30.437,-32.216 -16.783,-45.871 0,-45.871C16.783,-45.871 30.437,-32.216 30.437,-15.431C30.437,1.349 16.783,15 0,15" style="fill:rgb(241,147,0);fill-rule:nonzero;"/>
        </g>
        <g transform="matrix(1,0,0,1,1577.87,483.648)">
            <path d="M0,-15.596C-2.104,-15.596 -5.222,-13.949 -7.092,-10.331C-8.344,-7.901 -8.681,-5.157 -7.988,-2.995C-7.712,-2.134 -7.142,-0.984 -5.992,-0.394C-5.475,-0.126 -4.934,0 -4.322,0C-2.22,0 0.893,-1.646 2.756,-5.26C4.013,-7.696 4.35,-10.441 3.657,-12.604C3.382,-13.466 2.813,-14.617 1.668,-15.206C1.157,-15.47 0.614,-15.596 0,-15.596M-4.322,15C-7.346,15 -10.219,14.307 -12.862,12.941C-17.31,10.657 -20.658,6.62 -22.272,1.583C-24.182,-4.374 -23.507,-11.225 -20.42,-17.211C-16.216,-25.345 -8.202,-30.596 0,-30.596C3.021,-30.596 5.895,-29.905 8.538,-28.54C12.99,-26.25 16.333,-22.212 17.944,-17.174C19.851,-11.214 19.174,-4.366 16.087,1.617C11.894,9.746 3.883,15 -4.322,15" style="fill:rgb(241,147,0);fill-rule:nonzero;"/>
        </g>
        <g transform="matrix(1,0,0,1,1573.06,470.251)">
            <path d="M0,-3.788C0.155,-3.33 0.373,-2.888 0.65,-2.472C1.548,-1.128 2.988,-0.187 4.601,0.108C4.691,0.125 4.785,0.139 4.879,0.151C4.841,0.067 4.8,-0.017 4.754,-0.103C3.781,-1.978 2.034,-3.311 0,-3.788M9.101,2.911C9.011,3.067 8.848,3.345 8.615,3.705C8.768,3.509 8.944,3.246 9.108,2.915L9.101,2.911ZM-1.669,11.02L-1.671,11.02C-4.571,11.019 -7.201,9.423 -8.534,6.855C-10.496,3.142 -10.079,-1.601 -7.362,-6.109C-4.944,-10.122 -0.119,-14.808 5.522,-14.808C6.129,-14.808 6.734,-14.753 7.321,-14.643C9.693,-14.209 11.761,-12.844 13.124,-10.803C14.539,-8.684 15.041,-6.035 14.503,-3.533C13.577,0.821 10.28,2.824 8.872,3.68C8.748,3.756 8.621,3.828 8.502,3.908C8.488,3.919 8.476,3.93 8.463,3.94C6.956,6.217 3.196,11.02 -1.669,11.02" style="fill:rgb(241,147,0);fill-rule:nonzero;"/>
        </g>
        <g transform="matrix(1,0,0,1,1570.32,468.207)">
            <path d="M0,20.793C-0.204,20.793 -0.41,20.785 -0.617,20.769C-0.81,20.752 -1,20.73 -1.188,20.699C-2.986,20.803 -4.828,20.386 -6.382,19.5C-9.154,17.951 -10.97,15.124 -11.303,11.775C-11.664,8.149 -10.233,4.481 -7.569,2.199C-5.948,0.788 -3.836,-0.01 -1.666,-0.01C1.312,-0.01 4.095,1.488 5.779,3.996C6.876,5.629 7.471,7.588 7.516,9.694C7.709,10.922 7.613,11.996 7.506,12.705C7.5,13.586 7.483,13.965 7.394,14.509C6.795,18.158 3.638,20.793 0,20.793" style="fill:rgb(241,147,0);fill-rule:nonzero;"/>
        </g>
        <g transform="matrix(1,0,0,1,1560.92,539.67)">
            <path d="M0,-34.132C-9.412,-34.132 -17.07,-26.477 -17.07,-17.067C-17.07,-7.656 -9.412,0 0,0C9.409,0 17.064,-7.656 17.064,-17.067C17.064,-26.477 9.409,-34.132 0,-34.132M0,15C-17.684,15 -32.07,0.615 -32.07,-17.067C-32.07,-34.747 -17.684,-49.132 0,-49.132C17.681,-49.132 32.064,-34.747 32.064,-17.067C32.064,0.615 17.681,15 0,15" style="fill:rgb(241,147,0);fill-rule:nonzero;"/>
        </g>
        <g transform="matrix(1,0,0,1,1558.17,535.098)">
            <path d="M0,-27.424C-7.56,-27.424 -13.709,-21.273 -13.709,-13.711C-13.709,-6.151 -7.56,0 0,0C7.562,0 13.713,-6.151 13.713,-13.711C13.713,-21.273 7.562,-27.424 0,-27.424M0,15C-15.83,15 -28.709,2.12 -28.709,-13.711C-28.709,-29.543 -15.83,-42.424 0,-42.424C15.832,-42.424 28.713,-29.543 28.713,-13.711C28.713,2.12 15.832,15 0,15" style="fill:rgb(241,147,0);fill-rule:nonzero;"/>
        </g>
        <g transform="matrix(1,0,0,1,1555.9,524.217)">
            <path d="M0,-13.294C-1.782,-13.294 -4.437,-11.865 -6.058,-8.731C-7.036,-6.832 -7.379,-4.716 -6.994,-2.934C-6.835,-2.197 -6.4,-0.876 -5.277,-0.298C-4.886,-0.095 -4.471,-0 -3.998,-0C-2.219,-0 0.43,-1.427 2.042,-4.561C3.919,-8.199 3.184,-12.017 1.275,-13.002C0.896,-13.197 0.478,-13.294 0,-13.294M-3.998,15C-6.884,15 -9.628,14.339 -12.152,13.034C-16.966,10.558 -20.435,5.889 -21.656,0.232C-22.778,-4.966 -21.973,-10.592 -19.388,-15.608C-15.403,-23.318 -7.795,-28.294 0,-28.294C2.883,-28.294 5.625,-27.635 8.15,-26.334C17.732,-21.385 20.971,-8.537 15.377,2.309C11.411,10.016 3.805,15 -3.998,15" style="fill:rgb(241,147,0);fill-rule:nonzero;"/>
        </g>
        <g transform="matrix(1,0,0,1,1550.7,513.072)">
            <path d="M0,-6.709C-0.232,-5.269 0.08,-3.844 0.888,-2.64C1.804,-1.276 3.27,-0.323 4.909,-0.025C5.219,0.031 5.593,0.05 5.854,0.035C5.909,-0.089 5.961,-0.234 6.006,-0.398L4.321,-2.525L6.025,-0.473C6.227,-1.266 6.257,-2.438 5.647,-3.599C4.66,-5.482 2.641,-6.751 0.625,-6.751C0.416,-6.751 0.206,-6.737 0,-6.709M0.625,8.249C-2.946,8.249 -6.034,6.425 -7.636,3.369C-9.418,-0.027 -9.228,-3.984 -7.11,-7.485C-4.493,-11.815 0.867,-14.958 5.635,-14.958C6.308,-14.958 6.974,-14.897 7.614,-14.779C9.949,-14.355 11.993,-13.011 13.343,-10.999C14.74,-8.918 15.242,-6.313 14.721,-3.853C13.81,0.351 10.742,2.297 9.32,3.159C7.878,4.949 5.711,7.58 2.208,8.127C1.642,8.211 1.13,8.249 0.625,8.249" style="fill:rgb(241,147,0);fill-rule:nonzero;"/>
        </g>
        <g transform="matrix(1,0,0,1,1551.47,520.164)">
            <path d="M0,-0.328L1.338,-0.328C1.326,-0.416 1.312,-0.503 1.296,-0.59L0,-0.328ZM-1.825,0.041L1.369,0.041C1.366,-0.036 1.36,-0.114 1.353,-0.193C1.353,-0.198 1.352,-0.202 1.352,-0.207L-0.339,-0.26L-1.825,0.041ZM-9.983,0.19C-9.889,0.701 -9.692,1.236 -9.411,1.736L-3.043,0.19L-9.983,0.19ZM-4.766,9.91C-6.151,9.91 -7.519,9.552 -8.719,8.874C-11.468,7.341 -13.25,4.567 -13.574,1.282C-13.925,-2.258 -12.519,-5.842 -9.905,-8.07C-8.316,-9.452 -6.233,-10.238 -4.095,-10.238C-1.148,-10.238 1.596,-8.758 3.258,-6.273C4.414,-4.556 4.999,-2.466 4.952,-0.218C4.951,-0.185 4.951,-0.152 4.95,-0.119C5.005,1.416 4.601,3.266 3.188,5.28C1.975,7.01 -0.671,9.91 -4.766,9.91" style="fill:rgb(241,147,0);fill-rule:nonzero;"/>
        </g>
        <g transform="matrix(1,0,0,1,1546.35,577.158)">
            <path d="M0,-28.314C-7.802,-28.314 -14.149,-21.965 -14.149,-14.162C-14.149,-6.353 -7.802,0 0,0C7.805,0 14.154,-6.353 14.154,-14.162C14.154,-21.965 7.805,-28.314 0,-28.314M0,15C-16.073,15 -29.149,1.918 -29.149,-14.162C-29.149,-30.236 -16.073,-43.314 0,-43.314C16.076,-43.314 29.154,-30.236 29.154,-14.162C29.154,1.918 16.076,15 0,15" style="fill:rgb(241,147,0);fill-rule:nonzero;"/>
        </g>
        <g transform="matrix(1,0,0,1,1543.93,573.121)">
            <path d="M0,-22.398C-6.173,-22.398 -11.195,-17.375 -11.195,-11.201C-11.195,-5.024 -6.173,-0 0,-0C6.173,-0 11.195,-5.024 11.195,-11.201C11.195,-17.375 6.173,-22.398 0,-22.398M0,15C-14.444,15 -26.195,3.247 -26.195,-11.201C-26.195,-25.646 -14.444,-37.398 0,-37.398C14.444,-37.398 26.195,-25.646 26.195,-11.201C26.195,3.247 14.444,15 0,15" style="fill:rgb(241,147,0);fill-rule:nonzero;"/>
        </g>
        <g transform="matrix(1,0,0,1,1541.93,563.529)">
            <path d="M0,-9.937C-1.349,-9.937 -3.341,-8.721 -4.54,-6.397C-5.396,-4.735 -5.637,-2.895 -5.183,-1.478C-5.038,-1.026 -4.758,-0.432 -4.245,-0.168C-4.096,-0.091 -3.879,-0 -3.517,-0C-2.166,-0 -0.173,-1.215 1.026,-3.536C1.794,-5.03 2.068,-6.683 1.771,-8.059C1.665,-8.553 1.388,-9.431 0.732,-9.768C0.582,-9.846 0.364,-9.937 0,-9.937M-3.517,15C-6.206,15 -8.764,14.381 -11.118,13.165C-15.066,11.135 -18.038,7.558 -19.467,3.1C-21.134,-2.102 -20.553,-8.07 -17.872,-13.272C-14.216,-20.359 -7.201,-24.937 0,-24.937C2.691,-24.937 5.25,-24.319 7.605,-23.101C12.077,-20.803 15.301,-16.471 16.434,-11.224C17.465,-6.444 16.729,-1.273 14.36,3.335C10.696,10.426 3.683,15 -3.517,15" style="fill:rgb(241,147,0);fill-rule:nonzero;"/>
        </g>
        <g transform="matrix(1,0,0,1,1536.84,554.747)">
            <path d="M0,-7.467C-0.13,-7.165 -0.239,-6.834 -0.316,-6.476C-0.652,-4.988 -0.358,-3.374 0.533,-2.021C1.463,-0.607 2.96,0.385 4.64,0.699C5.298,0.823 5.968,0.763 6.231,0.694C6.702,0.078 7.291,-1.839 6.275,-3.757C4.957,-6.315 2.35,-7.49 0.367,-7.49C0.349,-7.49 0.33,-7.49 0.312,-7.489L4.325,-2.363L0.159,-7.483C0.105,-7.479 0.053,-7.474 0,-7.467M0.367,7.51L0.366,7.51C-2.862,7.51 -5.623,5.894 -7.019,3.189C-8.718,-0.021 -8.55,-3.831 -6.522,-7.197C-3.678,-11.923 2.39,-14.977 7.395,-14.046C9.736,-13.608 11.748,-12.265 13.064,-10.264C14.414,-8.212 14.877,-5.658 14.334,-3.257C13.472,0.782 10.334,2.699 9.152,3.421C9.145,3.426 9.136,3.43 9.127,3.436C6.801,6.617 2.516,7.51 0.367,7.51" style="fill:rgb(241,147,0);fill-rule:nonzero;"/>
        </g>
        <g transform="matrix(1,0,0,1,1536.43,560.653)">
            <path d="M0,0.24L3.703,0.24C3.7,0.136 3.693,0.03 3.682,-0.078C3.67,-0.198 3.653,-0.319 3.632,-0.439L0,0.24ZM-8.052,0.631C-7.94,1.18 -7.72,1.744 -7.407,2.271L-1.012,0.363L-8.038,0.363C-8.046,0.448 -8.05,0.538 -8.052,0.631M-2.082,9.956C-3.662,9.956 -5.208,9.548 -6.555,8.776C-9.19,7.295 -10.919,4.61 -11.241,1.44C-11.586,-1.948 -10.252,-5.394 -7.761,-7.556C-6.119,-8.96 -4.094,-9.716 -2.018,-9.716C0.87,-9.716 3.571,-8.264 5.208,-5.832C6.224,-4.341 6.794,-2.518 6.857,-0.549C7.004,0.474 6.972,1.566 6.762,2.719C6.011,6.903 2.29,9.956 -2.082,9.956" style="fill:rgb(241,147,0);fill-rule:nonzero;"/>
        </g>
        <g transform="matrix(1,0,0,1,1670.29,603.241)">
            <path d="M0,-226.975C-2.861,-211.533 -9.911,-198.599 -16.047,-189.716C-21.749,-181.46 -27.021,-172.547 -32.121,-163.927C-37.166,-155.397 -42.383,-146.579 -48.159,-138.111C-52.517,-131.723 -57.006,-125.459 -61.347,-119.402C-69.151,-108.514 -76.522,-98.228 -83.363,-87.06C-84.817,-84.684 -86.315,-82.312 -87.817,-79.933C-96.145,-66.747 -104.01,-54.293 -105.608,-39.792C-106.907,-28.09 -105.807,-20.255 -102.244,-15.837C-100.592,-13.786 -99.136,-11.874 -97.866,-10.002C-90.834,-24.895 -81.357,-38.455 -72.096,-51.707C-63.644,-63.801 -54.903,-76.307 -48.479,-89.331C-39.872,-106.763 -27.9,-122.644 -16.323,-138.003C-15.206,-139.485 -14.092,-140.963 -12.985,-142.436L-11.5,-144.413C-0.339,-159.248 9.3,-172.06 10.137,-189.765C10.721,-202.306 8.132,-217.16 0,-226.975M-98.664,21.543C-98.988,21.543 -99.314,21.522 -99.643,21.479C-103.416,20.985 -106.223,17.744 -106.17,13.939C-106.041,4.623 -107.612,1.409 -113.923,-6.425C-122.18,-16.665 -121.642,-31.313 -120.518,-41.441C-118.54,-59.376 -109.369,-73.898 -100.5,-87.942C-99.035,-90.263 -97.574,-92.576 -96.155,-94.893C-89.031,-106.525 -81.155,-117.514 -73.539,-128.141C-69.248,-134.128 -64.811,-140.318 -60.551,-146.564C-55.047,-154.632 -49.955,-163.239 -45.031,-171.563C-39.8,-180.406 -34.391,-189.551 -28.389,-198.241C-21.684,-207.947 -13.691,-223.247 -13.691,-241.018C-13.691,-245.161 -10.334,-248.518 -6.191,-248.518L-5.641,-248.518C-4.445,-248.518 -3.269,-248.233 -2.206,-247.686C16.175,-238.217 26.39,-216.301 25.12,-189.061C24.064,-166.736 12.078,-150.804 0.487,-135.395L-0.99,-133.431C-2.103,-131.948 -3.223,-130.463 -4.346,-128.974C-15.506,-114.168 -27.046,-98.859 -35.028,-82.692C-41.956,-68.648 -51.027,-55.668 -59.801,-43.114C-73.273,-23.837 -85.999,-5.628 -91.396,15.868C-92.243,19.238 -95.271,21.543 -98.664,21.543" style="fill:rgb(241,147,0);fill-rule:nonzero;"/>
        </g>
        <g transform="matrix(1,0,0,1,1615.94,456.311)">
            <path d="M0,68.215C-14.573,85.331 -27.508,102.127 -34.107,119.493C-28.991,111.149 -23.388,103.133 -17.859,95.225C-11.727,86.452 -5.442,77.461 0,68.215M-44.438,168.474C-45.065,168.474 -45.704,168.394 -46.34,168.228C-50.304,167.192 -52.699,163.168 -51.729,159.194C-51.599,157.815 -52.328,153.524 -53.284,150.075C-53.415,149.603 -53.501,149.114 -53.537,148.626C-56.429,110.058 -27.853,77.255 -0.218,45.531C28.152,12.965 57.488,-20.711 54.448,-60.737C53.813,-69.054 50.695,-80.987 45.969,-87.696C43.888,-90.648 44.208,-94.665 46.729,-97.251C49.251,-99.838 53.257,-100.259 56.264,-98.254C71.887,-87.826 80.518,-66.844 79.349,-42.127C78.303,-19.816 66.319,-3.889 54.73,11.515L53.237,13.5C52.115,14.994 50.985,16.494 49.852,17.998C38.705,32.789 27.18,48.084 19.217,64.234C12.285,78.282 3.211,91.265 -5.565,103.819C-19,123.037 -31.69,141.192 -37.119,162.603C-37.146,162.717 -37.175,162.829 -37.205,162.94C-38.111,166.275 -41.134,168.474 -44.438,168.474" style="fill:rgb(241,147,0);fill-rule:nonzero;"/>
        </g>
        <g transform="matrix(1,0,0,1,1563.32,354.723)">
            <path d="M0,246.281C-2.191,246.281 -4.36,245.325 -5.839,243.494L-6.968,242.08C-15.213,231.853 -14.675,217.205 -13.551,207.077C-11.573,189.142 -2.402,174.62 6.467,160.576C7.932,158.256 9.393,155.942 10.812,153.625C17.938,141.994 25.812,131.009 33.425,120.384C37.717,114.395 42.155,108.202 46.416,101.954C51.92,93.886 57.012,85.279 61.936,76.955C67.167,68.112 72.576,58.968 78.578,50.278C85.283,40.571 93.275,25.271 93.275,7.5C93.275,3.358 96.633,0 100.775,0L101.332,0C102.525,0 103.702,0.284 104.763,0.831C110.998,4.038 116.338,8.691 120.635,14.66C122.991,17.934 122.337,22.485 119.153,24.962C115.993,27.42 111.461,26.961 108.858,23.928C106.002,39.383 98.947,52.336 92.808,61.232C87.102,69.494 81.827,78.408 76.726,87.029C71.682,95.553 66.466,104.369 60.691,112.834C56.318,119.25 51.813,125.538 47.454,131.62C39.669,142.484 32.315,152.746 25.487,163.889C24.027,166.278 22.519,168.668 21.006,171.066C12.692,184.239 4.84,196.682 3.242,211.157C2.009,222.322 2.954,229.947 6.131,234.468C8.457,237.777 7.74,242.335 4.511,244.769C3.16,245.788 1.574,246.281 0,246.281" style="fill:rgb(241,147,0);fill-rule:nonzero;"/>
        </g>
        <g transform="matrix(1,0,0,1,1679.19,332.651)">
            <path d="M0,38.037C0.036,38.08 0.072,38.124 0.107,38.167C2.083,40.563 3.789,42.632 5.71,43.424C7.039,43.974 8.608,44.363 10.222,44.556C9.896,43.715 9.631,42.918 9.394,42.206L9.3,41.926C8.619,39.882 7.933,37.994 6.981,37.258C6.834,37.144 6.321,36.75 5.067,36.75C4.373,36.75 3.597,36.867 2.76,37.098C2.194,37.252 1.463,37.514 0.688,37.791C0.465,37.872 0.234,37.954 0,38.037M-14.949,37.258C-15.159,37.604 -15.399,37.935 -15.668,38.247C-15.93,38.552 -16.582,39.509 -16.979,41.795C-17.195,43.065 -17.274,44.615 -17.357,46.257C-17.362,46.337 -17.366,46.418 -17.37,46.499C-16.61,46.035 -16.087,45.555 -15.81,44.996C-15.303,43.975 -15.03,42.44 -15.08,40.887C-15.116,39.764 -14.9,38.676 -14.476,37.689C-14.64,37.552 -14.798,37.408 -14.949,37.258M-23.241,64.439C-26.635,64.439 -29.813,62.819 -31.744,60.105C-33.617,57.473 -34.074,54.183 -32.998,51.08C-32.557,49.797 -32.446,47.611 -32.339,45.495C-32.241,43.582 -32.131,41.413 -31.761,39.249C-31.75,39.188 -31.739,39.127 -31.729,39.067C-34.02,38.652 -36.356,38.154 -38.732,37.415C-47.859,34.569 -53.478,28.139 -58.19,21.614C-60.218,18.783 -60.468,15.098 -58.861,11.973C-57.19,8.721 -53.81,6.62 -50.248,6.62C-49.099,6.62 -47.975,6.832 -46.907,7.252C-43.971,8.411 -40.65,9.041 -37.136,9.708C-34.85,10.142 -32.485,10.591 -30.08,11.211C-27.733,11.819 -25.533,12.599 -23.483,13.546C-22.979,11.826 -22.352,10.054 -21.587,8.177C-17.635,-1.578 -10.154,-14.695 3.015,-21.725C9.418,-25.164 16.521,-26.402 22.903,-25.156C28.716,-24.012 32.918,-20.137 33.882,-15.041C34.771,-10.274 32.495,-6.721 31.271,-4.813C31.053,-4.471 30.753,-4.004 30.671,-3.827C29.112,-0.242 25.684,2.081 21.942,2.081C20.809,2.081 19.703,1.869 18.65,1.451C17.737,1.674 15.804,2.876 14.731,3.542L14.118,3.922C11.605,5.476 9.411,7.651 7.422,10.562C4.646,14.639 2.47,18.485 0.874,22.15C6.595,21.078 12.035,22.223 16.145,25.382C20.802,28.987 22.509,34.116 23.529,37.18L23.624,37.465C23.94,38.415 24.413,39.833 24.741,40.277C27.853,42.33 29.539,45.874 29.132,49.544C28.708,53.36 26.072,56.691 22.416,58.033C19.437,59.133 16.097,59.693 12.504,59.693C8.182,59.693 3.735,58.839 -0.016,57.288C-1.646,56.616 -3.091,55.773 -4.389,54.833C-7.828,59.138 -12.689,61.034 -16.419,62.489C-17.355,62.854 -18.24,63.199 -19.025,63.548C-20.364,64.141 -21.779,64.439 -23.241,64.439" style="fill:rgb(241,147,0);fill-rule:nonzero;"/>
        </g>
        <g transform="matrix(1,0,0,1,1671.11,309.478)">
            <path d="M0,39.024L-0.001,39.024C-2.955,39.024 -5.816,37.679 -7.656,35.426C-9.414,33.274 -10.104,30.481 -9.551,27.763C-8.82,24.18 -6.722,21.204 -5.19,19.031L-4.785,18.454C-2.646,15.389 -0.268,12.614 2.29,10.202C5.543,7.125 9.201,4.632 13.157,2.801C15.687,1.635 18.235,0.818 20.744,0.366C21.813,0.175 22.976,0 24.294,0C28.52,0 31.099,1.864 32.519,3.429C34.875,6.037 35.285,9.815 33.574,12.896C31.4,16.874 27.347,18.032 25.391,18.591C25.169,18.654 24.954,18.713 24.758,18.778C23.387,19.239 22.092,19.77 20.917,20.354C18.938,21.341 17.006,22.766 15.183,24.582C13.829,25.924 12.512,27.598 11.023,29.865C10.834,30.155 10.571,30.634 10.294,31.142C9.393,32.793 8.271,34.846 6.353,36.594C4.639,38.159 2.38,39.024 0,39.024" style="fill:rgb(241,147,0);fill-rule:nonzero;"/>
        </g>
        <g transform="matrix(1,0,0,1,1662.28,347.405)">
            <path d="M0,-2.624C0.09,-2.122 0.279,-1.488 0.666,-0.797C1.779,1.174 3.887,2.387 6.179,2.387C7.143,2.387 8.106,2.168 8.969,1.754C9.623,1.438 10.104,1.067 10.442,0.74C10.443,0.512 10.431,0.258 10.396,-0.017L6.975,-0.994L10.385,-0.103C10.361,-0.269 10.33,-0.442 10.289,-0.622C9.694,-3.207 7.412,-5.011 4.738,-5.011L4.737,-5.011C3.278,-5.011 1.883,-4.481 0.809,-3.519C0.468,-3.214 0.203,-2.906 0,-2.624M4.737,9.989L4.736,9.989C0.448,9.988 -3.365,6.937 -4.331,2.733C-5.04,-0.361 -3.922,-2.976 -3.32,-4.381C-3.272,-4.493 -3.226,-4.598 -3.188,-4.695C-2.688,-6.087 -1.297,-9.962 2.471,-11.765C3.624,-12.32 4.905,-12.613 6.179,-12.613C9.289,-12.613 12.186,-10.904 13.739,-8.152C15.734,-4.594 14.711,-0.777 14.219,0.952C14.197,1.042 14.178,1.14 14.155,1.241C13.834,2.727 13.234,5.493 10.811,7.66C9.136,9.16 6.977,9.989 4.737,9.989" style="fill:rgb(241,147,0);fill-rule:nonzero;"/>
        </g>
        <g transform="matrix(1,0,0,1,1655.24,357.403)">
            <path d="M0,37.951L-0.001,37.951C-2.953,37.951 -5.733,36.55 -7.437,34.202C-9.141,31.857 -9.591,28.894 -8.672,26.071C-8.448,25.387 -8.219,24.739 -7.992,24.101C-7.411,22.465 -6.991,21.283 -6.924,20.131C-6.893,19.575 -6.898,18.993 -6.9,18.409C-6.906,16.314 -6.913,13.706 -5.957,10.894C-3.65,4.077 1.369,0 7.467,0C10.292,0 14.093,0.983 16.283,3.742C18.466,6.435 19.07,9.97 18.03,14.189C17.237,17.479 15.853,20.538 14.631,23.238L14.205,24.179C12.573,27.766 10.13,33.134 5.147,36.41C3.612,37.418 1.833,37.951 0,37.951" style="fill:rgb(241,147,0);fill-rule:nonzero;"/>
        </g>
        <g transform="matrix(1,0,0,1,1658.46,340.088)">
            <path d="M0,30.085C-6.959,30.085 -12.827,27.564 -18.005,25.341C-18.571,25.097 -19.139,24.854 -19.706,24.614C-20.289,24.369 -20.925,24.121 -21.58,23.865C-26.295,22.022 -33.42,19.237 -36.238,12.107C-37.312,9.361 -36.942,6.271 -35.263,3.811C-33.633,1.425 -30.97,0 -28.14,0C-27.026,0 -25.934,0.215 -24.892,0.641C-22.541,1.61 -19.699,2.045 -16.69,2.506C-14.194,2.888 -11.614,3.284 -8.937,4.011C-1.771,5.946 4.303,10.234 8.618,16.409C10.451,19.015 10.685,22.407 9.212,25.242C7.942,27.687 5.628,29.338 2.984,29.757C2.298,29.946 1.584,30.053 0.854,30.072C0.585,30.081 0.292,30.085 0,30.085" style="fill:rgb(241,147,0);fill-rule:nonzero;"/>
        </g>
        <g transform="matrix(1,0,0,1,1699.14,355.382)">
            <path d="M0,34.429C-2.932,34.429 -5.376,33.171 -13.749,28.214C-15.598,27.119 -17.344,26.085 -18.353,25.557C-19.389,25.012 -20.57,24.502 -21.821,23.963C-25.481,22.384 -30.037,20.42 -33.555,16.287C-35.695,13.762 -36.185,10.401 -34.842,7.503C-33.083,3.706 -29.245,2.618 -27.144,2.306C-25.86,1.971 -23.003,1.245 -21.785,0.972C-19.843,0.531 -16.926,0 -14.167,0C-11.715,0 -9.666,0.404 -7.904,1.234C0.135,5.03 2.379,11.957 3.864,16.54C4.518,18.555 5.082,20.295 5.9,21.414C8.736,25.274 7.781,28.577 6.959,30.202C5.64,32.809 2.973,34.429 0,34.429" style="fill:rgb(241,147,0);fill-rule:nonzero;"/>
        </g>
        <g transform="matrix(1,0,0,1,1701.15,522.113)">
            <path d="M0,-38.908C-5.372,-38.908 -10.584,-36.696 -14.3,-32.841C-17.764,-29.247 -19.573,-24.613 -19.395,-19.795C-18.942,-7.402 -10.344,0 -2.292,0C-1.81,0 -1.329,-0.027 -0.861,-0.081C9.607,-1.289 19.93,-8.229 19.405,-19.158C18.784,-31.705 11.711,-38.908 0,-38.908M-2.292,15C-17.453,15 -33.603,2.192 -34.385,-19.244C-34.715,-28.168 -31.418,-36.695 -25.101,-43.25C-18.573,-50.023 -9.424,-53.908 0,-53.908C19.562,-53.908 33.381,-40.236 34.388,-19.887C35.24,-2.112 21.14,12.481 0.859,14.82C-0.176,14.94 -1.236,15 -2.292,15" style="fill:rgb(241,147,0);fill-rule:nonzero;"/>
        </g>
        <g transform="matrix(1,0,0,1,1698.14,516.965)">
            <path d="M0,-31.424C-8.666,-31.424 -15.716,-24.373 -15.716,-15.707C-15.716,-7.046 -8.666,0 0,0C8.67,0 15.724,-7.046 15.724,-15.707C15.724,-24.373 8.67,-31.424 0,-31.424M0,15C-16.937,15 -30.716,1.224 -30.716,-15.707C-30.716,-32.645 -16.937,-46.424 0,-46.424C16.941,-46.424 30.724,-32.645 30.724,-15.707C30.724,1.224 16.941,15 0,15" style="fill:rgb(241,147,0);fill-rule:nonzero;"/>
        </g>
        <g transform="matrix(1,0,0,1,1695.66,505.065)">
            <path d="M0,-15.972C-2.161,-15.972 -5.354,-14.289 -7.255,-10.597C-8.409,-8.361 -8.81,-5.873 -8.354,-3.768C-8.155,-2.841 -7.598,-1.173 -6.108,-0.408C-5.574,-0.13 -5.014,0 -4.38,0C-2.228,0 0.958,-1.682 2.865,-5.375C5.168,-9.843 4.104,-14.341 1.709,-15.58C1.202,-15.841 0.638,-15.972 0,-15.972M-4.38,15C-7.428,15 -10.324,14.301 -12.988,12.923C-18.066,10.308 -21.728,5.376 -23.018,-0.604C-24.21,-6.132 -23.348,-12.121 -20.588,-17.47C-16.364,-25.67 -8.282,-30.972 0,-30.972C3.038,-30.972 5.926,-30.279 8.585,-28.911C18.729,-23.663 22.137,-10.024 16.196,1.503C11.961,9.704 3.885,15 -4.38,15" style="fill:rgb(241,147,0);fill-rule:nonzero;"/>
        </g>
        <g transform="matrix(1,0,0,1,1690.6,491.496)">
            <path d="M0,-6.021C-0.075,-4.833 0.241,-3.649 0.924,-2.628C1.821,-1.286 3.263,-0.349 4.877,-0.058C4.986,-0.038 5.126,-0.019 5.277,-0.009C5.471,-0.739 5.495,-1.869 4.92,-2.961C3.936,-4.823 2.019,-6.021 0.03,-6.021L0,-6.021ZM0.03,8.979C-3.581,8.979 -6.712,7.132 -8.347,4.039C-10.192,0.536 -9.996,-3.543 -7.812,-7.163C-5.072,-11.704 0.536,-15 5.523,-15C6.227,-15 6.923,-14.937 7.592,-14.811C9.939,-14.388 12.021,-13.019 13.394,-10.966C14.816,-8.837 15.32,-6.177 14.775,-3.669C13.839,0.685 10.532,2.701 9.121,3.561C9.113,3.565 9.105,3.57 9.099,3.575C9.089,3.585 9.08,3.597 9.07,3.609C7.469,5.589 5.274,8.302 1.636,8.854C1.169,8.932 0.596,8.979 0.03,8.979" style="fill:rgb(241,147,0);fill-rule:nonzero;"/>
        </g>
        <g transform="matrix(1,0,0,1,1686.24,489.426)">
            <path d="M0,20.798C-1.647,20.798 -3.259,20.374 -4.659,19.573C-7.429,18.019 -9.241,15.193 -9.579,11.848C-9.945,8.217 -8.52,4.532 -5.857,2.233C-4.162,0.783 -2.063,0 0.084,0C3.058,0 5.83,1.489 7.521,3.989C8.635,5.622 9.236,7.578 9.28,9.691C9.494,11.006 9.373,12.139 9.269,12.814C9.262,13.383 9.245,13.725 9.186,14.152C8.67,17.813 5.576,20.514 1.949,20.603C1.318,20.732 0.666,20.798 0,20.798" style="fill:rgb(241,147,0);fill-rule:nonzero;"/>
        </g>
        <g transform="matrix(1,0,0,1,1549.21,354.303)">
            <path d="M0,-38.138L-0.218,-38.138C-10.77,-38.053 -19.353,-29.5 -19.353,-19.071C-19.353,-8.649 -10.767,-0.094 -0.214,-0.001L0.023,0C17.433,0 18.786,-14.597 18.786,-19.071C18.786,-27.867 13.866,-38.138 0,-38.138M0.023,15L-0.341,14.999C-19.097,14.834 -34.353,-0.45 -34.353,-19.071C-34.353,-37.704 -19.095,-52.987 -0.34,-53.137L0,-53.138C19.577,-53.138 33.786,-38.811 33.786,-19.071C33.786,0.989 19.902,15 0.023,15" style="fill:rgb(241,147,0);fill-rule:nonzero;"/>
        </g>
        <g transform="matrix(1,0,0,1,1545.95,349.353)">
            <path d="M0,-30.883C-8.51,-30.883 -15.433,-23.959 -15.433,-15.447C-15.433,-6.929 -8.51,0 0,0C8.519,0 15.449,-6.929 15.449,-15.447C15.449,-23.959 8.519,-30.883 0,-30.883M0,15C-16.78,15 -30.433,1.342 -30.433,-15.447C-30.433,-32.23 -16.78,-45.883 0,-45.883C16.79,-45.883 30.449,-32.23 30.449,-15.447C30.449,1.342 16.79,15 0,15" style="fill:rgb(241,147,0);fill-rule:nonzero;"/>
        </g>
        <g transform="matrix(1,0,0,1,1543.5,337.589)">
            <path d="M0,-15.603C-2.104,-15.603 -5.216,-13.957 -7.081,-10.343C-9.332,-5.972 -8.307,-1.581 -5.977,-0.375C-5.49,-0.125 -4.95,-0 -4.339,-0C-2.23,-0 0.889,-1.649 2.754,-5.268C3.886,-7.457 4.277,-9.89 3.833,-11.949C3.638,-12.851 3.096,-14.474 1.654,-15.219C1.154,-15.478 0.612,-15.603 0,-15.603M-4.339,15C-7.353,15 -10.218,14.312 -12.854,12.955C-22.918,7.75 -26.304,-5.781 -20.413,-17.216C-16.218,-25.35 -8.205,-30.603 0,-30.603C3.022,-30.603 5.896,-29.911 8.538,-28.546C13.585,-25.938 17.214,-21.044 18.494,-15.117C19.68,-9.63 18.823,-3.689 16.083,1.612C11.894,9.742 3.876,15 -4.339,15" style="fill:rgb(241,147,0);fill-rule:nonzero;"/>
        </g>
        <g transform="matrix(1,0,0,1,1538.69,324.18)">
            <path d="M0,-3.781C0.153,-3.327 0.366,-2.889 0.64,-2.477C1.528,-1.135 2.96,-0.194 4.567,0.106C4.668,0.125 4.769,0.141 4.867,0.154C4.833,0.078 4.796,0.001 4.755,-0.076C3.735,-1.986 2,-3.305 0,-3.781M9.16,2.826C9.148,2.85 8.969,3.171 8.642,3.675C8.803,3.465 8.99,3.181 9.16,2.826M-1.676,11.023L-1.678,11.023C-4.542,11.022 -7.157,9.457 -8.504,6.938C-10.507,3.114 -10.074,-1.634 -7.347,-6.141C-4.928,-10.138 -0.109,-14.804 5.514,-14.804C6.119,-14.804 6.725,-14.749 7.312,-14.64C9.716,-14.192 11.784,-12.815 13.145,-10.761C14.552,-8.637 15.045,-5.99 14.497,-3.498C13.544,0.854 10.241,2.856 8.831,3.711C8.711,3.784 8.589,3.854 8.473,3.93C6.975,6.168 3.156,11.023 -1.676,11.023" style="fill:rgb(241,147,0);fill-rule:nonzero;"/>
        </g>
        <g transform="matrix(1,0,0,1,1535.95,322.162)">
            <path d="M0,20.766C-0.179,20.766 -0.357,20.76 -0.537,20.747C-0.733,20.733 -0.927,20.712 -1.119,20.683C-2.923,20.8 -4.786,20.394 -6.354,19.51C-9.152,17.942 -10.96,15.127 -11.299,11.795C-11.668,8.174 -10.252,4.498 -7.603,2.203C-5.962,0.768 -3.848,-0.034 -1.673,-0.034C1.306,-0.034 4.094,1.468 5.785,3.984C6.869,5.613 7.456,7.539 7.51,9.612C7.726,10.924 7.606,12.052 7.505,12.721C7.499,13.491 7.486,13.827 7.425,14.278C6.916,18.017 3.719,20.766 0,20.766" style="fill:rgb(241,147,0);fill-rule:nonzero;"/>
        </g>
        <g transform="matrix(1,0,0,1,1820.57,404.464)">
            <path d="M0,-29.746C-8.127,-29.746 -14.738,-23.13 -14.738,-14.998C-14.738,-7.275 -14.738,-3.02 1.326,-0.134C4.533,0.44 7.918,-0.899 10.636,-3.785C13.439,-6.759 14.979,-10.785 14.756,-14.554C13.987,-27.473 9.385,-29.746 0,-29.746M2.825,15C1.442,15 0.048,14.875 -1.321,14.63C-21.772,10.956 -29.738,2.65 -29.738,-14.998C-29.738,-31.401 -16.397,-44.746 0,-44.746C18.831,-44.746 28.556,-35.161 29.729,-15.444C30.201,-7.51 27.22,0.489 21.553,6.504C16.389,11.982 9.738,15 2.825,15" style="fill:rgb(241,147,0);fill-rule:nonzero;"/>
        </g>
        <g transform="matrix(1,0,0,1,1818.09,400.062)">
            <path d="M0,-23.411C-6.459,-23.411 -11.714,-18.157 -11.714,-11.698C-11.714,-5.248 -6.459,0 0,0C6.451,0 11.699,-5.248 11.699,-11.698C11.699,-18.157 6.451,-23.411 0,-23.411M0,15C-14.73,15 -26.714,3.023 -26.714,-11.698C-26.714,-26.428 -14.73,-38.411 0,-38.411C14.722,-38.411 26.699,-26.428 26.699,-11.698C26.699,3.023 14.722,15 0,15" style="fill:rgb(241,147,0);fill-rule:nonzero;"/>
        </g>
        <g transform="matrix(1,0,0,1,1816.03,390.213)">
            <path d="M0,-10.616C-1.447,-10.616 -3.576,-9.329 -4.845,-6.871C-6.455,-3.745 -5.686,-0.82 -4.448,-0.18C-3.125,0.501 -0.315,-0.755 1.226,-3.74C2.132,-5.499 2.386,-7.451 1.901,-8.962C1.741,-9.463 1.428,-10.123 0.843,-10.423C0.588,-10.554 0.315,-10.616 0,-10.616M-3.63,15C-6.352,15 -8.939,14.379 -11.322,13.152C-20.347,8.492 -23.419,-3.573 -18.177,-13.745C-14.455,-20.958 -7.32,-25.616 0,-25.616C2.728,-25.616 5.321,-24.991 7.71,-23.759C11.723,-21.696 14.737,-18.064 16.187,-13.537C17.883,-8.24 17.289,-2.163 14.557,3.135C10.839,10.343 3.7,15 -3.63,15" style="fill:rgb(241,147,0);fill-rule:nonzero;"/>
        </g>
        <g transform="matrix(1,0,0,1,1810.73,381.447)">
            <path d="M0,-7.302C-0.017,-7.241 -0.031,-7.178 -0.045,-7.115C-0.386,-5.52 -0.078,-3.935 0.812,-2.611C1.751,-1.213 3.254,-0.239 4.936,0.063C5.419,0.154 6.074,0.129 6.352,0.069C6.801,-0.585 7.305,-2.383 6.336,-4.22C5.149,-6.438 2.7,-7.736 0.373,-7.372C0.245,-7.352 0.12,-7.328 0,-7.302M1.164,7.566C-2.248,7.566 -5.342,5.746 -6.91,2.817C-8.673,-0.527 -8.498,-4.364 -6.452,-7.755C-3.965,-11.877 1.145,-14.868 5.698,-14.868C6.354,-14.868 7.003,-14.809 7.628,-14.693C9.912,-14.283 11.929,-12.961 13.262,-10.977C14.639,-8.928 15.132,-6.366 14.616,-3.947C13.739,0.057 10.898,1.938 9.513,2.79C8.144,4.481 6.096,6.907 2.721,7.443C2.201,7.525 1.68,7.566 1.164,7.566" style="fill:rgb(241,147,0);fill-rule:nonzero;"/>
        </g>
        <g transform="matrix(1,0,0,1,1802.26,386.794)">
            <path d="M0,0.632C0.086,1.194 0.286,1.772 0.583,2.312L6.986,0.632L0,0.632ZM5.44,10.151C4.063,10.151 2.705,9.795 1.512,9.121C-1.177,7.608 -2.909,4.912 -3.233,1.729C-3.582,-1.687 -2.24,-5.163 0.268,-7.343C1.914,-8.757 3.955,-9.519 6.047,-9.519C8.954,-9.519 11.668,-8.057 13.307,-5.607C14.443,-3.879 14.999,-1.861 14.95,0.285C15.016,1.812 14.627,3.648 13.236,5.64C11.234,8.507 8.393,10.151 5.44,10.151" style="fill:rgb(241,147,0);fill-rule:nonzero;"/>
        </g>
        <g transform="matrix(1,0,0,1,1786.75,515.42)">
            <path d="M0,-28.337C-0.23,-28.337 -0.461,-28.331 -0.688,-28.32C-8.954,-27.927 -15.192,-21.84 -15.192,-14.162C-15.192,-6.221 -8.975,0 -1.038,0C2.844,0 6.477,-1.524 9.191,-4.288C11.787,-6.932 13.18,-10.39 13.113,-14.025C12.879,-27.305 3.018,-28.337 0,-28.337M-1.038,15C-17.114,15 -30.192,1.918 -30.192,-14.162C-30.192,-29.734 -17.543,-42.535 -1.395,-43.304C-0.93,-43.326 -0.466,-43.337 0,-43.337C13.292,-43.337 27.759,-34.248 28.111,-14.295C28.252,-6.606 25.334,0.682 19.895,6.221C14.417,11.8 6.787,15 -1.038,15" style="fill:rgb(241,147,0);fill-rule:nonzero;"/>
        </g>
        <g transform="matrix(1,0,0,1,1783.29,511.386)">
            <path d="M0,-22.396C-6.176,-22.396 -11.2,-17.374 -11.2,-11.2C-11.2,-5.024 -6.176,0 0,0C6.172,0 11.192,-5.024 11.192,-11.2C11.192,-17.374 6.172,-22.396 0,-22.396M0,15C-14.447,15 -26.2,3.248 -26.2,-11.2C-26.2,-25.644 -14.447,-37.396 0,-37.396C14.442,-37.396 26.192,-25.644 26.192,-11.2C26.192,3.248 14.442,15 0,15" style="fill:rgb(241,147,0);fill-rule:nonzero;"/>
        </g>
        <g transform="matrix(1,0,0,1,1781.28,501.794)">
            <path d="M0,-9.937C-1.349,-9.937 -3.343,-8.72 -4.541,-6.396C-6.029,-3.507 -5.35,-0.729 -4.246,-0.16C-4.114,-0.091 -3.894,0.001 -3.525,0.001C-2.172,0.001 -0.176,-1.214 1.021,-3.537C1.878,-5.2 2.118,-7.041 1.663,-8.458C1.518,-8.912 1.237,-9.506 0.726,-9.769C0.574,-9.847 0.359,-9.937 0,-9.937M-3.525,15C-6.211,15 -8.766,14.385 -11.119,13.173C-19.998,8.594 -23.027,-3.267 -17.874,-13.269C-14.218,-20.358 -7.202,-24.937 0,-24.937C2.689,-24.937 5.246,-24.32 7.6,-23.101C11.544,-21.076 14.517,-17.499 15.946,-13.04C17.615,-7.835 17.035,-1.868 14.354,3.334C10.702,10.421 3.684,15 -3.525,15" style="fill:rgb(241,147,0);fill-rule:nonzero;"/>
        </g>
        <g transform="matrix(1,0,0,1,1780.87,484.85)">
            <path d="M0,8.871C0.636,8.985 1.291,8.927 1.551,8.858C2.017,8.245 2.6,6.34 1.6,4.431C0.193,1.811 -2.377,0.669 -4.316,0.669C-4.439,0.669 -4.56,0.677 -4.678,0.691C-4.803,0.984 -4.909,1.305 -4.984,1.651C-5.332,3.192 -5.027,4.818 -4.118,6.178C-3.179,7.583 -1.681,8.561 0,8.871M-4.316,15.669C-7.494,15.669 -10.235,14.096 -11.651,11.46C-13.405,8.113 -13.225,4.307 -11.192,0.948C-8.347,-3.758 -2.294,-6.798 2.681,-5.888C5.01,-5.469 7.021,-4.148 8.351,-2.161C9.729,-0.101 10.206,2.47 9.661,4.892C8.776,8.957 5.643,10.871 4.463,11.592C4.444,11.602 4.426,11.613 4.408,11.625C2.028,14.795 -2.191,15.669 -4.316,15.669" style="fill:rgb(241,147,0);fill-rule:nonzero;"/>
        </g>
        <g transform="matrix(1,0,0,1,1777.74,499.244)">
            <path d="M0,-0.418L1.725,-0.418C1.715,-0.517 1.701,-0.615 1.685,-0.714L0,-0.418ZM-1.894,-0.086L1.748,-0.086C1.746,-0.145 1.743,-0.204 1.739,-0.264L-0.438,-0.341L-1.894,-0.086ZM-10.001,0.332C-9.892,0.841 -9.692,1.357 -9.416,1.844L-2.997,0.04L-9.988,0.04C-9.994,0.125 -9.999,0.223 -10.001,0.332M-4.045,9.625C-5.579,9.625 -7.087,9.24 -8.407,8.513C-11.156,6.96 -12.877,4.277 -13.196,1.114C-13.538,-2.27 -12.208,-5.713 -9.726,-7.871C-8.126,-9.268 -6.076,-10.043 -3.968,-10.043C-1.093,-10.043 1.601,-8.605 3.236,-6.194C4.254,-4.689 4.817,-2.909 4.893,-0.998C5.137,0.518 4.918,1.767 4.82,2.322C4.047,6.582 0.323,9.625 -4.045,9.625" style="fill:rgb(241,147,0);fill-rule:nonzero;"/>
        </g>
        <g transform="matrix(1,0,0,1,1668.21,535.044)">
            <path d="M0,-165.871C-0.842,-168.088 -1.959,-170.117 -3.396,-171.997C-3.934,-172.695 -4.65,-173.178 -5.44,-173.315C-15.212,-180.227 -30.898,-173.896 -40.064,-168.57C-47.439,-164.273 -54.459,-159.155 -61.074,-153.767C-68.24,-147.921 -74.889,-141.413 -80.549,-134.085C-86.272,-126.665 -91.035,-118.521 -96.5,-110.907C-102.133,-103.033 -108.166,-95.451 -114.837,-88.432C-118.15,-84.943 -121.557,-81.558 -124.726,-77.937C-127.722,-74.491 -130.608,-70.943 -133.479,-67.413C-139.226,-60.363 -145.01,-53.304 -151.744,-47.168C-159.624,-40.007 -168.966,-35.27 -178.395,-30.503C-187.42,-25.951 -196.297,-20.222 -206.581,-19.171C-208.79,-18.951 -209.913,-16.578 -208.376,-14.839C-195.547,-0.371 -177.512,8.928 -158.416,11.635C-139.16,14.356 -119.089,10.672 -102.442,0.493C-83.064,-11.343 -68.374,-30.232 -55.909,-48.833C-41.729,-69.989 -30.564,-92.8 -18.021,-114.893C-13.413,-123.024 -7.818,-130.559 -3.727,-138.975C0.252,-147.128 3.399,-156.955 0,-165.871" style="fill:rgb(88,143,23);fill-rule:nonzero;"/>
        </g>
        <g transform="matrix(1,0,0,1,1512.44,374.294)">
            <path d="M0,151.278C8.655,145.208 17.21,139.18 23.974,130.952C29.763,123.914 34.476,116.091 39.136,108.299C41.472,104.374 43.807,100.464 46.278,96.62C48.896,92.57 51.778,88.742 54.562,84.806C60.146,76.895 65.027,68.527 69.478,59.93C73.782,51.612 77.325,42.856 81.924,34.696C86.47,26.626 92.106,19.226 98.358,12.41C104.124,6.118 110.342,0.051 117.024,-5.265C121.336,-8.682 127.354,-12.638 133.645,-14.867C127.066,-13.577 120.491,-10.512 115.706,-7.739C108.331,-3.444 101.312,1.678 94.696,7.069C87.53,12.915 80.882,19.418 75.222,26.755C69.498,34.169 64.735,42.321 59.271,49.94C53.638,57.799 47.604,65.383 40.934,72.4C37.62,75.893 34.214,79.275 31.045,82.903C28.049,86.34 25.162,89.886 22.291,93.424C16.545,100.473 10.761,107.531 4.026,113.667C-3.854,120.84 -13.195,125.567 -22.624,130.333C-31.649,134.889 -40.526,140.608 -50.811,141.663C-53.02,141.883 -54.143,144.258 -52.605,146.001C-44.907,154.674 -35.345,161.495 -24.792,166.145C-15.446,163.344 -7.865,156.803 0,151.278" style="fill:rgb(81,161,32);fill-rule:nonzero;"/>
        </g>
        <g opacity="0.5">
            <g transform="matrix(1,0,0,1,1648.44,547.896)">
                <path d="M0,-181.966C-17.563,-181.966 -38.388,-168.922 -38.388,-151.86C-38.388,-148.482 -37.834,-145.24 -36.813,-142.211C-38.044,-142.358 -39.297,-142.44 -40.569,-142.44C-57.043,-142.44 -70.397,-129.469 -70.397,-113.456C-70.397,-107.083 -68.273,-101.19 -64.684,-96.403C-67.251,-97.128 -69.967,-97.527 -72.777,-97.527C-88.703,-97.527 -101.613,-84.975 -101.613,-69.498C-101.613,-62.765 -99.171,-56.591 -95.099,-51.75C-95.75,-51.806 -96.406,-51.839 -97.07,-51.839C-111.798,-51.839 -123.737,-40.232 -123.737,-25.912C-123.737,-11.605 -111.798,0 -97.07,0C-82.338,0 30.218,-143.064 30.218,-160.138C30.218,-164.86 17.572,-181.966 0,-181.966" style="fill:rgb(72,101,14);fill-rule:nonzero;"/>
            </g>
        </g>
        <g transform="matrix(0,-1,-1,0,1644.26,373.931)">
            <path d="M-29.293,-29.299C-45.472,-29.299 -58.591,-16.176 -58.591,-0.005C-58.591,16.178 -45.472,29.293 -29.293,29.293C-13.115,29.293 0,16.178 0,-0.005C0,-16.176 -13.115,-29.299 -29.293,-29.299" style="fill:rgb(79,172,16);fill-rule:nonzero;"/>
        </g>
        <g transform="matrix(0,-1,-1,0,1640.98,376.479)">
            <path d="M-25.292,-25.289C-39.263,-25.289 -50.584,-13.971 -50.584,0.003C-50.584,13.975 -39.263,25.292 -25.292,25.292C-11.32,25.292 0.003,13.975 0.003,0.003C0.003,-13.971 -11.32,-25.289 -25.292,-25.289" style="fill:rgb(98,189,34);fill-rule:nonzero;"/>
        </g>
        <g transform="matrix(0.458514,-0.888687,-0.888687,-0.458514,1647.6,388.894)">
            <path d="M-12.775,-7.779C-22.42,-7.785 -30.239,-1.352 -30.24,6.591C-30.25,14.528 -22.421,20.973 -12.775,20.977C-3.125,20.971 4.696,14.541 4.699,6.597C4.698,-1.343 -3.122,-7.786 -12.775,-7.779" style="fill:rgb(125,214,67);fill-rule:nonzero;"/>
        </g>
        <g transform="matrix(1,0,0,1,1639.53,392.154)">
            <path d="M0,-9.118C-3.8,-9.826 -10.824,-4.608 -8.625,-0.43C-8.155,0.484 -7.122,0.708 -6.198,0.554C-4.999,0.368 -2.922,-2.796 -2.295,-3.294C-0.978,-4.342 0.959,-4.88 1.356,-6.745C1.559,-7.7 1.074,-8.922 0,-9.118" style="fill:rgb(255,239,222);fill-rule:nonzero;"/>
        </g>
        <g transform="matrix(1,0,0,1,1626.98,403.026)">
            <path d="M0,-5.526C-1.502,-4.234 -1.925,-0.994 0.021,0.092C1.072,0.695 2.778,0.216 3.009,-1.117C3.082,-1.526 3.22,-2.221 2.956,-2.624C2.912,-2.781 2.929,-2.726 2.964,-2.477C2.964,-2.538 2.964,0.198 2.956,0.14C2.977,-0.016 2.977,-2.946 2.977,-3.094C2.999,-3.81 2.88,-4.599 2.485,-5.21C1.886,-6.097 0.8,-6.221 0,-5.526" style="fill:rgb(255,239,222);fill-rule:nonzero;"/>
        </g>
        <g transform="matrix(0,-1,-1,0,1612.96,412.146)">
            <path d="M-27.478,-27.469C-42.649,-27.469 -54.95,-15.169 -54.95,0C-54.95,15.18 -42.649,27.478 -27.478,27.478C-12.296,27.478 0.003,15.18 0.003,0C0.003,-15.169 -12.296,-27.469 -27.478,-27.469" style="fill:rgb(79,172,16);fill-rule:nonzero;"/>
        </g>
        <g transform="matrix(0,-1,-1,0,1609.88,414.537)">
            <path d="M-23.72,-23.72C-36.82,-23.72 -47.447,-13.105 -47.447,-0.006C-47.447,13.103 -36.82,23.72 -23.72,23.72C-10.621,23.72 0.008,13.103 0.008,-0.006C0.008,-13.105 -10.621,-23.72 -23.72,-23.72" style="fill:rgb(98,189,34);fill-rule:nonzero;"/>
        </g>
        <g transform="matrix(0.458305,-0.888795,-0.888795,-0.458305,1616.09,426.178)">
            <path d="M-11.984,-7.299C-21.027,-7.298 -28.366,-1.264 -28.354,6.183C-28.36,13.626 -21.022,19.671 -11.984,19.665C-2.93,19.66 4.405,13.63 4.409,6.188C4.403,-1.266 -2.928,-7.302 -11.984,-7.299" style="fill:rgb(125,214,67);fill-rule:nonzero;"/>
        </g>
        <g transform="matrix(1,0,0,1,1608.53,431.819)">
            <path d="M0,-11.142C-3.559,-11.803 -10.157,-4.112 -8.095,-0.2C-7.65,0.661 -4.126,-3.099 -3.675,-4.051C-3.35,-4.737 -2.739,-5.207 -2.152,-5.67C-0.919,-6.661 0.893,-7.163 1.27,-8.9C1.458,-9.803 1.005,-10.952 0,-11.142" style="fill:rgb(255,239,222);fill-rule:nonzero;"/>
        </g>
        <g transform="matrix(1,0,0,1,1596.75,439.427)">
            <path d="M0,-5.179C-1.412,-3.966 -1.801,-0.927 0.02,0.093C1.01,0.652 2.607,0.212 2.83,-1.042C2.891,-1.432 3.018,-2.079 2.767,-2.452C2.735,-2.602 2.735,-2.558 2.775,-2.314L2.775,-2.482C2.801,-2.62 2.785,0.032 2.801,-0.105C2.821,-0.779 2.703,-4.312 2.322,-4.884C1.765,-5.702 0.757,-5.831 0,-5.179" style="fill:rgb(255,239,222);fill-rule:nonzero;"/>
        </g>
        <g transform="matrix(0,-1,-1,0,1583.3,454.723)">
            <path d="M-26.575,-26.566C-41.243,-26.566 -53.142,-14.669 -53.142,0.01C-53.142,14.677 -41.243,26.575 -26.575,26.575C-11.897,26.575 0.001,14.677 0.001,0.01C0.001,-14.669 -11.897,-26.566 -26.575,-26.566" style="fill:rgb(79,172,16);fill-rule:nonzero;"/>
        </g>
        <g transform="matrix(0,-1,-1,0,1580.33,457.036)">
            <path d="M-22.941,-22.932C-35.606,-22.932 -45.872,-12.665 -45.872,0.005C-45.872,12.669 -35.606,22.941 -22.941,22.941C-10.27,22.941 -0.001,12.669 -0.001,0.005C-0.001,-12.665 -10.27,-22.932 -22.941,-22.932" style="fill:rgb(98,189,34);fill-rule:nonzero;"/>
        </g>
        <g transform="matrix(0.458346,-0.888774,-0.888774,-0.458346,1586.32,468.291)">
            <path d="M-11.586,-7.063C-20.331,-7.062 -27.427,-1.23 -27.422,5.97C-27.434,13.175 -20.334,19.013 -11.586,19.014C-2.831,19.005 4.256,13.171 4.256,5.97C4.262,-1.225 -2.841,-7.065 -11.586,-7.063" style="fill:rgb(125,214,67);fill-rule:nonzero;"/>
        </g>
        <g transform="matrix(1,0,0,1,1579.01,473.84)">
            <path d="M0,-10.859C-3.439,-11.498 -9.83,-3.976 -7.829,-0.189C-7.399,0.639 -3.991,-3.093 -3.562,-4.008C-3.231,-4.673 -2.653,-5.125 -2.085,-5.578C-0.896,-6.534 0.86,-7.015 1.219,-8.7C1.405,-9.567 0.976,-10.68 0,-10.859" style="fill:rgb(255,239,222);fill-rule:nonzero;"/>
        </g>
        <g transform="matrix(1,0,0,1,1567.62,481.097)">
            <path d="M0,-4.994C-1.364,-3.826 -1.743,-0.893 0.024,0.094C0.972,0.634 2.521,0.209 2.727,-0.998C2.799,-1.379 2.916,-2.004 2.676,-2.364C2.644,-2.502 2.644,-2.458 2.685,-2.224L2.685,0.402C2.707,0.266 2.696,-2.66 2.707,-2.798C2.727,-3.438 2.614,-4.162 2.244,-4.713C1.709,-5.51 0.729,-5.628 0,-4.994" style="fill:rgb(255,239,222);fill-rule:nonzero;"/>
        </g>
        <g transform="matrix(0,-1,-1,0,1560.92,498.036)">
            <path d="M-24.567,-24.568C-38.128,-24.568 -49.133,-13.561 -49.133,-0.004C-49.133,13.573 -38.128,24.567 -24.567,24.567C-10.993,24.567 -0.002,13.573 -0.002,-0.004C-0.002,-13.561 -10.993,-24.568 -24.567,-24.568" style="fill:rgb(79,172,16);fill-rule:nonzero;"/>
        </g>
        <g transform="matrix(0,-1,-1,0,1558.17,500.175)">
            <path d="M-21.212,-21.21C-32.919,-21.21 -42.423,-11.71 -42.423,0.003C-42.423,11.721 -32.919,21.212 -21.212,21.212C-9.487,21.212 0.001,11.721 0.001,0.003C0.001,-11.71 -9.487,-21.21 -21.212,-21.21" style="fill:rgb(98,189,34);fill-rule:nonzero;"/>
        </g>
        <g transform="matrix(0.458097,-0.888902,-0.888902,-0.458097,1563.71,510.575)">
            <path d="M-10.71,-6.533C-18.806,-6.539 -25.365,-1.137 -25.357,5.516C-25.361,12.18 -18.791,17.576 -10.71,17.577C-2.622,17.567 3.936,12.177 3.938,5.509C3.931,-1.143 -2.625,-6.536 -10.71,-6.533" style="fill:rgb(125,214,67);fill-rule:nonzero;"/>
        </g>
        <g transform="matrix(1,0,0,1,1556.95,513.316)">
            <path d="M0,-7.648C-3.175,-8.236 -9.082,-3.863 -7.242,-0.357C-6.84,0.411 -5.978,0.588 -5.197,0.473C-4.196,0.317 -2.452,-2.334 -1.928,-2.769C-0.825,-3.642 0.797,-4.093 1.135,-5.652C1.304,-6.449 0.903,-7.484 0,-7.648" style="fill:rgb(255,239,222);fill-rule:nonzero;"/>
        </g>
        <g transform="matrix(1,0,0,1,1546.43,522.422)">
            <path d="M0,-4.621C-1.267,-3.541 -1.626,-0.826 0.009,0.086C0.891,0.584 2.688,-1.857 2.471,-2.183C2.438,-2.32 2.438,-2.281 2.48,-2.068L2.48,-2.217C2.491,-2.33 2.491,-2.467 2.491,-2.586C2.51,-3.184 2.414,-3.846 2.069,-4.351C1.574,-5.101 0.672,-5.205 0,-4.621" style="fill:rgb(255,239,222);fill-rule:nonzero;"/>
        </g>
        <g transform="matrix(0,-1,-1,0,1546.35,541.349)">
            <path d="M-21.647,-21.657C-33.608,-21.657 -43.309,-11.969 -43.309,-0.003C-43.309,11.955 -33.608,21.647 -21.647,21.647C-9.692,21.647 0.005,11.955 0.005,-0.003C0.005,-11.969 -9.692,-21.657 -21.647,-21.657" style="fill:rgb(79,172,16);fill-rule:nonzero;"/>
        </g>
        <g transform="matrix(0,-1,-1,0,1543.93,543.226)">
            <path d="M-18.694,-18.697C-29.029,-18.697 -37.395,-10.325 -37.395,-0.002C-37.395,10.323 -29.029,18.694 -18.694,18.694C-8.37,18.694 0.004,10.323 0.004,-0.002C0.004,-10.325 -8.37,-18.697 -18.694,-18.697" style="fill:rgb(98,189,34);fill-rule:nonzero;"/>
        </g>
        <g transform="matrix(0.458262,-0.888817,-0.888817,-0.458262,1548.83,552.395)">
            <path d="M-9.453,-5.756C-16.585,-5.75 -22.363,-0.988 -22.356,4.875C-22.364,10.744 -16.579,15.501 -9.453,15.503C-2.317,15.501 3.465,10.743 3.458,4.871C3.466,-0.988 -2.318,-5.747 -9.453,-5.756" style="fill:rgb(125,214,67);fill-rule:nonzero;"/>
        </g>
        <g transform="matrix(1,0,0,1,1542.86,554.649)">
            <path d="M0,-6.575C-2.808,-7.098 -8.007,-3.239 -6.373,-0.151C-6.025,0.523 -3.249,-0.247 -2.894,-0.989C-2.629,-1.534 -2.156,-1.903 -1.694,-2.264C-0.725,-3.054 0.707,-3.444 0.999,-4.811C1.159,-5.52 0.804,-6.425 0,-6.575" style="fill:rgb(255,239,222);fill-rule:nonzero;"/>
        </g>
        <g transform="matrix(1,0,0,1,1533.58,562.852)">
            <path d="M0,-4.09C-1.107,-3.129 -1.421,-0.74 0.021,0.07C0.788,0.51 2.053,0.156 2.229,-0.824C2.284,-1.129 2.38,-1.647 2.188,-1.942C2.154,-2.053 2.154,-2.014 2.188,-1.836L2.188,-1.959C2.196,-2.067 2.196,-2.182 2.208,-2.285C2.22,-2.815 2.134,-3.401 1.832,-3.844C1.388,-4.504 0.596,-4.6 0,-4.09" style="fill:rgb(255,239,222);fill-rule:nonzero;"/>
        </g>
        <g transform="matrix(1,0,0,1,1664.09,617.284)">
            <path d="M0,-255.061C0,-238.163 -6.584,-221.69 -16.026,-208.021C-27.512,-191.391 -36.665,-173.236 -48.163,-156.38C-60.044,-138.961 -72.612,-122.907 -83.567,-105.02C-93.217,-89.258 -104.771,-73.715 -106.872,-54.657C-107.933,-45.096 -108.145,-32.928 -101.892,-25.172C-94.875,-16.463 -92.32,-11.518 -92.479,0C-83.03,-37.633 -52.542,-65.633 -35.562,-100.055C-26.45,-118.509 -13.16,-135.512 -0.797,-151.975C11.239,-168.01 22.833,-182.582 23.819,-203.453C24.735,-223.099 18.833,-245.643 0.551,-255.061L0,-255.061Z" style="fill:rgb(84,178,34);fill-rule:nonzero;"/>
        </g>
        <g opacity="0.22">
            <g transform="matrix(1,0,0,1,1668.04,617.283)">
                <path d="M0,-252.987C5.516,-245.159 9.08,-232.05 9.827,-222.276C16.173,-138.721 -103.653,-86.211 -98.158,-12.906C-98.158,-12.906 -95.563,-3.599 -96.542,0C-87.09,-37.633 -56.593,-65.633 -39.609,-100.054C-30.511,-118.508 -17.219,-135.511 -4.86,-151.974C7.177,-168.009 18.779,-182.582 19.758,-203.452C20.624,-221.78 15.527,-242.623 0,-252.987" style="fill:rgb(72,101,14);fill-rule:nonzero;"/>
            </g>
        </g>
        <g opacity="0.64">
            <g transform="matrix(1,0,0,1,1677.87,581.962)">
                <path d="M0,-208.197C-3.093,-211.88 -6.827,-214.991 -11.33,-217.311L-11.889,-217.311C-11.889,-200.415 -18.477,-183.94 -27.913,-170.267C-39.4,-153.636 -48.554,-135.488 -60.052,-118.632C-71.93,-101.206 -84.495,-85.155 -95.455,-67.269C-105.093,-51.507 -116.657,-35.956 -118.761,-16.905C-119.771,-7.753 -120.012,3.774 -114.553,11.542C-114.914,11.095 -115.277,10.632 -115.664,10.149C-121.917,2.393 -121.705,-9.775 -120.645,-19.335C-118.543,-38.394 -106.989,-53.937 -97.34,-69.698C-86.379,-87.585 -73.816,-103.64 -61.936,-121.059C-50.438,-137.914 -41.284,-156.07 -29.799,-172.699C-20.356,-186.368 -13.772,-202.842 -13.772,-219.739L-13.216,-219.739C-7.752,-216.928 -3.409,-212.933 0,-208.197" style="fill:rgb(196,232,137);fill-rule:nonzero;"/>
            </g>
        </g>
        <g transform="matrix(1,0,0,1,1689.38,373.914)">
            <path d="M0,-43.727C3.178,-45.685 7.354,-48.544 11.172,-46.81C12.207,-46.348 13.238,-47.229 13.613,-48.092C14.58,-50.312 16.824,-52.25 16.328,-54.911C15.864,-57.363 13.528,-58.616 11.281,-59.059C6.184,-60.054 0.875,-58.796 -3.638,-56.373C-13.781,-50.957 -20.608,-40.667 -24.825,-30.259C-26.079,-27.178 -27.058,-24.074 -27.533,-20.783C-27.829,-18.72 -27.903,-16.528 -28.312,-14.458C-31.876,-18.761 -36.624,-21.362 -42.137,-22.79C-48.014,-24.305 -54.149,-24.788 -59.835,-27.031C-61.431,-27.658 -63.357,-25.525 -62.295,-24.041C-58.172,-18.333 -53.634,-13.176 -46.691,-11.01C-42.45,-9.692 -38.014,-9.208 -33.656,-8.389C-32.94,-8.247 -32.239,-8.084 -31.541,-7.904C-33.203,-5.969 -34.099,-3.369 -34.553,-0.749C-35.285,3.531 -34.771,8.414 -36.097,12.275C-36.918,14.643 -34.279,16.327 -32.258,15.432C-27.557,13.341 -21.777,12.11 -19.275,7.065C-18.148,4.794 -17.685,2.018 -17.769,-0.616C-17.525,-0.316 -17.295,-0.033 -17.085,0.207C-14.193,3.62 -11.595,7.337 -7.334,9.094C-2.312,11.171 4.504,11.627 9.648,9.728C11.562,9.026 12.308,6.486 10.385,5.247C7.953,3.67 7.104,0.906 6.229,-1.715C5.205,-4.789 4.042,-7.882 1.389,-9.936C-1.745,-12.345 -5.754,-12.407 -9.419,-11.396C-12.605,-10.523 -16.465,-8.379 -19.854,-9.333C-18.661,-18.563 -14.129,-27.335 -8.955,-34.933C-6.545,-38.459 -3.638,-41.477 0,-43.727" style="fill:rgb(79,136,39);fill-rule:nonzero;"/>
        </g>
        <g opacity="0.76">
            <g transform="matrix(1,0,0,1,1698.08,340.375)">
                <path d="M0,-22.427C-1.192,-23.74 -3.316,-23.431 -4.894,-23.149C-6.874,-22.793 -8.836,-22.13 -10.658,-21.29C-13.909,-19.785 -16.929,-17.7 -19.529,-15.24C-21.79,-13.107 -23.82,-10.702 -25.597,-8.156C-26.911,-6.269 -28.702,-3.919 -29.168,-1.636C-29.543,0.204 -26.936,1.313 -25.663,0.152C-24.187,-1.192 -23.306,-3.475 -22.212,-5.149C-20.699,-7.452 -19.046,-9.676 -17.077,-11.628C-14.816,-13.88 -12.257,-15.827 -9.386,-17.26C-7.839,-18.028 -6.229,-18.679 -4.589,-19.23C-3.061,-19.742 -0.78,-20.08 0.042,-21.626C0.189,-21.879 0.21,-22.195 0,-22.427" style="fill:rgb(196,232,137);fill-rule:nonzero;"/>
            </g>
        </g>
        <g opacity="0.76">
            <g transform="matrix(1,0,0,1,1668,350.104)">
                <path d="M0,-7.702C-0.937,-7.26 -1.546,-5.694 -1.871,-4.788C-2.188,-3.925 -2.948,-2.565 -2.737,-1.645C-2.451,-0.4 -0.924,0.283 0.097,-0.631C0.864,-1.317 1.009,-2.736 1.259,-3.692C1.515,-4.588 1.986,-6.283 1.492,-7.164C1.195,-7.69 0.578,-7.985 0,-7.702" style="fill:rgb(196,232,137);fill-rule:nonzero;"/>
            </g>
        </g>
        <g opacity="0.4">
            <g transform="matrix(1,0,0,1,1665.99,381.244)">
                <path d="M0,-11.446C0.316,-12.73 0.566,-14.318 -0.339,-15.435C-0.907,-16.151 -6.881,-18.58 -9.604,-10.53C-10.393,-8.214 -10.049,-5.694 -10.185,-3.271C-10.353,-0.399 -11.412,1.875 -12.288,4.551C-12.823,6.196 -10.985,7.134 -9.721,6.303C-6.629,4.27 -4.868,0.526 -3.385,-2.733C-2.136,-5.515 -0.718,-8.467 0,-11.446" style="fill:rgb(196,232,137);fill-rule:nonzero;"/>
            </g>
        </g>
        <g opacity="0.4">
            <g transform="matrix(1,0,0,1,1660.93,349.304)">
                <path d="M0,11.489C-3.241,6.851 -7.809,3.535 -13.373,2.032C-18.928,0.524 -24.861,0.569 -30.195,-1.631C-31.257,-2.064 -32.078,-0.746 -31.734,0.134C-29.832,4.946 -23.619,6.658 -19.258,8.489C-13.653,10.857 -8.163,13.553 -1.821,13.359C-1.517,13.351 -1.266,13.255 -1.076,13.11C-0.244,13.351 0.599,12.34 0,11.489" style="fill:rgb(196,232,137);fill-rule:nonzero;"/>
            </g>
        </g>
        <g opacity="0.4">
            <g transform="matrix(1,0,0,1,1688.04,384.283)">
                <path d="M0,-20.882C-2.233,-21.934 -6.682,-21.147 -9.042,-20.611C-10.358,-20.315 -14.059,-19.367 -14.598,-19.219C-14.615,-19.238 -17.89,-18.828 -16.743,-17.475C-13.385,-13.53 -8.189,-12.31 -3.771,-9.987C0.677,-7.657 13.968,1.052 10.948,-3.058C6.791,-8.739 8.069,-17.072 0,-20.882" style="fill:rgb(196,232,137);fill-rule:nonzero;"/>
            </g>
        </g>
        <g transform="matrix(0,-1,-1,0,1700.53,476.489)">
            <path d="M-26.107,-27.516C-40.941,-28.228 -51.293,-15.367 -52.993,-0.62C-54.408,11.616 -44.308,25.606 -26.107,26.27C-11.261,26.819 0.785,14.235 0.785,-0.62C0.785,-15.463 -8.772,-26.659 -26.107,-27.516" style="fill:rgb(79,172,16);fill-rule:nonzero;"/>
        </g>
        <g transform="matrix(0,-1,-1,0,1698.15,478.033)">
            <path d="M-23.225,-23.214C-36.041,-23.214 -46.432,-12.816 -46.432,0.01C-46.432,12.835 -36.041,23.225 -23.225,23.225C-10.403,23.225 -0.008,12.835 -0.008,0.01C-0.008,-12.816 -10.403,-23.214 -23.225,-23.214" style="fill:rgb(98,189,34);fill-rule:nonzero;"/>
        </g>
        <g transform="matrix(0.458456,-0.888717,-0.888717,-0.458456,1704.21,489.435)">
            <path d="M-11.725,-7.144C-20.584,-7.141 -27.761,-1.237 -27.751,6.046C-27.758,13.341 -20.58,19.245 -11.725,19.244C-2.873,19.249 4.308,13.342 4.317,6.053C4.309,-1.23 -2.858,-7.141 -11.725,-7.144" style="fill:rgb(125,214,67);fill-rule:nonzero;"/>
        </g>
        <g transform="matrix(1,0,0,1,1696.8,492.421)">
            <path d="M0,-8.364C-3.481,-9.018 -9.941,-4.222 -7.922,-0.389C-7.478,0.451 -6.535,0.654 -5.695,0.515C-4.588,0.347 -2.681,-2.555 -2.104,-3.022C-0.904,-3.985 0.874,-4.483 1.24,-6.185C1.43,-7.057 0.987,-8.186 0,-8.364" style="fill:rgb(255,239,222);fill-rule:nonzero;"/>
        </g>
        <g transform="matrix(1,0,0,1,1685.28,502.408)">
            <path d="M0,-5.074C-1.379,-3.883 -1.767,-0.921 0.021,0.082C0.979,0.631 2.559,0.199 2.764,-1.034C2.828,-1.411 2.955,-2.045 2.713,-2.414C2.675,-2.547 2.682,-2.508 2.724,-2.278C2.713,-2.328 2.713,0.178 2.713,0.123C2.732,-0.015 2.732,-2.71 2.732,-2.845C2.76,-3.496 2.649,-4.232 2.271,-4.777C1.725,-5.601 0.738,-5.705 0,-5.074" style="fill:rgb(255,239,222);fill-rule:nonzero;"/>
        </g>
        <g transform="matrix(0,-1,-1,0,1548.92,308.667)">
            <path d="M-26.565,-26.574C-41.241,-26.574 -53.276,-17.36 -53.135,-0.009C-53.006,14.667 -41.241,26.565 -26.565,26.565C-11.891,26.565 -0.117,14.667 0.001,-0.009C0.137,-16.656 -11.891,-26.574 -26.565,-26.574" style="fill:rgb(79,172,16);fill-rule:nonzero;"/>
        </g>
        <g transform="matrix(0,-1,-1,0,1545.95,310.971)">
            <path d="M-22.935,-22.947C-35.615,-22.947 -45.883,-12.667 -45.883,0.002C-45.883,12.671 -35.615,22.935 -22.935,22.935C-10.272,22.935 0.001,12.671 0.001,0.002C0.001,-12.667 -10.272,-22.947 -22.935,-22.947" style="fill:rgb(98,189,34);fill-rule:nonzero;"/>
        </g>
        <g transform="matrix(0.458396,-0.888748,-0.888748,-0.458396,1551.95,322.232)">
            <path d="M-11.579,-7.056C-20.327,-7.058 -27.424,-1.223 -27.431,5.97C-27.423,13.168 -20.331,19.006 -11.579,19.011C-2.83,19.01 4.263,13.175 4.259,5.978C4.254,-1.22 -2.829,-7.064 -11.579,-7.056" style="fill:rgb(125,214,67);fill-rule:nonzero;"/>
        </g>
        <g transform="matrix(1,0,0,1,1544.64,327.776)">
            <path d="M0,-10.862C-3.443,-11.501 -9.816,-3.982 -7.832,-0.193C-7.388,0.639 -3.99,-3.099 -3.548,-4.008C-3.229,-4.675 -2.653,-5.118 -2.084,-5.582C-0.884,-6.524 0.86,-7.022 1.229,-8.702C1.418,-9.565 0.979,-10.679 0,-10.862" style="fill:rgb(255,239,222);fill-rule:nonzero;"/>
        </g>
        <g transform="matrix(1,0,0,1,1533.25,335.042)">
            <path d="M0,-5.008C-1.356,-3.833 -1.745,-0.892 0.02,0.097C0.97,0.633 2.522,0.205 2.735,-1.008C2.797,-1.376 2.923,-2.008 2.685,-2.375C2.64,-2.511 2.646,-2.469 2.693,-2.237C2.693,-2.292 2.685,0.441 2.685,0.387C2.703,0.251 2.703,-2.67 2.703,-2.797C2.724,-3.449 2.616,-4.164 2.252,-4.711C1.704,-5.526 0.724,-5.641 0,-5.008" style="fill:rgb(255,239,222);fill-rule:nonzero;"/>
        </g>
        <g transform="matrix(0,-1,-1,0,1819.86,368.67)">
            <path d="M-20.796,-22.957C-33.056,-23.685 -45.205,-12.805 -43.042,-0.714C-39.683,17.98 -33.075,21.524 -20.796,21.524C-8.512,21.524 1.452,11.575 1.452,-0.714C1.452,-13.005 -2.786,-21.885 -20.796,-22.957" style="fill:rgb(79,172,16);fill-rule:nonzero;"/>
        </g>
        <g transform="matrix(0,-1,-1,0,1818.09,369.15)">
            <path d="M-19.214,-19.199C-29.821,-19.199 -38.412,-10.602 -38.412,0C-38.412,10.618 -29.821,19.214 -19.214,19.214C-8.599,19.214 -0.001,10.618 -0.001,0C-0.001,-10.602 -8.599,-19.199 -19.214,-19.199" style="fill:rgb(98,189,34);fill-rule:nonzero;"/>
        </g>
        <g transform="matrix(0.458466,-0.888712,-0.888712,-0.458466,1823.12,378.579)">
            <path d="M-9.703,-5.908C-17.018,-5.907 -22.963,-1.017 -22.968,5.004C-22.966,11.033 -17.029,15.919 -9.703,15.922C-2.378,15.921 3.561,11.041 3.561,5.007C3.57,-1.014 -2.375,-5.906 -9.703,-5.908" style="fill:rgb(125,214,67);fill-rule:nonzero;"/>
        </g>
        <g transform="matrix(1,0,0,1,1816.99,381.057)">
            <path d="M0,-6.929C-2.889,-7.465 -8.227,-3.498 -6.559,-0.333C-6.187,0.362 -5.411,0.536 -4.716,0.426C-3.797,0.28 -2.218,-2.121 -1.748,-2.5C-0.751,-3.298 0.713,-3.712 1.021,-5.12C1.176,-5.844 0.809,-6.784 0,-6.929" style="fill:rgb(255,239,222);fill-rule:nonzero;"/>
        </g>
        <g transform="matrix(1,0,0,1,1807.45,389.311)">
            <path d="M0,-4.199C-1.135,-3.213 -1.46,-0.755 0.012,0.073C0.812,0.525 2.443,-1.683 2.244,-1.989C2.214,-2.105 2.22,-2.075 2.253,-1.885L2.253,-2.012C2.263,-2.127 2.263,-2.24 2.263,-2.347C2.283,-2.896 2.189,-3.492 1.886,-3.954C1.432,-4.633 0.611,-4.724 0,-4.199" style="fill:rgb(255,239,222);fill-rule:nonzero;"/>
        </g>
        <g transform="matrix(0,-1,-1,0,1786.03,479.499)">
            <path d="M-21.758,-21.328C-33.725,-21.547 -43.42,-11.638 -43.42,0.323C-43.42,12.423 -33.725,21.978 -21.758,21.978C-9.808,21.978 -0.677,12.264 -0.108,0.323C0.335,-9.144 -5.235,-21.036 -21.758,-21.328" style="fill:rgb(79,172,16);fill-rule:nonzero;"/>
        </g>
        <g transform="matrix(0,-1,-1,0,1783.29,481.492)">
            <path d="M-18.695,-18.699C-29.026,-18.699 -37.395,-10.326 -37.395,-0.006C-37.395,10.316 -29.026,18.695 -18.695,18.695C-8.374,18.695 0.002,10.316 0.002,-0.006C0.002,-10.326 -8.374,-18.699 -18.695,-18.699" style="fill:rgb(98,189,34);fill-rule:nonzero;"/>
        </g>
        <g transform="matrix(0.45789,-0.889009,-0.889009,-0.45789,1788.18,490.657)">
            <path d="M-9.448,-5.758C-16.583,-5.756 -22.361,-0.991 -22.36,4.882C-22.358,10.741 -16.569,15.496 -9.448,15.496C-2.31,15.492 3.471,10.726 3.459,4.867C3.466,-1 -2.32,-5.76 -9.448,-5.758" style="fill:rgb(125,214,67);fill-rule:nonzero;"/>
        </g>
        <g transform="matrix(1,0,0,1,1782.22,492.903)">
            <path d="M0,-6.561C-2.813,-7.09 -8.004,-3.227 -6.388,-0.142C-6.027,0.529 -3.253,-0.236 -2.892,-0.987C-2.64,-1.524 -2.158,-1.889 -1.691,-2.258C-0.725,-3.038 0.701,-3.434 1,-4.807C1.158,-5.51 0.8,-6.423 0,-6.561" style="fill:rgb(255,239,222);fill-rule:nonzero;"/>
        </g>
        <g transform="matrix(1,0,0,1,1772.93,501.097)">
            <path d="M0,-4.064C-1.099,-3.109 -1.417,-0.719 0.018,0.091C0.792,0.518 2.056,0.174 2.233,-0.804C2.287,-1.111 2.384,-1.623 2.193,-1.921C2.16,-2.04 2.16,-2.002 2.193,-1.813L2.193,-1.939C2.203,-2.044 2.203,-2.16 2.203,-2.271C2.222,-2.793 2.139,-3.386 1.835,-3.835C1.394,-4.486 0.593,-4.582 0,-4.064" style="fill:rgb(255,239,222);fill-rule:nonzero;"/>
        </g>
    </g>
</svg>
