<?xml version="1.0" encoding="UTF-8" standalone="no"?>
<!DOCTYPE svg PUBLIC "-//W3C//DTD SVG 1.1//EN" "http://www.w3.org/Graphics/SVG/1.1/DTD/svg11.dtd">
<svg width="100%" height="100%" viewBox="0 0 488 488" version="1.1" xmlns="http://www.w3.org/2000/svg" xmlns:xlink="http://www.w3.org/1999/xlink" xml:space="preserve" xmlns:serif="http://www.serif.com/" style="fill-rule:evenodd;clip-rule:evenodd;stroke-linejoin:round;stroke-miterlimit:2;">
    <path d="M483.873,94.133L483.873,12.001C483.873,7.583 480.291,4.001 475.873,4.001L302.874,4.001C298.456,4.001 294.874,7.583 294.874,12.001L294.874,53.118C294.874,71.907 279.639,87.141 260.854,87.141L214.171,87.141C124.402,87.141 51.633,159.911 51.633,249.68L51.633,445.987C51.633,450.405 55.215,453.987 59.633,453.987L165.023,453.987C166.284,461.183 168.152,468.273 170.616,475.179L171.866,478.69C173.003,481.874 176.019,484.003 179.402,484.003L475.998,484.003C480.416,484.003 483.998,480.421 483.998,476.003L483.998,94.133L483.873,94.133Z" style="fill:rgb(249,207,207);fill-rule:nonzero;"/>
    <g>
        <path d="M263.257,487.999C193.491,487.999 135.046,431.722 132.671,361.917C131.824,337.129 137.96,312.785 150.417,291.515C156.066,281.867 159.054,270.473 159.054,258.559L159.054,208.063C159.054,205.852 160.847,204.063 163.054,204.063C165.261,204.063 167.054,205.852 167.054,208.063L167.054,258.559C167.054,271.894 163.687,284.687 157.32,295.558C145.632,315.519 139.874,338.371 140.663,361.648C142.898,427.167 197.769,479.995 263.257,479.999C263.686,479.999 264.108,479.999 264.538,479.995C331.276,479.288 384.534,426.46 385.791,359.722C385.834,357.539 387.612,355.796 389.791,355.796C391.998,355.796 393.823,357.589 393.823,359.796C393.823,360 393.807,360.195 393.78,360.39C393.01,394.32 379.323,426.159 355.209,450.101C330.956,474.179 298.784,487.636 264.628,487.995C264.167,487.999 263.71,487.999 263.257,487.999Z" style="fill:rgb(55,98,204);fill-rule:nonzero;"/>
        <path d="M475.998,487.999L179.402,487.999C174.343,487.999 169.8,484.8 168.101,480.034L166.847,476.522C164.702,470.515 162.976,464.296 161.706,457.987L59.633,457.987C53.015,457.987 47.633,452.605 47.633,445.987L47.633,249.68C47.633,157.848 122.343,83.141 214.171,83.141L260.854,83.141C277.405,83.141 290.874,69.673 290.874,53.118L290.874,12.001C290.874,5.384 296.257,0.001 302.874,0.001L475.873,0.001C482.49,0.001 487.873,5.384 487.873,12.001L487.873,93.137C487.955,93.454 488.002,93.786 488.002,94.133L488.002,475.999C487.998,482.616 482.615,487.999 475.998,487.999ZM214.171,91.141C126.753,91.141 55.633,162.262 55.633,249.68L55.633,445.987C55.633,448.194 57.426,449.987 59.633,449.987L165.023,449.987C166.964,449.987 168.624,451.382 168.96,453.296C170.191,460.288 172.015,467.198 174.382,473.835L175.636,477.347C176.202,478.933 177.718,480.003 179.402,480.003L475.998,480.003C478.205,480.003 479.998,478.21 479.998,476.003L479.998,95.098C479.916,94.786 479.873,94.465 479.873,94.133L479.873,12.001C479.873,9.798 478.076,8.001 475.873,8.001L302.874,8.001C300.667,8.001 298.874,9.798 298.874,12.001L298.874,53.118C298.874,74.083 281.819,91.141 260.854,91.141L214.171,91.141Z" style="fill:rgb(55,98,204);fill-rule:nonzero;"/>
        <path d="M483.994,467.019C483.236,467.019 482.467,466.804 481.787,466.351C446.068,442.691 424.213,403.101 423.244,360.363C423.217,360.179 423.205,359.988 423.205,359.792C423.205,357.585 424.967,355.793 427.174,355.793L427.233,355.793C429.412,355.793 431.194,357.539 431.233,359.718C431.99,400.011 452.541,437.382 486.205,459.679C488.049,460.901 488.553,463.382 487.334,465.226C486.561,466.39 485.291,467.019 483.994,467.019Z" style="fill:rgb(55,98,204);fill-rule:nonzero;"/>
        <path d="M165.015,457.987C162.984,457.987 161.245,456.448 161.038,454.386L159.117,435.03C158.898,432.831 160.503,430.87 162.699,430.655C164.882,430.429 166.859,432.038 167.074,434.238L168.999,453.593C169.218,455.788 167.613,457.749 165.413,457.968C165.284,457.983 165.148,457.987 165.015,457.987Z" style="fill:rgb(55,98,204);fill-rule:nonzero;"/>
    </g>
    <path d="M427.998,483.999L28,483.999C14.746,483.999 4,473.253 4,459.999L4,192C4,178.746 14.746,168 28,168L427.998,168C441.252,168 451.998,178.746 451.998,192L451.998,459.999C451.998,473.253 441.252,483.999 427.998,483.999Z" style="fill:rgb(249,167,167);fill-rule:nonzero;"/>
    <path d="M415.998,192L62.203,192C55.39,209.93 51.633,229.359 51.633,249.68L51.633,459.999L415.998,459.999C421.092,459.999 425.432,456.823 427.174,452.347L427.174,452.312C427.565,451.312 427.83,450.253 427.944,449.144C427.979,448.769 428.002,448.386 428.002,447.999L428.002,204C427.998,197.371 422.627,192 415.998,192Z" style="fill:rgb(164,201,255);fill-rule:nonzero;"/>
    <path d="M163.05,258.559C163.05,270.816 160.062,282.961 153.867,293.535C142.203,313.457 135.816,336.839 136.664,361.781C138.042,402.195 158.624,437.8 189.351,459.999L337.346,459.999C368.514,437.437 389.014,401.035 389.791,359.796L389.854,359.796L389.854,208.063L163.054,208.063L163.054,258.559L163.05,258.559Z" style="fill:rgb(164,201,255);fill-rule:nonzero;"/>
    <path d="M181.695,453.987L51.633,453.987L51.633,249.68C51.633,229.359 55.39,209.93 62.203,192L40,192C33.371,192 28,197.371 28,204L28,447.999C28,454.628 33.371,459.999 40,459.999L189.355,459.999C186.718,458.097 184.175,456.081 181.695,453.987Z" style="fill:rgb(70,113,198);fill-rule:nonzero;"/>
    <path d="M415.998,463.999L40,463.999C31.18,463.999 24,456.823 24,447.999L24,204C24,195.18 31.18,188 40,188L415.998,188C424.819,188 431.998,195.18 431.998,204L431.998,447.999C431.998,456.823 424.819,463.999 415.998,463.999ZM40,196C35.59,196 32,199.59 32,204L32,447.999C32,452.413 35.59,455.999 40,455.999L415.998,455.999C420.408,455.999 423.998,452.413 423.998,447.999L423.998,204C423.998,199.59 420.408,196 415.998,196L40,196Z" style="fill:rgb(55,98,204);fill-rule:nonzero;"/>
    <path d="M337.346,463.999L189.355,463.999C188.515,463.999 187.691,463.733 187.011,463.241C153.855,439.284 134.05,402.351 132.671,361.917C131.828,337.129 137.964,312.785 150.421,291.515C156.07,281.867 159.054,270.473 159.054,258.559L159.054,208.063C159.054,205.852 160.847,204.063 163.054,204.063C165.265,204.063 167.054,205.852 167.054,208.063L167.054,258.559C167.054,271.894 163.691,284.687 157.324,295.558C145.632,315.519 139.874,338.371 140.667,361.648C141.945,399.167 160.148,433.484 190.659,455.999L336.038,455.999C366.952,433.144 385.069,398.124 385.791,359.718C385.834,357.539 387.612,355.796 389.791,355.796C391.998,355.796 393.823,357.585 393.823,359.796C393.823,359.996 393.807,360.191 393.78,360.386C392.846,401.55 373.155,439.015 339.694,463.241C339.01,463.733 338.186,463.999 337.346,463.999Z" style="fill:rgb(55,98,204);fill-rule:nonzero;"/>
    <path d="M427.998,487.999L28,487.999C12.559,487.999 0,475.44 0,459.999L0,192C0,176.563 12.559,164 28,164L427.998,164C443.44,164 455.998,176.563 455.998,192L455.998,459.999C455.998,475.44 443.44,487.999 427.998,487.999ZM28,172C16.973,172 8,180.973 8,192L8,459.999C8,471.026 16.973,479.999 28,479.999L427.998,479.999C439.026,479.999 447.998,471.026 447.998,459.999L447.998,192C447.998,180.973 439.026,172 427.998,172L28,172Z" style="fill:rgb(55,98,204);fill-rule:nonzero;"/>
    <path d="M212.198,354.023C210.683,351.226 211.491,346.195 208.831,344.144C207.073,342.789 204.191,343.355 201.515,343.449C203.288,340.832 207.331,338.675 207.331,335.539C207.331,332.199 202.71,329.98 201.167,327.121C199.652,324.324 200.464,319.297 197.8,317.246C195.308,315.324 190.554,317.281 187.339,316.25C184.347,315.289 181.714,310.859 178.323,310.859C174.933,310.859 172.296,315.289 169.308,316.25C166.089,317.281 161.335,315.324 158.843,317.246C156.183,319.297 156.992,324.324 155.48,327.121C153.933,329.98 149.312,332.199 149.312,335.543C149.312,338.886 153.933,341.105 155.476,343.961C156.992,346.757 156.183,351.789 158.843,353.839C160.601,355.195 163.484,354.628 166.159,354.535C164.386,357.152 160.343,359.308 160.343,362.441C160.343,365.785 164.964,368.003 166.507,370.859C168.023,373.66 167.21,378.687 169.874,380.738C172.366,382.66 177.12,380.703 180.339,381.734C183.327,382.691 185.96,387.121 189.351,387.121C192.741,387.121 195.378,382.691 198.366,381.734C201.585,380.703 206.339,382.66 208.831,380.738C211.491,378.687 210.683,373.66 212.194,370.859C213.741,368.003 218.362,365.781 218.362,362.441C218.362,359.101 213.741,356.882 212.198,354.023Z" style="fill:rgb(255,234,146);fill-rule:nonzero;"/>
</svg>
