<svg height="488pt" viewBox="0 0 488.002 488" width="488pt" xmlns="http://www.w3.org/2000/svg"><path d="m483.875 94.132812v-82.132812c0-4.417969-3.582031-8-8-8h-173c-4.417969 0-8 3.582031-8 8v41.117188c0 18.789062-15.234375 34.023437-34.019531 34.023437h-46.683594c-89.769531 0-162.539063 72.769531-162.539063 162.539063v196.308593c0 4.417969 3.582032 8 8 8h105.390626c1.261718 7.195313 3.128906 14.285157 5.59375 21.191407l1.25 3.511718c1.136718 3.183594 4.152343 5.3125 7.535156 5.3125h296.597656c4.417969 0 8-3.582031 8-8v-381.871094zm0 0" fill="#f9cfcf"/><g fill="#3762cc"><path d="m263.257812 488c-69.765624 0-128.210937-56.277344-130.585937-126.082031-.847656-24.789063 5.289063-49.132813 17.746094-70.402344 5.648437-9.648437 8.636719-21.042969 8.636719-32.957031v-50.496094c0-2.210938 1.792968-4 4-4 2.207031 0 4 1.789062 4 4v50.496094c0 13.335937-3.367188 26.128906-9.734376 37-11.6875 19.960937-17.445312 42.8125-16.65625 66.089844 2.234376 65.519531 57.105469 118.347656 122.59375 118.351562.429688 0 .851563 0 1.28125-.003906 66.738282-.707032 119.996094-53.535156 121.253907-120.273438.042969-2.183594 1.820312-3.925781 4-3.925781 2.207031 0 4.03125 1.792969 4.03125 4 0 .203125-.015625.398437-.042969.59375-.769531 33.929687-14.457031 65.769531-38.570312 89.710937-24.253907 24.078126-56.425782 37.535157-90.582032 37.894532-.460937.003906-.917968.003906-1.371094.003906zm0 0"/><path d="m476 488h-296.597656c-5.058594 0-9.601563-3.199219-11.300782-7.964844l-1.253906-3.511718c-2.144531-6.007813-3.871094-12.226563-5.140625-18.535157h-102.074219c-6.617187 0-12-5.382812-12-12v-196.308593c0-91.832032 74.710938-166.539063 166.539063-166.539063h46.683594c16.550781 0 30.019531-13.46875 30.019531-30.023437v-41.117188c0-6.617188 5.382812-12 12-12h173c6.617188 0 12 5.382812 12 12v81.136719c.082031.316406.128906.648437.128906.996093v381.867188c-.003906 6.617188-5.386718 12-12.003906 12zm-261.828125-396.859375c-87.417969 0-158.539063 71.121094-158.539063 158.539063v196.308593c0 2.207031 1.792969 4 4 4h105.390626c1.941406 0 3.601562 1.394531 3.9375 3.308594 1.230468 6.992187 3.054687 13.902344 5.421874 20.539063l1.253907 3.511718c.566406 1.585938 2.082031 2.65625 3.765625 2.65625h296.597656c2.207031 0 4-1.792968 4-4v-380.90625c-.082031-.3125-.125-.632812-.125-.964844v-82.132812c0-2.203125-1.796875-4-4-4h-173c-2.207031 0-4 1.796875-4 4v41.117188c0 20.964843-17.054688 38.023437-38.019531 38.023437zm0 0"/><path d="m483.996094 467.019531c-.757813 0-1.527344-.214843-2.207032-.667969-35.71875-23.660156-57.574218-63.25-58.542968-105.988281-.027344-.183593-.039063-.375-.039063-.570312 0-2.207031 1.761719-4 3.96875-4h.058594c2.179687 0 3.960937 1.746093 4 3.925781.757813 40.292969 21.308594 77.664062 54.972656 99.960938 1.84375 1.222656 2.347657 3.703124 1.128907 5.546874-.773438 1.164063-2.042969 1.792969-3.339844 1.792969zm0 0"/><path d="m165.015625 457.988281c-2.03125 0-3.769531-1.539062-3.976563-3.601562l-1.921874-19.355469c-.21875-2.199219 1.386718-4.160156 3.582031-4.375 2.183593-.226562 4.160156 1.382812 4.375 3.582031l1.925781 19.355469c.21875 2.195312-1.386719 4.15625-3.585938 4.375-.128906.015625-.265624.019531-.398437.019531zm0 0"/></g><path d="m428 484h-400c-13.253906 0-24-10.746094-24-24v-268c0-13.253906 10.746094-24 24-24h400c13.253906 0 24 10.746094 24 24v268c0 13.253906-10.746094 24-24 24zm0 0" fill="#f9a7a7"/><path d="m416 192h-353.796875c-6.8125 17.929688-10.570313 37.359375-10.570313 57.679688v210.320312h364.367188c5.09375 0 9.433594-3.175781 11.175781-7.652344v-.035156c.390625-1 .65625-2.058594.769531-3.167969.035157-.375.058594-.757812.058594-1.144531v-244c-.003906-6.628906-5.375-12-12.003906-12zm0 0" fill="#a4c9ff"/><path d="m163.050781 258.558594c0 12.257812-2.988281 24.402344-9.183593 34.976562-11.664063 19.921875-18.050782 43.304688-17.203126 68.246094 1.378907 40.414062 21.960938 76.019531 52.6875 98.21875h147.996094c31.167969-22.5625 51.667969-58.964844 52.445313-100.203125h.0625v-151.734375h-226.800781v50.496094zm0 0" fill="#a4c9ff"/><path d="m181.695312 453.988281h-130.0625v-204.308593c0-20.320313 3.757813-39.75 10.570313-57.679688h-22.203125c-6.628906 0-12 5.371094-12 12v244c0 6.628906 5.371094 12 12 12h149.355469c-2.636719-1.902344-5.179688-3.917969-7.660157-6.011719zm0 0" fill="#4671c6"/><path d="m416 464h-376c-8.820312 0-16-7.175781-16-16v-244c0-8.820312 7.179688-16 16-16h376c8.820312 0 16 7.179688 16 16v244c0 8.824219-7.179688 16-16 16zm-376-268c-4.410156 0-8 3.589844-8 8v244c0 4.414062 3.589844 8 8 8h376c4.410156 0 8-3.585938 8-8v-244c0-4.410156-3.589844-8-8-8zm0 0" fill="#3762cc"/><path d="m337.347656 464h-147.992187c-.839844 0-1.664063-.265625-2.34375-.757812-33.15625-23.957032-52.960938-60.890626-54.339844-101.324219-.84375-24.789063 5.292969-49.132813 17.75-70.402344 5.648437-9.648437 8.632813-21.042969 8.632813-32.957031v-50.496094c0-2.210938 1.792968-4 4-4 2.210937 0 4 1.789062 4 4v50.496094c0 13.335937-3.363282 26.128906-9.730469 37-11.691407 19.960937-17.449219 42.8125-16.65625 66.089844 1.277343 37.519531 19.480469 71.835937 49.992187 94.351562h145.378906c30.914063-22.855469 49.03125-57.875 49.753907-96.28125.042969-2.179688 1.820312-3.921875 4-3.921875 2.207031 0 4.03125 1.789063 4.03125 4 0 .199219-.015625.394531-.042969.589844-.933594 41.164062-20.625 78.628906-54.085938 102.855469-.683593.492187-1.507812.757812-2.347656.757812zm0 0" fill="#3762cc"/><path d="m428 488h-400c-15.441406 0-28-12.558594-28-28v-268c0-15.4375 12.558594-28 28-28h400c15.441406 0 28 12.5625 28 28v268c0 15.441406-12.558594 28-28 28zm-400-316c-11.027344 0-20 8.972656-20 20v268c0 11.027344 8.972656 20 20 20h400c11.027344 0 20-8.972656 20-20v-268c0-11.027344-8.972656-20-20-20zm0 0" fill="#3762cc"/><path d="m212.199219 354.023438c-1.515625-2.796876-.707031-7.828126-3.367188-9.878907-1.757812-1.355469-4.640625-.789062-7.316406-.695312 1.773437-2.617188 5.816406-4.773438 5.816406-7.910157 0-3.339843-4.621093-5.558593-6.164062-8.417968-1.515625-2.796875-.703125-7.824219-3.367188-9.875-2.492187-1.921875-7.246093.035156-10.460937-.996094-2.992188-.960938-5.625-5.390625-9.015625-5.390625s-6.027344 4.429687-9.015625 5.390625c-3.21875 1.03125-7.972656-.925781-10.464844.996094-2.660156 2.050781-1.851562 7.078125-3.363281 9.875-1.546875 2.859375-6.167969 5.078125-6.167969 8.421875s4.621094 5.5625 6.164062 8.417969c1.515626 2.796874.707032 7.828124 3.367188 9.878906 1.757812 1.355468 4.640625.789062 7.316406.695312-1.773437 2.617188-5.816406 4.773438-5.816406 7.90625 0 3.34375 4.621094 5.5625 6.164062 8.417969 1.515626 2.800781.703126 7.828125 3.367188 9.878906 2.492188 1.921875 7.246094-.035156 10.464844.996094 2.988281.957031 5.621094 5.386719 9.011718 5.386719 3.390626 0 6.027344-4.429688 9.015626-5.386719 3.21875-1.03125 7.972656.925781 10.464843-.996094 2.660157-2.050781 1.851563-7.078125 3.363281-9.878906 1.546876-2.855469 6.167969-5.078125 6.167969-8.417969s-4.621093-5.558594-6.164062-8.417968zm0 0" fill="#ffea92"/></svg>