<?xml version="1.0" encoding="UTF-8" standalone="no"?>
<!DOCTYPE svg PUBLIC "-//W3C//DTD SVG 1.1//EN" "http://www.w3.org/Graphics/SVG/1.1/DTD/svg11.dtd">
<svg width="100%" height="100%" viewBox="0 0 863 913" version="1.1" xmlns="http://www.w3.org/2000/svg" xmlns:xlink="http://www.w3.org/1999/xlink" xml:space="preserve" xmlns:serif="http://www.serif.com/" style="fill-rule:evenodd;clip-rule:evenodd;stroke-linejoin:round;stroke-miterlimit:2;">
    <g id="画板1" transform="matrix(0.93956,0,0,0.977961,-374.277,-30.1628)">
        <rect x="398.354" y="30.843" width="918.246" height="933.421" style="fill:none;"/>
        <g transform="matrix(-1.21874,0.698451,0.726997,1.17089,680.776,796.624)">
            <path d="M96.058,-150.567L137.089,-150.567L41.498,26.473L0.465,26.473L96.058,-150.567Z" style="fill:rgb(216,89,128);"/>
        </g>
        <g transform="matrix(-1.21873,0.698461,0.727008,1.17088,662.918,874.902)">
            <path d="M-39.756,-16.388L1.277,-16.388L4.517,-10.957L-36.515,-10.956L-39.756,-16.388Z" style="fill:rgb(216,89,128);"/>
        </g>
        <g transform="matrix(1.4191,0,0,1.36338,627.097,727.239)">
            <path d="M0,74.719L-4.715,71.909L-10.503,74.906L-5.789,77.714L0,74.719ZM-15.086,65.731L-19.801,62.922L-25.588,65.917L-20.875,68.726L-15.086,65.731ZM-30.172,56.74L-34.886,53.932L-40.675,56.929L-35.961,59.738L-30.172,56.74ZM-45.257,47.753L-49.972,44.943L-55.761,47.94L-51.047,50.749L-45.257,47.753ZM-54.555,35.768L-59.27,32.958L-70.847,38.95L-66.133,41.759L-54.555,35.768ZM-75.43,29.775L-80.144,26.966L-85.933,29.961L-81.218,32.771L-75.43,29.775ZM-90.516,20.785L-95.23,17.977L-101.019,20.972L-96.305,23.781L-90.516,20.785ZM-105.602,11.797L-110.316,8.988L-116.105,11.984L-111.391,14.792L-105.602,11.797ZM-120.688,2.808L-125.402,-0.001L-131.19,2.995L-126.476,5.805L-120.688,2.808ZM-129.985,-9.177L-134.699,-11.986L-146.277,-5.994L-141.562,-3.184L-129.985,-9.177ZM20.875,80.712L16.16,77.903L4.583,83.896L9.296,86.705L20.875,80.712Z" style="fill:rgb(252,248,227);"/>
        </g>
        <g transform="matrix(1.4191,0,0,1.36338,649.447,724.699)">
            <path d="M0,96.749L-167.489,-3.161L-172.792,-6.324L-172.792,0.001L0,103.073L0,96.749Z" style="fill:rgb(226,140,167);"/>
        </g>
        <g transform="matrix(-1.22781,-0.683627,-0.711568,1.1796,1179.54,778.911)">
            <path d="M10.456,158.426L135.327,158.426L42.589,-2.811L-82.282,-2.81L10.456,158.426Z" style="fill:rgb(216,89,128);"/>
        </g>
        <g transform="matrix(0.0147831,1.36331,1.41903,-0.0142027,1126.83,760.581)">
            <path d="M108.057,-52.856L144.727,-52.856L53.408,109.189L16.739,109.188L108.057,-52.856Z" style="fill:rgb(216,89,128);"/>
        </g>
        <g transform="matrix(-1.22781,-0.683632,-0.711573,1.1796,1178.99,728.916)">
            <path d="M10.455,158.426L135.326,158.426L42.59,-2.811L-82.281,-2.811L10.455,158.426Z" style="fill:rgb(226,140,167);"/>
        </g>
        <g transform="matrix(0.0140673,1.36331,1.41903,-0.0135149,965.103,959.287)">
            <path d="M-36.524,62.604L-4.242,62.604L-62.747,-36.886L-95.509,-36.888L-36.524,62.604Z" style="fill:rgb(252,248,227);"/>
        </g>
        <g transform="matrix(1.22898,-0.681686,-0.709548,-1.18072,898.85,874.962)">
            <path d="M3.424,10.901L27.064,10.901L40.683,-12.776L17.042,-12.778L3.424,10.901Z" style="fill:rgb(57,53,59);"/>
        </g>
        <g transform="matrix(0.0134818,1.36332,1.41904,-0.0129524,1139.46,789.234)">
            <path d="M78.583,-40.245L108.162,-40.245L40.63,79.333L11.051,79.332L78.583,-40.245Z" style="fill:rgb(226,140,167);"/>
        </g>
        <g transform="matrix(1.4191,0,0,1.36338,1211.26,860.263)">
            <path d="M0,0.679L25.291,-13.924L25.085,-35.51L0,-21.027L0,0.679ZM-61.711,14.602L-61.506,36.189L-17.953,11.043L-17.953,-10.662L-61.711,14.602Z" style="fill:rgb(231,169,191);"/>
        </g>
        <g transform="matrix(1.22781,-0.683632,-0.711573,-1.1796,1178.99,889.961)">
            <path d="M-42.59,-2.811L82.281,-2.811L-10.455,158.425L-135.326,158.425L-42.59,-2.811Z" style="fill:rgb(73,62,193);"/>
        </g>
        <g transform="matrix(-0.0310135,1.36306,1.41876,0.0297957,958.629,955.966)">
            <path d="M-44.766,119.278L-27.241,119.278L-116.701,-43.799L-134.225,-43.799L-44.766,119.278Z" style="fill:rgb(73,62,193);"/>
        </g>
        <g transform="matrix(1.22782,-0.683619,-0.711559,-1.17961,1179.54,866.071)">
            <path d="M-42.589,-2.811L82.282,-2.811L-10.456,158.425L-135.328,158.424L-42.589,-2.811Z" style="fill:rgb(55,49,173);"/>
        </g>
        <g transform="matrix(-0.0339969,1.36299,1.4187,0.032662,1169.9,799.197)">
            <path d="M73.493,-26.901L86.642,-26.901L26.741,71.757L13.115,71.753L73.493,-26.901Z" style="fill:white;"/>
        </g>
        <g transform="matrix(-1.22782,-0.683619,-0.711559,1.17961,1179.54,713.762)">
            <path d="M10.456,158.425L135.327,158.425L42.589,-2.811L-82.283,-2.81L10.456,158.425Z" style="fill:rgb(245,221,55);"/>
        </g>
        <g transform="matrix(0.0425551,1.36277,1.41847,-0.0408841,1107.63,713.032)">
            <path d="M118.427,-41.767L131.166,-41.767L43.036,122.034L30.3,122.033L118.427,-41.767Z" style="fill:rgb(241,204,54);"/>
        </g>
        <g transform="matrix(-1.22782,-0.683624,-0.711564,1.1796,1178.99,696.399)">
            <path d="M10.456,158.424L135.326,158.424L42.589,-2.811L-82.282,-2.81L10.456,158.424Z" style="fill:rgb(245,221,55);"/>
        </g>
        <g transform="matrix(0.053465,1.36241,1.4181,-0.0513657,950.118,911.508)">
            <path d="M-23.196,73.728L-14.836,73.728L-76.082,-24.098L-84.921,-24.087L-23.196,73.728Z" style="fill:white;"/>
        </g>
        <g transform="matrix(-1.22782,-0.683612,-0.711551,1.17961,1054.2,749.361)">
            <path d="M-39.561,47.674L34.119,47.674L12.816,10.635L-60.865,10.636L-39.561,47.674Z" style="fill:rgb(252,248,227);"/>
        </g>
        <g transform="matrix(-1.2278,-0.683646,-0.711587,1.17959,1016.19,760.256)">
            <path d="M-60.593,17.124L5.085,17.124L4.605,16.29L-61.074,16.29L-60.593,17.124Z" style="fill:rgb(101,95,107);"/>
        </g>
        <g transform="matrix(-1.22781,-0.683637,-0.711578,1.1796,1027.39,754.045)">
            <path d="M-60.594,17.125L5.085,17.125L4.604,16.29L-61.075,16.29L-60.594,17.125Z" style="fill:rgb(101,95,107);"/>
        </g>
        <g transform="matrix(-1.22781,-0.683637,-0.711578,1.1796,1038.6,747.839)">
            <path d="M-60.594,17.124L5.085,17.124L4.604,16.29L-61.075,16.29L-60.594,17.124Z" style="fill:rgb(101,95,107);"/>
        </g>
        <g transform="matrix(1.4191,0,0,1.36338,789.322,657.617)">
            <path d="M0,-450.508L0.006,-450.513L0.013,-450.517L0,-450.508ZM353.997,1.452L354.814,1.397L355.622,1.208L356.376,0.89L357.072,0.448L352.085,3.938C352.865,3.348 353.514,2.511 353.997,1.452M0.702,-450.954L5.688,-454.446L4.993,-454.003L4.36,-453.44L3.796,-452.76L3.304,-451.968L3.098,-451.521C2.229,-451.527 1.422,-451.332 0.702,-450.954" style="fill:rgb(228,228,228);"/>
        </g>
        <g transform="matrix(1.4191,0,0,1.36338,1288.97,37.2665)">
            <path d="M0,458.947L4.987,455.457L5.62,454.894L6.186,454.215L6.676,453.423L7.09,452.521L7.42,451.512L7.663,450.404L7.812,449.197L7.862,447.896L7.862,215.398L7.812,214.039L7.663,212.66L7.42,211.271L7.09,209.882L6.676,208.503L6.186,207.14L5.62,205.808L4.987,204.514L4.291,203.268L3.537,202.079L2.729,200.956L1.875,199.911L0.977,198.951L0.041,198.087L-0.929,197.327L-1.925,196.683L-340.18,1.166L-341.176,0.657L-342.146,0.297L-343.082,0.078L-343.98,0L-344.835,0.057L-345.642,0.246L-346.396,0.563L-351.383,4.054C-351.141,3.926 -350.889,3.82 -350.629,3.736C-350.368,3.651 -350.1,3.589 -349.822,3.547C-349.545,3.506 -349.259,3.486 -348.967,3.488C-348.676,3.493 -348.375,3.519 -348.069,3.567C-347.763,3.617 -347.449,3.69 -347.133,3.785C-346.814,3.882 -346.491,4.003 -346.163,4.147C-345.834,4.292 -345.503,4.462 -345.166,4.655L-6.912,200.174C-6.576,200.367 -6.243,200.584 -5.915,200.817C-5.588,201.051 -5.264,201.304 -4.946,201.576C-4.628,201.847 -4.315,202.136 -4.01,202.439C-3.703,202.745 -3.404,203.065 -3.112,203.4C-2.818,203.735 -2.534,204.084 -2.257,204.447C-1.979,204.808 -1.71,205.182 -1.449,205.569C-1.189,205.954 -0.937,206.351 -0.695,206.758C-0.453,207.164 -0.222,207.58 0,208.004C0.223,208.428 0.433,208.86 0.634,209.299C0.833,209.736 1.021,210.181 1.198,210.631C1.374,211.08 1.537,211.535 1.689,211.992C1.841,212.449 1.979,212.91 2.103,213.371C2.228,213.834 2.338,214.297 2.434,214.76C2.529,215.224 2.609,215.689 2.676,216.15C2.741,216.611 2.791,217.072 2.824,217.527C2.857,217.986 2.875,218.439 2.875,218.888L2.875,451.385C2.875,451.835 2.857,452.269 2.824,452.687C2.791,453.105 2.74,453.508 2.676,453.893C2.609,454.28 2.528,454.65 2.434,455.002C2.337,455.355 2.228,455.692 2.103,456.009C1.979,456.329 1.841,456.629 1.689,456.912C1.537,457.194 1.375,457.459 1.198,457.705C1.021,457.95 0.833,458.176 0.634,458.384C0.433,458.592 0.223,458.777 0,458.947" style="fill:rgb(101,95,107);"/>
        </g>
        <g transform="matrix(1.4191,0,0,1.36338,1279.16,396.203)">
            <path d="M0,-63.096L-338.253,-258.614C-343.637,-261.725 -348.041,-258.395 -348.041,-251.213L-348.041,-18.715C-348.041,-11.533 -343.637,-3.112 -338.253,0.001L0,195.517C5.382,198.629 9.787,195.299 9.787,188.116L9.787,-44.381C9.787,-51.563 5.382,-59.986 0,-63.096" style="fill:rgb(43,43,52);"/>
        </g>
        <g transform="matrix(-1.22862,-0.682282,-0.710167,1.18038,825.773,254.845)">
            <path d="M-303.829,-107.079L80.277,-107.079L-28.721,81.492L-412.827,81.492L-303.829,-107.079Z" style="fill:rgb(109,97,233);"/>
        </g>
        <g transform="matrix(1.4191,0,0,1.36338,977.176,681.073)">
            <path d="M0,-136.082L-4.738,-84.271C-5.405,-76.977 -8.218,-72.611 -14.594,-68.962L-49.431,-48.976L-11.565,-27.219L35.803,0L71.486,-20.472C76.34,-23.25 79.17,-28.759 78.711,-34.306L73.822,-93.411L0,-136.082Z" style="fill:rgb(140,136,145);"/>
        </g>
        <g transform="matrix(1.4191,0,0,1.36338,1081.94,689.357)">
            <path d="M0,-99.487L4.889,-40.382C5.348,-34.835 2.518,-29.326 -2.336,-26.548L-38.02,-6.076L-38.02,0.057L-15.593,-13.288L2.587,-23.693C7.68,-26.608 10.651,-32.389 10.169,-38.212L5.353,-96.443L-0.01,-99.544L0,-99.487Z" style="fill:rgb(101,95,107);"/>
        </g>
        <g transform="matrix(0,-1.36338,-1.4191,0,1006.61,593.766)">
            <path d="M-70.171,-15.063L-64.037,-15.063L-15.063,70.171L-21.36,69.795L-70.171,-15.063Z" style="fill:rgb(179,176,183);"/>
        </g>
        <g transform="matrix(1.4191,0,0,1.36338,1247.73,429.245)">
            <path d="M0,-10.342C2.452,-8.928 4.46,-5.571 4.46,-2.884L4.46,-1.16C4.46,1.527 2.451,2.567 0,1.154L-42.515,-23.362C-44.966,-24.775 -46.975,-28.135 -46.975,-30.82L-46.975,-32.542C-46.975,-35.226 -44.967,-36.271 -42.515,-34.857L0,-10.342ZM0,27.774L-42.515,3.259C-44.967,1.845 -46.975,2.889 -46.975,5.573L-46.975,7.298C-46.975,9.981 -44.966,13.341 -42.515,14.755L0,39.27C2.451,40.684 4.46,39.642 4.46,36.956L4.46,35.232C4.46,32.544 2.452,29.188 0,27.774M0,65.891C2.452,67.305 4.46,70.661 4.46,73.347L4.46,75.071C4.46,77.759 2.451,78.799 0,77.386L-42.515,52.87C-44.966,51.458 -46.975,48.097 -46.975,45.414L-46.975,43.69C-46.975,41.006 -44.967,39.961 -42.515,41.376L0,65.891ZM0,104.007L-42.515,79.491C-44.967,78.077 -46.975,79.122 -46.975,81.805L-46.975,83.53C-46.975,86.214 -44.966,89.574 -42.515,90.987L0,115.502C2.451,116.915 4.46,115.875 4.46,113.188L4.46,111.464C4.46,108.776 2.452,105.42 0,104.007M-59.943,-79.341C-59.062,-78.833 -58.341,-77.626 -58.341,-76.659L-58.341,-76.04C-58.341,-75.073 -59.063,-74.701 -59.943,-75.208L-127.821,-114.348C-128.701,-114.856 -129.424,-116.066 -129.424,-117.029L-129.424,-117.65C-129.424,-118.613 -128.702,-118.989 -127.821,-118.482L-59.943,-79.341ZM-59.943,-87.608C-59.062,-87.099 -58.341,-85.893 -58.341,-84.927L-58.341,-84.307C-58.341,-83.341 -59.063,-82.968 -59.943,-83.476L-127.821,-122.614C-128.701,-123.122 -129.424,-124.332 -129.424,-125.296L-129.424,-125.916C-129.424,-126.88 -128.702,-127.257 -127.821,-126.747L-59.943,-87.608ZM-59.943,-71.075L-127.821,-110.214C-128.702,-110.724 -129.424,-110.347 -129.424,-109.383L-129.424,-108.763C-129.424,-107.8 -128.701,-106.589 -127.821,-106.081L-59.943,-66.943C-59.063,-66.435 -58.341,-66.808 -58.341,-67.774L-58.341,-68.394C-58.341,-69.361 -59.062,-70.566 -59.943,-71.075M-59.943,-41.226L-127.821,-80.365C-128.702,-80.874 -129.424,-80.497 -129.424,-79.533L-129.424,-78.913C-129.424,-77.95 -128.701,-76.74 -127.821,-76.233L-59.943,-37.093C-59.063,-36.585 -58.341,-36.958 -58.341,-37.925L-58.341,-38.544C-58.341,-39.51 -59.062,-40.717 -59.943,-41.226M-59.943,-49.491L-127.821,-88.632C-128.702,-89.14 -129.424,-88.764 -129.424,-87.8L-129.424,-87.18C-129.424,-86.216 -128.701,-85.006 -127.821,-84.499L-59.943,-45.359C-59.063,-44.851 -58.341,-45.225 -58.341,-46.191L-58.341,-46.811C-58.341,-47.777 -59.062,-48.983 -59.943,-49.491M-59.943,-32.958C-59.062,-32.45 -58.341,-31.244 -58.341,-30.278L-58.341,-29.657C-58.341,-28.691 -59.063,-28.318 -59.943,-28.825L-127.821,-67.966C-128.701,-68.474 -129.424,-69.683 -129.424,-70.647L-129.424,-71.267C-129.424,-72.231 -128.702,-72.609 -127.821,-72.099L-59.943,-32.958ZM-59.943,-3.111C-59.062,-2.602 -58.341,-1.395 -58.341,-0.429L-58.341,0.191C-58.341,1.158 -59.063,1.532 -59.943,1.023L-127.821,-38.116C-128.701,-38.624 -129.424,-39.833 -129.424,-40.798L-129.424,-41.417C-129.424,-42.381 -128.702,-42.758 -127.821,-42.249L-59.943,-3.111ZM-59.943,-11.376C-59.062,-10.868 -58.341,-9.661 -58.341,-8.695L-58.341,-8.074C-58.341,-7.109 -59.063,-6.736 -59.943,-7.243L-127.821,-46.382C-128.701,-46.891 -129.424,-48.1 -129.424,-49.064L-129.424,-49.684C-129.424,-50.648 -128.702,-51.025 -127.821,-50.515L-59.943,-11.376ZM-59.943,5.157L-127.821,-33.984C-128.702,-34.491 -129.424,-34.114 -129.424,-33.151L-129.424,-32.53C-129.424,-31.567 -128.701,-30.357 -127.821,-29.849L-59.943,9.29C-59.063,9.798 -58.341,9.425 -58.341,8.458L-58.341,7.839C-58.341,6.872 -59.062,5.665 -59.943,5.157M-59.943,35.007L-127.821,-4.133C-128.702,-4.642 -129.424,-4.265 -129.424,-3.301L-129.424,-2.681C-129.424,-1.717 -128.701,-0.508 -127.821,0L-59.943,39.139C-59.063,39.646 -58.341,39.274 -58.341,38.307L-58.341,37.688C-58.341,36.721 -59.062,35.514 -59.943,35.007M-59.943,26.739L-127.821,-12.401C-128.702,-12.908 -129.424,-12.532 -129.424,-11.568L-129.424,-10.948C-129.424,-9.984 -128.701,-8.775 -127.821,-8.266L-59.943,30.874C-59.063,31.38 -58.341,31.007 -58.341,30.041L-58.341,29.421C-58.341,28.456 -59.062,27.249 -59.943,26.739M-59.943,43.272C-59.062,43.781 -58.341,44.988 -58.341,45.954L-58.341,46.574C-58.341,47.54 -59.063,47.914 -59.943,47.405L-127.821,8.266C-128.701,7.759 -129.424,6.55 -129.424,5.585L-129.424,4.965C-129.424,4.001 -128.702,3.625 -127.821,4.134L-59.943,43.272ZM-59.943,73.122C-59.062,73.632 -58.341,74.839 -58.341,75.804L-58.341,76.424C-58.341,77.389 -59.063,77.762 -59.943,77.255L-127.821,38.116C-128.701,37.608 -129.424,36.399 -129.424,35.434L-129.424,34.815C-129.424,33.85 -128.702,33.473 -127.821,33.982L-59.943,73.122ZM-59.943,64.856C-59.062,65.364 -58.341,66.571 -58.341,67.538L-58.341,68.157C-58.341,69.123 -59.063,69.497 -59.943,68.989L-127.821,29.848C-128.701,29.343 -129.424,28.133 -129.424,27.168L-129.424,26.548C-129.424,25.585 -128.702,25.208 -127.821,25.716L-59.943,64.856ZM-59.943,81.389L-127.821,42.249C-128.702,41.741 -129.424,42.116 -129.424,43.081L-129.424,43.702C-129.424,44.665 -128.701,45.874 -127.821,46.382L-59.943,85.522C-59.063,86.029 -58.341,85.656 -58.341,84.69L-58.341,84.071C-58.341,83.104 -59.062,81.897 -59.943,81.389M0,-48.456L-42.515,-72.973C-44.967,-74.387 -46.975,-73.343 -46.975,-70.659L-46.975,-68.935C-46.975,-66.251 -44.966,-62.891 -42.515,-61.477L0,-36.962C2.451,-35.549 4.46,-36.589 4.46,-39.276L4.46,-40.999C4.46,-43.687 2.452,-47.044 0,-48.456" style="fill:rgb(175,169,238);"/>
        </g>
        <g transform="matrix(1.4191,0,0,1.36338,1014.47,302.992)">
            <path d="M0,-10.341C2.451,-8.928 4.46,-5.571 4.46,-2.884L4.46,-1.16C4.46,1.527 2.45,2.567 0,1.154L-42.516,-23.362C-44.966,-24.775 -46.976,-28.135 -46.976,-30.819L-46.976,-32.542C-46.976,-35.227 -44.968,-36.271 -42.516,-34.857L0,-10.341ZM0,27.775L-42.516,3.26C-44.968,1.846 -46.976,2.89 -46.976,5.574L-46.976,7.297C-46.976,9.981 -44.966,13.343 -42.516,14.755L0,39.27C2.45,40.683 4.46,39.642 4.46,36.956L4.46,35.232C4.46,32.545 2.451,29.187 0,27.775M0,65.89C2.451,67.305 4.46,70.661 4.46,73.347L4.46,75.072C4.46,77.759 2.45,78.799 0,77.386L-42.516,52.871C-44.966,51.457 -46.976,48.097 -46.976,45.414L-46.976,43.689C-46.976,41.006 -44.968,39.962 -42.516,41.375L0,65.89ZM0,104.007L-42.516,79.491C-44.968,78.077 -46.976,79.122 -46.976,81.805L-46.976,83.529C-46.976,86.213 -44.966,89.574 -42.516,90.986L0,115.502C2.45,116.915 4.46,115.875 4.46,113.187L4.46,111.465C4.46,108.777 2.451,105.42 0,104.007M-59.943,-79.341C-59.063,-78.833 -58.34,-77.627 -58.34,-76.66L-58.34,-76.04C-58.34,-75.074 -59.064,-74.7 -59.943,-75.208L-127.821,-114.348C-128.701,-114.857 -129.425,-116.066 -129.425,-117.029L-129.425,-117.65C-129.425,-118.612 -128.703,-118.989 -127.821,-118.481L-59.943,-79.341ZM-59.943,-87.608C-59.063,-87.1 -58.34,-85.893 -58.34,-84.927L-58.34,-84.307C-58.34,-83.341 -59.064,-82.967 -59.943,-83.475L-127.821,-122.614C-128.701,-123.122 -129.425,-124.331 -129.425,-125.296L-129.425,-125.916C-129.425,-126.88 -128.703,-127.256 -127.821,-126.747L-59.943,-87.608ZM-59.943,-71.074L-127.821,-110.215C-128.703,-110.723 -129.425,-110.347 -129.425,-109.383L-129.425,-108.763C-129.425,-107.798 -128.701,-106.589 -127.821,-106.082L-59.943,-66.942C-59.064,-66.434 -58.34,-66.808 -58.34,-67.774L-58.34,-68.394C-58.34,-69.36 -59.063,-70.568 -59.943,-71.074M-59.943,-41.226L-127.821,-80.364C-128.703,-80.874 -129.425,-80.496 -129.425,-79.533L-129.425,-78.913C-129.425,-77.949 -128.701,-76.74 -127.821,-76.233L-59.943,-37.092C-59.064,-36.585 -58.34,-36.958 -58.34,-37.924L-58.34,-38.544C-58.34,-39.51 -59.063,-40.717 -59.943,-41.226M-59.943,-49.492L-127.821,-88.632C-128.703,-89.14 -129.425,-88.764 -129.425,-87.799L-129.425,-87.181C-129.425,-86.216 -128.701,-85.006 -127.821,-84.499L-59.943,-45.359C-59.064,-44.852 -58.34,-45.225 -58.34,-46.191L-58.34,-46.811C-58.34,-47.777 -59.063,-48.984 -59.943,-49.492M-59.943,-32.959C-59.063,-32.45 -58.34,-31.244 -58.34,-30.278L-58.34,-29.657C-58.34,-28.692 -59.064,-28.318 -59.943,-28.826L-127.821,-67.966C-128.701,-68.474 -129.425,-69.683 -129.425,-70.647L-129.425,-71.267C-129.425,-72.231 -128.703,-72.607 -127.821,-72.099L-59.943,-32.959ZM-59.943,-3.11C-59.063,-2.601 -58.34,-1.395 -58.34,-0.428L-58.34,0.192C-58.34,1.157 -59.064,1.531 -59.943,1.023L-127.821,-38.116C-128.701,-38.623 -129.425,-39.833 -129.425,-40.797L-129.425,-41.416C-129.425,-42.381 -128.703,-42.758 -127.821,-42.25L-59.943,-3.11ZM-59.943,-11.376C-59.063,-10.868 -58.34,-9.661 -58.34,-8.695L-58.34,-8.075C-58.34,-7.109 -59.064,-6.736 -59.943,-7.242L-127.821,-46.383C-128.701,-46.891 -129.425,-48.1 -129.425,-49.065L-129.425,-49.684C-129.425,-50.648 -128.703,-51.025 -127.821,-50.516L-59.943,-11.376ZM-59.943,5.157L-127.821,-33.984C-128.703,-34.491 -129.425,-34.115 -129.425,-33.151L-129.425,-32.531C-129.425,-31.567 -128.701,-30.358 -127.821,-29.851L-59.943,9.29C-59.064,9.798 -58.34,9.424 -58.34,8.458L-58.34,7.839C-58.34,6.873 -59.063,5.666 -59.943,5.157M-59.943,35.006L-127.821,-4.133C-128.703,-4.642 -129.425,-4.265 -129.425,-3.302L-129.425,-2.682C-129.425,-1.718 -128.701,-0.508 -127.821,-0L-59.943,39.139C-59.064,39.647 -58.34,39.273 -58.34,38.307L-58.34,37.687C-58.34,36.721 -59.063,35.514 -59.943,35.006M-59.943,26.74L-127.821,-12.401C-128.703,-12.908 -129.425,-12.531 -129.425,-11.568L-129.425,-10.947C-129.425,-9.985 -128.701,-8.775 -127.821,-8.267L-59.943,30.873C-59.064,31.381 -58.34,31.008 -58.34,30.041L-58.34,29.422C-58.34,28.455 -59.063,27.248 -59.943,26.74M-59.943,43.273C-59.063,43.781 -58.34,44.987 -58.34,45.955L-58.34,46.574C-58.34,47.54 -59.064,47.914 -59.943,47.406L-127.821,8.266C-128.701,7.759 -129.425,6.549 -129.425,5.585L-129.425,4.965C-129.425,4.001 -128.703,3.625 -127.821,4.133L-59.943,43.273ZM-59.943,73.123C-59.063,73.631 -58.34,74.838 -58.34,75.805L-58.34,76.424C-58.34,77.39 -59.064,77.763 -59.943,77.255L-127.821,38.116C-128.701,37.608 -129.425,36.398 -129.425,35.435L-129.425,34.814C-129.425,33.85 -128.703,33.474 -127.821,33.983L-59.943,73.123ZM-59.943,64.856C-59.063,65.365 -58.34,66.57 -58.34,67.538L-58.34,68.156C-58.34,69.124 -59.064,69.496 -59.943,68.989L-127.821,29.848C-128.701,29.342 -129.425,28.132 -129.425,27.168L-129.425,26.548C-129.425,25.584 -128.703,25.208 -127.821,25.717L-59.943,64.856ZM-59.943,81.389L-127.821,42.25C-128.703,41.741 -129.425,42.117 -129.425,43.081L-129.425,43.701C-129.425,44.665 -128.701,45.874 -127.821,46.383L-59.943,85.522C-59.064,86.029 -58.34,85.656 -58.34,84.69L-58.34,84.07C-58.34,83.103 -59.063,81.897 -59.943,81.389M0,-48.457L-42.516,-72.973C-44.968,-74.386 -46.976,-73.343 -46.976,-70.657L-46.976,-68.935C-46.976,-66.251 -44.966,-62.891 -42.516,-61.477L0,-36.962C2.45,-35.549 4.46,-36.589 4.46,-39.277L4.46,-40.999C4.46,-43.688 2.451,-47.043 0,-48.457" style="fill:rgb(175,169,238);"/>
        </g>
        <g transform="matrix(1.4191,0,0,1.36338,1244.16,218.372)">
            <path d="M0,42.29C0,18.935 -18.935,0 -42.29,0C-49.742,0 -56.745,1.93 -62.94,5.495L0,42.29Z" style="fill:rgb(199,194,237);"/>
        </g>
        <g transform="matrix(1.4191,0,0,1.36338,1004.8,138.556)">
            <path d="M0,298.108L-112.692,232.849C-99.871,225.314 -91.572,211.791 -91.398,197.084C-91.25,125.664 -91.285,70.664 -91.285,-0.769C-91.285,-23.896 -72.351,-42.829 -48.996,-42.829C-41.496,-42.829 -34.452,-40.876 -28.66,-37.727L146.145,62.768L145.55,63.126C139.798,60.195 133.282,58.543 126.383,58.543C103.027,58.543 84.093,77.477 83.963,100.3C83.897,171.897 83.894,227.041 83.894,298.625C83.894,322.004 64.96,340.937 41.605,340.937C18.25,340.937 -0.685,322.004 -0.685,298.648L0,298.108Z" style="fill:rgb(228,225,247);"/>
        </g>
        <g transform="matrix(1.4191,0,0,1.36338,1032.88,407.188)">
            <path d="M0,137.851C-12.27,130.45 -20.476,116.991 -20.133,101.345L-196.199,-0.643C-195.942,14.876 -187.515,28.492 -175.636,36.333L0.367,138.494L0,137.851Z" style="fill:rgb(199,194,237);"/>
        </g>
        <g transform="matrix(1.4191,0,0,1.36338,1071.06,264.205)">
            <path d="M0,30.128L0,41.224C-23.405,27.755 -46.814,14.287 -70.22,0.817L-71.642,-0.002L-71.642,-11.096L-70.22,-10.277C-46.814,3.191 -23.405,16.66 0,30.128" style="fill:rgb(216,89,128);"/>
        </g>
        <g transform="matrix(1.4191,0,0,1.36338,1071.06,319.808)">
            <path d="M0,30.129L0,41.225C-23.405,27.756 -46.814,14.286 -70.22,0.818L-71.642,-0.001L-71.642,-11.096L-70.22,-10.277C-46.814,3.192 -23.405,16.66 0,30.129" style="fill:rgb(216,89,128);"/>
        </g>
        <g transform="matrix(1.4191,0,0,1.36338,1071.06,375.413)">
            <path d="M0,30.127L0,41.224C-23.405,27.755 -46.814,14.286 -70.22,0.817L-71.642,-0.001L-71.642,-11.097L-70.22,-10.277C-46.814,3.19 -23.405,16.659 0,30.127" style="fill:rgb(216,89,128);"/>
        </g>
        <g transform="matrix(1.4191,0,0,1.36338,1071.06,431.017)">
            <path d="M0,30.125L0,41.223C-23.405,27.754 -46.814,14.285 -70.22,0.816L-71.642,-0.003L-71.642,-11.098L-70.22,-10.279C-46.814,3.19 -23.405,16.657 0,30.125" style="fill:rgb(216,89,128);"/>
        </g>
        <g transform="matrix(1.4191,0,0,1.36338,1071.06,486.617)">
            <path d="M0,30.129L0,41.225C-23.405,27.756 -46.814,14.286 -70.22,0.818L-71.642,0L-71.642,-11.096L-70.22,-10.276C-46.814,3.192 -23.405,16.66 0,30.129" style="fill:rgb(216,89,128);"/>
        </g>
        <g transform="matrix(1.4191,0,0,1.36338,931.684,240.021)">
            <path d="M0,-8.131L-14.122,-16.256L-14.122,-0.002L0,8.125L0,-8.131ZM4.317,-10.627L4.317,15.591L-18.439,2.495L-18.439,-23.722L4.317,-10.627Z" style="fill:rgb(216,89,128);"/>
        </g>
        <g transform="matrix(1.4191,0,0,1.36338,931.684,295.62)">
            <path d="M0,-8.126L-14.122,-16.252L-14.122,0.001L0,8.126L0,-8.126ZM4.317,-10.624L4.317,15.593L-18.439,2.498L-18.439,-23.719L4.317,-10.624Z" style="fill:rgb(216,89,128);"/>
        </g>
        <g transform="matrix(1.4191,0,0,1.36338,931.684,351.224)">
            <path d="M0,-8.127L-14.122,-16.253L-14.122,0.001L0,8.126L0,-8.127ZM4.317,-10.625L4.317,15.592L-18.439,2.498L-18.439,-23.719L4.317,-10.625Z" style="fill:rgb(216,89,128);"/>
        </g>
        <g transform="matrix(1.4191,0,0,1.36338,931.684,406.829)">
            <path d="M0,-8.128L-14.122,-16.255L-14.122,0.001L0,8.126L0,-8.128ZM4.317,-10.626L4.317,15.592L-18.439,2.497L-18.439,-23.72L4.317,-10.626Z" style="fill:rgb(216,89,128);"/>
        </g>
        <g transform="matrix(1.4191,0,0,1.36338,931.684,462.432)">
            <path d="M0,-8.128L-14.122,-16.254L-14.122,-0L0,8.126L0,-8.128ZM4.317,-10.625L4.317,15.592L-18.439,2.497L-18.439,-23.72L4.317,-10.625Z" style="fill:rgb(216,89,128);"/>
        </g>
        <g transform="matrix(0,-1.36338,-1.4191,0,952.3,316.884)">
            <path d="M104.542,42.813L127.604,42.813L42.813,-104.542L19.751,-104.542L104.542,42.813Z" style="fill:rgb(216,89,128);"/>
        </g>
        <g transform="matrix(1.4191,0,0,1.36338,794.778,856.008)">
            <path d="M0,11.303C2.557,15.189 10.808,12.208 10.803,12.164C11.322,10.929 12.896,9.685 15.433,8.351C17.934,7.035 21.39,5.637 23.534,3.089C26.816,-0.33 27.799,-2.547 27.394,-3.886C27.084,-2.547 25.914,-0.701 23.534,1.778C21.39,4.326 17.934,5.724 15.433,7.039C12.896,8.373 11.322,9.617 10.803,10.852C10.808,10.897 2.557,13.877 0,9.991C-0.046,9.416 -0.138,8.661 -0.173,7.809C-0.238,9.192 -0.068,10.447 0,11.303" style="fill:rgb(66,62,69);"/>
        </g>
        <g transform="matrix(1.4191,0,0,1.36338,825.279,889.769)">
            <path d="M0,-5.437C-0.083,-4.194 0.052,-2.915 0.595,-1.567C0.459,-0.284 9.945,0.31 10.785,-1.366C11.492,-1.768 11.291,-2.778 15.226,-1.567C19.159,-0.356 27.332,-0.356 28.946,-0.861C35.14,-2.795 36.85,-4.427 35.997,-5.747C35.366,-4.703 33.227,-3.51 28.946,-2.171C27.332,-1.668 19.159,-1.668 15.226,-2.878C11.291,-4.09 11.492,-3.08 10.785,-2.677C9.945,-1.001 0.459,-1.594 0.595,-2.878C0.241,-3.757 0.06,-4.607 0,-5.437" style="fill:rgb(66,62,69);"/>
        </g>
        <g transform="matrix(1.4191,0,0,1.36338,795.505,849.833)">
            <path d="M0,15.141C2.954,18.104 10.295,15.424 10.29,15.381C10.81,14.147 12.383,12.903 14.919,11.569C17.421,10.253 20.878,8.856 23.021,6.307C30.322,-1.3 26.246,-2.963 20.823,-2.228C17.968,-1.841 14.542,-1.018 12.04,0.131C7.356,2.282 2.336,5.598 0.64,6.606C-1.751,7.733 -2.562,12.575 0,15.141" style="fill:rgb(73,62,193);"/>
        </g>
        <g transform="matrix(1.4191,0,0,1.36338,826.123,881.64)">
            <path d="M0,-3.979C-1.898,-0.848 -1.255,2.685 0.398,3.547C2.195,4.483 9.46,4.743 10.19,3.285C10.897,2.882 10.696,1.872 14.631,3.083C18.564,4.293 26.737,4.293 28.352,3.791C40.333,0.044 35.54,-2.562 27.848,-3.979C23.891,-4.708 14.32,-8.626 11.402,-8.722C7.602,-7.14 3.801,-5.56 0,-3.979" style="fill:rgb(73,62,193);"/>
        </g>
        <g transform="matrix(1.4191,0,0,1.36338,824.468,859.337)">
            <path d="M0,-93.896L-5.708,-93.896C-9.469,-93.896 -16.946,-98.877 -20.708,-98.877C-21.197,-95.536 -21.275,-85.949 -21.232,-82.747C-21.065,-70.329 -17.795,-58.751 -18.393,-46.422C-18.718,-39.736 -19.93,-33.326 -20.241,-26.873C-20.815,-15.057 -22.273,-9.102 -22.848,2.715C-23.142,4.981 -6.801,4.703 -4.002,-0.442C-3.139,-18.215 -3.19,-31.452 -0.14,-46.049C1.159,-61.128 0.174,-78.142 0,-93.896" style="fill:rgb(219,116,147);"/>
        </g>
        <g transform="matrix(1.4191,0,0,1.36338,851.913,876.152)">
            <path d="M0,-112.101C-6.818,-112.101 -29.466,-117.067 -29.291,-101.005C-30.367,-81.49 -23.352,-86.247 -22.042,-67.604C-21.586,-61.103 -18.94,-54.06 -18.94,-47.581C-18.94,-40.797 -20.024,-34.296 -20.024,-27.75C-20.024,-15.763 -19.623,-9.972 -19.623,2.014C-19.928,4.35 -3.698,4.966 -1.867,-1.279C-1.867,-19.31 -2.387,-37.923 0.433,-52.731C0.666,-59.69 2.465,-68.131 2.645,-76.499C2.788,-83.114 2.265,-89.731 1.754,-96.014C1.508,-99.047 0.166,-109.261 0,-112.101" style="fill:rgb(219,116,147);"/>
        </g>
        <g transform="matrix(1.4191,0,0,1.36338,796.704,854.491)">
            <path d="M0,-79.348C0.168,-66.93 3.438,-55.352 2.839,-43.024C2.516,-36.338 1.304,-29.928 0.991,-23.474C0.472,-12.757 0.606,-8.812 0.056,1.148C-0.223,6.18 9.524,4.359 9.644,1.733C10.506,-16.039 9.527,-28.922 12.578,-43.519C13.594,-62.133 8.985,-69.789 7.618,-78.551C7.04,-82.26 -0.082,-85.528 0,-79.348" style="fill:rgb(226,140,167);"/>
        </g>
        <g transform="matrix(1.4191,0,0,1.36338,813.294,868.824)">
            <path d="M0,-84.07C1.719,-77.325 5.591,-76 6.528,-62.875C6.983,-56.486 9.63,-49.564 9.63,-43.197C9.63,-36.528 8.546,-30.14 8.546,-23.708C8.546,-12.382 9.081,-6.684 8.945,4.204C8.912,6.893 16.77,6.879 17.042,4.499C17.042,-13.22 16.277,-34.046 19.097,-48.599C19.331,-55.437 21.13,-63.732 21.309,-71.957C21.397,-75.965 21.229,-79.974 20.973,-83.906C20.725,-87.67 13.713,-89.451 7.758,-90.029C5.537,-90.245 3.414,-90.963 1.802,-90.447C-0.521,-89.707 -0.455,-85.853 0,-84.07" style="fill:rgb(226,140,167);"/>
        </g>
        <g transform="matrix(1.4191,0,0,1.36338,853.197,645.469)">
            <path d="M0,-16.281C0.014,-16.266 0.01,-16.272 0.015,-16.253C0.79,-12.928 1.566,-9.604 2.341,-6.281C9.851,0.506 12.352,1.522 7.693,4.249C3.518,6.695 2.351,6.265 -3.157,-2.461C-4.957,-3.9 -6.102,-5.453 -6.976,-7.055C-8.511,-7.214 -11.149,-9.572 -9.827,-13.138C-10.176,-14.297 -9.582,-16.281 -8.437,-17.205C-4.305,-20.539 -4.5,-22.976 0,-16.281" style="fill:rgb(239,195,169);"/>
        </g>
        <g transform="matrix(1.4191,0,0,1.36338,863.496,687.316)">
            <path d="M0,-35.158C3.948,-30.482 8.625,-25.013 13.223,-20.07C16.937,-16.076 27.29,-7.297 19.06,-1.33C16.37,0.619 11.43,-2.438 9.286,-4.894C1.341,-13.991 -5.859,-23.295 -9.33,-28.183C-10.552,-29.184 -3.04,-35.777 0,-35.158" style="fill:rgb(55,49,173);"/>
        </g>
        <g transform="matrix(-0.272478,1.33801,1.3927,0.261779,838.847,703.347)">
            <path d="M17.475,-28.169C19.336,-28.044 21.164,-27.93 22.839,-27.823C28.664,-24.361 23.61,14.682 17.475,13.97C16.202,13.723 11.249,12.322 9.165,11.87C13.083,0.057 16.756,-17.11 17.475,-28.169" style="fill:rgb(73,62,193);"/>
        </g>
        <g transform="matrix(1.4191,0,0,1.36338,846.04,726.078)">
            <path d="M0,-65.25C-6.798,-67.74 -13.949,-68.384 -21.213,-69.641C-34.948,-72.017 -39.242,-61.308 -38.539,-51.384C-37.677,-39.232 -34.521,-34.132 -34.193,-26.202C-34.045,-22.64 -35.717,-11.479 -36.75,-3.389C-34.52,3.659 4.953,6.767 5.496,-0.062C5.539,-4.469 4.119,-19.524 4.248,-23.269C4.456,-29.313 8.327,-44.149 8.746,-50.474C9.307,-58.931 8.361,-62.186 0,-65.25" style="fill:rgb(55,49,173);"/>
        </g>
        <g transform="matrix(1.4191,0,0,1.36338,859.45,679.516)">
            <path d="M0,-25.349C4.247,-22.256 18.184,-13.145 22.726,-5.845C25.041,-2.126 24.847,0.807 23.711,2.659C22.125,5.244 18.467,5.854 15.182,4.731C9.006,2.618 -4.458,-7.607 -8.966,-10.876C-13.888,-14.453 -15.934,-20.247 -15.154,-24.234C-14.391,-28.142 -8.039,-31.203 0,-25.349" style="fill:rgb(55,49,173);"/>
        </g>
        <g transform="matrix(1.4191,0,0,1.36338,856.725,677.95)">
            <path d="M0,-23.031C-2.213,-24.642 -5.336,-26.212 -8.1,-25.675C-8.964,-25.507 -10.32,-24.914 -10.512,-23.935C-11.254,-20.134 -8.443,-15.664 -5.434,-13.478C-1.284,-10.467 2.825,-7.395 7.059,-4.506C10.458,-2.186 15.224,1.161 19.061,2.473C20.471,2.956 23.1,3.181 23.995,1.722C24.921,0.211 23.841,-2.145 22.995,-3.505C18.664,-10.465 6.721,-18.135 0,-23.031" style="fill:rgb(73,62,193);"/>
        </g>
        <g transform="matrix(1.4191,0,0,1.36338,797.933,644.427)">
            <path d="M0,49.274C0.372,46.224 0.731,43.166 1.021,40.104C1.214,38.062 1.464,35.714 1.378,33.665C1.293,31.624 1.017,29.628 0.608,27.621C0.04,24.827 -0.742,22.066 -1.367,19.281C-2.177,15.672 -2.71,12.109 -2.971,8.432C-3.703,-1.889 0.935,-10.096 12.444,-8.104C17.674,-7.199 23.061,-6.608 28.257,-5.33C33.7,-3.992 33.42,-2.656 33.639,0.42C33.964,4.974 32.688,12.398 30.863,21.565C30.348,24.152 29.83,26.743 29.384,29.345C29.037,31.368 28.678,33.542 28.607,35.6C28.439,40.476 28.595,45.437 28.65,50.363C28.739,58.42 18.332,59.37 9.903,57.62C4.319,56.461 -0.786,55.736 0,49.274" style="fill:rgb(73,62,193);"/>
        </g>
        <g transform="matrix(1.4191,0,0,1.36338,836.766,590.615)">
            <path d="M0,33.419C-0.587,31.333 -0.687,29.158 -0.133,26.865C1.026,26.707 2.225,26.545 3.461,26.383C7.038,25.912 6.613,24.69 7.142,20.999C7.343,19.595 7.492,18.141 7.579,16.795C7.822,12.958 6.489,12.877 6.428,11.777C6.367,10.715 7.146,9.17 7.025,8.277C6.352,3.277 4.794,0.785 2.854,-0.616C-2.451,0.854 -7.759,2.324 -13.064,3.793C-13.064,12.822 -13.064,21.849 -15.111,29.992C-15.406,30.781 -11.941,32.393 -8.214,33.174C-4.108,34.035 0.304,34.012 0,33.419" style="fill:rgb(239,195,169);"/>
        </g>
        <g transform="matrix(1.4191,0,0,1.36338,837.336,598.482)">
            <path d="M0,10.064C-1.002,9.584 -1.515,9.989 -1.923,10.588C-2.701,7.619 -4.149,6.972 -5.739,8.644C-7.449,10.445 -7.601,14.55 -4.796,13.798C-6.19,15.965 -6.778,18.23 -6.878,20.547C-9.778,20.633 -12.341,20.27 -14.542,19.428C-14.961,17.283 -16.165,15.503 -17.401,14.034C-21.354,9.333 -23.729,6.162 -22.572,-0.239C-21.99,-3.459 -20.472,-6.2 -18.393,-6.505C-16.474,-8.59 -13.847,-9.713 -10.402,-10.082C-5.831,-10.569 0.648,-10.098 3.507,-8.309C6.169,-6.64 4.902,-3.96 0.162,-1.779C2.706,3.967 -1.026,6.261 0,10.064" style="fill:rgb(48,30,30);"/>
        </g>
        <g transform="matrix(1.4191,0,0,1.36338,837.665,632.513)">
            <path d="M0,3.686C-0.06,2.9 -0.067,2.94 -0.187,2.094C-1.3,2.535 -5.403,2.61 -9.173,1.768C-11.894,1.161 -14.413,-0.04 -15.737,-1.046C-16.708,-1.282 -16.382,0.323 -16.259,0.53C-15.558,1.713 -12.657,3.205 -9.134,3.979C-4.633,4.968 0.036,4.596 0,3.686" style="fill:rgb(73,62,193);"/>
        </g>
        <g transform="matrix(0.240994,1.34358,1.39849,-0.231531,825.579,570.942)">
            <path d="M11.836,-12.36C5.213,-10.568 6.501,-2.917 8.417,0.356C10.726,4.301 13.26,7.938 11.836,11.435C18.967,13.31 20.458,7.221 19.121,2.812C17.357,-3.007 10.689,-8.11 11.836,-12.36" style="fill:rgb(63,38,38);"/>
        </g>
        <g transform="matrix(1.41341,0.122032,0.12702,-1.35791,834.59,593.05)">
            <path d="M0.414,0.458C5.907,1 7.205,3.981 6.262,6.949C5.949,4.704 3.181,3.609 0.414,3.877C-6.164,4.514 -12.864,9.04 -16.58,1.018C-10.996,5.761 -5.969,-0.171 0.414,0.458" style="fill:rgb(91,54,54);"/>
        </g>
        <g transform="matrix(-0.854355,-1.08861,-1.13311,0.820808,655.277,518.82)">
            <rect x="-80.7" y="-144.769" width="8.546" height="184.991" style="fill:rgb(140,136,145);"/>
        </g>
        <g transform="matrix(1.28369,0.581216,0.604971,-1.23329,912.708,537.078)">
            <path d="M-30.976,25.322L-26.993,25.322L-113.129,-138.392L-117.112,-138.392L-30.976,25.322Z" style="fill:rgb(101,95,107);"/>
        </g>
        <g transform="matrix(-0.229081,-1.3455,-1.40049,0.220086,683.47,463.802)">
            <path d="M-33.133,-135.596L-29.15,-135.596L-115.216,28.153L-119.201,28.155L-33.133,-135.596Z" style="fill:rgb(101,95,107);"/>
        </g>
        <g transform="matrix(1.4191,0,0,1.36338,893.57,455.198)">
            <path d="M0,25.637L21.074,-0.062L-9.432,13.128L-9.517,13.263L-8.886,17.12L-8.833,17.191L-3.74,23.946L-0.138,25.644L-0.212,25.699L0,25.637Z" style="fill:rgb(249,219,101);"/>
        </g>
        <g transform="matrix(1.4191,0,0,1.36338,902.2,463.478)">
            <path d="M0,0.347L-0.355,2.754L2.062,5.958L4.646,6.482L14.993,-6.135L0,0.347Z" style="fill:rgb(101,95,107);"/>
        </g>
        <g transform="matrix(1.4191,0,0,1.36338,790.382,545.146)">
            <path d="M0,5.141C0.092,4.42 0.381,3.554 0.452,3.002C0.551,2.237 0.522,1.539 0.07,0.656C-0.266,-0 -0.602,-0.658 -0.937,-1.314C-1.459,-2.288 -1.766,-3.233 -1.13,-3.598C-0.625,-3.886 -0.332,-3.518 0.394,-2.412C0.958,-1.552 1.899,-0.109 2.172,-0.103C2.587,-0.111 4.738,-2.942 4.738,-2.942C5.719,-5.113 6.701,-7.285 7.683,-9.455C8.215,-10.633 9.741,-10.143 9.324,-8.974C8.66,-7.113 7.995,-5.25 7.33,-3.386C7.047,-2.592 7.673,-2.486 8.123,-3.11C9.347,-4.804 10.571,-6.502 11.795,-8.197C12.48,-9.145 14.125,-8.513 13.342,-7.281C12.183,-5.456 11.021,-3.63 9.862,-1.804C9.594,-1.382 9.985,-1.252 10.291,-1.447C11.463,-2.63 12.635,-3.815 13.808,-5C14.788,-5.99 15.549,-5.242 14.833,-4.228C13.883,-2.88 12.933,-1.533 11.983,-0.185C11.603,0.356 12.605,0.95 13.047,0.794C14.18,0.394 15.313,-0.006 16.444,-0.408C17.832,-0.898 18.323,0.065 16.983,0.885C15.261,1.94 13.538,2.996 11.814,4.051C11.814,4.051 9.785,5.672 8.687,6.444C7.588,7.215 5.446,7.173 3.662,9.008C1.878,10.843 -3.514,15.774 -3.514,15.774C-4.864,14.102 -5.855,12.495 -7.205,10.823C-4.794,8.834 -2.411,7.128 0,5.141" style="fill:rgb(239,195,169);"/>
        </g>
        <g transform="matrix(1.4191,0,0,1.36338,710.645,568.687)">
            <path d="M0,-25.006C0.11,-18.74 -4.886,-6.336 -4.724,4.114C-4.655,8.435 -14.503,9.025 -14.674,3.598C-14.914,-4.033 -12.644,-13.241 -11.327,-19.748C-10.765,-22.532 -9.434,-31.254 -7.191,-32.846C-5.522,-34.031 -2.981,-33.957 -2.009,-32.535C-0.911,-30.928 -0.063,-28.592 0,-25.006" style="fill:rgb(57,53,59);"/>
        </g>
        <g transform="matrix(1.4191,0,0,1.36338,731.888,569.288)">
            <path d="M0,5.166C-2.623,5.893 -12.433,8.352 -22.951,8.182C-24.231,8.161 -26.778,7.547 -27.572,6.951C-28.547,6.219 -29.789,4.953 -29.768,3.498C-29.737,1.718 -28.225,-0.282 -27.142,-1.073C-26.342,-1.658 -24.688,-2.311 -23.361,-2.246C-13.417,-1.756 -7.768,-3.186 0.181,-2.605C0.967,-2.002 2.387,4.509 0,5.166" style="fill:rgb(57,53,59);"/>
        </g>
        <g transform="matrix(1.4191,0,0,1.36338,731.026,570.952)">
            <path d="M0,1.817C-7.02,3.749 -14.314,4.924 -21.557,4.808C-29.883,4.674 -26.647,-2.745 -22.067,-2.519C-19.136,-2.374 -17.115,-2.437 -14.184,-2.568C-11.761,-2.675 -9.343,-2.86 -6.922,-2.974C-4.697,-3.079 -2.498,-3.107 -0.281,-2.984C-0.031,-2.252 0.154,-1.095 0.204,-0.574C0.247,-0.12 0.31,1.396 0,1.817" style="fill:rgb(66,62,69);"/>
        </g>
        <g transform="matrix(1.4191,0,0,1.36338,709.666,568.019)">
            <path d="M0,-24.406C0.044,-21.864 -0.741,-18.634 -1.314,-16.151C-2.175,-12.432 -3.11,-8.739 -3.789,-4.978C-4.362,-1.8 -4.774,1.476 -4.724,4.711C-4.688,6.977 -11.468,7.495 -11.574,4.121C-11.811,-3.387 -9.739,-11.538 -8.258,-18.868C-7.822,-21.024 -7.469,-23.167 -6.953,-25.311C-6.687,-26.419 -5.668,-30.351 -4.743,-31.008C-4.061,-31.493 -2.295,-31.901 -1.739,-31.087C-0.426,-29.165 -0.04,-26.684 0,-24.406" style="fill:rgb(66,62,69);"/>
        </g>
        <g transform="matrix(1.4191,0,0,1.36338,794.879,582.119)">
            <path d="M0,-16.082C-1.841,-13.541 -10.124,-3.282 -19.665,4.079C-20.825,4.978 -22.827,5.816 -23.957,5.838C-27.036,5.896 -28.931,2.007 -28.177,-0.725C-27.871,-1.831 -26.646,-3.599 -25.411,-4.489C-16.162,-11.147 -8.817,-18.791 -4.356,-21.97C-3.228,-21.978 0.031,-19.066 0,-16.082" style="fill:rgb(57,53,59);"/>
        </g>
        <g transform="matrix(1.4191,0,0,1.36338,715.34,604.047)">
            <path d="M0,-60.055C-13.369,-64.294 -12.403,-53.911 -11.435,-44.97C-10.892,-39.953 -4.725,-30.437 -4.434,-22.979C-3.968,-11.027 -6.156,-0.713 -6.147,0.052C-4.016,2.994 20.445,4.239 24.667,0.731C21.674,-5.826 23.531,-17.407 24.145,-22.837C26.122,-40.342 29.407,-46.744 26.135,-50.621C24.114,-53.016 19.557,-54.462 13.151,-56.252C12.737,-56.236 12.317,-56.229 11.892,-56.229C5.753,-56.229 0.693,-57.901 0,-60.055" style="fill:rgb(57,53,59);"/>
        </g>
        <g transform="matrix(1.4191,0,0,1.36338,757.863,583.675)">
            <path d="M0,-30.484C2.704,-24.661 3.165,-12.822 7.657,-3.099C9.515,0.92 0.889,7.16 -1.521,2.145C-4.908,-4.904 -6.259,-14.265 -7.806,-20.902C-8.468,-23.742 -10.921,-32.459 -9.606,-34.871C-8.628,-36.669 -6.355,-37.644 -4.904,-36.711C-3.268,-35.658 -1.548,-33.818 0,-30.484" style="fill:rgb(57,53,59);"/>
        </g>
        <g transform="matrix(1.4191,0,0,1.36338,705.363,697.671)">
            <path d="M0,-31.462C2.939,-22.184 2.01,-16.784 1.502,-14.314C0.15,-7.741 -1.017,-2.844 -1.229,0.534C-1.639,6.999 0.07,9.77 1.049,21.12C1.293,23.938 1.266,27.38 0.688,28.608C-1.423,33.09 2.418,39.894 5.793,43.857C6.647,44.863 9.795,46.378 12.255,46.714C15.592,47.168 17.851,45.784 17.275,44.081C11.252,42.653 11.153,42.413 10.585,36.985C10.269,33.954 10.18,30.408 10.151,26.471C10.097,18.841 11.883,10.558 12.472,5.986C13.135,0.841 13.375,-4.513 13.721,-9.052C13.899,-11.388 13.899,-28.799 14.515,-37.087C17.6,-78.63 13.851,-75.104 8.063,-75.159C-0.584,-75.24 -8.865,-59.448 0,-31.462" style="fill:rgb(236,184,151);"/>
        </g>
        <g transform="matrix(1.4191,0,0,1.36338,705.363,620.928)">
            <path d="M0,24.827C2.939,34.105 2.01,39.505 1.502,41.975C1.206,43.415 0.919,44.772 0.649,46.052C4.587,46.838 9.098,47.168 13.728,47.141C13.898,44.471 13.906,27.388 14.515,19.202C17.6,-22.341 13.851,-18.815 8.063,-18.87C-0.584,-18.951 -8.865,-3.159 0,24.827" style="fill:rgb(234,173,137);"/>
        </g>
        <g transform="matrix(1.4191,0,0,1.36338,744.919,667.877)">
            <path d="M0,5.611C-1.737,12.241 -5.332,16.8 -4.558,24.665C-4.19,28.389 -4.087,32.341 -4.005,38.316C-3.956,41.79 -4.815,43.762 -5.568,45.03C-6.257,46.187 -7.205,47.323 -7.198,48.44C-7.168,53.536 -0.294,58.21 2.64,62.447C4.485,65.112 12.136,65.534 11.349,62.311C10.298,61.767 8.251,61.919 7.525,61.263C2.96,57.134 4.3,50.842 4.697,44.633C5.745,28.257 11.089,17.855 12.939,4.488C12.979,4.201 5.421,-52.158 -4.007,-53.884C-37,-59.923 0.681,3.01 0,5.611" style="fill:rgb(239,195,169);"/>
        </g>
        <g transform="matrix(1.4191,0,0,1.36338,744.919,594.755)">
            <path d="M0,59.245C-0.595,61.512 -1.405,63.537 -2.185,65.535C3.327,64.836 8.411,63.724 12.223,62.384C12.496,60.99 12.738,59.573 12.939,58.121C12.979,57.834 5.421,1.475 -4.007,-0.251C-37,-6.29 0.681,56.643 0,59.245" style="fill:rgb(234,173,137);"/>
        </g>
        <g transform="matrix(1.4191,0,0,1.36338,708.926,598.788)">
            <path d="M0,-9.596C-0.511,-4.595 -0.481,-5.252 -0.477,-4.825C0.342,-1.575 26.782,0 27.622,-2.606C27.677,-3.934 27.714,-4.623 27.54,-7.281L27.539,-7.282C26.154,-4.986 -0.129,-6.66 0.001,-9.596L0,-9.596Z" style="fill:rgb(235,178,54);"/>
        </g>
        <g transform="matrix(1.4191,0,0,1.36338,789.365,586.815)">
            <path d="M0,-24.616C1.075,-23.832 3.004,-21.566 2.421,-20.762C0.463,-18.06 -1.902,-15.364 -4.155,-12.913C-7.921,-8.817 -12.023,-4.884 -16.43,-1.483C-17.166,-0.915 -18.907,-0.055 -19.83,-0.039C-21.882,0 -23.045,-2.973 -22.57,-4.691C-22.311,-5.631 -21.171,-7.064 -20.376,-7.637C-16.023,-10.77 -11.949,-14.225 -7.935,-17.776C-6.318,-19.205 -4.715,-20.652 -3.085,-22.064C-2.088,-22.93 -1.061,-23.812 0,-24.616" style="fill:rgb(66,62,69);"/>
        </g>
        <g transform="matrix(1.4191,0,0,1.36338,756.864,580.133)">
            <path d="M0,-27.15C0.641,-25.77 1.078,-24.206 1.444,-22.733C1.928,-20.793 2.319,-18.822 2.719,-16.863C3.66,-12.241 4.637,-7.626 6.255,-3.182C6.676,-2.026 7.14,-0.884 7.656,0.233C7.709,0.346 7.744,0.465 7.762,0.59C7.939,1.809 6.655,3.25 5.784,3.94C4.587,4.888 2.132,6.125 1.203,4.193C-2.148,-2.783 -3.224,-11.047 -4.971,-18.543C-5.483,-20.74 -6.063,-22.893 -6.501,-25.113C-6.73,-26.28 -7.478,-30.418 -6.916,-31.449C-6.527,-32.162 -5.18,-33.275 -4.354,-32.743C-2.36,-31.461 -0.977,-29.254 0,-27.15" style="fill:rgb(66,62,69);"/>
        </g>
        <g transform="matrix(1.17932,-0.758349,-0.789343,-1.13301,778.858,648.353)">
            <path d="M-18.356,-9.825C-5.491,6.727 1.542,22.934 3.673,44.423C1.222,43.3 -20.097,59.585 -18.356,61.949C-43.159,46.933 -47.598,34.591 -59.792,19.095C-59.575,6.876 -29.029,-9.453 -18.356,-9.825" style="fill:rgb(235,178,54);"/>
        </g>
        <g transform="matrix(1.4191,0,0,1.36338,725.242,750.348)">
            <path d="M0,4.58C1.701,4.517 3.4,4.454 5.102,4.391C5.912,4.466 6.529,4.703 6.989,5.071C7.93,5.822 7.634,5.952 7.025,6.719C5.41,8.757 3.713,10.455 1.922,11.74C-0.323,13.349 -2.276,12.532 -3.707,10.431C-7.735,4.518 -6.1,5.261 -13.12,4.284C-18.605,2.424 -17.926,-6.17 -13.775,-8.769C-7.727,-6.475 -6.378,1.696 -2.68,6.929C0.108,8.515 2.129,6.326 2.685,5.997C1.616,5.641 0.705,5.349 0,4.58" style="fill:rgb(226,140,167);"/>
        </g>
        <g transform="matrix(-1.24918,-0.646912,-0.673352,1.20013,713.995,754.718)">
            <path d="M-9.367,5.04L-2.353,5.04L1.272,2.364C-2.204,1.082 -1.895,1.637 -7.141,4.359C-7.912,4.758 -8.663,4.996 -9.367,5.04" style="fill:rgb(216,89,128);"/>
        </g>
        <g transform="matrix(0,1.36338,1.4191,0,716.244,762.885)">
            <path d="M-4.881,-6.427L6.427,-6.427L6.427,-4.88L-4.68,-4.88L-4.881,-6.427Z" style="fill:rgb(226,140,167);"/>
        </g>
        <g transform="matrix(1.4191,0,0,1.36338,707.125,770.781)">
            <path d="M0,-10.672L0,0.635L-1.604,-0.15L-1.604,-11.307C-1.229,-11.07 -0.814,-10.87 -0.354,-10.719L0,-10.672Z" style="fill:rgb(216,89,128);"/>
        </g>
        <g transform="matrix(1.4191,0,0,1.36338,756.136,741.746)">
            <path d="M0,7.316C1.699,7.366 3.073,7.423 4.773,7.474C5.578,7.601 6.179,7.879 6.613,8.278C7.501,9.09 7.197,9.199 6.539,9.923C4.793,11.85 2.986,13.432 1.113,14.595C-1.233,16.051 -3.128,15.107 -4.417,12.916C-8.043,6.747 -6.46,7.597 -13.399,6.157C-17.501,4.453 -17.884,-2.243 -15.821,-5.718C-14.034,-8.735 -11.761,-6.52 -9.992,-4.456C-7.371,-1.398 -6.195,3.241 -4.376,7.177C-3.718,8.601 -3.438,9.69 -1.823,10.091C0.216,10.601 1.779,9.157 2.256,8.917C2.958,8.083 0.565,7.572 0,7.316" style="fill:rgb(226,140,167);"/>
        </g>
        <g transform="matrix(-1.20156,-0.725401,-0.755049,1.15438,745.083,749.025)">
            <path d="M-9.112,5.301L-2.098,5.301L1.527,2.625C-1.948,1.344 -1.639,1.9 -6.886,4.621C-7.655,5.019 -8.408,5.257 -9.112,5.301" style="fill:rgb(216,89,128);"/>
        </g>
        <g transform="matrix(-0.0941542,1.36038,1.41598,0.0904571,746.471,758.224)">
            <path d="M-5.431,-6.616L6.189,-6.616L6.19,-5.069L-5.224,-5.069L-5.431,-6.616Z" style="fill:rgb(226,140,167);"/>
        </g>
        <g transform="matrix(1.4191,0,0,1.36338,737.615,765.013)">
            <path d="M0,-10.838L-0.771,0.757L-2.318,-0.154L-1.556,-11.595C-1.198,-11.328 -0.797,-11.096 -0.348,-10.909L0,-10.838Z" style="fill:rgb(216,89,128);"/>
        </g>
        <g transform="matrix(1.4191,0,0,1.36338,757.269,600.468)">
            <path d="M0,55.78C0.93,34.44 -1.41,16.405 -8.562,-3.073C-13.765,-2.279 -26.905,-3.092 -32.215,-4.692C-40.645,21.978 -38.38,35.631 -39.521,56.32C-39.488,56.384 -39.451,56.447 -39.418,56.51C-29.296,60.472 -10.508,59.029 0,55.78" style="fill:rgb(241,204,54);"/>
        </g>
        <g transform="matrix(1.4191,0,0,1.36338,713.617,536.072)">
            <path d="M0,32.256C0.281,28.897 0.385,25.519 0.253,22.15C0.141,19.279 -0.824,16.36 -1.858,13.7C-2.623,11.734 -3.487,9.809 -4.279,7.854C-4.776,6.627 -5.432,5.05 -5.572,3.736C-5.64,3.126 -5.704,2.516 -5.763,1.904C-6.439,-5.148 -3.657,-5.322 1.309,-5.098C9.194,-4.742 21.086,-0.502 22.011,0.594C22.123,0.727 22.221,0.869 22.303,1.022C23.057,2.431 22.48,5.533 22.226,7.067C21.879,9.155 21.481,11.236 21.13,13.323C20.639,16.242 20.216,19.175 19.885,22.117C19.498,25.545 19.18,30.852 19.164,34.787C19.152,37.578 14.29,37.224 8.951,36.797C4.902,36.472 -0.297,35.815 0,32.256" style="fill:rgb(66,62,69);"/>
        </g>
        <g transform="matrix(1.4191,0,0,1.36338,734.147,482.301)">
            <path d="M0,35.691C-0.542,33.619 -0.021,28.318 0.576,26.034C3.165,26.505 5.787,27.754 7.684,22.781C8.188,21.457 9.324,18.004 9.437,16.666C9.757,12.845 8.433,12.774 8.393,11.68C8.354,10.625 9.159,9.082 9.059,8.194C8.488,3.225 6.99,0.754 5.09,-0.626C-0.219,0.871 -5.525,2.366 -10.834,3.862C-11.015,12.843 -11.69,24.166 -13.892,32.279C-9.816,35.36 -5.784,36.317 0,35.691" style="fill:rgb(229,193,175);"/>
        </g>
        <g transform="matrix(1.4191,0,0,1.36338,739.715,511.685)">
            <path d="M0,4.961C-2.887,4.783 -5.936,3.666 -8.13,2.277C-10.011,1.088 -11.266,-0.301 -11.256,-1.467C-12.758,-1.868 -14.212,-2.217 -15.592,-2.512C-15.808,-0.316 -16.074,1.85 -16.403,3.932C-14.706,4.541 -12.877,5.137 -10.961,5.696C-8.47,6.424 -6.072,7.019 -3.874,7.473C-3.729,6.299 -3.543,5.229 -3.348,4.482C-2.217,4.688 -1.08,5.041 0,4.961" style="fill:rgb(215,179,162);"/>
        </g>
        <g transform="matrix(1.4191,0,0,1.36338,739.161,491.864)">
            <path d="M0,19.509C1.541,19.53 2.984,18.827 4.15,15.767C4.655,14.443 5.791,10.99 5.903,9.652C6.224,5.831 4.899,5.76 4.859,4.666C4.82,3.611 5.626,2.068 5.525,1.18C4.215,0.311 1.508,-0.021 -0.882,0.611C-2.283,0.98 -0.354,3.126 -0.685,5.314C-0.828,6.267 -3.564,6.798 -3.574,7.914C-3.612,12.414 -2.65,17.675 0,19.509" style="fill:rgb(235,209,196);"/>
        </g>
        <g transform="matrix(1.4191,0,0,1.36338,724.03,543.246)">
            <path d="M0,-49.989C4.557,-50.505 11.73,-51.803 13.306,-47.247C14.383,-44.127 17.186,-38.478 12.992,-32.59C3.748,-18.471 8.565,-14.542 8.624,0.65C6.596,1.263 4.39,1.615 2.122,1.72L1.578,-0.624L1.309,1.747C-1.925,1.814 -5.248,1.39 -8.328,0.521L-8.398,-3.239L-8.729,0.404C-10.537,-0.134 -12.254,-0.824 -13.811,-1.66L-13.855,-9.313L-14.604,-2.106C-15.243,-2.484 -15.85,-2.886 -16.42,-3.314C-17.014,-14.93 -15.951,-48.186 0,-49.989" style="fill:rgb(48,30,30);"/>
        </g>
        <g transform="matrix(1.4191,0,0,1.36338,718.527,478.151)">
            <path d="M0,49.188C-0.75,34.391 1.745,2.795 14.636,0.781C15.45,0.653 16.323,0.568 17.227,0.528C23.075,-0.34 23.441,6.558 19.591,12.631C17.917,15.272 16.562,16.461 14.968,19.682C10.435,28.842 12.454,36.026 12.502,48.395C10.474,49.008 8.268,49.361 6,49.465L5.456,47.122L5.187,49.493C3.468,49.528 1.722,49.425 0,49.188" style="fill:rgb(63,38,38);"/>
        </g>
        <g transform="matrix(1.4191,0,0,1.36338,741.13,527.826)">
            <path d="M0,-35.816C-17.327,-45.015 -27.517,-26.253 -26.811,9.112L-26.663,9.199C-23.927,-21.553 -17.854,-41.156 0,-35.816" style="fill:rgb(59,36,36);"/>
        </g>
        <g transform="matrix(-1.35798,-0.395809,-0.411986,1.30466,711.742,540.973)">
            <path d="M-8.672,-50.307C2.382,-41.058 1.165,-27.148 -7.774,1.141C-8.074,1.07 -8.374,0.998 -8.672,0.92C-3.21,-23.243 -0.09,-33.817 -8.674,-50.308L-8.672,-50.307Z" style="fill:rgb(75,45,45);"/>
        </g>
        <g transform="matrix(1.4191,0,0,1.36338,744.25,545.045)">
            <path d="M0,-48.61C0.987,-41.916 -5.043,-39.689 -8.792,-29.707C-11.242,-23.182 -11.622,-13.713 -8.452,0C-8.342,-0.019 -8.231,-0.04 -8.121,-0.061C-10.181,-12.379 -8.636,-21.663 -6.25,-28.693C-4.479,-33.914 -1.793,-35.192 0.146,-37.989C2.512,-41.406 3.705,-45.956 0.001,-48.61L0,-48.61Z" style="fill:rgb(75,45,45);"/>
        </g>
        <g transform="matrix(1.4191,0,0,1.36338,741.13,542.489)">
            <path d="M0,-46.571C-17.998,-47.53 -21.772,-31.152 -21.345,0.785C-21.157,0.844 -20.969,0.903 -20.779,0.959L-20.448,-2.683L-20.426,-1.471C-17.937,-28.232 -14.578,-46.492 0,-46.571" style="fill:rgb(59,36,36);"/>
        </g>
        <g transform="matrix(1.4191,0,0,1.36338,938.645,360.901)">
            <path d="M0,-27.937L-13.383,-7.929L-17.799,-24.619L-21.595,-22.435L-15.496,-1.183L-13.438,0L2.715,-25.024L0,-27.937Z" style="fill:rgb(57,53,59);"/>
        </g>
    </g>
</svg>
