<?xml version="1.0" encoding="UTF-8" standalone="no"?>
<!DOCTYPE svg PUBLIC "-//W3C//DTD SVG 1.1//EN" "http://www.w3.org/Graphics/SVG/1.1/DTD/svg11.dtd">
<svg width="100%" height="100%" viewBox="0 0 737 586" version="1.1" xmlns="http://www.w3.org/2000/svg" xmlns:xlink="http://www.w3.org/1999/xlink" xml:space="preserve" xmlns:serif="http://www.serif.com/" style="fill-rule:evenodd;clip-rule:evenodd;stroke-linejoin:round;stroke-miterlimit:2;">
    <g id="画板1" transform="matrix(0.946802,0,0,0.94432,-333.789,-154.748)">
        <rect x="352.544" y="163.873" width="777.666" height="620.303" style="fill:none;"/>
        <clipPath id="_clip1">
            <rect x="352.544" y="163.873" width="777.666" height="620.303"/>
        </clipPath>
        <g clip-path="url(#_clip1)">
            <g transform="matrix(1.05619,0,0,1.05896,-62.9286,-45.3131)">
                <g transform="matrix(-0.513314,-1.23056,-1.23056,0.513314,734.967,389.398)">
                    <path d="M-54.473,-81.744C-87.069,-81.743 -113.494,-55.32 -113.495,-22.724C-113.495,9.875 -87.07,36.299 -54.473,36.3C-21.877,36.3 4.548,9.876 4.548,-22.723C4.549,-55.32 -21.876,-81.744 -54.473,-81.744" style="fill:rgb(255,237,55);fill-rule:nonzero;"/>
                </g>
                <g transform="matrix(0.351457,1.28618,1.28618,-0.351457,661.837,495.86)">
                    <path d="M12.621,-9.634C5.395,-9.634 -0.462,-3.777 -0.461,3.449C-0.462,10.671 5.394,16.531 12.621,16.531C19.846,16.531 25.703,10.671 25.703,3.449C25.703,-3.776 19.847,-9.633 12.621,-9.634" style="fill:rgb(255,237,55);fill-rule:nonzero;"/>
                </g>
                <g transform="matrix(1.33333,0,0,1.33333,719.001,504.67)">
                    <path d="M0,-44.384L2.047,-30.703L1.023,-37.543L2.059,-30.705C1.96,-30.69 -7.889,-29.142 -16.933,-24.306C-32.791,-15.826 -31.363,-5.315 -30.894,-1.861L-44.601,0C-46.673,-15.261 -39.046,-28.288 -23.125,-36.68C-12.008,-42.538 -0.486,-44.311 0,-44.384" style="fill:rgb(255,237,55);fill-rule:nonzero;"/>
                </g>
                <g transform="matrix(0.351457,-1.28618,-1.28618,-0.351457,916.555,492.432)">
                    <path d="M-12.62,-9.634C-5.394,-9.634 0.462,-3.776 0.462,3.448C0.463,10.672 -5.395,16.531 -12.62,16.532C-19.846,16.532 -25.703,10.672 -25.703,3.449C-25.702,-3.776 -19.846,-9.632 -12.62,-9.634" style="fill:rgb(255,237,55);fill-rule:nonzero;"/>
                </g>
                <g transform="matrix(1.33333,0,0,1.33333,859.392,501.242)">
                    <path d="M0,-44.385L-2.048,-30.704L-1.024,-37.545L-2.059,-30.706C-1.961,-30.691 7.889,-29.143 16.932,-24.306C32.79,-15.827 31.363,-5.316 30.894,-1.862L44.601,0C46.673,-15.262 39.045,-28.289 23.125,-36.68C12.007,-42.54 0.485,-44.312 0,-44.385" style="fill:rgb(255,237,55);fill-rule:nonzero;"/>
                </g>
                <g transform="matrix(0.539881,-1.21914,-1.21914,-0.539881,808.731,426.034)">
                    <path d="M5.796,7.104L10.407,7.104C10.408,3.655 10.549,-5.921 11.197,-8.781L6.701,-9.8C5.822,-5.921 5.796,5.783 5.796,7.104" style="fill:rgb(229,94,42);fill-rule:nonzero;"/>
                </g>
                <g transform="matrix(-1.27103,0.402816,0.402816,1.27103,756.751,418.495)">
                    <rect x="-14.99" y="-2.318" width="14.636" height="4.61" style="fill:rgb(229,94,42);"/>
                </g>
                <g transform="matrix(-0.107545,-1.32899,-1.32899,0.107545,833.886,433.691)">
                    <path d="M-14.656,-15.891C-22.777,-15.89 -29.36,-9.306 -29.36,-1.186C-29.36,6.934 -22.776,13.518 -14.656,13.517C-6.536,13.517 0.047,6.934 0.048,-1.187C0.047,-9.307 -6.537,-15.891 -14.656,-15.891" style="fill:rgb(255,213,0);fill-rule:nonzero;"/>
                </g>
                <g transform="matrix(-0.107549,-1.32899,-1.32899,0.107549,739.497,430.169)">
                    <path d="M-14.656,-15.889C-22.776,-15.889 -29.36,-9.306 -29.359,-1.185C-29.359,6.934 -22.775,13.519 -14.656,13.518C-6.536,13.518 0.048,6.934 0.047,-1.185C0.048,-9.306 -6.536,-15.888 -14.656,-15.889" style="fill:rgb(255,213,0);fill-rule:nonzero;"/>
                </g>
                <g transform="matrix(0.129853,-1.327,-1.327,-0.129853,814.892,428.542)">
                    <path d="M-6.478,-5.875C-12.606,-5.876 -17.573,-2.961 -17.573,0.634C-17.572,4.229 -12.607,7.143 -6.478,7.144C-0.349,7.143 4.617,4.23 4.618,0.633C4.618,-2.961 -0.349,-5.876 -6.478,-5.875" style="fill:rgb(229,94,42);fill-rule:nonzero;"/>
                </g>
                <g transform="matrix(0.129761,-1.327,-1.327,-0.129761,769.268,427.023)">
                    <path d="M-6.48,-5.875C-12.607,-5.877 -17.574,-2.96 -17.575,0.636C-17.574,4.23 -12.607,7.144 -6.48,7.143C-0.351,7.144 4.616,4.23 4.615,0.635C4.616,-2.961 -0.352,-5.875 -6.48,-5.875" style="fill:rgb(229,94,42);fill-rule:nonzero;"/>
                </g>
                <g transform="matrix(0,-1.33333,-1.33333,0,790.89,442.668)">
                    <path d="M-11.371,-11.371C-14.814,-11.371 -17.605,-6.28 -17.605,-0C-17.605,6.281 -14.814,11.371 -11.371,11.371C-7.928,11.371 -5.138,6.281 -5.138,-0C-5.138,-6.28 -7.928,-11.371 -11.371,-11.371" style="fill:rgb(243,152,0);fill-rule:nonzero;"/>
                </g>
                <g transform="matrix(1.33333,0,0,1.33333,846.226,418.329)">
                    <path d="M0,-12.431C0,-12.431 6.412,-1.711 0.641,-0.855C-5.13,0 -1.283,-9.012 0,-12.431" style="fill:white;fill-rule:nonzero;"/>
                </g>
                <g transform="matrix(1.33333,0,0,1.33333,836.638,431.127)">
                    <path d="M0,-12.431C0,-12.431 6.412,-1.71 0.641,-0.855C-5.129,0 -1.282,-9.011 0,-12.431" style="fill:white;fill-rule:nonzero;"/>
                </g>
                <g transform="matrix(1.33333,0,0,1.33333,743.918,418.329)">
                    <path d="M0,-12.431C0,-12.431 6.413,-1.711 0.641,-0.855C-5.13,0 -1.282,-9.012 0,-12.431" style="fill:white;fill-rule:nonzero;"/>
                </g>
                <g transform="matrix(1.33333,0,0,1.33333,740.253,498.824)">
                    <path d="M0,-12.431C0,-12.431 6.413,-1.71 0.642,-0.855C-5.129,0 -1.282,-9.011 0,-12.431" style="fill:white;fill-rule:nonzero;"/>
                </g>
                <g transform="matrix(1.33333,0,0,1.33333,815.203,513.491)">
                    <path d="M0,-12.431C0,-12.431 6.412,-1.71 0.641,-0.855C-5.13,0 -1.283,-9.011 0,-12.431" style="fill:white;fill-rule:nonzero;"/>
                </g>
                <g transform="matrix(1.33333,0,0,1.33333,1105.26,347.948)">
                    <path d="M0,-9.284C-7.119,-10.109 -18.512,-6.289 -21.795,-9.377C-20.998,-13.375 -22.015,-17.353 -24.317,-20.602C-22.312,-28.126 -14.276,-34.756 -8.579,-35.893C-2.729,-37.059 7.032,-46.2 -3.429,-52.625C-10.24,-56.808 -16.016,-51.227 -17.783,-44.475C-18.594,-41.396 -20.605,-31.844 -26.164,-31.117C-28.15,-36.113 -34.966,-42.99 -40.324,-41.599C-41.795,-47.414 -56.676,-54.089 -58.116,-54.033C-61.736,-57.017 -62.363,-87.149 -59.081,-96.104C-56.582,-102.92 -63.61,-108.694 -69.667,-108.312C-73.171,-108.093 -80.469,-102.724 -75.608,-94.293C-70.746,-85.863 -61.077,-82.539 -68.917,-60.067C-70.231,-60.682 -85.984,-59.877 -86.257,-60.004C-90.75,-63.564 -93.65,-70.924 -95.232,-78.206C-96.107,-82.23 -93.027,-101.116 -105.787,-98.88C-119.046,-96.556 -109.594,-80.391 -107.501,-78.16C-104.66,-75.13 -97.451,-67.204 -98.606,-61.154C-101.375,-60.433 -103.867,-59.062 -105.827,-57.188C-113.209,-59.619 -122.53,-56.393 -125.964,-51.032C-126.089,-50.997 -130.352,-72.257 -131.604,-74.981C-132.755,-77.486 -134.545,-79.138 -137.353,-79.885C-140.648,-80.761 -144.602,-80.793 -146.468,-77.763C-148.076,-75.154 -147.308,-71.528 -146.562,-68.734C-145.704,-65.508 -134.649,-47.631 -133.992,-46.045C-135.523,-44.257 -136.617,-42.11 -137.104,-39.699C-137.433,-38.062 -137.454,-36.428 -137.211,-34.845C-138.553,-34.596 -139.84,-34.196 -141.048,-33.663C-145.204,-38.627 -150.112,-43.077 -156.091,-45.717C-160.974,-47.872 -166.378,-48.164 -171.312,-46.34C-176.255,-44.514 -180.842,-40.138 -179.756,-34.72C-178.915,-30.514 -174.056,-26.042 -169.311,-26.22C-165.405,-26.367 -163.047,-30.048 -159.309,-30.614C-155.168,-31.24 -151.072,-30.477 -147.871,-27.909C-148.774,-26.492 -150.084,-20.878 -150.027,-19.742C-153.496,-17.639 -156.046,-14.317 -156.867,-10.248C-157.878,-5.228 -156.024,-0.236 -152.356,3.32C-152.361,9.377 -163.843,20.898 -169.601,22.76C-172.649,23.746 -177.155,30.742 -172.909,36.714C-168.664,42.685 -159.082,34.193 -157.75,31.618C-155.927,28.097 -152.843,19.467 -152.562,18.88C-151.629,20.75 -150.302,22.458 -148.66,23.892C-149.79,25.467 -150.605,27.274 -151.005,29.259C-152.668,37.504 -142.041,47.26 -136.444,47.7C-135.788,51.157 -133.852,54.338 -131.025,56.722C-132.73,59.546 -135.763,72.641 -135.336,76.148C-134.513,82.915 -133.189,87.577 -129.675,88.079C-121.318,89.272 -119.844,80.23 -119.963,77.35C-120.104,73.91 -127.343,66.336 -122.34,60.718C-118.976,61.298 -115.682,60.93 -112.793,59.818C-110.953,65.08 -106.104,69.385 -99.78,70.66C-94.579,71.709 -89.502,70.479 -85.786,67.707C-84.651,68.188 -73.932,69.04 -70.561,67.337C-70.116,67.46 -64.601,68.147 -62.445,67.777C-61.874,68.928 -56.29,75.329 -60.18,86.628C-62.505,93.383 -57.728,99.41 -53.685,98.695C-48.829,97.835 -42.239,91.743 -44.95,84.85C-46.257,81.526 -55.144,70.991 -53.756,63.481C-51.698,61.508 -50.225,58.982 -49.639,56.073C-49.628,56.018 -49.62,55.962 -49.61,55.906C-42.745,56.351 -36.464,52.927 -33.724,47.397C-32.517,47.049 -31.365,46.576 -30.292,45.991C-28.867,46.96 -19.591,53.114 -16.106,54.758C-13.503,55.986 -3.067,53.548 -2.366,51.013C-1.5,47.888 -10.732,38.136 -14.193,36.854C-16.914,35.846 -19.73,35.086 -22.584,34.537C-22.414,32.484 -22.706,30.46 -23.391,28.563C-21.672,26.698 -19.732,15.895 -20.914,13.238C-17.686,12.664 -15.109,7.344 -16.414,3.374C-15.162,-2.567 -5.277,-2.767 -0.219,-0.062C1.486,0.85 8.472,11.083 14.033,5.331C17.736,1.501 8.551,-8.293 0,-9.284" style="fill:rgb(182,137,174);fill-rule:nonzero;"/>
                </g>
                <g transform="matrix(1.33333,0,0,1.33333,942.253,355.843)">
                    <path d="M0,-31.513C10.673,-33.434 33.467,-15.88 26.5,-1.732C9.718,1.921 -2.423,-19.492 0,-31.513" style="fill:white;fill-rule:nonzero;"/>
                </g>
                <g transform="matrix(1.33333,0,0,1.33333,1049.6,363.666)">
                    <path d="M0,-21.15C-9.096,-27.057 -36.91,-19.704 -35.969,-3.963C-21.912,5.907 -2.423,-9.129 0,-21.15" style="fill:white;fill-rule:nonzero;"/>
                </g>
                <g transform="matrix(0.380857,-1.27778,-1.27778,-0.380857,1001.01,339.252)">
                    <path d="M-20.996,-23.981C-20.996,-23.981 -29.244,-6.681 -29.003,4.249C-28.602,22.392 -20.996,31.498 -20.996,31.498C-20.996,31.498 -35.425,21.68 -36.063,4.785C-36.702,-12.111 -20.996,-23.981 -20.996,-23.981" style="fill:white;fill-rule:nonzero;"/>
                </g>
                <g transform="matrix(-1.32658,0.134074,0.134074,1.32658,857.786,252.348)">
                    <rect x="-10.493" y="-0.529" width="4.421" height="121.004" style="fill:rgb(144,76,132);"/>
                </g>
                <g transform="matrix(1.33333,0,0,1.33333,872.042,192.658)">
                    <path d="M0,46.163L3.579,37.592L-6.252,-0.446L-9.642,38.31L-4.403,46.609L0,46.163Z" style="fill:rgb(144,76,132);fill-rule:nonzero;"/>
                </g>
                <g transform="matrix(1.33333,0,0,1.33333,1091.29,618.508)">
                    <path d="M0,31.337C-4.529,28.896 -13.139,28.42 -14.509,25.488C-12.917,23.034 -12.537,20.111 -13.209,17.333C-9.877,12.849 -2.757,10.56 1.344,11.315C5.555,12.09 14.49,8.587 9.221,1.525C5.791,-3.073 0.457,-0.885 -2.516,3.148C-3.873,4.986 -7.752,10.822 -11.65,9.831C-11.648,5.972 -14.368,-0.424 -18.309,-0.919C-17.748,-5.186 -25.898,-13.589 -26.872,-13.934C-28.494,-16.885 -20.913,-37.144 -16.347,-42.244C-12.871,-46.126 -16.025,-51.842 -20.165,-53.196C-22.56,-53.98 -28.851,-52.338 -27.847,-45.425C-26.844,-38.512 -21.28,-33.729 -32.474,-20.825C-33.186,-21.585 -43.904,-25.229 -44.053,-25.387C-46.104,-28.954 -46.083,-34.631 -45.206,-39.908C-44.721,-42.823 -37.653,-54.599 -46.755,-56.496C-56.214,-58.467 -54.202,-45.178 -53.399,-43.135C-52.309,-40.359 -49.605,-33.16 -51.983,-29.433C-54.021,-29.687 -56.046,-29.434 -57.85,-28.705C-62.128,-32.286 -69.2,-32.609 -72.914,-29.946C-73.006,-29.956 -70.204,-45.265 -70.315,-47.414C-70.418,-49.39 -71.173,-50.967 -72.847,-52.21C-74.813,-53.669 -77.44,-54.741 -79.49,-53.215C-81.254,-51.902 -81.705,-49.28 -81.95,-47.219C-82.233,-44.84 -79.608,-29.984 -79.59,-28.752C-81.086,-27.967 -82.386,-26.825 -83.351,-25.347C-84.005,-24.343 -84.453,-23.258 -84.711,-22.138C-85.671,-22.329 -86.637,-22.403 -87.583,-22.368C-89.037,-26.782 -91.128,-31.053 -94.414,-34.4C-97.098,-37.134 -100.625,-38.764 -104.399,-38.857C-108.18,-38.952 -112.4,-37.251 -113.115,-33.351C-113.67,-30.323 -111.618,-26.05 -108.406,-24.909C-105.763,-23.97 -103.213,-25.799 -100.57,-25.184C-97.643,-24.502 -95.113,-22.905 -93.66,-20.343C-94.639,-19.638 -97.004,-16.242 -97.267,-15.47C-100.139,-14.989 -102.721,-13.45 -104.349,-10.954C-106.356,-7.875 -106.445,-4.054 -104.943,-0.709C-106.554,3.329 -117.27,7.963 -121.604,7.676C-123.898,7.525 -128.76,10.993 -127.514,16.102C-126.27,21.211 -117.625,18.092 -116.052,16.73C-113.902,14.866 -109.555,9.93 -109.211,9.612C-109.086,11.108 -108.654,12.598 -107.94,13.99C-109.111,14.741 -110.134,15.729 -110.929,16.947C-114.227,22.004 -109.73,31.331 -106.115,33.11C-106.595,35.589 -106.149,38.225 -104.896,40.566C-106.784,41.995 -112.283,49.922 -112.929,52.375C-114.177,57.106 -114.532,60.566 -112.322,61.833C-107.065,64.848 -103.682,59.209 -102.997,57.257C-102.178,54.926 -104.994,47.954 -100.166,45.536C-98.077,46.816 -95.783,47.444 -93.561,47.47C-93.73,51.468 -91.64,55.626 -87.762,58.155C-84.572,60.235 -80.86,60.763 -77.646,59.901C-77.017,60.524 -70.095,63.937 -67.395,63.696C-67.131,63.897 -63.636,65.819 -62.099,66.145C-62.024,67.064 -60,72.815 -65.594,79.317C-68.938,83.205 -67.353,88.492 -64.467,89.088C-61.001,89.804 -54.988,87.491 -54.966,82.175C-54.956,79.611 -58.084,70.226 -55.165,65.587C-53.269,64.817 -51.616,63.524 -50.453,61.741C-50.43,61.707 -50.411,61.671 -50.39,61.636C-45.93,63.756 -40.833,63.14 -37.537,60.18C-36.639,60.269 -35.746,60.259 -34.875,60.154C-34.181,61.179 -29.63,67.745 -27.743,69.767C-26.332,71.276 -18.727,72.421 -17.586,70.917C-16.179,69.064 -19.747,60.108 -21.714,58.335C-23.26,56.941 -24.936,55.686 -26.693,54.563C-26.035,53.238 -25.692,51.811 -25.646,50.364C-24.004,49.577 -19.842,42.888 -19.927,40.802C-17.622,41.277 -14.491,38.413 -14.305,35.42C-11.895,31.79 -5.25,34.281 -2.593,37.428C-1.699,38.489 0.242,47.167 5.479,44.808C8.965,43.238 5.439,34.268 0,31.337" style="fill:rgb(182,137,174);fill-rule:nonzero;"/>
                </g>
                <g transform="matrix(1.33333,0,0,1.33333,988.37,638.373)">
                    <path d="M0,-26.895C7.628,-25.342 18.166,-7.585 9.765,0C-2.396,-2.02 -4.808,-19.523 0,-26.895" style="fill:white;fill-rule:nonzero;"/>
                </g>
                <g transform="matrix(1.33333,0,0,1.33333,1054.21,649.963)">
                    <path d="M0,-3.389C-4.498,-9.743 -24.998,-12.225 -28.549,-1.477C-21.796,8.836 -4.808,3.984 0,-3.389" style="fill:white;fill-rule:nonzero;"/>
                </g>
                <g transform="matrix(0.826504,-1.04626,-1.04626,-0.826504,1029.26,642.896)">
                    <path d="M-14.394,-8.595C-14.394,-8.595 -20.315,3.821 -20.141,11.667C-19.853,24.688 -14.394,31.224 -14.394,31.224C-14.394,31.224 -24.751,24.178 -25.209,12.051C-25.666,-0.075 -14.394,-8.595 -14.394,-8.595" style="fill:white;fill-rule:nonzero;"/>
                </g>
                <g transform="matrix(-1.28198,-0.366461,-0.366461,1.28198,969.021,546.177)">
                    <rect x="8.802" y="-1.233" width="3.196" height="86.85" style="fill:rgb(144,76,132);"/>
                </g>
                <g transform="matrix(1.33333,0,0,1.33333,957.379,500.461)">
                    <path d="M0,32.742L4.663,27.976L8.206,0L-4.344,24.945L-3.054,31.87L0,32.742Z" style="fill:rgb(144,76,132);fill-rule:nonzero;"/>
                </g>
                <g transform="matrix(1.33333,0,0,1.33333,853.653,704.692)">
                    <path d="M0,-72.383C-5.771,-70.327 -13.064,-63.094 -16.749,-64.221C-17.648,-67.587 -19.931,-70.255 -22.922,-71.878C-24.227,-78.404 -20.57,-86.524 -16.63,-89.548C-12.584,-92.653 -8.551,-103.349 -19,-104.324C-25.804,-104.961 -28.125,-98.499 -26.931,-92.653C-26.388,-89.987 -24.324,-81.899 -28.312,-79.242C-31.722,-82.324 -39.546,-85.023 -43.129,-81.933C-46.455,-85.836 -60.388,-85.334 -61.47,-84.747C-65.374,-85.668 -77.237,-108.538 -78.103,-116.645C-78.761,-122.816 -86.332,-124.589 -90.832,-122.009C-93.437,-120.516 -97.005,-113.643 -90.092,-109.014C-83.179,-104.386 -74.51,-105.488 -72.033,-85.294C-73.273,-85.271 -85.049,-78.702 -85.307,-78.696C-90.098,-79.729 -95.101,-84.278 -99.066,-89.264C-101.256,-92.019 -106.029,-107.665 -114.968,-101.132C-124.258,-94.341 -110.904,-85.515 -108.457,-84.594C-105.132,-83.343 -96.61,-79.989 -95.212,-74.913C-97.063,-73.315 -98.456,-71.322 -99.25,-69.145C-105.83,-68.22 -111.758,-62.225 -112.368,-56.817C-112.451,-56.743 -123.75,-71.436 -125.739,-73.052C-127.568,-74.538 -129.564,-75.129 -132,-74.642C-134.858,-74.068 -137.902,-72.599 -138.189,-69.571C-138.437,-66.963 -136.478,-64.472 -134.851,-62.611C-132.974,-60.462 -117.743,-50.927 -116.64,-49.96C-117.139,-48.011 -117.167,-45.951 -116.629,-43.918C-116.263,-42.538 -115.662,-41.278 -114.878,-40.155C-115.813,-39.457 -116.649,-38.664 -117.374,-37.799C-122.437,-40.037 -127.881,-41.595 -133.463,-41.361C-138.021,-41.169 -142.276,-39.351 -145.372,-36.089C-148.472,-32.822 -150.336,-27.734 -147.458,-23.988C-145.224,-21.081 -139.808,-19.487 -136.236,-21.416C-133.296,-23.004 -132.879,-26.718 -130.226,-28.563C-127.288,-30.608 -123.857,-31.57 -120.433,-30.81C-120.59,-29.382 -119.475,-24.581 -119.001,-23.732C-120.868,-20.81 -121.569,-17.298 -120.66,-13.867C-119.54,-9.636 -116.231,-6.508 -112.076,-5.168C-109.792,-0.521 -114.244,12.651 -117.957,16.255C-119.922,18.163 -120.735,25.23 -115.224,28.205C-109.712,31.181 -105.572,21.05 -105.522,18.571C-105.455,15.183 -106.35,7.4 -106.356,6.843C-104.934,7.925 -103.272,8.733 -101.471,9.212C-101.742,10.847 -101.685,12.54 -101.242,14.215C-99.402,21.165 -87.567,24.633 -83.109,22.856C-81.3,25.259 -78.615,26.968 -75.545,27.728C-75.786,30.537 -73.166,41.725 -71.513,44.254C-68.326,49.132 -65.55,52.206 -62.667,51.264C-55.807,49.022 -58.092,41.531 -59.27,39.368C-60.679,36.784 -69.09,33.709 -67.376,27.512C-64.578,26.686 -62.19,25.159 -60.395,23.215C-56.996,26.555 -51.651,28.025 -46.32,26.615C-41.935,25.453 -38.507,22.593 -36.704,19.063C-35.651,19.004 -27.111,15.607 -25.168,13.028C-24.78,12.955 -20.292,11.398 -18.778,10.3C-17.905,10.967 -11.206,13.766 -9.92,23.9C-9.152,29.96 -3.211,32.777 -0.382,30.701C3.017,28.208 5.771,21.046 1.087,16.784C-1.171,14.729 -11.965,10.007 -13.737,3.723C-12.905,1.432 -12.73,-1.061 -13.378,-3.512C-13.39,-3.559 -13.406,-3.605 -13.42,-3.652C-7.988,-5.903 -4.464,-10.901 -4.452,-16.177C-3.656,-16.9 -2.952,-17.698 -2.351,-18.552C-0.891,-18.347 8.546,-17.132 11.84,-17.187C14.301,-17.231 21.382,-23.041 20.962,-25.249C20.446,-27.973 9.681,-31.965 6.543,-31.64C4.077,-31.385 1.63,-30.905 -0.765,-30.248C-1.411,-31.887 -2.399,-33.328 -3.642,-34.525C-3.028,-36.603 -5.62,-45.621 -7.532,-47.211C-5.272,-48.87 -5.306,-53.924 -7.805,-56.477C-9.09,-61.505 -1.586,-65.392 3.317,-65.23C4.968,-65.173 14.19,-59.965 16.283,-66.477C17.675,-70.812 6.932,-74.854 0,-72.383" style="fill:rgb(182,137,174);fill-rule:nonzero;"/>
                </g>
                <g transform="matrix(1.33333,0,0,1.33333,720.436,675.031)">
                    <path d="M0,-16.463C7.46,-21.968 31.57,-17.116 31.571,-3.635C20.081,5.505 2.682,-6.33 0,-16.463" style="fill:white;fill-rule:nonzero;"/>
                </g>
                <g transform="matrix(1.33333,0,0,1.33333,810.931,666.37)">
                    <path d="M0,-27.932C-9.207,-29.026 -27.759,-12.882 -21.091,-1.165C-6.584,1.094 2.683,-17.799 0,-27.932" style="fill:white;fill-rule:nonzero;"/>
                </g>
                <g transform="matrix(-0.222973,-1.31456,-1.31456,0.222973,757.378,653.218)">
                    <path d="M-18.076,-33.956C-18.076,-33.956 -25.128,-19.169 -24.921,-9.825C-24.578,5.685 -18.076,13.469 -18.076,13.469C-18.076,13.469 -30.411,5.076 -30.957,-9.366C-31.502,-23.809 -18.076,-33.956 -18.076,-33.956" style="fill:white;fill-rule:nonzero;"/>
                </g>
                <g transform="matrix(-1.13082,0.706412,0.706412,1.13082,613.583,662.833)">
                    <rect x="-30.898" y="-8.858" width="3.784" height="103.441" style="fill:rgb(144,76,132);"/>
                </g>
                <g transform="matrix(1.33333,0,0,1.33333,644.074,592.047)">
                    <path d="M0,31.377L-0.493,23.452L-22.401,-2.005L-10.36,28.996L-3.208,33.382L0,31.377Z" style="fill:rgb(144,76,132);fill-rule:nonzero;"/>
                </g>
                <g transform="matrix(1.33333,0,0,1.33333,724.429,343.167)">
                    <path d="M0,-60.775C-4.845,-59.049 -10.969,-52.976 -14.063,-53.922C-14.818,-56.749 -16.734,-58.989 -19.246,-60.351C-20.342,-65.831 -17.271,-72.649 -13.963,-75.187C-10.565,-77.794 -7.18,-86.775 -15.953,-87.594C-21.665,-88.128 -23.614,-82.702 -22.612,-77.794C-22.156,-75.555 -20.423,-68.765 -23.771,-66.534C-26.634,-69.122 -33.204,-71.388 -36.212,-68.794C-39.005,-72.07 -50.703,-71.649 -51.611,-71.156C-54.889,-71.93 -64.85,-91.131 -65.577,-97.938C-66.129,-103.12 -72.486,-104.608 -76.265,-102.442C-78.452,-101.189 -81.448,-95.419 -75.644,-91.531C-69.838,-87.645 -62.56,-88.571 -60.48,-71.615C-61.522,-71.595 -71.409,-66.081 -71.625,-66.075C-75.647,-66.943 -79.849,-70.762 -83.178,-74.948C-85.017,-77.262 -89.024,-90.399 -96.53,-84.913C-104.33,-79.211 -93.117,-71.801 -91.063,-71.027C-88.271,-69.978 -81.116,-67.161 -79.942,-62.899C-81.496,-61.558 -82.665,-59.884 -83.333,-58.057C-88.857,-57.28 -93.834,-52.246 -94.346,-47.705C-94.416,-47.644 -103.903,-59.98 -105.573,-61.337C-107.109,-62.585 -108.785,-63.081 -110.83,-62.671C-113.23,-62.19 -115.786,-60.957 -116.026,-58.414C-116.234,-56.224 -114.589,-54.133 -113.224,-52.57C-111.647,-50.765 -98.859,-42.76 -97.933,-41.948C-98.352,-40.312 -98.375,-38.582 -97.924,-36.876C-97.617,-35.717 -97.113,-34.658 -96.454,-33.716C-97.239,-33.129 -97.941,-32.464 -98.549,-31.738C-102.8,-33.616 -107.372,-34.925 -112.058,-34.728C-115.886,-34.567 -119.458,-33.041 -122.057,-30.302C-124.66,-27.558 -126.225,-23.286 -123.809,-20.142C-121.933,-17.701 -117.386,-16.362 -114.387,-17.982C-111.918,-19.315 -111.568,-22.433 -109.34,-23.983C-106.874,-25.7 -103.993,-26.507 -101.118,-25.87C-101.25,-24.671 -100.313,-20.64 -99.917,-19.927C-101.482,-17.473 -102.071,-14.525 -101.308,-11.644C-100.368,-8.091 -97.59,-5.465 -94.101,-4.339C-92.183,-0.438 -95.922,10.622 -99.039,13.647C-100.689,15.249 -101.372,21.183 -96.744,23.681C-92.117,26.179 -88.64,17.672 -88.599,15.592C-88.542,12.747 -89.293,6.213 -89.299,5.745C-88.105,6.654 -86.709,7.332 -85.197,7.734C-85.424,9.107 -85.376,10.529 -85.004,11.934C-83.46,17.77 -73.523,20.682 -69.78,19.19C-68.262,21.207 -66.006,22.642 -63.43,23.281C-63.631,25.639 -61.432,35.033 -60.044,37.156C-57.368,41.251 -55.038,43.833 -52.616,43.042C-46.856,41.16 -48.776,34.87 -49.765,33.054C-50.947,30.884 -58.009,28.303 -56.57,23.099C-54.221,22.405 -52.216,21.123 -50.708,19.492C-47.855,22.295 -43.367,23.529 -38.892,22.346C-35.209,21.371 -32.331,18.969 -30.817,16.005C-29.934,15.955 -22.763,13.104 -21.131,10.937C-20.806,10.877 -17.038,9.569 -15.766,8.647C-15.033,9.207 -9.409,11.558 -8.329,20.067C-7.684,25.154 -2.696,27.519 -0.32,25.777C2.533,23.683 4.845,17.67 0.913,14.092C-0.983,12.366 -10.046,8.401 -11.534,3.126C-10.835,1.203 -10.688,-0.891 -11.232,-2.95C-11.243,-2.989 -11.256,-3.028 -11.268,-3.067C-6.707,-4.957 -3.748,-9.153 -3.737,-13.584C-3.07,-14.19 -2.479,-14.86 -1.973,-15.577C-0.748,-15.405 7.175,-14.384 9.941,-14.432C12.007,-14.467 17.953,-19.346 17.6,-21.201C17.167,-23.487 8.129,-26.839 5.494,-26.566C3.423,-26.352 1.369,-25.949 -0.643,-25.397C-1.185,-26.773 -2.014,-27.984 -3.057,-28.988C-2.543,-30.733 -4.719,-38.305 -6.324,-39.639C-4.427,-41.034 -4.455,-45.276 -6.553,-47.42C-7.632,-51.641 -1.332,-54.905 2.785,-54.769C4.171,-54.721 11.914,-50.348 13.671,-55.816C14.84,-59.456 5.82,-62.85 0,-60.775" style="fill:rgb(182,137,174);fill-rule:nonzero;"/>
                </g>
                <g transform="matrix(1.33333,0,0,1.33333,612.578,318.261)">
                    <path d="M0,-13.822C6.263,-18.445 26.507,-14.371 26.507,-3.052C16.86,4.623 2.251,-5.314 0,-13.822" style="fill:white;fill-rule:nonzero;"/>
                </g>
                <g transform="matrix(1.33333,0,0,1.33333,688.559,310.99)">
                    <path d="M0,-23.453C-7.73,-24.371 -23.308,-10.816 -17.709,-0.979C-5.528,0.918 2.251,-14.945 0,-23.453" style="fill:white;fill-rule:nonzero;"/>
                </g>
                <g transform="matrix(-0.222972,-1.31456,-1.31456,0.222972,643.594,299.947)">
                    <path d="M-15.177,-28.511C-15.177,-28.511 -21.098,-16.094 -20.925,-8.249C-20.636,4.773 -15.177,11.309 -15.177,11.309C-15.177,11.309 -25.533,4.263 -25.992,-7.864C-26.45,-19.99 -15.177,-28.511 -15.177,-28.511" style="fill:white;fill-rule:nonzero;"/>
                </g>
                <g transform="matrix(-1.13081,0.706439,0.706439,1.13081,522.862,308.022)">
                    <rect x="-25.941" y="-7.438" width="3.174" height="86.851" style="fill:rgb(144,76,132);"/>
                </g>
                <g transform="matrix(1.33333,0,0,1.33333,548.462,248.587)">
                    <path d="M0,26.345L-0.414,19.69L-18.808,-1.683L-8.699,24.345L-2.693,28.028L0,26.345Z" style="fill:rgb(144,76,132);fill-rule:nonzero;"/>
                </g>
                <g transform="matrix(1.33333,0,0,1.33333,620.082,491.789)">
                    <path d="M0,-6.355C-6.405,-7.218 -16.737,-3.962 -19.647,-6.801C-18.863,-10.391 -19.713,-13.996 -21.733,-16.962C-19.802,-23.711 -12.448,-29.557 -7.293,-30.486C-1.999,-31.44 6.952,-39.519 -2.371,-45.484C-8.441,-49.369 -13.742,-44.434 -15.448,-38.376C-16.229,-35.614 -18.203,-27.035 -23.226,-26.473C-24.933,-31.01 -30.964,-37.322 -35.816,-36.158C-37.047,-41.424 -50.352,-47.689 -51.649,-47.662C-54.864,-50.413 -54.93,-77.587 -51.822,-85.605C-49.456,-91.709 -55.696,-97.031 -61.162,-96.788C-64.326,-96.648 -70.994,-91.93 -66.75,-84.248C-62.507,-76.567 -53.847,-73.41 -61.288,-53.281C-62.462,-53.858 -76.676,-53.393 -76.921,-53.512C-80.912,-56.796 -83.404,-63.48 -84.71,-70.07C-85.432,-73.713 -82.342,-90.688 -93.882,-88.884C-105.874,-87.009 -97.621,-72.279 -95.771,-70.232C-93.26,-67.453 -86.893,-60.189 -88.035,-54.754C-90.543,-54.151 -92.812,-52.956 -94.609,-51.3C-101.225,-53.613 -109.681,-50.859 -112.866,-46.083C-112.979,-46.054 -116.47,-65.291 -117.553,-67.768C-118.549,-70.045 -120.135,-71.563 -122.654,-72.284C-125.611,-73.128 -129.175,-73.223 -130.907,-70.522C-132.4,-68.196 -131.768,-64.915 -131.143,-62.384C-130.421,-59.461 -120.752,-43.161 -120.186,-41.72C-121.596,-40.134 -122.619,-38.217 -123.097,-36.051C-123.42,-34.582 -123.467,-33.108 -123.274,-31.677C-124.488,-31.475 -125.655,-31.135 -126.752,-30.675C-130.417,-35.22 -134.768,-39.313 -140.114,-41.792C-144.48,-43.815 -149.347,-44.168 -153.827,-42.606C-158.312,-41.043 -162.52,-37.173 -161.632,-32.271C-160.943,-28.466 -156.637,-24.352 -152.356,-24.435C-148.832,-24.501 -146.646,-27.782 -143.266,-28.23C-139.523,-28.726 -135.842,-27.969 -132.999,-25.602C-133.837,-24.339 -135.113,-19.3 -135.079,-18.275C-138.241,-16.437 -140.595,-13.483 -141.402,-9.828C-142.397,-5.321 -140.808,-0.789 -137.562,2.477C-137.666,7.937 -148.208,18.134 -153.43,19.716C-156.195,20.555 -160.373,26.788 -156.645,32.241C-152.917,37.695 -144.138,30.199 -142.893,27.899C-141.192,24.756 -138.269,17.027 -138.005,16.501C-137.195,18.204 -136.028,19.765 -134.57,21.084C-135.615,22.487 -136.38,24.101 -136.774,25.885C-138.41,33.291 -128.991,42.262 -123.953,42.751C-123.419,45.878 -121.727,48.779 -119.217,50.975C-120.801,53.492 -123.753,65.247 -123.426,68.416C-122.796,74.53 -121.681,78.754 -118.522,79.266C-111.007,80.48 -109.528,72.353 -109.587,69.755C-109.658,66.651 -116.057,59.704 -111.454,54.721C-108.432,55.3 -105.456,55.023 -102.833,54.069C-101.261,58.842 -96.961,62.804 -91.282,64.06C-86.609,65.091 -82.013,64.067 -78.617,61.628C-77.601,62.082 -67.952,63.027 -64.884,61.547C-64.485,61.667 -59.525,62.377 -57.575,62.08C-57.079,63.126 -52.152,68.99 -55.846,79.111C-58.054,85.164 -53.848,90.676 -50.191,90.097C-45.8,89.404 -39.756,84.021 -42.086,77.762C-43.21,74.743 -51.046,65.097 -49.67,58.351C-47.783,56.606 -46.413,54.353 -45.836,51.742C-45.824,51.691 -45.817,51.641 -45.808,51.591C-39.627,52.106 -33.907,49.124 -31.344,44.184C-30.25,43.891 -29.204,43.483 -28.228,42.974C-26.958,43.871 -18.699,49.573 -15.584,51.112C-13.256,52.262 -3.809,50.238 -3.134,47.965C-2.302,45.162 -10.464,36.216 -13.563,35.003C-15.998,34.05 -18.523,33.318 -21.087,32.775C-20.9,30.927 -21.129,29.097 -21.715,27.375C-20.137,25.723 -18.206,16.017 -19.23,13.603C-16.31,13.138 -13.897,8.384 -15.007,4.784C-13.781,-0.551 -4.867,-0.569 -0.349,1.955C1.172,2.806 7.298,12.147 12.409,7.053C15.811,3.661 7.692,-5.32 0,-6.355" style="fill:rgb(182,137,174);fill-rule:nonzero;"/>
                </g>
                <g transform="matrix(1.33333,0,0,1.33333,473.49,499.337)">
                    <path d="M0,-28.748C9.655,-30.303 29.912,-14.1 23.396,-1.46C8.206,1.555 -2.384,-17.952 0,-28.748" style="fill:white;fill-rule:nonzero;"/>
                </g>
                <g transform="matrix(1.33333,0,0,1.33333,569.905,507.035)">
                    <path d="M0,-18.553C-8.102,-24.029 -33.3,-17.863 -32.712,-3.656C-20.204,5.476 -2.384,-7.757 0,-18.553" style="fill:white;fill-rule:nonzero;"/>
                </g>
                <g transform="matrix(0.404294,-1.27056,-1.27056,-0.404294,526.835,485.132)">
                    <path d="M-18.951,-20.998C-18.951,-20.998 -26.388,-5.4 -26.171,4.456C-25.807,20.814 -18.951,29.025 -18.951,29.025C-18.951,29.025 -31.96,20.172 -32.537,4.938C-33.112,-10.295 -18.951,-20.998 -18.951,-20.998" style="fill:white;fill-rule:nonzero;"/>
                </g>
                <g transform="matrix(-1.32882,0.109594,0.109594,1.32882,399.674,403.9)">
                    <rect x="-8.466" y="-0.349" width="3.989" height="109.106" style="fill:rgb(144,76,132);"/>
                </g>
                <g transform="matrix(1.33333,0,0,1.33333,411.183,350.369)">
                    <path d="M0,41.795L3.369,34.126L-4.863,-0.329L-8.561,34.554L-3.977,42.124L0,41.795Z" style="fill:rgb(144,76,132);fill-rule:nonzero;"/>
                </g>
            </g>
        </g>
    </g>
</svg>
