<?xml version="1.0" encoding="UTF-8" standalone="no"?>
<!DOCTYPE svg PUBLIC "-//W3C//DTD SVG 1.1//EN" "http://www.w3.org/Graphics/SVG/1.1/DTD/svg11.dtd">
<svg width="100%" height="100%" viewBox="0 0 396 249" version="1.1" xmlns="http://www.w3.org/2000/svg" xmlns:xlink="http://www.w3.org/1999/xlink" xml:space="preserve" xmlns:serif="http://www.serif.com/" style="fill-rule:evenodd;clip-rule:evenodd;stroke-linejoin:round;stroke-miterlimit:2;">
    <g id="画板1" transform="matrix(0.586062,0,0,0.415563,-362.091,-94.2335)">
        <rect x="617.838" y="226.761" width="675.326" height="597.199" style="fill:none;"/>
        <g transform="matrix(0.00645922,-3.20848,-2.27506,-0.00910933,951.77,246.033)">
            <path d="M-88.232,-87.981C-136.961,-87.98 -176.463,-48.477 -176.464,0.249C-176.461,48.981 -136.96,88.483 -88.232,88.482C-39.503,88.48 -0,48.979 -0.002,0.248C-0.002,-48.48 -39.502,-87.981 -88.232,-87.981" style="fill:rgb(255,237,55);fill-rule:nonzero;"/>
        </g>
        <g transform="matrix(2.27507,0,0,3.2085,758.315,374.299)">
            <path d="M0,63.96C-3.854,62.28 -7.747,60.141 -11.564,57.43C-29.469,44.72 -40.56,23.39 -44.528,-5.961L-24.037,-8.732C-20.882,14.59 -12.733,31.126 0.194,40.417C16.428,52.089 35.521,48.592 35.713,48.557L39.794,68.826C38.857,69.02 20.018,72.692 0,63.96" style="fill:rgb(255,237,55);fill-rule:nonzero;"/>
        </g>
        <g transform="matrix(0.00645631,-3.20848,-2.27506,-0.00910522,667.445,295.599)">
            <path d="M-19.557,-19.5C-30.359,-19.502 -39.113,-10.745 -39.114,0.055C-39.112,10.859 -30.358,19.612 -19.557,19.614C-8.754,19.616 0.001,10.859 0,0.055C-0.001,-10.744 -8.757,-19.5 -19.557,-19.5" style="fill:rgb(255,237,55);fill-rule:nonzero;"/>
        </g>
        <g transform="matrix(0.00645631,-3.20848,-2.27506,-0.00910522,1242.2,501.164)">
            <path d="M-19.556,-19.503C-30.358,-19.503 -39.115,-10.747 -39.112,0.054C-39.114,10.854 -30.358,19.61 -19.556,19.611C-8.754,19.61 0,10.852 0,0.053C-0,-10.748 -8.754,-19.501 -19.556,-19.503" style="fill:rgb(255,237,55);fill-rule:nonzero;"/>
        </g>
        <g transform="matrix(2.27507,0,0,3.2085,1078.79,594.047)">
            <path d="M0,46.849L2.497,26.321L1.247,36.585L2.479,26.32C2.627,26.337 17.435,28.028 32.394,24.66C58.618,18.756 60.746,3.042 61.444,-2.121L81.937,0.655C78.847,23.47 62.667,39.204 36.387,44.955C18.035,48.97 0.728,46.938 0,46.849" style="fill:rgb(255,237,55);fill-rule:nonzero;"/>
        </g>
        <g transform="matrix(0.174944,-3.199,-2.26834,-0.246721,1037.39,513.686)">
            <path d="M8.976,15.112L15.869,15.112C15.87,9.958 16.087,-4.361 17.056,-8.633L10.335,-10.157C9.019,-4.361 8.977,13.135 8.976,15.112" style="fill:rgb(229,94,42);fill-rule:nonzero;"/>
        </g>
        <g transform="matrix(-1.49462,-2.41898,-1.71525,2.10783,940.454,372.24)">
            <rect x="-15.531" y="7.065" width="21.881" height="6.894" style="fill:rgb(229,94,42);"/>
        </g>
        <g transform="matrix(0.709839,-3.04833,-2.1615,-1.00107,1080.61,564.119)">
            <path d="M-20.883,-15.123C-33.022,-15.122 -42.863,-5.28 -42.862,6.86C-42.862,18.999 -33.021,28.84 -20.883,28.838C-8.743,28.838 1.096,18.996 1.098,6.858C1.096,-5.282 -8.744,-15.123 -20.883,-15.123" style="fill:rgb(255,213,0);fill-rule:nonzero;"/>
        </g>
        <g transform="matrix(0.709901,-3.0483,-2.16148,-1.00116,862.149,420.818)">
            <path d="M-20.885,-15.123C-33.024,-15.122 -42.865,-5.281 -42.864,6.859C-42.865,18.997 -33.024,28.838 -20.885,28.837C-8.745,28.839 1.097,18.998 1.094,6.86C1.097,-5.28 -8.746,-15.12 -20.885,-15.123" style="fill:rgb(255,213,0);fill-rule:nonzero;"/>
        </g>
        <g transform="matrix(1.08173,-2.82261,-2.00145,-1.52555,1029.25,517.571)">
            <path d="M-8.56,-5.104C-17.721,-5.105 -25.149,-0.745 -25.146,4.627C-25.146,10 -17.721,14.358 -8.56,14.359C0.601,14.357 8.026,10.001 8.027,4.625C8.028,-0.75 0.601,-5.104 -8.56,-5.104" style="fill:rgb(229,94,42);fill-rule:nonzero;"/>
        </g>
        <g transform="matrix(1.08184,-2.82253,-2.0014,-1.5257,923.476,448.933)">
            <path d="M-8.558,-5.102C-17.718,-5.106 -25.145,-0.747 -25.145,4.629C-25.143,10.003 -17.718,14.357 -8.558,14.357C0.602,14.358 8.028,10.002 8.027,4.628C8.029,-0.748 0.604,-5.104 -8.558,-5.102" style="fill:rgb(229,94,42);fill-rule:nonzero;"/>
        </g>
        <g transform="matrix(2.27507,0,0,3.2085,917.007,595.187)">
            <path d="M0,-20.454L23.974,-11.384L5.963,0L0,-20.454Z" style="fill:rgb(243,152,0);fill-rule:nonzero;"/>
        </g>
    </g>
</svg>
