<?xml version="1.0" encoding="UTF-8" standalone="no"?>
<!DOCTYPE svg PUBLIC "-//W3C//DTD SVG 1.1//EN" "http://www.w3.org/Graphics/SVG/1.1/DTD/svg11.dtd">
<svg width="100%" height="100%" viewBox="0 0 458 274" version="1.1" xmlns="http://www.w3.org/2000/svg" xmlns:xlink="http://www.w3.org/1999/xlink" xml:space="preserve" xmlns:serif="http://www.serif.com/" style="fill-rule:evenodd;clip-rule:evenodd;stroke-linejoin:round;stroke-miterlimit:2;">
    <g id="画板1" transform="matrix(0.948894,0,0,0.924465,-556.523,-81.1494)">
        <rect x="586.496" y="87.78" width="481.757" height="295.936" style="fill:none;"/>
        <clipPath id="_clip1">
            <rect x="586.496" y="87.78" width="481.757" height="295.936"/>
        </clipPath>
        <g clip-path="url(#_clip1)">
            <g transform="matrix(-0.179112,-1.43051,-1.39368,0.183845,793.892,96.8309)">
                <path d="M-100.563,-114.313C-156.559,-114.314 -201.95,-68.919 -201.954,-12.927C-201.951,43.075 -156.56,88.464 -100.563,88.466C-44.568,88.468 0.825,43.073 0.826,-12.924C0.826,-68.922 -44.567,-114.313 -100.563,-114.313" style="fill:rgb(255,237,55);fill-rule:nonzero;"/>
            </g>
            <g transform="matrix(1.40514,0,0,1.44227,697.892,178.142)">
                <path d="M0,72.27C-4.641,70.933 -9.399,69.079 -14.157,66.561C-36.456,54.761 -52.285,32.121 -61.202,-0.726L-38.271,-6.952C-31.186,19.147 -19.424,36.767 -3.306,45.418C16.937,56.284 38.17,49.441 38.381,49.372L46.066,71.855C45.027,72.216 24.113,79.222 0,72.27" style="fill:rgb(255,237,55);fill-rule:nonzero;"/>
            </g>
            <g transform="matrix(-0.179168,-1.4305,-1.39367,0.183903,611.275,146.395)">
                <path d="M-22.289,-25.34C-34.702,-25.34 -44.763,-15.278 -44.763,-2.867C-44.762,9.546 -34.701,19.606 -22.289,19.606C-9.878,19.607 0.186,9.545 0.184,-2.869C0.182,-15.277 -9.88,-25.34 -22.289,-25.34" style="fill:rgb(255,237,55);fill-rule:nonzero;"/>
            </g>
            <g transform="matrix(-0.179134,-1.43051,-1.39368,0.183867,1029.21,197.118)">
                <path d="M-22.289,-25.339C-34.701,-25.339 -44.764,-15.278 -44.761,-2.864C-44.763,9.544 -34.701,19.608 -22.289,19.607C-9.877,19.607 0.183,9.542 0.184,-2.866C0.183,-15.277 -9.875,-25.336 -22.289,-25.339" style="fill:rgb(255,237,55);fill-rule:nonzero;"/>
            </g>
            <g transform="matrix(1.40514,0,0,1.44227,934.214,242.642)">
                <path d="M0,64.994L-0.229,41.232L-0.114,53.113L-0.248,41.233C-0.075,41.231 17.049,40.94 33.585,34.864C62.58,24.209 62.651,5.989 62.674,0L86.438,0.096C86.334,26.553 70.257,46.9 41.176,57.389C20.867,64.711 0.842,64.986 0,64.994" style="fill:rgb(255,237,55);fill-rule:nonzero;"/>
            </g>
            <g transform="matrix(-0.0755753,-1.44019,-1.40311,0.0775724,893.431,221.015)">
                <path d="M9.649,19.88L17.569,19.88C17.571,13.956 17.817,-2.496 18.932,-7.408L11.209,-9.159C9.697,-2.497 9.65,17.609 9.649,19.88" style="fill:rgb(229,94,42);fill-rule:nonzero;"/>
            </g>
            <g transform="matrix(-1.05321,-0.95473,-0.930151,1.08104,810.126,158.328)">
                <rect x="-19.373" y="7.33" width="25.143" height="7.92" style="fill:rgb(229,94,42);"/>
            </g>
            <g transform="matrix(0.260734,-1.41723,-1.38074,-0.267623,919.478,241.874)">
                <path d="M-24.821,-20.572C-38.771,-20.571 -50.079,-9.261 -50.079,4.689C-50.079,18.637 -38.771,29.947 -24.821,29.946C-10.872,29.944 0.437,18.636 0.437,4.687C0.437,-9.264 -10.873,-20.572 -24.821,-20.572" style="fill:rgb(255,213,0);fill-rule:nonzero;"/>
            </g>
            <g transform="matrix(0.260744,-1.41723,-1.38074,-0.267634,756.352,189.223)">
                <path d="M-24.82,-20.573C-38.771,-20.573 -50.079,-9.265 -50.078,4.687C-50.077,18.635 -38.77,29.945 -24.82,29.943C-10.871,29.944 0.438,18.634 0.437,4.689C0.437,-9.264 -10.871,-20.572 -24.82,-20.573" style="fill:rgb(255,213,0);fill-rule:nonzero;"/>
            </g>
            <g transform="matrix(0.501419,-1.34732,-1.31263,-0.514668,883.048,223.431)">
                <path d="M-10.445,-7.191C-20.972,-7.191 -29.506,-2.184 -29.505,3.988C-29.505,10.165 -20.972,15.172 -10.445,15.174C0.082,15.174 8.615,10.166 8.616,3.991C8.615,-2.186 0.081,-7.192 -10.445,-7.191" style="fill:rgb(229,94,42);fill-rule:nonzero;"/>
            </g>
            <g transform="matrix(0.501406,-1.34733,-1.31264,-0.514655,804.117,198.314)">
                <path d="M-10.446,-7.19C-20.972,-7.19 -29.505,-2.182 -29.506,3.997C-29.505,10.169 -20.972,15.173 -10.446,15.174C0.08,15.175 8.614,10.17 8.613,3.995C8.615,-2.185 0.081,-7.191 -10.446,-7.19" style="fill:rgb(229,94,42);fill-rule:nonzero;"/>
            </g>
            <g transform="matrix(-0.247328,-1.41976,-1.38321,0.253863,807.439,239.549)">
                <path d="M-19.822,-23.681C-30.504,-23.682 -39.163,-14.665 -39.164,-3.545C-39.163,7.576 -30.504,16.594 -19.822,16.594C-9.141,16.593 -0.481,7.578 -0.48,-3.544C-0.481,-14.665 -9.14,-23.681 -19.822,-23.681" style="fill:rgb(243,152,0);fill-rule:nonzero;"/>
            </g>
        </g>
    </g>
</svg>
