<?xml version="1.0" encoding="UTF-8" standalone="no"?>
<!DOCTYPE svg PUBLIC "-//W3C//DTD SVG 1.1//EN" "http://www.w3.org/Graphics/SVG/1.1/DTD/svg11.dtd">
<svg width="100%" height="100%" viewBox="0 0 180 182" version="1.1" xmlns="http://www.w3.org/2000/svg" xmlns:xlink="http://www.w3.org/1999/xlink" xml:space="preserve" xmlns:serif="http://www.serif.com/" style="fill-rule:evenodd;clip-rule:evenodd;stroke-linejoin:round;stroke-miterlimit:2;">
    <g transform="matrix(0.950952,0,0,0.950952,7.52712,8.52712)">
        <circle cx="86.925" cy="86.925" r="86.925" style="fill:white;"/>
    </g>
    <g transform="matrix(1.33333,0,0,1.33333,87.393,88.562)">
        <path d="M0,11.139C2.204,3.332 -10.964,-3.415 -16.182,-1.449C-16.286,4.858 -8.146,14.554 0,11.139"/>
    </g>
    <g transform="matrix(1.33333,0,0,1.33333,151.288,99.347)">
        <path d="M0,-12.989C-2.812,-13.885 -7.791,-12.861 -7.869,-9.74C-6.838,-7.853 -7.646,-4.922 -9.225,-4.33C-8.38,-3.096 -8.351,2.548 -9.047,3.653C-8.522,4.547 -8.187,5.543 -8.082,6.597C-6.585,6.609 -5.091,6.73 -3.621,6.986C-1.751,7.311 3.83,11.383 3.683,13.043C3.565,14.391 -1.484,16.598 -2.916,16.22C-4.833,15.715 -10.098,13.469 -10.91,13.111C-11.398,13.507 -11.936,13.853 -12.514,14.142C-13.383,17.196 -16.24,19.513 -19.753,19.929C-19.754,19.958 -19.753,19.987 -19.753,20.017C-19.78,21.542 -20.286,22.957 -21.143,24.148C-21.145,28.075 -15.667,32.573 -14.694,34.133C-12.678,37.366 -15.443,41.062 -17.821,41.95C-19.797,42.691 -22.775,40.088 -22.232,36.455C-21.319,30.376 -24.742,27.66 -25.137,27.132C-26.193,27.521 -29.046,27.687 -29.283,27.666C-30.829,28.842 -36.329,29.413 -36.949,29.276C-38.57,31.025 -41.023,32.121 -43.751,32.077C-47.068,32.022 -49.923,30.298 -51.345,27.808C-52.701,28.641 -54.333,29.135 -56.089,29.154C-58.095,32.464 -53.726,35.617 -53.333,37.344C-53.004,38.789 -52.907,43.5 -57.244,43.677C-59.071,43.751 -60.173,41.517 -61.221,38.172C-61.765,36.437 -61.453,29.532 -60.854,27.945C-62.507,27.002 -63.783,25.575 -64.437,23.888C-67.31,24.187 -73.596,20.246 -73.523,15.92C-73.507,14.879 -73.263,13.888 -72.839,12.987C-73.804,12.414 -74.634,11.674 -75.281,10.816C-75.368,11.139 -76.124,15.792 -76.714,17.742C-77.149,19.169 -81.203,24.36 -83.908,21.736C-86.612,19.112 -84.986,15.153 -83.536,14.37C-80.798,12.89 -76.067,5.99 -76.629,2.927C-78.816,1.47 -80.221,-0.88 -80.177,-3.514C-80.144,-5.649 -79.164,-7.567 -77.604,-8.954C-77.74,-9.524 -77.603,-12.486 -77.276,-13.287C-79.136,-14.286 -81.279,-14.29 -83.315,-13.587C-85.153,-12.951 -86,-10.868 -87.962,-10.43C-90.346,-9.897 -93.221,-11.706 -94.04,-13.753C-95.094,-16.392 -93.185,-19.034 -90.855,-20.419C-88.529,-21.803 -85.769,-22.158 -83.095,-21.526C-79.827,-20.748 -76.929,-18.957 -74.362,-16.834C-73.803,-17.216 -73.188,-17.538 -72.533,-17.789C-72.805,-18.567 -72.946,-19.396 -72.934,-20.255C-72.912,-21.519 -72.558,-22.708 -71.951,-23.755C-72.433,-24.495 -79.691,-32.504 -80.428,-34.056C-81.065,-35.399 -81.793,-37.161 -81.223,-38.632C-80.563,-40.338 -78.559,-40.691 -76.81,-40.555C-75.321,-40.44 -74.26,-39.772 -73.445,-38.612C-72.559,-37.352 -68.417,-26.997 -68.355,-27.027C-67.12,-30.059 -62.708,-32.56 -58.748,-32.021C-57.931,-33.151 -56.799,-34.078 -55.466,-34.701C-55.444,-37.868 -59.831,-41.203 -61.553,-42.471C-62.818,-43.403 -69.11,-50.697 -62.62,-53.11C-56.375,-55.432 -56.168,-45.593 -55.353,-43.639C-53.872,-40.105 -51.718,-36.652 -49.111,-35.272C-48.962,-35.233 -41.07,-37.112 -40.349,-36.923C-38.482,-49.021 -43.682,-49.8 -46.929,-53.609C-50.173,-57.419 -46.984,-60.815 -45.231,-61.253C-42.203,-62.012 -38.111,-59.748 -38.738,-56.068C-39.561,-51.232 -36.431,-36.051 -34.32,-34.879C-33.597,-35.044 -25.45,-33.056 -24.161,-30.253C-21.581,-31.456 -17.493,-28.615 -16.022,-26.272C-13.278,-27.159 -13.153,-32.179 -13.032,-33.811C-12.766,-37.392 -10.368,-40.754 -6.532,-39.274C-0.64,-37.002 -4.725,-31.467 -7.574,-30.331C-10.349,-29.223 -13.794,-25.12 -14.105,-21.128C-12.639,-19.699 -11.752,-17.782 -11.782,-15.685C-9.832,-14.429 -4.429,-17.427 -0.75,-17.674C3.667,-17.972 9.228,-13.875 7.712,-11.593C5.436,-8.165 0.948,-12.688 0,-12.989M-45.67,-72.796C-82.287,-72.796 -111.972,-43.112 -111.972,-6.494C-111.972,30.123 -82.287,59.807 -45.67,59.807C-9.053,59.807 20.631,30.123 20.631,-6.494C20.631,-43.112 -9.053,-72.796 -45.67,-72.796"/>
    </g>
    <g transform="matrix(1.33333,0,0,1.33333,100.012,89.609)">
        <path d="M0,10.509C8.032,14.189 16.482,4.764 16.586,-1.543C11.436,-3.68 -1.946,2.635 0,10.509"/>
    </g>
</svg>
