<?xml version="1.0" encoding="UTF-8" standalone="no"?>
<!DOCTYPE svg PUBLIC "-//W3C//DTD SVG 1.1//EN" "http://www.w3.org/Graphics/SVG/1.1/DTD/svg11.dtd">
<svg width="100%" height="100%" viewBox="0 0 180 185" version="1.1" xmlns="http://www.w3.org/2000/svg" xmlns:xlink="http://www.w3.org/1999/xlink" xml:space="preserve" xmlns:serif="http://www.serif.com/" style="fill-rule:evenodd;clip-rule:evenodd;stroke-linejoin:round;stroke-miterlimit:2;">
    <g transform="matrix(1.31493,0,0,1.31493,129,79.4241)">
        <g id="画板1">
            <g>
                <path d="M0,19.034L-18.958,19.034L-18.958,37.994C-18.958,45.655 -28.771,51.023 -36.519,42.217L-36.519,19.034L-59.699,19.034C-68.506,11.29 -63.138,1.477 -55.475,1.477L-36.519,1.477L-36.519,-21.705C-28.771,-30.511 -18.958,-25.144 -18.958,-17.482L-18.958,1.477L4.225,1.477C13.03,9.222 7.663,19.034 0,19.034M-29.543,-58.445C-67.078,-58.445 -97.505,-28.018 -97.505,9.516C-97.505,47.051 -67.078,77.479 -29.543,77.479C7.991,77.479 38.418,47.051 38.418,9.516C38.418,-28.018 7.991,-58.445 -29.543,-58.445" style="fill:white;fill-rule:nonzero;"/>
            </g>
        </g>
    </g>
</svg>
