<?xml version="1.0" encoding="UTF-8" standalone="no"?>
<!DOCTYPE svg PUBLIC "-//W3C//DTD SVG 1.1//EN" "http://www.w3.org/Graphics/SVG/1.1/DTD/svg11.dtd">
<svg width="100%" height="100%" viewBox="0 0 942 608" version="1.1" xmlns="http://www.w3.org/2000/svg" xmlns:xlink="http://www.w3.org/1999/xlink" xml:space="preserve" xmlns:serif="http://www.serif.com/" style="fill-rule:evenodd;clip-rule:evenodd;stroke-linejoin:round;stroke-miterlimit:2;">
    <g id="画板1" transform="matrix(1.01915,0,0,0.841072,-630.724,-89.9177)">
        <g transform="matrix(1.30828,0,0,1.58528,848.481,147.722)">
            <path d="M0,305.338C7.478,302.037 13.948,296.881 17.625,291.003C21.696,284.505 22.463,277.693 23.139,271.106C25.495,248.039 27.421,224.889 28.924,201.682C30.328,180.493 33.767,157.568 31.24,137.123C28.64,116.65 18.304,105.137 28.098,81.89C35.809,62.994 22.876,57.314 13.645,42.616C-10.281,4.542 -14.781,26.781 -33.424,8.803C-36.559,5.745 -40.798,2.242 -46.078,2.228C-52.762,2.203 -57.899,7.594 -64.373,9.068C-71.475,10.676 -77.464,6.519 -82.568,2.776C-89.727,-2.474 -97.173,-4.675 -107.056,-1.255C-105.406,-1.766 -103.762,-2.282 -102.118,-2.808C-121.032,3.012 -113.684,22.331 -129.233,30.03C-135.348,32.981 -143.382,32.293 -148.728,36.03C-156.271,41.265 -154.375,51.793 -160.329,58.52C-173.11,72.732 -174.462,81.723 -173.531,100.292C-173.045,109.225 -181.45,118.573 -166.862,140.312C-155.866,156.615 -141.613,155.74 -136.909,174.679C-135.339,181.012 -134.289,188.157 -130.203,193.889C-125.985,199.821 -117.644,202.719 -112.691,208.108C-109.362,211.739 -108.331,216.278 -106.563,220.512C-101.166,233.484 -88.255,242.97 -78.435,253.785C-67.855,265.48 -58.335,277.454 -48.791,289.529C-41.265,299 -34.571,310.013 -15.972,309.22C-10.58,308.967 -5.063,307.576 0,305.338" style="fill:rgb(87,136,25);fill-rule:nonzero;"/>
        </g>
        <g transform="matrix(1.30828,0,0,1.58528,843.904,175.096)">
            <path d="M0,279.394C6.114,276.625 11.355,272.198 14.267,267.038C17.486,261.332 17.961,255.239 18.361,249.338C19.754,228.688 20.825,207.99 21.577,187.27C22.29,168.349 24.726,148.045 22.203,129.638C19.627,111.215 10.643,100.272 18.551,80.17C24.796,63.862 13.71,57.934 5.622,44.231C-15.354,8.735 -18.807,28.329 -34.922,11.26C-37.634,8.361 -41.292,5.001 -45.76,4.738C-51.416,4.397 -55.644,9.021 -61.071,10.089C-67.024,11.26 -72.152,7.31 -76.533,3.765C-82.675,-1.203 -88.993,-3.419 -97.203,-0.558C-95.83,-0.982 -94.462,-1.41 -93.094,-1.843C-108.822,2.994 -102.17,20.653 -114.951,27.449C-119.969,30.066 -126.684,29.404 -131.026,32.804C-137.149,37.576 -135.264,47.181 -140.004,53.354C-150.177,66.437 -150.999,74.733 -149.643,91.707C-148.96,99.875 -155.589,108.605 -142.856,128.242C-133.269,142.957 -121.538,141.998 -117.059,159.274C-115.564,165.046 -114.471,171.562 -110.922,176.766C-107.258,182.144 -100.292,184.739 -96.038,189.644C-93.18,192.947 -92.188,197.082 -90.598,200.942C-85.746,212.756 -74.804,221.399 -66.374,231.301C-57.288,242.001 -49.072,252.98 -40.831,264.062C-34.332,272.77 -28.493,282.813 -13.126,282.495C-8.672,282.386 -4.139,281.269 0,279.394" style="fill:rgb(109,159,36);fill-rule:nonzero;"/>
        </g>
        <g transform="matrix(1.30828,0,0,1.58528,835.252,272.501)">
            <path d="M0,199.794C4.789,197.679 8.942,194.398 11.313,190.631C13.935,186.465 14.44,182.058 14.885,177.797C16.447,162.868 17.814,147.92 18.98,132.961C20.062,119.297 22.602,104.635 21.212,91.37C19.792,78.093 13.01,70.249 20.021,55.691C25.596,43.892 17,39.658 11.037,29.816C-4.416,4.322 -7.944,18.539 -20.265,6.417C-22.342,4.357 -25.164,1.982 -28.754,1.87C-33.299,1.727 -36.864,5.157 -41.263,6.053C-46.094,7.03 -50.092,4.288 -53.509,1.827C-58.302,-1.626 -63.332,-3.07 -70.039,-0.744C-68.922,-1.093 -67.805,-1.443 -66.689,-1.797C-79.517,2.191 -74.645,14.817 -85.069,20.192C-89.164,22.272 -94.541,22.042 -98.098,24.69C-103.116,28.403 -101.801,35.32 -105.712,40.011C-114.091,49.972 -114.867,56.069 -114.051,68.365C-113.643,74.284 -119.005,80.95 -109.194,94.663C-101.815,104.932 -92.559,103.743 -89.29,116.127C-88.198,120.267 -87.431,124.96 -84.721,128.601C-81.92,132.365 -76.498,133.981 -73.239,137.389C-71.049,139.683 -70.336,142.652 -69.151,145.398C-65.529,153.804 -57.121,159.699 -50.71,166.618C-43.8,174.097 -37.59,181.814 -31.377,189.622C-26.477,195.762 -22.121,202.864 -10.222,202.295C-6.772,202.121 -3.242,201.224 0,199.794" style="fill:rgb(133,182,49);fill-rule:nonzero;"/>
        </g>
        <g transform="matrix(1.30828,0,0,1.58528,828.838,359.482)">
            <path d="M0,131.975C3.453,130.487 6.48,128.242 8.248,125.695C10.201,122.885 10.654,119.941 11.06,117.094C12.485,107.123 13.805,97.149 15.017,87.173C16.132,78.059 18.369,68.281 17.744,59.454C17.098,50.621 12.369,45.422 17.954,35.7C22.417,27.829 16.268,25.027 12.209,18.493C1.688,1.57 -1.39,11.084 -10.087,3.124C-11.557,1.773 -13.567,0.22 -16.215,0.193C-19.566,0.162 -22.301,2.515 -25.572,3.19C-29.164,3.931 -32.038,2.175 -34.498,0.597C-37.938,-1.613 -41.625,-2.468 -46.639,-0.739C-45.805,-1.003 -44.969,-1.266 -44.135,-1.531C-53.716,1.477 -50.411,9.817 -58.198,13.736C-61.253,15.258 -65.203,15.281 -67.87,17.185C-71.626,19.863 -70.781,24.463 -73.723,27.764C-80.023,34.784 -80.666,38.93 -80.232,47.166C-80.013,51.129 -83.987,55.843 -77.019,64.652C-71.785,71.249 -65.071,70.098 -62.862,78.3C-62.125,81.038 -61.628,84.163 -59.718,86.511C-57.742,88.933 -53.856,89.83 -51.554,92.013C-50.006,93.48 -49.533,95.447 -48.714,97.251C-46.22,102.77 -40.256,106.46 -35.755,110.915C-30.905,115.73 -26.569,120.738 -22.245,125.811C-18.83,129.809 -15.828,134.443 -7.335,133.828C-4.873,133.646 -2.337,132.983 0,131.975" style="fill:rgb(158,204,62);fill-rule:nonzero;"/>
        </g>
        <g transform="matrix(1.30828,0,0,1.58528,845.5,462.464)">
            <path d="M0,107.71C2.084,106.739 3.859,105.155 4.828,103.261C5.902,101.164 6.018,98.87 6.118,96.65C6.464,88.872 6.769,81.091 7.027,73.302C7.269,66.189 8.224,58.633 7.407,51.625C6.581,44.616 3.282,40.17 6.457,32.903C9.002,27.028 4.909,24.36 1.989,18.914C-5.577,4.802 -7.177,12.106 -13.2,5.247C-14.218,4.089 -15.602,2.727 -17.33,2.542C-19.525,2.304 -21.199,4.004 -23.301,4.345C-25.608,4.72 -27.57,3.168 -29.255,1.782C-31.611,-0.157 -34.066,-1.038 -37.255,0.079C-36.722,-0.087 -36.192,-0.253 -35.66,-0.422C-41.771,1.479 -39.167,8.26 -44.017,11.003C-45.92,12.073 -48.488,11.921 -50.11,13.322C-52.396,15.294 -51.575,18.984 -53.282,21.489C-56.936,26.825 -57.078,30.108 -56.274,36.668C-55.882,39.826 -58.121,43.438 -53.075,50.679C-49.287,56.101 -45.071,55.447 -43.133,62.049C-42.486,64.258 -41.971,66.755 -40.599,68.693C-39.186,70.698 -36.653,71.572 -35.052,73.401C-33.973,74.633 -33.549,76.216 -32.914,77.682C-30.976,82.167 -26.962,85.362 -23.838,89.112C-20.464,93.16 -17.417,97.346 -14.376,101.587C-11.975,104.93 -9.801,108.748 -4.503,108.745C-2.963,108.743 -1.411,108.366 0,107.71" style="fill:rgb(182,227,75);fill-rule:nonzero;"/>
        </g>
        <g transform="matrix(1.30828,0,0,1.58528,845.328,403.074)">
            <path d="M0,5.107C-1.038,8.895 -1.117,12.652 -1.251,16.194C-1.378,19.742 -1.664,23.264 -3.384,26.574C-4.996,29.908 -8.018,32.981 -11.302,35.9C-14.566,38.855 -18.246,41.666 -21.415,44.898C-24.436,47.881 -26.735,51.194 -28.229,54.572C-32.528,41.227 -36.783,27.858 -41.04,14.495C-40.792,13.936 -40.502,13.389 -40.162,12.857C-38.617,10.289 -36.152,8.116 -33.434,6.106C-30.693,4.113 -27.722,2.242 -24.773,0.183C-21.839,-1.902 -18.996,-4.264 -16.782,-7.097C-15.705,-8.515 -14.813,-10.055 -14.277,-11.645C-13.72,-13.24 -13.551,-14.783 -13.507,-16.221C-13.469,-17.668 -13.53,-19.024 -13.425,-20.376C-13.326,-21.736 -13.177,-23.109 -12.905,-24.492C-11.829,-30.03 -9.312,-35.688 -5.604,-41.12C-10.368,-36.171 -13.771,-30.323 -15.393,-24.447C-16.286,-21.523 -16.438,-18.487 -16.604,-15.775C-16.712,-14.411 -16.872,-13.098 -17.345,-11.848C-17.794,-10.591 -18.539,-9.351 -19.465,-8.161C-23.151,-3.264 -29.551,0.253 -35.052,4.76C-36.42,5.897 -37.747,7.092 -38.89,8.395C-40.027,9.714 -40.994,11.1 -41.657,12.543C-41.659,12.545 -41.659,12.55 -41.663,12.553C-44.525,3.573 -47.381,-5.406 -50.271,-14.374C-49.323,-16.158 -48.171,-17.893 -46.887,-19.585C-44.481,-22.863 -41.734,-26.047 -39.422,-29.53C-38.228,-31.247 -37.213,-33.074 -36.393,-34.95C-35.63,-36.841 -35.073,-38.804 -34.992,-40.75C-34.794,-44.697 -36.444,-47.929 -36.821,-51.197C-37.309,-54.462 -36.755,-57.983 -35.77,-61.52C-34.828,-65.072 -33.378,-68.652 -32.1,-72.295C-30.783,-75.933 -29.551,-79.647 -28.919,-83.381C-28.313,-87.096 -28.371,-90.871 -29.743,-94.063C-29.051,-90.614 -29.43,-86.963 -30.426,-83.366C-31.389,-79.756 -32.904,-76.185 -34.419,-72.596C-35.978,-69.014 -37.512,-65.385 -38.691,-61.668C-39.824,-57.961 -40.494,-54.103 -40.006,-50.407C-39.473,-46.736 -37.917,-43.624 -38.042,-40.331C-38.046,-38.693 -38.456,-36.99 -39.071,-35.289C-39.77,-33.592 -40.59,-31.885 -41.627,-30.199C-43.653,-26.829 -46.13,-23.497 -48.267,-20.042C-49.17,-18.592 -49.989,-17.089 -50.656,-15.571C-55.114,-29.413 -59.636,-43.233 -64.274,-57.011C-64.002,-60.817 -62.397,-64.669 -60.298,-68.274C-57.247,-73.42 -53.02,-78.276 -49.363,-83.551C-47.572,-86.207 -45.885,-88.962 -44.642,-91.864C-44.035,-93.323 -43.537,-94.845 -43.329,-96.396C-43.1,-97.962 -43.291,-99.475 -43.618,-100.832C-44.316,-103.556 -45.133,-105.989 -45.455,-108.707C-45.855,-111.382 -45.92,-114.15 -45.801,-116.974C-46.595,-114.124 -46.945,-111.242 -46.967,-108.4C-46.957,-106.981 -46.867,-105.573 -46.684,-104.182C-46.511,-102.782 -46.181,-101.456 -46.008,-100.147C-45.831,-98.833 -45.788,-97.565 -46.028,-96.29C-46.266,-95.004 -46.761,-93.691 -47.38,-92.376C-48.61,-89.727 -50.223,-87.132 -52.004,-84.586C-55.492,-79.464 -59.73,-74.46 -62.532,-68.859C-63.913,-66.081 -64.94,-63.196 -65.293,-60.321C-65.304,-60.24 -65.307,-60.154 -65.315,-60.071C-69.708,-73.067 -74.195,-86.033 -78.837,-98.943C-78.354,-101.051 -77.103,-103.056 -75.685,-104.933C-74.621,-106.293 -73.511,-107.584 -72.265,-108.938C-71.057,-110.294 -69.865,-111.715 -68.764,-113.232C-67.715,-114.769 -66.77,-116.428 -66.245,-118.207C-65.738,-119.975 -65.767,-121.88 -66.158,-123.382C-66.483,-124.93 -66.764,-126.274 -66.466,-127.799C-66.221,-129.31 -65.542,-130.854 -64.512,-132.338C-66.036,-131.186 -67.205,-129.622 -67.916,-127.941C-68.245,-127.096 -68.469,-126.217 -68.55,-125.341C-68.635,-124.468 -68.566,-123.644 -68.535,-122.86C-68.443,-121.282 -68.5,-119.95 -69.045,-118.52C-69.543,-117.108 -70.357,-115.708 -71.347,-114.339C-73.234,-111.566 -75.884,-108.914 -77.747,-105.752C-78.621,-104.311 -79.294,-102.774 -79.656,-101.211C-84.961,-115.899 -90.442,-130.529 -96.195,-145.058C-92.953,-135.165 -89.815,-125.234 -86.753,-115.279C-87.84,-115.038 -88.9,-114.799 -89.906,-114.742C-91.213,-114.629 -92.321,-114.849 -93.163,-115.37C-93.997,-115.909 -94.695,-116.67 -95.143,-117.579C-95.609,-118.471 -95.939,-119.505 -96.27,-120.604C-96.607,-121.693 -97.014,-122.885 -97.617,-123.973C-98.24,-125.05 -98.935,-126.088 -99.83,-126.997C-101.553,-128.842 -103.818,-130.296 -106.412,-131.095C-104.61,-129.383 -103.068,-127.651 -101.871,-125.757C-101.3,-124.799 -100.73,-123.852 -100.334,-122.837C-99.911,-121.836 -99.597,-120.821 -99.263,-119.694C-98.908,-118.588 -98.52,-117.402 -97.782,-116.283C-97.03,-115.192 -96.008,-114.147 -94.518,-113.576C-93.046,-112.948 -91.194,-113.036 -89.733,-113.501C-88.594,-113.862 -87.59,-114.363 -86.646,-114.935C-83.572,-104.934 -80.573,-94.908 -77.644,-84.86C-81.659,-86.845 -86.5,-87.814 -91.159,-88.642C-96.568,-89.604 -101.944,-90.423 -106.606,-92.367C-111.31,-94.198 -115.131,-97.17 -116.573,-101.304C-118.132,-105.375 -118.105,-110.379 -120.936,-114.327C-119.34,-109.948 -120.171,-105.343 -118.951,-100.659C-118.402,-98.318 -117.02,-96.043 -115.104,-94.256C-113.184,-92.444 -110.751,-91.097 -108.212,-90.033C-105.633,-89.013 -102.919,-88.276 -100.152,-87.755C-97.367,-87.268 -94.606,-86.919 -91.841,-86.647C-86.934,-86.115 -82.074,-85.657 -77.502,-84.372C-74.082,-72.624 -70.744,-60.85 -67.458,-49.053C-71.971,-48.674 -76.254,-49.527 -80.003,-50.985C-84.775,-52.852 -88.693,-55.794 -92.422,-58.941C-96.198,-62.051 -99.818,-65.467 -104.288,-68.25C-108.674,-71.028 -114.006,-73.284 -119.838,-73.545C-114.382,-72.218 -109.943,-69.63 -106.02,-66.673C-102.102,-63.697 -98.685,-60.282 -94.866,-57.042C-91.025,-53.866 -86.705,-50.747 -81.241,-49.104C-78.545,-48.27 -75.629,-47.802 -72.632,-47.811C-71.128,-47.849 -69.62,-47.98 -68.129,-48.27C-67.849,-48.33 -67.578,-48.414 -67.3,-48.484C-64.248,-37.522 -61.244,-26.545 -58.248,-15.568C-58.281,-15.589 -58.316,-15.614 -58.351,-15.634C-59.843,-16.675 -61.255,-17.773 -62.568,-18.959C-65.215,-21.31 -67.58,-23.883 -70.168,-26.366C-72.728,-28.864 -75.556,-31.271 -78.987,-33.229C-82.417,-35.2 -86.42,-36.494 -90.469,-37.507C-94.561,-38.456 -98.739,-39.13 -102.882,-39.782C-107.045,-40.398 -111.133,-41.071 -115.106,-41.991C-119.051,-42.956 -122.912,-44.157 -126.356,-45.9C-129.854,-47.585 -132.827,-49.897 -135.013,-52.713C-133.485,-49.625 -130.716,-46.924 -127.344,-44.872C-123.974,-42.79 -120.095,-41.269 -116.087,-40.094C-108.015,-37.747 -99.497,-36.936 -91.738,-35.022C-87.854,-34.093 -84.157,-32.892 -80.96,-31.145C-77.698,-29.456 -74.939,-27.198 -72.189,-24.905C-69.475,-22.58 -66.791,-20.164 -63.792,-17.985C-62.267,-16.916 -60.675,-15.906 -58.964,-15.027C-58.626,-14.875 -58.298,-14.716 -57.971,-14.563C-54.098,-0.369 -50.243,13.829 -46.343,28.011C-55.632,26.099 -63.748,22.091 -69.78,16.693C-71.706,14.928 -73.464,13.046 -74.914,11.013C-76.415,9.009 -77.597,6.788 -79.104,4.627C-80.576,2.446 -82.574,0.415 -84.871,-1.307C-87.199,-3.018 -89.837,-4.454 -92.638,-5.667C-98.283,-8.043 -104.536,-9.547 -110.833,-10.65C-117.113,-11.736 -123.378,-12.687 -129.009,-14.661C-134.669,-16.584 -139.19,-19.974 -142.375,-24.108C-145.699,-28.185 -147.806,-32.832 -150.06,-37.397C-148.518,-32.651 -146.74,-27.916 -143.807,-23.48C-142.322,-21.278 -140.479,-19.187 -138.201,-17.364C-135.946,-15.517 -133.189,-14.033 -130.264,-12.879C-124.388,-10.537 -117.917,-9.516 -111.806,-8.293C-105.674,-7.135 -99.75,-5.658 -94.492,-3.382C-91.866,-2.258 -89.416,-0.939 -87.276,0.613C-85.144,2.187 -83.4,3.974 -81.935,6.004C-80.439,8.019 -79.179,10.234 -77.52,12.33C-75.936,14.455 -73.98,16.38 -71.848,18.153C-65.156,23.736 -56.091,27.497 -46.146,28.718C-43.652,37.789 -41.117,46.851 -38.552,55.898C-43.655,55.038 -48.72,54.096 -53.695,52.971C-57.037,52.192 -60.382,51.407 -63.659,50.488C-66.917,49.567 -70.323,48.717 -73.136,47.487C-74.564,46.887 -75.825,46.166 -76.818,45.294C-77.813,44.432 -78.438,43.371 -79.045,42.149C-79.667,40.955 -80.221,39.595 -81.199,38.361C-82.108,37.119 -83.286,36.011 -84.625,35.082C-89.993,31.283 -96.8,29.544 -102.568,26.479C-97.74,30.39 -91.09,32.83 -86.659,36.562C-85.546,37.485 -84.631,38.508 -83.907,39.595C-83.148,40.658 -82.723,41.898 -82.148,43.202C-81.595,44.492 -80.793,45.894 -79.533,47.04C-78.289,48.175 -76.758,49.072 -75.146,49.773C-71.854,51.141 -68.476,51.961 -65.1,52.83C-61.687,53.638 -58.254,54.391 -54.739,54.955C-49.376,55.853 -43.896,56.448 -38.332,56.675C-34.247,71.082 -30.064,85.453 -25.673,99.755C-30.552,99.336 -35.265,98.623 -38.919,96.766C-43.902,94.251 -46.037,89.711 -48.122,85.143C-49.225,82.865 -50.361,80.52 -51.998,78.337C-53.65,76.144 -55.908,74.265 -58.355,72.691C-63.281,69.571 -68.337,66.711 -73.594,63.878C-69.425,67.526 -64.817,70.915 -60.409,74.253C-58.28,75.968 -56.312,77.697 -54.988,79.765C-53.581,81.805 -52.523,84.045 -51.479,86.348C-50.372,88.625 -49.273,90.979 -47.616,93.163C-45.977,95.332 -43.664,97.321 -40.653,98.559C-37.669,99.825 -34.209,100.363 -30.767,100.526C-28.996,100.599 -27.218,100.589 -25.44,100.517C-20.816,115.548 -15.994,130.517 -10.807,145.365C-9.699,148.508 -5.999,150.165 -2.631,149.015C0.733,147.86 2.526,144.324 1.373,141.2C-1.685,132.976 -4.632,124.711 -7.538,116.435C-5.948,113.594 -3.738,110.921 -1.004,108.589C1.054,106.837 3.483,105.278 5.97,103.515C8.448,101.767 10.843,99.585 12.553,97.252C14.239,94.902 15.375,92.402 15.877,89.95C16.359,87.511 16.157,85.069 15.363,83.018C14.657,80.936 13.637,79.091 13.205,77.072C12.746,75.07 12.813,72.834 14.203,70.564C12.149,72.631 11.476,75.239 11.508,77.515C11.563,79.833 12.265,81.915 12.699,83.955C13.669,87.927 12.548,92.385 9.593,96.39C8.152,98.409 6.252,100.166 3.965,101.889C1.74,103.634 -0.861,105.362 -2.962,107.487C-5.275,109.739 -7.022,112.229 -8.132,114.739C-11.596,104.836 -14.971,94.895 -18.29,84.943C-16.296,82.466 -14.823,79.82 -12.807,77.611C-9.979,74.464 -6.217,71.752 -2.351,68.957C-0.444,67.532 1.522,66.085 3.385,64.529C5.213,62.957 7.008,61.354 8.618,59.642C11.883,56.256 14.689,52.612 16.766,48.829C13.527,52.223 10.246,55.468 6.745,58.525C3.235,61.598 -0.441,64.384 -4.377,67.178C-8.213,70.013 -12.291,73.062 -15.029,76.803C-16.731,79.115 -17.683,81.392 -18.723,83.629C-21.698,74.677 -24.633,65.709 -27.532,56.73C-25.733,52.883 -23.02,49.207 -19.494,45.998C-16.311,43.084 -12.674,40.363 -9.166,37.379C-5.705,34.404 -2.283,31.002 -0.306,27.052C1.661,23.095 1.873,19.207 1.906,15.627C1.906,13.822 1.859,12.059 1.936,10.301C2.036,8.545 2.204,6.779 2.537,4.987C3.892,-2.177 7.345,-9.536 12.441,-16.5C6.292,-10.026 1.915,-2.437 0,5.107" style="fill:rgb(205,224,139);fill-rule:nonzero;"/>
        </g>
        <g transform="matrix(1.30828,0,0,1.58528,714.886,144.781)">
            <path d="M0,-0.957C-0.632,-0.746 -1.234,-0.531 -1.8,-0.304C-2.039,-0.251 -2.278,-0.202 -2.51,-0.137C-2.674,-0.098 -2.835,-0.058 -3.011,0C-2.849,-0.055 -2.684,-0.107 -2.519,-0.162C-1.679,-0.426 -0.841,-0.689 0,-0.957" style="fill:rgb(208,159,159);fill-rule:nonzero;"/>
        </g>
        <g transform="matrix(1.30828,0,0,1.58528,711.591,144.781)">
            <path d="M0,-0.162C0.001,-0.154 0.005,-0.144 0.009,-0.137C-0.155,-0.098 -0.316,-0.058 -0.492,0C-0.33,-0.055 -0.165,-0.107 0,-0.162" style="fill:rgb(208,159,159);fill-rule:nonzero;"/>
        </g>
        <g transform="matrix(1.30828,0,0,1.58528,1116.5,408.838)">
            <path d="M0,3.225C0,35.455 -2.077,63.44 -24.233,82.33C-24.24,82.336 -24.252,82.341 -24.258,82.349C-43.06,98.364 -76.289,107.846 -134.928,107.846C-136.827,107.846 -138.697,107.832 -140.54,107.813C-140.899,107.806 -141.261,107.801 -141.623,107.801C-142.458,107.788 -143.299,107.774 -144.125,107.756C-145.124,107.735 -146.115,107.71 -147.095,107.685C-148.551,107.647 -149.988,107.602 -151.405,107.541C-152.238,107.518 -153.069,107.486 -153.887,107.448C-154.746,107.409 -155.595,107.37 -156.446,107.324C-160.051,107.143 -163.542,106.912 -166.92,106.634C-167.693,106.569 -168.46,106.505 -169.221,106.435C-169.82,106.382 -170.413,106.326 -171.005,106.268C-171.541,106.216 -172.069,106.163 -172.599,106.112C-173.172,106.054 -173.74,105.996 -174.306,105.932C-175.015,105.854 -175.716,105.777 -176.413,105.692C-176.929,105.634 -177.443,105.577 -177.953,105.513C-178.635,105.43 -179.318,105.344 -179.996,105.255C-180.725,105.163 -181.44,105.069 -182.155,104.964C-183.102,104.835 -184.045,104.7 -184.978,104.552C-185.45,104.489 -185.913,104.416 -186.376,104.339C-188.388,104.024 -190.348,103.689 -192.262,103.327C-193.737,103.051 -195.188,102.767 -196.613,102.462C-197.056,102.374 -197.488,102.279 -197.926,102.181C-198.796,101.995 -199.661,101.8 -200.511,101.594C-200.982,101.484 -201.452,101.375 -201.916,101.259C-202.497,101.123 -203.07,100.975 -203.636,100.833C-205.442,100.37 -207.202,99.887 -208.916,99.383C-209.334,99.26 -209.754,99.139 -210.167,99.009C-210.444,98.926 -210.721,98.843 -210.991,98.75C-211.532,98.591 -212.066,98.415 -212.597,98.242C-213.259,98.03 -213.917,97.811 -214.567,97.585C-215.056,97.416 -215.547,97.25 -216.023,97.075C-216.392,96.948 -216.759,96.813 -217.119,96.677C-217.513,96.535 -217.893,96.393 -218.28,96.246C-218.713,96.084 -219.138,95.916 -219.556,95.748C-220.045,95.561 -220.528,95.369 -221.006,95.167C-221.651,94.906 -222.282,94.639 -222.908,94.37C-223.862,93.956 -224.791,93.538 -225.705,93.113C-225.755,93.088 -225.807,93.061 -225.854,93.041C-226.838,92.572 -227.806,92.101 -228.753,91.612C-228.804,91.592 -228.851,91.565 -228.895,91.54C-229.289,91.338 -229.674,91.134 -230.061,90.927C-230.616,90.631 -231.165,90.335 -231.698,90.032C-232.125,89.793 -232.549,89.547 -232.97,89.303C-233.418,89.038 -233.856,88.776 -234.295,88.511C-234.733,88.246 -235.167,87.977 -235.591,87.705C-236.442,87.169 -237.281,86.616 -238.091,86.048C-238.905,85.494 -239.695,84.921 -240.464,84.334C-240.832,84.055 -241.198,83.78 -241.56,83.496C-241.598,83.471 -241.632,83.438 -241.669,83.413C-242.023,83.128 -242.378,82.847 -242.725,82.561C-243.092,82.267 -243.454,81.962 -243.807,81.661C-245.955,79.835 -247.934,77.926 -249.739,75.938C-250.041,75.608 -250.338,75.271 -250.633,74.938C-251.523,73.932 -252.361,72.907 -253.161,71.863C-267.134,53.741 -269.86,29.945 -269.86,3.225C-269.86,-44.437 -233.233,-84.874 -178.779,-99.13C-173.842,-100.425 -168.764,-101.502 -163.542,-102.345C-154.39,-103.841 -144.827,-104.621 -134.928,-104.621C-129.031,-104.621 -123.247,-104.342 -117.609,-103.801C-115.373,-103.59 -113.164,-103.333 -110.971,-103.042C-102.438,-101.894 -94.233,-100.134 -86.427,-97.834C-79.745,-95.861 -73.346,-93.489 -67.275,-90.757C-26.218,-72.254 0,-37.103 0,3.225" style="fill:rgb(255,149,0);fill-rule:nonzero;"/>
        </g>
        <g transform="matrix(1.30828,0,0,1.58528,1066.58,277.697)">
            <path d="M0,168.92C3.853,168.198 10.536,167.446 13.902,165.073C-4.899,181.088 -38.128,190.57 -96.768,190.57C-98.667,190.57 -100.537,190.557 -102.379,190.537C-102.739,190.53 -103.101,190.525 -103.462,190.525C-104.298,190.512 -105.139,190.498 -105.965,190.481C-106.963,190.459 -107.955,190.435 -108.935,190.409C-110.391,190.371 -111.828,190.326 -113.245,190.266C-114.078,190.242 -114.909,190.21 -115.727,190.172C-116.586,190.133 -117.435,190.094 -118.286,190.048C-121.891,189.867 -125.381,189.636 -128.76,189.358C-129.533,189.293 -130.3,189.23 -131.061,189.159C-131.66,189.107 -132.252,189.05 -132.845,188.992C-133.381,188.941 -133.909,188.888 -134.438,188.836C-135.012,188.778 -135.58,188.72 -136.146,188.656C-136.855,188.578 -137.556,188.501 -138.253,188.416C-138.769,188.358 -139.283,188.301 -139.792,188.237C-140.475,188.154 -141.158,188.068 -141.835,187.98C-142.565,187.888 -143.28,187.793 -143.995,187.689C-144.942,187.56 -145.885,187.424 -146.818,187.276C-147.29,187.213 -147.752,187.141 -148.216,187.064C-150.228,186.748 -152.187,186.413 -154.102,186.051C-155.577,185.775 -157.028,185.491 -158.453,185.187C-158.896,185.099 -159.328,185.003 -159.766,184.905C-160.636,184.719 -161.5,184.524 -162.351,184.318C-162.822,184.208 -163.292,184.1 -163.755,183.983C-164.336,183.848 -164.91,183.699 -165.476,183.558C-167.282,183.094 -169.042,182.611 -170.756,182.108C-171.174,181.984 -171.594,181.863 -172.006,181.733C-172.284,181.65 -172.561,181.567 -172.831,181.475C-173.372,181.316 -173.906,181.14 -174.437,180.966C-175.099,180.754 -175.757,180.535 -176.407,180.31C-176.896,180.141 -177.387,179.975 -177.863,179.799C-178.232,179.672 -178.599,179.537 -178.959,179.401C-179.353,179.259 -179.733,179.117 -180.12,178.97C-180.553,178.809 -180.978,178.641 -181.396,178.473C-181.885,178.285 -182.368,178.093 -182.846,177.892C-183.491,177.63 -184.122,177.363 -184.748,177.094C-185.702,176.681 -186.63,176.262 -187.544,175.837C-187.595,175.813 -187.647,175.785 -187.694,175.766C-188.678,175.296 -189.646,174.825 -190.593,174.336C-190.644,174.316 -190.69,174.289 -190.735,174.265C-191.129,174.063 -191.514,173.858 -191.901,173.651C-192.456,173.356 -193.004,173.06 -193.538,172.756C-193.964,172.518 -194.389,172.272 -194.81,172.027C-195.258,171.763 -195.696,171.5 -196.135,171.235C-196.573,170.971 -197.006,170.701 -197.431,170.43C-198.282,169.888 -199.115,169.334 -199.931,168.773C-200.745,168.212 -201.53,167.637 -202.304,167.059C-202.671,166.779 -203.038,166.504 -203.399,166.221C-203.437,166.195 -203.472,166.162 -203.509,166.137C-203.863,165.853 -204.218,165.571 -204.565,165.285C-204.932,164.991 -205.293,164.687 -205.647,164.385C-207.794,162.555 -209.767,160.647 -211.579,158.662C-211.88,158.332 -212.178,157.995 -212.473,157.662C-213.35,156.656 -214.193,155.631 -215,154.587C-209.842,161.283 -198.334,165.512 -190.103,164.964C-175.054,163.965 -194.557,137.122 -196.974,132.178C-209.987,105.586 -209.56,73.857 -198.533,46.685C-191.083,28.329 -178.999,11.986 -164.207,-1.195C-157.245,-7.395 -149.242,-13.042 -140.619,-16.406C-135.713,-18.32 -130.609,-19.499 -125.381,-19.621C-124.105,-19.66 -122.829,-19.629 -121.541,-19.53C-134.818,-13.235 -148.037,-6.641 -159.942,1.977C-171.839,10.593 -182.446,21.37 -189.111,34.465C-197.218,50.41 -199.049,68.887 -197.993,86.742C-197.031,102.84 -193.828,118.798 -188.524,134.027C-185.043,144.012 -180.856,155.297 -172.669,162.405C-164.736,169.295 -153.123,172.557 -142.765,171.977C-139.709,171.803 -136.48,171.228 -134.199,169.186C-131.652,166.902 -130.796,163.191 -131.12,159.781C-131.44,156.379 -132.768,153.163 -133.966,149.951C-137.517,140.467 -140.045,130.606 -141.675,120.61C-146.994,88.055 -143.976,51.705 -134.56,20.106C-130.93,7.917 -125.526,-3.895 -117.429,-13.704C-114.117,-17.726 -109.772,-21.65 -104.559,-21.613C-105.969,-21.613 -112.202,-9.489 -113.138,-7.969C-116.268,-2.877 -119.354,2.24 -122.223,7.486C-127.839,17.741 -132.66,28.511 -135.301,39.938C-140.491,62.315 -137.086,85.612 -134.005,107.836C-131.969,122.575 -130.443,137.547 -125.802,151.766C-122.154,162.941 -115.264,174.205 -102.024,174.063C-91.951,173.956 -83.233,163.609 -77.251,156.494C-63.988,140.717 -61.885,119.114 -57.729,99.722C-53.3,79.071 -49.394,57.666 -53.268,36.599C-57.142,15.537 -68.499,-3.392 -81.19,-20.647C-80.616,-20.84 -80.037,-20.987 -79.449,-21.077C-77.239,-21.439 -74.951,-21.122 -72.811,-20.317C-70.936,-19.621 -69.176,-18.552 -67.686,-17.243C-64.026,-14.033 -61.692,-9.6 -59.754,-5.139C-52.357,11.877 -49.543,30.508 -47.605,48.967C-44.975,73.986 -44.615,99.96 -51.008,124.464C-53.784,135.111 -58.631,144.874 -61.885,155.322C-62.911,158.615 -64.543,165.158 -61.479,167.96C-58.462,170.726 -50.955,169.746 -47.359,169.082C-34.316,166.658 -23.396,157.255 -16.242,146.08C-9.094,134.905 -5.197,122.002 -1.601,109.234C4.801,86.548 10.516,62.172 3.242,39.75C-0.848,27.155 -8.857,16.079 -18.523,7.029C-28.185,-2.02 -39.488,-9.154 -51.131,-15.47C-50.17,-15.381 -49.216,-15.259 -48.267,-15.109C-41.481,-14.054 -35.048,-11.539 -29.115,-8.033C-21.256,-3.388 -14.277,3.002 -8.509,10.092C6.289,28.272 14.545,51.551 15.146,74.985C15.75,98.426 8.804,121.904 -3.913,141.6C-8.14,148.149 -13.012,154.337 -16.591,161.239C-17.002,162.031 -17.396,162.829 -17.77,163.649C-18.607,165.46 -19.277,167.78 -17.983,169.301C-17.131,170.299 -15.714,170.57 -14.405,170.682C-9.532,171.093 -4.758,169.816 0,168.92" style="fill:rgb(230,102,23);fill-rule:nonzero;"/>
        </g>
        <g transform="matrix(1.30828,0,0,1.58528,1116.5,408.838)">
            <path d="M0,3.225C0,35.455 -2.075,63.44 -24.232,82.33C-24.239,82.336 -24.251,82.341 -24.26,82.349C-43.057,98.364 -76.29,107.846 -134.926,107.846C-135.983,107.846 -137.035,107.839 -138.071,107.839L-138.071,-104.588C-137.026,-104.614 -135.976,-104.621 -134.926,-104.621C-129.028,-104.621 -123.249,-104.342 -117.607,-103.801C-115.371,-103.59 -113.162,-103.333 -110.97,-103.042C-102.437,-101.894 -94.231,-100.134 -86.426,-97.834C-79.744,-95.861 -73.345,-93.489 -67.273,-90.757C-26.22,-72.254 0,-37.103 0,3.225" style="fill:rgb(225,225,225);fill-rule:nonzero;"/>
        </g>
        <g transform="matrix(1.30828,0,0,1.58528,905.191,157.26)">
            <path d="M0,50.213C-4.469,51.692 -9.042,52.901 -13.075,55.482C-15.659,57.137 -14.546,61.133 -11.477,61.214C-3.944,61.413 7.117,61.129 15.573,58.5C15.593,58.495 22.627,64.359 23.698,64.9C28.4,67.279 36.033,70.202 41.428,69.155C45.662,68.334 48.104,63.453 45.535,59.739C45.042,59.028 44.464,58.294 43.784,57.54C45.91,59.898 51.87,60.005 54.769,60.648C61.09,62.052 67.344,63.721 73.62,65.304C74.467,65.516 75.354,65.729 76.196,65.513C81.224,64.226 71.352,59.128 70.033,58.448C62.477,54.557 53.651,54.229 46.235,50.283C35.065,44.337 32.072,28.022 40.63,18.623C42.583,16.475 45.216,14.839 48.033,14.105C51.034,13.319 53.699,14.478 56.687,14.034C60.749,13.433 62.827,9.036 63.84,5.519C67.663,-7.716 61.017,-19.989 46.163,-15.682C36.246,-12.806 27.579,-5.891 22.343,2.953C19.048,8.518 17.041,14.828 16.447,21.264C15.846,27.741 17.512,33.931 14.413,40.035C11.616,45.543 5.592,48.365 0,50.213" style="fill:rgb(126,176,23);fill-rule:nonzero;"/>
        </g>
        <g transform="matrix(1.30828,0,0,1.58528,996.814,166.27)">
            <path d="M0,52.765C-7.557,48.873 -16.382,48.545 -23.798,44.6C-34.968,38.654 -37.961,22.338 -29.403,12.94C-27.451,10.791 -24.817,9.156 -22,8.421C-18.999,7.636 -16.334,8.794 -13.346,8.351C-9.285,7.749 -7.207,3.353 -6.193,-0.165C-5.007,-4.278 -4.83,-8.296 -5.597,-11.754C-6.835,-9.168 -8.41,-6.767 -10.405,-4.677C-16.829,2.053 -26.678,4.728 -32.953,11.603C-38.252,17.409 -40.305,26.192 -37.503,33.536C-36.585,35.945 -35.183,38.199 -34.727,40.736C-34.218,43.599 -34.963,46.518 -35.699,49.331C-35.874,49.995 -36.055,50.671 -36.408,51.259C-37.166,52.512 -38.63,53.191 -40.076,53.418C-46.105,54.365 -51.406,48.792 -57.506,48.604C-60.85,48.502 -63.996,50.033 -67.215,50.945C-70.584,51.902 -74.141,52.187 -77.62,51.783C-79.344,51.583 -81.215,51.116 -82.226,49.702C-82.297,49.603 -82.358,49.495 -82.413,49.388C-82.645,49.526 -82.88,49.652 -83.108,49.798C-85.692,51.453 -84.579,55.45 -81.51,55.531C-73.978,55.73 -62.917,55.446 -54.46,52.817C-54.44,52.812 -47.406,58.675 -46.335,59.216C-41.633,61.596 -34,64.519 -28.605,63.472C-24.372,62.651 -21.929,57.77 -24.499,54.056C-24.991,53.345 -25.569,52.611 -26.25,51.857C-24.123,54.214 -18.163,54.322 -15.265,54.964C-8.943,56.369 -2.689,58.037 3.587,59.62C4.434,59.832 5.32,60.045 6.163,59.829C11.191,58.542 1.318,53.445 0,52.765" style="fill:rgb(95,156,0);fill-rule:nonzero;"/>
        </g>
        <g transform="matrix(1.30828,0,0,1.58528,1117.94,241.71)">
            <path d="M0,105.859C16.697,117.217 16.811,138.897 20.342,158.278C22.41,166.37 30.719,173.05 38.897,170.893C62.015,163.978 88.842,159.591 105.827,175.772C109.46,180.3 114.504,185.274 118.737,186.608C131.432,190.616 141.487,176.874 155.748,177.316C180.047,176.86 202.543,185.986 227.727,187.165C244.367,187.681 261.242,182.179 273.594,170.518C275.084,168.959 275.162,166.954 275.682,165.767C276.369,165.456 277.027,165.128 277.666,164.786C281.312,156.541 284.975,148.371 289.242,140.586C292.676,134.308 297.131,126.106 298.807,119.3C300.742,111.439 297.551,109.729 296.344,102.615C294.115,89.451 301.623,84.773 307.25,73.382L307.914,71.871C312.926,64.823 313.961,60.004 312.225,52.644C309.658,41.741 304.881,42.916 294.18,38.181C292.307,28.684 298.592,21.901 290.264,12.142C284.803,5.744 279.486,7.293 274.162,4.527C269.637,2.179 266.211,-0.616 262.439,-6.151C254.68,-17.547 250.479,-36.533 232.311,-34.914C220.477,-33.858 211.223,-25.432 200.867,-21.266C188.459,-16.272 173.086,-16.504 173.123,-30.957C173.137,-35.472 179.049,-40.342 178.684,-45.029C178.275,-50.276 172.383,-57.073 169.75,-61.922C161.068,-77.906 159.311,-77.395 142.768,-70.498C135.241,-67.358 140.243,-65.667 127.892,-69.839C118.789,-72.913 111.273,-79.291 101.455,-80.994C79.747,-84.757 74.747,-69.12 59.609,-62.339C39.632,-53.396 29.932,-52.379 28.519,-31.779C6.966,-22.065 -53.865,-12.287 -37.784,15.265C-32.586,24.171 -26.776,32.763 -21.741,42.017C-15.265,53.915 -8.632,57.914 -22.761,64.718C-24.031,65.328 -25.558,65.878 -27.24,66.393C-24.231,81.462 -16.283,95.506 0,105.859" style="fill:rgb(150,184,87);fill-rule:nonzero;"/>
        </g>
        <g transform="matrix(1.30828,0,0,1.58528,1160.88,454.784)">
            <path d="M0,46.103C16.857,51.458 35.456,47.121 49.873,53.808C60.027,57.972 61.979,72.443 72.137,76.607C82.288,80.77 95.527,75.475 107.671,71.752C109.821,71.548 116.808,71.616 118.636,75.472C132.052,99.513 167.005,114.118 195.371,104.509C198.376,100.208 200.853,95.486 203.824,90.377C210.726,78.501 223.955,72.063 230.714,59.956C236.087,50.33 240.455,40.297 244.841,30.377C244.203,30.719 243.544,31.047 242.857,31.359C242.337,32.545 242.259,34.55 240.769,36.11C228.417,47.771 211.542,53.273 194.902,52.756C169.718,51.578 147.222,42.452 122.923,42.908C108.662,42.465 98.607,56.207 85.913,52.2C81.679,50.866 76.635,45.892 73.002,41.364C56.017,25.183 29.19,29.57 6.072,36.485C-2.105,38.642 -10.415,31.961 -12.482,23.87C-16.014,4.489 -16.127,-17.191 -32.825,-28.549C-49.108,-38.902 -57.056,-52.947 -60.065,-68.015C-70.324,-64.865 -86.671,-62.916 -89.729,-55.342C-92.837,-47.633 -81.421,-37.949 -78.834,-29.837C-73.378,-27.683 -68.455,-24.741 -64.39,-20.692C-43.467,1.868 -35.293,33.339 0,46.103" style="fill:rgb(143,175,74);fill-rule:nonzero;"/>
        </g>
        <g transform="matrix(1.30828,0,0,1.58528,1416.48,442.58)">
            <path d="M0,112.208C-28.365,121.816 -63.318,107.212 -76.735,83.171C-78.563,79.314 -85.549,79.247 -87.7,79.451C-99.843,83.174 -113.083,88.469 -123.234,84.306C-133.391,80.142 -135.344,65.671 -145.498,61.507C-159.915,54.819 -178.513,59.157 -195.371,53.802C-230.664,41.038 -238.838,9.566 -259.76,-12.993C-263.826,-17.042 -268.749,-19.984 -274.205,-22.139C-273.97,-21.403 -273.803,-20.683 -273.732,-19.975C-272.474,-7.652 -283.601,0.89 -281.833,12.948C-279.825,26.618 -267.425,42.098 -256.826,50.649C-238.417,65.5 -231.72,100.18 -197.3,85.587C-188.429,81.825 -174.614,69.384 -162.709,72.199C-146.381,76.062 -152.991,85.845 -161,91.909C-156.684,101.253 -152.508,115.802 -138.835,115.516C-121.654,115.15 -116.649,99.506 -100.459,111.39C-87.319,121.033 -82.455,127.721 -63.172,130.912C-46.557,133.662 -31.004,134.347 -15.867,126.319C-8.389,122.349 -3.773,117.613 0,112.208" style="fill:rgb(136,163,61);fill-rule:nonzero;"/>
        </g>
        <g transform="matrix(1.30828,0,0,1.58528,1445.21,319.796)">
            <path d="M0,61.141L1.623,50.475C12.68,34.829 17.639,5.925 7.965,-12.739C1.104,-14.937 -6.797,-15.756 -12.213,-15.131C-29.455,-12.451 -45.596,-1.305 -59.338,-2.937C-73.523,-5.382 -74.527,-28.7 -89.445,-36.786C-107.631,-46.582 -133.801,-34.544 -138.364,-15.016C-139.856,-13.456 -142.311,-11.521 -144.687,-11.597C-155.453,-16.348 -166.218,-21.093 -177.139,-21.837C-192.369,-21.902 -209.841,-13.209 -211.431,3.203C-214.696,1.495 -212.996,6.764 -216.261,5.059C-218.583,15.828 -220.905,26.594 -225.971,34.467C-230.036,40.976 -230.953,49.495 -229.417,57.682C-222.962,61.126 -218.636,52.676 -208.532,57.202C-198.109,61.868 -200.236,80.309 -194.45,85.389C-185.076,93.611 -174.63,82.818 -164.146,81.578C-151.398,80.071 -146.833,88.608 -138.706,95.648C-126.167,106.511 -122.959,102.427 -107.045,102.581C-93.906,102.708 -86.658,107.723 -73.063,104.294C-66.35,102.601 -62.809,100.254 -56.193,100.359C-51.705,100.426 -46.629,103.29 -40.863,102.865C-20.729,101.367 6.537,79.589 0,61.141" style="fill:rgb(180,211,49);fill-rule:nonzero;"/>
        </g>
        <g transform="matrix(1.30828,0,0,1.58528,1149.57,211.406)">
            <path d="M0,102.84C5.066,94.967 7.388,84.2 9.71,73.432C12.975,75.137 11.275,69.867 14.541,71.575C16.13,55.164 33.602,46.471 48.832,46.536C59.753,47.279 70.518,52.025 81.284,56.776C83.661,56.852 86.115,54.917 87.607,53.357C92.17,33.829 118.34,21.791 136.526,31.587C151.444,39.673 152.448,62.99 166.633,65.436C180.375,67.068 196.516,55.922 213.758,53.241C219.174,52.616 227.075,53.436 233.936,55.634C232.901,53.635 231.702,51.758 230.325,50.021C221.557,39.014 200.393,30.542 186.125,36.762C179.856,23.035 175.799,6.955 157.995,1.865C141.516,-2.847 129.673,1.461 114.664,6.443C104.18,-23.215 34.148,13.389 16.843,17.542C-1.009,21.826 -12.224,30.136 -20.085,45.83C-28.977,63.579 -26.752,75.265 -17.15,91.967C-25.242,97.176 -14.251,113.01 -9.466,119.937C-7.183,123.24 -5.234,125.102 -3.446,126.055C-4.982,117.867 -4.065,109.349 0,102.84" style="fill:rgb(186,234,54);fill-rule:nonzero;"/>
        </g>
        <g transform="matrix(1.30828,0,0,1.58528,894.69,706.899)">
            <path d="M0,-265.259L0,-8.475C0,-3.793 4.822,0 10.771,0L128.347,0C134.295,0 139.118,-3.793 139.118,-8.475L139.118,-265.259L0,-265.259Z" style="fill:rgb(195,226,223);fill-rule:nonzero;"/>
        </g>
        <g transform="matrix(1.30828,0,0,1.58528,985.692,286.389)">
            <path d="M0,265.259L58.789,265.259C64.737,265.259 69.56,261.466 69.56,256.784L69.56,0L0,0L0,265.259Z" style="fill:rgb(206,239,238);fill-rule:nonzero;"/>
        </g>
        <g transform="matrix(1.30828,0,0,1.58528,906.571,691.029)">
            <path d="M0,-228.639L0,-7.301C0,-3.269 4.193,0 9.364,0L111.593,0C116.765,0 120.96,-3.269 120.96,-7.301L120.96,-228.639L0,-228.639Z" style="fill:rgb(252,91,91);fill-rule:nonzero;"/>
        </g>
        <g transform="matrix(1.30828,0,0,1.58528,985.692,328.572)">
            <path d="M0,228.639L51.116,228.639C56.288,228.639 60.483,225.37 60.483,221.338L60.483,0L0,0L0,228.639Z" style="fill:rgb(255,118,118);fill-rule:nonzero;"/>
        </g>
        <g transform="matrix(1.30828,0,0,1.58528,1044.37,375.547)">
            <path d="M0,53.65C0,58.024 -4.509,61.57 -10.07,61.57C-15.632,61.57 -20.142,58.024 -20.142,53.65L-20.142,0.006C-20.142,-4.371 -15.632,-7.92 -10.07,-7.92C-4.509,-7.92 0,-4.371 0,0.006L0,53.65Z" style="fill:rgb(255,151,151);fill-rule:nonzero;"/>
        </g>
        <g transform="matrix(-1.30828,0,0,1.58528,998.634,175.994)">
            <path d="M45.913,255.757L61.042,255.757L0.001,0L-15.129,0L45.913,255.757Z" style="fill:rgb(92,180,229);fill-rule:nonzero;"/>
        </g>
        <g transform="matrix(1.30828,0,0,1.58528,977.032,175.994)">
            <path d="M0,69.638L15.13,69.638L31.75,0L16.619,0L0,69.638Z" style="fill:rgb(140,212,237);fill-rule:nonzero;"/>
        </g>
        <g transform="matrix(-0.000630944,-1.58528,-1.30828,0.000764533,952.798,323.2)">
            <path d="M-217.88,-180.323C-273.394,-180.297 -280.722,-123.815 -280.664,-2.263C-280.605,119.287 -273.392,217.82 -217.88,217.794C-162.369,217.767 -117.415,119.208 -117.474,-2.342C-117.532,-123.894 -162.367,-180.35 -217.88,-180.323" style="fill:rgb(163,109,72);fill-rule:nonzero;"/>
        </g>
        <g transform="matrix(1.30828,0,0,1.58528,1023.88,691.245)">
            <path d="M0,-56.79C2.391,-71.327 3.478,-85.548 6.062,-99.447C-41.45,-86.872 -74.81,-62.634 -74.81,-24.279C-74.81,5.648 -54.549,26.312 -22.948,42.657C-20.71,42.616 -18.513,42.575 -16.332,42.532C-13.738,28.814 -11.031,15.028 -8.007,1.115C-4.005,-18.368 -3.114,-36.767 0,-56.79" style="fill:rgb(193,168,107);fill-rule:nonzero;"/>
        </g>
        <g transform="matrix(1.30828,0,0,1.58528,1182.28,623.219)">
            <path d="M0,28.136C0,-16.069 -25.2,-43.849 -112.038,-57.308C-113.04,-57.056 -114.028,-56.797 -115.019,-56.536C-117.603,-42.636 -118.689,-28.416 -121.08,-13.879C-124.194,6.145 -125.085,24.543 -129.087,44.027C-132.111,57.94 -134.818,71.725 -137.412,85.444C-39.156,83.465 0,76.557 0,28.136" style="fill:rgb(221,196,124);fill-rule:nonzero;"/>
        </g>
        <g transform="matrix(1.30828,0,0,1.58528,1142.99,659.027)">
            <path d="M0,-13.069C3.313,-14.812 43.94,-23.734 84.701,-26.64C125.47,-29.544 163.601,-53.501 185.304,-41.49C207.011,-29.481 210.068,26.1 197.564,33.266C185.064,40.432 106.09,31.428 94.902,32.312C83.715,33.197 27.012,25.553 11.068,22.879C-4.874,20.206 -17.779,-3.71 0,-13.069" style="fill:rgb(201,67,102);fill-rule:nonzero;"/>
        </g>
        <g transform="matrix(1.30828,0,0,1.58528,1226.49,570.81)">
            <path d="M0,52.49C20.182,51.635 38.009,48.382 57.936,48.744C75.674,48.647 92.446,47.712 110.053,48.223C120.163,49.072 129.342,51.633 139.583,51.869C139.713,51.876 139.842,51.873 139.977,51.877C138.637,35.068 131.266,14.926 118.467,7.847C96.764,-4.162 61.681,13.805 20.918,16.711C-19.845,19.62 -57.874,39.286 -61.186,41.028C-70.32,45.837 -72.039,51.651 -69.393,56.53C-67.287,56.652 -65.152,56.629 -63.119,56.423C-41.296,55.912 -21.275,53.116 0,52.49" style="fill:rgb(244,118,142);fill-rule:nonzero;"/>
        </g>
        <g transform="matrix(1.30828,0,0,1.58528,1409.1,697.04)">
            <path d="M0,-27.758C-10.24,-27.994 -19.42,-30.555 -29.529,-31.404C-47.137,-31.915 -63.908,-30.98 -81.647,-30.883C-101.573,-31.245 -119.401,-27.992 -139.583,-27.137C-160.857,-26.511 -180.879,-23.715 -202.702,-23.204C-204.735,-22.998 -206.87,-22.975 -208.975,-23.097C-206.469,-18.477 -200.051,-14.696 -192.299,-13.394C-176.356,-10.722 -119.651,-3.078 -108.466,-3.961C-97.277,-4.846 -18.305,4.157 -5.801,-3.008C-0.672,-5.949 1.324,-16.041 0.395,-27.75C0.26,-27.754 0.131,-27.751 0,-27.758" style="fill:rgb(226,97,116);fill-rule:nonzero;"/>
        </g>
        <g transform="matrix(0.0638708,-1.58339,-1.30672,-0.077394,1212.5,607.744)">
            <path d="M-25.44,-24.225C-30.714,-24.227 -34.991,-12.824 -34.991,1.244C-34.989,15.311 -30.715,26.716 -25.44,26.716C-20.163,26.715 -15.887,15.31 -15.886,1.244C-15.89,-12.826 -20.163,-24.228 -25.44,-24.225" style="fill:rgb(249,162,193);fill-rule:nonzero;"/>
        </g>
        <g transform="matrix(1.30828,0,0,1.58528,1083.63,552.468)">
            <path d="M0,39.559C2.884,37.171 40.817,20.107 80.118,8.906C119.421,-2.301 151.831,-33.565 175.538,-26.264C199.242,-18.961 213.632,34.814 202.865,44.391C192.099,53.969 112.958,61.352 102.191,64.513C91.426,67.671 34.356,71.818 18.205,72.471C2.054,73.124 -15.483,52.363 0,39.559" style="fill:rgb(201,67,102);fill-rule:nonzero;"/>
        </g>
        <g transform="matrix(1.30828,0,0,1.58528,1168.01,519.279)">
            <path d="M0,57.104C19.579,52.129 36.359,45.289 55.937,41.556C73.281,37.826 89.5,33.472 106.84,30.36C116.91,29.118 126.419,29.739 136.486,27.875C136.617,27.85 136.744,27.824 136.875,27.802C132.115,11.623 120.773,-6.58 106.794,-10.886C83.092,-18.187 52.437,6.594 13.138,17.798C-26.165,29.005 -59.353,56.048 -62.235,58.436C-70.189,65.015 -70.68,71.06 -67.087,75.291C-65.004,74.98 -62.917,74.516 -60.971,73.9C-39.715,68.922 -20.696,62.08 0,57.104" style="fill:rgb(244,118,142);fill-rule:nonzero;"/>
        </g>
        <g transform="matrix(1.30828,0,0,1.58528,1346.58,648.656)">
            <path d="M0,-53.737C-10.066,-51.873 -19.576,-52.494 -29.646,-51.252C-46.985,-48.139 -63.205,-43.786 -80.549,-40.055C-100.126,-36.323 -116.907,-29.482 -136.486,-24.508C-157.182,-19.532 -176.201,-12.689 -197.457,-7.712C-199.403,-7.095 -201.49,-6.632 -203.573,-6.32C-200.175,-2.311 -193.117,0.072 -185.263,-0.243C-169.112,-0.897 -112.043,-5.046 -101.276,-8.205C-90.509,-11.363 -11.367,-18.75 -0.6,-28.326C3.818,-32.258 3.701,-42.544 0.389,-53.809C0.258,-53.788 0.131,-53.761 0,-53.737" style="fill:rgb(226,97,116);fill-rule:nonzero;"/>
        </g>
        <g transform="matrix(-0.2055,-1.5656,-1.29204,0.24901,1139.77,569.743)">
            <path d="M-25.157,-29.474C-30.432,-29.472 -34.705,-18.069 -34.705,-4.003C-34.708,10.067 -30.43,21.47 -25.157,21.47C-19.878,21.47 -15.603,10.067 -15.602,-4.003C-15.605,-18.069 -19.882,-29.472 -25.157,-29.474" style="fill:rgb(249,162,193);fill-rule:nonzero;"/>
        </g>
        <g transform="matrix(1.30828,0,0,1.58528,1279.77,806.439)">
            <path d="M0,-93.149L0,0L13.943,0C90.162,0 132.951,-20.022 144.652,-57.769C147.24,-66.124 151.953,-93.149 151.953,-93.149L0,-93.149Z" style="fill:rgb(114,211,202);fill-rule:nonzero;"/>
        </g>
        <g transform="matrix(1.30828,0,0,1.58528,1279.77,806.439)">
            <path d="M0,-93.149L-151.951,-93.149L-151.951,-58.833C-151.951,-26.337 -90.167,0 -13.939,0L0,0L0,-93.149Z" style="fill:rgb(95,193,181);fill-rule:nonzero;"/>
        </g>
        <g transform="matrix(-1.30828,0,0,1.58528,2456.98,-1345.39)">
            <rect x="899.821" y="1347.79" width="69.495" height="15.936" style="fill:rgb(95,193,181);"/>
        </g>
        <g transform="matrix(-1.30828,0,0,1.58528,2638.82,-1345.39)">
            <rect x="969.317" y="1347.79" width="69.492" height="15.936" style="fill:rgb(114,211,202);"/>
        </g>
        <g transform="matrix(1.30828,0,0,1.58528,1188.85,688.248)">
            <path d="M0,-0.001C0,2.703 -2.191,4.894 -4.894,4.894L-38.738,4.894C-41.441,4.894 -43.634,2.703 -43.634,-0.001C-43.634,-2.704 -41.441,-4.895 -38.738,-4.895L-4.894,-4.895C-2.191,-4.895 0,-2.704 0,-0.001" style="fill:rgb(114,211,202);fill-rule:nonzero;"/>
        </g>
        <g transform="matrix(1.30828,0,0,1.58528,1290.07,401.079)">
            <path d="M0,26.875L-10.375,26.875L-10.375,-75.563C-10.375,-76.434 -11.237,-77.141 -12.296,-77.141L-19.302,-77.141C-20.364,-77.141 -21.225,-76.434 -21.225,-75.563L-21.225,26.875L-31.158,26.875C-34.236,26.875 -36.729,29.172 -36.729,32.008L-36.729,102.816C-36.729,103.479 -36.192,104.016 -35.53,104.016L-32.108,104.016C-31.446,104.016 -30.907,103.479 -30.907,102.816L-30.907,50.76L-18.66,50.76L-18.66,102.816C-18.66,103.479 -18.124,104.016 -17.461,104.016L-14.04,104.016C-13.379,104.016 -12.838,103.479 -12.838,102.816L-12.838,50.76L-0.25,50.76L-0.25,102.816C-0.25,103.479 0.286,104.016 0.953,104.016L4.369,104.016C5.036,104.016 5.572,103.479 5.572,102.816L5.572,32.008C5.572,29.172 3.075,26.875 0,26.875" style="fill:rgb(234,244,249);fill-rule:nonzero;"/>
        </g>
        <g transform="matrix(0.331231,1.53363,1.26565,-0.401361,685.924,472.803)">
            <path d="M55.535,-41.073C83.582,-41.122 106.175,-9.143 106.225,19.458C106.275,48.057 83.58,71.281 55.535,71.33C27.492,71.379 4.717,48.233 4.668,19.634C4.617,-8.966 27.493,-41.024 55.535,-41.073" style="fill:rgb(237,189,33);fill-rule:nonzero;"/>
        </g>
        <g transform="matrix(-0.329016,-1.53433,-1.26623,0.398677,702.482,486.132)">
            <path d="M-43.425,-56.156C-68.095,-56.155 -88.097,-36.068 -88.098,-11.288C-88.098,13.493 -68.096,33.582 -43.425,33.583C-18.754,33.582 1.242,13.494 1.242,-11.287C1.243,-36.068 -18.754,-56.155 -43.425,-56.156" style="fill:white;fill-rule:nonzero;"/>
        </g>
        <g transform="matrix(-0.329024,-1.53433,-1.26623,0.398687,704.369,489.958)">
            <path d="M-40.694,-52.618C-63.917,-52.617 -82.738,-33.796 -82.739,-10.57C-82.738,12.647 -63.917,31.471 -40.694,31.472C-17.474,31.472 1.35,12.648 1.351,-10.57C1.351,-33.795 -17.473,-52.618 -40.694,-52.618" style="fill:rgb(247,225,60);fill-rule:nonzero;"/>
        </g>
        <g transform="matrix(1.30828,0,0,1.58528,717.319,621.999)">
            <path d="M0,-87.228C-22.472,-81.388 -35.956,-58.433 -30.116,-35.958C-24.276,-13.485 -1.323,0 21.148,-5.839L0,-87.228Z" style="fill:rgb(244,204,33);fill-rule:nonzero;"/>
        </g>
        <g transform="matrix(-1.26625,0.398603,0.328954,1.53435,701.717,489.398)">
            <rect x="-13.635" y="-1.741" width="2.618" height="87.97" style="fill:white;"/>
        </g>
        <g transform="matrix(-1.26623,0.398683,0.32902,1.53433,680.358,578.357)">
            <rect x="-85.482" y="-10.924" width="86.499" height="2.961" style="fill:white;"/>
        </g>
        <g transform="matrix(-1.08063,-0.893592,-0.737453,1.30943,783.618,521.209)">
            <path d="M22.291,81.088L24.903,81.088L25.032,-6.881L22.422,-6.883L22.291,81.088Z" style="fill:white;fill-rule:nonzero;"/>
        </g>
        <g transform="matrix(-1.08173,-0.891632,-0.735835,1.31076,712.787,482.067)">
            <rect x="-78.178" y="24.07" width="86.501" height="2.962" style="fill:white;"/>
        </g>
        <g transform="matrix(-0.328948,-1.53435,-1.26625,0.398595,726.896,538.293)">
            <path d="M-6.072,-7.847C-9.499,-7.847 -12.278,-5.041 -12.278,-1.574C-12.278,1.885 -9.5,4.697 -6.072,4.697C-2.643,4.697 0.137,1.885 0.136,-1.573C0.136,-5.04 -2.643,-7.847 -6.072,-7.847" style="fill:white;fill-rule:nonzero;"/>
        </g>
        <g transform="matrix(1.30828,0,0,1.58528,1479.21,782.361)">
            <path d="M0,-5.188L-34.1,5.601L-52.537,20.011L-63.068,8.899L-27.105,-25.199L-13.795,-19.734L-36.213,-3.08L-3.061,-14.86L0,-5.188Z" style="fill:rgb(155,211,32);fill-rule:nonzero;"/>
        </g>
        <g transform="matrix(1.30828,0,0,1.58528,1419.49,796.468)">
            <path d="M0,-62.23L-12.59,-28.754L-27.959,-11.11L-17.422,0L18.541,-34.097L13.793,-47.682L-4.033,-26.178L9.496,-58.664L0,-62.23Z" style="fill:rgb(182,226,59);fill-rule:nonzero;"/>
        </g>
        <g transform="matrix(1.30828,0,0,1.58528,1425.14,783.051)">
            <path d="M0,-83.012C0.348,-82.645 0.678,-82.266 0.984,-81.877C1,-81.892 1.016,-81.908 1.033,-81.923C7.463,-88.022 16.379,-89.868 24.316,-87.562C24.758,-90.373 26.096,-93.066 28.32,-95.177C33.674,-100.251 42.127,-100.027 47.199,-94.673C49.99,-91.732 51.18,-87.854 50.797,-84.115C60.385,-86.609 71,-83.949 78.301,-76.249C88.984,-64.981 88.508,-47.185 77.24,-36.502C75.049,-34.424 72.611,-32.77 70.029,-31.533C70.768,-30.912 71.482,-30.24 72.164,-29.519C82.07,-19.069 81.631,-2.573 71.182,7.333C60.734,17.239 44.236,16.799 34.33,6.351C30.258,2.057 27.939,-3.262 27.338,-8.723C20.713,-7.758 13.732,-9.914 8.773,-15.149C4.768,-19.377 2.832,-24.817 2.934,-30.215C0.008,-31.11 -2.734,-32.749 -4.99,-35.128C-10.156,-40.573 -11.309,-48.367 -8.555,-54.862C-14.18,-53.595 -20.307,-55.24 -24.561,-59.727C-30.99,-66.509 -30.707,-77.221 -23.924,-83.649C-17.143,-90.079 -6.43,-89.796 0,-83.012" style="fill:rgb(148,193,26);fill-rule:nonzero;"/>
        </g>
        <g transform="matrix(1.30828,0,0,1.58528,1425.25,726.809)">
            <path d="M0,-47.53C0.35,-47.163 0.676,-46.783 0.988,-46.392C1.002,-46.408 1.016,-46.425 1.035,-46.44C7.467,-52.538 16.383,-54.383 24.316,-52.077C24.756,-54.891 26.094,-57.585 28.324,-59.695C33.674,-64.77 42.129,-64.546 47.203,-59.189C49.99,-56.247 51.182,-52.371 50.797,-48.631C58.064,-50.519 65.924,-49.45 72.479,-45.467L6.338,17.24C3.986,13.605 2.855,9.423 2.936,5.267C0.012,4.375 -2.734,2.736 -4.992,0.358C-10.154,-5.089 -11.309,-12.881 -8.551,-19.376C-14.176,-18.113 -20.307,-19.754 -24.561,-24.241C-30.99,-31.024 -30.705,-41.733 -23.922,-48.167C-17.141,-54.596 -6.428,-54.311 0,-47.53" style="fill:rgb(155,211,32);fill-rule:nonzero;"/>
        </g>
        <g transform="matrix(-0.949094,1.0911,0.900454,1.15004,1458.89,678.871)">
            <path d="M4.009,-10.045C8.449,-10.045 12.049,-7.442 12.051,-4.222C12.051,-1.009 8.455,1.602 4.009,1.601C-0.43,1.603 -4.033,-1.004 -4.035,-4.216C-4.034,-7.438 -0.435,-10.044 4.009,-10.045" style="fill:rgb(182,226,59);fill-rule:nonzero;"/>
        </g>
        <g transform="matrix(-0.949462,1.09063,0.900066,1.15049,1453.67,718.001)">
            <path d="M4.234,-10.627C9.213,-10.626 13.247,-7.87 13.248,-4.465C13.248,-1.067 9.213,1.691 4.234,1.689C-0.743,1.688 -4.777,-1.069 -4.777,-4.47C-4.779,-7.872 -0.74,-10.631 4.234,-10.627" style="fill:rgb(182,226,59);fill-rule:nonzero;"/>
        </g>
        <g transform="matrix(0,-1.58528,-1.30828,0,767.613,594.581)">
            <path d="M-74.373,-80.095C-118.155,-80.095 -144.61,-45.515 -144.61,-2.862C-144.61,39.794 -118.155,74.373 -74.373,74.373C-30.593,74.373 -9.858,39.794 -9.858,-2.862C-9.858,-45.515 -30.593,-80.095 -74.373,-80.095" style="fill:rgb(225,48,48);fill-rule:nonzero;"/>
        </g>
        <g transform="matrix(1.30828,0,0,1.58528,823.576,616.514)">
            <path d="M0,-6.233C0,-6.233 -13.927,-3.204 -38.93,-4.776C-38.704,-12.222 -37.026,-24.995 -28.901,-33.699L-33.235,-37.746C-42.724,-27.583 -44.643,-13.24 -44.878,-4.891C-50.913,-4.703 -66.123,-4.486 -82.479,-6.233C-82.479,-6.233 -69.584,9.261 -56.714,8.097C-56.714,8.097 -71.231,20.336 -72.476,31.513C-72.476,31.513 -41.239,16.682 -39.211,11.109C-39.211,11.109 -24.898,23.299 -6.347,31.096C-6.347,31.096 -11.574,10.455 -19.838,5.549C-17.749,6.014 -4.558,1.05 0,-6.233" style="fill:rgb(0,104,55);fill-rule:nonzero;"/>
        </g>
        <g transform="matrix(0.852278,-1.20274,-0.992582,-1.03273,703.355,660.674)">
            <path d="M-1.696,-1.861C-9.97,-0.963 -18.51,-2.282 -17.859,2.542C-17.208,7.368 -9.971,10.553 -1.696,9.655C6.58,8.755 12.762,4.115 12.113,-0.711C11.461,-5.537 6.582,-2.759 -1.696,-1.861" style="fill:rgb(255,153,153);fill-rule:nonzero;"/>
        </g>
        <g transform="matrix(1.30828,0,0,1.58528,872.4,742.348)">
            <path d="M0,-18.837C0,24.94 -34.578,51.398 -77.233,51.398C-93.593,51.398 -108.771,47.504 -121.263,40.226C-111.79,43.45 -101.384,45.134 -90.465,45.134C-46.551,45.134 -10.953,17.904 -10.953,-27.176C-10.953,-45.322 -16.724,-59.624 -26.486,-70.235C-10.255,-59.693 0,-42.682 0,-18.837" style="fill:rgb(221,0,0);fill-rule:nonzero;"/>
        </g>
        <g transform="matrix(1.30828,0,0,-1.58528,11.6303,-1694.44)">
            <path d="M723.77,-1578.78C724.917,-1578.79 729.099,-1578.83 730.829,-1578.84C734.296,-1578.87 738.357,-1578.9 740.658,-1578.92C747.585,-1578.98 752.115,-1579.02 768.132,-1579.15C804.842,-1579.45 823.203,-1579.6 859.909,-1579.91C878.916,-1580.06 887.767,-1580.13 909.1,-1580.31C909.789,-1496.77 909.925,-1459.38 910.804,-1352.91C891.763,-1352.75 878.042,-1352.64 862.178,-1352.51C829.417,-1352.24 802.548,-1352.02 769.79,-1351.75C754.614,-1351.62 747.487,-1351.56 743.285,-1351.53C741.225,-1351.51 736.424,-1351.47 733.327,-1351.45C731.786,-1351.43 726.839,-1351.39 725.815,-1351.38C725.079,-1440.79 724.372,-1505.8 723.77,-1578.78Z" style="fill-rule:nonzero;"/>
        </g>
        <g transform="matrix(1.30828,0,0,-1.58528,11.6303,-1322.55)">
            <path d="M721.841,-1343.63C721.363,-1346.34 721.126,-1347.69 720.646,-1350.41C720.522,-1351.13 721.139,-1351.78 721.974,-1351.81C784.887,-1353.99 847.833,-1354.51 910.777,-1353.37C911.608,-1353.36 912.237,-1352.71 912.121,-1351.99C911.689,-1349.27 911.475,-1347.91 911.046,-1345.19C910.948,-1344.58 910.341,-1344.12 909.635,-1344.13C847.504,-1345.24 785.369,-1344.73 723.263,-1342.6C723.245,-1342.6 723.227,-1342.6 723.209,-1342.6C722.528,-1342.6 721.944,-1343.03 721.841,-1343.63Z" style="fill-rule:nonzero;"/>
        </g>
        <g transform="matrix(1.30828,0,0,-1.58528,11.6303,-2059.15)">
            <path d="M723.957,-1575.77C723.123,-1575.79 722.497,-1576.43 722.609,-1577.15C723.044,-1579.87 723.26,-1581.23 723.69,-1583.95C723.787,-1584.57 724.394,-1585.02 725.096,-1585.01C787.229,-1583.9 849.362,-1584.41 911.471,-1586.54C912.173,-1586.57 912.787,-1586.12 912.899,-1585.52C913.37,-1582.8 913.607,-1581.45 914.083,-1578.73C914.213,-1578.02 913.593,-1577.36 912.763,-1577.33C871.438,-1575.9 830.105,-1575.18 788.765,-1575.18C767.164,-1575.18 745.558,-1575.38 723.957,-1575.77Z" style="fill-rule:nonzero;"/>
        </g>
        <g transform="matrix(243.158,2.43195,2.00701,-294.642,959.044,630.943)">
            <rect x="0" y="-0.602" width="1" height="1.204" style="fill:url(#_Linear1);"/>
        </g>
        <g transform="matrix(1.30828,0,0,1.58528,1002.66,642.267)">
            <path d="M0,-21.334L-0.052,-12.171L3.126,-12.152C5.414,-12.14 6.945,-12.299 7.718,-12.633C8.492,-12.966 9.1,-13.491 9.542,-14.208C9.984,-14.926 10.208,-15.761 10.213,-16.716C10.22,-17.891 9.918,-18.861 9.308,-19.629C8.697,-20.396 7.922,-20.878 6.981,-21.074C6.29,-21.225 4.897,-21.306 2.805,-21.317L0,-21.334ZM-5.958,5.463L-5.775,-26.829L3.542,-26.776C7.072,-26.757 9.373,-26.583 10.444,-26.253C12.088,-25.76 13.462,-24.698 14.564,-23.068C15.667,-21.439 16.211,-19.341 16.196,-16.771C16.185,-14.788 15.855,-13.123 15.207,-11.775C14.559,-10.428 13.739,-9.372 12.747,-8.606C11.755,-7.841 10.749,-7.336 9.727,-7.093C8.339,-6.792 6.332,-6.649 3.703,-6.664L-0.083,-6.686L-0.151,5.495L-5.958,5.463Z" style="fill:rgb(23,72,137);fill-rule:nonzero;"/>
        </g>
        <g transform="matrix(1.30828,0,0,1.58528,1036.77,613.323)">
            <path d="M0,23.902L-5.512,23.871L-5.38,0.478L-0.261,0.507L-0.279,3.834C0.605,2.267 1.399,1.236 2.102,0.74C2.805,0.246 3.6,0 4.489,0.005C5.744,0.012 6.952,0.409 8.111,1.193L6.374,6.58C5.449,5.9 4.589,5.557 3.791,5.552C3.02,5.548 2.364,5.783 1.826,6.257C1.287,6.732 0.86,7.592 0.546,8.839C0.231,10.085 0.063,12.698 0.041,16.676L0,23.902Z" style="fill:rgb(23,72,137);fill-rule:nonzero;"/>
        </g>
        <g transform="matrix(1.30828,0,0,1.58528,1056.13,632.904)">
            <path d="M0,-0.063C-0.013,2.258 0.467,4.038 1.441,5.276C2.415,6.514 3.621,7.138 5.06,7.147C6.498,7.155 7.708,6.544 8.689,5.317C9.67,4.089 10.167,2.3 10.181,-0.049C10.194,-2.34 9.716,-4.105 8.75,-5.343C7.782,-6.584 6.579,-7.207 5.141,-7.214C3.702,-7.223 2.489,-6.614 1.501,-5.384C0.513,-4.157 0.013,-2.383 0,-0.063M-5.647,-0.424C-5.636,-2.48 -5.173,-4.468 -4.26,-6.387C-3.347,-8.305 -2.061,-9.767 -0.4,-10.77C1.26,-11.775 3.109,-12.271 5.149,-12.259C8.301,-12.242 10.877,-11.078 12.878,-8.768C14.878,-6.459 15.869,-3.548 15.85,-0.039C15.83,3.5 14.796,6.427 12.75,8.743C10.703,11.06 8.137,12.208 5.051,12.191C3.141,12.18 1.323,11.685 -0.404,10.707C-2.131,9.727 -3.441,8.299 -4.333,6.421C-5.225,4.544 -5.663,2.263 -5.647,-0.424" style="fill:rgb(23,72,137);fill-rule:nonzero;"/>
        </g>
        <g transform="matrix(1.30828,0,0,1.58528,1095.1,639.3)">
            <path d="M0,-15.626L-0.028,-10.692L-3.794,-10.714L-3.848,-1.285C-3.858,0.623 -3.829,1.736 -3.758,2.052C-3.688,2.368 -3.526,2.629 -3.272,2.837C-3.019,3.044 -2.708,3.148 -2.342,3.15C-1.833,3.153 -1.093,2.96 -0.123,2.568L0.321,7.373C-0.964,7.982 -2.417,8.282 -4.039,8.273C-5.032,8.268 -5.927,8.076 -6.723,7.696C-7.519,7.317 -8.101,6.829 -8.47,6.232C-8.839,5.636 -9.093,4.83 -9.231,3.815C-9.345,3.097 -9.396,1.642 -9.383,-0.546L-9.326,-10.745L-11.856,-10.759L-11.829,-15.692L-9.298,-15.679L-9.271,-20.327L-3.72,-23.908L-3.767,-15.647L0,-15.626Z" style="fill:rgb(23,72,137);fill-rule:nonzero;"/>
        </g>
        <g transform="matrix(1.30828,0,0,1.58528,1116.22,636.312)">
            <path d="M0,-3.957C-0.029,-5.749 -0.433,-7.113 -1.212,-8.051C-1.992,-8.987 -2.944,-9.459 -4.068,-9.466C-5.271,-9.473 -6.268,-8.985 -7.058,-8.007C-7.848,-7.027 -8.241,-5.692 -8.238,-4.004L0,-3.957ZM-0.349,2.297L5.138,3.362C4.419,5.62 3.294,7.335 1.764,8.51C0.233,9.683 -1.675,10.263 -3.964,10.249C-7.586,10.23 -10.259,8.886 -11.983,6.218C-13.345,4.08 -14.016,1.39 -13.998,-1.855C-13.976,-5.732 -13.056,-8.764 -11.239,-10.948C-9.422,-13.134 -7.134,-14.22 -4.375,-14.204C-1.276,-14.186 1.163,-13.023 2.942,-10.715C4.72,-8.406 5.557,-4.881 5.452,-0.138L-8.357,-0.216C-8.329,1.62 -7.892,3.051 -7.047,4.075C-6.204,5.101 -5.147,5.616 -3.879,5.624C-3.016,5.629 -2.289,5.369 -1.697,4.843C-1.106,4.318 -0.657,3.469 -0.349,2.297" style="fill:rgb(23,72,137);fill-rule:nonzero;"/>
        </g>
        <g transform="matrix(1.30828,0,0,1.58528,1129.35,642.818)">
            <path d="M0,-20.87L0.032,-26.597L5.544,-26.565L5.512,-20.839L0,-20.87ZM-0.15,5.695L-0.018,-17.697L5.494,-17.666L5.362,5.727L-0.15,5.695Z" style="fill:rgb(23,72,137);fill-rule:nonzero;"/>
        </g>
        <g transform="matrix(1.30828,0,0,1.58528,1168.55,614.105)">
            <path d="M0,23.978L-5.512,23.947L-5.444,12.008C-5.43,9.483 -5.539,7.848 -5.77,7.105C-6.001,6.363 -6.38,5.784 -6.908,5.37C-7.435,4.956 -8.071,4.746 -8.816,4.742C-9.771,4.737 -10.63,5.026 -11.392,5.608C-12.153,6.192 -12.677,6.967 -12.964,7.934C-13.251,8.903 -13.401,10.694 -13.416,13.307L-13.476,23.902L-18.988,23.871L-18.856,0.478L-13.736,0.507L-13.755,3.944C-11.923,1.31 -9.627,0 -6.868,0.016C-5.652,0.023 -4.542,0.276 -3.537,0.774C-2.533,1.271 -1.775,1.904 -1.263,2.67C-0.75,3.437 -0.396,4.305 -0.198,5.275C-0.001,6.246 0.092,7.634 0.082,9.44L0,23.978Z" style="fill:rgb(23,72,137);fill-rule:nonzero;"/>
        </g>
        <g transform="matrix(1.30828,0,0,1.58528,850.195,572.324)">
            <path d="M0,138.56C1.653,141.015 3.521,143.025 5.573,144.511C5.573,144.511 26.408,153.064 55.26,145.796C57.385,144.418 59.354,142.507 61.133,140.142C74.245,123.265 80.396,83.104 83.258,46.945C85.135,23.278 85.625,1.331 85.745,-11.342C88.194,-12.628 89.783,-13.977 90.475,-15.472C90.599,0.317 90.599,131.417 59.985,151.319L60.144,151.567C54.554,155.798 43.156,158.487 30.078,158.147C16.796,157.803 5.436,154.404 0.116,149.808L0.16,149.77C-31.228,126.914 -21.581,-19.927 -21.581,-19.927C-21.633,-17.882 -19.924,-15.878 -16.746,-13.996C-17.275,-1.374 -17.925,20.61 -17.313,44.303C-16.287,80.602 -12.222,121.027 0,138.56" style="fill:rgb(109,112,98);fill-rule:nonzero;"/>
        </g>
        <g transform="matrix(1.30828,0,0,1.58528,850.195,572.324)">
            <path d="M0,138.56C1.653,141.015 3.521,143.025 5.573,144.511C5.573,144.511 26.408,153.064 55.26,145.796C57.385,144.418 59.354,142.507 61.133,140.142C74.245,123.265 80.396,83.104 83.258,46.945C85.135,23.278 85.625,1.331 85.745,-11.342C88.194,-12.628 89.783,-13.977 90.475,-15.472C90.599,0.317 90.599,131.417 59.985,151.319L60.144,151.567C54.554,155.798 43.156,158.487 30.078,158.147C16.796,157.803 5.436,154.404 0.116,149.808L0.16,149.77C-31.228,126.914 -21.581,-19.927 -21.581,-19.927C-21.633,-17.882 -19.924,-15.878 -16.746,-13.996C-17.275,-1.374 -17.925,20.61 -17.313,44.303C-16.287,80.602 -12.222,121.027 0,138.56" style="fill:white;fill-rule:nonzero;"/>
        </g>
        <g transform="matrix(1.30828,0,0,1.58528,962.345,542.696)">
            <path d="M0,5.097C-0.925,7.691 -5.931,9.932 -13.542,11.576C-14.854,11.87 -16.25,12.118 -17.73,12.326C-19.166,12.577 -20.685,12.783 -22.203,12.986C-22.368,12.982 -22.533,13.022 -22.658,13.058C-24.051,13.226 -25.484,13.352 -26.922,13.519C-26.961,13.518 -27.002,13.517 -27.002,13.517C-28.439,13.643 -29.911,13.769 -31.428,13.893C-31.632,13.887 -31.879,13.881 -32.084,13.916C-33.805,14.035 -35.563,14.114 -37.366,14.191C-39.412,14.262 -41.499,14.326 -43.629,14.356C-45.262,14.355 -46.899,14.351 -48.534,14.31C-49.514,14.324 -50.455,14.298 -51.436,14.274C-52.414,14.247 -53.356,14.223 -54.337,14.159C-55.97,14.117 -57.604,14.035 -59.237,13.951C-61.361,13.814 -63.44,13.64 -65.481,13.463C-67.279,13.292 -69.031,13.122 -70.743,12.915C-70.945,12.869 -71.191,12.863 -71.396,12.859C-72.904,12.656 -74.368,12.454 -75.797,12.254C-75.797,12.254 -75.837,12.253 -75.877,12.251C-77.304,12.011 -78.688,11.812 -80.073,11.571C-80.236,11.528 -80.396,11.48 -80.561,11.476C-81.739,11.241 -82.882,11.048 -84.018,10.815C-85.282,10.578 -86.5,10.3 -87.64,9.987C-96.09,7.886 -101.581,5.208 -102.324,2.326C-102.441,2.079 -102.474,1.79 -102.467,1.543C-102.305,-4.747 -79.206,-9.259 -50.846,-8.525C-22.484,-7.791 0.389,-2.089 0.226,4.201C0.219,4.489 0.171,4.815 0,5.097" style="fill:rgb(219,235,235);fill-rule:nonzero;"/>
        </g>
        <g transform="matrix(1.30828,0,0,1.58528,962.373,642.539)">
            <path d="M0,-55.634C-0.12,-42.961 -0.609,-21.014 -2.486,2.653L-3.468,2.589C-3.252,-5.707 -25.312,-12.984 -52.771,-13.696C-80.192,-14.405 -102.599,-8.28 -102.813,0.017L-103.058,0.012C-103.67,-23.682 -103.02,-45.665 -102.491,-58.287C-99.104,-56.279 -93.999,-54.47 -87.661,-52.994C-86.522,-52.681 -85.303,-52.403 -84.039,-52.166C-82.943,-51.934 -81.803,-51.701 -80.583,-51.505C-80.418,-51.501 -80.257,-51.453 -80.094,-51.41C-78.751,-51.171 -77.326,-50.93 -75.898,-50.73C-75.858,-50.728 -75.818,-50.727 -75.818,-50.727C-74.391,-50.488 -72.926,-50.284 -71.417,-50.122C-71.213,-50.118 -70.966,-50.112 -70.765,-50.066C-69.053,-49.859 -67.301,-49.65 -65.502,-49.518C-63.462,-49.341 -61.383,-49.167 -59.258,-49.03C-57.666,-48.948 -56.031,-48.866 -54.359,-48.822C-53.378,-48.758 -52.436,-48.734 -51.458,-48.707C-50.476,-48.683 -49.535,-48.657 -48.556,-48.671C-46.88,-48.628 -45.244,-48.626 -43.65,-48.625C-41.52,-48.655 -39.434,-48.719 -37.388,-48.79C-35.585,-48.828 -33.826,-48.946 -32.105,-49.065C-31.9,-49.1 -31.653,-49.094 -31.45,-49.088C-29.935,-49.172 -28.461,-49.299 -27.023,-49.464C-27.023,-49.464 -26.982,-49.463 -26.943,-49.462C-25.467,-49.589 -24.072,-49.755 -22.679,-49.923C-22.554,-49.959 -22.389,-49.999 -22.225,-49.995C-20.668,-50.158 -19.187,-50.404 -17.751,-50.655C-16.271,-50.863 -14.876,-51.111 -13.563,-51.405C-7.847,-52.526 -3.231,-53.96 0,-55.634" style="fill:rgb(219,235,235);fill-rule:nonzero;"/>
        </g>
        <g transform="matrix(-1.30784,-0.0410444,-0.0338726,1.58475,891.86,668.426)">
            <path d="M-0.348,-30.045C-27.817,-30.044 -50.057,-23.341 -50.056,-15.042C-50.057,-6.742 -27.817,0.003 -0.348,0.005C27.082,0.004 49.321,-6.741 49.322,-15.04C49.322,-23.34 27.082,-30.043 -0.348,-30.045" style="fill:rgb(233,250,248);fill-rule:nonzero;"/>
        </g>
        <g transform="matrix(1.30828,0,0,1.58528,957.835,810.888)">
            <path d="M0,-103.607C-0.214,-95.309 -22.621,-89.142 -50.082,-89.852C-77.502,-90.563 -99.56,-97.881 -99.345,-106.178L-99.589,-106.184C-98.563,-69.885 -94.499,-29.461 -82.276,-11.927C-80.624,-9.472 -78.755,-7.462 -76.704,-5.976C-76.704,-5.976 -55.869,2.577 -27.017,-4.691C-24.892,-6.069 -22.922,-7.98 -21.143,-10.345C-8.031,-27.222 -1.88,-67.383 0.982,-103.543L0,-103.607Z" style="fill:white;fill-rule:nonzero;"/>
        </g>
        <g transform="matrix(39.7455,-274.267,-226.344,-48.1607,921.365,809.788)">
            <path d="M0.934,-0.017C0.922,-0.001 0.909,0.024 0.897,0.055C0.894,0.062 0.892,0.069 0.889,0.078C0.887,0.084 0.885,0.09 0.883,0.096C0.59,0.04 0.276,0.026 0.002,0.054C0.008,0.036 0.015,0.018 0.023,-0.001C0.033,-0.011 0.046,-0.021 0.061,-0.028C0.168,-0.085 0.4,-0.08 0.605,-0.061C0.74,-0.048 0.863,-0.029 0.934,-0.017Z" style="fill:url(#_Linear2);fill-rule:nonzero;"/>
        </g>
        <g transform="matrix(-219.053,66.3829,54.7837,265.432,964.871,639.787)">
            <path d="M0.48,-0.443C0.572,-0.207 0.632,0.08 0.634,0.358C0.589,0.398 0.537,0.427 0.48,0.446C0.458,0.174 0.394,-0.102 0.316,-0.365C0.324,-0.368 0.431,-0.409 0.48,-0.443Z" style="fill:url(#_Linear3);fill-rule:nonzero;"/>
        </g>
        <g transform="matrix(1.30828,0,0,1.58528,895.417,530.307)">
            <path d="M0,19.142C-32.369,18.304 -49.84,10.587 -49.743,6.855L-49.916,6.851C-44.577,1.921 -24.102,-1.342 0.311,-0.71C24.937,-0.072 45.402,4.311 50.266,9.573C49.789,13.33 32.013,19.97 0,19.142M56.287,9.6C56.292,9.561 56.317,9.53 56.318,9.489C56.519,1.723 31.508,-5.221 0.449,-6.026C-30.608,-6.83 -55.945,-1.189 -56.146,6.578C-56.162,7.208 -55.955,7.833 -55.644,8.453C-53.162,19.063 -25.819,24.607 -0.159,25.271C26.886,25.972 56.129,21.37 56.434,9.604L56.287,9.6Z" style="fill:white;fill-rule:nonzero;"/>
        </g>
        <g transform="matrix(1.30828,0,0,1.58528,827.363,576.533)">
            <path d="M0,-15.73C5.705,-11.649 12.568,-9.607 19.338,-7.972C26.162,-6.403 33.122,-5.449 40.099,-4.829C47.074,-4.161 54.09,-3.838 61.1,-3.882C68.095,-3.985 75.157,-4.224 81.996,-5.706L82.089,-5.31C78.814,-3.73 75.27,-3 71.773,-2.14C68.246,-1.508 64.696,-1.077 61.138,-0.71C54.01,0 46.855,-0.197 39.726,-0.761C32.613,-1.484 25.498,-2.646 18.594,-4.838C11.766,-6.971 4.777,-10.087 -0.24,-15.4L0,-15.73Z" style="fill:white;fill-rule:nonzero;"/>
        </g>
    </g>
    <defs>
        <linearGradient id="_Linear1" x1="0" y1="0" x2="1" y2="0" gradientUnits="userSpaceOnUse" gradientTransform="matrix(1,5.31e-05,5.31e-05,-1,8.29049e-10,-3.1226e-05)"><stop offset="0" style="stop-color:rgb(222,194,0);stop-opacity:1"/><stop offset="0.53" style="stop-color:rgb(255,255,55);stop-opacity:1"/><stop offset="1" style="stop-color:rgb(222,194,0);stop-opacity:1"/></linearGradient>
        <linearGradient id="_Linear2" x1="0" y1="0" x2="1" y2="0" gradientUnits="userSpaceOnUse" gradientTransform="matrix(1,0,0,-1,0,0.0111411)"><stop offset="0" style="stop-color:white;stop-opacity:1"/><stop offset="1" style="stop-color:rgb(228,238,242);stop-opacity:1"/></linearGradient>
        <linearGradient id="_Linear3" x1="0" y1="0" x2="1" y2="0" gradientUnits="userSpaceOnUse" gradientTransform="matrix(0.0217919,0.999763,0.999763,-0.0217919,0.46481,-0.475052)"><stop offset="0" style="stop-color:white;stop-opacity:1"/><stop offset="1" style="stop-color:black;stop-opacity:1"/></linearGradient>
    </defs>
</svg>
