<?xml version="1.0" encoding="UTF-8" standalone="no"?>
<!DOCTYPE svg PUBLIC "-//W3C//DTD SVG 1.1//EN" "http://www.w3.org/Graphics/SVG/1.1/DTD/svg11.dtd">
<svg width="100%" height="100%" viewBox="0 0 280 181" version="1.1" xmlns="http://www.w3.org/2000/svg" xmlns:xlink="http://www.w3.org/1999/xlink" xml:space="preserve" xmlns:serif="http://www.serif.com/" style="fill-rule:evenodd;clip-rule:evenodd;stroke-linejoin:round;stroke-miterlimit:2;">
    <g id="画板1" transform="matrix(0.413986,0,0,0.301989,-255.777,-68.4792)">
        <rect x="617.838" y="226.761" width="675.326" height="597.199" style="fill:none;"/>
        <g transform="matrix(-1.79687,-3.66416,-2.67288,2.46328,791.814,427.018)">
            <path d="M-51.673,-97.005C-86.064,-97.007 -113.94,-69.127 -113.94,-34.74C-113.939,-0.348 -86.062,27.528 -51.673,27.529C-17.284,27.528 10.592,-0.349 10.593,-34.74C10.593,-69.129 -17.285,-97.005 -51.673,-97.005" style="fill:rgb(255,237,55);fill-rule:nonzero;"/>
        </g>
        <g transform="matrix(3.22072,0,0,4.41518,838.369,576.91)">
            <path d="M0,32.158C-2.917,32.7 -6.038,32.989 -9.342,32.914C-24.833,32.564 -39.751,24.481 -53.676,8.892L-42.792,-0.831C-31.728,11.555 -20.425,18 -9.195,18.32C4.91,18.723 14.688,9.13 14.785,9.033L25.187,19.268C24.715,19.752 15.155,29.348 0,32.158" style="fill:rgb(255,237,55);fill-rule:nonzero;"/>
        </g>
        <g transform="matrix(-1.79683,-3.6642,-2.6729,2.46322,634.011,587.907)">
            <path d="M-11.455,-21.504C-19.078,-21.504 -25.256,-15.324 -25.256,-7.703C-25.256,-0.079 -19.078,6.099 -11.455,6.101C-3.832,6.102 2.348,-0.078 2.346,-7.703C2.346,-15.324 -3.834,-21.503 -11.455,-21.504" style="fill:rgb(255,237,55);fill-rule:nonzero;"/>
        </g>
        <g transform="matrix(-1.79691,-3.66412,-2.67285,2.46333,1191.24,312.233)">
            <path d="M-11.453,-21.502C-19.076,-21.502 -25.257,-15.323 -25.255,-7.7C-25.255,-0.078 -19.077,6.101 -11.453,6.1C-3.83,6.101 2.348,-0.079 2.348,-7.7C2.348,-15.324 -3.83,-21.501 -11.453,-21.502" style="fill:rgb(255,237,55);fill-rule:nonzero;"/>
        </g>
        <g transform="matrix(3.22072,0,0,4.41518,1169.01,343.321)">
            <path d="M0,59.4L-6.658,46.413L-3.33,52.907L-6.669,46.42C-6.575,46.371 2.751,41.504 10.163,33.622C23.158,19.8 18.187,9.775 16.554,6.481L29.631,0C36.845,14.559 33.609,30.153 20.521,43.905C11.381,53.509 0.459,59.165 0,59.4" style="fill:rgb(255,237,55);fill-rule:nonzero;"/>
        </g>
        <g transform="matrix(-1.5945,-3.83613,-2.79832,2.18585,1052.15,431.267)">
            <path d="M3.674,15.384L8.538,15.384C8.539,11.746 8.689,1.64 9.373,-1.375L4.63,-2.45C3.701,1.641 3.674,13.989 3.674,15.384" style="fill:rgb(229,94,42);fill-rule:nonzero;"/>
        </g>
        <g transform="matrix(-3.11303,-1.13214,-0.82586,4.26756,893.065,421.502)">
            <rect x="-14.564" y="1.898" width="15.444" height="4.865" style="fill:rgb(229,94,42);"/>
        </g>
        <g transform="matrix(-0.88207,-4.24637,-3.09758,1.2092,1070.66,469.416)">
            <path d="M-14.921,-19.76C-23.488,-19.759 -30.433,-12.814 -30.432,-4.247C-30.431,4.319 -23.486,11.267 -14.921,11.265C-6.353,11.264 0.592,4.319 0.592,-4.248C0.591,-12.814 -6.354,-19.76 -14.921,-19.76" style="fill:rgb(255,213,0);fill-rule:nonzero;"/>
        </g>
        <g transform="matrix(-0.88207,-4.24637,-3.09758,1.2092,953.639,553.304)">
            <path d="M-14.921,-19.76C-23.488,-19.759 -30.433,-12.814 -30.432,-4.247C-30.431,4.319 -23.486,11.267 -14.921,11.265C-6.353,11.264 0.592,4.319 0.592,-4.248C0.591,-12.814 -6.354,-19.76 -14.921,-19.76" style="fill:rgb(243,152,0);fill-rule:nonzero;"/>
        </g>
        <g transform="matrix(-0.882002,-4.24639,-3.0976,1.20911,832.997,521.776)">
            <path d="M-14.922,-19.761C-23.488,-19.76 -30.433,-12.813 -30.433,-4.247C-30.434,4.319 -23.488,11.265 -14.922,11.263C-6.354,11.265 0.591,4.319 0.589,-4.245C0.592,-12.814 -6.355,-19.758 -14.922,-19.761" style="fill:rgb(255,213,0);fill-rule:nonzero;"/>
        </g>
        <g transform="matrix(-0.318895,-4.39348,-3.20489,0.437162,1025.1,459.403)">
            <path d="M-6.835,-7.548C-13.3,-7.548 -18.542,-4.471 -18.541,-0.682C-18.54,3.112 -13.3,6.187 -6.835,6.188C-0.37,6.189 4.87,3.113 4.87,-0.681C4.871,-4.476 -0.37,-7.548 -6.835,-7.548" style="fill:rgb(229,94,42);fill-rule:nonzero;"/>
        </g>
        <g transform="matrix(-0.318732,-4.3935,-3.20491,0.436939,910.326,485.361)">
            <path d="M-6.832,-7.544C-13.296,-7.547 -18.537,-4.472 -18.538,-0.678C-18.537,3.114 -13.297,6.188 -6.832,6.188C-0.368,6.19 4.872,3.115 4.872,-0.678C4.874,-4.472 -0.366,-7.546 -6.832,-7.544" style="fill:rgb(229,94,42);fill-rule:nonzero;"/>
        </g>
    </g>
</svg>
