<?xml version="1.0" encoding="UTF-8" standalone="no"?>
<!DOCTYPE svg PUBLIC "-//W3C//DTD SVG 1.1//EN" "http://www.w3.org/Graphics/SVG/1.1/DTD/svg11.dtd">
<svg width="100%" height="100%" viewBox="0 0 258 79" version="1.1" xmlns="http://www.w3.org/2000/svg" xmlns:xlink="http://www.w3.org/1999/xlink" xml:space="preserve" xmlns:serif="http://www.serif.com/" style="fill-rule:evenodd;clip-rule:evenodd;stroke-linejoin:round;stroke-miterlimit:2;">
    <g id="画板1" transform="matrix(0.911053,0,0,0.741336,-625.668,-339.564)">
        <rect x="686.752" y="458.043" width="282.45" height="106.183" style="fill:none;"/>
        <clipPath id="_clip1">
            <rect x="686.752" y="458.043" width="282.45" height="106.183"/>
        </clipPath>
        <g clip-path="url(#_clip1)">
            <g transform="matrix(1.46351,0,0,1.79855,970.028,511.373)">
                <path d="M0,-0.001C0,16.248 -9.854,29.419 -22.011,29.419L-171.795,29.419C-183.949,29.419 -193.804,16.248 -193.804,-0.001C-193.804,-16.249 -183.949,-29.42 -171.795,-29.42L-22.011,-29.42C-9.854,-29.42 0,-16.249 0,-0.001" style="fill:rgb(23,72,172);fill-rule:nonzero;"/>
            </g>
            <g transform="matrix(1.46351,0,0,1.79855,771.167,492.59)">
                <path d="M0,23.028L0,5.994L-6.976,23.028L-9.989,23.028L-16.965,5.994L-16.965,23.028L-20.154,23.028L-20.154,0L-16.088,0L-8.482,18.822L-0.877,0L3.189,0L3.189,23.028L0,23.028Z" style="fill:white;fill-rule:nonzero;"/>
            </g>
            <g transform="matrix(1.46351,0,0,1.79855,802.452,524.678)">
                <path d="M0,-12.653C-1.227,-14.195 -2.804,-15.001 -4.767,-15.001C-6.765,-15.001 -8.377,-14.195 -9.568,-12.653C-10.761,-11.076 -11.356,-8.973 -11.356,-6.344C-11.356,-3.68 -10.761,-1.577 -9.533,-0C-8.342,1.612 -6.729,2.383 -4.767,2.383C-2.804,2.383 -1.227,1.612 0,-0C1.191,-1.577 1.822,-3.68 1.822,-6.344C1.822,-8.973 1.191,-11.076 0,-12.653M2.594,1.963C0.771,4.311 -1.683,5.468 -4.767,5.468C-7.887,5.468 -10.34,4.311 -12.127,1.963C-13.845,-0.211 -14.686,-2.979 -14.686,-6.344C-14.686,-9.674 -13.845,-12.443 -12.127,-14.616C-10.34,-16.929 -7.887,-18.121 -4.767,-18.121C-1.683,-18.121 0.771,-16.929 2.594,-14.616C4.275,-12.443 5.152,-9.674 5.152,-6.344C5.152,-2.979 4.275,-0.211 2.594,1.963" style="fill:white;fill-rule:nonzero;"/>
            </g>
            <g transform="matrix(1.46351,0,0,1.79855,829.379,528.584)">
                <path d="M0,-16.998L-6.52,-16.998L-6.52,-9.953L0,-9.953C1.612,-9.953 2.874,-10.304 3.715,-11.04C4.416,-11.671 4.767,-12.477 4.767,-13.493C4.767,-15.807 3.154,-16.998 0,-16.998M5.152,3.015L-0.175,-6.939L-6.52,-6.939L-6.52,3.015L-9.744,3.015L-9.744,-20.013L0.07,-20.013C2.453,-20.013 4.346,-19.452 5.783,-18.365C7.29,-17.173 8.062,-15.561 8.062,-13.493C8.062,-10.479 6.449,-8.446 3.26,-7.43L8.798,3.015L5.152,3.015Z" style="fill:white;fill-rule:nonzero;"/>
            </g>
            <g transform="matrix(1.46351,0,0,1.79855,846.353,492.59)">
                <path d="M0,23.028L0,0L14.511,0L14.511,3.015L3.189,3.015L3.189,9.744L13.214,9.744L13.214,12.758L3.189,12.758L3.189,20.014L14.511,20.014L14.511,23.028L0,23.028Z" style="fill:white;fill-rule:nonzero;"/>
            </g>
            <g transform="matrix(1.46351,0,0,1.79855,917.974,532.514)">
                <path d="M0,-16.866C-1.118,-16.464 -1.687,-15.223 -1.263,-14.115L-0.766,-12.815L-1.728,-15.33C-2.158,-16.456 -3.407,-17.085 -4.54,-16.675C-5.694,-16.258 -6.277,-14.976 -5.841,-13.835L-5.161,-12.056L-6.323,-15.093C-6.757,-16.23 -8.021,-16.866 -9.165,-16.451C-10.332,-16.03 -10.921,-14.735 -10.479,-13.581L-9.434,-10.846L-13.224,-20.757C-14.325,-23.637 -15.731,-24.197 -16.97,-23.658C-18.104,-23.166 -18.643,-21.761 -18.201,-20.606L-11.631,-3.426L-12.159,-4.807L-15.562,-7.118C-16.37,-7.566 -17.386,-7.432 -18.032,-6.772C-18.036,-6.768 -18.039,-6.764 -18.043,-6.761C-18.872,-5.904 -18.271,-4.484 -17.655,-3.398C-15.379,0.619 -12.26,4.223 -8.358,6.714C-7.534,7.239 -6.506,7.331 -5.593,6.982L5.137,2.879C6.451,2.377 7.29,1.088 7.234,-0.318C7.132,-2.862 6.616,-5.376 5.704,-7.761L2.721,-15.562C2.305,-16.65 1.097,-17.26 0,-16.866" style="fill:white;fill-rule:nonzero;"/>
            </g>
            <g transform="matrix(1.46351,0,0,1.79855,892.964,514.718)">
                <path d="M0,3.234C-0.184,3.304 -0.354,3.414 -0.497,3.56C-0.925,4.002 -0.762,4.883 -0.022,6.189C2.353,10.381 5.495,13.802 9.066,16.081C9.714,16.495 10.539,16.574 11.272,16.294L22.002,12.191C23.062,11.785 23.744,10.745 23.699,9.602C23.599,7.118 23.098,4.68 22.21,2.358L19.226,-5.444C18.924,-6.234 18.061,-6.656 17.301,-6.383C16.919,-6.248 16.617,-5.968 16.448,-5.6C16.278,-5.232 16.266,-4.822 16.41,-4.443L16.907,-3.143C17.03,-2.822 16.869,-2.46 16.546,-2.337C16.225,-2.214 15.863,-2.375 15.74,-2.697L14.778,-5.212C14.462,-6.04 13.557,-6.48 12.762,-6.192C12.363,-6.047 12.046,-5.757 11.87,-5.372C11.694,-4.988 11.68,-4.558 11.831,-4.163L12.512,-2.385C12.635,-2.063 12.474,-1.702 12.151,-1.578C11.829,-1.455 11.468,-1.616 11.344,-1.939L10.183,-4.974C9.861,-5.815 8.944,-6.261 8.136,-5.969C7.732,-5.822 7.411,-5.527 7.232,-5.137C7.053,-4.746 7.039,-4.31 7.193,-3.909L8.238,-1.174C8.361,-0.852 8.2,-0.491 7.878,-0.368C7.557,-0.245 7.194,-0.406 7.072,-0.728L3.281,-10.639C2.602,-12.416 1.896,-13.025 1.424,-13.224C1.089,-13.365 0.743,-13.354 0.368,-13.191C-0.436,-12.841 -0.854,-11.787 -0.528,-10.934L6.041,6.246C6.165,6.568 6.004,6.929 5.682,7.052C5.358,7.176 4.998,7.014 4.875,6.692L4.417,5.494L1.202,3.311C0.821,3.109 0.381,3.088 0,3.234M22.448,13.358L11.719,17.461C10.616,17.882 9.374,17.76 8.395,17.135C4.652,14.746 1.366,11.174 -1.109,6.805C-1.499,6.117 -2.686,4.024 -1.403,2.7L-1.39,2.686C-0.554,1.832 0.771,1.644 1.83,2.23C1.847,2.239 1.862,2.25 1.878,2.26L3.637,3.454L-1.695,-10.488C-2.259,-11.96 -1.542,-13.723 -0.131,-14.336C0.554,-14.636 1.26,-14.648 1.908,-14.375C2.922,-13.95 3.775,-12.843 4.448,-11.085L6.353,-6.106C6.685,-6.581 7.152,-6.946 7.712,-7.144C8.87,-7.563 10.15,-7.147 10.902,-6.206C11.233,-6.743 11.73,-7.153 12.336,-7.367C13.48,-7.781 14.744,-7.374 15.49,-6.45C15.814,-6.963 16.299,-7.347 16.878,-7.558L16.879,-7.558C18.273,-8.059 19.85,-7.311 20.393,-5.89L23.377,1.912C24.313,4.361 24.842,6.931 24.947,9.551C25.014,11.231 24.011,12.76 22.448,13.358" style="fill:rgb(68,68,68);fill-rule:nonzero;"/>
            </g>
            <g transform="matrix(-0.522544,-1.68,-1.36704,0.642173,892.214,480.268)">
                <path d="M-1.579,1.087L0.748,1.087" style="fill:none;fill-rule:nonzero;"/>
            </g>
        </g>
    </g>
</svg>
