<?xml version="1.0" encoding="UTF-8" standalone="no"?>
<!DOCTYPE svg PUBLIC "-//W3C//DTD SVG 1.1//EN" "http://www.w3.org/Graphics/SVG/1.1/DTD/svg11.dtd">
<svg width="100%" height="100%" viewBox="0 0 180 182" version="1.1" xmlns="http://www.w3.org/2000/svg" xmlns:xlink="http://www.w3.org/1999/xlink" xml:space="preserve" xmlns:serif="http://www.serif.com/" style="fill-rule:evenodd;clip-rule:evenodd;stroke-linejoin:round;stroke-miterlimit:2;">
    <g transform="matrix(1.30837,0,0,1.30837,129.925,124.166)">
        <g id="画板1">
            <g>
                <path d="M0,-49.184C-1.43,-38.748 -7.4,-30.697 -14.023,-29.578L-20.71,29.53C-20.884,31.066 -22.287,32.156 -23.818,31.945L-26.677,31.555C-28.049,31.366 -29.034,30.198 -29.048,28.859C-29.363,29.062 -29.722,29.205 -30.117,29.265L-32.972,29.698C-34.499,29.93 -35.919,28.859 -36.113,27.326L-44.198,-35.507L-46.898,-35.097C-49.609,-34.686 -52.139,-36.549 -52.552,-39.259C-52.552,-39.259 -55.272,-62.015 -55.764,-72.796C-55.795,-73.485 -54.781,-73.58 -54.678,-72.896L-50.571,-45.85L-49.004,-46.087L-52.063,-73.3C-52.1,-73.626 -51.622,-73.7 -51.557,-73.379L-46.146,-46.52L-44.577,-46.76L-47.511,-73.993C-47.546,-74.318 -47.066,-74.391 -47.002,-74.07L-41.723,-47.193L-40.148,-47.43L-43.049,-74.671C-43.082,-74.996 -42.603,-75.067 -42.542,-74.747L-37.295,-47.865L-35.727,-48.103L-39.829,-75.151C-39.936,-75.833 -38.939,-76.043 -38.766,-75.376C-36.035,-64.934 -31.882,-42.395 -31.882,-42.395C-31.47,-39.686 -33.332,-37.156 -36.042,-36.745L-38.744,-36.335L-28.25,23.607L-19.558,-30.336C-25.636,-33.198 -29.223,-42.556 -27.794,-52.993C-26.16,-64.9 -18.617,-73.701 -10.94,-72.649C-3.265,-71.598 1.633,-61.091 0,-49.184M-30.576,-92.554C-68.11,-92.554 -98.538,-62.127 -98.538,-24.592C-98.538,12.942 -68.11,43.37 -30.576,43.37C6.96,43.37 37.387,12.942 37.387,-24.592C37.387,-62.127 6.96,-92.554 -30.576,-92.554" style="fill:white;fill-rule:nonzero;"/>
            </g>
        </g>
    </g>
</svg>
