<?xml version="1.0" encoding="UTF-8" standalone="no"?>
<!DOCTYPE svg PUBLIC "-//W3C//DTD SVG 1.1//EN" "http://www.w3.org/Graphics/SVG/1.1/DTD/svg11.dtd">
<svg width="100%" height="100%" viewBox="0 0 155 170" version="1.1" xmlns="http://www.w3.org/2000/svg" xmlns:xlink="http://www.w3.org/1999/xlink" xml:space="preserve" xmlns:serif="http://www.serif.com/" style="fill-rule:evenodd;clip-rule:evenodd;stroke-linejoin:round;stroke-miterlimit:2;">
    <g transform="matrix(2,0,0,2,40.5694,42.751)">
        <path d="M0,42.26C-0.123,42.16 -0.244,42.059 -0.366,41.954L-0.398,41.926C-2.439,40.135 -3.6,38.188 -3.845,36.14C-4.044,34.463 -3.833,32.817 -3.21,31.245C-2.637,29.787 -1.778,28.434 -0.661,27.224C0.333,26.143 1.275,25.207 2.145,24.437L2.178,24.409L2.212,24.381C4.397,22.608 6.907,21.23 9.667,20.283C12.359,19.355 15.266,18.734 18.302,18.432L18.37,18.427C20.006,18.307 21.621,18.264 23.175,18.29C24.508,18.313 25.823,18.247 27.089,18.094C28.296,17.946 29.474,17.674 30.591,17.281C31.602,16.926 32.604,16.324 33.563,15.49L33.588,15.468C34.38,14.805 34.938,13.961 35.295,12.884C35.677,11.733 35.817,10.572 35.722,9.339C35.626,8.124 35.298,6.889 34.748,5.669C34.25,4.563 33.542,3.614 32.583,2.768C32.433,2.635 32.287,2.51 32.137,2.388C31.28,1.693 30.27,1.052 29.131,0.485C27.803,-0.174 26.426,-0.639 25.041,-0.889C23.706,-1.13 22.513,-1.131 21.386,-0.892C20.494,-0.701 19.794,-0.251 19.26,0.488C18.879,1.075 18.549,1.742 18.284,2.472C17.913,3.481 17.486,4.406 17.014,5.225C16.455,6.197 15.712,7.014 14.807,7.659C13.722,8.427 12.28,8.776 10.516,8.701C7.868,8.627 5.612,7.848 3.814,6.389C3.756,6.34 3.698,6.293 3.642,6.244C1.964,4.818 0.744,3.085 0.017,1.096C-0.641,-0.699 -0.928,-2.575 -0.839,-4.48C-0.752,-6.359 -0.327,-8.046 0.426,-9.489L0.44,-9.516C1.409,-11.313 2.583,-13.026 3.927,-14.605C5.34,-16.266 7.081,-17.654 9.098,-18.724C11.711,-20.185 14.708,-20.959 18,-21.026C21.221,-21.093 24.482,-20.592 27.687,-19.538C30.969,-18.463 34.13,-17.034 37.076,-15.294C38.917,-14.205 40.668,-12.987 42.288,-11.672C43.286,-10.863 44.253,-9.997 45.167,-9.104C47.545,-6.766 49.643,-4.171 51.4,-1.385C53.176,1.432 54.551,4.527 55.489,7.819C56.503,11.453 56.702,14.919 56.089,18.129C55.482,21.279 54.266,24.117 52.469,26.561C50.701,28.966 48.472,31.018 45.836,32.661C43.246,34.276 40.367,35.436 37.278,36.113L36.97,36.22L36.745,36.257C34.335,36.622 31.817,36.703 29.258,36.493C27.027,36.312 24.823,36.274 22.702,36.382L22.625,36.384C20.624,36.43 19.126,36.848 18.175,37.622C16.849,38.699 15.395,39.933 13.852,41.289C12.148,42.897 10.25,44.015 8.21,44.612C6.429,45.135 3.561,45.151 0,42.26M-15.267,60.247C-17.768,58.215 -19.332,55.589 -19.915,52.444L-19.925,52.387L-19.934,52.327C-20.379,49.164 -19.768,46.532 -18.122,44.504C-16.312,42.273 -13.821,41.135 -10.718,41.117C-7.479,40.98 -4.567,41.946 -2.058,43.981C0.518,46.071 2.092,48.752 2.625,51.95C3.267,55.103 2.697,57.804 0.934,59.976C-0.782,62.089 -3.308,63.199 -6.573,63.277C-9.772,63.353 -12.697,62.333 -15.267,60.247" style="fill:rgb(233,78,27);fill-rule:nonzero;"/>
    </g>
</svg>
