<?xml version="1.0" encoding="UTF-8" standalone="no"?>
<!DOCTYPE svg PUBLIC "-//W3C//DTD SVG 1.1//EN" "http://www.w3.org/Graphics/SVG/1.1/DTD/svg11.dtd">
<svg width="100%" height="100%" viewBox="0 0 129 143" version="1.1" xmlns="http://www.w3.org/2000/svg" xmlns:xlink="http://www.w3.org/1999/xlink" xml:space="preserve" xmlns:serif="http://www.serif.com/" style="fill-rule:evenodd;clip-rule:evenodd;stroke-linejoin:round;stroke-miterlimit:2;">
    <g transform="matrix(2,0,0,2,33.8008,35.6504)">
        <path d="M0,35.36C-0.103,35.277 -0.205,35.193 -0.309,35.105L-0.334,35.081C-2.044,33.583 -3.013,31.953 -3.216,30.238C-3.385,28.837 -3.207,27.458 -2.687,26.145C-2.208,24.924 -1.487,23.792 -0.553,22.778C0.278,21.875 1.066,21.09 1.795,20.448L1.821,20.424L1.85,20.4C3.679,18.917 5.779,17.764 8.089,16.97C10.343,16.194 12.774,15.674 15.315,15.423L15.373,15.417C16.739,15.319 18.092,15.278 19.392,15.303C20.508,15.322 21.608,15.266 22.668,15.139C23.677,15.015 24.664,14.786 25.598,14.46C26.444,14.16 27.282,13.657 28.084,12.96L28.108,12.941C28.768,12.388 29.235,11.681 29.534,10.78C29.855,9.816 29.97,8.846 29.891,7.813C29.811,6.798 29.536,5.763 29.077,4.742C28.66,3.816 28.067,3.023 27.265,2.314C27.139,2.204 27.017,2.098 26.891,1.997C26.174,1.415 25.328,0.879 24.378,0.404C23.267,-0.148 22.112,-0.537 20.953,-0.745C19.837,-0.947 18.837,-0.948 17.894,-0.748C17.149,-0.588 16.562,-0.211 16.116,0.407C15.796,0.898 15.522,1.457 15.297,2.066C14.99,2.912 14.632,3.686 14.236,4.372C13.769,5.183 13.146,5.868 12.389,6.406C11.482,7.05 10.275,7.342 8.801,7.278C6.583,7.216 4.698,6.565 3.191,5.344C3.143,5.305 3.093,5.264 3.047,5.223C1.643,4.03 0.621,2.581 0.013,0.915C-0.535,-0.586 -0.778,-2.158 -0.702,-3.75C-0.63,-5.323 -0.273,-6.734 0.355,-7.944L0.367,-7.965C1.179,-9.468 2.162,-10.902 3.287,-12.223C4.469,-13.614 5.924,-14.774 7.611,-15.669C9.801,-16.892 12.307,-17.54 15.063,-17.597C17.758,-17.652 20.486,-17.233 23.167,-16.351C25.915,-15.452 28.56,-14.256 31.025,-12.798C32.564,-11.889 34.03,-10.869 35.386,-9.768C36.221,-9.091 37.03,-8.367 37.795,-7.62C39.785,-5.663 41.541,-3.491 43.01,-1.16C44.495,1.197 45.648,3.787 46.432,6.54C47.279,9.582 47.449,12.482 46.933,15.168C46.425,17.805 45.408,20.179 43.904,22.223C42.425,24.237 40.56,25.953 38.355,27.328C36.188,28.679 33.779,29.652 31.192,30.218L30.934,30.308L30.746,30.337C28.73,30.643 26.624,30.71 24.482,30.535C22.615,30.383 20.77,30.352 18.995,30.442L18.934,30.444C17.258,30.483 16.003,30.832 15.208,31.481C14.098,32.381 12.883,33.413 11.59,34.548C10.165,35.894 8.577,36.83 6.87,37.328C5.38,37.767 2.979,37.78 0,35.36M-12.776,50.411C-14.87,48.712 -16.177,46.516 -16.665,43.882L-16.674,43.835L-16.681,43.785C-17.054,41.138 -16.543,38.935 -15.166,37.237C-13.65,35.372 -11.564,34.42 -8.969,34.403C-6.261,34.29 -3.823,35.098 -1.724,36.801C0.433,38.55 1.75,40.793 2.196,43.469C2.733,46.109 2.258,48.368 0.779,50.186C-0.656,51.953 -2.77,52.882 -5.5,52.948C-8.179,53.012 -10.626,52.157 -12.776,50.411" style="fill:rgb(233,78,27);fill-rule:nonzero;"/>
    </g>
</svg>
