<?xml version="1.0" encoding="UTF-8" standalone="no"?>
<!DOCTYPE svg PUBLIC "-//W3C//DTD SVG 1.1//EN" "http://www.w3.org/Graphics/SVG/1.1/DTD/svg11.dtd">
<svg width="100%" height="100%" viewBox="0 0 112 162" version="1.1" xmlns="http://www.w3.org/2000/svg" xmlns:xlink="http://www.w3.org/1999/xlink" xml:space="preserve" xmlns:serif="http://www.serif.com/" style="fill-rule:evenodd;clip-rule:evenodd;stroke-linejoin:round;stroke-miterlimit:2;">
    <g transform="matrix(2,0,0,2,63.9211,41.5491)">
        <path d="M0,38.708C-0.135,38.717 -0.272,38.728 -0.413,38.738L-0.45,38.74C-2.808,38.852 -4.709,38.333 -6.1,37.199C-7.235,36.271 -8.098,35.112 -8.658,33.754C-9.178,32.495 -9.458,31.129 -9.487,29.699C-9.52,28.422 -9.495,27.267 -9.415,26.261L-9.411,26.224L-9.407,26.185C-9.109,23.757 -8.371,21.379 -7.217,19.12C-6.093,16.913 -4.646,14.77 -2.93,12.749L-2.892,12.705C-1.939,11.644 -0.956,10.638 0.031,9.717C0.879,8.928 1.664,8.09 2.363,7.231C3.03,6.411 3.602,5.528 4.064,4.611C4.482,3.776 4.743,2.794 4.842,1.695L4.846,1.664C4.94,0.772 4.779,-0.092 4.352,-0.982C3.897,-1.934 3.284,-2.743 2.479,-3.456C1.686,-4.16 0.735,-4.736 -0.346,-5.167C-1.325,-5.559 -2.339,-5.726 -3.451,-5.674C-3.626,-5.667 -3.792,-5.658 -3.959,-5.643C-4.916,-5.561 -5.936,-5.351 -6.991,-5.019C-8.218,-4.63 -9.361,-4.089 -10.379,-3.41C-11.359,-2.755 -12.107,-2.034 -12.667,-1.206C-13.112,-0.546 -13.273,0.158 -13.165,0.943C-13.049,1.541 -12.853,2.157 -12.578,2.772C-12.2,3.627 -11.908,4.465 -11.708,5.264C-11.474,6.208 -11.444,7.168 -11.622,8.118C-11.838,9.253 -12.53,10.342 -13.678,11.358C-15.378,12.912 -17.262,13.787 -19.268,13.959C-19.333,13.964 -19.397,13.968 -19.464,13.973C-21.373,14.095 -23.184,13.746 -24.839,12.941C-26.333,12.214 -27.646,11.214 -28.739,9.969C-29.821,8.74 -30.574,7.426 -30.976,6.069L-30.981,6.043C-31.459,4.335 -31.758,2.555 -31.871,0.754C-31.99,-1.139 -31.739,-3.056 -31.124,-4.944C-30.369,-7.437 -28.961,-9.73 -26.941,-11.761C-24.967,-13.747 -22.625,-15.401 -19.981,-16.677C-17.278,-17.985 -14.438,-19 -11.544,-19.689C-9.735,-20.119 -7.903,-20.416 -6.096,-20.569C-4.984,-20.666 -3.854,-20.71 -2.744,-20.7C0.155,-20.674 3.036,-20.316 5.817,-19.633C8.629,-18.942 11.358,-17.836 13.928,-16.343C16.757,-14.68 18.977,-12.634 20.529,-10.254C22.053,-7.916 23.005,-5.405 23.356,-2.793C23.703,-0.22 23.547,2.411 22.887,5.029C22.242,7.604 21.144,10.067 19.616,12.356L19.49,12.61L19.37,12.768C18.083,14.452 16.556,16.021 14.831,17.436C13.322,18.668 11.919,19.978 10.656,21.326L10.612,21.371C9.389,22.608 8.703,23.773 8.575,24.833C8.394,26.309 8.23,27.958 8.085,29.738C7.987,31.772 7.475,33.618 6.56,35.223C5.761,36.625 3.974,38.368 0,38.708M1.306,59.18C-1.484,59.418 -4.047,58.721 -6.312,57.102L-6.352,57.075L-6.392,57.042C-8.581,55.331 -9.789,53.315 -9.984,51.052C-10.197,48.564 -9.327,46.348 -7.396,44.462C-5.449,42.422 -3.046,41.267 -0.248,41.027C2.626,40.781 5.232,41.506 7.496,43.187C9.8,44.772 11.076,46.805 11.283,49.23C11.484,51.589 10.573,53.807 8.58,55.828C6.621,57.807 4.175,58.934 1.306,59.18" style="fill:rgb(233,78,27);fill-rule:nonzero;"/>
    </g>
</svg>
