<?xml version="1.0" encoding="UTF-8" standalone="no"?>
<!DOCTYPE svg PUBLIC "-//W3C//DTD SVG 1.1//EN" "http://www.w3.org/Graphics/SVG/1.1/DTD/svg11.dtd">
<svg width="100%" height="100%" viewBox="0 0 147 183" version="1.1" xmlns="http://www.w3.org/2000/svg" xmlns:xlink="http://www.w3.org/1999/xlink" xml:space="preserve" xmlns:serif="http://www.serif.com/" style="fill-rule:evenodd;clip-rule:evenodd;stroke-linejoin:round;stroke-miterlimit:2;">
    <g transform="matrix(2,0,0,2,109.057,47.6082)">
        <path d="M0,43.647C-0.146,43.722 -0.292,43.797 -0.442,43.871L-0.482,43.89C-3.031,45.101 -5.365,45.404 -7.42,44.793C-9.104,44.294 -10.586,43.414 -11.83,42.176C-12.984,41.028 -13.921,39.651 -14.616,38.087C-15.238,36.694 -15.742,35.408 -16.12,34.264L-16.133,34.221L-16.146,34.177C-16.937,31.361 -17.22,28.399 -16.987,25.376C-16.763,22.425 -16.16,19.398 -15.197,16.376L-15.174,16.309C-14.613,14.7 -13.993,13.139 -13.327,11.669C-12.758,10.408 -12.278,9.124 -11.901,7.854C-11.546,6.641 -11.324,5.405 -11.236,4.181C-11.157,3.066 -11.321,1.864 -11.722,0.607L-11.731,0.571C-12.037,-0.456 -12.614,-1.335 -13.494,-2.119C-14.434,-2.958 -15.486,-3.569 -16.701,-3.986C-17.9,-4.394 -19.212,-4.591 -20.602,-4.567C-21.862,-4.549 -23.061,-4.263 -24.262,-3.697C-24.45,-3.608 -24.63,-3.52 -24.807,-3.428C-25.826,-2.896 -26.851,-2.194 -27.86,-1.344C-29.037,-0.348 -30.047,0.775 -30.857,1.993C-31.636,3.167 -32.128,4.307 -32.365,5.478C-32.549,6.409 -32.405,7.262 -31.922,8.076C-31.52,8.682 -31.018,9.27 -30.432,9.823C-29.621,10.593 -28.914,11.381 -28.326,12.169C-27.63,13.103 -27.157,14.147 -26.915,15.277C-26.628,16.627 -26.889,18.146 -27.688,19.796C-28.847,22.295 -30.519,24.126 -32.652,25.241C-32.723,25.277 -32.791,25.313 -32.862,25.347C-34.912,26.36 -37.068,26.811 -39.264,26.685C-41.247,26.573 -43.156,26.075 -44.937,25.207C-46.695,24.349 -48.127,23.25 -49.196,21.936L-49.214,21.912C-50.531,20.248 -51.68,18.422 -52.633,16.489C-53.638,14.458 -54.245,12.228 -54.435,9.861C-54.753,6.766 -54.258,3.588 -52.967,0.419C-51.702,-2.681 -49.883,-5.584 -47.56,-8.21C-45.183,-10.899 -42.52,-13.326 -39.645,-15.419C-37.849,-16.728 -35.966,-17.898 -34.044,-18.9C-32.86,-19.519 -31.637,-20.088 -30.407,-20.589C-27.199,-21.897 -23.858,-22.829 -20.477,-23.359C-17.06,-23.893 -13.539,-23.932 -10.015,-23.471C-6.126,-22.941 -2.74,-21.706 0.07,-19.796C2.827,-17.922 5.031,-15.593 6.624,-12.875C8.19,-10.198 9.23,-7.224 9.712,-4.035C10.188,-0.898 10.109,2.325 9.482,5.551L9.459,5.891L9.399,6.121C8.757,8.569 7.798,11.004 6.546,13.36C5.452,15.413 4.509,17.501 3.739,19.569L3.711,19.641C2.93,21.571 2.711,23.171 3.059,24.398C3.541,26.107 4.119,28.001 4.779,30.032C5.61,32.319 5.895,34.59 5.625,36.783C5.391,38.697 4.226,41.441 0,43.647M10.875,65.618C7.908,67.168 4.76,67.579 1.518,66.838L1.459,66.825L1.399,66.811C-1.801,65.933 -4.063,64.265 -5.321,61.859C-6.701,59.215 -6.764,56.371 -5.503,53.401C-4.3,50.255 -2.179,47.874 0.794,46.32C3.85,44.724 7.056,44.324 10.326,45.133C13.599,45.818 15.94,47.472 17.287,50.049C18.597,52.557 18.616,55.423 17.345,58.572C16.101,61.653 13.922,64.026 10.875,65.618" style="fill:rgb(233,78,27);fill-rule:nonzero;"/>
    </g>
</svg>
