<?xml version="1.0" encoding="UTF-8" standalone="no"?>
<!DOCTYPE svg PUBLIC "-//W3C//DTD SVG 1.1//EN" "http://www.w3.org/Graphics/SVG/1.1/DTD/svg11.dtd">
<svg width="100%" height="100%" viewBox="0 0 170 170" version="1.1" xmlns="http://www.w3.org/2000/svg" xmlns:xlink="http://www.w3.org/1999/xlink" xml:space="preserve" xmlns:serif="http://www.serif.com/" style="fill-rule:evenodd;clip-rule:evenodd;stroke-linejoin:round;stroke-miterlimit:2;">
    <g transform="matrix(1.00022,0,0,1.00022,-897.324,-3413.09)">
        <g transform="matrix(0,-1,-1,0,982.111,3417.34)">
            <ellipse cx="-79.982" cy="0.002" rx="79.982" ry="79.983" style="fill:none;"/>
        </g>
        <g transform="matrix(-1,0,0,1,1026.21,3499.06)">
            <path d="M0.002,-3.483C-0.96,-3.483 -1.74,-2.702 -1.74,-1.739C-1.74,-0.779 -0.96,0 0.002,0C0.963,0 1.742,-0.779 1.742,-1.739C1.742,-2.702 0.963,-3.483 0.002,-3.483"/>
        </g>
        <g transform="matrix(-1,0,0,1,1025.25,3522.29)">
            <path d="M0.001,-3.485C-0.96,-3.485 -1.74,-2.703 -1.74,-1.743C-1.74,-0.78 -0.96,0 0.001,0C0.964,0 1.741,-0.78 1.741,-1.743C1.741,-2.703 0.964,-3.485 0.001,-3.485"/>
        </g>
        <g transform="matrix(-1,0,0,1,988.09,3554.29)">
            <path d="M-0.006,-3.483C-0.968,-3.483 -1.744,-2.702 -1.744,-1.742C-1.744,-0.779 -0.968,0 -0.006,0C0.956,0 1.738,-0.779 1.738,-1.742C1.738,-2.702 0.956,-3.483 -0.006,-3.483"/>
        </g>
        <g transform="matrix(-1,0,0,1,966.028,3460.74)">
            <path d="M0,-3.482C-0.962,-3.482 -1.744,-2.704 -1.744,-1.74C-1.744,-0.78 -0.962,0 0,0C0.964,0 1.744,-0.78 1.744,-1.74C1.744,-2.704 0.964,-3.482 0,-3.482"/>
        </g>
        <g transform="matrix(-1,0,0,1,958.484,3527.52)">
            <path d="M0.003,-3.483C-0.959,-3.483 -1.74,-2.702 -1.74,-1.742C-1.74,-0.779 -0.959,0 0.003,0C0.965,0 1.743,-0.779 1.743,-1.742C1.743,-2.702 0.965,-3.483 0.003,-3.483"/>
        </g>
        <g transform="matrix(1,0,0,1,1013.43,3479)">
            <path d="M0,-27.773C-3.569,-23.496 -10.454,-14.316 -10.454,-9.822C-10.454,-5.683 -8.005,-1.925 -4.215,-0.255C-2.886,0.332 -1.471,0.628 0,0.628C5.761,0.628 10.451,-4.062 10.451,-9.822C10.451,-9.959 10.442,-10.09 10.434,-10.222C10.032,-14.879 3.425,-23.669 0,-27.773M0,2.954C-1.796,2.954 -3.529,2.586 -5.152,1.868C-9.783,-0.171 -12.775,-4.761 -12.775,-9.822C-12.775,-16.592 -1.362,-29.77 -0.876,-30.328C-0.654,-30.581 -0.337,-30.727 0,-30.727C0.333,-30.727 0.653,-30.581 0.875,-30.328C1.335,-29.797 12.156,-17.307 12.745,-10.429C12.763,-10.234 12.775,-10.034 12.775,-9.822C12.775,-2.779 7.044,2.954 0,2.954"/>
        </g>
        <g transform="matrix(1,0,0,1,949.044,3485.13)">
            <path d="M0,-9.291C-2.561,-9.291 -4.646,-7.207 -4.646,-4.646C-4.646,-2.083 -2.561,-0.004 0,-0.004C2.56,-0.004 4.646,-2.083 4.646,-4.646C4.646,-7.207 2.56,-9.291 0,-9.291M0,2.322C-3.842,2.322 -6.969,-0.804 -6.969,-4.646C-6.969,-8.488 -3.842,-11.613 0,-11.613C3.84,-11.613 6.966,-8.488 6.966,-4.646C6.969,-0.804 3.84,2.322 0,2.322"/>
        </g>
        <g transform="matrix(1,0,0,1,943.385,3542.03)">
            <path d="M0,-13.935C-3.843,-13.935 -6.968,-10.809 -6.968,-6.967C-6.968,-3.126 -3.843,0.001 0,0.001C3.842,0.001 6.966,-3.126 6.966,-6.967C6.966,-10.808 3.842,-13.935 0,-13.935M0,2.322C-5.123,2.322 -9.29,-1.847 -9.29,-6.967C-9.29,-12.087 -5.123,-16.257 0,-16.257C5.12,-16.257 9.287,-12.087 9.287,-6.967C9.287,-1.847 5.12,2.322 0,2.322"/>
        </g>
        <g transform="matrix(-1,0,0,1,1964.22,2246.69)">
            <rect x="972.001" y="1221.91" width="20.216" height="66.134"/>
        </g>
        <g transform="matrix(-1,0,0,1,1964.22,2246.69)">
            <rect x="949.042" y="1244.87" width="66.134" height="20.216"/>
        </g>
        <g transform="matrix(1.04207,0,0,1.02802,982.034,3576.79)">
            <path d="M0,-156.964C-43.274,-156.964 -78.48,-121.757 -78.48,-78.481C-78.48,-35.206 -43.274,0 0,0C43.276,0 78.483,-35.206 78.483,-78.481C78.483,-121.757 43.276,-156.964 0,-156.964M0,3C-44.929,3 -81.48,-33.552 -81.48,-78.481C-81.48,-123.41 -44.929,-159.964 0,-159.964C44.93,-159.964 81.483,-123.41 81.483,-78.481C81.483,-33.552 44.93,3 0,3"/>
        </g>
    </g>
</svg>
