<svg clip-rule="evenodd" fill-rule="evenodd" stroke-linejoin="round" stroke-miterlimit="2" viewBox="0 0 627 62" xmlns="http://www.w3.org/2000/svg"><g fill-rule="nonzero"><g fill="#fff"><path d="m0-55.1c-.123-.817.245-1.145 1.104-.981 3.925.49 6.931 1.186 9.016 2.085.368.123.531.328.491.614-.164.654-.573 1.022-1.227 1.103-.655.409-.982.942-.982 1.595v45.205c-.082 1.922-1.144 3.496-3.189 4.723-1.595.981-3.21 1.574-4.845 1.779-.9.122-1.555.04-1.963-.245-.368-.246-.573-.635-.613-1.166-.246-1.472-.594-2.679-1.043-3.619-.613-.9-1.145-1.432-1.595-1.595-.941-.367-1.882-.674-2.821-.92-.777-.205-1.166-.593-1.166-1.165.082-.613.511-.88 1.288-.798 2.331.204 4.579.246 6.747.123.653-.164 1.064-.653 1.227-1.471v-38.888c-.041-2.248-.184-4.375-.429-6.379m-11.225 5.827c-.083-.776.266-1.104 1.042-.981 2.863.409 5.418.941 7.668 1.594.818.451 1.246.778 1.287.982.082.531-.245.94-.98 1.226-.696.329-1.043.797-1.043 1.412v22.754l.122 6.196c.204 1.022-.307 1.678-1.533 1.963-1.391.328-2.862.45-4.416.368-.982-.04-1.595-.491-1.84-1.35l.062-2.514v-26.621c-.083-2.043-.206-3.72-.369-5.029m-22.694-.246c-.655 0-.981.328-.981.981v11.471c0 .654.326.982.981.982h9.937c.653 0 .98-.307.98-.921v-11.47c0-.694-.327-1.043-.98-1.043zm14.168-5.029c.654-.245 1.451-.04 2.393.613 1.349.777 2.576 1.636 3.679 2.576 1.268.86 1.166 1.821-.306 2.883-.655.613-.982 1.248-.982 1.901v5.951l.185 6.807c.204.491.019 1.003-.552 1.534-.532.41-1.452.675-2.761.797-2.168.245-3.679.144-4.539-.306-.368-.204-.512-.614-.428-1.227 0-.653-.329-.981-.982-.981h-4.109c-.656 0-.982.328-.982.981 0 1.923-.061 4.028-.184 6.317 0 .656.327.982.981.982h4.478c.653 0 1.185-.163 1.594-.49 1.186-.9 1.984-1.554 2.393-1.963.653-.696 1.472-.715 2.453-.062 1.472.819 2.678 1.636 3.619 2.453 1.472 1.024 1.656 1.985.552 2.883-.245.164-.43.307-.552.43-.573.736-.839 1.555-.798 2.453-.286 6.421-1.063 11.267-2.331 14.537-1.144 3.19-3.537 5.233-7.175 6.134-1.146.163-1.943.101-2.393-.185-.245-.122-.409-.306-.49-.551-.245-1.472-.594-2.924-1.043-4.355-.409-.859-1.677-1.656-3.803-2.393-.818-.286-1.187-.695-1.104-1.226.123-.532.592-.756 1.411-.675 2.126.286 3.864.449 5.214.491 1.349.162 2.167-.51 2.453-2.024.653-4.048 1.104-8.178 1.349-12.39 0-.695-.328-1.043-.981-1.043h-5.091c-.654 0-1.022.409-1.104 1.227-.165 3.434-1.023 6.768-2.577 9.998-2.29 5.233-6.236 9.404-11.838 12.513-.818.408-1.41.408-1.778 0-.328-.41-.123-1.003.613-1.78 1.227-1.267 2.331-2.883 3.313-4.845 1.349-2.699 2.391-5.928 3.128-9.691.736-3.803 1.165-7.953 1.288-12.451v-3.189c0-.655-.409-.941-1.227-.86-.573.123-1.534.144-2.882.062-1.105-.081-1.657-.614-1.657-1.595l.307-6.011v-7.913c-.083-1.553-.226-3.128-.43-4.723-.122-.817.286-1.103 1.227-.858 2.535.613 5.05 1.37 7.545 2.27h10.243c.653 0 1.39-.369 2.208-1.105.531-.449 1.35-1.083 2.453-1.901" transform="matrix(.999983 0 0 .999983 50.030733343 60.51118009)"/><path d="m0-31.996c-.654 0-.981.327-.981.98v2.823c0 .695.327 1.042.981 1.042h.798c.694 0 1.042-.326 1.042-.982v-2.883c0-.653-.327-.98-.982-.98zm-4.478 26.129c-.613 0-.818.409-.613 1.226.327 1.023.9 2.168 1.718 3.435.53.614 1.103.553 1.717-.184.859-1.021 1.574-2.146 2.147-3.373.285-.736.122-1.104-.491-1.104zm-6.255-6.195c-.656 0-.982.328-.982.981v2.27c0 .696.326 1.043.982 1.043h2.882c.654 0 .982-.328.982-.982v-2.269c0-.695-.328-1.043-.982-1.043zm-.062-5.52c-.613 0-.92.348-.92 1.042v1.534c0 .696.326 1.042.982 1.042h2.882c.654 0 .982-.326.982-.981v-1.595c0-.694-.328-1.042-.982-1.042zm-6.685-14.414c-.614 0-.92.327-.92.98v2.823c0 .695.428 1.042 1.288 1.042.939 0 1.41-.326 1.41-.982v-2.883c0-.653-.327-.98-.982-.98zm-8.22 26.19c-.696 0-1.042.328-1.042.982v5.152c.04.819.47.982 1.288.49 2.371-1.389 4.558-3.189 6.562-5.397.654-.817.654-1.227 0-1.227zm9.201-38.458c.081-.491.53-.736 1.349-.736 3.435-.122 5.97.267 7.606 1.165.982.573 1.554 1.33 1.717 2.27.123.613.061 1.268-.184 1.963-.286.532-.102.797.552.797h4.416c.654 0 1.288-.408 1.901-1.226.573-.777 1.228-1.534 1.963-2.27.696-.817 1.228-1.185 1.595-1.104.45.083 1.145.532 2.086 1.349 2.085 1.759 3.414 3.088 3.986 3.987.204.287.204.635 0 1.043-.286.328-.858.429-1.717.306h-26.251c-2.945.083-5.419.226-7.422.43-.859.082-1.494-.307-1.902-1.165l-.306-.614c-.41-.981-.226-1.41.551-1.287 2.822.327 5.766.511 8.832.551h3.498c.653 0 .836-.408.551-1.226-.409-1.677-1.165-2.822-2.269-3.436-.532-.122-.716-.387-.552-.797m-19.076 36.802c-.819 0-1.227.307-1.227.92v11.041c0 .694.408 1.042 1.227 1.042.859 0 1.288-.327 1.288-.981v-11.04c0-.654-.429-.982-1.288-.982m-6.809-36.925c.246-.408.757-.591 1.534-.551 1.799.123 3.413.45 4.846.981 2.248.982 3.475 2.413 3.68 4.293.163.981.081 1.861-.245 2.638-.205.859-.819 1.554-1.84 2.086-.942.327-1.759.47-2.454.428-1.922-.285-2.924-1.288-3.005-3.005l-.307-2.454c-.246-1.226-.717-2.227-1.411-3.004-.777-.614-1.043-1.084-.798-1.412m10.918 14.292c.204-.327.491-.388.86-.184 1.471.777 3.106 2.127 4.906 4.049.408.367.408.858 0 1.471-.163.082-.654.123-1.472.123l-3.741.061h-7.545c-1.391.042-2.801.123-4.232.246-.941.122-1.595-.204-1.962-.981l-.246-.492c-.532-.981-.389-1.43.429-1.349 1.513.287 3.19.451 5.03.491h4.048c.654 0 1.288-.408 1.902-1.227.572-.736 1.246-1.472 2.023-2.208m-1.655-5.459c1.021-1.389 1.941-2.392 2.76-3.005.49 0 .858.143 1.103.429 1.023.696 2.148 1.738 3.374 3.128.572.613.818.654.737.123-.165-.614.122-.838.858-.675 1.595.328 3.189.736 4.784 1.227.776.368 1.635.49 2.576.368.654 0 1.39-.348 2.208-1.043.204-.123.408-.265.614-.43.736-.572 1.533-.714 2.392-.428 1.063.613 1.88 1.125 2.453 1.533.777.695 1.165 1.206 1.165 1.533-.041.286-.245.594-.613.92-.367.368-.573.654-.613.858-.041 1.678 0 3.374.123 5.092.163.982-.307 1.656-1.411 2.024-.614.205-1.37.328-2.27.368-1.677.164-2.658-.245-2.943-1.227 0-.368-.43-.551-1.288-.551-.86 0-1.31.163-1.35.49-.041.287-.102.491-.184.613-.123.205.184.328.919.368 2.659.164 5.009.552 7.054 1.165.572.205.716.574.43 1.105-.041.082-.307.266-.797.552-.491.368-.736.696-.736.981 0 .368.327.552.981.552h2.883c.653 0 .981-.408.981-1.227l-.184-1.778c-.122-.818-.122-1.227 0-1.227.082 0 .02-.041-.184-.123-.45-.285-.613-.694-.491-1.226.246-2.331.327-4.56.246-6.686-.041-.94-.102-1.901-.185-2.883-.164-.776.164-1.083.982-.92 1.431.368 3.046.797 4.846 1.288.613.287 1.472.389 2.576.307.653 0 1.389-.368 2.208-1.104l.613-.491c.695-.491 1.492-.572 2.393-.246 1.103.533 2.228 1.269 3.373 2.209.45.491.408.961-.122 1.41-.778.574-1.084 1.187-.92 1.84 0 2.168.06 3.763.183 4.784.04.737-.429 1.289-1.411 1.657-1.186.409-2.453.491-3.803.246-.777-.041-1.267-.45-1.471-1.228-.041-.285-.39-.428-1.043-.428h-.797c-.655 0-1.003.102-1.043.306-.328.819-1.043 1.268-2.147 1.35-.614.082-.552.183.184.306 2.289.328 3.904.655 4.846.981.817.532.756 1.023-.185 1.473-.49.328-.735.634-.735.919 0 .329.326.491.981.491.695 0 1.328-.408 1.902-1.227.817-1.266 1.511-2.044 2.085-2.33.286-.082.653.103 1.104.552 1.554 1.349 2.638 2.514 3.251 3.496.326.368.388.736.184 1.104-.328.328-.901.429-1.718.307h-6.869c-.655 0-.982.327-.982.981v1.595c0 .696.225 1.042.675 1.042.49 0 1.022-.408 1.595-1.226.53-.982 1.185-1.718 1.963-2.208.326-.081.735.102 1.226.551 1.186.942 2.27 2.086 3.251 3.436.163.45.143.797-.061 1.042-.287.246-.839.328-1.656.246h-6.073c-.654 0-.981.327-.981.981v2.269c0 .696.224 1.043.675 1.043.49 0 1.002-.408 1.533-1.227.653-1.104 1.247-1.901 1.779-2.392.613-.735 1.431-.552 2.453.553 1.39 1.267 2.474 2.535 3.251 3.802.245.327.184.675-.184 1.043-.163.122-.634.184-1.411.184h-6.01c-.697 0-.635.267.183.798 1.431.858 2.842 1.758 4.233 2.698.858.777 1.288 1.31 1.288 1.595-.205.613-.573.858-1.105.736-.818-.163-1.41-.163-1.778 0-2.004.736-3.803 1.187-5.397 1.35-.614.122-.512.388.306.797 2.125 1.062 5.05 1.737 8.771 2.024.817.081 1.226.326 1.226.735.082.615-.143.961-.674 1.043-1.186.86-1.82 2.188-1.902 3.988l-.183 1.226c-.165 1.227-.675 1.718-1.534 1.472-1.594-.082-3.23-.736-4.907-1.963-3.803-2.698-6.339-6.011-7.605-9.936-.574-1.757-.92-3.598-1.043-5.52-.041-.654-.225-.982-.552-.982-.328 0-.798.41-1.411 1.227l-1.717 1.778c-.696.574-1.043 1.187-1.043 1.841v3.496c0 .654.408.941 1.227.859 1.308-.164 2.494-.389 3.557-.675.818-.204 1.369-.081 1.656.368.122.491-.184 1.021-.919 1.595-4.09 3.025-8.22 5.029-12.391 6.01-.695.124-1.165.593-1.41 1.412-.737 1.021-1.391.837-1.963-.552-.654-2.046-1.269-4.356-1.84-6.932-.164-.818.143-1.165.92-1.042.939.081 1.88.143 2.821.184.654 0 .982-.409.982-1.227 0-.817-.41-1.104-1.227-.859-1.514.491-3.231.941-5.152 1.349-.614.124-.92.532-.92 1.227l.245 4.662c0 .368-.267.756-.798 1.165-1.309.695-3.148.941-5.519.737-1.269-.206-1.759-.901-1.473-2.086 0-.736-.409-1.104-1.227-1.104-.858 0-1.288.408-1.288 1.227 0 .817-.041 1.328-.123 1.533-.45.859-1.288 1.37-2.514 1.533-1.064.205-2.373.225-3.925.062-.574-.041-1.003-.369-1.288-.982-.042-.613-.042-1.226 0-1.84l.245-5.459v-9.261c-.041-1.88-.185-3.701-.43-5.459-.123-.818.225-1.145 1.043-.982 2.412.573 4.723 1.371 6.931 2.393.408.041.817.06 1.226.06.655 0 1.37-.367 2.148-1.103 1.226-1.105 2.146-1.677 2.76-1.718.286.041.797.246 1.533.613.94.532 1.942 1.228 3.006 2.086.817.736 1.226 1.206 1.226 1.41 0 .328.266.492.798.492h3.803c.653 0 .981-.328.981-.982v-2.269c0-.695-.328-1.043-.981-1.043-1.187 0-2.372.083-3.558.246-.777.122-1.391-.225-1.84-1.043l-.123-.245c-.491-.982-.328-1.412.49-1.288 1.554.245 3.231.388 5.031.428.653 0 .981-.326.981-.981v-1.595c0-.694-.409-1.021-1.227-.981-1.104 0-2.229.042-3.373.123-.737.041-1.187 0-1.35-.123-.041.328-.184.593-.429.797-.123.082-.593.123-1.411.123h-10.305c-1.716.042-3.456.144-5.213.307-.9.122-1.554-.204-1.962-.981-.164-.246-.287-.511-.369-.798-.368-.777-.144-1.124.675-1.043 1.635.205 3.271.349 4.907.43h4.048c.654 0 1.288-.388 1.902-1.165.326-.451.694-.879 1.103-1.289.737-.776 1.227-1.185 1.473-1.227.245 0 .53.102.858.308 1.35.899 2.494 1.839 3.435 2.821.531.49.654.49.368 0-.286-.531-.02-.757.798-.675 1.431.205 3.128.348 5.091.429.653 0 .981-.408.981-1.227 0-.613-.042-1.205-.123-1.778-.082-.653-.532-.92-1.349-.798l-.736.062c-1.186.041-2.005.021-2.454-.062-.368-.04-.695-.265-.981-.675-.041-.449-.041-.898 0-1.348.204-1.963.265-3.966.184-6.012 0-.653-.041-.96-.123-.92-.123.083-.593.123-1.411.123h-13.984c-1.391.041-2.782.123-4.171.245-.819.041-1.432-.326-1.84-1.103l-.245-.614c-.451-.899-.287-1.308.49-1.227 2.167.287 4.171.451 6.011.491h5.091c.654 0 1.288-.408 1.902-1.227" transform="matrix(.999983 0 0 .999983 113.634652058 49.06137474)"/><path d="m0-55.038c0-.817.408-1.145 1.227-.981 2.657.49 5.07 1.043 7.237 1.656 1.227.327 2.045.613 2.454.858.408.205.572.43.49.675-.122.777-.695 1.227-1.717 1.35-.655.245-1.126.777-1.411 1.594-.45 1.145-1.022 2.392-1.718 3.742-.409.695-.306 1.043.307 1.043h2.516c.653 0 1.328-.409 2.023-1.227.818-1.023 1.718-2.045 2.699-3.067.982-.899 1.554-1.35 1.717-1.35.409.042.9.307 1.473.798 2.493 2.127 4.211 3.844 5.152 5.152.53.695.592 1.248.184 1.656-.164.164-.634.246-1.41.246h-3.251l-3.19-.062h-9.139c-.655 0-1.248.409-1.779 1.227-2.208 2.985-4.825 5.52-7.851 7.605-.736.491-1.309.594-1.717.307-.368-.285-.307-.899.183-1.84.9-1.676 1.616-3.291 2.147-4.846 1.922-5.192 3.046-10.038 3.374-14.536m-23.676 25.516c-.613 0-.92.347-.92 1.043v4.722c0 .655.326.982.982.982h8.464c.653 0 .981-.327.981-.982v-4.722c0-.696-.328-1.043-.981-1.043zm.062-7.912c-.656 0-.982.306-.982.919v4.048c0 .697.326 1.043.982 1.043h8.464c.653 0 .981-.327.981-.981v-4.048c0-.654-.328-.981-.981-.981zm-.123-17.727c-.123-.817.224-1.186 1.043-1.104 3.965.491 6.766.961 8.402 1.411.776.409 1.166.696 1.166.858.04.532-.409 1.003-1.35 1.411-.613.45-.92 1.003-.92 1.656v2.515c0 .654.307.981.92.981.654 0 1.288-.408 1.902-1.226.653-.776 1.349-1.574 2.086-2.393.326-.53.756-.837 1.288-.92 1.553.697 3.434 2.372 5.642 5.03.45.573.45 1.023 0 1.349-.123.123-.593.185-1.411.185h-9.507c-.654 0-.981.327-.981.981v3.803c0 .654.143.982.43.982.368.122.939-.205 1.716-.982 1.145-.981 1.963-1.554 2.455-1.718.326-.123.735-.02 1.226.307 2.493 1.432 4.048 2.617 4.661 3.558.368.654.185 1.226-.552 1.717-.695.614-1.042 1.247-1.042 1.902v7.605l.184 6.134c.204.49 0 1.022-.613 1.595-1.35.695-3.232.981-5.644.858-.94 0-1.493-.47-1.656-1.41-.041-.45-.245-.675-.613-.675-.409 0-.614.327-.614.982v4.784c0 .613.348.94 1.043.981.696.041 1.309-.286 1.84-.981.696-.9 1.473-1.799 2.331-2.699.818-.614 1.635-.695 2.453-.246 1.636 1.35 3.027 2.638 4.171 3.865.409.695.798.674 1.166-.062 2.248-4.579 5.581-9.936 9.997-16.07.532-.695.41-1.022-.367-.982-3.762.083-6.462.205-8.096.369-.819.083-1.412-.266-1.78-1.043l-.245-.614c-.45-.981-.286-1.43.491-1.349 2.985.368 6.399.552 10.244.552.653 0 1.389-.327 2.208-.981 1.185-.94 2.208-1.635 3.066-2.086.776-.49 1.779-.266 3.006.675 2.493 1.84 3.926 3.292 4.293 4.355.041.409-.144.778-.552 1.104-.818.409-1.636.798-2.453 1.166-.696.572-1.391 1.329-2.086 2.268-4.008 5.44-7.197 10.305-9.568 14.599-.451.899-.736 1.718-.859 2.453-.041.368.266.675.92.92 3.067.818 5.827.695 8.28-.367.9-.572 1.493-1.329 1.78-2.27.735-2.29 1.348-4.518 1.84-6.686.204-.899.591-1.308 1.165-1.227.572.042.837.471.797 1.288-.083 2.413.02 4.642.307 6.686.122.614.511 1.145 1.165 1.595.982.451 1.615 1.166 1.901 2.147.287 1.921-.409 3.496-2.085 4.723-1.186.817-2.801 1.43-4.845 1.84-4.008.572-8.158.592-12.451.061-1.718-.205-3.334-.675-4.846-1.411-2.004-1.186-3.088-2.678-3.251-4.478-.082-1.226.143-2.595.675-4.109.245-.613.02-.92-.675-.92h-9.875c-.654 0-.982.307-.982.92v4.478l.062 5.03c.245 1.143-.267 1.88-1.534 2.208-2.167.49-4.028.592-5.581.307-.409-.206-.737-.39-.982-.553-.164-.245-.245-.777-.245-1.595 0-1.84.081-3.741.245-5.704v-4.109c0-.654-.328-.982-.981-.982h-4.478c-1.186.041-2.372.123-3.557.245-.778.083-1.35-.346-1.718-1.288l-.184-.552c-.328-.817-.082-1.165.737-1.043 3.025.369 6.072.553 9.138.553.696 0 1.043-.327 1.043-.981v-4.784c0-.655-.183-.982-.551-.982-.41 0-.635.409-.675 1.227.122.941-.512 1.594-1.902 1.963-1.268.286-2.719.409-4.355.368-1.309-.082-1.861-.819-1.656-2.209.041-1.799.123-3.577.246-5.336v-11.47c-.041-1.431-.144-2.883-.307-4.354-.123-.777.266-1.083 1.165-.921l6.992 1.841c.696 0 1.043-.328 1.043-.982v-3.803c0-.654-.328-.981-.981-.981-2.699-.041-5.132.041-7.299.245-.941.082-1.595-.245-1.963-.981l-.245-.492c-.368-.98-.185-1.41.552-1.287 2.78.367 5.744.531 8.893.49.696 0 1.043-.327 1.043-.981v-3.128c-.082-1.185-.183-2.392-.306-3.619" transform="matrix(.999983 0 0 .999983 164.052794935 60.51118009)"/><path d="m0-5.296c-.613 0-.839.348-.675 1.043.818 3.311 2.188 6.645 4.11 9.998.408.654.859.572 1.349-.246 1.554-2.453 2.678-4.927 3.374-7.421.204-.654.102-1.002-.306-1.043-.41-.123-.778-.266-1.105-.43-.328-.326-.49-.714-.49-1.165 0-.491-.328-.736-.982-.736zm-4.784-10.427c-.654 0-.982.327-.982.982v6.501c0 .696.328 1.043.982 1.043h10.059c.654 0 .982-.328.982-.982v-6.562c0-.655-.328-.982-.982-.982zm0-9.876c-.654 0-.982.328-.982.982v5.888c0 .655.328.982.982.982h10.059c.654 0 .982-.327.982-.982v-5.888c0-.654-.328-.982-.982-.982zm-24.044 25.272c-.654 0-.982.306-.982.92v8.648c0 .695.328 1.042.982 1.042h2.146c.655 0 .982-.326.982-.98v-8.649c0-.654-.327-.981-.982-.981zm0-12.206c-.654 0-.982.327-.982.981v8.096c0 .655.328.981.982.981h2.146c.655 0 .982-.326.982-.981v-8.035c0-.695-.327-1.042-.982-1.042zm0-11.838c-.654 0-.982.327-.982.981v7.789c0 .697.328 1.043.982 1.043h2.146c.655 0 .982-.327.982-.981v-7.79c0-.695-.327-1.042-.982-1.042zm37.845-6.134c.531-.45 1.083-.511 1.656-.185 1.39.574 3.005 1.637 4.846 3.19 1.143 1.064 1.103 1.943-.123 2.638-.696.736-1.043 1.431-1.043 2.086v10.549l.306 7.299c-.122.49-.347.88-.674 1.165-.941.573-2.352.86-4.232.86-.736 0-.675.205.184.613 2.331 1.186 4.355 2.31 6.072 3.373 1.349.736 1.677 1.473.981 2.208-.286.164-.757.246-1.41.246-.614-.041-1.064.082-1.35.367-2.821 2.046-5.5 3.496-8.035 4.356-.654.164-.654.654 0 1.471 3.149 2.986 6.502 4.908 10.059 5.766.94.082 1.411.389 1.411.92-.123.572-.307.899-.552.981-1.309.655-2.106 1.902-2.392 3.743-.082.817-.205 1.634-.368 2.453-.123 1.185-.675 1.675-1.656 1.471-1.841-.49-3.844-1.922-6.011-4.293-3.844-4.254-6.501-9.118-7.974-14.598-.941-3.353-1.513-6.808-1.717-10.366-.042-.695-.513-1.042-1.411-1.042-.9 0-1.35.328-1.35.981v17.665c0 .654.409.961 1.227.92 1.677-.123 3.271-.307 4.784-.552.776-.123 1.228.061 1.35.552.082.49-.245 1.063-.982 1.717-4.498 3.475-9.138 5.705-13.923 6.686-.613.162-1.043.654-1.288 1.472-.409 1.267-.962 1.513-1.656.736-.941-2.495-1.84-5.419-2.699-8.771-.164-.695-.654-.92-1.472-.675-.736.123-1.472.185-2.208.185-1.268.122-2.168-.042-2.699-.492-.409-.449-.552-1.043-.429-1.778 0-.695-.328-1.043-.981-1.043h-2.148c-.654 0-.981.307-.981.92v3.251c0 .817-.041 1.328-.122 1.533-.328.491-.798.838-1.411 1.043-1.472.408-3.047.572-4.723.49-.491-.041-.9-.143-1.227-.306-.573-.45-.777-.941-.613-1.472.162-5.929.245-12.431.245-19.505v-21.039c-.041-1.88-.164-3.557-.368-5.029-.123-.777.266-1.063 1.165-.859 2.29.532 4.682 1.248 7.177 2.147h2.699c.613 0 1.328-.388 2.147-1.165l1.226-1.043c1.063-1.145 2.086-1.247 3.067-.307.94.532 2.147 1.37 3.619 2.515 1.43.9 1.553 1.82.368 2.761-1.105.818-1.533 1.615-1.288 2.391v24.964l.245 8.342c.204 1.145.123 1.923-.245 2.331-.123.164.204.267.981.307l1.963.061c.653 0 .982-.327.982-.981v-37.232c-.041-2.167-.164-4.048-.369-5.642-.082-.819.266-1.145 1.043-.982 2.577.695 5.213 1.513 7.913 2.453h10.304c.654 0 1.308-.327 1.963-.981.694-.694 1.41-1.309 2.147-1.84" transform="matrix(.999983 0 0 .999983 231.889641689 36.281592)"/><path d="m0-29.706c.736-.245 1.533.082 2.393.981 2.821 2.332 4.375 4.11 4.661 5.336.04.287-.123.533-.491.737-.083.041-.532.061-1.349.061h-11.163c-.655 0-.982.327-.982.982v11.408c0 .654.429.981 1.288.981s1.553-.408 2.085-1.226c.982-1.595 1.799-2.719 2.454-3.374.531-.285 1.042-.224 1.534.184 1.185 1.064 2.431 2.27 3.741 3.618l.981 1.228c.573 1.309.102 1.86-1.411 1.655h-9.752c-.655 0-.981.328-.981.982v13.985c0 .653.326.982.981.982h1.104c.654 0 1.267-.41 1.841-1.228.898-1.349 1.839-2.556 2.821-3.618.49-.736 1.083-.798 1.778-.185 1.554 1.064 3.313 2.761 5.276 5.091.326.572.49.982.49 1.228 0 .326-.144.572-.429.735-.164.082-.655.123-1.473.123h-35.084l-4.477.245c-.941.082-1.637-.245-2.086-.981l-.245-.491c-.491-.981-.348-1.431.43-1.349 2.534.245 4.988.388 7.36.43.653 0 .981-.329.981-.982v-15.15c-.042-2.248-.206-4.375-.491-6.379-.123-.818.225-1.206 1.043-1.165 4.171.327 7.115.818 8.832 1.471 1.022.737.838 1.412-.552 2.025-.654.45-.981 1.002-.981 1.655v17.543c0 .653.327.982.981.982h2.7c.653 0 .98-.329.98-.982v-29.381c0-.694-.327-1.042-.98-1.042h-6.441c-1.923.082-3.701.205-5.337.368-.858.082-1.471-.307-1.84-1.166l-.306-.613c-.409-.898-.226-1.308.552-1.226 2.78.286 5.52.47 8.219.551h16.622c.654 0 1.247-.408 1.779-1.226.981-1.554 1.963-2.822 2.944-3.803m-23.982-13.924h3.925c1.88.042 3.496.307 4.845.798 3.108 1.227 4.233 3.333 3.374 6.317-.123.41-.348.859-.675 1.35-.49.45-.328.695.492.736l5.826.061c.817 0 1.512-.408 2.086-1.227.898-1.185 1.86-2.391 2.882-3.618.654-.859 1.248-1.125 1.779-.798 1.636 1.023 3.864 3.067 6.685 6.134.614 1.35.163 1.901-1.348 1.656h-36.373c-.655 0-.982.327-.982.982v13.678c-.122 5.561-.839 10.672-2.146 15.334-1.963 6.174-6.011 11.387-12.145 15.64-.777.45-1.371.511-1.779.185-.409-.328-.307-.901.307-1.718 2.002-2.821 3.516-5.971 4.539-9.445 1.185-3.64 2.002-7.463 2.454-11.471.04-.653-.164-.572-.615.246-.858 1.595-1.88 3.088-3.066 4.478-.858.654-1.248 1.267-1.165 1.839.122 1.187-.287 1.8-1.227 1.84-.532-.327-.981-1.144-1.349-2.453-.778-2.208-1.533-4.416-2.27-6.625-.245-.817.04-1.266.859-1.349 2.535-.163 5.233-.817 8.096-1.962.654-.287.982-.757.982-1.412v-5.704c0-.613-.103-.531-.307.245-.941 2.046-2.556 2.924-4.846 2.638-1.145-.123-1.942-.838-2.392-2.146-.245-.737-.307-1.677-.184-2.822.245-1.88-.225-3.905-1.411-6.073-.531-.817-.654-1.369-.368-1.655s.838-.327 1.656-.123c1.718.49 3.333 1.248 4.846 2.269 1.595 1.187 2.556 2.679 2.883 4.478.082.695.123.736.123.123v-4.846c-.083-3.352-.226-5.867-.43-7.545-.164-.981.123-1.389.858-1.226 2.74.573 5.623 1.329 8.649 2.269h9.936c.655 0 .716-.408.185-1.226-.45-1.922-1.329-3.536-2.638-4.846-.409-.408-.797-.736-1.165-.981-.859-.45-1.207-.879-1.043-1.289.123-.408.593-.633 1.411-.674.082 0 .163-.02.246-.062" transform="matrix(.999983 0 0 .999983 305.001398768 47.63139905)"/><path d="m0 17.623c-.246 0-.512.328-.798.981-.981 2.864-2.883 5.869-5.704 9.017-.654.653-.552 1.043.307 1.165.898.123 1.799.225 2.699.307.613 0 1.021-.061 1.226-.184.45-.286.777-.757.982-1.411.939-2.984 1.492-5.928 1.655-8.832 0-.695-.122-1.043-.367-1.043m-15.825-17.972c-.613 0-.92.349-.92 1.043v2.147c0 .696.327 1.043.981 1.043h10.12c.696 0 1.043-.327 1.043-.982v-2.208c0-.694-.328-1.043-.981-1.043zm.061-5.704c-.654 0-.981.328-.981.982v1.656c0 .695.327 1.043.981 1.043h10.12c.696 0 1.043-.327 1.043-.982v-1.656c0-.695-.328-1.043-.981-1.043zm-8.28-13.003c.122-.776.592-1.083 1.41-.92 3.353.614 5.97 1.247 7.852 1.902.939.531 1.43.92 1.471 1.165.04.409-.266.695-.919.858-.287.083-.574.145-.859.185-.613.164-1.084.551-1.411 1.165-.368.654-.226.981.43.981h11.96c.654 0 1.308-.408 1.963-1.226.736-.941 1.534-1.881 2.392-2.822.899-.817 1.451-1.206 1.656-1.166.45.083.96.39 1.534.92 2.248 1.882 3.802 3.477 4.661 4.784.286.452.265.88-.061 1.289-.287.287-.839.368-1.656.246h-23.86c-.655 0-1.248.409-1.779 1.226l-.184.307c-.532.695-.389 1.145.429 1.349.737.206 1.493.451 2.27.736h10.795c.613 0 1.308-.408 2.086-1.227.49-.53 1.001-1.083 1.533-1.656.776-.858 2.003-.653 3.68.613.613.328 1.411.86 2.392 1.596.899.613 1.39 1.268 1.472 1.962-.041.532-.429.981-1.165 1.35-.613.532-.92 1.104-.92 1.717v3.741l.061 4.785c.04.696.205.9.491.613.449-.368 1.083-.347 1.901.061 1.309 1.023 2.761 2.454 4.356 4.294.571.491.613 1.064.122 1.717-.164.164-.634.246-1.411.246h-21.774c-.655 0-1.207.389-1.656 1.165-.409.737-.819 1.329-1.227 1.779-.573.655-.512.981.184.981h15.027c.653 0 1.35-.408 2.086-1.226.653-.695 1.328-1.35 2.024-1.963.45-.491 1.063-.511 1.84-.062 1.144.655 2.351 1.514 3.619 2.576.817.615 1.308 1.207 1.472 1.78.245.736-.021 1.248-.798 1.533-.532.245-1.002.635-1.41 1.165-.164.328-.266.839-.307 1.534-.287 3.476-.859 6.705-1.717 9.69-.778 3.068-2.536 5.132-5.276 6.196-1.594.531-2.985.653-4.171.368-.818-.409-1.084-1.146-.796-2.208.04-1.064-.164-1.882-.614-2.454-.573-.819-1.329-1.472-2.269-1.962-.942-.368-1.371-.655-1.288-.859.04-.287-.328-.103-1.105.552-3.557 2.493-7.136 4.232-10.733 5.213-.819.246-1.371.163-1.656-.245-.329-.368-.062-.839.796-1.411 6.216-4.498 10.264-9.588 12.146-15.273.204-.653.204-.981 0-.981-.246 0-.614.39-1.105 1.166-2.044 3.599-5.173 6.768-9.384 9.507-3.395 2.085-6.829 3.536-10.305 4.354-.818.204-1.37.082-1.655-.368-.287-.45-.022-.899.797-1.348 1.553-.819 3.148-1.923 4.784-3.313 3.393-2.944 5.867-5.949 7.422-9.017.327-.653.368-.981.123-.981-.246 0-.697.307-1.35.92-3.026 2.904-6.604 5.071-10.734 6.502-.819.286-1.37.245-1.656-.123-.328-.326-.083-.837.736-1.533 4.211-3.353 7.033-6.952 8.465-10.795.285-.654.081-.982-.614-.982-2.086-.04-3.966.022-5.643.184-.9.083-1.554-.265-1.963-1.042l-.184-.553c-.49-.898-.347-1.307.43-1.226 2.657.287 5.356.45 8.096.491h7.36l14.354.122c.653 0 1.307-.408 1.962-1.227l.368-.49c.531-.613.388-.817-.429-.613-.982.245-2.291.327-3.926.245-.981-.082-1.555-.491-1.718-1.227 0-.246-.327-.368-.981-.368h-10.304c-.655 0-.981.225-.981.675.122.45 0 .88-.368 1.288-.614.49-1.432.777-2.454.858-.819.123-1.943.144-3.374.062-.573-.04-1.063-.307-1.471-.798-.123-.245-.185-.756-.185-1.533 0-1.88.04-3.781.123-5.704v-3.987c0-.695-.368-.633-1.104.184-1.023.899-2.004 1.656-2.945 2.27-.777.45-1.39.531-1.839.245-.41-.327-.287-.92.368-1.78 3.312-5.069 5.377-10.651 6.195-16.744m-12.759.245c.123-.94.532-1.328 1.228-1.165 3.147.736 5.826 1.472 8.035 2.208.939.574 1.431.961 1.472 1.165-.123.737-.675 1.146-1.657 1.227-.654.205-1.063.654-1.226 1.35-.982 3.271-2.086 6.277-3.313 9.016-.327.654-.143 1.104.553 1.35.817.327 1.186.757 1.104 1.288-.246.613-.614.981-1.104 1.103-.696.369-1.043.859-1.043 1.473v24.779l.368 10.182c.04.981-.491 1.615-1.594 1.902-2.455.614-4.499.695-6.134.245-.778-.409-1.065-1.022-.86-1.84.041-3.231.123-6.523.246-9.875v-18.339c0-.614-.429-.512-1.288.306-1.104 1.023-2.208 1.902-3.312 2.637-.777.573-1.31.635-1.595.185-.286-.368-.164-.982.368-1.84 5.521-8.914 8.772-18.033 9.752-27.357" transform="matrix(.999983 0 0 .999983 365.049377935 24.22179702)"/><path d="m0 27.276c-.613 0-.92.327-.92.981v7.361c0 .653.326.981.981.981h21.467c.655 0 .982-.306.982-.921v-7.421c0-.654-.327-.981-.982-.981zm25.822-5.275c.777-.369 2.003.061 3.681 1.288 1.39.858 2.576 1.799 3.558 2.821.245.205.346.491.306.859.04.368-.368.819-1.227 1.349-.328.205-.655.471-.982.798-.122.164-.183.552-.183 1.165v3.681l.183 5.887c.163 1.145-.531 1.861-2.085 2.148-1.309.326-2.821.428-4.539.306-.736.04-1.37-.225-1.901-.798-.082-.122-.123-.613-.123-1.471 0-.859-.327-1.288-.982-1.288h-21.406c-.654 0-.981.327-.981.981.204 1.145-.307 1.902-1.534 2.27-1.471.368-3.271.51-5.397.428-1.105-.041-1.677-.531-1.718-1.471l.246-6.196v-6.562c-.042-1.718-.144-3.23-.306-4.539-.123-.777.306-1.043 1.288-.798 2.616.696 5.192 1.452 7.727 2.27h21.653c.653 0 1.389-.388 2.208-1.166.776-.736 1.615-1.389 2.514-1.962m-19.075-37.232h3.066c1.39.083 2.617.328 3.681.736 2.248 1.146 3.045 2.965 2.392 5.459-.368.655-.226.982.429.982h9.875c.654 0 1.39-.327 2.208-.982.818-.695 1.616-1.328 2.393-1.901.571-.531 1.186-.593 1.84-.184 1.349.614 2.964 1.595 4.846 2.944 1.266.859 1.941 1.575 2.023 2.147.041.327-.103.614-.429.859-.451.286-1.186.49-2.208.613-.573.041-.981.164-1.227.368-2.085 1.717-4.192 2.986-6.318 3.803-.654.286-.573.798.245 1.533l.553.552c.736.9 1.104 1.432 1.104 1.596-.286.818-.92 1.063-1.902.735l-1.103-.245c-.451-.245-.86-.307-1.228-.184-3.556.736-7.299 1.206-11.224 1.41-.696.041-1.042.39-1.042 1.043v2.331c0 .696.326 1.042.981 1.042h5.398c.653 0 1.307-.408 1.962-1.226 1.186-1.554 2.249-2.719 3.19-3.496.449-.245 1.062-.062 1.84.551 1.512 1.024 3.107 2.353 4.784 3.988.531.573.798 1.043.798 1.411.04.367-.103.634-.43.797-.164.041-.613.061-1.349.061h-16.193c-.696 0-1.043.327-1.043.982v3.496c0 .654.327.981.982.981h9.138c.655 0 1.288-.388 1.902-1.166 1.185-1.594 2.187-2.8 3.006-3.618.368-.368.776-.45 1.226-.245 1.554.94 3.169 2.106 4.846 3.496 1.226.982 1.963 1.84 2.208 2.576.04.367-.021.634-.184.797-.368.245-.962.328-1.779.245h-20.241c-.655 0-1.002.409-1.042 1.227v1.841c.163.695-.164 1.267-.982 1.716-1.349.41-3.17.574-5.459.492-.941-.04-1.616-.45-2.024-1.227 0-.981.02-1.963.061-2.944 0-.737-.286-1.105-.858-1.105h-14.23c-1.8.083-3.599.205-5.398.368-.777.083-1.391-.326-1.84-1.226l-.306-.613c-.452-.859-.288-1.247.49-1.165 2.78.286 5.52.45 8.219.49h12.942c.695 0 1.043-.307 1.043-.92v-3.496c0-.696-.328-1.043-.982-1.043h-8.71c-2.453.082-4.703.205-6.747.368-.818.082-1.431-.286-1.839-1.105l-.246-.613c-.491-.939-.348-1.369.429-1.288 2.616.287 5.97.471 10.06.553h5.336c.491.041 1.002.041 1.533 0 .818-.041 1.227-.389 1.227-1.043v-1.901c0-.655-.409-.982-1.227-.982h-5.091c-3.476-.082-6.339-.204-8.587-.368-.818-.081-1.288-.408-1.41-.982-.123-.613.224-.96 1.042-1.043 5.97-.49 10.734-1.124 14.292-1.901.653-.163.96-.653.92-1.472 0-1.389-.083-2.841-.245-4.355-.123-.776.223-1.124 1.042-1.042 4.171.531 7.094 1.103 8.771 1.717.368.164.592.306.675.429.326.574.062 1.064-.798 1.472-.735.409-1.103.758-1.103 1.043 0 .287.408.328 1.226.123 2.167-.572 4.192-1.37 6.073-2.392.817-.491 1.634-.429 2.453.184l1.226 1.042c.737.613 1.186.613 1.35 0 .245-1.185.388-2.186.43-3.005.04-.654-.267-.981-.92-.981h-32.877c-.655 0-.982.327-.982.981 0 1.759-.367 3.312-1.103 4.661-.328.819-1.003 1.555-2.025 2.208-1.676.86-3.373 1.065-5.091.614-1.799-.614-2.658-1.902-2.576-3.865.082-1.43.756-2.576 2.025-3.434.817-.368 1.634-.777 2.453-1.227 2.249-1.389 3.557-3.046 3.926-4.968.081-.818.408-1.227.981-1.227.531 0 .858.409.981 1.227l.246 2.085c.123.614.51.92 1.165.92h13.065c.653 0 .817-.387.49-1.165-.777-1.963-1.963-3.291-3.557-3.987-.819-.163-1.165-.449-1.043-.858.082-.409.531-.696 1.349-.859.86-.123 1.78-.204 2.761-.246" transform="matrix(.999983 0 0 .999983 398.354811733 19.23188185)"/><path d="m0-3.599c-.532-.898-.594-1.492-.185-1.778.492-.286 1.124-.163 1.902.368 4.457 3.434 7.913 7.504 10.366 12.205 1.186 2.168 1.431 4.355.736 6.563-.532 1.595-1.677 2.515-3.435 2.76-1.8.287-3.19-.552-4.171-2.514-.613-1.512-1.023-3.128-1.227-4.846-.531-4.497-1.861-8.75-3.986-12.758m-18.831-25.639c.163-.94.634-1.328 1.411-1.165 2.861.614 5.295 1.227 7.299 1.84.981.368 1.738.777 2.269 1.227.246.9-.286 1.431-1.594 1.594-.655.246-1.165.778-1.533 1.595-.942 2.25-1.902 4.152-2.883 5.704-.409.615-.286.921.368.921h14.721c.653 0 1.185-.143 1.594-.43 1.513-1.389 2.719-2.309 3.619-2.759.45-.246 1.063-.082 1.84.49l1.043.798c2.412 2.208 3.884 3.925 4.416 5.151.245.696-.123 1.105-1.104 1.228-.327.082-.655.102-.982.06-.695 0-1.186.123-1.471.368-2.822 2.127-5.336 3.763-7.545 4.908-.819.409-1.391.47-1.717.183-.328-.285-.348-.817-.062-1.595.573-1.511 1.002-3.25 1.288-5.212.124-.696-.123-1.043-.736-1.043h-2.76c-.654 0-.981.328-.981.981v34.103c-.041 1.798-.941 3.374-2.699 4.723-2.126 1.308-4.151 2.044-6.073 2.208-1.226.204-1.901-.429-2.023-1.901-.246-1.269-.696-2.475-1.35-3.619-.573-.901-1.738-1.574-3.496-2.025-.818-.205-1.226-.592-1.226-1.165.04-.654.449-.941 1.226-.858 1.472.204 3.413.245 5.827.122.654-.122 1.022-.225 1.104-.307.082-.122.123-.51.123-1.165l.062-4.722v-3.681l.06-3.68v-17.726c.041-.818-.266-1.227-.92-1.227h-3.128c-.654 0-1.267.409-1.84 1.227-1.839 2.821-4.682 5.664-8.526 8.525-.94.573-1.574.736-1.901.491-.41-.368-.389-.94.061-1.717 4.294-7.361 7.033-14.844 8.219-22.45m-3.741 23.861c.04-.941.449-1.329 1.226-1.166 3.353.696 6.216 1.472 8.588 2.331.859.573 1.288 1.003 1.288 1.288-.123.736-.655 1.125-1.595 1.165-.655.205-1.125.716-1.411 1.534-.981 3.189-2.413 6.297-4.294 9.323-1.839 3.027-4.129 5.5-6.869 7.421-.818.572-1.431.715-1.84.43-.328-.204-.307-.756.061-1.656 2.739-6.788 4.356-13.678 4.846-20.67m-9.446-23.861c.205-.981.695-1.389 1.472-1.226 2.739.532 5.561 1.288 8.465 2.269.735.533 1.103.9 1.103 1.104-.041.736-.634 1.145-1.778 1.227-.573.122-.9.368-.981.736-1.35 3.557-2.822 6.563-4.416 9.016-.451.655-.267 1.146.551 1.473.491.205.838.45 1.043.735.368.533.143 1.023-.674 1.473-.819.49-1.227 1.042-1.227 1.656v27.172c.122 2.453.184 4.927.184 7.422 0 .817-.041 1.328-.123 1.533-.328.53-.797.879-1.411 1.043-1.064.285-2.291.469-3.68.552-1.146.081-2.085-.083-2.822-.491-.45-.409-.592-1.023-.429-1.84 0-2.494.041-5.051.123-7.667v-20.732c0-.654-.389-.613-1.165.122-1.146 1.105-2.353 2.025-3.619 2.761-.819.531-1.411.614-1.78.245-.327-.408-.245-1.021.246-1.84 3.639-5.806 6.665-12.288 9.078-19.444.776-2.125 1.389-4.558 1.84-7.299" transform="matrix(.999983 0 0 .999983 487.102303 34.89161563)"/><path d="m0-10.058c.368-.327.961-.348 1.779-.062 1.758.819 3.373 1.881 4.846 3.19 2.576 2.29 3.843 4.744 3.803 7.36-.083 2.085-.942 3.599-2.576 4.539-1.269.41-2.496.512-3.681.307-.818-.245-1.472-.899-1.963-1.963-.245-.94-.348-2.105-.307-3.496.287-2.78-.205-5.499-1.471-8.158-.574-.818-.716-1.39-.43-1.717m-20.731 7.237c-.614 0-.92.328-.92.982v16.07c0 .694.326 1.043.981 1.043h5.766c.694 0 1.043-.328 1.043-.981v-16.132c0-.654-.328-.982-.982-.982zm0-16.928c-.614 0-.92.347-.92 1.043v12.819c0 .654.326.981.981.981h5.766c.694 0 1.043-.327 1.043-.981v-12.819c0-.696-.328-1.043-.982-1.043zm19.996-13.004c.04-.818.449-1.144 1.226-.981 3.558.736 6.808 1.717 9.752 2.944.491.287.613.655.368 1.104-.245.573-.818.899-1.716.982-.656.164-1.105.654-1.35 1.471-.368 1.391-.88 2.966-1.533 4.724-.246.695-.042 1.042.613 1.042h6.869c.653 0 1.39-.408 2.208-1.227l1.227-1.226c1.022-1.309 2.045-1.616 3.067-.92 1.799 1.226 3.414 2.536 4.846 3.926.939 1.103.653 1.983-.86 2.636-.818.614-1.226 1.227-1.226 1.841 0 9.978-.777 19.464-2.33 28.46-.491 2.739-1.391 5.172-2.699 7.299-1.268 1.799-2.802 3.046-4.601 3.741-.695.246-1.513.45-2.453.613-1.187.163-2.086.021-2.699-.428-.287-.205-.451-.594-.491-1.166-.041-.819-.123-1.636-.245-2.453-.287-1.105-.696-1.923-1.226-2.454-1.105-.818-2.516-1.594-4.233-2.331-.777-.286-1.125-.696-1.043-1.226.163-.531.654-.737 1.472-.614 2.699.41 5.254.574 7.667.491 1.145-.245 1.841-.756 2.086-1.533.531-1.472.92-3.087 1.165-4.846 1.021-7.851 1.656-16.336 1.901-25.454 0-.655-.409-1.002-1.226-1.043h-7.667c-.819-.04-1.41.347-1.779 1.165-1.758 4.131-4.662 8.137-8.709 12.022-.778.696-1.269.941-1.473.736-.245-.246-.367-.04-.367.613v16.009l.183 8.158c.285.653-.041 1.328-.981 2.024-1.963.614-3.905.797-5.827.552-.655-.205-1.002-.613-1.042-1.227v-2.269c0-.696-.328-1.043-.982-1.043h-5.765c-.656 0-.982.327-.982.981v1.779c0 .818-.123 1.431-.368 1.841-.328.49-.92.796-1.779.92-1.391.368-2.904.469-4.538.306-1.105-.409-1.514-1.267-1.228-2.576 0-3.149.062-6.339.185-9.568v-29.258c-.041-1.595-.123-3.19-.245-4.784-.124-.899.223-1.227 1.042-.982 1.84.573 3.7 1.187 5.582 1.84.653.246 1.001-.04 1.043-.858 0-.573.04-1.165.122-1.779v-3.557c-.082-1.39-.184-2.781-.307-4.171-.122-.818.225-1.166 1.043-1.043 2.78.45 5.499 1.104 8.157 1.963.982.327 1.492.777 1.534 1.349-.246.736-.757 1.104-1.534 1.104-.654.083-1.144.471-1.472 1.166-.899 1.8-2.229 3.556-3.986 5.274-.696.655-.717.982-.061.982h3.251c.653 0 1.369-.409 2.146-1.227l.982-1.043c.898-.694 1.737-.92 2.514-.675 1.39.737 2.985 1.902 4.784 3.496.777.614 1.043 1.166.798 1.657-.083.123-.307.368-.675.736l-.613.49c-.655.574-.981 1.187-.981 1.841v8.342c0 .735.162.674.49-.185 3.025-8.341 4.682-16.499 4.969-24.473" transform="matrix(.999983 0 0 .999983 538.2014343 37.9815631)"/><path d="m0-5.296c-.613 0-.839.348-.675 1.043.818 3.311 2.188 6.645 4.11 9.998.408.654.859.572 1.349-.246 1.554-2.453 2.678-4.927 3.374-7.421.204-.654.102-1.002-.306-1.043-.41-.123-.778-.266-1.105-.43-.328-.326-.49-.714-.49-1.165 0-.491-.328-.736-.982-.736zm-4.784-10.427c-.654 0-.982.327-.982.982v6.501c0 .696.328 1.043.982 1.043h10.059c.654 0 .982-.328.982-.982v-6.562c0-.655-.328-.982-.982-.982zm0-9.876c-.654 0-.982.328-.982.982v5.888c0 .655.328.982.982.982h10.059c.654 0 .982-.327.982-.982v-5.888c0-.654-.328-.982-.982-.982zm-24.044 25.272c-.654 0-.982.306-.982.92v8.648c0 .695.328 1.042.982 1.042h2.146c.655 0 .982-.326.982-.98v-8.649c0-.654-.327-.981-.982-.981zm0-12.206c-.654 0-.982.327-.982.981v8.096c0 .655.328.981.982.981h2.146c.655 0 .982-.326.982-.981v-8.035c0-.695-.327-1.042-.982-1.042zm0-11.838c-.654 0-.982.327-.982.981v7.789c0 .697.328 1.043.982 1.043h2.146c.655 0 .982-.327.982-.981v-7.79c0-.695-.327-1.042-.982-1.042zm37.845-6.134c.531-.45 1.083-.511 1.656-.185 1.39.574 3.005 1.637 4.846 3.19 1.143 1.064 1.103 1.943-.123 2.638-.696.736-1.043 1.431-1.043 2.086v10.549l.306 7.299c-.122.49-.347.88-.674 1.165-.941.573-2.352.86-4.232.86-.736 0-.675.205.184.613 2.331 1.186 4.355 2.31 6.072 3.373 1.349.736 1.677 1.473.981 2.208-.286.164-.757.246-1.41.246-.614-.041-1.064.082-1.35.367-2.821 2.046-5.5 3.496-8.035 4.356-.654.164-.654.654 0 1.471 3.149 2.986 6.502 4.908 10.059 5.766.94.082 1.411.389 1.411.92-.123.572-.307.899-.552.981-1.309.655-2.106 1.902-2.392 3.743-.082.817-.205 1.634-.368 2.453-.123 1.185-.675 1.675-1.656 1.471-1.841-.49-3.844-1.922-6.011-4.293-3.844-4.254-6.501-9.118-7.974-14.598-.941-3.353-1.513-6.808-1.717-10.366-.042-.695-.513-1.042-1.411-1.042-.9 0-1.35.328-1.35.981v17.665c0 .654.409.961 1.227.92 1.677-.123 3.271-.307 4.784-.552.776-.123 1.228.061 1.35.552.082.49-.245 1.063-.982 1.717-4.498 3.475-9.138 5.705-13.923 6.686-.613.162-1.043.654-1.288 1.472-.409 1.267-.962 1.513-1.656.736-.941-2.495-1.84-5.419-2.699-8.771-.164-.695-.654-.92-1.472-.675-.736.123-1.472.185-2.208.185-1.268.122-2.168-.042-2.699-.492-.409-.449-.552-1.043-.429-1.778 0-.695-.328-1.043-.981-1.043h-2.148c-.654 0-.981.307-.981.92v3.251c0 .817-.041 1.328-.122 1.533-.328.491-.798.838-1.411 1.043-1.472.408-3.047.572-4.723.49-.491-.041-.9-.143-1.227-.306-.573-.45-.777-.941-.613-1.472.162-5.929.245-12.431.245-19.505v-21.039c-.041-1.88-.164-3.557-.368-5.029-.123-.777.266-1.063 1.165-.859 2.29.532 4.682 1.248 7.177 2.147h2.699c.613 0 1.328-.388 2.147-1.165l1.226-1.043c1.063-1.145 2.086-1.247 3.067-.307.94.532 2.147 1.37 3.619 2.515 1.43.9 1.553 1.82.368 2.761-1.105.818-1.533 1.615-1.288 2.391v24.964l.245 8.342c.204 1.145.123 1.923-.245 2.331-.123.164.204.267.981.307l1.963.061c.653 0 .982-.327.982-.981v-37.232c-.041-2.167-.164-4.048-.369-5.642-.082-.819.266-1.145 1.043-.982 2.577.695 5.213 1.513 7.913 2.453h10.304c.654 0 1.308-.327 1.963-.981.694-.694 1.41-1.309 2.147-1.84" transform="matrix(.999983 0 0 .999983 608.73023529 36.281592)"/></g><path d="m0-55.1c-.123-.817.245-1.145 1.104-.981 3.925.49 6.931 1.186 9.016 2.085.368.123.531.328.491.614-.164.654-.573 1.022-1.227 1.103-.655.409-.982.942-.982 1.595v45.205c-.082 1.922-1.144 3.496-3.189 4.723-1.595.981-3.21 1.574-4.845 1.779-.9.122-1.555.04-1.963-.245-.368-.246-.573-.635-.613-1.166-.246-1.472-.594-2.679-1.043-3.619-.613-.9-1.145-1.432-1.595-1.595-.941-.367-1.882-.674-2.821-.92-.777-.205-1.166-.593-1.166-1.165.082-.613.511-.88 1.288-.798 2.331.204 4.579.246 6.747.123.653-.164 1.064-.653 1.227-1.471v-38.888c-.041-2.248-.184-4.375-.429-6.379m-11.225 5.827c-.083-.776.266-1.104 1.042-.981 2.863.409 5.418.941 7.668 1.594.818.451 1.246.778 1.287.982.082.531-.245.94-.98 1.226-.696.329-1.043.797-1.043 1.412v22.754l.122 6.196c.204 1.022-.307 1.678-1.533 1.963-1.391.328-2.862.45-4.416.368-.982-.04-1.595-.491-1.84-1.35l.062-2.514v-26.621c-.083-2.043-.206-3.72-.369-5.029m-22.694-.246c-.655 0-.981.328-.981.981v11.471c0 .654.326.982.981.982h9.937c.653 0 .98-.307.98-.921v-11.47c0-.694-.327-1.043-.98-1.043zm14.168-5.029c.654-.245 1.451-.04 2.393.613 1.349.777 2.576 1.636 3.679 2.576 1.268.86 1.166 1.821-.306 2.883-.655.613-.982 1.248-.982 1.901v5.951l.185 6.807c.204.491.019 1.003-.552 1.534-.532.41-1.452.675-2.761.797-2.168.245-3.679.144-4.539-.306-.368-.204-.512-.614-.428-1.227 0-.653-.329-.981-.982-.981h-4.109c-.656 0-.982.328-.982.981 0 1.923-.061 4.028-.184 6.317 0 .656.327.982.981.982h4.478c.653 0 1.185-.163 1.594-.49 1.186-.9 1.984-1.554 2.393-1.963.653-.696 1.472-.715 2.453-.062 1.472.819 2.678 1.636 3.619 2.453 1.472 1.024 1.656 1.985.552 2.883-.245.164-.43.307-.552.43-.573.736-.839 1.555-.798 2.453-.286 6.421-1.063 11.267-2.331 14.537-1.144 3.19-3.537 5.233-7.175 6.134-1.146.163-1.943.101-2.393-.185-.245-.122-.409-.306-.49-.551-.245-1.472-.594-2.924-1.043-4.355-.409-.859-1.677-1.656-3.803-2.393-.818-.286-1.187-.695-1.104-1.226.123-.532.592-.756 1.411-.675 2.126.286 3.864.449 5.214.491 1.349.162 2.167-.51 2.453-2.024.653-4.048 1.104-8.178 1.349-12.39 0-.695-.328-1.043-.981-1.043h-5.091c-.654 0-1.022.409-1.104 1.227-.165 3.434-1.023 6.768-2.577 9.998-2.29 5.233-6.236 9.404-11.838 12.513-.818.408-1.41.408-1.778 0-.328-.41-.123-1.003.613-1.78 1.227-1.267 2.331-2.883 3.313-4.845 1.349-2.699 2.391-5.928 3.128-9.691.736-3.803 1.165-7.953 1.288-12.451v-3.189c0-.655-.409-.941-1.227-.86-.573.123-1.534.144-2.882.062-1.105-.081-1.657-.614-1.657-1.595l.307-6.011v-7.913c-.083-1.553-.226-3.128-.43-4.723-.122-.817.286-1.103 1.227-.858 2.535.613 5.05 1.37 7.545 2.27h10.243c.653 0 1.39-.369 2.208-1.105.531-.449 1.35-1.083 2.453-1.901" fill="#2e58be" transform="matrix(.999983 0 0 .999983 46.030801343 56.51124809)"/><path d="m0-31.996c-.654 0-.981.327-.981.98v2.823c0 .695.327 1.042.981 1.042h.798c.694 0 1.042-.326 1.042-.982v-2.883c0-.653-.327-.98-.982-.98zm-4.478 26.129c-.613 0-.818.409-.613 1.226.327 1.023.9 2.168 1.718 3.435.53.614 1.103.553 1.717-.184.859-1.021 1.574-2.146 2.147-3.373.285-.736.122-1.104-.491-1.104zm-6.255-6.195c-.656 0-.982.328-.982.981v2.27c0 .696.326 1.043.982 1.043h2.882c.654 0 .982-.328.982-.982v-2.269c0-.695-.328-1.043-.982-1.043zm-.062-5.52c-.613 0-.92.348-.92 1.042v1.534c0 .696.326 1.042.982 1.042h2.882c.654 0 .982-.326.982-.981v-1.595c0-.694-.328-1.042-.982-1.042zm-6.685-14.414c-.614 0-.92.327-.92.98v2.823c0 .695.428 1.042 1.288 1.042.939 0 1.41-.326 1.41-.982v-2.883c0-.653-.327-.98-.982-.98zm-8.22 26.19c-.696 0-1.042.328-1.042.982v5.152c.04.819.47.982 1.288.49 2.371-1.389 4.558-3.189 6.562-5.397.654-.817.654-1.227 0-1.227zm9.201-38.458c.081-.491.53-.736 1.349-.736 3.435-.122 5.97.267 7.606 1.165.982.573 1.554 1.33 1.717 2.27.123.613.061 1.268-.184 1.963-.286.532-.102.797.552.797h4.416c.654 0 1.288-.408 1.901-1.226.573-.777 1.228-1.534 1.963-2.27.696-.817 1.228-1.185 1.595-1.104.45.083 1.145.532 2.086 1.349 2.085 1.759 3.414 3.088 3.986 3.987.204.287.204.635 0 1.043-.286.328-.858.429-1.717.306h-26.251c-2.945.083-5.419.226-7.422.43-.859.082-1.494-.307-1.902-1.165l-.306-.614c-.41-.981-.226-1.41.551-1.287 2.822.327 5.766.511 8.832.551h3.498c.653 0 .836-.408.551-1.226-.409-1.677-1.165-2.822-2.269-3.436-.532-.122-.716-.387-.552-.797m-19.076 36.802c-.819 0-1.227.307-1.227.92v11.041c0 .694.408 1.042 1.227 1.042.859 0 1.288-.327 1.288-.981v-11.04c0-.654-.429-.982-1.288-.982m-6.809-36.925c.246-.408.757-.591 1.534-.551 1.799.123 3.413.45 4.846.981 2.248.982 3.475 2.413 3.68 4.293.163.981.081 1.861-.245 2.638-.205.859-.819 1.554-1.84 2.086-.942.327-1.759.47-2.454.428-1.922-.285-2.924-1.288-3.005-3.005l-.307-2.454c-.246-1.226-.717-2.227-1.411-3.004-.777-.614-1.043-1.084-.798-1.412m10.918 14.292c.204-.327.491-.388.86-.184 1.471.777 3.106 2.127 4.906 4.049.408.367.408.858 0 1.471-.163.082-.654.123-1.472.123l-3.741.061h-7.545c-1.391.042-2.801.123-4.232.246-.941.122-1.595-.204-1.962-.981l-.246-.492c-.532-.981-.389-1.43.429-1.349 1.513.287 3.19.451 5.03.491h4.048c.654 0 1.288-.408 1.902-1.227.572-.736 1.246-1.472 2.023-2.208m-1.655-5.459c1.021-1.389 1.941-2.392 2.76-3.005.49 0 .858.143 1.103.429 1.023.696 2.148 1.738 3.374 3.128.572.613.818.654.737.123-.165-.614.122-.838.858-.675 1.595.328 3.189.736 4.784 1.227.776.368 1.635.49 2.576.368.654 0 1.39-.348 2.208-1.043.204-.123.408-.265.614-.43.736-.572 1.533-.714 2.392-.428 1.063.613 1.88 1.125 2.453 1.533.777.695 1.165 1.206 1.165 1.533-.041.286-.245.594-.613.92-.367.368-.573.654-.613.858-.041 1.678 0 3.374.123 5.092.163.982-.307 1.656-1.411 2.024-.614.205-1.37.328-2.27.368-1.677.164-2.658-.245-2.943-1.227 0-.368-.43-.551-1.288-.551-.86 0-1.31.163-1.35.49-.041.287-.102.491-.184.613-.123.205.184.328.919.368 2.659.164 5.009.552 7.054 1.165.572.205.716.574.43 1.105-.041.082-.307.266-.797.552-.491.368-.736.696-.736.981 0 .368.327.552.981.552h2.883c.653 0 .981-.408.981-1.227l-.184-1.778c-.122-.818-.122-1.227 0-1.227.082 0 .02-.041-.184-.123-.45-.285-.613-.694-.491-1.226.246-2.331.327-4.56.246-6.686-.041-.94-.102-1.901-.185-2.883-.164-.776.164-1.083.982-.92 1.431.368 3.046.797 4.846 1.288.613.287 1.472.389 2.576.307.653 0 1.389-.368 2.208-1.104l.613-.491c.695-.491 1.492-.572 2.393-.246 1.103.533 2.228 1.269 3.373 2.209.45.491.408.961-.122 1.41-.778.574-1.084 1.187-.92 1.84 0 2.168.06 3.763.183 4.784.04.737-.429 1.289-1.411 1.657-1.186.409-2.453.491-3.803.246-.777-.041-1.267-.45-1.471-1.228-.041-.285-.39-.428-1.043-.428h-.797c-.655 0-1.003.102-1.043.306-.328.819-1.043 1.268-2.147 1.35-.614.082-.552.183.184.306 2.289.328 3.904.655 4.846.981.817.532.756 1.023-.185 1.473-.49.328-.735.634-.735.919 0 .329.326.491.981.491.695 0 1.328-.408 1.902-1.227.817-1.266 1.511-2.044 2.085-2.33.286-.082.653.103 1.104.552 1.554 1.349 2.638 2.514 3.251 3.496.326.368.388.736.184 1.104-.328.328-.901.429-1.718.307h-6.869c-.655 0-.982.327-.982.981v1.595c0 .696.225 1.042.675 1.042.49 0 1.022-.408 1.595-1.226.53-.982 1.185-1.718 1.963-2.208.326-.081.735.102 1.226.551 1.186.942 2.27 2.086 3.251 3.436.163.45.143.797-.061 1.042-.287.246-.839.328-1.656.246h-6.073c-.654 0-.981.327-.981.981v2.269c0 .696.224 1.043.675 1.043.49 0 1.002-.408 1.533-1.227.653-1.104 1.247-1.901 1.779-2.392.613-.735 1.431-.552 2.453.553 1.39 1.267 2.474 2.535 3.251 3.802.245.327.184.675-.184 1.043-.163.122-.634.184-1.411.184h-6.01c-.697 0-.635.267.183.798 1.431.858 2.842 1.758 4.233 2.698.858.777 1.288 1.31 1.288 1.595-.205.613-.573.858-1.105.736-.818-.163-1.41-.163-1.778 0-2.004.736-3.803 1.187-5.397 1.35-.614.122-.512.388.306.797 2.125 1.062 5.05 1.737 8.771 2.024.817.081 1.226.326 1.226.735.082.615-.143.961-.674 1.043-1.186.86-1.82 2.188-1.902 3.988l-.183 1.226c-.165 1.227-.675 1.718-1.534 1.472-1.594-.082-3.23-.736-4.907-1.963-3.803-2.698-6.339-6.011-7.605-9.936-.574-1.757-.92-3.598-1.043-5.52-.041-.654-.225-.982-.552-.982-.328 0-.798.41-1.411 1.227l-1.717 1.778c-.696.574-1.043 1.187-1.043 1.841v3.496c0 .654.408.941 1.227.859 1.308-.164 2.494-.389 3.557-.675.818-.204 1.369-.081 1.656.368.122.491-.184 1.021-.919 1.595-4.09 3.025-8.22 5.029-12.391 6.01-.695.124-1.165.593-1.41 1.412-.737 1.021-1.391.837-1.963-.552-.654-2.046-1.269-4.356-1.84-6.932-.164-.818.143-1.165.92-1.042.939.081 1.88.143 2.821.184.654 0 .982-.409.982-1.227 0-.817-.41-1.104-1.227-.859-1.514.491-3.231.941-5.152 1.349-.614.124-.92.532-.92 1.227l.245 4.662c0 .368-.267.756-.798 1.165-1.309.695-3.148.941-5.519.737-1.269-.206-1.759-.901-1.473-2.086 0-.736-.409-1.104-1.227-1.104-.858 0-1.288.408-1.288 1.227 0 .817-.041 1.328-.123 1.533-.45.859-1.288 1.37-2.514 1.533-1.064.205-2.373.225-3.925.062-.574-.041-1.003-.369-1.288-.982-.042-.613-.042-1.226 0-1.84l.245-5.459v-9.261c-.041-1.88-.185-3.701-.43-5.459-.123-.818.225-1.145 1.043-.982 2.412.573 4.723 1.371 6.931 2.393.408.041.817.06 1.226.06.655 0 1.37-.367 2.148-1.103 1.226-1.105 2.146-1.677 2.76-1.718.286.041.797.246 1.533.613.94.532 1.942 1.228 3.006 2.086.817.736 1.226 1.206 1.226 1.41 0 .328.266.492.798.492h3.803c.653 0 .981-.328.981-.982v-2.269c0-.695-.328-1.043-.981-1.043-1.187 0-2.372.083-3.558.246-.777.122-1.391-.225-1.84-1.043l-.123-.245c-.491-.982-.328-1.412.49-1.288 1.554.245 3.231.388 5.031.428.653 0 .981-.326.981-.981v-1.595c0-.694-.409-1.021-1.227-.981-1.104 0-2.229.042-3.373.123-.737.041-1.187 0-1.35-.123-.041.328-.184.593-.429.797-.123.082-.593.123-1.411.123h-10.305c-1.716.042-3.456.144-5.213.307-.9.122-1.554-.204-1.962-.981-.164-.246-.287-.511-.369-.798-.368-.777-.144-1.124.675-1.043 1.635.205 3.271.349 4.907.43h4.048c.654 0 1.288-.388 1.902-1.165.326-.451.694-.879 1.103-1.289.737-.776 1.227-1.185 1.473-1.227.245 0 .53.102.858.308 1.35.899 2.494 1.839 3.435 2.821.531.49.654.49.368 0-.286-.531-.02-.757.798-.675 1.431.205 3.128.348 5.091.429.653 0 .981-.408.981-1.227 0-.613-.042-1.205-.123-1.778-.082-.653-.532-.92-1.349-.798l-.736.062c-1.186.041-2.005.021-2.454-.062-.368-.04-.695-.265-.981-.675-.041-.449-.041-.898 0-1.348.204-1.963.265-3.966.184-6.012 0-.653-.041-.96-.123-.92-.123.083-.593.123-1.411.123h-13.984c-1.391.041-2.782.123-4.171.245-.819.041-1.432-.326-1.84-1.103l-.245-.614c-.451-.899-.287-1.308.49-1.227 2.167.287 4.171.451 6.011.491h5.091c.654 0 1.288-.408 1.902-1.227" fill="#2e58be" transform="matrix(.999983 0 0 .999983 109.634720058 45.06144274)"/><path d="m0-55.038c0-.817.408-1.145 1.227-.981 2.657.49 5.07 1.043 7.237 1.656 1.227.327 2.045.613 2.454.858.408.205.572.43.49.675-.122.777-.695 1.227-1.717 1.35-.655.245-1.126.777-1.411 1.594-.45 1.145-1.022 2.392-1.718 3.742-.409.695-.306 1.043.307 1.043h2.516c.653 0 1.328-.409 2.023-1.227.818-1.023 1.718-2.045 2.699-3.067.982-.899 1.554-1.35 1.717-1.35.409.042.9.307 1.473.798 2.493 2.127 4.211 3.844 5.152 5.152.53.695.592 1.248.184 1.656-.164.164-.634.246-1.41.246h-3.251l-3.19-.062h-9.139c-.655 0-1.248.409-1.779 1.227-2.208 2.985-4.825 5.52-7.851 7.605-.736.491-1.309.594-1.717.307-.368-.285-.307-.899.183-1.84.9-1.676 1.616-3.291 2.147-4.846 1.922-5.192 3.046-10.038 3.374-14.536m-23.676 25.516c-.613 0-.92.347-.92 1.043v4.722c0 .655.326.982.982.982h8.464c.653 0 .981-.327.981-.982v-4.722c0-.696-.328-1.043-.981-1.043zm.062-7.912c-.656 0-.982.306-.982.919v4.048c0 .697.326 1.043.982 1.043h8.464c.653 0 .981-.327.981-.981v-4.048c0-.654-.328-.981-.981-.981zm-.123-17.727c-.123-.817.224-1.186 1.043-1.104 3.965.491 6.766.961 8.402 1.411.776.409 1.166.696 1.166.858.04.532-.409 1.003-1.35 1.411-.613.45-.92 1.003-.92 1.656v2.515c0 .654.307.981.92.981.654 0 1.288-.408 1.902-1.226.653-.776 1.349-1.574 2.086-2.393.326-.53.756-.837 1.288-.92 1.553.697 3.434 2.372 5.642 5.03.45.573.45 1.023 0 1.349-.123.123-.593.185-1.411.185h-9.507c-.654 0-.981.327-.981.981v3.803c0 .654.143.982.43.982.368.122.939-.205 1.716-.982 1.145-.981 1.963-1.554 2.455-1.718.326-.123.735-.02 1.226.307 2.493 1.432 4.048 2.617 4.661 3.558.368.654.185 1.226-.552 1.717-.695.614-1.042 1.247-1.042 1.902v7.605l.184 6.134c.204.49 0 1.022-.613 1.595-1.35.695-3.232.981-5.644.858-.94 0-1.493-.47-1.656-1.41-.041-.45-.245-.675-.613-.675-.409 0-.614.327-.614.982v4.784c0 .613.348.94 1.043.981.696.041 1.309-.286 1.84-.981.696-.9 1.473-1.799 2.331-2.699.818-.614 1.635-.695 2.453-.246 1.636 1.35 3.027 2.638 4.171 3.865.409.695.798.674 1.166-.062 2.248-4.579 5.581-9.936 9.997-16.07.532-.695.41-1.022-.367-.982-3.762.083-6.462.205-8.096.369-.819.083-1.412-.266-1.78-1.043l-.245-.614c-.45-.981-.286-1.43.491-1.349 2.985.368 6.399.552 10.244.552.653 0 1.389-.327 2.208-.981 1.185-.94 2.208-1.635 3.066-2.086.776-.49 1.779-.266 3.006.675 2.493 1.84 3.926 3.292 4.293 4.355.041.409-.144.778-.552 1.104-.818.409-1.636.798-2.453 1.166-.696.572-1.391 1.329-2.086 2.268-4.008 5.44-7.197 10.305-9.568 14.599-.451.899-.736 1.718-.859 2.453-.041.368.266.675.92.92 3.067.818 5.827.695 8.28-.367.9-.572 1.493-1.329 1.78-2.27.735-2.29 1.348-4.518 1.84-6.686.204-.899.591-1.308 1.165-1.227.572.042.837.471.797 1.288-.083 2.413.02 4.642.307 6.686.122.614.511 1.145 1.165 1.595.982.451 1.615 1.166 1.901 2.147.287 1.921-.409 3.496-2.085 4.723-1.186.817-2.801 1.43-4.845 1.84-4.008.572-8.158.592-12.451.061-1.718-.205-3.334-.675-4.846-1.411-2.004-1.186-3.088-2.678-3.251-4.478-.082-1.226.143-2.595.675-4.109.245-.613.02-.92-.675-.92h-9.875c-.654 0-.982.307-.982.92v4.478l.062 5.03c.245 1.143-.267 1.88-1.534 2.208-2.167.49-4.028.592-5.581.307-.409-.206-.737-.39-.982-.553-.164-.245-.245-.777-.245-1.595 0-1.84.081-3.741.245-5.704v-4.109c0-.654-.328-.982-.981-.982h-4.478c-1.186.041-2.372.123-3.557.245-.778.083-1.35-.346-1.718-1.288l-.184-.552c-.328-.817-.082-1.165.737-1.043 3.025.369 6.072.553 9.138.553.696 0 1.043-.327 1.043-.981v-4.784c0-.655-.183-.982-.551-.982-.41 0-.635.409-.675 1.227.122.941-.512 1.594-1.902 1.963-1.268.286-2.719.409-4.355.368-1.309-.082-1.861-.819-1.656-2.209.041-1.799.123-3.577.246-5.336v-11.47c-.041-1.431-.144-2.883-.307-4.354-.123-.777.266-1.083 1.165-.921l6.992 1.841c.696 0 1.043-.328 1.043-.982v-3.803c0-.654-.328-.981-.981-.981-2.699-.041-5.132.041-7.299.245-.941.082-1.595-.245-1.963-.981l-.245-.492c-.368-.98-.185-1.41.552-1.287 2.78.367 5.744.531 8.893.49.696 0 1.043-.327 1.043-.981v-3.128c-.082-1.185-.183-2.392-.306-3.619" fill="#00a3ff" transform="matrix(.999983 0 0 .999983 160.052862935 56.51124809)"/><path d="m0-5.296c-.613 0-.839.348-.675 1.043.818 3.311 2.188 6.645 4.11 9.998.408.654.859.572 1.349-.246 1.554-2.453 2.678-4.927 3.374-7.421.204-.654.102-1.002-.306-1.043-.41-.123-.778-.266-1.105-.43-.328-.326-.49-.714-.49-1.165 0-.491-.328-.736-.982-.736zm-4.784-10.427c-.654 0-.982.327-.982.982v6.501c0 .696.328 1.043.982 1.043h10.059c.654 0 .982-.328.982-.982v-6.562c0-.655-.328-.982-.982-.982zm0-9.876c-.654 0-.982.328-.982.982v5.888c0 .655.328.982.982.982h10.059c.654 0 .982-.327.982-.982v-5.888c0-.654-.328-.982-.982-.982zm-24.044 25.272c-.654 0-.982.306-.982.92v8.648c0 .695.328 1.042.982 1.042h2.146c.655 0 .982-.326.982-.98v-8.649c0-.654-.327-.981-.982-.981zm0-12.206c-.654 0-.982.327-.982.981v8.096c0 .655.328.981.982.981h2.146c.655 0 .982-.326.982-.981v-8.035c0-.695-.327-1.042-.982-1.042zm0-11.838c-.654 0-.982.327-.982.981v7.789c0 .697.328 1.043.982 1.043h2.146c.655 0 .982-.327.982-.981v-7.79c0-.695-.327-1.042-.982-1.042zm37.845-6.134c.531-.45 1.083-.511 1.656-.185 1.39.574 3.005 1.637 4.846 3.19 1.143 1.064 1.103 1.943-.123 2.638-.696.736-1.043 1.431-1.043 2.086v10.549l.306 7.299c-.122.49-.347.88-.674 1.165-.941.573-2.352.86-4.232.86-.736 0-.675.205.184.613 2.331 1.186 4.355 2.31 6.072 3.373 1.349.736 1.677 1.473.981 2.208-.286.164-.757.246-1.41.246-.614-.041-1.064.082-1.35.367-2.821 2.046-5.5 3.496-8.035 4.356-.654.164-.654.654 0 1.471 3.149 2.986 6.502 4.908 10.059 5.766.94.082 1.411.389 1.411.92-.123.572-.307.899-.552.981-1.309.655-2.106 1.902-2.392 3.743-.082.817-.205 1.634-.368 2.453-.123 1.185-.675 1.675-1.656 1.471-1.841-.49-3.844-1.922-6.011-4.293-3.844-4.254-6.501-9.118-7.974-14.598-.941-3.353-1.513-6.808-1.717-10.366-.042-.695-.513-1.042-1.411-1.042-.9 0-1.35.328-1.35.981v17.665c0 .654.409.961 1.227.92 1.677-.123 3.271-.307 4.784-.552.776-.123 1.228.061 1.35.552.082.49-.245 1.063-.982 1.717-4.498 3.475-9.138 5.705-13.923 6.686-.613.162-1.043.654-1.288 1.472-.409 1.267-.962 1.513-1.656.736-.941-2.495-1.84-5.419-2.699-8.771-.164-.695-.654-.92-1.472-.675-.736.123-1.472.185-2.208.185-1.268.122-2.168-.042-2.699-.492-.409-.449-.552-1.043-.429-1.778 0-.695-.328-1.043-.981-1.043h-2.148c-.654 0-.981.307-.981.92v3.251c0 .817-.041 1.328-.122 1.533-.328.491-.798.838-1.411 1.043-1.472.408-3.047.572-4.723.49-.491-.041-.9-.143-1.227-.306-.573-.45-.777-.941-.613-1.472.162-5.929.245-12.431.245-19.505v-21.039c-.041-1.88-.164-3.557-.368-5.029-.123-.777.266-1.063 1.165-.859 2.29.532 4.682 1.248 7.177 2.147h2.699c.613 0 1.328-.388 2.147-1.165l1.226-1.043c1.063-1.145 2.086-1.247 3.067-.307.94.532 2.147 1.37 3.619 2.515 1.43.9 1.553 1.82.368 2.761-1.105.818-1.533 1.615-1.288 2.391v24.964l.245 8.342c.204 1.145.123 1.923-.245 2.331-.123.164.204.267.981.307l1.963.061c.653 0 .982-.327.982-.981v-37.232c-.041-2.167-.164-4.048-.369-5.642-.082-.819.266-1.145 1.043-.982 2.577.695 5.213 1.513 7.913 2.453h10.304c.654 0 1.308-.327 1.963-.981.694-.694 1.41-1.309 2.147-1.84" fill="#00a3ff" transform="matrix(.999983 0 0 .999983 227.889709689 32.28166)"/><path d="m0-29.706c.736-.245 1.533.082 2.393.981 2.821 2.332 4.375 4.11 4.661 5.336.04.287-.123.533-.491.737-.083.041-.532.061-1.349.061h-11.163c-.655 0-.982.327-.982.982v11.408c0 .654.429.981 1.288.981s1.553-.408 2.085-1.226c.982-1.595 1.799-2.719 2.454-3.374.531-.285 1.042-.224 1.534.184 1.185 1.064 2.431 2.27 3.741 3.618l.981 1.228c.573 1.309.102 1.86-1.411 1.655h-9.752c-.655 0-.981.328-.981.982v13.985c0 .653.326.982.981.982h1.104c.654 0 1.267-.41 1.841-1.228.898-1.349 1.839-2.556 2.821-3.618.49-.736 1.083-.798 1.778-.185 1.554 1.064 3.313 2.761 5.276 5.091.326.572.49.982.49 1.228 0 .326-.144.572-.429.735-.164.082-.655.123-1.473.123h-35.084l-4.477.245c-.941.082-1.637-.245-2.086-.981l-.245-.491c-.491-.981-.348-1.431.43-1.349 2.534.245 4.988.388 7.36.43.653 0 .981-.329.981-.982v-15.15c-.042-2.248-.206-4.375-.491-6.379-.123-.818.225-1.206 1.043-1.165 4.171.327 7.115.818 8.832 1.471 1.022.737.838 1.412-.552 2.025-.654.45-.981 1.002-.981 1.655v17.543c0 .653.327.982.981.982h2.7c.653 0 .98-.329.98-.982v-29.381c0-.694-.327-1.042-.98-1.042h-6.441c-1.923.082-3.701.205-5.337.368-.858.082-1.471-.307-1.84-1.166l-.306-.613c-.409-.898-.226-1.308.552-1.226 2.78.286 5.52.47 8.219.551h16.622c.654 0 1.247-.408 1.779-1.226.981-1.554 1.963-2.822 2.944-3.803m-23.982-13.924h3.925c1.88.042 3.496.307 4.845.798 3.108 1.227 4.233 3.333 3.374 6.317-.123.41-.348.859-.675 1.35-.49.45-.328.695.492.736l5.826.061c.817 0 1.512-.408 2.086-1.227.898-1.185 1.86-2.391 2.882-3.618.654-.859 1.248-1.125 1.779-.798 1.636 1.023 3.864 3.067 6.685 6.134.614 1.35.163 1.901-1.348 1.656h-36.373c-.655 0-.982.327-.982.982v13.678c-.122 5.561-.839 10.672-2.146 15.334-1.963 6.174-6.011 11.387-12.145 15.64-.777.45-1.371.511-1.779.185-.409-.328-.307-.901.307-1.718 2.002-2.821 3.516-5.971 4.539-9.445 1.185-3.64 2.002-7.463 2.454-11.471.04-.653-.164-.572-.615.246-.858 1.595-1.88 3.088-3.066 4.478-.858.654-1.248 1.267-1.165 1.839.122 1.187-.287 1.8-1.227 1.84-.532-.327-.981-1.144-1.349-2.453-.778-2.208-1.533-4.416-2.27-6.625-.245-.817.04-1.266.859-1.349 2.535-.163 5.233-.817 8.096-1.962.654-.287.982-.757.982-1.412v-5.704c0-.613-.103-.531-.307.245-.941 2.046-2.556 2.924-4.846 2.638-1.145-.123-1.942-.838-2.392-2.146-.245-.737-.307-1.677-.184-2.822.245-1.88-.225-3.905-1.411-6.073-.531-.817-.654-1.369-.368-1.655s.838-.327 1.656-.123c1.718.49 3.333 1.248 4.846 2.269 1.595 1.187 2.556 2.679 2.883 4.478.082.695.123.736.123.123v-4.846c-.083-3.352-.226-5.867-.43-7.545-.164-.981.123-1.389.858-1.226 2.74.573 5.623 1.329 8.649 2.269h9.936c.655 0 .716-.408.185-1.226-.45-1.922-1.329-3.536-2.638-4.846-.409-.408-.797-.736-1.165-.981-.859-.45-1.207-.879-1.043-1.289.123-.408.593-.633 1.411-.674.082 0 .163-.02.246-.062" fill="#00a3ff" transform="matrix(.999983 0 0 .999983 301.001466768 43.63146705)"/><path d="m0 17.623c-.246 0-.512.328-.798.981-.981 2.864-2.883 5.869-5.704 9.017-.654.653-.552 1.043.307 1.165.898.123 1.799.225 2.699.307.613 0 1.021-.061 1.226-.184.45-.286.777-.757.982-1.411.939-2.984 1.492-5.928 1.655-8.832 0-.695-.122-1.043-.367-1.043m-15.825-17.972c-.613 0-.92.349-.92 1.043v2.147c0 .696.327 1.043.981 1.043h10.12c.696 0 1.043-.327 1.043-.982v-2.208c0-.694-.328-1.043-.981-1.043zm.061-5.704c-.654 0-.981.328-.981.982v1.656c0 .695.327 1.043.981 1.043h10.12c.696 0 1.043-.327 1.043-.982v-1.656c0-.695-.328-1.043-.981-1.043zm-8.28-13.003c.122-.776.592-1.083 1.41-.92 3.353.614 5.97 1.247 7.852 1.902.939.531 1.43.92 1.471 1.165.04.409-.266.695-.919.858-.287.083-.574.145-.859.185-.613.164-1.084.551-1.411 1.165-.368.654-.226.981.43.981h11.96c.654 0 1.308-.408 1.963-1.226.736-.941 1.534-1.881 2.392-2.822.899-.817 1.451-1.206 1.656-1.166.45.083.96.39 1.534.92 2.248 1.882 3.802 3.477 4.661 4.784.286.452.265.88-.061 1.289-.287.287-.839.368-1.656.246h-23.86c-.655 0-1.248.409-1.779 1.226l-.184.307c-.532.695-.389 1.145.429 1.349.737.206 1.493.451 2.27.736h10.795c.613 0 1.308-.408 2.086-1.227.49-.53 1.001-1.083 1.533-1.656.776-.858 2.003-.653 3.68.613.613.328 1.411.86 2.392 1.596.899.613 1.39 1.268 1.472 1.962-.041.532-.429.981-1.165 1.35-.613.532-.92 1.104-.92 1.717v3.741l.061 4.785c.04.696.205.9.491.613.449-.368 1.083-.347 1.901.061 1.309 1.023 2.761 2.454 4.356 4.294.571.491.613 1.064.122 1.717-.164.164-.634.246-1.411.246h-21.774c-.655 0-1.207.389-1.656 1.165-.409.737-.819 1.329-1.227 1.779-.573.655-.512.981.184.981h15.027c.653 0 1.35-.408 2.086-1.226.653-.695 1.328-1.35 2.024-1.963.45-.491 1.063-.511 1.84-.062 1.144.655 2.351 1.514 3.619 2.576.817.615 1.308 1.207 1.472 1.78.245.736-.021 1.248-.798 1.533-.532.245-1.002.635-1.41 1.165-.164.328-.266.839-.307 1.534-.287 3.476-.859 6.705-1.717 9.69-.778 3.068-2.536 5.132-5.276 6.196-1.594.531-2.985.653-4.171.368-.818-.409-1.084-1.146-.796-2.208.04-1.064-.164-1.882-.614-2.454-.573-.819-1.329-1.472-2.269-1.962-.942-.368-1.371-.655-1.288-.859.04-.287-.328-.103-1.105.552-3.557 2.493-7.136 4.232-10.733 5.213-.819.246-1.371.163-1.656-.245-.329-.368-.062-.839.796-1.411 6.216-4.498 10.264-9.588 12.146-15.273.204-.653.204-.981 0-.981-.246 0-.614.39-1.105 1.166-2.044 3.599-5.173 6.768-9.384 9.507-3.395 2.085-6.829 3.536-10.305 4.354-.818.204-1.37.082-1.655-.368-.287-.45-.022-.899.797-1.348 1.553-.819 3.148-1.923 4.784-3.313 3.393-2.944 5.867-5.949 7.422-9.017.327-.653.368-.981.123-.981-.246 0-.697.307-1.35.92-3.026 2.904-6.604 5.071-10.734 6.502-.819.286-1.37.245-1.656-.123-.328-.326-.083-.837.736-1.533 4.211-3.353 7.033-6.952 8.465-10.795.285-.654.081-.982-.614-.982-2.086-.04-3.966.022-5.643.184-.9.083-1.554-.265-1.963-1.042l-.184-.553c-.49-.898-.347-1.307.43-1.226 2.657.287 5.356.45 8.096.491h7.36l14.354.122c.653 0 1.307-.408 1.962-1.227l.368-.49c.531-.613.388-.817-.429-.613-.982.245-2.291.327-3.926.245-.981-.082-1.555-.491-1.718-1.227 0-.246-.327-.368-.981-.368h-10.304c-.655 0-.981.225-.981.675.122.45 0 .88-.368 1.288-.614.49-1.432.777-2.454.858-.819.123-1.943.144-3.374.062-.573-.04-1.063-.307-1.471-.798-.123-.245-.185-.756-.185-1.533 0-1.88.04-3.781.123-5.704v-3.987c0-.695-.368-.633-1.104.184-1.023.899-2.004 1.656-2.945 2.27-.777.45-1.39.531-1.839.245-.41-.327-.287-.92.368-1.78 3.312-5.069 5.377-10.651 6.195-16.744m-12.759.245c.123-.94.532-1.328 1.228-1.165 3.147.736 5.826 1.472 8.035 2.208.939.574 1.431.961 1.472 1.165-.123.737-.675 1.146-1.657 1.227-.654.205-1.063.654-1.226 1.35-.982 3.271-2.086 6.277-3.313 9.016-.327.654-.143 1.104.553 1.35.817.327 1.186.757 1.104 1.288-.246.613-.614.981-1.104 1.103-.696.369-1.043.859-1.043 1.473v24.779l.368 10.182c.04.981-.491 1.615-1.594 1.902-2.455.614-4.499.695-6.134.245-.778-.409-1.065-1.022-.86-1.84.041-3.231.123-6.523.246-9.875v-18.339c0-.614-.429-.512-1.288.306-1.104 1.023-2.208 1.902-3.312 2.637-.777.573-1.31.635-1.595.185-.286-.368-.164-.982.368-1.84 5.521-8.914 8.772-18.033 9.752-27.357" fill="#2e58be" transform="matrix(.999983 0 0 .999983 361.049445935 20.22186502)"/><path d="m0 27.276c-.613 0-.92.327-.92.981v7.361c0 .653.326.981.981.981h21.467c.655 0 .982-.306.982-.921v-7.421c0-.654-.327-.981-.982-.981zm25.822-5.275c.777-.369 2.003.061 3.681 1.288 1.39.858 2.576 1.799 3.558 2.821.245.205.346.491.306.859.04.368-.368.819-1.227 1.349-.328.205-.655.471-.982.798-.122.164-.183.552-.183 1.165v3.681l.183 5.887c.163 1.145-.531 1.861-2.085 2.148-1.309.326-2.821.428-4.539.306-.736.04-1.37-.225-1.901-.798-.082-.122-.123-.613-.123-1.471 0-.859-.327-1.288-.982-1.288h-21.406c-.654 0-.981.327-.981.981.204 1.145-.307 1.902-1.534 2.27-1.471.368-3.271.51-5.397.428-1.105-.041-1.677-.531-1.718-1.471l.246-6.196v-6.562c-.042-1.718-.144-3.23-.306-4.539-.123-.777.306-1.043 1.288-.798 2.616.696 5.192 1.452 7.727 2.27h21.653c.653 0 1.389-.388 2.208-1.166.776-.736 1.615-1.389 2.514-1.962m-19.075-37.232h3.066c1.39.083 2.617.328 3.681.736 2.248 1.146 3.045 2.965 2.392 5.459-.368.655-.226.982.429.982h9.875c.654 0 1.39-.327 2.208-.982.818-.695 1.616-1.328 2.393-1.901.571-.531 1.186-.593 1.84-.184 1.349.614 2.964 1.595 4.846 2.944 1.266.859 1.941 1.575 2.023 2.147.041.327-.103.614-.429.859-.451.286-1.186.49-2.208.613-.573.041-.981.164-1.227.368-2.085 1.717-4.192 2.986-6.318 3.803-.654.286-.573.798.245 1.533l.553.552c.736.9 1.104 1.432 1.104 1.596-.286.818-.92 1.063-1.902.735l-1.103-.245c-.451-.245-.86-.307-1.228-.184-3.556.736-7.299 1.206-11.224 1.41-.696.041-1.042.39-1.042 1.043v2.331c0 .696.326 1.042.981 1.042h5.398c.653 0 1.307-.408 1.962-1.226 1.186-1.554 2.249-2.719 3.19-3.496.449-.245 1.062-.062 1.84.551 1.512 1.024 3.107 2.353 4.784 3.988.531.573.798 1.043.798 1.411.04.367-.103.634-.43.797-.164.041-.613.061-1.349.061h-16.193c-.696 0-1.043.327-1.043.982v3.496c0 .654.327.981.982.981h9.138c.655 0 1.288-.388 1.902-1.166 1.185-1.594 2.187-2.8 3.006-3.618.368-.368.776-.45 1.226-.245 1.554.94 3.169 2.106 4.846 3.496 1.226.982 1.963 1.84 2.208 2.576.04.367-.021.634-.184.797-.368.245-.962.328-1.779.245h-20.241c-.655 0-1.002.409-1.042 1.227v1.841c.163.695-.164 1.267-.982 1.716-1.349.41-3.17.574-5.459.492-.941-.04-1.616-.45-2.024-1.227 0-.981.02-1.963.061-2.944 0-.737-.286-1.105-.858-1.105h-14.23c-1.8.083-3.599.205-5.398.368-.777.083-1.391-.326-1.84-1.226l-.306-.613c-.452-.859-.288-1.247.49-1.165 2.78.286 5.52.45 8.219.49h12.942c.695 0 1.043-.307 1.043-.92v-3.496c0-.696-.328-1.043-.982-1.043h-8.71c-2.453.082-4.703.205-6.747.368-.818.082-1.431-.286-1.839-1.105l-.246-.613c-.491-.939-.348-1.369.429-1.288 2.616.287 5.97.471 10.06.553h5.336c.491.041 1.002.041 1.533 0 .818-.041 1.227-.389 1.227-1.043v-1.901c0-.655-.409-.982-1.227-.982h-5.091c-3.476-.082-6.339-.204-8.587-.368-.818-.081-1.288-.408-1.41-.982-.123-.613.224-.96 1.042-1.043 5.97-.49 10.734-1.124 14.292-1.901.653-.163.96-.653.92-1.472 0-1.389-.083-2.841-.245-4.355-.123-.776.223-1.124 1.042-1.042 4.171.531 7.094 1.103 8.771 1.717.368.164.592.306.675.429.326.574.062 1.064-.798 1.472-.735.409-1.103.758-1.103 1.043 0 .287.408.328 1.226.123 2.167-.572 4.192-1.37 6.073-2.392.817-.491 1.634-.429 2.453.184l1.226 1.042c.737.613 1.186.613 1.35 0 .245-1.185.388-2.186.43-3.005.04-.654-.267-.981-.92-.981h-32.877c-.655 0-.982.327-.982.981 0 1.759-.367 3.312-1.103 4.661-.328.819-1.003 1.555-2.025 2.208-1.676.86-3.373 1.065-5.091.614-1.799-.614-2.658-1.902-2.576-3.865.082-1.43.756-2.576 2.025-3.434.817-.368 1.634-.777 2.453-1.227 2.249-1.389 3.557-3.046 3.926-4.968.081-.818.408-1.227.981-1.227.531 0 .858.409.981 1.227l.246 2.085c.123.614.51.92 1.165.92h13.065c.653 0 .817-.387.49-1.165-.777-1.963-1.963-3.291-3.557-3.987-.819-.163-1.165-.449-1.043-.858.082-.409.531-.696 1.349-.859.86-.123 1.78-.204 2.761-.246" fill="#2e58be" transform="matrix(.999983 0 0 .999983 394.354879733 15.23194985)"/><path d="m0-3.599c-.532-.898-.594-1.492-.185-1.778.492-.286 1.124-.163 1.902.368 4.457 3.434 7.913 7.504 10.366 12.205 1.186 2.168 1.431 4.355.736 6.563-.532 1.595-1.677 2.515-3.435 2.76-1.8.287-3.19-.552-4.171-2.514-.613-1.512-1.023-3.128-1.227-4.846-.531-4.497-1.861-8.75-3.986-12.758m-18.831-25.639c.163-.94.634-1.328 1.411-1.165 2.861.614 5.295 1.227 7.299 1.84.981.368 1.738.777 2.269 1.227.246.9-.286 1.431-1.594 1.594-.655.246-1.165.778-1.533 1.595-.942 2.25-1.902 4.152-2.883 5.704-.409.615-.286.921.368.921h14.721c.653 0 1.185-.143 1.594-.43 1.513-1.389 2.719-2.309 3.619-2.759.45-.246 1.063-.082 1.84.49l1.043.798c2.412 2.208 3.884 3.925 4.416 5.151.245.696-.123 1.105-1.104 1.228-.327.082-.655.102-.982.06-.695 0-1.186.123-1.471.368-2.822 2.127-5.336 3.763-7.545 4.908-.819.409-1.391.47-1.717.183-.328-.285-.348-.817-.062-1.595.573-1.511 1.002-3.25 1.288-5.212.124-.696-.123-1.043-.736-1.043h-2.76c-.654 0-.981.328-.981.981v34.103c-.041 1.798-.941 3.374-2.699 4.723-2.126 1.308-4.151 2.044-6.073 2.208-1.226.204-1.901-.429-2.023-1.901-.246-1.269-.696-2.475-1.35-3.619-.573-.901-1.738-1.574-3.496-2.025-.818-.205-1.226-.592-1.226-1.165.04-.654.449-.941 1.226-.858 1.472.204 3.413.245 5.827.122.654-.122 1.022-.225 1.104-.307.082-.122.123-.51.123-1.165l.062-4.722v-3.681l.06-3.68v-17.726c.041-.818-.266-1.227-.92-1.227h-3.128c-.654 0-1.267.409-1.84 1.227-1.839 2.821-4.682 5.664-8.526 8.525-.94.573-1.574.736-1.901.491-.41-.368-.389-.94.061-1.717 4.294-7.361 7.033-14.844 8.219-22.45m-3.741 23.861c.04-.941.449-1.329 1.226-1.166 3.353.696 6.216 1.472 8.588 2.331.859.573 1.288 1.003 1.288 1.288-.123.736-.655 1.125-1.595 1.165-.655.205-1.125.716-1.411 1.534-.981 3.189-2.413 6.297-4.294 9.323-1.839 3.027-4.129 5.5-6.869 7.421-.818.572-1.431.715-1.84.43-.328-.204-.307-.756.061-1.656 2.739-6.788 4.356-13.678 4.846-20.67m-9.446-23.861c.205-.981.695-1.389 1.472-1.226 2.739.532 5.561 1.288 8.465 2.269.735.533 1.103.9 1.103 1.104-.041.736-.634 1.145-1.778 1.227-.573.122-.9.368-.981.736-1.35 3.557-2.822 6.563-4.416 9.016-.451.655-.267 1.146.551 1.473.491.205.838.45 1.043.735.368.533.143 1.023-.674 1.473-.819.49-1.227 1.042-1.227 1.656v27.172c.122 2.453.184 4.927.184 7.422 0 .817-.041 1.328-.123 1.533-.328.53-.797.879-1.411 1.043-1.064.285-2.291.469-3.68.552-1.146.081-2.085-.083-2.822-.491-.45-.409-.592-1.023-.429-1.84 0-2.494.041-5.051.123-7.667v-20.732c0-.654-.389-.613-1.165.122-1.146 1.105-2.353 2.025-3.619 2.761-.819.531-1.411.614-1.78.245-.327-.408-.245-1.021.246-1.84 3.639-5.806 6.665-12.288 9.078-19.444.776-2.125 1.389-4.558 1.84-7.299" fill="#2e58be" transform="matrix(.999983 0 0 .999983 483.102371 30.89168363)"/><path d="m0-10.058c.368-.327.961-.348 1.779-.062 1.758.819 3.373 1.881 4.846 3.19 2.576 2.29 3.843 4.744 3.803 7.36-.083 2.085-.942 3.599-2.576 4.539-1.269.41-2.496.512-3.681.307-.818-.245-1.472-.899-1.963-1.963-.245-.94-.348-2.105-.307-3.496.287-2.78-.205-5.499-1.471-8.158-.574-.818-.716-1.39-.43-1.717m-20.731 7.237c-.614 0-.92.328-.92.982v16.07c0 .694.326 1.043.981 1.043h5.766c.694 0 1.043-.328 1.043-.981v-16.132c0-.654-.328-.982-.982-.982zm0-16.928c-.614 0-.92.347-.92 1.043v12.819c0 .654.326.981.981.981h5.766c.694 0 1.043-.327 1.043-.981v-12.819c0-.696-.328-1.043-.982-1.043zm19.996-13.004c.04-.818.449-1.144 1.226-.981 3.558.736 6.808 1.717 9.752 2.944.491.287.613.655.368 1.104-.245.573-.818.899-1.716.982-.656.164-1.105.654-1.35 1.471-.368 1.391-.88 2.966-1.533 4.724-.246.695-.042 1.042.613 1.042h6.869c.653 0 1.39-.408 2.208-1.227l1.227-1.226c1.022-1.309 2.045-1.616 3.067-.92 1.799 1.226 3.414 2.536 4.846 3.926.939 1.103.653 1.983-.86 2.636-.818.614-1.226 1.227-1.226 1.841 0 9.978-.777 19.464-2.33 28.46-.491 2.739-1.391 5.172-2.699 7.299-1.268 1.799-2.802 3.046-4.601 3.741-.695.246-1.513.45-2.453.613-1.187.163-2.086.021-2.699-.428-.287-.205-.451-.594-.491-1.166-.041-.819-.123-1.636-.245-2.453-.287-1.105-.696-1.923-1.226-2.454-1.105-.818-2.516-1.594-4.233-2.331-.777-.286-1.125-.696-1.043-1.226.163-.531.654-.737 1.472-.614 2.699.41 5.254.574 7.667.491 1.145-.245 1.841-.756 2.086-1.533.531-1.472.92-3.087 1.165-4.846 1.021-7.851 1.656-16.336 1.901-25.454 0-.655-.409-1.002-1.226-1.043h-7.667c-.819-.04-1.41.347-1.779 1.165-1.758 4.131-4.662 8.137-8.709 12.022-.778.696-1.269.941-1.473.736-.245-.246-.367-.04-.367.613v16.009l.183 8.158c.285.653-.041 1.328-.981 2.024-1.963.614-3.905.797-5.827.552-.655-.205-1.002-.613-1.042-1.227v-2.269c0-.696-.328-1.043-.982-1.043h-5.765c-.656 0-.982.327-.982.981v1.779c0 .818-.123 1.431-.368 1.841-.328.49-.92.796-1.779.92-1.391.368-2.904.469-4.538.306-1.105-.409-1.514-1.267-1.228-2.576 0-3.149.062-6.339.185-9.568v-29.258c-.041-1.595-.123-3.19-.245-4.784-.124-.899.223-1.227 1.042-.982 1.84.573 3.7 1.187 5.582 1.84.653.246 1.001-.04 1.043-.858 0-.573.04-1.165.122-1.779v-3.557c-.082-1.39-.184-2.781-.307-4.171-.122-.818.225-1.166 1.043-1.043 2.78.45 5.499 1.104 8.157 1.963.982.327 1.492.777 1.534 1.349-.246.736-.757 1.104-1.534 1.104-.654.083-1.144.471-1.472 1.166-.899 1.8-2.229 3.556-3.986 5.274-.696.655-.717.982-.061.982h3.251c.653 0 1.369-.409 2.146-1.227l.982-1.043c.898-.694 1.737-.92 2.514-.675 1.39.737 2.985 1.902 4.784 3.496.777.614 1.043 1.166.798 1.657-.083.123-.307.368-.675.736l-.613.49c-.655.574-.981 1.187-.981 1.841v8.342c0 .735.162.674.49-.185 3.025-8.341 4.682-16.499 4.969-24.473" fill="#2e58be" transform="matrix(.999983 0 0 .999983 534.2015023 33.9816311)"/><path d="m0-5.296c-.613 0-.839.348-.675 1.043.818 3.311 2.188 6.645 4.11 9.998.408.654.859.572 1.349-.246 1.554-2.453 2.678-4.927 3.374-7.421.204-.654.102-1.002-.306-1.043-.41-.123-.778-.266-1.105-.43-.328-.326-.49-.714-.49-1.165 0-.491-.328-.736-.982-.736zm-4.784-10.427c-.654 0-.982.327-.982.982v6.501c0 .696.328 1.043.982 1.043h10.059c.654 0 .982-.328.982-.982v-6.562c0-.655-.328-.982-.982-.982zm0-9.876c-.654 0-.982.328-.982.982v5.888c0 .655.328.982.982.982h10.059c.654 0 .982-.327.982-.982v-5.888c0-.654-.328-.982-.982-.982zm-24.044 25.272c-.654 0-.982.306-.982.92v8.648c0 .695.328 1.042.982 1.042h2.146c.655 0 .982-.326.982-.98v-8.649c0-.654-.327-.981-.982-.981zm0-12.206c-.654 0-.982.327-.982.981v8.096c0 .655.328.981.982.981h2.146c.655 0 .982-.326.982-.981v-8.035c0-.695-.327-1.042-.982-1.042zm0-11.838c-.654 0-.982.327-.982.981v7.789c0 .697.328 1.043.982 1.043h2.146c.655 0 .982-.327.982-.981v-7.79c0-.695-.327-1.042-.982-1.042zm37.845-6.134c.531-.45 1.083-.511 1.656-.185 1.39.574 3.005 1.637 4.846 3.19 1.143 1.064 1.103 1.943-.123 2.638-.696.736-1.043 1.431-1.043 2.086v10.549l.306 7.299c-.122.49-.347.88-.674 1.165-.941.573-2.352.86-4.232.86-.736 0-.675.205.184.613 2.331 1.186 4.355 2.31 6.072 3.373 1.349.736 1.677 1.473.981 2.208-.286.164-.757.246-1.41.246-.614-.041-1.064.082-1.35.367-2.821 2.046-5.5 3.496-8.035 4.356-.654.164-.654.654 0 1.471 3.149 2.986 6.502 4.908 10.059 5.766.94.082 1.411.389 1.411.92-.123.572-.307.899-.552.981-1.309.655-2.106 1.902-2.392 3.743-.082.817-.205 1.634-.368 2.453-.123 1.185-.675 1.675-1.656 1.471-1.841-.49-3.844-1.922-6.011-4.293-3.844-4.254-6.501-9.118-7.974-14.598-.941-3.353-1.513-6.808-1.717-10.366-.042-.695-.513-1.042-1.411-1.042-.9 0-1.35.328-1.35.981v17.665c0 .654.409.961 1.227.92 1.677-.123 3.271-.307 4.784-.552.776-.123 1.228.061 1.35.552.082.49-.245 1.063-.982 1.717-4.498 3.475-9.138 5.705-13.923 6.686-.613.162-1.043.654-1.288 1.472-.409 1.267-.962 1.513-1.656.736-.941-2.495-1.84-5.419-2.699-8.771-.164-.695-.654-.92-1.472-.675-.736.123-1.472.185-2.208.185-1.268.122-2.168-.042-2.699-.492-.409-.449-.552-1.043-.429-1.778 0-.695-.328-1.043-.981-1.043h-2.148c-.654 0-.981.307-.981.92v3.251c0 .817-.041 1.328-.122 1.533-.328.491-.798.838-1.411 1.043-1.472.408-3.047.572-4.723.49-.491-.041-.9-.143-1.227-.306-.573-.45-.777-.941-.613-1.472.162-5.929.245-12.431.245-19.505v-21.039c-.041-1.88-.164-3.557-.368-5.029-.123-.777.266-1.063 1.165-.859 2.29.532 4.682 1.248 7.177 2.147h2.699c.613 0 1.328-.388 2.147-1.165l1.226-1.043c1.063-1.145 2.086-1.247 3.067-.307.94.532 2.147 1.37 3.619 2.515 1.43.9 1.553 1.82.368 2.761-1.105.818-1.533 1.615-1.288 2.391v24.964l.245 8.342c.204 1.145.123 1.923-.245 2.331-.123.164.204.267.981.307l1.963.061c.653 0 .982-.327.982-.981v-37.232c-.041-2.167-.164-4.048-.369-5.642-.082-.819.266-1.145 1.043-.982 2.577.695 5.213 1.513 7.913 2.453h10.304c.654 0 1.308-.327 1.963-.981.694-.694 1.41-1.309 2.147-1.84" fill="#2e58be" transform="matrix(.999983 0 0 .999983 604.73030329 32.28166)"/></g></svg>