<?xml version="1.0" encoding="UTF-8" standalone="no"?>
<!DOCTYPE svg PUBLIC "-//W3C//DTD SVG 1.1//EN" "http://www.w3.org/Graphics/SVG/1.1/DTD/svg11.dtd">
<svg width="100%" height="100%" viewBox="0 0 322 69" version="1.1" xmlns="http://www.w3.org/2000/svg" xmlns:xlink="http://www.w3.org/1999/xlink" xml:space="preserve" xmlns:serif="http://www.serif.com/" style="fill-rule:evenodd;clip-rule:evenodd;stroke-linejoin:round;stroke-miterlimit:2;">
    <g transform="matrix(0.999908,0,0,0.999908,-800.292,-1267.82)">
        <g transform="matrix(1,0,0,1,928.659,1318.7)">
            <path d="M0,-23.98C0.316,-24.772 0.852,-24.95 1.604,-24.514C4.256,-23.049 6.574,-21.584 8.555,-20.119C9.387,-19.445 9.406,-18.89 8.613,-18.455C8.217,-18.336 7.643,-18.237 6.891,-18.158C6.178,-18.158 5.564,-17.821 5.049,-17.148C0.02,-10.692 -5.922,-6.692 -12.773,-5.148C-13.684,-4.949 -14.258,-5.048 -14.496,-5.445C-14.654,-5.92 -14.357,-6.415 -13.605,-6.93C-11.625,-8.395 -9.902,-9.979 -8.436,-11.682C-4.596,-15.722 -1.783,-19.822 0,-23.98M0.771,-7.108C1.049,-7.9 1.584,-8.079 2.377,-7.643C5.187,-6.137 7.545,-4.711 9.445,-3.366C10.555,-2.494 10.475,-1.821 9.207,-1.345C8.811,-1.227 8.396,-1.147 7.961,-1.108C7.326,-1.028 6.791,-0.692 6.355,-0.098C2.395,4.773 -2.16,8.713 -7.307,11.724C-10.951,13.823 -14.477,15.169 -17.883,15.763C-18.832,15.921 -19.426,15.802 -19.664,15.407C-19.863,15.011 -19.566,14.576 -18.773,14.1C-14.615,11.684 -10.754,8.436 -7.189,4.358C-3.625,0.437 -0.971,-3.385 0.771,-7.108M-23.467,0.496C-23.268,0.139 -22.773,0.001 -21.98,0.081C-19.209,0.437 -16.852,1.487 -14.912,3.229C-13.367,4.536 -12.734,6.101 -13.01,7.921C-13.01,9.308 -13.744,10.318 -15.209,10.952C-17.229,11.624 -18.754,11.208 -19.783,9.704C-20.061,9.229 -20.279,8.457 -20.436,7.387C-20.555,5.605 -21.09,4.041 -22.041,2.694C-22.16,2.497 -22.318,2.298 -22.516,2.1C-23.309,1.427 -23.625,0.892 -23.467,0.496M-25.129,-22.138C-25.725,-22.138 -25.822,-22.019 -25.426,-21.782C-24.041,-20.632 -23.703,-19.207 -24.416,-17.504C-24.773,-16.95 -24.635,-16.672 -24,-16.672L-19.842,-16.672C-19.209,-16.672 -18.635,-17.068 -18.119,-17.861L-16.99,-19.524C-16.477,-20.158 -16.615,-20.395 -17.406,-20.237C-19.07,-20.079 -20.299,-20.098 -21.09,-20.296C-21.803,-20.574 -22.16,-20.969 -22.16,-21.485C-22.16,-21.92 -22.477,-22.138 -23.109,-22.138L-25.129,-22.138ZM-32.496,-9.9C-33.131,-9.9 -33.447,-9.603 -33.447,-9.009L-33.447,-5.623C-33.447,-4.949 -33.15,-4.613 -32.555,-4.613L-23.941,-4.613C-23.309,-4.613 -22.99,-4.929 -22.99,-5.564L-22.99,-8.95C-22.99,-9.583 -23.309,-9.9 -23.941,-9.9L-32.496,-9.9ZM-33.566,-28.614C-34.199,-28.614 -34.516,-28.296 -34.516,-27.664L-34.516,-25.049C-34.516,-24.416 -34.199,-24.099 -33.566,-24.099L-23.17,-24.099C-22.496,-24.099 -22.16,-24.416 -22.16,-25.049L-22.16,-27.664C-22.16,-28.296 -22.477,-28.614 -23.109,-28.614L-33.566,-28.614ZM-33.566,-34.673C-34.199,-34.673 -34.516,-34.356 -34.516,-33.723L-34.516,-31.525C-34.516,-30.891 -34.199,-30.574 -33.566,-30.574L-23.17,-30.574C-22.496,-30.574 -22.16,-30.891 -22.16,-31.525L-22.16,-33.723C-22.16,-34.356 -22.477,-34.673 -23.109,-34.673L-33.566,-34.673ZM-32.496,-2.593C-33.09,-2.593 -33.408,-2.454 -33.447,-2.177C-33.684,-1.345 -34.219,-0.871 -35.051,-0.751C-36.119,-0.514 -37.15,-0.375 -38.141,-0.335C-38.854,-0.335 -38.793,-0.177 -37.961,0.139C-36.26,0.695 -34.674,1.328 -33.209,2.041C-32.141,2.477 -31.822,3.011 -32.258,3.645C-32.377,3.763 -32.754,3.922 -33.387,4.12C-34.021,4.16 -34.654,4.576 -35.289,5.368L-35.764,5.961C-36.398,6.713 -36.338,7.129 -35.586,7.208C-34.516,7.248 -33.447,7.248 -32.377,7.208C-32.18,7.248 -31.961,7.11 -31.725,6.793C-31.686,6.674 -31.664,6.298 -31.664,5.665L-31.664,-1.584C-31.664,-2.256 -31.941,-2.593 -32.496,-2.593M-21.447,-37.644C-20.021,-39.227 -18.932,-39.901 -18.18,-39.664C-16.318,-38.673 -14.576,-37.465 -12.951,-36.04C-12.16,-35.208 -12.297,-34.376 -13.367,-33.544C-14.16,-32.751 -14.535,-31.96 -14.496,-31.168C-14.496,-28.673 -14.457,-26.198 -14.377,-23.743C-14.338,-23.108 -13.922,-23.127 -13.129,-23.801C-10.002,-26.653 -7.229,-29.802 -4.812,-33.248C-3.545,-34.95 -2.555,-36.712 -1.842,-38.535C-1.525,-39.327 -0.951,-39.485 -0.119,-39.01C2.652,-37.544 4.949,-36.099 6.771,-34.673C7.168,-34.317 7.227,-33.94 6.951,-33.544C6.594,-33.069 5.861,-32.871 4.752,-32.951C4.119,-32.951 3.465,-32.554 2.791,-31.762C-1.961,-26.574 -7.031,-23.247 -12.416,-21.782C-13.209,-21.624 -13.723,-21.702 -13.961,-22.019C-14.16,-22.336 -14.258,-22.356 -14.258,-22.079C-14.338,-21.761 -14.436,-21.504 -14.555,-21.306C-14.754,-21.148 -14.457,-20.792 -13.664,-20.237C-12.199,-19.049 -10.912,-17.821 -9.803,-16.554C-9.129,-15.841 -9.051,-15.266 -9.564,-14.832C-9.764,-14.751 -10.258,-14.712 -11.051,-14.712L-17.764,-14.712C-18.437,-14.712 -18.377,-14.495 -17.584,-14.059C-16.793,-13.623 -16.002,-13.147 -15.209,-12.633C-13.902,-11.761 -13.307,-11.008 -13.426,-10.376C-13.506,-10.019 -13.764,-9.682 -14.199,-9.366C-14.873,-8.732 -15.209,-8.019 -15.209,-7.227L-14.971,-2.712C-14.893,-2.197 -15.17,-1.741 -15.803,-1.345C-17.309,-0.751 -19.129,-0.514 -21.268,-0.632C-21.783,-0.671 -22.18,-0.811 -22.457,-1.048C-22.932,-1.365 -23.109,-1.721 -22.99,-2.118C-22.99,-2.474 -23.131,-2.653 -23.406,-2.653C-23.725,-2.653 -23.883,-2.335 -23.883,-1.702L-23.883,8.753C-23.922,10.496 -24.477,12.081 -25.545,13.506C-26.971,15.011 -28.615,15.744 -30.477,15.705C-31.189,15.902 -31.883,15.842 -32.555,15.526C-32.793,15.407 -32.932,15.129 -32.971,14.694C-33.209,12.753 -33.902,11.168 -35.051,9.942C-35.486,9.545 -35.863,9.289 -36.18,9.169C-37.131,8.813 -37.586,8.516 -37.545,8.278C-37.545,8.041 -37.941,8.297 -38.734,9.05C-40.121,10.358 -41.725,11.427 -43.547,12.258C-44.338,12.615 -44.873,12.634 -45.15,12.318C-45.428,11.961 -45.348,11.387 -44.912,10.595C-42.854,7.15 -41.447,3.744 -40.695,0.377C-40.576,-0.256 -40.635,-0.632 -40.873,-0.751C-41.15,-0.91 -41.328,-1.207 -41.408,-1.643C-41.408,-2.395 -41.369,-3.147 -41.289,-3.9L-41.289,-9.366C-41.369,-10.711 -41.486,-11.84 -41.645,-12.751C-41.803,-13.503 -41.408,-13.782 -40.457,-13.584C-37.961,-13.069 -35.645,-12.534 -33.506,-11.98L-24.238,-11.98C-23.645,-11.98 -22.971,-12.376 -22.219,-13.167L-21.564,-13.821C-20.852,-14.416 -20.812,-14.712 -21.447,-14.712L-39.387,-14.712C-40.656,-14.672 -41.902,-14.593 -43.131,-14.475C-43.883,-14.395 -44.496,-14.792 -44.973,-15.663L-45.15,-16.138C-45.547,-16.89 -45.289,-17.208 -44.377,-17.088C-42.318,-16.89 -40.08,-16.751 -37.664,-16.672L-30.535,-16.672C-29.902,-16.672 -29.764,-17.068 -30.119,-17.861C-30.635,-19.207 -31.467,-20.158 -32.615,-20.712C-33.09,-20.871 -33.289,-21.128 -33.209,-21.485C-33.131,-21.801 -33.051,-21.999 -32.971,-22.079C-32.893,-22.118 -33.131,-22.138 -33.684,-22.138C-34.279,-22.138 -34.576,-21.98 -34.576,-21.663C-34.496,-20.792 -34.953,-20.178 -35.941,-19.822C-37.486,-19.306 -39.387,-19.247 -41.645,-19.643C-41.844,-19.762 -42.061,-19.919 -42.299,-20.119C-42.535,-20.395 -42.596,-20.911 -42.477,-21.663C-42.438,-23.287 -42.357,-24.89 -42.238,-26.475L-42.238,-33.425L-42.477,-37.584C-42.516,-38.495 -42.18,-38.871 -41.467,-38.713C-39.17,-38.079 -36.813,-37.406 -34.396,-36.693L-23.348,-36.693C-22.715,-36.693 -22.08,-37.009 -21.447,-37.644" style="fill:white;fill-rule:nonzero;"/>
        </g>
        <g transform="matrix(1,0,0,1,962.698,1293.25)">
            <path d="M0,26.953C-0.633,26.953 -0.949,27.27 -0.949,27.903L-0.949,34.14C-0.949,34.774 -0.633,35.092 0,35.092L17.941,35.092C18.574,35.092 18.893,34.794 18.893,34.2L18.893,27.903C18.893,27.27 18.596,26.953 18.002,26.953L0,26.953ZM0.061,17.566C-0.613,17.566 -0.949,17.884 -0.949,18.516L-0.949,23.923C-0.949,24.557 -0.633,24.873 0,24.873L17.941,24.873C18.574,24.873 18.893,24.557 18.893,23.923L18.893,18.576C18.893,17.903 18.596,17.566 18.002,17.566L0.061,17.566ZM21.506,13.289C22.18,12.576 22.873,12.378 23.586,12.695C25.131,13.329 26.693,14.239 28.279,15.428C29.941,16.577 29.98,17.666 28.398,18.695C27.645,19.369 27.27,20.022 27.27,20.655L27.27,26.358L27.566,39.25C27.686,39.685 27.545,40.061 27.15,40.379C25.566,41.249 23.408,41.586 20.674,41.389C19.287,41.308 18.693,40.596 18.893,39.25L18.893,38.121C18.893,37.487 18.596,37.171 18.002,37.171L0,37.171C-0.633,37.171 -0.949,37.547 -0.949,38.3C-0.949,39.091 -1.01,39.586 -1.127,39.784C-1.406,40.299 -1.861,40.655 -2.494,40.853C-3.92,41.171 -5.465,41.329 -7.129,41.329C-7.92,41.329 -8.555,41.171 -9.029,40.853C-9.504,40.458 -9.662,40.002 -9.504,39.487C-9.465,36.596 -9.385,33.666 -9.268,30.695L-9.268,20.655C-9.346,18.279 -9.484,16.101 -9.682,14.121C-9.762,13.369 -9.426,13.071 -8.672,13.229C-6.811,13.626 -4.119,14.398 -0.594,15.547L17.645,15.547C18.238,15.547 18.734,15.408 19.131,15.131L21.506,13.289ZM0.951,-14.157C3.883,-14.633 6.377,-14.612 8.438,-14.098C10.496,-13.741 11.861,-12.711 12.535,-11.009C12.971,-9.464 12.871,-8.117 12.238,-6.969C11.725,-6.335 11.783,-6.019 12.418,-6.019L19.248,-6.019C19.883,-6.019 20.535,-6.414 21.209,-7.207C22.555,-8.83 23.625,-10.038 24.418,-10.83C24.854,-11.306 25.25,-11.425 25.605,-11.187C26.832,-10.553 28.398,-9.346 30.299,-7.564C31.17,-6.811 31.863,-6.038 32.377,-5.246C32.615,-4.771 32.596,-4.394 32.318,-4.117C32.08,-3.919 31.566,-3.82 30.773,-3.82L17.17,-3.82C16.576,-3.82 16.654,-3.701 17.408,-3.464C20.576,-2.514 23.111,-1.642 25.012,-0.85C25.922,-0.375 26.396,-0.078 26.437,0.041C26.557,0.318 26.516,0.557 26.318,0.754C25.922,1.071 25.367,1.289 24.654,1.407C23.98,1.487 23.367,1.883 22.812,2.596C20.99,4.734 19.07,6.378 17.051,7.526C16.258,8.002 16.199,8.239 16.873,8.239L23.705,8.239C24.338,8.239 24.971,7.844 25.605,7.051C27.389,4.834 28.715,3.408 29.586,2.773C30.496,2.892 31.902,3.863 33.803,5.684C34.992,6.794 35.902,7.744 36.537,8.536C37.09,9.21 37.07,9.824 36.477,10.378C36.357,10.418 35.902,10.437 35.111,10.437L-11.881,10.437C-13.346,10.437 -14.813,10.497 -16.277,10.615C-17.109,10.734 -17.703,10.378 -18.059,9.546C-18.139,9.349 -18.217,9.15 -18.297,8.952C-18.693,8.042 -18.535,7.626 -17.822,7.705C-15.645,7.942 -13.268,8.12 -10.693,8.239L-2.436,8.239C-1.723,8.239 -1.584,8.1 -2.02,7.823C-2.771,6.992 -3.168,5.824 -3.207,4.318C-3.365,2.1 -4.098,0.181 -5.404,-1.444C-6.078,-2.117 -6.277,-2.611 -6,-2.93C-5.762,-3.246 -5.187,-3.404 -4.277,-3.404C-1.662,-3.324 0.693,-2.692 2.793,-1.504C4.1,-0.592 4.932,0.576 5.289,2.002C5.445,2.873 5.506,3.685 5.467,4.437C5.426,5.863 4.812,7.012 3.625,7.883C3.189,8.12 3.307,8.239 3.98,8.239L11.705,8.239C12.338,8.239 12.813,7.844 13.131,7.051C14.396,3.804 15.17,0.497 15.447,-2.87C15.447,-3.503 15.15,-3.82 14.557,-3.82L-6.771,-3.82C-8.633,-3.78 -10.494,-3.701 -12.355,-3.583C-13.307,-3.503 -13.959,-3.82 -14.316,-4.533L-14.791,-5.484C-15.109,-6.276 -14.832,-6.612 -13.959,-6.494C-11.545,-6.176 -9.068,-6.019 -6.533,-6.019L3.98,-6.019C4.615,-6.019 4.674,-6.414 4.16,-7.207L3.328,-9.524C2.891,-10.672 1.98,-11.582 0.596,-12.256C-0.158,-12.533 -0.494,-12.87 -0.414,-13.267C-0.297,-13.661 0.158,-13.959 0.951,-14.157" style="fill:white;fill-rule:nonzero;"/>
        </g>
        <g transform="matrix(1,0,0,1,1030.19,1300.54)">
            <path d="M0,12.356L0.355,12.296C3.246,12.257 5.762,12.733 7.9,13.722C9.484,14.673 10.375,16.04 10.574,17.822C10.771,19.96 9.939,21.525 8.078,22.515C5.068,23.545 3.207,22.476 2.494,19.307C1.979,17.248 0.93,15.564 -0.654,14.257C-1.406,13.862 -1.664,13.446 -1.426,13.009C-1.27,12.614 -0.793,12.396 0,12.356M6.178,-20.437C6.098,-21.229 6.455,-21.566 7.246,-21.447C10.178,-21.129 12.91,-20.654 15.445,-20.021C15.881,-19.862 16.217,-19.665 16.455,-19.427C16.652,-18.753 16.297,-18.278 15.387,-18.001C14.83,-17.565 14.555,-17.03 14.555,-16.397L14.555,-13.427C14.555,-12.792 14.891,-12.476 15.564,-12.476C16.236,-12.476 16.871,-12.872 17.465,-13.665C18.139,-14.615 18.91,-15.585 19.781,-16.576C20.377,-17.526 21.127,-17.545 22.039,-16.635C23.504,-15.407 25.049,-13.784 26.674,-11.763C26.949,-11.367 26.93,-10.97 26.613,-10.576C26.455,-10.456 25.98,-10.397 25.187,-10.397L15.445,-10.397C14.811,-10.397 14.494,-10.08 14.494,-9.447L14.494,-1.902C14.494,-1.268 14.811,-0.952 15.445,-0.952L17.525,-0.952C18.158,-0.952 18.791,-1.347 19.426,-2.139C20.574,-3.684 21.684,-4.97 22.752,-6C23.346,-6.199 24.078,-5.823 24.951,-4.873C26.258,-3.763 27.684,-2.318 29.229,-0.536C29.662,-0.02 29.682,0.455 29.287,0.89C29.168,1.049 28.713,1.128 27.92,1.128L0.297,1.128C-1.051,1.168 -2.396,1.227 -3.744,1.306C-4.654,1.386 -5.287,1.069 -5.645,0.356L-6.061,-0.357C-6.416,-1.149 -6.199,-1.525 -5.406,-1.486C-1.842,-1.129 1.801,-0.971 5.523,-1.01C6.156,-1.01 6.475,-1.328 6.475,-1.961L6.475,-9.447C6.475,-10.08 6.156,-10.397 5.523,-10.397C3.623,-10.357 1.701,-10.297 -0.238,-10.219C-1.189,-10.139 -1.842,-10.456 -2.199,-11.169L-2.436,-11.645C-2.912,-12.595 -2.754,-13.05 -1.961,-13.011C1.246,-12.694 3.742,-12.515 5.523,-12.476C6.156,-12.476 6.475,-12.792 6.475,-13.427C6.514,-15.803 6.416,-18.139 6.178,-20.437M-15.447,-12.12C-15.725,-11.961 -15.941,-11.605 -16.1,-11.05C-16.418,-9.624 -16.793,-8.139 -17.229,-6.595C-17.387,-5.921 -17.131,-5.585 -16.457,-5.585C-15.705,-5.585 -15.328,-5.902 -15.328,-6.536L-15.328,-11.229C-15.328,-11.862 -15.367,-12.159 -15.447,-12.12M-15.744,-20.734C-15.783,-21.486 -15.408,-21.803 -14.615,-21.684C-10.773,-21.129 -7.842,-20.497 -5.822,-19.784C-5.309,-19.665 -5.131,-19.368 -5.287,-18.892C-5.367,-18.536 -5.703,-18.218 -6.299,-17.942C-6.893,-17.426 -7.189,-16.852 -7.189,-16.219L-7.189,-7.545C-7.189,-6.872 -6.992,-6.952 -6.596,-7.783L-5.525,-9.506C-4.971,-10.297 -4.615,-10.713 -4.457,-10.753C-4.141,-10.753 -3.664,-10.397 -3.031,-9.684C-1.764,-8.258 -0.557,-6.693 0.594,-4.991C0.869,-4.594 0.791,-4.199 0.355,-3.803C0.197,-3.684 -0.277,-3.624 -1.07,-3.624L-6.357,-3.624C-6.992,-3.624 -7.309,-3.328 -7.309,-2.734L-7.309,5.406C-7.309,6.04 -6.912,6.257 -6.119,6.059C-4.574,5.703 -2.832,5.168 -0.893,4.455C-0.141,4.138 0.375,4.198 0.652,4.633C0.771,5.069 0.436,5.604 -0.357,6.237L-2.674,8.019C-3.268,8.495 -3.189,8.772 -2.436,8.851C-0.219,9.049 2.02,9.168 4.277,9.208L12.771,9.208C13.404,9.208 13.723,8.911 13.723,8.316C13.762,6.653 13.682,4.712 13.484,2.495C13.404,1.703 13.762,1.366 14.555,1.485C17.326,1.762 19.939,2.237 22.396,2.911C23.109,3.267 23.445,3.604 23.406,3.92C23.326,4.277 23.109,4.535 22.752,4.693C22.553,4.772 22.336,4.891 22.1,5.049C21.9,5.287 21.803,5.703 21.803,6.296L21.803,8.316C21.803,9.109 22.02,9.049 22.455,8.138C23.01,7.149 23.584,6.177 24.178,5.227C24.852,4.395 25.268,3.98 25.426,3.98C25.9,4.019 26.514,4.574 27.268,5.643C28.494,7.149 29.365,8.336 29.881,9.208C30.395,9.801 30.535,10.336 30.297,10.811C30.02,11.327 29.426,11.485 28.516,11.287L22.752,11.287C22.119,11.287 21.803,11.604 21.803,12.237L21.803,26.554C21.684,28.693 20.93,30.356 19.545,31.544C17.207,32.97 14.93,33.762 12.713,33.92C11.563,34.159 10.891,33.683 10.693,32.495L10.277,30.178C10.078,29.029 9.721,28.237 9.207,27.802C8.375,27.128 7.227,26.554 5.762,26.079C5.01,25.841 4.652,25.405 4.693,24.772C4.73,24.258 5.207,24.04 6.119,24.119C8.414,24.317 10.434,24.436 12.178,24.475C12.771,24.554 13.227,24.475 13.545,24.238C13.861,23.802 13.961,23.248 13.842,22.574L13.842,12.237C13.842,11.604 13.445,11.287 12.652,11.287L5.168,11.287C2.791,11.367 0.416,11.465 -1.961,11.584C-2.754,11.624 -3.367,11.248 -3.803,10.455C-4.199,9.664 -4.793,9.504 -5.586,9.98C-5.783,10.138 -5.98,10.257 -6.18,10.336C-6.932,10.811 -7.309,11.367 -7.309,12L-7.309,24.119L-7.129,31.604C-6.973,32.514 -7.447,33.168 -8.555,33.564C-10.061,33.92 -11.844,34.059 -13.902,33.98C-15.367,33.822 -15.941,33.069 -15.625,31.723C-15.625,28.911 -15.547,26.059 -15.387,23.169L-15.387,15.743C-15.387,15.109 -15.803,14.97 -16.635,15.327L-18.832,16.158C-19.467,16.396 -19.805,16.911 -19.844,17.703C-19.883,18.614 -20.279,19.128 -21.031,19.248C-21.27,19.209 -21.506,19.03 -21.744,18.712C-22.893,16.614 -24.061,13.782 -25.248,10.217C-25.527,9.385 -25.27,8.951 -24.477,8.911C-21.031,8.672 -18.318,8.376 -16.338,8.019C-15.705,7.862 -15.387,7.465 -15.387,6.832L-15.387,-2.674C-15.387,-3.307 -15.705,-3.624 -16.338,-3.624L-17.348,-3.624C-17.982,-3.624 -18.457,-3.248 -18.773,-2.496C-19.645,-0.12 -21.012,2.237 -22.873,4.574C-23.666,5.485 -24.219,5.88 -24.535,5.762C-24.932,5.564 -25.051,5.088 -24.893,4.336C-23.467,-2.119 -22.873,-8.575 -23.109,-15.031C-23.15,-15.823 -22.793,-16.16 -22.041,-16.04C-20.576,-15.763 -18.715,-15.367 -16.457,-14.853C-15.824,-14.654 -15.506,-14.951 -15.506,-15.744C-15.547,-17.367 -15.625,-19.031 -15.744,-20.734" style="fill:white;fill-rule:nonzero;"/>
        </g>
        <g transform="matrix(1,0,0,1,1099.69,1323.85)">
            <path d="M0,-34.24C-0.635,-34.24 -0.951,-33.922 -0.951,-33.289L-0.951,-30.734C-0.951,-30.1 -0.635,-29.784 0,-29.784L3.506,-29.784C4.139,-29.784 4.752,-30.179 5.346,-30.972C5.9,-31.764 6.535,-32.536 7.248,-33.289C7.801,-33.922 7.762,-34.24 7.129,-34.24L0,-34.24ZM0,-27.705C-0.674,-27.705 -1.01,-27.408 -1.01,-26.813L-1.01,-24.021C-1.01,-23.387 -0.693,-23.071 -0.059,-23.071L3.445,-23.071C4.078,-23.071 4.693,-23.467 5.287,-24.26C5.881,-25.051 6.555,-25.863 7.307,-26.695C7.98,-27.368 8,-27.705 7.367,-27.705L0,-27.705ZM-0.119,-21.17C-0.752,-21.17 -1.07,-20.852 -1.07,-20.219L-1.07,-17.249C-1.07,-16.615 -0.752,-16.299 -0.119,-16.299L8.08,-16.299C8.713,-16.299 9.307,-16.694 9.861,-17.487C10.494,-18.357 11.188,-19.249 11.941,-20.16C12.535,-20.833 12.535,-21.17 11.941,-21.17L-0.119,-21.17ZM-17.764,-21.052C-18.357,-21.052 -18.654,-20.734 -18.654,-20.1L-18.654,-17.071C-18.654,-16.397 -18.338,-16.061 -17.703,-16.061L-9.922,-16.061C-9.287,-16.061 -8.971,-16.378 -8.971,-17.011L-8.971,-20.1C-8.971,-20.734 -9.268,-21.052 -9.861,-21.052L-17.764,-21.052ZM-17.764,-27.645C-18.357,-27.645 -18.654,-27.328 -18.654,-26.695L-18.654,-23.962C-18.654,-23.328 -18.338,-23.011 -17.703,-23.011L-9.922,-23.011C-9.287,-23.011 -8.971,-23.328 -8.971,-23.962L-8.971,-26.695C-8.971,-27.328 -9.268,-27.645 -9.861,-27.645L-17.764,-27.645ZM-17.645,-34.18C-18.318,-34.18 -18.654,-33.884 -18.654,-33.289L-18.654,-30.676C-18.654,-30.041 -18.338,-29.724 -17.703,-29.724L-9.922,-29.724C-9.287,-29.724 -8.971,-30.041 -8.971,-30.676L-8.971,-33.229C-8.971,-33.863 -9.268,-34.18 -9.861,-34.18L-17.645,-34.18ZM-23.109,-44.161C-22.912,-44.952 -22.418,-45.269 -21.625,-45.111C-18.297,-44.398 -15.586,-43.645 -13.486,-42.853C-12.693,-42.418 -12.258,-42.082 -12.178,-41.844C-12.061,-41.289 -12.377,-40.953 -13.129,-40.834C-13.447,-40.834 -13.764,-40.794 -14.08,-40.715C-14.754,-40.556 -15.268,-40.1 -15.625,-39.348C-15.98,-38.715 -16.416,-38.061 -16.932,-37.388C-17.447,-36.755 -17.387,-36.437 -16.754,-36.437L-6.594,-36.437C-5.961,-36.437 -5.881,-36.833 -6.357,-37.626L-6.832,-39.943C-7.268,-41.369 -8.061,-42.497 -9.209,-43.329C-10,-43.804 -10.299,-44.2 -10.1,-44.517C-9.861,-44.913 -9.348,-45.131 -8.555,-45.171C-5.822,-45.131 -3.445,-44.715 -1.426,-43.923C0.475,-43.131 1.523,-41.844 1.723,-40.061C1.801,-38.952 1.504,-37.962 0.832,-37.092C0.197,-36.497 0.197,-36.2 0.832,-36.2L7.307,-36.2C7.939,-36.2 8.555,-36.595 9.148,-37.388C9.939,-38.418 10.832,-39.468 11.822,-40.537C12.535,-41.21 13.248,-41.17 13.961,-40.418C15.307,-39.427 16.891,-37.902 18.713,-35.844C19.148,-34.655 18.633,-34.121 17.168,-34.24L10.1,-34.24C9.426,-34.24 9.484,-33.962 10.277,-33.408C11.426,-32.536 12.633,-31.329 13.9,-29.784C14.652,-29.15 14.713,-28.497 14.08,-27.824C13.92,-27.744 13.445,-27.705 12.654,-27.705L9.803,-27.705C9.129,-27.705 9.188,-27.428 9.98,-26.873C11.326,-25.763 12.555,-24.616 13.664,-23.427C14.377,-22.834 14.594,-22.219 14.316,-21.586C14.158,-21.268 14.316,-20.952 14.793,-20.636C16.494,-19.17 18.02,-17.605 19.367,-15.942C19.842,-15.348 19.742,-14.813 19.07,-14.338C18.91,-14.259 18.475,-14.219 17.762,-14.219L-8.793,-14.219C-9.387,-14.219 -9.307,-14.16 -8.555,-14.041C-5.109,-13.566 -2.773,-13.15 -1.545,-12.794C-0.713,-12.318 -0.297,-12.001 -0.297,-11.843C-0.377,-11.407 -0.635,-11.091 -1.07,-10.892C-1.744,-10.378 -2.08,-9.803 -2.08,-9.17C-2.08,-8.496 -1.764,-8.16 -1.129,-8.16L8.793,-8.16C9.426,-8.16 10.039,-8.555 10.635,-9.347C11.584,-10.575 12.475,-11.585 13.307,-12.378C13.98,-13.051 14.555,-13.249 15.029,-12.971C16.693,-11.941 18.654,-10.338 20.912,-8.16C21.465,-7.526 21.506,-6.912 21.029,-6.318C20.912,-6.278 20.455,-6.259 19.664,-6.259L1.604,-6.259C0.891,-6.259 0.951,-5.981 1.781,-5.427C4.713,-3.803 7.861,-2.813 11.229,-2.457C12.93,-2.179 14.455,-2.02 15.803,-1.981L19.723,-1.981L20.674,-2.041C21.426,-2.12 21.803,-1.922 21.803,-1.447C21.762,-0.891 21.564,-0.555 21.209,-0.436C20.1,0.238 19.465,1.325 19.307,2.83L19.01,5.148C18.891,5.94 18.613,6.474 18.178,6.751C15.406,6.989 11.9,5.84 7.664,3.306C4.219,1.405 1.307,-1.367 -1.07,-5.011C-1.506,-5.803 -1.783,-6.199 -1.9,-6.199C-2.02,-6.159 -2.08,-5.822 -2.08,-5.189L-2.08,1.167L-1.783,9.009C-1.861,9.405 -2.16,9.761 -2.674,10.078C-4.852,10.83 -7.09,11.029 -9.387,10.672C-10.338,10.395 -10.713,9.682 -10.516,8.533C-10.318,3.741 -10.238,0.375 -10.277,-1.565C-10.277,-2.199 -10.674,-2.199 -11.465,-1.565C-14.199,0.811 -17.348,2.712 -20.912,4.138C-24.635,5.721 -28.477,6.811 -32.438,7.405C-33.229,7.524 -33.725,7.365 -33.922,6.93C-34.16,6.454 -33.883,6.077 -33.09,5.801C-27.467,3.385 -22.674,-0.278 -18.713,-5.189C-18.199,-5.862 -18.258,-6.199 -18.893,-6.199L-28.932,-6.199C-29.605,-6.159 -30.279,-6.1 -30.951,-6.021C-31.744,-5.941 -32.338,-6.298 -32.734,-7.091L-33.09,-7.863C-33.408,-8.576 -33.09,-8.873 -32.139,-8.754C-29.447,-8.397 -26.734,-8.199 -24,-8.16L-11.287,-8.16C-10.615,-8.16 -10.299,-8.555 -10.338,-9.347C-10.377,-10.655 -10.455,-11.981 -10.574,-13.328C-10.654,-13.923 -11.012,-14.219 -11.645,-14.219L-17.941,-14.219C-18.574,-14.219 -18.893,-14.001 -18.893,-13.566C-18.693,-12.813 -19.051,-12.259 -19.961,-11.902C-21.506,-11.506 -23.229,-11.368 -25.129,-11.486C-26.16,-11.447 -26.773,-11.902 -26.971,-12.853C-26.971,-15.149 -26.932,-17.487 -26.852,-19.863L-26.852,-26.576C-26.852,-27.209 -27.229,-27.268 -27.98,-26.755C-29.287,-25.883 -30.754,-25.11 -32.377,-24.437C-33.17,-24.16 -33.705,-24.2 -33.98,-24.556C-34.299,-24.952 -34.16,-25.467 -33.564,-26.1C-28.1,-32.121 -24.615,-38.14 -23.109,-44.161" style="fill:white;fill-rule:nonzero;"/>
        </g>
        <g transform="matrix(1,0,0,1,840.429,1296.82)">
            <path d="M0,15.802L-13.688,23.704L-13.688,-7.903L0,-0.001L13.686,7.9L0,15.802ZM-4.283,-23.879C-21.836,-23.879 -36.063,-9.651 -36.063,7.902C-36.063,25.452 -21.836,39.681 -4.283,39.681C13.268,39.681 27.496,25.452 27.496,7.902C27.496,-9.651 13.268,-23.879 -4.283,-23.879" style="fill:white;fill-rule:nonzero;"/>
        </g>
        <g transform="matrix(1,0,0,1,924.659,1313.7)">
            <path d="M0,-23.98C0.316,-24.772 0.852,-24.95 1.604,-24.514C4.256,-23.049 6.574,-21.584 8.555,-20.119C9.387,-19.445 9.406,-18.89 8.613,-18.455C8.217,-18.336 7.643,-18.237 6.891,-18.158C6.178,-18.158 5.564,-17.821 5.049,-17.148C0.02,-10.692 -5.922,-6.692 -12.773,-5.148C-13.684,-4.949 -14.258,-5.048 -14.496,-5.445C-14.654,-5.92 -14.357,-6.415 -13.605,-6.93C-11.625,-8.395 -9.902,-9.979 -8.436,-11.682C-4.596,-15.722 -1.783,-19.822 0,-23.98M0.771,-7.108C1.049,-7.9 1.584,-8.079 2.377,-7.643C5.187,-6.137 7.545,-4.711 9.445,-3.366C10.555,-2.494 10.475,-1.821 9.207,-1.345C8.811,-1.227 8.396,-1.147 7.961,-1.108C7.326,-1.028 6.791,-0.692 6.355,-0.098C2.395,4.773 -2.16,8.713 -7.307,11.724C-10.951,13.823 -14.477,15.169 -17.883,15.763C-18.832,15.921 -19.426,15.802 -19.664,15.407C-19.863,15.011 -19.566,14.576 -18.773,14.1C-14.615,11.684 -10.754,8.436 -7.189,4.358C-3.625,0.437 -0.971,-3.385 0.771,-7.108M-23.467,0.496C-23.268,0.139 -22.773,0.001 -21.98,0.081C-19.209,0.437 -16.852,1.487 -14.912,3.229C-13.367,4.536 -12.734,6.101 -13.01,7.921C-13.01,9.308 -13.744,10.318 -15.209,10.952C-17.229,11.624 -18.754,11.208 -19.783,9.704C-20.061,9.229 -20.279,8.457 -20.436,7.387C-20.555,5.605 -21.09,4.041 -22.041,2.694C-22.16,2.497 -22.318,2.298 -22.516,2.1C-23.309,1.427 -23.625,0.892 -23.467,0.496M-25.129,-22.138C-25.725,-22.138 -25.822,-22.019 -25.426,-21.782C-24.041,-20.632 -23.703,-19.207 -24.416,-17.504C-24.773,-16.95 -24.635,-16.672 -24,-16.672L-19.842,-16.672C-19.209,-16.672 -18.635,-17.068 -18.119,-17.861L-16.99,-19.524C-16.477,-20.158 -16.615,-20.395 -17.406,-20.237C-19.07,-20.079 -20.299,-20.098 -21.09,-20.296C-21.803,-20.574 -22.16,-20.969 -22.16,-21.485C-22.16,-21.92 -22.477,-22.138 -23.109,-22.138L-25.129,-22.138ZM-32.496,-9.9C-33.131,-9.9 -33.447,-9.603 -33.447,-9.009L-33.447,-5.623C-33.447,-4.949 -33.15,-4.613 -32.555,-4.613L-23.941,-4.613C-23.309,-4.613 -22.99,-4.929 -22.99,-5.564L-22.99,-8.95C-22.99,-9.583 -23.309,-9.9 -23.941,-9.9L-32.496,-9.9ZM-33.566,-28.614C-34.199,-28.614 -34.516,-28.296 -34.516,-27.664L-34.516,-25.049C-34.516,-24.416 -34.199,-24.099 -33.566,-24.099L-23.17,-24.099C-22.496,-24.099 -22.16,-24.416 -22.16,-25.049L-22.16,-27.664C-22.16,-28.296 -22.477,-28.614 -23.109,-28.614L-33.566,-28.614ZM-33.566,-34.673C-34.199,-34.673 -34.516,-34.356 -34.516,-33.723L-34.516,-31.525C-34.516,-30.891 -34.199,-30.574 -33.566,-30.574L-23.17,-30.574C-22.496,-30.574 -22.16,-30.891 -22.16,-31.525L-22.16,-33.723C-22.16,-34.356 -22.477,-34.673 -23.109,-34.673L-33.566,-34.673ZM-32.496,-2.593C-33.09,-2.593 -33.408,-2.454 -33.447,-2.177C-33.684,-1.345 -34.219,-0.871 -35.051,-0.751C-36.119,-0.514 -37.15,-0.375 -38.141,-0.335C-38.854,-0.335 -38.793,-0.177 -37.961,0.139C-36.26,0.695 -34.674,1.328 -33.209,2.041C-32.141,2.477 -31.822,3.011 -32.258,3.645C-32.377,3.763 -32.754,3.922 -33.387,4.12C-34.021,4.16 -34.654,4.576 -35.289,5.368L-35.764,5.961C-36.398,6.713 -36.338,7.129 -35.586,7.208C-34.516,7.248 -33.447,7.248 -32.377,7.208C-32.18,7.248 -31.961,7.11 -31.725,6.793C-31.686,6.674 -31.664,6.298 -31.664,5.665L-31.664,-1.584C-31.664,-2.256 -31.941,-2.593 -32.496,-2.593M-21.447,-37.644C-20.021,-39.227 -18.932,-39.901 -18.18,-39.664C-16.318,-38.673 -14.576,-37.465 -12.951,-36.04C-12.16,-35.208 -12.297,-34.376 -13.367,-33.544C-14.16,-32.751 -14.535,-31.96 -14.496,-31.168C-14.496,-28.673 -14.457,-26.198 -14.377,-23.743C-14.338,-23.108 -13.922,-23.127 -13.129,-23.801C-10.002,-26.653 -7.229,-29.802 -4.812,-33.248C-3.545,-34.95 -2.555,-36.712 -1.842,-38.535C-1.525,-39.327 -0.951,-39.485 -0.119,-39.01C2.652,-37.544 4.949,-36.099 6.771,-34.673C7.168,-34.317 7.227,-33.94 6.951,-33.544C6.594,-33.069 5.861,-32.871 4.752,-32.951C4.119,-32.951 3.465,-32.554 2.791,-31.762C-1.961,-26.574 -7.031,-23.247 -12.416,-21.782C-13.209,-21.624 -13.723,-21.702 -13.961,-22.019C-14.16,-22.336 -14.258,-22.356 -14.258,-22.079C-14.338,-21.761 -14.436,-21.504 -14.555,-21.306C-14.754,-21.148 -14.457,-20.792 -13.664,-20.237C-12.199,-19.049 -10.912,-17.821 -9.803,-16.554C-9.129,-15.841 -9.051,-15.266 -9.564,-14.832C-9.764,-14.751 -10.258,-14.712 -11.051,-14.712L-17.764,-14.712C-18.437,-14.712 -18.377,-14.495 -17.584,-14.059C-16.793,-13.623 -16.002,-13.147 -15.209,-12.633C-13.902,-11.761 -13.307,-11.008 -13.426,-10.376C-13.506,-10.019 -13.764,-9.682 -14.199,-9.366C-14.873,-8.732 -15.209,-8.019 -15.209,-7.227L-14.971,-2.712C-14.893,-2.197 -15.17,-1.741 -15.803,-1.345C-17.309,-0.751 -19.129,-0.514 -21.268,-0.632C-21.783,-0.671 -22.18,-0.811 -22.457,-1.048C-22.932,-1.365 -23.109,-1.721 -22.99,-2.118C-22.99,-2.474 -23.131,-2.653 -23.406,-2.653C-23.725,-2.653 -23.883,-2.335 -23.883,-1.702L-23.883,8.753C-23.922,10.496 -24.477,12.081 -25.545,13.506C-26.971,15.011 -28.615,15.744 -30.477,15.705C-31.189,15.902 -31.883,15.842 -32.555,15.526C-32.793,15.407 -32.932,15.129 -32.971,14.694C-33.209,12.753 -33.902,11.168 -35.051,9.942C-35.486,9.545 -35.863,9.289 -36.18,9.169C-37.131,8.813 -37.586,8.516 -37.545,8.278C-37.545,8.041 -37.941,8.297 -38.734,9.05C-40.121,10.358 -41.725,11.427 -43.547,12.258C-44.338,12.615 -44.873,12.634 -45.15,12.318C-45.428,11.961 -45.348,11.387 -44.912,10.595C-42.854,7.15 -41.447,3.744 -40.695,0.377C-40.576,-0.256 -40.635,-0.632 -40.873,-0.751C-41.15,-0.91 -41.328,-1.207 -41.408,-1.643C-41.408,-2.395 -41.369,-3.147 -41.289,-3.9L-41.289,-9.366C-41.369,-10.711 -41.486,-11.84 -41.645,-12.751C-41.803,-13.503 -41.408,-13.782 -40.457,-13.584C-37.961,-13.069 -35.645,-12.534 -33.506,-11.98L-24.238,-11.98C-23.645,-11.98 -22.971,-12.376 -22.219,-13.167L-21.564,-13.821C-20.852,-14.416 -20.812,-14.712 -21.447,-14.712L-39.387,-14.712C-40.656,-14.672 -41.902,-14.593 -43.131,-14.475C-43.883,-14.395 -44.496,-14.792 -44.973,-15.663L-45.15,-16.138C-45.547,-16.89 -45.289,-17.208 -44.377,-17.088C-42.318,-16.89 -40.08,-16.751 -37.664,-16.672L-30.535,-16.672C-29.902,-16.672 -29.764,-17.068 -30.119,-17.861C-30.635,-19.207 -31.467,-20.158 -32.615,-20.712C-33.09,-20.871 -33.289,-21.128 -33.209,-21.485C-33.131,-21.801 -33.051,-21.999 -32.971,-22.079C-32.893,-22.118 -33.131,-22.138 -33.684,-22.138C-34.279,-22.138 -34.576,-21.98 -34.576,-21.663C-34.496,-20.792 -34.953,-20.178 -35.941,-19.822C-37.486,-19.306 -39.387,-19.247 -41.645,-19.643C-41.844,-19.762 -42.061,-19.919 -42.299,-20.119C-42.535,-20.395 -42.596,-20.911 -42.477,-21.663C-42.438,-23.287 -42.357,-24.89 -42.238,-26.475L-42.238,-33.425L-42.477,-37.584C-42.516,-38.495 -42.18,-38.871 -41.467,-38.713C-39.17,-38.079 -36.813,-37.406 -34.396,-36.693L-23.348,-36.693C-22.715,-36.693 -22.08,-37.009 -21.447,-37.644" style="fill:rgb(27,73,193);fill-rule:nonzero;"/>
        </g>
        <g transform="matrix(1,0,0,1,958.698,1288.25)">
            <path d="M0,26.953C-0.633,26.953 -0.949,27.27 -0.949,27.903L-0.949,34.14C-0.949,34.774 -0.633,35.092 0,35.092L17.941,35.092C18.574,35.092 18.893,34.794 18.893,34.2L18.893,27.903C18.893,27.27 18.596,26.953 18.002,26.953L0,26.953ZM0.061,17.566C-0.613,17.566 -0.949,17.884 -0.949,18.516L-0.949,23.923C-0.949,24.557 -0.633,24.873 0,24.873L17.941,24.873C18.574,24.873 18.893,24.557 18.893,23.923L18.893,18.576C18.893,17.903 18.596,17.566 18.002,17.566L0.061,17.566ZM21.506,13.289C22.18,12.576 22.873,12.378 23.586,12.695C25.131,13.329 26.693,14.239 28.279,15.428C29.941,16.577 29.98,17.666 28.398,18.695C27.645,19.369 27.27,20.022 27.27,20.655L27.27,26.358L27.566,39.25C27.686,39.685 27.545,40.061 27.15,40.379C25.566,41.249 23.408,41.586 20.674,41.389C19.287,41.308 18.693,40.596 18.893,39.25L18.893,38.121C18.893,37.487 18.596,37.171 18.002,37.171L0,37.171C-0.633,37.171 -0.949,37.547 -0.949,38.3C-0.949,39.091 -1.01,39.586 -1.127,39.784C-1.406,40.299 -1.861,40.655 -2.494,40.853C-3.92,41.171 -5.465,41.329 -7.129,41.329C-7.92,41.329 -8.555,41.171 -9.029,40.853C-9.504,40.458 -9.662,40.002 -9.504,39.487C-9.465,36.596 -9.385,33.666 -9.268,30.695L-9.268,20.655C-9.346,18.279 -9.484,16.101 -9.682,14.121C-9.762,13.369 -9.426,13.071 -8.672,13.229C-6.811,13.626 -4.119,14.398 -0.594,15.547L17.645,15.547C18.238,15.547 18.734,15.408 19.131,15.131L21.506,13.289ZM0.951,-14.157C3.883,-14.633 6.377,-14.612 8.438,-14.098C10.496,-13.741 11.861,-12.711 12.535,-11.009C12.971,-9.464 12.871,-8.117 12.238,-6.969C11.725,-6.335 11.783,-6.019 12.418,-6.019L19.248,-6.019C19.883,-6.019 20.535,-6.414 21.209,-7.207C22.555,-8.83 23.625,-10.038 24.418,-10.83C24.854,-11.306 25.25,-11.425 25.605,-11.187C26.832,-10.553 28.398,-9.346 30.299,-7.564C31.17,-6.811 31.863,-6.038 32.377,-5.246C32.615,-4.771 32.596,-4.394 32.318,-4.117C32.08,-3.919 31.566,-3.82 30.773,-3.82L17.17,-3.82C16.576,-3.82 16.654,-3.701 17.408,-3.464C20.576,-2.514 23.111,-1.642 25.012,-0.85C25.922,-0.375 26.396,-0.078 26.437,0.041C26.557,0.318 26.516,0.557 26.318,0.754C25.922,1.071 25.367,1.289 24.654,1.407C23.98,1.487 23.367,1.883 22.812,2.596C20.99,4.734 19.07,6.378 17.051,7.526C16.258,8.002 16.199,8.239 16.873,8.239L23.705,8.239C24.338,8.239 24.971,7.844 25.605,7.051C27.389,4.834 28.715,3.408 29.586,2.773C30.496,2.892 31.902,3.863 33.803,5.684C34.992,6.794 35.902,7.744 36.537,8.536C37.09,9.21 37.07,9.824 36.477,10.378C36.357,10.418 35.902,10.437 35.111,10.437L-11.881,10.437C-13.346,10.437 -14.813,10.497 -16.277,10.615C-17.109,10.734 -17.703,10.378 -18.059,9.546C-18.139,9.349 -18.217,9.15 -18.297,8.952C-18.693,8.042 -18.535,7.626 -17.822,7.705C-15.645,7.942 -13.268,8.12 -10.693,8.239L-2.436,8.239C-1.723,8.239 -1.584,8.1 -2.02,7.823C-2.771,6.992 -3.168,5.824 -3.207,4.318C-3.365,2.1 -4.098,0.181 -5.404,-1.444C-6.078,-2.117 -6.277,-2.611 -6,-2.93C-5.762,-3.246 -5.187,-3.404 -4.277,-3.404C-1.662,-3.324 0.693,-2.692 2.793,-1.504C4.1,-0.592 4.932,0.576 5.289,2.002C5.445,2.873 5.506,3.685 5.467,4.437C5.426,5.863 4.812,7.012 3.625,7.883C3.189,8.12 3.307,8.239 3.98,8.239L11.705,8.239C12.338,8.239 12.813,7.844 13.131,7.051C14.396,3.804 15.17,0.497 15.447,-2.87C15.447,-3.503 15.15,-3.82 14.557,-3.82L-6.771,-3.82C-8.633,-3.78 -10.494,-3.701 -12.355,-3.583C-13.307,-3.503 -13.959,-3.82 -14.316,-4.533L-14.791,-5.484C-15.109,-6.276 -14.832,-6.612 -13.959,-6.494C-11.545,-6.176 -9.068,-6.019 -6.533,-6.019L3.98,-6.019C4.615,-6.019 4.674,-6.414 4.16,-7.207L3.328,-9.524C2.891,-10.672 1.98,-11.582 0.596,-12.256C-0.158,-12.533 -0.494,-12.87 -0.414,-13.267C-0.297,-13.661 0.158,-13.959 0.951,-14.157" style="fill:rgb(27,73,193);fill-rule:nonzero;"/>
        </g>
        <g transform="matrix(1,0,0,1,1026.19,1295.54)">
            <path d="M0,12.356L0.355,12.296C3.246,12.257 5.762,12.733 7.9,13.722C9.484,14.673 10.375,16.04 10.574,17.822C10.771,19.96 9.939,21.525 8.078,22.515C5.068,23.545 3.207,22.476 2.494,19.307C1.979,17.248 0.93,15.564 -0.654,14.257C-1.406,13.862 -1.664,13.446 -1.426,13.009C-1.27,12.614 -0.793,12.396 0,12.356M6.178,-20.437C6.098,-21.229 6.455,-21.566 7.246,-21.447C10.178,-21.129 12.91,-20.654 15.445,-20.021C15.881,-19.862 16.217,-19.665 16.455,-19.427C16.652,-18.753 16.297,-18.278 15.387,-18.001C14.83,-17.565 14.555,-17.03 14.555,-16.397L14.555,-13.427C14.555,-12.792 14.891,-12.476 15.564,-12.476C16.236,-12.476 16.871,-12.872 17.465,-13.665C18.139,-14.615 18.91,-15.585 19.781,-16.576C20.377,-17.526 21.127,-17.545 22.039,-16.635C23.504,-15.407 25.049,-13.784 26.674,-11.763C26.949,-11.367 26.93,-10.97 26.613,-10.576C26.455,-10.456 25.98,-10.397 25.187,-10.397L15.445,-10.397C14.811,-10.397 14.494,-10.08 14.494,-9.447L14.494,-1.902C14.494,-1.268 14.811,-0.952 15.445,-0.952L17.525,-0.952C18.158,-0.952 18.791,-1.347 19.426,-2.139C20.574,-3.684 21.684,-4.97 22.752,-6C23.346,-6.199 24.078,-5.823 24.951,-4.873C26.258,-3.763 27.684,-2.318 29.229,-0.536C29.662,-0.02 29.682,0.455 29.287,0.89C29.168,1.049 28.713,1.128 27.92,1.128L0.297,1.128C-1.051,1.168 -2.396,1.227 -3.744,1.306C-4.654,1.386 -5.287,1.069 -5.645,0.356L-6.061,-0.357C-6.416,-1.149 -6.199,-1.525 -5.406,-1.486C-1.842,-1.129 1.801,-0.971 5.523,-1.01C6.156,-1.01 6.475,-1.328 6.475,-1.961L6.475,-9.447C6.475,-10.08 6.156,-10.397 5.523,-10.397C3.623,-10.357 1.701,-10.297 -0.238,-10.219C-1.189,-10.139 -1.842,-10.456 -2.199,-11.169L-2.436,-11.645C-2.912,-12.595 -2.754,-13.05 -1.961,-13.011C1.246,-12.694 3.742,-12.515 5.523,-12.476C6.156,-12.476 6.475,-12.792 6.475,-13.427C6.514,-15.803 6.416,-18.139 6.178,-20.437M-15.447,-12.12C-15.725,-11.961 -15.941,-11.605 -16.1,-11.05C-16.418,-9.624 -16.793,-8.139 -17.229,-6.595C-17.387,-5.921 -17.131,-5.585 -16.457,-5.585C-15.705,-5.585 -15.328,-5.902 -15.328,-6.536L-15.328,-11.229C-15.328,-11.862 -15.367,-12.159 -15.447,-12.12M-15.744,-20.734C-15.783,-21.486 -15.408,-21.803 -14.615,-21.684C-10.773,-21.129 -7.842,-20.497 -5.822,-19.784C-5.309,-19.665 -5.131,-19.368 -5.287,-18.892C-5.367,-18.536 -5.703,-18.218 -6.299,-17.942C-6.893,-17.426 -7.189,-16.852 -7.189,-16.219L-7.189,-7.545C-7.189,-6.872 -6.992,-6.952 -6.596,-7.783L-5.525,-9.506C-4.971,-10.297 -4.615,-10.713 -4.457,-10.753C-4.141,-10.753 -3.664,-10.397 -3.031,-9.684C-1.764,-8.258 -0.557,-6.693 0.594,-4.991C0.869,-4.594 0.791,-4.199 0.355,-3.803C0.197,-3.684 -0.277,-3.624 -1.07,-3.624L-6.357,-3.624C-6.992,-3.624 -7.309,-3.328 -7.309,-2.734L-7.309,5.406C-7.309,6.04 -6.912,6.257 -6.119,6.059C-4.574,5.703 -2.832,5.168 -0.893,4.455C-0.141,4.138 0.375,4.198 0.652,4.633C0.771,5.069 0.436,5.604 -0.357,6.237L-2.674,8.019C-3.268,8.495 -3.189,8.772 -2.436,8.851C-0.219,9.049 2.02,9.168 4.277,9.208L12.771,9.208C13.404,9.208 13.723,8.911 13.723,8.316C13.762,6.653 13.682,4.712 13.484,2.495C13.404,1.703 13.762,1.366 14.555,1.485C17.326,1.762 19.939,2.237 22.396,2.911C23.109,3.267 23.445,3.604 23.406,3.92C23.326,4.277 23.109,4.535 22.752,4.693C22.553,4.772 22.336,4.891 22.1,5.049C21.9,5.287 21.803,5.703 21.803,6.296L21.803,8.316C21.803,9.109 22.02,9.049 22.455,8.138C23.01,7.149 23.584,6.177 24.178,5.227C24.852,4.395 25.268,3.98 25.426,3.98C25.9,4.019 26.514,4.574 27.268,5.643C28.494,7.149 29.365,8.336 29.881,9.208C30.395,9.801 30.535,10.336 30.297,10.811C30.02,11.327 29.426,11.485 28.516,11.287L22.752,11.287C22.119,11.287 21.803,11.604 21.803,12.237L21.803,26.554C21.684,28.693 20.93,30.356 19.545,31.544C17.207,32.97 14.93,33.762 12.713,33.92C11.563,34.159 10.891,33.683 10.693,32.495L10.277,30.178C10.078,29.029 9.721,28.237 9.207,27.802C8.375,27.128 7.227,26.554 5.762,26.079C5.01,25.841 4.652,25.405 4.693,24.772C4.73,24.258 5.207,24.04 6.119,24.119C8.414,24.317 10.434,24.436 12.178,24.475C12.771,24.554 13.227,24.475 13.545,24.238C13.861,23.802 13.961,23.248 13.842,22.574L13.842,12.237C13.842,11.604 13.445,11.287 12.652,11.287L5.168,11.287C2.791,11.367 0.416,11.465 -1.961,11.584C-2.754,11.624 -3.367,11.248 -3.803,10.455C-4.199,9.664 -4.793,9.504 -5.586,9.98C-5.783,10.138 -5.98,10.257 -6.18,10.336C-6.932,10.811 -7.309,11.367 -7.309,12L-7.309,24.119L-7.129,31.604C-6.973,32.514 -7.447,33.168 -8.555,33.564C-10.061,33.92 -11.844,34.059 -13.902,33.98C-15.367,33.822 -15.941,33.069 -15.625,31.723C-15.625,28.911 -15.547,26.059 -15.387,23.169L-15.387,15.743C-15.387,15.109 -15.803,14.97 -16.635,15.327L-18.832,16.158C-19.467,16.396 -19.805,16.911 -19.844,17.703C-19.883,18.614 -20.279,19.128 -21.031,19.248C-21.27,19.209 -21.506,19.03 -21.744,18.712C-22.893,16.614 -24.061,13.782 -25.248,10.217C-25.527,9.385 -25.27,8.951 -24.477,8.911C-21.031,8.672 -18.318,8.376 -16.338,8.019C-15.705,7.862 -15.387,7.465 -15.387,6.832L-15.387,-2.674C-15.387,-3.307 -15.705,-3.624 -16.338,-3.624L-17.348,-3.624C-17.982,-3.624 -18.457,-3.248 -18.773,-2.496C-19.645,-0.12 -21.012,2.237 -22.873,4.574C-23.666,5.485 -24.219,5.88 -24.535,5.762C-24.932,5.564 -25.051,5.088 -24.893,4.336C-23.467,-2.119 -22.873,-8.575 -23.109,-15.031C-23.15,-15.823 -22.793,-16.16 -22.041,-16.04C-20.576,-15.763 -18.715,-15.367 -16.457,-14.853C-15.824,-14.654 -15.506,-14.951 -15.506,-15.744C-15.547,-17.367 -15.625,-19.031 -15.744,-20.734" style="fill:rgb(27,73,193);fill-rule:nonzero;"/>
        </g>
        <g transform="matrix(1,0,0,1,1095.69,1318.85)">
            <path d="M0,-34.24C-0.635,-34.24 -0.951,-33.922 -0.951,-33.289L-0.951,-30.734C-0.951,-30.1 -0.635,-29.784 0,-29.784L3.506,-29.784C4.139,-29.784 4.752,-30.179 5.346,-30.972C5.9,-31.764 6.535,-32.536 7.248,-33.289C7.801,-33.922 7.762,-34.24 7.129,-34.24L0,-34.24ZM0,-27.705C-0.674,-27.705 -1.01,-27.408 -1.01,-26.813L-1.01,-24.021C-1.01,-23.387 -0.693,-23.071 -0.059,-23.071L3.445,-23.071C4.078,-23.071 4.693,-23.467 5.287,-24.26C5.881,-25.051 6.555,-25.863 7.307,-26.695C7.98,-27.368 8,-27.705 7.367,-27.705L0,-27.705ZM-0.119,-21.17C-0.752,-21.17 -1.07,-20.852 -1.07,-20.219L-1.07,-17.249C-1.07,-16.615 -0.752,-16.299 -0.119,-16.299L8.08,-16.299C8.713,-16.299 9.307,-16.694 9.861,-17.487C10.494,-18.357 11.188,-19.249 11.941,-20.16C12.535,-20.833 12.535,-21.17 11.941,-21.17L-0.119,-21.17ZM-17.764,-21.052C-18.357,-21.052 -18.654,-20.734 -18.654,-20.1L-18.654,-17.071C-18.654,-16.397 -18.338,-16.061 -17.703,-16.061L-9.922,-16.061C-9.287,-16.061 -8.971,-16.378 -8.971,-17.011L-8.971,-20.1C-8.971,-20.734 -9.268,-21.052 -9.861,-21.052L-17.764,-21.052ZM-17.764,-27.645C-18.357,-27.645 -18.654,-27.328 -18.654,-26.695L-18.654,-23.962C-18.654,-23.328 -18.338,-23.011 -17.703,-23.011L-9.922,-23.011C-9.287,-23.011 -8.971,-23.328 -8.971,-23.962L-8.971,-26.695C-8.971,-27.328 -9.268,-27.645 -9.861,-27.645L-17.764,-27.645ZM-17.645,-34.18C-18.318,-34.18 -18.654,-33.884 -18.654,-33.289L-18.654,-30.676C-18.654,-30.041 -18.338,-29.724 -17.703,-29.724L-9.922,-29.724C-9.287,-29.724 -8.971,-30.041 -8.971,-30.676L-8.971,-33.229C-8.971,-33.863 -9.268,-34.18 -9.861,-34.18L-17.645,-34.18ZM-23.109,-44.161C-22.912,-44.952 -22.418,-45.269 -21.625,-45.111C-18.297,-44.398 -15.586,-43.645 -13.486,-42.853C-12.693,-42.418 -12.258,-42.082 -12.178,-41.844C-12.061,-41.289 -12.377,-40.953 -13.129,-40.834C-13.447,-40.834 -13.764,-40.794 -14.08,-40.715C-14.754,-40.556 -15.268,-40.1 -15.625,-39.348C-15.98,-38.715 -16.416,-38.061 -16.932,-37.388C-17.447,-36.755 -17.387,-36.437 -16.754,-36.437L-6.594,-36.437C-5.961,-36.437 -5.881,-36.833 -6.357,-37.626L-6.832,-39.943C-7.268,-41.369 -8.061,-42.497 -9.209,-43.329C-10,-43.804 -10.299,-44.2 -10.1,-44.517C-9.861,-44.913 -9.348,-45.131 -8.555,-45.171C-5.822,-45.131 -3.445,-44.715 -1.426,-43.923C0.475,-43.131 1.523,-41.844 1.723,-40.061C1.801,-38.952 1.504,-37.962 0.832,-37.092C0.197,-36.497 0.197,-36.2 0.832,-36.2L7.307,-36.2C7.939,-36.2 8.555,-36.595 9.148,-37.388C9.939,-38.418 10.832,-39.468 11.822,-40.537C12.535,-41.21 13.248,-41.17 13.961,-40.418C15.307,-39.427 16.891,-37.902 18.713,-35.844C19.148,-34.655 18.633,-34.121 17.168,-34.24L10.1,-34.24C9.426,-34.24 9.484,-33.962 10.277,-33.408C11.426,-32.536 12.633,-31.329 13.9,-29.784C14.652,-29.15 14.713,-28.497 14.08,-27.824C13.92,-27.744 13.445,-27.705 12.654,-27.705L9.803,-27.705C9.129,-27.705 9.188,-27.428 9.98,-26.873C11.326,-25.763 12.555,-24.616 13.664,-23.427C14.377,-22.834 14.594,-22.219 14.316,-21.586C14.158,-21.268 14.316,-20.952 14.793,-20.636C16.494,-19.17 18.02,-17.605 19.367,-15.942C19.842,-15.348 19.742,-14.813 19.07,-14.338C18.91,-14.259 18.475,-14.219 17.762,-14.219L-8.793,-14.219C-9.387,-14.219 -9.307,-14.16 -8.555,-14.041C-5.109,-13.566 -2.773,-13.15 -1.545,-12.794C-0.713,-12.318 -0.297,-12.001 -0.297,-11.843C-0.377,-11.407 -0.635,-11.091 -1.07,-10.892C-1.744,-10.378 -2.08,-9.803 -2.08,-9.17C-2.08,-8.496 -1.764,-8.16 -1.129,-8.16L8.793,-8.16C9.426,-8.16 10.039,-8.555 10.635,-9.347C11.584,-10.575 12.475,-11.585 13.307,-12.378C13.98,-13.051 14.555,-13.249 15.029,-12.971C16.693,-11.941 18.654,-10.338 20.912,-8.16C21.465,-7.526 21.506,-6.912 21.029,-6.318C20.912,-6.278 20.455,-6.259 19.664,-6.259L1.604,-6.259C0.891,-6.259 0.951,-5.981 1.781,-5.427C4.713,-3.803 7.861,-2.813 11.229,-2.457C12.93,-2.179 14.455,-2.02 15.803,-1.981L19.723,-1.981L20.674,-2.041C21.426,-2.12 21.803,-1.922 21.803,-1.447C21.762,-0.891 21.564,-0.555 21.209,-0.436C20.1,0.238 19.465,1.325 19.307,2.83L19.01,5.148C18.891,5.94 18.613,6.474 18.178,6.751C15.406,6.989 11.9,5.84 7.664,3.306C4.219,1.405 1.307,-1.367 -1.07,-5.011C-1.506,-5.803 -1.783,-6.199 -1.9,-6.199C-2.02,-6.159 -2.08,-5.822 -2.08,-5.189L-2.08,1.167L-1.783,9.009C-1.861,9.405 -2.16,9.761 -2.674,10.078C-4.852,10.83 -7.09,11.029 -9.387,10.672C-10.338,10.395 -10.713,9.682 -10.516,8.533C-10.318,3.741 -10.238,0.375 -10.277,-1.565C-10.277,-2.199 -10.674,-2.199 -11.465,-1.565C-14.199,0.811 -17.348,2.712 -20.912,4.138C-24.635,5.721 -28.477,6.811 -32.438,7.405C-33.229,7.524 -33.725,7.365 -33.922,6.93C-34.16,6.454 -33.883,6.077 -33.09,5.801C-27.467,3.385 -22.674,-0.278 -18.713,-5.189C-18.199,-5.862 -18.258,-6.199 -18.893,-6.199L-28.932,-6.199C-29.605,-6.159 -30.279,-6.1 -30.951,-6.021C-31.744,-5.941 -32.338,-6.298 -32.734,-7.091L-33.09,-7.863C-33.408,-8.576 -33.09,-8.873 -32.139,-8.754C-29.447,-8.397 -26.734,-8.199 -24,-8.16L-11.287,-8.16C-10.615,-8.16 -10.299,-8.555 -10.338,-9.347C-10.377,-10.655 -10.455,-11.981 -10.574,-13.328C-10.654,-13.923 -11.012,-14.219 -11.645,-14.219L-17.941,-14.219C-18.574,-14.219 -18.893,-14.001 -18.893,-13.566C-18.693,-12.813 -19.051,-12.259 -19.961,-11.902C-21.506,-11.506 -23.229,-11.368 -25.129,-11.486C-26.16,-11.447 -26.773,-11.902 -26.971,-12.853C-26.971,-15.149 -26.932,-17.487 -26.852,-19.863L-26.852,-26.576C-26.852,-27.209 -27.229,-27.268 -27.98,-26.755C-29.287,-25.883 -30.754,-25.11 -32.377,-24.437C-33.17,-24.16 -33.705,-24.2 -33.98,-24.556C-34.299,-24.952 -34.16,-25.467 -33.564,-26.1C-28.1,-32.121 -24.615,-38.14 -23.109,-44.161" style="fill:rgb(27,73,193);fill-rule:nonzero;"/>
        </g>
        <g transform="matrix(1,0,0,1,836.429,1291.82)">
            <path d="M0,15.802L-13.688,23.704L-13.688,-7.903L0,-0.001L13.686,7.9L0,15.802ZM-4.283,-23.879C-21.836,-23.879 -36.063,-9.651 -36.063,7.902C-36.063,25.452 -21.836,39.681 -4.283,39.681C13.268,39.681 27.496,25.452 27.496,7.902C27.496,-9.651 13.268,-23.879 -4.283,-23.879" style="fill:rgb(27,73,193);fill-rule:nonzero;"/>
        </g>
    </g>
</svg>
