<?xml version="1.0" encoding="UTF-8" standalone="no"?>
<!DOCTYPE svg PUBLIC "-//W3C//DTD SVG 1.1//EN" "http://www.w3.org/Graphics/SVG/1.1/DTD/svg11.dtd">
<svg width="100%" height="100%" viewBox="0 0 170 170" version="1.1" xmlns="http://www.w3.org/2000/svg" xmlns:xlink="http://www.w3.org/1999/xlink" xml:space="preserve" xmlns:serif="http://www.serif.com/" style="fill-rule:evenodd;clip-rule:evenodd;stroke-linejoin:round;stroke-miterlimit:2;">
    <g transform="matrix(1.00022,0,0,1.00022,-1583.65,-3409.87)">
        <g transform="matrix(0,-1,-1,0,1668.28,3414.12)">
            <ellipse cx="-79.983" cy="0.001" rx="79.982" ry="79.983" style="fill:none;"/>
        </g>
        <g>
            <g>
                <clipPath id="_clip1">
                    <path d="M1648.6,3466.87C1641.83,3470.05 1635.78,3475.27 1630.33,3481.89C1626.71,3486.29 1620.22,3495.86 1621.08,3502.01C1621.88,3507.82 1630.77,3512.75 1635.01,3514.94C1642.17,3518.63 1648.55,3519.78 1655.23,3520.2C1674.47,3521.42 1692.23,3519.27 1707.05,3508.53C1708.26,3507.65 1709.46,3506.69 1710.21,3505.4C1711.83,3502.67 1711.13,3499.18 1710.07,3496.2C1704.75,3481.15 1690.67,3469.38 1675.51,3465.07C1671.5,3463.93 1667.67,3463.39 1664.02,3463.39C1658.5,3463.39 1653.37,3464.62 1648.6,3466.87Z"/>
                </clipPath>
                <g clip-path="url(#_clip1)">
                    <g transform="matrix(1,0,0,1,1675.2,3489.7)">
                        <path d="M0,9.248C-2.554,16.866 -10.8,20.974 -18.419,18.418C-26.038,15.866 -30.144,7.621 -27.593,0.001C-25.036,-7.618 -16.792,-11.726 -9.173,-9.171C-1.553,-6.618 2.552,1.628 0,9.248M-6.019,-18.581C-18.834,-22.875 -32.705,-15.968 -37,-3.151C-41.294,9.663 -34.387,23.532 -21.569,27.827C-8.758,32.123 5.113,25.216 9.408,12.401C13.705,-0.415 6.797,-14.284 -6.019,-18.581"/>
                    </g>
                    <g transform="matrix(0.317602,-0.948224,-0.948224,-0.317602,1652.98,3486.32)">
                        <path d="M-5.381,-3.872C-8.517,-3.871 -11.056,-1.33 -11.056,1.805C-11.058,4.94 -8.514,7.479 -5.381,7.479C-2.245,7.477 0.296,4.934 0.295,1.803C0.294,-1.334 -2.246,-3.873 -5.381,-3.872"/>
                    </g>
                </g>
            </g>
        </g>
        <g transform="matrix(1,0,0,1,1656.96,3508.43)">
            <path d="M0,-45.407C3.985,-46.016 8.269,-45.976 12.854,-45.162C24.086,-43.167 34.212,-37.095 43.118,-29.97C51.837,-22.992 60.746,-15.241 68.516,-7.259C66.61,-3.528 64.063,-3.129 60.451,-2.339C59.338,-2.095 49.449,-0.219 49.603,0.609C45.755,-19.984 23.002,-35.358 2.89,-35.28C-15.147,-35.208 -26.25,-25.094 -35.722,-10.843C-29.056,-27.83 -17.329,-42.757 0,-45.407"/>
        </g>
        <g transform="matrix(1.04207,0,0,1.02802,1668.21,3573.57)">
            <path d="M0,-156.964C-43.274,-156.964 -78.48,-121.757 -78.48,-78.481C-78.48,-35.206 -43.274,0 0,0C43.276,0 78.483,-35.206 78.483,-78.481C78.483,-121.757 43.276,-156.964 0,-156.964M0,3C-44.929,3 -81.48,-33.552 -81.48,-78.481C-81.48,-123.41 -44.929,-159.964 0,-159.964C44.93,-159.964 81.483,-123.41 81.483,-78.481C81.483,-33.552 44.93,3 0,3"/>
        </g>
    </g>
</svg>
