<?xml version="1.0" encoding="UTF-8" standalone="no"?>
<!DOCTYPE svg PUBLIC "-//W3C//DTD SVG 1.1//EN" "http://www.w3.org/Graphics/SVG/1.1/DTD/svg11.dtd">
<svg width="100%" height="100%" viewBox="0 0 310 563" version="1.1" xmlns="http://www.w3.org/2000/svg" xmlns:xlink="http://www.w3.org/1999/xlink" xml:space="preserve" xmlns:serif="http://www.serif.com/" style="fill-rule:evenodd;clip-rule:evenodd;stroke-linejoin:round;stroke-miterlimit:2;">
    <g transform="matrix(0.375018,0,0,0.375018,-70.1106,-220.514)">
        <g transform="matrix(2.66667,0,0,2.66667,186.953,763.701)">
            <path d="M0,431.475C0,467.861 28.7,497.359 64.099,497.359C99.501,497.359 128.199,467.861 128.199,431.475L128.199,0C128.199,-36.386 99.501,-65.884 64.099,-65.884C28.7,-65.884 0,-36.386 0,0L0,431.475Z" style="fill:rgb(242,234,94);fill-rule:nonzero;"/>
        </g>
        <g transform="matrix(2.66667,0,0,2.66667,-3095.31,0)">
            <g transform="matrix(1,0,0,1,1502.46,317.098)">
                <path d="M0,-11.468C-1.346,-11.485 -1.848,-10.727 -1.507,-9.199C0.199,-1.913 3.116,5.432 7.245,12.836C8.123,14.281 9.112,14.114 10.21,12.334C13.682,6.992 16.212,1.596 17.803,-3.856C18.268,-5.284 18.051,-6.05 17.157,-6.151C16.264,-6.431 15.46,-6.753 14.748,-7.121C14.038,-7.847 13.69,-8.702 13.702,-9.691C13.715,-10.767 13.002,-11.313 11.568,-11.33L0,-11.468ZM-9.961,-56.119C-11.396,-56.137 -12.122,-55.426 -12.139,-53.992L-12.293,-41.079C-12.311,-39.644 -11.603,-38.918 -10.167,-38.901L11.894,-38.638C13.327,-38.62 14.055,-39.329 14.073,-40.765L14.228,-53.678C14.244,-55.112 13.533,-55.839 12.1,-55.857L-9.961,-56.119ZM-10.22,-34.461C-11.655,-34.479 -12.381,-33.769 -12.397,-32.335L-12.567,-18.075C-12.586,-16.55 -11.879,-15.78 -10.442,-15.764L11.618,-15.5C13.051,-15.484 13.78,-16.192 13.797,-17.627L13.969,-32.021C13.984,-33.454 13.274,-34.181 11.841,-34.198L-10.22,-34.461ZM-62.725,-54.058C-64.16,-54.075 -64.886,-53.364 -64.902,-51.932L-65.106,-34.847C-65.125,-33.322 -64.417,-32.552 -62.981,-32.535L-58.274,-32.479C-56.841,-32.462 -56.113,-33.17 -56.096,-34.606L-55.892,-51.69C-55.873,-53.213 -56.584,-53.985 -58.018,-54.002L-62.725,-54.058ZM-63.034,-28.096C-64.47,-28.114 -65.195,-27.403 -65.213,-25.969L-65.424,-8.212C-65.441,-6.777 -64.733,-6.052 -63.298,-6.034L-58.591,-5.979C-57.157,-5.961 -56.429,-6.669 -56.412,-8.105L-56.201,-25.727C-56.184,-27.251 -56.894,-28.023 -58.327,-28.04L-63.034,-28.096ZM-63.354,-1.326C-64.789,-1.344 -65.514,-0.68 -65.53,0.666L-65.757,19.634C-65.774,21.16 -65.067,21.928 -63.632,21.946L-58.925,22.002C-57.491,22.019 -56.764,21.311 -56.746,19.876L-56.52,0.908C-56.502,-0.526 -57.213,-1.253 -58.646,-1.271L-63.354,-1.326ZM20.435,-66.52C21.61,-67.491 22.823,-67.613 24.07,-66.88C27.104,-65.587 30.619,-63.214 34.615,-59.758C37.097,-57.396 36.986,-55.469 34.277,-53.977C32.731,-52.381 31.953,-50.864 31.936,-49.431L31.66,-26.293L32.141,-10.278C31.859,-9.204 31.354,-8.358 30.631,-7.739C28.551,-6.507 25.45,-5.917 21.327,-5.966C19.713,-5.986 19.841,-5.534 21.714,-4.616C26.795,-1.953 31.204,0.565 34.943,2.94C37.883,4.59 38.58,6.213 37.037,7.809C36.404,8.161 35.371,8.327 33.938,8.31C32.593,8.206 31.603,8.463 30.967,9.083C24.727,13.494 18.814,16.605 13.232,18.423C11.792,18.765 11.779,19.842 13.193,21.651C20.02,28.281 27.324,32.584 35.104,34.559C37.164,34.762 38.188,35.448 38.174,36.615C37.89,37.866 37.478,38.578 36.938,38.753C34.05,40.152 32.268,42.866 31.594,46.895C31.392,48.686 31.102,50.475 30.723,52.266C30.422,54.864 29.198,55.926 27.051,55.453C23.027,54.327 18.672,51.136 13.98,45.877C5.661,36.449 -0.039,25.711 -3.125,13.654C-5.101,6.277 -6.265,-1.318 -6.62,-9.125C-6.691,-10.65 -7.715,-11.425 -9.687,-11.448C-11.662,-11.473 -12.655,-10.766 -12.672,-9.332L-13.134,29.409C-13.151,30.845 -12.264,31.528 -10.468,31.46C-6.788,31.234 -3.286,30.872 0.039,30.374C1.745,30.125 2.728,30.541 2.984,31.62C3.15,32.698 2.418,33.946 0.787,35.361C-9.17,42.864 -19.406,47.633 -29.924,49.66C-31.274,50.001 -32.229,51.066 -32.788,52.854C-33.718,55.621 -34.935,56.145 -36.438,54.426C-38.438,48.929 -40.332,42.493 -42.129,35.119C-42.47,33.59 -43.54,33.083 -45.339,33.599C-46.957,33.849 -48.571,33.966 -50.187,33.946C-52.971,34.181 -54.939,33.799 -56.093,32.799C-56.979,31.803 -57.276,30.498 -56.987,28.886C-56.97,27.362 -57.68,26.592 -59.113,26.575L-63.82,26.518C-65.256,26.502 -65.981,27.164 -65.998,28.51L-66.082,35.639C-66.104,37.432 -66.208,38.552 -66.392,39C-67.123,40.067 -68.162,40.815 -69.513,41.249C-72.752,42.105 -76.21,42.424 -79.883,42.201C-80.958,42.097 -81.854,41.862 -82.566,41.496C-83.813,40.495 -84.246,39.414 -83.873,38.253C-83.36,25.255 -83.01,10.998 -82.824,-4.518L-82.273,-50.658C-82.316,-54.783 -82.54,-58.465 -82.95,-61.699C-83.198,-63.406 -82.339,-64.024 -80.371,-63.552C-75.363,-62.325 -70.136,-60.693 -64.688,-58.656L-58.77,-58.585C-57.425,-58.57 -55.848,-59.402 -54.031,-61.085L-51.313,-63.34C-48.951,-65.822 -46.707,-66.02 -44.58,-63.932C-42.531,-62.741 -39.907,-60.87 -36.708,-58.322C-33.593,-56.312 -33.349,-54.29 -35.973,-52.26C-38.416,-50.493 -39.379,-48.755 -38.86,-47.046L-39.514,7.703L-39.195,26.005C-38.776,28.52 -38.976,30.223 -39.793,31.109C-40.066,31.466 -39.353,31.699 -37.648,31.808L-33.346,31.993C-31.914,32.011 -31.186,31.303 -31.169,29.867L-30.195,-51.786C-30.228,-56.54 -30.449,-60.669 -30.854,-64.172C-31.013,-65.967 -30.241,-66.675 -28.541,-66.297C-22.908,-64.703 -17.146,-62.842 -11.251,-60.709L11.348,-60.44C12.781,-60.422 14.225,-61.122 15.678,-62.54C17.221,-64.046 18.807,-65.373 20.435,-66.52" style="fill:white;fill-rule:nonzero;"/>
            </g>
            <g transform="matrix(1,0,0,1,1487.55,445.04)">
                <path d="M0,5.284C-1.436,5.267 -2.16,5.978 -2.177,7.412L-2.246,13.195C-2.263,14.631 -1.555,15.356 -0.119,15.373L24.229,15.664C25.662,15.68 26.39,14.972 26.406,13.537L26.476,7.754C26.492,6.32 25.782,5.592 24.348,5.575L0,5.284ZM-0.176,20.082C-1.611,20.065 -2.336,20.775 -2.354,22.209L-2.44,29.472C-2.457,30.908 -1.75,31.634 -0.313,31.65L24.033,31.941C25.467,31.958 26.195,31.25 26.212,29.814L26.299,22.551C26.316,21.117 25.605,20.389 24.172,20.373L-0.176,20.082ZM33.492,-5.213C34.125,-5.743 35.064,-5.598 36.313,-4.777C39.344,-3.394 42.86,-1.066 46.858,2.211C49.077,4.033 49.19,5.783 47.198,7.462C46.023,8.168 45.071,9.007 44.343,9.985L44,16.169L43.715,40.113L43.445,51.412C43.128,55.443 40.979,58.826 37,61.559C33.657,63.673 30.098,65.064 26.322,65.738C24.254,66.07 22.73,65.965 21.752,65.415C20.775,64.506 20.299,63.154 20.32,61.361C19.986,59.204 19.514,57.449 18.903,56.097C18.475,54.296 17.06,52.757 14.653,51.472C13.403,50.829 12.111,50.231 10.772,49.677C9.075,49.028 8.369,48.122 8.652,46.961C8.845,45.796 9.793,45.269 11.496,45.381C15.171,45.602 18.847,45.736 22.524,45.78C25.295,46.44 26.521,45.2 26.201,42.057L26.239,38.83C26.257,37.396 25.547,36.669 24.113,36.651L-0.101,36.363C-1.626,36.345 -2.396,37.008 -2.411,38.353L-2.495,45.347L-2.004,60.556C-1.665,62.085 -2.396,63.242 -4.198,64.029C-7.443,65.424 -11.71,65.911 -16.997,65.49C-19.681,64.921 -20.736,63.158 -20.162,60.205C-20.104,55.362 -19.958,50.387 -19.715,45.276L-19.295,10.032C-19.327,5.188 -19.545,0.927 -19.949,-2.758C-20.109,-4.461 -19.296,-5.124 -17.504,-4.745C-12.136,-3.605 -6.553,-1.79 -0.752,0.701L23.192,0.987C24.538,1.003 26.115,0.261 27.929,-1.244C29.738,-2.655 31.594,-3.979 33.492,-5.213M-21.773,-41.527C-22.473,-43.149 -23.591,-43.385 -25.129,-42.239C-26.307,-41.356 -26.724,-40.194 -26.382,-38.755L-26.634,-17.635C-26.65,-16.2 -25.766,-15.338 -23.974,-15.049C-19.315,-14.543 -14.747,-14.175 -10.263,-13.943L0.229,-13.818C1.663,-13.8 2.39,-14.508 2.407,-15.944L2.489,-22.804C2.506,-24.237 1.796,-24.965 0.362,-24.983C-4.571,-25.041 -9.863,-24.924 -15.52,-24.634C-17.225,-24.473 -18.47,-25.296 -19.255,-27.101L-19.912,-28.453C-20.876,-30.437 -20.462,-31.284 -18.671,-30.994C-11.864,-30.195 -5.5,-29.806 0.42,-29.826C1.854,-29.809 2.581,-30.516 2.598,-31.951L2.666,-37.736C2.685,-39.169 1.974,-39.897 0.54,-39.914L-9.549,-40.034C-12.332,-39.887 -15.069,-39.696 -17.763,-39.46C-19.737,-39.303 -21.075,-39.991 -21.773,-41.527M-49.456,-44.279C-50.892,-44.296 -51.617,-43.585 -51.634,-42.152L-51.866,-22.646C-51.885,-21.119 -51.177,-20.351 -49.741,-20.333L-45.976,-20.288C-44.542,-20.272 -43.814,-20.98 -43.798,-22.415L-43.565,-41.921C-43.547,-43.445 -44.211,-44.216 -45.556,-44.232L-49.456,-44.279ZM-49.931,-15.762C-51.275,-15.778 -51.957,-15.023 -51.976,-13.498L-52.22,6.949C-52.236,8.385 -51.528,9.109 -50.093,9.127L-46.327,9.172C-44.894,9.188 -44.167,8.525 -44.15,7.18L-43.905,-13.403C-43.887,-14.927 -44.551,-15.697 -45.896,-15.713L-49.931,-15.762ZM-50.015,13.837C-51.541,13.818 -52.31,14.482 -52.325,15.827L-52.614,40.041C-52.632,41.476 -51.923,42.201 -50.487,42.219L-46.722,42.263C-45.288,42.28 -44.562,41.572 -44.544,40.137L-44.257,16.057C-44.239,14.624 -44.904,13.897 -46.25,13.882L-50.015,13.837ZM2.098,-57.655C1.854,-59.811 2.627,-60.786 4.419,-60.586C11.047,-59.879 17.225,-58.82 22.948,-57.407C24.82,-56.487 25.798,-55.802 25.883,-55.353C26.042,-53.646 25.043,-52.581 22.886,-52.16C21.439,-51.279 20.709,-50.121 20.691,-48.688L20.665,-46.401C20.647,-44.965 21.355,-44.239 22.791,-44.223L24.808,-44.198C26.241,-44.181 27.644,-45.016 29.009,-46.705C30.463,-48.481 32.056,-50.255 33.781,-52.029C35.783,-54.516 38.023,-54.355 40.502,-51.546C43.521,-48.997 46.625,-45.957 49.812,-42.421C50.783,-41.333 50.504,-40.348 48.97,-39.471C48.699,-39.384 47.666,-39.352 45.873,-39.373L22.736,-39.65C21.301,-39.666 20.576,-38.956 20.559,-37.523L20.489,-31.738C20.473,-30.303 21.225,-29.578 22.75,-29.56C24.364,-29.54 25.896,-30.372 27.354,-32.06C30.178,-35.793 32.404,-38.008 34.027,-38.707C34.473,-38.612 35.143,-38.291 36.033,-37.742C40.83,-34.006 44.421,-30.376 46.802,-26.851C47.33,-26.036 47.051,-25.277 45.967,-24.573C45.695,-24.486 44.708,-24.453 43.005,-24.474L22.424,-24.719C20.988,-24.737 20.263,-24.026 20.246,-22.592L20.164,-15.732C20.146,-14.296 20.855,-13.571 22.291,-13.554L25.653,-13.514C27.087,-13.497 28.577,-14.374 30.124,-16.152L34.761,-21.343C36.573,-22.936 37.658,-23.731 38.018,-23.727C38.287,-23.723 39,-23.4 40.159,-22.758C42.738,-20.932 46.33,-17.66 50.939,-12.944C51.821,-11.766 52.305,-10.862 52.387,-10.236C52.47,-9.696 52.06,-9.207 51.158,-8.77C50.797,-8.593 49.721,-8.518 47.928,-8.539L-12.741,-9.263C-15.702,-9.208 -18.71,-9.065 -21.761,-8.833C-23.558,-8.674 -24.805,-9.361 -25.503,-10.896C-26.288,-12.697 -26.69,-12.837 -26.709,-11.313L-27.203,30.119L-26.75,48.422C-26.324,50.398 -27.328,51.913 -29.764,52.96C-32.198,54.096 -35.881,54.501 -40.81,54.174C-42.064,53.978 -43.045,53.608 -43.756,53.062C-44.467,52.335 -44.764,51.032 -44.652,49.15C-44.634,47.624 -45.252,46.856 -46.507,46.841L-50.542,46.793C-51.978,46.775 -52.703,47.484 -52.721,48.92L-52.806,56.049C-52.907,56.943 -53.588,57.653 -54.85,58.177C-57.916,59.574 -61.869,60.112 -66.707,59.784C-69.757,59.657 -70.992,58.028 -70.418,54.896C-70.342,48.618 -70.132,42.253 -69.785,35.8L-68.869,-41.012C-68.915,-44.69 -69.096,-48.414 -69.408,-52.185C-69.656,-53.981 -68.841,-54.6 -66.964,-54.038C-62.495,-52.729 -57.314,-51.008 -51.42,-48.875L-46.039,-48.811C-44.694,-48.795 -43.296,-49.495 -41.843,-50.914C-40.664,-52.065 -39.395,-53.125 -38.037,-54.098C-36.675,-55.516 -35.459,-55.95 -34.39,-55.4C-31.091,-53.834 -27.666,-51.417 -24.117,-48.146C-23.058,-46.697 -21.634,-45.872 -19.84,-45.674C-13.035,-44.872 -6.223,-44.48 0.595,-44.487C2.028,-44.47 2.755,-45.134 2.771,-46.48C2.725,-50.068 2.498,-53.793 2.098,-57.655" style="fill:white;fill-rule:nonzero;"/>
            </g>
            <g transform="matrix(1,0,0,1,1343.99,367.291)">
                <path d="M0,-119.546C0.021,-121.339 0.925,-122.045 2.715,-121.666C8.531,-120.521 13.808,-119.246 18.546,-117.845C21.228,-117.094 23.013,-116.446 23.904,-115.898C24.794,-115.437 25.147,-114.941 24.963,-114.404C24.674,-112.703 23.404,-111.733 21.16,-111.49C19.719,-110.97 18.673,-109.815 18.024,-108.029C17.007,-105.529 15.72,-102.81 14.161,-99.868C13.245,-98.353 13.461,-97.59 14.806,-97.573L20.321,-97.508C21.755,-97.49 23.245,-98.368 24.792,-100.146C26.612,-102.364 28.612,-104.584 30.791,-106.801C32.968,-108.747 34.234,-109.72 34.594,-109.715C35.488,-109.614 36.558,-109.02 37.801,-107.928C43.214,-103.199 46.936,-99.388 48.966,-96.493C50.112,-94.954 50.232,-93.741 49.326,-92.857C48.963,-92.501 47.928,-92.335 46.225,-92.356L39.096,-92.441L32.102,-92.658L12.06,-92.898C10.624,-92.915 9.312,-92.033 8.126,-90.254C3.205,-83.764 -2.602,-78.274 -9.292,-73.778C-10.919,-72.722 -12.178,-72.512 -13.066,-73.151C-13.865,-73.787 -13.715,-75.131 -12.615,-77.182C-10.6,-80.835 -8.986,-84.357 -7.78,-87.753C-3.43,-99.09 -0.837,-109.689 0,-119.546M-52.252,-81.557C-53.688,-81.573 -54.412,-80.909 -54.428,-79.565L-54.534,-70.686C-54.553,-69.16 -53.845,-68.391 -52.409,-68.374L-33.845,-68.152C-32.411,-68.135 -31.684,-68.843 -31.667,-70.278L-31.561,-79.156C-31.544,-80.59 -32.254,-81.317 -33.688,-81.335L-52.252,-81.557ZM-52.594,-64.205C-53.938,-64.221 -54.62,-63.466 -54.639,-61.942L-54.762,-51.585C-54.779,-50.149 -54.071,-49.423 -52.636,-49.406L-34.071,-49.185C-32.638,-49.167 -31.91,-49.875 -31.893,-51.312L-31.77,-61.669C-31.751,-63.192 -32.461,-63.965 -33.895,-63.982L-52.594,-64.205ZM-52.057,-120.436C-52.305,-122.233 -51.534,-123.03 -49.74,-122.83C-41.056,-121.65 -34.925,-120.545 -31.349,-119.516C-29.656,-118.599 -28.811,-117.96 -28.814,-117.603C-28.74,-116.435 -29.738,-115.415 -31.812,-114.544C-33.168,-113.572 -33.855,-112.369 -33.872,-110.936L-33.938,-105.42C-33.955,-103.984 -33.291,-103.26 -31.946,-103.244C-30.513,-103.227 -29.11,-104.106 -27.743,-105.885C-26.29,-107.57 -24.744,-109.301 -23.108,-111.076C-22.378,-112.233 -21.428,-112.894 -20.259,-113.061C-16.87,-111.494 -12.788,-107.769 -8.015,-101.882C-7.043,-100.613 -7.056,-99.628 -8.05,-98.923C-8.322,-98.656 -9.355,-98.534 -11.148,-98.556L-31.999,-98.805C-33.435,-98.821 -34.16,-98.111 -34.178,-96.678L-34.276,-88.338C-34.294,-86.902 -33.989,-86.182 -33.361,-86.174C-32.557,-85.896 -31.293,-86.598 -29.567,-88.281C-27.033,-90.404 -25.224,-91.637 -24.143,-91.984C-23.423,-92.244 -22.528,-92.009 -21.461,-91.279C-16.028,-88.074 -12.651,-85.433 -11.33,-83.356C-10.54,-81.91 -10.959,-80.66 -12.586,-79.604C-14.127,-78.275 -14.904,-76.894 -14.922,-75.461L-15.121,-58.78L-14.878,-45.323C-14.442,-44.241 -14.904,-43.08 -16.265,-41.841C-19.242,-40.351 -23.376,-39.774 -28.663,-40.106C-30.728,-40.131 -31.926,-41.174 -32.259,-43.243C-32.337,-44.231 -32.779,-44.729 -33.586,-44.738C-34.483,-44.749 -34.94,-44.036 -34.957,-42.603L-35.082,-32.11C-35.099,-30.766 -34.347,-30.036 -32.821,-29.931C-31.298,-29.821 -29.944,-30.523 -28.759,-32.034C-27.213,-33.988 -25.484,-35.942 -23.577,-37.893C-21.769,-39.216 -19.973,-39.373 -18.189,-38.367C-14.64,-35.364 -11.624,-32.503 -9.144,-29.782C-8.267,-28.245 -7.413,-28.281 -6.586,-29.886C-1.535,-39.87 5.915,-51.532 15.761,-64.869C16.943,-66.379 16.684,-67.099 14.979,-67.031C6.725,-66.949 0.803,-66.75 -2.786,-66.436C-4.584,-66.276 -5.873,-67.055 -6.66,-68.77L-7.183,-70.12C-8.146,-72.285 -7.774,-73.267 -6.071,-73.067C0.464,-72.183 7.948,-71.69 16.379,-71.589C17.812,-71.571 19.436,-72.27 21.248,-73.684C23.873,-75.715 26.133,-77.211 28.029,-78.177C29.743,-79.233 31.937,-78.712 34.602,-76.618C40.023,-72.518 43.125,-69.296 43.904,-66.955C43.981,-66.057 43.568,-65.254 42.664,-64.548C40.859,-63.672 39.057,-62.842 37.254,-62.057C35.713,-60.818 34.169,-59.178 32.619,-57.134C23.687,-45.311 16.565,-34.723 11.254,-25.368C10.242,-23.407 9.595,-21.621 9.306,-20.011C9.206,-19.204 9.87,-18.525 11.301,-17.969C18.005,-16.095 24.062,-16.292 29.469,-18.559C31.456,-19.79 32.776,-21.433 33.43,-23.489C35.104,-28.491 36.508,-33.362 37.641,-38.104C38.112,-40.07 38.975,-40.957 40.229,-40.764C41.482,-40.658 42.053,-39.71 41.943,-37.918C41.7,-32.628 41.865,-27.738 42.441,-23.247C42.693,-21.9 43.531,-20.723 44.955,-19.72C47.096,-18.706 48.467,-17.121 49.069,-14.961C49.646,-10.739 48.081,-7.305 44.371,-4.658C41.748,-2.897 38.191,-1.593 33.697,-0.749C24.892,0.401 15.79,0.337 6.388,-0.941C2.626,-1.436 -0.904,-2.508 -4.202,-4.161C-8.566,-6.816 -10.904,-10.117 -11.215,-14.066C-11.363,-16.759 -10.834,-19.757 -9.628,-23.062C-9.074,-24.4 -9.56,-25.078 -11.084,-25.096L-32.741,-25.355C-34.177,-25.372 -34.901,-24.707 -34.917,-23.363L-35.034,-13.542L-35.031,-2.511C-34.523,0.006 -35.665,1.606 -38.452,2.292C-43.219,3.31 -47.302,3.484 -50.701,2.819C-51.595,2.358 -52.307,1.946 -52.841,1.582C-53.193,1.04 -53.358,-0.129 -53.337,-1.922C-53.288,-5.957 -53.061,-10.126 -52.649,-14.426L-52.542,-23.44C-52.524,-24.872 -53.235,-25.599 -54.669,-25.616L-64.488,-25.733C-67.092,-25.675 -69.693,-25.526 -72.296,-25.288C-74.003,-25.128 -75.247,-26.084 -76.029,-28.158L-76.419,-29.374C-77.116,-31.176 -76.569,-31.932 -74.776,-31.642C-68.151,-30.755 -61.474,-30.273 -54.748,-30.192C-53.225,-30.174 -52.453,-30.882 -52.436,-32.317L-52.311,-42.81C-52.294,-44.243 -52.688,-44.967 -53.495,-44.976C-54.394,-44.986 -54.897,-44.095 -55.008,-42.304C-54.763,-40.235 -56.17,-38.82 -59.228,-38.049C-62.017,-37.453 -65.204,-37.223 -68.789,-37.356C-71.657,-37.568 -72.849,-39.196 -72.363,-42.242C-72.228,-46.186 -72,-50.085 -71.686,-53.939L-71.386,-79.094C-71.438,-82.233 -71.624,-85.42 -71.943,-88.653C-72.192,-90.359 -71.333,-91.022 -69.363,-90.64L-54.077,-86.422C-52.554,-86.403 -51.782,-87.111 -51.765,-88.547L-51.666,-96.887C-51.648,-98.32 -52.358,-99.047 -53.792,-99.065C-59.709,-99.224 -65.048,-99.109 -69.806,-98.718C-71.872,-98.562 -73.297,-99.297 -74.084,-100.922L-74.609,-102.004C-75.392,-104.166 -74.978,-105.104 -73.365,-104.815C-67.278,-103.935 -60.781,-103.497 -53.873,-103.506C-52.35,-103.487 -51.578,-104.195 -51.562,-105.631L-51.479,-112.491C-51.629,-115.093 -51.82,-117.742 -52.057,-120.436" style="fill:white;fill-rule:nonzero;"/>
            </g>
            <g transform="matrix(1,0,0,1,1345.67,485.75)">
                <path d="M0,-79.316L-37.215,-79.76C-38.72,-79.778 -39.293,-79.032 -38.934,-77.524C-35.045,-63.115 -28.11,-48.86 -18.126,-34.755C-16.942,-33.387 -15.965,-33.299 -15.198,-34.495C-7.308,-46.731 -1.571,-61.1 2.009,-77.599C2.249,-78.799 1.579,-79.372 0,-79.316M8.574,-89.026C11.011,-91.552 13.192,-91.791 15.124,-89.737C19.146,-86.456 22.491,-83.221 25.16,-80.031C26.719,-78.433 26.514,-77.006 24.546,-75.753L21.819,-74.206C20.609,-73.618 19.807,-72.538 19.412,-70.964C15.795,-57.698 10.88,-45.874 4.665,-35.499C2.211,-31.617 -0.427,-27.927 -3.25,-24.427C-4.469,-23.088 -4.445,-21.92 -3.179,-20.929C6.742,-14.269 18.797,-9.989 32.986,-8.091C34.789,-7.995 35.572,-7.344 35.332,-6.146C35.091,-4.87 34.782,-4.235 34.407,-4.24C33.731,-4.399 32.898,-3.995 31.91,-3.028C30.001,-0.571 28.575,2.382 27.632,5.83C27.158,7.629 26.577,9.125 25.886,10.322C25.113,11.964 23.756,12.475 21.808,11.852C19.333,11.371 16.337,10.207 12.825,8.361C7.146,5.586 1.247,1.98 -4.864,-2.453C-8.146,-4.899 -11.12,-7.564 -13.793,-10.455C-14.834,-11.518 -15.999,-11.533 -17.289,-10.496C-21.997,-6.641 -27.831,-2.992 -34.788,0.461C-48.094,6.394 -58.891,10.099 -67.18,11.579C-68.688,11.861 -69.623,11.587 -69.989,10.756C-70.43,9.85 -69.932,9.065 -68.494,8.406C-59.877,4.674 -50.866,-0.709 -41.459,-7.739C-36.149,-11.585 -30.944,-16.186 -25.842,-21.538C-24.851,-22.728 -24.835,-24.082 -25.793,-25.598C-28.672,-30.144 -31.534,-35.93 -34.384,-42.958C-38.685,-54.437 -41.627,-66.166 -43.213,-78.139C-43.424,-79.344 -44.245,-79.919 -45.672,-79.861C-50.936,-79.923 -55.036,-79.784 -57.972,-79.443C-59.479,-79.31 -60.559,-80.039 -61.217,-81.626L-62.094,-83.666C-62.605,-85.026 -61.959,-85.583 -60.157,-85.336C-55.052,-84.747 -50.282,-84.352 -45.847,-84.149L0.051,-83.601C1.179,-83.587 2.501,-84.21 4.021,-85.471C5.539,-86.732 7.057,-87.916 8.574,-89.026" style="fill:white;fill-rule:nonzero;"/>
            </g>
            <g transform="matrix(1,0,0,1,1369.67,631.237)">
                <path d="M0,-99.85C-0.987,-99.862 -1.487,-99.149 -1.505,-97.715C-1.601,-89.644 -2.637,-81.806 -4.61,-74.207C-5.267,-71.972 -6.007,-69.963 -6.836,-68.18C-7.573,-66.662 -7.088,-65.939 -5.381,-66.01C-3.859,-65.901 -2.729,-66.695 -1.989,-68.391C-1.063,-70.891 -0.35,-74.426 0.154,-78.994C1.044,-85.889 1.477,-92.118 1.453,-97.68C1.471,-99.114 0.985,-99.838 0,-99.85M-11.317,-30.831C-11.303,-32.086 -12.018,-32.365 -13.46,-31.664C-14.728,-30.872 -15.366,-29.757 -15.383,-28.324L-15.741,1.674C-15.758,3.108 -15.142,3.834 -13.884,3.849C-12.45,3.866 -11.723,3.156 -11.706,1.722L-11.317,-30.831ZM-29.59,-21.632C-29.568,-23.424 -30.456,-24.287 -32.25,-24.219L-39.783,-24.309C-41.219,-24.326 -41.944,-23.616 -41.961,-22.183L-42.115,-9.27C-42.131,-7.924 -41.244,-7.241 -39.449,-7.219C-37.114,-7.461 -34.645,-7.747 -32.039,-8.073C-30.512,-8.324 -29.739,-9.076 -29.725,-10.331L-29.59,-21.632ZM-21.52,-100.375C-22.777,-100.39 -24.175,-99.644 -25.718,-98.139C-27.436,-97.082 -28.3,-95.835 -28.317,-94.402C-28.37,-90.007 -28.605,-85.392 -29.021,-80.553C-29.22,-79.12 -28.635,-79.113 -27.273,-80.532C-24.725,-83.731 -22.976,-87.431 -22.028,-91.637C-21.827,-93.518 -21.277,-94.453 -20.38,-94.442C-19.394,-94.43 -18.687,-93.524 -18.26,-91.727C-17.26,-85.257 -17.512,-79.339 -19.01,-73.976C-21.048,-68.618 -24.479,-66.595 -29.307,-67.91C-30.288,-68.459 -30.968,-67.883 -31.346,-66.185C-31.816,-64.396 -32.419,-62.654 -33.156,-60.959C-34.825,-56.406 -38.094,-53.168 -42.959,-51.256C-44.398,-50.913 -44.269,-50.508 -42.571,-50.04C-40.424,-49.565 -38.905,-49.055 -38.015,-48.506C-37.033,-48.044 -36.68,-47.592 -36.954,-47.148C-37.329,-45.895 -38.145,-45.144 -39.403,-44.889C-40.939,-44.01 -41.713,-42.943 -41.729,-41.688L-41.826,-33.483C-41.846,-31.869 -41.396,-32.042 -40.475,-34.005C-40.017,-34.895 -39.513,-35.743 -38.964,-36.543C-37.316,-39.302 -35.44,-38.698 -33.336,-34.728C-32.455,-33.459 -31.662,-32.195 -30.959,-30.931C-30.167,-29.577 -29.809,-29.751 -29.876,-31.456L-30.479,-37.383C-30.727,-39.088 -29.823,-39.75 -27.765,-39.369C-22.035,-38.494 -17.249,-37.404 -13.407,-36.104C-12.066,-35.729 -11.386,-36.438 -11.364,-38.232C-11.484,-43.255 -11.745,-47.699 -12.146,-51.56C-12.057,-51.738 -11.116,-51.636 -9.324,-51.257L-7.31,-50.964C-5.611,-50.675 -4.981,-50.713 -5.425,-51.077C-6.137,-51.711 -6.396,-52.477 -6.205,-53.373C-5.909,-55.611 -6.331,-57.949 -7.467,-60.384C-7.909,-61.016 -8.441,-61.472 -9.065,-61.749C-9.782,-61.937 -10.777,-61.141 -12.054,-59.363C-16.687,-54.305 -21.846,-50.555 -27.525,-48.112C-29.689,-47.061 -31.084,-46.897 -31.701,-47.622C-32.499,-48.44 -31.992,-49.645 -30.178,-51.237C-23.365,-58.509 -19.089,-67.384 -17.348,-77.859C-16.1,-84.927 -15.48,-91.694 -15.491,-98.151C-15.475,-99.584 -16.185,-100.312 -17.618,-100.329L-21.52,-100.375ZM-44.525,-100.381C-45.333,-100.391 -45.828,-100.306 -46.009,-100.129C-46.031,-90.801 -46.938,-82.604 -48.724,-75.542C-49.477,-72.678 -50.356,-70.314 -51.365,-68.442C-52.188,-67.107 -52.018,-66.431 -50.851,-66.417C-48.881,-66.213 -47.343,-67.271 -46.239,-69.591C-44.561,-74.954 -43.504,-84.493 -43.072,-98.211C-43.055,-99.645 -43.54,-100.37 -44.525,-100.381M-56.786,-31.374C-56.771,-32.629 -57.438,-32.907 -58.793,-32.205C-60.06,-31.413 -60.7,-30.298 -60.717,-28.865L-60.954,-8.956C-60.972,-7.523 -60.354,-6.796 -59.097,-6.781C-57.751,-6.765 -57.071,-7.477 -57.054,-8.911L-56.786,-31.374ZM-38.359,-109.86C-37.18,-111.101 -36.051,-111.625 -34.977,-111.434C-33.189,-110.874 -30.963,-109.455 -28.3,-107.183C-26.615,-105.728 -25.054,-104.993 -23.618,-104.975L-1.287,-104.708C0.146,-104.692 1.77,-105.524 3.586,-107.206C4.491,-108.002 5.353,-108.709 6.167,-109.329C8.258,-111.635 10.499,-111.517 12.891,-108.979C17.604,-105.604 20.217,-102.837 20.729,-100.679C20.807,-99.781 20.258,-98.979 19.086,-98.276C17.363,-96.771 16.494,-95.301 16.477,-93.868C16.382,-85.885 15.613,-77.869 14.172,-69.813C13.49,-65.425 12.551,-61.848 11.354,-59.083C9.147,-54.624 6.064,-51.925 2.107,-50.987C1.116,-50.73 0.084,-50.518 -0.993,-50.352C-2.339,-50.368 -2.162,-50.185 -0.463,-49.807C3.298,-49.224 5.935,-48.564 7.451,-47.829C8.967,-47.004 9.267,-45.877 8.354,-44.454C7.539,-43.836 6.727,-43.351 5.914,-43.003C4.379,-42.303 3.606,-41.282 3.59,-39.936L3.52,-34.018C3.5,-32.404 3.859,-32.535 4.601,-34.409C4.881,-35.301 5.383,-36.193 6.113,-37.081C7.389,-38.769 8.691,-39.023 10.024,-37.841C12.593,-35.209 15.24,-31.635 17.968,-27.119C18.76,-25.764 18.564,-24.69 17.391,-23.896C17.209,-23.808 16.223,-23.776 14.43,-23.797L5.821,-23.9C4.386,-23.916 3.66,-23.206 3.643,-21.774L3.395,-1.057C3.377,0.557 3.825,0.427 4.745,-1.446C5.204,-2.337 5.797,-3.228 6.526,-4.115C7.903,-6.702 9.608,-6.904 11.646,-4.727C13.854,-2.008 15.975,0.708 18.007,3.422C19.418,5.323 19.668,6.984 18.755,8.409C18.483,8.585 17.45,8.663 15.657,8.641L-26.716,8.136C-30.482,8.091 -34.297,8.223 -38.157,8.538C-39.954,8.695 -41.334,7.871 -42.298,6.066L-42.958,4.982C-43.833,3.177 -43.286,2.466 -41.318,2.849C-38.185,3.335 -35.094,3.596 -32.044,3.632C-30.61,3.649 -29.883,2.939 -29.866,1.505L-29.814,-2.799C-29.798,-4.235 -30.691,-4.515 -32.495,-3.638C-45.037,2.58 -57.192,6.426 -68.96,7.9C-70.397,8.062 -71.304,8.903 -71.68,10.424C-71.971,12.304 -72.834,13.102 -74.264,12.815C-74.89,12.54 -75.464,11.86 -75.989,10.777C-77.377,6.811 -78.799,1.908 -80.254,-3.939C-80.678,-6.097 -79.992,-7.164 -78.197,-7.144L-76.852,-7.127C-75.418,-7.111 -74.691,-7.775 -74.675,-9.121L-74.46,-27.145C-74.506,-30.823 -74.692,-34.145 -75.015,-37.108C-75.348,-39.263 -74.664,-40.198 -72.962,-39.908C-67.323,-38.943 -62.717,-37.991 -59.139,-37.053C-57.533,-36.315 -56.768,-36.709 -56.837,-38.236C-56.791,-42.09 -56.971,-45.951 -57.372,-49.813C-57.708,-51.788 -57.024,-52.634 -55.325,-52.344L-52.505,-51.907C-50.894,-51.62 -50.22,-51.699 -50.482,-52.153C-50.661,-52.423 -50.785,-53.232 -50.858,-54.579C-50.744,-56.639 -50.902,-58.391 -51.334,-59.831C-51.413,-60.728 -52.211,-61.544 -53.726,-62.283C-54.442,-62.559 -55.393,-61.808 -56.577,-60.029C-60.763,-55.145 -66.056,-51.263 -72.458,-48.378C-74.531,-47.596 -75.878,-47.522 -76.497,-48.158C-77.023,-49.15 -76.426,-50.444 -74.701,-52.037C-70.526,-56.293 -67.279,-61.501 -64.963,-67.662C-61.713,-76.952 -60.111,-87.157 -60.157,-98.28C-60.136,-100.073 -60.844,-100.979 -62.277,-100.996C-63.981,-101.106 -65.731,-101.037 -67.528,-100.79C-69.325,-100.631 -70.659,-101.499 -71.532,-103.394L-71.793,-104.07C-72.491,-105.781 -71.944,-106.538 -70.151,-106.338C-65.766,-105.747 -62.225,-105.436 -59.534,-105.404L-45.947,-105.242C-44.514,-105.224 -42.89,-106.057 -41.075,-107.74C-40.17,-108.536 -39.264,-109.242 -38.359,-109.86M-99.82,-111.804C-99.453,-112.607 -98.417,-112.952 -96.714,-112.843C-91.064,-112.685 -85.792,-111.051 -80.896,-107.945C-76.538,-104.934 -74.608,-101.232 -75.108,-96.844C-75.908,-90.037 -79.937,-86.946 -87.193,-87.571C-89.347,-87.505 -91.167,-89.098 -92.652,-92.345C-93,-93.335 -93.292,-95.131 -93.53,-97.737C-94.37,-102.59 -95.673,-106.148 -97.439,-108.412C-99.303,-110.048 -100.096,-111.178 -99.82,-111.804M-66.823,-92.171C-66.532,-94.051 -65.938,-94.986 -65.04,-94.975C-64.055,-94.963 -63.349,-94.057 -62.92,-92.259C-61.916,-86.237 -62.118,-80.588 -63.526,-75.314C-65.203,-70.131 -68.147,-67.655 -72.359,-67.885C-73.794,-67.991 -74.746,-67.151 -75.215,-65.364L-79.228,-44.827C-81.233,-34.626 -82.575,-27.511 -83.249,-23.484C-83.582,-18.194 -82.733,-10.335 -80.705,0.092C-80.451,1.35 -80.477,3.503 -80.782,6.548C-81.165,8.515 -82.528,10.026 -84.873,11.075C-86.765,11.86 -89.279,12.007 -92.411,11.523C-98.504,10.821 -101.245,7.603 -100.638,1.873C-100.245,-1.083 -99.331,-6.141 -97.901,-13.298C-97.323,-16.609 -99.307,-19.413 -103.854,-21.711C-105.818,-22.541 -106.706,-23.448 -106.513,-24.433C-106.32,-25.595 -105.372,-26.168 -103.667,-26.148C-99.54,-26.278 -96.246,-28.032 -93.783,-31.412C-91.092,-39.092 -88.442,-46.774 -85.839,-54.457C-85.283,-55.975 -85.773,-56.294 -87.308,-55.417C-88.843,-54.716 -90.37,-54.377 -91.895,-54.396C-96.385,-53.999 -99.051,-56.139 -99.891,-60.814C-100.105,-65.301 -100.602,-68.848 -101.378,-71.46C-101.808,-73.08 -102.549,-74.704 -103.607,-76.33C-105.293,-77.875 -105.996,-79.004 -105.72,-79.719C-105.261,-80.609 -104.224,-81 -102.61,-80.893C-97.146,-80.468 -91.876,-78.567 -86.803,-75.189C-84.403,-73.276 -82.904,-71.328 -82.299,-69.349C-81.87,-67.729 -81.33,-67.812 -80.682,-69.599C-79.007,-74.601 -77.288,-79.603 -75.523,-84.606C-74.877,-86.301 -74.015,-87.01 -72.941,-86.728C-71.957,-86.626 -71.656,-85.545 -72.039,-83.488C-71.953,-83.306 -71.955,-83.127 -72.045,-82.95C-72.334,-81.339 -71.796,-81.286 -70.433,-82.796C-68.432,-85.283 -67.228,-88.409 -66.823,-92.171" style="fill:white;fill-rule:nonzero;"/>
            </g>
            <g transform="matrix(1,0,0,1,1337.71,770.428)">
                <path d="M0,-100.144C3.781,-100.013 6.878,-97.606 9.291,-92.923C10.722,-89.728 10.945,-86.871 9.959,-84.353C7.193,-77.491 4.283,-70.947 1.234,-64.726C-4.209,-53.304 -8.612,-43.595 -11.976,-35.597C-12.292,-34.474 -12.575,-33.296 -12.827,-32.064C-13.229,-30.311 -14.289,-29.679 -16.016,-30.164L-18.865,-30.963C-20.594,-31.45 -21.146,-32.628 -20.526,-34.504C-18.778,-40.068 -17.467,-48.224 -16.591,-58.971C-15.791,-72.44 -14.552,-82.991 -12.873,-90.624C-12.623,-92.51 -11.549,-94.349 -9.647,-96.145C-6.544,-98.908 -3.327,-100.241 0,-100.144M-23.856,-23.143C-19.372,-23.187 -15.62,-21.621 -12.6,-18.446C-11.286,-16.492 -10.692,-14.461 -10.816,-12.355C-11.069,-8.141 -12.593,-4.705 -15.388,-2.041C-17.304,-0.531 -19.716,0.097 -22.624,-0.161C-25.36,-0.37 -27.945,-1.284 -30.379,-2.897C-31.997,-4.098 -33.134,-5.861 -33.785,-8.185C-34.376,-13.38 -33.089,-17.63 -29.926,-20.935C-27.838,-22.397 -25.815,-23.134 -23.856,-23.143" style="fill:white;fill-rule:nonzero;"/>
            </g>
            <g transform="matrix(1,0,0,1,1492.46,308.098)">
                <path d="M0,-11.468C-1.346,-11.485 -1.848,-10.727 -1.507,-9.199C0.199,-1.913 3.116,5.432 7.245,12.836C8.123,14.281 9.112,14.114 10.21,12.334C13.682,6.992 16.212,1.596 17.803,-3.856C18.268,-5.284 18.051,-6.05 17.157,-6.151C16.264,-6.431 15.46,-6.753 14.748,-7.121C14.038,-7.847 13.69,-8.702 13.702,-9.691C13.715,-10.767 13.002,-11.313 11.568,-11.33L0,-11.468ZM-9.961,-56.119C-11.396,-56.137 -12.122,-55.426 -12.139,-53.992L-12.293,-41.079C-12.311,-39.644 -11.603,-38.918 -10.167,-38.901L11.894,-38.638C13.327,-38.62 14.055,-39.329 14.073,-40.765L14.228,-53.678C14.244,-55.112 13.533,-55.839 12.1,-55.857L-9.961,-56.119ZM-10.22,-34.461C-11.655,-34.479 -12.381,-33.769 -12.397,-32.335L-12.567,-18.075C-12.586,-16.55 -11.879,-15.78 -10.442,-15.764L11.618,-15.5C13.051,-15.484 13.78,-16.192 13.797,-17.627L13.969,-32.021C13.984,-33.454 13.274,-34.181 11.841,-34.198L-10.22,-34.461ZM-62.725,-54.058C-64.16,-54.075 -64.886,-53.364 -64.902,-51.932L-65.106,-34.847C-65.125,-33.322 -64.417,-32.552 -62.981,-32.535L-58.274,-32.479C-56.841,-32.462 -56.113,-33.17 -56.096,-34.606L-55.892,-51.69C-55.873,-53.213 -56.584,-53.985 -58.018,-54.002L-62.725,-54.058ZM-63.034,-28.096C-64.47,-28.114 -65.195,-27.403 -65.213,-25.969L-65.424,-8.212C-65.441,-6.777 -64.733,-6.052 -63.298,-6.034L-58.591,-5.979C-57.157,-5.961 -56.429,-6.669 -56.412,-8.105L-56.201,-25.727C-56.184,-27.251 -56.894,-28.023 -58.327,-28.04L-63.034,-28.096ZM-63.354,-1.326C-64.789,-1.344 -65.514,-0.68 -65.53,0.666L-65.757,19.634C-65.774,21.16 -65.067,21.928 -63.632,21.946L-58.925,22.002C-57.491,22.019 -56.764,21.311 -56.746,19.876L-56.52,0.908C-56.502,-0.526 -57.213,-1.253 -58.646,-1.271L-63.354,-1.326ZM20.435,-66.52C21.61,-67.491 22.823,-67.613 24.07,-66.88C27.104,-65.587 30.619,-63.214 34.615,-59.758C37.097,-57.396 36.986,-55.469 34.277,-53.977C32.731,-52.381 31.953,-50.864 31.936,-49.431L31.66,-26.293L32.141,-10.278C31.859,-9.204 31.354,-8.358 30.631,-7.739C28.551,-6.507 25.45,-5.917 21.327,-5.966C19.713,-5.986 19.841,-5.534 21.714,-4.616C26.795,-1.953 31.204,0.565 34.943,2.94C37.883,4.59 38.58,6.213 37.037,7.809C36.404,8.161 35.371,8.327 33.938,8.31C32.593,8.206 31.603,8.463 30.967,9.083C24.727,13.494 18.814,16.605 13.232,18.423C11.792,18.765 11.779,19.842 13.193,21.651C20.02,28.281 27.324,32.584 35.104,34.559C37.164,34.762 38.188,35.448 38.174,36.615C37.89,37.866 37.478,38.578 36.938,38.753C34.05,40.152 32.268,42.866 31.594,46.895C31.392,48.686 31.102,50.475 30.723,52.266C30.422,54.864 29.198,55.926 27.051,55.453C23.027,54.327 18.672,51.136 13.98,45.877C5.661,36.449 -0.039,25.711 -3.125,13.654C-5.101,6.277 -6.265,-1.318 -6.62,-9.125C-6.691,-10.65 -7.715,-11.425 -9.687,-11.448C-11.662,-11.473 -12.655,-10.766 -12.672,-9.332L-13.134,29.409C-13.151,30.845 -12.264,31.528 -10.468,31.46C-6.788,31.234 -3.286,30.872 0.039,30.374C1.745,30.125 2.728,30.541 2.984,31.62C3.15,32.698 2.418,33.946 0.787,35.361C-9.17,42.864 -19.406,47.633 -29.924,49.66C-31.274,50.001 -32.229,51.066 -32.788,52.854C-33.718,55.621 -34.935,56.145 -36.438,54.426C-38.438,48.929 -40.332,42.493 -42.129,35.119C-42.47,33.59 -43.54,33.083 -45.339,33.599C-46.957,33.849 -48.571,33.966 -50.187,33.946C-52.971,34.181 -54.939,33.799 -56.093,32.799C-56.979,31.803 -57.276,30.498 -56.987,28.886C-56.97,27.362 -57.68,26.592 -59.113,26.575L-63.82,26.518C-65.256,26.502 -65.981,27.164 -65.998,28.51L-66.082,35.639C-66.104,37.432 -66.208,38.552 -66.392,39C-67.123,40.067 -68.162,40.815 -69.513,41.249C-72.752,42.105 -76.21,42.424 -79.883,42.201C-80.958,42.097 -81.854,41.862 -82.566,41.496C-83.813,40.495 -84.246,39.414 -83.873,38.253C-83.36,25.255 -83.01,10.998 -82.824,-4.518L-82.273,-50.658C-82.316,-54.783 -82.54,-58.465 -82.95,-61.699C-83.198,-63.406 -82.339,-64.024 -80.371,-63.552C-75.363,-62.325 -70.136,-60.693 -64.688,-58.656L-58.77,-58.585C-57.425,-58.57 -55.848,-59.402 -54.031,-61.085L-51.313,-63.34C-48.951,-65.822 -46.707,-66.02 -44.58,-63.932C-42.531,-62.741 -39.907,-60.87 -36.708,-58.322C-33.593,-56.312 -33.349,-54.29 -35.973,-52.26C-38.416,-50.493 -39.379,-48.755 -38.86,-47.046L-39.514,7.703L-39.195,26.005C-38.776,28.52 -38.976,30.223 -39.793,31.109C-40.066,31.466 -39.353,31.699 -37.648,31.808L-33.346,31.993C-31.914,32.011 -31.186,31.303 -31.169,29.867L-30.195,-51.786C-30.228,-56.54 -30.449,-60.669 -30.854,-64.172C-31.013,-65.967 -30.241,-66.675 -28.541,-66.297C-22.908,-64.703 -17.146,-62.842 -11.251,-60.709L11.348,-60.44C12.781,-60.422 14.225,-61.122 15.678,-62.54C17.221,-64.046 18.807,-65.373 20.435,-66.52" style="fill:rgb(27,73,193);fill-rule:nonzero;"/>
            </g>
            <g transform="matrix(1,0,0,1,1477.55,436.04)">
                <path d="M0,5.284C-1.436,5.267 -2.16,5.978 -2.177,7.412L-2.246,13.195C-2.263,14.631 -1.555,15.356 -0.119,15.373L24.229,15.664C25.662,15.68 26.39,14.972 26.406,13.537L26.476,7.754C26.492,6.32 25.782,5.592 24.348,5.575L0,5.284ZM-0.176,20.082C-1.611,20.065 -2.336,20.775 -2.354,22.209L-2.44,29.472C-2.457,30.908 -1.75,31.634 -0.313,31.65L24.033,31.941C25.467,31.958 26.195,31.25 26.212,29.814L26.299,22.551C26.316,21.117 25.605,20.389 24.172,20.373L-0.176,20.082ZM33.492,-5.213C34.125,-5.743 35.064,-5.598 36.313,-4.777C39.344,-3.394 42.86,-1.066 46.858,2.211C49.077,4.033 49.19,5.783 47.198,7.462C46.023,8.168 45.071,9.007 44.343,9.985L44,16.169L43.715,40.113L43.445,51.412C43.128,55.443 40.979,58.826 37,61.559C33.657,63.673 30.098,65.064 26.322,65.738C24.254,66.07 22.73,65.965 21.752,65.415C20.775,64.506 20.299,63.154 20.32,61.361C19.986,59.204 19.514,57.449 18.903,56.097C18.475,54.296 17.06,52.757 14.653,51.472C13.403,50.829 12.111,50.231 10.772,49.677C9.075,49.028 8.369,48.122 8.652,46.961C8.845,45.796 9.793,45.269 11.496,45.381C15.171,45.602 18.847,45.736 22.524,45.78C25.295,46.44 26.521,45.2 26.201,42.057L26.239,38.83C26.257,37.396 25.547,36.669 24.113,36.651L-0.101,36.363C-1.626,36.345 -2.396,37.008 -2.411,38.353L-2.495,45.347L-2.004,60.556C-1.665,62.085 -2.396,63.242 -4.198,64.029C-7.443,65.424 -11.71,65.911 -16.997,65.49C-19.681,64.921 -20.736,63.158 -20.162,60.205C-20.104,55.362 -19.958,50.387 -19.715,45.276L-19.295,10.032C-19.327,5.188 -19.545,0.927 -19.949,-2.758C-20.109,-4.461 -19.296,-5.124 -17.504,-4.745C-12.136,-3.605 -6.553,-1.79 -0.752,0.701L23.192,0.987C24.538,1.003 26.115,0.261 27.929,-1.244C29.738,-2.655 31.594,-3.979 33.492,-5.213M-21.773,-41.527C-22.473,-43.149 -23.591,-43.385 -25.129,-42.239C-26.307,-41.356 -26.724,-40.194 -26.382,-38.755L-26.634,-17.635C-26.65,-16.2 -25.766,-15.338 -23.974,-15.049C-19.315,-14.543 -14.747,-14.175 -10.263,-13.943L0.229,-13.818C1.663,-13.8 2.39,-14.508 2.407,-15.944L2.489,-22.804C2.506,-24.237 1.796,-24.965 0.362,-24.983C-4.571,-25.041 -9.863,-24.924 -15.52,-24.634C-17.225,-24.473 -18.47,-25.296 -19.255,-27.101L-19.912,-28.453C-20.876,-30.437 -20.462,-31.284 -18.671,-30.994C-11.864,-30.195 -5.5,-29.806 0.42,-29.826C1.854,-29.809 2.581,-30.516 2.598,-31.951L2.666,-37.736C2.685,-39.169 1.974,-39.897 0.54,-39.914L-9.549,-40.034C-12.332,-39.887 -15.069,-39.696 -17.763,-39.46C-19.737,-39.303 -21.075,-39.991 -21.773,-41.527M-49.456,-44.279C-50.892,-44.296 -51.617,-43.585 -51.634,-42.152L-51.866,-22.646C-51.885,-21.119 -51.177,-20.351 -49.741,-20.333L-45.976,-20.288C-44.542,-20.272 -43.814,-20.98 -43.798,-22.415L-43.565,-41.921C-43.547,-43.445 -44.211,-44.216 -45.556,-44.232L-49.456,-44.279ZM-49.931,-15.762C-51.275,-15.778 -51.957,-15.023 -51.976,-13.498L-52.22,6.949C-52.236,8.385 -51.528,9.109 -50.093,9.127L-46.327,9.172C-44.894,9.188 -44.167,8.525 -44.15,7.18L-43.905,-13.403C-43.887,-14.927 -44.551,-15.697 -45.896,-15.713L-49.931,-15.762ZM-50.015,13.837C-51.541,13.818 -52.31,14.482 -52.325,15.827L-52.614,40.041C-52.632,41.476 -51.923,42.201 -50.487,42.219L-46.722,42.263C-45.288,42.28 -44.562,41.572 -44.544,40.137L-44.257,16.057C-44.239,14.624 -44.904,13.897 -46.25,13.882L-50.015,13.837ZM2.098,-57.655C1.854,-59.811 2.627,-60.786 4.419,-60.586C11.047,-59.879 17.225,-58.82 22.948,-57.407C24.82,-56.487 25.798,-55.802 25.883,-55.353C26.042,-53.646 25.043,-52.581 22.886,-52.16C21.439,-51.279 20.709,-50.121 20.691,-48.688L20.665,-46.401C20.647,-44.965 21.355,-44.239 22.791,-44.223L24.808,-44.198C26.241,-44.181 27.644,-45.016 29.009,-46.705C30.463,-48.481 32.056,-50.255 33.781,-52.029C35.783,-54.516 38.023,-54.355 40.502,-51.546C43.521,-48.997 46.625,-45.957 49.812,-42.421C50.783,-41.333 50.504,-40.348 48.97,-39.471C48.699,-39.384 47.666,-39.352 45.873,-39.373L22.736,-39.65C21.301,-39.666 20.576,-38.956 20.559,-37.523L20.489,-31.738C20.473,-30.303 21.225,-29.578 22.75,-29.56C24.364,-29.54 25.896,-30.372 27.354,-32.06C30.178,-35.793 32.404,-38.008 34.027,-38.707C34.473,-38.612 35.143,-38.291 36.033,-37.742C40.83,-34.006 44.421,-30.376 46.802,-26.851C47.33,-26.036 47.051,-25.277 45.967,-24.573C45.695,-24.486 44.708,-24.453 43.005,-24.474L22.424,-24.719C20.988,-24.737 20.263,-24.026 20.246,-22.592L20.164,-15.732C20.146,-14.296 20.855,-13.571 22.291,-13.554L25.653,-13.514C27.087,-13.497 28.577,-14.374 30.124,-16.152L34.761,-21.343C36.573,-22.936 37.658,-23.731 38.018,-23.727C38.287,-23.723 39,-23.4 40.159,-22.758C42.738,-20.932 46.33,-17.66 50.939,-12.944C51.821,-11.766 52.305,-10.862 52.387,-10.236C52.47,-9.696 52.06,-9.207 51.158,-8.77C50.797,-8.593 49.721,-8.518 47.928,-8.539L-12.741,-9.263C-15.702,-9.208 -18.71,-9.065 -21.761,-8.833C-23.558,-8.674 -24.805,-9.361 -25.503,-10.896C-26.288,-12.697 -26.69,-12.837 -26.709,-11.313L-27.203,30.119L-26.75,48.422C-26.324,50.398 -27.328,51.913 -29.764,52.96C-32.198,54.096 -35.881,54.501 -40.81,54.174C-42.064,53.978 -43.045,53.608 -43.756,53.062C-44.467,52.335 -44.764,51.032 -44.652,49.15C-44.634,47.624 -45.252,46.856 -46.507,46.841L-50.542,46.793C-51.978,46.775 -52.703,47.484 -52.721,48.92L-52.806,56.049C-52.907,56.943 -53.588,57.653 -54.85,58.177C-57.916,59.574 -61.869,60.112 -66.707,59.784C-69.757,59.657 -70.992,58.028 -70.418,54.896C-70.342,48.618 -70.132,42.253 -69.785,35.8L-68.869,-41.012C-68.915,-44.69 -69.096,-48.414 -69.408,-52.185C-69.656,-53.981 -68.841,-54.6 -66.964,-54.038C-62.495,-52.729 -57.314,-51.008 -51.42,-48.875L-46.039,-48.811C-44.694,-48.795 -43.296,-49.495 -41.843,-50.914C-40.664,-52.065 -39.395,-53.125 -38.037,-54.098C-36.675,-55.516 -35.459,-55.95 -34.39,-55.4C-31.091,-53.834 -27.666,-51.417 -24.117,-48.146C-23.058,-46.697 -21.634,-45.872 -19.84,-45.674C-13.035,-44.872 -6.223,-44.48 0.595,-44.487C2.028,-44.47 2.755,-45.134 2.771,-46.48C2.725,-50.068 2.498,-53.793 2.098,-57.655" style="fill:rgb(27,73,193);fill-rule:nonzero;"/>
            </g>
            <g transform="matrix(1,0,0,1,1333.99,358.291)">
                <path d="M0,-119.546C0.021,-121.339 0.925,-122.045 2.715,-121.666C8.531,-120.521 13.808,-119.246 18.546,-117.845C21.228,-117.094 23.013,-116.446 23.904,-115.898C24.794,-115.437 25.147,-114.941 24.963,-114.404C24.674,-112.703 23.404,-111.733 21.16,-111.49C19.719,-110.97 18.673,-109.815 18.024,-108.029C17.007,-105.529 15.72,-102.81 14.161,-99.868C13.245,-98.353 13.461,-97.59 14.806,-97.573L20.321,-97.508C21.755,-97.49 23.245,-98.368 24.792,-100.146C26.612,-102.364 28.612,-104.584 30.791,-106.801C32.968,-108.747 34.234,-109.72 34.594,-109.715C35.488,-109.614 36.558,-109.02 37.801,-107.928C43.214,-103.199 46.936,-99.388 48.966,-96.493C50.112,-94.954 50.232,-93.741 49.326,-92.857C48.963,-92.501 47.928,-92.335 46.225,-92.356L39.096,-92.441L32.103,-92.658L12.06,-92.898C10.624,-92.915 9.312,-92.033 8.126,-90.254C3.205,-83.764 -2.602,-78.274 -9.292,-73.778C-10.919,-72.722 -12.178,-72.512 -13.066,-73.151C-13.865,-73.787 -13.715,-75.131 -12.615,-77.182C-10.6,-80.835 -8.986,-84.357 -7.78,-87.753C-3.43,-99.09 -0.837,-109.689 0,-119.546M-52.252,-81.557C-53.688,-81.573 -54.412,-80.909 -54.428,-79.565L-54.534,-70.686C-54.553,-69.16 -53.845,-68.391 -52.409,-68.374L-33.845,-68.152C-32.411,-68.135 -31.684,-68.843 -31.667,-70.278L-31.561,-79.156C-31.544,-80.59 -32.254,-81.317 -33.688,-81.335L-52.252,-81.557ZM-52.594,-64.205C-53.938,-64.221 -54.62,-63.466 -54.639,-61.942L-54.762,-51.585C-54.779,-50.149 -54.071,-49.423 -52.636,-49.406L-34.071,-49.185C-32.638,-49.167 -31.91,-49.875 -31.893,-51.312L-31.77,-61.669C-31.751,-63.192 -32.461,-63.965 -33.895,-63.982L-52.594,-64.205ZM-52.057,-120.436C-52.305,-122.233 -51.534,-123.03 -49.74,-122.83C-41.056,-121.65 -34.925,-120.545 -31.349,-119.516C-29.656,-118.599 -28.811,-117.96 -28.814,-117.603C-28.74,-116.435 -29.738,-115.415 -31.812,-114.544C-33.168,-113.572 -33.855,-112.369 -33.872,-110.936L-33.938,-105.42C-33.955,-103.984 -33.291,-103.26 -31.946,-103.244C-30.513,-103.227 -29.11,-104.106 -27.743,-105.885C-26.29,-107.57 -24.744,-109.301 -23.108,-111.076C-22.378,-112.233 -21.428,-112.894 -20.259,-113.061C-16.87,-111.494 -12.788,-107.769 -8.015,-101.882C-7.043,-100.613 -7.056,-99.628 -8.05,-98.923C-8.322,-98.656 -9.355,-98.534 -11.148,-98.556L-31.999,-98.805C-33.435,-98.821 -34.16,-98.111 -34.178,-96.678L-34.276,-88.338C-34.294,-86.902 -33.989,-86.182 -33.361,-86.174C-32.557,-85.896 -31.293,-86.598 -29.567,-88.281C-27.033,-90.404 -25.224,-91.637 -24.143,-91.984C-23.423,-92.244 -22.528,-92.009 -21.461,-91.279C-16.028,-88.074 -12.651,-85.433 -11.33,-83.356C-10.54,-81.91 -10.959,-80.66 -12.586,-79.604C-14.127,-78.275 -14.904,-76.894 -14.922,-75.461L-15.121,-58.78L-14.878,-45.323C-14.442,-44.241 -14.904,-43.08 -16.265,-41.841C-19.242,-40.351 -23.376,-39.774 -28.663,-40.106C-30.728,-40.131 -31.926,-41.174 -32.259,-43.243C-32.337,-44.231 -32.779,-44.729 -33.586,-44.738C-34.483,-44.749 -34.94,-44.036 -34.957,-42.603L-35.082,-32.11C-35.099,-30.766 -34.347,-30.036 -32.821,-29.931C-31.298,-29.821 -29.944,-30.523 -28.759,-32.034C-27.213,-33.988 -25.484,-35.942 -23.577,-37.893C-21.769,-39.216 -19.973,-39.373 -18.189,-38.367C-14.64,-35.364 -11.624,-32.503 -9.144,-29.782C-8.267,-28.245 -7.413,-28.281 -6.586,-29.886C-1.535,-39.87 5.915,-51.532 15.761,-64.869C16.943,-66.379 16.684,-67.099 14.979,-67.031C6.725,-66.949 0.803,-66.75 -2.786,-66.436C-4.584,-66.276 -5.873,-67.055 -6.66,-68.77L-7.183,-70.12C-8.146,-72.285 -7.774,-73.267 -6.071,-73.067C0.464,-72.183 7.948,-71.69 16.379,-71.589C17.812,-71.571 19.436,-72.27 21.248,-73.684C23.873,-75.715 26.133,-77.211 28.029,-78.177C29.743,-79.233 31.937,-78.712 34.602,-76.618C40.023,-72.518 43.125,-69.296 43.904,-66.955C43.981,-66.057 43.568,-65.254 42.664,-64.548C40.859,-63.672 39.057,-62.842 37.254,-62.057C35.713,-60.818 34.169,-59.178 32.62,-57.134C23.687,-45.311 16.565,-34.723 11.254,-25.368C10.242,-23.407 9.595,-21.621 9.306,-20.011C9.206,-19.204 9.87,-18.525 11.301,-17.969C18.005,-16.095 24.062,-16.292 29.47,-18.559C31.456,-19.79 32.776,-21.433 33.43,-23.489C35.104,-28.491 36.508,-33.362 37.641,-38.104C38.112,-40.07 38.975,-40.957 40.229,-40.764C41.482,-40.658 42.053,-39.71 41.943,-37.918C41.7,-32.628 41.865,-27.738 42.441,-23.247C42.693,-21.9 43.531,-20.723 44.955,-19.72C47.096,-18.706 48.467,-17.121 49.069,-14.961C49.646,-10.739 48.081,-7.305 44.371,-4.658C41.748,-2.897 38.191,-1.593 33.697,-0.749C24.892,0.401 15.79,0.337 6.388,-0.941C2.626,-1.436 -0.904,-2.508 -4.202,-4.161C-8.566,-6.816 -10.904,-10.117 -11.215,-14.066C-11.363,-16.759 -10.834,-19.757 -9.628,-23.062C-9.074,-24.4 -9.56,-25.078 -11.084,-25.096L-32.741,-25.355C-34.177,-25.372 -34.901,-24.707 -34.917,-23.363L-35.034,-13.542L-35.031,-2.511C-34.523,0.006 -35.665,1.606 -38.452,2.292C-43.219,3.31 -47.302,3.484 -50.701,2.819C-51.595,2.358 -52.307,1.946 -52.841,1.582C-53.193,1.04 -53.358,-0.129 -53.337,-1.922C-53.288,-5.957 -53.061,-10.126 -52.649,-14.426L-52.542,-23.44C-52.524,-24.872 -53.235,-25.599 -54.669,-25.616L-64.488,-25.733C-67.092,-25.675 -69.693,-25.526 -72.296,-25.288C-74.003,-25.128 -75.247,-26.084 -76.029,-28.158L-76.419,-29.374C-77.116,-31.176 -76.569,-31.932 -74.776,-31.642C-68.151,-30.755 -61.474,-30.273 -54.748,-30.192C-53.225,-30.174 -52.453,-30.882 -52.436,-32.317L-52.311,-42.81C-52.294,-44.243 -52.688,-44.967 -53.495,-44.976C-54.394,-44.986 -54.897,-44.095 -55.008,-42.304C-54.763,-40.235 -56.17,-38.82 -59.228,-38.049C-62.017,-37.453 -65.204,-37.223 -68.789,-37.356C-71.657,-37.568 -72.849,-39.196 -72.363,-42.242C-72.228,-46.186 -72,-50.085 -71.686,-53.939L-71.386,-79.094C-71.438,-82.233 -71.624,-85.42 -71.943,-88.653C-72.192,-90.359 -71.333,-91.022 -69.363,-90.64L-54.077,-86.422C-52.554,-86.403 -51.782,-87.111 -51.765,-88.547L-51.666,-96.887C-51.648,-98.32 -52.358,-99.047 -53.792,-99.065C-59.709,-99.224 -65.048,-99.109 -69.806,-98.718C-71.872,-98.562 -73.297,-99.297 -74.084,-100.922L-74.609,-102.004C-75.392,-104.166 -74.978,-105.104 -73.365,-104.815C-67.278,-103.935 -60.781,-103.497 -53.873,-103.506C-52.35,-103.487 -51.578,-104.195 -51.562,-105.631L-51.479,-112.491C-51.629,-115.093 -51.82,-117.742 -52.057,-120.436" style="fill:rgb(0,163,255);fill-rule:nonzero;"/>
            </g>
            <g transform="matrix(1,0,0,1,1335.67,476.75)">
                <path d="M0,-79.316L-37.215,-79.76C-38.72,-79.778 -39.293,-79.032 -38.934,-77.524C-35.045,-63.115 -28.11,-48.86 -18.126,-34.755C-16.942,-33.387 -15.965,-33.299 -15.198,-34.495C-7.308,-46.731 -1.571,-61.1 2.009,-77.599C2.249,-78.799 1.579,-79.372 0,-79.316M8.574,-89.026C11.011,-91.552 13.192,-91.791 15.124,-89.737C19.146,-86.456 22.491,-83.221 25.16,-80.031C26.72,-78.433 26.514,-77.006 24.546,-75.753L21.819,-74.206C20.609,-73.618 19.807,-72.538 19.412,-70.964C15.795,-57.698 10.88,-45.874 4.665,-35.499C2.211,-31.617 -0.427,-27.927 -3.25,-24.427C-4.469,-23.088 -4.445,-21.92 -3.179,-20.929C6.742,-14.269 18.797,-9.989 32.986,-8.091C34.789,-7.995 35.572,-7.344 35.332,-6.146C35.091,-4.87 34.782,-4.235 34.407,-4.24C33.731,-4.399 32.898,-3.995 31.91,-3.028C30.001,-0.571 28.575,2.382 27.632,5.83C27.158,7.629 26.577,9.125 25.886,10.322C25.113,11.964 23.756,12.475 21.808,11.852C19.333,11.371 16.337,10.207 12.825,8.361C7.146,5.586 1.247,1.98 -4.864,-2.453C-8.146,-4.899 -11.12,-7.564 -13.793,-10.455C-14.834,-11.518 -15.999,-11.533 -17.289,-10.496C-21.997,-6.641 -27.831,-2.992 -34.788,0.461C-48.094,6.394 -58.891,10.099 -67.18,11.579C-68.688,11.861 -69.623,11.587 -69.989,10.756C-70.43,9.85 -69.932,9.065 -68.494,8.406C-59.877,4.674 -50.866,-0.709 -41.459,-7.739C-36.149,-11.585 -30.944,-16.186 -25.842,-21.538C-24.851,-22.728 -24.835,-24.082 -25.793,-25.598C-28.672,-30.144 -31.534,-35.93 -34.384,-42.958C-38.685,-54.437 -41.627,-66.166 -43.213,-78.139C-43.424,-79.344 -44.245,-79.919 -45.672,-79.861C-50.936,-79.923 -55.036,-79.784 -57.972,-79.443C-59.479,-79.31 -60.559,-80.039 -61.217,-81.626L-62.094,-83.666C-62.605,-85.026 -61.959,-85.583 -60.157,-85.336C-55.052,-84.747 -50.282,-84.352 -45.847,-84.149L0.051,-83.601C1.179,-83.587 2.501,-84.21 4.021,-85.471C5.539,-86.732 7.057,-87.916 8.574,-89.026" style="fill:rgb(0,163,255);fill-rule:nonzero;"/>
            </g>
            <g transform="matrix(1,0,0,1,1359.67,622.237)">
                <path d="M0,-99.85C-0.987,-99.862 -1.487,-99.149 -1.505,-97.715C-1.601,-89.644 -2.637,-81.806 -4.61,-74.207C-5.267,-71.972 -6.007,-69.963 -6.836,-68.18C-7.573,-66.662 -7.088,-65.939 -5.381,-66.01C-3.859,-65.901 -2.729,-66.695 -1.989,-68.391C-1.063,-70.891 -0.35,-74.426 0.154,-78.994C1.044,-85.889 1.477,-92.118 1.453,-97.68C1.471,-99.114 0.985,-99.838 0,-99.85M-11.317,-30.831C-11.303,-32.086 -12.018,-32.365 -13.46,-31.664C-14.728,-30.872 -15.366,-29.757 -15.383,-28.324L-15.741,1.674C-15.758,3.108 -15.142,3.834 -13.884,3.849C-12.45,3.866 -11.723,3.156 -11.706,1.722L-11.317,-30.831ZM-29.59,-21.632C-29.568,-23.424 -30.456,-24.287 -32.25,-24.219L-39.783,-24.309C-41.219,-24.326 -41.944,-23.616 -41.961,-22.183L-42.115,-9.27C-42.131,-7.924 -41.244,-7.241 -39.449,-7.219C-37.114,-7.461 -34.645,-7.747 -32.039,-8.073C-30.512,-8.324 -29.739,-9.076 -29.725,-10.331L-29.59,-21.632ZM-21.52,-100.375C-22.777,-100.39 -24.175,-99.644 -25.718,-98.139C-27.436,-97.082 -28.3,-95.835 -28.317,-94.402C-28.37,-90.007 -28.605,-85.392 -29.021,-80.553C-29.22,-79.12 -28.635,-79.113 -27.273,-80.532C-24.725,-83.731 -22.976,-87.431 -22.028,-91.637C-21.827,-93.518 -21.277,-94.453 -20.38,-94.442C-19.394,-94.43 -18.687,-93.524 -18.26,-91.727C-17.26,-85.257 -17.512,-79.339 -19.01,-73.976C-21.048,-68.618 -24.479,-66.595 -29.307,-67.91C-30.288,-68.459 -30.968,-67.883 -31.346,-66.185C-31.816,-64.396 -32.419,-62.654 -33.156,-60.959C-34.825,-56.406 -38.094,-53.168 -42.959,-51.256C-44.398,-50.913 -44.269,-50.508 -42.571,-50.04C-40.424,-49.565 -38.905,-49.055 -38.015,-48.506C-37.033,-48.044 -36.68,-47.592 -36.954,-47.148C-37.329,-45.895 -38.145,-45.144 -39.403,-44.889C-40.939,-44.01 -41.713,-42.943 -41.729,-41.688L-41.826,-33.483C-41.846,-31.869 -41.396,-32.042 -40.475,-34.005C-40.017,-34.895 -39.513,-35.743 -38.964,-36.543C-37.316,-39.302 -35.44,-38.698 -33.336,-34.728C-32.455,-33.459 -31.662,-32.195 -30.959,-30.931C-30.167,-29.577 -29.809,-29.751 -29.876,-31.456L-30.479,-37.383C-30.727,-39.088 -29.823,-39.75 -27.765,-39.369C-22.035,-38.494 -17.249,-37.404 -13.407,-36.104C-12.066,-35.729 -11.386,-36.438 -11.364,-38.232C-11.484,-43.255 -11.745,-47.699 -12.146,-51.56C-12.057,-51.738 -11.116,-51.636 -9.324,-51.257L-7.31,-50.964C-5.611,-50.675 -4.981,-50.713 -5.425,-51.077C-6.137,-51.711 -6.396,-52.477 -6.205,-53.373C-5.909,-55.611 -6.331,-57.949 -7.467,-60.384C-7.909,-61.016 -8.441,-61.472 -9.065,-61.749C-9.782,-61.937 -10.777,-61.141 -12.054,-59.363C-16.687,-54.305 -21.846,-50.555 -27.525,-48.112C-29.689,-47.061 -31.084,-46.897 -31.701,-47.622C-32.499,-48.44 -31.992,-49.645 -30.178,-51.237C-23.365,-58.509 -19.089,-67.384 -17.348,-77.859C-16.1,-84.927 -15.48,-91.694 -15.491,-98.151C-15.475,-99.584 -16.185,-100.312 -17.618,-100.329L-21.52,-100.375ZM-44.525,-100.381C-45.333,-100.391 -45.828,-100.306 -46.009,-100.129C-46.031,-90.801 -46.938,-82.604 -48.724,-75.542C-49.477,-72.678 -50.356,-70.314 -51.365,-68.442C-52.188,-67.107 -52.018,-66.431 -50.851,-66.417C-48.881,-66.213 -47.343,-67.271 -46.239,-69.591C-44.561,-74.954 -43.504,-84.493 -43.072,-98.211C-43.055,-99.645 -43.54,-100.37 -44.525,-100.381M-56.786,-31.374C-56.771,-32.629 -57.438,-32.907 -58.793,-32.205C-60.06,-31.413 -60.7,-30.298 -60.717,-28.865L-60.954,-8.956C-60.972,-7.523 -60.354,-6.796 -59.097,-6.781C-57.751,-6.765 -57.071,-7.477 -57.054,-8.911L-56.786,-31.374ZM-38.359,-109.86C-37.18,-111.101 -36.051,-111.625 -34.977,-111.434C-33.189,-110.874 -30.963,-109.455 -28.3,-107.183C-26.615,-105.728 -25.054,-104.993 -23.618,-104.975L-1.287,-104.708C0.146,-104.692 1.77,-105.524 3.586,-107.206C4.491,-108.002 5.353,-108.709 6.167,-109.329C8.258,-111.635 10.499,-111.517 12.891,-108.979C17.604,-105.604 20.217,-102.837 20.729,-100.679C20.807,-99.781 20.258,-98.979 19.086,-98.276C17.363,-96.771 16.494,-95.301 16.477,-93.868C16.382,-85.885 15.613,-77.869 14.172,-69.813C13.49,-65.425 12.551,-61.848 11.354,-59.083C9.147,-54.624 6.064,-51.925 2.107,-50.987C1.116,-50.73 0.084,-50.518 -0.993,-50.352C-2.339,-50.368 -2.162,-50.185 -0.463,-49.807C3.298,-49.224 5.935,-48.564 7.451,-47.829C8.967,-47.004 9.267,-45.877 8.354,-44.454C7.539,-43.836 6.727,-43.351 5.914,-43.003C4.379,-42.303 3.606,-41.282 3.59,-39.936L3.52,-34.018C3.5,-32.404 3.859,-32.535 4.601,-34.409C4.881,-35.301 5.383,-36.193 6.113,-37.081C7.389,-38.769 8.692,-39.023 10.024,-37.841C12.593,-35.209 15.24,-31.635 17.968,-27.119C18.76,-25.764 18.564,-24.69 17.391,-23.896C17.209,-23.808 16.223,-23.776 14.43,-23.797L5.821,-23.9C4.386,-23.916 3.66,-23.206 3.644,-21.774L3.396,-1.057C3.377,0.557 3.825,0.427 4.745,-1.446C5.204,-2.337 5.797,-3.228 6.526,-4.115C7.903,-6.702 9.608,-6.904 11.646,-4.727C13.854,-2.008 15.975,0.708 18.007,3.422C19.418,5.323 19.668,6.984 18.755,8.409C18.483,8.585 17.45,8.663 15.657,8.641L-26.716,8.136C-30.482,8.091 -34.297,8.223 -38.157,8.538C-39.954,8.695 -41.334,7.871 -42.298,6.066L-42.958,4.982C-43.833,3.177 -43.286,2.466 -41.318,2.849C-38.185,3.335 -35.094,3.596 -32.044,3.632C-30.61,3.649 -29.883,2.939 -29.866,1.505L-29.814,-2.799C-29.798,-4.235 -30.691,-4.515 -32.495,-3.638C-45.037,2.58 -57.192,6.426 -68.96,7.9C-70.397,8.062 -71.304,8.903 -71.68,10.424C-71.971,12.304 -72.834,13.102 -74.264,12.815C-74.89,12.54 -75.464,11.86 -75.989,10.777C-77.377,6.811 -78.799,1.908 -80.254,-3.939C-80.678,-6.097 -79.992,-7.164 -78.197,-7.144L-76.852,-7.127C-75.418,-7.111 -74.691,-7.775 -74.675,-9.121L-74.46,-27.145C-74.506,-30.823 -74.692,-34.145 -75.015,-37.108C-75.348,-39.263 -74.664,-40.198 -72.962,-39.908C-67.323,-38.943 -62.717,-37.991 -59.139,-37.053C-57.533,-36.315 -56.768,-36.709 -56.837,-38.236C-56.791,-42.09 -56.971,-45.951 -57.372,-49.813C-57.708,-51.788 -57.024,-52.634 -55.325,-52.344L-52.505,-51.907C-50.894,-51.62 -50.22,-51.699 -50.482,-52.153C-50.661,-52.423 -50.785,-53.232 -50.858,-54.579C-50.744,-56.639 -50.902,-58.391 -51.334,-59.831C-51.413,-60.728 -52.211,-61.544 -53.726,-62.283C-54.442,-62.559 -55.393,-61.808 -56.577,-60.029C-60.763,-55.145 -66.056,-51.263 -72.458,-48.378C-74.531,-47.596 -75.878,-47.522 -76.497,-48.158C-77.023,-49.15 -76.426,-50.444 -74.701,-52.037C-70.526,-56.293 -67.279,-61.501 -64.963,-67.662C-61.713,-76.952 -60.111,-87.157 -60.157,-98.28C-60.136,-100.073 -60.844,-100.979 -62.277,-100.996C-63.981,-101.106 -65.731,-101.037 -67.528,-100.79C-69.325,-100.631 -70.659,-101.499 -71.532,-103.394L-71.793,-104.07C-72.491,-105.781 -71.944,-106.538 -70.151,-106.338C-65.766,-105.747 -62.225,-105.436 -59.534,-105.404L-45.947,-105.242C-44.514,-105.224 -42.89,-106.057 -41.075,-107.74C-40.17,-108.536 -39.264,-109.242 -38.359,-109.86M-99.82,-111.804C-99.453,-112.607 -98.417,-112.952 -96.714,-112.843C-91.064,-112.685 -85.792,-111.051 -80.896,-107.945C-76.538,-104.934 -74.608,-101.232 -75.108,-96.844C-75.908,-90.037 -79.937,-86.946 -87.193,-87.571C-89.347,-87.505 -91.167,-89.098 -92.652,-92.345C-93,-93.335 -93.292,-95.131 -93.53,-97.737C-94.37,-102.59 -95.673,-106.148 -97.439,-108.412C-99.303,-110.048 -100.096,-111.178 -99.82,-111.804M-66.823,-92.171C-66.532,-94.051 -65.938,-94.986 -65.04,-94.975C-64.055,-94.963 -63.349,-94.057 -62.92,-92.259C-61.916,-86.237 -62.118,-80.588 -63.526,-75.314C-65.203,-70.131 -68.147,-67.655 -72.359,-67.885C-73.794,-67.991 -74.746,-67.151 -75.215,-65.364L-79.228,-44.827C-81.233,-34.626 -82.575,-27.511 -83.249,-23.484C-83.582,-18.194 -82.733,-10.335 -80.705,0.092C-80.451,1.35 -80.477,3.503 -80.782,6.548C-81.165,8.515 -82.528,10.026 -84.873,11.075C-86.765,11.86 -89.279,12.007 -92.411,11.523C-98.504,10.821 -101.245,7.603 -100.638,1.873C-100.245,-1.083 -99.331,-6.141 -97.901,-13.298C-97.323,-16.609 -99.307,-19.413 -103.854,-21.711C-105.818,-22.541 -106.706,-23.448 -106.513,-24.433C-106.32,-25.595 -105.372,-26.168 -103.667,-26.148C-99.54,-26.278 -96.246,-28.032 -93.783,-31.412C-91.092,-39.092 -88.442,-46.774 -85.839,-54.457C-85.283,-55.975 -85.773,-56.294 -87.308,-55.417C-88.843,-54.716 -90.37,-54.377 -91.895,-54.396C-96.385,-53.999 -99.051,-56.139 -99.891,-60.814C-100.105,-65.301 -100.602,-68.848 -101.378,-71.46C-101.808,-73.08 -102.549,-74.704 -103.607,-76.33C-105.293,-77.875 -105.996,-79.004 -105.72,-79.719C-105.261,-80.609 -104.224,-81 -102.61,-80.893C-97.146,-80.468 -91.876,-78.567 -86.803,-75.189C-84.403,-73.276 -82.904,-71.328 -82.299,-69.349C-81.87,-67.729 -81.33,-67.812 -80.682,-69.599C-79.007,-74.601 -77.288,-79.603 -75.523,-84.606C-74.877,-86.301 -74.015,-87.01 -72.941,-86.728C-71.957,-86.626 -71.656,-85.545 -72.039,-83.488C-71.953,-83.306 -71.955,-83.127 -72.045,-82.95C-72.334,-81.339 -71.796,-81.286 -70.433,-82.796C-68.432,-85.283 -67.228,-88.409 -66.823,-92.171" style="fill:rgb(0,163,255);fill-rule:nonzero;"/>
            </g>
            <g transform="matrix(1,0,0,1,1327.71,761.428)">
                <path d="M0,-100.144C3.781,-100.013 6.878,-97.606 9.291,-92.923C10.722,-89.728 10.945,-86.871 9.959,-84.353C7.193,-77.491 4.283,-70.947 1.234,-64.726C-4.209,-53.304 -8.612,-43.595 -11.976,-35.597C-12.292,-34.474 -12.575,-33.296 -12.827,-32.064C-13.229,-30.311 -14.289,-29.679 -16.016,-30.164L-18.865,-30.963C-20.594,-31.45 -21.146,-32.628 -20.526,-34.504C-18.778,-40.068 -17.467,-48.224 -16.591,-58.971C-15.791,-72.44 -14.552,-82.991 -12.873,-90.624C-12.623,-92.51 -11.549,-94.349 -9.647,-96.145C-6.544,-98.908 -3.327,-100.241 0,-100.144M-23.856,-23.143C-19.372,-23.187 -15.62,-21.621 -12.6,-18.446C-11.286,-16.492 -10.692,-14.461 -10.816,-12.355C-11.069,-8.141 -12.593,-4.705 -15.388,-2.041C-17.304,-0.531 -19.716,0.097 -22.624,-0.161C-25.36,-0.37 -27.945,-1.284 -30.379,-2.897C-31.997,-4.098 -33.134,-5.861 -33.785,-8.185C-34.376,-13.38 -33.089,-17.63 -29.926,-20.935C-27.838,-22.397 -25.815,-23.134 -23.856,-23.143" style="fill:rgb(0,163,255);fill-rule:nonzero;"/>
            </g>
        </g>
    </g>
</svg>
