<?xml version="1.0" encoding="UTF-8" standalone="no"?>
<!DOCTYPE svg PUBLIC "-//W3C//DTD SVG 1.1//EN" "http://www.w3.org/Graphics/SVG/1.1/DTD/svg11.dtd">
<svg width="100%" height="100%" viewBox="0 0 588 87" version="1.1" xmlns="http://www.w3.org/2000/svg" xmlns:xlink="http://www.w3.org/1999/xlink" xml:space="preserve" xmlns:serif="http://www.serif.com/" style="fill-rule:evenodd;clip-rule:evenodd;stroke-linejoin:round;stroke-miterlimit:2;">
    <g transform="matrix(0.375,0,0,0.375,-215.67,-125.253)">
        <g transform="matrix(2.66667,0,0,2.66667,1278.55,449.999)">
            <path d="M0,0.001C0,24.023 -17.414,43.498 -38.896,43.498L-224.892,43.498C-246.374,43.498 -263.788,24.023 -263.788,0.001C-263.788,-24.022 -246.374,-43.497 -224.892,-43.497L-38.896,-43.497C-17.414,-43.497 0,-24.022 0,0.001" style="fill:rgb(242,234,94);fill-rule:nonzero;"/>
        </g>
        <g transform="matrix(2.66667,0,0,2.66667,0,-10330.1)">
            <g transform="matrix(1,0,0,1,255.601,4055.5)">
                <path d="M0,-39.26C0.318,-39.624 0.934,-39.715 1.846,-39.533C3.623,-39.168 5.423,-38.394 7.246,-37.209C10.618,-35.113 11.689,-32.515 10.459,-29.416C9.957,-28.277 9.183,-27.571 8.135,-27.297C7.223,-26.978 6.106,-26.932 4.785,-27.16C3.555,-27.615 2.848,-28.345 2.666,-29.348C2.393,-30.305 2.301,-31.512 2.393,-32.971C2.347,-34.475 1.777,-35.955 0.684,-37.414C-0.092,-38.325 -0.319,-38.941 0,-39.26M4.785,-51.496C7.474,-51.861 9.729,-51.815 11.553,-51.36C13.877,-51.04 15.335,-49.81 15.928,-47.668C16.201,-45.754 15.859,-44.227 14.902,-43.088C14.264,-42.586 14.424,-42.336 15.381,-42.336C16.292,-42.336 17.09,-42.791 17.773,-43.703C18.502,-44.569 19.254,-45.457 20.029,-46.369C20.94,-47.691 21.807,-47.987 22.627,-47.258C24.312,-46.028 26.067,-44.364 27.891,-42.268C28.711,-41.265 28.779,-40.604 28.096,-40.285C27.867,-40.149 27.298,-40.08 26.387,-40.08L16.064,-40.08C15.381,-40.08 15.472,-39.966 16.338,-39.739C20.029,-38.781 22.74,-37.869 24.473,-37.004C25.43,-36.639 25.748,-36.115 25.43,-35.432C25.338,-35.249 24.859,-35.022 23.994,-34.748C23.128,-34.612 22.422,-34.11 21.875,-33.244C20.553,-31.194 18.821,-29.302 16.68,-27.571C15.904,-27.024 15.882,-26.75 16.611,-26.75L17.91,-26.75C18.639,-26.75 19.3,-27.205 19.893,-28.117C20.53,-29.029 21.26,-29.917 22.08,-30.783C22.764,-31.831 23.401,-32.082 23.994,-31.535C25.315,-30.578 26.683,-29.324 28.096,-27.776C28.779,-26.955 29.121,-26.932 29.121,-27.707L29.121,-37.619C28.984,-39.989 28.824,-42.359 28.643,-44.729C28.506,-45.822 28.848,-46.255 29.668,-46.028C32.584,-45.207 35.228,-44.364 37.598,-43.498C38.326,-43.27 39.146,-43.406 40.059,-43.908C42.747,-45.503 45.276,-47.691 47.646,-50.471C48.375,-51.336 49.219,-51.428 50.176,-50.744C53.958,-47.873 56.602,-45.594 58.105,-43.908C58.424,-43.088 58.287,-42.495 57.695,-42.131C57.012,-41.903 56.26,-42.017 55.439,-42.473C54.983,-42.61 54.527,-42.632 54.072,-42.541C49.104,-41.311 44.319,-40.74 39.717,-40.832C38.805,-40.832 38.35,-40.49 38.35,-39.807L38.35,-28.528C38.35,-27.798 38.714,-27.434 39.443,-27.434L44.229,-27.434C44.957,-27.434 45.664,-27.889 46.348,-28.801C47.213,-29.895 48.147,-31.033 49.15,-32.219C50.198,-33.221 51.133,-33.563 51.953,-33.244C53.32,-32.378 55.303,-30.464 57.9,-27.502C58.721,-26.636 58.902,-25.906 58.447,-25.315C58.219,-25.086 57.672,-24.973 56.807,-24.973L52.842,-24.973C52.066,-24.973 51.68,-24.608 51.68,-23.879L51.68,1.414L51.885,8.386C52.066,9.662 51.998,10.528 51.68,10.984C51.314,11.668 50.449,12.1 49.082,12.283C47.988,12.511 46.644,12.601 45.049,12.556C43.135,12.465 42.314,11.622 42.588,10.027C42.633,6.883 42.701,3.715 42.793,0.525L42.793,-23.879C42.793,-24.608 42.428,-24.973 41.699,-24.973L39.512,-24.973C38.736,-24.973 38.35,-24.608 38.35,-23.879C38.577,-14.582 37.119,-6.424 33.975,0.594C31.878,5.424 28.255,9.252 23.105,12.078C22.239,12.442 21.602,12.442 21.191,12.078C20.781,11.668 20.918,11.007 21.602,10.095C25.02,4.718 27.093,-0.682 27.822,-6.106C28.187,-8.201 28.46,-10.549 28.643,-13.147C28.687,-13.875 28.665,-14.172 28.574,-14.035C28.255,-13.716 27.64,-13.625 26.729,-13.762L17.09,-13.762C16.36,-13.762 15.996,-13.352 15.996,-12.531C15.996,-11.711 16.429,-11.255 17.295,-11.164C19.893,-10.754 22.148,-9.865 24.062,-8.498C26.204,-6.721 26.865,-4.556 26.045,-2.004C25.361,-0.318 24.176,0.48 22.49,0.388C21.168,0.571 20.143,-0.022 19.414,-1.389C19.095,-1.936 18.821,-2.824 18.594,-4.055C18.365,-5.604 17.842,-6.971 17.021,-8.156C16.338,-8.885 15.996,-8.885 15.996,-8.156L15.996,5.31L16.064,9.07C16.064,9.981 15.928,10.665 15.654,11.121C14.879,11.895 13.307,12.328 10.938,12.42L9.229,12.488C8.043,12.579 7.291,12.1 6.973,11.053C7.109,6.996 7.2,2.94 7.246,-1.115C7.246,-1.844 6.881,-1.753 6.152,-0.842C3.463,2.074 0.433,4.467 -2.939,6.336C-4.033,6.928 -4.74,6.996 -5.059,6.541C-5.424,6.085 -5.264,5.492 -4.58,4.763C-0.114,-0.569 3.053,-6.356 4.922,-12.6C5.149,-13.42 4.922,-13.83 4.238,-13.83C2.051,-13.921 -0.114,-13.83 -2.256,-13.557C-3.168,-13.42 -3.896,-13.899 -4.443,-14.992L-4.785,-15.608C-5.241,-16.473 -4.968,-16.815 -3.965,-16.633C-1.596,-16.268 1.777,-16.086 6.152,-16.086C6.927,-16.086 7.314,-16.428 7.314,-17.112C7.269,-19.026 7.086,-20.871 6.768,-22.649C6.631,-23.514 7.018,-23.879 7.93,-23.742C12.396,-23.24 15.677,-22.58 17.773,-21.76C19.141,-21.121 19.117,-20.415 17.705,-19.641C17.477,-19.595 17.135,-19.458 16.68,-19.231C16.27,-18.957 16.064,-18.342 16.064,-17.385C16.064,-16.428 16.36,-15.949 16.953,-15.949C17.545,-15.949 18.252,-16.382 19.072,-17.248C19.71,-18.023 20.303,-18.797 20.85,-19.573C21.533,-20.484 22.012,-20.962 22.285,-21.008C22.74,-21.053 23.174,-20.894 23.584,-20.53C25.133,-19.253 26.568,-17.84 27.891,-16.291C28.482,-15.425 28.802,-15.425 28.848,-16.291C28.984,-18.66 29.053,-21.031 29.053,-23.401C29.098,-24.129 28.665,-24.494 27.754,-24.494L25.225,-24.426L7.861,-24.426L-1.23,-24.289L-2.529,-24.221C-3.578,-24.084 -4.307,-24.448 -4.717,-25.315L-5.059,-26.272C-5.515,-27.183 -5.287,-27.571 -4.375,-27.434C-1.777,-27.069 0.729,-26.841 3.145,-26.75L11.006,-26.75C11.734,-26.75 12.236,-27.205 12.51,-28.117C13.558,-31.717 14.173,-35.34 14.355,-38.987C14.355,-39.715 13.99,-40.08 13.262,-40.08L3.486,-40.08C1.8,-40.034 0.091,-39.944 -1.641,-39.807C-2.553,-39.715 -3.259,-40.103 -3.76,-40.969L-4.17,-41.858C-4.626,-42.723 -4.33,-43.088 -3.281,-42.951C-0.775,-42.632 1.48,-42.449 3.486,-42.405L7.998,-42.405C8.727,-42.405 8.75,-42.86 8.066,-43.772L6.904,-46.438C6.312,-47.668 5.469,-48.602 4.375,-49.24C3.463,-49.696 3.076,-50.152 3.213,-50.608C3.35,-51.018 3.873,-51.314 4.785,-51.496" style="fill:white;fill-rule:nonzero;"/>
            </g>
            <g transform="matrix(1,0,0,1,350.757,4060.97)">
                <path d="M0,-49.789C0.318,-50.244 0.934,-50.473 1.846,-50.473C4.762,-50.29 7.496,-49.516 10.049,-48.148C13.694,-46.325 15.062,-43.637 14.15,-40.082C13.922,-39.079 13.307,-38.236 12.305,-37.553C11.211,-36.914 9.957,-36.664 8.545,-36.801C7.633,-36.937 6.812,-37.598 6.084,-38.783C5.674,-39.467 5.309,-40.355 4.99,-41.449C4.307,-44.047 2.916,-46.303 0.82,-48.217C0,-48.809 -0.273,-49.333 0,-49.789M-1.914,-31.947C-1.641,-32.402 -1.049,-32.607 -0.137,-32.562C1.412,-32.562 3.189,-32.243 5.195,-31.605C7.383,-30.922 9.16,-29.941 10.527,-28.666C12.441,-26.797 13.125,-24.838 12.578,-22.787C12.486,-21.83 12.054,-20.918 11.279,-20.053C9.41,-18.64 7.542,-18.344 5.674,-19.164C4.397,-20.075 3.6,-21.374 3.281,-23.06C3.008,-23.972 2.688,-24.86 2.324,-25.727C1.504,-27.458 0.41,-28.916 -0.957,-30.102C-1.869,-30.876 -2.188,-31.491 -1.914,-31.947M14.834,-55.531C14.742,-56.625 15.13,-57.103 15.996,-56.967C21.328,-56.191 24.974,-55.28 26.934,-54.232C27.344,-53.32 26.751,-52.546 25.156,-51.908C24.473,-51.315 24.131,-50.632 24.131,-49.857L24.131,-21.352C24.131,-20.622 24.268,-20.69 24.541,-21.557C25.133,-23.516 25.68,-24.86 26.182,-25.59C26.363,-25.908 26.683,-26.022 27.139,-25.932C27.412,-25.886 27.662,-25.749 27.891,-25.521C31.217,-22.103 33.086,-19.597 33.496,-18.002C33.541,-17.728 33.359,-17.477 32.949,-17.25L25.225,-15.746C24.495,-15.609 24.131,-15.176 24.131,-14.447L24.131,-5.766L24.336,4.42C24.563,5.741 23.789,6.539 22.012,6.813C19.505,7.314 17.568,7.268 16.201,6.676C15.335,6.357 14.971,5.605 15.107,4.42C15.152,0.91 15.221,-2.644 15.313,-6.244L15.313,-12.738C15.313,-13.467 14.856,-13.764 13.945,-13.627C6.197,-12.396 0.342,-11.211 -3.623,-10.072C-4.626,-9.753 -5.424,-10.026 -6.016,-10.893L-6.562,-11.508C-7.246,-12.465 -7.133,-12.966 -6.221,-13.012C-1.162,-13.467 5.65,-14.584 14.219,-16.361C14.947,-16.498 15.313,-16.931 15.313,-17.66L15.313,-48.559C15.221,-50.883 15.062,-53.207 14.834,-55.531M-11.621,-56.01C-10.664,-56.875 -9.753,-56.967 -8.887,-56.283C-5.15,-53.503 -2.689,-51.315 -1.504,-49.721C-1.413,-48.581 -2.028,-48.217 -3.35,-48.627L-4.58,-48.9C-4.899,-49.037 -5.355,-48.969 -5.947,-48.695C-7.406,-48.239 -8.864,-47.807 -10.322,-47.396C-11.052,-47.168 -11.416,-46.713 -11.416,-46.029L-11.416,-37.894C-11.416,-37.165 -11.371,-36.777 -11.279,-36.732C-11.188,-36.732 -10.847,-37.187 -10.254,-38.1C-9.115,-39.968 -8.227,-41.244 -7.588,-41.928C-7.041,-42.383 -6.586,-42.475 -6.221,-42.201C-5.036,-41.426 -3.327,-39.694 -1.094,-37.006C-0.273,-36.185 -0.068,-35.434 -0.479,-34.75C-0.661,-34.567 -1.208,-34.476 -2.119,-34.476L-10.391,-34.476C-11.12,-34.476 -11.484,-34.111 -11.484,-33.383L-11.484,-30.648C-11.484,-29.919 -11.029,-29.486 -10.117,-29.35C-8.249,-28.984 -6.449,-28.256 -4.717,-27.162C-1.345,-24.701 -0.479,-21.738 -2.119,-18.275C-3.532,-16.406 -5.492,-15.837 -7.998,-16.566C-8.591,-16.657 -9.138,-17.204 -9.639,-18.207C-10.004,-19.118 -10.072,-20.212 -9.844,-21.488C-9.707,-23.356 -10.004,-24.951 -10.732,-26.273C-11.279,-26.957 -11.553,-26.934 -11.553,-26.205L-11.553,-4.398L-11.279,4.42C-11.188,5.331 -11.645,5.992 -12.646,6.402C-14.196,6.813 -16.02,7.018 -18.115,7.018C-19.848,6.972 -20.554,6.083 -20.234,4.352C-20.234,1.891 -20.212,-0.639 -20.166,-3.236L-20.166,-15.678C-20.166,-16.452 -20.485,-16.361 -21.123,-15.404C-23.356,-12.351 -25.817,-9.821 -28.506,-7.816C-29.372,-7.224 -30.033,-7.133 -30.488,-7.543C-30.854,-7.861 -30.739,-8.545 -30.146,-9.594C-25.681,-17.204 -22.9,-25.156 -21.807,-33.451C-21.762,-34.18 -22.104,-34.545 -22.832,-34.545C-24.564,-34.499 -26.318,-34.408 -28.096,-34.271C-29.145,-34.135 -29.851,-34.499 -30.215,-35.365L-30.625,-36.254C-30.99,-37.165 -30.739,-37.575 -29.873,-37.484C-26.592,-37.028 -23.721,-36.846 -21.26,-36.937C-20.531,-36.937 -20.166,-37.302 -20.166,-38.031L-20.166,-44.73C-20.166,-45.459 -20.622,-45.778 -21.533,-45.687C-23.949,-45.459 -26.091,-45.3 -27.959,-45.209C-28.871,-45.163 -29.44,-45.414 -29.668,-45.961C-29.896,-46.508 -29.509,-46.872 -28.506,-47.055C-22.764,-48.376 -17.136,-51.361 -11.621,-56.01" style="fill:white;fill-rule:nonzero;"/>
            </g>
            <g transform="matrix(1,0,0,1,423.491,4038.73)">
                <path d="M0,-5.674C-0.684,-5.674 -0.889,-5.195 -0.615,-4.238C0.934,0.502 3.326,4.557 6.562,7.93C7.428,8.705 8.135,8.727 8.682,7.998C11.553,4.125 13.604,-0.069 14.834,-4.58C15.016,-5.309 14.742,-5.674 14.014,-5.674L0,-5.674ZM3.555,-18.184C3.555,-18.958 3.189,-19.346 2.461,-19.346L-1.162,-19.346L-4.922,-19.072C-5.651,-18.981 -5.856,-18.685 -5.537,-18.184C-4.809,-16.68 -5.378,-16.065 -7.246,-16.338L-13.535,-16.338C-14.265,-16.338 -14.629,-15.973 -14.629,-15.244L-14.629,-4.375C-14.629,-3.692 -14.15,-3.441 -13.193,-3.623C-11.826,-3.942 -10.437,-4.329 -9.023,-4.785C-8.295,-5.013 -8.112,-5.491 -8.477,-6.221C-8.659,-6.539 -8.818,-6.859 -8.955,-7.178C-9.457,-8.226 -9.297,-8.704 -8.477,-8.613C-6.016,-8.34 -3.532,-8.157 -1.025,-8.067L2.461,-8.067C3.189,-8.067 3.555,-8.431 3.555,-9.16L3.555,-18.184ZM3.076,-34.863C3.076,-34.954 3.531,-34.932 4.443,-34.795C8.545,-34.111 11.712,-33.45 13.945,-32.813C14.947,-32.311 15.472,-31.969 15.518,-31.787C15.608,-31.149 15.244,-30.762 14.424,-30.625C13.968,-30.488 13.58,-30.328 13.262,-30.147C12.988,-29.873 12.852,-29.371 12.852,-28.643L12.852,-22.764C12.852,-21.988 13.216,-21.602 13.945,-21.602L16.27,-21.602C16.998,-21.602 17.682,-22.057 18.32,-22.969C19.186,-24.199 20.325,-25.567 21.738,-27.07C22.057,-27.481 22.49,-27.594 23.037,-27.412C23.629,-27.184 24.541,-26.478 25.771,-25.293C26.865,-24.29 27.936,-23.219 28.984,-22.08C30.169,-21.123 30.442,-20.279 29.805,-19.551C29.713,-19.459 29.212,-19.414 28.301,-19.414L13.877,-19.414C13.147,-19.414 12.783,-19.049 12.783,-18.32L12.783,-9.297C12.783,-8.522 13.147,-8.135 13.877,-8.135C14.605,-8.135 15.426,-8.522 16.338,-9.297C17.477,-10.254 18.411,-10.96 19.141,-11.416C20.006,-12.054 20.872,-11.94 21.738,-11.074C23.652,-9.844 25.521,-8.294 27.344,-6.426C27.891,-5.742 27.662,-5.15 26.66,-4.649L25.361,-3.897C24.632,-3.486 24.131,-2.825 23.857,-1.914C22.034,3.054 19.3,7.885 15.654,12.578C14.971,13.353 15.016,13.945 15.791,14.355C19.71,16.224 24.131,17.341 29.053,17.705C30.055,17.705 30.511,17.978 30.42,18.525C30.328,19.117 30.055,19.505 29.6,19.687C27.913,20.553 26.91,21.851 26.592,23.584C26.363,24.495 26.136,25.406 25.908,26.318C25.816,27.412 25.315,28.027 24.404,28.164C22.308,27.708 19.937,26.842 17.295,25.566C14.788,24.427 12.305,22.854 9.844,20.849C9.068,20.12 8.294,20.097 7.52,20.781C1.549,25.657 -5.332,28.46 -13.125,29.189C-14.037,29.28 -14.675,29.075 -15.039,28.574C-15.313,28.027 -14.994,27.549 -14.082,27.139C-7.52,24.449 -2.006,20.53 2.461,15.381C3.235,14.515 3.35,13.627 2.803,12.715C-0.205,7.748 -2.233,1.982 -3.281,-4.58C-3.418,-5.401 -3.92,-5.787 -4.785,-5.742L-5.469,-5.674C-6.289,-5.537 -6.631,-5.24 -6.494,-4.785C-6.312,-4.238 -6.677,-3.531 -7.588,-2.666C-9.685,-0.843 -11.599,0.593 -13.33,1.64C-14.196,2.187 -14.629,2.826 -14.629,3.555L-14.629,21.328C-14.675,23.333 -15.609,25.11 -17.432,26.66C-19.848,28.164 -22.104,28.984 -24.199,29.121C-25.111,29.258 -25.681,28.916 -25.908,28.096C-26.045,26.91 -26.364,25.543 -26.865,23.994C-26.957,23.082 -27.617,22.285 -28.848,21.601C-29.395,21.328 -29.941,21.077 -30.488,20.849C-31.4,20.53 -31.811,20.074 -31.719,19.482C-31.628,18.799 -31.127,18.502 -30.215,18.594C-28.21,18.73 -26.296,18.799 -24.473,18.799C-24.108,18.707 -23.835,18.525 -23.652,18.252C-23.607,18.115 -23.584,17.682 -23.584,16.953L-23.584,7.724C-23.584,6.95 -24.04,6.791 -24.951,7.246L-27.207,8.135C-27.937,8.408 -28.483,9.001 -28.848,9.912C-29.076,10.687 -29.463,11.029 -30.01,10.937C-30.146,10.937 -30.512,10.39 -31.104,9.297C-31.97,6.426 -32.744,3.259 -33.428,-0.205C-33.61,-1.116 -33.269,-1.595 -32.402,-1.641C-29.668,-1.641 -27.094,-1.754 -24.678,-1.983C-23.949,-2.028 -23.584,-2.415 -23.584,-3.145L-23.584,-15.176C-23.584,-15.904 -23.949,-16.27 -24.678,-16.27C-26.273,-16.27 -28.164,-16.178 -30.352,-15.996C-31.264,-15.904 -31.947,-16.361 -32.402,-17.363L-32.676,-18.047C-33.086,-18.958 -32.836,-19.322 -31.924,-19.141C-29.372,-18.731 -26.957,-18.526 -24.678,-18.526C-23.949,-18.526 -23.584,-18.89 -23.584,-19.619L-23.584,-26.66C-23.63,-29.349 -23.767,-31.651 -23.994,-33.565C-24.086,-34.476 -23.676,-34.886 -22.764,-34.795C-19.255,-34.43 -16.088,-33.883 -13.262,-33.154C-12.26,-32.789 -12.031,-32.22 -12.578,-31.445C-13.034,-31.217 -13.49,-30.944 -13.945,-30.625C-14.401,-30.169 -14.629,-29.576 -14.629,-28.848L-14.629,-20.371C-14.629,-19.596 -14.355,-19.688 -13.809,-20.645C-12.897,-22.149 -11.963,-23.174 -11.006,-23.721C-10.778,-23.721 -10.551,-23.653 -10.322,-23.516C-9.548,-22.923 -8.887,-22.308 -8.34,-21.67C-7.565,-20.85 -7.338,-20.758 -7.656,-21.397C-7.976,-22.08 -7.634,-22.33 -6.631,-22.149C-3.852,-21.783 -0.82,-21.602 2.461,-21.602C3.189,-21.602 3.555,-21.966 3.555,-22.695L3.555,-27.481C3.463,-29.942 3.304,-32.403 3.076,-34.863" style="fill:white;fill-rule:nonzero;"/>
            </g>
            <g transform="matrix(1,0,0,1,499.644,4019.2)">
                <path d="M0,33.473C-0.684,33.473 -1.025,33.838 -1.025,34.567L-1.025,41.061C-1.025,41.789 -0.661,42.155 0.068,42.155L9.023,42.155C9.752,42.155 10.117,41.813 10.117,41.129L10.117,34.567C10.117,33.838 9.775,33.473 9.092,33.473L0,33.473ZM2.871,-6.859C2.598,-7.543 2.21,-7.519 1.709,-6.791C0.979,-5.834 0.182,-4.853 -0.684,-3.851C-1.322,-3.122 -1.186,-2.712 -0.273,-2.621C0.547,-2.529 1.367,-2.347 2.188,-2.074C4.512,-1.208 5.787,0.296 6.016,2.438C6.243,4.215 5.696,5.651 4.375,6.744C3.555,7.155 3.44,7.36 4.033,7.36L7.109,7.36C7.838,7.36 8.431,7.201 8.887,6.881C10.436,5.56 11.575,4.786 12.305,4.557C12.623,4.557 12.396,4.239 11.621,3.6C7.52,0.228 4.603,-3.258 2.871,-6.859M-5.469,9.684C-6.244,9.684 -6.631,10.026 -6.631,10.709L-6.631,14.059C-6.631,14.788 -6.267,15.153 -5.537,15.153L7.246,15.153C8.021,15.153 8.408,14.788 8.408,14.059L8.408,10.778C8.408,10.049 8.043,9.684 7.314,9.684L-5.469,9.684ZM-5.469,17.477C-6.244,17.477 -6.631,17.819 -6.631,18.502C-6.631,19.733 -6.654,20.987 -6.699,22.262C-6.654,22.992 -6.289,23.356 -5.605,23.356L7.246,23.356C8.021,23.356 8.408,22.992 8.408,22.262L8.408,18.571C8.408,17.842 8.043,17.477 7.314,17.477L-5.469,17.477ZM-2.666,0.182C-3.213,-0.456 -3.852,-0.41 -4.58,0.319C-6.631,2.233 -8.705,3.783 -10.801,4.967C-11.576,5.423 -11.553,5.787 -10.732,6.061L-6.357,7.36L-1.299,7.36C-0.57,7.36 -0.434,7.178 -0.889,6.813C-1.345,6.358 -1.618,5.697 -1.709,4.83C-1.709,3.099 -2.028,1.549 -2.666,0.182M-6.152,-13.968C-5.925,-15.062 -5.378,-15.472 -4.512,-15.199C-0.82,-14.15 2.324,-13.148 4.922,-12.191C5.56,-11.963 6.061,-11.667 6.426,-11.302C6.699,-10.983 6.607,-10.619 6.152,-10.209C6.016,-10.072 5.65,-9.912 5.059,-9.73C4.466,-9.548 4.58,-9.023 5.4,-8.158C7.086,-6.699 8.887,-5.583 10.801,-4.808C14.492,-3.304 18.57,-2.438 23.037,-2.211C24.039,-2.165 24.495,-1.845 24.404,-1.254C24.312,-0.707 23.812,-0.091 22.9,0.592C22.125,1.732 21.646,3.395 21.465,5.582C21.51,6.358 21.282,7.041 20.781,7.633C20.188,8.135 19.414,8.203 18.457,7.838C17.728,7.611 17.75,7.884 18.525,8.659C19.163,9.388 19.117,10.049 18.389,10.641C17.158,11.507 16.68,12.373 16.953,13.239L16.953,18.434C17.135,21.761 17.295,24.063 17.432,25.338C17.613,26.068 17.249,26.705 16.338,27.252C14.332,27.936 12.213,28.141 9.98,27.868C8.932,27.64 8.431,27.093 8.477,26.227C8.477,25.909 8.111,25.748 7.383,25.748L-5.811,25.748C-6.54,25.748 -6.973,26.204 -7.109,27.116C-7.109,27.389 -7.133,27.662 -7.178,27.936C-7.27,28.665 -6.95,29.166 -6.221,29.44C-4.535,29.987 -2.78,30.534 -0.957,31.08L8.75,31.08C9.479,31.08 10.276,30.716 11.143,29.987L13.193,28.209C13.968,27.845 14.879,28.028 15.928,28.756C17.659,29.713 19.004,30.557 19.961,31.285C20.872,31.878 21.191,32.516 20.918,33.2C20.781,33.519 20.439,33.907 19.893,34.362C19.072,34.909 18.775,35.592 19.004,36.412L19.004,43.385L19.141,45.573C19.141,46.438 18.98,47.099 18.662,47.555C18.297,47.919 17.842,48.147 17.295,48.239C15.699,48.649 13.854,48.808 11.758,48.717C11.211,48.671 10.709,48.375 10.254,47.828C10.162,47.6 10.117,47.031 10.117,46.119L10.117,45.368C10.117,44.638 9.775,44.274 9.092,44.274L0.068,44.274C-0.661,44.274 -1.025,44.729 -1.025,45.641C-1.071,46.598 -1.322,47.304 -1.777,47.76C-3.464,48.625 -5.697,48.945 -8.477,48.717C-9.753,48.489 -10.3,47.805 -10.117,46.666C-10.026,45.983 -9.98,45.322 -9.98,44.684C-9.98,43.909 -9.958,43.088 -9.912,42.223L-9.912,36.344C-9.912,35.524 -10.117,35.616 -10.527,36.618C-12.123,40.217 -14.675,43.202 -18.184,45.573C-19.277,46.301 -20.326,46.894 -21.328,47.35C-22.194,47.76 -22.787,47.76 -23.105,47.35C-23.379,46.894 -23.105,46.21 -22.285,45.299C-19.597,41.608 -17.797,37.233 -16.885,32.174C-16.11,28.119 -15.678,24.131 -15.586,20.211L-15.586,13.102C-15.632,11.598 -15.723,10.118 -15.859,8.659C-15.905,7.93 -16.384,7.747 -17.295,8.112C-18.207,8.477 -19.118,8.795 -20.029,9.069C-20.941,9.297 -21.488,9.183 -21.67,8.727C-21.898,8.226 -21.557,7.633 -20.645,6.95C-19.643,6.221 -18.662,5.423 -17.705,4.557C-17.021,3.919 -17.045,3.6 -17.773,3.6L-21.533,3.6C-22.263,3.6 -22.627,3.965 -22.627,4.694L-22.627,14.127C-22.627,14.857 -22.172,15.13 -21.26,14.948L-17.91,13.991C-16.862,13.626 -16.225,13.626 -15.996,13.991C-15.769,14.537 -15.974,15.199 -16.611,15.973C-18.07,17.796 -19.711,19.369 -21.533,20.69C-22.263,21.237 -22.627,21.875 -22.627,22.604L-22.627,40.377C-22.673,41.288 -22.855,42.177 -23.174,43.043C-23.447,43.954 -24.086,44.843 -25.088,45.709C-27.686,47.623 -30.283,48.58 -32.881,48.58C-33.337,48.58 -33.701,48.261 -33.975,47.623C-34.248,45.162 -34.772,43.339 -35.547,42.155C-36.367,41.288 -37.438,40.673 -38.76,40.309C-39.58,39.944 -39.945,39.465 -39.854,38.873C-39.717,38.235 -39.238,37.961 -38.418,38.053C-36.367,38.19 -34.385,38.258 -32.471,38.258C-31.65,37.939 -31.377,37.325 -31.65,36.412L-31.65,26.432C-31.65,25.703 -32.084,25.498 -32.949,25.817L-34.111,26.159C-34.567,26.387 -34.841,26.866 -34.932,27.594C-34.978,28.187 -35.251,28.575 -35.752,28.756C-36.254,28.985 -36.618,28.734 -36.846,28.004C-37.348,26.956 -37.895,25.157 -38.486,22.604C-38.896,21.055 -39.238,19.483 -39.512,17.887C-39.785,16.793 -39.489,16.246 -38.623,16.246L-37.803,16.315L-33.018,16.315C-32.106,16.27 -31.65,15.882 -31.65,15.153L-31.65,4.762C-31.65,4.034 -31.992,3.668 -32.676,3.668C-34.043,3.714 -35.547,3.805 -37.188,3.942C-38.1,4.078 -38.76,3.692 -39.17,2.78L-39.58,1.891C-39.945,1.026 -39.58,0.706 -38.486,0.934C-36.755,1.207 -34.841,1.368 -32.744,1.412C-32.016,1.412 -31.65,1.048 -31.65,0.319L-31.65,-8.295C-31.742,-10.254 -31.879,-12.191 -32.061,-14.105C-32.152,-14.97 -31.765,-15.381 -30.898,-15.336C-27.937,-14.97 -25.225,-14.56 -22.764,-14.105C-21.989,-13.923 -21.306,-13.695 -20.713,-13.422C-20.029,-12.692 -20.166,-12.077 -21.123,-11.576C-22.399,-11.166 -22.9,-10.414 -22.627,-9.32L-22.627,-0.912C-22.627,-0.136 -22.354,-0.205 -21.807,-1.117C-21.26,-2.301 -20.554,-3.168 -19.687,-3.715C-19.414,-3.759 -18.776,-3.349 -17.773,-2.484L-15.518,0.25C-14.834,1.162 -14.105,1.162 -13.33,0.25C-9.958,-4.17 -7.565,-8.91 -6.152,-13.968" style="fill:white;fill-rule:nonzero;"/>
            </g>
            <g transform="matrix(1,0,0,1,576.48,4049.74)">
                <path d="M0,-27.618C-0.729,-27.618 -1.276,-27.276 -1.641,-26.593C-2.188,-25.362 -2.78,-24.132 -3.418,-22.901C-3.601,-22.673 -3.646,-22.218 -3.555,-21.534C-3.464,-19.802 -3.168,-18.002 -2.666,-16.134C-1.892,-13.034 -1.117,-10.778 -0.342,-9.366C0.113,-8.454 0.501,-8.454 0.82,-9.366C2.598,-15.108 3.736,-20.827 4.238,-26.524C4.283,-27.253 3.941,-27.618 3.213,-27.618L0,-27.618ZM-20.781,-28.78C-21.465,-28.78 -21.807,-28.415 -21.807,-27.686L-21.807,-16.475C-21.807,-15.655 -21.602,-15.746 -21.191,-16.749C-19.87,-19.802 -18.891,-22.673 -18.252,-25.362C-18.07,-26.364 -17.5,-26.615 -16.543,-26.114L-10.801,-23.175C-9.98,-22.764 -9.479,-22.992 -9.297,-23.858L-8.545,-27.686C-8.408,-28.415 -8.705,-28.78 -9.434,-28.78L-20.781,-28.78ZM-42.451,-24.473C-42.087,-24.838 -41.472,-24.906 -40.605,-24.679C-38.601,-24.132 -36.823,-23.311 -35.273,-22.218C-32.084,-19.483 -31.218,-16.339 -32.676,-12.784C-33.223,-11.735 -34.043,-11.075 -35.137,-10.802C-35.82,-10.528 -36.777,-10.482 -38.008,-10.665C-39.011,-10.756 -39.785,-11.417 -40.332,-12.647L-40.469,-13.194L-40.469,-17.569C-40.561,-19.391 -41.062,-21.1 -41.973,-22.696C-42.565,-23.607 -42.725,-24.2 -42.451,-24.473M-31.104,-44.708C-31.195,-45.573 -30.785,-45.938 -29.873,-45.802C-28.096,-45.573 -26.296,-45.323 -24.473,-45.05C-23.105,-44.867 -21.762,-44.548 -20.439,-44.093C-19.893,-43.91 -19.528,-43.682 -19.346,-43.409C-18.981,-42.907 -19.187,-42.452 -19.961,-42.042C-20.417,-41.859 -20.827,-41.654 -21.191,-41.427C-21.511,-41.061 -21.67,-40.514 -21.67,-39.786L-21.67,-32.403C-21.67,-31.628 -21.306,-31.241 -20.576,-31.241L-19.687,-31.241C-18.959,-31.241 -18.184,-31.696 -17.363,-32.608L-16.201,-33.975C-15.563,-34.704 -15.404,-35.206 -15.723,-35.479C-16.361,-36.345 -16.589,-37.302 -16.406,-38.35C-16.315,-40.128 -16.726,-41.654 -17.637,-42.931C-18.412,-43.751 -18.662,-44.366 -18.389,-44.776C-18.115,-45.14 -17.546,-45.255 -16.68,-45.118C-15.085,-44.935 -13.398,-44.389 -11.621,-43.477C-8.933,-41.791 -8.044,-39.672 -8.955,-37.12C-9.138,-36.39 -9.753,-35.729 -10.801,-35.138C-11.394,-34.864 -11.325,-34.408 -10.596,-33.77L-8.887,-32.198C-8.158,-31.559 -7.725,-31.696 -7.588,-32.608C-7.041,-36.254 -6.723,-40.173 -6.631,-44.366C-6.631,-45.414 -6.176,-45.87 -5.264,-45.733L0.137,-44.708C1.959,-44.434 3.304,-44.138 4.17,-43.819C4.854,-43.637 5.309,-43.409 5.537,-43.136C5.855,-42.315 5.537,-41.745 4.58,-41.427L4.238,-41.29C3.463,-40.88 2.962,-40.241 2.734,-39.376C2.142,-36.686 1.367,-33.907 0.41,-31.036C0.182,-30.261 0.41,-29.874 1.094,-29.874L4.854,-29.874C5.582,-29.874 6.266,-30.329 6.904,-31.241C7.725,-32.335 8.636,-33.451 9.639,-34.591C10.413,-35.182 11.302,-35.206 12.305,-34.659C14.127,-33.246 16.019,-31.354 17.979,-28.985C18.206,-28.483 18.069,-28.051 17.568,-27.686C17.386,-27.595 16.861,-27.55 15.996,-27.55L14.902,-27.55C14.173,-27.55 13.763,-27.094 13.672,-26.182C12.806,-18.571 11.006,-11.348 8.271,-4.513C7.952,-3.6 7.154,-1.983 5.879,0.341C5.924,0.433 6.061,0.614 6.289,0.888C9.615,4.124 13.011,6.266 16.475,7.314C17.522,7.541 18.001,7.951 17.91,8.544C17.773,9.136 17.454,9.592 16.953,9.911C16.451,10.321 16.087,10.754 15.859,11.21C15.267,12.531 14.811,14.331 14.492,16.611C14.355,17.476 13.899,18 13.125,18.183C11.575,17.954 9.752,16.77 7.656,14.628C5.332,12.486 3.463,10.298 2.051,8.066C1.549,7.2 0.979,7.132 0.342,7.861C-0.434,8.772 -1.299,9.592 -2.256,10.321C-7.224,14.15 -12.396,16.724 -17.773,18.046C-18.867,18.274 -19.597,18.137 -19.961,17.636C-20.234,17.134 -19.916,16.633 -19.004,16.132C-12.396,12.486 -7.155,7.336 -3.281,0.683C-2.826,-0.001 -2.758,-0.798 -3.076,-1.71C-4.626,-6.905 -5.469,-12.214 -5.605,-17.638C-5.605,-18.412 -5.947,-18.344 -6.631,-17.432C-7.178,-16.703 -8.227,-15.541 -9.775,-13.946C-10.642,-13.126 -11.325,-12.875 -11.826,-13.194C-12.236,-13.558 -12.26,-14.242 -11.895,-15.245L-10.596,-19.005C-10.322,-19.825 -10.231,-20.235 -10.322,-20.235C-10.505,-20.189 -11.029,-19.733 -11.895,-18.868L-13.604,-17.227C-15.928,-15.177 -18.275,-13.604 -20.645,-12.511C-21.42,-12.145 -21.807,-11.508 -21.807,-10.597C-21.807,-9.684 -21.352,-9.138 -20.439,-8.956C-17.568,-8.454 -14.857,-7.338 -12.305,-5.606C-8.979,-3.19 -7.771,-0.502 -8.682,2.46C-9.138,3.964 -10.141,5.172 -11.689,6.083C-12.966,6.722 -14.265,6.539 -15.586,5.536C-16.315,4.808 -16.794,3.896 -17.021,2.802C-17.842,-0.844 -19.05,-3.692 -20.645,-5.743C-21.374,-6.472 -21.738,-6.472 -21.738,-5.743L-21.738,10.253C-22.012,13.352 -23.767,15.608 -27.002,17.021C-28.643,17.749 -30.329,18.183 -32.061,18.32C-32.517,18.228 -32.858,18.046 -33.086,17.773C-33.359,17.544 -33.52,17.089 -33.564,16.405C-33.838,14.856 -34.18,13.488 -34.59,12.304C-35.046,11.255 -35.844,10.64 -36.982,10.458C-37.575,10.185 -38.168,9.98 -38.76,9.843C-39.626,9.57 -40.014,9.159 -39.922,8.612C-39.785,7.974 -39.307,7.655 -38.486,7.655C-36.527,7.837 -34.521,7.905 -32.471,7.861C-31.013,8.179 -30.397,7.564 -30.625,6.015L-30.625,-4.513C-30.625,-5.287 -30.944,-5.219 -31.582,-4.307C-33.223,-1.847 -35.479,0.592 -38.35,3.007C-39.033,3.554 -39.375,4.169 -39.375,4.853C-39.375,5.536 -39.467,6.015 -39.648,6.288C-40.15,6.835 -40.674,6.79 -41.221,6.152C-42.634,4.056 -44.16,1.116 -45.801,-2.667C-46.303,-3.669 -46.12,-4.216 -45.254,-4.307C-40.697,-4.854 -36.186,-6.244 -31.719,-8.477C-30.99,-8.842 -30.625,-9.389 -30.625,-10.118L-30.625,-27.686C-30.625,-28.415 -30.99,-28.78 -31.719,-28.78L-35.957,-28.78C-38.327,-28.734 -40.674,-28.597 -42.998,-28.37C-43.91,-28.278 -44.594,-28.688 -45.049,-29.6C-45.231,-29.965 -45.391,-30.306 -45.527,-30.626C-45.893,-31.537 -45.642,-31.947 -44.775,-31.856C-41.95,-31.537 -39.17,-31.332 -36.436,-31.241L-31.719,-31.241C-30.99,-31.241 -30.625,-31.605 -30.625,-32.335L-30.625,-36.983C-30.717,-39.899 -30.876,-42.474 -31.104,-44.708" style="fill:white;fill-rule:nonzero;"/>
            </g>
            <g transform="matrix(1,0,0,1,638.618,4066.71)">
                <path d="M0,-61.341C0,-62.252 0.455,-62.616 1.367,-62.435C4.329,-61.888 7.018,-61.273 9.434,-60.589C10.801,-60.224 11.712,-59.905 12.168,-59.632C12.623,-59.404 12.806,-59.153 12.715,-58.88C12.578,-58.014 11.939,-57.513 10.801,-57.376C10.071,-57.103 9.547,-56.51 9.229,-55.599C8.727,-54.322 8.089,-52.933 7.314,-51.429C6.858,-50.653 6.973,-50.267 7.656,-50.267L10.459,-50.267C11.188,-50.267 11.939,-50.722 12.715,-51.634C13.626,-52.773 14.629,-53.912 15.723,-55.052C16.816,-56.054 17.454,-56.556 17.637,-56.556C18.092,-56.51 18.639,-56.214 19.277,-55.667C22.057,-53.297 23.971,-51.383 25.02,-49.925C25.611,-49.15 25.68,-48.534 25.225,-48.079C25.042,-47.897 24.518,-47.806 23.652,-47.806L20.029,-47.806L16.475,-47.874L6.289,-47.874C5.56,-47.874 4.898,-47.418 4.307,-46.507C1.846,-43.18 -1.071,-40.355 -4.443,-38.03C-5.264,-37.484 -5.902,-37.369 -6.357,-37.689C-6.768,-38.007 -6.699,-38.691 -6.152,-39.739C-5.15,-41.608 -4.353,-43.407 -3.76,-45.14C-1.618,-50.927 -0.365,-56.327 0,-61.341M-26.387,-32.904C-27.07,-32.904 -27.412,-32.516 -27.412,-31.741L-27.412,-26.478C-27.412,-25.748 -27.048,-25.384 -26.318,-25.384L-16.885,-25.384C-16.156,-25.384 -15.791,-25.748 -15.791,-26.478L-15.791,-31.741C-15.791,-32.516 -16.156,-32.904 -16.885,-32.904L-26.387,-32.904ZM-26.318,-41.722C-27.048,-41.722 -27.412,-41.38 -27.412,-40.696L-27.412,-36.185C-27.412,-35.409 -27.048,-35.023 -26.318,-35.023L-16.885,-35.023C-16.156,-35.023 -15.791,-35.387 -15.791,-36.116L-15.791,-40.628C-15.791,-41.357 -16.156,-41.722 -16.885,-41.722L-26.318,-41.722ZM-26.455,-61.478C-26.592,-62.389 -26.205,-62.799 -25.293,-62.708C-20.873,-62.161 -17.751,-61.637 -15.928,-61.136C-15.063,-60.68 -14.629,-60.361 -14.629,-60.179C-14.584,-59.586 -15.085,-59.062 -16.133,-58.607C-16.816,-58.105 -17.158,-57.489 -17.158,-56.761L-17.158,-53.958C-17.158,-53.229 -16.816,-52.864 -16.133,-52.864C-15.404,-52.864 -14.697,-53.32 -14.014,-54.232C-13.285,-55.097 -12.51,-55.986 -11.689,-56.898C-11.325,-57.489 -10.847,-57.831 -10.254,-57.923C-8.522,-57.148 -6.426,-55.279 -3.965,-52.318C-3.464,-51.679 -3.464,-51.178 -3.965,-50.814C-4.102,-50.677 -4.626,-50.609 -5.537,-50.609L-16.133,-50.609C-16.862,-50.609 -17.227,-50.243 -17.227,-49.515L-17.227,-45.277C-17.227,-44.547 -17.067,-44.183 -16.748,-44.183C-16.338,-44.046 -15.7,-44.41 -14.834,-45.277C-13.559,-46.37 -12.646,-47.008 -12.1,-47.191C-11.735,-47.327 -11.279,-47.213 -10.732,-46.849C-7.953,-45.253 -6.221,-43.932 -5.537,-42.884C-5.127,-42.154 -5.332,-41.517 -6.152,-40.97C-6.928,-40.286 -7.314,-39.579 -7.314,-38.851L-7.314,-30.374L-7.109,-23.538C-6.882,-22.991 -7.109,-22.399 -7.793,-21.761C-9.297,-20.986 -11.394,-20.667 -14.082,-20.804C-15.131,-20.804 -15.746,-21.327 -15.928,-22.376C-15.974,-22.877 -16.201,-23.128 -16.611,-23.128C-17.067,-23.128 -17.295,-22.763 -17.295,-22.034L-17.295,-16.702C-17.295,-16.019 -16.908,-15.653 -16.133,-15.609C-15.358,-15.563 -14.675,-15.927 -14.082,-16.702C-13.308,-17.704 -12.441,-18.707 -11.484,-19.71C-10.573,-20.394 -9.662,-20.485 -8.75,-19.984C-6.928,-18.48 -5.378,-17.044 -4.102,-15.677C-3.646,-14.902 -3.213,-14.925 -2.803,-15.745C-0.297,-20.849 3.418,-26.82 8.34,-33.655C8.932,-34.43 8.795,-34.794 7.93,-34.749C3.736,-34.657 0.729,-34.521 -1.094,-34.339C-2.006,-34.247 -2.666,-34.635 -3.076,-35.501L-3.35,-36.185C-3.852,-37.279 -3.669,-37.779 -2.803,-37.689C0.523,-37.279 4.329,-37.073 8.613,-37.073C9.342,-37.073 10.162,-37.438 11.074,-38.167C12.396,-39.215 13.535,-39.989 14.492,-40.491C15.357,-41.038 16.475,-40.787 17.842,-39.739C20.621,-37.689 22.217,-36.07 22.627,-34.886C22.672,-34.43 22.467,-34.02 22.012,-33.655C21.1,-33.199 20.188,-32.767 19.277,-32.357C18.502,-31.718 17.728,-30.875 16.953,-29.827C12.486,-23.766 8.932,-18.343 6.289,-13.558C5.787,-12.555 5.469,-11.644 5.332,-10.823C5.286,-10.413 5.628,-10.071 6.357,-9.798C9.775,-8.887 12.852,-9.024 15.586,-10.208C16.588,-10.846 17.249,-11.689 17.568,-12.737C18.389,-15.289 19.072,-17.773 19.619,-20.189C19.847,-21.191 20.279,-21.647 20.918,-21.556C21.556,-21.51 21.852,-21.031 21.807,-20.12C21.715,-17.431 21.829,-14.947 22.148,-12.669C22.285,-11.986 22.718,-11.393 23.447,-10.892C24.541,-10.39 25.247,-9.593 25.566,-8.499C25.885,-6.358 25.11,-4.603 23.242,-3.236C21.92,-2.324 20.12,-1.641 17.842,-1.185C13.375,-0.547 8.75,-0.525 3.965,-1.116C2.051,-1.345 0.25,-1.868 -1.436,-2.689C-3.669,-4.011 -4.877,-5.674 -5.059,-7.679C-5.15,-9.046 -4.899,-10.572 -4.307,-12.259C-4.033,-12.943 -4.284,-13.284 -5.059,-13.284L-16.064,-13.284C-16.794,-13.284 -17.158,-12.943 -17.158,-12.259L-17.158,-7.269L-17.09,-1.663C-16.816,-0.388 -17.387,0.432 -18.799,0.798C-21.215,1.345 -23.288,1.458 -25.02,1.139C-25.476,0.911 -25.84,0.706 -26.113,0.524C-26.296,0.251 -26.387,-0.342 -26.387,-1.253C-26.387,-3.304 -26.296,-5.423 -26.113,-7.611L-26.113,-12.191C-26.113,-12.919 -26.479,-13.284 -27.207,-13.284L-32.197,-13.284C-33.52,-13.238 -34.841,-13.148 -36.162,-13.011C-37.028,-12.919 -37.666,-13.398 -38.076,-14.446L-38.281,-15.062C-38.646,-15.973 -38.373,-16.361 -37.461,-16.224C-34.089,-15.814 -30.693,-15.609 -27.275,-15.609C-26.501,-15.609 -26.113,-15.973 -26.113,-16.702L-26.113,-22.034C-26.113,-22.763 -26.318,-23.128 -26.729,-23.128C-27.185,-23.128 -27.436,-22.672 -27.48,-21.761C-27.344,-20.712 -28.051,-19.984 -29.6,-19.573C-31.013,-19.254 -32.631,-19.117 -34.453,-19.163C-35.912,-19.254 -36.527,-20.074 -36.299,-21.624C-36.254,-23.629 -36.162,-25.612 -36.025,-27.571L-36.025,-40.355C-36.071,-41.949 -36.186,-43.568 -36.367,-45.208C-36.504,-46.073 -36.071,-46.415 -35.068,-46.234L-27.275,-44.183C-26.501,-44.183 -26.113,-44.547 -26.113,-45.277L-26.113,-49.515C-26.113,-50.243 -26.479,-50.609 -27.207,-50.609C-30.215,-50.653 -32.927,-50.563 -35.342,-50.335C-36.391,-50.243 -37.119,-50.609 -37.529,-51.429L-37.803,-51.976C-38.213,-53.07 -38.008,-53.548 -37.188,-53.411C-34.089,-53.001 -30.785,-52.819 -27.275,-52.864C-26.501,-52.864 -26.113,-53.229 -26.113,-53.958L-26.113,-57.445C-26.205,-58.766 -26.318,-60.111 -26.455,-61.478" style="fill:white;fill-rule:nonzero;"/>
            </g>
            <g transform="matrix(1,0,0,1,714.224,4039.71)">
                <path d="M0,-5.901C-0.684,-5.901 -0.935,-5.513 -0.752,-4.739C0.159,-1.047 1.686,2.667 3.828,6.404C4.283,7.133 4.785,7.042 5.332,6.13C7.063,3.396 8.316,0.639 9.092,-2.141C9.319,-2.87 9.205,-3.257 8.75,-3.303C8.294,-3.44 7.884,-3.599 7.52,-3.782C7.154,-4.146 6.973,-4.579 6.973,-5.081C6.973,-5.628 6.607,-5.901 5.879,-5.901L0,-5.901ZM-5.332,-17.522C-6.062,-17.522 -6.426,-17.157 -6.426,-16.428L-6.426,-9.182C-6.426,-8.407 -6.062,-8.02 -5.332,-8.02L5.879,-8.02C6.607,-8.02 6.973,-8.384 6.973,-9.114L6.973,-16.428C6.973,-17.157 6.607,-17.522 5.879,-17.522L-5.332,-17.522ZM-5.332,-28.528C-6.062,-28.528 -6.426,-28.163 -6.426,-27.434L-6.426,-20.872C-6.426,-20.142 -6.062,-19.778 -5.332,-19.778L5.879,-19.778C6.607,-19.778 6.973,-20.142 6.973,-20.872L6.973,-27.434C6.973,-28.163 6.607,-28.528 5.879,-28.528L-5.332,-28.528ZM-32.129,-0.364C-32.858,-0.364 -33.223,-0.022 -33.223,0.661L-33.223,10.3C-33.223,11.076 -32.858,11.462 -32.129,11.462L-29.736,11.462C-29.008,11.462 -28.643,11.098 -28.643,10.369L-28.643,0.73C-28.643,0.001 -29.008,-0.364 -29.736,-0.364L-32.129,-0.364ZM-32.129,-13.967C-32.858,-13.967 -33.223,-13.602 -33.223,-12.874L-33.223,-3.85C-33.223,-3.121 -32.858,-2.756 -32.129,-2.756L-29.736,-2.756C-29.008,-2.756 -28.643,-3.121 -28.643,-3.85L-28.643,-12.805C-28.643,-13.58 -29.008,-13.967 -29.736,-13.967L-32.129,-13.967ZM-32.129,-27.161C-32.858,-27.161 -33.223,-26.796 -33.223,-26.067L-33.223,-17.385C-33.223,-16.61 -32.858,-16.223 -32.129,-16.223L-29.736,-16.223C-29.008,-16.223 -28.643,-16.588 -28.643,-17.317L-28.643,-25.999C-28.643,-26.773 -29.008,-27.161 -29.736,-27.161L-32.129,-27.161ZM10.049,-33.997C10.641,-34.498 11.256,-34.566 11.895,-34.202C13.443,-33.563 15.244,-32.379 17.295,-30.647C18.57,-29.462 18.525,-28.482 17.158,-27.708C16.383,-26.887 15.996,-26.112 15.996,-25.383L15.996,-13.626L16.338,-5.491C16.201,-4.944 15.95,-4.51 15.586,-4.192C14.537,-3.553 12.965,-3.235 10.869,-3.235C10.049,-3.235 10.117,-3.006 11.074,-2.551C13.672,-1.229 15.928,0.024 17.842,1.208C19.346,2.029 19.71,2.849 18.936,3.669C18.616,3.852 18.092,3.943 17.363,3.943C16.68,3.898 16.178,4.035 15.859,4.353C12.715,6.632 9.729,8.249 6.904,9.206C6.175,9.389 6.175,9.936 6.904,10.847C10.413,14.174 14.15,16.316 18.115,17.273C19.163,17.364 19.687,17.705 19.687,18.298C19.551,18.936 19.346,19.3 19.072,19.392C17.613,20.12 16.725,21.511 16.406,23.562C16.314,24.473 16.178,25.384 15.996,26.296C15.859,27.618 15.244,28.164 14.15,27.937C12.1,27.39 9.866,25.794 7.451,23.152C3.167,18.411 0.205,12.99 -1.436,6.882C-2.484,3.146 -3.122,-0.706 -3.35,-4.671C-3.396,-5.445 -3.92,-5.833 -4.922,-5.833C-5.925,-5.833 -6.426,-5.467 -6.426,-4.739L-6.426,14.949C-6.426,15.678 -5.971,16.02 -5.059,15.974C-3.19,15.837 -1.413,15.632 0.273,15.359C1.139,15.222 1.641,15.427 1.777,15.974C1.868,16.521 1.504,17.16 0.684,17.888C-4.33,21.761 -9.502,24.245 -14.834,25.339C-15.518,25.521 -15.996,26.068 -16.27,26.98C-16.726,28.392 -17.341,28.665 -18.115,27.8C-19.164,25.02 -20.166,21.761 -21.123,18.025C-21.306,17.25 -21.853,16.999 -22.764,17.273C-23.584,17.41 -24.404,17.478 -25.225,17.478C-26.638,17.615 -27.641,17.432 -28.232,16.931C-28.688,16.43 -28.848,15.769 -28.711,14.949C-28.711,14.174 -29.076,13.786 -29.805,13.786L-32.197,13.786C-32.927,13.786 -33.291,14.128 -33.291,14.812L-33.291,18.435C-33.291,19.346 -33.337,19.915 -33.428,20.144C-33.793,20.691 -34.316,21.078 -35,21.306C-36.641,21.761 -38.396,21.944 -40.264,21.853C-40.811,21.807 -41.267,21.693 -41.631,21.511C-42.27,21.009 -42.497,20.462 -42.314,19.87C-42.133,13.263 -42.041,6.017 -42.041,-1.868L-42.041,-25.315C-42.087,-27.411 -42.224,-29.28 -42.451,-30.921C-42.588,-31.786 -42.155,-32.105 -41.152,-31.878C-38.601,-31.285 -35.935,-30.487 -33.154,-29.485L-30.146,-29.485C-29.463,-29.485 -28.666,-29.918 -27.754,-30.784L-26.387,-31.946C-25.202,-33.221 -24.062,-33.336 -22.969,-32.288C-21.921,-31.695 -20.576,-30.76 -18.936,-29.485C-17.341,-28.482 -17.204,-27.457 -18.525,-26.409C-19.756,-25.497 -20.234,-24.608 -19.961,-23.743L-19.961,4.079L-19.687,13.376C-19.46,14.653 -19.551,15.519 -19.961,15.974C-20.098,16.157 -19.733,16.271 -18.867,16.316L-16.68,16.384C-15.951,16.384 -15.586,16.02 -15.586,15.29L-15.586,-26.204C-15.632,-28.619 -15.769,-30.715 -15.996,-32.493C-16.088,-33.404 -15.7,-33.768 -14.834,-33.587C-11.963,-32.811 -9.023,-31.9 -6.016,-30.852L5.469,-30.852C6.197,-30.852 6.927,-31.216 7.656,-31.946C8.431,-32.72 9.229,-33.404 10.049,-33.997" style="fill:white;fill-rule:nonzero;"/>
            </g>
            <g transform="matrix(1,0,0,1,795.708,4052.36)">
                <path d="M0,-33.108C0.82,-33.381 1.709,-33.016 2.666,-32.014C5.811,-29.417 7.542,-27.434 7.861,-26.067C7.906,-25.748 7.725,-25.474 7.314,-25.247C7.223,-25.201 6.722,-25.178 5.811,-25.178L-6.631,-25.178C-7.36,-25.178 -7.725,-24.813 -7.725,-24.085L-7.725,-11.37C-7.725,-10.64 -7.246,-10.276 -6.289,-10.276C-5.332,-10.276 -4.558,-10.731 -3.965,-11.643C-2.871,-13.421 -1.96,-14.673 -1.23,-15.403C-0.639,-15.721 -0.068,-15.653 0.479,-15.198C1.8,-14.012 3.189,-12.669 4.648,-11.165L5.742,-9.797C6.38,-8.338 5.855,-7.723 4.17,-7.952L-6.699,-7.952C-7.429,-7.952 -7.793,-7.587 -7.793,-6.858L-7.793,8.728C-7.793,9.456 -7.429,9.822 -6.699,9.822L-5.469,9.822C-4.74,9.822 -4.057,9.366 -3.418,8.455C-2.416,6.951 -1.367,5.606 -0.273,4.421C0.273,3.601 0.934,3.533 1.709,4.216C3.44,5.401 5.4,7.292 7.588,9.89C7.952,10.528 8.135,10.984 8.135,11.257C8.135,11.621 7.975,11.895 7.656,12.078C7.474,12.168 6.927,12.214 6.016,12.214L-33.086,12.214L-38.076,12.488C-39.125,12.579 -39.899,12.214 -40.4,11.394L-40.674,10.847C-41.221,9.753 -41.062,9.251 -40.195,9.343C-37.37,9.617 -34.636,9.776 -31.992,9.822C-31.264,9.822 -30.898,9.456 -30.898,8.728L-30.898,-8.157C-30.944,-10.663 -31.127,-13.033 -31.445,-15.266C-31.582,-16.177 -31.195,-16.61 -30.283,-16.565C-25.635,-16.2 -22.354,-15.653 -20.439,-14.924C-19.301,-14.104 -19.506,-13.352 -21.055,-12.669C-21.784,-12.167 -22.148,-11.551 -22.148,-10.823L-22.148,8.728C-22.148,9.456 -21.784,9.822 -21.055,9.822L-18.047,9.822C-17.318,9.822 -16.953,9.456 -16.953,8.728L-16.953,-24.016C-16.953,-24.791 -17.318,-25.178 -18.047,-25.178L-25.225,-25.178C-27.367,-25.087 -29.35,-24.95 -31.172,-24.768C-32.129,-24.676 -32.813,-25.11 -33.223,-26.067L-33.564,-26.751C-34.021,-27.753 -33.815,-28.209 -32.949,-28.118C-29.851,-27.798 -26.797,-27.593 -23.789,-27.503L-5.264,-27.503C-4.535,-27.503 -3.874,-27.958 -3.281,-28.87C-2.188,-30.601 -1.094,-32.014 0,-33.108M-26.729,-48.626L-22.354,-48.626C-20.258,-48.58 -18.457,-48.284 -16.953,-47.737C-13.49,-46.37 -12.236,-44.022 -13.193,-40.696C-13.33,-40.24 -13.581,-39.739 -13.945,-39.192C-14.492,-38.69 -14.311,-38.417 -13.398,-38.372L-6.904,-38.303C-5.993,-38.303 -5.219,-38.758 -4.58,-39.67C-3.578,-40.992 -2.507,-42.337 -1.367,-43.704C-0.639,-44.661 0.022,-44.957 0.615,-44.592C2.438,-43.453 4.922,-41.174 8.066,-37.756C8.75,-36.253 8.248,-35.637 6.562,-35.911L-33.975,-35.911C-34.704,-35.911 -35.068,-35.546 -35.068,-34.817L-35.068,-19.573C-35.205,-13.375 -36.003,-7.678 -37.461,-2.483C-39.648,4.399 -44.16,10.208 -50.996,14.949C-51.862,15.45 -52.523,15.518 -52.979,15.154C-53.435,14.788 -53.32,14.151 -52.637,13.24C-50.404,10.095 -48.718,6.585 -47.578,2.712C-46.257,-1.343 -45.346,-5.604 -44.844,-10.071C-44.799,-10.799 -45.026,-10.709 -45.527,-9.797C-46.484,-8.02 -47.624,-6.356 -48.945,-4.807C-49.902,-4.078 -50.336,-3.394 -50.244,-2.756C-50.107,-1.434 -50.563,-0.751 -51.611,-0.706C-52.204,-1.07 -52.705,-1.981 -53.115,-3.44C-53.981,-5.901 -54.824,-8.362 -55.645,-10.823C-55.918,-11.734 -55.6,-12.235 -54.688,-12.327C-51.862,-12.508 -48.854,-13.238 -45.664,-14.514C-44.936,-14.833 -44.57,-15.357 -44.57,-16.087L-44.57,-22.444C-44.57,-23.128 -44.685,-23.036 -44.912,-22.17C-45.961,-19.891 -47.761,-18.912 -50.313,-19.231C-51.589,-19.368 -52.478,-20.165 -52.979,-21.624C-53.252,-22.444 -53.32,-23.492 -53.184,-24.768C-52.91,-26.864 -53.435,-29.12 -54.756,-31.536C-55.349,-32.447 -55.485,-33.062 -55.166,-33.381C-54.848,-33.7 -54.232,-33.746 -53.32,-33.518C-51.406,-32.971 -49.606,-32.128 -47.92,-30.989C-46.143,-29.667 -45.072,-28.004 -44.707,-25.999C-44.616,-25.223 -44.57,-25.178 -44.57,-25.862L-44.57,-31.262C-44.662,-34.999 -44.821,-37.801 -45.049,-39.67C-45.231,-40.764 -44.912,-41.219 -44.092,-41.038C-41.039,-40.399 -37.826,-39.556 -34.453,-38.508L-23.379,-38.508C-22.65,-38.508 -22.582,-38.963 -23.174,-39.876C-23.676,-42.017 -24.655,-43.817 -26.113,-45.276C-26.569,-45.731 -27.002,-46.096 -27.412,-46.37C-28.369,-46.871 -28.757,-47.349 -28.574,-47.805C-28.437,-48.26 -27.914,-48.511 -27.002,-48.557C-26.911,-48.557 -26.82,-48.58 -26.729,-48.626" style="fill:white;fill-rule:nonzero;"/>
            </g>
            <g transform="matrix(1,0,0,1,251.601,4051.5)">
                <path d="M0,-39.26C0.318,-39.624 0.934,-39.715 1.846,-39.533C3.623,-39.168 5.423,-38.394 7.246,-37.209C10.618,-35.113 11.689,-32.515 10.459,-29.416C9.957,-28.277 9.183,-27.571 8.135,-27.297C7.223,-26.978 6.106,-26.932 4.785,-27.16C3.555,-27.615 2.848,-28.345 2.666,-29.348C2.393,-30.305 2.301,-31.512 2.393,-32.971C2.347,-34.475 1.777,-35.955 0.684,-37.414C-0.092,-38.325 -0.319,-38.941 0,-39.26M4.785,-51.496C7.474,-51.861 9.729,-51.815 11.553,-51.36C13.877,-51.04 15.335,-49.81 15.928,-47.668C16.201,-45.754 15.859,-44.227 14.902,-43.088C14.264,-42.586 14.424,-42.336 15.381,-42.336C16.292,-42.336 17.09,-42.791 17.773,-43.703C18.502,-44.569 19.254,-45.457 20.029,-46.369C20.94,-47.691 21.807,-47.987 22.627,-47.258C24.312,-46.028 26.067,-44.364 27.891,-42.268C28.711,-41.265 28.779,-40.604 28.096,-40.285C27.867,-40.149 27.298,-40.08 26.387,-40.08L16.064,-40.08C15.381,-40.08 15.472,-39.966 16.338,-39.739C20.029,-38.781 22.74,-37.869 24.473,-37.004C25.43,-36.639 25.748,-36.115 25.43,-35.432C25.338,-35.249 24.859,-35.022 23.994,-34.748C23.128,-34.612 22.422,-34.11 21.875,-33.244C20.553,-31.194 18.821,-29.302 16.68,-27.571C15.904,-27.024 15.882,-26.75 16.611,-26.75L17.91,-26.75C18.639,-26.75 19.3,-27.205 19.893,-28.117C20.53,-29.029 21.26,-29.917 22.08,-30.783C22.764,-31.831 23.401,-32.082 23.994,-31.535C25.315,-30.578 26.683,-29.324 28.096,-27.776C28.779,-26.955 29.121,-26.932 29.121,-27.707L29.121,-37.619C28.984,-39.989 28.824,-42.359 28.643,-44.729C28.506,-45.822 28.848,-46.255 29.668,-46.028C32.584,-45.207 35.228,-44.364 37.598,-43.498C38.326,-43.27 39.146,-43.406 40.059,-43.908C42.747,-45.503 45.276,-47.691 47.646,-50.471C48.375,-51.336 49.219,-51.428 50.176,-50.744C53.958,-47.873 56.602,-45.594 58.105,-43.908C58.424,-43.088 58.287,-42.495 57.695,-42.131C57.012,-41.903 56.26,-42.017 55.439,-42.473C54.983,-42.61 54.527,-42.632 54.072,-42.541C49.104,-41.311 44.319,-40.74 39.717,-40.832C38.805,-40.832 38.35,-40.49 38.35,-39.807L38.35,-28.528C38.35,-27.798 38.714,-27.434 39.443,-27.434L44.229,-27.434C44.957,-27.434 45.664,-27.889 46.348,-28.801C47.213,-29.895 48.147,-31.033 49.15,-32.219C50.198,-33.221 51.133,-33.563 51.953,-33.244C53.32,-32.378 55.303,-30.464 57.9,-27.502C58.721,-26.636 58.902,-25.906 58.447,-25.315C58.219,-25.086 57.672,-24.973 56.807,-24.973L52.842,-24.973C52.066,-24.973 51.68,-24.608 51.68,-23.879L51.68,1.414L51.885,8.386C52.066,9.662 51.998,10.528 51.68,10.984C51.314,11.668 50.449,12.1 49.082,12.283C47.988,12.511 46.644,12.601 45.049,12.556C43.135,12.465 42.314,11.622 42.588,10.027C42.633,6.883 42.701,3.715 42.793,0.525L42.793,-23.879C42.793,-24.608 42.428,-24.973 41.699,-24.973L39.512,-24.973C38.736,-24.973 38.35,-24.608 38.35,-23.879C38.577,-14.582 37.119,-6.424 33.975,0.594C31.878,5.424 28.255,9.252 23.105,12.078C22.239,12.442 21.602,12.442 21.191,12.078C20.781,11.668 20.918,11.007 21.602,10.095C25.02,4.718 27.093,-0.682 27.822,-6.106C28.187,-8.201 28.46,-10.549 28.643,-13.147C28.687,-13.875 28.665,-14.172 28.574,-14.035C28.255,-13.716 27.64,-13.625 26.729,-13.762L17.09,-13.762C16.36,-13.762 15.996,-13.352 15.996,-12.531C15.996,-11.711 16.429,-11.255 17.295,-11.164C19.893,-10.754 22.148,-9.865 24.062,-8.498C26.204,-6.721 26.865,-4.556 26.045,-2.004C25.361,-0.318 24.176,0.48 22.49,0.388C21.168,0.571 20.143,-0.022 19.414,-1.389C19.095,-1.936 18.821,-2.824 18.594,-4.055C18.365,-5.604 17.842,-6.971 17.021,-8.156C16.338,-8.885 15.996,-8.885 15.996,-8.156L15.996,5.31L16.064,9.07C16.064,9.981 15.928,10.665 15.654,11.121C14.879,11.895 13.307,12.328 10.938,12.42L9.229,12.488C8.043,12.579 7.291,12.1 6.973,11.053C7.109,6.996 7.2,2.94 7.246,-1.115C7.246,-1.844 6.881,-1.753 6.152,-0.842C3.463,2.074 0.433,4.467 -2.939,6.336C-4.033,6.928 -4.74,6.996 -5.059,6.541C-5.424,6.085 -5.264,5.492 -4.58,4.763C-0.114,-0.569 3.053,-6.356 4.922,-12.6C5.149,-13.42 4.922,-13.83 4.238,-13.83C2.051,-13.921 -0.114,-13.83 -2.256,-13.557C-3.168,-13.42 -3.896,-13.899 -4.443,-14.992L-4.785,-15.608C-5.241,-16.473 -4.968,-16.815 -3.965,-16.633C-1.596,-16.268 1.777,-16.086 6.152,-16.086C6.927,-16.086 7.314,-16.428 7.314,-17.112C7.269,-19.026 7.086,-20.871 6.768,-22.649C6.631,-23.514 7.018,-23.879 7.93,-23.742C12.396,-23.24 15.677,-22.58 17.773,-21.76C19.141,-21.121 19.117,-20.415 17.705,-19.641C17.477,-19.595 17.135,-19.458 16.68,-19.231C16.27,-18.957 16.064,-18.342 16.064,-17.385C16.064,-16.428 16.36,-15.949 16.953,-15.949C17.545,-15.949 18.252,-16.382 19.072,-17.248C19.71,-18.023 20.303,-18.797 20.85,-19.573C21.533,-20.484 22.012,-20.962 22.285,-21.008C22.74,-21.053 23.174,-20.894 23.584,-20.53C25.133,-19.253 26.568,-17.84 27.891,-16.291C28.482,-15.425 28.802,-15.425 28.848,-16.291C28.984,-18.66 29.053,-21.031 29.053,-23.401C29.098,-24.129 28.665,-24.494 27.754,-24.494L25.225,-24.426L7.861,-24.426L-1.23,-24.289L-2.529,-24.221C-3.578,-24.084 -4.307,-24.448 -4.717,-25.315L-5.059,-26.272C-5.515,-27.183 -5.287,-27.571 -4.375,-27.434C-1.777,-27.069 0.729,-26.841 3.145,-26.75L11.006,-26.75C11.734,-26.75 12.236,-27.205 12.51,-28.117C13.558,-31.717 14.173,-35.34 14.355,-38.987C14.355,-39.715 13.99,-40.08 13.262,-40.08L3.486,-40.08C1.8,-40.034 0.091,-39.944 -1.641,-39.807C-2.553,-39.715 -3.259,-40.103 -3.76,-40.969L-4.17,-41.858C-4.626,-42.723 -4.33,-43.088 -3.281,-42.951C-0.775,-42.632 1.48,-42.449 3.486,-42.405L7.998,-42.405C8.727,-42.405 8.75,-42.86 8.066,-43.772L6.904,-46.438C6.312,-47.668 5.469,-48.602 4.375,-49.24C3.463,-49.696 3.076,-50.152 3.213,-50.608C3.35,-51.018 3.873,-51.314 4.785,-51.496" style="fill:rgb(0,163,255);fill-rule:nonzero;"/>
            </g>
            <g transform="matrix(1,0,0,1,346.757,4056.97)">
                <path d="M0,-49.789C0.318,-50.244 0.934,-50.473 1.846,-50.473C4.762,-50.29 7.496,-49.516 10.049,-48.148C13.694,-46.325 15.062,-43.637 14.15,-40.082C13.922,-39.079 13.307,-38.236 12.305,-37.553C11.211,-36.914 9.957,-36.664 8.545,-36.801C7.633,-36.937 6.812,-37.598 6.084,-38.783C5.674,-39.467 5.309,-40.355 4.99,-41.449C4.307,-44.047 2.916,-46.303 0.82,-48.217C0,-48.809 -0.273,-49.333 0,-49.789M-1.914,-31.947C-1.641,-32.402 -1.049,-32.607 -0.137,-32.562C1.412,-32.562 3.189,-32.243 5.195,-31.605C7.383,-30.922 9.16,-29.941 10.527,-28.666C12.441,-26.797 13.125,-24.838 12.578,-22.787C12.486,-21.83 12.054,-20.918 11.279,-20.053C9.41,-18.64 7.542,-18.344 5.674,-19.164C4.397,-20.075 3.6,-21.374 3.281,-23.06C3.008,-23.972 2.688,-24.86 2.324,-25.727C1.504,-27.458 0.41,-28.916 -0.957,-30.102C-1.869,-30.876 -2.188,-31.491 -1.914,-31.947M14.834,-55.531C14.742,-56.625 15.13,-57.103 15.996,-56.967C21.328,-56.191 24.974,-55.28 26.934,-54.232C27.344,-53.32 26.751,-52.546 25.156,-51.908C24.473,-51.315 24.131,-50.632 24.131,-49.857L24.131,-21.352C24.131,-20.622 24.268,-20.69 24.541,-21.557C25.133,-23.516 25.68,-24.86 26.182,-25.59C26.363,-25.908 26.683,-26.022 27.139,-25.932C27.412,-25.886 27.662,-25.749 27.891,-25.521C31.217,-22.103 33.086,-19.597 33.496,-18.002C33.541,-17.728 33.359,-17.477 32.949,-17.25L25.225,-15.746C24.495,-15.609 24.131,-15.176 24.131,-14.447L24.131,-5.766L24.336,4.42C24.563,5.741 23.789,6.539 22.012,6.813C19.505,7.314 17.568,7.268 16.201,6.676C15.335,6.357 14.971,5.605 15.107,4.42C15.152,0.91 15.221,-2.644 15.313,-6.244L15.313,-12.738C15.313,-13.467 14.856,-13.764 13.945,-13.627C6.197,-12.396 0.342,-11.211 -3.623,-10.072C-4.626,-9.753 -5.424,-10.026 -6.016,-10.893L-6.562,-11.508C-7.246,-12.465 -7.133,-12.966 -6.221,-13.012C-1.162,-13.467 5.65,-14.584 14.219,-16.361C14.947,-16.498 15.313,-16.931 15.313,-17.66L15.313,-48.559C15.221,-50.883 15.062,-53.207 14.834,-55.531M-11.621,-56.01C-10.664,-56.875 -9.753,-56.967 -8.887,-56.283C-5.15,-53.503 -2.689,-51.315 -1.504,-49.721C-1.413,-48.581 -2.028,-48.217 -3.35,-48.627L-4.58,-48.9C-4.899,-49.037 -5.355,-48.969 -5.947,-48.695C-7.406,-48.239 -8.864,-47.807 -10.322,-47.396C-11.052,-47.168 -11.416,-46.713 -11.416,-46.029L-11.416,-37.894C-11.416,-37.165 -11.371,-36.777 -11.279,-36.732C-11.188,-36.732 -10.847,-37.187 -10.254,-38.1C-9.115,-39.968 -8.227,-41.244 -7.588,-41.928C-7.041,-42.383 -6.586,-42.475 -6.221,-42.201C-5.036,-41.426 -3.327,-39.694 -1.094,-37.006C-0.273,-36.185 -0.068,-35.434 -0.479,-34.75C-0.661,-34.567 -1.208,-34.476 -2.119,-34.476L-10.391,-34.476C-11.12,-34.476 -11.484,-34.111 -11.484,-33.383L-11.484,-30.648C-11.484,-29.919 -11.029,-29.486 -10.117,-29.35C-8.249,-28.984 -6.449,-28.256 -4.717,-27.162C-1.345,-24.701 -0.479,-21.738 -2.119,-18.275C-3.532,-16.406 -5.492,-15.837 -7.998,-16.566C-8.591,-16.657 -9.138,-17.204 -9.639,-18.207C-10.004,-19.118 -10.072,-20.212 -9.844,-21.488C-9.707,-23.356 -10.004,-24.951 -10.732,-26.273C-11.279,-26.957 -11.553,-26.934 -11.553,-26.205L-11.553,-4.398L-11.279,4.42C-11.188,5.331 -11.645,5.992 -12.646,6.402C-14.196,6.813 -16.02,7.018 -18.115,7.018C-19.848,6.972 -20.554,6.083 -20.234,4.352C-20.234,1.891 -20.212,-0.639 -20.166,-3.236L-20.166,-15.678C-20.166,-16.452 -20.485,-16.361 -21.123,-15.404C-23.356,-12.351 -25.817,-9.821 -28.506,-7.816C-29.372,-7.224 -30.033,-7.133 -30.488,-7.543C-30.854,-7.861 -30.739,-8.545 -30.146,-9.594C-25.681,-17.204 -22.9,-25.156 -21.807,-33.451C-21.762,-34.18 -22.104,-34.545 -22.832,-34.545C-24.564,-34.499 -26.318,-34.408 -28.096,-34.271C-29.145,-34.135 -29.851,-34.499 -30.215,-35.365L-30.625,-36.254C-30.99,-37.165 -30.739,-37.575 -29.873,-37.484C-26.592,-37.028 -23.721,-36.846 -21.26,-36.937C-20.531,-36.937 -20.166,-37.302 -20.166,-38.031L-20.166,-44.73C-20.166,-45.459 -20.622,-45.778 -21.533,-45.687C-23.949,-45.459 -26.091,-45.3 -27.959,-45.209C-28.871,-45.163 -29.44,-45.414 -29.668,-45.961C-29.896,-46.508 -29.509,-46.872 -28.506,-47.055C-22.764,-48.376 -17.136,-51.361 -11.621,-56.01" style="fill:rgb(0,163,255);fill-rule:nonzero;"/>
            </g>
            <g transform="matrix(1,0,0,1,419.491,4034.73)">
                <path d="M0,-5.674C-0.684,-5.674 -0.889,-5.195 -0.615,-4.238C0.934,0.502 3.326,4.557 6.562,7.93C7.428,8.705 8.135,8.727 8.682,7.998C11.553,4.125 13.604,-0.069 14.834,-4.58C15.016,-5.309 14.742,-5.674 14.014,-5.674L0,-5.674ZM3.555,-18.184C3.555,-18.958 3.189,-19.346 2.461,-19.346L-1.162,-19.346L-4.922,-19.072C-5.651,-18.981 -5.856,-18.685 -5.537,-18.184C-4.809,-16.68 -5.378,-16.065 -7.246,-16.338L-13.535,-16.338C-14.265,-16.338 -14.629,-15.973 -14.629,-15.244L-14.629,-4.375C-14.629,-3.692 -14.15,-3.441 -13.193,-3.623C-11.826,-3.942 -10.437,-4.329 -9.023,-4.785C-8.295,-5.013 -8.112,-5.491 -8.477,-6.221C-8.659,-6.539 -8.818,-6.859 -8.955,-7.178C-9.457,-8.226 -9.297,-8.704 -8.477,-8.613C-6.016,-8.34 -3.532,-8.157 -1.025,-8.067L2.461,-8.067C3.189,-8.067 3.555,-8.431 3.555,-9.16L3.555,-18.184ZM3.076,-34.863C3.076,-34.954 3.531,-34.932 4.443,-34.795C8.545,-34.111 11.712,-33.45 13.945,-32.813C14.947,-32.311 15.472,-31.969 15.518,-31.787C15.608,-31.149 15.244,-30.762 14.424,-30.625C13.968,-30.488 13.58,-30.328 13.262,-30.147C12.988,-29.873 12.852,-29.371 12.852,-28.643L12.852,-22.764C12.852,-21.988 13.216,-21.602 13.945,-21.602L16.27,-21.602C16.998,-21.602 17.682,-22.057 18.32,-22.969C19.186,-24.199 20.325,-25.567 21.738,-27.07C22.057,-27.481 22.49,-27.594 23.037,-27.412C23.629,-27.184 24.541,-26.478 25.771,-25.293C26.865,-24.29 27.936,-23.219 28.984,-22.08C30.169,-21.123 30.442,-20.279 29.805,-19.551C29.713,-19.459 29.212,-19.414 28.301,-19.414L13.877,-19.414C13.147,-19.414 12.783,-19.049 12.783,-18.32L12.783,-9.297C12.783,-8.522 13.147,-8.135 13.877,-8.135C14.605,-8.135 15.426,-8.522 16.338,-9.297C17.477,-10.254 18.411,-10.96 19.141,-11.416C20.006,-12.054 20.872,-11.94 21.738,-11.074C23.652,-9.844 25.521,-8.294 27.344,-6.426C27.891,-5.742 27.662,-5.15 26.66,-4.649L25.361,-3.897C24.632,-3.486 24.131,-2.825 23.857,-1.914C22.034,3.054 19.3,7.885 15.654,12.578C14.971,13.353 15.016,13.945 15.791,14.355C19.71,16.224 24.131,17.341 29.053,17.705C30.055,17.705 30.511,17.978 30.42,18.525C30.328,19.117 30.055,19.505 29.6,19.687C27.913,20.553 26.91,21.851 26.592,23.584C26.363,24.495 26.136,25.406 25.908,26.318C25.816,27.412 25.315,28.027 24.404,28.164C22.308,27.708 19.937,26.842 17.295,25.566C14.788,24.427 12.305,22.854 9.844,20.849C9.068,20.12 8.294,20.097 7.52,20.781C1.549,25.657 -5.332,28.46 -13.125,29.189C-14.037,29.28 -14.675,29.075 -15.039,28.574C-15.313,28.027 -14.994,27.549 -14.082,27.139C-7.52,24.449 -2.006,20.53 2.461,15.381C3.235,14.515 3.35,13.627 2.803,12.715C-0.205,7.748 -2.233,1.982 -3.281,-4.58C-3.418,-5.401 -3.92,-5.787 -4.785,-5.742L-5.469,-5.674C-6.289,-5.537 -6.631,-5.24 -6.494,-4.785C-6.312,-4.238 -6.677,-3.531 -7.588,-2.666C-9.685,-0.843 -11.599,0.593 -13.33,1.64C-14.196,2.187 -14.629,2.826 -14.629,3.555L-14.629,21.328C-14.675,23.333 -15.609,25.11 -17.432,26.66C-19.848,28.164 -22.104,28.984 -24.199,29.121C-25.111,29.258 -25.681,28.916 -25.908,28.096C-26.045,26.91 -26.364,25.543 -26.865,23.994C-26.957,23.082 -27.617,22.285 -28.848,21.601C-29.395,21.328 -29.941,21.077 -30.488,20.849C-31.4,20.53 -31.811,20.074 -31.719,19.482C-31.628,18.799 -31.127,18.502 -30.215,18.594C-28.21,18.73 -26.296,18.799 -24.473,18.799C-24.108,18.707 -23.835,18.525 -23.652,18.252C-23.607,18.115 -23.584,17.682 -23.584,16.953L-23.584,7.724C-23.584,6.95 -24.04,6.791 -24.951,7.246L-27.207,8.135C-27.937,8.408 -28.483,9.001 -28.848,9.912C-29.076,10.687 -29.463,11.029 -30.01,10.937C-30.146,10.937 -30.512,10.39 -31.104,9.297C-31.97,6.426 -32.744,3.259 -33.428,-0.205C-33.61,-1.116 -33.269,-1.595 -32.402,-1.641C-29.668,-1.641 -27.094,-1.754 -24.678,-1.983C-23.949,-2.028 -23.584,-2.415 -23.584,-3.145L-23.584,-15.176C-23.584,-15.904 -23.949,-16.27 -24.678,-16.27C-26.273,-16.27 -28.164,-16.178 -30.352,-15.996C-31.264,-15.904 -31.947,-16.361 -32.402,-17.363L-32.676,-18.047C-33.086,-18.958 -32.836,-19.322 -31.924,-19.141C-29.372,-18.731 -26.957,-18.526 -24.678,-18.526C-23.949,-18.526 -23.584,-18.89 -23.584,-19.619L-23.584,-26.66C-23.63,-29.349 -23.767,-31.651 -23.994,-33.565C-24.086,-34.476 -23.676,-34.886 -22.764,-34.795C-19.255,-34.43 -16.088,-33.883 -13.262,-33.154C-12.26,-32.789 -12.031,-32.22 -12.578,-31.445C-13.034,-31.217 -13.49,-30.944 -13.945,-30.625C-14.401,-30.169 -14.629,-29.576 -14.629,-28.848L-14.629,-20.371C-14.629,-19.596 -14.355,-19.688 -13.809,-20.645C-12.897,-22.149 -11.963,-23.174 -11.006,-23.721C-10.778,-23.721 -10.551,-23.653 -10.322,-23.516C-9.548,-22.923 -8.887,-22.308 -8.34,-21.67C-7.565,-20.85 -7.338,-20.758 -7.656,-21.397C-7.976,-22.08 -7.634,-22.33 -6.631,-22.149C-3.852,-21.783 -0.82,-21.602 2.461,-21.602C3.189,-21.602 3.555,-21.966 3.555,-22.695L3.555,-27.481C3.463,-29.942 3.304,-32.403 3.076,-34.863" style="fill:rgb(0,163,255);fill-rule:nonzero;"/>
            </g>
            <g transform="matrix(1,0,0,1,495.644,4015.2)">
                <path d="M0,33.473C-0.684,33.473 -1.025,33.838 -1.025,34.567L-1.025,41.061C-1.025,41.789 -0.661,42.155 0.068,42.155L9.023,42.155C9.752,42.155 10.117,41.813 10.117,41.129L10.117,34.567C10.117,33.838 9.775,33.473 9.092,33.473L0,33.473ZM2.871,-6.859C2.598,-7.543 2.21,-7.519 1.709,-6.791C0.979,-5.834 0.182,-4.853 -0.684,-3.851C-1.322,-3.122 -1.186,-2.712 -0.273,-2.621C0.547,-2.529 1.367,-2.347 2.188,-2.074C4.512,-1.208 5.787,0.296 6.016,2.438C6.243,4.215 5.696,5.651 4.375,6.744C3.555,7.155 3.44,7.36 4.033,7.36L7.109,7.36C7.838,7.36 8.431,7.201 8.887,6.881C10.436,5.56 11.575,4.786 12.305,4.557C12.623,4.557 12.396,4.239 11.621,3.6C7.52,0.228 4.603,-3.258 2.871,-6.859M-5.469,9.684C-6.244,9.684 -6.631,10.026 -6.631,10.709L-6.631,14.059C-6.631,14.788 -6.267,15.153 -5.537,15.153L7.246,15.153C8.021,15.153 8.408,14.788 8.408,14.059L8.408,10.778C8.408,10.049 8.043,9.684 7.314,9.684L-5.469,9.684ZM-5.469,17.477C-6.244,17.477 -6.631,17.819 -6.631,18.502C-6.631,19.733 -6.654,20.987 -6.699,22.262C-6.654,22.992 -6.289,23.356 -5.605,23.356L7.246,23.356C8.021,23.356 8.408,22.992 8.408,22.262L8.408,18.571C8.408,17.842 8.043,17.477 7.314,17.477L-5.469,17.477ZM-2.666,0.182C-3.213,-0.456 -3.852,-0.41 -4.58,0.319C-6.631,2.233 -8.705,3.783 -10.801,4.967C-11.576,5.423 -11.553,5.787 -10.732,6.061L-6.357,7.36L-1.299,7.36C-0.57,7.36 -0.434,7.178 -0.889,6.813C-1.345,6.358 -1.618,5.697 -1.709,4.83C-1.709,3.099 -2.028,1.549 -2.666,0.182M-6.152,-13.968C-5.925,-15.062 -5.378,-15.472 -4.512,-15.199C-0.82,-14.15 2.324,-13.148 4.922,-12.191C5.56,-11.963 6.061,-11.667 6.426,-11.302C6.699,-10.983 6.607,-10.619 6.152,-10.209C6.016,-10.072 5.65,-9.912 5.059,-9.73C4.466,-9.548 4.58,-9.023 5.4,-8.158C7.086,-6.699 8.887,-5.583 10.801,-4.808C14.492,-3.304 18.57,-2.438 23.037,-2.211C24.039,-2.165 24.495,-1.845 24.404,-1.254C24.312,-0.707 23.812,-0.091 22.9,0.592C22.125,1.732 21.646,3.395 21.465,5.582C21.51,6.358 21.282,7.041 20.781,7.633C20.188,8.135 19.414,8.203 18.457,7.838C17.728,7.611 17.75,7.884 18.525,8.659C19.163,9.388 19.117,10.049 18.389,10.641C17.158,11.507 16.68,12.373 16.953,13.239L16.953,18.434C17.135,21.761 17.295,24.063 17.432,25.338C17.613,26.068 17.249,26.705 16.338,27.252C14.332,27.936 12.213,28.141 9.98,27.868C8.932,27.64 8.431,27.093 8.477,26.227C8.477,25.909 8.111,25.748 7.383,25.748L-5.811,25.748C-6.54,25.748 -6.973,26.204 -7.109,27.116C-7.109,27.389 -7.133,27.662 -7.178,27.936C-7.27,28.665 -6.95,29.166 -6.221,29.44C-4.535,29.987 -2.78,30.534 -0.957,31.08L8.75,31.08C9.479,31.08 10.276,30.716 11.143,29.987L13.193,28.209C13.968,27.845 14.879,28.028 15.928,28.756C17.659,29.713 19.004,30.557 19.961,31.285C20.872,31.878 21.191,32.516 20.918,33.2C20.781,33.519 20.439,33.907 19.893,34.362C19.072,34.909 18.775,35.592 19.004,36.412L19.004,43.385L19.141,45.573C19.141,46.438 18.98,47.099 18.662,47.555C18.297,47.919 17.842,48.147 17.295,48.239C15.699,48.649 13.854,48.808 11.758,48.717C11.211,48.671 10.709,48.375 10.254,47.828C10.162,47.6 10.117,47.031 10.117,46.119L10.117,45.368C10.117,44.638 9.775,44.274 9.092,44.274L0.068,44.274C-0.661,44.274 -1.025,44.729 -1.025,45.641C-1.071,46.598 -1.322,47.304 -1.777,47.76C-3.464,48.625 -5.697,48.945 -8.477,48.717C-9.753,48.489 -10.3,47.805 -10.117,46.666C-10.026,45.983 -9.98,45.322 -9.98,44.684C-9.98,43.909 -9.958,43.088 -9.912,42.223L-9.912,36.344C-9.912,35.524 -10.117,35.616 -10.527,36.618C-12.123,40.217 -14.675,43.202 -18.184,45.573C-19.277,46.301 -20.326,46.894 -21.328,47.35C-22.194,47.76 -22.787,47.76 -23.105,47.35C-23.379,46.894 -23.105,46.21 -22.285,45.299C-19.597,41.608 -17.797,37.233 -16.885,32.174C-16.11,28.119 -15.678,24.131 -15.586,20.211L-15.586,13.102C-15.632,11.598 -15.723,10.118 -15.859,8.659C-15.905,7.93 -16.384,7.747 -17.295,8.112C-18.207,8.477 -19.118,8.795 -20.029,9.069C-20.941,9.297 -21.488,9.183 -21.67,8.727C-21.898,8.226 -21.557,7.633 -20.645,6.95C-19.643,6.221 -18.662,5.423 -17.705,4.557C-17.021,3.919 -17.045,3.6 -17.773,3.6L-21.533,3.6C-22.263,3.6 -22.627,3.965 -22.627,4.694L-22.627,14.127C-22.627,14.857 -22.172,15.13 -21.26,14.948L-17.91,13.991C-16.862,13.626 -16.225,13.626 -15.996,13.991C-15.769,14.537 -15.974,15.199 -16.611,15.973C-18.07,17.796 -19.711,19.369 -21.533,20.69C-22.263,21.237 -22.627,21.875 -22.627,22.604L-22.627,40.377C-22.673,41.288 -22.855,42.177 -23.174,43.043C-23.447,43.954 -24.086,44.843 -25.088,45.709C-27.686,47.623 -30.283,48.58 -32.881,48.58C-33.337,48.58 -33.701,48.261 -33.975,47.623C-34.248,45.162 -34.772,43.339 -35.547,42.155C-36.367,41.288 -37.438,40.673 -38.76,40.309C-39.58,39.944 -39.945,39.465 -39.854,38.873C-39.717,38.235 -39.238,37.961 -38.418,38.053C-36.367,38.19 -34.385,38.258 -32.471,38.258C-31.65,37.939 -31.377,37.325 -31.65,36.412L-31.65,26.432C-31.65,25.703 -32.084,25.498 -32.949,25.817L-34.111,26.159C-34.567,26.387 -34.841,26.866 -34.932,27.594C-34.978,28.187 -35.251,28.575 -35.752,28.756C-36.254,28.985 -36.618,28.734 -36.846,28.004C-37.348,26.956 -37.895,25.157 -38.486,22.604C-38.896,21.055 -39.238,19.483 -39.512,17.887C-39.785,16.793 -39.489,16.246 -38.623,16.246L-37.803,16.315L-33.018,16.315C-32.106,16.27 -31.65,15.882 -31.65,15.153L-31.65,4.762C-31.65,4.034 -31.992,3.668 -32.676,3.668C-34.043,3.714 -35.547,3.805 -37.188,3.942C-38.1,4.078 -38.76,3.692 -39.17,2.78L-39.58,1.891C-39.945,1.026 -39.58,0.706 -38.486,0.934C-36.755,1.207 -34.841,1.368 -32.744,1.412C-32.016,1.412 -31.65,1.048 -31.65,0.319L-31.65,-8.295C-31.742,-10.254 -31.879,-12.191 -32.061,-14.105C-32.152,-14.97 -31.765,-15.381 -30.898,-15.336C-27.937,-14.97 -25.225,-14.56 -22.764,-14.105C-21.989,-13.923 -21.306,-13.695 -20.713,-13.422C-20.029,-12.692 -20.166,-12.077 -21.123,-11.576C-22.399,-11.166 -22.9,-10.414 -22.627,-9.32L-22.627,-0.912C-22.627,-0.136 -22.354,-0.205 -21.807,-1.117C-21.26,-2.301 -20.554,-3.168 -19.687,-3.715C-19.414,-3.759 -18.776,-3.349 -17.773,-2.484L-15.518,0.25C-14.834,1.162 -14.105,1.162 -13.33,0.25C-9.958,-4.17 -7.565,-8.91 -6.152,-13.968" style="fill:rgb(27,73,193);fill-rule:nonzero;"/>
            </g>
            <g transform="matrix(1,0,0,1,572.48,4045.74)">
                <path d="M0,-27.618C-0.729,-27.618 -1.276,-27.276 -1.641,-26.593C-2.188,-25.362 -2.78,-24.132 -3.418,-22.901C-3.601,-22.673 -3.646,-22.218 -3.555,-21.534C-3.464,-19.802 -3.168,-18.002 -2.666,-16.134C-1.892,-13.034 -1.117,-10.778 -0.342,-9.366C0.113,-8.454 0.501,-8.454 0.82,-9.366C2.598,-15.108 3.736,-20.827 4.238,-26.524C4.283,-27.253 3.941,-27.618 3.213,-27.618L0,-27.618ZM-20.781,-28.78C-21.465,-28.78 -21.807,-28.415 -21.807,-27.686L-21.807,-16.475C-21.807,-15.655 -21.602,-15.746 -21.191,-16.749C-19.87,-19.802 -18.891,-22.673 -18.252,-25.362C-18.07,-26.364 -17.5,-26.615 -16.543,-26.114L-10.801,-23.175C-9.98,-22.764 -9.479,-22.992 -9.297,-23.858L-8.545,-27.686C-8.408,-28.415 -8.705,-28.78 -9.434,-28.78L-20.781,-28.78ZM-42.451,-24.473C-42.087,-24.838 -41.472,-24.906 -40.605,-24.679C-38.601,-24.132 -36.823,-23.311 -35.273,-22.218C-32.084,-19.483 -31.218,-16.339 -32.676,-12.784C-33.223,-11.735 -34.043,-11.075 -35.137,-10.802C-35.82,-10.528 -36.777,-10.482 -38.008,-10.665C-39.011,-10.756 -39.785,-11.417 -40.332,-12.647L-40.469,-13.194L-40.469,-17.569C-40.561,-19.391 -41.062,-21.1 -41.973,-22.696C-42.565,-23.607 -42.725,-24.2 -42.451,-24.473M-31.104,-44.708C-31.195,-45.573 -30.785,-45.938 -29.873,-45.802C-28.096,-45.573 -26.296,-45.323 -24.473,-45.05C-23.105,-44.867 -21.762,-44.548 -20.439,-44.093C-19.893,-43.91 -19.528,-43.682 -19.346,-43.409C-18.981,-42.907 -19.187,-42.452 -19.961,-42.042C-20.417,-41.859 -20.827,-41.654 -21.191,-41.427C-21.511,-41.061 -21.67,-40.514 -21.67,-39.786L-21.67,-32.403C-21.67,-31.628 -21.306,-31.241 -20.576,-31.241L-19.687,-31.241C-18.959,-31.241 -18.184,-31.696 -17.363,-32.608L-16.201,-33.975C-15.563,-34.704 -15.404,-35.206 -15.723,-35.479C-16.361,-36.345 -16.589,-37.302 -16.406,-38.35C-16.315,-40.128 -16.726,-41.654 -17.637,-42.931C-18.412,-43.751 -18.662,-44.366 -18.389,-44.776C-18.115,-45.14 -17.546,-45.255 -16.68,-45.118C-15.085,-44.935 -13.398,-44.389 -11.621,-43.477C-8.933,-41.791 -8.044,-39.672 -8.955,-37.12C-9.138,-36.39 -9.753,-35.729 -10.801,-35.138C-11.394,-34.864 -11.325,-34.408 -10.596,-33.77L-8.887,-32.198C-8.158,-31.559 -7.725,-31.696 -7.588,-32.608C-7.041,-36.254 -6.723,-40.173 -6.631,-44.366C-6.631,-45.414 -6.176,-45.87 -5.264,-45.733L0.137,-44.708C1.959,-44.434 3.304,-44.138 4.17,-43.819C4.854,-43.637 5.309,-43.409 5.537,-43.136C5.855,-42.315 5.537,-41.745 4.58,-41.427L4.238,-41.29C3.463,-40.88 2.962,-40.241 2.734,-39.376C2.142,-36.686 1.367,-33.907 0.41,-31.036C0.182,-30.261 0.41,-29.874 1.094,-29.874L4.854,-29.874C5.582,-29.874 6.266,-30.329 6.904,-31.241C7.725,-32.335 8.636,-33.451 9.639,-34.591C10.413,-35.182 11.302,-35.206 12.305,-34.659C14.127,-33.246 16.019,-31.354 17.979,-28.985C18.206,-28.483 18.069,-28.051 17.568,-27.686C17.386,-27.595 16.861,-27.55 15.996,-27.55L14.902,-27.55C14.173,-27.55 13.763,-27.094 13.672,-26.182C12.806,-18.571 11.006,-11.348 8.271,-4.513C7.952,-3.6 7.154,-1.983 5.879,0.341C5.924,0.433 6.061,0.614 6.289,0.888C9.615,4.124 13.011,6.266 16.475,7.314C17.522,7.541 18.001,7.951 17.91,8.544C17.773,9.136 17.454,9.592 16.953,9.911C16.451,10.321 16.087,10.754 15.859,11.21C15.267,12.531 14.811,14.331 14.492,16.611C14.355,17.476 13.899,18 13.125,18.183C11.575,17.954 9.752,16.77 7.656,14.628C5.332,12.486 3.463,10.298 2.051,8.066C1.549,7.2 0.979,7.132 0.342,7.861C-0.434,8.772 -1.299,9.592 -2.256,10.321C-7.224,14.15 -12.396,16.724 -17.773,18.046C-18.867,18.274 -19.597,18.137 -19.961,17.636C-20.234,17.134 -19.916,16.633 -19.004,16.132C-12.396,12.486 -7.155,7.336 -3.281,0.683C-2.826,-0.001 -2.758,-0.798 -3.076,-1.71C-4.626,-6.905 -5.469,-12.214 -5.605,-17.638C-5.605,-18.412 -5.947,-18.344 -6.631,-17.432C-7.178,-16.703 -8.227,-15.541 -9.775,-13.946C-10.642,-13.126 -11.325,-12.875 -11.826,-13.194C-12.236,-13.558 -12.26,-14.242 -11.895,-15.245L-10.596,-19.005C-10.322,-19.825 -10.231,-20.235 -10.322,-20.235C-10.505,-20.189 -11.029,-19.733 -11.895,-18.868L-13.604,-17.227C-15.928,-15.177 -18.275,-13.604 -20.645,-12.511C-21.42,-12.145 -21.807,-11.508 -21.807,-10.597C-21.807,-9.684 -21.352,-9.138 -20.439,-8.956C-17.568,-8.454 -14.857,-7.338 -12.305,-5.606C-8.979,-3.19 -7.771,-0.502 -8.682,2.46C-9.138,3.964 -10.141,5.172 -11.689,6.083C-12.966,6.722 -14.265,6.539 -15.586,5.536C-16.315,4.808 -16.794,3.896 -17.021,2.802C-17.842,-0.844 -19.05,-3.692 -20.645,-5.743C-21.374,-6.472 -21.738,-6.472 -21.738,-5.743L-21.738,10.253C-22.012,13.352 -23.767,15.608 -27.002,17.021C-28.643,17.749 -30.329,18.183 -32.061,18.32C-32.517,18.228 -32.858,18.046 -33.086,17.773C-33.359,17.544 -33.52,17.089 -33.564,16.405C-33.838,14.856 -34.18,13.488 -34.59,12.304C-35.046,11.255 -35.844,10.64 -36.982,10.458C-37.575,10.185 -38.168,9.98 -38.76,9.843C-39.626,9.57 -40.014,9.159 -39.922,8.612C-39.785,7.974 -39.307,7.655 -38.486,7.655C-36.527,7.837 -34.521,7.905 -32.471,7.861C-31.013,8.179 -30.397,7.564 -30.625,6.015L-30.625,-4.513C-30.625,-5.287 -30.944,-5.219 -31.582,-4.307C-33.223,-1.847 -35.479,0.592 -38.35,3.007C-39.033,3.554 -39.375,4.169 -39.375,4.853C-39.375,5.536 -39.467,6.015 -39.648,6.288C-40.15,6.835 -40.674,6.79 -41.221,6.152C-42.634,4.056 -44.16,1.116 -45.801,-2.667C-46.303,-3.669 -46.12,-4.216 -45.254,-4.307C-40.697,-4.854 -36.186,-6.244 -31.719,-8.477C-30.99,-8.842 -30.625,-9.389 -30.625,-10.118L-30.625,-27.686C-30.625,-28.415 -30.99,-28.78 -31.719,-28.78L-35.957,-28.78C-38.327,-28.734 -40.674,-28.597 -42.998,-28.37C-43.91,-28.278 -44.594,-28.688 -45.049,-29.6C-45.231,-29.965 -45.391,-30.306 -45.527,-30.626C-45.893,-31.537 -45.642,-31.947 -44.775,-31.856C-41.95,-31.537 -39.17,-31.332 -36.436,-31.241L-31.719,-31.241C-30.99,-31.241 -30.625,-31.605 -30.625,-32.335L-30.625,-36.983C-30.717,-39.899 -30.876,-42.474 -31.104,-44.708" style="fill:rgb(27,73,193);fill-rule:nonzero;"/>
            </g>
            <g transform="matrix(1,0,0,1,634.618,4062.71)">
                <path d="M0,-61.341C0,-62.252 0.455,-62.616 1.367,-62.435C4.329,-61.888 7.018,-61.273 9.434,-60.589C10.801,-60.224 11.712,-59.905 12.168,-59.632C12.623,-59.404 12.806,-59.153 12.715,-58.88C12.578,-58.014 11.939,-57.513 10.801,-57.376C10.071,-57.103 9.547,-56.51 9.229,-55.599C8.727,-54.322 8.089,-52.933 7.314,-51.429C6.858,-50.653 6.973,-50.267 7.656,-50.267L10.459,-50.267C11.188,-50.267 11.939,-50.722 12.715,-51.634C13.626,-52.773 14.629,-53.912 15.723,-55.052C16.816,-56.054 17.454,-56.556 17.637,-56.556C18.092,-56.51 18.639,-56.214 19.277,-55.667C22.057,-53.297 23.971,-51.383 25.02,-49.925C25.611,-49.15 25.68,-48.534 25.225,-48.079C25.042,-47.897 24.518,-47.806 23.652,-47.806L20.029,-47.806L16.475,-47.874L6.289,-47.874C5.56,-47.874 4.898,-47.418 4.307,-46.507C1.846,-43.18 -1.071,-40.355 -4.443,-38.03C-5.264,-37.484 -5.902,-37.369 -6.357,-37.689C-6.768,-38.007 -6.699,-38.691 -6.152,-39.739C-5.15,-41.608 -4.353,-43.407 -3.76,-45.14C-1.618,-50.927 -0.365,-56.327 0,-61.341M-26.387,-32.904C-27.07,-32.904 -27.412,-32.516 -27.412,-31.741L-27.412,-26.478C-27.412,-25.748 -27.048,-25.384 -26.318,-25.384L-16.885,-25.384C-16.156,-25.384 -15.791,-25.748 -15.791,-26.478L-15.791,-31.741C-15.791,-32.516 -16.156,-32.904 -16.885,-32.904L-26.387,-32.904ZM-26.318,-41.722C-27.048,-41.722 -27.412,-41.38 -27.412,-40.696L-27.412,-36.185C-27.412,-35.409 -27.048,-35.023 -26.318,-35.023L-16.885,-35.023C-16.156,-35.023 -15.791,-35.387 -15.791,-36.116L-15.791,-40.628C-15.791,-41.357 -16.156,-41.722 -16.885,-41.722L-26.318,-41.722ZM-26.455,-61.478C-26.592,-62.389 -26.205,-62.799 -25.293,-62.708C-20.873,-62.161 -17.751,-61.637 -15.928,-61.136C-15.063,-60.68 -14.629,-60.361 -14.629,-60.179C-14.584,-59.586 -15.085,-59.062 -16.133,-58.607C-16.816,-58.105 -17.158,-57.489 -17.158,-56.761L-17.158,-53.958C-17.158,-53.229 -16.816,-52.864 -16.133,-52.864C-15.404,-52.864 -14.697,-53.32 -14.014,-54.232C-13.285,-55.097 -12.51,-55.986 -11.689,-56.898C-11.325,-57.489 -10.847,-57.831 -10.254,-57.923C-8.522,-57.148 -6.426,-55.279 -3.965,-52.318C-3.464,-51.679 -3.464,-51.178 -3.965,-50.814C-4.102,-50.677 -4.626,-50.609 -5.537,-50.609L-16.133,-50.609C-16.862,-50.609 -17.227,-50.243 -17.227,-49.515L-17.227,-45.277C-17.227,-44.547 -17.067,-44.183 -16.748,-44.183C-16.338,-44.046 -15.7,-44.41 -14.834,-45.277C-13.559,-46.37 -12.646,-47.008 -12.1,-47.191C-11.735,-47.327 -11.279,-47.213 -10.732,-46.849C-7.953,-45.253 -6.221,-43.932 -5.537,-42.884C-5.127,-42.154 -5.332,-41.517 -6.152,-40.97C-6.928,-40.286 -7.314,-39.579 -7.314,-38.851L-7.314,-30.374L-7.109,-23.538C-6.882,-22.991 -7.109,-22.399 -7.793,-21.761C-9.297,-20.986 -11.394,-20.667 -14.082,-20.804C-15.131,-20.804 -15.746,-21.327 -15.928,-22.376C-15.974,-22.877 -16.201,-23.128 -16.611,-23.128C-17.067,-23.128 -17.295,-22.763 -17.295,-22.034L-17.295,-16.702C-17.295,-16.019 -16.908,-15.653 -16.133,-15.609C-15.358,-15.563 -14.675,-15.927 -14.082,-16.702C-13.308,-17.704 -12.441,-18.707 -11.484,-19.71C-10.573,-20.394 -9.662,-20.485 -8.75,-19.984C-6.928,-18.48 -5.378,-17.044 -4.102,-15.677C-3.646,-14.902 -3.213,-14.925 -2.803,-15.745C-0.297,-20.849 3.418,-26.82 8.34,-33.655C8.932,-34.43 8.795,-34.794 7.93,-34.749C3.736,-34.657 0.729,-34.521 -1.094,-34.339C-2.006,-34.247 -2.666,-34.635 -3.076,-35.501L-3.35,-36.185C-3.852,-37.279 -3.669,-37.779 -2.803,-37.689C0.523,-37.279 4.329,-37.073 8.613,-37.073C9.342,-37.073 10.162,-37.438 11.074,-38.167C12.396,-39.215 13.535,-39.989 14.492,-40.491C15.357,-41.038 16.475,-40.787 17.842,-39.739C20.621,-37.689 22.217,-36.07 22.627,-34.886C22.672,-34.43 22.467,-34.02 22.012,-33.655C21.1,-33.199 20.188,-32.767 19.277,-32.357C18.502,-31.718 17.728,-30.875 16.953,-29.827C12.486,-23.766 8.932,-18.343 6.289,-13.558C5.787,-12.555 5.469,-11.644 5.332,-10.823C5.286,-10.413 5.628,-10.071 6.357,-9.798C9.775,-8.887 12.852,-9.024 15.586,-10.208C16.588,-10.846 17.249,-11.689 17.568,-12.737C18.389,-15.289 19.072,-17.773 19.619,-20.189C19.847,-21.191 20.279,-21.647 20.918,-21.556C21.556,-21.51 21.852,-21.031 21.807,-20.12C21.715,-17.431 21.829,-14.947 22.148,-12.669C22.285,-11.986 22.718,-11.393 23.447,-10.892C24.541,-10.39 25.247,-9.593 25.566,-8.499C25.885,-6.358 25.11,-4.603 23.242,-3.236C21.92,-2.324 20.12,-1.641 17.842,-1.185C13.375,-0.547 8.75,-0.525 3.965,-1.116C2.051,-1.345 0.25,-1.868 -1.436,-2.689C-3.669,-4.011 -4.877,-5.674 -5.059,-7.679C-5.15,-9.046 -4.899,-10.572 -4.307,-12.259C-4.033,-12.943 -4.284,-13.284 -5.059,-13.284L-16.064,-13.284C-16.794,-13.284 -17.158,-12.943 -17.158,-12.259L-17.158,-7.269L-17.09,-1.663C-16.816,-0.388 -17.387,0.432 -18.799,0.798C-21.215,1.345 -23.288,1.458 -25.02,1.139C-25.476,0.911 -25.84,0.706 -26.113,0.524C-26.296,0.251 -26.387,-0.342 -26.387,-1.253C-26.387,-3.304 -26.296,-5.423 -26.113,-7.611L-26.113,-12.191C-26.113,-12.919 -26.479,-13.284 -27.207,-13.284L-32.197,-13.284C-33.52,-13.238 -34.841,-13.148 -36.162,-13.011C-37.028,-12.919 -37.666,-13.398 -38.076,-14.446L-38.281,-15.062C-38.646,-15.973 -38.373,-16.361 -37.461,-16.224C-34.089,-15.814 -30.693,-15.609 -27.275,-15.609C-26.501,-15.609 -26.113,-15.973 -26.113,-16.702L-26.113,-22.034C-26.113,-22.763 -26.318,-23.128 -26.729,-23.128C-27.185,-23.128 -27.436,-22.672 -27.48,-21.761C-27.344,-20.712 -28.051,-19.984 -29.6,-19.573C-31.013,-19.254 -32.631,-19.117 -34.453,-19.163C-35.912,-19.254 -36.527,-20.074 -36.299,-21.624C-36.254,-23.629 -36.162,-25.612 -36.025,-27.571L-36.025,-40.355C-36.071,-41.949 -36.186,-43.568 -36.367,-45.208C-36.504,-46.073 -36.071,-46.415 -35.068,-46.234L-27.275,-44.183C-26.501,-44.183 -26.113,-44.547 -26.113,-45.277L-26.113,-49.515C-26.113,-50.243 -26.479,-50.609 -27.207,-50.609C-30.215,-50.653 -32.927,-50.563 -35.342,-50.335C-36.391,-50.243 -37.119,-50.609 -37.529,-51.429L-37.803,-51.976C-38.213,-53.07 -38.008,-53.548 -37.188,-53.411C-34.089,-53.001 -30.785,-52.819 -27.275,-52.864C-26.501,-52.864 -26.113,-53.229 -26.113,-53.958L-26.113,-57.445C-26.205,-58.766 -26.318,-60.111 -26.455,-61.478" style="fill:rgb(27,73,193);fill-rule:nonzero;"/>
            </g>
            <g transform="matrix(1,0,0,1,710.224,4035.71)">
                <path d="M0,-5.901C-0.684,-5.901 -0.935,-5.513 -0.752,-4.739C0.159,-1.047 1.686,2.667 3.828,6.404C4.283,7.133 4.785,7.042 5.332,6.13C7.063,3.396 8.316,0.639 9.092,-2.141C9.319,-2.87 9.205,-3.257 8.75,-3.303C8.294,-3.44 7.884,-3.599 7.52,-3.782C7.154,-4.146 6.973,-4.579 6.973,-5.081C6.973,-5.628 6.607,-5.901 5.879,-5.901L0,-5.901ZM-5.332,-17.522C-6.062,-17.522 -6.426,-17.157 -6.426,-16.428L-6.426,-9.182C-6.426,-8.407 -6.062,-8.02 -5.332,-8.02L5.879,-8.02C6.607,-8.02 6.973,-8.384 6.973,-9.114L6.973,-16.428C6.973,-17.157 6.607,-17.522 5.879,-17.522L-5.332,-17.522ZM-5.332,-28.528C-6.062,-28.528 -6.426,-28.163 -6.426,-27.434L-6.426,-20.872C-6.426,-20.142 -6.062,-19.778 -5.332,-19.778L5.879,-19.778C6.607,-19.778 6.973,-20.142 6.973,-20.872L6.973,-27.434C6.973,-28.163 6.607,-28.528 5.879,-28.528L-5.332,-28.528ZM-32.129,-0.364C-32.858,-0.364 -33.223,-0.022 -33.223,0.661L-33.223,10.3C-33.223,11.076 -32.858,11.462 -32.129,11.462L-29.736,11.462C-29.008,11.462 -28.643,11.098 -28.643,10.369L-28.643,0.73C-28.643,0.001 -29.008,-0.364 -29.736,-0.364L-32.129,-0.364ZM-32.129,-13.967C-32.858,-13.967 -33.223,-13.602 -33.223,-12.874L-33.223,-3.85C-33.223,-3.121 -32.858,-2.756 -32.129,-2.756L-29.736,-2.756C-29.008,-2.756 -28.643,-3.121 -28.643,-3.85L-28.643,-12.805C-28.643,-13.58 -29.008,-13.967 -29.736,-13.967L-32.129,-13.967ZM-32.129,-27.161C-32.858,-27.161 -33.223,-26.796 -33.223,-26.067L-33.223,-17.385C-33.223,-16.61 -32.858,-16.223 -32.129,-16.223L-29.736,-16.223C-29.008,-16.223 -28.643,-16.588 -28.643,-17.317L-28.643,-25.999C-28.643,-26.773 -29.008,-27.161 -29.736,-27.161L-32.129,-27.161ZM10.049,-33.997C10.641,-34.498 11.256,-34.566 11.895,-34.202C13.443,-33.563 15.244,-32.379 17.295,-30.647C18.57,-29.462 18.525,-28.482 17.158,-27.708C16.383,-26.887 15.996,-26.112 15.996,-25.383L15.996,-13.626L16.338,-5.491C16.201,-4.944 15.95,-4.51 15.586,-4.192C14.537,-3.553 12.965,-3.235 10.869,-3.235C10.049,-3.235 10.117,-3.006 11.074,-2.551C13.672,-1.229 15.928,0.024 17.842,1.208C19.346,2.029 19.71,2.849 18.936,3.669C18.616,3.852 18.092,3.943 17.363,3.943C16.68,3.898 16.178,4.035 15.859,4.353C12.715,6.632 9.729,8.249 6.904,9.206C6.175,9.389 6.175,9.936 6.904,10.847C10.413,14.174 14.15,16.316 18.115,17.273C19.163,17.364 19.687,17.705 19.687,18.298C19.551,18.936 19.346,19.3 19.072,19.392C17.613,20.12 16.725,21.511 16.406,23.562C16.314,24.473 16.178,25.384 15.996,26.296C15.859,27.618 15.244,28.164 14.15,27.937C12.1,27.39 9.866,25.794 7.451,23.152C3.167,18.411 0.205,12.99 -1.436,6.882C-2.484,3.146 -3.122,-0.706 -3.35,-4.671C-3.396,-5.445 -3.92,-5.833 -4.922,-5.833C-5.925,-5.833 -6.426,-5.467 -6.426,-4.739L-6.426,14.949C-6.426,15.678 -5.971,16.02 -5.059,15.974C-3.19,15.837 -1.413,15.632 0.273,15.359C1.139,15.222 1.641,15.427 1.777,15.974C1.868,16.521 1.504,17.16 0.684,17.888C-4.33,21.761 -9.502,24.245 -14.834,25.339C-15.518,25.521 -15.996,26.068 -16.27,26.98C-16.726,28.392 -17.341,28.665 -18.115,27.8C-19.164,25.02 -20.166,21.761 -21.123,18.025C-21.306,17.25 -21.853,16.999 -22.764,17.273C-23.584,17.41 -24.404,17.478 -25.225,17.478C-26.638,17.615 -27.641,17.432 -28.232,16.931C-28.688,16.43 -28.848,15.769 -28.711,14.949C-28.711,14.174 -29.076,13.786 -29.805,13.786L-32.197,13.786C-32.927,13.786 -33.291,14.128 -33.291,14.812L-33.291,18.435C-33.291,19.346 -33.337,19.915 -33.428,20.144C-33.793,20.691 -34.316,21.078 -35,21.306C-36.641,21.761 -38.396,21.944 -40.264,21.853C-40.811,21.807 -41.267,21.693 -41.631,21.511C-42.27,21.009 -42.497,20.462 -42.314,19.87C-42.133,13.263 -42.041,6.017 -42.041,-1.868L-42.041,-25.315C-42.087,-27.411 -42.224,-29.28 -42.451,-30.921C-42.588,-31.786 -42.155,-32.105 -41.152,-31.878C-38.601,-31.285 -35.935,-30.487 -33.154,-29.485L-30.146,-29.485C-29.463,-29.485 -28.666,-29.918 -27.754,-30.784L-26.387,-31.946C-25.202,-33.221 -24.062,-33.336 -22.969,-32.288C-21.921,-31.695 -20.576,-30.76 -18.936,-29.485C-17.341,-28.482 -17.204,-27.457 -18.525,-26.409C-19.756,-25.497 -20.234,-24.608 -19.961,-23.743L-19.961,4.079L-19.687,13.376C-19.46,14.653 -19.551,15.519 -19.961,15.974C-20.098,16.157 -19.733,16.271 -18.867,16.316L-16.68,16.384C-15.951,16.384 -15.586,16.02 -15.586,15.29L-15.586,-26.204C-15.632,-28.619 -15.769,-30.715 -15.996,-32.493C-16.088,-33.404 -15.7,-33.768 -14.834,-33.587C-11.963,-32.811 -9.023,-31.9 -6.016,-30.852L5.469,-30.852C6.197,-30.852 6.927,-31.216 7.656,-31.946C8.431,-32.72 9.229,-33.404 10.049,-33.997" style="fill:rgb(27,73,193);fill-rule:nonzero;"/>
            </g>
            <g transform="matrix(1,0,0,1,791.708,4048.36)">
                <path d="M0,-33.108C0.82,-33.381 1.709,-33.016 2.666,-32.014C5.811,-29.417 7.542,-27.434 7.861,-26.067C7.906,-25.748 7.725,-25.474 7.314,-25.247C7.223,-25.201 6.722,-25.178 5.811,-25.178L-6.631,-25.178C-7.36,-25.178 -7.725,-24.813 -7.725,-24.085L-7.725,-11.37C-7.725,-10.64 -7.246,-10.276 -6.289,-10.276C-5.332,-10.276 -4.558,-10.731 -3.965,-11.643C-2.871,-13.421 -1.96,-14.673 -1.23,-15.403C-0.639,-15.721 -0.068,-15.653 0.479,-15.198C1.8,-14.012 3.189,-12.669 4.648,-11.165L5.742,-9.797C6.38,-8.338 5.855,-7.723 4.17,-7.952L-6.699,-7.952C-7.429,-7.952 -7.793,-7.587 -7.793,-6.858L-7.793,8.728C-7.793,9.456 -7.429,9.822 -6.699,9.822L-5.469,9.822C-4.74,9.822 -4.057,9.366 -3.418,8.455C-2.416,6.951 -1.367,5.606 -0.273,4.421C0.273,3.601 0.934,3.533 1.709,4.216C3.44,5.401 5.4,7.292 7.588,9.89C7.952,10.528 8.135,10.984 8.135,11.257C8.135,11.621 7.975,11.895 7.656,12.078C7.474,12.168 6.927,12.214 6.016,12.214L-33.086,12.214L-38.076,12.488C-39.125,12.579 -39.899,12.214 -40.4,11.394L-40.674,10.847C-41.221,9.753 -41.062,9.251 -40.195,9.343C-37.37,9.617 -34.636,9.776 -31.992,9.822C-31.264,9.822 -30.898,9.456 -30.898,8.728L-30.898,-8.157C-30.944,-10.663 -31.127,-13.033 -31.445,-15.266C-31.582,-16.177 -31.195,-16.61 -30.283,-16.565C-25.635,-16.2 -22.354,-15.653 -20.439,-14.924C-19.301,-14.104 -19.506,-13.352 -21.055,-12.669C-21.784,-12.167 -22.148,-11.551 -22.148,-10.823L-22.148,8.728C-22.148,9.456 -21.784,9.822 -21.055,9.822L-18.047,9.822C-17.318,9.822 -16.953,9.456 -16.953,8.728L-16.953,-24.016C-16.953,-24.791 -17.318,-25.178 -18.047,-25.178L-25.225,-25.178C-27.367,-25.087 -29.35,-24.95 -31.172,-24.768C-32.129,-24.676 -32.813,-25.11 -33.223,-26.067L-33.564,-26.751C-34.021,-27.753 -33.815,-28.209 -32.949,-28.118C-29.851,-27.798 -26.797,-27.593 -23.789,-27.503L-5.264,-27.503C-4.535,-27.503 -3.874,-27.958 -3.281,-28.87C-2.188,-30.601 -1.094,-32.014 0,-33.108M-26.729,-48.626L-22.354,-48.626C-20.258,-48.58 -18.457,-48.284 -16.953,-47.737C-13.49,-46.37 -12.236,-44.022 -13.193,-40.696C-13.33,-40.24 -13.581,-39.739 -13.945,-39.192C-14.492,-38.69 -14.311,-38.417 -13.398,-38.372L-6.904,-38.303C-5.993,-38.303 -5.219,-38.758 -4.58,-39.67C-3.578,-40.992 -2.507,-42.337 -1.367,-43.704C-0.639,-44.661 0.022,-44.957 0.615,-44.592C2.438,-43.453 4.922,-41.174 8.066,-37.756C8.75,-36.253 8.248,-35.637 6.562,-35.911L-33.975,-35.911C-34.704,-35.911 -35.068,-35.546 -35.068,-34.817L-35.068,-19.573C-35.205,-13.375 -36.003,-7.678 -37.461,-2.483C-39.648,4.399 -44.16,10.208 -50.996,14.949C-51.862,15.45 -52.523,15.518 -52.979,15.154C-53.435,14.788 -53.32,14.151 -52.637,13.24C-50.404,10.095 -48.718,6.585 -47.578,2.712C-46.257,-1.343 -45.346,-5.604 -44.844,-10.071C-44.799,-10.799 -45.026,-10.709 -45.527,-9.797C-46.484,-8.02 -47.624,-6.356 -48.945,-4.807C-49.902,-4.078 -50.336,-3.394 -50.244,-2.756C-50.107,-1.434 -50.563,-0.751 -51.611,-0.706C-52.204,-1.07 -52.705,-1.981 -53.115,-3.44C-53.981,-5.901 -54.824,-8.362 -55.645,-10.823C-55.918,-11.734 -55.6,-12.235 -54.688,-12.327C-51.862,-12.508 -48.854,-13.238 -45.664,-14.514C-44.936,-14.833 -44.57,-15.357 -44.57,-16.087L-44.57,-22.444C-44.57,-23.128 -44.685,-23.036 -44.912,-22.17C-45.961,-19.891 -47.761,-18.912 -50.313,-19.231C-51.589,-19.368 -52.478,-20.165 -52.979,-21.624C-53.252,-22.444 -53.32,-23.492 -53.184,-24.768C-52.91,-26.864 -53.435,-29.12 -54.756,-31.536C-55.349,-32.447 -55.485,-33.062 -55.166,-33.381C-54.848,-33.7 -54.232,-33.746 -53.32,-33.518C-51.406,-32.971 -49.606,-32.128 -47.92,-30.989C-46.143,-29.667 -45.072,-28.004 -44.707,-25.999C-44.616,-25.223 -44.57,-25.178 -44.57,-25.862L-44.57,-31.262C-44.662,-34.999 -44.821,-37.801 -45.049,-39.67C-45.231,-40.764 -44.912,-41.219 -44.092,-41.038C-41.039,-40.399 -37.826,-39.556 -34.453,-38.508L-23.379,-38.508C-22.65,-38.508 -22.582,-38.963 -23.174,-39.876C-23.676,-42.017 -24.655,-43.817 -26.113,-45.276C-26.569,-45.731 -27.002,-46.096 -27.412,-46.37C-28.369,-46.871 -28.757,-47.349 -28.574,-47.805C-28.437,-48.26 -27.914,-48.511 -27.002,-48.557C-26.911,-48.557 -26.82,-48.58 -26.729,-48.626" style="fill:rgb(27,73,193);fill-rule:nonzero;"/>
            </g>
        </g>
    </g>
</svg>
