<?xml version="1.0" encoding="UTF-8" standalone="no"?>
<!DOCTYPE svg PUBLIC "-//W3C//DTD SVG 1.1//EN" "http://www.w3.org/Graphics/SVG/1.1/DTD/svg11.dtd">
<svg width="100%" height="100%" viewBox="0 0 170 170" version="1.1" xmlns="http://www.w3.org/2000/svg" xmlns:xlink="http://www.w3.org/1999/xlink" xml:space="preserve" xmlns:serif="http://www.serif.com/" style="fill-rule:evenodd;clip-rule:evenodd;stroke-linejoin:round;stroke-miterlimit:2;">
    <g transform="matrix(1.00023,0,0,1.00023,-1349.52,-3410.03)">
        <g transform="matrix(0,-1,-1,0,1434.2,3414.26)">
            <ellipse cx="-79.983" cy="0.001" rx="79.982" ry="79.983" style="fill:none;"/>
        </g>
        <g transform="matrix(0,1,1,0,1400.21,3531.3)">
            <path d="M5.861,-1.655C7.935,-1.655 9.617,0.027 9.617,2.099C9.617,4.175 7.935,5.861 5.861,5.861C3.787,5.861 -2.101,2.099 -2.101,2.099C-2.101,2.099 3.787,-1.655 5.861,-1.655"/>
        </g>
        <g transform="matrix(1,0,0,1,1453.13,3502.76)">
            <path d="M0,-48.445C-1.528,-49.971 -3.942,-50.034 -5.394,-48.584L-23.836,-30.14C-26.333,-27.643 -27.521,-24.097 -27.071,-20.48L-26.376,-14.899C-26.169,-13.232 -26.716,-11.597 -27.868,-10.446L-31.198,-7.115L-26.847,-2.763L-22.495,1.589L-19.164,-1.742C-18.013,-2.893 -16.377,-3.441 -14.71,-3.234L-9.129,-2.539C-5.513,-2.091 -1.967,-3.277 0.529,-5.773L18.972,-24.216C20.424,-25.668 20.361,-28.082 18.835,-29.609L0,-48.445Z"/>
        </g>
        <g transform="matrix(1,0,0,1,1463.98,3500.27)">
            <path d="M0,-26.064C-0.942,-25.146 -2.389,-23.717 -8.08,-17.954C-12.873,-13.101 -18.047,-8.045 -20.911,-8.045C-26.139,-8.045 -37.764,-18.382 -37.958,-18.502C-37.944,-18.33 -37.944,-18.161 -37.923,-17.988L-37.228,-12.407C-37.021,-10.74 -37.567,-9.105 -38.72,-7.954L-42.05,-4.623L-37.698,-0.271L-33.347,4.082L-30.016,0.75C-28.864,-0.401 -27.229,-0.949 -25.562,-0.742L-19.98,-0.046C-16.364,0.402 -12.818,-0.785 -10.322,-3.281L8.12,-21.724C9.572,-23.175 9.44,-25.783 7.832,-27.224C6.358,-28.547 4.191,-30.146 0,-26.064"/>
        </g>
        <g transform="matrix(1,0,0,1,1469.03,3500.38)">
            <path d="M0,-23.791C-4.353,-19.283 -15.115,-8.151 -17.282,-6.11C-20.012,-3.536 -24.304,-2.677 -27.15,-3.652C-29.997,-4.627 -42.829,-17.536 -42.829,-17.536L-42.899,-17.511L-42.278,-12.52C-42.071,-10.853 -42.618,-9.218 -43.771,-8.066L-47.101,-4.735L-42.749,-0.384L-38.397,3.969L-35.066,0.638C-33.915,-0.514 -32.991,-1.948 -31.323,-1.742L-25.852,-0.979C-22.233,-0.528 -18.689,-1.717 -16.191,-4.214L2.252,-22.656C3.701,-24.107 3.197,-26.232 1.669,-27.76C1.669,-27.76 1.032,-24.862 0,-23.791"/>
        </g>
        <g transform="matrix(1,0,0,1,1412.28,3505.8)">
            <path d="M0,-8.727C-4.59,-4.139 -4.59,3.371 0,7.958L0.251,8.21C4.84,12.8 12.349,12.8 16.937,8.21L29.735,-4.587L12.797,-21.527L0,-8.727Z"/>
        </g>
        <g transform="matrix(0.707245,0.706969,0.706969,-0.707245,1397.86,3515.81)">
            <path d="M7.345,-4.444L10.969,-4.444L12.435,16.033L5.404,16.033L7.345,-4.444Z"/>
        </g>
        <g transform="matrix(1,0,0,1,1411.14,3516.89)">
            <path d="M0,-5.236L-9.981,6.733L-8.155,8.602L3.808,-1.705C8.329,0.666 13.535,0.706 17.376,-3.135L28.077,-13.838L-1.487,-13.804C-2.041,-11.003 -1.479,-7.761 0,-5.236"/>
        </g>
        <g transform="matrix(0.707088,0.707126,0.707126,-0.707088,1427.46,3482.24)">
            <rect x="-1.294" y="-10.249" width="26.035" height="7.126"/>
        </g>
        <g transform="matrix(0.707107,0.707107,0.707107,-0.707107,1437.48,3458.95)">
            <rect x="3.877" y="-15.875" width="34.45" height="25.235"/>
        </g>
        <g transform="matrix(1.04206,0,0,1.02801,1434.12,3573.7)">
            <path d="M0,-156.964C-43.274,-156.964 -78.48,-121.757 -78.48,-78.481C-78.48,-35.206 -43.274,0 0,0C43.276,0 78.483,-35.206 78.483,-78.481C78.483,-121.757 43.276,-156.964 0,-156.964M0,3C-44.929,3 -81.48,-33.552 -81.48,-78.481C-81.48,-123.41 -44.929,-159.964 0,-159.964C44.93,-159.964 81.483,-123.41 81.483,-78.481C81.483,-33.552 44.93,3 0,3"/>
        </g>
    </g>
</svg>
