<?xml version="1.0" encoding="UTF-8" standalone="no"?>
<!DOCTYPE svg PUBLIC "-//W3C//DTD SVG 1.1//EN" "http://www.w3.org/Graphics/SVG/1.1/DTD/svg11.dtd">
<svg width="100%" height="100%" viewBox="0 0 163 163" version="1.1" xmlns="http://www.w3.org/2000/svg" xmlns:xlink="http://www.w3.org/1999/xlink" xml:space="preserve" xmlns:serif="http://www.serif.com/" style="fill-rule:evenodd;clip-rule:evenodd;stroke-linejoin:round;stroke-miterlimit:2;">
    <g transform="matrix(1.00022,0,0,1.00022,-414.151,-2483.64)">
        <g transform="matrix(1,0,0,1,495.542,2643.06)">
            <path d="M0,-156.965C-43.275,-156.965 -78.482,-121.758 -78.482,-78.483C-78.482,-35.207 -43.275,0 0,0C43.275,0 78.482,-35.207 78.482,-78.483C78.482,-121.758 43.275,-156.965 0,-156.965M0,3C-44.93,3 -81.482,-33.553 -81.482,-78.483C-81.482,-123.412 -44.93,-159.965 0,-159.965C44.93,-159.965 81.482,-123.412 81.482,-78.483C81.482,-33.553 44.93,3 0,3" />
        </g>
        <g>
            <g transform="matrix(-1,0,0,1,484.358,2588)">
                <path d="M-26.203,21.632L0,21.632L-5.432,0L-20.77,0L-26.203,21.632Z" />
            </g>
            <g transform="matrix(1,0,0,1,0,358.535)">
                <path d="M534.221,2222.41L460.7,2222.41L460.7,2171.55L534.221,2171.55L534.221,2222.41ZM537.356,2165.51L457.563,2165.51C454.837,2165.51 452.626,2167.72 452.626,2170.44L452.626,2227.66C452.626,2230.39 454.837,2232.6 457.563,2232.6L537.356,2232.6C540.082,2232.6 542.295,2230.39 542.295,2227.66L542.295,2170.44C542.295,2167.72 540.082,2165.51 537.356,2165.51" />
            </g>
            <g transform="matrix(1,0,0,1,514.948,2604.73)">
                <path d="M0,8.264L-35.038,7.993C-37.223,7.978 -38.981,6.193 -38.965,4.007L-38.965,3.927C-38.946,1.742 -37.161,-0.016 -34.975,0.001L0.062,0.269C2.246,0.284 4.005,2.072 3.988,4.255L3.987,4.337C3.97,6.522 2.187,8.28 0,8.264" />
            </g>
        </g>
    </g>
</svg>
