<?xml version="1.0" encoding="UTF-8" standalone="no"?>
<!DOCTYPE svg PUBLIC "-//W3C//DTD SVG 1.1//EN" "http://www.w3.org/Graphics/SVG/1.1/DTD/svg11.dtd">
<svg width="100%" height="100%" viewBox="0 0 83 63" version="1.1" xmlns="http://www.w3.org/2000/svg" xmlns:xlink="http://www.w3.org/1999/xlink" xml:space="preserve" xmlns:serif="http://www.serif.com/" style="fill-rule:evenodd;clip-rule:evenodd;stroke-linejoin:round;stroke-miterlimit:2;">
    <g transform="matrix(1.00022,0,0,1.00022,73.0372,64.1951)">
        <path d="M0,-64.062C-18.63,-61.392 -36.444,-53.723 -53.631,-46.377C-59.006,-44.081 -58.024,-36.009 -53.631,-33.426C-43.694,-27.583 -32.205,-26.571 -21.159,-24.206C-21.756,-28.775 -22.354,-33.344 -22.95,-37.914C-36.683,-28.515 -51.625,-20.874 -67.71,-16.454C-77.024,-13.893 -73.065,0.579 -63.722,-1.989C-46.464,-6.733 -30.119,-14.874 -15.38,-24.962C-10.417,-28.358 -10.346,-37.208 -17.171,-38.67C-26.789,-40.729 -37.424,-41.298 -46.061,-46.377L-46.061,-33.426C-30.054,-40.267 -13.346,-47.114 3.988,-49.597C8.042,-50.178 10.206,-55.263 9.227,-58.824C8.041,-63.133 4.044,-64.641 0,-64.062" style="fill:rgb(242,234,93);fill-rule:nonzero;"/>
    </g>
</svg>
