<?xml version="1.0" encoding="UTF-8" standalone="no"?>
<!DOCTYPE svg PUBLIC "-//W3C//DTD SVG 1.1//EN" "http://www.w3.org/Graphics/SVG/1.1/DTD/svg11.dtd">
<svg width="100%" height="100%" viewBox="0 0 86 60" version="1.1" xmlns="http://www.w3.org/2000/svg" xmlns:xlink="http://www.w3.org/1999/xlink" xml:space="preserve" xmlns:serif="http://www.serif.com/" style="fill-rule:evenodd;clip-rule:evenodd;stroke-linejoin:round;stroke-miterlimit:2;">
    <g transform="matrix(0.999628,0,0,0.999628,84.0989,8.19645)">
        <path d="M0,39.607C-9.264,26.887 -18.737,14.316 -28.68,2.118C-32.665,-2.771 -39.319,0.829 -41.216,5.427C-44.789,14.093 -46.63,23.443 -46.773,32.812L-39.273,25.312C-45.116,25.07 -50.905,17.084 -54.52,12.74C-59.857,6.324 -64.536,-0.97 -70.998,-6.345C-78.377,-12.484 -89.049,-1.932 -81.605,4.261C-67.971,15.604 -59.573,39.469 -39.273,40.312C-35.141,40.484 -31.834,36.769 -31.773,32.812C-31.649,24.712 -29.836,16.895 -26.751,9.416C-30.93,10.518 -35.108,11.622 -39.287,12.725C-30.15,23.934 -21.465,35.49 -12.953,47.177C-10.551,50.475 -6.486,52.091 -2.691,49.868C0.569,47.959 2.412,42.919 0,39.607" style="fill:rgb(242,234,93);fill-rule:nonzero;"/>
    </g>
</svg>
