<?xml version="1.0" encoding="UTF-8" standalone="no"?>
<!DOCTYPE svg PUBLIC "-//W3C//DTD SVG 1.1//EN" "http://www.w3.org/Graphics/SVG/1.1/DTD/svg11.dtd">
<svg width="100%" height="100%" viewBox="0 0 323 180" version="1.1" xmlns="http://www.w3.org/2000/svg" xmlns:xlink="http://www.w3.org/1999/xlink" xml:space="preserve" xmlns:serif="http://www.serif.com/" style="fill-rule:evenodd;clip-rule:evenodd;stroke-linejoin:round;stroke-miterlimit:2;">
    <g transform="matrix(1.00003,0,0,1.00003,-1198.09,-895.281)">
        <g>
            <clipPath id="_clip1">
                <path d="M1283.19,917.629C1264.39,926.464 1247.61,940.951 1232.51,959.291C1222.45,971.513 1204.44,998.057 1206.83,1015.12C1209.07,1031.22 1233.71,1044.91 1245.47,1050.98C1265.33,1061.23 1283.05,1064.4 1301.56,1065.57C1354.95,1068.95 1404.2,1063 1445.32,1033.21C1448.68,1030.78 1452,1028.1 1454.11,1024.53C1458.57,1016.94 1456.63,1007.29 1453.7,998.988C1438.95,957.257 1399.87,924.589 1357.85,912.65C1346.71,909.484 1336.09,907.992 1325.96,907.992C1310.63,907.992 1296.41,911.413 1283.19,917.629Z" clip-rule="nonzero"/>
            </clipPath>
            <g clip-path="url(#_clip1)">
                <g transform="matrix(1,0,0,1,1279.4,1061.17)">
                    <path d="M0,-150.069C7.262,-153.454 14.734,-156.363 22.236,-158.785C38.234,-163.939 55.155,-167.428 71.822,-165.261C90.095,-162.892 106.857,-153.883 122.03,-143.43C142.552,-129.286 161.326,-111.804 173.305,-89.956C180.273,-77.237 184.838,-61.983 180.086,-48.289C177.138,-39.797 170.899,-32.822 163.98,-27.083C146.018,-12.188 130.544,10.524 108.152,11.805C80.979,13.367 40.932,17.359 14.166,12.251C-22.146,5.322 -85.312,-22.413 -69.993,-76.664C-60.48,-110.363 -32.258,-134.994 0,-150.069" style="fill:white;fill-rule:nonzero;"/>
                </g>
                <g opacity="0.75">
                    <g transform="matrix(0.31782,-0.948151,-0.948151,-0.31782,1353.31,939.171)">
                        <path d="M-64.361,-46.311C-101.854,-46.32 -132.246,-15.923 -132.248,21.57C-132.249,59.063 -101.857,89.457 -64.361,89.457C-26.875,89.455 3.518,59.064 3.528,21.58C3.527,-15.915 -26.865,-46.312 -64.361,-46.311" style="fill:rgb(173,190,225);fill-rule:nonzero;"/>
                    </g>
                </g>
                <g transform="matrix(0.317781,-0.948164,-0.948164,-0.317781,1336.73,961.129)">
                    <path d="M-38.269,-27.534C-60.558,-27.535 -78.63,-9.468 -78.632,12.821C-78.63,35.116 -60.558,53.185 -38.269,53.185C-15.978,53.187 2.094,35.117 2.091,12.822C2.089,-9.466 -15.977,-27.531 -38.269,-27.534" style="fill:rgb(35,43,89);fill-rule:nonzero;"/>
                </g>
                <g transform="matrix(0.317752,-0.948174,-0.948174,-0.317752,1289.04,971.13)">
                    <path d="M-14.928,-10.744C-23.62,-10.741 -30.671,-3.697 -30.666,5.001C-30.672,13.693 -23.622,20.746 -14.928,20.743C-6.238,20.74 0.813,13.692 0.817,4.998C0.818,-3.694 -6.234,-10.743 -14.928,-10.744" style="fill:rgb(255,240,239);fill-rule:nonzero;"/>
                </g>
            </g>
        </g>
        <g transform="matrix(1,0,0,1,1306.38,1032.94)">
            <path d="M0,-125.959C11.061,-127.646 22.934,-127.538 35.659,-125.279C66.813,-119.745 94.902,-102.903 119.609,-83.138C143.796,-63.777 168.513,-42.285 190.065,-20.139C184.78,-9.782 177.712,-8.676 167.697,-6.483C164.6,-5.81 137.168,-0.606 137.595,1.687C126.929,-55.44 63.807,-98.085 8.019,-97.864C-42.022,-97.664 -72.817,-69.615 -99.09,-30.076C-80.6,-77.206 -48.07,-118.616 0,-125.959" style="fill:rgb(46,88,176);fill-rule:nonzero;"/>
        </g>
    </g>
</svg>
