<?xml version="1.0" encoding="UTF-8" standalone="no"?>
<!DOCTYPE svg PUBLIC "-//W3C//DTD SVG 1.1//EN" "http://www.w3.org/Graphics/SVG/1.1/DTD/svg11.dtd">
<svg width="100%" height="100%" viewBox="0 0 163 163" version="1.1" xmlns="http://www.w3.org/2000/svg" xmlns:xlink="http://www.w3.org/1999/xlink" xml:space="preserve" xmlns:serif="http://www.serif.com/" style="fill-rule:evenodd;clip-rule:evenodd;stroke-linejoin:round;stroke-miterlimit:2;">
    <g transform="matrix(1.00023,0,0,1.00023,-181.333,-2486.55)">
        <g transform="matrix(1,0,0,1,213.824,2576.77)">
            <path d="M0,35.467L97.895,35.467C99.068,35.467 100.023,34.514 100.023,33.338L100.023,30.211C100.023,18.447 92.558,7.946 81.441,4.082L70.494,0.274C69.688,0 68.797,0.219 68.226,0.846C62.862,6.702 56.017,9.928 48.947,9.928C41.876,9.928 35.03,6.702 29.669,0.846C29.094,0.219 28.206,0 27.4,0.274L16.451,4.082C5.336,7.946 -2.127,18.447 -2.127,30.211L-2.127,33.338C-2.127,34.514 -1.177,35.467 0,35.467" />
        </g>
        <g transform="matrix(1,0,0,1,286.048,2535.72)">
            <path d="M0,21.083C-0.574,20.724 -1.288,20.658 -1.924,20.916C-2.557,21.172 -3.031,21.714 -3.194,22.377C-6.169,34.39 -14.24,42.464 -23.276,42.464C-32.313,42.464 -40.386,34.39 -43.362,22.377C-43.524,21.714 -44.063,21.222 -44.696,20.964C-45.32,20.714 -46.103,20.817 -46.685,21.181C-47.214,21.181 -48.813,18.915 -48.813,14.796C-48.813,13.664 -48.653,12.596 -48.407,11.599C-45.209,10.114 -35.571,4.923 -32.641,-4.862C-26.261,2.125 -11.911,11.345 1.966,12.068C2.14,12.935 2.261,13.842 2.261,14.796C2.261,18.931 0.723,21.242 0,21.083M-23.276,-25.636C-39.702,-25.636 -53.069,-12.273 -53.069,4.156C-53.069,11.028 -56.892,26.247 -60.958,30.317C-61.792,31.148 -61.792,32.496 -60.958,33.326C-56.255,38.034 -40.239,40.099 -38.432,40.321C-38.344,40.329 -38.257,40.335 -38.173,40.335C-38.156,40.335 -38.14,40.321 -38.121,40.321C-33.892,44.361 -28.757,46.719 -23.276,46.719C-17.797,46.719 -12.661,44.361 -8.433,40.321C-8.414,40.321 -8.399,40.335 -8.379,40.335C-8.297,40.335 -8.21,40.329 -8.122,40.321C-6.314,40.099 9.701,38.034 14.406,33.326C15.239,32.496 15.239,31.148 14.406,30.317C10.338,26.247 6.518,11.028 6.518,4.156C6.518,-12.273 -6.851,-25.636 -23.276,-25.636" />
        </g>
        <g transform="matrix(1,0,0,1,256.388,2550.51)">
            <path d="M0,-4.254L-4.256,-4.254C-5.435,-4.254 -6.385,-3.305 -6.385,-2.128C-6.385,-0.951 -5.435,0 -4.256,0L0,0C1.175,0 2.127,-0.951 2.127,-2.128C2.127,-3.305 1.175,-4.254 0,-4.254" />
        </g>
        <g transform="matrix(1,0,0,1,273.411,2550.51)">
            <path d="M0,-4.254L-4.255,-4.254C-5.433,-4.254 -6.383,-3.305 -6.383,-2.128C-6.383,-0.951 -5.433,0 -4.255,0L0,0C1.176,0 2.129,-0.951 2.129,-2.128C2.129,-3.305 1.176,-4.254 0,-4.254" />
        </g>
        <g transform="matrix(0.10048,0.994939,0.994939,-0.10048,260.444,2558.92)">
            <path d="M14.772,-12.002C13.489,-2.389 16.187,7.059 17.259,16.559C17.44,18.162 14.953,18.411 14.772,16.81C13.674,7.068 10.991,-2.563 12.307,-12.42C12.52,-14.018 14.986,-13.598 14.772,-12.002" />
        </g>
        <g transform="matrix(1,0,0,1,275.79,2556.26)">
            <path d="M0,-6.371C0,-6.371 -4.243,-1.312 0,0C0,0 3.121,-0.174 0,-6.371" />
        </g>
        <g transform="matrix(-0.974093,-0.226146,-0.226146,0.974093,272.035,2572.21)">
            <path d="M-2.033,-13.122C-2.856,-8.8 -1.112,-4.354 0.355,-0.354C0.912,1.165 -1.48,1.894 -2.033,0.387C-3.668,-4.073 -5.384,-8.882 -4.468,-13.687C-4.165,-15.273 -1.731,-14.701 -2.033,-13.122" />
        </g>
        <g transform="matrix(-0.850043,0.526713,0.526713,0.850043,257.946,2569.58)">
            <path d="M4.823,-18.054C8.564,-13.322 8.525,-5.009 7.257,0.592C6.901,2.166 4.468,1.593 4.823,0.02C5.959,-4.991 6.041,-12.507 2.698,-16.737C1.698,-18.001 3.834,-19.304 4.823,-18.054" />
        </g>
        <g transform="matrix(1,0,0,1,234.966,2556.77)">
            <path d="M0,-2.611C9.238,2.339 19.522,3.265 29.797,3.067C34.286,2.98 39.219,4.473 43.639,3.47C48.277,2.418 51.337,-1.146 54.732,-4.234C55.928,-5.321 54.154,-7.084 52.965,-6.002C49.635,-2.973 46.661,0.665 41.903,1.161C37.933,1.576 33.793,0.534 29.797,0.567C19.957,0.648 10.136,-0.015 1.262,-4.769C-0.159,-5.53 -1.422,-3.372 0,-2.611" />
        </g>
        <g transform="matrix(1,0,0,1,262.771,2645.95)">
            <path d="M0,-156.964C-43.274,-156.964 -78.48,-121.757 -78.48,-78.481C-78.48,-35.206 -43.274,0 0,0C43.276,0 78.483,-35.206 78.483,-78.481C78.483,-121.757 43.276,-156.964 0,-156.964M0,3C-44.929,3 -81.48,-33.552 -81.48,-78.481C-81.48,-123.41 -44.929,-159.964 0,-159.964C44.93,-159.964 81.483,-123.41 81.483,-78.481C81.483,-33.552 44.93,3 0,3" />
        </g>
    </g>
</svg>
