<?xml version="1.0" encoding="UTF-8" standalone="no"?>
<!DOCTYPE svg PUBLIC "-//W3C//DTD SVG 1.1//EN" "http://www.w3.org/Graphics/SVG/1.1/DTD/svg11.dtd">
<svg width="100%" height="100%" viewBox="0 0 589 87" version="1.1" xmlns="http://www.w3.org/2000/svg" xmlns:xlink="http://www.w3.org/1999/xlink" xml:space="preserve" xmlns:serif="http://www.serif.com/" style="fill-rule:evenodd;clip-rule:evenodd;stroke-linejoin:round;stroke-miterlimit:2;">
    <g transform="matrix(0.374613,0,0,0.374613,69.7321,-125.123)">
        <g transform="matrix(2.66667,0,0,2.66667,677.602,449.999)">
            <path d="M0,0.001C0,24.023 -18.221,43.498 -40.696,43.498L-283.209,43.498C-305.685,43.498 -323.905,24.023 -323.905,0.001C-323.905,-24.022 -305.685,-43.497 -283.209,-43.497L-40.696,-43.497C-18.221,-43.497 0,-24.022 0,0.001" style="fill:rgb(242,234,94);fill-rule:nonzero;"/>
        </g>
        <g transform="matrix(2.66667,0,0,2.66667,-2569.65,-7905.83)">
            <g transform="matrix(1,0,0,1,979.189,3147.34)">
                <path d="M0,-33.792C-0.729,-33.792 -1.094,-33.427 -1.094,-32.698L-1.094,-26.272C-1.23,-23.128 -1.436,-20.257 -1.709,-17.659C-1.755,-16.93 -1.436,-16.565 -0.752,-16.565L0.889,-16.565C1.663,-16.565 2.051,-16.93 2.051,-17.659L2.051,-32.63C2.051,-33.404 1.686,-33.792 0.957,-33.792L0,-33.792ZM-10.938,-13.216C-10.893,-13.899 -11.234,-14.241 -11.963,-14.241C-13.513,-14.241 -15.039,-14.173 -16.543,-14.036C-17.227,-13.99 -17.432,-13.876 -17.158,-13.694C-16.611,-13.102 -16.794,-12.532 -17.705,-11.985C-18.525,-11.393 -18.936,-10.731 -18.936,-10.003L-18.936,-2.142L-18.73,5.856C-18.73,6.677 -18.457,6.653 -17.91,5.788C-14.128,-0.819 -11.804,-7.154 -10.938,-13.216M-35.889,-11.917C-35.889,-12.601 -36.162,-12.806 -36.709,-12.532C-37.302,-12.122 -37.598,-11.575 -37.598,-10.892L-37.598,3.806C-37.598,4.534 -37.324,4.899 -36.777,4.899C-36.186,4.899 -35.889,4.534 -35.889,3.806L-35.889,-11.917ZM-10.322,-47.874C-10.459,-48.876 -10.095,-49.31 -9.229,-49.173L-3.828,-48.216C-1.96,-47.942 -0.593,-47.623 0.273,-47.259C1.412,-46.894 1.891,-46.324 1.709,-45.55C1.436,-45.003 0.865,-44.569 0,-44.251C-0.729,-43.795 -1.094,-43.202 -1.094,-42.474L-1.094,-37.347C-1.094,-36.571 -0.684,-36.185 0.137,-36.185C1.002,-36.185 1.777,-36.571 2.461,-37.347C3.189,-38.121 3.965,-38.896 4.785,-39.671C5.56,-40.399 6.676,-40.104 8.135,-38.782C9.273,-37.916 10.391,-37.005 11.484,-36.048C12.896,-34.817 12.737,-33.769 11.006,-32.903C10.094,-32.037 9.639,-31.263 9.639,-30.579L9.639,-19.778C9.639,-18.958 9.82,-19.049 10.186,-20.052C10.504,-20.826 10.846,-21.601 11.211,-22.376C11.849,-23.287 12.236,-23.743 12.373,-23.743C12.601,-23.743 12.852,-23.538 13.125,-23.128C14.219,-21.351 15.107,-19.55 15.791,-17.728C16.52,-16.451 16.611,-15.357 16.064,-14.446C15.973,-14.31 15.449,-14.241 14.492,-14.241L1.641,-14.241C0.865,-14.241 0.592,-13.785 0.82,-12.874C1.321,-10.823 1.982,-9.022 2.803,-7.474C5.719,-2.369 9.82,1.117 15.107,2.985C16.109,3.305 16.565,3.737 16.475,4.284C16.383,4.876 16.133,5.218 15.723,5.31C15.221,5.354 14.72,5.742 14.219,6.472C13.443,8.066 12.896,9.866 12.578,11.872C12.35,14.834 11.097,15.518 8.818,13.923C6.129,11.37 4.146,8.591 2.871,5.583C0.273,-0.387 -1.276,-6.607 -1.777,-13.079C-1.823,-13.854 -1.914,-14.241 -2.051,-14.241C-2.188,-14.105 -2.324,-13.603 -2.461,-12.737C-3.054,-8.909 -4.193,-5.286 -5.879,-1.868C-7.656,1.96 -10.414,5.72 -14.15,9.411C-16.703,11.78 -19.414,13.535 -22.285,14.675C-23.197,14.993 -23.857,14.948 -24.268,14.538C-24.633,14.128 -24.313,13.489 -23.311,12.624C-22.627,11.94 -21.967,11.257 -21.328,10.573C-20.736,9.844 -20.896,9.593 -21.807,9.821C-23.539,10.14 -24.906,10.003 -25.908,9.411C-26.228,8.909 -26.342,8.408 -26.25,7.907C-26.25,7.405 -26.615,7.155 -27.344,7.155L-36.436,7.155C-37.211,7.155 -37.598,7.497 -37.598,8.181L-37.598,11.257C-37.871,12.259 -38.623,12.874 -39.854,13.103C-41.586,13.376 -42.885,13.421 -43.75,13.239C-45.072,12.966 -45.551,12.214 -45.186,10.983C-45.186,8.386 -45.117,5.72 -44.98,2.985L-44.98,-9.251L-45.322,-15.267C-45.414,-16.178 -45.004,-16.565 -44.092,-16.429C-40.811,-15.882 -38.441,-15.403 -36.982,-14.993C-36.254,-14.674 -35.889,-14.901 -35.889,-15.677L-35.889,-19.71C-35.889,-20.438 -36.254,-20.804 -36.982,-20.804C-39.626,-20.849 -42.201,-20.78 -44.707,-20.599C-45.756,-20.507 -46.484,-20.872 -46.895,-21.692L-47.236,-22.581C-47.692,-23.492 -47.465,-23.88 -46.553,-23.743C-44.73,-23.424 -42.885,-23.241 -41.016,-23.196L-36.982,-23.196C-36.254,-23.196 -35.889,-23.561 -35.889,-24.29L-35.889,-33.382C-35.889,-34.11 -36.094,-34.476 -36.504,-34.476C-36.96,-34.476 -37.461,-34.042 -38.008,-33.177C-39.648,-30.716 -41.836,-28.505 -44.57,-26.546C-45.482,-25.953 -46.12,-25.794 -46.484,-26.067C-46.895,-26.432 -46.872,-27.024 -46.416,-27.845C-43.545,-33.541 -41.882,-40.104 -41.426,-47.532C-41.381,-48.443 -40.902,-48.785 -39.99,-48.558C-36.709,-47.782 -34.021,-47.03 -31.924,-46.302C-30.283,-45.755 -29.714,-45.025 -30.215,-44.114C-30.534,-43.795 -31.035,-43.567 -31.719,-43.431C-32.494,-43.248 -33.041,-42.679 -33.359,-41.722C-33.861,-40.491 -34.477,-39.215 -35.205,-37.894C-35.57,-37.164 -35.388,-36.8 -34.658,-36.8L-30.215,-36.8C-29.531,-36.8 -28.871,-37.255 -28.232,-38.167C-27.549,-39.078 -26.82,-39.989 -26.045,-40.901C-25.225,-41.767 -24.359,-41.972 -23.447,-41.517C-20.986,-39.374 -19.255,-37.597 -18.252,-36.185C-17.888,-35.501 -18.024,-34.954 -18.662,-34.544C-18.799,-34.498 -19.301,-34.476 -20.166,-34.476L-26.592,-34.476C-27.321,-34.476 -27.686,-34.134 -27.686,-33.45L-27.686,-24.29C-27.686,-23.561 -27.436,-23.196 -26.934,-23.196C-26.387,-23.196 -25.817,-23.651 -25.225,-24.563C-24.678,-25.475 -24.062,-26.386 -23.379,-27.298C-22.604,-28.71 -21.762,-29.144 -20.85,-28.597C-18.525,-26.591 -16.816,-24.859 -15.723,-23.401C-14.902,-22.581 -14.743,-21.874 -15.244,-21.282C-15.473,-21.009 -16.042,-20.872 -16.953,-20.872L-26.66,-20.872C-27.39,-20.872 -27.754,-20.53 -27.754,-19.847L-27.754,3.737C-27.754,4.466 -27.526,4.831 -27.07,4.831C-26.569,4.831 -26.318,4.466 -26.318,3.737L-26.318,-8.772C-26.41,-10.641 -26.547,-12.486 -26.729,-14.31C-26.82,-15.221 -26.41,-15.653 -25.498,-15.608C-23.676,-15.335 -21.807,-15.016 -19.893,-14.651C-19.118,-14.469 -18.913,-14.742 -19.277,-15.472L-19.414,-15.813C-19.916,-16.815 -19.733,-17.249 -18.867,-17.112C-16.406,-16.839 -14.014,-16.679 -11.689,-16.634C-10.961,-16.634 -10.527,-17.089 -10.391,-18.001C-10.117,-21.009 -9.958,-24.176 -9.912,-27.503L-9.912,-32.698C-9.912,-33.473 -10.368,-33.86 -11.279,-33.86C-12.556,-33.814 -13.832,-33.724 -15.107,-33.587C-16.11,-33.45 -16.84,-33.792 -17.295,-34.612L-17.842,-35.638C-18.298,-36.549 -18.07,-36.913 -17.158,-36.731C-15.244,-36.412 -13.193,-36.23 -11.006,-36.185C-10.277,-36.185 -9.912,-36.549 -9.912,-37.278C-9.867,-40.149 -10.004,-43.681 -10.322,-47.874" style="fill:white;fill-rule:nonzero;"/>
            </g>
            <g transform="matrix(1,0,0,1,1029.16,3161.42)">
                <path d="M0,-61.751C-0.092,-62.662 0.296,-63.05 1.162,-62.913C4.944,-62.548 8.316,-61.979 11.279,-61.204C13.011,-60.885 13.262,-60.155 12.031,-59.017C11.712,-58.88 11.416,-58.697 11.143,-58.47C10.413,-57.923 10.117,-57.193 10.254,-56.282C11.484,-49.901 13.421,-43.658 16.064,-37.552C16.383,-36.822 16.907,-36.822 17.637,-37.552C20.599,-40.787 22.74,-44.273 24.062,-48.011C24.427,-49.013 25.02,-49.241 25.84,-48.694C29.576,-46.461 32.266,-44.706 33.906,-43.431C35.228,-42.428 35.433,-41.562 34.521,-40.833C34.293,-40.741 33.724,-40.696 32.813,-40.696C31.9,-40.878 31.172,-40.696 30.625,-40.149C27.07,-37.733 23.105,-35.865 18.73,-34.544C17.955,-34.315 17.796,-33.792 18.252,-32.972C20.53,-29.144 23.902,-25.634 28.369,-22.444C30.875,-20.849 33.131,-19.755 35.137,-19.163C36.048,-18.89 36.412,-18.434 36.23,-17.796C36.094,-17.112 35.843,-16.771 35.479,-16.771C34.566,-16.634 33.701,-15.882 32.881,-14.515C32.197,-13.329 31.764,-12.418 31.582,-11.78C31.08,-10.55 30.647,-9.661 30.283,-9.114C29.508,-7.839 28.437,-7.815 27.07,-9.046C21.783,-13.648 17.728,-19.254 14.902,-25.862C12.305,-32.105 10.596,-38.463 9.775,-44.935C9.639,-45.618 9.57,-45.618 9.57,-44.935L9.57,-18.616L9.639,-7.61C9.593,-6.745 9.41,-5.879 9.092,-5.013C8.772,-3.919 8.226,-2.985 7.451,-2.21C5.127,-0.479 2.871,0.615 0.684,1.071C-0.273,1.299 -0.98,1.253 -1.436,0.935C-1.801,0.661 -2.074,0.251 -2.256,-0.296C-2.393,-1.208 -2.575,-2.119 -2.803,-3.03C-3.031,-4.216 -3.418,-5.127 -3.965,-5.765C-4.968,-6.585 -6.996,-7.451 -10.049,-8.362C-11.143,-8.682 -11.645,-9.206 -11.553,-9.935C-11.462,-10.618 -10.961,-10.96 -10.049,-10.96C-7.451,-10.823 -4.831,-10.755 -2.188,-10.755C-0.41,-10.526 0.433,-11.302 0.342,-13.079L0.342,-55.53C0.296,-57.855 0.182,-59.928 0,-61.751M-8.271,-47.806C-7.907,-47.942 -7.451,-47.828 -6.904,-47.464C-5.583,-46.78 -3.783,-45.413 -1.504,-43.362C0.273,-41.858 0.113,-40.628 -1.982,-39.671C-2.302,-39.488 -2.598,-39.078 -2.871,-38.44C-4.375,-32.88 -6.791,-27.48 -10.117,-22.239C-14.265,-15.858 -19.277,-11.188 -25.156,-8.226C-26.068,-7.771 -26.684,-7.725 -27.002,-8.089C-27.367,-8.454 -27.162,-9.092 -26.387,-10.003C-25.156,-11.278 -23.881,-12.942 -22.559,-14.993C-17.182,-23.697 -13.945,-32.128 -12.852,-40.286C-12.761,-41.061 -13.08,-41.448 -13.809,-41.448L-17.227,-41.448C-19.277,-41.356 -21.396,-41.175 -23.584,-40.901C-24.496,-40.765 -25.111,-41.151 -25.43,-42.064C-25.612,-42.474 -25.771,-42.906 -25.908,-43.362C-26.228,-44.273 -25.932,-44.638 -25.02,-44.456C-21.875,-43.954 -18.229,-43.704 -14.082,-43.704C-13.354,-43.704 -12.556,-44.159 -11.689,-45.071C-10.368,-46.438 -9.229,-47.35 -8.271,-47.806" style="fill:white;fill-rule:nonzero;"/>
            </g>
            <g transform="matrix(1,0,0,1,1119.19,3147.34)">
                <path d="M0,-33.792C-0.729,-33.792 -1.094,-33.427 -1.094,-32.698L-1.094,-26.272C-1.23,-23.128 -1.436,-20.257 -1.709,-17.659C-1.755,-16.93 -1.436,-16.565 -0.752,-16.565L0.889,-16.565C1.663,-16.565 2.051,-16.93 2.051,-17.659L2.051,-32.63C2.051,-33.404 1.686,-33.792 0.957,-33.792L0,-33.792ZM-10.938,-13.216C-10.893,-13.899 -11.234,-14.241 -11.963,-14.241C-13.513,-14.241 -15.039,-14.173 -16.543,-14.036C-17.227,-13.99 -17.432,-13.876 -17.158,-13.694C-16.611,-13.102 -16.794,-12.532 -17.705,-11.985C-18.525,-11.393 -18.936,-10.731 -18.936,-10.003L-18.936,-2.142L-18.73,5.856C-18.73,6.677 -18.457,6.653 -17.91,5.788C-14.128,-0.819 -11.804,-7.154 -10.938,-13.216M-35.889,-11.917C-35.889,-12.601 -36.162,-12.806 -36.709,-12.532C-37.302,-12.122 -37.598,-11.575 -37.598,-10.892L-37.598,3.806C-37.598,4.534 -37.324,4.899 -36.777,4.899C-36.186,4.899 -35.889,4.534 -35.889,3.806L-35.889,-11.917ZM-10.322,-47.874C-10.459,-48.876 -10.095,-49.31 -9.229,-49.173L-3.828,-48.216C-1.96,-47.942 -0.593,-47.623 0.273,-47.259C1.412,-46.894 1.891,-46.324 1.709,-45.55C1.436,-45.003 0.865,-44.569 0,-44.251C-0.729,-43.795 -1.094,-43.202 -1.094,-42.474L-1.094,-37.347C-1.094,-36.571 -0.684,-36.185 0.137,-36.185C1.002,-36.185 1.777,-36.571 2.461,-37.347C3.189,-38.121 3.965,-38.896 4.785,-39.671C5.56,-40.399 6.676,-40.104 8.135,-38.782C9.273,-37.916 10.391,-37.005 11.484,-36.048C12.896,-34.817 12.737,-33.769 11.006,-32.903C10.094,-32.037 9.639,-31.263 9.639,-30.579L9.639,-19.778C9.639,-18.958 9.82,-19.049 10.186,-20.052C10.504,-20.826 10.846,-21.601 11.211,-22.376C11.849,-23.287 12.236,-23.743 12.373,-23.743C12.601,-23.743 12.852,-23.538 13.125,-23.128C14.219,-21.351 15.107,-19.55 15.791,-17.728C16.52,-16.451 16.611,-15.357 16.064,-14.446C15.973,-14.31 15.449,-14.241 14.492,-14.241L1.641,-14.241C0.865,-14.241 0.592,-13.785 0.82,-12.874C1.321,-10.823 1.982,-9.022 2.803,-7.474C5.719,-2.369 9.82,1.117 15.107,2.985C16.109,3.305 16.565,3.737 16.475,4.284C16.383,4.876 16.133,5.218 15.723,5.31C15.221,5.354 14.72,5.742 14.219,6.472C13.443,8.066 12.896,9.866 12.578,11.872C12.35,14.834 11.097,15.518 8.818,13.923C6.129,11.37 4.146,8.591 2.871,5.583C0.273,-0.387 -1.276,-6.607 -1.777,-13.079C-1.823,-13.854 -1.914,-14.241 -2.051,-14.241C-2.188,-14.105 -2.324,-13.603 -2.461,-12.737C-3.054,-8.909 -4.193,-5.286 -5.879,-1.868C-7.656,1.96 -10.414,5.72 -14.15,9.411C-16.703,11.78 -19.414,13.535 -22.285,14.675C-23.197,14.993 -23.857,14.948 -24.268,14.538C-24.633,14.128 -24.313,13.489 -23.311,12.624C-22.627,11.94 -21.967,11.257 -21.328,10.573C-20.736,9.844 -20.896,9.593 -21.807,9.821C-23.539,10.14 -24.906,10.003 -25.908,9.411C-26.228,8.909 -26.342,8.408 -26.25,7.907C-26.25,7.405 -26.615,7.155 -27.344,7.155L-36.436,7.155C-37.211,7.155 -37.598,7.497 -37.598,8.181L-37.598,11.257C-37.871,12.259 -38.623,12.874 -39.854,13.103C-41.586,13.376 -42.885,13.421 -43.75,13.239C-45.072,12.966 -45.551,12.214 -45.186,10.983C-45.186,8.386 -45.117,5.72 -44.98,2.985L-44.98,-9.251L-45.322,-15.267C-45.414,-16.178 -45.004,-16.565 -44.092,-16.429C-40.811,-15.882 -38.441,-15.403 -36.982,-14.993C-36.254,-14.674 -35.889,-14.901 -35.889,-15.677L-35.889,-19.71C-35.889,-20.438 -36.254,-20.804 -36.982,-20.804C-39.626,-20.849 -42.201,-20.78 -44.707,-20.599C-45.756,-20.507 -46.484,-20.872 -46.895,-21.692L-47.236,-22.581C-47.692,-23.492 -47.465,-23.88 -46.553,-23.743C-44.73,-23.424 -42.885,-23.241 -41.016,-23.196L-36.982,-23.196C-36.254,-23.196 -35.889,-23.561 -35.889,-24.29L-35.889,-33.382C-35.889,-34.11 -36.094,-34.476 -36.504,-34.476C-36.96,-34.476 -37.461,-34.042 -38.008,-33.177C-39.648,-30.716 -41.836,-28.505 -44.57,-26.546C-45.482,-25.953 -46.12,-25.794 -46.484,-26.067C-46.895,-26.432 -46.872,-27.024 -46.416,-27.845C-43.545,-33.541 -41.882,-40.104 -41.426,-47.532C-41.381,-48.443 -40.902,-48.785 -39.99,-48.558C-36.709,-47.782 -34.021,-47.03 -31.924,-46.302C-30.283,-45.755 -29.714,-45.025 -30.215,-44.114C-30.534,-43.795 -31.035,-43.567 -31.719,-43.431C-32.494,-43.248 -33.041,-42.679 -33.359,-41.722C-33.861,-40.491 -34.477,-39.215 -35.205,-37.894C-35.57,-37.164 -35.388,-36.8 -34.658,-36.8L-30.215,-36.8C-29.531,-36.8 -28.871,-37.255 -28.232,-38.167C-27.549,-39.078 -26.82,-39.989 -26.045,-40.901C-25.225,-41.767 -24.359,-41.972 -23.447,-41.517C-20.986,-39.374 -19.255,-37.597 -18.252,-36.185C-17.888,-35.501 -18.024,-34.954 -18.662,-34.544C-18.799,-34.498 -19.301,-34.476 -20.166,-34.476L-26.592,-34.476C-27.321,-34.476 -27.686,-34.134 -27.686,-33.45L-27.686,-24.29C-27.686,-23.561 -27.436,-23.196 -26.934,-23.196C-26.387,-23.196 -25.817,-23.651 -25.225,-24.563C-24.678,-25.475 -24.062,-26.386 -23.379,-27.298C-22.604,-28.71 -21.762,-29.144 -20.85,-28.597C-18.525,-26.591 -16.816,-24.859 -15.723,-23.401C-14.902,-22.581 -14.743,-21.874 -15.244,-21.282C-15.473,-21.009 -16.042,-20.872 -16.953,-20.872L-26.66,-20.872C-27.39,-20.872 -27.754,-20.53 -27.754,-19.847L-27.754,3.737C-27.754,4.466 -27.526,4.831 -27.07,4.831C-26.569,4.831 -26.318,4.466 -26.318,3.737L-26.318,-8.772C-26.41,-10.641 -26.547,-12.486 -26.729,-14.31C-26.82,-15.221 -26.41,-15.653 -25.498,-15.608C-23.676,-15.335 -21.807,-15.016 -19.893,-14.651C-19.118,-14.469 -18.913,-14.742 -19.277,-15.472L-19.414,-15.813C-19.916,-16.815 -19.733,-17.249 -18.867,-17.112C-16.406,-16.839 -14.014,-16.679 -11.689,-16.634C-10.961,-16.634 -10.527,-17.089 -10.391,-18.001C-10.117,-21.009 -9.958,-24.176 -9.912,-27.503L-9.912,-32.698C-9.912,-33.473 -10.368,-33.86 -11.279,-33.86C-12.556,-33.814 -13.832,-33.724 -15.107,-33.587C-16.11,-33.45 -16.84,-33.792 -17.295,-34.612L-17.842,-35.638C-18.298,-36.549 -18.07,-36.913 -17.158,-36.731C-15.244,-36.412 -13.193,-36.23 -11.006,-36.185C-10.277,-36.185 -9.912,-36.549 -9.912,-37.278C-9.867,-40.149 -10.004,-43.681 -10.322,-47.874" style="fill:white;fill-rule:nonzero;"/>
            </g>
            <g transform="matrix(1,0,0,1,1188.64,3126.19)">
                <path d="M0,8.477C-0.729,8.477 -1.094,8.842 -1.094,9.571L-1.094,26.866C-1.094,27.64 -0.729,28.028 0,28.028L3.76,28.028C4.488,28.028 4.854,27.663 4.854,26.934L4.854,9.639C4.854,8.865 4.488,8.477 3.76,8.477L0,8.477ZM-0.068,-10.185C-0.752,-10.185 -1.094,-9.82 -1.094,-9.091L-1.094,5.059C-1.094,5.834 -0.729,6.221 0,6.221L3.76,6.221C4.488,6.221 4.854,5.857 4.854,5.127L4.854,-9.091C4.854,-9.82 4.488,-10.185 3.76,-10.185L-0.068,-10.185ZM-14.834,8.477C-15.563,8.477 -15.928,8.842 -15.928,9.571L-15.928,26.866C-15.928,27.64 -15.563,28.028 -14.834,28.028L-11.211,28.028C-10.482,28.028 -10.117,27.663 -10.117,26.934L-10.117,9.639C-10.117,8.865 -10.482,8.477 -11.211,8.477L-14.834,8.477ZM-14.902,-10.185C-15.586,-10.185 -15.928,-9.82 -15.928,-9.091L-15.928,5.059C-15.928,5.834 -15.563,6.221 -14.834,6.221L-11.211,6.221C-10.482,6.221 -10.117,5.857 -10.117,5.127L-10.117,-9.091C-10.117,-9.82 -10.482,-10.185 -11.211,-10.185L-14.902,-10.185ZM-10.527,-26.796C-10.573,-27.662 -10.141,-28.027 -9.229,-27.89C-5.674,-27.388 -2.644,-26.751 -0.137,-25.976C0.774,-25.429 1.23,-25.042 1.23,-24.814C1.23,-24.267 0.797,-23.811 -0.068,-23.447C-0.798,-22.945 -1.162,-22.353 -1.162,-21.669L-1.162,-13.671C-1.162,-12.942 -0.798,-12.578 -0.068,-12.578L3.076,-12.578C3.805,-12.578 4.625,-13.01 5.537,-13.877C6.221,-14.651 6.973,-15.357 7.793,-15.996C8.203,-16.451 8.658,-16.565 9.16,-16.337C10.572,-15.791 12.373,-14.605 14.561,-12.783C16.019,-11.734 16.406,-10.754 15.723,-9.843C13.945,-8.704 13.238,-7.701 13.604,-6.836L13.604,20.85L13.809,31.377C13.854,32.379 13.854,33.382 13.809,34.385C13.717,34.795 13.421,35.137 12.92,35.411C11.553,36.048 9.456,36.299 6.631,36.163C5.172,36.026 4.58,35.16 4.854,33.565L4.854,31.788C4.854,30.831 4.488,30.352 3.76,30.352L-14.834,30.352C-15.563,30.352 -15.928,30.716 -15.928,31.446L-15.928,33.086C-15.928,33.998 -15.974,34.567 -16.064,34.795C-16.84,35.706 -18.047,36.185 -19.687,36.231C-21.328,36.504 -22.832,36.39 -24.199,35.889C-24.428,35.889 -24.678,35.661 -24.951,35.206C-24.997,34.522 -24.997,33.815 -24.951,33.086L-24.678,21.534L-24.678,-3.623L-24.951,-11.347C-24.951,-12.304 -25.02,-13.284 -25.156,-14.287C-25.293,-15.198 -24.86,-15.54 -23.857,-15.312C-21.579,-14.765 -19.323,-14.058 -17.09,-13.193C-16.179,-12.691 -15.336,-12.486 -14.561,-12.578L-11.211,-12.578C-10.482,-12.578 -10.117,-12.919 -10.117,-13.603L-10.117,-19.414C-10.209,-21.875 -10.346,-24.336 -10.527,-26.796M-41.768,-25.361C-41.494,-25.816 -40.925,-26.044 -40.059,-26.044C-37.097,-26.181 -34.203,-25.566 -31.377,-24.199C-30.375,-23.697 -29.555,-22.922 -28.916,-21.875C-28.051,-20.279 -27.846,-18.479 -28.301,-16.474C-29.121,-14.195 -30.648,-13.056 -32.881,-13.056C-34.704,-12.828 -36.071,-13.557 -36.982,-15.244C-37.302,-16.018 -37.529,-16.929 -37.666,-17.978C-37.849,-19.072 -38.054,-19.96 -38.281,-20.644C-38.691,-21.919 -39.421,-23.013 -40.469,-23.925C-41.518,-24.517 -41.95,-24.996 -41.768,-25.361M-28.027,-10.527C-27.663,-11.484 -27.185,-11.848 -26.592,-11.621C-26.091,-11.392 -25.932,-10.754 -26.113,-9.707C-27.617,-2.505 -29.076,4.717 -30.488,11.963C-31.537,16.704 -31.787,20.395 -31.24,23.038L-30.146,28.506C-29.965,29.463 -29.896,30.534 -29.941,31.719C-30.033,32.721 -30.557,33.587 -31.514,34.317C-33.063,35.045 -35.046,35.114 -37.461,34.522C-39.694,33.702 -40.629,32.152 -40.264,29.873C-40.127,28.551 -39.831,26.751 -39.375,24.473C-38.783,21.785 -39.854,19.688 -42.588,18.184C-43.637,17.82 -44.138,17.364 -44.092,16.817C-44.001,16.179 -43.5,15.86 -42.588,15.86C-41.859,15.86 -41.062,15.769 -40.195,15.586C-39.102,15.313 -38.236,14.721 -37.598,13.809C-37.097,13.081 -36.664,12.192 -36.299,11.143C-33.61,3.897 -30.854,-3.326 -28.027,-10.527M-47.031,-10.322C-46.804,-10.732 -46.257,-10.914 -45.391,-10.869C-41.882,-10.549 -39.17,-9.729 -37.256,-8.408C-34.385,-6.22 -33.52,-3.486 -34.658,-0.205C-35.752,1.892 -37.553,2.827 -40.059,2.598C-42.429,2.143 -43.613,0.776 -43.613,-1.503L-43.818,-4.101C-44.092,-6.152 -44.867,-7.724 -46.143,-8.818C-46.963,-9.456 -47.26,-9.957 -47.031,-10.322" style="fill:white;fill-rule:nonzero;"/>
            </g>
            <g transform="matrix(1,0,0,1,1257.68,3143.69)">
                <path d="M0,-27.002C-0.684,-27.002 -0.798,-26.637 -0.342,-25.908C0.342,-24.905 1.48,-23.697 3.076,-22.285C3.805,-21.738 4.466,-21.92 5.059,-22.832C5.56,-23.789 5.924,-24.814 6.152,-25.908C6.243,-26.637 5.924,-27.002 5.195,-27.002L0,-27.002ZM-1.162,2.256C-0.889,1.755 -0.319,1.527 0.547,1.572C4.739,1.982 8.34,2.894 11.348,4.307C14.902,6.267 16.36,8.682 15.723,11.553C15.267,14.014 13.899,15.198 11.621,15.107C9.935,14.879 8.408,13.512 7.041,11.006C5.582,8.089 3.167,5.629 -0.205,3.623C-1.117,3.168 -1.436,2.712 -1.162,2.256M-4.922,-26.934C-5.742,-26.934 -6.381,-26.568 -6.836,-25.84C-9.023,-22.422 -11.211,-19.71 -13.398,-17.705C-14.174,-17.066 -14.196,-16.748 -13.467,-16.748L0.137,-16.748C0.865,-16.748 0.889,-17.181 0.205,-18.047C-1.527,-20.599 -2.734,-23.196 -3.418,-25.84C-3.646,-26.568 -4.147,-26.934 -4.922,-26.934M-13.398,-7.861C-14.082,-7.861 -14.424,-7.474 -14.424,-6.699L-14.424,-4.17C-14.424,-3.395 -14.06,-3.008 -13.33,-3.008L-0.137,-3.008C0.592,-3.008 0.957,-3.372 0.957,-4.102L0.957,-6.699C0.957,-7.474 0.592,-7.861 -0.137,-7.861L-13.398,-7.861ZM-13.33,-14.424C-14.06,-14.424 -14.424,-14.059 -14.424,-13.33L-14.424,-11.211C-14.424,-10.436 -14.06,-10.049 -13.33,-10.049L-0.137,-10.049C0.592,-10.049 0.957,-10.413 0.957,-11.143L0.957,-13.33C0.957,-14.059 0.592,-14.424 -0.137,-14.424L-13.33,-14.424ZM-27.344,-35.547C-27.982,-35.547 -28.301,-35.159 -28.301,-34.385C-28.256,-33.245 -28.256,-32.083 -28.301,-30.898C-28.301,-30.215 -27.846,-29.805 -26.934,-29.668C-24.473,-29.395 -21.898,-29.234 -19.209,-29.19L-15.107,-29.19C-14.379,-29.19 -13.832,-29.645 -13.467,-30.557C-13.057,-31.605 -12.67,-32.857 -12.305,-34.316C-12.077,-35.137 -12.305,-35.547 -12.988,-35.547L-27.344,-35.547ZM-27.549,-27.891C-28.051,-28.802 -28.301,-28.893 -28.301,-28.164L-28.232,-21.123L-28.232,-13.262L-28.301,-12.441C-28.347,-11.712 -27.982,-11.621 -27.207,-12.168C-25.385,-13.353 -23.63,-14.856 -21.943,-16.68C-21.442,-17.317 -21.602,-17.659 -22.422,-17.705C-23.516,-17.979 -24.108,-18.662 -24.199,-19.756C-24.062,-20.758 -24.199,-21.715 -24.609,-22.627C-24.838,-23.082 -25.18,-23.516 -25.635,-23.926C-26.182,-24.29 -26.342,-24.632 -26.113,-24.951C-25.886,-25.361 -25.316,-25.589 -24.404,-25.635C-22.035,-25.68 -20.144,-25.27 -18.73,-24.404C-18.366,-24.313 -17.956,-23.902 -17.5,-23.174C-17.363,-22.855 -17.067,-23.082 -16.611,-23.857L-15.654,-25.566C-15.153,-26.478 -15.29,-26.934 -16.064,-26.934L-21.328,-26.934L-26.865,-26.66C-27.139,-27.07 -27.367,-27.481 -27.549,-27.891M-17.773,-45.322C-13.444,-45.732 -10.004,-45.436 -7.451,-44.434C-4.99,-43.248 -4.011,-41.448 -4.512,-39.033C-4.968,-38.121 -4.831,-37.666 -4.102,-37.666L3.418,-37.666C4.146,-37.666 4.898,-38.099 5.674,-38.965C6.494,-39.922 7.383,-40.879 8.34,-41.836C9.251,-43.203 10.186,-43.499 11.143,-42.725C12.51,-41.904 14.195,-40.56 16.201,-38.691C17.112,-37.916 17.637,-37.256 17.773,-36.709C17.818,-36.344 17.659,-36.002 17.295,-35.684C17.112,-35.592 16.565,-35.547 15.654,-35.547L-9.98,-35.547C-10.664,-35.547 -10.573,-35.433 -9.707,-35.205C-7.93,-34.932 -6.13,-34.612 -4.307,-34.248C-3.076,-34.065 -2.119,-33.701 -1.436,-33.154C-1.025,-32.015 -1.596,-31.377 -3.145,-31.24C-3.874,-31.058 -4.353,-30.693 -4.58,-30.147C-4.899,-29.554 -4.694,-29.258 -3.965,-29.258L4.58,-29.258C5.309,-29.258 6.016,-29.713 6.699,-30.625C7.52,-31.81 8.431,-32.881 9.434,-33.838C9.752,-34.293 10.186,-34.385 10.732,-34.111C12.737,-32.972 14.856,-31.104 17.09,-28.506C17.363,-28.05 17.317,-27.617 16.953,-27.207C16.816,-27.07 16.292,-27.002 15.381,-27.002L8.203,-27.002C7.52,-27.002 7.633,-26.819 8.545,-26.455C10.504,-25.726 12.373,-24.928 14.15,-24.063C15.518,-23.47 15.813,-22.786 15.039,-22.012C14.766,-21.875 14.287,-21.807 13.604,-21.807C12.92,-21.807 12.35,-21.67 11.895,-21.397C10.938,-20.85 9.844,-20.416 8.613,-20.098C7.884,-19.961 7.975,-19.756 8.887,-19.482C11.348,-18.799 13.945,-18.411 16.68,-18.32C17.545,-18.32 17.955,-18.047 17.91,-17.5C17.864,-16.998 17.659,-16.656 17.295,-16.475C16.064,-15.335 15.449,-13.535 15.449,-11.074C15.267,-10.071 14.605,-9.639 13.467,-9.775C12.601,-9.912 11.666,-10.231 10.664,-10.732C9.98,-11.097 9.639,-10.914 9.639,-10.186C9.593,-8.043 9.661,-4.99 9.844,-1.025C9.98,-0.023 9.388,0.661 8.066,1.025C6.471,1.435 4.876,1.596 3.281,1.504C1.822,1.596 1.002,1.049 0.82,-0.137C0.82,-0.684 0.342,-0.957 -0.615,-0.957C-1.664,-0.957 -2.188,-0.592 -2.188,0.137L-2.188,11.689C-2.324,13.877 -3.464,15.494 -5.605,16.543C-7.565,17.682 -9.594,18.365 -11.689,18.594C-12.1,18.73 -12.487,18.639 -12.852,18.32C-13.217,17.864 -13.398,17.363 -13.398,16.816C-13.398,15.859 -13.535,14.947 -13.809,14.082C-14.219,12.532 -15.518,11.529 -17.705,11.074C-18.617,10.846 -19.027,10.436 -18.936,9.844C-18.845,9.251 -18.389,9 -17.568,9.092L-14.697,9.228C-13.467,9.273 -12.533,9.273 -11.895,9.228C-11.667,9.183 -11.462,9.023 -11.279,8.75C-11.143,8.477 -11.074,7.998 -11.074,7.314L-11.074,0.137C-11.074,-0.638 -11.439,-1.025 -12.168,-1.025L-13.262,-1.025C-13.991,-1.025 -14.379,-0.843 -14.424,-0.479C-14.697,0.342 -15.563,0.82 -17.021,0.957C-18.024,1.049 -18.115,1.254 -17.295,1.572C-15.654,2.211 -14.196,2.894 -12.92,3.623C-12.1,4.262 -11.735,4.717 -11.826,4.99C-12.328,5.811 -13.08,6.061 -14.082,5.742C-14.812,5.651 -15.518,5.971 -16.201,6.699C-20.212,10.481 -25.293,13.079 -31.445,14.492C-32.494,14.674 -33.154,14.605 -33.428,14.287C-33.656,13.785 -33.383,13.216 -32.607,12.578C-28.643,9.524 -25.521,6.039 -23.242,2.119C-22.832,1.391 -22.741,0.98 -22.969,0.889C-23.379,0.707 -23.539,0.388 -23.447,-0.068C-23.402,-2.347 -23.311,-4.648 -23.174,-6.973L-23.174,-10.596C-23.174,-11.324 -23.63,-11.461 -24.541,-11.006C-25.316,-10.641 -26.091,-10.322 -26.865,-10.049C-27.777,-9.775 -28.278,-9.684 -28.369,-9.775C-28.415,-9.82 -28.483,-9.388 -28.574,-8.477C-29.076,-2.552 -30.488,2.871 -32.813,7.793C-34.818,11.985 -37.712,15.403 -41.494,18.047C-42.36,18.548 -42.998,18.639 -43.408,18.32C-43.864,17.91 -43.796,17.227 -43.203,16.269C-40.014,10.345 -38.054,3.031 -37.324,-5.674C-37.279,-6.448 -37.438,-6.448 -37.803,-5.674C-38.396,-4.488 -39.011,-3.486 -39.648,-2.666C-40.104,-2.027 -40.355,-1.572 -40.4,-1.299C-40.355,-0.66 -40.378,-0 -40.469,0.684C-41.426,1.641 -42.133,1.481 -42.588,0.205C-43.637,-2.119 -44.753,-5.24 -45.938,-9.16C-46.303,-10.117 -46.052,-10.618 -45.186,-10.664C-42.861,-10.709 -40.561,-11.211 -38.281,-12.168C-37.507,-12.486 -37.119,-12.988 -37.119,-13.672L-37.119,-18.115C-37.119,-18.89 -37.279,-19.026 -37.598,-18.525C-38.783,-17.203 -40.332,-16.725 -42.246,-17.09C-43.066,-17.272 -43.705,-17.75 -44.16,-18.525C-44.57,-19.756 -44.57,-21.465 -44.16,-23.652C-44.069,-26.022 -44.411,-27.891 -45.186,-29.258C-45.778,-30.169 -45.893,-30.784 -45.527,-31.104C-45.209,-31.422 -44.594,-31.354 -43.682,-30.898C-41.084,-29.622 -39.102,-28.027 -37.734,-26.113C-37.324,-25.338 -37.119,-25.338 -37.119,-26.113L-37.119,-31.309C-37.165,-34.18 -37.324,-36.8 -37.598,-39.17C-37.734,-40.172 -37.37,-40.56 -36.504,-40.332C-33.679,-39.512 -30.854,-38.623 -28.027,-37.666L-15.313,-37.666C-14.584,-37.666 -14.401,-38.099 -14.766,-38.965L-15.107,-40.332C-15.381,-41.334 -16.315,-42.315 -17.91,-43.272C-18.959,-43.682 -19.437,-44.068 -19.346,-44.434C-19.164,-44.935 -18.64,-45.231 -17.773,-45.322" style="fill:white;fill-rule:nonzero;"/>
            </g>
            <g transform="matrix(1,0,0,1,1316.13,3160.67)">
                <path d="M0,-60.999C-0.137,-62.047 0.205,-62.503 1.025,-62.366C5.035,-61.864 7.793,-61.454 9.297,-61.136C10.572,-60.862 11.461,-60.589 11.963,-60.315C12.646,-59.996 12.896,-59.586 12.715,-59.085C12.486,-58.492 12.122,-58.15 11.621,-58.06C11.438,-57.923 11.256,-57.831 11.074,-57.786C10.345,-57.239 9.98,-56.601 9.98,-55.872L9.98,-48.831C9.98,-48.102 10.345,-47.737 11.074,-47.737L14.014,-47.737C14.742,-47.737 15.472,-48.17 16.201,-49.036C17.021,-50.084 17.887,-51.109 18.799,-52.112C19.71,-52.933 20.621,-53.114 21.533,-52.659C23.082,-51.429 24.723,-49.879 26.455,-48.011C27.412,-47.054 27.754,-46.347 27.48,-45.892C27.115,-45.345 26.478,-45.162 25.566,-45.345L11.143,-45.345C10.367,-45.345 9.98,-44.979 9.98,-44.251L9.98,-32.63C9.98,-31.9 10.345,-31.536 11.074,-31.536L14.971,-31.536C15.699,-31.536 16.406,-31.991 17.09,-32.903C18.001,-34.088 19.004,-35.318 20.098,-36.595C21.009,-37.323 21.92,-37.506 22.832,-37.142C24.791,-35.546 26.614,-33.792 28.301,-31.878C28.893,-31.148 29.189,-30.602 29.189,-30.237C29.28,-30.009 29.166,-29.735 28.848,-29.417C28.665,-29.325 28.118,-29.28 27.207,-29.28L11.484,-29.28C10.801,-29.28 10.23,-28.824 9.775,-27.913C6.722,-21.031 2.21,-15.472 -3.76,-11.233C-4.672,-10.641 -4.672,-10.321 -3.76,-10.276L5.195,-10.276C8.75,-10.367 12.281,-10.504 15.791,-10.686C16.565,-10.686 16.793,-11.073 16.475,-11.849C15.335,-14.446 13.74,-17.02 11.689,-19.573C11.051,-20.438 10.96,-21.054 11.416,-21.419C11.78,-21.737 12.486,-21.669 13.535,-21.214C17.818,-19.208 21.646,-16.451 25.02,-12.942C28.437,-9.206 29.6,-5.605 28.506,-2.142C27.594,0.137 26.045,1.276 23.857,1.276C22.809,1.504 21.807,1.413 20.85,1.003C19.391,0.046 18.639,-1.23 18.594,-2.825L17.91,-7.269C17.728,-8.044 17.181,-8.249 16.27,-7.884C8.203,-4.922 -0.16,-2.712 -8.818,-1.253C-9.502,-1.162 -9.936,-0.706 -10.117,0.114C-9.98,0.843 -10.391,1.299 -11.348,1.481C-11.713,1.436 -12.077,1.116 -12.441,0.524C-13.581,-2.347 -14.561,-5.72 -15.381,-9.593C-15.609,-10.641 -15.29,-11.097 -14.424,-10.96C-12.829,-10.731 -11.052,-10.572 -9.092,-10.481C-8.408,-10.481 -7.861,-10.868 -7.451,-11.644C-4.353,-17.112 -2.097,-22.581 -0.684,-28.05C-0.502,-28.778 -0.775,-29.144 -1.504,-29.144L-7.93,-29.144C-9.389,-29.098 -10.893,-29.007 -12.441,-28.87C-13.262,-28.778 -13.9,-29.234 -14.355,-30.237C-14.447,-30.419 -14.561,-30.624 -14.697,-30.853C-15.153,-31.81 -14.926,-32.22 -14.014,-32.083C-11.553,-31.718 -9.252,-31.513 -7.109,-31.468L-0.684,-31.468C0.091,-31.468 0.479,-31.832 0.479,-32.562L0.479,-44.183C0.479,-44.911 0.113,-45.276 -0.615,-45.276L-5.059,-45.276C-6.518,-45.23 -7.998,-45.14 -9.502,-45.003C-10.505,-44.911 -11.234,-45.321 -11.689,-46.233L-12.031,-46.78C-12.533,-47.874 -12.328,-48.353 -11.416,-48.216C-9.502,-47.942 -7.475,-47.782 -5.332,-47.737L-0.684,-47.737C0.091,-47.737 0.479,-48.079 0.479,-48.763L0.479,-54.368C0.387,-56.737 0.228,-58.948 0,-60.999M-27.891,-60.179C-27.663,-60.589 -27.116,-60.794 -26.25,-60.794C-23.197,-60.794 -20.439,-60.224 -17.979,-59.085C-14.88,-57.398 -13.672,-54.892 -14.355,-51.565C-14.629,-49.879 -15.563,-48.717 -17.158,-48.079C-18.389,-47.669 -19.733,-47.645 -21.191,-48.011C-22.24,-48.466 -22.946,-49.241 -23.311,-50.335C-23.539,-50.973 -23.698,-51.884 -23.789,-53.069C-24.108,-55.484 -25.18,-57.398 -27.002,-58.811C-27.822,-59.267 -28.119,-59.723 -27.891,-60.179M-14.697,-45.003C-14.287,-45.96 -13.809,-46.347 -13.262,-46.165C-12.761,-45.982 -12.602,-45.436 -12.783,-44.524L-17.91,-23.196C-18.64,-20.188 -19.164,-17.477 -19.482,-15.061C-19.711,-13.329 -19.551,-11.256 -19.004,-8.841C-18.549,-6.836 -18.32,-4.944 -18.32,-3.167C-18.412,-2.119 -18.959,-1.253 -19.961,-0.569C-21.738,0.114 -23.539,0.205 -25.361,-0.296C-27.731,-1.116 -28.803,-2.62 -28.574,-4.808C-28.393,-6.494 -28.119,-8.294 -27.754,-10.208C-27.663,-10.663 -27.617,-11.119 -27.617,-11.575C-27.39,-13.853 -28.643,-15.653 -31.377,-16.976C-32.243,-17.294 -32.653,-17.75 -32.607,-18.343C-32.517,-18.89 -32.038,-19.117 -31.172,-19.026C-27.663,-18.753 -25.271,-20.188 -23.994,-23.333L-14.697,-45.003ZM-33.77,-44.524C-33.496,-44.979 -32.858,-45.185 -31.855,-45.14C-30.078,-44.957 -28.278,-44.569 -26.455,-43.978C-22.536,-42.474 -20.713,-39.967 -20.986,-36.458C-21.032,-35.592 -21.306,-34.681 -21.807,-33.724C-23.22,-31.946 -25.065,-31.285 -27.344,-31.741C-28.164,-31.832 -28.825,-32.242 -29.326,-32.972C-30.102,-34.156 -30.443,-35.66 -30.352,-37.483C-30.488,-38.577 -30.671,-39.488 -30.898,-40.218C-31.172,-41.266 -31.719,-42.177 -32.539,-42.952C-33.542,-43.681 -33.952,-44.205 -33.77,-44.524" style="fill:white;fill-rule:nonzero;"/>
            </g>
            <g transform="matrix(1,0,0,1,1391.26,3139.16)">
                <path d="M0,-17.409C0.228,-17.956 0.774,-18.115 1.641,-17.888C7.383,-16.338 12.783,-13.854 17.842,-10.436C22.08,-7.429 24.222,-3.805 24.268,0.433C24.404,2.666 23.47,4.329 21.465,5.423C17.227,7.11 14.332,5.355 12.783,0.159C11.826,-3.03 10.596,-5.742 9.092,-7.975C6.539,-11.667 3.782,-14.287 0.82,-15.837C-0.047,-16.338 -0.319,-16.862 0,-17.409M14.697,-40.378C15.198,-40.742 15.996,-40.514 17.09,-39.694C19.368,-37.871 21.441,-35.979 23.311,-34.02C24.222,-33.2 24.358,-32.402 23.721,-31.628C23.447,-31.445 22.877,-31.354 22.012,-31.354L3.418,-31.354C2.688,-31.354 2.142,-30.898 1.777,-29.987C0.638,-27.526 -0.775,-25.042 -2.461,-22.536C-3.054,-21.716 -2.963,-21.191 -2.188,-20.964C-1.23,-20.69 -0.661,-20.166 -0.479,-19.391C-0.524,-18.845 -0.866,-18.388 -1.504,-18.024C-2.324,-17.386 -2.734,-16.702 -2.734,-15.973L-2.734,9.32L-2.529,19.779C-2.211,21.373 -2.963,22.376 -4.785,22.786C-6.562,23.196 -8.522,23.333 -10.664,23.196C-11.576,23.105 -12.282,22.672 -12.783,21.898C-12.875,21.669 -12.92,21.1 -12.92,20.189C-12.875,16.224 -12.783,12.191 -12.646,8.089L-12.646,-9.616C-12.646,-10.345 -13.034,-10.345 -13.809,-9.616C-21.101,-2.734 -28.916,2.005 -37.256,4.603C-38.259,4.922 -38.92,4.854 -39.238,4.398C-39.648,3.851 -39.421,3.236 -38.555,2.552C-25.293,-6.927 -15.746,-17.819 -9.912,-30.124C-9.548,-30.944 -9.707,-31.354 -10.391,-31.354L-29.189,-31.354C-31.149,-31.263 -32.881,-31.126 -34.385,-30.944C-35.479,-30.852 -36.162,-31.263 -36.436,-32.175L-36.846,-33.268C-37.256,-34.27 -37.006,-34.68 -36.094,-34.499C-33.086,-34.134 -28.347,-33.929 -21.875,-33.884L7.656,-33.884C8.567,-33.838 9.365,-34.27 10.049,-35.182L12.236,-37.917C12.965,-38.874 13.785,-39.694 14.697,-40.378" style="fill:white;fill-rule:nonzero;"/>
            </g>
            <g transform="matrix(1,0,0,1,1450.18,3134.58)">
                <path d="M0,-7.36C-0.684,-7.36 -1.025,-6.995 -1.025,-6.266L-1.025,4.671C-1.025,5.447 -0.684,5.833 0,5.833L5.537,5.833C6.312,5.833 6.699,5.469 6.699,4.74L6.699,-6.198C6.699,-6.972 6.334,-7.36 5.605,-7.36L0,-7.36ZM9.98,-12.965C10.709,-13.512 11.461,-13.512 12.236,-12.965C14.879,-11.279 16.68,-9.958 17.637,-9.001C18.457,-8.089 18.206,-7.223 16.885,-6.403C16.064,-5.719 15.654,-5.012 15.654,-4.284L15.654,1.595L15.859,9.661C16.133,10.437 15.768,11.143 14.766,11.781C12.031,12.647 9.707,12.874 7.793,12.464C6.79,11.963 6.402,11.12 6.631,9.935L6.631,9.251C6.631,8.477 6.266,8.089 5.537,8.089L0.068,8.089C-0.661,8.089 -1.025,8.454 -1.025,9.183L-1.025,10.755C-0.707,12.396 -1.55,13.421 -3.555,13.831C-6.062,14.378 -8.112,14.333 -9.707,13.695C-10.072,13.513 -10.3,13.194 -10.391,12.738C-10.3,10.049 -10.163,7.315 -9.98,4.535L-9.98,-4.967C-10.072,-7.337 -10.254,-9.524 -10.527,-11.53C-10.619,-12.441 -10.209,-12.783 -9.297,-12.555C-6.244,-11.643 -3.281,-10.686 -0.41,-9.684L4.854,-9.684C5.582,-9.684 6.38,-10.094 7.246,-10.915C8.521,-11.963 9.434,-12.646 9.98,-12.965M12.305,-25.339C12.942,-26.067 13.625,-26.135 14.355,-25.544C16.588,-23.903 18.662,-22.034 20.576,-19.938C20.94,-19.345 20.895,-18.821 20.439,-18.366C20.303,-18.32 19.778,-18.298 18.867,-18.298L-3.35,-18.298C-6.176,-18.252 -8.728,-18.137 -11.006,-17.956C-11.963,-17.864 -12.646,-18.252 -13.057,-19.118L-13.535,-20.075C-13.991,-20.986 -13.764,-21.396 -12.852,-21.305C-9.707,-20.986 -6.586,-20.803 -3.486,-20.758L4.854,-20.758C5.537,-20.713 6.197,-20.69 6.836,-20.69C7.747,-20.69 8.567,-21.123 9.297,-21.989C10.345,-23.31 11.348,-24.426 12.305,-25.339M24.268,-34.294C25.406,-35.068 26.408,-35.273 27.275,-34.909C29.144,-33.815 30.898,-32.539 32.539,-31.081C33.678,-29.895 33.428,-28.87 31.787,-28.005C31.104,-27.366 30.762,-26.682 30.762,-25.954L30.762,19.505C30.67,20.326 30.42,21.237 30.01,22.24C29.417,23.287 28.665,24.154 27.754,24.837C25.156,26.523 22.513,27.435 19.824,27.572C18.821,27.343 18.365,26.842 18.457,26.068C18.138,23.88 17.637,22.194 16.953,21.009C16.27,20.28 15.152,19.687 13.604,19.232C12.691,18.912 12.281,18.456 12.373,17.865C12.51,17.181 13.01,16.884 13.877,16.976C15.791,17.203 18.138,17.249 20.918,17.113C21.419,16.748 21.578,16.133 21.396,15.267L21.396,-27.936C21.396,-28.665 21.055,-29.03 20.371,-29.03L-13.672,-29.03C-14.401,-29.03 -14.766,-28.688 -14.766,-28.005L-14.766,14.036L-14.561,24.906C-14.379,26.136 -14.948,26.911 -16.27,27.23C-18.002,27.731 -20.098,27.913 -22.559,27.777C-24.154,27.594 -24.814,26.82 -24.541,25.453C-24.496,20.941 -24.382,16.407 -24.199,11.849L-24.199,-24.04C-24.291,-27.366 -24.473,-30.442 -24.746,-33.268C-24.838,-34.179 -24.45,-34.521 -23.584,-34.294C-20.85,-33.655 -17.705,-32.721 -14.15,-31.491L19.824,-31.491C20.508,-31.491 21.305,-31.878 22.217,-32.653C22.9,-33.245 23.584,-33.792 24.268,-34.294" style="fill:white;fill-rule:nonzero;"/>
            </g>
            <g transform="matrix(1,0,0,1,975.189,3143.34)">
                <path d="M0,-33.792C-0.729,-33.792 -1.094,-33.427 -1.094,-32.698L-1.094,-26.272C-1.23,-23.128 -1.436,-20.257 -1.709,-17.659C-1.755,-16.93 -1.436,-16.565 -0.752,-16.565L0.889,-16.565C1.663,-16.565 2.051,-16.93 2.051,-17.659L2.051,-32.63C2.051,-33.404 1.686,-33.792 0.957,-33.792L0,-33.792ZM-10.938,-13.216C-10.893,-13.899 -11.234,-14.241 -11.963,-14.241C-13.513,-14.241 -15.039,-14.173 -16.543,-14.036C-17.227,-13.99 -17.432,-13.876 -17.158,-13.694C-16.611,-13.102 -16.794,-12.532 -17.705,-11.985C-18.525,-11.393 -18.936,-10.731 -18.936,-10.003L-18.936,-2.142L-18.73,5.856C-18.73,6.677 -18.457,6.653 -17.91,5.788C-14.128,-0.819 -11.804,-7.154 -10.938,-13.216M-35.889,-11.917C-35.889,-12.601 -36.162,-12.806 -36.709,-12.532C-37.302,-12.122 -37.598,-11.575 -37.598,-10.892L-37.598,3.806C-37.598,4.534 -37.324,4.899 -36.777,4.899C-36.186,4.899 -35.889,4.534 -35.889,3.806L-35.889,-11.917ZM-10.322,-47.874C-10.459,-48.876 -10.095,-49.31 -9.229,-49.173L-3.828,-48.216C-1.96,-47.942 -0.593,-47.623 0.273,-47.259C1.412,-46.894 1.891,-46.324 1.709,-45.55C1.436,-45.003 0.865,-44.569 0,-44.251C-0.729,-43.795 -1.094,-43.202 -1.094,-42.474L-1.094,-37.347C-1.094,-36.571 -0.684,-36.185 0.137,-36.185C1.002,-36.185 1.777,-36.571 2.461,-37.347C3.189,-38.121 3.965,-38.896 4.785,-39.671C5.56,-40.399 6.676,-40.104 8.135,-38.782C9.273,-37.916 10.391,-37.005 11.484,-36.048C12.896,-34.817 12.737,-33.769 11.006,-32.903C10.094,-32.037 9.639,-31.263 9.639,-30.579L9.639,-19.778C9.639,-18.958 9.82,-19.049 10.186,-20.052C10.504,-20.826 10.846,-21.601 11.211,-22.376C11.849,-23.287 12.236,-23.743 12.373,-23.743C12.601,-23.743 12.852,-23.538 13.125,-23.128C14.219,-21.351 15.107,-19.55 15.791,-17.728C16.52,-16.451 16.611,-15.357 16.064,-14.446C15.973,-14.31 15.449,-14.241 14.492,-14.241L1.641,-14.241C0.865,-14.241 0.592,-13.785 0.82,-12.874C1.321,-10.823 1.982,-9.022 2.803,-7.474C5.719,-2.369 9.82,1.117 15.107,2.985C16.109,3.305 16.565,3.737 16.475,4.284C16.383,4.876 16.133,5.218 15.723,5.31C15.221,5.354 14.72,5.742 14.219,6.472C13.443,8.066 12.896,9.866 12.578,11.872C12.35,14.834 11.097,15.518 8.818,13.923C6.129,11.37 4.146,8.591 2.871,5.583C0.273,-0.387 -1.276,-6.607 -1.777,-13.079C-1.823,-13.854 -1.914,-14.241 -2.051,-14.241C-2.188,-14.105 -2.324,-13.603 -2.461,-12.737C-3.054,-8.909 -4.193,-5.286 -5.879,-1.868C-7.656,1.96 -10.414,5.72 -14.15,9.411C-16.703,11.78 -19.414,13.535 -22.285,14.675C-23.197,14.993 -23.857,14.948 -24.268,14.538C-24.633,14.128 -24.313,13.489 -23.311,12.624C-22.627,11.94 -21.967,11.257 -21.328,10.573C-20.736,9.844 -20.896,9.593 -21.807,9.821C-23.539,10.14 -24.906,10.003 -25.908,9.411C-26.228,8.909 -26.342,8.408 -26.25,7.907C-26.25,7.405 -26.615,7.155 -27.344,7.155L-36.436,7.155C-37.211,7.155 -37.598,7.497 -37.598,8.181L-37.598,11.257C-37.871,12.259 -38.623,12.874 -39.854,13.103C-41.586,13.376 -42.885,13.421 -43.75,13.239C-45.072,12.966 -45.551,12.214 -45.186,10.983C-45.186,8.386 -45.117,5.72 -44.98,2.985L-44.98,-9.251L-45.322,-15.267C-45.414,-16.178 -45.004,-16.565 -44.092,-16.429C-40.811,-15.882 -38.441,-15.403 -36.982,-14.993C-36.254,-14.674 -35.889,-14.901 -35.889,-15.677L-35.889,-19.71C-35.889,-20.438 -36.254,-20.804 -36.982,-20.804C-39.626,-20.849 -42.201,-20.78 -44.707,-20.599C-45.756,-20.507 -46.484,-20.872 -46.895,-21.692L-47.236,-22.581C-47.692,-23.492 -47.465,-23.88 -46.553,-23.743C-44.73,-23.424 -42.885,-23.241 -41.016,-23.196L-36.982,-23.196C-36.254,-23.196 -35.889,-23.561 -35.889,-24.29L-35.889,-33.382C-35.889,-34.11 -36.094,-34.476 -36.504,-34.476C-36.96,-34.476 -37.461,-34.042 -38.008,-33.177C-39.648,-30.716 -41.836,-28.505 -44.57,-26.546C-45.482,-25.953 -46.12,-25.794 -46.484,-26.067C-46.895,-26.432 -46.872,-27.024 -46.416,-27.845C-43.545,-33.541 -41.882,-40.104 -41.426,-47.532C-41.381,-48.443 -40.902,-48.785 -39.99,-48.558C-36.709,-47.782 -34.021,-47.03 -31.924,-46.302C-30.283,-45.755 -29.714,-45.025 -30.215,-44.114C-30.534,-43.795 -31.035,-43.567 -31.719,-43.431C-32.494,-43.248 -33.041,-42.679 -33.359,-41.722C-33.861,-40.491 -34.477,-39.215 -35.205,-37.894C-35.57,-37.164 -35.388,-36.8 -34.658,-36.8L-30.215,-36.8C-29.531,-36.8 -28.871,-37.255 -28.232,-38.167C-27.549,-39.078 -26.82,-39.989 -26.045,-40.901C-25.225,-41.767 -24.359,-41.972 -23.447,-41.517C-20.986,-39.374 -19.255,-37.597 -18.252,-36.185C-17.888,-35.501 -18.024,-34.954 -18.662,-34.544C-18.799,-34.498 -19.301,-34.476 -20.166,-34.476L-26.592,-34.476C-27.321,-34.476 -27.686,-34.134 -27.686,-33.45L-27.686,-24.29C-27.686,-23.561 -27.436,-23.196 -26.934,-23.196C-26.387,-23.196 -25.817,-23.651 -25.225,-24.563C-24.678,-25.475 -24.062,-26.386 -23.379,-27.298C-22.604,-28.71 -21.762,-29.144 -20.85,-28.597C-18.525,-26.591 -16.816,-24.859 -15.723,-23.401C-14.902,-22.581 -14.743,-21.874 -15.244,-21.282C-15.473,-21.009 -16.042,-20.872 -16.953,-20.872L-26.66,-20.872C-27.39,-20.872 -27.754,-20.53 -27.754,-19.847L-27.754,3.737C-27.754,4.466 -27.526,4.831 -27.07,4.831C-26.569,4.831 -26.318,4.466 -26.318,3.737L-26.318,-8.772C-26.41,-10.641 -26.547,-12.486 -26.729,-14.31C-26.82,-15.221 -26.41,-15.653 -25.498,-15.608C-23.676,-15.335 -21.807,-15.016 -19.893,-14.651C-19.118,-14.469 -18.913,-14.742 -19.277,-15.472L-19.414,-15.813C-19.916,-16.815 -19.733,-17.249 -18.867,-17.112C-16.406,-16.839 -14.014,-16.679 -11.689,-16.634C-10.961,-16.634 -10.527,-17.089 -10.391,-18.001C-10.117,-21.009 -9.958,-24.176 -9.912,-27.503L-9.912,-32.698C-9.912,-33.473 -10.368,-33.86 -11.279,-33.86C-12.556,-33.814 -13.832,-33.724 -15.107,-33.587C-16.11,-33.45 -16.84,-33.792 -17.295,-34.612L-17.842,-35.638C-18.298,-36.549 -18.07,-36.913 -17.158,-36.731C-15.244,-36.412 -13.193,-36.23 -11.006,-36.185C-10.277,-36.185 -9.912,-36.549 -9.912,-37.278C-9.867,-40.149 -10.004,-43.681 -10.322,-47.874" style="fill:rgb(0,163,255);fill-rule:nonzero;"/>
            </g>
            <g transform="matrix(1,0,0,1,1025.16,3157.42)">
                <path d="M0,-61.751C-0.092,-62.662 0.296,-63.05 1.162,-62.913C4.944,-62.548 8.316,-61.979 11.279,-61.204C13.011,-60.885 13.262,-60.155 12.031,-59.017C11.712,-58.88 11.416,-58.697 11.143,-58.47C10.413,-57.923 10.117,-57.193 10.254,-56.282C11.484,-49.901 13.421,-43.658 16.064,-37.552C16.383,-36.822 16.907,-36.822 17.637,-37.552C20.599,-40.787 22.74,-44.273 24.062,-48.011C24.427,-49.013 25.02,-49.241 25.84,-48.694C29.576,-46.461 32.266,-44.706 33.906,-43.431C35.228,-42.428 35.433,-41.562 34.521,-40.833C34.293,-40.741 33.724,-40.696 32.813,-40.696C31.9,-40.878 31.172,-40.696 30.625,-40.149C27.07,-37.733 23.105,-35.865 18.73,-34.544C17.955,-34.315 17.796,-33.792 18.252,-32.972C20.53,-29.144 23.902,-25.634 28.369,-22.444C30.875,-20.849 33.131,-19.755 35.137,-19.163C36.048,-18.89 36.412,-18.434 36.23,-17.796C36.094,-17.112 35.843,-16.771 35.479,-16.771C34.566,-16.634 33.701,-15.882 32.881,-14.515C32.197,-13.329 31.764,-12.418 31.582,-11.78C31.08,-10.55 30.647,-9.661 30.283,-9.114C29.508,-7.839 28.437,-7.815 27.07,-9.046C21.783,-13.648 17.728,-19.254 14.902,-25.862C12.305,-32.105 10.596,-38.463 9.775,-44.935C9.639,-45.618 9.57,-45.618 9.57,-44.935L9.57,-18.616L9.639,-7.61C9.593,-6.745 9.41,-5.879 9.092,-5.013C8.772,-3.919 8.226,-2.985 7.451,-2.21C5.127,-0.479 2.871,0.615 0.684,1.071C-0.273,1.299 -0.98,1.253 -1.436,0.935C-1.801,0.661 -2.074,0.251 -2.256,-0.296C-2.393,-1.208 -2.575,-2.119 -2.803,-3.03C-3.031,-4.216 -3.418,-5.127 -3.965,-5.765C-4.968,-6.585 -6.996,-7.451 -10.049,-8.362C-11.143,-8.682 -11.645,-9.206 -11.553,-9.935C-11.462,-10.618 -10.961,-10.96 -10.049,-10.96C-7.451,-10.823 -4.831,-10.755 -2.188,-10.755C-0.41,-10.526 0.433,-11.302 0.342,-13.079L0.342,-55.53C0.296,-57.855 0.182,-59.928 0,-61.751M-8.271,-47.806C-7.907,-47.942 -7.451,-47.828 -6.904,-47.464C-5.583,-46.78 -3.783,-45.413 -1.504,-43.362C0.273,-41.858 0.113,-40.628 -1.982,-39.671C-2.302,-39.488 -2.598,-39.078 -2.871,-38.44C-4.375,-32.88 -6.791,-27.48 -10.117,-22.239C-14.265,-15.858 -19.277,-11.188 -25.156,-8.226C-26.068,-7.771 -26.684,-7.725 -27.002,-8.089C-27.367,-8.454 -27.162,-9.092 -26.387,-10.003C-25.156,-11.278 -23.881,-12.942 -22.559,-14.993C-17.182,-23.697 -13.945,-32.128 -12.852,-40.286C-12.761,-41.061 -13.08,-41.448 -13.809,-41.448L-17.227,-41.448C-19.277,-41.356 -21.396,-41.175 -23.584,-40.901C-24.496,-40.765 -25.111,-41.151 -25.43,-42.064C-25.612,-42.474 -25.771,-42.906 -25.908,-43.362C-26.228,-44.273 -25.932,-44.638 -25.02,-44.456C-21.875,-43.954 -18.229,-43.704 -14.082,-43.704C-13.354,-43.704 -12.556,-44.159 -11.689,-45.071C-10.368,-46.438 -9.229,-47.35 -8.271,-47.806" style="fill:rgb(0,163,255);fill-rule:nonzero;"/>
            </g>
            <g transform="matrix(1,0,0,1,1115.19,3143.34)">
                <path d="M0,-33.792C-0.729,-33.792 -1.094,-33.427 -1.094,-32.698L-1.094,-26.272C-1.23,-23.128 -1.436,-20.257 -1.709,-17.659C-1.755,-16.93 -1.436,-16.565 -0.752,-16.565L0.889,-16.565C1.663,-16.565 2.051,-16.93 2.051,-17.659L2.051,-32.63C2.051,-33.404 1.686,-33.792 0.957,-33.792L0,-33.792ZM-10.938,-13.216C-10.893,-13.899 -11.234,-14.241 -11.963,-14.241C-13.513,-14.241 -15.039,-14.173 -16.543,-14.036C-17.227,-13.99 -17.432,-13.876 -17.158,-13.694C-16.611,-13.102 -16.794,-12.532 -17.705,-11.985C-18.525,-11.393 -18.936,-10.731 -18.936,-10.003L-18.936,-2.142L-18.73,5.856C-18.73,6.677 -18.457,6.653 -17.91,5.788C-14.128,-0.819 -11.804,-7.154 -10.938,-13.216M-35.889,-11.917C-35.889,-12.601 -36.162,-12.806 -36.709,-12.532C-37.302,-12.122 -37.598,-11.575 -37.598,-10.892L-37.598,3.806C-37.598,4.534 -37.324,4.899 -36.777,4.899C-36.186,4.899 -35.889,4.534 -35.889,3.806L-35.889,-11.917ZM-10.322,-47.874C-10.459,-48.876 -10.095,-49.31 -9.229,-49.173L-3.828,-48.216C-1.96,-47.942 -0.593,-47.623 0.273,-47.259C1.412,-46.894 1.891,-46.324 1.709,-45.55C1.436,-45.003 0.865,-44.569 0,-44.251C-0.729,-43.795 -1.094,-43.202 -1.094,-42.474L-1.094,-37.347C-1.094,-36.571 -0.684,-36.185 0.137,-36.185C1.002,-36.185 1.777,-36.571 2.461,-37.347C3.189,-38.121 3.965,-38.896 4.785,-39.671C5.56,-40.399 6.676,-40.104 8.135,-38.782C9.273,-37.916 10.391,-37.005 11.484,-36.048C12.896,-34.817 12.737,-33.769 11.006,-32.903C10.094,-32.037 9.639,-31.263 9.639,-30.579L9.639,-19.778C9.639,-18.958 9.82,-19.049 10.186,-20.052C10.504,-20.826 10.846,-21.601 11.211,-22.376C11.849,-23.287 12.236,-23.743 12.373,-23.743C12.601,-23.743 12.852,-23.538 13.125,-23.128C14.219,-21.351 15.107,-19.55 15.791,-17.728C16.52,-16.451 16.611,-15.357 16.064,-14.446C15.973,-14.31 15.449,-14.241 14.492,-14.241L1.641,-14.241C0.865,-14.241 0.592,-13.785 0.82,-12.874C1.321,-10.823 1.982,-9.022 2.803,-7.474C5.719,-2.369 9.82,1.117 15.107,2.985C16.109,3.305 16.565,3.737 16.475,4.284C16.383,4.876 16.133,5.218 15.723,5.31C15.221,5.354 14.72,5.742 14.219,6.472C13.443,8.066 12.896,9.866 12.578,11.872C12.35,14.834 11.097,15.518 8.818,13.923C6.129,11.37 4.146,8.591 2.871,5.583C0.273,-0.387 -1.276,-6.607 -1.777,-13.079C-1.823,-13.854 -1.914,-14.241 -2.051,-14.241C-2.188,-14.105 -2.324,-13.603 -2.461,-12.737C-3.054,-8.909 -4.193,-5.286 -5.879,-1.868C-7.656,1.96 -10.414,5.72 -14.15,9.411C-16.703,11.78 -19.414,13.535 -22.285,14.675C-23.197,14.993 -23.857,14.948 -24.268,14.538C-24.633,14.128 -24.313,13.489 -23.311,12.624C-22.627,11.94 -21.967,11.257 -21.328,10.573C-20.736,9.844 -20.896,9.593 -21.807,9.821C-23.539,10.14 -24.906,10.003 -25.908,9.411C-26.228,8.909 -26.342,8.408 -26.25,7.907C-26.25,7.405 -26.615,7.155 -27.344,7.155L-36.436,7.155C-37.211,7.155 -37.598,7.497 -37.598,8.181L-37.598,11.257C-37.871,12.259 -38.623,12.874 -39.854,13.103C-41.586,13.376 -42.885,13.421 -43.75,13.239C-45.072,12.966 -45.551,12.214 -45.186,10.983C-45.186,8.386 -45.117,5.72 -44.98,2.985L-44.98,-9.251L-45.322,-15.267C-45.414,-16.178 -45.004,-16.565 -44.092,-16.429C-40.811,-15.882 -38.441,-15.403 -36.982,-14.993C-36.254,-14.674 -35.889,-14.901 -35.889,-15.677L-35.889,-19.71C-35.889,-20.438 -36.254,-20.804 -36.982,-20.804C-39.626,-20.849 -42.201,-20.78 -44.707,-20.599C-45.756,-20.507 -46.484,-20.872 -46.895,-21.692L-47.236,-22.581C-47.692,-23.492 -47.465,-23.88 -46.553,-23.743C-44.73,-23.424 -42.885,-23.241 -41.016,-23.196L-36.982,-23.196C-36.254,-23.196 -35.889,-23.561 -35.889,-24.29L-35.889,-33.382C-35.889,-34.11 -36.094,-34.476 -36.504,-34.476C-36.96,-34.476 -37.461,-34.042 -38.008,-33.177C-39.648,-30.716 -41.836,-28.505 -44.57,-26.546C-45.482,-25.953 -46.12,-25.794 -46.484,-26.067C-46.895,-26.432 -46.872,-27.024 -46.416,-27.845C-43.545,-33.541 -41.882,-40.104 -41.426,-47.532C-41.381,-48.443 -40.902,-48.785 -39.99,-48.558C-36.709,-47.782 -34.021,-47.03 -31.924,-46.302C-30.283,-45.755 -29.714,-45.025 -30.215,-44.114C-30.534,-43.795 -31.035,-43.567 -31.719,-43.431C-32.494,-43.248 -33.041,-42.679 -33.359,-41.722C-33.861,-40.491 -34.477,-39.215 -35.205,-37.894C-35.57,-37.164 -35.388,-36.8 -34.658,-36.8L-30.215,-36.8C-29.531,-36.8 -28.871,-37.255 -28.232,-38.167C-27.549,-39.078 -26.82,-39.989 -26.045,-40.901C-25.225,-41.767 -24.359,-41.972 -23.447,-41.517C-20.986,-39.374 -19.255,-37.597 -18.252,-36.185C-17.888,-35.501 -18.024,-34.954 -18.662,-34.544C-18.799,-34.498 -19.301,-34.476 -20.166,-34.476L-26.592,-34.476C-27.321,-34.476 -27.686,-34.134 -27.686,-33.45L-27.686,-24.29C-27.686,-23.561 -27.436,-23.196 -26.934,-23.196C-26.387,-23.196 -25.817,-23.651 -25.225,-24.563C-24.678,-25.475 -24.062,-26.386 -23.379,-27.298C-22.604,-28.71 -21.762,-29.144 -20.85,-28.597C-18.525,-26.591 -16.816,-24.859 -15.723,-23.401C-14.902,-22.581 -14.743,-21.874 -15.244,-21.282C-15.473,-21.009 -16.042,-20.872 -16.953,-20.872L-26.66,-20.872C-27.39,-20.872 -27.754,-20.53 -27.754,-19.847L-27.754,3.737C-27.754,4.466 -27.526,4.831 -27.07,4.831C-26.569,4.831 -26.318,4.466 -26.318,3.737L-26.318,-8.772C-26.41,-10.641 -26.547,-12.486 -26.729,-14.31C-26.82,-15.221 -26.41,-15.653 -25.498,-15.608C-23.676,-15.335 -21.807,-15.016 -19.893,-14.651C-19.118,-14.469 -18.913,-14.742 -19.277,-15.472L-19.414,-15.813C-19.916,-16.815 -19.733,-17.249 -18.867,-17.112C-16.406,-16.839 -14.014,-16.679 -11.689,-16.634C-10.961,-16.634 -10.527,-17.089 -10.391,-18.001C-10.117,-21.009 -9.958,-24.176 -9.912,-27.503L-9.912,-32.698C-9.912,-33.473 -10.368,-33.86 -11.279,-33.86C-12.556,-33.814 -13.832,-33.724 -15.107,-33.587C-16.11,-33.45 -16.84,-33.792 -17.295,-34.612L-17.842,-35.638C-18.298,-36.549 -18.07,-36.913 -17.158,-36.731C-15.244,-36.412 -13.193,-36.23 -11.006,-36.185C-10.277,-36.185 -9.912,-36.549 -9.912,-37.278C-9.867,-40.149 -10.004,-43.681 -10.322,-47.874" style="fill:rgb(0,163,255);fill-rule:nonzero;"/>
            </g>
            <g transform="matrix(1,0,0,1,1184.64,3122.19)">
                <path d="M0,8.477C-0.729,8.477 -1.094,8.842 -1.094,9.571L-1.094,26.866C-1.094,27.64 -0.729,28.028 0,28.028L3.76,28.028C4.488,28.028 4.854,27.663 4.854,26.934L4.854,9.639C4.854,8.865 4.488,8.477 3.76,8.477L0,8.477ZM-0.068,-10.185C-0.752,-10.185 -1.094,-9.82 -1.094,-9.091L-1.094,5.059C-1.094,5.834 -0.729,6.221 0,6.221L3.76,6.221C4.488,6.221 4.854,5.857 4.854,5.127L4.854,-9.091C4.854,-9.82 4.488,-10.185 3.76,-10.185L-0.068,-10.185ZM-14.834,8.477C-15.563,8.477 -15.928,8.842 -15.928,9.571L-15.928,26.866C-15.928,27.64 -15.563,28.028 -14.834,28.028L-11.211,28.028C-10.482,28.028 -10.117,27.663 -10.117,26.934L-10.117,9.639C-10.117,8.865 -10.482,8.477 -11.211,8.477L-14.834,8.477ZM-14.902,-10.185C-15.586,-10.185 -15.928,-9.82 -15.928,-9.091L-15.928,5.059C-15.928,5.834 -15.563,6.221 -14.834,6.221L-11.211,6.221C-10.482,6.221 -10.117,5.857 -10.117,5.127L-10.117,-9.091C-10.117,-9.82 -10.482,-10.185 -11.211,-10.185L-14.902,-10.185ZM-10.527,-26.796C-10.573,-27.662 -10.141,-28.027 -9.229,-27.89C-5.674,-27.388 -2.644,-26.751 -0.137,-25.976C0.774,-25.429 1.23,-25.042 1.23,-24.814C1.23,-24.267 0.797,-23.811 -0.068,-23.447C-0.798,-22.945 -1.162,-22.353 -1.162,-21.669L-1.162,-13.671C-1.162,-12.942 -0.798,-12.578 -0.068,-12.578L3.076,-12.578C3.805,-12.578 4.625,-13.01 5.537,-13.877C6.221,-14.651 6.973,-15.357 7.793,-15.996C8.203,-16.451 8.658,-16.565 9.16,-16.337C10.572,-15.791 12.373,-14.605 14.561,-12.783C16.019,-11.734 16.406,-10.754 15.723,-9.843C13.945,-8.704 13.238,-7.701 13.604,-6.836L13.604,20.85L13.809,31.377C13.854,32.379 13.854,33.382 13.809,34.385C13.717,34.795 13.421,35.137 12.92,35.411C11.553,36.048 9.456,36.299 6.631,36.163C5.172,36.026 4.58,35.16 4.854,33.565L4.854,31.788C4.854,30.831 4.488,30.352 3.76,30.352L-14.834,30.352C-15.563,30.352 -15.928,30.716 -15.928,31.446L-15.928,33.086C-15.928,33.998 -15.974,34.567 -16.064,34.795C-16.84,35.706 -18.047,36.185 -19.687,36.231C-21.328,36.504 -22.832,36.39 -24.199,35.889C-24.428,35.889 -24.678,35.661 -24.951,35.206C-24.997,34.522 -24.997,33.815 -24.951,33.086L-24.678,21.534L-24.678,-3.623L-24.951,-11.347C-24.951,-12.304 -25.02,-13.284 -25.156,-14.287C-25.293,-15.198 -24.86,-15.54 -23.857,-15.312C-21.579,-14.765 -19.323,-14.058 -17.09,-13.193C-16.179,-12.691 -15.336,-12.486 -14.561,-12.578L-11.211,-12.578C-10.482,-12.578 -10.117,-12.919 -10.117,-13.603L-10.117,-19.414C-10.209,-21.875 -10.346,-24.336 -10.527,-26.796M-41.768,-25.361C-41.494,-25.816 -40.925,-26.044 -40.059,-26.044C-37.097,-26.181 -34.203,-25.566 -31.377,-24.199C-30.375,-23.697 -29.555,-22.922 -28.916,-21.875C-28.051,-20.279 -27.846,-18.479 -28.301,-16.474C-29.121,-14.195 -30.648,-13.056 -32.881,-13.056C-34.704,-12.828 -36.071,-13.557 -36.982,-15.244C-37.302,-16.018 -37.529,-16.929 -37.666,-17.978C-37.849,-19.072 -38.054,-19.96 -38.281,-20.644C-38.691,-21.919 -39.421,-23.013 -40.469,-23.925C-41.518,-24.517 -41.95,-24.996 -41.768,-25.361M-28.027,-10.527C-27.663,-11.484 -27.185,-11.848 -26.592,-11.621C-26.091,-11.392 -25.932,-10.754 -26.113,-9.707C-27.617,-2.505 -29.076,4.717 -30.488,11.963C-31.537,16.704 -31.787,20.395 -31.24,23.038L-30.146,28.506C-29.965,29.463 -29.896,30.534 -29.941,31.719C-30.033,32.721 -30.557,33.587 -31.514,34.317C-33.063,35.045 -35.046,35.114 -37.461,34.522C-39.694,33.702 -40.629,32.152 -40.264,29.873C-40.127,28.551 -39.831,26.751 -39.375,24.473C-38.783,21.785 -39.854,19.688 -42.588,18.184C-43.637,17.82 -44.138,17.364 -44.092,16.817C-44.001,16.179 -43.5,15.86 -42.588,15.86C-41.859,15.86 -41.062,15.769 -40.195,15.586C-39.102,15.313 -38.236,14.721 -37.598,13.809C-37.097,13.081 -36.664,12.192 -36.299,11.143C-33.61,3.897 -30.854,-3.326 -28.027,-10.527M-47.031,-10.322C-46.804,-10.732 -46.257,-10.914 -45.391,-10.869C-41.882,-10.549 -39.17,-9.729 -37.256,-8.408C-34.385,-6.22 -33.52,-3.486 -34.658,-0.205C-35.752,1.892 -37.553,2.827 -40.059,2.598C-42.429,2.143 -43.613,0.776 -43.613,-1.503L-43.818,-4.101C-44.092,-6.152 -44.867,-7.724 -46.143,-8.818C-46.963,-9.456 -47.26,-9.957 -47.031,-10.322" style="fill:rgb(0,163,255);fill-rule:nonzero;"/>
            </g>
            <g transform="matrix(1,0,0,1,1253.68,3139.69)">
                <path d="M0,-27.002C-0.684,-27.002 -0.798,-26.637 -0.342,-25.908C0.342,-24.905 1.48,-23.697 3.076,-22.285C3.805,-21.738 4.466,-21.92 5.059,-22.832C5.56,-23.789 5.924,-24.814 6.152,-25.908C6.243,-26.637 5.924,-27.002 5.195,-27.002L0,-27.002ZM-1.162,2.256C-0.889,1.755 -0.319,1.527 0.547,1.572C4.739,1.982 8.34,2.894 11.348,4.307C14.902,6.267 16.36,8.682 15.723,11.553C15.267,14.014 13.899,15.198 11.621,15.107C9.935,14.879 8.408,13.512 7.041,11.006C5.582,8.089 3.167,5.629 -0.205,3.623C-1.117,3.168 -1.436,2.712 -1.162,2.256M-4.922,-26.934C-5.742,-26.934 -6.381,-26.568 -6.836,-25.84C-9.023,-22.422 -11.211,-19.71 -13.398,-17.705C-14.174,-17.066 -14.196,-16.748 -13.467,-16.748L0.137,-16.748C0.865,-16.748 0.889,-17.181 0.205,-18.047C-1.527,-20.599 -2.734,-23.196 -3.418,-25.84C-3.646,-26.568 -4.147,-26.934 -4.922,-26.934M-13.398,-7.861C-14.082,-7.861 -14.424,-7.474 -14.424,-6.699L-14.424,-4.17C-14.424,-3.395 -14.06,-3.008 -13.33,-3.008L-0.137,-3.008C0.592,-3.008 0.957,-3.372 0.957,-4.102L0.957,-6.699C0.957,-7.474 0.592,-7.861 -0.137,-7.861L-13.398,-7.861ZM-13.33,-14.424C-14.06,-14.424 -14.424,-14.059 -14.424,-13.33L-14.424,-11.211C-14.424,-10.436 -14.06,-10.049 -13.33,-10.049L-0.137,-10.049C0.592,-10.049 0.957,-10.413 0.957,-11.143L0.957,-13.33C0.957,-14.059 0.592,-14.424 -0.137,-14.424L-13.33,-14.424ZM-27.344,-35.547C-27.982,-35.547 -28.301,-35.159 -28.301,-34.385C-28.256,-33.245 -28.256,-32.083 -28.301,-30.898C-28.301,-30.215 -27.846,-29.805 -26.934,-29.668C-24.473,-29.395 -21.898,-29.234 -19.209,-29.19L-15.107,-29.19C-14.379,-29.19 -13.832,-29.645 -13.467,-30.557C-13.057,-31.605 -12.67,-32.857 -12.305,-34.316C-12.077,-35.137 -12.305,-35.547 -12.988,-35.547L-27.344,-35.547ZM-27.549,-27.891C-28.051,-28.802 -28.301,-28.893 -28.301,-28.164L-28.232,-21.123L-28.232,-13.262L-28.301,-12.441C-28.347,-11.712 -27.982,-11.621 -27.207,-12.168C-25.385,-13.353 -23.63,-14.856 -21.943,-16.68C-21.442,-17.317 -21.602,-17.659 -22.422,-17.705C-23.516,-17.979 -24.108,-18.662 -24.199,-19.756C-24.062,-20.758 -24.199,-21.715 -24.609,-22.627C-24.838,-23.082 -25.18,-23.516 -25.635,-23.926C-26.182,-24.29 -26.342,-24.632 -26.113,-24.951C-25.886,-25.361 -25.316,-25.589 -24.404,-25.635C-22.035,-25.68 -20.144,-25.27 -18.73,-24.404C-18.366,-24.313 -17.956,-23.902 -17.5,-23.174C-17.363,-22.855 -17.067,-23.082 -16.611,-23.857L-15.654,-25.566C-15.153,-26.478 -15.29,-26.934 -16.064,-26.934L-21.328,-26.934L-26.865,-26.66C-27.139,-27.07 -27.367,-27.481 -27.549,-27.891M-17.773,-45.322C-13.444,-45.732 -10.004,-45.436 -7.451,-44.434C-4.99,-43.248 -4.011,-41.448 -4.512,-39.033C-4.968,-38.121 -4.831,-37.666 -4.102,-37.666L3.418,-37.666C4.146,-37.666 4.898,-38.099 5.674,-38.965C6.494,-39.922 7.383,-40.879 8.34,-41.836C9.251,-43.203 10.186,-43.499 11.143,-42.725C12.51,-41.904 14.195,-40.56 16.201,-38.691C17.112,-37.916 17.637,-37.256 17.773,-36.709C17.818,-36.344 17.659,-36.002 17.295,-35.684C17.112,-35.592 16.565,-35.547 15.654,-35.547L-9.98,-35.547C-10.664,-35.547 -10.573,-35.433 -9.707,-35.205C-7.93,-34.932 -6.13,-34.612 -4.307,-34.248C-3.076,-34.065 -2.119,-33.701 -1.436,-33.154C-1.025,-32.015 -1.596,-31.377 -3.145,-31.24C-3.874,-31.058 -4.353,-30.693 -4.58,-30.147C-4.899,-29.554 -4.694,-29.258 -3.965,-29.258L4.58,-29.258C5.309,-29.258 6.016,-29.713 6.699,-30.625C7.52,-31.81 8.431,-32.881 9.434,-33.838C9.752,-34.293 10.186,-34.385 10.732,-34.111C12.737,-32.972 14.856,-31.104 17.09,-28.506C17.363,-28.05 17.317,-27.617 16.953,-27.207C16.816,-27.07 16.292,-27.002 15.381,-27.002L8.203,-27.002C7.52,-27.002 7.633,-26.819 8.545,-26.455C10.504,-25.726 12.373,-24.928 14.15,-24.063C15.518,-23.47 15.813,-22.786 15.039,-22.012C14.766,-21.875 14.287,-21.807 13.604,-21.807C12.92,-21.807 12.35,-21.67 11.895,-21.397C10.938,-20.85 9.844,-20.416 8.613,-20.098C7.884,-19.961 7.975,-19.756 8.887,-19.482C11.348,-18.799 13.945,-18.411 16.68,-18.32C17.545,-18.32 17.955,-18.047 17.91,-17.5C17.864,-16.998 17.659,-16.656 17.295,-16.475C16.064,-15.335 15.449,-13.535 15.449,-11.074C15.267,-10.071 14.605,-9.639 13.467,-9.775C12.601,-9.912 11.666,-10.231 10.664,-10.732C9.98,-11.097 9.639,-10.914 9.639,-10.186C9.593,-8.043 9.661,-4.99 9.844,-1.025C9.98,-0.023 9.388,0.661 8.066,1.025C6.471,1.435 4.876,1.596 3.281,1.504C1.822,1.596 1.002,1.049 0.82,-0.137C0.82,-0.684 0.342,-0.957 -0.615,-0.957C-1.664,-0.957 -2.188,-0.592 -2.188,0.137L-2.188,11.689C-2.324,13.877 -3.464,15.494 -5.605,16.543C-7.565,17.682 -9.594,18.365 -11.689,18.594C-12.1,18.73 -12.487,18.639 -12.852,18.32C-13.217,17.864 -13.398,17.363 -13.398,16.816C-13.398,15.859 -13.535,14.947 -13.809,14.082C-14.219,12.532 -15.518,11.529 -17.705,11.074C-18.617,10.846 -19.027,10.436 -18.936,9.844C-18.845,9.251 -18.389,9 -17.568,9.092L-14.697,9.228C-13.467,9.273 -12.533,9.273 -11.895,9.228C-11.667,9.183 -11.462,9.023 -11.279,8.75C-11.143,8.477 -11.074,7.998 -11.074,7.314L-11.074,0.137C-11.074,-0.638 -11.439,-1.025 -12.168,-1.025L-13.262,-1.025C-13.991,-1.025 -14.379,-0.843 -14.424,-0.479C-14.697,0.342 -15.563,0.82 -17.021,0.957C-18.024,1.049 -18.115,1.254 -17.295,1.572C-15.654,2.211 -14.196,2.894 -12.92,3.623C-12.1,4.262 -11.735,4.717 -11.826,4.99C-12.328,5.811 -13.08,6.061 -14.082,5.742C-14.812,5.651 -15.518,5.971 -16.201,6.699C-20.212,10.481 -25.293,13.079 -31.445,14.492C-32.494,14.674 -33.154,14.605 -33.428,14.287C-33.656,13.785 -33.383,13.216 -32.607,12.578C-28.643,9.524 -25.521,6.039 -23.242,2.119C-22.832,1.391 -22.741,0.98 -22.969,0.889C-23.379,0.707 -23.539,0.388 -23.447,-0.068C-23.402,-2.347 -23.311,-4.648 -23.174,-6.973L-23.174,-10.596C-23.174,-11.324 -23.63,-11.461 -24.541,-11.006C-25.316,-10.641 -26.091,-10.322 -26.865,-10.049C-27.777,-9.775 -28.278,-9.684 -28.369,-9.775C-28.415,-9.82 -28.483,-9.388 -28.574,-8.477C-29.076,-2.552 -30.488,2.871 -32.813,7.793C-34.818,11.985 -37.712,15.403 -41.494,18.047C-42.36,18.548 -42.998,18.639 -43.408,18.32C-43.864,17.91 -43.796,17.227 -43.203,16.269C-40.014,10.345 -38.054,3.031 -37.324,-5.674C-37.279,-6.448 -37.438,-6.448 -37.803,-5.674C-38.396,-4.488 -39.011,-3.486 -39.648,-2.666C-40.104,-2.027 -40.355,-1.572 -40.4,-1.299C-40.355,-0.66 -40.378,-0 -40.469,0.684C-41.426,1.641 -42.133,1.481 -42.588,0.205C-43.637,-2.119 -44.753,-5.24 -45.938,-9.16C-46.303,-10.117 -46.052,-10.618 -45.186,-10.664C-42.861,-10.709 -40.561,-11.211 -38.281,-12.168C-37.507,-12.486 -37.119,-12.988 -37.119,-13.672L-37.119,-18.115C-37.119,-18.89 -37.279,-19.026 -37.598,-18.525C-38.783,-17.203 -40.332,-16.725 -42.246,-17.09C-43.066,-17.272 -43.705,-17.75 -44.16,-18.525C-44.57,-19.756 -44.57,-21.465 -44.16,-23.652C-44.069,-26.022 -44.411,-27.891 -45.186,-29.258C-45.778,-30.169 -45.893,-30.784 -45.527,-31.104C-45.209,-31.422 -44.594,-31.354 -43.682,-30.898C-41.084,-29.622 -39.102,-28.027 -37.734,-26.113C-37.324,-25.338 -37.119,-25.338 -37.119,-26.113L-37.119,-31.309C-37.165,-34.18 -37.324,-36.8 -37.598,-39.17C-37.734,-40.172 -37.37,-40.56 -36.504,-40.332C-33.679,-39.512 -30.854,-38.623 -28.027,-37.666L-15.313,-37.666C-14.584,-37.666 -14.401,-38.099 -14.766,-38.965L-15.107,-40.332C-15.381,-41.334 -16.315,-42.315 -17.91,-43.272C-18.959,-43.682 -19.437,-44.068 -19.346,-44.434C-19.164,-44.935 -18.64,-45.231 -17.773,-45.322" style="fill:rgb(27,73,193);fill-rule:nonzero;"/>
            </g>
            <g transform="matrix(1,0,0,1,1312.13,3156.67)">
                <path d="M0,-60.999C-0.137,-62.047 0.205,-62.503 1.025,-62.366C5.035,-61.864 7.793,-61.454 9.297,-61.136C10.572,-60.862 11.461,-60.589 11.963,-60.315C12.646,-59.996 12.896,-59.586 12.715,-59.085C12.486,-58.492 12.122,-58.15 11.621,-58.06C11.438,-57.923 11.256,-57.831 11.074,-57.786C10.345,-57.239 9.98,-56.601 9.98,-55.872L9.98,-48.831C9.98,-48.102 10.345,-47.737 11.074,-47.737L14.014,-47.737C14.742,-47.737 15.472,-48.17 16.201,-49.036C17.021,-50.084 17.887,-51.109 18.799,-52.112C19.71,-52.933 20.621,-53.114 21.533,-52.659C23.082,-51.429 24.723,-49.879 26.455,-48.011C27.412,-47.054 27.754,-46.347 27.48,-45.892C27.115,-45.345 26.478,-45.162 25.566,-45.345L11.143,-45.345C10.367,-45.345 9.98,-44.979 9.98,-44.251L9.98,-32.63C9.98,-31.9 10.345,-31.536 11.074,-31.536L14.971,-31.536C15.699,-31.536 16.406,-31.991 17.09,-32.903C18.001,-34.088 19.004,-35.318 20.098,-36.595C21.009,-37.323 21.92,-37.506 22.832,-37.142C24.791,-35.546 26.614,-33.792 28.301,-31.878C28.893,-31.148 29.189,-30.602 29.189,-30.237C29.28,-30.009 29.166,-29.735 28.848,-29.417C28.665,-29.325 28.118,-29.28 27.207,-29.28L11.484,-29.28C10.801,-29.28 10.23,-28.824 9.775,-27.913C6.722,-21.031 2.21,-15.472 -3.76,-11.233C-4.672,-10.641 -4.672,-10.321 -3.76,-10.276L5.195,-10.276C8.75,-10.367 12.281,-10.504 15.791,-10.686C16.565,-10.686 16.793,-11.073 16.475,-11.849C15.335,-14.446 13.74,-17.02 11.689,-19.573C11.051,-20.438 10.96,-21.054 11.416,-21.419C11.78,-21.737 12.486,-21.669 13.535,-21.214C17.818,-19.208 21.646,-16.451 25.02,-12.942C28.437,-9.206 29.6,-5.605 28.506,-2.142C27.594,0.137 26.045,1.276 23.857,1.276C22.809,1.504 21.807,1.413 20.85,1.003C19.391,0.046 18.639,-1.23 18.594,-2.825L17.91,-7.269C17.728,-8.044 17.181,-8.249 16.27,-7.884C8.203,-4.922 -0.16,-2.712 -8.818,-1.253C-9.502,-1.162 -9.936,-0.706 -10.117,0.114C-9.98,0.843 -10.391,1.299 -11.348,1.481C-11.713,1.436 -12.077,1.116 -12.441,0.524C-13.581,-2.347 -14.561,-5.72 -15.381,-9.593C-15.609,-10.641 -15.29,-11.097 -14.424,-10.96C-12.829,-10.731 -11.052,-10.572 -9.092,-10.481C-8.408,-10.481 -7.861,-10.868 -7.451,-11.644C-4.353,-17.112 -2.097,-22.581 -0.684,-28.05C-0.502,-28.778 -0.775,-29.144 -1.504,-29.144L-7.93,-29.144C-9.389,-29.098 -10.893,-29.007 -12.441,-28.87C-13.262,-28.778 -13.9,-29.234 -14.355,-30.237C-14.447,-30.419 -14.561,-30.624 -14.697,-30.853C-15.153,-31.81 -14.926,-32.22 -14.014,-32.083C-11.553,-31.718 -9.252,-31.513 -7.109,-31.468L-0.684,-31.468C0.091,-31.468 0.479,-31.832 0.479,-32.562L0.479,-44.183C0.479,-44.911 0.113,-45.276 -0.615,-45.276L-5.059,-45.276C-6.518,-45.23 -7.998,-45.14 -9.502,-45.003C-10.505,-44.911 -11.234,-45.321 -11.689,-46.233L-12.031,-46.78C-12.533,-47.874 -12.328,-48.353 -11.416,-48.216C-9.502,-47.942 -7.475,-47.782 -5.332,-47.737L-0.684,-47.737C0.091,-47.737 0.479,-48.079 0.479,-48.763L0.479,-54.368C0.387,-56.737 0.228,-58.948 0,-60.999M-27.891,-60.179C-27.663,-60.589 -27.116,-60.794 -26.25,-60.794C-23.197,-60.794 -20.439,-60.224 -17.979,-59.085C-14.88,-57.398 -13.672,-54.892 -14.355,-51.565C-14.629,-49.879 -15.563,-48.717 -17.158,-48.079C-18.389,-47.669 -19.733,-47.645 -21.191,-48.011C-22.24,-48.466 -22.946,-49.241 -23.311,-50.335C-23.539,-50.973 -23.698,-51.884 -23.789,-53.069C-24.108,-55.484 -25.18,-57.398 -27.002,-58.811C-27.822,-59.267 -28.119,-59.723 -27.891,-60.179M-14.697,-45.003C-14.287,-45.96 -13.809,-46.347 -13.262,-46.165C-12.761,-45.982 -12.602,-45.436 -12.783,-44.524L-17.91,-23.196C-18.64,-20.188 -19.164,-17.477 -19.482,-15.061C-19.711,-13.329 -19.551,-11.256 -19.004,-8.841C-18.549,-6.836 -18.32,-4.944 -18.32,-3.167C-18.412,-2.119 -18.959,-1.253 -19.961,-0.569C-21.738,0.114 -23.539,0.205 -25.361,-0.296C-27.731,-1.116 -28.803,-2.62 -28.574,-4.808C-28.393,-6.494 -28.119,-8.294 -27.754,-10.208C-27.663,-10.663 -27.617,-11.119 -27.617,-11.575C-27.39,-13.853 -28.643,-15.653 -31.377,-16.976C-32.243,-17.294 -32.653,-17.75 -32.607,-18.343C-32.517,-18.89 -32.038,-19.117 -31.172,-19.026C-27.663,-18.753 -25.271,-20.188 -23.994,-23.333L-14.697,-45.003ZM-33.77,-44.524C-33.496,-44.979 -32.858,-45.185 -31.855,-45.14C-30.078,-44.957 -28.278,-44.569 -26.455,-43.978C-22.536,-42.474 -20.713,-39.967 -20.986,-36.458C-21.032,-35.592 -21.306,-34.681 -21.807,-33.724C-23.22,-31.946 -25.065,-31.285 -27.344,-31.741C-28.164,-31.832 -28.825,-32.242 -29.326,-32.972C-30.102,-34.156 -30.443,-35.66 -30.352,-37.483C-30.488,-38.577 -30.671,-39.488 -30.898,-40.218C-31.172,-41.266 -31.719,-42.177 -32.539,-42.952C-33.542,-43.681 -33.952,-44.205 -33.77,-44.524" style="fill:rgb(27,73,193);fill-rule:nonzero;"/>
            </g>
            <g transform="matrix(1,0,0,1,1387.26,3135.16)">
                <path d="M0,-17.409C0.228,-17.956 0.774,-18.115 1.641,-17.888C7.383,-16.338 12.783,-13.854 17.842,-10.436C22.08,-7.429 24.222,-3.805 24.268,0.433C24.404,2.666 23.47,4.329 21.465,5.423C17.227,7.11 14.332,5.355 12.783,0.159C11.826,-3.03 10.596,-5.742 9.092,-7.975C6.539,-11.667 3.782,-14.287 0.82,-15.837C-0.047,-16.338 -0.319,-16.862 0,-17.409M14.697,-40.378C15.198,-40.742 15.996,-40.514 17.09,-39.694C19.368,-37.871 21.441,-35.979 23.311,-34.02C24.222,-33.2 24.358,-32.402 23.721,-31.628C23.447,-31.445 22.877,-31.354 22.012,-31.354L3.418,-31.354C2.688,-31.354 2.142,-30.898 1.777,-29.987C0.638,-27.526 -0.775,-25.042 -2.461,-22.536C-3.054,-21.716 -2.963,-21.191 -2.188,-20.964C-1.23,-20.69 -0.661,-20.166 -0.479,-19.391C-0.524,-18.845 -0.866,-18.388 -1.504,-18.024C-2.324,-17.386 -2.734,-16.702 -2.734,-15.973L-2.734,9.32L-2.529,19.779C-2.211,21.373 -2.963,22.376 -4.785,22.786C-6.562,23.196 -8.522,23.333 -10.664,23.196C-11.576,23.105 -12.282,22.672 -12.783,21.898C-12.875,21.669 -12.92,21.1 -12.92,20.189C-12.875,16.224 -12.783,12.191 -12.646,8.089L-12.646,-9.616C-12.646,-10.345 -13.034,-10.345 -13.809,-9.616C-21.101,-2.734 -28.916,2.005 -37.256,4.603C-38.259,4.922 -38.92,4.854 -39.238,4.398C-39.648,3.851 -39.421,3.236 -38.555,2.552C-25.293,-6.927 -15.746,-17.819 -9.912,-30.124C-9.548,-30.944 -9.707,-31.354 -10.391,-31.354L-29.189,-31.354C-31.149,-31.263 -32.881,-31.126 -34.385,-30.944C-35.479,-30.852 -36.162,-31.263 -36.436,-32.175L-36.846,-33.268C-37.256,-34.27 -37.006,-34.68 -36.094,-34.499C-33.086,-34.134 -28.347,-33.929 -21.875,-33.884L7.656,-33.884C8.567,-33.838 9.365,-34.27 10.049,-35.182L12.236,-37.917C12.965,-38.874 13.785,-39.694 14.697,-40.378" style="fill:rgb(27,73,193);fill-rule:nonzero;"/>
            </g>
            <g transform="matrix(1,0,0,1,1446.18,3130.58)">
                <path d="M0,-7.36C-0.684,-7.36 -1.025,-6.995 -1.025,-6.266L-1.025,4.671C-1.025,5.447 -0.684,5.833 0,5.833L5.537,5.833C6.312,5.833 6.699,5.469 6.699,4.74L6.699,-6.198C6.699,-6.972 6.334,-7.36 5.605,-7.36L0,-7.36ZM9.98,-12.965C10.709,-13.512 11.461,-13.512 12.236,-12.965C14.879,-11.279 16.68,-9.958 17.637,-9.001C18.457,-8.089 18.206,-7.223 16.885,-6.403C16.064,-5.719 15.654,-5.012 15.654,-4.284L15.654,1.595L15.859,9.661C16.133,10.437 15.768,11.143 14.766,11.781C12.031,12.647 9.707,12.874 7.793,12.464C6.79,11.963 6.402,11.12 6.631,9.935L6.631,9.251C6.631,8.477 6.266,8.089 5.537,8.089L0.068,8.089C-0.661,8.089 -1.025,8.454 -1.025,9.183L-1.025,10.755C-0.707,12.396 -1.55,13.421 -3.555,13.831C-6.062,14.378 -8.112,14.333 -9.707,13.695C-10.072,13.513 -10.3,13.194 -10.391,12.738C-10.3,10.049 -10.163,7.315 -9.98,4.535L-9.98,-4.967C-10.072,-7.337 -10.254,-9.524 -10.527,-11.53C-10.619,-12.441 -10.209,-12.783 -9.297,-12.555C-6.244,-11.643 -3.281,-10.686 -0.41,-9.684L4.854,-9.684C5.582,-9.684 6.38,-10.094 7.246,-10.915C8.521,-11.963 9.434,-12.646 9.98,-12.965M12.305,-25.339C12.942,-26.067 13.625,-26.135 14.355,-25.544C16.588,-23.903 18.662,-22.034 20.576,-19.938C20.94,-19.345 20.895,-18.821 20.439,-18.366C20.303,-18.32 19.778,-18.298 18.867,-18.298L-3.35,-18.298C-6.176,-18.252 -8.728,-18.137 -11.006,-17.956C-11.963,-17.864 -12.646,-18.252 -13.057,-19.118L-13.535,-20.075C-13.991,-20.986 -13.764,-21.396 -12.852,-21.305C-9.707,-20.986 -6.586,-20.803 -3.486,-20.758L4.854,-20.758C5.537,-20.713 6.197,-20.69 6.836,-20.69C7.747,-20.69 8.567,-21.123 9.297,-21.989C10.345,-23.31 11.348,-24.426 12.305,-25.339M24.268,-34.294C25.406,-35.068 26.408,-35.273 27.275,-34.909C29.144,-33.815 30.898,-32.539 32.539,-31.081C33.678,-29.895 33.428,-28.87 31.787,-28.005C31.104,-27.366 30.762,-26.682 30.762,-25.954L30.762,19.505C30.67,20.326 30.42,21.237 30.01,22.24C29.417,23.287 28.665,24.154 27.754,24.837C25.156,26.523 22.513,27.435 19.824,27.572C18.821,27.343 18.365,26.842 18.457,26.068C18.138,23.88 17.637,22.194 16.953,21.009C16.27,20.28 15.152,19.687 13.604,19.232C12.691,18.912 12.281,18.456 12.373,17.865C12.51,17.181 13.01,16.884 13.877,16.976C15.791,17.203 18.138,17.249 20.918,17.113C21.419,16.748 21.578,16.133 21.396,15.267L21.396,-27.936C21.396,-28.665 21.055,-29.03 20.371,-29.03L-13.672,-29.03C-14.401,-29.03 -14.766,-28.688 -14.766,-28.005L-14.766,14.036L-14.561,24.906C-14.379,26.136 -14.948,26.911 -16.27,27.23C-18.002,27.731 -20.098,27.913 -22.559,27.777C-24.154,27.594 -24.814,26.82 -24.541,25.453C-24.496,20.941 -24.382,16.407 -24.199,11.849L-24.199,-24.04C-24.291,-27.366 -24.473,-30.442 -24.746,-33.268C-24.838,-34.179 -24.45,-34.521 -23.584,-34.294C-20.85,-33.655 -17.705,-32.721 -14.15,-31.491L19.824,-31.491C20.508,-31.491 21.305,-31.878 22.217,-32.653C22.9,-33.245 23.584,-33.792 24.268,-34.294" style="fill:rgb(27,73,193);fill-rule:nonzero;"/>
            </g>
        </g>
    </g>
</svg>
