<?xml version="1.0" encoding="UTF-8" standalone="no"?>
<!DOCTYPE svg PUBLIC "-//W3C//DTD SVG 1.1//EN" "http://www.w3.org/Graphics/SVG/1.1/DTD/svg11.dtd">
<svg width="100%" height="100%" viewBox="0 0 607 65" version="1.1" xmlns="http://www.w3.org/2000/svg" xmlns:xlink="http://www.w3.org/1999/xlink" xml:space="preserve" xmlns:serif="http://www.serif.com/" style="fill-rule:evenodd;clip-rule:evenodd;stroke-linejoin:round;stroke-miterlimit:2;">
    <g transform="matrix(0.999999,0,0,0.999999,-186.332,-2157.2)">
        <g transform="matrix(1,0,0,1,234.676,2191.61)">
            <path d="M0,-4.011C-0.593,-5.013 -0.661,-5.674 -0.205,-5.993C0.342,-6.312 1.048,-6.175 1.914,-5.583C6.881,-1.755 10.732,2.78 13.467,8.02C14.788,10.436 15.062,12.874 14.287,15.335C13.694,17.112 12.418,18.137 10.459,18.411C8.453,18.73 6.904,17.796 5.811,15.608C5.127,13.923 4.671,12.122 4.443,10.208C3.851,5.195 2.369,0.456 0,-4.011M-20.986,-32.585C-20.805,-33.633 -20.28,-34.066 -19.414,-33.884C-16.225,-33.2 -13.513,-32.517 -11.279,-31.833C-10.186,-31.423 -9.343,-30.967 -8.75,-30.466C-8.477,-29.463 -9.069,-28.87 -10.527,-28.689C-11.257,-28.415 -11.826,-27.823 -12.236,-26.911C-13.285,-24.405 -14.355,-22.285 -15.449,-20.554C-15.905,-19.87 -15.769,-19.529 -15.039,-19.529L1.367,-19.529C2.096,-19.529 2.688,-19.688 3.145,-20.007C4.83,-21.556 6.175,-22.581 7.178,-23.083C7.679,-23.357 8.362,-23.174 9.229,-22.536L10.391,-21.648C13.079,-19.187 14.72,-17.273 15.313,-15.906C15.586,-15.13 15.176,-14.675 14.082,-14.538C13.717,-14.447 13.353,-14.424 12.988,-14.47C12.213,-14.47 11.666,-14.333 11.348,-14.06C8.203,-11.69 5.4,-9.866 2.939,-8.591C2.027,-8.135 1.39,-8.067 1.025,-8.386C0.66,-8.704 0.638,-9.297 0.957,-10.163C1.595,-11.849 2.073,-13.786 2.393,-15.974C2.529,-16.748 2.256,-17.136 1.572,-17.136L-1.504,-17.136C-2.233,-17.136 -2.598,-16.771 -2.598,-16.042L-2.598,21.966C-2.644,23.97 -3.646,25.725 -5.605,27.229C-7.976,28.687 -10.231,29.508 -12.373,29.69C-13.74,29.918 -14.492,29.212 -14.629,27.571C-14.902,26.158 -15.404,24.813 -16.133,23.538C-16.771,22.535 -18.07,21.783 -20.029,21.282C-20.941,21.053 -21.396,20.621 -21.396,19.983C-21.352,19.254 -20.896,18.934 -20.029,19.026C-18.389,19.254 -16.225,19.3 -13.535,19.163C-12.807,19.026 -12.396,18.912 -12.305,18.821C-12.214,18.684 -12.168,18.252 -12.168,17.522L-12.1,12.259L-12.1,8.157L-12.031,4.055L-12.031,-15.7C-11.986,-16.612 -12.328,-17.068 -13.057,-17.068L-16.543,-17.068C-17.272,-17.068 -17.956,-16.612 -18.594,-15.7C-20.645,-12.556 -23.812,-9.388 -28.096,-6.199C-29.145,-5.56 -29.851,-5.378 -30.215,-5.652C-30.671,-6.062 -30.648,-6.699 -30.146,-7.566C-25.361,-15.769 -22.309,-24.109 -20.986,-32.585M-25.156,-5.993C-25.111,-7.041 -24.655,-7.474 -23.789,-7.292C-20.053,-6.517 -16.862,-5.652 -14.219,-4.695C-13.262,-4.056 -12.783,-3.577 -12.783,-3.259C-12.92,-2.439 -13.513,-2.005 -14.561,-1.96C-15.29,-1.732 -15.814,-1.162 -16.133,-0.251C-17.227,3.303 -18.822,6.767 -20.918,10.139C-22.969,13.512 -25.521,16.269 -28.574,18.411C-29.486,19.049 -30.17,19.208 -30.625,18.889C-30.99,18.662 -30.967,18.047 -30.557,17.044C-27.504,9.479 -25.703,1.8 -25.156,-5.993M-35.684,-32.585C-35.456,-33.679 -34.909,-34.134 -34.043,-33.952C-30.99,-33.36 -27.846,-32.517 -24.609,-31.423C-23.789,-30.83 -23.379,-30.42 -23.379,-30.193C-23.425,-29.372 -24.086,-28.916 -25.361,-28.825C-26,-28.689 -26.364,-28.415 -26.455,-28.005C-27.959,-24.04 -29.6,-20.691 -31.377,-17.956C-31.879,-17.227 -31.674,-16.68 -30.762,-16.316C-30.215,-16.087 -29.828,-15.814 -29.6,-15.495C-29.189,-14.903 -29.44,-14.356 -30.352,-13.855C-31.264,-13.308 -31.719,-12.693 -31.719,-12.009L-31.719,18.274C-31.582,21.009 -31.514,23.765 -31.514,26.546C-31.514,27.457 -31.56,28.026 -31.65,28.255C-32.016,28.846 -32.539,29.234 -33.223,29.417C-34.408,29.735 -35.775,29.94 -37.324,30.032C-38.601,30.123 -39.648,29.94 -40.469,29.485C-40.971,29.029 -41.13,28.345 -40.947,27.434C-40.947,24.654 -40.902,21.805 -40.811,18.889L-40.811,-4.216C-40.811,-4.945 -41.244,-4.9 -42.109,-4.079C-43.386,-2.849 -44.73,-1.823 -46.143,-1.003C-47.055,-0.41 -47.715,-0.32 -48.125,-0.73C-48.49,-1.185 -48.398,-1.868 -47.852,-2.781C-43.796,-9.251 -40.424,-16.475 -37.734,-24.45C-36.869,-26.82 -36.186,-29.532 -35.684,-32.585" style="fill:white;fill-rule:nonzero;"/>
        </g>
        <g transform="matrix(1,0,0,1,284.578,2218.22)">
            <path d="M0,-59.609C-0.183,-60.52 0.182,-60.908 1.094,-60.771C5.924,-60.042 9.524,-59.244 11.895,-58.379C12.35,-58.105 12.486,-57.763 12.305,-57.353C12.122,-56.897 11.689,-56.533 11.006,-56.259C10.276,-55.667 9.912,-55.005 9.912,-54.277L9.912,-45.8C9.912,-45.071 10.367,-44.866 11.279,-45.185L19.414,-47.783C19.687,-47.874 19.893,-47.988 20.029,-48.125C20.667,-49.218 21.441,-50.357 22.354,-51.543C23.311,-52.454 24.312,-52.841 25.361,-52.705C27.047,-52.112 28.848,-51.201 30.762,-49.97C32.813,-48.921 33.108,-47.714 31.65,-46.347C30.875,-45.618 30.442,-45.093 30.352,-44.775C30.032,-43.726 29.918,-42.063 30.01,-39.785C29.827,-31.809 29.234,-25.953 28.232,-22.216C27.093,-18.662 24.974,-16.611 21.875,-16.064C21.055,-15.791 20.166,-15.654 19.209,-15.654C18.479,-15.425 17.887,-15.791 17.432,-16.748C17.249,-19.254 16.839,-21.054 16.201,-22.148C15.654,-22.922 14.811,-23.606 13.672,-24.199C12.623,-24.609 12.168,-25.088 12.305,-25.634C12.486,-26.272 13.033,-26.5 13.945,-26.318C15.357,-25.953 16.611,-25.725 17.705,-25.634C18.434,-25.588 18.98,-25.771 19.346,-26.181C19.664,-26.773 19.961,-27.89 20.234,-29.531C20.689,-32.584 20.94,-35.683 20.986,-38.828L20.986,-44.296C20.986,-45.025 20.53,-45.276 19.619,-45.048C16.793,-44.182 13.968,-43.294 11.143,-42.382C10.413,-42.109 10.049,-41.607 10.049,-40.879L10.049,-22.011L10.186,-14.97C10.55,-13.648 9.98,-12.669 8.477,-12.031C6.334,-11.484 4.146,-11.324 1.914,-11.552C0.592,-11.917 0.068,-12.783 0.342,-14.15C0.387,-17.295 0.455,-20.507 0.547,-23.789L0.547,-38.418C0.547,-39.101 0.113,-39.351 -0.752,-39.17C-3.122,-38.623 -5.515,-38.007 -7.93,-37.324C-8.705,-37.095 -9.092,-36.663 -9.092,-36.025L-9.092,-12.304C-8.955,-11.074 -8.75,-10.185 -8.477,-9.638C-8.203,-9.136 -7.793,-8.818 -7.246,-8.681C-4.694,-8.088 -0.707,-7.724 4.717,-7.588L12.715,-7.588L19.482,-7.861C21.67,-7.998 23.47,-8.294 24.883,-8.75C25.657,-9.068 26.272,-9.592 26.729,-10.322C27.822,-12.691 28.665,-16.269 29.258,-21.054C29.349,-21.92 29.781,-22.285 30.557,-22.148C31.285,-22.056 31.65,-21.578 31.65,-20.713C31.604,-17.476 31.764,-14.719 32.129,-12.441C32.356,-11.666 33.018,-10.8 34.111,-9.843C35.889,-8.704 36.458,-6.996 35.82,-4.716C35.684,-3.942 35.091,-3.053 34.043,-2.05C32.402,-0.82 30.602,-0.091 28.643,0.137C24.678,0.821 19.391,1.207 12.783,1.299L2.324,1.299C-3.418,1.253 -8.477,0.752 -12.852,-0.205C-14.857,-0.661 -16.43,-2.005 -17.568,-4.238C-18.115,-5.605 -18.457,-6.972 -18.594,-8.339L-18.662,-14.697L-18.662,-28.779L-18.73,-33.359C-18.73,-34.088 -19.209,-34.338 -20.166,-34.111C-21.716,-33.701 -23.266,-33.154 -24.814,-32.47C-25.727,-32.06 -26.523,-32.31 -27.207,-33.222L-27.617,-33.906C-28.301,-34.954 -28.232,-35.501 -27.412,-35.547C-25.271,-35.683 -22.741,-36.093 -19.824,-36.777C-19.096,-37.005 -18.73,-37.483 -18.73,-38.213L-18.73,-48.193C-18.776,-50.107 -18.891,-52.044 -19.072,-54.004C-19.209,-55.051 -18.822,-55.53 -17.91,-55.439C-13.991,-54.937 -10.869,-54.322 -8.545,-53.593C-7.861,-53.457 -7.314,-53.252 -6.904,-52.978C-6.403,-52.249 -6.813,-51.519 -8.135,-50.791C-8.864,-50.244 -9.229,-49.605 -9.229,-48.877L-9.229,-40.879C-9.229,-40.149 -8.773,-39.876 -7.861,-40.058C-5.537,-40.65 -3.168,-41.265 -0.752,-41.904C0.022,-42.177 0.41,-42.632 0.41,-43.271L0.41,-53.115C0.364,-55.576 0.228,-57.74 0,-59.609" style="fill:white;fill-rule:nonzero;"/>
        </g>
        <g transform="matrix(1,0,0,1,346.99,2205.96)">
            <path d="M0,-33.132C-0.775,-33.132 -1.162,-32.767 -1.162,-32.038L-1.162,-27.116C-1.162,-26.387 -0.798,-26.023 -0.068,-26.023L21.943,-26.023C22.672,-26.023 23.037,-26.364 23.037,-27.048L23.037,-31.97C23.037,-32.744 22.672,-33.132 21.943,-33.132L0,-33.132ZM-0.068,-41.95C-0.798,-41.95 -1.162,-41.609 -1.162,-40.925L-1.162,-36.482C-1.162,-35.706 -0.798,-35.32 -0.068,-35.32L21.943,-35.32C22.672,-35.32 23.037,-35.684 23.037,-36.413L23.037,-40.857C23.037,-41.585 22.672,-41.95 21.943,-41.95L-0.068,-41.95ZM26.182,-47.898C26.729,-48.489 27.389,-48.604 28.164,-48.239C30.078,-47.191 31.878,-45.984 33.564,-44.616C34.749,-43.75 35.342,-43.021 35.342,-42.429C35.387,-42.019 35.25,-41.653 34.932,-41.335L32.881,-39.694C32.607,-39.375 32.471,-38.851 32.471,-38.122L32.471,-32.859L32.744,-24.519C32.881,-23.379 32.813,-22.581 32.539,-22.126C32.174,-21.67 31.514,-21.282 30.557,-20.964C28.643,-20.508 26.455,-20.508 23.994,-20.964C23.128,-21.192 22.786,-21.738 22.969,-22.605C22.969,-23.333 22.604,-23.698 21.875,-23.698L-0.205,-23.698C-0.98,-23.698 -1.367,-23.242 -1.367,-22.331C-1.23,-21.328 -1.846,-20.622 -3.213,-20.212C-4.945,-19.665 -6.928,-19.528 -9.16,-19.802C-10.664,-20.029 -11.279,-20.804 -11.006,-22.126L-10.664,-29.509L-10.664,-38.943C-10.756,-40.947 -10.938,-43.135 -11.211,-45.505C-11.303,-46.416 -10.893,-46.78 -9.98,-46.599C-6.381,-45.823 -3.35,-45.095 -0.889,-44.411L21.396,-44.411C22.08,-44.411 22.786,-44.776 23.516,-45.505C24.654,-46.599 25.543,-47.396 26.182,-47.898M33.564,-22.4C34.521,-23.265 35.41,-23.538 36.23,-23.22C38.418,-21.579 40.514,-19.597 42.52,-17.273C43.111,-16.634 43.18,-16.019 42.725,-15.427C42.633,-15.29 42.132,-15.222 41.221,-15.222L18.389,-15.222C17.659,-15.222 17.295,-14.857 17.295,-14.128L17.295,-7.155C17.295,-6.38 17.659,-5.993 18.389,-5.993L23.652,-5.993C24.381,-5.993 25.064,-6.448 25.703,-7.361C26.751,-8.773 27.822,-10.14 28.916,-11.462C29.371,-11.963 29.827,-12.168 30.283,-12.077C31.24,-11.575 32.151,-10.915 33.018,-10.095C34.339,-8.909 35.706,-7.588 37.119,-6.13C37.939,-5.446 38.121,-4.785 37.666,-4.148C37.483,-3.965 36.937,-3.874 36.025,-3.874L18.389,-3.874C17.659,-3.874 17.295,-3.509 17.295,-2.78L17.295,3.44C17.295,4.17 17.75,4.602 18.662,4.739L22.695,5.081L29.531,5.081C34.134,4.989 38.235,4.647 41.836,4.056C42.747,3.874 43.226,4.033 43.271,4.534C43.271,5.126 42.838,5.719 41.973,6.311C41.152,7.222 40.696,8.59 40.605,10.413L40.605,13.011C40.332,14.058 39.739,14.605 38.828,14.651L34.658,14.651C25.042,14.559 17.295,13.489 11.416,11.438C5.901,9.569 1.549,5.809 -1.641,0.159C-2.051,-0.615 -2.416,-0.547 -2.734,0.364C-3.19,1.184 -3.646,2.073 -4.102,3.03C-7.292,9 -12.123,13.056 -18.594,15.198C-19.551,15.472 -20.144,15.426 -20.371,15.061C-20.645,14.651 -20.258,14.013 -19.209,13.147C-17.432,11.597 -15.883,9.661 -14.561,7.337C-11.826,1.96 -10.573,-4.193 -10.801,-11.12C-10.847,-12.077 -10.437,-12.464 -9.57,-12.282C-4.831,-11.507 -1.254,-10.618 1.162,-9.616C1.709,-9.434 1.937,-9.16 1.846,-8.796C1.754,-8.112 1.299,-7.702 0.479,-7.566C-0.205,-7.155 -0.615,-6.563 -0.752,-5.788L-1.025,-4.558C-1.162,-3.874 -0.866,-3.145 -0.137,-2.37C2.005,-0.41 4.238,1.071 6.562,2.073C7.246,2.392 7.588,2.187 7.588,1.458L7.588,-14.196C7.588,-14.925 7.246,-15.29 6.562,-15.29L-10.938,-15.29C-13.034,-15.198 -15.153,-15.062 -17.295,-14.88C-18.389,-14.834 -19.187,-15.267 -19.687,-16.179L-20.029,-16.862C-20.485,-17.819 -20.28,-18.23 -19.414,-18.093C-17.09,-17.774 -12.92,-17.591 -6.904,-17.546L24.062,-17.546L28.643,-17.478C29.371,-17.478 30.055,-17.933 30.693,-18.845C31.604,-20.029 32.562,-21.214 33.564,-22.4" style="fill:white;fill-rule:nonzero;"/>
        </g>
        <g transform="matrix(1,0,0,1,434.627,2220.16)">
            <path d="M0,-61.341C0,-62.252 0.455,-62.616 1.367,-62.435C4.329,-61.888 7.018,-61.273 9.434,-60.589C10.801,-60.224 11.712,-59.905 12.168,-59.632C12.623,-59.404 12.806,-59.153 12.715,-58.88C12.578,-58.014 11.939,-57.513 10.801,-57.376C10.071,-57.103 9.547,-56.51 9.229,-55.599C8.727,-54.322 8.089,-52.933 7.314,-51.429C6.858,-50.653 6.973,-50.267 7.656,-50.267L10.459,-50.267C11.188,-50.267 11.939,-50.722 12.715,-51.634C13.626,-52.773 14.629,-53.912 15.723,-55.052C16.816,-56.054 17.454,-56.556 17.637,-56.556C18.092,-56.51 18.639,-56.214 19.277,-55.667C22.057,-53.297 23.971,-51.383 25.02,-49.925C25.611,-49.15 25.68,-48.534 25.225,-48.079C25.042,-47.897 24.518,-47.806 23.652,-47.806L20.029,-47.806L16.475,-47.874L6.289,-47.874C5.56,-47.874 4.898,-47.418 4.307,-46.507C1.846,-43.18 -1.071,-40.355 -4.443,-38.03C-5.264,-37.484 -5.902,-37.369 -6.357,-37.689C-6.768,-38.007 -6.699,-38.691 -6.152,-39.739C-5.15,-41.608 -4.353,-43.407 -3.76,-45.14C-1.618,-50.927 -0.365,-56.327 0,-61.341M-26.387,-32.904C-27.07,-32.904 -27.412,-32.516 -27.412,-31.741L-27.412,-26.478C-27.412,-25.748 -27.048,-25.384 -26.318,-25.384L-16.885,-25.384C-16.156,-25.384 -15.791,-25.748 -15.791,-26.478L-15.791,-31.741C-15.791,-32.516 -16.156,-32.904 -16.885,-32.904L-26.387,-32.904ZM-26.318,-41.722C-27.048,-41.722 -27.412,-41.38 -27.412,-40.696L-27.412,-36.185C-27.412,-35.409 -27.048,-35.023 -26.318,-35.023L-16.885,-35.023C-16.156,-35.023 -15.791,-35.387 -15.791,-36.116L-15.791,-40.628C-15.791,-41.357 -16.156,-41.722 -16.885,-41.722L-26.318,-41.722ZM-26.455,-61.478C-26.592,-62.389 -26.205,-62.799 -25.293,-62.708C-20.873,-62.161 -17.751,-61.637 -15.928,-61.136C-15.063,-60.68 -14.629,-60.361 -14.629,-60.179C-14.584,-59.586 -15.085,-59.062 -16.133,-58.607C-16.816,-58.105 -17.158,-57.489 -17.158,-56.761L-17.158,-53.958C-17.158,-53.229 -16.816,-52.864 -16.133,-52.864C-15.404,-52.864 -14.697,-53.32 -14.014,-54.232C-13.285,-55.097 -12.51,-55.986 -11.689,-56.898C-11.325,-57.489 -10.847,-57.831 -10.254,-57.923C-8.522,-57.148 -6.426,-55.279 -3.965,-52.318C-3.464,-51.679 -3.464,-51.178 -3.965,-50.814C-4.102,-50.677 -4.626,-50.609 -5.537,-50.609L-16.133,-50.609C-16.862,-50.609 -17.227,-50.243 -17.227,-49.515L-17.227,-45.277C-17.227,-44.547 -17.067,-44.183 -16.748,-44.183C-16.338,-44.046 -15.7,-44.41 -14.834,-45.277C-13.559,-46.37 -12.646,-47.008 -12.1,-47.191C-11.735,-47.327 -11.279,-47.213 -10.732,-46.849C-7.953,-45.253 -6.221,-43.932 -5.537,-42.884C-5.127,-42.154 -5.332,-41.517 -6.152,-40.97C-6.928,-40.286 -7.314,-39.579 -7.314,-38.851L-7.314,-30.374L-7.109,-23.538C-6.882,-22.991 -7.109,-22.399 -7.793,-21.761C-9.297,-20.986 -11.394,-20.667 -14.082,-20.804C-15.131,-20.804 -15.746,-21.327 -15.928,-22.376C-15.974,-22.877 -16.201,-23.128 -16.611,-23.128C-17.067,-23.128 -17.295,-22.763 -17.295,-22.034L-17.295,-16.702C-17.295,-16.019 -16.908,-15.653 -16.133,-15.609C-15.358,-15.563 -14.675,-15.927 -14.082,-16.702C-13.308,-17.704 -12.441,-18.707 -11.484,-19.71C-10.573,-20.394 -9.662,-20.485 -8.75,-19.984C-6.928,-18.48 -5.378,-17.044 -4.102,-15.677C-3.646,-14.902 -3.213,-14.925 -2.803,-15.745C-0.297,-20.849 3.418,-26.82 8.34,-33.655C8.932,-34.43 8.795,-34.794 7.93,-34.749C3.736,-34.657 0.729,-34.521 -1.094,-34.339C-2.006,-34.247 -2.666,-34.635 -3.076,-35.501L-3.35,-36.185C-3.852,-37.279 -3.669,-37.779 -2.803,-37.689C0.523,-37.279 4.329,-37.073 8.613,-37.073C9.342,-37.073 10.162,-37.438 11.074,-38.167C12.396,-39.215 13.535,-39.989 14.492,-40.491C15.357,-41.038 16.475,-40.787 17.842,-39.739C20.621,-37.689 22.217,-36.07 22.627,-34.886C22.672,-34.43 22.467,-34.02 22.012,-33.655C21.1,-33.199 20.188,-32.767 19.277,-32.357C18.502,-31.718 17.728,-30.875 16.953,-29.827C12.486,-23.766 8.932,-18.343 6.289,-13.558C5.787,-12.555 5.469,-11.644 5.332,-10.823C5.286,-10.413 5.628,-10.071 6.357,-9.798C9.775,-8.887 12.852,-9.024 15.586,-10.208C16.588,-10.846 17.249,-11.689 17.568,-12.737C18.389,-15.289 19.072,-17.773 19.619,-20.189C19.847,-21.191 20.279,-21.647 20.918,-21.556C21.556,-21.51 21.852,-21.031 21.807,-20.12C21.715,-17.431 21.829,-14.947 22.148,-12.669C22.285,-11.986 22.718,-11.393 23.447,-10.892C24.541,-10.39 25.247,-9.593 25.566,-8.499C25.885,-6.358 25.11,-4.603 23.242,-3.236C21.92,-2.324 20.12,-1.641 17.842,-1.185C13.375,-0.547 8.75,-0.525 3.965,-1.116C2.051,-1.345 0.25,-1.868 -1.436,-2.689C-3.669,-4.011 -4.877,-5.674 -5.059,-7.679C-5.15,-9.046 -4.899,-10.572 -4.307,-12.259C-4.033,-12.943 -4.284,-13.284 -5.059,-13.284L-16.064,-13.284C-16.794,-13.284 -17.158,-12.943 -17.158,-12.259L-17.158,-7.269L-17.09,-1.663C-16.816,-0.388 -17.387,0.432 -18.799,0.798C-21.215,1.345 -23.288,1.458 -25.02,1.139C-25.476,0.911 -25.84,0.706 -26.113,0.524C-26.296,0.251 -26.387,-0.342 -26.387,-1.253C-26.387,-3.304 -26.296,-5.423 -26.113,-7.611L-26.113,-12.191C-26.113,-12.919 -26.479,-13.284 -27.207,-13.284L-32.197,-13.284C-33.52,-13.238 -34.841,-13.148 -36.162,-13.011C-37.028,-12.919 -37.666,-13.398 -38.076,-14.446L-38.281,-15.062C-38.646,-15.973 -38.373,-16.361 -37.461,-16.224C-34.089,-15.814 -30.693,-15.609 -27.275,-15.609C-26.501,-15.609 -26.113,-15.973 -26.113,-16.702L-26.113,-22.034C-26.113,-22.763 -26.318,-23.128 -26.729,-23.128C-27.185,-23.128 -27.436,-22.672 -27.48,-21.761C-27.344,-20.712 -28.051,-19.984 -29.6,-19.573C-31.013,-19.254 -32.631,-19.117 -34.453,-19.163C-35.912,-19.254 -36.527,-20.074 -36.299,-21.624C-36.254,-23.629 -36.162,-25.612 -36.025,-27.571L-36.025,-40.355C-36.071,-41.949 -36.186,-43.568 -36.367,-45.208C-36.504,-46.073 -36.071,-46.415 -35.068,-46.234L-27.275,-44.183C-26.501,-44.183 -26.113,-44.547 -26.113,-45.277L-26.113,-49.515C-26.113,-50.243 -26.479,-50.609 -27.207,-50.609C-30.215,-50.653 -32.927,-50.563 -35.342,-50.335C-36.391,-50.243 -37.119,-50.609 -37.529,-51.429L-37.803,-51.976C-38.213,-53.07 -38.008,-53.548 -37.188,-53.411C-34.089,-53.001 -30.785,-52.819 -27.275,-52.864C-26.501,-52.864 -26.113,-53.229 -26.113,-53.958L-26.113,-57.445C-26.205,-58.766 -26.318,-60.111 -26.455,-61.478" style="fill:rgb(242,234,94);fill-rule:nonzero;"/>
        </g>
        <g transform="matrix(1,0,0,1,510.232,2193.16)">
            <path d="M0,-5.901C-0.684,-5.901 -0.935,-5.513 -0.752,-4.739C0.159,-1.047 1.686,2.667 3.828,6.404C4.283,7.133 4.785,7.042 5.332,6.13C7.063,3.396 8.316,0.639 9.092,-2.141C9.319,-2.87 9.205,-3.257 8.75,-3.303C8.294,-3.44 7.884,-3.599 7.52,-3.782C7.154,-4.146 6.973,-4.579 6.973,-5.081C6.973,-5.628 6.607,-5.901 5.879,-5.901L0,-5.901ZM-5.332,-17.522C-6.062,-17.522 -6.426,-17.157 -6.426,-16.428L-6.426,-9.182C-6.426,-8.407 -6.062,-8.02 -5.332,-8.02L5.879,-8.02C6.607,-8.02 6.973,-8.384 6.973,-9.114L6.973,-16.428C6.973,-17.157 6.607,-17.522 5.879,-17.522L-5.332,-17.522ZM-5.332,-28.528C-6.062,-28.528 -6.426,-28.163 -6.426,-27.434L-6.426,-20.872C-6.426,-20.142 -6.062,-19.778 -5.332,-19.778L5.879,-19.778C6.607,-19.778 6.973,-20.142 6.973,-20.872L6.973,-27.434C6.973,-28.163 6.607,-28.528 5.879,-28.528L-5.332,-28.528ZM-32.129,-0.364C-32.858,-0.364 -33.223,-0.022 -33.223,0.661L-33.223,10.3C-33.223,11.076 -32.858,11.462 -32.129,11.462L-29.736,11.462C-29.008,11.462 -28.643,11.098 -28.643,10.369L-28.643,0.73C-28.643,0.001 -29.008,-0.364 -29.736,-0.364L-32.129,-0.364ZM-32.129,-13.967C-32.858,-13.967 -33.223,-13.602 -33.223,-12.874L-33.223,-3.85C-33.223,-3.121 -32.858,-2.756 -32.129,-2.756L-29.736,-2.756C-29.008,-2.756 -28.643,-3.121 -28.643,-3.85L-28.643,-12.805C-28.643,-13.58 -29.008,-13.967 -29.736,-13.967L-32.129,-13.967ZM-32.129,-27.161C-32.858,-27.161 -33.223,-26.796 -33.223,-26.067L-33.223,-17.385C-33.223,-16.61 -32.858,-16.223 -32.129,-16.223L-29.736,-16.223C-29.008,-16.223 -28.643,-16.588 -28.643,-17.317L-28.643,-25.999C-28.643,-26.773 -29.008,-27.161 -29.736,-27.161L-32.129,-27.161ZM10.049,-33.997C10.641,-34.498 11.256,-34.566 11.895,-34.202C13.443,-33.563 15.244,-32.379 17.295,-30.647C18.57,-29.462 18.525,-28.482 17.158,-27.708C16.383,-26.887 15.996,-26.112 15.996,-25.383L15.996,-13.626L16.338,-5.491C16.201,-4.944 15.95,-4.51 15.586,-4.192C14.537,-3.553 12.965,-3.235 10.869,-3.235C10.049,-3.235 10.117,-3.006 11.074,-2.551C13.672,-1.229 15.928,0.024 17.842,1.208C19.346,2.029 19.71,2.849 18.936,3.669C18.616,3.852 18.092,3.943 17.363,3.943C16.68,3.898 16.178,4.035 15.859,4.353C12.715,6.632 9.729,8.249 6.904,9.206C6.175,9.389 6.175,9.936 6.904,10.847C10.413,14.174 14.15,16.316 18.115,17.273C19.163,17.364 19.687,17.705 19.687,18.298C19.551,18.936 19.346,19.3 19.072,19.392C17.613,20.12 16.725,21.511 16.406,23.562C16.314,24.473 16.178,25.384 15.996,26.296C15.859,27.618 15.244,28.164 14.15,27.937C12.1,27.39 9.866,25.794 7.451,23.152C3.167,18.411 0.205,12.99 -1.436,6.882C-2.484,3.146 -3.122,-0.706 -3.35,-4.671C-3.396,-5.445 -3.92,-5.833 -4.922,-5.833C-5.925,-5.833 -6.426,-5.467 -6.426,-4.739L-6.426,14.949C-6.426,15.678 -5.971,16.02 -5.059,15.974C-3.19,15.837 -1.413,15.632 0.273,15.359C1.139,15.222 1.641,15.427 1.777,15.974C1.868,16.521 1.504,17.16 0.684,17.888C-4.33,21.761 -9.502,24.245 -14.834,25.339C-15.518,25.521 -15.996,26.068 -16.27,26.98C-16.726,28.392 -17.341,28.665 -18.115,27.8C-19.164,25.02 -20.166,21.761 -21.123,18.025C-21.306,17.25 -21.853,16.999 -22.764,17.273C-23.584,17.41 -24.404,17.478 -25.225,17.478C-26.638,17.615 -27.641,17.432 -28.232,16.931C-28.688,16.43 -28.848,15.769 -28.711,14.949C-28.711,14.174 -29.076,13.786 -29.805,13.786L-32.197,13.786C-32.927,13.786 -33.291,14.128 -33.291,14.812L-33.291,18.435C-33.291,19.346 -33.337,19.915 -33.428,20.144C-33.793,20.691 -34.316,21.078 -35,21.306C-36.641,21.761 -38.396,21.944 -40.264,21.853C-40.811,21.807 -41.267,21.693 -41.631,21.511C-42.27,21.009 -42.497,20.462 -42.314,19.87C-42.133,13.263 -42.041,6.017 -42.041,-1.868L-42.041,-25.315C-42.087,-27.411 -42.224,-29.28 -42.451,-30.921C-42.588,-31.786 -42.155,-32.105 -41.152,-31.878C-38.601,-31.285 -35.935,-30.487 -33.154,-29.485L-30.146,-29.485C-29.463,-29.485 -28.666,-29.918 -27.754,-30.784L-26.387,-31.946C-25.202,-33.221 -24.062,-33.336 -22.969,-32.288C-21.921,-31.695 -20.576,-30.76 -18.936,-29.485C-17.341,-28.482 -17.204,-27.457 -18.525,-26.409C-19.756,-25.497 -20.234,-24.608 -19.961,-23.743L-19.961,4.079L-19.687,13.376C-19.46,14.653 -19.551,15.519 -19.961,15.974C-20.098,16.157 -19.733,16.271 -18.867,16.316L-16.68,16.384C-15.951,16.384 -15.586,16.02 -15.586,15.29L-15.586,-26.204C-15.632,-28.619 -15.769,-30.715 -15.996,-32.493C-16.088,-33.404 -15.7,-33.768 -14.834,-33.587C-11.963,-32.811 -9.023,-31.9 -6.016,-30.852L5.469,-30.852C6.197,-30.852 6.927,-31.216 7.656,-31.946C8.431,-32.72 9.229,-33.404 10.049,-33.997" style="fill:rgb(242,234,94);fill-rule:nonzero;"/>
        </g>
        <g transform="matrix(1,0,0,1,589.324,2188.83)">
            <path d="M0,-8.615C0.684,-9.344 1.436,-9.389 2.256,-8.752C5.172,-6.655 7.61,-4.422 9.57,-2.053C10.162,-1.46 10.23,-0.844 9.775,-0.207C9.456,0.158 8.818,0.272 7.861,0.135L-1.025,0.203L-32.061,0.203C-39.307,0.158 -45.026,0.318 -49.219,0.682C-50.085,0.774 -50.746,0.318 -51.201,-0.685L-51.748,-1.984C-52.113,-2.895 -51.794,-3.283 -50.791,-3.146C-46.872,-2.827 -43.34,-2.644 -40.195,-2.599L-6.289,-2.599C-5.561,-2.599 -4.831,-3.032 -4.102,-3.898C-2.78,-5.539 -1.413,-7.111 0,-8.615" style="fill:rgb(242,234,94);fill-rule:nonzero;"/>
        </g>
        <g transform="matrix(1,0,0,1,621.727,2204.87)">
            <path d="M0,-31.15C-0.684,-31.15 -1.025,-30.762 -1.025,-29.988C-1.071,-27.117 -1.071,-24.177 -1.025,-21.17C-1.025,-20.257 -0.684,-19.802 0,-19.802L1.094,-19.802C1.822,-19.802 2.643,-20.212 3.555,-21.033C4.922,-22.263 6.038,-22.947 6.904,-23.084C8.682,-22.445 10.709,-21.238 12.988,-19.461C14.629,-18.64 14.674,-17.615 13.125,-16.384C11.803,-15.837 11.279,-14.949 11.553,-13.718L11.484,-10.779C11.484,-10.095 11.871,-9.708 12.646,-9.617C16.019,-9.297 19.346,-9.138 22.627,-9.138C23.355,-9.138 23.766,-9.593 23.857,-10.505C24.222,-13.604 24.427,-16.658 24.473,-19.666C24.473,-20.394 24.336,-20.759 24.062,-20.759C23.743,-20.759 23.287,-20.303 22.695,-19.392C20.462,-16.566 18.365,-14.515 16.406,-13.24C15.313,-12.556 14.561,-12.374 14.15,-12.693C13.694,-13.011 13.672,-13.627 14.082,-14.539C15.403,-17.501 16.588,-21.761 17.637,-27.322C17.728,-28.05 17.34,-27.982 16.475,-27.117C15.289,-25.886 13.968,-24.769 12.51,-23.767C11.598,-23.174 10.96,-23.038 10.596,-23.357C10.14,-23.675 10.117,-24.268 10.527,-25.134C11.302,-26.729 11.917,-28.347 12.373,-29.988C12.601,-30.762 12.35,-31.15 11.621,-31.15L0,-31.15ZM-0.137,-17.683C-0.82,-17.683 -1.162,-17.318 -1.162,-16.589C-1.162,-9.252 -2.461,-2.439 -5.059,3.85C-5.378,4.625 -5.104,5.08 -4.238,5.217C-2.461,5.491 -1.117,5.627 -0.205,5.627C0.479,5.672 1.002,5.195 1.367,4.192C2.324,-1.14 2.803,-8.045 2.803,-16.521C2.803,-17.296 2.438,-17.683 1.709,-17.683L-0.137,-17.683ZM-7.998,-47.078C-7.634,-47.488 -7.019,-47.579 -6.152,-47.351C-4.33,-47.078 -2.553,-46.553 -0.82,-45.779C2.598,-44.046 4.215,-41.586 4.033,-38.396C3.851,-36.163 2.62,-34.727 0.342,-34.089C-0.889,-33.907 -1.982,-33.998 -2.939,-34.363C-3.988,-34.864 -4.626,-35.662 -4.854,-36.755C-4.99,-37.347 -5.104,-38.259 -5.195,-39.49C-5.241,-41.312 -5.925,-43.226 -7.246,-45.232C-8.066,-46.097 -8.317,-46.713 -7.998,-47.078M16.133,-46.326C16.224,-47.237 16.702,-47.601 17.568,-47.42C21.487,-46.599 24.632,-45.711 27.002,-44.754C28.05,-44.297 28.506,-43.796 28.369,-43.25C28.05,-42.657 27.457,-42.315 26.592,-42.224C25.862,-42.042 25.315,-41.495 24.951,-40.584C24.632,-39.717 24.244,-38.829 23.789,-37.918C23.47,-37.188 23.675,-36.824 24.404,-36.824L34.453,-36.824C35.182,-36.824 35.889,-37.279 36.572,-38.191C37.438,-39.33 38.35,-40.447 39.307,-41.541C40.264,-42.315 41.197,-42.474 42.109,-42.019C42.838,-41.563 43.704,-40.834 44.707,-39.832C45.436,-39.148 46.188,-38.441 46.963,-37.712C48.011,-36.846 48.558,-36.094 48.604,-35.457C48.604,-35.001 48.375,-34.705 47.92,-34.568L23.105,-34.568C22.376,-34.568 21.715,-34.112 21.123,-33.201L20.713,-32.654C20.257,-31.924 20.484,-31.446 21.396,-31.218C24.723,-30.626 26.979,-30.056 28.164,-29.509C29.075,-29.099 29.531,-28.826 29.531,-28.689C29.622,-28.005 29.326,-27.595 28.643,-27.459L28.027,-27.254C27.344,-26.98 26.773,-26.387 26.318,-25.476L25.703,-24.109C25.247,-23.334 25.361,-22.947 26.045,-22.947L32.744,-22.947C33.473,-22.947 34.18,-23.402 34.863,-24.314C35.774,-25.408 36.731,-26.524 37.734,-27.664C38.509,-28.301 39.42,-28.324 40.469,-27.732C41.517,-26.912 43.135,-25.408 45.322,-23.22C46.233,-22.445 46.416,-21.716 45.869,-21.033C45.687,-20.85 45.162,-20.759 44.297,-20.759L34.59,-20.759C33.86,-20.759 33.473,-20.394 33.428,-19.666C33.336,-16.703 33.108,-13.558 32.744,-10.232C32.698,-9.503 33.177,-9.138 34.18,-9.138C35.182,-9.138 36.002,-9.593 36.641,-10.505C37.962,-12.51 39.215,-14.06 40.4,-15.154C40.811,-15.381 41.471,-15.086 42.383,-14.265C45.254,-11.849 47.145,-9.913 48.057,-8.455C48.421,-7.953 48.307,-7.452 47.715,-6.951C47.532,-6.859 46.985,-6.814 46.074,-6.814L35.41,-6.814C34.681,-6.814 34.453,-6.336 34.727,-5.379C35.911,-1.778 38.326,1.207 41.973,3.577C43.75,4.716 45.459,5.377 47.1,5.559C47.965,5.65 48.375,6.151 48.33,7.063C48.33,7.154 48.307,7.268 48.262,7.405C48.216,7.586 47.828,7.906 47.1,8.362C46.37,8.999 45.846,9.888 45.527,11.028C45.117,12.258 44.82,13.625 44.639,15.129C44.365,16.04 43.818,16.451 42.998,16.36C41.494,15.995 39.603,14.331 37.324,11.37C36.275,9.956 35.364,8.133 34.59,5.901C33.359,2.438 32.607,-1.231 32.334,-5.105C32.288,-5.834 32.151,-5.765 31.924,-4.9C31.194,-1.163 29.485,2.46 26.797,5.969C25.02,8.157 23.174,9.888 21.26,11.164C17.522,13.625 13.558,15.311 9.365,16.223C8.453,16.451 7.838,16.314 7.52,15.813C7.246,15.357 7.633,14.832 8.682,14.241C16.93,9.045 21.783,2.392 23.242,-5.72C23.333,-6.449 23.014,-6.814 22.285,-6.814L18.594,-6.814C17.181,-6.768 15.791,-6.677 14.424,-6.541C13.467,-6.449 12.76,-6.859 12.305,-7.771C11.758,-8.728 11.461,-8.796 11.416,-7.976C11.233,-2.963 10.823,1.686 10.186,5.969C9.957,8.02 9.434,9.82 8.613,11.37C7.337,13.42 5.65,14.719 3.555,15.266C2.916,15.448 2.027,15.584 0.889,15.676C0.25,15.721 -0.273,15.584 -0.684,15.266C-1.094,14.764 -1.299,13.921 -1.299,12.737C-1.391,11.916 -1.572,11.028 -1.846,10.071C-2.302,8.704 -3.213,7.815 -4.58,7.405C-5.537,6.995 -5.947,6.538 -5.811,6.038C-5.72,5.582 -5.856,5.718 -6.221,6.448C-7.861,10.002 -10.231,13.079 -13.33,15.676C-14.196,16.223 -14.834,16.291 -15.244,15.881C-15.654,15.562 -15.609,14.947 -15.107,14.036C-13.74,10.891 -12.67,7.405 -11.895,3.577C-10.573,-3.35 -9.867,-10.369 -9.775,-17.478L-9.775,-30.125C-9.775,-30.899 -10.231,-31.263 -11.143,-31.218L-12.988,-31.082C-14.037,-30.945 -14.743,-31.287 -15.107,-32.107L-15.381,-32.722C-15.837,-33.77 -15.632,-34.226 -14.766,-34.089C-11.621,-33.724 -6.152,-33.497 1.641,-33.406C2.324,-33.36 3.008,-33.793 3.691,-34.705C4.512,-35.753 5.377,-36.8 6.289,-37.849C7.2,-38.578 8.111,-38.67 9.023,-38.123C9.98,-37.347 11.143,-36.299 12.51,-34.978C13.284,-34.249 13.785,-34.271 14.014,-35.046C15.062,-38.783 15.768,-42.543 16.133,-46.326" style="fill:rgb(242,234,94);fill-rule:nonzero;"/>
        </g>
        <g transform="matrix(1,0,0,1,711.209,2193.64)">
            <path d="M0,-8.91C-0.775,-8.91 -1.162,-8.568 -1.162,-7.885L-1.162,-1.801C-1.162,-1.071 -0.798,-0.707 -0.068,-0.707L2.324,-0.707C3.053,-0.707 3.418,-1.049 3.418,-1.732L3.418,-7.816C3.418,-8.545 3.053,-8.91 2.324,-8.91L0,-8.91ZM0,-19.096C-0.775,-19.096 -1.162,-18.754 -1.162,-18.07L-1.162,-12.328C-1.162,-11.598 -0.798,-11.234 -0.068,-11.234L2.324,-11.234C3.053,-11.234 3.418,-11.598 3.418,-12.328L3.418,-18.002C3.418,-18.73 3.053,-19.096 2.324,-19.096L0,-19.096ZM-0.068,-28.734C-0.798,-28.734 -1.162,-28.392 -1.162,-27.709L-1.162,-22.582C-1.162,-21.852 -0.798,-21.488 -0.068,-21.488L2.324,-21.488C3.053,-21.488 3.418,-21.83 3.418,-22.514L3.418,-27.64C3.418,-28.369 3.053,-28.734 2.324,-28.734L-0.068,-28.734ZM-5.537,7.291C-5.082,6.973 -4.398,7.11 -3.486,7.701C1.07,11.028 2.643,14.72 1.23,18.776C-0.046,20.826 -1.96,21.555 -4.512,20.963C-5.788,20.416 -6.357,19.367 -6.221,17.819C-6.084,17.043 -5.856,16.155 -5.537,15.152C-5.082,12.965 -5.104,10.983 -5.605,9.205C-5.879,8.111 -5.856,7.474 -5.537,7.291M19.619,-36.322C19.893,-36.504 20.257,-36.459 20.713,-36.185C23.082,-34.545 25.064,-32.653 26.66,-30.512C26.979,-29.873 26.842,-29.372 26.25,-29.008C26.067,-28.916 25.543,-28.871 24.678,-28.871L13.262,-28.871C12.532,-28.871 12.168,-28.529 12.168,-27.846L12.168,-22.719C12.168,-21.989 12.236,-21.625 12.373,-21.625C12.51,-21.625 12.852,-21.967 13.398,-22.65C14.492,-24.336 15.518,-25.635 16.475,-26.547C16.793,-26.957 17.249,-26.979 17.842,-26.615C19.847,-25.065 21.692,-23.288 23.379,-21.283C24.017,-20.554 23.926,-19.916 23.105,-19.369C22.969,-19.323 22.444,-19.301 21.533,-19.301L13.193,-19.301C12.464,-19.301 12.1,-18.935 12.1,-18.207L12.1,-12.533C12.1,-11.804 12.168,-11.439 12.305,-11.439C12.441,-11.439 12.783,-11.804 13.33,-12.533C14.195,-13.9 15.221,-15.199 16.406,-16.43C16.68,-16.748 17.112,-16.748 17.705,-16.43C19.801,-14.926 21.783,-13.012 23.652,-10.687C23.743,-9.457 23.174,-8.955 21.943,-9.183C19.117,-9.138 16.246,-9.047 13.33,-8.91C12.555,-8.91 12.168,-8.545 12.168,-7.816L12.168,-1.801C12.168,-1.071 12.532,-0.707 13.262,-0.707L15.928,-0.707C16.656,-0.707 17.408,-1.139 18.184,-2.006C18.73,-2.643 19.346,-3.305 20.029,-3.988C20.895,-4.626 21.829,-4.763 22.832,-4.398C24.883,-3.031 26.683,-1.572 28.232,-0.023C29.053,0.934 28.893,1.822 27.754,2.643C26.888,3.19 26.387,4.056 26.25,5.24C25.977,9.024 25.475,12.623 24.746,16.041C24.381,18.183 23.834,19.983 23.105,21.442C21.191,25.315 18.252,27.365 14.287,27.594C12.601,27.548 11.871,26.591 12.1,24.723C11.917,22.033 10.254,20.028 7.109,18.707C6.016,18.388 5.56,17.955 5.742,17.408C5.924,16.771 5.56,16.451 4.648,16.451C3.235,16.178 2.483,15.289 2.393,13.785C2.62,10.823 2.278,8.522 1.367,6.881C0.774,6.016 0.684,5.445 1.094,5.172C1.504,4.854 2.164,4.83 3.076,5.104C3.851,5.423 4.671,5.787 5.537,6.197C8.818,8.111 10.003,10.709 9.092,13.99C8.909,14.766 8.431,15.381 7.656,15.836C6.699,16.201 6.631,16.429 7.451,16.52C9.593,16.748 11.484,16.906 13.125,16.998C14.036,17.226 14.811,16.906 15.449,16.041C16.133,14.993 16.52,13.809 16.611,12.486C16.748,11.758 16.656,11.666 16.338,12.213C15.745,12.852 15.039,13.238 14.219,13.375C12.168,13.831 10.982,12.988 10.664,10.846C10.618,9.935 10.504,9.024 10.322,8.111C10.094,7.154 9.661,6.266 9.023,5.445C8.111,4.488 7.815,3.851 8.135,3.531C8.499,3.167 9.183,3.076 10.186,3.258C12.373,3.714 14.082,4.466 15.313,5.514C16.224,6.243 16.748,7.11 16.885,8.111C17.021,8.841 17.158,8.75 17.295,7.838C17.432,6.107 17.522,4.398 17.568,2.711C17.568,1.937 17.203,1.549 16.475,1.549L-0.068,1.549C-0.798,1.549 -1.162,1.778 -1.162,2.233C-1.117,3.555 -1.892,4.375 -3.486,4.694C-5.127,5.059 -6.882,5.15 -8.75,4.967C-10.026,4.603 -10.573,3.942 -10.391,2.985L-10.186,-7.816L-10.186,-24.086C-10.231,-27.275 -10.391,-30.192 -10.664,-32.836C-10.71,-33.747 -10.209,-34.043 -9.16,-33.724C-6.381,-32.904 -3.896,-32.106 -1.709,-31.332C-1.345,-31.195 -0.775,-31.127 0,-31.127L14.287,-31.127C15.016,-31.127 15.699,-31.582 16.338,-32.494C17.34,-33.998 18.434,-35.273 19.619,-36.322M-10.391,9.547C-10.3,8.636 -10.026,8.203 -9.57,8.248C-8.979,8.203 -8.591,8.613 -8.408,9.479C-7.27,14.857 -7.314,18.912 -8.545,21.647C-9.775,23.971 -11.713,24.996 -14.355,24.723C-15.541,24.631 -16.452,24.289 -17.09,23.697C-18.184,22.512 -18.389,21.031 -17.705,19.254C-17.568,18.661 -17.021,18.069 -16.064,17.477C-12.556,15.563 -10.664,12.92 -10.391,9.547M-23.789,-24.974C-24.473,-24.974 -24.814,-24.609 -24.814,-23.881L-24.814,4.147C-24.814,4.922 -24.45,5.309 -23.721,5.309L-22.285,5.309C-21.511,5.309 -21.123,4.944 -21.123,4.215L-21.123,-23.881C-21.123,-24.609 -21.488,-24.974 -22.217,-24.974L-23.789,-24.974ZM-33.359,-29.008C-33.451,-29.919 -33.041,-30.238 -32.129,-29.965C-29.896,-29.144 -27.641,-28.369 -25.361,-27.64C-24.814,-27.367 -23.835,-27.275 -22.422,-27.367C-21.693,-27.367 -20.896,-27.8 -20.029,-28.666C-19.346,-29.213 -18.662,-29.736 -17.979,-30.238C-17.751,-30.556 -17.295,-30.602 -16.611,-30.375C-14.743,-29.418 -12.966,-28.096 -11.279,-26.41C-10.732,-25.59 -10.778,-24.929 -11.416,-24.428C-12.646,-23.744 -13.125,-22.855 -12.852,-21.762L-12.852,-3.373L-12.646,10.162C-12.556,10.983 -12.92,11.598 -13.74,12.008C-14.88,12.692 -16.816,12.988 -19.551,12.897C-20.827,12.715 -21.396,12.076 -21.26,10.983L-21.191,8.727C-21.191,7.952 -21.533,7.565 -22.217,7.565L-23.721,7.565C-24.404,7.565 -24.746,8.021 -24.746,8.932L-24.746,11.94C-24.564,13.033 -25.202,13.831 -26.66,14.332C-29.577,14.925 -31.65,14.879 -32.881,14.195C-33.337,13.785 -33.474,13.17 -33.291,12.35C-33.291,9.707 -33.223,7.041 -33.086,4.352L-33.086,-23.949L-33.359,-29.008Z" style="fill:white;fill-rule:nonzero;"/>
        </g>
        <g transform="matrix(1,0,0,1,774.168,2174.31)">
            <path d="M0,29.554C2.324,29.053 4.261,29.258 5.811,30.169C6.812,30.808 7.451,31.628 7.725,32.63C8.271,34.544 8.18,36.39 7.451,38.167C6.812,39.261 5.992,39.967 4.99,40.286C2.529,41.061 0.318,40.856 -1.641,39.671C-3.054,38.075 -3.646,36.23 -3.418,34.134C-3.327,33.269 -3.054,32.38 -2.598,31.468C-1.869,30.466 -1.003,29.827 0,29.554M1.572,-11.325C4.808,-11.507 7.496,-11.233 9.639,-10.505C14.014,-9.046 16.953,-6.289 18.457,-2.233C19.824,2.279 17.75,6.905 12.236,11.644C9.912,13.558 7.975,15.381 6.426,17.113C5.013,18.662 4.352,20.782 4.443,23.47C4.443,24.427 3.987,24.883 3.076,24.837L1.982,24.837C1.025,24.837 0.547,24.382 0.547,23.47C0.501,22.012 0.501,20.554 0.547,19.095C0.729,15.359 2.324,11.736 5.332,8.226C7.52,5.081 8.203,1.322 7.383,-3.053C7.2,-4.01 6.858,-4.922 6.357,-5.788C4.944,-7.702 3.053,-8.408 0.684,-7.907C-0.183,-7.861 -0.866,-7.61 -1.367,-7.155C-2.006,-6.425 -2.279,-5.764 -2.188,-5.173C-2.233,-4.671 -1.982,-4.238 -1.436,-3.874C0.523,-2.37 1.253,-0.524 0.752,1.663C0.159,4.079 -1.208,5.355 -3.35,5.492C-5.4,5.765 -7.224,5.332 -8.818,4.193C-9.32,3.828 -9.685,3.396 -9.912,2.894C-10.778,0.98 -11.006,-1.116 -10.596,-3.395C-10.141,-5.491 -8.773,-7.314 -6.494,-8.864C-3.988,-10.413 -1.299,-11.233 1.572,-11.325" style="fill:white;fill-rule:nonzero;"/>
        </g>
    </g>
</svg>
