<?xml version="1.0" encoding="UTF-8" standalone="no"?>
<!DOCTYPE svg PUBLIC "-//W3C//DTD SVG 1.1//EN" "http://www.w3.org/Graphics/SVG/1.1/DTD/svg11.dtd">
<svg width="100%" height="100%" viewBox="0 0 163 163" version="1.1" xmlns="http://www.w3.org/2000/svg" xmlns:xlink="http://www.w3.org/1999/xlink" xml:space="preserve" xmlns:serif="http://www.serif.com/" style="fill-rule:evenodd;clip-rule:evenodd;stroke-linejoin:round;stroke-miterlimit:2;">
    <g transform="matrix(1.00023,0,0,1.00023,-648.979,-2483.47)">
        <g>
            <g transform="matrix(1,0,0,1,732.633,2541.81)">
                <path d="M0,39.486C-10.901,39.486 -19.744,30.646 -19.744,19.744C-19.744,8.841 -10.901,0.002 0,0.002C10.904,0.002 19.744,8.841 19.744,19.744C19.744,30.646 10.904,39.486 0,39.486M0,-8.708C-8.463,-8.708 -16.646,-6.657 -24.41,-2.828C-24.395,-2.652 -24.387,-2.488 -24.387,-2.32C-24.387,4.093 -29.584,9.293 -35.999,9.293C-37.665,9.293 -39.253,8.942 -40.681,8.312C-44.466,11.678 -48.094,15.501 -51.547,19.744C-36.949,37.672 -19.177,48.194 0,48.194C19.178,48.194 36.951,37.672 51.548,19.744C36.951,1.817 19.178,-8.708 0,-8.708" />
            </g>
            <g transform="matrix(-1,0,0,1,732.633,2573.16)">
                <path d="M0,-9.29C-2.568,-9.29 -4.646,-7.213 -4.646,-4.644C-4.646,-2.08 -2.568,0 0,0C2.564,0 4.646,-2.08 4.646,-4.644C4.646,-7.213 2.567,-9.29 0,-9.29" />
            </g>
            <g transform="matrix(1,0,0,1,732.633,2573.16)">
                <path d="M0,-23.227C6.414,-23.227 11.613,-18.025 11.613,-11.614C11.613,-5.201 6.414,0 0,0C2.568,0 4.646,-2.081 4.646,-4.645C4.646,-7.213 2.568,-9.29 0,-9.29C-2.564,-9.29 -4.646,-7.213 -4.646,-4.645C-4.646,-2.081 -2.564,0 0,0C-6.411,0 -11.612,-5.201 -11.612,-11.614C-11.612,-18.025 -6.411,-23.227 0,-23.227" />
            </g>
            <g transform="matrix(-1,0,0,1,780.247,2541.81)">
                <path d="M0.003,-3.484C-0.96,-3.484 -1.739,-2.703 -1.739,-1.74C-1.739,-0.78 -0.96,0 0.003,0C0.963,0 1.742,-0.78 1.742,-1.74C1.742,-2.703 0.963,-3.484 0.003,-3.484" />
            </g>
            <g transform="matrix(-1,0,0,1,776.183,2587.1)">
                <path d="M0.002,-3.485C-0.959,-3.485 -1.739,-2.703 -1.739,-1.743C-1.739,-0.78 -0.959,0 0.002,0C0.965,0 1.741,-0.78 1.741,-1.743C1.741,-2.703 0.965,-3.485 0.002,-3.485" />
            </g>
            <g transform="matrix(-1,0,0,1,755.276,2606.84)">
                <path d="M0,-3.481C-0.964,-3.481 -1.742,-2.705 -1.742,-1.74C-1.742,-0.781 -0.964,0 0,0C0.96,0 1.742,-0.781 1.742,-1.74C1.742,-2.705 0.96,-3.481 0,-3.481" />
            </g>
            <g transform="matrix(-1,0,0,1,751.79,2518.58)">
                <path d="M-0.005,-3.483C-0.967,-3.483 -1.744,-2.702 -1.744,-1.742C-1.744,-0.779 -0.967,0 -0.005,0C0.956,0 1.739,-0.779 1.739,-1.742C1.739,-2.702 0.956,-3.483 -0.005,-3.483" />
            </g>
            <g transform="matrix(-1,0,0,1,719.278,2599.87)">
                <path d="M0,-3.482C-0.964,-3.482 -1.742,-2.705 -1.742,-1.742C-1.742,-0.78 -0.964,0 0,0C0.962,0 1.742,-0.78 1.742,-1.742C1.742,-2.705 0.962,-3.482 0,-3.482" />
            </g>
            <g transform="matrix(-1,0,0,1,716.957,2525.55)">
                <path d="M0.002,-3.482C-0.961,-3.482 -1.742,-2.705 -1.742,-1.74C-1.742,-0.78 -0.961,0 0.002,0C0.965,0 1.744,-0.78 1.744,-1.74C1.744,-2.705 0.965,-3.482 0.002,-3.482" />
            </g>
            <g transform="matrix(-1,0,0,1,685.599,2581.29)">
                <path d="M-0.005,-3.483C-0.966,-3.483 -1.744,-2.705 -1.744,-1.742C-1.744,-0.781 -0.966,0 -0.005,0C0.958,0 1.739,-0.781 1.739,-1.742C1.739,-2.705 0.958,-3.483 -0.005,-3.483" />
            </g>
            <g transform="matrix(-1,0,0,1,683.279,2518.58)">
                <path d="M0.001,-3.483C-0.961,-3.483 -1.741,-2.702 -1.741,-1.742C-1.741,-0.779 -0.961,0 0.001,0C0.963,0 1.742,-0.779 1.742,-1.742C1.742,-2.702 0.963,-3.483 0.001,-3.483" />
            </g>
            <g transform="matrix(1,0,0,1,732.633,2580.13)">
                <path d="M0,-37.164C-10.246,-37.164 -18.58,-28.828 -18.58,-18.582C-18.58,-8.337 -10.246,-0.002 0,-0.002C10.246,-0.002 18.582,-8.337 18.582,-18.582C18.582,-28.828 10.246,-37.164 0,-37.164M0,2.32C-11.526,2.32 -20.902,-7.056 -20.902,-18.582C-20.902,-30.107 -11.526,-39.484 0,-39.484C11.526,-39.484 20.901,-30.107 20.901,-18.582C20.901,-7.056 11.526,2.32 0,2.32" />
            </g>
            <g transform="matrix(1,0,0,1,732.633,2572)">
                <path d="M0,-20.903C-5.765,-20.903 -10.45,-16.216 -10.45,-10.452C-10.45,-4.687 -5.765,-0.001 0,-0.001C5.766,-0.001 10.451,-4.687 10.451,-10.452C10.451,-16.216 5.766,-20.903 0,-20.903M0,2.323C-7.042,2.323 -12.773,-3.41 -12.773,-10.452C-12.773,-17.494 -7.042,-23.226 0,-23.226C7.041,-23.226 12.774,-17.494 12.774,-10.452C12.774,-3.41 7.041,2.323 0,2.323" />
            </g>
            <g transform="matrix(1,0,0,1,732.633,2572)">
                <path d="M0,-6.967C-1.921,-6.967 -3.486,-5.404 -3.486,-3.483C-3.486,-1.562 -1.921,0 0,0C1.922,0 3.484,-1.562 3.484,-3.483C3.484,-5.404 1.922,-6.967 0,-6.967M0,2.323C-3.203,2.323 -5.808,-0.282 -5.808,-3.483C-5.808,-6.686 -3.199,-9.29 0,-9.29C3.201,-9.29 5.809,-6.686 5.809,-3.483C5.809,-0.282 3.201,2.323 0,2.323" />
            </g>
            <g transform="matrix(1,0,0,1,732.633,2531.94)">
                <path d="M0,59.226C-18.926,59.226 -37.062,49.239 -52.445,30.346C-52.794,29.918 -52.794,29.308 -52.445,28.88C-48.953,24.592 -45.258,20.703 -41.463,17.321C-41.016,16.913 -40.323,16.913 -39.881,17.338C-39.416,17.781 -39.396,18.513 -39.84,18.975L-39.842,18.981C-39.862,19.003 -39.886,19.026 -39.909,19.046C-43.4,22.156 -46.805,25.708 -50.044,29.614C-35.246,47.47 -17.959,56.903 0,56.903C17.959,56.903 35.248,47.47 50.044,29.614C35.248,11.755 17.959,2.324 0,2.324C-8.108,2.324 -16.149,4.262 -23.894,8.086C-24.473,8.366 -25.168,8.131 -25.451,7.555C-25.735,6.983 -25.5,6.285 -24.924,6.001C-16.854,2.019 -8.469,0 0,0C18.926,0 37.062,9.986 52.446,28.88C52.795,29.308 52.795,29.918 52.446,30.346C37.062,49.239 18.926,59.226 0,59.226" />
            </g>
            <g transform="matrix(1,0,0,1,696.634,2549.31)">
                <path d="M0,-27.773C-3.569,-23.497 -10.453,-14.316 -10.453,-9.822C-10.453,-5.683 -8.004,-1.925 -4.214,-0.254C-2.886,0.332 -1.47,0.628 0,0.628C5.762,0.628 10.452,-4.062 10.452,-9.822C10.452,-9.959 10.444,-10.09 10.435,-10.222C10.032,-14.879 3.425,-23.669 0,-27.773M0,2.954C-1.796,2.954 -3.528,2.587 -5.152,1.869C-9.782,-0.171 -12.774,-4.761 -12.774,-9.822C-12.774,-16.592 -1.362,-29.77 -0.876,-30.327C-0.653,-30.581 -0.336,-30.727 0,-30.727C0.334,-30.727 0.654,-30.581 0.876,-30.327C1.335,-29.797 12.156,-17.307 12.745,-10.429C12.763,-10.233 12.776,-10.034 12.776,-9.822C12.776,-2.779 7.044,2.954 0,2.954" />
            </g>
            <g transform="matrix(1,0,0,1,772.117,2529.04)">
                <path d="M0,-9.292C-2.561,-9.292 -4.646,-7.207 -4.646,-4.647C-4.646,-2.083 -2.561,-0.004 0,-0.004C2.559,-0.004 4.646,-2.083 4.646,-4.647C4.646,-7.207 2.559,-9.292 0,-9.292M0,2.322C-3.843,2.322 -6.969,-0.804 -6.969,-4.647C-6.969,-8.489 -3.843,-11.614 0,-11.614C3.84,-11.614 6.965,-8.489 6.965,-4.647C6.969,-0.804 3.84,2.322 0,2.322" />
            </g>
            <g transform="matrix(1,0,0,1,694.311,2606.84)">
                <path d="M0,-13.937C-3.842,-13.937 -6.968,-10.81 -6.968,-6.968C-6.968,-3.127 -3.842,0 0,0C3.843,0 6.967,-3.127 6.967,-6.968C6.967,-10.81 3.843,-13.937 0,-13.937M0,2.321C-5.123,2.321 -9.29,-1.848 -9.29,-6.968C-9.29,-12.089 -5.123,-16.258 0,-16.258C5.12,-16.258 9.288,-12.089 9.288,-6.968C9.288,-1.848 5.12,2.321 0,2.321" />
            </g>
        </g>
        <g transform="matrix(1,0,0,1,730.312,2642.87)">
            <path d="M0,-156.965C-43.274,-156.965 -78.481,-121.758 -78.481,-78.482C-78.481,-35.207 -43.274,0 0,0C43.275,0 78.482,-35.207 78.482,-78.482C78.482,-121.758 43.275,-156.965 0,-156.965M0,3C-44.929,3 -81.481,-33.553 -81.481,-78.482C-81.481,-123.411 -44.929,-159.965 0,-159.965C44.93,-159.965 81.482,-123.411 81.482,-78.482C81.482,-33.553 44.93,3 0,3" />
        </g>
    </g>
</svg>
