<?xml version="1.0" encoding="UTF-8" standalone="no"?>
<!DOCTYPE svg PUBLIC "-//W3C//DTD SVG 1.1//EN" "http://www.w3.org/Graphics/SVG/1.1/DTD/svg11.dtd">
<svg width="100%" height="100%" viewBox="0 0 95 42" version="1.1" xmlns="http://www.w3.org/2000/svg" xmlns:xlink="http://www.w3.org/1999/xlink" xml:space="preserve" xmlns:serif="http://www.serif.com/" style="fill-rule:evenodd;clip-rule:evenodd;stroke-linejoin:round;stroke-miterlimit:2;">
    <g transform="matrix(1.0001,0,0,1.0001,88.5788,26.7776)">
        <path d="M0,-11.667C-14.717,-17.452 -28.266,-25.292 -44.313,-26.746C-50.304,-27.289 -53.222,-20.066 -50.789,-15.461C-46.923,-8.144 -40.119,-2.015 -37.792,6.023C-36.046,2.948 -34.3,-0.128 -32.554,-3.203C-48.471,0.807 -65.116,-1.268 -81.341,-0.297C-90.951,0.278 -91.008,15.281 -81.341,14.703C-63.717,13.649 -45.879,15.622 -28.565,11.262C-24.643,10.273 -22.209,5.896 -23.327,2.035C-26.103,-7.545 -33.272,-14.394 -37.836,-23.031C-39.995,-19.27 -42.154,-15.508 -44.313,-11.746C-30.033,-10.452 -17.096,-2.355 -3.988,2.798C-0.178,4.295 4.24,1.187 5.238,-2.44C6.409,-6.699 3.801,-10.172 0,-11.667" style="fill:rgb(242,234,93);fill-rule:nonzero;"/>
    </g>
</svg>
