<?xml version="1.0" encoding="UTF-8" standalone="no"?>
<!DOCTYPE svg PUBLIC "-//W3C//DTD SVG 1.1//EN" "http://www.w3.org/Graphics/SVG/1.1/DTD/svg11.dtd">
<svg width="100%" height="100%" viewBox="0 0 163 163" version="1.1" xmlns="http://www.w3.org/2000/svg" xmlns:xlink="http://www.w3.org/1999/xlink" xml:space="preserve" xmlns:serif="http://www.serif.com/" style="fill-rule:evenodd;clip-rule:evenodd;stroke-linejoin:round;stroke-miterlimit:2;">
    <g transform="matrix(1.00023,0,0,1.00023,-894.508,-2483.33)">
        <g>
            <g>
                <g transform="matrix(1,0,0,1,994.783,2519.37)">
                    <path d="M0,80.74C0.212,76.278 5.118,73.732 5.162,73.709C5.895,73.344 6.311,72.55 6.193,71.737C6.08,70.927 5.458,70.279 4.65,70.135C4.622,70.129 1.699,69.592 -1.771,68.612C-6.234,67.352 -9.571,65.945 -11.423,64.547C-14.843,61.957 -16.113,56.771 -16.488,54.771C-15.867,54.155 -15.267,53.427 -14.699,52.597C-12.889,49.945 -11.807,46.778 -11.807,44.127C-11.807,39.715 -13.563,37.559 -15.033,36.529C-16.878,35.238 -19.3,34.969 -21.715,35.774C-22.288,35.827 -24.502,35.954 -27.442,35.21C-31.992,34.061 -36.046,31.482 -39.495,27.541C-44.516,21.804 -44.122,11.474 -43.863,8.275C-43.315,7.977 -42.953,7.819 -42.931,7.808C-41.963,7.396 -41.511,6.279 -41.922,5.312C-42.286,4.453 -43.207,4.002 -44.087,4.197C-42.6,2.68 -40.35,1.053 -36.949,-0.374C-32.246,-2.35 -24.856,-4.793 -15.031,-3.22C-11.15,-2.6 -3.075,-1.308 2.125,7.607C6.196,14.588 3.316,19.935 3.197,20.148C2.676,21.06 2.989,22.223 3.901,22.748C4.201,22.92 4.526,23.002 4.849,23.002C5.508,23.002 6.149,22.658 6.5,22.045C6.672,21.746 10.637,14.639 5.415,5.688C3.163,1.828 0.434,-0.819 -2.321,-2.655C-2.36,-3.096 -2.428,-4.952 -1.104,-6.434C0.354,-8.068 3.179,-8.836 7.064,-8.659C11.16,-8.472 15.654,-6.364 19.089,-3.019C21.865,-0.313 25.271,4.426 25.708,11.633C25.967,15.933 25.017,17.854 24.173,18.708C23.309,19.583 22.321,19.545 22.279,19.543C22.308,19.545 22.321,19.545 22.321,19.545L21.956,23.338C22.006,23.344 22.127,23.353 22.308,23.353C23.107,23.353 25.045,23.161 26.764,21.503C28.869,19.47 29.793,16.072 29.509,11.402C28.651,-2.752 17.28,-12.008 7.236,-12.463C2.098,-12.697 -1.665,-11.523 -3.943,-8.973C-5.211,-7.554 -5.766,-5.971 -5.993,-4.668C-9.396,-6.175 -12.513,-6.674 -14.431,-6.983C-22.527,-8.278 -30.376,-7.265 -38.424,-3.886C-48.879,0.502 -50.504,7.062 -50.755,8.831C-50.938,9.035 -51.116,9.246 -51.29,9.463C-54.598,13.621 -55.845,20.681 -56.148,22.746C-56.832,27.385 -58.577,35.248 -59.873,37.515C-60.594,38.776 -62.517,41.334 -64.062,43.388C-66.988,47.282 -67.374,47.867 -67.496,48.609C-67.808,50.471 -66.821,52.099 -64.922,52.858C-64.634,52.974 -64.287,53.091 -63.885,53.224C-63.217,53.447 -61.24,54.109 -60.753,54.625C-60.74,54.875 -60.792,55.221 -60.853,55.644C-60.959,56.383 -61.092,57.301 -61.013,58.489C-60.921,59.87 -60.286,61.054 -59.666,61.898C-59.992,62.513 -60.251,63.295 -60.251,64.232C-60.251,65.664 -59.42,66.733 -58.75,67.593C-58.309,68.164 -57.891,68.697 -57.79,69.197C-57.7,69.65 -57.655,70.523 -57.61,71.449C-57.475,74.177 -57.322,77.267 -55.88,79.07C-53.822,81.642 -49.736,82.887 -46.167,82.031C-44.295,81.581 -40.727,80.075 -37.278,78.619C-34.984,77.649 -32.131,76.443 -31.437,76.304C-30.715,76.159 -29.98,77.357 -29.716,78.55C-29.379,80.058 -29.409,87.286 -29.503,91.49C-29.529,92.539 -28.696,93.412 -27.645,93.437L-27.6,93.437C-26.568,93.437 -25.721,92.613 -25.696,91.576C-25.652,89.683 -25.463,80.124 -25.996,77.723C-26.785,74.178 -29.387,72.01 -32.186,72.568C-33.207,72.773 -35.243,73.625 -38.76,75.11C-41.757,76.374 -45.488,77.949 -47.055,78.326C-49.408,78.891 -51.923,77.917 -52.904,76.691C-53.576,75.849 -53.727,72.864 -53.806,71.26C-53.861,70.143 -53.909,69.179 -54.056,68.449C-54.331,67.07 -55.115,66.062 -55.744,65.255C-56.005,64.92 -56.396,64.416 -56.442,64.215C-56.436,63.722 -56.092,63.373 -56.012,63.298C-55.541,62.96 -55.283,62.455 -55.255,61.876C-55.226,61.287 -55.502,60.752 -55.95,60.368C-56.258,60.096 -57.152,59.123 -57.211,58.235C-57.265,57.448 -57.171,56.808 -57.083,56.188C-56.977,55.461 -56.869,54.707 -57.012,53.865C-57.435,51.364 -60.59,50.308 -62.676,49.612C-63.008,49.501 -63.321,49.397 -63.51,49.321C-63.563,49.301 -63.605,49.279 -63.643,49.26C-63.15,48.517 -61.984,46.965 -61.018,45.678C-59.24,43.316 -57.404,40.874 -56.565,39.404C-54.734,36.201 -52.924,27.004 -52.38,23.3C-51.674,18.498 -50.113,14.103 -48.307,11.834C-48.151,11.636 -47.986,11.445 -47.814,11.26C-47.861,16.342 -47.11,24.623 -42.363,30.05C-34.872,38.607 -26.424,39.633 -22.814,39.633C-21.783,39.633 -21.146,39.547 -21.04,39.531C-20.986,39.524 -20.934,39.513 -20.879,39.502C-20.868,39.499 -20.857,39.497 -20.845,39.494C-20.83,39.49 -20.816,39.483 -20.801,39.48C-20.751,39.467 -20.704,39.453 -20.656,39.436C-19.365,38.967 -18.078,39.046 -17.219,39.649C-15.894,40.576 -15.617,42.596 -15.617,44.127C-15.617,46.012 -16.471,48.435 -17.845,50.449C-19.15,52.361 -20.577,53.363 -21.307,53.363C-22.359,53.363 -23.212,54.216 -23.212,55.268C-23.212,56.32 -22.359,57.173 -21.307,57.173C-20.85,57.173 -20.383,57.099 -19.912,56.963C-19.184,59.922 -17.476,64.742 -13.719,67.585C-11.457,69.297 -7.773,70.878 -2.772,72.288C-1.85,72.549 -0.969,72.777 -0.164,72.974C-1.904,74.681 -3.646,77.209 -3.805,80.559C-4.139,87.558 -0.748,90.37 -0.361,90.667L1.958,87.647C1.958,87.647 1.97,87.655 1.991,87.672C1.9,87.595 -0.238,85.742 0,80.74" />
                </g>
                <g transform="matrix(1,0,0,1,1008.78,2602.04)">
                    <path d="M0,-64.795C-0.959,-65.22 -2.081,-64.785 -2.507,-63.826C-2.935,-62.868 -2.503,-61.744 -1.546,-61.313C-1.462,-61.275 6.855,-57.445 9.004,-48.264C9.866,-44.58 10.597,-38.815 9.18,-32.26C7.812,-25.937 4.761,-20.375 0.11,-15.727C-1.158,-14.456 -2.823,-13.185 -4.433,-11.955C-8.651,-8.735 -13.011,-5.405 -11.74,-0.957C-11.503,-0.121 -10.74,0.425 -9.911,0.425C-9.737,0.425 -9.563,0.4 -9.386,0.351C-8.374,0.062 -7.788,-0.993 -8.079,-2.004C-8.635,-3.954 -5.323,-6.482 -2.121,-8.928C-0.412,-10.232 1.354,-11.582 2.804,-13.031C7.979,-18.207 11.377,-24.405 12.901,-31.453C14.47,-38.7 13.665,-45.066 12.712,-49.133C10.12,-60.203 0.411,-64.612 0,-64.795" />
                </g>
                <g transform="matrix(-0.156748,0.987639,0.987639,0.156748,950.162,2550.05)">
                    <path d="M7.253,-8.724C7.328,-4.247 7.113,0.96 9.527,4.917C10.465,6.455 8.199,8.117 7.253,6.569C4.529,2.099 4.544,-3.339 4.461,-8.412C4.43,-10.208 7.223,-10.534 7.253,-8.724" />
                </g>
                <g transform="matrix(-0.673995,0.738736,0.738736,0.673995,945.552,2558.63)">
                    <path d="M1.918,-4.344C2.788,-3.164 3.426,-1.832 4.296,-0.651C5.371,0.806 2.988,2.298 1.918,0.846C1.048,-0.335 0.411,-1.665 -0.462,-2.846C-1.535,-4.303 0.847,-5.795 1.918,-4.344" />
                </g>
                <g transform="matrix(0.00830388,0.999966,0.999966,-0.00830388,948.093,2539.4)">
                    <path d="M7.627,-7.21C10.644,-2.938 9.932,2.408 10.437,7.338C10.621,9.141 7.81,9.147 7.627,7.362C7.174,2.949 7.909,-1.953 5.213,-5.77C4.165,-7.257 6.59,-8.679 7.627,-7.21" />
                </g>
                <g transform="matrix(-0.72224,-0.691643,-0.691643,0.72224,940.342,2563.87)">
                    <path d="M-2.217,-6.085C-1.114,-4.412 -0.662,-2.451 0.197,-0.663C0.971,0.958 -1.434,2.414 -2.217,0.778C-3.074,-1.006 -3.533,-2.982 -4.632,-4.645C-5.628,-6.157 -3.213,-7.596 -2.217,-6.085" />
                </g>
                <g transform="matrix(-0.745777,-0.666196,-0.666196,0.745777,941.84,2566.6)">
                    <path d="M-1.891,-4.77C-1.345,-3.106 -0.752,-1.459 -0.109,0.17C0.335,1.294 -1.448,1.868 -1.891,0.746C-2.535,-0.882 -3.128,-2.531 -3.672,-4.195C-4.049,-5.34 -2.267,-5.921 -1.891,-4.77" />
                </g>
            </g>
            <g transform="matrix(1,0,0,1,975.785,2642.73)">
                <path d="M0,-156.964C-43.274,-156.964 -78.48,-121.757 -78.48,-78.482C-78.48,-35.207 -43.274,0 0,0C43.276,0 78.483,-35.207 78.483,-78.482C78.483,-121.757 43.276,-156.964 0,-156.964M0,3C-44.929,3 -81.48,-33.553 -81.48,-78.482C-81.48,-123.411 -44.929,-159.964 0,-159.964C44.93,-159.964 81.483,-123.411 81.483,-78.482C81.483,-33.553 44.93,3 0,3" />
            </g>
        </g>
    </g>
</svg>
