<?xml version="1.0" encoding="UTF-8" standalone="no"?>
<!DOCTYPE svg PUBLIC "-//W3C//DTD SVG 1.1//EN" "http://www.w3.org/Graphics/SVG/1.1/DTD/svg11.dtd">
<svg width="100%" height="100%" viewBox="0 0 170 170" version="1.1" xmlns="http://www.w3.org/2000/svg" xmlns:xlink="http://www.w3.org/1999/xlink" xml:space="preserve" xmlns:serif="http://www.serif.com/" style="fill-rule:evenodd;clip-rule:evenodd;stroke-linejoin:round;stroke-miterlimit:2;">
    <g transform="matrix(1.00022,0,0,1.00022,-1121.7,-3409.5)">
        <g transform="matrix(0,-1,-1,0,1206.44,3413.75)">
            <ellipse cx="-79.982" cy="0" rx="79.982" ry="79.983" style="fill:none;"/>
        </g>
        <g transform="matrix(1,0,0,1,1166.5,3478.44)">
            <path d="M0,18.725L42.453,38.561C45.313,39.896 48.68,39.578 51.237,37.724L78.907,17.695C78.921,17.684 78.937,17.671 78.952,17.663L80.471,16.562C80.479,16.556 80.487,16.551 80.496,16.545C81.903,15.574 82.727,14.43 82.697,13.488C82.668,12.552 81.827,11.701 80.925,11.052L53.806,30.753C52.301,31.841 50.364,31.955 48.744,31.054C47.126,30.152 46.203,28.443 46.338,26.595C46.438,25.204 47.145,23.935 48.274,23.118L72.184,5.808C72.77,5.383 73.589,5.515 74.015,6.101C74.438,6.688 74.308,7.507 73.722,7.933L49.813,25.242C49.311,25.605 48.996,26.167 48.954,26.785C48.893,27.617 49.293,28.357 50.021,28.763C50.75,29.169 51.59,29.12 52.266,28.63L80.091,8.417C81.25,7.486 81.821,6.321 81.697,5.137C81.561,3.82 80.582,2.613 79.014,1.824L34.672,-20.065C33.081,-20.806 31.375,-21.171 29.676,-21.171C27.224,-21.171 24.787,-20.411 22.732,-18.924L-2.666,-0.538C-4.64,0.892 -6.099,2.954 -6.771,5.263C-6.791,5.332 -6.812,5.402 -6.831,5.472C-8.258,10.635 -5.743,16.042 -0.851,18.328L0,18.725Z"/>
        </g>
        <g transform="matrix(1,0,0,1,1253.61,3525.11)">
            <path d="M0,-12.97C-0.027,-13.906 -0.869,-14.758 -1.771,-15.406L-28.891,4.295C-29.713,4.889 -30.657,5.198 -31.638,5.198C-31.752,5.198 -31.867,5.195 -31.98,5.187C-33.176,5.1 -34.331,4.541 -35.146,3.652C-36.023,2.698 -36.455,1.449 -36.358,0.136C-36.258,-1.257 -35.552,-2.524 -34.421,-3.342L-10.513,-20.653C-9.927,-21.075 -9.106,-20.945 -8.682,-20.357C-8.256,-19.771 -8.389,-18.951 -8.975,-18.527L-32.884,-1.217C-33.385,-0.855 -33.698,-0.293 -33.743,0.325C-33.798,1.075 -33.486,1.585 -33.214,1.878C-32.848,2.279 -32.327,2.533 -31.791,2.571C-31.311,2.605 -30.84,2.467 -30.432,2.172L-2.606,-18.04C-1.447,-18.974 -0.877,-20.139 -1,-21.321C-1.137,-22.639 -2.115,-23.845 -3.684,-24.635L-7.273,-26.408L-34.328,-6.822C-36.293,-5.4 -38.625,-4.67 -40.971,-4.67C-42.6,-4.67 -44.235,-5.021 -45.761,-5.734L-87.338,-25.16C-88.314,-23.998 -89.045,-22.644 -89.467,-21.195C-89.488,-21.128 -89.508,-21.062 -89.525,-20.993C-89.525,-20.993 -89.527,-20.99 -89.527,-20.986C-90.955,-15.823 -88.44,-10.417 -83.548,-8.131L-40.243,12.102C-37.382,13.438 -34.017,13.118 -31.458,11.266L-2.227,-9.897C-2.217,-9.903 -2.21,-9.907 -2.21,-9.907C-0.793,-10.886 0.029,-12.029 0,-12.97"/>
        </g>
        <g transform="matrix(1.04207,0,0,1.02802,1206.36,3573.2)">
            <path d="M0,-156.964C-43.274,-156.964 -78.48,-121.757 -78.48,-78.481C-78.48,-35.206 -43.274,0 0,0C43.276,0 78.483,-35.206 78.483,-78.481C78.483,-121.757 43.276,-156.964 0,-156.964M0,3C-44.929,3 -81.48,-33.552 -81.48,-78.481C-81.48,-123.41 -44.929,-159.964 0,-159.964C44.93,-159.964 81.483,-123.41 81.483,-78.481C81.483,-33.552 44.93,3 0,3"/>
        </g>
    </g>
</svg>
