<?xml version="1.0" encoding="windows-1252"?>
<!-- Generator: Adobe Illustrator 16.0.0, SVG Export Plug-In . SVG Version: 6.00 Build 0)  -->
<!DOCTYPE svg PUBLIC "-//W3C//DTD SVG 1.1//EN" "http://www.w3.org/Graphics/SVG/1.1/DTD/svg11.dtd">
<svg version="1.1" id="&#22294;&#23652;_1" xmlns="http://www.w3.org/2000/svg" xmlns:xlink="http://www.w3.org/1999/xlink" x="0px" y="0px" width="255.182px" height="172.206px" viewBox="0 0 255.182 172.206" style="enable-background:new 0 0 255.182 172.206;" xml:space="preserve">
<g>
	<path style="fill-rule:evenodd;clip-rule:evenodd;fill:#FFFFFF;" d="M32.231,144.269c-2.524-0.783-5.204-0.272-7.846-0.394   c-1.489-0.068-2.322,0.813-3.295,1.844c-4.101,4.342-9.467,3.197-11.091-2.566c-3.43-12.172-6.656-24.403-9.759-36.663   c-1.256-4.963,2.578-8.745,7.482-7.294c2.753,0.816,4.798,0.146,7.027-1.063c39.819-21.6,79.645-43.188,119.471-64.777   c2.195-1.19,4.389-2.387,6.61-3.528c3.579-1.84,6.575-3.793,7.843-8.268c1.4-4.947,6.286-7.573,11.294-7.452   c5.374,0.13,10.087,3.275,11.655,8.579c2.926,9.891,5.508,19.883,8.178,29.848c6.677,24.914,13.329,49.836,19.963,74.762   c0.426,1.6,0.76,3.251,0.887,4.898c0.409,5.324-1.638,9.416-6.415,11.983c-4.968,2.669-9.904,2.184-13.938-1.469   c-2.531-2.291-5.027-2.793-8.119-2.708c-22.32,0.612-44.644,1.15-66.965,1.738c-4.035,0.105-4.091,0.148-5.145,4.443   c-5.889,24.004-33.179,32.295-51.262,21.114c-7.243-4.479-12.042-10.88-14.796-18.878c-0.377-1.097-0.68-2.219-1.073-3.31   C32.832,144.82,32.521,144.604,32.231,144.269z M33.512,116.678c0.092,0.389,0.184,0.777,0.276,1.166   c1.548,0.66,3.214,0.389,4.836,0.399c8.666,0.06,17.315-0.787,25.96-0.827c23.163-0.105,46.296-1.209,69.449-1.608   c9.994-0.173,19.985-0.468,29.976-0.781c1.905-0.06,4.005,0.349,5.972-1.592c-2.703-10.14-5.348-20.419-8.197-30.641   c-2.818-10.114-4.976-20.438-8.671-30.95C112.719,73.741,73.115,95.209,33.512,116.678z M87.483,142.639   c-0.949-0.176-1.598-0.434-2.229-0.395c-11.957,0.734-23.936,0.521-35.902,0.863c-1.138,0.032-2.384-0.017-2.983,1.298   c1.035,8.647,11.506,16.202,20.875,15.673C77.868,159.478,86.845,151.924,87.483,142.639z"/>
	<path style="fill-rule:evenodd;clip-rule:evenodd;fill:#FFFFFF;" d="M195.569,34.933c-4.636,0.108-7.669-4.127-6.271-7.906   c0.469-1.269,1.275-2.308,2.227-3.258c7.155-7.153,14.299-14.319,21.461-21.466c0.582-0.582,1.213-1.164,1.924-1.561   c2.33-1.3,5.621-0.837,7.392,0.953c1.881,1.901,2.282,4.89,0.909,7.329c-0.401,0.711-0.939,1.373-1.518,1.955   c-7.017,7.057-14.051,14.098-21.088,21.135C199.043,33.677,197.222,34.755,195.569,34.933z"/>
	<path style="fill-rule:evenodd;clip-rule:evenodd;fill:#FFFFFF;" d="M217.808,74.454c-3.69,0.064-6.341-1.919-6.928-4.907   c-0.596-3.031,0.938-5.875,4.252-6.984c3.764-1.26,7.649-2.159,11.495-3.169c5.767-1.516,11.555-2.953,17.309-4.513   c1.457-0.395,2.896-0.67,4.396-0.727c2.936-0.111,4.638,1.549,5.637,4.042c0.92,2.299,0.023,5.031-2.172,6.596   c-0.92,0.656-2.037,1.126-3.134,1.429c-9.581,2.634-19.177,5.215-28.772,7.799C219.093,74.234,218.271,74.359,217.808,74.454z"/>
	<path style="fill-rule:evenodd;clip-rule:evenodd;fill:#FFFFFF;" d="M247.893,127.953c-0.521-0.115-1.661-0.318-2.775-0.62   c-8.961-2.429-17.916-4.875-26.873-7.321c-0.797-0.217-1.62-0.387-2.369-0.719c-3.425-1.516-4.898-4.426-3.916-7.62   c0.893-2.905,4.234-4.747,7.592-3.896c9.964,2.523,19.902,5.151,29.841,7.774c0.952,0.252,1.901,0.648,2.746,1.155   c2.46,1.478,3.578,4.306,2.8,6.819C254.043,126.418,251.733,128.018,247.893,127.953z"/>
	<path style="fill-rule:evenodd;clip-rule:evenodd;fill:#F39800;" d="M33.512,116.678c39.603-21.469,79.207-42.937,119.6-64.834   c3.695,10.513,5.853,20.836,8.671,30.95c2.85,10.222,5.494,20.501,8.197,30.641c-1.967,1.94-4.066,1.532-5.972,1.592   c-9.99,0.313-19.981,0.608-29.976,0.781c-23.152,0.399-46.286,1.503-69.449,1.608c-8.646,0.04-17.294,0.887-25.96,0.827   c-1.622-0.011-3.288,0.261-4.836-0.399C33.696,117.455,33.604,117.066,33.512,116.678z"/>
</g>
</svg>