<?xml version="1.0" encoding="UTF-8" standalone="no"?>
<!DOCTYPE svg PUBLIC "-//W3C//DTD SVG 1.1//EN" "http://www.w3.org/Graphics/SVG/1.1/DTD/svg11.dtd">
<svg width="100%" height="100%" viewBox="0 0 512 512" version="1.1" xmlns="http://www.w3.org/2000/svg" xmlns:xlink="http://www.w3.org/1999/xlink" xml:space="preserve" xmlns:serif="http://www.serif.com/" style="fill-rule:evenodd;clip-rule:evenodd;stroke-linecap:round;stroke-linejoin:round;stroke-miterlimit:1.5;">
    <path d="M60.384,387.85C60.384,387.85 20.567,382.127 20.313,350.185C20.058,318.243 42.807,306.195 42.807,306.195C42.807,306.195 19.529,281.564 20.292,264.891C21.055,248.217 42.585,222.277 42.585,222.277C42.585,222.277 19.383,207.654 21.098,179.951C22.812,152.249 43.379,140.822 43.379,140.822C43.379,140.822 14.488,111.665 21.713,90.33C28.938,68.994 49.495,56.993 49.495,56.993C49.495,56.993 42.351,8.831 85.022,9.085C127.693,9.34 132.553,31.692 132.553,31.692C132.553,31.692 144.484,7.366 171.961,9.131C199.438,10.896 217.739,31.824 217.739,31.824C217.739,31.824 220.809,8.016 256,8.744C291.192,9.472 297.231,31.628 297.231,31.628C297.231,31.628 307.38,6.324 338.357,9.966C369.334,13.608 380.303,32.901 380.303,32.901C380.303,32.901 407.655,-15.236 440.491,12.305C473.328,39.847 461.557,59.651 461.557,59.651C461.557,59.651 502.426,67.837 500.658,99.022C498.89,130.207 469.617,140.66 469.617,140.66C469.617,140.66 489.401,153.981 489.655,177.568C489.91,201.154 467.566,221.267 467.566,221.267C467.566,221.267 494.033,229.488 491.808,256.001C489.584,282.515 469.794,301.683 469.794,301.683C469.794,301.683 497.963,322.504 492.114,346.004C486.265,369.504 464.554,384.74 464.554,384.74C464.554,384.74 462.138,421.826 436.549,436.283C410.959,450.74 378.55,416.012 378.55,416.012C378.55,416.012 350.461,449.578 328.201,436.7C305.94,423.823 307.603,398.04 295.57,396.978C283.537,395.916 259.538,409.924 256,430.329C252.463,450.733 254.713,505.752 233.499,503.463C212.285,501.174 208.86,499.148 211.318,476.203C213.776,453.258 227.321,435.495 220.181,426.313C213.041,417.13 182.719,433.569 168.476,421.107C154.233,408.644 145.91,381.773 135.159,375.721C125.724,370.41 110.347,376.044 103.971,384.795C95.969,395.776 106.343,424.444 87.15,441.608C67.956,458.771 32.208,474.895 26.867,455.97C21.526,437.045 42.92,433.977 50.011,422.833C57.101,411.688 60.384,387.85 60.384,387.85Z" style="fill:none;stroke:rgb(73,59,161);stroke-width:7px;"/>
    <path d="M141.287,349.403C113.172,335.942 119.416,316.44 118.589,306.292C117.91,297.949 131.765,297.013 136.327,288.516C140.89,280.019 146.42,266.562 141.977,253.665C137.533,240.767 131.73,231.045 122.828,225.449C113.926,219.854 146.2,214.691 143.314,194.699C140.428,174.708 140.999,160.768 131.739,152.899C122.479,145.03 118.36,144.936 119.935,139.943C121.51,134.95 133.613,118.464 142.545,116.753C151.477,115.041 146.28,130.692 173.528,129.675C200.777,128.657 203.615,102.264 217.277,102.819C230.939,103.375 232.437,133.772 255.498,133.009C278.56,132.246 288.239,106.02 301.351,106.007C314.462,105.994 310.488,131.299 334.168,132.929C357.847,134.559 363.91,115.499 373.677,116.299C383.213,117.081 384.122,134.934 392.77,137.732C401.418,140.529 369.734,152.211 370.277,177.324C370.82,202.437 394.367,206.505 394.478,219.618C394.588,232.731 369.842,234.898 370.94,256.001C372.039,277.105 392.312,297.652 392.312,297.652C392.312,297.652 391.272,306.074 383.643,315.23C376.013,324.385 376.316,328.392 369.909,328.709C360.738,329.163 349.886,305.878 328.617,317.954C307.348,330.03 308.062,344.836 294.974,355.294C280.96,366.491 254.536,367.593 244.534,385.139C234.532,402.685 208.323,423.747 208.323,423.747C208.323,423.747 182.062,430.369 170.178,420.05C159.107,410.435 145.499,388.016 137.58,376.496C132.417,368.985 143.124,350.282 141.287,349.403Z" style="fill:none;stroke:rgb(73,59,161);stroke-width:7px;"/>
    <path d="M143.6,200.967C143.6,200.967 177.433,190.514 181.757,178.86" style="fill:none;stroke:rgb(73,59,161);stroke-width:7px;"/>
    <path d="M233.503,123.564C233.503,123.564 214.388,150.62 212.746,178.583C211.331,202.672 225.773,220.175 241.626,232.722" style="fill:none;stroke:rgb(73,59,161);stroke-width:7px;"/>
    <path d="M134.773,239.354C134.773,239.354 186.952,230.787 202.658,256C224.39,290.886 204.245,332.949 204.245,332.949" style="fill:none;stroke:rgb(73,59,161);stroke-width:7px;"/>
    <path d="M205.123,256.001C205.123,256.001 257.283,208.727 299.072,248.914C340.862,289.102 322.204,301.603 319.66,324.21" style="fill:none;stroke:rgb(73,59,161);stroke-width:7px;"/>
    <path d="M294.431,178.583C294.431,178.583 285.729,153.483 316.906,120.617" style="fill:none;stroke:rgb(73,59,161);stroke-width:7px;"/>
    <path d="M325.999,178.583C325.999,178.583 326.179,218.592 337.496,234.328C350.421,252.298 363.9,255.942 371.951,256.001" style="fill:none;stroke:rgb(73,59,161);stroke-width:7px;"/>
</svg>
