<svg width="100%" height="100%" viewBox="0 0 867 242" version="1.1" xmlns="http://www.w3.org/2000/svg" xmlns:xlink="http://www.w3.org/1999/xlink" xml:space="preserve" xmlns:serif="http://www.serif.com/">
    <g transform="matrix(1,0,0,1,39.944,14.857)">
        <path d="M0,99.659C-2.979,99.659 -5.821,98.589 -8.043,96.721C-9.354,97.566 -10.825,98.168 -12.39,98.477C-15.895,99.175 -19.535,98.331 -22.381,96.168L-32.185,88.717C-37.478,84.694 -38.695,77.232 -34.957,71.735C-32.716,68.439 -29.411,63.168 -26.019,57.123C-27.909,56.047 -30.141,54.901 -32.389,53.932C-35.838,52.447 -38.437,49.49 -39.466,45.878C-40.495,42.266 -39.846,38.383 -37.698,35.303L-32.802,28.281C-33.601,27.12 -34.206,25.819 -34.579,24.425C-35.561,20.752 -34.817,16.831 -32.56,13.772L-26.362,5.38C-23.068,0.917 -17.229,-0.84 -12.018,1.063C-9.217,2.087 -5.739,3.573 -2.345,5.335C-1.644,4.347 -0.797,3.459 0.176,2.702C2.797,0.663 6.119,-0.244 9.421,0.168L21.186,1.658C24.494,2.078 27.499,3.803 29.53,6.449C29.604,6.544 29.675,6.639 29.744,6.736L43.457,6.736C46.837,6.736 50.072,8.104 52.426,10.529C54.78,12.954 56.052,16.228 55.951,19.606C55.931,20.301 55.854,22.577 55.685,24.32C55.192,32.634 54.561,38.75 53.183,43.49C55.859,46.616 56.921,50.982 55.678,55.179C54.687,58.522 53.484,61.699 52.074,64.7C56.022,65.914 59.156,69.022 60.367,73.044C61.734,77.585 60.413,82.51 56.957,85.757C55.787,86.856 53.239,90.328 51.935,92.812C49.271,97.884 43.502,100.499 37.931,99.149C32.05,97.728 26.73,95.859 21.834,93.486C16.186,95.953 9.809,97.903 2.524,99.401C1.68,99.575 0.834,99.659 0,99.659" style="fill:rgb(161,214,226);fill-rule:nonzero;"/>
    </g>
    <g transform="matrix(1,0,0,1,97.273,12.952)">
        <path d="M0,101.564C-5.421,101.564 -10.346,98.024 -11.959,92.668C-12.336,91.594 -13.968,88.905 -15.01,87.789C-18.188,84.384 -19.21,79.495 -17.662,75.102C-16.937,73.045 -15.705,71.258 -14.126,69.871C-15.756,67.759 -16.726,65.112 -16.726,62.239L-16.726,51.572C-16.726,49.481 -16.212,47.51 -15.306,45.779C-15.517,44.869 -15.628,43.919 -15.628,42.945L-15.628,22.083C-15.628,15.179 -10.031,9.583 -3.128,9.583L12.681,9.583C14.305,7.372 16.628,5.737 19.31,4.967L31.074,1.595C36.645,0 42.573,2.437 45.412,7.482C45.786,8.146 46.161,8.85 46.531,9.583L65.028,9.583C71.932,9.583 77.528,15.179 77.528,22.083L77.528,42.945C77.528,43.774 77.447,44.585 77.294,45.368C78.341,47.196 78.939,49.314 78.939,51.572L78.939,62.239C78.939,63.516 78.748,64.749 78.392,65.909C80.012,68.268 80.827,71.183 80.525,74.22C79.811,81.419 77.91,100.543 56.009,100.543L47.303,100.543C41.704,100.543 33.604,99.812 27.915,93.495C27.352,92.869 26.843,92.224 26.385,91.565C20.984,95.997 13.268,99.324 2.281,101.354C1.517,101.496 0.754,101.564 0,101.564" style="fill:rgb(161,214,226);fill-rule:nonzero;"/>
    </g>
    <g transform="matrix(1,0,0,1,196.803,14.857)">
        <path d="M0,99.659C-2.979,99.659 -5.821,98.589 -8.043,96.721C-9.354,97.566 -10.825,98.168 -12.39,98.477C-15.893,99.175 -19.534,98.331 -22.381,96.168L-32.185,88.717C-37.478,84.694 -38.695,77.232 -34.957,71.735C-32.716,68.439 -29.411,63.168 -26.019,57.123C-27.909,56.047 -30.141,54.901 -32.389,53.932C-35.838,52.447 -38.437,49.49 -39.466,45.878C-40.495,42.266 -39.846,38.383 -37.698,35.303L-32.802,28.281C-33.601,27.12 -34.206,25.819 -34.579,24.425C-35.561,20.752 -34.817,16.831 -32.56,13.772L-26.362,5.38C-23.068,0.917 -17.229,-0.84 -12.018,1.063C-9.217,2.087 -5.739,3.573 -2.345,5.335C-1.644,4.347 -0.797,3.459 0.176,2.702C2.798,0.663 6.119,-0.244 9.421,0.168L21.186,1.658C24.494,2.078 27.499,3.803 29.53,6.449C29.604,6.544 29.675,6.639 29.744,6.736L43.457,6.736C46.837,6.736 50.072,8.104 52.426,10.529C54.78,12.954 56.052,16.228 55.951,19.606C55.931,20.301 55.854,22.577 55.685,24.32C55.192,32.634 54.561,38.75 53.183,43.49C55.859,46.616 56.921,50.982 55.678,55.179C54.687,58.522 53.484,61.699 52.074,64.7C56.022,65.914 59.156,69.022 60.367,73.044C61.734,77.585 60.413,82.51 56.957,85.757C55.787,86.856 53.239,90.328 51.935,92.812C49.271,97.884 43.498,100.499 37.931,99.149C32.05,97.728 26.73,95.859 21.834,93.486C16.186,95.953 9.809,97.903 2.524,99.401C1.68,99.575 0.834,99.659 0,99.659" style="fill:rgb(161,214,226);fill-rule:nonzero;"/>
    </g>
    <g transform="matrix(1,0,0,1,270.591,18.947)">
        <path d="M0,95.736C-0.779,95.736 -1.575,95.731 -2.389,95.722C-8.359,95.658 -13.451,91.379 -14.542,85.508C-14.827,83.976 -16.28,80.229 -17.57,78.042C-19.901,74.088 -19.877,69.173 -17.507,65.241C-15.137,61.309 -10.822,59.012 -6.216,59.208C-5.507,59.241 -4.599,59.276 -3.459,59.309L-3.459,37.45L-17.39,37.45C-24.293,37.45 -29.89,31.853 -29.89,24.95L-29.89,13.656C-29.89,6.753 -24.293,1.156 -17.39,1.156L34.686,1.156L35.824,0.881C39.447,0 43.28,0.789 46.267,3.029L55.364,9.852C58.208,11.985 60.01,15.228 60.317,18.77C60.625,22.311 59.41,25.816 56.978,28.408C49.916,35.929 41.661,43.102 33.619,48.762L33.619,70.518C33.619,81.965 28.969,89.533 19.797,93.01C13.644,95.405 6.647,95.736 0,95.736" style="fill:rgb(161,214,226);fill-rule:nonzero;"/>
    </g>
    <g transform="matrix(1,0,0,1,378.785,14.49)">
        <path d="M0,99.826C-2.205,99.826 -4.45,99.76 -6.16,99.703C-11.192,99.535 -15.475,96.401 -17.3,91.979C-17.653,92.009 -18.011,92.024 -18.371,92.024L-28.516,92.024C-30.757,95.382 -34.579,97.593 -38.919,97.593L-49.193,97.593C-56.097,97.593 -61.693,91.996 -61.693,85.093L-61.693,25.8C-61.693,19.542 -57.095,14.357 -51.092,13.443C-51.057,13.027 -51.027,12.629 -51.004,12.252C-50.791,8.777 -49.14,5.549 -46.446,3.344C-43.754,1.138 -40.263,0.155 -36.814,0.634L-24.344,2.359C-22.128,2.666 -20.064,3.555 -18.345,4.903C-15.389,1.612 -10.778,0 -6.169,1.084L4.811,3.672C8.128,4.454 10.983,6.557 12.713,9.495C13.275,10.45 13.703,11.466 13.992,12.515L20.374,12.515C27.277,12.515 32.874,18.112 32.874,25.015C32.874,25.904 32.867,28.816 32.786,30.457C31.684,71.313 30.851,81.904 25.363,89.26C20.263,96.385 14.051,98.313 9.196,99.195C6.713,99.63 3.816,99.826 0,99.826" style="fill:rgb(161,214,226);fill-rule:nonzero;"/>
    </g>
    <g transform="matrix(1,0,0,1,450.488,1.515)">
        <path d="M0,114.434C-0.092,114.434 -0.184,114.433 -0.275,114.431C-3.084,114.369 -5.765,113.364 -7.905,111.618C-9.474,112.868 -11.341,113.738 -13.363,114.122C-17.172,114.845 -21.102,113.758 -24,111.183C-25.489,109.859 -30.551,106.717 -32.462,105.929C-35.691,104.599 -38.218,101.978 -39.428,98.701C-40.638,95.424 -40.421,91.79 -38.83,88.68C-31.125,73.612 -31.125,47.878 -31.125,36.889L-31.125,16.658C-31.125,9.795 -25.593,4.216 -18.73,4.158C5.343,3.955 29.697,2.42 43.317,0.248C47.418,-0.411 51.59,1.024 54.428,4.067L62.275,12.481C63.903,14.227 64.966,16.364 65.405,18.625C67.65,20.885 69.037,23.997 69.037,27.435L69.037,48.423C69.037,50.914 68.308,53.237 67.052,55.186L67.052,88.7C67.052,92.806 67.051,105.283 53.896,110.724C47.592,113.395 40.606,113.395 32.523,113.395C26.449,113.395 21.257,109.03 20.211,103.051C17.925,103.465 15.772,103.852 13.801,104.206C12.459,106.398 10.969,108.414 9.333,110.25C6.958,112.915 3.56,114.434 0,114.434" style="fill:rgb(161,214,226);fill-rule:nonzero;"/>
    </g>
    <g transform="matrix(1,0,0,1,598.368,5.795)">
        <path d="M0,110.44C-3.773,110.44 -7.494,108.736 -9.946,105.521C-10.795,104.409 -12.363,102.711 -14.359,100.719C-18.932,104.095 -24.003,107.198 -28.513,109.284C-33.524,111.603 -39.466,110.357 -43.124,106.22C-44.107,105.108 -45.779,103.471 -47.497,101.91C-56.999,103.31 -67.927,104.929 -76.509,106.232C-83.196,107.251 -89.494,102.747 -90.688,96.078L-92.958,83.409C-93.568,80.003 -92.74,76.498 -90.67,73.725C-90.559,73.577 -90.444,73.43 -90.328,73.288C-90.931,71.823 -91.263,70.218 -91.263,68.536L-91.263,57.002C-91.263,54.714 -90.648,52.571 -89.576,50.727C-90.313,49.324 -91.114,47.894 -91.955,46.485C-94.141,42.824 -94.309,38.301 -92.402,34.489C-91.664,33.012 -90.91,31.416 -90.186,29.803C-91.291,27.939 -91.925,25.763 -91.925,23.439L-91.925,11.526C-91.925,4.623 -86.328,-0.974 -79.425,-0.974L-37.637,-0.974C-36.931,-1.098 -36.203,-1.163 -35.462,-1.163L8.027,-1.163C14.931,-1.163 20.527,4.434 20.527,11.337L20.527,22.777C20.527,25.33 19.762,27.704 18.448,29.682L18.448,78.179C18.448,78.969 18.375,79.742 18.234,80.492C18.949,81.241 19.585,81.946 20.142,82.607C22.413,85.305 23.439,88.837 22.968,92.333C22.495,95.828 20.568,98.961 17.662,100.96L7.073,108.24C4.914,109.724 2.446,110.44 0,110.44" style="fill:rgb(161,214,226);fill-rule:nonzero;"/>
    </g>
    <g transform="matrix(1,0,0,1,636.918,0.275)">
        <path d="M0,116.338C-2.341,116.338 -4.591,115.679 -6.522,114.495C-8.566,115.623 -10.912,116.168 -13.29,116.033C-16.99,115.818 -20.405,113.973 -22.611,110.993C-23.719,109.498 -27.595,105.729 -28.991,104.789C-32.08,102.803 -34.129,99.567 -34.611,95.926C-35.065,92.51 -34.078,89.076 -31.92,86.416C-32.854,85.203 -33.57,83.816 -34.013,82.31L-37.794,69.451C-39.458,63.794 -36.937,57.841 -31.936,55.032C-31.939,55.007 -31.942,54.982 -31.946,54.956C-32.399,51.66 -34.526,45.008 -36.789,39.812C-39.459,33.683 -36.834,26.539 -30.831,23.597L-23.252,19.881C-22.907,13.286 -17.45,8.044 -10.77,8.044L9.063,8.044C10.789,6.036 13.13,4.607 15.769,4.006L28.248,1.169C33.396,0 38.73,2.192 41.565,6.65C41.857,7.109 42.139,7.575 42.408,8.044L64.014,8.044C70.917,8.044 76.514,13.641 76.514,20.544L76.514,31.984C76.514,35.846 74.763,39.298 72.012,41.591C72.924,43.526 73.335,45.687 73.169,47.869C72.91,51.274 71.272,54.41 68.657,56.567C68.818,58.949 69.048,62.092 69.288,63.712C69.709,66.547 69.139,69.343 67.802,71.705C67.913,73.82 67.489,75.991 66.462,78.014C66.327,78.279 66.189,78.545 66.051,78.808C66.42,78.834 66.792,78.859 67.166,78.882C71.946,79.185 76.134,82.192 77.947,86.624C79.761,91.057 78.882,96.137 75.685,99.702C74.349,101.192 71.899,105.254 70.921,107.605C68.776,112.75 63.482,115.851 57.945,115.214C47.757,114.035 38.46,111.905 30.228,108.867C22.058,112.104 12.739,114.511 1.925,116.19C1.279,116.289 0.637,116.338 0,116.338" style="fill:rgb(161,214,226);fill-rule:nonzero;"/>
    </g>
    <g transform="matrix(1,0,0,1,748.108,-0.851)">
        <path d="M0,116.707L-12.574,116.707C-15.889,116.707 -18.901,115.417 -21.139,113.312C-23.646,115.567 -26.978,116.723 -30.368,116.487C-34.09,116.228 -37.501,114.318 -39.67,111.282C-40.676,109.873 -44.336,106.297 -45.695,105.394C-48.897,103.45 -51.024,100.194 -51.551,96.485C-52.046,92.995 -51.013,89.488 -48.776,86.789C-49.609,85.645 -50.251,84.354 -50.66,82.963L-54.441,70.104C-56.086,64.513 -53.641,58.625 -48.743,55.777C-48.745,55.769 -48.746,55.761 -48.747,55.753C-49.288,52.306 -51.427,45.732 -53.721,40.465C-56.368,34.388 -53.811,27.302 -47.894,24.314L-40.076,20.369C-39.215,14.306 -34.003,9.643 -27.701,9.643L-10.186,9.643C-8.488,7.189 -5.948,5.395 -2.997,4.643L10.334,1.239C15.256,-0.016 20.448,1.83 23.471,5.911C24.342,7.087 25.193,8.348 25.997,9.643L47.461,9.643C54.364,9.643 59.961,15.239 59.961,22.143L59.961,33.866C59.961,37.615 58.311,40.978 55.696,43.27C55.694,43.319 55.692,43.368 55.689,43.418C55.603,45.04 55.203,46.608 54.531,48.045C55.696,49.944 56.368,52.18 56.368,54.571L56.368,93.239C56.368,96.94 56.368,108.192 44.824,113.684C38.75,116.612 31.978,116.612 26,116.612C24.073,116.612 22.235,116.173 20.591,115.383L9.36,115.383C8.305,115.383 7.279,115.252 6.3,115.006C4.45,116.087 2.298,116.707 0,116.707" style="fill:rgb(161,214,226);fill-rule:nonzero;"/>
    </g>
    <g transform="matrix(1,0,0,1,122.614,139.924)">
        <path d="M0,100.725C-3.823,100.725 -7.289,98.997 -9.597,96.236C-11.889,98.889 -15.277,100.568 -19.059,100.568L-29.882,100.568C-36.785,100.568 -42.382,94.971 -42.382,88.068L-42.382,63.439C-43.747,62.129 -44.818,60.506 -45.482,58.667C-46.214,56.643 -48.856,51.201 -50.087,49.355C-53.376,44.42 -52.745,37.854 -48.576,33.636C-43.113,28.108 -37.577,18.769 -34.474,9.845C-32.253,3.465 -25.366,0 -18.923,2.026L-12.894,3.918C-10.039,1.752 -6.282,0.824 -2.523,1.694L8.692,4.282C12.025,5.05 14.897,7.152 16.64,10.096C17.473,11.503 18.012,13.043 18.247,14.628L25.614,14.628L26.229,14.516C27.682,14.252 29.169,14.247 30.622,14.5L38.7,15.912C45.281,17.063 49.794,23.185 48.947,29.811C47.979,37.383 46.42,45.543 45.378,50.231C45.024,51.824 44.38,53.28 43.512,54.554C45.588,60.617 47.212,66.913 47.976,72.142C48.842,78.066 45.387,83.772 39.736,85.749L28.756,89.592C27.652,89.978 26.513,90.204 25.371,90.271C23.872,92.663 21.719,94.928 18.629,96.738C12.508,100.257 5.782,100.725 0,100.725" style="fill:rgb(161,214,226);fill-rule:nonzero;"/>
    </g>
    <g transform="matrix(1,0,0,1,167.24,140.095)">
        <path d="M0,99.848C-6.384,99.848 -11.742,95.037 -12.428,88.691C-12.563,87.444 -13.501,84.236 -14.362,82.409C-16.218,78.479 -15.898,73.868 -13.52,70.231C-13.278,69.863 -13.021,69.51 -12.746,69.174C-13.206,68.315 -13.571,67.388 -13.826,66.404L-16.649,55.502C-17.517,52.154 -16.958,48.595 -15.104,45.673C-14.876,45.314 -14.631,44.967 -14.37,44.635C-15.426,42.802 -16.029,40.675 -16.029,38.408L-16.029,27.898C-16.029,22.231 -12.258,17.444 -7.088,15.911L-7.088,13.467C-7.088,6.564 -1.491,0.967 5.412,0.967L16.549,0.967C19.852,0.967 22.854,2.247 25.09,4.34C27.326,2.473 30.158,1.438 33.098,1.438L44.783,1.438C46.48,1.438 48.1,1.776 49.575,2.389C54.459,0 60.417,1.04 64.203,5.102C65.03,5.99 65.97,6.979 66.948,8.009C70.033,11.258 73.224,14.618 75.354,17.297C76.169,18.324 76.809,19.459 77.263,20.661C79.293,22.633 80.666,25.301 80.981,28.333L82.08,38.921C82.423,42.227 81.436,45.533 79.336,48.109C79.236,48.231 79.135,48.35 79.031,48.468C78.903,49.805 78.556,51.141 77.975,52.425C77.266,53.992 76.494,55.558 75.665,57.117C75.818,57.201 75.964,57.277 76.097,57.343C80.919,59.753 83.653,64.984 82.88,70.319C79.354,94.627 68.237,99.732 59.532,99.733L59.53,99.733C58.854,99.733 58.165,99.698 57.481,99.628C57.421,99.621 57.359,99.615 57.299,99.608C51.409,98.922 46.129,96.852 41.627,93.506C39.644,94.702 37.668,95.777 35.709,96.723C30.906,99.041 25.244,98.036 21.536,94.407C20.734,95.039 19.847,95.636 18.864,96.187C12.959,99.564 6.309,99.848 0,99.848" style="fill:rgb(161,214,226);fill-rule:nonzero;"/>
    </g>
    <g transform="matrix(1,0,0,1,294.61,141.689)">
        <path d="M0,97.94C-5.215,97.94 -9.773,94.723 -11.624,90.042C-23.394,92.226 -35.594,94.355 -47.128,96.345C-53.652,97.477 -59.925,93.314 -61.428,86.866L-63.859,76.435C-64.667,72.972 -63.961,69.329 -61.918,66.418C-61.68,66.078 -61.427,65.752 -61.158,65.442C-61.445,64.392 -61.598,63.287 -61.598,62.146L-61.598,52.342C-61.598,49.79 -60.833,47.417 -59.52,45.438C-60.092,43.829 -60.721,42.138 -61.23,40.884C-62.34,38.148 -62.439,35.125 -61.542,32.346C-62.673,30.466 -63.323,28.265 -63.323,25.912L-63.323,16.186C-63.323,9.283 -57.727,3.686 -50.823,3.686L-9.49,3.686C-7.062,3.686 -4.797,4.377 -2.879,5.576C-0.639,2.214 3.187,0 7.529,0L18.666,0C25.569,0 31.166,5.596 31.166,12.5L31.166,73.127C31.166,76.961 31.166,88.627 20.153,94.395C20.117,94.415 20.081,94.433 20.044,94.452C14.384,97.347 7.937,97.94 0,97.94" style="fill:rgb(161,214,226);fill-rule:nonzero;"/>
    </g>
    <g transform="matrix(1,0,0,1,352.177,140.874)">
        <path d="M0,100.481C-3.198,100.481 -6.3,99.252 -8.641,97.012C-9.145,96.542 -10.28,95.703 -11.449,94.905C-13.278,96.846 -15.698,98.169 -18.369,98.642C-21.903,99.266 -25.532,98.345 -28.337,96.11L-37.983,88.424C-43.188,84.278 -44.231,76.781 -40.357,71.371C-38.226,68.393 -35.19,63.799 -32.02,58.479C-33.81,57.485 -36.045,56.276 -38.831,54.813C-42.039,53.128 -44.358,50.134 -45.187,46.606C-46.016,43.079 -45.273,39.365 -43.151,36.427L-38.131,29.476C-39.354,27.857 -40.177,25.946 -40.501,23.898C-41.062,20.36 -40.077,16.751 -37.797,13.987L-31.131,5.909C-27.271,1.232 -20.609,0 -15.333,2.986C-14.313,3.563 -13.135,4.216 -11.889,4.908C-11.109,5.34 -10.311,5.784 -9.507,6.233L-3.142,3.438C-0.954,2.478 1.383,2.191 3.62,2.505C5.685,0.999 8.229,0.109 10.981,0.109L22.511,0.109C24.85,0.109 27.039,0.752 28.911,1.87C30.83,1.61 32.801,1.796 34.666,2.44L45.803,6.283C49.089,7.417 51.755,9.868 53.159,13.048C54.564,16.228 54.581,19.849 53.207,23.043C52.499,24.685 51.49,26.969 50.31,29.471C50.963,30.987 51.324,32.658 51.324,34.413L51.324,75.51C51.324,79.257 51.324,90.659 40.39,96.386C34.546,99.448 28.16,99.697 21.021,99.697C16.809,99.697 13.035,97.6 10.763,94.341C10.735,94.386 10.708,94.431 10.682,94.476C8.713,97.713 5.382,99.883 1.624,100.376C1.083,100.446 0.54,100.481 0,100.481" style="fill:rgb(161,214,226);fill-rule:nonzero;"/>
    </g>
    <g transform="matrix(1,0,0,1,438.842,138.442)">
        <path d="M0,101.894C-3.665,101.894 -7.006,100.305 -9.311,97.736C-12.005,97.804 -14.781,96.928 -17.072,95.176C-19.159,99.168 -23.34,101.894 -28.157,101.894L-38.039,101.894C-44.942,101.894 -50.539,96.297 -50.539,89.394L-50.539,18.179C-50.539,11.276 -44.942,5.679 -38.039,5.679L-22.716,5.679C-19.676,4.9 -16.459,5.29 -13.694,6.774L-6.244,10.774C-6.021,10.893 -5.803,11.019 -5.59,11.151C-4.856,10.126 -4.207,9.09 -3.652,8.052C-0.671,2.475 6.002,0 11.898,2.292L21.389,5.979C24.781,7.296 27.431,10.027 28.646,13.457C29.05,14.599 29.281,15.78 29.345,16.964C33.827,20.527 37.508,22.346 40.14,23.474C44.113,25.178 46.925,28.814 47.573,33.088C48.222,37.363 46.615,41.669 43.326,44.474C43.008,44.746 42.679,45.053 42.351,45.381C44.087,47.528 45.127,50.262 45.127,53.238L45.127,63.512C45.127,65.554 44.637,67.482 43.769,69.185C44.864,71.037 45.816,72.814 46.558,74.416C49.313,80.368 47.001,87.437 41.261,90.609L32.319,95.55C29.182,97.286 25.449,97.588 22.072,96.383C21.854,96.305 21.639,96.221 21.427,96.132C20.437,96.972 19.309,97.757 18.022,98.464C17.991,98.482 17.959,98.499 17.927,98.516C12.14,101.633 5.897,101.894 0,101.894" style="fill:rgb(161,214,226);fill-rule:nonzero;"/>
    </g>
    <g transform="matrix(1,0,0,1,526.918,141.062)">
        <path d="M0,99.352C-4.595,99.352 -8.681,96.854 -10.853,93.058C-23.077,94.386 -35.878,95.632 -47.036,96.706C-53.731,97.348 -59.721,92.596 -60.621,85.941L-62.033,75.509C-62.496,72.09 -61.525,68.633 -59.352,65.955C-59.07,65.609 -58.773,65.28 -58.46,64.968L-58.46,61.061C-59.116,59.541 -59.479,57.868 -59.479,56.108L-59.479,46.931C-59.479,46.494 -59.457,46.061 -59.413,45.635C-60.839,43.604 -61.676,41.13 -61.676,38.46L-61.676,29.206C-61.676,27.702 -61.41,26.259 -60.923,24.924C-61.816,22.902 -62.168,20.656 -61.903,18.413C-61.481,14.82 -59.522,11.586 -56.535,9.547L-49.869,4.998C-49.459,4.719 -49.037,4.466 -48.606,4.242C-46.317,1.687 -42.993,0.079 -39.293,0.079L-30.509,0.079C-30.139,0.079 -29.772,0.094 -29.411,0.126C-29.05,0.094 -28.684,0.079 -28.313,0.079L-19.372,0.079C-15.009,0.079 -11.167,2.315 -8.931,5.704L-4.907,7.966C-3.092,3.304 1.441,0 6.745,0L17.726,0C24.629,0 30.226,5.597 30.226,12.5L30.226,21.642C33.317,23.917 35.323,27.582 35.323,31.715L35.323,42.304C35.323,46.437 33.317,50.102 30.226,52.377L30.226,74.539C30.226,78.663 30.227,89.603 19.744,95.524C13.563,99.056 6.313,99.352 0,99.352" style="fill:rgb(161,214,226);fill-rule:nonzero;"/>
    </g>
    <g transform="matrix(1,0,0,1,599.618,138.943)">
        <path d="M0,101.628L-12.313,101.628C-16.753,101.628 -20.652,99.314 -22.87,95.825C-26.323,97.233 -29.922,98.419 -33.626,99.359C-39.219,100.782 -45.064,98.188 -47.76,93.08C-48.695,91.308 -51.185,87.934 -52.603,86.516C-55.902,83.216 -57.09,78.352 -55.681,73.902C-54.673,70.722 -52.458,68.132 -49.598,66.621L-49.598,55.999C-52.466,53.709 -54.303,50.183 -54.303,46.227L-54.303,37.426C-55.907,35.292 -56.802,32.679 -56.813,29.962C-56.826,26.346 -55.274,22.9 -52.556,20.517C-49.501,17.836 -46.394,13.328 -44.823,9.298C-42.463,3.238 -35.847,0 -29.618,1.852L-19.579,4.832C-18.357,5.195 -17.213,5.737 -16.176,6.433L-10.702,6.433C-7.752,2.416 -2.568,0.428 2.49,1.73L12.843,4.396C14.408,4.799 15.86,5.496 17.134,6.433L29.255,6.433C36.158,6.433 41.755,12.029 41.755,18.933L41.755,27.403C41.755,29.913 41.015,32.251 39.741,34.209C39.879,34.952 39.951,35.718 39.951,36.501L39.951,46.227C39.951,49.691 38.542,52.826 36.265,55.091L36.265,61.441C36.265,62.812 36.188,64.12 36.033,65.365C38.979,66.816 41.285,69.397 42.361,72.605C43.846,77.033 42.738,81.919 39.49,85.274C38.011,86.803 35.419,90.418 34.355,92.44C31.699,97.487 25.96,100.099 20.412,98.781C16.924,97.955 13.656,96.898 10.631,95.706C8.427,99.261 4.49,101.628 0,101.628" style="fill:rgb(161,214,226);fill-rule:nonzero;"/>
    </g>
    <g transform="matrix(1,0,0,1,656.148,145.004)">
        <path d="M0,95.736C-0.779,95.736 -1.575,95.731 -2.389,95.722C-8.359,95.658 -13.451,91.379 -14.542,85.508C-14.827,83.976 -16.28,80.229 -17.57,78.042C-19.901,74.088 -19.877,69.173 -17.507,65.241C-15.137,61.309 -10.818,59.002 -6.216,59.208C-5.507,59.241 -4.599,59.276 -3.459,59.309L-3.459,37.45L-17.39,37.45C-24.293,37.45 -29.89,31.853 -29.89,24.95L-29.89,13.656C-29.89,6.753 -24.293,1.156 -17.39,1.156L34.686,1.156L35.824,0.881C39.45,0 43.28,0.79 46.267,3.029L55.364,9.852C58.208,11.985 60.01,15.228 60.317,18.77C60.625,22.311 59.41,25.816 56.978,28.408C49.916,35.929 41.661,43.102 33.619,48.762L33.619,70.518C33.619,81.965 28.969,89.533 19.797,93.01C13.644,95.405 6.647,95.736 0,95.736" style="fill:rgb(161,214,226);fill-rule:nonzero;"/>
    </g>
    <g transform="matrix(1,0,0,1,768.638,143.885)">
        <path d="M0,96.686C-4.903,96.686 -9.175,93.855 -11.219,89.705L-17.908,90.797C-18.106,90.83 -18.306,90.857 -18.504,90.879C-22.192,94.53 -27.87,95.582 -32.711,93.255L-40.867,89.333C-44.08,87.789 -46.48,84.945 -47.465,81.518L-47.5,81.392L-54.195,81.392C-61.099,81.392 -66.695,75.795 -66.695,68.892L-66.695,16.265C-66.695,9.362 -61.099,3.765 -54.195,3.765L-35.843,3.765C-33.573,1.443 -30.405,0 -26.901,0L14.901,0C21.805,0 27.401,5.597 27.401,12.5L27.401,22.226C27.401,25.092 26.437,27.734 24.813,29.843L24.813,33.912C24.813,34.429 24.782,34.94 24.721,35.442C24.782,35.943 24.813,36.454 24.813,36.971L24.813,39.041C25.226,39.37 25.617,39.725 25.988,40.107C28.343,42.532 29.614,45.807 29.514,49.185C29.5,49.647 29.431,51.931 29.347,53.3C28.506,74.339 27.522,82.302 23.404,87.904C23.337,87.996 23.268,88.086 23.198,88.176C19.908,92.404 15.698,94.958 10.33,95.981C7.438,96.565 4.104,96.686 0,96.686" style="fill:rgb(161,214,226);fill-rule:nonzero;"/>
    </g>
    <g transform="matrix(1,0,0,1,829.288,170.316)">
        <path d="M0,41.941C-0.034,42.135 -0.053,42.336 -0.053,42.539C-0.053,44.643 1.97,46.49 3.192,46.49C4.415,46.49 6.437,44.643 6.437,42.539C6.437,42.336 6.419,42.135 6.385,41.941L0,41.941ZM3.192,63.745C-9.007,63.745 -18.562,54.43 -18.562,42.539C-18.562,38.278 -17.384,34.39 -15.308,31.146C-15.326,31.014 -15.342,30.882 -15.356,30.75C-15.836,26.193 -15.084,22.32 -13.685,19.044C-14.898,18.5 -16.029,17.76 -17.027,16.843L-24.713,9.785C-29.588,5.308 -30.128,-2.194 -25.944,-7.323C-18.437,-16.526 -7.417,-21.804 4.29,-21.804C24.058,-21.804 37.339,-10.224 37.339,7.01C37.339,19.058 28.708,25.366 24.07,28.754C23.372,29.265 22.434,29.951 21.765,30.498C21.746,30.714 21.723,30.931 21.692,31.146C23.769,34.39 24.947,38.278 24.947,42.539C24.947,54.43 15.392,63.745 3.192,63.745" style="fill:rgb(161,214,226);fill-rule:nonzero;"/>
    </g>
    <g transform="matrix(1,0,0,1,39.946,18.397)">
        <path d="M0,92.618C-3.163,92.618 -6.111,90.943 -7.73,88.221C-9.051,89.909 -10.942,91.083 -13.071,91.505C-15.595,92.003 -18.215,91.399 -20.266,89.841L-30.069,82.389C-33.88,79.494 -34.757,74.121 -32.065,70.163C-29.423,66.278 -25.332,59.702 -21.336,52.337C-23.806,50.72 -27.448,48.71 -31.006,47.178C-33.489,46.108 -35.36,43.979 -36.102,41.379C-36.843,38.778 -36.375,35.982 -34.829,33.764L-28.868,25.216C-28.698,24.972 -28.519,24.74 -28.329,24.518C-29.71,23.346 -30.722,21.77 -31.199,19.981C-31.906,17.337 -31.371,14.514 -29.745,12.311L-23.549,3.919C-21.178,0.706 -16.972,-0.561 -13.221,0.81C-10.26,1.892 -5.257,4.028 -0.828,6.634C-0.315,4.777 0.784,3.121 2.322,1.925C4.211,0.456 6.608,-0.201 8.979,0.1L20.743,1.591C23.126,1.892 25.289,3.135 26.752,5.04C27.149,5.557 27.486,6.114 27.76,6.696L43.455,6.696C45.889,6.696 48.218,7.681 49.913,9.428C51.607,11.173 52.523,13.531 52.451,15.963C52.437,16.443 52.36,18.823 52.192,20.506C51.646,29.751 50.919,36.248 49.145,40.927C52.052,43.139 53.404,46.982 52.319,50.644C50.929,55.338 49.101,59.68 46.85,63.64C47.854,63.86 48.876,64.058 49.913,64.236C53.279,64.812 56.029,67.243 57.014,70.513C57.998,73.783 57.047,77.328 54.559,79.666C52.974,81.155 50.245,84.958 48.834,87.644C46.917,91.298 42.761,93.179 38.751,92.208C32.53,90.704 26.977,88.683 21.91,86.073C16.133,88.757 9.509,90.851 1.817,92.432C1.209,92.557 0.601,92.618 0,92.618" style="fill:white;fill-rule:nonzero;"/>
    </g>
    <g transform="matrix(1,0,0,1,97.276,16.762)">
        <path d="M0,94.253C-3.913,94.253 -7.468,91.69 -8.62,87.817C-9.007,86.517 -11.012,83.136 -12.455,81.59C-14.743,79.139 -15.479,75.618 -14.364,72.456C-13.329,69.521 -10.858,67.345 -7.854,66.668C-11.02,65.274 -13.229,62.109 -13.229,58.429L-13.229,47.762C-13.229,45.777 -12.587,43.943 -11.498,42.455C-11.906,41.428 -12.131,40.308 -12.131,39.135L-12.131,18.273C-12.131,13.302 -8.102,9.273 -3.131,9.273L14.641,9.273C15.753,6.96 17.801,5.231 20.271,4.523L32.036,1.15C36.043,0 40.315,1.756 42.359,5.389C43.025,6.572 43.696,7.896 44.335,9.273L65.025,9.273C69.996,9.273 74.025,13.302 74.025,18.273L74.025,39.135C74.025,40.203 73.839,41.23 73.497,42.18C74.712,43.714 75.437,45.653 75.437,47.762L75.437,58.429C75.437,59.981 75.044,61.44 74.353,62.715C76.263,64.571 77.32,67.245 77.04,70.064C75.901,81.521 72.513,93.232 56.006,93.232L47.3,93.232C34.997,93.232 29.624,88.097 27.345,81.908C22.419,87.614 14.451,91.735 1.643,94.103C1.092,94.204 0.542,94.253 0,94.253" style="fill:white;fill-rule:nonzero;"/>
    </g>
    <g transform="matrix(1,0,0,1,196.805,18.397)">
        <path d="M0,92.618C-3.163,92.618 -6.111,90.943 -7.73,88.221C-9.051,89.909 -10.942,91.083 -13.071,91.505C-15.596,92.003 -18.215,91.399 -20.266,89.841L-30.069,82.389C-33.88,79.494 -34.757,74.121 -32.065,70.163C-29.423,66.278 -25.332,59.702 -21.336,52.337C-23.806,50.72 -27.448,48.71 -31.006,47.178C-33.489,46.108 -35.36,43.979 -36.102,41.379C-36.843,38.778 -36.375,35.982 -34.829,33.764L-28.868,25.216C-28.698,24.972 -28.519,24.74 -28.329,24.518C-29.71,23.346 -30.722,21.77 -31.199,19.981C-31.906,17.337 -31.371,14.514 -29.745,12.311L-23.549,3.919C-21.178,0.706 -16.972,-0.561 -13.221,0.81C-10.26,1.892 -5.257,4.028 -0.828,6.634C-0.315,4.777 0.784,3.121 2.322,1.925C4.21,0.456 6.607,-0.201 8.979,0.1L20.743,1.591C23.126,1.892 25.289,3.135 26.752,5.04C27.149,5.557 27.486,6.114 27.76,6.696L43.455,6.696C45.889,6.696 48.218,7.681 49.913,9.428C51.607,11.173 52.523,13.531 52.451,15.963C52.437,16.443 52.36,18.823 52.192,20.506C51.646,29.751 50.919,36.248 49.145,40.927C52.052,43.139 53.404,46.982 52.319,50.644C50.929,55.338 49.101,59.68 46.85,63.64C47.854,63.86 48.876,64.058 49.913,64.236C53.279,64.812 56.029,67.243 57.014,70.513C57.998,73.783 57.047,77.328 54.559,79.666C52.974,81.155 50.245,84.958 48.834,87.644C46.917,91.298 42.765,93.179 38.751,92.208C32.53,90.704 26.977,88.683 21.91,86.073C16.133,88.757 9.509,90.851 1.817,92.432C1.209,92.557 0.601,92.618 0,92.618" style="fill:white;fill-rule:nonzero;"/>
    </g>
    <g transform="matrix(1,0,0,1,270.591,22.594)">
        <path d="M0,88.589C-0.768,88.589 -1.55,88.584 -2.351,88.575C-6.649,88.529 -10.315,85.448 -11.102,81.222C-11.491,79.122 -13.138,75.022 -14.555,72.617C-16.233,69.771 -16.216,66.232 -14.51,63.401C-12.803,60.569 -9.694,58.89 -6.38,59.057C-4.605,59.14 -2.458,59.2 0.041,59.237L0.041,32.754C0.041,31.913 0.158,31.09 0.381,30.303L-17.39,30.303C-22.36,30.303 -26.39,26.274 -26.39,21.303L-26.39,10.009C-26.39,5.038 -22.36,1.009 -17.39,1.009L35.104,1.009L36.648,0.635C39.256,0 42.017,0.568 44.167,2.182L53.265,9.005C55.312,10.541 56.608,12.876 56.83,15.426C57.052,17.976 56.178,20.499 54.426,22.365C47.082,30.188 38.428,37.617 30.119,43.283L30.119,66.871C30.119,70.545 30.12,81.712 18.543,86.096C12.924,88.286 6.312,88.589 0,88.589" style="fill:white;fill-rule:nonzero;"/>
    </g>
    <g transform="matrix(1,0,0,1,378.785,17.848)">
        <path d="M0,92.968C-2.153,92.968 -4.361,92.903 -6.044,92.847C-10.688,92.692 -14.446,89.028 -14.727,84.398C-15.841,84.892 -17.074,85.166 -18.371,85.166L-30.597,85.166C-31.945,88.435 -35.163,90.735 -38.919,90.735L-49.193,90.735C-54.164,90.735 -58.193,86.705 -58.193,81.735L-58.193,22.442C-58.193,17.471 -54.164,13.442 -49.193,13.442L-47.927,13.442C-47.732,11.872 -47.589,10.39 -47.511,9.108C-47.357,6.606 -46.168,4.281 -44.229,2.694C-42.29,1.107 -39.776,0.402 -37.294,0.742L-24.823,2.468C-22.153,2.837 -19.79,4.384 -18.382,6.682C-18.158,7.047 -17.962,7.426 -17.795,7.814C-17.786,7.78 -17.777,7.744 -17.769,7.71C-16.574,2.934 -11.758,0 -6.973,1.133L4.007,3.721C6.396,4.283 8.452,5.798 9.697,7.913C10.551,9.362 10.973,11.006 10.94,12.657L20.374,12.657C25.345,12.657 29.374,16.687 29.374,21.657C29.374,22.281 29.37,25.381 29.288,26.965C28.226,66.371 27.412,77.306 22.541,83.831C18.192,89.926 13.042,91.581 8.57,92.394C6.314,92.788 3.609,92.968 0,92.968" style="fill:white;fill-rule:nonzero;"/>
    </g>
    <g transform="matrix(1,0,0,1,450.488,5.021)">
        <path d="M0,107.429C-0.066,107.429 -0.132,107.428 -0.198,107.427C-2.834,107.368 -5.312,106.158 -6.977,104.115C-7.225,103.81 -7.578,103.431 -8.001,103.006C-9.318,105.176 -11.5,106.7 -14.016,107.177C-16.756,107.701 -19.588,106.917 -21.674,105.062C-23.458,103.476 -28.848,100.126 -31.129,99.187C-33.454,98.23 -35.273,96.342 -36.145,93.983C-37.016,91.623 -36.859,89.007 -35.714,86.768C-27.625,70.949 -27.625,44.624 -27.625,33.383L-27.625,13.152C-27.625,8.21 -23.642,4.194 -18.701,4.152C5.531,3.948 30.091,2.396 43.868,0.199C46.821,-0.272 49.824,0.757 51.868,2.948L59.716,11.362C61.144,12.893 61.968,14.843 62.111,16.863C64.198,18.511 65.537,21.064 65.537,23.929L65.537,44.917C65.537,47.052 64.794,49.014 63.552,50.557L63.552,85.194C63.552,89.094 63.552,99.443 52.545,103.99C46.894,106.389 40.549,106.389 32.523,106.389C28.14,106.389 24.394,103.231 23.653,98.91C23.493,97.979 23.161,96.783 22.732,95.53C19.241,96.166 15.992,96.75 13.127,97.266C12.64,97.353 12.154,97.4 11.674,97.408C10.226,99.997 8.572,102.337 6.72,104.416C5.01,106.335 2.563,107.429 0,107.429" style="fill:white;fill-rule:nonzero;"/>
    </g>
    <g transform="matrix(1,0,0,1,598.368,8.972)">
        <path d="M0,103.763C-2.718,103.763 -5.396,102.535 -7.162,100.221C-8.407,98.59 -10.923,95.946 -14.073,92.925C-18.999,96.835 -24.865,100.565 -29.98,102.93C-33.586,104.603 -37.866,103.703 -40.501,100.724C-41.816,99.237 -44.169,96.973 -46.385,95.032C-56.249,96.484 -67.953,98.216 -77.032,99.595C-81.867,100.326 -86.382,97.083 -87.242,92.284L-89.512,79.615C-89.95,77.162 -89.354,74.638 -87.863,72.643C-87.321,71.916 -86.679,71.284 -85.961,70.76C-87.091,69.255 -87.761,67.385 -87.761,65.359L-87.761,53.825C-87.761,51.531 -86.902,49.437 -85.489,47.848C-86.505,45.795 -87.676,43.645 -88.948,41.514C-90.521,38.878 -90.643,35.622 -89.27,32.876C-88.23,30.798 -87.16,28.485 -86.177,26.211C-87.575,24.625 -88.423,22.542 -88.423,20.262L-88.423,8.349C-88.423,3.378 -84.394,-0.651 -79.423,-0.651L-37.301,-0.651C-36.707,-0.775 -36.091,-0.84 -35.46,-0.84L8.029,-0.84C13,-0.84 17.029,3.19 17.029,8.16L17.029,19.6C17.029,21.787 16.248,23.794 14.95,25.354L14.95,75.002C14.95,76.175 14.726,77.296 14.317,78.324C15.51,79.501 16.585,80.638 17.467,81.685C19.102,83.627 19.841,86.17 19.501,88.687C19.161,91.203 17.773,93.459 15.681,94.898L5.092,102.178C3.537,103.247 1.761,103.763 0,103.763" style="fill:white;fill-rule:nonzero;"/>
    </g>
    <g transform="matrix(1,0,0,1,636.928,4.017)">
        <path d="M0,109.096C-2.447,109.096 -4.758,108.095 -6.427,106.391C-8.22,108.064 -10.64,108.931 -13.089,108.797C-15.754,108.642 -18.212,107.313 -19.801,105.168C-21.148,103.348 -25.502,99.13 -27.079,98.117C-29.303,96.687 -30.786,94.351 -31.134,91.73C-31.481,89.11 -30.659,86.468 -28.886,84.507C-28.289,83.848 -27.724,83.15 -27.189,82.41C-28.843,81.251 -30.076,79.556 -30.657,77.58L-34.438,64.722C-35.764,60.214 -33.398,55.446 -29.008,53.773C-28.605,53.619 -28.184,53.451 -27.742,53.272C-28.107,52.478 -28.359,51.625 -28.48,50.739C-28.979,47.115 -31.172,40.207 -33.582,34.672C-35.504,30.259 -33.614,25.116 -29.293,22.997L-19.771,18.329L-19.771,16.802C-19.771,11.831 -15.742,7.802 -10.771,7.802L10.832,7.802C12.089,5.72 14.146,4.222 16.542,3.677L29.021,0.84C32.731,0 36.568,1.576 38.61,4.785C39.238,5.773 39.811,6.798 40.323,7.802L64.012,7.802C68.982,7.802 73.012,11.831 73.012,16.802L73.012,28.242C73.012,32.169 70.496,35.509 66.988,36.739C66.99,36.741 66.992,36.742 66.993,36.743C68.896,38.603 69.879,41.209 69.678,43.862C69.476,46.515 68.11,48.943 65.948,50.493L65.033,51.151C65.039,51.224 65.045,51.298 65.051,51.372L65.083,51.866C65.257,54.481 65.521,58.434 65.824,60.484C66.182,62.888 65.548,65.253 64.189,67.115C64.501,68.95 64.247,70.9 63.339,72.688C62.396,74.543 61.355,76.333 60.218,78.053C62.358,78.292 64.598,78.486 66.943,78.633C70.385,78.851 73.399,81.016 74.706,84.207C76.012,87.399 75.379,91.056 73.077,93.624C71.46,95.427 68.841,99.748 67.688,102.516C66.145,106.221 62.332,108.453 58.346,107.995C47.908,106.788 38.455,104.562 30.182,101.367C21.965,104.761 12.498,107.264 1.386,108.989C0.922,109.061 0.459,109.096 0,109.096" style="fill:white;fill-rule:nonzero;"/>
    </g>
    <g transform="matrix(1,0,0,1,748.108,2.875)">
        <path d="M0,109.481L-12.574,109.481C-16.271,109.481 -19.446,107.252 -20.832,104.066C-21.521,104.906 -22.234,105.713 -22.971,106.489C-24.82,108.437 -27.449,109.454 -30.124,109.27C-32.804,109.083 -35.26,107.709 -36.821,105.522C-38.175,103.626 -42.442,99.555 -43.812,98.719C-46.109,97.315 -47.669,94.951 -48.043,92.284C-48.418,89.618 -47.589,86.918 -45.767,84.935C-45.176,84.293 -44.616,83.614 -44.088,82.896C-45.613,81.745 -46.751,80.124 -47.303,78.25L-51.084,65.391C-52.401,60.911 -50.072,56.167 -45.722,54.468C-45.337,54.318 -44.934,54.156 -44.513,53.982C-44.888,53.201 -45.152,52.361 -45.29,51.484C-45.88,47.723 -48.076,40.934 -50.512,35.341C-52.418,30.965 -50.577,25.864 -46.316,23.713L-36.701,18.86L-36.701,18.417C-36.701,13.446 -32.672,9.417 -27.701,9.417L-8.149,9.417C-7.04,6.884 -4.823,4.995 -2.132,4.307L11.199,0.904C14.741,0 18.481,1.329 20.658,4.268C21.844,5.869 22.989,7.633 24.013,9.417L47.461,9.417C52.432,9.417 56.461,13.446 56.461,18.417L56.461,30.14C56.461,33.402 54.726,36.258 52.128,37.837C52.201,38.385 52.225,38.944 52.194,39.505C52.096,41.362 51.426,43.121 50.308,44.557C51.892,46.179 52.868,48.399 52.868,50.845L52.868,89.513C52.868,95.46 51.777,102.803 43.269,106.822C38.377,109.2 33.021,109.386 26,109.386C24.354,109.386 22.798,108.941 21.458,108.157L9.36,108.157C8.077,108.157 6.856,107.888 5.751,107.404C4.191,108.701 2.188,109.481 0,109.481" style="fill:white;fill-rule:nonzero;"/>
    </g>
    <g transform="matrix(1,0,0,1,122.614,143.835)">
        <path d="M0,93.314C-4.479,93.314 -8.276,90.021 -8.909,85.587C-9.018,84.833 -9.251,83.854 -9.559,82.807C-9.727,82.762 -9.894,82.712 -10.059,82.657L-10.059,84.157C-10.059,89.127 -14.088,93.157 -19.059,93.157L-29.882,93.157C-34.853,93.157 -38.882,89.127 -38.882,84.157L-38.882,57.887C-40.38,56.839 -41.55,55.342 -42.19,53.567C-43.014,51.287 -45.78,45.594 -47.175,43.503C-49.543,39.95 -49.088,35.222 -46.087,32.185C-40.196,26.224 -34.479,16.606 -31.167,7.084C-29.568,2.491 -24.612,0 -19.972,1.454L-12.03,3.947C-9.91,1.591 -6.615,0.429 -3.311,1.193L7.905,3.781C10.305,4.335 12.373,5.847 13.628,7.967C14.745,9.856 15.129,12.079 14.727,14.217L25.931,14.217L26.856,14.048C27.902,13.859 28.974,13.854 30.02,14.038L38.098,15.45C42.836,16.278 46.085,20.685 45.476,25.457C44.522,32.911 42.987,40.945 41.962,45.561C41.579,47.283 40.725,48.783 39.563,49.952C41.872,56.347 43.699,63.174 44.513,68.738C45.137,73.002 42.648,77.111 38.58,78.535L27.6,82.377C26.216,82.862 24.756,82.994 23.339,82.79C22.107,85.389 20.107,87.906 16.86,89.806C11.477,92.902 5.32,93.314 0,93.314" style="fill:white;fill-rule:nonzero;"/>
    </g>
    <g transform="matrix(1,0,0,1,167.24,143.794)">
        <path d="M0,92.649C-4.597,92.649 -8.454,89.185 -8.948,84.616C-9.138,82.86 -10.23,79.264 -11.197,77.216C-12.533,74.386 -12.303,71.066 -10.59,68.448C-9.927,67.433 -9.077,66.581 -8.104,65.922C-9.198,64.826 -10.022,63.433 -10.438,61.828L-13.262,50.926C-13.886,48.514 -13.483,45.953 -12.149,43.849C-11.5,42.825 -10.657,41.955 -9.682,41.277C-11.435,39.635 -12.529,37.299 -12.529,34.709L-12.529,24.199C-12.529,19.248 -8.531,15.23 -3.588,15.199L-3.588,9.768C-3.588,4.797 0.441,0.768 5.412,0.768L16.549,0.768C20.355,0.768 23.609,3.13 24.925,6.469C25.352,5.545 25.936,4.691 26.66,3.949C28.354,2.216 30.675,1.239 33.098,1.239L44.783,1.239C46.587,1.239 48.268,1.77 49.676,2.683L50.207,2.343C53.868,0 58.679,0.609 61.643,3.789C62.477,4.684 63.424,5.681 64.41,6.72C67.443,9.915 70.58,13.217 72.613,15.776C73.367,16.725 73.914,17.805 74.233,18.948C76.016,20.4 77.244,22.531 77.5,24.996L78.599,35.584C78.846,37.963 78.135,40.343 76.623,42.199C76.305,42.588 75.957,42.949 75.583,43.277C75.628,44.619 75.372,45.988 74.786,47.283C73.672,49.744 72.397,52.205 70.977,54.641C72.234,55.485 73.582,56.3 74.532,56.775C78.004,58.51 79.973,62.276 79.416,66.117C76.874,83.644 70.185,92.532 59.531,92.534L59.53,92.534C58.972,92.534 58.401,92.504 57.835,92.447L57.703,92.432C51.639,91.726 46.293,89.371 41.896,85.513C39.306,87.187 36.73,88.644 34.188,89.872C30.269,91.762 25.565,90.583 23.005,87.073C22.66,86.601 22.242,86.091 21.773,85.565C20.618,87.007 19.109,88.34 17.14,89.442C11.976,92.401 5.842,92.649 0,92.649" style="fill:white;fill-rule:nonzero;"/>
    </g>
    <g transform="matrix(1,0,0,1,294.61,145.189)">
        <path d="M0,90.94C-4.429,90.94 -8.199,87.718 -8.89,83.344C-8.928,83.107 -8.987,82.823 -9.066,82.503C-21.791,84.893 -35.151,87.226 -47.723,89.397C-52.423,90.206 -56.937,87.214 -58.019,82.571L-60.45,72.14C-61.032,69.647 -60.523,67.024 -59.053,64.927C-58.493,64.13 -57.814,63.437 -57.048,62.869C-57.718,61.61 -58.098,60.172 -58.098,58.646L-58.098,48.842C-58.098,46.419 -57.14,44.218 -55.581,42.6C-56.296,40.508 -57.246,37.894 -57.986,36.069C-58.932,33.738 -58.858,31.118 -57.785,28.843C-57.712,28.689 -57.635,28.537 -57.554,28.387C-58.966,26.797 -59.823,24.705 -59.823,22.412L-59.823,12.686C-59.823,7.715 -55.794,3.686 -50.823,3.686L-9.49,3.686C-6.686,3.686 -4.181,4.969 -2.53,6.98L-1.243,6.98C-0.326,2.982 3.253,0 7.529,0L18.666,0C23.637,0 27.666,4.029 27.666,9L27.666,69.627C27.666,73.631 27.666,83.008 18.529,87.795C13.413,90.412 7.432,90.94 0,90.94" style="fill:white;fill-rule:nonzero;"/>
    </g>
    <g transform="matrix(1,0,0,1,352.178,144.483)">
        <path d="M0,93.372C-2.306,93.372 -4.54,92.486 -6.226,90.871C-7.27,89.872 -10.541,87.602 -12.361,86.582C-12.529,86.859 -12.697,87.136 -12.865,87.411C-14.21,89.616 -16.437,91.137 -18.98,91.587C-21.527,92.038 -24.138,91.373 -26.157,89.764L-35.804,82.078C-39.551,79.093 -40.302,73.695 -37.513,69.8C-34.936,66.2 -31.064,60.286 -27.209,53.578C-29.752,52.098 -33.177,50.221 -37.204,48.105C-39.515,46.893 -41.184,44.736 -41.781,42.196C-42.378,39.657 -41.843,36.983 -40.315,34.868L-34.197,26.397C-33.985,26.103 -33.757,25.825 -33.517,25.563C-35.403,24.165 -36.676,22.078 -37.046,19.742C-37.449,17.194 -36.74,14.596 -35.098,12.605L-28.432,4.527C-25.652,1.161 -20.856,0.274 -17.058,2.423C-16.031,3.004 -14.843,3.663 -13.588,4.359C-12.321,5.062 -11.001,5.795 -9.697,6.529L-1.735,3.034C0.314,2.133 2.55,2.055 4.567,2.685C6.2,1.028 8.471,0 10.98,0L22.51,0C24.645,0 26.605,0.743 28.147,1.984C29.899,1.492 31.775,1.537 33.523,2.14L44.66,5.982C47.026,6.799 48.945,8.563 49.957,10.853C50.969,13.143 50.98,15.75 49.991,18.05C48.786,20.847 47.573,23.506 46.395,25.936C47.299,27.34 47.823,29.011 47.823,30.804L47.823,71.901C47.823,75.465 47.823,84.932 38.765,89.678C33.617,92.374 27.926,92.588 21.02,92.588C16.492,92.588 12.669,89.225 12.093,84.733C11.965,83.738 11.61,82.309 11.16,80.864C10.254,84.02 9.103,86.726 7.689,89.048C6.272,91.379 3.874,92.941 1.169,93.296C0.778,93.347 0.388,93.372 0,93.372" style="fill:white;fill-rule:nonzero;"/>
    </g>
    <g transform="matrix(1,0,0,1,438.842,142.351)">
        <path d="M0,94.485C-3.229,94.485 -6.108,92.772 -7.699,90.148C-10.426,90.703 -13.367,89.983 -15.571,87.963C-16.322,87.274 -17.728,86.18 -19.157,85.144L-19.157,85.485C-19.157,90.456 -23.187,94.485 -28.157,94.485L-38.039,94.485C-43.01,94.485 -47.039,90.456 -47.039,85.485L-47.039,14.27C-47.039,9.299 -43.01,5.27 -38.039,5.27L-22.264,5.27L-21.9,5.174C-19.698,4.595 -17.356,4.871 -15.351,5.948L-7.9,9.948C-6.802,10.538 -5.867,11.33 -5.125,12.259C-3.285,10.168 -1.738,7.987 -0.565,5.793C1.581,1.777 6.391,0 10.631,1.645L20.121,5.332C22.563,6.281 24.472,8.247 25.346,10.717C25.802,12.004 25.953,13.36 25.811,14.686C31.22,19.242 35.664,21.455 38.761,22.782C41.622,24.008 43.646,26.627 44.113,29.705C44.58,32.782 43.424,35.882 41.055,37.902C39.878,38.906 38.528,40.368 37.463,41.737C39.967,43.336 41.627,46.138 41.627,49.329L41.627,59.603C41.627,61.734 40.887,63.692 39.648,65.234C41.149,67.629 42.444,69.954 43.382,71.978C45.366,76.263 43.701,81.352 39.568,83.636L30.627,88.578C28.367,89.828 25.68,90.046 23.249,89.177C22.377,88.866 21.567,88.425 20.844,87.879C19.691,89.216 18.218,90.454 16.336,91.488C11.197,94.256 5.451,94.485 0,94.485" style="fill:white;fill-rule:nonzero;"/>
    </g>
    <g transform="matrix(1,0,0,1,526.918,144.562)">
        <path d="M0,92.352C-4.069,92.352 -7.583,89.632 -8.662,85.797C-22.716,87.348 -38.146,88.834 -47.372,89.723C-52.182,90.172 -56.505,86.763 -57.153,81.971L-58.565,71.54C-58.898,69.079 -58.199,66.589 -56.634,64.661C-56.143,64.054 -55.578,63.521 -54.96,63.069L-54.96,56.773C-55.611,55.528 -55.979,54.111 -55.979,52.608L-55.979,43.431C-55.979,42.649 -55.88,41.891 -55.692,41.167C-57.231,39.553 -58.176,37.367 -58.176,34.96L-58.176,25.706C-58.176,24.103 -57.757,22.599 -57.023,21.295C-58.169,19.543 -58.676,17.43 -58.428,15.321C-58.123,12.735 -56.714,10.407 -54.563,8.939L-47.896,4.39C-47.42,4.065 -46.922,3.791 -46.409,3.568C-44.763,1.445 -42.188,0.079 -39.293,0.079L-30.509,0.079C-30.137,0.079 -29.771,0.101 -29.411,0.145C-29.052,0.101 -28.686,0.079 -28.313,0.079L-19.372,0.079C-15.949,0.079 -12.974,1.989 -11.451,4.801L-3.431,9.312C-3.016,9.546 -2.623,9.81 -2.255,10.101L-2.255,9C-2.255,4.03 1.774,0 6.745,0L17.726,0C22.696,0 26.726,4.03 26.726,9L26.726,20.103C29.741,21.557 31.823,24.643 31.823,28.215L31.823,38.804C31.823,42.376 29.741,45.462 26.726,46.916L26.726,71.039C26.726,74.946 26.726,84.095 17.971,89.005C13.159,91.775 7.296,92.352 0,92.352" style="fill:white;fill-rule:nonzero;"/>
    </g>
    <g transform="matrix(1,0,0,1,599.618,142.819)">
        <path d="M0,94.252L-12.313,94.252C-16.561,94.252 -20.121,91.31 -21.067,87.353C-25.302,89.307 -29.807,90.901 -34.488,92.092C-38.519,93.115 -42.724,91.247 -44.664,87.57C-45.76,85.494 -48.467,81.826 -50.128,80.165C-52.504,77.789 -53.358,74.287 -52.344,71.083C-51.411,68.14 -49.044,65.899 -46.098,65.108L-46.098,50.262C-48.9,48.736 -50.803,45.766 -50.803,42.351L-50.803,32.625C-50.803,32.509 -50.801,32.394 -50.796,32.279C-52.395,30.618 -53.304,28.398 -53.313,26.072C-53.322,23.469 -52.205,20.988 -50.248,19.272C-46.754,16.207 -43.345,11.27 -41.562,6.692C-39.863,2.329 -35.101,0 -30.614,1.331L-20.575,4.312C-19.374,4.668 -18.275,5.267 -17.338,6.057L-8.737,6.057C-6.902,2.233 -2.588,0.16 1.617,1.243L11.97,3.909C13.448,4.29 14.788,5.035 15.878,6.057L29.255,6.057C34.226,6.057 38.255,10.086 38.255,15.057L38.255,23.527C38.255,25.856 37.371,27.977 35.921,29.574C36.264,30.527 36.451,31.554 36.451,32.625L36.451,42.351C36.451,45.334 35,47.978 32.765,49.615L32.765,57.565C32.765,58.849 32.765,61.218 32.074,63.84C35.316,64.412 37.993,66.711 39.043,69.842C40.112,73.029 39.314,76.548 36.976,78.964C35.292,80.703 32.46,84.65 31.259,86.934C29.347,90.568 25.216,92.448 21.219,91.5C16.66,90.42 12.495,88.924 8.777,87.252C7.867,91.26 4.283,94.252 0,94.252" style="fill:white;fill-rule:nonzero;"/>
    </g>
    <g transform="matrix(1,0,0,1,656.148,148.652)">
        <path d="M0,88.588C-0.768,88.588 -1.55,88.583 -2.351,88.574C-6.649,88.528 -10.315,85.447 -11.102,81.221C-11.491,79.121 -13.138,75.021 -14.555,72.616C-16.233,69.77 -16.216,66.231 -14.51,63.4C-12.803,60.568 -9.681,58.897 -6.38,59.056C-4.605,59.139 -2.458,59.199 0.041,59.236L0.041,32.753C0.041,31.912 0.158,31.089 0.381,30.302L-17.39,30.302C-22.36,30.302 -26.39,26.273 -26.39,21.302L-26.39,10.008C-26.39,5.037 -22.36,1.008 -17.39,1.008L35.104,1.008L36.648,0.634C39.258,0 42.017,0.568 44.167,2.181L53.265,9.004C55.312,10.54 56.608,12.875 56.83,15.425C57.052,17.975 56.178,20.498 54.426,22.364C47.082,30.187 38.428,37.616 30.119,43.282L30.119,66.87C30.119,70.544 30.12,81.711 18.543,86.095C12.924,88.285 6.312,88.588 0,88.588" style="fill:white;fill-rule:nonzero;"/>
    </g>
    <g transform="matrix(1,0,0,1,768.638,147.385)">
        <path d="M0,89.686C-4.48,89.686 -8.227,86.404 -8.895,82.064C-9.494,82.303 -10.127,82.48 -10.785,82.588L-18.472,83.843C-19.029,83.933 -19.595,83.975 -20.146,83.957C-22.714,87.323 -27.322,88.459 -31.194,86.601L-39.351,82.679C-41.664,81.567 -43.393,79.519 -44.101,77.052C-44.352,76.178 -44.466,75.282 -44.448,74.392L-54.195,74.392C-59.166,74.392 -63.195,70.363 -63.195,65.392L-63.195,12.765C-63.195,7.794 -59.166,3.765 -54.195,3.765L-34.223,3.765C-32.59,1.486 -29.919,0 -26.901,0L14.901,0C19.872,0 23.901,4.03 23.901,9L23.901,18.726C23.901,21.187 22.914,23.416 21.313,25.041L21.313,30.412C21.313,30.933 21.27,31.444 21.184,31.942C21.27,32.439 21.313,32.95 21.313,33.471L21.313,37.405C22.106,37.834 22.837,38.385 23.478,39.045C25.172,40.79 26.088,43.149 26.016,45.581C26.007,45.861 25.934,48.287 25.851,49.623C24.993,71.077 23.907,77.81 20.584,82.331C20.535,82.397 20.486,82.462 20.436,82.527C16.788,87.214 12.554,88.499 9.652,89.047C7.043,89.577 3.902,89.686 0,89.686" style="fill:white;fill-rule:nonzero;"/>
    </g>
    <g transform="matrix(1,0,0,1,832.478,152.012)">
        <path d="M0,78.549C-10.407,78.549 -18.255,70.937 -18.255,60.843C-18.255,56.801 -16.974,53.16 -14.761,50.257C-14.907,49.752 -15.011,49.228 -15.067,48.688C-15.674,42.928 -13.982,38.437 -11.547,34.939C-13.881,34.997 -16.134,34.148 -17.853,32.57L-25.538,25.512C-29.048,22.288 -29.437,16.887 -26.424,13.195C-19.585,4.809 -9.554,0 1.098,0C19.048,0 30.646,9.937 30.646,25.315C30.646,35.585 23.239,40.998 18.813,44.233C17.544,45.16 15.67,46.529 15.105,47.279C15.153,48.288 15.031,49.291 14.753,50.246C16.971,53.152 18.255,56.796 18.255,60.843C18.255,70.937 10.407,78.549 0,78.549" style="fill:white;fill-rule:nonzero;"/>
    </g>
    <g transform="matrix(1,0,0,1,55.323,55.426)">
        <path d="M0,18.588C1.726,21.02 4,23.294 6.588,25.333C8.862,23.372 10.901,21.098 12.47,18.588L0,18.588ZM28.313,11.059C25.804,19.529 21.882,26.117 16.784,31.294C21.568,33.411 27.059,35.059 33.019,36.078C30.431,38.51 27.137,43.294 25.489,46.431C18.353,44.705 12.156,42.195 6.745,38.823C0.392,42.431 -6.98,44.862 -15.372,46.588C-16.471,43.529 -18.98,38.744 -21.02,36.234C-14.196,35.215 -8.157,33.568 -2.902,31.215C-5.961,28.235 -8.549,24.862 -10.902,21.098L-3.687,18.588L-14.902,18.588L-14.902,8.471L-11.607,8.471C-13.804,6.51 -18.432,3.216 -21.02,1.726C-13.177,-4.391 -9.098,-15.294 -7.529,-28L4.235,-26.51C4,-24.784 3.687,-23.058 3.294,-21.333L28.078,-21.333C28.078,-21.333 27.999,-18.666 27.843,-17.255C27.137,-5.177 26.117,0.706 23.999,3.138C22.039,5.333 19.843,6.117 17.02,6.432C14.666,6.745 10.823,6.823 6.666,6.745C6.431,3.529 5.098,-0.862 3.294,-3.686C6.588,-3.372 9.882,-3.294 11.529,-3.294C12.705,-3.294 13.49,-3.451 14.353,-4.078C15.137,-4.862 15.686,-6.901 16.078,-11.058L0.627,-11.058C-2.039,-3.058 -5.804,3.608 -10.745,8.471L18.666,8.471L20.705,8.078L28.313,11.059ZM-23.372,-10.588C-26.353,-13.411 -32.862,-17.176 -37.882,-19.372L-31.686,-27.765C-26.745,-25.96 -20,-22.666 -16.706,-19.843L-23.372,-10.588ZM-17.177,21.176C-21.098,29.411 -25.646,37.882 -30.196,45.647L-40,38.195C-36,32.314 -30.353,22.901 -25.726,13.726L-17.177,21.176ZM-28.156,10.51C-31.137,7.765 -37.726,4.078 -42.823,1.883L-36.862,-6.666C-31.843,-4.862 -25.098,-1.568 -21.726,1.098L-28.156,10.51Z" style="fill:rgb(21,110,135);fill-rule:nonzero;"/>
    </g>
    <g transform="matrix(1,0,0,1,-555.052,-7254.19)">
        <path d="M663.158,7304.36L702.764,7304.36L702.764,7314.8L663.158,7314.8L663.158,7304.36ZM660.569,7310.09L649.197,7310.09L649.197,7289.23L677.118,7289.23C676.491,7287.42 675.785,7285.7 675.079,7284.13L686.844,7280.76C688.256,7283.27 689.667,7286.48 690.608,7289.23L717.354,7289.23L717.354,7310.09L705.432,7310.09L705.432,7300.13L660.569,7300.13L660.569,7310.09ZM707.235,7344.83C709.432,7344.83 709.824,7343.58 710.216,7335.82C712.49,7337.62 717.354,7339.42 720.412,7340.13C719.235,7351.97 716.333,7355.19 708.334,7355.19L699.628,7355.19C689.432,7355.19 687.079,7351.82 687.079,7342.01L687.079,7329.38L678.217,7329.38C677.354,7343.89 673.981,7352.21 652.335,7356.21C651.472,7353.31 648.648,7348.76 646.452,7346.4C664.021,7343.89 665.981,7339.34 666.53,7329.38L648.1,7329.38L648.1,7318.72L718.765,7318.72L718.765,7329.38L698.687,7329.38L698.687,7341.93C698.687,7344.6 699,7344.83 701.432,7344.83L707.235,7344.83Z" style="fill:rgb(21,110,135);fill-rule:nonzero;"/>
    </g>
    <g transform="matrix(1,0,0,1,212.182,55.426)">
        <path d="M0,18.588C1.726,21.02 4,23.294 6.588,25.333C8.862,23.372 10.901,21.098 12.47,18.588L0,18.588ZM28.313,11.059C25.804,19.529 21.882,26.117 16.784,31.294C21.568,33.411 27.059,35.059 33.019,36.078C30.431,38.51 27.137,43.294 25.489,46.431C18.353,44.705 12.156,42.195 6.745,38.823C0.392,42.431 -6.98,44.862 -15.372,46.588C-16.471,43.529 -18.98,38.744 -21.02,36.234C-14.196,35.215 -8.157,33.568 -2.902,31.215C-5.961,28.235 -8.549,24.862 -10.902,21.098L-3.687,18.588L-14.902,18.588L-14.902,8.471L-11.607,8.471C-13.804,6.51 -18.432,3.216 -21.02,1.726C-13.177,-4.391 -9.098,-15.294 -7.529,-28L4.235,-26.51C4,-24.784 3.687,-23.058 3.294,-21.333L28.078,-21.333C28.078,-21.333 27.999,-18.666 27.843,-17.255C27.137,-5.177 26.117,0.706 23.999,3.138C22.039,5.333 19.843,6.117 17.02,6.432C14.666,6.745 10.823,6.823 6.666,6.745C6.431,3.529 5.098,-0.862 3.294,-3.686C6.588,-3.372 9.882,-3.294 11.529,-3.294C12.705,-3.294 13.49,-3.451 14.353,-4.078C15.137,-4.862 15.686,-6.901 16.078,-11.058L0.627,-11.058C-2.039,-3.058 -5.804,3.608 -10.745,8.471L18.666,8.471L20.705,8.078L28.313,11.059ZM-23.372,-10.588C-26.353,-13.411 -32.862,-17.176 -37.882,-19.372L-31.686,-27.765C-26.745,-25.96 -20,-22.666 -16.706,-19.843L-23.372,-10.588ZM-17.177,21.176C-21.098,29.411 -25.646,37.882 -30.196,45.647L-40,38.195C-36,32.314 -30.353,22.901 -25.726,13.726L-17.177,21.176ZM-28.156,10.51C-31.137,7.765 -37.726,4.078 -42.823,1.883L-36.862,-6.666C-31.843,-4.862 -25.098,-1.568 -21.726,1.098L-28.156,10.51Z" style="fill:rgb(21,110,135);fill-rule:nonzero;"/>
    </g>
    <g transform="matrix(1,0,0,1,318.455,95.426)">
        <path d="M0,-56.627C-7.216,-48.941 -16.941,-40.471 -26.745,-34.432L-26.745,-5.961C-26.745,0.156 -28.156,3.215 -32.549,4.862C-36.94,6.588 -42.823,6.823 -50.117,6.744C-50.744,3.372 -52.862,-1.726 -54.666,-4.785C-49.646,-4.55 -42.98,-4.55 -41.176,-4.55C-39.45,-4.55 -38.823,-4.941 -38.823,-6.275L-38.823,-40.078C-33.411,-43.059 -27.607,-47.294 -22.902,-51.529L-65.254,-51.529L-65.254,-62.823L-11.687,-62.823L-9.098,-63.45L0,-56.627Z" style="fill:rgb(21,110,135);fill-rule:nonzero;"/>
    </g>
    <g transform="matrix(1,0,0,1,376.022,47.74)">
        <path d="M0,33.961C-2.04,29.177 -6.745,21.49 -10.274,15.687L-1.334,10.667C2.195,16 7.294,23.451 9.646,28.078L0,33.961ZM-25.882,22.823L-36.156,22.823L-36.156,36.313L-25.882,36.313L-25.882,22.823ZM-25.882,2.432L-36.156,2.432L-36.156,13.02L-25.882,13.02L-25.882,2.432ZM23.137,-8.234C23.137,-8.234 23.137,-4.627 23.058,-3.294C22.117,31.607 21.333,44.314 18.038,48.627C15.607,52.078 13.176,53.02 9.725,53.647C6.588,54.195 1.726,54.117 -2.98,53.96C-3.138,50.901 -4.706,46.039 -6.745,42.901C-1.726,43.372 2.979,43.372 5.098,43.372C6.666,43.372 7.529,43.059 8.549,41.961C10.823,39.529 11.765,28 12.392,2.118L-2.51,2.118C-4.628,6.589 -6.902,10.589 -9.177,13.804C-10.589,12.549 -13.255,10.51 -15.608,8.941L-15.608,46.274L-36.156,46.274L-36.156,51.843L-46.431,51.843L-46.431,-7.45L-37.49,-7.45C-36.706,-11.45 -36,-16.392 -35.765,-20.234L-23.294,-18.509C-24.628,-14.666 -25.961,-10.744 -27.216,-7.45L-15.608,-7.45L-15.608,2.981C-11.687,-3.372 -8.313,-11.843 -6.274,-19.999L4.705,-17.411C3.843,-14.352 2.823,-11.294 1.726,-8.234L23.137,-8.234Z" style="fill:rgb(21,110,135);fill-rule:nonzero;"/>
    </g>
    <g transform="matrix(1,0,0,1,491.428,40.957)">
        <path d="M0,35.643L0,25.243L-22.69,25.243C-15.032,25.999 -5.861,27.89 -0.567,29.97L-3.403,36.209L0,35.643ZM-30.727,26.661C-30.727,30.821 -31.011,35.737 -31.767,40.654C-26.188,39.897 -19.382,38.762 -12.007,37.628C-17.774,36.021 -24.771,34.508 -30.538,33.941L-26.283,25.243L-30.727,25.243L-30.727,26.661ZM1.985,-2.931L-45.948,-2.931L-45.948,-0.095L1.985,-0.095L1.985,-2.931ZM13.614,49.257C13.614,55.119 12.291,58.049 8.131,59.751C4.16,61.453 -1.323,61.453 -8.414,61.453C-8.981,58.144 -10.684,53.606 -12.291,50.581C-8.604,50.864 -3.215,50.864 -1.985,50.77C-0.567,50.77 0,50.391 0,49.163L0,46.988C-10.494,49.068 -20.988,50.958 -29.403,52.471L-32.334,43.584C-33.752,50.486 -36.305,57.293 -40.938,62.493C-43.018,59.94 -48.784,54.929 -51.621,53.323C-44.719,45.475 -44.151,34.508 -44.151,26.377L-44.151,14.086L13.614,14.086L13.614,49.257ZM15.6,-12.007L15.6,8.981L-46.138,8.981C-46.799,26.094 -49.257,47.838 -56.632,62.399C-59.185,60.129 -65.424,56.253 -68.639,54.929C-60.13,38.289 -59.563,13.425 -59.563,-2.553L-59.563,-22.785C-37.062,-22.974 -11.062,-24.392 4.349,-26.85L12.196,-18.436C-4.16,-15.695 -25.905,-14.371 -45.948,-13.993L-45.948,-12.007L15.6,-12.007Z" style="fill:rgb(237,89,104);fill-rule:nonzero;"/>
    </g>
    <g transform="matrix(1,0,0,1,595.238,36.892)">
        <path d="M0,47.082C4.443,50.675 10.683,55.969 13.708,59.561L3.119,66.842C0.378,63.249 -5.578,57.576 -10.022,53.605L0,47.082ZM-3.215,33.09L-18.815,33.09L-18.815,37.061L-3.215,37.061L-3.215,33.09ZM-3.215,19.759L-18.815,19.759L-18.815,23.73L-3.215,23.73L-3.215,19.759ZM-3.215,6.429L-18.815,6.429L-18.815,10.4L-3.215,10.4L-3.215,6.429ZM-43.018,25.054C-44.625,20.61 -48.028,14.465 -51.999,8.792C-49.258,3.686 -46.516,-2.175 -45.003,-6.335L-34.887,-4.35C-36.967,0.283 -39.236,4.727 -41.316,8.603C-38.196,12.952 -35.171,17.773 -33.563,21.177L-43.018,25.054ZM-48.501,-4.16C-50.581,0.378 -52.756,4.821 -54.836,8.697C-51.811,12.952 -49.068,17.773 -47.65,21.177L-57.199,24.77C-58.617,20.421 -61.643,14.465 -65.235,8.792C-62.588,3.781 -59.941,-2.081 -58.522,-6.146L-48.501,-4.16ZM-34.131,-7.658L-76.297,-7.658L-76.297,-19.571L-34.131,-19.571L-34.131,-7.658ZM9.076,47.082L-21.272,47.082L-11.535,53.511C-16.262,58.333 -24.298,63.911 -30.633,66.842C-32.807,64.384 -36.777,60.696 -39.709,58.333C-38.857,57.954 -37.912,57.576 -37.062,57.103C-50.581,59.089 -64.668,61.169 -75.257,62.776L-77.526,50.107C-73.271,49.635 -68.166,49.067 -62.588,48.405L-62.588,37.438L-75.635,37.438L-75.635,25.904L-35.171,25.904L-35.171,37.438L-49.446,37.438L-49.446,46.799C-44.152,46.137 -38.764,45.38 -33.469,44.719L-32.996,54.74C-29.215,52.376 -25.622,49.54 -23.164,47.082L-30.538,47.082L-30.538,-3.593L-18.059,-3.593C-17.869,-5.2 -17.68,-6.808 -17.491,-8.32L-32.334,-8.32L-32.334,-19.76L11.155,-19.76L11.155,-8.32L-3.877,-8.32C-4.35,-6.713 -4.822,-5.106 -5.295,-3.593L9.076,-3.593L9.076,47.082ZM-70.436,25.432C-71.759,20.894 -74.596,14.843 -78.094,8.981C-75.541,3.876 -72.988,-2.175 -71.57,-6.335L-61.737,-4.35C-63.723,0.283 -65.803,4.916 -67.883,8.887C-64.952,13.33 -62.305,18.436 -60.98,21.934L-70.436,25.432Z" style="fill:rgb(237,89,104);fill-rule:nonzero;"/>
    </g>
    <g transform="matrix(1,0,0,1,660.468,38.687)">
        <path d="M0,40.371C1.891,41.789 4.065,43.018 6.334,44.247C8.792,42.829 10.967,41.222 12.857,39.519L0.851,39.519L0,40.371ZM-21.557,-6.428L-21.557,13.142C-21.557,15.978 -21.65,19.099 -21.84,22.313C-14.087,20.233 -10.968,17.302 -9.549,13.426C-14.276,13.993 -16.072,14.466 -17.68,15.033C-18.247,12.67 -20.044,7.28 -21.272,4.255C-19.477,3.877 -17.68,3.026 -15.6,1.797C-13.709,0.851 -8.415,-2.362 -3.971,-6.428L-21.557,-6.428ZM31.767,33.942C28.646,40.087 24.392,45.098 19.192,49.163C25.999,51.148 33.847,52.378 42.828,52.945C40.37,55.686 37.25,60.981 35.832,64.385C24.392,63.061 14.654,60.509 6.523,56.916C-2.364,61.076 -12.574,63.723 -23.542,65.425C-24.676,62.305 -27.04,57.578 -29.214,54.931C-31.011,58.712 -33.279,62.116 -36.116,65.142C-38.007,62.589 -43.112,57.578 -45.76,55.876C-40.37,49.92 -37.534,42.356 -36.021,34.698C-39.235,36.683 -42.45,38.574 -45.57,40.371L-49.352,27.513C-45.381,26 -40.087,23.447 -34.414,20.706C-34.319,18.059 -34.319,15.506 -34.319,13.048L-34.319,10.212L-43.112,14.844C-43.774,10.022 -46.326,2.269 -48.879,-3.592L-39.235,-8.319C-37.439,-4.727 -35.549,-0.377 -34.319,3.499L-34.319,-17.868L-3.12,-17.868C-3.688,-19.381 -4.35,-20.894 -5.011,-22.217L7.469,-25.054C8.792,-22.974 10.021,-20.232 10.872,-17.868L40.464,-17.868L40.464,-6.428L2.458,-6.428L9.454,-3.687C6.996,-1.512 4.159,0.568 1.323,2.554L13.52,1.986L10.494,-0.661L19.286,-6.428C24.771,-2.079 32.995,4.444 37.155,8.51L27.796,15.223C26.661,13.993 25.243,12.48 23.541,10.968L19.759,11.157L19.759,15.128C19.759,17.113 19.948,17.964 21.366,17.964L26.85,17.964C28.457,17.964 31.104,17.775 32.522,17.302C32.712,20.139 32.995,24.582 33.374,27.135C31.767,27.797 29.402,27.892 27.134,27.892L20.894,27.892C10.872,27.892 8.697,24.392 8.697,15.033L8.697,11.913L2.741,12.386C1.04,21.179 -3.025,27.607 -15.506,31.862C-16.64,29.215 -19.477,24.96 -21.84,22.786C-22.502,33.091 -24.298,44.814 -29.025,54.646C-20.705,53.701 -12.858,52.095 -5.862,49.73C-6.902,48.88 -7.848,48.123 -8.888,47.272C-11.062,48.69 -13.331,50.015 -15.694,51.148C-17.396,48.785 -21.178,44.814 -23.542,42.829C-20.989,41.789 -18.625,40.466 -16.262,39.047C-17.302,37.534 -18.247,36.021 -19.098,34.509L-9.644,29.877C-9.171,30.727 -8.604,31.578 -8.036,32.429C-5.295,29.687 -3.025,26.757 -1.324,23.826L10.683,27.513C10.116,28.364 9.549,29.309 8.887,30.16L21.272,30.16L23.541,29.687L31.767,33.942Z" style="fill:rgb(237,89,104);fill-rule:nonzero;"/>
    </g>
    <g transform="matrix(1,0,0,1,-555.052,-7266.92)">
        <path d="M1334.27,7342.95L1325.1,7342.95L1325.1,7346.35L1334.27,7346.35L1334.27,7342.95ZM1334.27,7330.37L1325.1,7330.37L1325.1,7333.68L1334.27,7333.68L1334.27,7330.37ZM1310.82,7311.65C1313.56,7312.79 1316.49,7314.02 1319.33,7315.25C1321.03,7314.11 1322.83,7312.88 1324.53,7311.65L1310.82,7311.65ZM1312.52,7342.95L1303.16,7342.95L1303.16,7346.35L1312.52,7346.35L1312.52,7342.95ZM1303.16,7333.68L1312.52,7333.68L1312.52,7330.37L1303.16,7330.37L1303.16,7333.68ZM1347.03,7359.3C1347.03,7364.5 1345.99,7366.87 1342.59,7368.47C1339.28,7370.08 1334.84,7370.18 1329.16,7370.18C1328.69,7367.15 1327.18,7363.18 1325.85,7360.53C1328.31,7360.63 1331.81,7360.63 1332.76,7360.63C1333.89,7360.63 1334.27,7360.25 1334.27,7359.21L1334.27,7355.62L1325.1,7355.62L1325.1,7368.95L1312.52,7368.95L1312.52,7355.62L1303.16,7355.62L1303.16,7370.27L1290.59,7370.27L1290.59,7320.64L1307.61,7320.64C1304.96,7319.5 1302.41,7318.46 1300.04,7317.52L1306.28,7311.65L1294.09,7311.65L1294.09,7302.39L1335.78,7302.39L1338.62,7301.73L1346.37,7308.82C1341.36,7312.5 1335.59,7316.57 1329.64,7320.07C1330.01,7320.26 1330.39,7320.45 1330.77,7320.64L1347.03,7320.64L1347.03,7359.3ZM1350.62,7288.21L1350.62,7299.93L1288.23,7299.93L1288.23,7318.65C1288.23,7334.06 1286.15,7356.94 1273.67,7370.08C1271.78,7367.43 1266.67,7362.42 1264.02,7360.82C1269.41,7354.95 1272.25,7347.58 1273.76,7340.02C1270.64,7341.91 1267.52,7343.7 1264.5,7345.5L1260.71,7332.64C1264.59,7331.13 1269.79,7328.67 1275.37,7326.02C1275.46,7323.47 1275.46,7321.01 1275.46,7318.65L1275.46,7315.25L1266.77,7319.88C1266.01,7315.06 1263.45,7307.4 1260.9,7301.54L1270.83,7296.53C1272.53,7299.74 1274.14,7303.62 1275.46,7307.21L1275.46,7288.21L1306.1,7288.21C1305.24,7286.32 1304.3,7284.43 1303.26,7282.82L1316.59,7279.41C1318.48,7281.97 1320.46,7285.37 1321.6,7288.21L1350.62,7288.21Z" style="fill:rgb(237,89,104);fill-rule:nonzero;"/>
    </g>
    <g transform="matrix(1,0,0,1,150.3,193.327)">
        <path d="M0,-4.707C3.843,3.293 6.901,13.567 7.922,20.548L-3.059,24.391C-3.687,17.489 -6.667,6.744 -10.196,-1.256L0,-4.707ZM-24.627,-1.491C-26.745,8.313 -30.666,18.352 -34.901,24.626C-37.019,22.822 -41.882,19.842 -44.548,18.509C-40.392,13.254 -37.254,4.548 -35.686,-3.766L-24.627,-1.491ZM-11.372,-15.766L-11.372,22.352C-11.372,27.528 -12.156,30.665 -15.372,32.548C-18.51,34.352 -22.51,34.822 -27.686,34.822C-28.156,31.528 -29.882,26.431 -31.529,23.371C-28.47,23.45 -25.176,23.45 -24.078,23.45C-23.059,23.45 -22.666,23.215 -22.666,22.195L-22.666,-15.766L-30.195,-15.766C-32.47,-11.451 -34.979,-7.608 -37.489,-4.55C-39.528,-6.589 -44.078,-10.353 -46.666,-12.079C-40.627,-18.432 -35.686,-29.019 -33.02,-39.529L-21.804,-36.941C-22.823,-33.334 -24,-29.726 -25.411,-26.274L-0.941,-26.274L0.784,-26.589L8.862,-25.177C8,-18.432 6.588,-10.824 5.49,-5.883L-4.235,-7.608C-3.922,-9.805 -3.529,-12.706 -3.216,-15.766L-11.372,-15.766ZM-39.607,-36.078C-41.568,-30.902 -43.999,-25.49 -46.744,-20.314L-46.744,34.665L-57.567,34.665L-57.567,-3.451C-58.822,-1.883 -60.156,-0.393 -61.411,1.019C-62.431,-1.805 -65.489,-8.157 -67.371,-10.98C-60.627,-17.805 -54.117,-28.628 -50.353,-39.451L-39.607,-36.078Z" style="fill:rgb(21,110,135);fill-rule:nonzero;"/>
    </g>
    <g transform="matrix(1,0,0,1,233.827,193.953)">
        <path d="M0,-6.587C-3.372,0.863 -8.392,8.236 -14.274,14.667C-12.627,17.49 -10.745,19.216 -8.47,19.608C-6.823,19.844 -5.96,16.235 -5.568,7.922C-3.372,10.432 1.726,13.569 3.922,14.667C1.647,30.353 -3.216,33.804 -7.843,33.334C-14.588,32.549 -19.607,29.099 -23.215,23.216C-27.372,26.51 -31.764,29.412 -36.313,31.608C-38.431,28.706 -42.195,25.099 -45.489,22.824C-39.137,20.392 -33.176,16.706 -27.921,12.235C-29.803,6.04 -31.058,-1.489 -31.843,-10.195L-40.313,-9.332L-41.411,-20.234L-32.705,-21.019C-33.098,-26.9 -33.333,-33.175 -33.489,-39.92L-21.804,-39.92C-21.804,-33.646 -21.646,-27.686 -21.333,-22.116L-10.666,-23.058C-12.94,-26.274 -17.176,-31.136 -20.234,-34.665L-11.529,-40.234C-8.313,-36.783 -3.45,-31.842 -1.02,-28.783L-9.255,-23.215L1.961,-24.234L3.06,-13.647L-20.47,-11.293C-19.999,-6.117 -19.294,-1.489 -18.431,2.511C-14.666,-2.117 -11.607,-7.215 -9.333,-12.313L0,-6.587ZM-41.411,2.824C-44.234,3.53 -47.136,4.314 -50.038,5.02L-50.038,21.883C-50.038,27.059 -50.901,29.804 -53.881,31.451C-56.861,33.177 -60.94,33.49 -66.587,33.49C-66.9,30.589 -68.313,26.04 -69.646,23.216C-66.9,23.295 -63.685,23.295 -62.665,23.295C-61.567,23.295 -61.175,22.902 -61.175,21.805L-61.175,7.686L-68.313,9.412L-71.136,-1.489C-68.234,-2.038 -64.861,-2.666 -61.175,-3.45L-61.175,-15.45L-70.116,-15.45L-70.116,-25.96L-61.175,-25.96L-61.175,-40.391L-50.038,-40.391L-50.038,-25.96L-42.195,-25.96L-42.195,-15.45L-50.038,-15.45L-50.038,-5.96C-47.606,-6.509 -45.176,-7.137 -42.744,-7.686L-41.411,2.824Z" style="fill:rgb(21,110,135);fill-rule:nonzero;"/>
    </g>
    <g transform="matrix(1,0,0,1,313.276,227.129)">
        <path d="M0,-72.94L0,-12.313C0,-6.745 -1.02,-3.842 -4.313,-2.117C-7.686,-0.392 -12.313,0 -18.666,0C-19.137,-2.98 -20.94,-7.842 -22.509,-10.745C-18.588,-10.587 -14.353,-10.587 -13.019,-10.587C-11.607,-10.587 -11.137,-11.058 -11.137,-12.391L-11.137,-72.94L0,-72.94ZM-15.372,-18.274L-25.882,-18.274L-25.882,-65.96L-15.372,-65.96L-15.372,-18.274ZM-43.45,-50.823C-44.705,-52.783 -45.96,-54.587 -47.136,-56.312L-41.803,-59.528L-48.783,-59.528C-50.431,-56.391 -52.391,-53.175 -54.352,-50.352L-43.45,-50.823ZM-69.489,-69.253L-28.156,-69.253L-28.156,-59.528L-37.803,-59.528C-34.117,-54.587 -30.117,-48.548 -28.392,-44.234L-37.097,-38.666C-37.411,-39.607 -37.882,-40.705 -38.431,-41.881C-58.587,-40.391 -62.116,-40.156 -64.704,-39.058C-65.332,-41.253 -67.136,-46.352 -68.313,-49.253C-67.058,-49.646 -65.803,-50.823 -64.626,-52.547C-63.92,-53.568 -62.43,-56.234 -61.019,-59.528L-69.489,-59.528L-69.489,-69.253ZM-43.215,-15.921C-38.509,-16.627 -33.725,-17.411 -29.019,-18.196L-28.392,-8.47C-42.116,-5.882 -57.019,-3.294 -67.92,-1.412L-70.352,-11.842C-65.724,-12.391 -60.077,-13.254 -53.96,-14.196L-53.96,-23.294L-67.764,-23.294L-67.764,-33.097L-53.96,-33.097L-53.96,-39.294L-43.215,-39.294L-43.215,-33.097L-29.96,-33.097L-29.96,-23.294L-43.215,-23.294L-43.215,-15.921Z" style="fill:rgb(21,110,135);fill-rule:nonzero;"/>
    </g>
    <g transform="matrix(1,0,0,1,393.902,223.365)">
        <path d="M0,-64.392C-2.432,-58.745 -5.098,-53.254 -7.294,-49.569L-17.255,-53.176C-15.137,-57.176 -12.471,-63.372 -11.137,-68.235L0,-64.392ZM-14.039,-24.627L-14.039,-37.804L-36.94,-37.804L-36.94,-19.608C-32.705,-20.392 -27.137,-21.647 -21.333,-22.981C-24.862,-25.176 -31.529,-28.079 -36.627,-29.569L-31.921,-36.392C-26.666,-35.059 -19.607,-32.392 -15.921,-30.196L-20.627,-23.137L-14.039,-24.627ZM-42.822,-48.863C-43.686,-52.784 -46.588,-58.823 -49.489,-63.372L-39.843,-67.607C-36.862,-63.372 -33.646,-57.647 -32.47,-53.647L-42.822,-48.863ZM-2.901,-6.981C-2.901,-1.804 -3.843,1.097 -7.137,2.823C-10.431,4.548 -14.823,4.706 -20.705,4.706C-21.098,1.647 -22.588,-3.059 -24,-5.961C-20.94,-5.726 -16.784,-5.726 -15.607,-5.726C-14.431,-5.804 -14.039,-6.118 -14.039,-7.138L-14.039,-15.608C-21.098,-13.647 -28.392,-11.765 -34.353,-10.275L-37.019,-17.804C-37.254,-9.648 -38.195,-0.314 -41.725,5.49C-43.607,3.686 -48.313,0.47 -50.744,-0.706C-47.528,-6.51 -47.372,-15.059 -47.372,-22.353L-47.372,-48.079L-30.744,-48.079L-30.744,-69.882L-19.215,-69.882L-19.215,-48.079L-2.901,-48.079L-2.901,-6.981ZM-55.921,-51.372C-58.901,-53.803 -65.567,-57.803 -69.881,-60.548L-63.215,-68.626C-59.058,-66.274 -52.313,-62.666 -48.94,-60.392L-55.921,-51.372ZM-48.627,-20.706C-52.783,-12.471 -57.489,-4 -62.273,3.842L-71.92,-3.843C-67.764,-9.648 -61.803,-19.137 -57.019,-28.314L-48.627,-20.706ZM-59.921,-30.275C-63.136,-32.549 -70.116,-36.314 -74.744,-38.745L-68.626,-47.215C-64.313,-45.254 -57.097,-41.882 -53.567,-39.765L-59.921,-30.275Z" style="fill:rgb(21,110,135);fill-rule:nonzero;"/>
    </g>
    <g transform="matrix(1,0,0,1,464.098,177.169)">
        <path d="M0,25.882C3.922,30.509 8,36.705 9.961,40.941L1.02,45.882C-0.706,41.568 -4.784,34.902 -8.47,30.117L0,25.882ZM-5.176,0.078C-8.392,-2.51 -11.921,-5.725 -15.999,-10.117C-19.137,-6.352 -22.744,-2.902 -26.588,0.078L-5.176,0.078ZM-23.294,29.098C-26.117,35.45 -30.744,42.274 -34.744,46.509C-36.627,44.783 -40.705,41.803 -43.058,40.392C-39.137,36.862 -35.293,31.372 -33.176,26.275L-23.294,29.098ZM-53.411,23.372C-52.548,23.45 -51.921,23.45 -51.293,23.45C-50.666,23.45 -50.038,23.294 -49.646,22.823C-48.94,22.195 -48.626,20.784 -48.626,18.51C-48.626,15.137 -49.019,10.196 -52.077,5.098C-51.136,0.784 -50.038,-5.412 -49.176,-10.431L-53.411,-10.431L-53.411,23.372ZM-9.255,24.784L-9.255,39.45C-9.255,44.313 -10.117,47.058 -13.255,48.783C-16.313,50.431 -20.234,50.666 -25.254,50.666C-25.725,47.686 -27.45,43.215 -28.94,40.392C-26.038,40.548 -22.744,40.548 -21.646,40.548C-20.627,40.548 -20.234,40.235 -20.234,39.293L-20.234,24.784L-37.882,24.784L-37.882,14.51L-20.234,14.51L-20.234,9.804L-32.548,9.804L-32.548,4.392C-33.176,4.784 -33.882,5.177 -34.509,5.569C-35.921,3.137 -38.666,-0.078 -41.097,-2.274C-41.725,0 -42.352,2.117 -42.901,4C-39.372,10.039 -38.744,15.529 -38.744,19.921C-38.744,25.569 -39.764,29.019 -42.195,30.98C-43.528,31.999 -45.019,32.549 -46.744,32.862C-47.921,33.098 -49.646,33.098 -51.371,33.098C-51.371,30.509 -52.077,26.588 -53.411,23.843L-53.411,50.666L-63.293,50.666L-63.293,-20.549L-46.352,-20.549L-44.861,-20.941L-37.411,-16.941C-38.431,-12.627 -39.686,-7.764 -40.862,-3.294C-31.764,-8 -22.744,-15.686 -17.882,-24.784L-8.392,-21.097C-9.02,-20 -9.646,-18.901 -10.274,-17.882C-2.431,-10.039 4.471,-6.118 9.961,-3.764C7.294,-1.49 4,2.353 2.51,5.411C1.569,4.862 0.628,4.236 -0.313,3.608L-0.313,9.804L-9.255,9.804L-9.255,14.51L7.373,14.51L7.373,24.784L-9.255,24.784Z" style="fill:rgb(21,110,135);fill-rule:nonzero;"/>
    </g>
    <g transform="matrix(1,0,0,1,527.078,194.738)">
        <path d="M0,-8C2.745,-2.51 5.176,4.471 5.646,9.255L-4.393,12.784C-4.706,8.156 -6.823,0.862 -9.333,-4.862L0,-8ZM22.666,-11.372L17.568,-11.372L17.568,20.862C17.568,26.274 16.627,29.176 13.411,30.979C10.274,32.784 5.882,33.176 -0.157,33.176C-0.628,30.195 -2.432,25.255 -4,22.353C-0.314,22.51 3.529,22.51 4.862,22.51C6.117,22.51 6.588,22.117 6.588,20.862L6.588,-11.372L-9.49,-11.372L-9.49,-21.961L6.588,-21.961L6.588,-41.176L17.568,-41.176L17.568,-21.961L22.666,-21.961L22.666,-11.372ZM-34.51,-15.216C-32.941,-13.255 -31.451,-11.138 -30.823,-9.412L-35.529,-6.745L-28.156,-6.745C-26.901,-9.255 -25.568,-12.471 -24.549,-15.216L-34.51,-15.216ZM-24.156,18.117C-19.372,17.646 -14.588,17.255 -9.883,16.784L-9.726,26.666C-23.216,28.156 -37.804,29.568 -48.392,30.588L-49.804,20.156C-45.49,19.843 -40.313,19.45 -34.666,18.979L-34.666,15.059L-46.117,15.059L-46.117,5.961L-34.666,5.961L-34.666,2.432L-47.137,2.432L-47.137,-6.745L-39.843,-6.745C-40.94,-8.862 -42.666,-11.294 -44.234,-13.255L-40.627,-15.216L-49.333,-15.216L-49.333,-24.471L-39.45,-24.471L-39.45,-28.078L-43.686,-25.098C-44.705,-27.529 -47.294,-31.216 -49.646,-33.804L-42.98,-38.353C-41.804,-37.176 -40.549,-35.843 -39.45,-34.431L-39.45,-41.098L-30.666,-41.098L-30.666,-24.471L-28.471,-24.471L-28.471,-41.098L-19.529,-41.098L-19.529,-34.039C-18.432,-35.372 -17.49,-36.784 -16.784,-37.96L-8,-33.02C-11.451,-29.882 -14.667,-26.823 -17.177,-24.784L-19.529,-26.274L-19.529,-24.471L-10.118,-24.471L-10.118,-15.216L-18.98,-15.216L-14.353,-13.647C-15.687,-11.216 -16.862,-8.862 -18.039,-6.745L-12.157,-6.745L-12.157,2.432L-24.156,2.432L-24.156,5.961L-12.863,5.961L-12.863,15.059L-24.156,15.059L-24.156,18.117Z" style="fill:rgb(21,110,135);fill-rule:nonzero;"/>
    </g>
    <g transform="matrix(1,0,0,1,599.618,177.249)">
        <path d="M0,26.351C2.039,27.998 4.549,29.567 7.373,30.979C6.51,28.547 5.255,25.959 4.235,24.077C6.432,24.312 9.804,24.234 10.667,24.234C11.608,24.234 12,23.998 12,23.135L12,19.998L0,19.998L0,26.351ZM4.314,-10.903C2.98,-8.786 1.49,-6.825 0,-5.099L0,-1.805L13.02,-1.805C11.138,-3.766 8.313,-6.276 5.961,-8.002L9.412,-10.903L4.314,-10.903ZM-12.313,-1.805L-12.313,-5.648L-4.94,-5.648C-6.823,-7.138 -8.94,-8.708 -10.353,-9.648C-9.882,-10.041 -9.49,-10.432 -9.098,-10.825L-17.568,-10.825C-15.843,-9.413 -14.353,-7.844 -13.333,-6.668L-18.509,-1.805L-12.313,-1.805ZM-28.783,-10.825C-30.979,-7.452 -33.332,-4.315 -35.686,-1.805L-21.725,-1.805C-23.528,-3.844 -26.117,-6.276 -28.234,-8.08L-25.176,-10.825L-28.783,-10.825ZM23.765,23.135C23.765,27.763 22.823,30.038 19.607,31.371C17.177,32.39 14.274,32.705 11.059,32.783C16.784,35.214 23.451,37.174 30.51,38.273C28.156,40.704 24.862,45.331 23.294,48.312C14.354,46.194 6.274,41.958 0,37.253L0,50.822L-12.313,50.822L-12.313,37.018C-19.059,42.508 -27.45,46.586 -36.705,48.939C-38.195,46.116 -41.411,41.723 -43.764,39.371C-30.666,37.096 -18.979,31.841 -12.313,24.861L-12.313,19.998L-24.94,19.998L-24.94,33.096L-37.098,33.096L-37.098,10.43L-12.313,10.43L-12.313,7.92L-41.803,7.92L-41.803,-1.805L-37.882,-1.805C-39.686,-3.922 -42.587,-6.903 -44.313,-8.393C-39.842,-12.315 -35.528,-18.432 -33.176,-24.471L-23.137,-21.491C-23.45,-20.786 -23.764,-20.08 -24.078,-19.374L-8.549,-19.374L-8.549,-11.374C-5.098,-14.903 -2.274,-19.687 -0.627,-24.471L9.726,-21.805C9.412,-21.021 9.099,-20.158 8.784,-19.374L29.255,-19.374L29.255,-10.903L17.49,-10.903C19.138,-9.648 20.627,-8.315 21.647,-7.217L15.373,-1.805L27.451,-1.805L27.451,7.92L0,7.92L0,10.43L23.765,10.43L23.765,23.135Z" style="fill:rgb(21,110,135);fill-rule:nonzero;"/>
    </g>
    <g transform="matrix(1,0,0,1,704.018,221.483)">
        <path d="M0,-56.627C-7.216,-48.941 -16.941,-40.471 -26.745,-34.432L-26.745,-5.961C-26.745,0.156 -28.156,3.215 -32.549,4.862C-36.94,6.588 -42.823,6.823 -50.117,6.744C-50.744,3.372 -52.862,-1.726 -54.666,-4.785C-49.646,-4.55 -42.98,-4.55 -41.176,-4.55C-39.45,-4.55 -38.823,-4.941 -38.823,-6.275L-38.823,-40.078C-33.411,-43.059 -27.607,-47.294 -22.902,-51.529L-65.254,-51.529L-65.254,-62.823L-11.687,-62.823L-9.098,-63.45L0,-56.627Z" style="fill:rgb(21,110,135);fill-rule:nonzero;"/>
    </g>
    <g transform="matrix(1,0,0,1,762.838,181.012)">
        <path d="M0,22.432C1.804,26.824 3.137,32.627 3.529,36.392L-3.608,38.51C-3.765,34.666 -5.099,28.785 -6.667,24.314L0,22.432ZM-10.432,11.687L-4,11.687L-4,8.549L-10.432,8.549L-10.432,11.687ZM-4,-3.215L-10.432,-3.215L-10.432,-0.155L-4,-0.155L-4,-3.215ZM-10.432,-11.921L-4,-11.921L-4,-14.901L-10.432,-14.901L-10.432,-11.921ZM-8.079,23.687C-6.902,28.942 -6.274,35.608 -6.432,40.078L-14.118,41.333C-13.804,36.941 -14.354,30.118 -15.373,24.863L-8.079,23.687ZM22.823,11.687C22.823,11.687 22.744,14.353 22.666,15.53C21.96,33.255 21.098,40.705 19.137,43.372C17.489,45.49 15.843,46.196 13.725,46.588C11.843,46.98 9.02,47.059 5.804,47.059C5.646,44.078 4.627,40 3.215,37.411C5.255,37.647 6.979,37.647 8.078,37.647C9.02,37.647 9.646,37.491 10.274,36.627C10.744,36.078 11.059,34.745 11.372,32.392L5.568,34.431C5.098,31.372 3.529,26.745 1.882,23.294L7.843,21.333C9.411,24.236 10.823,27.921 11.607,30.824C11.843,28.471 12.078,25.333 12.234,21.098L-21.098,21.098L-21.098,-24.627L20.705,-24.627L20.705,-14.901L6.431,-14.901L6.431,-11.921L18.117,-11.921L18.117,-3.215L6.431,-3.215L6.431,-0.156L18.117,-0.156L18.117,8.549L6.431,8.549L6.431,11.687L22.823,11.687ZM-29.646,40.941C-26.823,36.471 -25.098,29.647 -24.313,23.137L-16,25.491C-16.863,32.392 -18.354,40.078 -21.49,44.863L-29.646,40.941ZM-38.353,15.294L-34.902,15.294L-34.902,-10.352L-38.353,-10.352L-38.353,15.294ZM-38.353,25.804L-38.353,31.765L-48.392,31.765L-48.392,-20.862L-24.706,-20.862L-24.706,25.804L-38.353,25.804Z" style="fill:rgb(21,110,135);fill-rule:nonzero;"/>
    </g>
    <g transform="matrix(1,0,0,1,832.478,178.267)">
        <path d="M0,26.039C5.412,26.039 9.255,29.568 9.255,34.588C9.255,39.607 5.412,43.294 0,43.294C-5.411,43.294 -9.255,39.607 -9.255,34.588C-9.255,29.568 -5.411,26.039 0,26.039M8.313,0.313C8.313,-4 4.628,-5.96 -0.549,-5.96C-5.02,-5.96 -8.627,-3.921 -11.765,-0.314L-19.45,-7.372C-14.588,-13.333 -7.216,-17.255 1.098,-17.255C12.627,-17.255 21.646,-12.156 21.646,-0.94C21.646,10.352 5.412,11.138 6.117,21.49L-6.117,21.49C-7.372,9.568 8.313,7.216 8.313,0.313" style="fill:rgb(21,110,135);fill-rule:nonzero;"/>
    </g>
</svg>
