<?xml version="1.0" encoding="UTF-8" standalone="no"?>
<!DOCTYPE svg PUBLIC "-//W3C//DTD SVG 1.1//EN" "http://www.w3.org/Graphics/SVG/1.1/DTD/svg11.dtd">
<svg width="100%" height="100%" viewBox="0 0 865 59" version="1.1" xmlns="http://www.w3.org/2000/svg" xmlns:xlink="http://www.w3.org/1999/xlink" xml:space="preserve" xmlns:serif="http://www.serif.com/" style="fill-rule:evenodd;clip-rule:evenodd;stroke-linejoin:round;stroke-miterlimit:2;">
    <g transform="matrix(1,0,0,1,-526.86,-1216.08)">
        <g transform="matrix(1,0,0,1,0,-5100.1)">
            <path d="M556.8,6356.98L570.9,6356.98L570.9,6353.32L556.8,6353.32L556.8,6356.98ZM549.3,6339.46L578.759,6339.46L578.759,6345.52L549.3,6345.52L549.3,6339.46ZM578.759,6337.84L549.3,6337.84L549.3,6331.78L578.759,6331.78L578.759,6337.84ZM548.64,6347.26L579.479,6347.26L579.479,6363.04L548.64,6363.04L548.64,6347.26ZM583.798,6330.4L545.16,6330.4L545.16,6323.8L560.279,6323.8C559.739,6322.3 559.079,6320.56 558.479,6319.18L566.938,6316.72C567.959,6318.7 569.278,6321.46 569.879,6323.2L567.959,6323.8L583.798,6323.8L583.798,6330.4ZM534.54,6330.28C533.581,6327.52 531.54,6322.96 530.221,6319.6L537.78,6316.84C539.22,6320.14 541.2,6324.28 542.34,6326.98L534.54,6330.28ZM546.36,6346.06C545.521,6351.34 544.021,6356.62 541.86,6361.06C542.58,6361.48 543.479,6362.02 544.5,6362.56C548.58,6364.84 554.52,6365.14 561.239,6365.14C567.419,6365.14 578.999,6364.48 585.839,6363.34C584.818,6365.74 583.318,6370.12 583.198,6372.52C578.099,6372.88 567.839,6373.24 560.819,6373.24C552.96,6373.24 547.92,6372.64 543.54,6370.36C541.021,6369.04 538.98,6367.36 537.78,6367.36C536.341,6367.36 534.001,6371.38 532.501,6374.38L526.86,6365.8C528.721,6363.82 530.88,6362.2 532.86,6361.12C534.72,6358.42 536.22,6355.06 537.181,6351.7L528.841,6351.7C530.28,6348.22 531.9,6343.54 533.341,6338.92L528.241,6338.92L528.241,6331.18L544.14,6331.18C542.82,6335.38 541.32,6340.06 539.82,6344.26L540.06,6344.26L541.32,6344.02L546.36,6346.06Z" style="fill:rgb(44,58,96);fill-rule:nonzero;"/>
        </g>
        <g transform="matrix(1,0,0,1,628.019,1240.5)">
            <path d="M0,9.42C-7.739,9.42 -9.6,6.78 -9.6,-1.439L-9.6,-23.219L-0.84,-23.219L-0.84,-14.759L12.18,-14.759L12.18,-7.019L-0.84,-7.019L-0.84,-1.5C-0.84,0.96 -0.6,1.26 1.381,1.26L6.12,1.26C7.86,1.26 8.221,0.24 8.52,-5.519C10.32,-4.14 13.98,-2.699 16.38,-2.159C15.42,6.78 13.08,9.42 6.96,9.42L0,9.42ZM-32.219,11.7L9.12,11.7L9.12,20.039L-32.219,20.039L-32.219,11.7ZM-39.298,23.94L15.84,23.94L15.84,32.639L-39.298,32.639L-39.298,23.94ZM-40.197,2.76L-37.139,2.521L-37.139,-17.279L-29.158,-17.279L-29.158,1.86L-26.758,1.681L-26.758,-23.219L-18.119,-23.219L-18.119,-14.819L-11.159,-14.819L-11.159,-7.079L-18.119,-7.079L-18.119,0.9L-10.68,0.181L-10.499,8.1C-20.519,9.3 -31.379,10.44 -39.298,11.34L-40.197,2.76Z" style="fill:rgb(44,58,96);fill-rule:nonzero;"/>
        </g>
        <g transform="matrix(1,0,0,1,694.618,1237.68)">
            <path d="M0,18.478C3,22.138 7.62,27.358 9.9,30.598L2.4,34.858C0.48,31.558 -3.899,26.098 -6.959,22.138L0,18.478ZM-22.078,11.159L-3.779,11.159L-3.779,8.22L-22.078,8.22L-22.078,11.159ZM-3.779,-0.601L-22.078,-0.601L-22.078,2.279L-3.779,2.279L-3.779,-0.601ZM-19.139,21.358C-21.898,25.978 -26.038,31.378 -29.158,34.618C-30.898,33.238 -34.378,31.018 -36.479,29.938C-33.178,27.118 -29.518,22.558 -27.358,18.659L-19.139,21.358ZM-8.579,17.579L-8.579,28.378C-8.579,32.098 -9.18,34.198 -11.759,35.337C-14.279,36.538 -17.519,36.598 -21.539,36.598C-21.838,34.257 -22.918,31.078 -23.879,28.918C-21.778,28.978 -18.898,28.978 -18.119,28.978C-17.279,28.978 -17.039,28.798 -17.039,28.138L-17.039,17.579L-30.598,17.579L-30.598,-7.02L-20.459,-7.02C-19.858,-8.161 -19.379,-9.241 -19.019,-10.26L-33.777,-10.26L-33.777,-0.42C-33.777,9.838 -34.618,25.499 -39.838,35.218C-41.518,33.898 -45.357,31.738 -47.518,30.957C-42.718,22.079 -42.357,8.819 -42.357,-0.42L-42.357,-18.12L9,-18.12L9,-10.26L-16.259,-10.26L-8.339,-9.361C-8.879,-8.52 -9.479,-7.741 -10.02,-7.02L5.221,-7.02L5.221,17.579L-8.579,17.579Z" style="fill:rgb(44,58,96);fill-rule:nonzero;"/>
        </g>
        <g transform="matrix(1,0,0,1,739.859,1249.98)">
            <path d="M0,-6.6C-0.12,-5.82 -0.24,-5.039 -0.42,-4.32C4.62,-0.6 9.96,4.2 12.779,7.679L6.72,13.019C4.68,10.32 1.021,6.48 -2.819,3.06C-5.04,7.679 -8.76,11.339 -14.88,14.04C-15.839,11.879 -18.179,8.58 -20.039,7.02C-12.659,3.96 -9.78,-0.36 -8.579,-6.6L-19.14,-6.6L-19.14,-14.339L-7.8,-14.339C-7.68,-16.44 -7.68,-18.719 -7.62,-21.179L0.899,-21.179C0.84,-18.78 0.78,-16.499 0.66,-14.339L11.939,-14.339L11.939,-6.6L0,-6.6ZM14.279,-23.099L-21.599,-23.099L-21.599,14.7L14.279,14.7L14.279,-23.099ZM22.739,-30.899L22.739,24.299L14.279,24.299L14.279,21.779L-21.599,21.779L-21.599,24.299L-29.639,24.299L-29.639,-30.899L22.739,-30.899Z" style="fill:rgb(44,58,96);fill-rule:nonzero;"/>
        </g>
        <g transform="matrix(1,0,0,1,808.98,1233.24)">
            <path d="M0,25.5C1.199,25.62 2.1,25.62 2.939,25.62C3.779,25.62 4.619,25.5 5.219,25.141C6.18,24.601 6.6,23.4 6.6,21.42C6.6,18.421 5.52,14.101 1.439,9.781C2.819,5.821 4.439,0.062 5.639,-4.498L0,-4.498L0,25.5ZM-22.319,1.142C-21.539,-0.059 -20.76,-1.259 -19.979,-2.519L-22.979,-2.519L-22.979,1.142L-22.319,1.142ZM-20.039,28.26L-27.659,28.26L-27.659,31.2L-20.039,31.2L-20.039,28.26ZM-20.039,19.141L-27.659,19.141L-27.659,21.781L-20.039,21.781L-20.039,19.141ZM16.259,-9.059C14.339,-3.238 11.939,3.541 9.839,8.701C14.219,13.98 14.939,18.721 14.939,22.44C14.939,27.36 13.859,30.42 11.398,32.1C10.199,33 8.699,33.54 7.02,33.78C5.699,33.96 3.899,34.02 2.039,33.9C1.979,31.68 1.199,28.2 0,25.86L0,40.979L-8.58,40.979L-8.58,-7.979C-9.9,-4.799 -11.34,-1.738 -13.02,1.142L-10.141,1.142L-10.141,8.641L-18,8.641C-18.96,9.9 -19.979,11.101 -21.06,12.301L-11.82,12.301L-11.82,40.14L-20.039,40.14L-20.039,38.1L-27.659,38.1L-27.659,40.979L-35.52,40.979L-35.52,24.12C-36.18,24.54 -36.839,24.9 -37.499,25.26C-38.398,23.4 -40.859,19.681 -42.359,17.94C-37.259,15.601 -32.699,12.421 -28.739,8.641L-40.679,8.641L-40.679,1.142L-31.02,1.142L-31.02,-2.519L-38.159,-2.519L-38.159,-9.958L-31.02,-9.958L-31.02,-15.479L-22.979,-15.479L-22.979,-9.958L-17.58,-9.958L-17.58,-7.198C-16.74,-9.059 -15.96,-10.979 -15.3,-12.958L-8.58,-11.099L-8.58,-12.658L8.639,-12.658L9.898,-12.958L16.259,-9.059Z" style="fill:rgb(44,58,96);fill-rule:nonzero;"/>
        </g>
        <g transform="matrix(1,0,0,1,875.219,1225.56)">
            <path d="M0,40.799C1.739,40.799 2.16,39.839 2.46,34.799C4.2,36.119 7.68,37.439 10.02,37.919C9.12,45.958 6.899,48.359 0.84,48.359L-6.54,48.359C-14.339,48.359 -16.199,45.899 -16.199,38.339L-16.199,20.159L-7.56,20.159L-7.56,25.499L6.72,25.499L6.72,33.119L-7.56,33.119L-7.56,38.278C-7.56,40.559 -7.2,40.799 -5.159,40.799L0,40.799ZM-5.76,18.659C-14.04,18.659 -16.199,15.659 -16.199,7.98L-16.199,-8.039L-7.56,-8.039L-7.56,-1.62L6.42,-1.62L6.42,5.76L-7.56,5.76L-7.56,8.16C-7.56,10.38 -7.26,11.22 -5.46,11.22L2.101,11.22C3.899,11.22 6.6,11.04 8.04,10.68C8.159,12.9 8.46,16.08 8.76,18.06C7.38,18.54 4.62,18.659 2.28,18.659L-5.76,18.659ZM-35.938,20.699L-35.938,24.06L-32.759,21.36C-31.379,22.619 -29.639,24.239 -28.198,25.619L-28.198,20.699L-35.938,20.699ZM-31.379,31.379C-32.339,30.119 -34.259,28.14 -35.938,26.459C-35.938,28.799 -36.059,31.499 -36.358,34.259C-34.019,33.179 -31.198,31.679 -28.198,30.119L-28.198,28.499L-31.379,31.379ZM-23.039,-3.779C-20.819,0.66 -17.759,6.72 -16.319,10.38L-23.938,13.38C-24.299,12.36 -24.719,11.1 -25.259,9.78C-39.898,11.28 -42.599,11.76 -44.519,12.6C-44.938,10.92 -46.318,7.021 -47.218,4.861C-46.078,4.561 -44.998,3.66 -43.798,2.34C-42.658,1.08 -39.118,-3.479 -37.019,-8.22L-28.198,-5.76C-30.118,-2.579 -32.579,0.66 -35.038,3.54L-28.198,2.941C-28.919,1.441 -29.579,-0 -30.179,-1.319L-23.039,-3.779ZM-19.979,41.099C-19.979,44.458 -20.64,46.198 -22.799,47.339C-24.959,48.418 -27.719,48.538 -31.319,48.538C-31.679,46.559 -32.879,43.679 -33.898,41.879C-32.159,41.999 -29.879,41.999 -29.219,41.999C-28.438,41.999 -28.198,41.759 -28.198,41.039L-28.198,36.899C-30.659,38.759 -33.059,40.618 -35.398,42.299L-36.839,37.739C-37.618,41.879 -38.938,45.958 -41.158,49.019C-42.358,47.399 -45.658,44.219 -47.278,43.198C-44.158,38.399 -43.918,31.619 -43.918,26.279L-43.918,13.5L-19.979,13.5L-19.979,41.099Z" style="fill:rgb(44,58,96);fill-rule:nonzero;"/>
        </g>
        <g transform="matrix(1,0,0,1,0,-5100.7)">
            <path d="M933.118,6335.26L935.698,6335.26L935.698,6333.04L933.118,6333.04L933.118,6335.26ZM932.879,6360.04C933.419,6361.06 934.139,6362.02 934.919,6362.86C936.538,6361.96 938.278,6360.88 939.599,6360.04L932.879,6360.04ZM923.579,6354.28L928.438,6354.28L928.438,6353.08L923.579,6353.08L923.579,6354.28ZM923.579,6348.04L928.438,6348.04L928.438,6346.84L923.579,6346.84L923.579,6348.04ZM916.439,6335.26L918.838,6335.26L918.838,6333.04L916.439,6333.04L916.439,6335.26ZM943.738,6327.58L908.34,6327.58L908.34,6321.46L921.899,6321.46C921.539,6320.56 921.179,6319.66 920.819,6318.88L928.14,6316.78C928.979,6318.22 929.759,6319.9 930.358,6321.46L943.738,6321.46L943.738,6327.58ZM900.42,6359.86L895.561,6359.86L895.561,6365.14L900.42,6365.14L900.42,6359.86ZM890.161,6344.8L906,6344.8L906,6351.28L890.161,6351.28L890.161,6344.8ZM906,6343L890.161,6343L890.161,6336.52L906,6336.52L906,6343ZM944.278,6363.94C942.778,6364.9 941.099,6365.74 939.538,6366.52C941.398,6367.54 943.499,6368.32 945.958,6368.8C944.398,6370.24 942.419,6373 941.519,6374.86C933.299,6372.46 928.56,6367.42 925.679,6360.04L924.959,6360.04C923.999,6360.94 922.919,6361.78 921.779,6362.56L921.779,6366.4L927.659,6365.62C927.599,6367.54 927.72,6370.3 927.959,6371.92C918.839,6373.54 916.8,6374.2 915.6,6374.92C914.999,6373.6 913.26,6371.2 912.18,6370.24C913.079,6369.52 914.28,6368.14 914.939,6366.22C913.38,6366.88 911.76,6367.48 910.2,6367.96C909.479,6366.7 907.739,6364.24 906.54,6362.92L906.54,6371.74L895.561,6371.74L895.561,6374.08L889.561,6374.08L889.561,6353.26L906.54,6353.26L906.54,6362.62C909.3,6361.96 912.12,6361.12 914.579,6360.04L907.8,6360.04L907.8,6354.28L915.899,6354.28L915.899,6353.08L910.26,6353.08L910.26,6348.04L915.899,6348.04L915.899,6346.84L909.659,6346.84L909.659,6341.8L915.899,6341.8L915.899,6339.52L910.319,6339.52L910.319,6328.72L925.319,6328.72L925.319,6339.52L923.579,6339.52L923.579,6341.8L928.438,6341.8L928.438,6339.52L926.999,6339.52L926.999,6328.72L942.179,6328.72L942.179,6339.52L936.179,6339.52L936.179,6341.8L943.198,6341.8L943.198,6346.84L936.179,6346.84L936.179,6348.04L942.718,6348.04L942.718,6353.08L936.179,6353.08L936.179,6354.28L944.578,6354.28L944.578,6360.04L940.318,6360.04L944.278,6363.94ZM908.04,6334.72L887.761,6334.72L887.761,6327.94L895.86,6327.94C895.261,6325.72 894.061,6322.78 892.98,6320.44L899.04,6318.16C900.42,6320.68 901.979,6324.16 902.58,6326.32L898.62,6327.94L908.04,6327.94L908.04,6334.72Z" style="fill:rgb(44,58,96);fill-rule:nonzero;"/>
        </g>
        <g transform="matrix(1,0,0,1,998.099,1247.7)">
            <path d="M0,-3.598C2.939,2.521 5.28,10.381 6.06,15.72L-2.34,18.661C-2.82,13.381 -5.1,5.161 -7.8,-0.958L0,-3.598ZM-18.839,-1.139C-20.459,6.361 -23.459,14.041 -26.699,18.84C-28.319,17.461 -32.039,15.18 -34.079,14.161C-30.898,10.141 -28.499,3.481 -27.299,-2.878L-18.839,-1.139ZM-8.699,-12.058L-8.699,17.1C-8.699,21.06 -9.3,23.461 -11.76,24.9C-14.159,26.28 -17.22,26.64 -21.179,26.64C-21.539,24.121 -22.859,20.22 -24.119,17.881C-21.779,17.941 -19.259,17.941 -18.419,17.941C-17.64,17.941 -17.339,17.76 -17.339,16.981L-17.339,-12.058L-23.099,-12.058C-24.839,-8.758 -26.759,-5.819 -28.679,-3.479C-30.239,-5.038 -33.719,-7.918 -35.698,-9.239C-31.079,-14.098 -27.299,-22.198 -25.259,-30.238L-16.68,-28.257C-17.459,-25.497 -18.359,-22.738 -19.439,-20.098L-0.72,-20.098L0.6,-20.338L6.779,-19.258C6.12,-14.098 5.04,-8.279 4.2,-4.498L-3.24,-5.819C-3,-7.498 -2.7,-9.718 -2.46,-12.058L-8.699,-12.058ZM-30.299,-27.598C-31.799,-23.638 -33.658,-19.497 -35.759,-15.538L-35.759,26.52L-44.038,26.52L-44.038,-2.639C-44.998,-1.439 -46.019,-0.298 -46.979,0.781C-47.758,-1.378 -50.098,-6.239 -51.538,-8.399C-46.378,-13.619 -41.398,-21.898 -38.519,-30.177L-30.299,-27.598Z" style="fill:rgb(44,58,96);fill-rule:nonzero;"/>
        </g>
        <g transform="matrix(1,0,0,1,0,-5100.1)">
            <path d="M1064.28,6356.98L1078.38,6356.98L1078.38,6353.32L1064.28,6353.32L1064.28,6356.98ZM1056.78,6339.46L1086.24,6339.46L1086.24,6345.52L1056.78,6345.52L1056.78,6339.46ZM1086.24,6337.84L1056.78,6337.84L1056.78,6331.78L1086.24,6331.78L1086.24,6337.84ZM1056.12,6347.26L1086.96,6347.26L1086.96,6363.04L1056.12,6363.04L1056.12,6347.26ZM1091.28,6330.4L1052.64,6330.4L1052.64,6323.8L1067.76,6323.8C1067.22,6322.3 1066.56,6320.56 1065.96,6319.18L1074.42,6316.72C1075.44,6318.7 1076.76,6321.46 1077.36,6323.2L1075.44,6323.8L1091.28,6323.8L1091.28,6330.4ZM1042.02,6330.28C1041.06,6327.52 1039.02,6322.96 1037.7,6319.6L1045.26,6316.84C1046.7,6320.14 1048.68,6324.28 1049.82,6326.98L1042.02,6330.28ZM1053.84,6346.06C1053,6351.34 1051.5,6356.62 1049.34,6361.06C1050.06,6361.48 1050.96,6362.02 1051.98,6362.56C1056.06,6364.84 1062,6365.14 1068.72,6365.14C1074.9,6365.14 1086.48,6364.48 1093.32,6363.34C1092.3,6365.74 1090.8,6370.12 1090.68,6372.52C1085.58,6372.88 1075.32,6373.24 1068.3,6373.24C1060.44,6373.24 1055.4,6372.64 1051.02,6370.36C1048.5,6369.04 1046.46,6367.36 1045.26,6367.36C1043.82,6367.36 1041.48,6371.38 1039.98,6374.38L1034.34,6365.8C1036.2,6363.82 1038.36,6362.2 1040.34,6361.12C1042.2,6358.42 1043.7,6355.06 1044.66,6351.7L1036.32,6351.7C1037.76,6348.22 1039.38,6343.54 1040.82,6338.92L1035.72,6338.92L1035.72,6331.18L1051.62,6331.18C1050.3,6335.38 1048.8,6340.06 1047.3,6344.26L1047.54,6344.26L1048.8,6344.02L1053.84,6346.06Z" style="fill:rgb(237,89,104);fill-rule:nonzero;"/>
        </g>
        <g transform="matrix(1,0,0,1,0,-5099.92)">
            <path d="M1141.32,6338.08L1137.96,6338.08L1137.96,6342.28L1141.32,6342.28L1141.32,6338.08ZM1141.32,6327.28L1137.96,6327.28L1137.96,6331.36L1141.32,6331.36L1141.32,6327.28ZM1129.86,6338.08L1126.56,6338.08L1126.56,6342.28L1129.86,6342.28L1129.86,6338.08ZM1126.56,6331.36L1129.86,6331.36L1129.86,6327.28L1126.56,6327.28L1126.56,6331.36ZM1151.58,6365.26L1151.58,6372.88L1117.26,6372.88L1117.26,6365.26L1129.86,6365.26L1129.86,6360.64L1119.36,6360.64L1119.36,6353.08L1129.86,6353.08L1129.86,6349.54L1118.82,6349.54L1118.82,6344.26C1117.14,6345.7 1115.7,6347.14 1114.44,6348.28C1116.24,6350.02 1117.92,6351.7 1118.58,6352.42L1114.14,6359.2C1113.18,6357.58 1111.74,6355.42 1110.18,6353.26L1110.18,6374.2L1102.38,6374.2L1102.38,6354.04C1100.82,6355.66 1099.26,6357.16 1097.7,6358.42C1097.16,6356.02 1095.3,6351.34 1094.22,6349.66C1099.02,6346.36 1103.7,6340.78 1106.82,6334.9L1096.14,6334.9L1096.14,6327.1L1104.66,6327.1C1103.58,6325 1102.08,6322.48 1100.76,6320.56L1107,6316.72C1108.8,6319.18 1110.9,6322.36 1112.04,6324.46L1108.26,6327.1L1111.14,6327.1L1112.52,6326.74L1116.78,6330.22C1115.1,6334.84 1112.82,6339.46 1110.18,6343.72L1110.18,6344.2L1110.66,6344.68C1112.1,6342.94 1113.72,6340.6 1114.62,6338.92L1118.82,6342.88L1118.82,6320.02L1149.48,6320.02L1149.48,6349.54L1137.96,6349.54L1137.96,6353.08L1149.9,6353.08L1149.9,6360.64L1137.96,6360.64L1137.96,6365.26L1151.58,6365.26Z" style="fill:rgb(237,89,104);fill-rule:nonzero;"/>
        </g>
        <g transform="matrix(1,0,0,1,1185.84,1233.12)">
            <path d="M0,25.619C1.2,26.519 2.58,27.299 4.02,28.079C5.58,27.18 6.96,26.159 8.16,25.079L0.54,25.079L0,25.619ZM-13.68,-4.079L-13.68,8.34C-13.68,10.14 -13.739,12.12 -13.859,14.16C-8.939,12.84 -6.96,10.98 -6.06,8.52C-9.06,8.88 -10.199,9.18 -11.22,9.54C-11.579,8.04 -12.72,4.62 -13.499,2.7C-12.359,2.46 -11.22,1.92 -9.899,1.14C-8.699,0.54 -5.34,-1.5 -2.52,-4.079L-13.68,-4.079ZM20.159,21.539C18.18,25.439 15.479,28.619 12.18,31.199C16.499,32.459 21.479,33.239 27.179,33.598C25.619,35.339 23.639,38.699 22.739,40.858C15.479,40.018 9.3,38.398 4.14,36.119C-1.5,38.759 -7.979,40.438 -14.939,41.518C-15.659,39.539 -17.159,36.539 -18.539,34.859C-19.679,37.259 -21.119,39.419 -22.919,41.339C-24.119,39.719 -27.358,36.539 -29.039,35.459C-25.619,31.679 -23.819,26.879 -22.859,22.019C-24.898,23.279 -26.938,24.479 -28.919,25.619L-31.318,17.46C-28.799,16.5 -25.438,14.88 -21.839,13.14C-21.779,11.46 -21.779,9.84 -21.779,8.28L-21.779,6.48L-27.358,9.42C-27.779,6.36 -29.398,1.44 -31.019,-2.279L-24.898,-5.279C-23.759,-2.999 -22.559,-0.239 -21.779,2.221L-21.779,-11.339L-1.979,-11.339C-2.34,-12.299 -2.76,-13.259 -3.18,-14.099L4.74,-15.899C5.58,-14.579 6.359,-12.839 6.899,-11.339L25.679,-11.339L25.679,-4.079L1.56,-4.079L6,-2.34C4.439,-0.96 2.64,0.36 0.84,1.62L8.58,1.261L6.66,-0.42L12.239,-4.079C15.72,-1.319 20.939,2.82 23.579,5.4L17.64,9.66C16.919,8.88 16.02,7.92 14.939,6.96L12.539,7.08L12.539,9.599C12.539,10.86 12.659,11.4 13.56,11.4L17.039,11.4C18.06,11.4 19.739,11.28 20.64,10.98C20.759,12.78 20.939,15.599 21.18,17.22C20.159,17.64 18.659,17.699 17.22,17.699L13.26,17.699C6.899,17.699 5.52,15.479 5.52,9.54L5.52,7.56L1.74,7.86C0.66,13.439 -1.92,17.519 -9.84,20.22C-10.56,18.54 -12.359,15.84 -13.859,14.46C-14.279,21 -15.419,28.439 -18.419,34.679C-13.14,34.079 -8.159,33.058 -3.72,31.559C-4.38,31.019 -4.979,30.539 -5.64,29.999C-7.02,30.899 -8.46,31.739 -9.96,32.459C-11.039,30.959 -13.439,28.439 -14.939,27.18C-13.319,26.519 -11.819,25.68 -10.319,24.779C-10.979,23.819 -11.579,22.859 -12.119,21.899L-6.12,18.96C-5.819,19.5 -5.46,20.04 -5.1,20.58C-3.359,18.84 -1.92,16.979 -0.84,15.12L6.779,17.46C6.42,18 6.06,18.599 5.64,19.14L13.5,19.14L14.939,18.84L20.159,21.539Z" style="fill:rgb(237,89,104);fill-rule:nonzero;"/>
        </g>
        <g transform="matrix(1,0,0,1,1255.68,1236)">
            <path d="M0,21.898C1.439,22.018 2.52,22.018 3.42,22.018C4.319,22.018 5.279,21.898 6.06,21.539C7.199,20.938 7.619,19.798 7.619,17.878C7.619,14.818 6.18,10.619 1.38,6.298C2.939,2.339 4.859,-3.361 6.3,-7.92L0,-7.92L0,21.898ZM17.039,-12.481C14.879,-6.721 12.239,-0.001 9.84,5.218C14.939,10.378 15.839,15.058 15.839,18.838C15.839,23.578 14.64,26.578 12.06,28.257C10.8,29.098 9.3,29.638 7.56,29.877C6.119,30.058 4.08,30.118 2.1,30.058C1.979,27.837 1.2,24.478 0,22.198L0,38.158L-8.22,38.158L-8.22,-16.081L9.539,-16.081L10.8,-16.38L17.039,-12.481ZM-24.06,-7.861C-24.06,-5.941 -24.119,-4.081 -24.18,-2.221L-20.1,-2.221L-20.039,-7.861L-24.06,-7.861ZM-20.159,10.859L-20.159,5.399L-24.539,5.399C-24.719,7.258 -24.839,9.058 -25.02,10.859L-20.159,10.859ZM-11.22,-15.72C-11.22,-15.72 -11.279,-12.54 -11.279,-11.46C-11.399,18.718 -11.34,29.757 -13.14,32.877C-14.64,35.458 -15.899,36.297 -17.999,36.898C-19.919,37.437 -22.499,37.437 -25.259,37.377C-25.379,34.738 -26.399,30.717 -27.839,28.078C-25.979,28.257 -24.299,28.257 -23.159,28.257C-22.319,28.257 -21.779,27.898 -21.299,26.877C-20.76,25.978 -20.52,23.518 -20.34,18.478L-26.159,18.478C-27.599,26.337 -30.059,33.058 -34.019,38.278C-35.219,36.658 -39.118,33.177 -41.099,31.797C-38.158,28.377 -36.179,23.818 -34.919,18.478L-39.658,18.478L-39.658,10.859L-33.599,10.859C-33.358,9.119 -33.239,7.258 -33.059,5.399L-38.879,5.399L-38.879,-2.221L-32.759,-2.221C-32.699,-4.081 -32.699,-5.941 -32.699,-7.861L-39.479,-7.861L-39.479,-15.72L-11.22,-15.72Z" style="fill:rgb(237,89,104);fill-rule:nonzero;"/>
        </g>
        <g transform="matrix(1,0,0,1,0,-5099.92)">
            <path d="M1321.32,6338.08L1317.96,6338.08L1317.96,6342.28L1321.32,6342.28L1321.32,6338.08ZM1321.32,6327.28L1317.96,6327.28L1317.96,6331.36L1321.32,6331.36L1321.32,6327.28ZM1309.86,6338.08L1306.56,6338.08L1306.56,6342.28L1309.86,6342.28L1309.86,6338.08ZM1306.56,6331.36L1309.86,6331.36L1309.86,6327.28L1306.56,6327.28L1306.56,6331.36ZM1331.58,6365.26L1331.58,6372.88L1297.26,6372.88L1297.26,6365.26L1309.86,6365.26L1309.86,6360.64L1299.36,6360.64L1299.36,6353.08L1309.86,6353.08L1309.86,6349.54L1298.82,6349.54L1298.82,6344.26C1297.14,6345.7 1295.7,6347.14 1294.44,6348.28C1296.24,6350.02 1297.92,6351.7 1298.58,6352.42L1294.14,6359.2C1293.18,6357.58 1291.74,6355.42 1290.18,6353.26L1290.18,6374.2L1282.38,6374.2L1282.38,6354.04C1280.82,6355.66 1279.26,6357.16 1277.7,6358.42C1277.16,6356.02 1275.3,6351.34 1274.22,6349.66C1279.02,6346.36 1283.7,6340.78 1286.82,6334.9L1276.14,6334.9L1276.14,6327.1L1284.66,6327.1C1283.58,6325 1282.08,6322.48 1280.76,6320.56L1287,6316.72C1288.8,6319.18 1290.9,6322.36 1292.04,6324.46L1288.26,6327.1L1291.14,6327.1L1292.52,6326.74L1296.78,6330.22C1295.1,6334.84 1292.82,6339.46 1290.18,6343.72L1290.18,6344.2L1290.66,6344.68C1292.1,6342.94 1293.72,6340.6 1294.62,6338.92L1298.82,6342.88L1298.82,6320.02L1329.48,6320.02L1329.48,6349.54L1317.96,6349.54L1317.96,6353.08L1329.9,6353.08L1329.9,6360.64L1317.96,6360.64L1317.96,6365.26L1331.58,6365.26Z" style="fill:rgb(237,89,104);fill-rule:nonzero;"/>
        </g>
        <g transform="matrix(1,0,0,1,0,-5100.34)">
            <path d="M1381.2,6357.16L1375.38,6357.16L1375.38,6359.32L1381.2,6359.32L1381.2,6357.16ZM1381.2,6349.18L1375.38,6349.18L1375.38,6351.28L1381.2,6351.28L1381.2,6349.18ZM1366.32,6337.3C1368.06,6338.02 1369.92,6338.8 1371.72,6339.58C1372.8,6338.86 1373.94,6338.08 1375.02,6337.3L1366.32,6337.3ZM1367.4,6357.16L1361.46,6357.16L1361.46,6359.32L1367.4,6359.32L1367.4,6357.16ZM1361.46,6351.28L1367.4,6351.28L1367.4,6349.18L1361.46,6349.18L1361.46,6351.28ZM1389.3,6367.54C1389.3,6370.84 1388.64,6372.34 1386.48,6373.36C1384.38,6374.38 1381.56,6374.44 1377.96,6374.44C1377.66,6372.52 1376.7,6370 1375.86,6368.32C1377.42,6368.38 1379.64,6368.38 1380.24,6368.38C1380.96,6368.38 1381.2,6368.14 1381.2,6367.48L1381.2,6365.2L1375.38,6365.2L1375.38,6373.66L1367.4,6373.66L1367.4,6365.2L1361.46,6365.2L1361.46,6374.5L1353.48,6374.5L1353.48,6343L1364.28,6343C1362.6,6342.28 1360.98,6341.62 1359.48,6341.02L1363.44,6337.3L1355.7,6337.3L1355.7,6331.42L1382.16,6331.42L1383.96,6331L1388.88,6335.5C1385.7,6337.84 1382.04,6340.42 1378.26,6342.64C1378.5,6342.76 1378.74,6342.88 1378.98,6343L1389.3,6343L1389.3,6367.54ZM1391.58,6322.42L1391.58,6329.86L1351.98,6329.86L1351.98,6341.74C1351.98,6351.52 1350.66,6366.04 1342.74,6374.38C1341.54,6372.7 1338.3,6369.52 1336.62,6368.5C1340.04,6364.78 1341.84,6360.1 1342.8,6355.3C1340.82,6356.5 1338.84,6357.64 1336.92,6358.78L1334.52,6350.62C1336.98,6349.66 1340.28,6348.1 1343.82,6346.42C1343.88,6344.8 1343.88,6343.24 1343.88,6341.74L1343.88,6339.58L1338.36,6342.52C1337.88,6339.46 1336.26,6334.6 1334.64,6330.88L1340.94,6327.7C1342.02,6329.74 1343.04,6332.2 1343.88,6334.48L1343.88,6322.42L1363.32,6322.42C1362.78,6321.22 1362.18,6320.02 1361.52,6319L1369.98,6316.84C1371.18,6318.46 1372.44,6320.62 1373.16,6322.42L1391.58,6322.42Z" style="fill:rgb(237,89,104);fill-rule:nonzero;"/>
        </g>
    </g>
</svg>
