<?xml version="1.0" encoding="UTF-8" standalone="no"?>
<!DOCTYPE svg PUBLIC "-//W3C//DTD SVG 1.1//EN" "http://www.w3.org/Graphics/SVG/1.1/DTD/svg11.dtd">
<svg width="100%" height="100%" viewBox="0 0 1045 59" version="1.1" xmlns="http://www.w3.org/2000/svg" xmlns:xlink="http://www.w3.org/1999/xlink" xml:space="preserve" xmlns:serif="http://www.serif.com/" style="fill-rule:evenodd;clip-rule:evenodd;stroke-linejoin:round;stroke-miterlimit:2;">
    <g transform="matrix(1,0,0,1,-437.581,-3314.34)">
        <g transform="matrix(1,0,0,1,487.799,3338.76)">
            <path d="M0,9.72C-1.32,6.42 -4.021,1.8 -7.14,-2.519C-4.86,-6.239 -2.58,-10.739 -1.32,-13.799L5.76,-12.299C4.079,-8.759 2.159,-5.519 0.42,-2.579C2.939,0.66 5.399,4.441 6.6,7.021L0,9.72ZM-4.5,-12.359C-6.06,-8.879 -7.739,-5.639 -9.36,-2.699C-6.96,0.54 -4.681,4.26 -3.54,6.84L-10.14,9.48C-11.34,6.241 -13.8,1.681 -16.739,-2.639C-14.64,-6.359 -12.54,-10.739 -11.46,-13.799L-4.5,-12.359ZM6.06,-14.218L-24.479,-14.218L-24.479,-21.478L6.06,-21.478L6.06,-14.218ZM7.079,24.659L7.079,31.919L-25.379,31.919L-25.379,24.659L-13.56,24.659L-13.56,17.159L-22.919,17.159L-22.919,9.9L5.22,9.9L5.22,17.159L-4.8,17.159L-4.8,24.659L7.079,24.659ZM-20.04,9.72C-21.06,6.42 -23.339,1.8 -25.979,-2.519C-24.06,-6.239 -22.079,-10.739 -21.06,-13.799L-14.1,-12.359C-15.6,-8.879 -17.22,-5.519 -18.72,-2.579C-16.499,0.781 -14.399,4.561 -13.38,7.14L-20.04,9.72ZM-32.819,5.58L-34.978,5.58L-34.978,8.04L-32.819,8.04L-32.819,5.58ZM-32.819,-2.399L-34.978,-2.399L-34.978,0L-32.819,0L-32.819,-2.399ZM-42.538,8.04L-40.438,8.04L-40.438,5.58L-42.538,5.58L-42.538,8.04ZM-42.538,0L-40.438,0L-40.438,-2.399L-42.538,-2.399L-42.538,0ZM-34.139,24.36L-34.139,33.299L-41.278,33.299L-41.278,24.36L-50.218,24.36L-50.218,16.8L-41.278,16.8L-41.278,13.98L-48.418,13.98L-48.418,-8.339L-41.339,-8.339L-41.339,-10.859L-49.318,-10.859L-49.318,-18.299L-41.339,-18.299L-41.339,-23.579L-34.259,-23.579L-34.259,-18.299L-26.039,-18.299L-26.039,-10.859L-34.259,-10.859L-34.259,-8.339L-26.64,-8.339L-26.64,13.98L-34.139,13.98L-34.139,16.8L-25.319,16.8L-25.319,24.36L-34.139,24.36Z" style="fill:rgb(44,58,96);fill-rule:nonzero;"/>
        </g>
        <g transform="matrix(1,0,0,1,547.799,3338.76)">
            <path d="M0,9.72C-1.32,6.42 -4.021,1.8 -7.14,-2.519C-4.86,-6.239 -2.58,-10.739 -1.32,-13.799L5.76,-12.299C4.079,-8.759 2.159,-5.519 0.42,-2.579C2.939,0.66 5.399,4.441 6.6,7.021L0,9.72ZM-4.5,-12.359C-6.06,-8.879 -7.739,-5.639 -9.36,-2.699C-6.96,0.54 -4.681,4.26 -3.54,6.84L-10.14,9.48C-11.34,6.241 -13.8,1.681 -16.739,-2.639C-14.64,-6.359 -12.54,-10.739 -11.46,-13.799L-4.5,-12.359ZM6.06,-14.218L-24.479,-14.218L-24.479,-21.478L6.06,-21.478L6.06,-14.218ZM7.079,24.659L7.079,31.919L-25.379,31.919L-25.379,24.659L-13.56,24.659L-13.56,17.159L-22.919,17.159L-22.919,9.9L5.22,9.9L5.22,17.159L-4.8,17.159L-4.8,24.659L7.079,24.659ZM-20.04,9.72C-21.06,6.42 -23.339,1.8 -25.979,-2.519C-24.06,-6.239 -22.079,-10.739 -21.06,-13.799L-14.1,-12.359C-15.6,-8.879 -17.22,-5.519 -18.72,-2.579C-16.499,0.781 -14.399,4.561 -13.38,7.14L-20.04,9.72ZM-32.819,5.58L-34.978,5.58L-34.978,8.04L-32.819,8.04L-32.819,5.58ZM-32.819,-2.399L-34.978,-2.399L-34.978,0L-32.819,0L-32.819,-2.399ZM-42.538,8.04L-40.438,8.04L-40.438,5.58L-42.538,5.58L-42.538,8.04ZM-42.538,0L-40.438,0L-40.438,-2.399L-42.538,-2.399L-42.538,0ZM-34.139,24.36L-34.139,33.299L-41.278,33.299L-41.278,24.36L-50.218,24.36L-50.218,16.8L-41.278,16.8L-41.278,13.98L-48.418,13.98L-48.418,-8.339L-41.339,-8.339L-41.339,-10.859L-49.318,-10.859L-49.318,-18.299L-41.339,-18.299L-41.339,-23.579L-34.259,-23.579L-34.259,-18.299L-26.039,-18.299L-26.039,-10.859L-34.259,-10.859L-34.259,-8.339L-26.64,-8.339L-26.64,13.98L-34.139,13.98L-34.139,16.8L-25.319,16.8L-25.319,24.36L-34.139,24.36Z" style="fill:rgb(44,58,96);fill-rule:nonzero;"/>
        </g>
        <g transform="matrix(1,0,0,1,605.459,3345.6)">
            <path d="M0,-3.121C1.86,1.139 5.64,5.279 9.96,7.559C8.399,8.999 5.939,11.999 4.8,13.919C0.96,11.159 -2.46,7.319 -4.8,3.359L-9.899,3.359L-9.899,-3.121L0,-3.121ZM6.419,-19.26C1.979,-15.42 -4.86,-12.84 -11.46,-11.221C-12.479,-12.78 -14.34,-14.94 -16.02,-16.32C-10.319,-17.34 -3.54,-19.44 -0.24,-21.96L6.419,-19.26ZM4.979,-26.64C0.3,-23.46 -6.36,-20.82 -11.64,-19.26C-12.84,-20.76 -14.819,-22.8 -16.62,-24.12C-11.819,-25.319 -4.979,-27.6 -1.62,-29.819L4.979,-26.64ZM7.919,-11.761C3.239,-6.841 -4.44,-4.141 -13.26,-2.461C-14.1,-4.261 -15.84,-6.66 -17.399,-8.1C-10.021,-9 -2.64,-10.98 0.96,-14.16L7.919,-11.761ZM0.84,12.299C3.18,15.839 6.54,20.698 8.22,23.698L1.499,26.698C1.14,25.918 0.659,25.019 0.06,23.998C-15.12,25.019 -17.999,25.378 -19.919,26.098C-20.339,24.718 -21.6,21.238 -22.499,19.379C-21.239,19.078 -20.1,18.179 -18.779,16.799C-17.46,15.419 -13.38,10.259 -11.04,5.099L-3.78,8.759C-5.7,11.759 -8.16,14.939 -10.86,17.818L-3.84,17.459L-5.46,14.879L0.84,12.299ZM-27.479,-8.04L-25.499,-8.82L-33.719,-8.82C-34.499,-8.1 -35.399,-7.381 -36.358,-6.721L-26.759,-7.2L-27.479,-8.04ZM-21.6,-0.841C-22.079,-1.501 -22.739,-2.341 -23.46,-3.301C-39.659,-2.221 -41.999,-2.1 -43.738,-1.501C-44.038,-2.52 -44.818,-4.921 -45.419,-6.24C-44.639,-6.421 -43.919,-6.841 -43.079,-7.44C-42.659,-7.681 -41.999,-8.16 -41.159,-8.82L-46.438,-8.82L-46.438,-13.44L-41.999,-13.44L-41.999,-29.1L-17.88,-29.1L-17.88,-24.479L-34.139,-24.479L-34.139,-23.34L-19.859,-23.34L-19.859,-19.62L-34.139,-19.62L-34.139,-18.42L-19.859,-18.42L-19.859,-14.7L-34.139,-14.7L-34.139,-13.44L-16.68,-13.44L-16.68,-8.82L-20.759,-8.82C-19.02,-6.961 -17.04,-4.801 -15.899,-3.301L-21.6,-0.841ZM-30.239,9.419C-28.259,10.679 -24.06,13.679 -22.979,14.578L-27.479,20.278C-28.14,19.379 -29.159,18.118 -30.239,16.858L-30.239,26.338L-37.919,26.338L-37.919,17.698C-39.479,19.858 -41.219,21.778 -42.958,23.219C-44.158,21.479 -46.499,18.839 -48.118,17.459C-44.878,15.479 -41.519,12.179 -39.059,8.699L-46.318,8.699L-46.318,2.219L-37.919,2.219L-37.919,-1.74L-30.239,-1.74L-30.239,2.219L-23.579,2.219L-23.579,7.679C-20.939,5.039 -18.72,1.56 -17.52,-2.041L-10.38,-0.301C-12.42,5.339 -15.96,10.799 -19.859,14.158C-21.06,12.839 -23.819,10.379 -25.439,9.299C-25.199,9.119 -24.959,8.879 -24.72,8.699L-30.239,8.699L-30.239,9.419Z" style="fill:rgb(44,58,96);fill-rule:nonzero;"/>
        </g>
        <g transform="matrix(1,0,0,1,665.459,3345.6)">
            <path d="M0,-3.121C1.86,1.139 5.64,5.279 9.96,7.559C8.399,8.999 5.939,11.999 4.8,13.919C0.96,11.159 -2.46,7.319 -4.8,3.359L-9.899,3.359L-9.899,-3.121L0,-3.121ZM6.419,-19.26C1.979,-15.42 -4.86,-12.84 -11.46,-11.221C-12.479,-12.78 -14.34,-14.94 -16.02,-16.32C-10.319,-17.34 -3.54,-19.44 -0.24,-21.96L6.419,-19.26ZM4.979,-26.64C0.3,-23.46 -6.36,-20.82 -11.64,-19.26C-12.84,-20.76 -14.819,-22.8 -16.62,-24.12C-11.819,-25.319 -4.979,-27.6 -1.62,-29.819L4.979,-26.64ZM7.919,-11.761C3.239,-6.841 -4.44,-4.141 -13.26,-2.461C-14.1,-4.261 -15.84,-6.66 -17.399,-8.1C-10.021,-9 -2.64,-10.98 0.96,-14.16L7.919,-11.761ZM0.84,12.299C3.18,15.839 6.54,20.698 8.22,23.698L1.499,26.698C1.14,25.918 0.659,25.019 0.06,23.998C-15.12,25.019 -17.999,25.378 -19.919,26.098C-20.339,24.718 -21.6,21.238 -22.499,19.379C-21.239,19.078 -20.1,18.179 -18.779,16.799C-17.46,15.419 -13.38,10.259 -11.04,5.099L-3.78,8.759C-5.7,11.759 -8.16,14.939 -10.86,17.818L-3.84,17.459L-5.46,14.879L0.84,12.299ZM-27.479,-8.04L-25.499,-8.82L-33.719,-8.82C-34.499,-8.1 -35.399,-7.381 -36.358,-6.721L-26.759,-7.2L-27.479,-8.04ZM-21.6,-0.841C-22.079,-1.501 -22.739,-2.341 -23.46,-3.301C-39.659,-2.221 -41.999,-2.1 -43.738,-1.501C-44.038,-2.52 -44.818,-4.921 -45.419,-6.24C-44.639,-6.421 -43.919,-6.841 -43.079,-7.44C-42.659,-7.681 -41.999,-8.16 -41.159,-8.82L-46.438,-8.82L-46.438,-13.44L-41.999,-13.44L-41.999,-29.1L-17.88,-29.1L-17.88,-24.479L-34.139,-24.479L-34.139,-23.34L-19.859,-23.34L-19.859,-19.62L-34.139,-19.62L-34.139,-18.42L-19.859,-18.42L-19.859,-14.7L-34.139,-14.7L-34.139,-13.44L-16.68,-13.44L-16.68,-8.82L-20.759,-8.82C-19.02,-6.961 -17.04,-4.801 -15.899,-3.301L-21.6,-0.841ZM-30.239,9.419C-28.259,10.679 -24.06,13.679 -22.979,14.578L-27.479,20.278C-28.14,19.379 -29.159,18.118 -30.239,16.858L-30.239,26.338L-37.919,26.338L-37.919,17.698C-39.479,19.858 -41.219,21.778 -42.958,23.219C-44.158,21.479 -46.499,18.839 -48.118,17.459C-44.878,15.479 -41.519,12.179 -39.059,8.699L-46.318,8.699L-46.318,2.219L-37.919,2.219L-37.919,-1.74L-30.239,-1.74L-30.239,2.219L-23.579,2.219L-23.579,7.679C-20.939,5.039 -18.72,1.56 -17.52,-2.041L-10.38,-0.301C-12.42,5.339 -15.96,10.799 -19.859,14.158C-21.06,12.839 -23.819,10.379 -25.439,9.299C-25.199,9.119 -24.959,8.879 -24.72,8.699L-30.239,8.699L-30.239,9.419Z" style="fill:rgb(44,58,96);fill-rule:nonzero;"/>
        </g>
        <g transform="matrix(1,0,0,1,721.98,3343.74)">
            <path d="M0,2.1C0.539,3.96 1.139,5.76 1.859,7.44C3.659,5.76 5.699,3.78 7.079,2.1L0,2.1ZM-2.58,15.959C-4.5,11.94 -5.881,7.26 -6.961,2.1L-9.84,2.1L-9.84,17.459L-2.58,15.959ZM-9.84,-5.339L1.859,-5.339L1.859,-8.759L-9.84,-8.759L-9.84,-5.339ZM-9.84,-15.719L1.859,-15.719L1.859,-18.839L-9.84,-18.839L-9.84,-15.719ZM-34.68,-13.019L-27.42,-13.019L-27.42,-19.199L-34.68,-19.199L-34.68,-13.019ZM12.539,8.039C10.139,10.02 7.499,12.12 5.219,13.74C7.26,16.679 9.779,19.079 12.959,20.759C11.159,22.439 8.639,25.859 7.439,28.259C3.059,25.439 -0.061,21.299 -2.461,16.259C-2.521,18.719 -2.4,22.019 -2.101,23.879C-13.561,26.639 -16.08,27.599 -17.64,28.619C-18.24,26.699 -20.04,23.399 -21.3,21.899C-20.82,21.599 -20.34,21.24 -19.859,20.7C-27.84,22.919 -36.359,25.139 -43.02,26.879L-44.939,18.719L-42.419,18.24L-42.419,-2.16L-35.52,-2.16L-35.52,16.74L-33.479,16.259L-33.479,-5.759L-41.999,-5.759L-41.999,-26.519L-19.56,-26.519L-19.56,-5.759L-25.92,-5.759L-25.92,-0.48L-20.16,-0.48L-20.16,7.02L-25.92,7.02L-25.92,14.519L-20.58,13.2L-19.619,20.459C-18.779,19.379 -18.12,17.999 -18.12,16.2L-18.12,-26.279L9.779,-26.279L9.779,2.1L7.439,2.1L12.539,8.039Z" style="fill:rgb(44,58,96);fill-rule:nonzero;"/>
        </g>
        <g transform="matrix(1,0,0,1,775.079,3361.74)">
            <path d="M0,-36.42L-7.859,-36.42L-7.859,-43.859L0,-43.859L0,-46.679L8.64,-46.679L8.64,-43.859L18.119,-43.859L18.119,-36.42L8.64,-36.42L8.64,-33.42L0,-33.42L0,-36.42ZM-8.22,-22.86L-2.279,-22.86C-0.96,-23.58 0.359,-24.3 1.561,-25.08L-8.22,-25.08L-8.22,-22.86ZM4.74,0.539L-16.139,0.539L-16.139,2.398L4.74,2.398L4.74,0.539ZM4.74,-6.601L-16.139,-6.601L-16.139,-4.742L4.74,-4.742L4.74,-6.601ZM-25.679,-36.42L-35.938,-36.42L-35.938,-43.859L-25.679,-43.859L-25.679,-46.679L-17.039,-46.679L-17.039,-43.859L-9.72,-43.859L-9.72,-36.42L-17.039,-36.42L-17.039,-33.42L-25.679,-33.42L-25.679,-36.42ZM-1.561,-15.421C-3.18,-14.58 -4.859,-13.801 -6.6,-13.081L13.68,-13.081L13.68,10.259L4.74,10.259L4.74,8.879L-16.139,8.879L-16.139,10.259L-24.659,10.259L-24.659,-6.781C-27.779,-5.881 -30.959,-5.101 -34.139,-4.441C-34.918,-6.181 -36.719,-9.661 -37.918,-11.28C-31.979,-12.301 -26.099,-13.681 -20.459,-15.421L-35.758,-15.421L-35.758,-22.86L-16.859,-22.86L-16.859,-25.08L-30.839,-25.08L-30.839,-32.1L-16.859,-32.1L-16.859,-34.8L-8.22,-34.8L-8.22,-32.1L4.32,-32.1L4.32,-26.88C7.14,-28.86 9.66,-31.02 11.819,-33.359L18.239,-29.399C16.02,-27.06 13.5,-24.9 10.74,-22.86L18.539,-22.86L18.539,-15.421L-1.561,-15.421Z" style="fill:rgb(44,58,96);fill-rule:nonzero;"/>
        </g>
        <g transform="matrix(1,0,0,1,841.438,3354)">
            <path d="M0,-20.818C-0.24,-20.098 -0.479,-19.438 -0.66,-18.779C-0.24,-15.298 0.42,-11.699 1.381,-8.159C2.28,-11.999 2.82,-16.199 3.18,-20.818L0,-20.818ZM-8.399,9.481C-5.939,7.38 -4.02,4.92 -2.459,2.161C-3.719,-1.319 -4.68,-4.919 -5.399,-8.519C-5.939,-7.679 -6.479,-6.899 -7.079,-6.119C-7.379,-6.779 -7.859,-7.679 -8.399,-8.699L-8.399,9.481ZM-15.959,-4.319L-20.099,-4.319L-20.099,4.141L-15.959,4.141L-15.959,-4.319ZM10.5,-20.818C9.66,-11.699 8.221,-4.019 5.52,2.401C7.5,5.88 10.02,8.821 13.32,10.92C11.82,12.42 9.359,15.661 8.28,17.76C5.46,15.661 3.18,12.96 1.32,9.96C-0.84,12.96 -3.479,15.54 -6.719,17.76C-7.619,16.32 -10.319,13.26 -11.879,11.94L-11.1,11.46L-20.099,11.46L-20.099,15.9L-27.539,15.9L-27.539,-11.638L-21.959,-11.638L-21.959,-20.638L-28.078,-20.638L-28.078,-28.438L-21.959,-28.438L-21.959,-38.097L-13.739,-38.097L-13.739,-28.438L-8.34,-28.438L-8.34,-20.638L-13.739,-20.638L-13.739,-11.638L-10.139,-11.638C-10.68,-12.479 -11.219,-13.199 -11.639,-13.739C-7.439,-19.678 -5.159,-29.098 -4.02,-38.818L3.721,-37.498C3.24,-34.318 2.641,-31.198 1.92,-28.078L13.32,-28.078L13.32,-20.818L10.5,-20.818ZM-25.318,-36.478C-26.639,-32.458 -28.258,-28.198 -30.118,-24.118L-30.118,18.06L-38.098,18.06L-38.098,-10.019C-38.938,-8.879 -39.777,-7.798 -40.618,-6.779C-41.277,-8.939 -43.378,-14.039 -44.697,-16.379C-40.078,-21.839 -35.818,-30.358 -33.358,-38.878L-25.318,-36.478Z" style="fill:rgb(44,58,96);fill-rule:nonzero;"/>
        </g>
        <g transform="matrix(1,0,0,1,909.298,3334.26)">
            <path d="M0,18C1.5,22.079 3,27.359 3.72,30.899L-3.18,33.359C-3.72,29.759 -5.22,24.3 -6.539,20.159L0,18ZM-7.68,9.72C-7.979,8.82 -8.339,7.86 -8.64,7.021C-9.6,8.101 -10.499,9.18 -11.459,10.2L-7.68,9.72ZM-7.079,20.46C-6.239,24.899 -5.52,30.6 -5.279,34.439L-12.659,35.999C-12.719,32.1 -13.379,26.279 -14.039,21.84L-7.079,20.46ZM-14.699,22.199C-14.999,27.72 -15.899,33.539 -17.159,37.199C-18.839,36.299 -22.259,35.219 -24.118,34.679C-22.799,31.259 -22.198,25.919 -21.959,21.06L-14.699,22.199ZM33.239,4.08C31.859,10.26 29.759,16.92 27.779,21.42L20.699,19.08C21.479,16.859 22.319,13.979 23.039,10.92L20.22,10.92L20.22,28.919C20.22,32.759 19.5,34.979 16.92,36.299C14.34,37.559 10.92,37.619 6.42,37.619C6.12,35.279 5.04,31.799 3.96,29.64C6.42,29.759 9.78,29.759 10.62,29.759C11.58,29.699 11.88,29.52 11.88,28.739L11.88,10.92L0.061,10.92C0.78,12.84 1.32,14.64 1.681,16.02L-4.979,18.779C-5.159,18 -5.34,17.16 -5.579,16.2C-17.639,18.18 -19.979,18.84 -21.539,19.62C-21.959,18.06 -23.278,14.16 -24.179,12.06C-22.438,11.64 -21.059,10.32 -18.959,8.101C-18.239,7.38 -17.039,6 -15.599,4.2C-19.739,4.681 -21.059,5.04 -22.019,5.46C-22.438,3.9 -23.698,0.181 -24.599,-1.859C-23.278,-2.22 -22.198,-3.3 -20.938,-5.039C-19.619,-6.72 -15.719,-13.319 -13.499,-19.619L-5.819,-16.438C-7.979,-11.759 -10.979,-6.899 -14.039,-2.76L-10.499,-2.999C-8.879,-5.579 -7.26,-8.339 -5.939,-11.039L1.021,-6.479C-1.38,-2.459 -4.26,1.681 -7.379,5.521L-2.819,3.78C-1.92,5.88 -0.899,8.28 -0.06,10.56L-0.06,2.7L16.38,2.7C12.84,1.021 8.7,-0.72 5.34,-1.979L9.479,-7.799C11.28,-7.199 13.38,-6.479 15.54,-5.64C16.56,-6.779 17.64,-8.039 18.6,-9.359L2.101,-9.359L2.101,-17.159L24.6,-17.159L26.339,-17.639L31.739,-13.379C29.219,-9.959 25.979,-6.06 22.68,-2.76C24.119,-2.1 25.319,-1.499 26.339,-0.96L23.939,2.7L25.739,2.7L27.119,2.341L33.239,4.08Z" style="fill:rgb(237,89,104);fill-rule:nonzero;"/>
        </g>
        <g transform="matrix(1,0,0,1,984.537,3343.62)">
            <path d="M0,0.059L0,-4.92L4.261,-4.92C4.141,-7.081 3.42,-10.02 2.341,-11.88C3.96,-11.701 5.221,-11.64 6,-11.64C6.66,-11.64 7.141,-11.76 7.561,-12.3C7.98,-12.84 8.28,-14.52 8.46,-18.36L2.94,-18.36C2.04,-12.3 -0.119,-7.56 -6.119,-4.201L-0.959,-3.18C-1.14,-2.101 -1.38,-1.021 -1.619,0.059L0,0.059ZM-11.159,6.119C-9.779,3.419 -8.759,0.059 -8.159,-3.3C-8.759,-4.621 -9.899,-6.481 -11.159,-7.861L-11.159,6.119ZM-18.238,2.699L-20.518,2.699L-20.518,6.479L-18.238,6.479L-18.238,2.699ZM-20.519,-3.361L-18.239,-3.361L-18.239,-6.661L-20.519,-6.661L-20.519,-3.361ZM-28.378,-3.361L-26.158,-3.361L-26.158,-6.661L-28.378,-6.661L-28.378,-3.361ZM-28.378,2.939C-28.378,4.08 -28.378,5.279 -28.438,6.479L-26.158,6.479L-26.158,2.699L-28.378,2.699L-28.378,2.939ZM-27.358,-16.32C-27.898,-15.18 -28.378,-14.041 -28.918,-12.961L-24.719,-12.961C-24.299,-13.98 -23.879,-15.18 -23.519,-16.32L-27.358,-16.32ZM17.819,19.138L8.28,19.138L8.28,28.318L0,28.318L0,19.138L-10.319,19.138L-10.319,11.699L0,11.699L0,7.319L-4.02,7.319C-4.619,8.819 -5.339,10.199 -6.06,11.338C-7.199,10.498 -9.479,9.359 -11.159,8.579L-11.159,20.458C-11.159,23.638 -11.699,25.798 -13.679,27.058C-15.719,28.258 -18.179,28.438 -21.599,28.438C-21.839,26.398 -22.979,23.038 -23.998,21.119C-22.019,21.239 -19.858,21.239 -19.139,21.239C-18.479,21.239 -18.238,20.998 -18.238,20.279L-18.238,12.779L-28.858,12.779C-29.519,18.478 -30.838,24.358 -33.658,28.618C-34.918,27.478 -38.038,25.498 -39.658,24.778C-35.578,18.598 -35.278,9.659 -35.278,2.879L-35.278,-6.42C-36.778,-7.741 -38.758,-9.42 -40.078,-10.26C-36.058,-14.581 -32.998,-21.54 -31.438,-28.559L-23.759,-26.879C-24.118,-25.5 -24.479,-24.12 -24.959,-22.799L-20.459,-22.799L-19.379,-23.1L-14.459,-20.1C-15.239,-17.88 -16.379,-15.36 -17.519,-12.961L-11.159,-12.961L-11.159,-9.9C-7.079,-11.94 -5.52,-14.82 -4.859,-18.36L-10.799,-18.36L-10.799,-25.44L16.32,-25.44C16.32,-25.44 16.26,-23.7 16.2,-22.799C15.96,-13.38 15.479,-9.06 14.16,-7.38C13.08,-6.001 11.82,-5.461 10.26,-5.161C9.54,-5.041 8.521,-4.981 7.44,-4.92L8.28,-4.92L8.28,0.059L16.56,0.059L16.56,7.319L8.28,7.319L8.28,11.699L17.819,11.699L17.819,19.138Z" style="fill:rgb(237,89,104);fill-rule:nonzero;"/>
        </g>
        <g transform="matrix(1,0,0,1,1035.84,3330.96)">
            <path d="M0,25.619C1.2,26.519 2.58,27.299 4.02,28.079C5.58,27.18 6.96,26.159 8.16,25.079L0.54,25.079L0,25.619ZM-13.68,-4.079L-13.68,8.34C-13.68,10.14 -13.739,12.12 -13.859,14.16C-8.939,12.84 -6.96,10.98 -6.06,8.52C-9.06,8.88 -10.199,9.18 -11.22,9.54C-11.579,8.04 -12.72,4.62 -13.499,2.7C-12.359,2.46 -11.22,1.92 -9.899,1.14C-8.699,0.54 -5.34,-1.5 -2.52,-4.079L-13.68,-4.079ZM20.159,21.539C18.18,25.439 15.479,28.619 12.18,31.199C16.499,32.459 21.479,33.239 27.179,33.598C25.619,35.339 23.639,38.699 22.739,40.858C15.479,40.018 9.3,38.398 4.14,36.119C-1.5,38.759 -7.979,40.438 -14.939,41.518C-15.659,39.539 -17.159,36.539 -18.539,34.859C-19.679,37.259 -21.119,39.419 -22.919,41.339C-24.119,39.719 -27.358,36.539 -29.039,35.459C-25.619,31.679 -23.819,26.879 -22.859,22.019C-24.898,23.279 -26.938,24.479 -28.919,25.619L-31.318,17.46C-28.799,16.5 -25.438,14.88 -21.839,13.14C-21.779,11.46 -21.779,9.84 -21.779,8.28L-21.779,6.48L-27.358,9.42C-27.779,6.36 -29.398,1.44 -31.019,-2.279L-24.898,-5.279C-23.759,-2.999 -22.559,-0.239 -21.779,2.221L-21.779,-11.339L-1.979,-11.339C-2.34,-12.299 -2.76,-13.259 -3.18,-14.099L4.74,-15.899C5.58,-14.579 6.359,-12.839 6.899,-11.339L25.679,-11.339L25.679,-4.079L1.56,-4.079L6,-2.34C4.439,-0.96 2.64,0.36 0.84,1.62L8.58,1.261L6.66,-0.42L12.239,-4.079C15.72,-1.319 20.939,2.82 23.579,5.4L17.64,9.66C16.919,8.88 16.02,7.92 14.939,6.96L12.539,7.08L12.539,9.599C12.539,10.86 12.659,11.4 13.56,11.4L17.039,11.4C18.06,11.4 19.739,11.28 20.64,10.98C20.759,12.78 20.939,15.599 21.18,17.22C20.159,17.64 18.659,17.699 17.22,17.699L13.26,17.699C6.899,17.699 5.52,15.479 5.52,9.54L5.52,7.56L1.74,7.86C0.66,13.439 -1.92,17.519 -9.84,20.22C-10.56,18.54 -12.359,15.84 -13.859,14.46C-14.279,21 -15.419,28.439 -18.419,34.679C-13.14,34.079 -8.159,33.058 -3.72,31.559C-4.38,31.019 -4.979,30.539 -5.64,29.999C-7.02,30.899 -8.46,31.739 -9.96,32.459C-11.039,30.959 -13.439,28.439 -14.939,27.18C-13.319,26.519 -11.819,25.68 -10.319,24.779C-10.979,23.819 -11.579,22.859 -12.119,21.899L-6.12,18.96C-5.819,19.5 -5.46,20.04 -5.1,20.58C-3.359,18.84 -1.92,16.979 -0.84,15.12L6.779,17.46C6.42,18 6.06,18.599 5.64,19.14L13.5,19.14L14.939,18.84L20.159,21.539Z" style="fill:rgb(237,89,104);fill-rule:nonzero;"/>
        </g>
        <g transform="matrix(1,0,0,1,0,-904.652)">
            <path d="M1111.2,4259.32L1105.38,4259.32L1105.38,4261.48L1111.2,4261.48L1111.2,4259.32ZM1111.2,4251.34L1105.38,4251.34L1105.38,4253.44L1111.2,4253.44L1111.2,4251.34ZM1096.32,4239.46C1098.06,4240.18 1099.92,4240.96 1101.72,4241.74C1102.8,4241.02 1103.94,4240.24 1105.02,4239.46L1096.32,4239.46ZM1097.4,4259.32L1091.46,4259.32L1091.46,4261.48L1097.4,4261.48L1097.4,4259.32ZM1091.46,4253.44L1097.4,4253.44L1097.4,4251.34L1091.46,4251.34L1091.46,4253.44ZM1119.3,4269.69C1119.3,4272.99 1118.64,4274.49 1116.48,4275.51C1114.38,4276.53 1111.56,4276.59 1107.96,4276.59C1107.66,4274.67 1106.7,4272.15 1105.86,4270.48C1107.42,4270.53 1109.64,4270.53 1110.24,4270.53C1110.96,4270.53 1111.2,4270.3 1111.2,4269.64L1111.2,4267.36L1105.38,4267.36L1105.38,4275.82L1097.4,4275.82L1097.4,4267.36L1091.46,4267.36L1091.46,4276.65L1083.48,4276.65L1083.48,4245.16L1094.28,4245.16C1092.6,4244.44 1090.98,4243.78 1089.48,4243.18L1093.44,4239.46L1085.7,4239.46L1085.7,4233.58L1112.16,4233.58L1113.96,4233.16L1118.88,4237.66C1115.7,4240 1112.04,4242.58 1108.26,4244.8C1108.5,4244.92 1108.74,4245.04 1108.98,4245.16L1119.3,4245.16L1119.3,4269.69ZM1121.58,4224.58L1121.58,4232.02L1081.98,4232.02L1081.98,4243.9C1081.98,4253.68 1080.66,4268.19 1072.74,4276.53C1071.54,4274.86 1068.3,4271.67 1066.62,4270.65C1070.04,4266.94 1071.84,4262.26 1072.8,4257.46C1070.82,4258.65 1068.84,4259.8 1066.92,4260.94L1064.52,4252.78C1066.98,4251.82 1070.28,4250.26 1073.82,4248.58C1073.88,4246.96 1073.88,4245.4 1073.88,4243.9L1073.88,4241.74L1068.36,4244.68C1067.88,4241.62 1066.26,4236.76 1064.64,4233.04L1070.94,4229.86C1072.02,4231.9 1073.04,4234.36 1073.88,4236.64L1073.88,4224.58L1093.32,4224.58C1092.78,4223.38 1092.18,4222.18 1091.52,4221.16L1099.98,4219C1101.18,4220.62 1102.44,4222.78 1103.16,4224.58L1121.58,4224.58Z" style="fill:rgb(237,89,104);fill-rule:nonzero;"/>
        </g>
        <g transform="matrix(1,0,0,1,1137.78,3337.26)">
            <path d="M0,12.36C-1.68,9.12 -5.819,4.32 -9.299,0.9L-2.699,-3.78C0.78,-0.66 5.22,3.839 7.14,7.08L0,12.36ZM41.759,1.26C38.398,5.04 34.438,9 31.079,12.059C34.979,16.019 39.539,19.319 44.698,21.599C42.599,23.399 39.719,26.999 38.278,29.459C30.779,25.439 24.899,19.319 20.279,11.88L20.279,24.479C20.279,29.279 19.38,31.678 16.62,33.119C13.859,34.619 9.78,34.919 4.38,34.859C4.021,32.339 2.7,28.258 1.44,25.679C4.8,25.859 8.521,25.859 9.72,25.859C10.86,25.859 11.28,25.499 11.28,24.419L11.28,17.399C4.92,21.719 -1.68,25.859 -7.26,29.279L-12.899,21.299C-7.199,18.54 2.46,13.139 11.28,8.099L11.28,-5.16L-10.799,-5.16L-10.799,-13.619L11.28,-13.619L11.28,-22.079L20.279,-22.079L20.279,-13.619L29.399,-13.619C27.359,-14.879 25.079,-16.079 23.159,-17.039L28.259,-22.559C31.799,-20.999 36.898,-18.479 39.479,-16.559L36.839,-13.619L42.959,-13.619L42.959,-5.16L20.279,-5.16L20.279,-4.499C21.779,-0.9 23.64,2.58 25.919,5.82C28.859,2.76 31.979,-0.9 34.019,-4.14L41.759,1.26Z" style="fill:rgb(44,58,96);fill-rule:nonzero;"/>
        </g>
        <g transform="matrix(1,0,0,1,1217.88,3372.06)">
            <path d="M0,-56.938C-0.06,-54.178 -0.18,-50.758 -0.48,-46.918C0.42,-38.399 4.2,-17.219 24.959,-7.98C22.259,-5.88 19.799,-2.88 18.539,-0.42C5.939,-6.48 -0.78,-17.04 -4.439,-26.819C-7.859,-16.98 -14.159,-7.08 -25.619,0C-27.179,-2.34 -29.999,-5.16 -32.938,-7.14C-8.819,-20.519 -10.38,-46.138 -10.08,-56.938L0,-56.938Z" style="fill:rgb(44,58,96);fill-rule:nonzero;"/>
        </g>
        <g transform="matrix(1,0,0,1,1283.04,3356.1)">
            <path d="M0,-21.18C6.06,-16.44 15.359,-9.42 19.679,-4.56L12.179,2.159C8.819,-2.101 1.56,-8.46 -4.44,-13.5L-4.44,15.899L-14.04,15.899L-14.04,-11.22C-19.14,-5.941 -25.079,-1.321 -31.679,2.099C-33.06,-0.241 -35.819,-3.901 -37.679,-5.88C-27.18,-10.68 -18.359,-19.38 -12.96,-28.139L-35.579,-28.139L-35.579,-37.079L17.099,-37.079L17.099,-28.139L-1.38,-28.139C-2.341,-26.459 -3.36,-24.78 -4.44,-23.159L-4.44,-17.46L0,-21.18Z" style="fill:rgb(44,58,96);fill-rule:nonzero;"/>
        </g>
        <g transform="matrix(1,0,0,1,0,-903.632)">
            <path d="M1350.84,4232.98L1343.22,4232.98L1343.22,4261.41L1350.84,4261.41L1350.84,4232.98ZM1359.48,4224.76L1359.48,4273.11L1350.84,4273.11L1350.84,4269.64L1343.22,4269.64L1343.22,4274.07L1335,4274.07L1335,4224.76L1359.48,4224.76ZM1319.88,4252.9C1322.34,4247.38 1323.24,4241.68 1323.48,4237L1318.26,4237.3C1317.48,4241.5 1316.64,4245.58 1315.74,4249.3L1319.88,4252.9ZM1332.12,4236.34C1331.88,4243 1330.8,4251.22 1326.84,4259.02C1329.84,4261.78 1332.54,4264.36 1334.46,4266.52L1327.92,4273.11C1326.42,4271.19 1324.26,4268.98 1321.86,4266.52C1319.1,4269.82 1315.56,4272.88 1311.12,4275.52C1309.8,4273.53 1306.86,4270.36 1304.88,4268.86C1309.32,4266.34 1312.74,4263.4 1315.38,4260.15C1312.08,4257.1 1308.78,4254.03 1306.02,4251.4C1307.1,4247.61 1308.24,4242.94 1309.14,4237.9L1305.78,4238.14L1304.94,4229.5L1310.58,4229.26C1311.06,4225.78 1311.42,4222.36 1311.6,4219.12L1320.9,4219.66C1320.6,4222.6 1320.18,4225.72 1319.7,4228.78L1323.6,4228.6L1323.6,4225.84L1332.18,4225.84L1332.18,4228.18L1333.98,4228.06L1333.92,4236.22L1332.12,4236.34Z" style="fill:rgb(44,58,96);fill-rule:nonzero;"/>
        </g>
        <g transform="matrix(1,0,0,1,1377.78,3337.26)">
            <path d="M0,12.36C-1.68,9.12 -5.819,4.32 -9.299,0.9L-2.699,-3.78C0.78,-0.66 5.22,3.839 7.14,7.08L0,12.36ZM41.759,1.26C38.398,5.04 34.438,9 31.079,12.059C34.979,16.019 39.539,19.319 44.698,21.599C42.599,23.399 39.719,26.999 38.278,29.459C30.779,25.439 24.899,19.319 20.279,11.88L20.279,24.479C20.279,29.279 19.38,31.678 16.62,33.119C13.859,34.619 9.78,34.919 4.38,34.859C4.021,32.339 2.7,28.258 1.44,25.679C4.8,25.859 8.521,25.859 9.72,25.859C10.86,25.859 11.28,25.499 11.28,24.419L11.28,17.399C4.92,21.719 -1.68,25.859 -7.26,29.279L-12.899,21.299C-7.199,18.54 2.46,13.139 11.28,8.099L11.28,-5.16L-10.799,-5.16L-10.799,-13.619L11.28,-13.619L11.28,-22.079L20.279,-22.079L20.279,-13.619L29.399,-13.619C27.359,-14.879 25.079,-16.079 23.159,-17.039L28.259,-22.559C31.799,-20.999 36.898,-18.479 39.479,-16.559L36.839,-13.619L42.959,-13.619L42.959,-5.16L20.279,-5.16L20.279,-4.499C21.779,-0.9 23.64,2.58 25.919,5.82C28.859,2.76 31.979,-0.9 34.019,-4.14L41.759,1.26Z" style="fill:rgb(44,58,96);fill-rule:nonzero;"/>
        </g>
        <g transform="matrix(1,0,0,1,1465.74,3327.18)">
            <path d="M0,35.22C5.82,35.22 6.6,33.9 7.44,25.38C9.72,26.76 13.739,28.26 16.26,28.74C14.819,40.679 11.819,43.919 0.3,43.919L-17.339,43.919C-29.578,43.919 -33.479,41.4 -33.479,31.68L-33.479,10.441L-0.06,10.441L-0.06,0.301L-34.198,0.301L-34.198,-8.699L9.24,-8.699L9.24,22.26L-0.06,22.26L-0.06,19.021L-24.419,19.021L-24.419,31.56C-24.419,34.8 -23.459,35.22 -17.099,35.22L0,35.22Z" style="fill:rgb(44,58,96);fill-rule:nonzero;"/>
        </g>
    </g>
</svg>
