<?xml version="1.0" encoding="UTF-8" standalone="no"?>
<!DOCTYPE svg PUBLIC "-//W3C//DTD SVG 1.1//EN" "http://www.w3.org/Graphics/SVG/1.1/DTD/svg11.dtd">
<svg width="100%" height="100%" viewBox="0 0 941 60" version="1.1" xmlns="http://www.w3.org/2000/svg" xmlns:xlink="http://www.w3.org/1999/xlink" xml:space="preserve" xmlns:serif="http://www.serif.com/" style="fill-rule:evenodd;clip-rule:evenodd;stroke-linejoin:round;stroke-miterlimit:2;">
    <g transform="matrix(1,0,0,1,-485.774,-3454.89)">
        <g transform="matrix(1,0,0,1,506.919,3476.48)">
            <path d="M0,-20.146L1.176,-19.371C1.325,-19.271 1.4,-19.171 1.4,-19.071C1.4,-18.872 1.226,-18.671 0.926,-18.471L-3.398,-14.597C-2.799,-14.147 -2.224,-13.698 -1.624,-13.198L-2.998,-12.323L-0.049,-12.323L0.525,-12.523C0.726,-12.523 0.926,-12.448 1.101,-12.323L2.325,-11.573C2.475,-11.473 2.575,-11.348 2.575,-11.248C2.575,-11.023 2.375,-10.798 2,-10.573L-0.35,-6.674L-2.299,-7.349L-0.648,-10.374L-3.273,-10.374L-3.273,-1.3C-3.273,-0.451 -3.599,0.2 -4.223,0.599C-4.748,1.024 -6.072,1.249 -8.172,1.249L-9.047,-1L-6.798,-1C-6.023,-1 -5.598,-1.225 -5.523,-1.675L-5.523,-10.374L-9.722,-10.374L-9.722,-12.323L-3.998,-12.323C-5.323,-13.472 -6.748,-14.498 -8.272,-15.347L-6.697,-16.622C-6.123,-16.322 -5.548,-15.997 -4.998,-15.647L-2.574,-18.196L-9.622,-18.196L-9.622,-20.045L-1.124,-20.045L-0.549,-20.321C-0.35,-20.321 -0.174,-20.246 0,-20.146M-12.746,-5L-17.144,-5L-17.144,-1.976L-12.746,-1.976L-12.746,-5ZM-11.422,-14.772C-12.621,-15.796 -13.646,-16.921 -14.496,-18.171C-15.471,-16.921 -16.596,-15.772 -17.845,-14.772L-11.422,-14.772ZM-13.071,-20.821C-12.871,-20.771 -12.746,-20.67 -12.746,-20.521C-12.746,-20.371 -12.921,-20.196 -13.246,-19.946C-13.346,-19.795 -13.445,-19.646 -13.521,-19.521C-12.246,-17.921 -10.697,-16.596 -8.848,-15.547L-10.422,-13.897C-10.597,-14.022 -10.746,-14.147 -10.896,-14.297L-10.896,-12.922L-13.721,-12.922L-13.721,-10.673L-10.021,-10.673L-10.021,-8.824L-13.721,-8.824L-13.721,-6.674L-10.597,-6.674L-10.597,1.149L-12.746,1.149L-12.746,-0.226L-17.145,-0.226L-17.145,1.149L-19.295,1.149L-19.295,-6.674L-15.871,-6.674L-15.871,-8.824L-19.969,-8.824L-19.969,-10.673L-15.871,-10.673L-15.871,-12.922L-18.52,-12.922L-18.52,-14.222C-18.744,-14.022 -18.97,-13.847 -19.195,-13.698L-21.145,-15.072C-18.445,-16.671 -16.37,-18.796 -14.896,-21.395L-13.071,-20.821Z" style="fill:rgb(44,58,96);fill-rule:nonzero;"/>
        </g>
        <g transform="matrix(1,0,0,1,533.095,3474.41)">
            <path d="M0,-15.896C0.199,-15.796 0.324,-15.721 0.324,-15.622C0.324,-15.471 0.225,-15.321 0.024,-15.221C-0.6,-13.971 -1.275,-12.921 -2.025,-12.097L-3.674,-13.072C-2.824,-14.072 -2.074,-15.247 -1.425,-16.596L0,-15.896ZM-6.674,-2.599C-6.374,-2 -5.924,-1.424 -5.299,-0.875C-5.124,-0.725 -4.949,-0.575 -4.749,-0.45C-4.6,-0.575 -4.475,-0.7 -4.35,-0.825C-3.674,-1.424 -3.05,-2.325 -2.475,-3.524L-7.099,-3.524C-6.998,-3.174 -6.873,-2.875 -6.674,-2.599M-4.549,-12.997L-6.424,-12.597C-6.873,-13.721 -7.424,-14.771 -8.073,-15.721L-6.224,-16.121C-5.449,-15.021 -4.899,-13.997 -4.549,-12.997M-8.473,-12.297L-10.223,-11.998C-10.748,-13.197 -11.397,-14.322 -12.172,-15.321L-10.423,-15.721C-9.523,-14.521 -8.873,-13.397 -8.473,-12.297M-1.975,-17.496C-4.975,-16.846 -8.073,-16.371 -11.298,-16.121L-12.572,-17.871C-10.398,-17.946 -8.523,-18.095 -6.974,-18.345C-5.574,-18.496 -3.875,-18.821 -1.824,-19.32L-0.4,-17.996C-0.301,-17.896 -0.25,-17.795 -0.25,-17.67C-0.25,-17.521 -0.35,-17.471 -0.551,-17.471L-1.1,-17.595C-1.35,-17.595 -1.625,-17.545 -1.975,-17.496M-0.35,-11.722L-0.35,-10.047L-6.849,-10.047C-6.924,-9.422 -6.998,-8.848 -7.074,-8.298L0.625,-8.298L0.625,-6.449L-7.398,-6.449C-7.498,-5.949 -7.623,-5.474 -7.748,-5.074L-1.925,-5.074C-1.575,-5.324 -1.375,-5.474 -1.325,-5.474C-1.2,-5.474 -1.051,-5.399 -0.9,-5.249L0.125,-4.299C0.25,-4.174 0.324,-4.049 0.324,-3.899C0.324,-3.75 0.1,-3.549 -0.35,-3.324C-1.15,-1.625 -2,-0.325 -2.949,0.55C-2.85,0.6 -2.75,0.65 -2.675,0.675C-1.85,1.025 -0.75,1.275 0.625,1.475L-1.15,3.424C-2.449,3.049 -3.574,2.599 -4.475,2.075C-4.624,1.974 -4.749,1.9 -4.85,1.849C-6.049,2.474 -7.549,3 -9.348,3.424L-10.697,1.65C-9.348,1.424 -8.273,1.2 -7.424,0.924C-7.123,0.825 -6.824,0.7 -6.523,0.575C-6.699,0.425 -6.849,0.275 -6.974,0.125C-7.623,-0.575 -8.148,-1.35 -8.498,-2.224C-8.573,-2.375 -8.623,-2.5 -8.648,-2.625C-9.049,-1.825 -9.448,-1.075 -9.873,-0.425C-10.423,0.45 -11.123,1.299 -11.973,2.15L-14.021,0.875C-13.223,0.175 -12.598,-0.475 -12.147,-1.1C-11.272,-2.2 -10.548,-3.5 -9.998,-4.999C-9.848,-5.449 -9.698,-5.923 -9.548,-6.449L-12.672,-6.449L-12.672,-8.298L-9.174,-8.298C-9.073,-8.848 -8.998,-9.422 -8.924,-10.047L-11.498,-10.047L-11.498,-11.722L-0.35,-11.722ZM-13.146,-0.3L-14.996,0.1C-15.271,-1.525 -15.597,-3.024 -15.972,-4.399L-14.122,-4.774C-13.672,-3.224 -13.348,-1.724 -13.146,-0.3M-19.296,-4.649C-19.046,-4.624 -18.921,-4.549 -18.921,-4.399C-18.921,-4.274 -19.021,-4.149 -19.195,-4C-19.296,-2.2 -19.396,-0.9 -19.496,-0.05C-19.596,0.6 -19.721,1.2 -19.896,1.849L-21.846,1.475C-21.62,0.75 -21.471,0.125 -21.395,-0.4C-21.245,-1.299 -21.12,-2.774 -21.045,-4.774L-19.296,-4.649ZM-15.847,-18.196C-15.621,-18.071 -15.496,-17.97 -15.496,-17.871C-15.496,-17.67 -15.621,-17.521 -15.871,-17.371L-18.496,-14.096C-17.921,-13.697 -17.371,-13.272 -16.821,-12.847L-14.797,-15.721L-13.223,-14.671C-13.047,-14.572 -12.947,-14.421 -12.947,-14.247C-12.947,-14.096 -13.122,-14.022 -13.447,-13.971L-17.721,-8.398C-16.846,-8.473 -15.996,-8.548 -15.146,-8.648C-15.271,-9.073 -15.396,-9.473 -15.496,-9.873L-13.723,-10.248C-13.271,-8.798 -12.947,-7.398 -12.747,-6.048L-14.521,-5.749C-14.597,-6.199 -14.672,-6.598 -14.746,-6.999C-15.222,-6.923 -15.722,-6.848 -16.271,-6.773L-16.271,3.424L-18.32,3.424L-18.32,-6.499C-19.07,-6.374 -19.896,-6.249 -20.771,-6.149C-20.945,-5.949 -21.096,-5.848 -21.245,-5.848C-21.395,-5.848 -21.495,-5.949 -21.495,-6.173L-21.945,-8.098C-21.295,-8.123 -20.67,-8.173 -20.07,-8.223L-17.996,-11.172C-19.396,-12.247 -20.695,-13.171 -21.846,-13.971L-20.67,-15.521C-20.471,-15.372 -20.246,-15.247 -20.045,-15.122L-17.446,-19.045L-15.847,-18.196Z" style="fill:rgb(44,58,96);fill-rule:nonzero;"/>
        </g>
        <g transform="matrix(1,0,0,1,0,-657.985)">
            <path d="M556.37,4121.37L553.546,4121.37L553.546,4123.32L556.37,4123.32L556.37,4121.37ZM553.245,4115.12L549.046,4115.12L549.046,4117.17L553.245,4117.17L553.245,4115.12ZM555.295,4119.02L546.997,4119.02L546.997,4113.25L555.295,4113.25L555.295,4119.02ZM548.946,4121.37L546.221,4121.37L546.221,4123.42L548.946,4123.42L548.946,4121.37ZM550.896,4119.69L550.896,4124.82L551.671,4124.89L551.671,4119.69L558.22,4119.69L558.22,4124.97L552.346,4124.97C552.596,4125.02 552.745,4125.12 552.745,4125.27C552.745,4125.37 552.62,4125.54 552.37,4125.74L552.37,4126.54L558.919,4126.54L558.919,4128.49L553.695,4128.49C554.445,4129.59 555.195,4130.47 555.92,4131.07C556.694,4131.77 557.794,4132.47 559.194,4133.17L557.245,4134.84C556.045,4134.11 555.095,4133.32 554.345,4132.42C553.671,4131.72 553.021,4130.79 552.37,4129.69L552.37,4135.82L550.222,4135.82L550.222,4129.52C549.521,4130.57 548.896,4131.39 548.321,4131.99C547.422,4132.92 546.247,4133.84 544.747,4134.84L542.798,4133.07C544.348,4132.32 545.673,4131.47 546.772,4130.57C547.347,4130.12 547.997,4129.42 548.747,4128.49L543.573,4128.49L543.573,4126.54L550.222,4126.54L550.222,4125.07L544.272,4125.07L544.272,4119.69L550.896,4119.69ZM539.099,4116.77L539.099,4112.97L541.423,4113.25C541.673,4113.3 541.823,4113.4 541.823,4113.55C541.823,4113.72 541.624,4113.92 541.249,4114.15L541.249,4116.77L544.073,4116.77L544.073,4118.82L541.249,4118.82L541.249,4123.64C542.148,4123.12 543.073,4122.54 543.973,4121.94L543.973,4123.89L541.249,4125.69L541.249,4133.17C541.249,4134.11 540.999,4134.84 540.549,4135.29C540.149,4135.77 539.174,4136.02 537.624,4136.02L536.749,4133.87L538.249,4133.87C538.749,4133.87 539.049,4133.52 539.099,4132.79L539.099,4127.09L537.724,4127.99C537.499,4128.47 537.3,4128.69 537.124,4128.69C536.999,4128.69 536.899,4128.57 536.8,4128.29L536.05,4126.24C537.05,4125.82 538.074,4125.34 539.099,4124.82L539.099,4118.82L536.249,4118.82L536.249,4116.77L539.099,4116.77Z" style="fill:rgb(44,58,96);fill-rule:nonzero;"/>
        </g>
        <g transform="matrix(0.902678,-0.430317,-0.430317,-0.902678,575.115,3468.7)">
            <path d="M-1.51,-0.281C-1.921,1.937 -2.586,4.026 -3.518,5.965L-1.51,6.807C-0.531,4.68 0.226,2.548 0.735,0.366L-1.51,-0.281Z" style="fill:rgb(44,58,96);fill-rule:nonzero;"/>
        </g>
        <g transform="matrix(1,0,0,1,603.195,3474.96)">
            <path d="M0,-17.322C-1.824,-16.897 -3.674,-16.547 -5.523,-16.247L-5.523,-12.723L2.399,-13.548L2.6,-11.299L-5.523,-10.449L-5.523,-6.8L4.924,-7.874L5.124,-5.625L-5.523,-4.525L-5.523,-0.851C-5.523,-0.251 -5.249,0.024 -4.648,0.024L1.425,0.024C1.95,0.024 2.35,-0.101 2.649,-0.351C2.899,-0.551 3.124,-1.301 3.374,-2.6L5.724,-1.926C5.424,-0.176 4.999,0.924 4.425,1.449C3.824,1.998 3.05,2.274 2.1,2.274L-5.224,2.274C-6.974,2.274 -7.848,1.649 -7.848,0.424L-7.848,-4.301L-16.745,-3.376L-16.846,-5.625L-7.848,-6.55L-7.848,-10.199L-15.171,-9.424L-15.271,-11.674L-7.848,-12.473L-7.848,-15.897C-9.947,-15.597 -12.071,-15.347 -14.196,-15.197L-15.771,-17.347C-12.497,-17.447 -9.697,-17.697 -7.349,-18.072C-5.249,-18.322 -2.649,-18.822 0.45,-19.596L2.124,-17.947C2.225,-17.822 2.3,-17.697 2.3,-17.547C2.3,-17.397 2.2,-17.347 2,-17.347L1.351,-17.471C0.976,-17.471 0.524,-17.422 0,-17.322" style="fill:rgb(44,58,96);fill-rule:nonzero;"/>
        </g>
        <g transform="matrix(1,0,0,1,621.423,3472.83)">
            <path d="M0,-12.672L0,-17.671L2.199,-17.496C2.599,-17.445 2.824,-17.346 2.824,-17.171C2.824,-17.046 2.648,-16.846 2.324,-16.596L2.324,-12.672L10.822,-12.672L10.822,-0.275C10.822,0.875 10.172,1.625 8.896,1.949C7.897,2.224 6.923,2.349 5.947,2.349L5.073,0.025L7.447,-0.025C8.123,-0.05 8.473,-0.375 8.473,-0.975L8.473,-10.523L2.324,-10.523L2.324,4.999L0,4.999L0,-10.523L-6.449,-10.523L-6.449,3.424L-8.799,3.424L-8.799,-12.672L0,-12.672Z" style="fill:rgb(44,58,96);fill-rule:nonzero;"/>
        </g>
        <g transform="matrix(1,0,0,1,0,-657.985)">
            <path d="M656.37,4121.37L653.546,4121.37L653.546,4123.32L656.37,4123.32L656.37,4121.37ZM653.245,4115.12L649.046,4115.12L649.046,4117.17L653.245,4117.17L653.245,4115.12ZM655.295,4119.02L646.997,4119.02L646.997,4113.25L655.295,4113.25L655.295,4119.02ZM648.946,4121.37L646.221,4121.37L646.221,4123.42L648.946,4123.42L648.946,4121.37ZM650.896,4119.69L650.896,4124.82L651.671,4124.89L651.671,4119.69L658.22,4119.69L658.22,4124.97L652.346,4124.97C652.596,4125.02 652.745,4125.12 652.745,4125.27C652.745,4125.37 652.62,4125.54 652.37,4125.74L652.37,4126.54L658.919,4126.54L658.919,4128.49L653.695,4128.49C654.445,4129.59 655.195,4130.47 655.92,4131.07C656.694,4131.77 657.794,4132.47 659.194,4133.17L657.245,4134.84C656.045,4134.11 655.095,4133.32 654.345,4132.42C653.671,4131.72 653.021,4130.79 652.37,4129.69L652.37,4135.82L650.222,4135.82L650.222,4129.52C649.521,4130.57 648.896,4131.39 648.321,4131.99C647.422,4132.92 646.247,4133.84 644.747,4134.84L642.798,4133.07C644.348,4132.32 645.673,4131.47 646.772,4130.57C647.347,4130.12 647.997,4129.42 648.747,4128.49L643.573,4128.49L643.573,4126.54L650.222,4126.54L650.222,4125.07L644.272,4125.07L644.272,4119.69L650.896,4119.69ZM639.099,4116.77L639.099,4112.97L641.423,4113.25C641.673,4113.3 641.823,4113.4 641.823,4113.55C641.823,4113.72 641.624,4113.92 641.249,4114.15L641.249,4116.77L644.073,4116.77L644.073,4118.82L641.249,4118.82L641.249,4123.64C642.148,4123.12 643.073,4122.54 643.973,4121.94L643.973,4123.89L641.249,4125.69L641.249,4133.17C641.249,4134.11 640.999,4134.84 640.549,4135.29C640.149,4135.77 639.174,4136.02 637.624,4136.02L636.749,4133.87L638.249,4133.87C638.749,4133.87 639.049,4133.52 639.099,4132.79L639.099,4127.09L637.724,4127.99C637.499,4128.47 637.3,4128.69 637.124,4128.69C636.999,4128.69 636.899,4128.57 636.8,4128.29L636.05,4126.24C637.05,4125.82 638.074,4125.34 639.099,4124.82L639.099,4118.82L636.249,4118.82L636.249,4116.77L639.099,4116.77Z" style="fill:rgb(44,58,96);fill-rule:nonzero;"/>
        </g>
        <g transform="matrix(0.902678,-0.430317,-0.430317,-0.902678,675.115,3468.7)">
            <path d="M-1.51,-0.281C-1.921,1.937 -2.586,4.026 -3.518,5.965L-1.51,6.807C-0.531,4.68 0.226,2.548 0.735,0.366L-1.51,-0.281Z" style="fill:rgb(44,58,96);fill-rule:nonzero;"/>
        </g>
        <g transform="matrix(1,0,0,1,707.944,3468.36)">
            <path d="M0,-3.724C0.25,-3.673 0.375,-3.574 0.375,-3.424C0.375,-3.248 0.2,-3.049 -0.1,-2.824L-0.1,6.724C-0.1,7.649 -0.35,8.324 -0.85,8.773C-1.25,9.223 -2.274,9.473 -3.924,9.473L-4.699,7.423L-3.074,7.423C-2.524,7.423 -2.199,7.074 -2.149,6.349L-2.149,-3.998L0,-3.724ZM-3.648,-2.998C-3.324,-2.974 -3.149,-2.899 -3.149,-2.749C-3.149,-2.624 -3.273,-2.449 -3.523,-2.249L-3.523,5.549L-5.474,5.549L-5.474,-3.123L-3.648,-2.998ZM-3.424,-5.173L-10.273,-5.173L-10.273,-7.023L-3.424,-7.023L-3.424,-5.173ZM-8.498,1.55L-11.622,1.55L-11.622,3.324L-8.498,3.324L-8.498,1.55ZM-8.498,-1.849L-11.622,-1.849L-11.622,-0.2L-8.498,-0.2L-8.498,-1.849ZM-6.549,-3.724L-6.549,7.324C-6.549,8.249 -6.924,8.848 -7.673,9.148C-8.248,9.348 -8.822,9.473 -9.397,9.473L-10.172,7.524L-8.998,7.473C-8.673,7.423 -8.498,7.199 -8.498,6.724L-8.498,5.074L-11.622,5.074L-11.622,9.373L-13.572,9.373L-13.572,-3.724L-6.549,-3.724ZM-5.174,-12.496C-4.924,-12.397 -4.799,-12.272 -4.799,-12.121C-4.799,-11.972 -4.998,-11.822 -5.373,-11.722C-5.424,-11.671 -5.474,-11.621 -5.474,-11.597C-4.273,-10.422 -3.225,-9.522 -2.324,-8.922C-1.425,-8.273 -0.125,-7.548 1.55,-6.747L-0.1,-5.074C-1.75,-5.973 -3.024,-6.823 -3.924,-7.622C-4.674,-8.172 -5.599,-9.073 -6.698,-10.347C-7.473,-9.573 -8.223,-8.872 -8.923,-8.247C-9.922,-7.372 -11.447,-6.348 -13.496,-5.173L-15.246,-6.747C-13.521,-7.497 -11.997,-8.422 -10.672,-9.472C-9.473,-10.422 -8.223,-11.671 -6.948,-13.197L-5.174,-12.496ZM-14.071,-10.847L-14.071,-8.898L-16.896,-8.898L-16.896,-3.824L-14.571,-3.824L-14.571,-1.849L-16.896,-1.849L-16.896,3.774C-15.971,3.599 -15.071,3.375 -14.172,3.125L-14.172,4.974C-15.521,5.424 -17.646,5.999 -20.52,6.724C-20.695,6.999 -20.845,7.124 -20.994,7.124C-21.17,7.124 -21.27,6.999 -21.27,6.749L-21.795,4.574C-20.869,4.474 -19.945,4.349 -19.045,4.174L-19.045,-1.849L-21.595,-1.849L-21.595,-3.824L-19.045,-3.824L-19.045,-8.898L-21.695,-8.898L-21.695,-10.847L-14.071,-10.847Z" style="fill:rgb(44,58,96);fill-rule:nonzero;"/>
        </g>
        <g transform="matrix(1,0,0,1,0,-657.909)">
            <path d="M731.069,4118.84L728.921,4118.84L728.921,4131.74L731.069,4131.74L731.069,4118.84ZM733.119,4116.89L733.119,4135.04L731.069,4135.04L731.069,4133.69L728.921,4133.69L728.921,4135.04L726.871,4135.04L726.871,4116.89L733.119,4116.89ZM719.747,4117.87L719.747,4113.27L721.847,4113.49C722.147,4113.55 722.297,4113.64 722.297,4113.77C722.297,4113.97 722.147,4114.14 721.897,4114.24C721.847,4115.54 721.797,4116.74 721.797,4117.87L725.896,4117.87C725.896,4124.82 725.746,4129.17 725.496,4130.97C725.321,4132.74 724.946,4133.94 724.396,4134.59C723.797,4135.29 722.821,4135.64 721.423,4135.64L720.423,4133.49C721.822,4133.49 722.647,4133.29 722.922,4132.86C723.172,4132.56 723.347,4131.79 723.497,4130.57C723.696,4129.24 723.821,4125.67 723.847,4119.82L721.797,4119.82C721.747,4122.27 721.647,4124.44 721.447,4126.37C721.272,4128.07 720.972,4129.67 720.522,4131.22C720.147,4132.56 719.598,4133.91 718.873,4135.34L716.624,4134.36C717.398,4133.16 717.998,4131.86 718.448,4130.49C718.897,4129.12 719.223,4127.57 719.397,4125.87C719.598,4124.29 719.698,4122.27 719.747,4119.82L717.498,4119.82L717.498,4117.87L719.747,4117.87ZM717.948,4114.12C718.173,4114.22 718.298,4114.32 718.298,4114.44C718.298,4114.69 718.099,4114.89 717.698,4115.04C717.148,4116.59 716.648,4117.97 716.148,4119.14L716.148,4135.74L713.999,4135.74L713.999,4123.59C713.55,4124.44 713.05,4125.29 712.524,4126.17L710.875,4124.52C711.999,4122.77 712.949,4121.02 713.724,4119.24C714.474,4117.62 715.198,4115.59 715.948,4113.17L717.948,4114.12Z" style="fill:rgb(44,58,96);fill-rule:nonzero;"/>
        </g>
        <g transform="matrix(1,0,0,1,0,-657.709)">
            <path d="M755.295,4127.62L747.972,4127.62L747.972,4132.41L755.295,4132.41L755.295,4127.62ZM757.544,4125.67L757.544,4135.74L755.295,4135.74L755.295,4134.36L747.972,4134.36L747.972,4135.74L745.722,4135.74L745.722,4125.67L757.544,4125.67ZM739.974,4116.79L739.974,4112.97L742.373,4113.27C742.647,4113.32 742.798,4113.42 742.798,4113.57C742.798,4113.77 742.599,4113.99 742.224,4114.24L742.224,4116.79L745.348,4116.79L745.348,4118.84L742.224,4118.84L742.224,4123.29C743.272,4122.79 744.323,4122.24 745.348,4121.67L745.348,4123.22C746.447,4122.59 747.222,4121.92 747.672,4121.22C748.372,4120.32 748.747,4118.64 748.821,4116.19L746.222,4116.19L746.222,4114.24L757.745,4114.24C757.745,4118.39 757.595,4121.02 757.294,4122.09C757.095,4123.17 756.694,4123.89 756.069,4124.27C755.42,4124.69 754.296,4124.89 752.745,4124.89L751.671,4122.64C753.271,4122.64 754.22,4122.54 754.521,4122.32C754.795,4122.14 755.021,4121.72 755.195,4121.07C755.396,4120.44 755.521,4118.82 755.569,4116.19L750.972,4116.19C750.896,4118.79 750.496,4120.74 749.771,4122.02C749.071,4123.34 747.597,4124.52 745.348,4125.57L744.223,4124.29L742.224,4125.34L742.224,4132.61C742.224,4133.59 741.923,4134.31 741.374,4134.79C740.898,4135.29 739.724,4135.54 737.824,4135.54L736.95,4133.29L738.874,4133.29C739.549,4133.29 739.924,4132.94 739.974,4132.22L739.974,4126.52L738.024,4127.52C737.774,4128.07 737.574,4128.32 737.425,4128.32C737.274,4128.32 737.149,4128.19 737.075,4127.92L736.249,4125.77C737.499,4125.34 738.749,4124.87 739.974,4124.32L739.974,4118.84L736.45,4118.84L736.45,4116.79L739.974,4116.79Z" style="fill:rgb(44,58,96);fill-rule:nonzero;"/>
        </g>
        <g transform="matrix(1,0,0,1,772.773,3468.06)">
            <path d="M0,-2.925L0,-0.776L-4.475,-0.776L-4.475,5.174C-2.824,4.998 -1.2,4.773 0.399,4.499L0.399,6.548C-1.775,6.998 -5.199,7.548 -9.848,8.298C-10.049,8.623 -10.248,8.798 -10.448,8.798C-10.623,8.798 -10.723,8.647 -10.748,8.373L-11.322,5.848C-9.799,5.748 -8.299,5.623 -6.824,5.448L-6.824,-0.776L-10.923,-0.776L-10.923,-2.925L0,-2.925ZM1.124,-8.399C1.074,-9.698 1.074,-11.148 1.074,-12.697L3.523,-12.447C3.898,-12.398 4.099,-12.273 4.099,-12.098C4.099,-11.898 3.873,-11.572 3.424,-11.123C3.424,-10.148 3.424,-9.248 3.449,-8.399L7.897,-8.399C6.998,-9.548 6.123,-10.498 5.273,-11.223L6.848,-12.697C7.873,-11.798 8.872,-10.723 9.872,-9.473L8.647,-8.399L10.746,-8.399L10.746,-6.249L3.498,-6.249C3.599,-3.699 3.773,-1.725 4.049,-0.276C4.498,2.049 5.174,3.924 6.048,5.323C6.697,6.472 7.272,7.023 7.723,7.023C7.873,7.023 8.022,6.923 8.223,6.673C8.422,6.448 8.822,5.498 9.372,3.799L11.322,5.473C10.822,6.873 10.372,7.873 9.922,8.522C9.297,9.347 8.622,9.772 7.922,9.772C7.248,9.772 6.548,9.397 5.848,8.697C4.973,7.873 4.123,6.673 3.324,5.023C2.449,3.223 1.85,1.024 1.523,-1.55C1.374,-2.8 1.249,-4.35 1.174,-6.249L-11.322,-6.249L-11.322,-8.399L1.124,-8.399Z" style="fill:rgb(44,58,96);fill-rule:nonzero;"/>
        </g>
        <g transform="matrix(0.902678,-0.430317,-0.430317,-0.902678,800.115,3468.7)">
            <path d="M-1.51,-0.281C-1.921,1.937 -2.586,4.026 -3.518,5.965L-1.51,6.807C-0.531,4.68 0.226,2.548 0.735,0.366L-1.51,-0.281Z" style="fill:rgb(44,58,96);fill-rule:nonzero;"/>
        </g>
        <g transform="matrix(1,0,0,1,827.745,3470.01)">
            <path d="M0,-7.023C0,-4.374 0.15,-2.449 0.476,-1.299C0.775,-0.2 1.225,0.775 1.875,1.625C2.775,3.025 4.225,4.424 6.174,5.874L3.824,7.623C1.775,5.674 0.375,4.075 -0.375,2.825C-1.149,1.625 -1.674,0.375 -1.949,-0.974C-2.148,-1.875 -2.249,-3.199 -2.299,-4.973L-6.423,-4.973L-6.423,-7.023L0,-7.023ZM-4.123,-14.471C-3.724,-14.421 -3.498,-14.321 -3.498,-14.146C-3.498,-14.021 -3.674,-13.821 -3.998,-13.571L-3.998,-11.721L5.475,-11.721L5.475,-5.473L3.125,-5.473L3.125,-9.572L-13.646,-9.572L-13.646,-5.473L-15.996,-5.473L-15.996,-11.721L-6.322,-11.721L-6.322,-14.646L-4.123,-14.471ZM-7.473,-4.149C-7.173,-4.048 -7.023,-3.949 -7.023,-3.798C-7.023,-3.624 -7.197,-3.474 -7.498,-3.324C-8.447,-0.424 -9.422,1.75 -10.372,3.225C-11.371,4.799 -12.621,6.174 -14.146,7.423L-16.295,5.974C-14.521,4.799 -13.071,3.275 -11.946,1.375C-11.097,-0.049 -10.347,-2.074 -9.646,-4.673L-7.473,-4.149Z" style="fill:rgb(44,58,96);fill-rule:nonzero;"/>
        </g>
        <g transform="matrix(1,0,0,1,0,-657.91)">
            <path d="M854.421,4128.52L846.797,4128.52L846.797,4129.87L854.421,4129.87L854.421,4128.52ZM854.421,4125.29L846.797,4125.29L846.797,4126.84L854.421,4126.84L854.421,4125.29ZM854.421,4121.97L846.797,4121.97L846.797,4123.62L854.421,4123.62L854.421,4121.97ZM849.446,4116.12L848.571,4116.6L851.596,4116.6L853.745,4113.27L855.495,4113.62C855.795,4113.67 855.97,4113.8 855.97,4113.97C855.97,4114.17 855.795,4114.4 855.495,4114.65L854.021,4116.6L858.02,4116.6L858.02,4118.44L851.621,4118.44L850.796,4120.22L856.569,4120.22L856.569,4132.72L854.421,4132.72L854.421,4131.64L846.797,4131.64L846.797,4132.72L844.647,4132.72L844.647,4120.22L848.446,4120.22L849.196,4118.44L843.099,4118.44L843.099,4116.6L847.272,4116.6C846.572,4115.72 845.847,4114.85 845.048,4113.97L846.897,4113.07C847.847,4114.12 848.696,4115.12 849.446,4116.12M842.123,4115.72L840.648,4117.27C839.573,4116.37 838.399,4115.57 837.124,4114.85L838.699,4113.27C840.049,4114.05 841.173,4114.87 842.123,4115.72M841.624,4120.69L840.174,4122.27C838.899,4121.32 837.524,4120.42 836.05,4119.62L837.624,4118.07C839.199,4118.89 840.523,4119.77 841.624,4120.69M841.523,4123.92L841.523,4131.32C842.023,4132.19 842.823,4132.79 843.923,4133.11C845.122,4133.52 846.997,4133.69 849.546,4133.69C853.046,4133.69 856.271,4133.59 859.194,4133.39L858.419,4135.84L849.546,4135.84C847.347,4135.84 845.598,4135.66 844.298,4135.36C842.923,4135.04 841.849,4134.52 841.048,4133.77C840.674,4133.47 840.374,4133.09 840.124,4132.67L837.824,4135.14C837.675,4135.39 837.55,4135.54 837.425,4135.54C837.225,4135.54 837.1,4135.41 837.05,4135.22L835.774,4133.49C837.1,4132.72 838.224,4131.92 839.174,4131.12L839.174,4125.87L837.425,4125.87L837.425,4123.92L841.523,4123.92Z" style="fill:rgb(44,58,96);fill-rule:nonzero;"/>
        </g>
        <g transform="matrix(1,0,0,1,875.621,3466.81)">
            <path d="M0,-0.501C-0.7,0.949 -1.399,2.273 -2.1,3.498C-0.899,3.898 0.25,4.348 1.35,4.848C1.899,4.198 2.35,3.474 2.725,2.674C3.124,1.874 3.474,0.799 3.774,-0.501L0,-0.501ZM2.225,-11.573C2.624,-11.523 2.824,-11.423 2.824,-11.248C2.824,-11.123 2.675,-10.923 2.425,-10.648L2.425,-8.599L8.099,-8.599L8.099,-3.725L5.948,-3.725L5.948,-6.649L-3.324,-6.649L-3.324,-3.725L-5.474,-3.725L-5.474,-8.599L0.175,-8.599L0.175,-11.723L2.225,-11.573ZM1.999,-5.149C2.2,-5.1 2.325,-5 2.325,-4.899C2.325,-4.75 2.124,-4.55 1.749,-4.325C1.45,-3.675 1.175,-3.05 0.925,-2.45L8.474,-2.45L8.474,-0.501L5.948,-0.501C5.698,1.148 5.299,2.474 4.799,3.448C4.399,4.348 3.899,5.147 3.324,5.897C3.474,5.998 3.649,6.098 3.8,6.173C5.349,7.147 6.798,8.247 8.198,9.446L6.523,11.121C4.823,9.571 3.3,8.372 1.95,7.522C1.899,7.497 1.85,7.473 1.825,7.447C1.2,7.972 0.524,8.447 -0.2,8.872C-1.499,9.571 -3.149,10.321 -5.198,11.121L-7.048,9.172C-5.099,8.622 -3.624,8.122 -2.624,7.622C-1.749,7.247 -0.975,6.822 -0.3,6.322C-1.2,5.923 -2.124,5.548 -3.124,5.197C-3.399,5.623 -3.674,6.022 -3.924,6.423L-6.073,5.647C-4.573,3.474 -3.374,1.448 -2.449,-0.451C-2.449,-0.476 -2.425,-0.501 -2.425,-0.501L-5.874,-0.501L-5.874,-2.45L-1.499,-2.45C-0.95,-3.6 -0.45,-4.774 0,-5.975L1.999,-5.149ZM-11.347,-7.924L-11.347,-11.723L-8.997,-11.448C-8.747,-11.398 -8.598,-11.298 -8.598,-11.148C-8.598,-10.974 -8.798,-10.773 -9.198,-10.573L-9.198,-7.924L-6.349,-7.924L-6.349,-5.774L-9.198,-5.774L-9.198,-1.201C-8.248,-1.65 -7.298,-2.125 -6.349,-2.65L-6.349,-0.501L-9.198,0.999L-9.198,8.372C-9.198,9.321 -9.448,10.047 -9.947,10.496C-10.372,10.972 -11.422,11.222 -13.097,11.222L-13.972,9.072L-12.297,9.072C-11.722,9.072 -11.397,8.722 -11.347,7.997L-11.347,2.123L-12.997,2.998C-13.247,3.548 -13.472,3.798 -13.671,3.798C-13.821,3.798 -13.946,3.673 -14.046,3.373L-14.847,1.148C-13.671,0.749 -12.497,0.299 -11.347,-0.201L-11.347,-5.774L-14.571,-5.774L-14.571,-7.924L-11.347,-7.924Z" style="fill:rgb(44,58,96);fill-rule:nonzero;"/>
        </g>
        <g transform="matrix(1,0,0,1,905.995,3470.28)">
            <path d="M0,-7.573C0.25,-7.573 0.375,-7.499 0.375,-7.398C0.375,-7.273 0.275,-7.098 0.074,-6.898L0.074,-5.749C0.074,-5.399 0.324,-5.249 0.875,-5.249C1.024,-5.249 1.125,-5.274 1.225,-5.349C1.324,-5.424 1.424,-5.749 1.549,-6.324L2.999,-5.749C2.85,-4.824 2.6,-4.3 2.299,-4.149C2.024,-3.949 1.549,-3.874 0.875,-3.874C-0.125,-3.874 -0.75,-3.974 -1.05,-4.224C-1.35,-4.425 -1.475,-4.774 -1.475,-5.249L-1.475,-7.698L0,-7.573ZM-4.225,-9.923L-4.225,-11.498L-2.375,-11.373C-2.05,-11.347 -1.875,-11.248 -1.875,-11.097C-1.875,-10.998 -2,-10.823 -2.25,-10.623L-2.25,-9.923L0.949,-9.923L0.949,-8.273L-2.25,-8.273L-2.25,-3.774L-4.225,-3.774L-4.225,-8.273L-7.349,-8.273L-7.349,-9.923L-4.225,-9.923ZM-4.975,-7.174C-4.874,-7.124 -4.799,-7.049 -4.799,-6.999C-4.799,-6.924 -4.85,-6.848 -4.898,-6.799C-5.374,-5.723 -5.874,-4.824 -6.373,-4.074L-7.823,-4.749C-7.174,-5.598 -6.674,-6.598 -6.273,-7.799L-4.975,-7.174ZM-8.498,-7.299C-8.248,-7.273 -8.123,-7.198 -8.123,-7.098C-8.123,-6.999 -8.223,-6.874 -8.424,-6.723L-8.424,-4.175L-9.873,-4.175L-9.873,-7.398L-8.498,-7.299ZM-12.622,-9.923L-12.622,-11.498L-10.772,-11.373C-10.447,-11.347 -10.273,-11.248 -10.273,-11.097C-10.273,-10.998 -10.397,-10.823 -10.647,-10.623L-10.647,-9.923L-8.123,-9.923L-8.123,-8.273L-10.647,-8.273L-10.647,-3.599L-12.622,-3.599L-12.622,-8.273L-15.547,-8.273L-15.547,-9.923L-12.622,-9.923ZM-13.172,-6.874C-13.072,-6.824 -12.997,-6.773 -12.997,-6.723C-12.997,-6.648 -13.047,-6.574 -13.098,-6.523C-13.497,-5.499 -13.922,-4.649 -14.371,-3.974L-15.821,-4.675C-15.271,-5.449 -14.822,-6.398 -14.472,-7.499L-13.172,-6.874ZM-2,-1.875C-3.074,-1.675 -4.225,-1.55 -5.475,-1.45L-5.475,-0.275L1.149,-0.275L1.149,1.4L-5.475,1.4L-5.475,2.649L2.725,2.649L2.725,4.424L-5.475,4.424L-5.475,5.498C-5.475,6.298 -5.749,6.873 -6.273,7.248C-6.724,7.623 -7.823,7.823 -9.572,7.823L-10.373,5.774L-8.549,5.774C-7.924,5.774 -7.573,5.548 -7.523,5.099L-7.523,4.424L-16.321,4.424L-16.321,2.649L-7.523,2.649L-7.523,1.4L-14.746,1.4L-14.746,-0.275L-7.523,-0.275L-7.523,-1.3C-9.348,-1.2 -11.348,-1.15 -13.547,-1.15L-14.672,-2.8L-12.223,-2.8C-8.223,-2.8 -4.549,-3.125 -1.2,-3.774L0.25,-2.3C0.324,-2.25 0.375,-2.125 0.375,-1.925C0.375,-1.849 0.324,-1.825 0.275,-1.825C0.1,-1.825 -0.051,-1.849 -0.176,-1.95C-0.45,-2 -0.625,-2.025 -0.7,-2.025C-0.975,-2.025 -1.4,-1.974 -2,-1.875M-6.074,-15.221C-5.674,-15.196 -5.475,-15.096 -5.475,-14.922C-5.475,-14.771 -5.624,-14.572 -5.874,-14.322L-5.874,-13.547L2.024,-13.547L2.024,-11.697L-16.021,-11.697L-16.021,-4.849C-16.021,-2.349 -16.196,-0.1 -16.521,1.874C-16.746,3.349 -17.196,5.198 -17.871,7.448L-19.945,6.473C-19.295,4.573 -18.82,2.874 -18.57,1.374C-18.246,-0.725 -18.07,-2.8 -18.07,-4.849L-18.07,-13.547L-8.123,-13.547L-8.123,-15.396L-6.074,-15.221Z" style="fill:rgb(44,58,96);fill-rule:nonzero;"/>
        </g>
        <g transform="matrix(1,0,0,1,0,-657.51)">
            <path d="M930.396,4118.84L926.097,4118.84L926.097,4128.69L930.396,4128.69L930.396,4118.84ZM932.645,4116.79L932.645,4132.49L930.396,4132.49L930.396,4130.74L926.097,4130.74L926.097,4132.69L923.847,4132.69L923.847,4116.79L932.645,4116.79ZM920.972,4115.44C920.197,4115.77 919.423,4116.04 918.673,4116.29L918.673,4119.82L923.071,4119.82L923.071,4121.87L919.423,4121.87C920.423,4124.17 921.673,4126.04 923.172,4127.52L921.423,4129.37C920.372,4127.87 919.473,4126.17 918.673,4124.32L918.673,4135.34L916.423,4135.34L916.423,4124.64C916.048,4125.79 915.698,4126.72 915.374,4127.42C914.774,4128.77 913.949,4130.17 912.925,4131.61L910.875,4129.77C911.975,4128.59 912.949,4127.32 913.749,4125.92C914.249,4125.07 914.849,4123.72 915.499,4121.87L911.649,4121.87L911.649,4119.82L916.423,4119.82L916.423,4116.97C915.323,4117.27 914.224,4117.49 913.124,4117.67L911.55,4115.52C913.425,4115.4 915.024,4115.15 916.349,4114.74C917.548,4114.49 919.048,4113.97 920.822,4113.17L922.497,4114.82C922.597,4114.92 922.672,4115.07 922.672,4115.22C922.672,4115.37 922.571,4115.42 922.397,4115.42L921.722,4115.27C921.522,4115.27 921.272,4115.35 920.972,4115.44" style="fill:rgb(44,58,96);fill-rule:nonzero;"/>
        </g>
        <g transform="matrix(1,0,0,1,957.544,3457.31)">
            <path d="M0,18.671L-2.049,20.021C-3.648,18.521 -5.398,17.221 -7.322,16.121L-5.773,14.847C-3.824,15.847 -1.898,17.121 0,18.671M-11.222,11.523L-11.222,8.224L-9.172,8.373C-8.797,8.423 -8.598,8.524 -8.598,8.698C-8.598,8.823 -8.747,9.024 -8.997,9.298L-8.997,11.523L-2.749,11.523L-2.749,13.572L-8.997,13.572L-8.997,20.62L-11.222,20.62L-11.222,13.572L-17.471,13.572L-17.471,11.523L-11.222,11.523ZM-12.821,15.871C-12.672,15.996 -12.596,16.121 -12.596,16.222C-12.596,16.347 -12.771,16.446 -13.096,16.522C-14.945,18.146 -16.67,19.371 -18.27,20.221L-20.119,18.371C-17.87,17.496 -15.971,16.246 -14.445,14.647L-12.821,15.871ZM-15.521,0.2L-15.521,-1.949L-13.471,-1.774C-13.096,-1.725 -12.896,-1.624 -12.896,-1.449C-12.896,-1.324 -13.021,-1.124 -13.271,-0.874L-13.271,0.2L-6.848,0.2L-6.848,-1.949L-4.799,-1.774C-4.398,-1.725 -4.198,-1.624 -4.198,-1.449C-4.198,-1.324 -4.349,-1.124 -4.598,-0.874L-4.598,0.2L1.075,0.2L1.075,2.25L-4.598,2.25L-4.598,4.4L-6.848,4.4L-6.848,2.25L-13.271,2.25L-13.271,4.4L-15.521,4.4L-15.521,2.25L-21.194,2.25L-21.194,0.2L-15.521,0.2ZM-8.322,3.999C-8.072,4.1 -7.922,4.249 -7.922,4.4C-7.922,4.549 -8.147,4.674 -8.598,4.799C-8.797,4.949 -8.947,5.099 -9.098,5.199C-7.697,6.299 -6.322,7.073 -4.998,7.549C-3.349,8.349 -1.225,8.948 1.375,9.373L-0.399,11.622C-3.248,10.723 -5.323,9.873 -6.648,9.123C-7.998,8.399 -9.247,7.474 -10.447,6.324C-11.447,7.124 -12.396,7.873 -13.346,8.524C-14.671,9.473 -16.695,10.573 -19.42,11.822L-21.295,10.173C-18.994,9.323 -16.971,8.349 -15.221,7.224C-13.571,6.174 -11.922,4.85 -10.247,3.225L-8.322,3.999Z" style="fill:rgb(44,58,96);fill-rule:nonzero;"/>
        </g>
        <g transform="matrix(1,0,0,1,978.596,3470.08)">
            <path d="M0,-7.073C0.3,-7.023 0.45,-6.924 0.425,-6.799C0.425,-6.648 0.3,-6.499 0.05,-6.323C0,-5.424 -0.075,-4.574 -0.125,-3.824C0.35,-1.375 1.024,0.55 1.899,1.949C2.649,3.4 3.823,4.649 5.398,5.698L3.649,7.748C2.324,6.649 1.199,5.174 0.3,3.275C-0.101,2.424 -0.476,1.449 -0.8,0.3C-1.25,1.949 -1.85,3.4 -2.6,4.674C-3.35,5.849 -4.3,6.973 -5.424,8.023L-7.173,6.774C-6.099,5.873 -5.249,4.974 -4.599,4.024C-3.8,2.874 -3.225,1.624 -2.825,0.225C-2.325,-1.55 -2.05,-4.049 -2,-7.299L0,-7.073ZM-8.248,-9.823C-9.224,-10.572 -10.073,-11.347 -10.823,-12.197C-11.348,-11.522 -11.847,-10.923 -12.347,-10.373C-12.522,-10.173 -12.697,-9.998 -12.897,-9.823L-8.248,-9.823ZM-8.548,-2.125L-13.523,-2.125L-13.523,-0.65L-8.548,-0.65L-8.548,-2.125ZM-8.548,-5.049L-13.523,-5.049L-13.523,-3.674L-8.548,-3.674L-8.548,-5.049ZM-6.499,-6.698L-6.499,-5.624C-5.674,-6.823 -4.999,-8.048 -4.499,-9.298C-3.899,-10.673 -3.324,-12.547 -2.8,-14.922L-0.5,-14.122C-0.275,-14.021 -0.15,-13.896 -0.15,-13.747C-0.15,-13.646 -0.425,-13.547 -0.925,-13.447C-1.149,-12.497 -1.375,-11.622 -1.6,-10.798L2.774,-10.798L3.349,-11.097C3.549,-11.097 3.749,-11.022 3.948,-10.897L5.173,-10.147C5.323,-10.048 5.398,-9.923 5.398,-9.823C5.398,-9.597 5.198,-9.373 4.823,-9.148L3.074,-4.174L1.124,-4.848L2.574,-8.948L-2.2,-8.948C-2.35,-8.523 -2.475,-8.123 -2.624,-7.773C-3.274,-6.273 -3.974,-4.899 -4.749,-3.674L-6.499,-4.799L-6.499,1L-13.522,1L-13.522,4.799C-12.272,4.549 -11.073,4.224 -9.873,3.849C-10.223,3.449 -10.573,3.074 -10.897,2.775L-9.423,1.4C-8.349,2.4 -7.298,3.599 -6.299,4.999L-7.874,6.474C-8.173,5.998 -8.474,5.599 -8.724,5.248C-10.348,5.849 -12.722,6.599 -15.872,7.548C-16.046,7.798 -16.222,7.948 -16.371,7.948C-16.521,7.948 -16.621,7.823 -16.621,7.573L-17.146,5.498C-16.597,5.424 -16.071,5.323 -15.571,5.224L-15.571,-6.698L-6.499,-6.698ZM-9.397,-14.422C-9.173,-14.321 -9.048,-14.172 -9.048,-14.021C-9.048,-13.922 -9.248,-13.822 -9.623,-13.747C-9.723,-13.622 -9.798,-13.521 -9.848,-13.447C-8.548,-12.097 -6.948,-10.972 -5.049,-10.123L-6.499,-8.573C-6.999,-8.873 -7.474,-9.198 -7.874,-9.522L-7.874,-8.173L-13.922,-8.173L-13.922,-8.898C-14.521,-8.398 -15.171,-7.898 -15.872,-7.398L-17.621,-8.847C-16.271,-9.597 -15.071,-10.472 -14.022,-11.497C-13.072,-12.422 -12.097,-13.622 -11.098,-15.096L-9.397,-14.422Z" style="fill:rgb(44,58,96);fill-rule:nonzero;"/>
        </g>
        <g transform="matrix(1,0,0,1,996.997,3463.36)">
            <path d="M0,6.573L-0.875,5.499C-0.05,4.848 0.449,4.074 0.6,3.199L-1.1,3.199L-1.1,0L2.1,0L2.1,2.724C2.1,4.223 1.399,5.523 0,6.573" style="fill:rgb(44,58,96);fill-rule:nonzero;"/>
        </g>
        <g transform="matrix(1,0,0,1,1018.52,3475.18)">
            <path d="M0,-18.445C0.226,-18.345 0.351,-18.22 0.351,-18.046C0.351,-17.945 0.075,-17.82 -0.424,-17.671C-0.725,-16.571 -1.074,-15.546 -1.424,-14.646L3.875,-14.646L3.875,-19.92L5.924,-19.745C6.299,-19.695 6.499,-19.595 6.499,-19.42C6.499,-19.295 6.35,-19.095 6.1,-18.845L6.1,-14.646L13.622,-14.646L13.622,-12.596L6.1,-12.596L6.1,-7.698L12.647,-7.698L12.647,-5.648L6.1,-5.648L6.1,-0.575L14.896,-0.575L14.896,1.475L-6.473,1.475L-6.473,-0.575L3.875,-0.575L3.875,-5.648L-2.974,-5.648L-2.974,-7.698L3.875,-7.698L3.875,-12.596L-2.324,-12.596C-2.374,-12.471 -2.424,-12.372 -2.475,-12.272C-3.224,-10.847 -4.074,-9.548 -5.023,-8.398L-7.273,-9.847C-6.073,-11.147 -5.123,-12.497 -4.424,-13.872C-3.699,-15.196 -3.023,-16.97 -2.374,-19.22L0,-18.445Z" style="fill:rgb(44,58,96);fill-rule:nonzero;"/>
        </g>
        <g transform="matrix(1,0,0,1,0,-657.71)">
            <path d="M1054.9,4127.24L1046.9,4127.24L1046.9,4131.72L1054.9,4131.72L1054.9,4127.24ZM1055.82,4115.32C1054.57,4115.6 1053.32,4115.82 1052.07,4116.02L1052.07,4119.92L1058.72,4119.92L1058.72,4121.97L1052.07,4121.97L1052.07,4125.19L1057.14,4125.19L1057.14,4135.24L1054.9,4135.24L1054.9,4133.77L1046.9,4133.77L1046.9,4135.34L1044.65,4135.34L1044.65,4125.19L1049.72,4125.19L1049.72,4121.97L1042.6,4121.97L1042.6,4119.92L1049.72,4119.92L1049.72,4116.37C1048.15,4116.6 1046.55,4116.77 1044.95,4116.9L1043.47,4114.94C1046.02,4114.85 1048.22,4114.67 1050.02,4114.4C1051.65,4114.22 1053.67,4113.85 1056.07,4113.27L1057.6,4114.77C1057.69,4114.87 1057.75,4114.99 1057.75,4115.12C1057.75,4115.27 1057.64,4115.32 1057.44,4115.32L1056.87,4115.19C1056.57,4115.19 1056.22,4115.24 1055.82,4115.32M1042.6,4115.42L1041.15,4116.99C1040,4116.17 1038.77,4115.42 1037.42,4114.74L1039,4113.17C1040.4,4113.87 1041.6,4114.62 1042.6,4115.42M1042.8,4127.82C1041.47,4130.29 1040.07,4132.59 1038.6,4134.74C1038.6,4135.27 1038.42,4135.54 1038.12,4135.54L1036.25,4133.97C1038.15,4131.67 1039.87,4129.07 1041.42,4126.17L1042.8,4127.82ZM1041.62,4122.54L1040.17,4124.12C1038.97,4123.12 1037.65,4122.19 1036.25,4121.37L1037.82,4119.82C1039.32,4120.67 1040.57,4121.59 1041.62,4122.54" style="fill:rgb(44,58,96);fill-rule:nonzero;"/>
        </g>
        <g transform="matrix(1,0,0,1,0,-657.909)">
            <path d="M1073.55,4125.57L1078.92,4125.57L1078.92,4120.22L1073.55,4120.22L1073.55,4125.57ZM1071.22,4120.22L1065.95,4120.22L1065.95,4125.57L1071.22,4125.57L1071.22,4120.22ZM1071.22,4118.07L1071.22,4113.17L1073.42,4113.35C1073.82,4113.39 1074.05,4113.49 1074.05,4113.67C1074.05,4113.8 1073.87,4113.99 1073.55,4114.24L1073.55,4118.07L1081.27,4118.07L1081.27,4129.19L1078.92,4129.19L1078.92,4127.72L1073.55,4127.72L1073.55,4135.74L1071.22,4135.74L1071.22,4127.72L1065.95,4127.72L1065.95,4129.19L1063.6,4129.19L1063.6,4118.07L1071.22,4118.07Z" style="fill:rgb(44,58,96);fill-rule:nonzero;"/>
        </g>
        <g transform="matrix(1,0,0,1,1105.69,3476.1)">
            <path d="M0,-19.294C-1.174,-19.095 -2.349,-18.944 -3.523,-18.795L-3.523,-17.02L2.725,-17.02L2.725,-15.171L-2.349,-15.171C-1.449,-14.471 -0.699,-13.996 -0.1,-13.721C0.851,-13.196 2.051,-12.696 3.5,-12.246L1.551,-10.397C0.201,-11.097 -0.924,-11.772 -1.799,-12.471C-2.398,-12.921 -2.974,-13.446 -3.523,-14.07L-3.523,-10.196L-1.374,-10.196L-0.799,-10.497C-0.6,-10.497 -0.399,-10.422 -0.225,-10.297L0.926,-9.522C1.075,-9.422 1.176,-9.322 1.176,-9.222C1.176,-9.022 1,-8.822 0.676,-8.622L-0.6,-7.072L2.925,-7.072C2.925,-4.773 2.7,-3.349 2.275,-2.748C2.025,-2.148 1.475,-1.773 0.625,-1.574C-0.299,-1.324 -1.85,-1.199 -4.023,-1.199L-4.998,-3.248C-2.574,-3.248 -1.124,-3.298 -0.674,-3.423C-0.25,-3.474 0.101,-3.673 0.351,-3.974C0.601,-4.198 0.775,-4.673 0.875,-5.398L-1.999,-5.398L-2.648,-4.623L-4.498,-5.323L-2.273,-8.447L-5.973,-8.447C-6.197,-6.723 -6.623,-5.298 -7.272,-4.173C-7.873,-3.099 -8.822,-2.148 -10.072,-1.299L-11.922,-2.573C-10.697,-3.298 -9.797,-4.099 -9.223,-4.998C-8.672,-5.798 -8.272,-6.947 -8.047,-8.447L-11.246,-8.447L-11.246,-10.196L-5.673,-10.196L-5.673,-13.996C-5.998,-13.696 -6.322,-13.421 -6.623,-13.171C-7.498,-12.397 -8.747,-11.522 -10.347,-10.571L-12.321,-12.046C-10.672,-12.746 -9.297,-13.446 -8.248,-14.146C-7.772,-14.445 -7.272,-14.796 -6.748,-15.171L-12.021,-15.171L-12.021,-17.02L-5.673,-17.02L-5.673,-18.545C-7.072,-18.395 -8.473,-18.27 -9.872,-18.194L-11.146,-19.944C-8.848,-19.994 -6.897,-20.145 -5.248,-20.344C-3.799,-20.469 -1.975,-20.719 0.176,-21.119L1.625,-19.794C1.7,-19.694 1.75,-19.595 1.75,-19.47C1.75,-19.319 1.65,-19.27 1.45,-19.27L0.926,-19.395C0.65,-19.395 0.351,-19.345 0,-19.294M-13.196,-18.095L-14.546,-16.646C-15.721,-17.57 -16.995,-18.42 -18.37,-19.17L-16.896,-20.645C-15.445,-19.845 -14.195,-18.994 -13.196,-18.095M-13.971,-13.221L-15.346,-11.746C-16.646,-12.796 -18.045,-13.746 -19.545,-14.596L-18.07,-16.045C-16.471,-15.146 -15.096,-14.221 -13.971,-13.221M-13.671,-9.797L-13.671,-2.799C-13.221,-1.948 -12.547,-1.349 -11.621,-1.023C-10.572,-0.624 -8.947,-0.424 -6.748,-0.424C-3.023,-0.424 0.4,-0.549 3.5,-0.824L2.625,1.726L-6.748,1.825C-8.747,1.825 -10.322,1.65 -11.521,1.351C-12.797,1.001 -13.796,0.451 -14.496,-0.324C-14.796,-0.624 -15.046,-0.949 -15.246,-1.299L-17.67,1.126C-17.82,1.45 -17.995,1.625 -18.17,1.625C-18.37,1.625 -18.495,1.501 -18.57,1.275L-19.819,-0.524C-18.32,-1.424 -17.07,-2.323 -16.021,-3.248L-16.021,-7.747L-18.17,-7.747L-18.17,-9.797L-13.671,-9.797Z" style="fill:rgb(44,58,96);fill-rule:nonzero;"/>
        </g>
        <g transform="matrix(1,0,0,1,0,-657.71)">
            <path d="M1129.22,4118.84L1126.77,4118.84L1126.77,4120.89L1129.22,4120.89L1129.22,4118.84ZM1124.55,4127.62L1127.57,4127.62L1127.57,4125.87L1124.55,4125.87L1124.55,4127.62ZM1124.82,4120.89L1124.82,4117.07L1129.22,4117.07L1129.22,4115.32L1122.97,4115.32L1122.97,4120.89L1124.82,4120.89ZM1124.55,4130.64L1122.67,4130.64L1122.67,4124.32L1129.42,4124.32L1129.42,4129.19L1124.55,4129.19L1124.55,4130.64ZM1131.27,4113.47L1131.27,4120.89L1133.42,4120.89L1133.42,4129.77C1133.42,4130.84 1132.85,4131.54 1131.69,4131.84C1130.8,4132.09 1129.9,4132.22 1129.02,4132.22L1128.15,4130.07L1130.35,4130.02C1130.94,4129.99 1131.27,4129.69 1131.27,4129.09L1131.27,4122.74L1120.82,4122.74L1120.82,4131.72L1118.67,4131.72L1118.67,4120.89L1120.92,4120.89L1120.92,4113.47L1131.27,4113.47ZM1117.9,4115.82L1116.42,4117.37C1115.2,4116.42 1113.87,4115.55 1112.42,4114.74L1114,4113.17C1115.52,4114.02 1116.82,4114.9 1117.9,4115.82M1116.92,4120.29L1115.45,4121.87C1114.15,4120.94 1112.75,4120.09 1111.25,4119.32L1112.82,4117.77C1114.42,4118.57 1115.8,4119.42 1116.92,4120.29M1116.82,4123.62L1116.82,4130.82C1117.3,4131.77 1118.05,4132.42 1119.05,4132.77C1120.2,4133.19 1121.95,4133.39 1124.35,4133.39C1127.92,4133.39 1131.19,4133.29 1134.19,4133.09L1133.42,4135.54L1124.35,4135.54C1122.27,4135.54 1120.6,4135.36 1119.35,4135.04C1118.02,4134.69 1117,4134.14 1116.25,4133.34C1115.9,4133.02 1115.62,4132.64 1115.37,4132.19L1113.02,4134.94C1112.87,4135.19 1112.75,4135.34 1112.62,4135.34C1112.42,4135.34 1112.3,4135.22 1112.23,4135.02L1110.98,4133.29C1112.32,4132.39 1113.5,4131.49 1114.47,4130.54L1114.47,4125.57L1112.42,4125.57L1112.42,4123.62L1116.82,4123.62Z" style="fill:rgb(44,58,96);fill-rule:nonzero;"/>
        </g>
        <g transform="matrix(1,0,0,1,0,-658.21)">
            <path d="M1153.55,4129.39L1141.72,4129.39L1141.72,4132.32L1153.55,4132.32L1153.55,4129.39ZM1153.55,4124.32L1141.72,4124.32L1141.72,4127.34L1153.55,4127.34L1153.55,4124.32ZM1153.55,4119.14L1141.72,4119.14L1141.72,4122.27L1153.55,4122.27L1153.55,4119.14ZM1148.9,4113.8C1149.25,4113.85 1149.45,4113.97 1149.45,4114.17C1149.45,4114.37 1149.25,4114.6 1148.85,4114.85L1147.62,4116.99L1155.8,4116.99L1155.8,4135.84L1153.55,4135.84L1153.55,4134.47L1141.72,4134.47L1141.72,4135.84L1139.47,4135.84L1139.47,4116.99L1145.05,4116.99L1146.9,4113.37L1148.9,4113.8Z" style="fill:rgb(44,58,96);fill-rule:nonzero;"/>
        </g>
        <g transform="matrix(1,0,0,1,1183.02,3473.98)">
            <path d="M0,-14.696L-1.649,-13.246C-2.8,-14.296 -3.899,-15.121 -4.974,-15.77L-3.399,-17.245C-2.249,-16.546 -1.101,-15.695 0,-14.696M-11.923,-16.421C-12.672,-16.095 -13.422,-15.82 -14.146,-15.595L-14.146,-11.672L-8.448,-11.672C-8.548,-13.671 -8.573,-16.07 -8.573,-18.82L-6.299,-18.57C-5.948,-18.495 -5.749,-18.37 -5.749,-18.219C-5.749,-18.045 -5.948,-17.745 -6.349,-17.345C-6.349,-15.196 -6.323,-13.296 -6.249,-11.672L0.399,-11.672L0.399,-9.622L-6.148,-9.622C-6.049,-8.222 -5.924,-7.048 -5.774,-6.097C-5.674,-5.373 -5.524,-4.723 -5.349,-4.124C-4.399,-5.323 -3.474,-6.623 -2.624,-8.072L-0.649,-7.073C-0.476,-6.923 -0.375,-6.773 -0.375,-6.597C-0.375,-6.448 -0.625,-6.323 -1.075,-6.222C-2.374,-4.223 -3.55,-2.699 -4.574,-1.649C-4.374,-1.124 -4.175,-0.675 -3.949,-0.274C-3.349,0.925 -2.824,1.5 -2.425,1.5C-2.274,1.5 -2.124,1.375 -1.95,1.101C-1.749,0.851 -1.399,-0.199 -0.875,-2.024L0.975,-0.449C0.524,1.05 0.075,2.125 -0.351,2.8C-0.95,3.675 -1.575,4.124 -2.225,4.124C-2.874,4.124 -3.499,3.749 -4.149,3.05C-4.874,2.3 -5.573,1.25 -6.224,-0.125C-7.398,0.825 -8.823,1.776 -10.522,2.775L-12.197,1.101C-10.348,0.125 -8.873,-0.824 -7.798,-1.724C-7.548,-1.924 -7.323,-2.124 -7.099,-2.324C-7.599,-3.823 -7.948,-5.523 -8.173,-7.423C-8.248,-8.072 -8.298,-8.822 -8.349,-9.622L-14.146,-9.622L-14.146,-5.898C-12.897,-6.222 -11.673,-6.597 -10.448,-6.998L-10.448,-4.948C-11.447,-4.598 -12.672,-4.198 -14.146,-3.749L-14.146,1.5C-14.146,2.35 -14.497,3 -15.196,3.4C-15.796,3.825 -17.271,4.05 -19.62,4.05L-20.495,1.8L-17.87,1.8C-16.972,1.8 -16.472,1.575 -16.396,1.101L-16.396,-3.098C-17.696,-2.723 -19.146,-2.324 -20.695,-1.924C-20.87,-1.574 -21.021,-1.424 -21.17,-1.424C-21.37,-1.424 -21.47,-1.549 -21.47,-1.824L-22.045,-4.249C-20.146,-4.523 -18.245,-4.873 -16.396,-5.323L-16.396,-9.622L-21.47,-9.622L-21.47,-11.672L-16.396,-11.672L-16.396,-14.946C-17.596,-14.646 -18.796,-14.396 -19.995,-14.22L-21.47,-16.27C-19.57,-16.371 -17.921,-16.62 -16.546,-17.02C-15.321,-17.27 -13.797,-17.82 -11.997,-18.62L-10.397,-17.046C-10.298,-16.945 -10.247,-16.82 -10.247,-16.671C-10.247,-16.52 -10.348,-16.47 -10.522,-16.47L-11.147,-16.595C-11.372,-16.595 -11.622,-16.52 -11.923,-16.421" style="fill:rgb(44,58,96);fill-rule:nonzero;"/>
        </g>
        <g transform="matrix(1,0,0,1,0,-657.11)">
            <path d="M1202.95,4126.54L1200.62,4126.54L1200.62,4129.07L1202.95,4129.07L1202.95,4126.54ZM1204.8,4124.77L1204.8,4130.84L1200.62,4130.84L1200.62,4132.19L1198.75,4132.19L1198.75,4124.77L1204.8,4124.77ZM1200.9,4117.55L1200.9,4115.59L1202.72,4115.74C1203.07,4115.77 1203.25,4115.84 1203.25,4115.99C1203.25,4116.09 1203.1,4116.27 1202.85,4116.47L1202.85,4117.55L1205,4117.55L1205,4119.32L1202.85,4119.32L1202.85,4121.47L1205.3,4121.47L1205.3,4123.22L1198.47,4123.22L1198.47,4121.47L1200.9,4121.47L1200.9,4119.32L1198.75,4119.32L1198.75,4117.55L1200.9,4117.55ZM1192.12,4128.19L1188.9,4128.19L1188.9,4131.22L1192.12,4131.22L1192.12,4128.19ZM1193.47,4114.92L1187.42,4114.92L1187.42,4113.07L1193.47,4113.07L1193.47,4114.92ZM1193.67,4124.77L1187.32,4124.77L1187.32,4122.92L1193.67,4122.92L1193.67,4124.77ZM1193.57,4121.47L1187.32,4121.47L1187.32,4119.59L1193.57,4119.59L1193.57,4121.47ZM1194.17,4126.34L1194.17,4133.02C1194.72,4131.29 1195.1,4129.52 1195.35,4127.69C1195.67,4125.14 1195.82,4122.57 1195.82,4119.99L1195.82,4113.27L1208.12,4113.27L1208.12,4132.79C1208.12,4133.74 1207.64,4134.36 1206.72,4134.66C1205.97,4134.91 1205.25,4135.04 1204.52,4135.04L1203.75,4132.99L1205.37,4132.94C1205.82,4132.89 1206.07,4132.67 1206.07,4132.19L1206.07,4115.12L1197.87,4115.12L1197.87,4119.99C1197.87,4122.84 1197.72,4125.49 1197.42,4127.99C1197.12,4130.54 1196.65,4132.77 1196.02,4134.74L1194.17,4133.77L1194.17,4134.24L1192.12,4134.24L1192.12,4133.09L1188.9,4133.09L1188.9,4134.74L1186.85,4134.74L1186.85,4126.34L1194.17,4126.34ZM1194.55,4118.14L1186.25,4118.14L1186.25,4116.19L1194.55,4116.19L1194.55,4118.14Z" style="fill:rgb(44,58,96);fill-rule:nonzero;"/>
        </g>
        <g transform="matrix(1,0,0,1,0,-657.334)">
            <path d="M1230.8,4120.12L1227.75,4120.12L1227.75,4122.57L1230.8,4122.57L1230.8,4120.12ZM1227.75,4118.27L1230.8,4118.27L1230.8,4115.72L1227.75,4115.72L1227.75,4118.27ZM1225.62,4120.12L1222.77,4120.12L1222.77,4122.57L1225.62,4122.57L1225.62,4120.12ZM1225.62,4115.72L1222.77,4115.72L1222.77,4118.27L1225.62,4118.27L1225.62,4115.72ZM1232.92,4113.77L1232.92,4124.52L1227.75,4124.52L1227.75,4127.14L1232.75,4127.14L1232.75,4129.11L1227.75,4129.11L1227.75,4132.61L1233.82,4132.61L1233.82,4134.56L1219.55,4134.56L1219.55,4132.61L1225.62,4132.61L1225.62,4129.11L1220.82,4129.11L1220.82,4127.14L1225.62,4127.14L1225.62,4124.52L1220.62,4124.52L1220.62,4113.77L1232.92,4113.77ZM1219.65,4114.07L1219.65,4116.02L1216.42,4116.02L1216.42,4121.69L1219.37,4121.69L1219.37,4123.64L1216.42,4123.64L1216.42,4129.74C1217.52,4129.47 1218.6,4129.16 1219.65,4128.82L1219.65,4130.66C1218.07,4131.27 1215.6,4132.04 1212.23,4133.02C1212.08,4133.27 1211.9,4133.39 1211.75,4133.39C1211.6,4133.39 1211.5,4133.27 1211.48,4133.04L1210.98,4130.86C1212.08,4130.72 1213.17,4130.49 1214.27,4130.24L1214.27,4123.64L1211.45,4123.64L1211.45,4121.69L1214.27,4121.69L1214.27,4116.02L1211.25,4116.02L1211.25,4114.07L1219.65,4114.07Z" style="fill:rgb(44,58,96);fill-rule:nonzero;"/>
        </g>
        <g transform="matrix(1,0,0,1,1247,3463.36)">
            <path d="M0,6.573L-0.875,5.499C-0.05,4.848 0.449,4.074 0.6,3.199L-1.1,3.199L-1.1,0L2.1,0L2.1,2.724C2.1,4.223 1.399,5.523 0,6.573" style="fill:rgb(44,58,96);fill-rule:nonzero;"/>
        </g>
        <g transform="matrix(1,0,0,1,1279.52,3472.83)">
            <path d="M0,-13.373C0.1,-13.373 0.225,-13.298 0.375,-13.147L1.475,-12.272C1.649,-12.147 1.75,-12.023 1.75,-11.898C1.75,-11.723 1.6,-11.523 1.35,-11.323L1.225,-5.649C1.225,-4.125 0.875,-3.05 0.225,-2.45C-0.325,-2 -1.375,-1.65 -2.925,-1.351L-3.899,-3.7C-2.425,-3.75 -1.55,-3.925 -1.3,-4.25C-1.05,-4.575 -0.9,-5.125 -0.875,-5.925L-0.801,-10.523L-5.475,-9.299L-5.475,-0.476L-7.724,-0.476L-7.724,-8.724L-12.022,-7.599L-12.022,-0.076C-12.022,0.674 -11.922,1.224 -11.672,1.574C-11.422,1.924 -10.923,2.073 -10.148,2.073L-1.075,2.073C-0.075,2.073 0.675,1.898 1.199,1.549C1.75,1.224 2.174,0.249 2.523,-1.351L4.773,-0.376C4.248,1.624 3.624,2.873 2.874,3.423C2.225,3.923 1.424,4.198 0.475,4.198L-11.147,4.198C-12.223,4.198 -13.047,3.849 -13.622,3.198C-14.122,2.573 -14.347,1.674 -14.347,0.499L-14.347,-6.999L-17.671,-6.149L-18.271,-8.199L-14.347,-9.174L-14.347,-15.022L-11.647,-14.647C-11.322,-14.598 -11.147,-14.473 -11.147,-14.247C-11.147,-14.022 -11.322,-13.772 -11.623,-13.522C-11.897,-13.348 -12.022,-13.072 -12.022,-12.673L-12.022,-9.748L-7.724,-10.823L-7.724,-17.571L-5.674,-17.396C-5.273,-17.347 -5.074,-17.247 -5.074,-17.071C-5.074,-16.946 -5.225,-16.747 -5.475,-16.497L-5.475,-11.373L-0.9,-12.522C-0.45,-13.072 -0.15,-13.373 0,-13.373" style="fill:rgb(44,58,96);fill-rule:nonzero;"/>
        </g>
        <g transform="matrix(1,0,0,1,1300.82,3465.48)">
            <path d="M0,1.824C0.3,1.874 0.475,1.973 0.475,2.174C0.475,2.374 0.324,2.598 0.05,2.848C-0.2,3.023 -0.301,3.299 -0.301,3.648L-0.301,5.048C0.4,4.898 1.05,4.723 1.625,4.549C2.674,4.223 3.949,3.698 5.449,2.973L6.924,4.498C7.023,4.623 7.073,4.723 7.098,4.823C7.049,4.973 6.973,5.023 6.924,5.023L6.523,4.923C6.398,4.923 6.223,4.973 6.023,5.023C3.924,5.923 1.799,6.573 -0.301,6.972L-0.301,8.048C-0.301,8.722 -0.2,9.222 0,9.572C0.199,9.872 0.65,9.997 1.35,9.997L2.999,9.997C3.749,9.997 4.299,9.872 4.674,9.622C5.074,9.422 5.398,8.747 5.648,7.647L7.697,8.522C7.298,10.022 6.799,10.947 6.223,11.372C5.724,11.747 5.099,11.946 4.374,11.946L0.475,11.946C-0.525,11.946 -1.275,11.646 -1.775,11.047C-2.225,10.471 -2.449,9.672 -2.449,8.622L-2.449,1.499L0,1.824ZM0,-9.123C0.3,-9.073 0.475,-8.948 0.475,-8.748C0.475,-8.549 0.324,-8.323 0.05,-8.099C-0.2,-7.924 -0.301,-7.649 -0.301,-7.274L-0.301,-5.65C0.375,-5.799 0.975,-5.974 1.524,-6.174C2.574,-6.524 3.85,-7.073 5.349,-7.874L6.823,-6.324C6.924,-6.224 6.973,-6.124 6.998,-6.025C6.948,-5.874 6.873,-5.824 6.823,-5.824L6.424,-5.924C6.299,-5.924 6.123,-5.874 5.924,-5.799C3.85,-4.85 1.774,-4.124 -0.301,-3.675L-0.301,-3.175C-0.301,-2.5 -0.2,-2 0,-1.651C0.199,-1.351 0.65,-1.226 1.35,-1.226L3.199,-1.226C3.949,-1.226 4.498,-1.325 4.873,-1.575C5.273,-1.776 5.599,-2.425 5.849,-3.475L7.898,-2.6C7.498,-1.151 6.998,-0.25 6.424,0.149C5.924,0.55 5.299,0.724 4.574,0.724L0.475,0.724C-0.525,0.724 -1.275,0.425 -1.775,-0.176C-2.225,-0.726 -2.449,-1.55 -2.449,-2.6L-2.449,-9.423L0,-9.123ZM-6.273,3.848L-11.248,3.848L-11.248,5.797L-6.273,5.797L-6.273,3.848ZM-6.273,0.324L-11.248,0.324L-11.248,2.098L-6.273,2.098L-6.273,0.324ZM-4.225,-1.526L-4.225,9.797C-4.225,10.771 -4.725,11.396 -5.674,11.696C-6.424,11.922 -7.174,12.047 -7.924,12.047L-8.698,9.997L-6.998,9.971C-6.523,9.947 -6.273,9.697 -6.273,9.222L-6.273,7.548L-11.248,7.548L-11.248,12.047L-13.297,12.047L-13.297,-1.526L-4.225,-1.526ZM-8.073,-9.474C-7.773,-9.373 -7.623,-9.248 -7.623,-9.149C-7.623,-8.998 -7.799,-8.798 -8.123,-8.549C-8.673,-7.448 -9.348,-6.299 -10.147,-5.049C-8.748,-5.15 -7.373,-5.249 -6.023,-5.4C-6.349,-6.025 -6.724,-6.674 -7.148,-7.374L-5.474,-7.874C-4.273,-6.15 -3.424,-4.55 -2.949,-3.075L-4.999,-2.6C-5.1,-2.95 -5.199,-3.324 -5.299,-3.699C-7.248,-3.449 -9.998,-3.15 -13.597,-2.8C-13.746,-2.525 -13.922,-2.4 -14.072,-2.4C-14.222,-2.4 -14.297,-2.5 -14.297,-2.725L-14.771,-4.749C-14.021,-4.775 -13.271,-4.824 -12.521,-4.874C-12.122,-5.574 -11.772,-6.224 -11.498,-6.824C-10.922,-7.974 -10.447,-9.099 -10.072,-10.223L-8.073,-9.474Z" style="fill:rgb(44,58,96);fill-rule:nonzero;"/>
        </g>
        <g transform="matrix(1,0,0,1,1334.19,3457.13)">
            <path d="M0,18.546L-1.75,19.721C-2.55,18.371 -3.449,17.196 -4.399,16.196L-3.024,15.121C-2.025,16.022 -1,17.147 0,18.546M-7.123,16.696L-8.773,17.771C-9.398,16.871 -10.072,16.071 -10.822,15.422L-9.572,14.347C-8.748,14.946 -7.924,15.746 -7.123,16.696M-7.599,11.223L-11.123,11.223L-11.123,12.497L-7.599,12.497L-7.599,11.223ZM-7.599,8.473L-11.123,8.473L-11.123,9.648L-7.599,9.648L-7.599,8.473ZM-7.599,5.749L-11.123,5.749L-11.123,6.924L-7.599,6.924L-7.599,5.749ZM-12.547,15.147C-12.247,15.196 -12.098,15.321 -12.098,15.522C-12.098,15.722 -12.247,15.921 -12.521,16.147C-12.771,16.296 -12.872,16.522 -12.872,16.871L-12.872,16.971C-12.872,17.621 -12.797,18.096 -12.622,18.421C-12.422,18.695 -12.022,18.846 -11.422,18.846L-7.799,18.846C-7.248,18.846 -6.799,18.721 -6.498,18.521C-6.199,18.371 -5.949,17.821 -5.749,16.871L-3.799,17.771C-4.124,19.021 -4.523,19.82 -4.975,20.195C-5.374,20.521 -5.874,20.695 -6.449,20.695L-12.197,20.695C-13.122,20.695 -13.822,20.396 -14.297,19.82C-14.722,19.271 -14.922,18.471 -14.922,17.471L-14.922,14.821L-12.547,15.147ZM-13.271,4.674C-12.747,3.824 -12.247,2.824 -11.772,1.65L-14.722,1.65L-14.121,1.95C-13.947,2.05 -13.847,2.125 -13.847,2.225C-13.847,2.425 -14.021,2.55 -14.347,2.625C-14.746,3.425 -15.097,4.124 -15.422,4.724L-15.422,7.674C-14.572,6.674 -13.847,5.674 -13.271,4.674M-17.546,4.775C-16.996,3.9 -16.471,2.85 -15.946,1.65L-19.521,1.65L-19.521,7.448C-18.746,6.549 -18.096,5.674 -17.546,4.775M-16.271,16.296C-16.021,16.397 -15.896,16.496 -15.896,16.596C-15.896,16.746 -16.047,16.871 -16.297,16.971C-16.996,18.396 -17.746,19.546 -18.546,20.495L-20.295,19.421C-19.371,18.32 -18.57,17.022 -17.871,15.522L-16.271,16.296ZM-9.748,-1.999C-9.373,-1.949 -9.173,-1.85 -9.173,-1.675C-9.173,-1.524 -9.322,-1.324 -9.572,-1.074L-9.572,-0.3L-0.875,-0.3L-0.875,1.65L-10.348,1.65L-9.923,1.85C-9.748,1.95 -9.648,2.05 -9.648,2.15C-9.648,2.324 -9.822,2.449 -10.148,2.525C-10.423,3.15 -10.697,3.699 -10.947,4.199L-7.599,4.199L-6.924,2.225L-5.324,2.6C-5.023,2.65 -4.874,2.775 -4.874,2.925C-4.874,3.074 -5.049,3.249 -5.374,3.4L-5.624,4.199L-0.975,4.199L-0.975,5.749L-5.648,5.749L-5.648,6.924L-1.75,6.924L-1.75,8.473L-5.648,8.473L-5.648,9.648L-1.75,9.648L-1.75,11.223L-5.648,11.223L-5.648,12.497L-0.975,12.497L-0.975,14.047L-11.123,14.047L-11.123,14.647L-13.072,14.647L-13.072,7.724C-13.422,8.198 -13.771,8.673 -14.146,9.173L-15.422,7.899L-15.422,14.647L-17.371,14.647L-17.371,7.748C-17.746,8.248 -18.146,8.774 -18.546,9.274L-19.545,8.274C-19.57,10.548 -19.746,12.597 -20.045,14.397C-20.295,15.897 -20.77,17.796 -21.471,20.096L-23.619,19.021C-22.92,17.071 -22.445,15.347 -22.195,13.847C-21.845,11.697 -21.67,9.573 -21.67,7.498L-21.67,-0.3L-11.797,-0.3L-11.797,-2.149L-9.748,-1.999Z" style="fill:rgb(44,58,96);fill-rule:nonzero;"/>
        </g>
        <g transform="matrix(1,0,0,1,1349.72,3462.68)">
            <path d="M0,7.623L-2.05,8.998C-2.899,7.373 -3.85,5.974 -4.874,4.799L-3.299,3.524C-2.199,4.599 -1.1,5.974 0,7.623M2.85,-1.35L2.85,-7.123L5.248,-6.849C5.523,-6.798 5.674,-6.698 5.674,-6.523C5.674,-6.323 5.474,-6.099 5.073,-5.849L5.073,-1.35L8.598,-1.35L8.598,0.8L5.073,0.8L5.073,12.022C5.073,12.997 4.748,13.722 4.099,14.222C3.549,14.696 2.199,14.946 0,14.946L-0.875,12.697L1.5,12.697C2.324,12.697 2.773,12.347 2.85,11.622L2.85,0.8L-6.349,0.8L-6.349,-1.35L2.85,-1.35ZM-5.824,-6.573C-5.574,-6.474 -5.449,-6.373 -5.449,-6.248C-5.449,-5.998 -5.699,-5.799 -6.148,-5.648C-6.773,-4.174 -7.349,-2.874 -7.898,-1.774L-7.898,15.146L-10.148,15.146L-10.148,2.175C-10.697,3.049 -11.322,3.949 -11.998,4.898L-13.672,3.225C-12.372,1.574 -11.297,-0.075 -10.398,-1.774C-9.572,-3.299 -8.748,-5.224 -7.898,-7.523L-5.824,-6.573Z" style="fill:rgb(44,58,96);fill-rule:nonzero;"/>
        </g>
        <g transform="matrix(1,0,0,1,1383.52,3464.46)">
            <path d="M0,5.647L-2.149,7.122C-3.85,4.148 -5.749,1.574 -7.823,-0.601L-6.148,-1.976C-4.1,0.024 -2.05,2.548 0,5.647M-0.2,-7.724L-0.2,-5.575L-9.573,-5.575C-10.223,-3.925 -10.873,-2.55 -11.548,-1.426L-9.923,-1.301C-9.498,-1.276 -9.273,-1.176 -9.273,-0.976C-9.273,-0.826 -9.448,-0.601 -9.772,-0.301L-9.772,13.371L-12.197,13.371L-12.197,-0.401C-12.547,0.099 -12.897,0.548 -13.222,0.899C-15.071,2.898 -17.421,4.672 -20.22,6.248L-22.47,4.672C-19.32,3.073 -16.996,1.473 -15.521,-0.151C-14.172,-1.601 -13.022,-3.425 -12.072,-5.575L-21.771,-5.575L-21.771,-7.724L-0.2,-7.724Z" style="fill:rgb(44,58,96);fill-rule:nonzero;"/>
        </g>
        <g transform="matrix(1,0,0,1,0,-658.084)">
            <path d="M1401.5,4128.19L1399.25,4128.19L1399.25,4129.94L1401.5,4129.94L1401.5,4128.19ZM1402.07,4119.69L1403.19,4116.87L1397.77,4116.87C1398.25,4117.84 1398.67,4118.79 1399.07,4119.69L1402.07,4119.69ZM1399.45,4123.69L1399.45,4121.94L1401.17,4122.07C1401.5,4122.09 1401.67,4122.19 1401.67,4122.34C1401.67,4122.44 1401.55,4122.62 1401.3,4122.82L1401.3,4123.69L1404.12,4123.69L1404.12,4125.27L1401.3,4125.27L1401.3,4126.64L1403.35,4126.64L1403.35,4131.52L1397.4,4131.52L1397.4,4126.64L1399.45,4126.64L1399.45,4125.27L1396.5,4125.27L1396.5,4123.69L1399.45,4123.69ZM1401.4,4113.32C1401.77,4113.37 1401.97,4113.47 1401.97,4113.65C1401.97,4113.77 1401.85,4113.97 1401.6,4114.24L1401.6,4115.02L1407.92,4115.02L1407.92,4116.87L1404.15,4116.87L1405.02,4117.32C1405.27,4117.44 1405.4,4117.54 1405.4,4117.64C1405.4,4117.87 1405.22,4118.07 1404.9,4118.24L1404.22,4119.69L1407.35,4119.69L1407.35,4130.54C1407.35,4131.61 1406.94,4132.29 1406.17,4132.59C1405.55,4132.86 1404.92,4132.99 1404.32,4132.99L1403.44,4130.84L1404.67,4130.79C1405.02,4130.77 1405.19,4130.47 1405.19,4129.86L1405.19,4121.57L1395.62,4121.57L1395.62,4132.49L1393.47,4132.49L1393.47,4119.69L1396.87,4119.69C1396.5,4118.92 1396.12,4118.14 1395.72,4117.37L1396.75,4116.87L1392.8,4116.87L1392.8,4115.02L1399.35,4115.02L1399.35,4113.17L1401.4,4113.32ZM1391.92,4116.29L1390.45,4117.84C1389.37,4116.94 1388.2,4116.14 1386.95,4115.39L1388.5,4113.85C1389.85,4114.62 1390.97,4115.44 1391.92,4116.29M1391.32,4120.87L1389.87,4122.44C1388.67,4121.54 1387.37,4120.72 1385.98,4119.99L1387.52,4118.44C1389.02,4119.19 1390.27,4120.02 1391.32,4120.87M1391.15,4124.09L1391.15,4131.39C1391.67,4132.27 1392.5,4132.86 1393.6,4133.19C1394.82,4133.59 1396.75,4133.77 1399.35,4133.77C1402.82,4133.77 1406.02,4133.66 1408.92,4133.47L1408.12,4135.91L1399.35,4135.91C1397.12,4135.91 1395.35,4135.74 1394,4135.44C1392.6,4135.11 1391.5,4134.59 1390.7,4133.84C1390.35,4133.54 1390.05,4133.19 1389.8,4132.79L1387.82,4135.31C1387.67,4135.56 1387.55,4135.71 1387.42,4135.71C1387.23,4135.71 1387.1,4135.59 1387.05,4135.39L1385.77,4133.66C1387,4132.84 1388.05,4131.99 1388.9,4131.11L1388.9,4126.14L1387.42,4126.14L1387.42,4124.09L1391.15,4124.09Z" style="fill:rgb(44,58,96);fill-rule:nonzero;"/>
        </g>
        <g transform="matrix(1,0,0,1,1423.82,3467.88)">
            <path d="M0,-2.649C-0.375,-3 -0.824,-3.199 -1.324,-3.199C-1.85,-3.199 -2.299,-3 -2.649,-2.649C-3.023,-2.275 -3.199,-1.825 -3.199,-1.325C-3.199,-0.799 -3.023,-0.35 -2.649,0C-2.299,0.374 -1.85,0.55 -1.324,0.55C-0.824,0.55 -0.375,0.374 0,0C0.351,-0.35 0.55,-0.799 0.55,-1.325C0.55,-1.825 0.351,-2.275 0,-2.649M1.075,1.075C0.4,1.749 -0.399,2.075 -1.324,2.075C-2.274,2.075 -3.074,1.749 -3.724,1.075C-4.398,0.425 -4.724,-0.375 -4.724,-1.325C-4.724,-2.25 -4.398,-3.049 -3.724,-3.724C-3.074,-4.374 -2.274,-4.724 -1.324,-4.724C-0.399,-4.724 0.4,-4.374 1.075,-3.724C1.725,-3.049 2.075,-2.25 2.075,-1.325C2.075,-0.375 1.725,0.425 1.075,1.075" style="fill:rgb(44,58,96);fill-rule:nonzero;"/>
        </g>
        <g transform="matrix(1,0,0,1,0,-584.935)">
            <path d="M657.595,4078.74L655.646,4078.74L655.646,4080.8L657.595,4080.8L657.595,4078.74ZM653.696,4078.74L651.946,4078.74L651.946,4080.8L653.696,4080.8L653.696,4078.74ZM656.82,4087.34L648.997,4087.34L648.997,4088.59L656.82,4088.59L656.82,4087.34ZM649.997,4078.74L648.222,4078.74L648.222,4080.8L649.997,4080.8L649.997,4078.74ZM659.645,4082.34L646.173,4082.34L646.173,4077.17L659.645,4077.17L659.645,4082.34ZM660.72,4084.79L644.724,4084.79L644.724,4083.14L660.72,4083.14L660.72,4084.79ZM658.87,4085.67L658.87,4090.27L655.321,4090.27C655.796,4091.07 656.271,4091.69 656.745,4092.12C656.82,4092.22 656.921,4092.29 657.021,4092.37C657.87,4091.77 658.62,4091.12 659.27,4090.47L660.595,4091.82C660.669,4091.92 660.72,4092.02 660.72,4092.12C660.72,4092.27 660.52,4092.32 660.145,4092.32C659.595,4092.69 659.045,4093.04 658.495,4093.39C658.545,4093.44 658.62,4093.47 658.67,4093.49C659.27,4093.79 660.12,4094.02 661.22,4094.17L659.645,4096.22C658.345,4095.72 657.37,4095.16 656.695,4094.57C656.096,4094.07 655.546,4093.39 655.021,4092.59C654.596,4092.02 654.171,4091.24 653.771,4090.27L652.046,4090.27L652.046,4093.77C653.021,4093.64 653.972,4093.49 654.87,4093.29L654.87,4094.94C653.671,4095.27 651.821,4095.69 649.297,4096.22C649.122,4096.41 648.972,4096.52 648.822,4096.52C648.673,4096.52 648.572,4096.41 648.572,4096.19L648.122,4094.27C648.822,4094.22 649.497,4094.14 650.172,4094.04L650.172,4091.47C649.772,4091.97 649.397,4092.39 649.072,4092.69C648.372,4093.34 647.448,4093.99 646.272,4094.66L644.523,4093.09C645.748,4092.59 646.798,4092.04 647.697,4091.44C648.098,4091.19 648.572,4090.79 649.072,4090.27L646.948,4090.27L646.948,4085.67L658.87,4085.67ZM644.623,4080.02L643.249,4081.47C642.198,4080.52 641.05,4079.64 639.824,4078.85L641.299,4077.37C642.599,4078.22 643.698,4079.1 644.623,4080.02M643.823,4084.59L642.474,4086.07C641.374,4085.14 640.199,4084.29 638.95,4083.52L640.425,4082.07C641.774,4082.87 642.898,4083.72 643.823,4084.59M643.823,4087.04L643.823,4094.39C644.323,4095.29 645.123,4095.89 646.272,4096.22C647.448,4096.54 649.272,4096.72 651.747,4096.72C655.37,4096.72 658.694,4096.62 661.694,4096.41L660.919,4098.77L651.747,4098.77C649.597,4098.77 647.848,4098.61 646.548,4098.34C645.173,4098.04 644.099,4097.54 643.323,4096.87C642.974,4096.59 642.698,4096.29 642.474,4095.94L640.524,4097.97C640.374,4098.22 640.249,4098.36 640.124,4098.36C639.949,4098.36 639.824,4098.24 639.749,4098.04L638.55,4096.41C639.774,4095.72 640.8,4095.02 641.599,4094.32L641.599,4089.09L639.35,4089.09L639.35,4087.04L643.823,4087.04Z" style="fill:rgb(44,58,96);fill-rule:nonzero;"/>
        </g>
        <g transform="matrix(1,0,0,1,686.019,3500.46)">
            <path d="M0,5.647L-2.148,7.122C-3.848,4.148 -5.748,1.574 -7.822,-0.601L-6.148,-1.976C-4.098,0.024 -2.049,2.548 0,5.647M-0.199,-7.724L-0.199,-5.575L-9.572,-5.575C-10.222,-3.925 -10.871,-2.55 -11.547,-1.426L-9.922,-1.301C-9.497,-1.276 -9.271,-1.176 -9.271,-0.976C-9.271,-0.826 -9.447,-0.601 -9.771,-0.301L-9.771,13.371L-12.196,13.371L-12.196,-0.401C-12.547,0.099 -12.896,0.548 -13.221,0.899C-15.07,2.898 -17.42,4.672 -20.219,6.248L-22.469,4.672C-19.319,3.073 -16.995,1.473 -15.521,-0.151C-14.171,-1.601 -13.021,-3.425 -12.071,-5.575L-21.77,-5.575L-21.77,-7.724L-0.199,-7.724Z" style="fill:rgb(44,58,96);fill-rule:nonzero;"/>
        </g>
        <g transform="matrix(1,0,0,1,704.371,3503.96)">
            <path d="M0,-2.825C0,-2.3 -0.025,-1.8 -0.05,-1.35L3.024,-1.35L3.024,-6.348L0,-6.348L0,-2.825ZM-6.049,-2.35L-8.099,-1.85C-8.224,-3.175 -8.522,-4.749 -8.974,-6.549L-7.323,-7.024C-6.724,-5.324 -6.299,-3.774 -6.049,-2.35M-2.249,-8.499L-2.249,-10.823C-2.249,-11.323 -2.274,-11.897 -2.325,-12.597L0.075,-12.397C0.475,-12.373 0.7,-12.272 0.7,-12.097C0.7,-11.847 0.45,-11.623 0,-11.423L0,-8.499L5.273,-8.499L5.273,-1.35L7.224,-1.35L7.224,0.775L0.675,0.775C1.2,2.124 1.8,3.249 2.474,4.149C3.324,5.298 4.874,6.523 7.123,7.822L4.698,9.872C2.749,8.322 1.35,6.848 0.55,5.399C0.075,4.623 -0.351,3.674 -0.726,2.573C-0.8,2.823 -0.875,3.024 -0.95,3.224C-1.45,4.573 -2.374,5.898 -3.699,7.148C-4.674,8.098 -5.823,8.972 -7.124,9.772L-9.073,8.023C-7.724,7.273 -6.674,6.572 -5.899,5.923C-4.699,4.923 -3.849,3.899 -3.35,2.874C-3.05,2.224 -2.825,1.525 -2.624,0.775L-7.798,0.775L-7.798,-1.35L-2.3,-1.35C-2.274,-1.825 -2.249,-2.325 -2.249,-2.825L-2.249,-6.348L-6.149,-6.348L-6.149,-8.499L-2.249,-8.499ZM-9.923,-12.522C-9.573,-12.472 -9.373,-12.373 -9.373,-12.197C-9.373,-12.097 -9.498,-11.923 -9.748,-11.722L-9.748,9.872L-11.897,9.872L-11.897,-12.697L-9.923,-12.522ZM-13.072,-6.899C-12.822,-6.848 -12.697,-6.774 -12.697,-6.624C-12.697,-6.524 -12.797,-6.399 -12.972,-6.249C-13.072,-4.05 -13.196,-2.4 -13.347,-1.35C-13.472,-0.6 -13.647,0.174 -13.847,0.974L-15.896,0.6C-15.622,-0.301 -15.446,-1.051 -15.347,-1.675C-15.146,-2.8 -14.997,-4.574 -14.921,-7.024L-13.072,-6.899Z" style="fill:rgb(44,58,96);fill-rule:nonzero;"/>
        </g>
        <g transform="matrix(1,0,0,1,0,-585.81)">
            <path d="M723.997,4088.89L721.373,4088.89L721.373,4090.17L723.997,4090.17L723.997,4088.89ZM721.373,4087.34L723.997,4087.34L723.997,4086.07L721.373,4086.07L721.373,4087.34ZM719.323,4088.89L716.598,4088.89L716.598,4090.17L719.323,4090.17L719.323,4088.89ZM719.323,4086.07L716.598,4086.07L716.598,4087.34L719.323,4087.34L719.323,4086.07ZM724.048,4079.32C723.222,4079.52 722.323,4079.7 721.373,4079.82L721.373,4081.27L726.546,4081.27L726.546,4083.14L721.373,4083.14L721.373,4084.29L726.047,4084.29L726.047,4091.92L721.373,4091.92L721.373,4093.19L725.872,4093.19L725.872,4095.04L721.373,4095.04L721.373,4096.44C723.022,4096.29 724.647,4096.12 726.247,4095.91L726.247,4097.04C726.872,4096.04 727.372,4095.02 727.722,4093.99C728.196,4092.52 728.571,4090.79 728.821,4088.82C728.946,4087.74 729.046,4086.12 729.096,4083.92L727.122,4083.92L727.122,4081.87L729.146,4081.87C729.146,4080.49 729.171,4078.97 729.171,4077.27L731.195,4077.37C731.546,4077.39 731.72,4077.47 731.72,4077.57C731.671,4077.7 731.546,4077.85 731.32,4078.05C731.32,4079.45 731.296,4080.72 731.296,4081.87L735.72,4081.87C735.72,4088.77 735.569,4093.12 735.294,4094.92C735.095,4096.66 734.72,4097.84 734.12,4098.49C733.495,4099.19 732.445,4099.54 730.945,4099.54L729.87,4097.29C731.37,4097.29 732.271,4097.09 732.545,4096.69C732.819,4096.39 733.045,4095.62 733.194,4094.39C733.396,4093.09 733.521,4089.62 733.569,4083.92L731.245,4083.92C731.146,4086.44 730.995,4088.44 730.796,4089.94C730.471,4092.14 730.096,4093.84 729.671,4095.09C729.071,4096.89 728.371,4098.39 727.521,4099.64L725.372,4098.37C725.497,4098.16 725.622,4098.02 725.722,4097.87C723.272,4098.19 719.673,4098.61 714.925,4099.14C714.749,4099.39 714.6,4099.54 714.45,4099.54C714.274,4099.54 714.175,4099.41 714.175,4099.16L713.649,4096.99C715.574,4096.89 717.474,4096.77 719.323,4096.62L719.323,4095.04L714.624,4095.04L714.624,4093.19L719.323,4093.19L719.323,4091.92L714.55,4091.92L714.55,4084.29L719.323,4084.29L719.323,4083.14L713.85,4083.14L713.85,4081.27L719.323,4081.27L719.323,4080.04C717.974,4080.14 716.499,4080.2 714.949,4080.2L714.05,4078.35L716.774,4078.35C719.573,4078.35 722.147,4077.97 724.497,4077.17L726.097,4078.82C726.196,4078.89 726.247,4079.02 726.247,4079.22C726.247,4079.37 726.196,4079.42 726.146,4079.42C725.972,4079.42 725.797,4079.37 725.647,4079.24C725.347,4079.17 725.172,4079.12 725.071,4079.12C724.872,4079.12 724.522,4079.2 724.048,4079.32" style="fill:rgb(44,58,96);fill-rule:nonzero;"/>
        </g>
        <g transform="matrix(1,0,0,1,0,-585.909)">
            <path d="M754.171,4086.27L758.095,4086.27L758.095,4080.69L754.171,4080.69L754.171,4086.27ZM760.245,4078.74L760.245,4088.22L754.171,4088.22L754.171,4092.89C754.171,4093.44 754.421,4093.69 754.971,4093.69L757.795,4093.69C758.17,4093.69 758.444,4093.51 758.646,4093.17C758.819,4092.87 758.995,4091.84 759.17,4090.07L761.319,4090.64C761.069,4092.74 760.72,4094.09 760.27,4094.72C759.77,4095.41 759.145,4095.74 758.37,4095.74L754.471,4095.74C752.847,4095.74 752.046,4095.16 752.046,4093.97L752.046,4078.74L760.245,4078.74ZM744.023,4080.12L744.023,4077.17L745.998,4077.35C746.373,4077.39 746.573,4077.49 746.573,4077.67C746.573,4077.77 746.423,4077.94 746.173,4078.14L746.173,4080.12L750.571,4080.12L750.571,4082.17L746.173,4082.17L746.173,4084.79L751.247,4084.79L751.247,4086.84L747.048,4086.84L747.048,4090.07L750.972,4090.07L750.972,4092.12L747.048,4092.12L747.048,4096.24C747.647,4096.44 748.272,4096.59 748.947,4096.69C750.597,4097.04 753.946,4097.19 758.97,4097.19L761.694,4097.19L760.72,4099.44C756.57,4099.44 753.371,4099.31 751.146,4099.11C749.347,4098.96 747.848,4098.69 746.698,4098.34C745.298,4097.94 744.099,4097.36 743.099,4096.56C742.674,4096.26 742.249,4095.84 741.799,4095.29C741.749,4095.49 741.724,4095.64 741.699,4095.76C741.324,4097.26 740.874,4098.56 740.324,4099.74L738.274,4098.36C738.925,4097.26 739.45,4095.79 739.874,4093.99C740.175,4092.64 740.449,4090.72 740.699,4088.22L742.799,4088.69C743.099,4088.77 743.249,4088.87 743.249,4088.99C743.249,4089.19 743.073,4089.39 742.749,4089.57C742.599,4090.82 742.424,4091.92 742.274,4092.87C743.249,4094.01 744.099,4094.82 744.849,4095.26C744.849,4095.29 744.873,4095.29 744.898,4095.29L744.898,4086.84L738.85,4086.84L738.85,4084.79L744.023,4084.79L744.023,4082.17L739.35,4082.17L739.35,4080.12L744.023,4080.12Z" style="fill:rgb(44,58,96);fill-rule:nonzero;"/>
        </g>
        <g transform="matrix(1,0,0,1,782.445,3507.68)">
            <path d="M0,-10.173C0.225,-10.072 0.35,-9.973 0.35,-9.873C0.35,-9.723 0.2,-9.573 -0.05,-9.373C-0.175,-8.798 -0.3,-8.298 -0.45,-7.849C0.55,-6.599 1.725,-5.499 3.074,-4.599L1.425,-3.124C0.374,-4.074 -0.5,-4.999 -1.2,-5.899C-1.226,-5.874 -1.226,-5.849 -1.226,-5.849C-1.725,-4.849 -2.499,-3.924 -3.55,-3.025L-5.224,-4.299C-4.699,-4.749 -4.249,-5.199 -3.874,-5.649C-3.425,-6.198 -3.05,-6.873 -2.7,-7.674C-2.35,-8.598 -2.075,-9.623 -1.899,-10.748L0,-10.173ZM-12.298,-10.273C-12.072,-10.173 -11.947,-10.072 -11.947,-9.973C-11.947,-9.823 -12.097,-9.673 -12.347,-9.473C-12.497,-8.774 -12.622,-8.173 -12.772,-7.674C-11.897,-6.474 -10.872,-5.449 -9.698,-4.599L-11.372,-3.124C-12.247,-3.975 -12.972,-4.824 -13.547,-5.624C-13.597,-5.574 -13.622,-5.524 -13.622,-5.499C-14.172,-4.4 -15.021,-3.35 -16.146,-2.35L-17.821,-3.624C-17.246,-4.124 -16.746,-4.624 -16.347,-5.124C-15.847,-5.724 -15.421,-6.474 -15.071,-7.373C-14.671,-8.423 -14.396,-9.598 -14.196,-10.848L-12.298,-10.273ZM-8.522,-13.772L-8.522,-16.321L-6.474,-16.147C-6.099,-16.097 -5.899,-15.996 -5.899,-15.821C-5.899,-15.696 -6.049,-15.496 -6.299,-15.246L-6.299,-13.772L2.499,-13.772L2.499,-11.622L-6.299,-11.622L-6.299,-4.674C-4.899,-2.625 -3.55,-1.175 -2.225,-0.325C-0.7,1 1.274,2.024 3.674,2.724L1.824,5.073C-0.774,3.648 -2.7,2.349 -3.925,1.149C-4.724,0.425 -5.524,-0.475 -6.299,-1.55L-6.299,6.148L-8.522,6.148L-8.522,-1.45C-9.397,-0.375 -10.223,0.5 -10.973,1.149C-12.397,2.399 -14.321,3.723 -16.746,5.073L-18.896,3.124C-16.446,2.024 -14.347,0.849 -12.597,-0.45C-11.447,-1.25 -10.073,-2.6 -8.522,-4.499L-8.522,-11.622L-17.521,-11.622L-17.521,-13.772L-8.522,-13.772Z" style="fill:rgb(44,58,96);fill-rule:nonzero;"/>
        </g>
        <g transform="matrix(1,0,0,1,799.497,3499.36)">
            <path d="M0,6.573L-0.875,5.499C-0.05,4.848 0.449,4.074 0.6,3.199L-1.1,3.199L-1.1,0L2.1,0L2.1,2.724C2.1,4.223 1.399,5.523 0,6.573" style="fill:rgb(44,58,96);fill-rule:nonzero;"/>
        </g>
        <g transform="matrix(1,0,0,1,0,-585.01)">
            <path d="M832.295,4082.92L826.546,4082.92L826.546,4085.47L832.295,4085.47L832.295,4082.92ZM832.295,4078.82L826.546,4078.82L826.546,4081.17L832.295,4081.17L832.295,4078.82ZM834.27,4076.97L834.27,4087.32L830.446,4087.32C830.745,4088.69 831.12,4089.89 831.57,4090.89C832.67,4090.14 833.62,4089.37 834.444,4088.59L835.97,4090.17C836.069,4090.29 836.119,4090.42 836.119,4090.54C836.119,4090.69 835.869,4090.74 835.419,4090.74C834.444,4091.37 833.444,4091.97 832.42,4092.54C832.42,4092.57 832.445,4092.57 832.445,4092.57C833.271,4094.07 834.694,4095.62 836.694,4097.16L834.544,4098.84C833.345,4097.54 832.37,4096.36 831.62,4095.27C830.771,4093.99 830.146,4092.72 829.696,4091.47C829.246,4090.47 828.871,4089.07 828.546,4087.32L826.546,4087.32L826.546,4095.39C827.796,4094.99 829.021,4094.52 830.245,4093.94L830.245,4095.82C828.847,4096.52 826.671,4097.44 823.722,4098.64C823.548,4098.89 823.372,4099.04 823.222,4099.04C823.072,4099.04 822.973,4098.91 822.947,4098.66L822.448,4096.49C823.147,4096.36 823.822,4096.22 824.497,4096.02L824.497,4076.97L834.27,4076.97ZM820.599,4079.12L817.074,4079.12L817.074,4083.49L820.599,4083.49L820.599,4079.12ZM822.647,4077.24L822.647,4085.37L820.599,4085.37L820.599,4088.49L823.022,4088.49L823.022,4090.34L820.599,4090.34L820.599,4094.17C821.448,4093.92 822.298,4093.67 823.122,4093.37L823.122,4095.12C821.373,4095.79 818.648,4096.66 814.925,4097.77C814.749,4098.02 814.6,4098.14 814.45,4098.14C814.274,4098.14 814.175,4098.02 814.175,4097.79L813.649,4095.72C814.05,4095.66 814.425,4095.59 814.824,4095.52L814.824,4087.12L816.724,4087.24C817.073,4087.27 817.274,4087.37 817.274,4087.52C817.274,4087.64 817.124,4087.84 816.874,4088.09L816.874,4095.12C817.424,4095.02 817.999,4094.89 818.548,4094.74L818.548,4085.37L815.024,4085.37L815.024,4077.24L822.647,4077.24Z" style="fill:rgb(44,58,96);fill-rule:nonzero;"/>
        </g>
        <g transform="matrix(1,0,0,1,855.096,3505.43)">
            <path d="M0,-5.95L-4.323,-5.95L-4.323,-4.4L-2.675,-4.4C-1.725,-4.85 -0.85,-5.375 0,-5.95M0.45,4.197L-9.298,4.197L-9.298,5.547L0.45,5.547L0.45,4.197ZM0.45,0.973L-9.298,0.973L-9.298,2.523L0.45,2.523L0.45,0.973ZM-9.997,-12.398L-9.997,-14.347L-7.948,-14.198C-7.548,-14.148 -7.349,-14.048 -7.349,-13.873C-7.349,-13.748 -7.498,-13.548 -7.748,-13.273L-7.748,-12.398L-2.774,-12.398L-2.774,-14.347L-0.725,-14.198C-0.325,-14.148 -0.125,-14.048 -0.125,-13.873C-0.125,-13.748 -0.274,-13.548 -0.524,-13.273L-0.524,-12.398L6.023,-12.398L6.023,-10.649L-0.524,-10.649L-0.524,-8.999L-2.774,-8.999L-2.774,-10.649L-7.748,-10.649L-7.748,-8.999L-9.997,-8.999L-9.997,-10.649L-16.246,-10.649L-16.246,-12.398L-9.997,-12.398ZM-6.474,-7.824L-6.474,-9.674L-4.499,-9.499C-4.149,-9.474 -3.949,-9.374 -3.949,-9.175C-3.949,-9.074 -4.074,-8.899 -4.323,-8.699L-4.323,-7.824L0.25,-7.824L0.25,-6.125C1.249,-6.775 2.149,-7.5 2.999,-8.3L4.649,-7.675C4.974,-7.575 5.149,-7.425 5.149,-7.224C5.149,-7.075 4.974,-7 4.649,-6.95C3.499,-6 2.374,-5.15 1.249,-4.4L5.823,-4.4L5.823,-2.451L-2.05,-2.451C-2.55,-2.201 -3.05,-1.951 -3.524,-1.751C-4.323,-1.401 -5.174,-1.076 -6.048,-0.776L2.699,-0.776L2.699,8.397L0.45,8.397L0.45,7.321L-9.298,7.321L-9.298,8.397L-11.548,8.397L-11.548,0.798C-12.797,1.123 -14.122,1.399 -15.472,1.649L-16.821,-0.401C-13.646,-0.802 -10.572,-1.476 -7.599,-2.451L-16.046,-2.451L-16.046,-4.4L-6.474,-4.4L-6.474,-5.95L-12.722,-5.95L-12.722,-7.824L-6.474,-7.824Z" style="fill:rgb(44,58,96);fill-rule:nonzero;"/>
        </g>
        <g transform="matrix(1,0,0,1,881.62,3501.61)">
            <path d="M0,1.974L0.5,1.575L-5.848,1.575L-5.848,2.724C-3.749,2.624 -1.674,2.524 0.375,2.374C0.225,2.224 0.1,2.099 0,1.974M-1.174,-1.35L-5.848,-1.35L-5.848,-0.175L-1.174,-0.175L-1.174,-1.35ZM-5.848,-2.924L-1.174,-2.924L-1.174,-4.099L-5.848,-4.099L-5.848,-2.924ZM-8.098,-1.35L-12.597,-1.35L-12.597,-0.175L-8.098,-0.175L-8.098,-1.35ZM-8.098,-4.099L-12.597,-4.099L-12.597,-2.924L-8.098,-2.924L-8.098,-4.099ZM-8.098,-8.773L-8.098,-10.448L-6.049,-10.273C-5.674,-10.222 -5.474,-10.123 -5.474,-9.948C-5.474,-9.823 -5.599,-9.623 -5.848,-9.373L-5.848,-8.773L4.6,-8.773L4.6,-6.824L-5.848,-6.824L-5.848,-5.848L1.075,-5.848L1.075,1.124L1.475,0.8C2.524,1.749 3.549,2.999 4.6,4.498L2.75,5.774C2.399,5.173 2.025,4.599 1.675,4.074C0.8,4.149 -0.15,4.224 -1.174,4.274L-1.174,6.173L4.6,6.173L4.6,8.122L-1.174,8.122L-1.174,9.872C-1.174,10.722 -1.5,11.372 -2.149,11.772C-2.699,12.197 -4.074,12.422 -6.248,12.422L-7.123,10.172L-4.748,10.172C-3.924,10.172 -3.475,9.948 -3.424,9.473L-3.424,8.122L-11.322,8.122C-10.422,8.773 -9.498,9.523 -8.598,10.372L-10.447,11.622C-11.396,10.522 -12.422,9.597 -13.571,8.798L-12.722,8.122L-17.871,8.122L-17.871,6.173L-3.424,6.173L-3.424,4.424C-6.674,4.649 -10.598,4.899 -15.221,5.173C-15.396,5.449 -15.57,5.574 -15.721,5.574C-15.871,5.574 -15.971,5.474 -15.996,5.224L-16.496,3.124C-13.646,3.049 -10.848,2.95 -8.098,2.825L-8.098,1.575L-14.846,1.575L-14.846,-5.848L-8.098,-5.848L-8.098,-6.824L-17.871,-6.824L-17.871,-8.773L-8.098,-8.773Z" style="fill:rgb(44,58,96);fill-rule:nonzero;"/>
        </g>
        <g transform="matrix(1,0,0,1,907.12,3507.76)">
            <path d="M0,-10.622L0,-8.672L-5.773,-8.672C-6.073,-8.397 -6.373,-8.147 -6.674,-7.947C-5.623,-6.873 -4.849,-5.823 -4.398,-4.798C-2.624,-5.773 -1.074,-6.772 0.275,-7.798L1.899,-6.123C2,-5.998 2.05,-5.873 2.05,-5.748C2.05,-5.598 1.8,-5.548 1.35,-5.548C-0.175,-4.724 -1.75,-3.898 -3.398,-3.099C-2.399,-1.649 -1.375,-0.499 -0.375,0.301C0.75,1.325 2.324,2.325 4.374,3.325L2.25,5.199C0.45,4.175 -1,3.05 -2.125,1.8C-2.6,1.325 -3.074,0.775 -3.523,0.176C-3.549,1.525 -3.699,2.675 -3.975,3.625C-4.224,4.524 -4.599,5.124 -5.074,5.424C-5.674,5.774 -6.848,5.974 -8.598,5.974C-8.697,4.975 -8.898,4.125 -9.197,3.425C-8.398,3.5 -7.773,3.524 -7.323,3.524C-6.623,3.524 -6.198,3.149 -6.049,2.4C-5.873,1.65 -5.773,0.825 -5.773,-0.074L-5.773,-0.324C-6.998,0.801 -8.123,1.675 -9.123,2.275C-10.672,3.25 -12.797,4.225 -15.446,5.274L-17.396,3.524C-14.746,2.725 -12.472,1.825 -10.572,0.851C-9.272,0.226 -7.748,-0.85 -5.974,-2.349C-6.099,-2.949 -6.273,-3.499 -6.473,-3.998C-6.523,-4.049 -6.549,-4.099 -6.549,-4.148C-7.773,-3.049 -8.873,-2.224 -9.873,-1.674C-11.271,-0.85 -13.172,0.001 -15.521,0.9L-17.396,-0.774C-15.021,-1.449 -12.972,-2.199 -11.271,-3.023C-10.172,-3.523 -8.873,-4.373 -7.373,-5.523C-7.673,-5.923 -8.023,-6.298 -8.398,-6.673C-8.848,-6.373 -9.248,-6.148 -9.623,-5.948C-11.072,-5.148 -12.996,-4.349 -15.446,-3.499L-17.296,-5.148C-14.846,-5.798 -12.746,-6.522 -10.997,-7.272C-10.248,-7.598 -9.397,-8.072 -8.447,-8.672L-14.271,-8.672L-14.271,-10.622L0,-10.622ZM-6.198,-16.421C-5.799,-16.37 -5.574,-16.27 -5.574,-16.096C-5.574,-15.971 -5.748,-15.77 -6.073,-15.52L-6.073,-14.146L3.499,-14.146L3.499,-9.447L1.25,-9.447L1.25,-12.097L-15.521,-12.097L-15.521,-9.447L-17.771,-9.447L-17.771,-14.146L-8.398,-14.146L-8.398,-16.596L-6.198,-16.421Z" style="fill:rgb(44,58,96);fill-rule:nonzero;"/>
        </g>
        <g transform="matrix(1,0,0,1,0,-585.61)">
            <path d="M931.921,4091.34L924.697,4091.34L924.697,4093.47L931.921,4093.47L931.921,4091.34ZM933.569,4088.22L922.923,4088.22L922.923,4086.54L933.569,4086.54L933.569,4088.22ZM933.569,4085.17L922.923,4085.17L922.923,4083.52L933.569,4083.52L933.569,4085.17ZM933.569,4079.02L922.923,4079.02L922.923,4077.37L933.569,4077.37L933.569,4079.02ZM934.069,4089.57L934.069,4096.32L931.921,4096.32L931.921,4095.34L924.697,4095.34L924.697,4096.32L922.548,4096.32L922.548,4089.57L934.069,4089.57ZM935.419,4082.24L921.173,4082.24L921.173,4080.39L935.419,4080.39L935.419,4082.24ZM919.898,4079.52L918.448,4081.07C917.224,4080.17 915.899,4079.37 914.45,4078.64L915.999,4077.07C917.549,4077.85 918.849,4078.67 919.898,4079.52M919.423,4084.49L917.948,4086.07C916.649,4085.12 915.199,4084.27 913.649,4083.52L915.224,4081.97C916.874,4082.77 918.273,4083.59 919.423,4084.49M919.623,4088.22L919.623,4094.54C919.974,4095.62 920.647,4096.34 921.622,4096.72C922.548,4097.12 923.997,4097.29 925.972,4097.29C929.771,4097.29 933.245,4097.19 936.419,4096.99L935.52,4099.54L925.972,4099.54C924.122,4099.54 922.622,4099.36 921.522,4099.07C920.349,4098.72 919.423,4098.17 918.773,4097.42C918.499,4097.14 918.273,4096.82 918.099,4096.47L915.425,4098.84C915.274,4099.16 915.1,4099.34 914.925,4099.34C914.725,4099.34 914.6,4099.22 914.55,4098.99L913.274,4097.19C914.85,4096.34 916.175,4095.49 917.274,4094.62L917.274,4090.27L915.024,4090.27L915.024,4088.22L919.623,4088.22Z" style="fill:rgb(44,58,96);fill-rule:nonzero;"/>
        </g>
        <g transform="matrix(1,0,0,1,952.722,3511.3)">
            <path d="M0,-17.595L1.949,-17.595L3.799,-20.32L5.398,-19.494C5.623,-19.369 5.748,-19.244 5.748,-19.145C5.748,-18.945 5.623,-18.795 5.373,-18.67L4.349,-17.595L7.697,-17.595L7.697,-15.946L2.049,-15.946L2.049,-14.771L6.822,-14.771L6.822,-13.197L2.049,-13.197L2.049,-11.921L8.197,-11.921L8.197,-10.272L0.25,-10.272C1.174,-9.722 1.999,-9.198 2.725,-8.698L1.799,-7.648L3.324,-7.648L3.324,-5.773C3.474,-5.473 3.623,-5.173 3.773,-4.923C4.924,-5.773 5.898,-6.648 6.723,-7.547L8.173,-6.098C8.248,-5.998 8.297,-5.873 8.297,-5.773C8.297,-5.623 8.098,-5.574 7.697,-5.574C6.723,-4.848 5.723,-4.149 4.674,-3.474C5.073,-2.849 5.498,-2.349 5.898,-1.949C6.648,-1.099 7.723,-0.275 9.072,0.576L7.223,2.225C6.049,1.376 5.098,0.451 4.373,-0.574C4.023,-1.024 3.674,-1.524 3.324,-2.124L3.324,0.475C3.324,1.426 2.799,2.051 1.749,2.35C0.924,2.6 0.125,2.725 -0.676,2.725L-1.475,0.676L0.449,0.626C1,0.576 1.274,0.326 1.274,-0.124L1.274,-5.973L-3.425,-5.973L-3.425,-7.648L1.1,-7.648C0.199,-8.247 -0.801,-8.823 -1.85,-9.397L-1.1,-10.272L-5.85,-10.272L-5.85,-11.921L-0.101,-11.921L-0.101,-13.197L-4.399,-13.197L-4.399,-14.771L-0.101,-14.771L-0.101,-15.946L-5.374,-15.946L-5.374,-17.595L-2.425,-17.595C-2.824,-18.095 -3.274,-18.619 -3.725,-19.145L-1.949,-20.044C-1.225,-19.195 -0.575,-18.395 0,-17.595M-1.35,-4.798C-1.176,-4.923 -1.025,-4.998 -0.875,-4.998L-0.625,-4.824L0.149,-3.949C0.25,-3.748 0.299,-3.623 0.299,-3.524C0.299,-3.399 0.1,-3.248 -0.301,-3.049C-0.825,-1.899 -1.325,-1.049 -1.775,-0.549C-2.15,-0.074 -2.6,0.35 -3.125,0.775C-3.674,1.176 -4.424,1.625 -5.374,2.125L-6.748,0.751C-5.499,0.15 -4.574,-0.4 -4.024,-0.899C-3.574,-1.274 -3.175,-1.724 -2.824,-2.224C-2.65,-2.474 -2.475,-2.774 -2.275,-3.149L-6.049,-3.149L-6.049,-4.798L-1.35,-4.798ZM-10.447,-15.245L-10.447,-20.145L-8.473,-19.97C-8.123,-19.919 -7.924,-19.82 -7.924,-19.645C-7.924,-19.544 -8.049,-19.369 -8.299,-19.145L-8.299,-15.245L-6.049,-15.245L-6.049,-13.296L-8.299,-13.296L-8.299,-12.272C-7.299,-10.247 -6.124,-8.472 -4.799,-6.948L-6.349,-5.574C-7.099,-6.598 -7.748,-7.598 -8.299,-8.573L-8.299,2.725L-10.447,2.725L-10.447,-8.422C-10.498,-8.273 -10.548,-8.148 -10.572,-8.023C-11.123,-6.248 -11.723,-4.623 -12.397,-3.149L-14.547,-4.598C-13.646,-5.898 -12.848,-7.323 -12.172,-8.847C-11.748,-9.847 -11.223,-11.322 -10.572,-13.296L-13.572,-13.296L-13.572,-15.245L-10.447,-15.245Z" style="fill:rgb(44,58,96);fill-rule:nonzero;"/>
        </g>
        <g transform="matrix(1,0,0,1,981.645,3513.28)">
            <path d="M0,-21.47C0.25,-21.37 0.375,-21.271 0.375,-21.12C0.375,-20.92 0.125,-20.72 -0.325,-20.545C-0.525,-19.37 -0.725,-18.371 -0.925,-17.521L4.474,-17.521L4.474,-15.572L3.299,-15.572C3.249,-12.398 3.023,-10.048 2.624,-8.498C2.324,-7.149 1.899,-5.924 1.299,-4.824C2.149,-3.675 3.299,-2.525 4.773,-1.4L3.1,0.349C1.85,-0.75 0.824,-1.825 0.05,-2.925C-0.95,-1.725 -2.274,-0.651 -3.924,0.349L-5.773,-1.5C-3.999,-2.199 -2.649,-3.124 -1.75,-4.225C-1.55,-4.449 -1.35,-4.674 -1.175,-4.924C-1.199,-4.949 -1.199,-4.974 -1.199,-4.999C-2,-6.524 -2.55,-8.748 -2.85,-11.673L-1,-11.848C-0.825,-9.949 -0.475,-8.373 0.025,-7.123C0.1,-7.349 0.175,-7.574 0.25,-7.798C0.85,-9.523 1.199,-12.122 1.25,-15.572L-1.449,-15.572C-1.475,-15.522 -1.5,-15.472 -1.5,-15.447C-2,-13.997 -2.75,-12.472 -3.725,-10.872L-5.398,-12.348C-4.449,-13.747 -3.725,-15.197 -3.225,-16.746C-2.875,-17.796 -2.524,-19.495 -2.175,-21.821L0,-21.47ZM-6.574,-9.024L-9.597,-9.024L-9.597,-5.025L-6.574,-5.025L-6.574,-9.024ZM-9.197,-17.221L-9.197,-21.321L-7.299,-21.196C-6.948,-21.17 -6.748,-21.095 -6.748,-20.946C-6.748,-20.795 -6.898,-20.595 -7.148,-20.346L-7.148,-17.221L-4.124,-17.221L-4.124,-15.272L-7.148,-15.272L-7.148,-10.973L-4.6,-10.973L-4.6,-3.074L-9.598,-3.074L-9.598,-1.026L-11.647,-1.026L-11.647,-10.973L-9.197,-10.973L-9.197,-15.272L-12.322,-15.272L-12.322,-17.221L-9.197,-17.221ZM-11.397,-21.071C-11.172,-20.97 -11.047,-20.87 -11.047,-20.745C-11.047,-20.495 -11.248,-20.295 -11.647,-20.146C-12.247,-18.496 -12.797,-17.046 -13.297,-15.847L-13.297,0.55L-15.446,0.55L-15.446,-11.473C-15.871,-10.698 -16.321,-9.923 -16.821,-9.123L-18.471,-10.773C-17.346,-12.497 -16.396,-14.247 -15.596,-15.996C-14.871,-17.596 -14.146,-19.62 -13.396,-22.02L-11.397,-21.071Z" style="fill:rgb(44,58,96);fill-rule:nonzero;"/>
        </g>
        <g transform="matrix(1,0,0,1,999.497,3499.36)">
            <path d="M0,6.573L-0.875,5.499C-0.05,4.848 0.449,4.074 0.6,3.199L-1.1,3.199L-1.1,0L2.1,0L2.1,2.724C2.1,4.223 1.399,5.523 0,6.573" style="fill:rgb(44,58,96);fill-rule:nonzero;"/>
        </g>
        <g transform="matrix(1,0,0,1,1036.02,3496.63)">
            <path d="M0,11.923L-2.148,13.372C-3.123,10.973 -4.198,8.899 -5.373,7.124L-3.724,5.775C-2.474,7.374 -1.225,9.423 0,11.923M-6.572,2.325C-6.298,2.375 -6.148,2.475 -6.148,2.65C-6.148,2.85 -6.348,3.074 -6.748,3.324L-6.748,14.272C-6.748,15.247 -7.047,15.972 -7.647,16.446C-8.147,16.946 -9.422,17.196 -11.422,17.196L-12.297,14.946L-10.172,14.946C-9.447,14.946 -9.047,14.597 -8.973,13.872L-8.973,2.05L-6.572,2.325ZM-11.297,6.674C-11.121,6.774 -11.021,6.849 -11.021,6.948C-11.021,7.099 -11.121,7.224 -11.321,7.323C-12.121,9.748 -12.971,11.773 -13.871,13.372L-16.021,12.398C-14.871,10.573 -13.971,8.373 -13.271,5.775L-11.297,6.674ZM-9.598,-4.249C-9.396,-4.148 -9.271,-4.049 -9.271,-3.898C-9.271,-3.799 -9.547,-3.648 -10.047,-3.499C-10.297,-2.598 -10.597,-1.749 -10.896,-0.974L-2.648,-0.974L-2.049,-1.274C-1.849,-1.274 -1.648,-1.199 -1.449,-1.05L-0.149,-0.25C0,-0.125 0.101,0 0.101,0.101C0.101,0.351 -0.1,0.575 -0.499,0.776L-2.648,5.474L-4.698,4.799L-3.074,1.075L-11.797,1.075C-11.846,1.2 -11.896,1.3 -11.946,1.375C-12.646,2.675 -13.396,3.85 -14.246,4.9L-16.295,3.624C-15.195,2.425 -14.32,1.175 -13.671,-0.074C-13.021,-1.274 -12.396,-2.899 -11.821,-4.973L-9.598,-4.249ZM-14.996,-4.323C-14.771,-4.223 -14.646,-4.124 -14.646,-3.999C-14.646,-3.749 -14.846,-3.549 -15.221,-3.398C-15.92,-1.849 -16.596,-0.5 -17.195,0.601L-17.195,17.196L-19.42,17.196L-19.42,4.199C-19.994,5.025 -20.619,5.874 -21.294,6.749L-22.943,5.074C-21.619,3.499 -20.494,1.9 -19.569,0.25C-18.72,-1.199 -17.845,-3.049 -16.995,-5.273L-14.996,-4.323Z" style="fill:rgb(44,58,96);fill-rule:nonzero;"/>
        </g>
        <g transform="matrix(1,0,0,1,1057.02,3508.83)">
            <path d="M0,-13.373C0.1,-13.373 0.225,-13.298 0.375,-13.147L1.475,-12.272C1.649,-12.147 1.75,-12.023 1.75,-11.898C1.75,-11.723 1.6,-11.523 1.35,-11.323L1.225,-5.649C1.225,-4.125 0.875,-3.05 0.225,-2.45C-0.325,-2 -1.375,-1.65 -2.925,-1.351L-3.899,-3.7C-2.425,-3.75 -1.55,-3.925 -1.3,-4.25C-1.05,-4.575 -0.9,-5.125 -0.875,-5.925L-0.801,-10.523L-5.475,-9.299L-5.475,-0.476L-7.724,-0.476L-7.724,-8.724L-12.022,-7.599L-12.022,-0.076C-12.022,0.674 -11.922,1.224 -11.672,1.574C-11.422,1.924 -10.923,2.073 -10.148,2.073L-1.075,2.073C-0.075,2.073 0.675,1.898 1.199,1.549C1.75,1.224 2.174,0.249 2.523,-1.351L4.773,-0.376C4.248,1.624 3.624,2.873 2.874,3.423C2.225,3.923 1.424,4.198 0.475,4.198L-11.147,4.198C-12.223,4.198 -13.047,3.849 -13.622,3.198C-14.122,2.573 -14.347,1.674 -14.347,0.499L-14.347,-6.999L-17.671,-6.149L-18.271,-8.199L-14.347,-9.174L-14.347,-15.022L-11.647,-14.647C-11.322,-14.598 -11.147,-14.473 -11.147,-14.247C-11.147,-14.022 -11.322,-13.772 -11.623,-13.522C-11.897,-13.348 -12.022,-13.072 -12.022,-12.673L-12.022,-9.748L-7.724,-10.823L-7.724,-17.571L-5.674,-17.396C-5.273,-17.347 -5.074,-17.247 -5.074,-17.071C-5.074,-16.946 -5.225,-16.747 -5.475,-16.497L-5.475,-11.373L-0.9,-12.522C-0.45,-13.072 -0.15,-13.373 0,-13.373" style="fill:rgb(44,58,96);fill-rule:nonzero;"/>
        </g>
        <g transform="matrix(1,0,0,1,1078.32,3501.48)">
            <path d="M0,1.824C0.3,1.874 0.475,1.973 0.475,2.174C0.475,2.374 0.324,2.598 0.05,2.848C-0.2,3.023 -0.301,3.299 -0.301,3.648L-0.301,5.048C0.4,4.898 1.05,4.723 1.625,4.549C2.674,4.223 3.949,3.698 5.449,2.973L6.924,4.498C7.023,4.623 7.073,4.723 7.098,4.823C7.049,4.973 6.973,5.023 6.924,5.023L6.523,4.923C6.398,4.923 6.223,4.973 6.023,5.023C3.924,5.923 1.799,6.573 -0.301,6.972L-0.301,8.048C-0.301,8.722 -0.2,9.222 0,9.572C0.199,9.872 0.65,9.997 1.35,9.997L2.999,9.997C3.749,9.997 4.299,9.872 4.674,9.622C5.074,9.422 5.398,8.747 5.648,7.647L7.697,8.522C7.298,10.022 6.799,10.947 6.223,11.372C5.724,11.747 5.099,11.946 4.374,11.946L0.475,11.946C-0.525,11.946 -1.275,11.646 -1.775,11.047C-2.225,10.471 -2.449,9.672 -2.449,8.622L-2.449,1.499L0,1.824ZM0,-9.123C0.3,-9.073 0.475,-8.948 0.475,-8.748C0.475,-8.549 0.324,-8.323 0.05,-8.099C-0.2,-7.924 -0.301,-7.649 -0.301,-7.274L-0.301,-5.65C0.375,-5.799 0.975,-5.974 1.524,-6.174C2.574,-6.524 3.85,-7.073 5.349,-7.874L6.823,-6.324C6.924,-6.224 6.973,-6.124 6.998,-6.025C6.948,-5.874 6.873,-5.824 6.823,-5.824L6.424,-5.924C6.299,-5.924 6.123,-5.874 5.924,-5.799C3.85,-4.85 1.774,-4.124 -0.301,-3.675L-0.301,-3.175C-0.301,-2.5 -0.2,-2 0,-1.651C0.199,-1.351 0.65,-1.226 1.35,-1.226L3.199,-1.226C3.949,-1.226 4.498,-1.325 4.873,-1.575C5.273,-1.776 5.599,-2.425 5.849,-3.475L7.898,-2.6C7.498,-1.151 6.998,-0.25 6.424,0.149C5.924,0.55 5.299,0.724 4.574,0.724L0.475,0.724C-0.525,0.724 -1.275,0.425 -1.775,-0.176C-2.225,-0.726 -2.449,-1.55 -2.449,-2.6L-2.449,-9.423L0,-9.123ZM-6.273,3.848L-11.248,3.848L-11.248,5.797L-6.273,5.797L-6.273,3.848ZM-6.273,0.324L-11.248,0.324L-11.248,2.098L-6.273,2.098L-6.273,0.324ZM-4.225,-1.526L-4.225,9.797C-4.225,10.771 -4.725,11.396 -5.674,11.696C-6.424,11.922 -7.174,12.047 -7.924,12.047L-8.698,9.997L-6.998,9.971C-6.523,9.947 -6.273,9.697 -6.273,9.222L-6.273,7.548L-11.248,7.548L-11.248,12.047L-13.297,12.047L-13.297,-1.526L-4.225,-1.526ZM-8.073,-9.474C-7.773,-9.373 -7.623,-9.248 -7.623,-9.149C-7.623,-8.998 -7.799,-8.798 -8.123,-8.549C-8.673,-7.448 -9.348,-6.299 -10.147,-5.049C-8.748,-5.15 -7.373,-5.249 -6.023,-5.4C-6.349,-6.025 -6.724,-6.674 -7.148,-7.374L-5.474,-7.874C-4.273,-6.15 -3.424,-4.55 -2.949,-3.075L-4.999,-2.6C-5.1,-2.95 -5.199,-3.324 -5.299,-3.699C-7.248,-3.449 -9.998,-3.15 -13.597,-2.8C-13.746,-2.525 -13.922,-2.4 -14.072,-2.4C-14.222,-2.4 -14.297,-2.5 -14.297,-2.725L-14.771,-4.749C-14.021,-4.775 -13.271,-4.824 -12.521,-4.874C-12.122,-5.574 -11.772,-6.224 -11.498,-6.824C-10.922,-7.974 -10.447,-9.099 -10.072,-10.223L-8.073,-9.474Z" style="fill:rgb(44,58,96);fill-rule:nonzero;"/>
        </g>
        <g transform="matrix(1,0,0,1,0,-586.01)">
            <path d="M1100.87,4096.99L1105.75,4096.99L1105.75,4095.64L1100.87,4095.64L1100.87,4096.99ZM1100.87,4093.87L1105.75,4093.87L1105.75,4092.52L1100.87,4092.52L1100.87,4093.87ZM1104.1,4086.17L1095.7,4086.17L1095.7,4087.62L1104.1,4087.62L1104.1,4086.17ZM1098.82,4095.64L1094.12,4095.64L1094.12,4096.99L1098.82,4096.99L1098.82,4095.64ZM1098.82,4092.52L1094.12,4092.52L1094.12,4093.87L1098.82,4093.87L1098.82,4092.52ZM1106.25,4089.49L1093.55,4089.49L1093.55,4084.32L1106.25,4084.32L1106.25,4089.49ZM1107.9,4090.67L1107.9,4099.74L1105.75,4099.74L1105.75,4098.86L1094.12,4098.86L1094.12,4099.74L1091.97,4099.74L1091.97,4090.67L1107.9,4090.67ZM1100.9,4077.45C1101.25,4077.49 1101.45,4077.6 1101.45,4077.77C1101.45,4077.87 1101.3,4078.05 1101.05,4078.24L1101.05,4080.99L1103.95,4080.99L1103.5,4080.79L1105.85,4077.47L1107.52,4078.32C1107.77,4078.45 1107.9,4078.55 1107.9,4078.64C1107.9,4078.87 1107.72,4079.07 1107.4,4079.24L1105.77,4080.99L1110.52,4080.99L1110.52,4086.54L1108.37,4086.54L1108.37,4082.94L1091.67,4082.94L1091.67,4086.54L1089.55,4086.54L1089.55,4080.99L1094.55,4080.99C1093.85,4080.12 1093.07,4079.24 1092.27,4078.35L1094.12,4077.47C1095.12,4078.55 1096,4079.6 1096.77,4080.6L1096.05,4080.99L1098.92,4080.99L1098.92,4077.27L1100.9,4077.45Z" style="fill:rgb(44,58,96);fill-rule:nonzero;"/>
        </g>
        <g transform="matrix(1,0,0,1,0,-585.909)">
            <path d="M1129.97,4090.17L1126.55,4090.17L1126.55,4092.79L1129.97,4092.79L1129.97,4090.17ZM1127.22,4084.12L1127.22,4081.47L1129.07,4081.62C1129.4,4081.64 1129.57,4081.72 1129.57,4081.87C1129.57,4081.97 1129.42,4082.14 1129.17,4082.34L1129.17,4084.12L1132.6,4084.12L1132.6,4085.97L1129.17,4085.97L1129.17,4088.42L1131.82,4088.42L1131.82,4094.57L1124.7,4094.57L1124.7,4088.42L1127.22,4088.42L1127.22,4085.97L1123.82,4085.97L1123.82,4084.12L1127.22,4084.12ZM1133.37,4080.69L1123.02,4080.69L1123.02,4096.41L1133.37,4096.41L1133.37,4080.69ZM1135.52,4078.64L1135.52,4099.54L1133.37,4099.54L1133.37,4098.36L1123.02,4098.36L1123.02,4099.64L1120.87,4099.64L1120.87,4078.64L1135.52,4078.64ZM1120.17,4078.04C1120.37,4078.14 1120.5,4078.24 1120.5,4078.35C1120.5,4078.6 1120.3,4078.79 1119.9,4078.94C1119.45,4080.22 1119.05,4081.37 1118.65,4082.37L1118.65,4099.74L1116.6,4099.74L1116.6,4086.89C1116.05,4087.92 1115.47,4088.97 1114.82,4090.07L1113.27,4088.52C1114.37,4086.77 1115.32,4085.02 1116.1,4083.24C1116.8,4081.62 1117.52,4079.59 1118.25,4077.17L1120.17,4078.04Z" style="fill:rgb(44,58,96);fill-rule:nonzero;"/>
        </g>
        <g transform="matrix(1,0,0,1,0,-589.869)">
            <path d="M1160.45,4095.93L1144.16,4095.93L1144.16,4099.11L1160.45,4099.11L1160.45,4095.93ZM1160.45,4089.6L1144.16,4089.6L1144.16,4092.66L1160.45,4092.66L1160.45,4089.6ZM1160.45,4083.39L1144.16,4083.39L1144.16,4086.33L1160.45,4086.33L1160.45,4083.39ZM1152.59,4077.78C1152.26,4078.64 1151.93,4079.43 1151.6,4080.12L1163.96,4080.12L1163.96,4104.14L1160.45,4104.14L1160.45,4102.38L1144.16,4102.38L1144.16,4104.14L1140.65,4104.14L1140.65,4080.12L1147.79,4080.12C1148.24,4079.04 1148.63,4077.89 1148.96,4076.72L1152.59,4077.78Z" style="fill:rgb(44,58,96);fill-rule:nonzero;"/>
        </g>
        <g transform="matrix(1,0,0,1,1192.82,3506.06)">
            <path d="M0,-10.291L-2.881,-10.291C-2.4,-9.811 -1.891,-9.36 -1.35,-8.971C-0.811,-9.421 -0.36,-9.87 0,-10.291M0.869,3.719C1.59,4.199 2.31,4.559 3.029,4.799L1.26,7.979C0.42,7.559 -0.391,7.049 -1.17,6.449C-2.1,5.729 -2.971,4.949 -3.78,4.109L-1.32,2.129C-0.631,2.729 0.09,3.269 0.869,3.719M-4.29,-7.621C-5.1,-8.461 -5.82,-9.33 -6.48,-10.291L-7.62,-10.291C-8.28,-9.33 -8.971,-8.49 -9.689,-7.77C-9.75,-7.711 -9.811,-7.65 -9.84,-7.621L-4.29,-7.621ZM-2.82,-1.621L-11.519,-1.621L-11.519,-0.81L-2.82,-0.81L-2.82,-1.621ZM-2.82,-4.921L-11.519,-4.921L-11.519,-3.991L-2.82,-3.991L-2.82,-4.921ZM-12.93,-9.061C-12.75,-9.24 -12.54,-9.421 -12.33,-9.601C-12.09,-9.811 -11.85,-10.051 -11.64,-10.291L-14.73,-10.291C-14.07,-9.9 -13.47,-9.48 -12.93,-9.061M-15.66,-7.141C-16.05,-7.44 -16.41,-7.74 -16.77,-8.011L-16.77,-6.541C-16.41,-6.721 -16.02,-6.931 -15.66,-7.141M-15.029,-10.291L-15.96,-10.291L-15.96,-13.23L-9.51,-13.23C-9.33,-13.53 -9.18,-13.83 -9,-14.16L-16.77,-14.16L-16.77,-8.431L-15.029,-10.291ZM-9.51,5.279C-9.15,5.279 -8.939,4.829 -8.939,3.869L-8.939,1.889L-14.67,1.889L-14.67,-4.201C-15.15,-3.931 -15.63,-3.69 -16.08,-3.511L-16.77,-4.831C-16.8,-2.311 -17.07,0.059 -17.609,2.339C-17.789,2.999 -17.97,3.659 -18.18,4.319C-16.74,3.779 -15.39,3.029 -14.189,2.129L-11.609,4.229C-11.79,4.409 -11.97,4.559 -12.15,4.679C-11.279,5.099 -10.41,5.279 -9.51,5.279M-6,-18.75L-6,-17.221L2.91,-17.221L2.91,-14.16L-6.721,-14.16L-5.641,-13.83C-5.76,-13.62 -5.85,-13.41 -5.939,-13.23L1.74,-13.23L1.74,-10.291L0.6,-10.291L2.91,-8.91C2.369,-8.311 1.8,-7.77 1.26,-7.32C1.92,-6.99 2.64,-6.69 3.39,-6.451L1.74,-3.27C1.229,-3.511 0.75,-3.751 0.33,-3.991L0.33,1.889L-5.641,1.889L-5.641,4.349C-5.641,5.999 -5.939,7.079 -6.48,7.559C-7.08,8.159 -8.07,8.459 -9.51,8.459C-10.41,8.459 -11.22,8.249 -11.97,7.858L-12.48,4.949C-13.74,5.969 -15.18,6.809 -16.77,7.499L-18.359,4.799C-18.75,5.938 -19.229,7.079 -19.83,8.219L-22.859,6.449C-21.779,3.989 -21.06,1.859 -20.67,0.059C-20.52,-0.841 -20.399,-1.77 -20.279,-2.671C-21.06,-2.071 -21.869,-1.531 -22.649,-1.051L-24.06,-4.201C-22.619,-4.98 -21.27,-5.851 -20.069,-6.811L-20.069,-8.61L-22.41,-7.621C-22.859,-9.601 -23.399,-11.4 -24.06,-12.99L-21.359,-14.28C-20.879,-13.261 -20.459,-12.211 -20.069,-11.131L-20.069,-17.221L-9.51,-17.221L-9.51,-18.75L-6,-18.75Z" style="fill:rgb(44,58,96);fill-rule:nonzero;"/>
        </g>
        <g transform="matrix(1,0,0,1,0,-589.538)">
            <path d="M1215.77,4096.55L1209.2,4096.55L1209.2,4098.05L1215.77,4098.05L1215.77,4096.55ZM1218.59,4084.94L1206.62,4084.94L1206.62,4086.23L1218.59,4086.23L1218.59,4084.94ZM1218.92,4100.87L1209.2,4100.87L1209.2,4102.04L1206.05,4102.04L1206.05,4093.73L1218.92,4093.73L1218.92,4100.87ZM1221.86,4089.05L1203.35,4089.05L1203.35,4082.12L1221.86,4082.12L1221.86,4089.05ZM1225.25,4100.18C1225.25,4102.67 1223.84,4103.93 1221.05,4103.93C1220.69,4103.93 1220.3,4103.87 1219.88,4103.81L1219.16,4100.51C1219.82,4100.75 1220.45,4100.87 1221.05,4100.87C1221.59,4100.87 1221.86,4100.36 1221.86,4099.34L1221.86,4092.89L1203.47,4092.89L1203.47,4103.93L1200.05,4103.93L1200.05,4089.86L1225.25,4089.86L1225.25,4100.18ZM1214.48,4076.6L1214.48,4078.37L1225.61,4078.37L1225.61,4081.43L1199.84,4081.43L1199.84,4078.37L1210.85,4078.37L1210.85,4076.6L1214.48,4076.6Z" style="fill:rgb(44,58,96);fill-rule:nonzero;"/>
        </g>
        <g transform="matrix(1,0,0,1,1254.44,3511.22)">
            <path d="M0,-20.729C-2.969,-20.369 -6.209,-20.099 -9.719,-19.919L-9.719,-16.529L-0.359,-16.529L-0.359,-13.109L-9.719,-13.109L-9.719,-9.599L1.65,-9.599L1.65,-6.209L-9.719,-6.209L-9.719,-1.53C-9.719,0.27 -9.989,1.44 -10.499,2.07C-11.129,2.791 -12.239,3.18 -13.829,3.18C-15.509,3.18 -17.068,3.06 -18.509,2.82L-19.109,-0.81C-17.549,-0.51 -15.988,-0.36 -14.43,-0.36C-14.009,-0.36 -13.709,-0.48 -13.559,-0.75C-13.439,-1.08 -13.35,-1.62 -13.35,-2.339L-13.35,-6.209L-25.438,-6.209L-25.438,-9.599L-13.35,-9.599L-13.35,-13.109L-23.188,-13.109L-23.188,-16.529L-13.35,-16.529L-13.35,-19.739C-16.469,-19.589 -19.799,-19.5 -23.309,-19.439L-24.389,-22.619C-16.859,-22.619 -9.329,-23.039 -1.77,-23.909L0,-20.729Z" style="fill:rgb(44,58,96);fill-rule:nonzero;"/>
        </g>
        <g transform="matrix(1,0,0,1,1271.32,3503.88)">
            <path d="M0,-2.649C-0.375,-3 -0.824,-3.199 -1.324,-3.199C-1.85,-3.199 -2.299,-3 -2.648,-2.649C-3.023,-2.275 -3.199,-1.825 -3.199,-1.325C-3.199,-0.799 -3.023,-0.35 -2.648,0C-2.299,0.374 -1.85,0.55 -1.324,0.55C-0.824,0.55 -0.375,0.374 0,0C0.35,-0.35 0.551,-0.799 0.551,-1.325C0.551,-1.825 0.35,-2.275 0,-2.649M1.075,1.075C0.4,1.749 -0.399,2.075 -1.324,2.075C-2.273,2.075 -3.074,1.749 -3.724,1.075C-4.398,0.425 -4.724,-0.375 -4.724,-1.325C-4.724,-2.25 -4.398,-3.049 -3.724,-3.724C-3.074,-4.374 -2.273,-4.724 -1.324,-4.724C-0.399,-4.724 0.4,-4.374 1.075,-3.724C1.725,-3.049 2.074,-2.25 2.074,-1.325C2.074,-0.375 1.725,0.425 1.075,1.075" style="fill:rgb(44,58,96);fill-rule:nonzero;"/>
        </g>
    </g>
</svg>
