<?xml version="1.0" encoding="UTF-8" standalone="no"?>
<!DOCTYPE svg PUBLIC "-//W3C//DTD SVG 1.1//EN" "http://www.w3.org/Graphics/SVG/1.1/DTD/svg11.dtd">
<svg width="100%" height="100%" viewBox="0 0 920 59" version="1.1" xmlns="http://www.w3.org/2000/svg" xmlns:xlink="http://www.w3.org/1999/xlink" xml:space="preserve" xmlns:serif="http://www.serif.com/" style="fill-rule:evenodd;clip-rule:evenodd;stroke-linejoin:round;stroke-miterlimit:2;">
    <g transform="matrix(1,0,0,1,-501.241,-5378.86)">
        <g transform="matrix(1,0,0,1,0,3225.28)">
            <path d="M542.339,2173.2L530.759,2173.2L530.759,2184.42L542.339,2184.42L542.339,2173.2ZM521.52,2173.2L510,2173.2L510,2184.42L521.52,2184.42L521.52,2173.2ZM551.519,2164.62L551.519,2195.82L542.339,2195.82L542.339,2193L530.759,2193L530.759,2211.36L521.52,2211.36L521.52,2193L510,2193L510,2196.12L501.241,2196.12L501.241,2164.62L521.52,2164.62L521.52,2154.36L530.759,2154.36L530.759,2164.62L551.519,2164.62Z" style="fill:rgb(237,89,104);fill-rule:nonzero;"/>
        </g>
        <g transform="matrix(1,0,0,1,596.759,5414.74)">
            <path d="M0,-10.5L0,-5.88C0,-3.66 0.18,-3.48 1.68,-3.48L5.04,-3.48C5.52,-3.48 5.82,-3.54 6.061,-3.6L6.061,-10.5L0,-10.5ZM-8.219,-23.759L-13.26,-23.759L-13.26,-18.48L-8.219,-18.48L-8.219,-23.759ZM-26.519,-10.5L-26.519,-1.68C-22.439,-4.14 -21.359,-7.2 -21.059,-10.5L-26.519,-10.5ZM6.061,10.439L6.061,4.62L0.24,4.62C-6.779,4.62 -8.219,2.16 -8.219,-5.82L-8.219,-10.5L-13.319,-10.5C-13.68,-4.26 -15.959,2.279 -24.238,5.819C-24.719,5.04 -25.559,3.899 -26.519,2.819L-26.519,10.439L6.061,10.439ZM0,-23.759L0,-18.479L14.939,-18.479L14.939,21.659L6.061,21.659L6.061,18.419L-26.519,18.419L-26.519,21.659L-34.979,21.659L-34.979,-18.479L-20.999,-18.479L-20.999,-23.759L-37.918,-23.759L-37.918,-32.159L16.68,-32.159L16.68,-23.759L0,-23.759Z" style="fill:rgb(237,89,104);fill-rule:nonzero;"/>
        </g>
        <g transform="matrix(1,0,0,1,660.358,5398.06)">
            <path d="M0,21.54L-5.579,21.54C-5.579,22.8 -5.279,22.92 -4.139,22.92L0,22.92L0,21.54ZM6.721,10.44C4.74,9.601 2.34,8.641 -0.18,7.681C-2.34,8.761 -4.68,9.721 -7.139,10.44L6.721,10.44ZM-9.659,-0.959C-7.199,-0.179 -4.379,0.722 -1.5,1.741C-0.359,0.901 0.66,0.001 1.561,-0.959L-9.659,-0.959ZM-12.179,15.841L-14.639,15.841L-14.639,17.221L-12.179,17.221L-12.179,15.841ZM-20.639,4.501C-20.039,4.501 -19.318,4.501 -18.599,4.441C-19.619,3.481 -21.238,2.281 -22.858,1.201C-23.938,2.401 -25.559,3.541 -27.898,4.501L-20.639,4.501ZM-27.358,-6.658C-27.719,-6.179 -28.139,-5.759 -28.559,-5.339L-25.918,-5.339L-25.918,-6.658L-27.358,-6.658ZM-28.979,21.54L-28.979,23.34C-24.599,23.16 -22.379,22.561 -21.539,21.54L-28.979,21.54ZM0,32.82L0,26.7L-5.219,26.7C-10.739,26.7 -12.119,25.62 -12.179,21.54L-14.759,21.54C-15.299,24.601 -17.818,26.52 -23.099,27.601L-2.399,27.601L-2.399,31.62L-25.678,31.62L-25.678,28.02L-26.398,28.14C-26.879,27.061 -27.959,25.561 -28.979,24.36L-28.979,32.82L0,32.82ZM-33.238,1.741C-33.238,3.721 -32.878,4.501 -30.838,4.501L-29.458,4.501C-30.238,3.361 -31.498,2.102 -32.518,1.261C-29.578,0.602 -27.959,-0.358 -26.998,-1.439L-32.278,-1.439L-32.278,-5.339L-29.278,-5.339C-30.299,-6.059 -31.918,-7.019 -32.938,-7.498C-31.437,-8.818 -30.238,-10.318 -29.518,-11.878L-33.238,-11.878L-33.238,1.741ZM-5.579,15.841L-5.579,17.221L8.16,17.221L8.16,38.519L0,38.519L0,37.14L-28.979,37.14L-28.979,38.519L-36.777,38.519L-36.777,17.221L-21.119,17.221L-21.119,15.841L-42.537,15.841L-42.537,10.44L-11.1,10.44C-11.879,9.061 -13.02,7.321 -13.979,6.301C-13.859,7.261 -13.738,8.161 -13.619,8.94C-14.939,9.36 -17.699,9.421 -20.099,9.421L-31.437,9.421C-37.979,9.421 -39.658,7.081 -39.658,1.561L-39.658,-11.878L-41.758,-11.878L-41.758,-16.618L-13.919,-16.618L-13.919,-11.878L-27.059,-11.878L-24.599,-11.278C-24.719,-10.979 -24.838,-10.618 -25.019,-10.318L-15.839,-10.318L-15.839,-6.658L-20.699,-6.658L-20.699,-5.339L-14.939,-5.339L-14.939,-1.439L-18.898,-1.439C-17.398,-0.479 -15.959,0.602 -14.999,1.441L-17.879,4.441C-16.439,4.381 -14.999,4.261 -14.158,4.021C-14.099,4.741 -14.039,5.52 -13.979,6.301C-11.818,5.941 -9.719,5.461 -7.799,4.801C-9.479,4.201 -11.1,3.661 -12.6,3.121L-9.898,-0.959L-12.238,-0.959L-12.238,-5.459C-13.318,-6.719 -14.639,-8.099 -15.479,-8.698C-10.799,-10.259 -10.199,-11.939 -10.199,-13.979L-10.199,-16.979L6.721,-16.979L6.721,-13.378C6.721,-12.238 6.84,-11.759 7.561,-11.759L9.36,-11.759C10.2,-11.759 11.7,-11.878 12.42,-12.118C12.54,-10.498 12.66,-8.219 12.9,-6.599C12.061,-6.299 10.74,-6.238 9.54,-6.238L6.6,-6.238C2.041,-6.238 0.541,-7.799 0.181,-11.338L-3.959,-11.338C-4.319,-9.299 -5.279,-7.318 -7.379,-5.698L5.28,-5.698L6.48,-5.879L10.561,-4.318C9.24,-0.959 7.381,1.801 4.98,4.021C7.44,4.921 9.721,5.761 11.4,6.481L9,10.44L14.22,10.44L14.22,15.841L-5.579,15.841Z" style="fill:rgb(237,89,104);fill-rule:nonzero;"/>
        </g>
        <g transform="matrix(-1,0,0,1,1412.64,3224.14)">
            <rect x="678.36" y="2178.66" width="55.918" height="9.539" style="fill:rgb(237,89,104);"/>
        </g>
        <g transform="matrix(1,0,0,1,0,3226.48)">
            <path d="M775.859,2171.22L782.938,2171.22L782.938,2162.82L775.859,2162.82L775.859,2171.22ZM777.179,2198.22C769.8,2198.22 767.46,2195.88 767.46,2187.12L767.46,2155.2L791.278,2155.2L791.278,2178.72L775.859,2178.72L775.859,2187.12C775.859,2190.06 776.159,2190.42 778.438,2190.42L784.559,2190.42C786.659,2190.42 787.079,2189.1 787.438,2182.98C789.239,2184.36 792.658,2185.74 794.999,2186.28C794.038,2195.22 791.818,2198.22 785.339,2198.22L777.179,2198.22ZM757.739,2199.3C760.8,2200.14 764.46,2200.32 768.839,2200.32C774.359,2200.38 789.059,2200.38 795.479,2200.02C794.158,2202 792.718,2206.02 792.179,2208.66L768.779,2208.66C758.399,2208.66 751.32,2207.4 746.521,2201.4C745.921,2205.06 745.141,2208.42 744.061,2211.12C742.501,2210.1 738.661,2208.3 736.741,2207.52C739.44,2201.4 740.04,2191.2 740.101,2181L748.021,2181.6C747.96,2184.12 747.9,2186.64 747.72,2189.1C748.32,2190.78 748.98,2192.22 749.761,2193.42L749.761,2178.24L738.54,2178.24L738.54,2170.62L748.021,2170.62L748.021,2166.18L740.28,2166.18L740.28,2158.68L748.021,2158.68L748.021,2153.4L756.18,2153.4L756.18,2158.68L763.8,2158.68L763.8,2166.18L756.18,2166.18L756.18,2170.62L765.3,2170.62L765.3,2178.24L757.739,2178.24L757.739,2183.34L764.76,2183.34L764.76,2190.84L757.739,2190.84L757.739,2199.3Z" style="fill:rgb(237,89,104);fill-rule:nonzero;"/>
        </g>
        <g transform="matrix(1,0,0,1,830.64,5421.1)">
            <path d="M0,-25.92L0,-12.9L0.119,-12.72C3.479,-15.96 5.819,-20.82 6.959,-25.92L0,-25.92ZM16.799,-5.341C15.239,-6.9 12.6,-9.181 9.899,-11.4C8.879,-9.841 7.739,-8.46 6.6,-7.32C5.52,-8.16 3.6,-9.42 1.8,-10.441C7.08,-3.78 15.419,2.159 24.419,5.399C22.259,7.259 19.379,10.978 17.939,13.438C11.219,10.319 5.1,5.518 0,-0.181L0,15.539L-9.24,15.539L-9.24,0.359C-14.279,5.939 -20.34,10.559 -27.059,13.619C-28.439,11.398 -31.259,7.859 -33.238,6.059C-23.399,2.339 -14.34,-4.681 -9.24,-12.481L-9.24,-25.92L-19.92,-25.92L-12.72,-24.54C-13.26,-22.44 -13.92,-20.399 -14.699,-18.42C-12.72,-16.8 -10.68,-15.061 -9.48,-13.86L-15.24,-7.681C-16.02,-8.641 -17.16,-9.78 -18.42,-10.981C-20.34,-8.04 -22.5,-5.461 -24.899,-3.421C-26.34,-4.981 -29.699,-7.86 -31.619,-9.12C-26.459,-12.78 -22.859,-18.96 -21.239,-25.92L-30.419,-25.92L-30.419,-34.44L-9.24,-34.44L-9.24,-41.459L0,-41.459L0,-34.44L22.019,-34.44L22.019,-25.92L8.34,-25.92L15.479,-24.6C14.999,-22.5 14.339,-20.46 13.559,-18.48C16.799,-16.08 20.639,-13.26 22.799,-11.34L16.799,-5.341Z" style="fill:rgb(237,89,104);fill-rule:nonzero;"/>
        </g>
        <g transform="matrix(1,0,0,1,0,3228.4)">
            <path d="M926.878,2183.46L917.878,2183.46L917.878,2186.88L926.878,2186.88L926.878,2183.46ZM917.878,2176.14L926.878,2176.14L926.878,2172.9L917.878,2172.9L917.878,2176.14ZM900.599,2186.88L909.119,2186.88L909.119,2183.46L900.599,2183.46L900.599,2186.88ZM900.599,2176.14L909.119,2176.14L909.119,2172.9L900.599,2172.9L900.599,2176.14ZM942.237,2194.86L935.577,2194.86L935.577,2199.18C935.577,2203.32 934.677,2205.6 931.917,2206.92C929.157,2208.24 925.498,2208.36 920.458,2208.36C920.038,2206.02 918.657,2202.3 917.458,2200.2C920.397,2200.38 924.357,2200.32 925.378,2200.32C926.457,2200.32 926.878,2200.02 926.878,2199.06L926.878,2194.86L900.599,2194.86L900.599,2208.3L891.959,2208.3L891.959,2194.86L885.239,2194.86L885.239,2186.88L891.959,2186.88L891.959,2165.1L909.118,2165.1L909.118,2162.22L887.819,2162.22L887.819,2154.24L939.717,2154.24L939.717,2162.22L917.878,2162.22L917.878,2165.1L935.577,2165.1L935.577,2186.88L942.237,2186.88L942.237,2194.86Z" style="fill:rgb(44,58,96);fill-rule:nonzero;"/>
        </g>
        <g transform="matrix(1,0,0,1,0,3227.44)">
            <path d="M991.558,2187.96L980.518,2187.96L980.518,2190.66L991.558,2190.66L991.558,2187.96ZM991.558,2179.44L980.518,2179.44L980.518,2182.14L991.558,2182.14L991.558,2179.44ZM991.558,2170.98L980.518,2170.98L980.518,2173.68L991.558,2173.68L991.558,2170.98ZM993.297,2196.9C996.417,2199.06 1000.62,2202.24 1002.84,2204.4L995.937,2209.2C994.018,2206.98 989.758,2203.44 986.638,2201.04L992.817,2196.9L979.258,2196.9L985.138,2200.74C981.777,2203.86 976.138,2207.34 971.519,2209.14C970.198,2207.58 967.738,2205.18 965.938,2203.74C970.139,2202.24 974.937,2199.3 977.698,2196.9L972.598,2196.9L972.598,2164.74L980.937,2164.74C981.058,2163.66 981.237,2162.58 981.298,2161.56L971.098,2161.56L971.098,2154.36L1002.18,2154.36L1002.18,2161.56L990.897,2161.56C990.537,2162.64 990.178,2163.72 989.817,2164.74L999.896,2164.74L999.896,2196.9L993.297,2196.9ZM969.178,2162.46L948.36,2162.46L948.36,2154.48L969.178,2154.48L969.178,2162.46ZM971.098,2190.72C971.158,2192.88 971.519,2196.06 971.938,2197.74C963.059,2201.34 961.139,2202.48 959.999,2203.5C959.459,2201.58 957.778,2198.04 956.459,2196.3C958.019,2195.52 960.118,2193.6 960.118,2190.96L960.118,2176.56L957.119,2176.56L957.119,2182.26C957.119,2188.74 956.219,2199.3 949.799,2205.54C948.599,2204.04 945.899,2201.4 944.159,2200.26C948.899,2195.22 949.439,2187.06 949.439,2182.08L949.439,2176.56L946.139,2176.56L946.139,2168.52L971.278,2168.52L971.278,2176.56L967.618,2176.56L967.618,2191.92L971.098,2190.72Z" style="fill:rgb(44,58,96);fill-rule:nonzero;"/>
        </g>
        <g transform="matrix(1,0,0,1,1051.2,5390.92)">
            <path d="M0,34.978C-0.54,33.898 -1.02,32.878 -1.56,31.918L3.3,29.938L-3.06,29.938L-3.06,35.098L0,34.978ZM-3.06,23.039L0.48,23.039L0.48,19.019L-3.06,19.019L-3.06,23.039ZM-11.279,19.019L-14.879,19.019L-14.879,23.039L-11.279,23.039L-11.279,19.019ZM4.38,10.259C3.9,9.179 3.24,7.979 2.46,6.66C-15.839,8.16 -18.899,8.459 -20.999,9.24C-21.479,7.74 -22.919,4.08 -23.879,2.1C-22.739,1.799 -21.659,0.9 -20.639,-0.42C-19.56,-1.68 -16.379,-6.36 -14.699,-11.04L-5.58,-9.06C-7.439,-5.64 -9.96,-2.041 -12.539,0.959L-2.16,0.24C-3.12,-1.02 -4.14,-2.22 -5.16,-3.3L0.96,-7.02C4.74,-3.18 9.18,2.16 11.04,6.059L4.38,10.259ZM4.2,46.018C3.96,44.998 3.6,43.858 3.18,42.598C-6.239,43.377 -16.079,44.038 -23.339,44.518L-24.299,36.058C-20.639,35.938 -16.14,35.758 -11.279,35.518L-11.279,29.938L-22.379,29.938L-22.379,12.12L-11.279,12.12L-11.279,7.86L-3.06,7.86L-3.06,12.12L8.34,12.12L8.34,29.938L6.18,29.938C8.58,34.079 11.04,39.238 11.939,42.718L4.2,46.018ZM-23.879,18.899C-23.879,18.899 -23.939,21.059 -24.059,22.079C-24.719,34.858 -25.559,40.499 -27.299,42.598C-28.799,44.398 -30.358,44.998 -32.459,45.297C-34.198,45.598 -37.019,45.658 -40.019,45.538C-40.139,43.138 -41.158,39.778 -42.479,37.618C-40.139,37.858 -37.858,37.858 -36.719,37.858C-35.818,37.858 -35.219,37.738 -34.618,37.138C-33.778,36.238 -33.179,33.298 -32.759,26.638L-46.018,26.638C-44.998,20.999 -44.038,12.299 -43.559,5.339L-32.639,5.339L-32.639,-0.36L-44.519,-0.36L-44.519,-8.22L-24.599,-8.22L-24.599,13.199L-36.538,13.199C-36.719,15.119 -36.898,17.039 -37.078,18.899L-23.879,18.899Z" style="fill:rgb(44,58,96);fill-rule:nonzero;"/>
        </g>
        <g transform="matrix(1,0,0,1,1103.22,5395.12)">
            <path d="M0,25.979C-1.56,22.32 -5.16,16.44 -7.859,12L-1.021,8.16C1.68,12.24 5.58,17.94 7.38,21.479L0,25.979ZM-19.8,17.459L-27.659,17.459L-27.659,27.778L-19.8,27.778L-19.8,17.459ZM-19.8,1.86L-27.659,1.86L-27.659,9.96L-19.8,9.96L-19.8,1.86ZM17.699,-6.299C17.699,-6.299 17.699,-3.54 17.64,-2.52C16.919,24.179 16.319,33.899 13.8,37.199C11.939,39.838 10.079,40.559 7.439,41.039C5.04,41.458 1.319,41.399 -2.28,41.279C-2.4,38.939 -3.6,35.219 -5.16,32.819C-1.32,33.179 2.28,33.179 3.899,33.179C5.1,33.179 5.76,32.939 6.54,32.099C8.279,30.239 8.999,21.419 9.479,1.621L-1.92,1.621C-3.54,5.041 -5.28,8.1 -7.02,10.56C-8.1,9.6 -10.14,8.04 -11.939,6.84L-11.939,35.399L-27.659,35.399L-27.659,39.659L-35.519,39.659L-35.519,-5.7L-28.679,-5.7C-28.079,-8.759 -27.539,-12.54 -27.359,-15.479L-17.819,-14.159C-18.839,-11.219 -19.859,-8.219 -20.819,-5.7L-11.939,-5.7L-11.939,2.28C-8.939,-2.58 -6.36,-9.059 -4.8,-15.299L3.6,-13.319C2.939,-10.979 2.16,-8.639 1.319,-6.299L17.699,-6.299Z" style="fill:rgb(44,58,96);fill-rule:nonzero;"/>
        </g>
        <g transform="matrix(1,0,0,1,1155.84,5395.48)">
            <path d="M0,25.619C1.2,26.519 2.58,27.299 4.02,28.079C5.58,27.18 6.96,26.159 8.16,25.079L0.54,25.079L0,25.619ZM-13.68,-4.079L-13.68,8.34C-13.68,10.14 -13.739,12.12 -13.859,14.16C-8.939,12.84 -6.96,10.98 -6.06,8.52C-9.06,8.88 -10.199,9.18 -11.22,9.54C-11.579,8.04 -12.72,4.62 -13.499,2.7C-12.359,2.46 -11.22,1.92 -9.899,1.14C-8.699,0.54 -5.34,-1.5 -2.52,-4.079L-13.68,-4.079ZM20.159,21.539C18.18,25.439 15.479,28.619 12.18,31.199C16.499,32.459 21.479,33.239 27.179,33.598C25.619,35.339 23.639,38.699 22.739,40.858C15.479,40.018 9.3,38.398 4.14,36.119C-1.5,38.759 -7.979,40.438 -14.939,41.518C-15.659,39.539 -17.159,36.539 -18.539,34.859C-19.679,37.259 -21.119,39.419 -22.919,41.339C-24.119,39.719 -27.358,36.539 -29.039,35.459C-25.619,31.679 -23.819,26.879 -22.859,22.019C-24.898,23.279 -26.938,24.479 -28.919,25.619L-31.318,17.46C-28.799,16.5 -25.438,14.88 -21.839,13.14C-21.779,11.46 -21.779,9.84 -21.779,8.28L-21.779,6.48L-27.358,9.42C-27.779,6.36 -29.398,1.44 -31.019,-2.279L-24.898,-5.279C-23.759,-2.999 -22.559,-0.239 -21.779,2.221L-21.779,-11.339L-1.979,-11.339C-2.34,-12.299 -2.76,-13.259 -3.18,-14.099L4.74,-15.899C5.58,-14.579 6.359,-12.839 6.899,-11.339L25.679,-11.339L25.679,-4.079L1.56,-4.079L6,-2.34C4.439,-0.96 2.64,0.36 0.84,1.62L8.58,1.261L6.66,-0.42L12.239,-4.079C15.72,-1.319 20.939,2.82 23.579,5.4L17.64,9.66C16.919,8.88 16.02,7.92 14.939,6.96L12.539,7.08L12.539,9.599C12.539,10.86 12.659,11.4 13.56,11.4L17.039,11.4C18.06,11.4 19.739,11.28 20.64,10.98C20.759,12.78 20.939,15.599 21.18,17.22C20.159,17.64 18.659,17.699 17.22,17.699L13.26,17.699C6.899,17.699 5.52,15.479 5.52,9.54L5.52,7.56L1.74,7.86C0.66,13.439 -1.92,17.519 -9.84,20.22C-10.56,18.54 -12.359,15.84 -13.859,14.46C-14.279,21 -15.419,28.439 -18.419,34.679C-13.14,34.079 -8.159,33.058 -3.72,31.559C-4.38,31.019 -4.979,30.539 -5.64,29.999C-7.02,30.899 -8.46,31.739 -9.96,32.459C-11.039,30.959 -13.439,28.439 -14.939,27.18C-13.319,26.519 -11.819,25.68 -10.319,24.779C-10.979,23.819 -11.579,22.859 -12.119,21.899L-6.12,18.96C-5.819,19.5 -5.46,20.04 -5.1,20.58C-3.359,18.84 -1.92,16.979 -0.84,15.12L6.779,17.46C6.42,18 6.06,18.599 5.64,19.14L13.5,19.14L14.939,18.84L20.159,21.539Z" style="fill:rgb(44,58,96);fill-rule:nonzero;"/>
        </g>
        <g transform="matrix(1,0,0,1,0,3224.38)">
            <path d="M1231.2,2194.8L1225.38,2194.8L1225.38,2196.96L1231.2,2196.96L1231.2,2194.8ZM1231.2,2186.82L1225.38,2186.82L1225.38,2188.92L1231.2,2188.92L1231.2,2186.82ZM1216.32,2174.94C1218.06,2175.66 1219.92,2176.44 1221.72,2177.22C1222.8,2176.5 1223.94,2175.72 1225.02,2174.94L1216.32,2174.94ZM1217.4,2194.8L1211.46,2194.8L1211.46,2196.96L1217.4,2196.96L1217.4,2194.8ZM1211.46,2188.92L1217.4,2188.92L1217.4,2186.82L1211.46,2186.82L1211.46,2188.92ZM1239.3,2205.18C1239.3,2208.48 1238.64,2209.98 1236.48,2211C1234.38,2212.02 1231.56,2212.08 1227.96,2212.08C1227.66,2210.16 1226.7,2207.64 1225.86,2205.96C1227.42,2206.02 1229.64,2206.02 1230.24,2206.02C1230.96,2206.02 1231.2,2205.78 1231.2,2205.12L1231.2,2202.84L1225.38,2202.84L1225.38,2211.3L1217.4,2211.3L1217.4,2202.84L1211.46,2202.84L1211.46,2212.14L1203.48,2212.14L1203.48,2180.64L1214.28,2180.64C1212.6,2179.92 1210.98,2179.26 1209.48,2178.66L1213.44,2174.94L1205.7,2174.94L1205.7,2169.06L1232.16,2169.06L1233.96,2168.64L1238.88,2173.14C1235.7,2175.48 1232.04,2178.06 1228.26,2180.28C1228.5,2180.4 1228.74,2180.52 1228.98,2180.64L1239.3,2180.64L1239.3,2205.18ZM1241.58,2160.06L1241.58,2167.5L1201.98,2167.5L1201.98,2179.38C1201.98,2189.16 1200.66,2203.68 1192.74,2212.02C1191.54,2210.34 1188.3,2207.16 1186.62,2206.14C1190.04,2202.42 1191.84,2197.74 1192.8,2192.94C1190.82,2194.14 1188.84,2195.28 1186.92,2196.42L1184.52,2188.26C1186.98,2187.3 1190.28,2185.74 1193.82,2184.06C1193.88,2182.44 1193.88,2180.88 1193.88,2179.38L1193.88,2177.22L1188.36,2180.16C1187.88,2177.1 1186.26,2172.24 1184.64,2168.52L1190.94,2165.34C1192.02,2167.38 1193.04,2169.84 1193.88,2172.12L1193.88,2160.06L1213.32,2160.06C1212.78,2158.86 1212.18,2157.66 1211.52,2156.64L1219.98,2154.48C1221.18,2156.1 1222.44,2158.26 1223.16,2160.06L1241.58,2160.06Z" style="fill:rgb(44,58,96);fill-rule:nonzero;"/>
        </g>
        <g transform="matrix(1,0,0,1,1286.46,5395.6)">
            <path d="M0,25.5C1.2,25.62 2.101,25.62 2.94,25.62C3.78,25.62 4.62,25.5 5.221,25.141C6.181,24.601 6.601,23.4 6.601,21.42C6.601,18.421 5.521,14.101 1.44,9.781C2.82,5.821 4.44,0.062 5.641,-4.498L0,-4.498L0,25.5ZM-22.318,1.142C-21.539,-0.059 -20.759,-1.259 -19.979,-2.519L-22.979,-2.519L-22.979,1.142L-22.318,1.142ZM-20.039,28.26L-27.658,28.26L-27.658,31.2L-20.039,31.2L-20.039,28.26ZM-20.039,19.141L-27.658,19.141L-27.658,21.781L-20.039,21.781L-20.039,19.141ZM16.26,-9.059C14.34,-3.238 11.94,3.541 9.84,8.701C14.22,13.98 14.939,18.721 14.939,22.44C14.939,27.36 13.86,30.42 11.4,32.1C10.2,33 8.7,33.54 7.021,33.78C5.7,33.96 3.9,34.02 2.04,33.9C1.98,31.68 1.2,28.2 0,25.86L0,40.979L-8.579,40.979L-8.579,-7.979C-9.899,-4.799 -11.339,-1.738 -13.019,1.142L-10.139,1.142L-10.139,8.641L-17.999,8.641C-18.959,9.9 -19.979,11.101 -21.059,12.301L-11.819,12.301L-11.819,40.14L-20.039,40.14L-20.039,38.1L-27.658,38.1L-27.658,40.979L-35.518,40.979L-35.518,24.12C-36.178,24.54 -36.838,24.9 -37.498,25.26C-38.398,23.4 -40.857,19.681 -42.357,17.94C-37.258,15.601 -32.698,12.421 -28.738,8.641L-40.678,8.641L-40.678,1.142L-31.019,1.142L-31.019,-2.519L-38.158,-2.519L-38.158,-9.958L-31.019,-9.958L-31.019,-15.479L-22.979,-15.479L-22.979,-9.958L-17.579,-9.958L-17.579,-7.198C-16.739,-9.059 -15.959,-10.979 -15.299,-12.958L-8.579,-11.099L-8.579,-12.658L8.641,-12.658L9.9,-12.958L16.26,-9.059Z" style="fill:rgb(44,58,96);fill-rule:nonzero;"/>
        </g>
        <g transform="matrix(1,0,0,1,1343.04,5420.62)">
            <path d="M0,-21.18C6.06,-16.44 15.359,-9.42 19.679,-4.56L12.179,2.159C8.819,-2.101 1.56,-8.46 -4.44,-13.5L-4.44,15.899L-14.04,15.899L-14.04,-11.22C-19.14,-5.941 -25.079,-1.321 -31.679,2.099C-33.06,-0.241 -35.819,-3.901 -37.679,-5.88C-27.18,-10.68 -18.359,-19.38 -12.96,-28.139L-35.579,-28.139L-35.579,-37.079L17.099,-37.079L17.099,-28.139L-1.38,-28.139C-2.341,-26.459 -3.36,-24.78 -4.44,-23.159L-4.44,-17.46L0,-21.18Z" style="fill:rgb(44,58,96);fill-rule:nonzero;"/>
        </g>
        <g transform="matrix(1,0,0,1,0,3225.28)">
            <path d="M1411.56,2190.48L1396.8,2190.48L1396.8,2200.26L1411.56,2200.26L1411.56,2190.48ZM1396.8,2182.44L1411.56,2182.44L1411.56,2173.14L1396.8,2173.14L1396.8,2182.44ZM1420.5,2164.8L1420.5,2210.88L1411.56,2210.88L1411.56,2208.72L1396.8,2208.72L1396.8,2211.36L1388.28,2211.36L1388.28,2177.04L1382.94,2179.38C1382.64,2177.58 1381.98,2175.12 1381.14,2172.66L1381.14,2211.36L1372.74,2211.36L1372.74,2176.68C1372.32,2179.62 1371.72,2182.44 1371.12,2184.66L1364.64,2182.32C1366.02,2178.24 1367.04,2171.46 1367.46,2166.42L1372.74,2167.14L1372.74,2154.36L1381.14,2154.36L1381.14,2166.06L1385.16,2164.44C1386.24,2166.84 1387.38,2169.72 1388.28,2172.3L1388.28,2164.8L1398.6,2164.8C1399.26,2161.38 1399.8,2157.48 1400.04,2154.36L1410.36,2155.26C1409.52,2158.62 1408.62,2161.92 1407.66,2164.8L1420.5,2164.8Z" style="fill:rgb(44,58,96);fill-rule:nonzero;"/>
        </g>
    </g>
</svg>
