<?xml version="1.0" encoding="UTF-8" standalone="no"?>
<!DOCTYPE svg PUBLIC "-//W3C//DTD SVG 1.1//EN" "http://www.w3.org/Graphics/SVG/1.1/DTD/svg11.dtd">
<svg width="100%" height="100%" viewBox="0 0 214 180" version="1.1" xmlns="http://www.w3.org/2000/svg" xmlns:xlink="http://www.w3.org/1999/xlink" xml:space="preserve" xmlns:serif="http://www.serif.com/" style="fill-rule:evenodd;clip-rule:evenodd;stroke-linejoin:round;stroke-miterlimit:2;">
    <g id="_2" serif:id="2" transform="matrix(0.996256,0,0,0.99522,-839.691,-2352.36)">
        <g transform="matrix(1,0,0,1,1039.42,2507.56)">
            <path d="M0,-43.642L0,-15.751C0,-11.039 -3.82,-7.22 -8.532,-7.22L-113.531,-7.22C-118.242,-7.22 -122.063,-11.039 -122.063,-15.751L-122.063,-43.642C-122.063,-48.353 -125.881,-52.172 -130.594,-52.172C-135.304,-52.172 -139.124,-48.353 -139.124,-43.642L-139.124,-0.001C-139.124,4.711 -135.304,8.53 -130.594,8.53L8.531,8.53C13.242,8.53 17.062,4.711 17.062,-0.001L17.062,-43.642C17.062,-48.353 13.242,-52.172 8.531,-52.172C3.82,-52.172 0,-48.353 0,-43.642" style="fill:rgb(91,123,162);fill-rule:nonzero;"/>
        </g>
        <g transform="matrix(1,0,0,1,920.644,2490.5)">
            <path d="M0,1.64C0,4.359 2.202,6.562 4.922,6.562L110.576,6.562C113.295,6.562 115.497,4.359 115.497,1.64C115.497,-1.983 112.561,-4.922 108.935,-4.922L6.562,-4.922C2.937,-4.922 0,-1.983 0,1.64" style="fill:rgb(91,123,162);fill-rule:nonzero;"/>
        </g>
        <g transform="matrix(1,0,0,1,976.752,2448.38)">
            <path d="M0,27.963L0,-0.001C0,-3.378 -2.737,-6.116 -6.114,-6.116L-62.998,-6.116C-65.716,-6.116 -67.921,-3.913 -67.921,-1.195C-67.921,1.524 -65.716,3.727 -62.998,3.727L-61.029,3.727C-58.312,3.727 -56.107,5.931 -56.107,8.651L-56.107,27.963C-56.107,31.34 -53.369,34.079 -49.992,34.079L-6.114,34.079C-2.737,34.079 0,31.34 0,27.963" style="fill:rgb(91,123,162);fill-rule:nonzero;"/>
        </g>
        <g transform="matrix(1,0,0,1,1043.03,2482.46)">
            <path d="M0,-40.195L-57.614,-40.195C-60.589,-40.195 -63,-37.783 -63,-34.808L-63,-5.386C-63,-2.412 -60.589,0 -57.614,0L-12.278,0C-9.303,0 -6.893,-2.412 -6.893,-5.386L-6.893,-25.428C-6.893,-28.148 -4.687,-30.352 -1.971,-30.352L0,-30.352C2.717,-30.352 4.922,-32.555 4.922,-35.274C4.922,-37.992 2.717,-40.195 0,-40.195" style="fill:rgb(91,123,162);fill-rule:nonzero;"/>
        </g>
        <g transform="matrix(-1,0,0,1,1840.27,-2550.05)">
            <rect x="915.459" y="5066.14" width="9.353" height="8.767" style="fill:rgb(91,123,162);"/>
        </g>
        <g transform="matrix(-1,0,0,1,2073.3,-2550.05)">
            <rect x="1031.98" y="5066.14" width="9.353" height="8.767" style="fill:rgb(91,123,162);"/>
        </g>
        <g transform="matrix(1,0,0,1,886.681,2396.81)">
            <path d="M0,60.085L-36.359,49.339L-20.245,-5.191L16.115,5.554L0,60.085ZM-16.473,65.646C-16.77,66.653 -18.078,67.364 -19.09,67.065L-23.63,65.724C-25.15,65.274 -25.862,63.967 -25.564,62.958L-24.073,57.913C-23.776,56.908 -22.465,56.191 -20.945,56.64L-16.405,57.981C-15.393,58.28 -14.684,59.595 -14.981,60.6L-16.473,65.646ZM-6.337,-7.674L5.777,-4.094L5.181,-2.075L-6.934,-5.655L-6.337,-7.674ZM18.094,-4.853L-15.742,-14.853C-18.772,-15.748 -22.053,-13.964 -23.096,-10.432L-43.092,57.233C-44.138,60.772 -42.352,64.044 -39.322,64.939L-5.486,74.939C-2.459,75.833 0.809,74.054 1.855,70.516L21.85,2.851C22.894,-0.681 21.12,-3.959 18.094,-4.853" style="fill:rgb(91,123,162);"/>
        </g>
    </g>
</svg>
