<?xml version="1.0" encoding="UTF-8" standalone="no"?>
<!DOCTYPE svg PUBLIC "-//W3C//DTD SVG 1.1//EN" "http://www.w3.org/Graphics/SVG/1.1/DTD/svg11.dtd">
<svg width="100%" height="100%" viewBox="0 0 214 180" version="1.1" xmlns="http://www.w3.org/2000/svg" xmlns:xlink="http://www.w3.org/1999/xlink" xml:space="preserve" xmlns:serif="http://www.serif.com/" style="fill-rule:evenodd;clip-rule:evenodd;stroke-linejoin:round;stroke-miterlimit:2;">
    <g id="_14" serif:id="14" transform="matrix(1,0,0,1,-859.76,-6521.31)">
        <g transform="matrix(1,0,0,1,927.114,6689.77)">
            <path d="M0,-111.077C0,-111.077 25.916,-45.12 30.325,-33.567C37.541,-14.667 45.645,1.604 45.645,1.604C45.645,1.604 41.013,-15.72 33.4,-35.317C27.41,-50.739 3.511,-112.681 3.511,-112.681L0,-111.077Z" style="fill:rgb(91,123,162);fill-rule:nonzero;"/>
        </g>
        <g transform="matrix(-0.930108,0.367286,0.367286,0.930108,909.443,6575.07)">
            <rect x="-19.185" y="-3.651" width="4.947" height="78.468" style="fill:rgb(91,123,162);"/>
        </g>
        <g transform="matrix(-0.206554,-0.978435,-0.978435,0.206554,922.178,6562.15)">
            <path d="M-6.707,-8.27C-10.496,-8.271 -13.565,-5.2 -13.565,-1.413C-13.561,2.372 -10.492,5.441 -6.707,5.44C-2.919,5.44 0.147,2.369 0.147,-1.416C0.147,-5.204 -2.923,-8.272 -6.707,-8.27" style="fill:rgb(91,123,162);fill-rule:nonzero;"/>
        </g>
        <g transform="matrix(-0.206157,-0.978519,-0.978519,0.206157,923.488,6565.11)">
            <path d="M-3.538,-4.365C-5.534,-4.366 -7.153,-2.744 -7.157,-0.747C-7.155,1.249 -5.537,2.869 -3.538,2.867C-1.542,2.87 0.079,1.251 0.078,-0.745C0.076,-2.743 -1.54,-4.364 -3.538,-4.365" style="fill:white;fill-rule:nonzero;"/>
        </g>
        <g transform="matrix(1,0,0,1,992.601,6685.12)">
            <path d="M0,-121.366C0,-121.366 -4.889,-50.67 -5.86,-38.343C-7.451,-18.174 -7.112,0 -7.112,0C-7.112,0 -3.864,-17.635 -2.331,-38.603C-1.127,-55.104 3.858,-121.308 3.858,-121.308L0,-121.366Z" style="fill:rgb(91,123,162);fill-rule:nonzero;"/>
        </g>
        <g transform="matrix(-0.99773,-0.0673352,-0.0673352,0.99773,995.292,6550.31)">
            <rect x="-2.304" y="0.078" width="4.952" height="78.469" style="fill:rgb(91,123,162);"/>
        </g>
        <g transform="matrix(0.233188,-0.972432,-0.972432,-0.233188,998.162,6547.43)">
            <path d="M-6.665,-5.256C-10.453,-5.256 -13.521,-2.186 -13.521,1.601C-13.519,5.385 -10.448,8.455 -6.665,8.454C-2.875,8.454 0.19,5.384 0.189,1.597C0.19,-2.19 -2.881,-5.259 -6.665,-5.256" style="fill:rgb(91,123,162);fill-rule:nonzero;"/>
        </g>
        <g transform="matrix(0.233514,-0.972353,-0.972353,-0.233514,996.698,6550.32)">
            <path d="M-3.518,-2.772C-5.514,-2.772 -7.133,-1.151 -7.137,0.845C-7.134,2.844 -5.517,4.462 -3.518,4.461C-1.522,4.462 0.099,2.844 0.098,0.849C0.096,-1.15 -1.52,-2.772 -3.518,-2.772" style="fill:white;fill-rule:nonzero;"/>
        </g>
        <g transform="matrix(1,0,0,1,958.286,6667.77)">
            <path d="M0,-120.085C0,-120.085 7.727,-49.636 8.957,-37.337C10.97,-17.203 14.523,0.622 14.523,0.622C14.523,0.622 14.592,-17.31 12.382,-38.22C10.643,-54.666 3.807,-120.707 3.807,-120.707L0,-120.085Z" style="fill:rgb(91,123,162);fill-rule:nonzero;"/>
        </g>
        <g transform="matrix(-0.993906,0.110232,0.110232,0.993906,951.701,6535.33)">
            <rect x="-9.298" y="-0.511" width="4.988" height="78.47" style="fill:rgb(91,123,162);"/>
        </g>
        <g transform="matrix(0.0572554,-0.99836,-0.99836,-0.0572554,959.671,6530.39)">
            <path d="M-6.845,-6.463C-10.632,-6.463 -13.7,-3.392 -13.701,0.392C-13.702,4.18 -10.632,7.249 -6.845,7.248C-3.06,7.249 0.011,4.181 0.01,0.394C0.011,-3.393 -3.06,-6.463 -6.845,-6.463" style="fill:rgb(91,123,162);fill-rule:nonzero;"/>
        </g>
        <g transform="matrix(0.0571089,-0.998368,-0.998368,-0.0571089,959.297,6533.61)">
            <path d="M-3.61,-3.412C-5.609,-3.412 -7.228,-1.793 -7.227,0.206C-7.227,2.203 -5.609,3.822 -3.61,3.82C-1.615,3.821 0.005,2.2 0.002,0.204C0.005,-1.793 -1.614,-3.411 -3.61,-3.412" style="fill:white;fill-rule:nonzero;"/>
        </g>
    </g>
</svg>
