<?xml version="1.0" encoding="UTF-8" standalone="no"?>
<!DOCTYPE svg PUBLIC "-//W3C//DTD SVG 1.1//EN" "http://www.w3.org/Graphics/SVG/1.1/DTD/svg11.dtd">
<svg width="100%" height="100%" viewBox="0 0 214 180" version="1.1" xmlns="http://www.w3.org/2000/svg" xmlns:xlink="http://www.w3.org/1999/xlink" xml:space="preserve" xmlns:serif="http://www.serif.com/" style="fill-rule:evenodd;clip-rule:evenodd;stroke-linejoin:round;stroke-miterlimit:2;">
    <g id="_17" serif:id="17" transform="matrix(1,0,0,1,-860.656,-6974.09)">
        <g transform="matrix(1,0,0,1,966.204,7086.2)">
            <path d="M0,0.109C0.01,0.078 0.03,0.039 0.054,0C0.03,0.039 0.01,0.078 0,0.109" style="fill:rgb(91,123,162);fill-rule:nonzero;"/>
        </g>
        <g transform="matrix(1,0,0,1,966.75,7083.9)">
            <path d="M0,0.797C0.086,0.539 0.172,0.281 0.258,0.008L0.27,0C0.184,0.258 0.086,0.524 0,0.797" style="fill:rgb(91,123,162);fill-rule:nonzero;"/>
        </g>
        <g transform="matrix(1,0,0,1,970.34,7069.35)">
            <path d="M0,0.023C0.022,0.015 0.054,0 0.085,0C0.066,0 0.022,0.015 0,0.023" style="fill:rgb(91,123,162);fill-rule:nonzero;"/>
        </g>
        <g transform="matrix(1,0,0,1,960.581,7096.29)">
            <path d="M0,-0.008C-0.084,-0.008 -0.184,-0.008 -0.269,0L-0.28,0C-0.194,-0.008 -0.097,-0.008 0,-0.008" style="fill:rgb(91,123,162);fill-rule:nonzero;"/>
        </g>
        <g transform="matrix(1,0,0,1,972.672,7050.05)">
            <path d="M0,0.266C0.098,0.204 0.195,0.141 0.282,0.055C0.288,0.039 0.312,0.024 0.312,0C0.226,0.11 0.117,0.196 0,0.266" style="fill:rgb(91,123,162);fill-rule:nonzero;"/>
        </g>
        <g transform="matrix(1,0,0,1,959.656,7096.53)">
            <path d="M0,-0.069C-0.044,-0.047 -0.086,-0.039 -0.117,-0.031C-0.13,-0.007 -0.148,-0.007 -0.172,0C-0.105,-0.031 -0.063,-0.047 0,-0.069" style="fill:rgb(91,123,162);fill-rule:nonzero;"/>
        </g>
        <g transform="matrix(1,0,0,1,960.066,7096.37)">
            <path d="M0,-0.047C-0.043,-0.031 -0.098,-0.024 -0.153,-0.016C-0.153,0 -0.173,0 -0.173,0C-0.117,-0.024 -0.066,-0.031 0,-0.047" style="fill:rgb(91,123,162);fill-rule:nonzero;"/>
        </g>
        <g transform="matrix(1,0,0,1,965.312,7115.48)">
            <path d="M0,0.086C-0.023,0.063 -0.043,0.016 -0.065,0C-0.043,0.016 -0.023,0.047 0,0.086" style="fill:rgb(91,123,162);fill-rule:nonzero;"/>
        </g>
        <g transform="matrix(1,0,0,1,965.742,7116.07)">
            <path d="M0,0.344C-0.023,0.227 -0.066,0.117 -0.109,0.017L-0.109,0C-0.066,0.117 -0.023,0.227 0,0.344" style="fill:rgb(91,123,162);fill-rule:nonzero;"/>
        </g>
        <g transform="matrix(1,0,0,1,972.273,7050.37)">
            <path d="M0,0.148L0.013,0.148C0.12,0.109 0.215,0.054 0.323,0C0.215,0.054 0.12,0.109 0,0.148" style="fill:rgb(91,123,162);fill-rule:nonzero;"/>
        </g>
        <g transform="matrix(1,0,0,1,902.902,6992.72)">
            <path d="M0,75.148C0.011,74.046 0.117,73.836 0.441,72.273C1.312,68.11 2.602,64.015 3.944,59.985C6.21,53.179 8.254,45.32 12.845,39.671C15.852,35.96 19.827,34.289 24.387,33.257C33.898,31.101 43.19,28.953 48.327,19.679C51.574,13.804 52.605,6.578 51.684,-0.04C51.156,-3.758 45.522,-2.165 46.039,1.507C45.816,-0.047 46.105,2.71 46.117,3.14C46.179,4.835 46.124,6.578 45.91,8.281C45.277,13.265 43.277,18.226 39.398,21.562C32.402,27.578 22.484,26.164 14.715,30.515C4.362,36.304 0.969,50.07 -2.388,60.554C-3.836,65.085 -5.793,70.265 -5.844,75.148C-5.887,78.906 -0.044,78.906 0,75.148" style="fill:rgb(91,123,162);fill-rule:nonzero;"/>
        </g>
        <g transform="matrix(1,0,0,1,931.758,7060.17)">
            <path d="M0,74.461C2.633,62.336 3.914,49.25 1.269,37.063C-1.32,25.07 -2.345,12.688 -2.86,0.461C-2.997,-2.727 -7.824,-3.672 -8.605,-0.32C-10.722,8.836 -16.078,17.415 -20.86,25.391C-23.984,30.602 -27.231,35.742 -30.691,40.734C-32.82,43.852 -27.758,46.774 -25.641,43.695C-22.008,38.415 -18.582,33 -15.301,27.5C-12.778,23.266 -10.121,18.836 -7.867,14.258C-7.266,21.422 -6.383,28.57 -5.008,35.602C-2.559,48.102 -2.922,60.422 -5.652,72.891C-6.445,76.57 -0.816,78.133 0,74.461" style="fill:rgb(91,123,162);fill-rule:nonzero;"/>
        </g>
        <g transform="matrix(-0.900247,-0.43538,-0.43538,0.900247,933.346,7070.01)">
            <path d="M-5.338,-21.355C-8.417,-14.244 -7.4,-5.62 -1.48,-0.352C1.328,2.132 -2.517,6.555 -5.338,4.046C-13.244,-2.98 -14.726,-14.388 -10.602,-23.901C-9.096,-27.356 -3.839,-24.804 -5.338,-21.355" style="fill:rgb(91,123,162);fill-rule:nonzero;"/>
        </g>
        <g transform="matrix(1,0,0,1,1006.51,7034.61)">
            <path d="M0,-8.632C4.536,-7.601 8.512,-5.929 11.531,-2.218C16.122,3.431 18.161,11.29 20.442,18.096C21.774,22.126 23.064,26.221 23.923,30.384C24.243,31.946 24.372,32.157 24.372,33.259C24.419,37.009 30.263,37.016 30.22,33.259C30.177,28.376 28.22,23.196 26.759,18.665C23.407,8.173 20.021,-5.569 9.673,-11.374C1.892,-15.726 -8.018,-14.312 -15.022,-20.327C-18.913,-23.663 -20.894,-28.624 -21.538,-33.609C-21.754,-35.312 -21.804,-37.054 -21.741,-38.749C-21.729,-39.179 -21.453,-41.937 -21.668,-40.382C-21.152,-44.054 -26.78,-45.648 -27.296,-41.929C-28.223,-35.312 -27.202,-28.085 -23.944,-22.21C-18.808,-12.937 -9.522,-10.788 0,-8.632" style="fill:rgb(91,123,162);fill-rule:nonzero;"/>
        </g>
        <g transform="matrix(1,0,0,1,1009.89,7120.41)">
            <path d="M0,-45.984C2.277,-41.406 4.922,-36.976 7.456,-32.742C10.722,-27.242 14.152,-21.827 17.785,-16.547C19.901,-13.468 24.972,-16.39 22.823,-19.507C19.387,-24.5 16.129,-29.64 13.003,-34.851C8.219,-42.827 2.879,-51.406 0.75,-60.562C-0.023,-63.867 -4.86,-62.984 -4.988,-59.781C-5.528,-47.554 -6.535,-35.171 -9.126,-23.179C-11.758,-10.992 -10.493,2.094 -7.848,14.219C-7.051,17.883 -1.411,16.329 -2.215,12.649C-4.922,0.18 -5.301,-12.14 -2.848,-24.64C-1.473,-31.664 -0.595,-38.804 0,-45.984" style="fill:rgb(91,123,162);fill-rule:nonzero;"/>
        </g>
        <g transform="matrix(0.682448,-0.730934,-0.730934,-0.682448,1001.81,7062.58)">
            <path d="M-7.615,-3.205C-11.232,3.842 -9.074,12.256 -3.626,17.768C-0.992,20.43 -4.972,24.726 -7.615,22.039C-14.902,14.664 -17.646,3.499 -12.8,-5.915C-11.074,-9.275 -5.885,-6.544 -7.615,-3.205" style="fill:rgb(91,123,162);fill-rule:nonzero;"/>
        </g>
        <g transform="matrix(1,0,0,1,967.008,7024.43)">
            <path d="M0,5.702C0.109,6.819 1.085,7.656 2.215,7.569L3.946,7.429C4.085,7.421 4.222,7.397 4.351,7.35C4.257,7.374 4.172,7.397 4.062,7.397C4.172,7.397 4.257,7.374 4.351,7.35C4.363,7.35 4.386,7.335 4.405,7.335C4.676,7.249 4.921,7.093 5.137,6.913C5.215,6.835 5.288,6.772 5.351,6.71C5.696,6.304 5.879,5.764 5.823,5.202C5.676,3.429 5.48,1.647 5.266,-0.134C5.203,-0.704 4.921,-1.181 4.492,-1.517C4.405,-1.587 4.301,-1.65 4.191,-1.704C4.031,-1.79 3.848,-1.844 3.676,-1.892C3.848,-1.844 4.007,-1.806 4.172,-1.719C4.007,-1.806 3.848,-1.844 3.676,-1.892C3.633,-1.9 3.602,-1.907 3.571,-1.907C3.386,-1.931 3.203,-1.954 3.012,-1.931L2.969,-1.931L1.246,-1.719C0.129,-1.564 -0.664,-0.556 -0.535,0.569C-0.332,2.281 -0.149,3.999 0,5.702" style="fill:rgb(91,123,162);fill-rule:nonzero;"/>
        </g>
        <g transform="matrix(1,0,0,1,970.413,7022.52)">
            <path d="M0,-0.023C0.056,-0.023 0.099,-0.015 0.166,0C0.099,-0.015 0.056,-0.023 0,-0.023" style="fill:rgb(91,123,162);fill-rule:nonzero;"/>
        </g>
        <g transform="matrix(1,0,0,1,958.391,7097.9)">
            <path d="M0,6.289C0,6.312 0.021,6.344 0.021,6.367C0.055,6.476 0.086,6.578 0.129,6.681C0.148,6.711 0.171,6.734 0.184,6.766C0.234,6.851 0.277,6.945 0.344,7.023C0.405,7.109 0.472,7.195 0.547,7.258C0.569,7.281 0.578,7.306 0.613,7.32C0.589,7.312 0.578,7.289 0.559,7.281C0.965,7.664 1.516,7.906 2.129,7.867L3.848,7.773C4.965,7.711 5.823,6.766 5.781,5.648C5.771,5.047 5.757,4.445 5.757,3.859C5.757,2.789 5.781,1.727 5.844,0.672C5.856,0.398 5.813,0.141 5.737,-0.102C5.771,0.016 5.801,0.141 5.823,0.273C5.801,0.141 5.771,0.016 5.737,-0.102C5.715,-0.117 5.715,-0.133 5.715,-0.156C5.671,-0.258 5.629,-0.352 5.566,-0.438C5.566,-0.461 5.543,-0.477 5.543,-0.5C5.48,-0.586 5.414,-0.672 5.352,-0.75C5.339,-0.758 5.328,-0.781 5.309,-0.805C5.242,-0.875 5.168,-0.953 5.094,-1.016C5.069,-1.016 5.051,-1.039 5.027,-1.063C4.94,-1.117 4.867,-1.164 4.781,-1.211C4.75,-1.234 4.727,-1.242 4.706,-1.25C4.621,-1.297 4.522,-1.336 4.426,-1.359C4.405,-1.375 4.383,-1.383 4.339,-1.391C4.234,-1.422 4.124,-1.444 4.021,-1.461C3.996,-1.461 3.977,-1.469 3.965,-1.469L2.234,-1.617L2.063,-1.617C2.021,-1.617 1.965,-1.609 1.922,-1.609C2.007,-1.617 2.106,-1.617 2.19,-1.617C2.094,-1.617 1.996,-1.617 1.91,-1.609L1.922,-1.609C1.89,-1.594 1.848,-1.609 1.816,-1.594L1.762,-1.594C1.676,-1.578 1.609,-1.563 1.522,-1.547C1.578,-1.555 1.633,-1.563 1.676,-1.578C1.609,-1.563 1.559,-1.555 1.503,-1.531C1.503,-1.531 1.522,-1.531 1.522,-1.547C1.492,-1.531 1.449,-1.531 1.418,-1.508C1.396,-1.508 1.396,-1.508 1.374,-1.5C1.301,-1.469 1.222,-1.438 1.148,-1.406C1.18,-1.414 1.222,-1.422 1.266,-1.444C1.202,-1.422 1.16,-1.406 1.094,-1.375C1.117,-1.383 1.136,-1.383 1.148,-1.406C1.117,-1.383 1.073,-1.359 1.043,-1.336L1.031,-1.336C0.922,-1.273 0.816,-1.203 0.706,-1.117C0.75,-1.148 0.793,-1.164 0.835,-1.203C0.363,-0.844 0.043,-0.289 0,0.352C-0.055,1.508 -0.086,2.681 -0.086,3.859C-0.086,4.531 -0.074,5.195 -0.055,5.883C-0.055,6.008 -0.032,6.164 0,6.289" style="fill:rgb(91,123,162);fill-rule:nonzero;"/>
        </g>
        <g transform="matrix(1,0,0,1,962.367,7096.51)">
            <path d="M0,-0.078C0,-0.078 0.02,-0.07 0.044,-0.07C0.147,-0.054 0.258,-0.031 0.362,0C0.258,-0.031 0.13,-0.054 0,-0.078" style="fill:rgb(91,123,162);fill-rule:nonzero;"/>
        </g>
        <g transform="matrix(1,0,0,1,967.644,7060.29)">
            <path d="M0,8.773L1.695,9.132C1.718,9.132 1.738,9.132 1.762,9.14C1.738,9.132 1.718,9.132 1.695,9.132C1.835,9.164 1.977,9.172 2.116,9.172L2.147,9.172C2.18,9.172 2.223,9.172 2.253,9.164C2.353,9.156 2.437,9.156 2.523,9.132C2.566,9.132 2.609,9.109 2.651,9.101C2.695,9.085 2.738,9.078 2.78,9.062C2.749,9.062 2.718,9.078 2.695,9.085C2.718,9.078 2.762,9.062 2.78,9.062C2.824,9.047 2.867,9.047 2.91,9.023C2.996,8.976 3.081,8.937 3.168,8.882C3.191,8.859 3.234,8.851 3.253,8.828C3.707,8.539 4.039,8.054 4.147,7.484C4.199,7.195 4.242,6.882 4.31,6.593C4.242,6.882 4.199,7.195 4.147,7.484C4.242,6.961 4.328,6.422 4.414,5.882C4.629,4.656 4.824,3.414 4.983,2.125C5.125,0.976 4.328,-0.078 3.168,-0.196L1.448,-0.391C1.34,-0.399 1.234,-0.391 1.125,-0.391C1.16,-0.391 1.191,-0.399 1.223,-0.399C1.297,-0.399 1.363,-0.391 1.448,-0.391C1.363,-0.391 1.297,-0.399 1.223,-0.399C1.191,-0.399 1.16,-0.391 1.125,-0.391C1.062,-0.391 0.996,-0.391 0.945,-0.368C0.879,-0.368 0.815,-0.352 0.749,-0.352C0.687,-0.328 0.62,-0.305 0.56,-0.282C0.503,-0.266 0.461,-0.243 0.406,-0.219C0.344,-0.196 0.267,-0.165 0.202,-0.133C0.172,-0.11 0.136,-0.078 0.094,-0.047C0.031,-0.008 -0.035,0.039 -0.099,0.078C-0.13,0.101 -0.165,0.148 -0.185,0.164C-0.251,0.234 -0.313,0.289 -0.355,0.343C-0.387,0.382 -0.422,0.429 -0.44,0.46C-0.483,0.523 -0.527,0.578 -0.57,0.648C-0.605,0.703 -0.625,0.773 -0.647,0.812C-0.681,0.875 -0.699,0.929 -0.723,0.992C-0.766,1.117 -0.786,1.234 -0.809,1.351L-0.809,1.375C-1.035,3.101 -1.301,4.789 -1.602,6.398C-1.798,7.5 -1.086,8.547 0,8.773" style="fill:rgb(91,123,162);fill-rule:nonzero;"/>
        </g>
        <g transform="matrix(1,0,0,1,967.546,7079.32)">
            <path d="M0,-0.281C0.087,-0.195 0.173,-0.094 0.234,0C0.173,-0.109 0.087,-0.195 0,-0.281" style="fill:rgb(91,123,162);fill-rule:nonzero;"/>
        </g>
        <g transform="matrix(1,0,0,1,967.204,7079.01)">
            <path d="M0,-0.258C0.061,-0.211 0.104,-0.156 0.158,-0.117C0.214,-0.086 0.275,-0.054 0.319,0C0.214,-0.094 0.104,-0.179 0,-0.258" style="fill:rgb(91,123,162);fill-rule:nonzero;"/>
        </g>
        <g transform="matrix(1,0,0,1,965.761,7086.9)">
            <path d="M0,-0.016C-0.011,-0.016 -0.019,-0.016 -0.019,0C-0.019,-0.016 -0.011,-0.016 0,-0.016" style="fill:rgb(91,123,162);fill-rule:nonzero;"/>
        </g>
        <g transform="matrix(1,0,0,1,962.539,7078.98)">
            <path d="M0,0.148C0.02,0.109 0.042,0.062 0.062,0.007L0.073,0C0.042,0.054 0.02,0.109 0,0.148" style="fill:rgb(91,123,162);fill-rule:nonzero;"/>
        </g>
        <g transform="matrix(1,0,0,1,960.656,7080.03)">
            <path d="M0,5.156C0.012,5.187 0.012,5.211 0.012,5.242C0.035,5.336 0.055,5.445 0.098,5.555C0.312,6.195 0.828,6.711 1.538,6.906L3.215,7.328L3.227,7.328L3.215,7.328C3.387,7.359 3.535,7.383 3.688,7.383L3.965,7.383C3.988,7.367 4.007,7.367 4.031,7.367L4.02,7.367C4.269,7.336 4.505,7.25 4.73,7.133C4.719,7.133 4.719,7.14 4.719,7.14C4.719,7.14 4.719,7.133 4.73,7.133C4.741,7.125 4.741,7.125 4.762,7.109C4.848,7.055 4.934,6.992 5.02,6.93C5.02,6.93 5.02,6.937 5.007,6.937C5.02,6.937 5.02,6.93 5.02,6.93C5.043,6.906 5.062,6.898 5.086,6.875C5.148,6.82 5.215,6.758 5.277,6.672C5.301,6.648 5.32,6.625 5.344,6.601C5.405,6.531 5.449,6.453 5.491,6.367C5.516,6.343 5.535,6.312 5.548,6.281C5.558,6.25 5.578,6.211 5.602,6.172C5.578,6.211 5.558,6.25 5.548,6.281C5.602,6.172 5.645,6.07 5.687,5.953L5.687,5.937C5.781,5.617 5.89,5.312 5.988,4.992C6.104,4.625 6.234,4.265 6.352,3.883C6.266,4.156 6.18,4.414 6.094,4.672C6.18,4.398 6.277,4.133 6.363,3.867C6.363,3.867 6.363,3.875 6.352,3.883C6.461,3.594 6.548,3.32 6.645,3.039C6.848,2.453 7.062,1.875 7.298,1.32C7.308,1.273 7.32,1.234 7.341,1.203C7.555,0.664 7.523,0.094 7.298,-0.399C7.255,-0.485 7.19,-0.594 7.136,-0.68C7.062,-0.789 6.977,-0.899 6.89,-0.985C6.836,-1.039 6.772,-1.086 6.706,-1.133C6.652,-1.188 6.602,-1.242 6.535,-1.281C6.523,-1.281 6.516,-1.297 6.505,-1.305L6.48,-1.305C6.363,-1.383 6.246,-1.43 6.117,-1.485L4.484,-2.078C4.398,-2.102 4.289,-2.125 4.202,-2.141C4.16,-2.156 4.13,-2.164 4.094,-2.164C4.086,-2.172 4.073,-2.164 4.073,-2.164C3.675,-2.227 3.277,-2.164 2.925,-1.992C2.902,-1.985 2.883,-1.969 2.858,-1.961C2.828,-1.938 2.785,-1.93 2.741,-1.906C2.762,-1.914 2.798,-1.914 2.828,-1.93C2.505,-1.758 2.227,-1.516 2.031,-1.195C2.012,-1.156 1.988,-1.11 1.969,-1.07C1.969,-1.07 1.969,-1.055 1.956,-1.047L1.945,-1.039C1.925,-0.985 1.902,-0.938 1.883,-0.899C1.883,-0.875 1.87,-0.875 1.87,-0.875C1.195,0.82 0.594,2.555 0.078,4.328C0.066,4.328 0.066,4.328 0.066,4.351C0.035,4.476 0,4.609 -0.009,4.734L-0.009,4.82C-0.009,4.93 -0.009,5.039 0,5.156" style="fill:rgb(91,123,162);fill-rule:nonzero;"/>
        </g>
        <g transform="matrix(1,0,0,1,965.46,7087.14)">
            <path d="M0,-0.031C-0.019,-0.008 -0.031,-0.008 -0.042,0C-0.031,-0.008 -0.019,-0.008 0,-0.031" style="fill:rgb(91,123,162);fill-rule:nonzero;"/>
        </g>
        <g transform="matrix(1,0,0,1,960.238,7117.63)">
            <path d="M0,0.898C-0.013,0.882 -0.013,0.882 -0.024,0.859C-0.086,0.579 -0.152,0.289 -0.215,0C-0.152,0.296 -0.075,0.601 0,0.898" style="fill:rgb(91,123,162);fill-rule:nonzero;"/>
        </g>
        <g transform="matrix(1,0,0,1,963.086,7114.81)">
            <path d="M0,9.633L0.14,9.633L0.128,9.633L0.258,9.633L0.14,9.633L0.411,9.633C0.547,9.61 0.675,9.586 0.805,9.547L0.816,9.547L2.484,9.055C3.535,8.727 4.161,7.61 3.868,6.547C3.406,4.906 3.007,3.258 2.656,1.617C2.633,1.5 2.59,1.375 2.547,1.275C2.59,1.375 2.633,1.485 2.656,1.602C2.633,1.485 2.59,1.375 2.547,1.258L2.547,1.275L2.547,1.242C2.526,1.195 2.493,1.156 2.473,1.11L2.46,1.102C2.44,1.047 2.406,0.992 2.374,0.945C2.374,0.93 2.355,0.906 2.355,0.9C2.312,0.844 2.276,0.813 2.245,0.766C2.245,0.758 2.234,0.758 2.227,0.758C2.203,0.719 2.184,0.688 2.161,0.672C2.14,0.65 2.118,0.625 2.098,0.594C2.062,0.563 2.02,0.539 1.988,0.5C1.957,0.477 1.926,0.453 1.902,0.43C1.839,0.391 1.761,0.336 1.687,0.289C1.664,0.281 1.621,0.258 1.59,0.242C1.535,0.219 1.493,0.195 1.45,0.172C1.429,0.156 1.387,0.156 1.363,0.141L1.374,0.141C1.32,0.133 1.276,0.11 1.234,0.11L1.258,0.11C1.215,0.086 1.172,0.086 1.14,0.07C1.118,0.07 1.105,0.055 1.086,0.047L1.02,0.047L1.031,0.047C0.969,0.031 0.891,0.025 0.827,0.025L0.871,0.025C0.816,0.025 0.761,0.016 0.719,0.016C0.719,0.016 0.7,0 0.687,0L0.656,0L0.668,0C0.547,0 0.418,0.025 0.289,0.047L-1.43,0.367C-2.566,0.57 -3.3,1.688 -3.063,2.821C-3,3.11 -2.934,3.4 -2.872,3.68C-2.848,3.735 -2.836,3.789 -2.828,3.836C-2.505,5.266 -2.161,6.688 -1.773,8.117C-1.602,8.688 -1.215,9.141 -0.73,9.4C-0.742,9.4 -0.755,9.4 -0.762,9.383C-0.719,9.414 -0.668,9.414 -0.613,9.438C-0.547,9.485 -0.474,9.516 -0.398,9.547C-0.375,9.547 -0.356,9.547 -0.332,9.555L-0.332,9.547C-0.29,9.571 -0.228,9.578 -0.184,9.586C-0.117,9.602 -0.056,9.625 0,9.633" style="fill:rgb(91,123,162);fill-rule:nonzero;"/>
        </g>
        <g transform="matrix(1,0,0,1,965.32,7115.48)">
            <path d="M0,0.086C-0.031,0.063 -0.051,0.016 -0.073,0C-0.051,0.016 -0.031,0.063 -0.008,0.086L0,0.086Z" style="fill:rgb(91,123,162);fill-rule:nonzero;"/>
        </g>
        <g transform="matrix(1,0,0,1,969.738,7050.59)">
            <path d="M0,-9.289C-1.129,-9.257 -2.02,-8.32 -2,-7.203C-1.978,-6.336 -1.978,-5.461 -1.978,-4.625C-1.978,-3.766 -1.978,-2.906 -2,-2.055C-2.02,-0.969 -1.184,-0.086 -0.117,0.016L0,0.016L-0.105,0.016L-0.013,0.016L1.719,0.086C1.828,0.086 1.934,0.07 2.042,0.063C1.956,0.063 1.871,0.086 1.798,0.086C1.871,0.086 1.956,0.063 2.042,0.063C2.086,0.063 2.129,0.063 2.159,0.055C2.276,0.031 2.387,-0 2.491,-0.047L2.526,-0.047C2.526,-0.047 2.535,-0.055 2.535,-0.07C2.655,-0.109 2.75,-0.164 2.858,-0.219C2.871,-0.242 2.879,-0.242 2.89,-0.242C2.902,-0.25 2.914,-0.25 2.923,-0.257L2.934,-0.257C3.031,-0.328 3.129,-0.398 3.216,-0.484C3.129,-0.398 3.031,-0.336 2.934,-0.273C3.051,-0.344 3.159,-0.43 3.246,-0.539C3.246,-0.516 3.222,-0.5 3.216,-0.484C3.222,-0.5 3.246,-0.516 3.266,-0.539C3.332,-0.625 3.418,-0.703 3.473,-0.789C3.522,-0.859 3.566,-0.945 3.608,-1.031C3.633,-1.07 3.652,-1.101 3.675,-1.141C3.707,-1.226 3.738,-1.312 3.762,-1.398C3.773,-1.445 3.792,-1.484 3.805,-1.531C3.823,-1.632 3.836,-1.766 3.848,-1.875L3.848,-1.937C3.867,-2.82 3.867,-3.719 3.867,-4.625C3.867,-5.507 3.867,-6.406 3.848,-7.312C3.823,-8.461 2.879,-9.375 1.741,-9.328L0,-9.289Z" style="fill:rgb(91,123,162);fill-rule:nonzero;"/>
        </g>
        <g transform="matrix(1,0,0,1,972.286,7050.35)">
            <path d="M0,0.172C0.116,0.133 0.226,0.07 0.331,0C0.331,0 0.311,0.016 0.311,0.024C0.202,0.078 0.107,0.133 0,0.172" style="fill:rgb(91,123,162);fill-rule:nonzero;"/>
        </g>
        <g transform="matrix(1,0,0,1,972.661,7050.35)">
            <path d="M0,-0.015C-0.009,-0.008 -0.021,-0.008 -0.033,0L-0.044,0C-0.033,0 -0.021,-0.008 0,-0.015" style="fill:rgb(91,123,162);fill-rule:nonzero;"/>
        </g>
        <g transform="matrix(1,0,0,1,972.617,7050.37)">
            <path d="M0,-0.023L0.011,-0.023C0,-0.023 -0.008,-0.023 -0.021,0C-0.021,-0.007 0,-0.023 0,-0.023" style="fill:rgb(91,123,162);fill-rule:nonzero;"/>
        </g>
        <g transform="matrix(1,0,0,1,972.273,7050.52)">
            <path d="M0,0.016C0,0 0.013,0 0.013,0L0,0L0,0.016Z" style="fill:rgb(91,123,162);fill-rule:nonzero;"/>
        </g>
        <g transform="matrix(1,0,0,1,964.387,7087.41)">
            <path d="M0,0.008C0.073,0.008 0.14,0 0.203,0L-0.043,0C-0.024,0 -0.012,0.008 0,0.008" style="fill:rgb(91,123,162);fill-rule:nonzero;"/>
        </g>
        <g transform="matrix(1,0,0,1,963.375,7114.81)">
            <path d="M0,0.047C0.122,0.025 0.25,0 0.367,0C0.237,0 0.122,0.025 0,0.047" style="fill:rgb(91,123,162);fill-rule:nonzero;"/>
        </g>
    </g>
</svg>
