<?xml version="1.0" encoding="UTF-8" standalone="no"?>
<!DOCTYPE svg PUBLIC "-//W3C//DTD SVG 1.1//EN" "http://www.w3.org/Graphics/SVG/1.1/DTD/svg11.dtd">
<svg width="100%" height="100%" viewBox="0 0 214 180" version="1.1" xmlns="http://www.w3.org/2000/svg" xmlns:xlink="http://www.w3.org/1999/xlink" xml:space="preserve" xmlns:serif="http://www.serif.com/" style="fill-rule:evenodd;clip-rule:evenodd;stroke-linejoin:round;stroke-miterlimit:2;">
    <g id="_7" serif:id="7" transform="matrix(1,0,0,1,-512.759,-4431.68)">
        <g transform="matrix(1,0,0,1,601.038,4468.38)">
            <path d="M0,120.245C-4.453,120.245 -8.506,117.234 -9.641,112.72L-18.301,78.276L-36.924,78.276C-42.418,78.276 -46.872,73.823 -46.872,68.328L-46.872,10.733C-46.872,6.705 -44.443,3.075 -40.721,1.537C-36.998,0 -32.716,0.859 -29.873,3.713L0.114,33.83C3.991,37.724 3.978,44.022 0.084,47.899C-3.81,51.776 -10.109,51.763 -13.985,47.87L-26.975,34.824L-26.975,58.38L-10.543,58.38C-5.984,58.38 -2.008,61.479 -0.896,65.902L9.656,107.868C10.996,113.196 7.762,118.602 2.434,119.942C1.619,120.147 0.803,120.245 0,120.245" style="fill:rgb(91,123,162);fill-rule:nonzero;"/>
        </g>
        <g transform="matrix(0,-1,-1,0,566.788,4441.4)">
            <path d="M-12.621,-12.621C-19.593,-12.621 -25.243,-6.97 -25.243,-0.001C-25.243,6.972 -19.593,12.621 -12.621,12.621C-5.65,12.621 -0.001,6.972 -0.001,-0.001C-0.001,-6.97 -5.65,-12.621 -12.621,-12.621" style="fill:rgb(91,123,162);fill-rule:nonzero;"/>
        </g>
        <g transform="matrix(1,0,0,1,575.745,4532.93)">
            <path d="M0,16.487L-24.807,16.487L-24.807,-48.903C-24.807,-50.409 -26.026,-51.628 -27.531,-51.628C-29.037,-51.628 -30.257,-50.409 -30.257,-48.903L-30.257,68.115L-24.807,68.115L-24.807,23.949L0,23.949C2.764,23.949 5.012,27.027 5.012,30.811L5.012,68.115L10.462,68.115L10.462,30.811C10.462,22.913 5.768,16.487 0,16.487" style="fill:rgb(91,123,162);fill-rule:nonzero;"/>
        </g>
        <g transform="matrix(1,0,0,1,692.512,4601.05)">
            <path d="M0,-80.425L-97.866,-80.425L-97.866,-75.016L-52.756,-75.016L-52.756,0L-45.11,0L-45.11,-75.016L0,-75.016L0,-80.425Z" style="fill:rgb(91,123,162);fill-rule:nonzero;"/>
        </g>
        <g transform="matrix(-1,0,0,1,1254.62,1439.93)">
            <rect x="606.269" y="3073.19" width="42.078" height="4.682" style="fill:rgb(91,123,162);"/>
        </g>
        <g transform="matrix(-0.418351,0.908285,0.908285,0.418351,664.994,4514.6)">
            <rect x="-31.966" y="-20.47" width="42.077" height="4.681" style="fill:rgb(91,123,162);"/>
        </g>
    </g>
</svg>
