<?xml version="1.0" encoding="UTF-8" standalone="no"?>
<!DOCTYPE svg PUBLIC "-//W3C//DTD SVG 1.1//EN" "http://www.w3.org/Graphics/SVG/1.1/DTD/svg11.dtd">
<svg width="100%" height="100%" viewBox="0 0 214 180" version="1.1" xmlns="http://www.w3.org/2000/svg" xmlns:xlink="http://www.w3.org/1999/xlink" xml:space="preserve" xmlns:serif="http://www.serif.com/" style="fill-rule:evenodd;clip-rule:evenodd;stroke-linejoin:round;stroke-miterlimit:2;">
    <g id="_1" serif:id="1" transform="matrix(1.1,0,0,1.1,-546.826,-2606.83)">
        <g transform="matrix(1,0,0,1,543.135,2424.29)">
            <path d="M0,8.286L101.648,8.286C102.37,8.286 102.954,8.869 102.954,9.591C102.954,10.311 102.37,10.895 101.648,10.895L0,10.895C-0.722,10.895 -1.306,10.311 -1.306,9.591C-1.306,8.869 -0.722,8.286 0,8.286M0,-1.536L101.648,-1.536C102.37,-1.536 102.954,-0.951 102.954,-0.232C102.954,0.491 102.37,1.073 101.648,1.073L0,1.073C-0.722,1.073 -1.306,0.491 -1.306,-0.232C-1.306,-0.951 -0.722,-1.536 0,-1.536M-2.042,18.107L103.691,18.107C106.247,18.107 108.327,16.028 108.327,13.471L108.327,-9.821L-6.678,-9.821L-6.678,13.471C-6.678,16.028 -4.597,18.107 -2.042,18.107" style="fill:rgb(91,123,162);fill-rule:nonzero;"/>
        </g>
        <g transform="matrix(1,0,0,1,660.125,2470.96)">
            <path d="M0,-56.488L-6.053,-56.488L-6.053,-33.196C-6.053,-29.2 -9.303,-25.95 -13.299,-25.95L-119.032,-25.95C-123.028,-25.95 -126.278,-29.2 -126.278,-33.196L-126.278,-56.488L-131.475,-56.488C-134.5,-56.488 -136.962,-54.025 -136.962,-51L-136.962,-17.161C-136.962,-12.474 -135.399,-8.016 -132.557,-4.609C-130.224,-1.808 -127.168,0 -124.771,0L-120.345,0C-123.587,-2.698 -125.987,-7.54 -125.987,-14.768C-125.987,-15.489 -125.402,-16.073 -124.683,-16.073L-6.824,-16.073C-6.104,-16.073 -5.52,-15.489 -5.52,-14.768C-5.52,-9.375 -6.852,-4.875 -9.37,-1.756C-9.9,-1.099 -10.479,-0.515 -11.092,0L-6.703,0C-1.864,0 5.454,-6.843 5.454,-17.161C5.454,-24.901 5.485,-50.741 5.487,-51.002C5.487,-54.025 3.025,-56.488 0,-56.488" style="fill:rgb(91,123,162);fill-rule:nonzero;"/>
        </g>
        <g transform="matrix(-0.1269,0.991916,0.991916,0.1269,608.358,2407.95)">
            <path d="M58.226,-64.715C67.334,-63.119 70.898,-57.675 70.313,-53.102L58.226,41.377C57.623,46.09 52.873,50.316 43.609,49.543L58.226,-64.715Z" style="fill:rgb(91,123,162);fill-rule:nonzero;"/>
        </g>
        <g transform="matrix(1,0,0,1,553.834,2505.23)">
            <path d="M0,-27.016C0,-27.016 0.343,-26.671 0.865,-26.034C0.997,-25.874 1.121,-25.675 1.266,-25.464C1.408,-25.251 1.563,-25.014 1.71,-24.755C1.854,-24.496 1.99,-24.211 2.144,-23.911C2.227,-23.763 2.278,-23.597 2.346,-23.433C2.408,-23.265 2.475,-23.094 2.541,-22.919C2.615,-22.745 2.663,-22.558 2.712,-22.367C2.767,-22.175 2.815,-21.979 2.865,-21.779C2.922,-21.578 2.939,-21.366 2.976,-21.154C3.007,-20.939 3.049,-20.72 3.062,-20.496C3.137,-19.599 3.087,-18.626 2.904,-17.648C2.715,-16.672 2.38,-15.716 1.989,-14.828C1.597,-13.937 1.15,-13.117 0.739,-12.357C0.324,-11.599 -0.056,-10.9 -0.339,-10.238C-0.627,-9.577 -0.832,-8.951 -0.959,-8.31C-1.038,-7.993 -1.054,-7.666 -1.103,-7.343C-1.105,-7.179 -1.109,-7.014 -1.12,-6.85C-1.122,-6.769 -1.129,-6.686 -1.129,-6.604C-1.125,-6.523 -1.122,-6.439 -1.118,-6.357C-1.112,-6.192 -1.105,-6.028 -1.104,-5.864C-1.092,-5.699 -1.067,-5.537 -1.054,-5.373C-1.038,-5.211 -1.025,-5.05 -1.005,-4.89C-0.979,-4.729 -0.951,-4.574 -0.93,-4.416C-0.906,-4.259 -0.884,-4.104 -0.861,-3.953C-0.834,-3.802 -0.795,-3.657 -0.769,-3.509C-0.711,-3.217 -0.658,-2.937 -0.601,-2.671C-0.468,-2.146 -0.377,-1.663 -0.278,-1.272C-0.08,-0.489 0,0 0,0C0,0 -0.396,-0.273 -1.029,-0.824C-1.195,-0.956 -1.351,-1.123 -1.529,-1.303C-1.709,-1.481 -1.892,-1.683 -2.094,-1.898C-2.293,-2.115 -2.473,-2.37 -2.682,-2.63C-2.785,-2.761 -2.888,-2.898 -2.989,-3.042C-3.082,-3.192 -3.18,-3.344 -3.278,-3.501C-3.38,-3.658 -3.476,-3.822 -3.576,-3.99C-3.673,-4.159 -3.755,-4.343 -3.846,-4.527C-3.937,-4.712 -4.026,-4.902 -4.111,-5.098C-4.188,-5.301 -4.26,-5.509 -4.334,-5.722C-4.371,-5.828 -4.407,-5.935 -4.445,-6.044C-4.477,-6.154 -4.502,-6.269 -4.529,-6.384C-4.587,-6.614 -4.64,-6.847 -4.689,-7.085C-4.753,-7.571 -4.826,-8.075 -4.813,-8.596C-4.821,-9.634 -4.635,-10.722 -4.304,-11.716C-3.976,-12.717 -3.524,-13.618 -3.081,-14.437C-2.633,-15.255 -2.188,-15.993 -1.8,-16.692C-1.412,-17.39 -1.073,-18.045 -0.805,-18.693C-0.548,-19.34 -0.344,-19.984 -0.201,-20.628C-0.159,-20.79 -0.146,-20.953 -0.113,-21.115C-0.089,-21.276 -0.046,-21.434 -0.034,-21.594C-0.01,-21.916 0.05,-22.232 0.06,-22.542C0.074,-22.854 0.097,-23.156 0.101,-23.45C0.103,-23.744 0.094,-24.024 0.103,-24.295C0.086,-24.841 0.07,-25.317 0.059,-25.709C-0.01,-26.529 0,-27.016 0,-27.016" style="fill:rgb(91,123,162);fill-rule:nonzero;"/>
        </g>
        <g transform="matrix(1,0,0,1,581.431,2505.23)">
            <path d="M0,-27.016C0,-27.016 0.347,-26.671 0.865,-26.034C0.998,-25.874 1.122,-25.675 1.268,-25.464C1.41,-25.251 1.566,-25.014 1.711,-24.755C1.855,-24.496 1.993,-24.211 2.146,-23.911C2.23,-23.763 2.28,-23.597 2.348,-23.433C2.411,-23.265 2.477,-23.094 2.544,-22.919C2.615,-22.745 2.664,-22.558 2.715,-22.367C2.769,-22.175 2.816,-21.979 2.868,-21.779C2.924,-21.578 2.942,-21.366 2.98,-21.154C3.009,-20.939 3.052,-20.72 3.064,-20.496C3.139,-19.599 3.09,-18.626 2.906,-17.648C2.715,-16.672 2.383,-15.716 1.991,-14.828C1.599,-13.937 1.153,-13.117 0.741,-12.357C0.327,-11.599 -0.053,-10.9 -0.338,-10.238C-0.624,-9.577 -0.831,-8.951 -0.957,-8.31C-1.037,-7.993 -1.052,-7.666 -1.1,-7.343C-1.104,-7.179 -1.107,-7.014 -1.117,-6.85C-1.121,-6.769 -1.127,-6.686 -1.127,-6.604C-1.123,-6.523 -1.119,-6.439 -1.117,-6.357C-1.11,-6.192 -1.104,-6.028 -1.102,-5.864C-1.089,-5.699 -1.066,-5.537 -1.052,-5.373C-1.034,-5.211 -1.022,-5.05 -1.003,-4.89C-0.977,-4.729 -0.948,-4.574 -0.927,-4.416C-0.904,-4.259 -0.882,-4.104 -0.859,-3.953C-0.831,-3.802 -0.792,-3.657 -0.768,-3.509C-0.708,-3.217 -0.656,-2.937 -0.599,-2.671C-0.467,-2.146 -0.375,-1.663 -0.276,-1.272C-0.077,-0.489 0,0 0,0C0,0 -0.395,-0.273 -1.026,-0.824C-1.192,-0.956 -1.349,-1.123 -1.526,-1.303C-1.707,-1.481 -1.889,-1.683 -2.092,-1.898C-2.291,-2.115 -2.471,-2.37 -2.679,-2.63C-2.783,-2.761 -2.885,-2.898 -2.985,-3.042C-3.08,-3.192 -3.177,-3.344 -3.276,-3.501C-3.378,-3.658 -3.474,-3.822 -3.575,-3.99C-3.671,-4.159 -3.752,-4.343 -3.844,-4.527C-3.934,-4.712 -4.024,-4.902 -4.108,-5.098C-4.186,-5.301 -4.257,-5.509 -4.334,-5.722C-4.369,-5.828 -4.405,-5.935 -4.442,-6.044C-4.476,-6.154 -4.5,-6.269 -4.528,-6.384C-4.584,-6.614 -4.637,-6.847 -4.686,-7.085C-4.751,-7.571 -4.825,-8.075 -4.811,-8.596C-4.82,-9.634 -4.633,-10.722 -4.301,-11.716C-3.973,-12.717 -3.522,-13.618 -3.079,-14.437C-2.631,-15.255 -2.184,-15.993 -1.797,-16.692C-1.409,-17.39 -1.069,-18.045 -0.804,-18.693C-0.546,-19.34 -0.342,-19.984 -0.199,-20.628C-0.157,-20.79 -0.143,-20.953 -0.11,-21.115C-0.087,-21.276 -0.044,-21.434 -0.031,-21.594C-0.007,-21.916 0.052,-22.232 0.062,-22.542C0.075,-22.854 0.099,-23.156 0.103,-23.45C0.105,-23.744 0.096,-24.024 0.105,-24.295C0.087,-24.841 0.073,-25.317 0.062,-25.709C-0.007,-26.529 0.002,-27.016 0,-27.016" style="fill:rgb(91,123,162);fill-rule:nonzero;"/>
        </g>
        <g transform="matrix(1,0,0,1,609.03,2505.23)">
            <path d="M0,-27.016C0,-27.016 0.346,-26.671 0.866,-26.034C0.999,-25.874 1.122,-25.675 1.266,-25.464C1.409,-25.251 1.565,-25.014 1.712,-24.755C1.854,-24.496 1.991,-24.211 2.146,-23.911C2.229,-23.763 2.279,-23.597 2.346,-23.433C2.409,-23.265 2.476,-23.094 2.542,-22.919C2.615,-22.745 2.663,-22.558 2.715,-22.367C2.768,-22.175 2.816,-21.979 2.867,-21.779C2.924,-21.578 2.94,-21.366 2.979,-21.154C3.009,-20.939 3.051,-20.72 3.063,-20.496C3.139,-19.599 3.09,-18.626 2.905,-17.648C2.717,-16.672 2.383,-15.716 1.99,-14.828C1.598,-13.937 1.152,-13.117 0.741,-12.357C0.326,-11.599 -0.054,-10.9 -0.339,-10.238C-0.626,-9.577 -0.831,-8.951 -0.958,-8.31C-1.037,-7.993 -1.053,-7.666 -1.102,-7.343C-1.105,-7.179 -1.108,-7.014 -1.117,-6.85C-1.119,-6.769 -1.128,-6.686 -1.128,-6.604C-1.124,-6.523 -1.119,-6.439 -1.117,-6.357C-1.11,-6.192 -1.105,-6.028 -1.103,-5.864C-1.091,-5.699 -1.066,-5.537 -1.053,-5.373C-1.035,-5.211 -1.024,-5.05 -1.005,-4.89C-0.979,-4.729 -0.949,-4.574 -0.928,-4.416C-0.904,-4.259 -0.883,-4.104 -0.86,-3.953C-0.832,-3.802 -0.794,-3.657 -0.768,-3.509C-0.709,-3.217 -0.657,-2.937 -0.6,-2.671C-0.467,-2.146 -0.376,-1.663 -0.277,-1.272C-0.079,-0.489 0,0 0,0C0,0 -0.396,-0.273 -1.028,-0.824C-1.193,-0.956 -1.35,-1.123 -1.527,-1.303C-1.708,-1.481 -1.89,-1.683 -2.093,-1.898C-2.292,-2.115 -2.472,-2.37 -2.68,-2.63C-2.783,-2.761 -2.886,-2.898 -2.986,-3.042C-3.081,-3.192 -3.179,-3.344 -3.277,-3.501C-3.378,-3.658 -3.474,-3.822 -3.575,-3.99C-3.672,-4.159 -3.753,-4.343 -3.845,-4.527C-3.935,-4.712 -4.024,-4.902 -4.109,-5.098C-4.187,-5.301 -4.259,-5.509 -4.334,-5.722C-4.369,-5.828 -4.406,-5.935 -4.444,-6.044C-4.476,-6.154 -4.5,-6.269 -4.528,-6.384C-4.585,-6.614 -4.638,-6.847 -4.687,-7.085C-4.752,-7.571 -4.825,-8.075 -4.812,-8.596C-4.819,-9.634 -4.634,-10.722 -4.302,-11.716C-3.974,-12.717 -3.523,-13.618 -3.08,-14.437C-2.633,-15.255 -2.186,-15.993 -1.798,-16.692C-1.41,-17.39 -1.07,-18.045 -0.805,-18.693C-0.546,-19.34 -0.343,-19.984 -0.201,-20.628C-0.157,-20.79 -0.146,-20.953 -0.111,-21.115C-0.088,-21.276 -0.045,-21.434 -0.033,-21.594C-0.008,-21.916 0.052,-22.232 0.062,-22.542C0.075,-22.854 0.098,-23.156 0.103,-23.45C0.103,-23.744 0.096,-24.024 0.104,-24.295C0.087,-24.841 0.072,-25.317 0.061,-25.709C-0.007,-26.529 0,-27.016 0,-27.016" style="fill:rgb(91,123,162);fill-rule:nonzero;"/>
        </g>
        <g transform="matrix(1,0,0,1,636.63,2505.23)">
            <path d="M0,-27.016C0,-27.016 0.345,-26.671 0.867,-26.034C0.998,-25.874 1.121,-25.675 1.267,-25.464C1.409,-25.251 1.564,-25.014 1.711,-24.755C1.854,-24.496 1.991,-24.211 2.145,-23.911C2.228,-23.763 2.279,-23.597 2.346,-23.433C2.409,-23.265 2.475,-23.094 2.542,-22.919C2.615,-22.745 2.662,-22.558 2.714,-22.367C2.767,-22.175 2.815,-21.979 2.867,-21.779C2.923,-21.578 2.94,-21.366 2.978,-21.154C3.009,-20.939 3.05,-20.72 3.063,-20.496C3.138,-19.599 3.088,-18.626 2.904,-17.648C2.715,-16.672 2.382,-15.716 1.99,-14.828C1.598,-13.937 1.15,-13.117 0.74,-12.357C0.325,-11.599 -0.055,-10.9 -0.339,-10.238C-0.627,-9.577 -0.832,-8.951 -0.96,-8.31C-1.037,-7.993 -1.051,-7.666 -1.102,-7.343C-1.105,-7.179 -1.108,-7.014 -1.118,-6.85C-1.121,-6.769 -1.129,-6.686 -1.128,-6.604C-1.124,-6.523 -1.121,-6.439 -1.118,-6.357C-1.112,-6.192 -1.104,-6.028 -1.104,-5.864C-1.091,-5.699 -1.066,-5.537 -1.054,-5.373C-1.037,-5.211 -1.024,-5.05 -1.005,-4.89C-0.979,-4.729 -0.95,-4.574 -0.929,-4.416C-0.905,-4.259 -0.883,-4.104 -0.86,-3.953C-0.834,-3.802 -0.794,-3.657 -0.769,-3.509C-0.71,-3.217 -0.658,-2.937 -0.6,-2.671C-0.467,-2.146 -0.376,-1.663 -0.278,-1.272C-0.079,-0.489 0,0 0,0C0,0 -0.396,-0.273 -1.028,-0.824C-1.194,-0.956 -1.35,-1.123 -1.528,-1.303C-1.708,-1.481 -1.89,-1.683 -2.092,-1.898C-2.292,-2.115 -2.472,-2.37 -2.681,-2.63C-2.785,-2.761 -2.885,-2.898 -2.986,-3.042C-3.082,-3.192 -3.179,-3.344 -3.278,-3.501C-3.379,-3.658 -3.475,-3.822 -3.576,-3.99C-3.673,-4.159 -3.754,-4.343 -3.844,-4.527C-3.936,-4.712 -4.026,-4.902 -4.11,-5.098C-4.187,-5.301 -4.259,-5.509 -4.334,-5.722C-4.37,-5.828 -4.407,-5.935 -4.444,-6.044C-4.477,-6.154 -4.502,-6.269 -4.53,-6.384C-4.586,-6.614 -4.639,-6.847 -4.688,-7.085C-4.752,-7.571 -4.826,-8.075 -4.813,-8.596C-4.82,-9.634 -4.633,-10.722 -4.301,-11.716C-3.974,-12.717 -3.524,-13.618 -3.081,-14.437C-2.633,-15.255 -2.188,-15.993 -1.799,-16.692C-1.411,-17.39 -1.071,-18.045 -0.805,-18.693C-0.547,-19.34 -0.344,-19.984 -0.201,-20.628C-0.158,-20.79 -0.146,-20.953 -0.112,-21.115C-0.088,-21.276 -0.046,-21.434 -0.033,-21.594C-0.009,-21.916 0.05,-22.232 0.061,-22.542C0.074,-22.854 0.099,-23.156 0.102,-23.45C0.103,-23.744 0.095,-24.024 0.103,-24.295C0.087,-24.841 0.071,-25.317 0.06,-25.709C-0.009,-26.529 0,-27.016 0,-27.016" style="fill:rgb(91,123,162);fill-rule:nonzero;"/>
        </g>
    </g>
</svg>
