<?xml version="1.0" encoding="UTF-8" standalone="no"?>
<!DOCTYPE svg PUBLIC "-//W3C//DTD SVG 1.1//EN" "http://www.w3.org/Graphics/SVG/1.1/DTD/svg11.dtd">
<svg width="100%" height="100%" viewBox="0 0 214 180" version="1.1" xmlns="http://www.w3.org/2000/svg" xmlns:xlink="http://www.w3.org/1999/xlink" xml:space="preserve" xmlns:serif="http://www.serif.com/" style="fill-rule:evenodd;clip-rule:evenodd;stroke-linejoin:round;stroke-miterlimit:2;">
    <g id="_9" serif:id="9" transform="matrix(1,0,0,1,-1246.74,-4436.76)">
        <g transform="matrix(1,0,0,1,1284.51,4493.38)">
            <path d="M0,32.099L72.781,66.105C77.686,68.396 83.456,67.848 87.842,64.672L135.276,30.333C135.301,30.314 135.327,30.294 135.353,30.277L137.958,28.391C137.972,28.381 137.985,28.372 138,28.362C140.413,26.696 141.825,24.736 141.775,23.121C141.726,21.516 140.281,20.056 138.735,18.946L92.244,52.72C89.666,54.584 86.344,54.781 83.566,53.236C80.792,51.689 79.211,48.759 79.44,45.591C79.613,43.204 80.824,41.031 82.762,39.628L123.75,9.954C124.756,9.226 126.161,9.452 126.89,10.457C127.617,11.462 127.393,12.869 126.388,13.597L85.398,43.27C84.538,43.893 84,44.857 83.925,45.915C83.821,47.343 84.506,48.612 85.756,49.307C87.006,50.004 88.444,49.919 89.604,49.08L137.306,14.427C139.293,12.829 140.273,10.832 140.061,8.805C139.825,6.546 138.148,4.478 135.458,3.125L59.441,-34.401C56.714,-35.672 53.789,-36.297 50.878,-36.297C46.673,-36.297 42.494,-34.995 38.974,-32.444L-4.568,-0.923C-7.953,1.528 -10.453,5.06 -11.606,9.021C-11.642,9.138 -11.676,9.259 -11.71,9.379C-14.156,18.23 -9.845,27.499 -1.457,31.417L0,32.099Z" style="fill:rgb(91,123,162);fill-rule:nonzero;"/>
        </g>
        <g transform="matrix(1,0,0,1,1433.84,4573.39)">
            <path d="M0,-22.238C-0.049,-23.843 -1.492,-25.303 -3.039,-26.414L-49.531,7.36C-50.941,8.379 -52.559,8.909 -54.241,8.909C-54.436,8.909 -54.633,8.903 -54.827,8.889C-56.878,8.74 -58.856,7.782 -60.255,6.259C-61.759,4.622 -62.498,2.483 -62.334,0.231C-62.161,-2.157 -60.951,-4.33 -59.012,-5.732L-18.024,-35.407C-17.018,-36.134 -15.613,-35.91 -14.885,-34.903C-14.156,-33.898 -14.382,-32.492 -15.387,-31.765L-56.376,-2.09C-57.236,-1.467 -57.772,-0.504 -57.85,0.555C-57.942,1.84 -57.409,2.713 -56.943,3.218C-56.314,3.905 -55.423,4.338 -54.502,4.405C-53.68,4.463 -52.872,4.227 -52.171,3.719L-4.47,-30.931C-2.482,-32.531 -1.503,-34.527 -1.715,-36.555C-1.949,-38.814 -3.627,-40.883 -6.316,-42.236L-12.471,-45.273L-58.853,-11.697C-62.22,-9.258 -66.218,-8.009 -70.239,-8.009C-73.032,-8.009 -75.837,-8.611 -78.452,-9.833L-149.73,-43.136C-151.406,-41.144 -152.657,-38.822 -153.382,-36.339C-153.416,-36.224 -153.449,-36.109 -153.48,-35.992C-153.48,-35.992 -153.483,-35.986 -153.484,-35.981C-155.932,-27.13 -151.62,-17.861 -143.234,-13.942L-68.994,20.744C-64.089,23.035 -58.318,22.486 -53.932,19.312L-3.818,-16.969C-3.803,-16.979 -3.79,-16.989 -3.776,-16.999C-1.361,-18.666 0.049,-20.625 0,-22.238" style="fill:rgb(91,123,162);fill-rule:nonzero;"/>
        </g>
    </g>
</svg>
