<?xml version="1.0" encoding="UTF-8" standalone="no"?>
<!DOCTYPE svg PUBLIC "-//W3C//DTD SVG 1.1//EN" "http://www.w3.org/Graphics/SVG/1.1/DTD/svg11.dtd">
<svg width="100%" height="100%" viewBox="0 0 214 180" version="1.1" xmlns="http://www.w3.org/2000/svg" xmlns:xlink="http://www.w3.org/1999/xlink" xml:space="preserve" xmlns:serif="http://www.serif.com/" style="fill-rule:evenodd;clip-rule:evenodd;stroke-linejoin:round;stroke-miterlimit:2;">
    <g id="_11" serif:id="11" transform="matrix(1,0,0,1,-844.867,-4892.2)">
        <g transform="matrix(1,0,0,1,1024.36,4959.9)">
            <path d="M0,24.892C0,24.892 0.332,27.097 0.663,30.321C-0.967,30.856 -4.979,31.747 -10.088,30.029C-10.088,30.029 -7.031,35.353 1.135,36.946C1.44,44.13 1.007,52.271 -2.203,54.476C-8.151,58.514 -28.841,52.552 -29.812,52.271C-29.848,52.258 -29.886,52.361 -29.886,52.361L-30.384,53.558L-31.874,57.202L-41.187,79.89L-79.737,61.406C-79.737,61.406 -69.647,46.997 -71.024,41.48C-72.427,35.938 -86.526,27.301 -90.108,19.874C-93.7,12.458 -98.338,-3.504 -93.151,-15.198C-75.458,-54.998 -24.039,-44.768 -13.528,-28.461C-3.043,-12.155 -7.858,-6.382 -5.095,-0.026C-2.33,6.331 6.64,15.517 9.06,18.497C11.365,21.328 0,24.892 0,24.892" style="fill:rgb(91,123,162);fill-rule:nonzero;"/>
        </g>
        <g transform="matrix(1,0,0,1,964.316,4927.5)">
            <path d="M0,59.312C-1.592,57.777 -3.742,56.497 -4.85,55.201C-6.804,52.916 -8.202,50.146 -8.815,47.199C-9.153,45.577 -9.261,43.873 -8.811,42.28C-7.64,38.139 -2.843,35.828 1.436,36.279C5.058,36.662 8.352,38.589 11.093,40.899C12.972,42.482 16.15,45.746 18.384,42.763C19.728,40.967 19.431,38.465 18.975,36.268C18.158,32.327 17.294,27.626 15.347,24.064C13.938,21.494 11.057,19.113 15.293,16.792C17.203,15.746 19.497,15.829 21.673,15.722C29.513,15.337 36.916,12.181 44.123,9.076C45.845,8.333 47.692,7.476 48.558,5.814C49.042,4.881 49.153,3.798 49.141,2.747C49.071,-3.584 44.812,-9.327 39.395,-12.604C33.978,-15.881 27.548,-17.045 21.237,-17.555C9.302,-18.518 -1.849,-17.918 -12.41,-12.433C-22.019,-7.446 -30.421,-1.401 -35.982,8.152C-45.591,24.656 -43.367,47.898 -29.127,60.621C-26.231,63.208 -22.749,65.308 -20.189,68.25C-17.699,71.115 -16.658,77.83 -11.538,76.74C-10.189,76.453 -9.009,75.66 -7.911,74.824C-4.826,72.476 0.577,68.083 1.783,64.246C2.405,62.268 1.427,60.688 0,59.312" style="fill:rgb(91,123,162);fill-rule:nonzero;"/>
        </g>
        <g transform="matrix(0.691787,-0.722101,-0.722101,-0.691787,936.872,5056.5)">
            <path d="M12.713,20.211L37.949,20.211C37.949,20.211 41.278,-4.064 50.587,-19.323C50.587,-19.323 46.305,-25.476 40.25,-33.934C34.193,-42.391 7.78,11.506 12.713,20.211" style="fill:rgb(91,123,162);fill-rule:nonzero;"/>
        </g>
        <g transform="matrix(1,0,0,1,939.911,4965)">
            <path d="M0,46.666L-23.834,14.666L-23.666,26.666L-47.666,0L-17.416,42.666L-18.83,30.164L0,46.666Z" style="fill:rgb(91,123,162);fill-rule:nonzero;"/>
        </g>
        <g transform="matrix(1,0,0,1,928.829,4991.1)">
            <path d="M0,26.514L-33.012,4.102L-28.918,15.383L-60.337,-1.935L-17.766,28.449L-23.201,17.102L0,26.514Z" style="fill:rgb(91,123,162);fill-rule:nonzero;"/>
        </g>
    </g>
</svg>
