<?xml version="1.0" encoding="UTF-8" standalone="no"?>
<!DOCTYPE svg PUBLIC "-//W3C//DTD SVG 1.1//EN" "http://www.w3.org/Graphics/SVG/1.1/DTD/svg11.dtd">
<svg width="100%" height="100%" viewBox="0 0 214 180" version="1.1" xmlns="http://www.w3.org/2000/svg" xmlns:xlink="http://www.w3.org/1999/xlink" xml:space="preserve" xmlns:serif="http://www.serif.com/" style="fill-rule:evenodd;clip-rule:evenodd;stroke-linejoin:round;stroke-miterlimit:2;">
    <g id="_5" serif:id="5" transform="matrix(1,0,0,1,-857.997,-2821.79)">
        <g transform="matrix(1,0,0,1,964.17,2972.35)">
            <path d="M0,-71.506C2.937,-71.506 5.336,-72.605 7.493,-74.766C9.608,-76.881 10.715,-79.285 10.715,-82.506C10.715,-85.474 9.608,-87.873 7.493,-89.992C5.336,-92.151 2.937,-93.209 0,-93.209C-2.968,-93.209 -5.657,-92.151 -7.533,-89.992C-9.688,-87.873 -10.747,-85.474 -10.747,-82.506C-10.747,-79.285 -9.688,-76.881 -7.533,-74.766C-5.657,-72.605 -2.968,-71.506 0,-71.506M7.778,-68.858L34.254,-96.428C35.353,-97.526 36.7,-98.055 38.285,-98.055C39.624,-98.301 40.972,-97.767 42.313,-96.428C43.374,-95.367 43.905,-94.027 43.905,-92.438C43.905,-91.096 43.374,-89.751 42.313,-88.691L14.7,-59.985C14.7,-44.755 12.83,-27.04 15.806,-12.339C16.577,-9.36 17.391,-4.023 17.675,-0.81L19.021,17.147C19.266,20.894 17.142,24.925 14.458,25.984L13.894,26.268C13.359,26.514 12.83,26.514 12.3,26.514C10.142,26.514 8.272,24.114 7.778,20.894L5.87,-1.052C5.624,-4.023 4.81,-9.123 4.28,-12.055L2.651,-19.016L-2.438,-19.016L-10.993,21.712C-11.808,24.633 -13.964,26.795 -16.367,26.795C-16.652,26.795 -17.186,26.795 -17.708,26.514L-18.241,26.268C-19.585,25.984 -20.929,24.633 -21.454,23.051C-22.272,21.424 -22.272,19.301 -21.984,17.431C-13.681,-21.703 -14.494,-19.296 -14.494,-59.985L-42.349,-88.691C-43.407,-89.751 -43.977,-91.096 -43.696,-92.438C-43.696,-94.027 -43.162,-95.367 -42.063,-96.428C-41.009,-97.767 -39.661,-98.301 -38.316,-98.055C-36.728,-98.055 -35.384,-97.526 -34.325,-96.428L-7.533,-68.858L7.778,-68.858Z" style="fill:rgb(91,123,162);"/>
        </g>
        <g transform="matrix(1,0,0,1,0,-1870.99)">
            <rect x="1036" y="4725.5" width="7.323" height="10.984" style="fill:rgb(91,123,162);"/>
        </g>
        <g transform="matrix(1,0,0,1,1021.36,2861.8)">
            <path d="M0,-3.588C-0.118,-3.612 -0.239,-3.625 -0.365,-3.625L-113.873,-3.625C-113.999,-3.625 -114.121,-3.612 -114.237,-3.588L-114.237,-18.271L-125.224,-18.271L-125.224,14.683L-114.237,14.683L-114.237,-0C-114.121,0.023 -113.999,0.037 -113.873,0.037L-0.365,0.037C-0.239,0.037 -0.118,0.023 0,-0L0,14.683L10.985,14.683L10.985,-18.271L0,-18.271L0,-3.588Z" style="fill:rgb(91,123,162);fill-rule:nonzero;"/>
        </g>
        <g transform="matrix(1,0,0,1,0,-1870.99)">
            <rect x="885.149" y="4725.5" width="7.323" height="10.984" style="fill:rgb(91,123,162);"/>
        </g>
    </g>
</svg>
