<?xml version="1.0" encoding="UTF-8" standalone="no"?>
<!DOCTYPE svg PUBLIC "-//W3C//DTD SVG 1.1//EN" "http://www.w3.org/Graphics/SVG/1.1/DTD/svg11.dtd">
<svg width="100%" height="100%" viewBox="0 0 214 180" version="1.1" xmlns="http://www.w3.org/2000/svg" xmlns:xlink="http://www.w3.org/1999/xlink" xml:space="preserve" xmlns:serif="http://www.serif.com/" style="fill-rule:evenodd;clip-rule:evenodd;stroke-linejoin:round;stroke-miterlimit:2;">
    <g id="_-" serif:id=" " transform="matrix(1,0,0,1,-1233.44,-2827.82)">
        <g id="_-------" serif:id="       " transform="matrix(1,0,0,1,1394.66,2853.1)">
            <path d="M0,66.651C0,68.233 -1.293,69.524 -2.869,69.524L-107.078,69.524C-108.654,69.524 -109.949,68.233 -109.949,66.651L-109.949,0C-109.949,-1.579 -108.654,-2.87 -107.078,-2.87L-2.869,-2.87C-1.293,-2.87 0,-1.579 0,0L0,66.651ZM3.539,-7.324L-113.49,-7.324C-115.262,-7.324 -116.717,-5.874 -116.717,-4.101L-116.717,70.751C-116.717,72.528 -115.262,73.975 -113.49,73.975L3.539,73.975C5.312,73.975 6.766,72.528 6.766,70.751L6.766,-4.101C6.766,-5.874 5.312,-7.324 3.539,-7.324" style="fill:rgb(91,123,162);fill-rule:nonzero;"/>
        </g>
        <g transform="matrix(1,0,0,1,1405.63,2932.01)">
            <path d="M0,53.475L-131.885,53.475C-132.766,53.475 -133.479,52.764 -133.479,51.879C-133.479,50.998 -132.766,50.287 -131.885,50.287L0,50.287C0.881,50.287 1.594,50.998 1.594,51.879C1.594,52.764 0.881,53.475 0,53.475M-81.595,40.717L-50.293,40.717C-48.445,40.717 -46.955,42.213 -46.955,44.055C-46.955,45.896 -48.445,47.388 -50.293,47.388L-81.595,47.388C-83.436,47.388 -84.926,45.896 -84.926,44.055C-84.926,42.213 -83.436,40.717 -81.595,40.717M6.867,54.225L-3.676,-0.748C-3.967,-2.255 -5.455,-3.48 -6.986,-3.48L-124.904,-3.48C-126.434,-3.48 -127.92,-2.255 -128.211,-0.748L-138.752,54.225C-139.043,55.727 -138.025,56.955 -136.496,56.955L4.611,56.955C6.141,56.955 7.154,55.727 6.867,54.225" style="fill:rgb(91,123,162);fill-rule:nonzero;"/>
        </g>
    </g>
</svg>
