<?xml version="1.0" encoding="UTF-8" standalone="no"?>
<!DOCTYPE svg PUBLIC "-//W3C//DTD SVG 1.1//EN" "http://www.w3.org/Graphics/SVG/1.1/DTD/svg11.dtd">
<svg width="100%" height="100%" viewBox="0 0 214 180" version="1.1" xmlns="http://www.w3.org/2000/svg" xmlns:xlink="http://www.w3.org/1999/xlink" xml:space="preserve" xmlns:serif="http://www.serif.com/" style="fill-rule:evenodd;clip-rule:evenodd;stroke-linejoin:round;stroke-miterlimit:2;">
    <g id="_8" serif:id="8" transform="matrix(1,0,0,1,-866.222,-4434.25)">
        <g transform="matrix(1,0,0,1,1038.08,4466.33)">
            <path d="M0,36.74C10.021,26.719 7.987,8.568 -4.356,-3.775C-16.699,-16.118 -34.996,-18.151 -44.872,-8.277L-63.167,10.02L-18.151,54.891L0,36.74Z" style="fill:rgb(91,123,162);fill-rule:nonzero;"/>
        </g>
        <g transform="matrix(1,0,0,1,906.666,4581.05)">
            <path d="M0,-36.448C-9.874,-26.574 -7.696,-8.277 4.647,4.067C16.991,16.409 35.142,18.297 45.017,8.423L63.313,-9.728L18.442,-54.745L0,-36.448Z" style="fill:rgb(91,123,162);fill-rule:nonzero;"/>
        </g>
        <g transform="matrix(1,0,0,1,1031.99,4494.07)">
            <path d="M0,59.392C-1.889,61.28 -4.937,61.28 -6.971,59.392C-8.713,57.504 -8.713,54.455 -6.971,52.567C-4.937,50.534 -1.889,50.534 0,52.567C1.888,54.455 1.888,57.504 0,59.392M-10.165,69.556C-12.053,71.299 -15.102,71.299 -16.99,69.556C-18.878,67.524 -18.878,64.474 -16.99,62.586C-15.102,60.699 -12.053,60.699 -10.165,62.586C-8.277,64.474 -8.277,67.524 -10.165,69.556M-17.28,42.111C-15.393,40.224 -12.344,40.224 -10.311,42.111C-8.422,43.999 -8.422,47.048 -10.311,49.081C-12.344,50.824 -15.393,50.824 -17.28,49.081C-19.168,47.048 -19.168,43.999 -17.28,42.111M-20.185,79.577C-22.218,81.464 -25.268,81.464 -27.154,79.577C-29.043,77.689 -29.043,74.639 -27.154,72.751C-25.268,70.864 -22.218,70.864 -20.185,72.751C-18.297,74.639 -18.297,77.689 -20.185,79.577M-27.445,52.276C-25.412,50.388 -22.363,50.388 -20.475,52.276C-18.588,54.164 -18.588,57.213 -20.475,59.102C-22.363,60.989 -25.412,60.989 -27.445,59.102C-29.187,57.213 -29.187,54.164 -27.445,52.276M-30.35,89.742C-32.238,91.629 -35.287,91.629 -37.32,89.742C-39.063,87.854 -39.063,84.804 -37.32,82.771C-35.287,80.883 -32.238,80.883 -30.35,82.771C-28.462,84.804 -28.462,87.854 -30.35,89.742M-37.465,62.296C-35.577,60.408 -32.528,60.408 -30.641,62.296C-28.752,64.329 -28.752,67.378 -30.641,69.267C-32.528,71.154 -35.577,71.154 -37.465,69.267C-39.353,67.378 -39.353,64.329 -37.465,62.296M-40.66,79.431C-42.693,81.319 -45.742,81.319 -47.63,79.431C-49.518,77.398 -49.518,74.348 -47.63,72.461C-45.742,70.573 -42.693,70.573 -40.66,72.461C-38.773,74.348 -38.773,77.398 -40.66,79.431M-97.875,20.038C-98.745,19.168 -98.745,17.715 -97.875,16.699L-72.606,-8.713C-71.59,-9.585 -70.139,-9.585 -69.121,-8.713L-21.057,39.352C-20.185,40.224 -20.185,41.822 -21.057,42.692L-46.469,68.249C-47.34,69.121 -48.938,69.121 -49.809,68.249L-97.875,20.038ZM-57.939,68.976C-59.683,67.233 -59.828,64.474 -58.376,62.586L-51.406,69.412C-53.439,70.864 -56.197,70.718 -57.939,68.976M-68.395,58.665C-70.139,56.923 -70.139,54.019 -68.831,52.276L-61.861,58.956C-63.895,60.408 -66.652,60.408 -68.395,58.665M-78.705,48.21C-80.447,46.468 -80.594,43.708 -78.996,41.822L-72.316,48.646C-74.205,50.244 -76.817,49.954 -78.705,48.21M-89.016,37.9C-90.758,36.012 -91.049,33.398 -89.451,31.511L-82.627,38.191C-84.514,39.788 -87.273,39.643 -89.016,37.9M-99.471,27.59C-101.214,25.848 -101.214,22.944 -99.906,21.055C-99.615,21.201 -99.471,21.346 -99.471,21.636L-92.938,27.88C-94.824,29.332 -97.729,29.332 -99.471,27.59M-99.615,0.145C-97.729,-1.743 -94.679,-1.743 -92.791,0.145C-90.904,2.033 -90.904,5.082 -92.791,7.115C-94.679,8.858 -97.729,8.858 -99.615,7.115C-101.649,5.082 -101.649,2.033 -99.615,0.145M-99.906,-20.331C-98.019,-22.217 -94.824,-22.217 -93.082,-20.331C-91.193,-18.442 -91.193,-15.393 -93.082,-13.36C-94.824,-11.618 -98.019,-11.618 -99.906,-13.36C-101.794,-15.393 -101.794,-18.442 -99.906,-20.331M-102.956,17.135C-104.844,19.168 -107.894,19.168 -109.781,17.135C-111.669,15.247 -111.669,12.198 -109.781,10.31C-107.894,8.421 -104.844,8.421 -102.956,10.31C-100.924,12.198 -100.924,15.247 -102.956,17.135M-110.072,-10.166C-108.184,-12.052 -105.135,-12.052 -103.102,-10.166C-101.214,-8.278 -101.214,-5.228 -103.102,-3.34C-105.135,-1.453 -108.184,-1.453 -110.072,-3.34C-111.959,-5.228 -111.959,-8.278 -110.072,-10.166M-113.266,6.679C-115.154,8.712 -118.203,8.712 -120.236,6.679C-122.125,4.937 -122.125,1.742 -120.236,-0.145C-118.203,-2.034 -115.154,-2.034 -113.266,-0.145C-111.379,1.742 -111.379,4.937 -113.266,6.679M-82.627,-3.049C-84.658,-1.162 -87.709,-1.162 -89.597,-3.049C-91.484,-4.938 -91.484,-8.132 -89.597,-9.875C-87.709,-11.909 -84.658,-11.909 -82.627,-9.875C-80.738,-8.132 -80.738,-4.938 -82.627,-3.049M-89.887,-30.35C-87.855,-32.383 -84.805,-32.383 -82.916,-30.35C-81.029,-28.608 -81.029,-25.413 -82.916,-23.671C-84.805,-21.637 -87.855,-21.637 -89.887,-23.671C-91.775,-25.413 -91.775,-28.608 -89.887,-30.35M-79.432,-20.04C-77.544,-21.927 -74.349,-21.927 -72.606,-20.04C-70.572,-18.152 -70.572,-15.103 -72.606,-13.214C-74.349,-11.327 -77.544,-11.327 -79.432,-13.214C-81.319,-15.103 -81.319,-18.152 -79.432,-20.04M-62.151,-9.73C-60.699,-8.132 -60.264,-5.664 -61.425,-3.921L-67.67,-10.166C-67.814,-10.166 -67.96,-10.31 -68.105,-10.456C-66.362,-11.618 -63.895,-11.327 -62.151,-9.73M-51.842,0.726C-50.244,2.177 -49.953,4.646 -51.115,6.535L-57.795,-0.145C-55.906,-1.162 -53.439,-1.017 -51.842,0.726M-41.531,11.037C-39.789,12.633 -39.643,15.101 -40.66,16.99L-47.34,10.31C-45.452,9.148 -42.983,9.439 -41.531,11.037M-31.076,21.346C-29.479,22.944 -29.187,25.412 -30.35,27.155L-37.029,20.62C-35.142,19.458 -32.673,19.748 -31.076,21.346M-20.766,31.801C-19.168,33.398 -18.878,35.722 -20.039,37.611L-26.574,31.076C-24.687,29.913 -22.363,30.204 -20.766,31.801M-80.303,-36.013C-90.178,-45.887 -108.328,-43.855 -120.672,-31.511C-133.016,-19.169 -135.193,-1.017 -125.319,9.003C-106.006,28.316 -57.939,76.237 -38.773,95.405C-28.897,105.279 -10.601,103.391 1.742,91.048C14.086,78.704 16.119,60.408 6.099,50.534C-13.069,31.22 -60.988,-16.7 -80.303,-36.013" style="fill:rgb(91,123,162);fill-rule:nonzero;"/>
        </g>
    </g>
</svg>
