<?xml version="1.0" encoding="UTF-8" standalone="no"?>
<!DOCTYPE svg PUBLIC "-//W3C//DTD SVG 1.1//EN" "http://www.w3.org/Graphics/SVG/1.1/DTD/svg11.dtd">
<svg width="100%" height="100%" viewBox="0 0 214 180" version="1.1" xmlns="http://www.w3.org/2000/svg" xmlns:xlink="http://www.w3.org/1999/xlink" xml:space="preserve" xmlns:serif="http://www.serif.com/" style="fill-rule:evenodd;clip-rule:evenodd;stroke-linejoin:round;stroke-miterlimit:2;">
    <g id="_4" serif:id="4" transform="matrix(1,0,0,1,-484.272,-2820.52)">
        <g transform="matrix(1,0,0,1,572.618,2932.84)">
            <path d="M0,-1.7L-3.667,17.958L-17.102,36.162L-22.168,43.028C-26.885,49.335 -18.123,55.515 -12.085,52.093L0.104,36.288L10.39,22.949L13.445,6.347L29.437,23.459L33.605,36.534L37.279,48.058C39.629,55.379 52.754,53.121 50.826,43.575L48.65,36.644L42.271,16.329L21.9,-5.061L29.283,-29.917L35.445,-17.388L60.096,-6.947C65.098,-5.435 70.038,-15.231 64.832,-18.152L45.275,-25.893L30.557,-54.414C26.955,-53.834 23.373,-54.767 19.811,-57.215L-11.816,-39.694L-21.492,-17.388C-25.036,-8.821 -15.588,-6.325 -11.408,-10.359L-1.731,-32.055L9.371,-36.944C1.275,-14.993 -1.848,-3.245 0,-1.7" style="fill:rgb(91,123,162);"/>
        </g>
        <g transform="matrix(0,1,1,0,604.383,2840.24)">
            <path d="M15.483,-15.482C24.034,-15.482 30.965,-8.55 30.965,0C30.965,8.551 24.034,15.483 15.483,15.483C6.932,15.483 -0,8.551 -0,0C-0,-8.55 6.932,-15.482 15.483,-15.482" style="fill:rgb(91,123,162);"/>
        </g>
        <g transform="matrix(-0.876228,-0.481896,-0.481896,0.876228,530.101,2892.5)">
            <path d="M-6.497,-25.15C0.852,-18.955 -0.107,-8.456 -1.631,0.061C-2.201,3.243 -7.061,2.058 -6.497,-1.099C-5.281,-7.888 -4.077,-16.586 -9.985,-21.567C-12.448,-23.645 -8.951,-27.219 -6.497,-25.15" style="fill:rgb(91,123,162);fill-rule:nonzero;"/>
        </g>
        <g transform="matrix(1,0,0,1,551.316,2894.6)">
            <path d="M0,-13.095C-4.273,-10.827 -6.732,-6.866 -8.563,-2.532C-9.093,-1.277 -8.954,0.134 -7.666,0.889C-6.606,1.51 -4.776,1.249 -4.245,-0.008C-2.744,-3.564 -1.007,-6.904 2.523,-8.777C5.372,-10.288 2.847,-14.605 0,-13.095" style="fill:rgb(91,123,162);fill-rule:nonzero;"/>
        </g>
    </g>
</svg>
