<?xml version="1.0" encoding="UTF-8" standalone="no"?>
<!DOCTYPE svg PUBLIC "-//W3C//DTD SVG 1.1//EN" "http://www.w3.org/Graphics/SVG/1.1/DTD/svg11.dtd">
<svg width="100%" height="100%" viewBox="0 0 214 180" version="1.1" xmlns="http://www.w3.org/2000/svg" xmlns:xlink="http://www.w3.org/1999/xlink" xml:space="preserve" xmlns:serif="http://www.serif.com/" style="fill-rule:evenodd;clip-rule:evenodd;stroke-linejoin:round;stroke-miterlimit:2;">
    <g id="_16" serif:id="16" transform="matrix(1,0,0,1,-493.821,-6978.03)">
        <g transform="matrix(-0.981008,0.193967,0.193967,0.981008,522.021,7054.44)">
            <rect x="-115.427" y="-11.301" width="112.051" height="45.783" style="fill:rgb(91,123,162);"/>
        </g>
        <g transform="matrix(-0.981,0.194007,0.194007,0.981,549.044,7029.88)">
            <rect x="-46.182" y="-4.525" width="36.107" height="107.391" style="fill:rgb(91,123,162);"/>
        </g>
        <g transform="matrix(-0.981003,0.193994,0.193994,0.981003,565.089,7092.09)">
            <rect x="-44.981" y="-4.406" width="41.052" height="44.528" style="fill:rgb(91,123,162);"/>
        </g>
        <g transform="matrix(-0.981006,0.193978,0.193978,0.981006,599.263,7039.23)">
            <rect x="-51.322" y="-5.025" width="48.574" height="33.09" style="fill:rgb(91,123,162);"/>
        </g>
        <g transform="matrix(-0.981001,0.194,0.194,0.981001,641.09,7026.55)">
            <rect x="-29.938" y="-2.933" width="26.546" height="37.57" style="fill:rgb(91,123,162);"/>
        </g>
        <g transform="matrix(-0.981001,0.194,0.194,0.981001,521.856,7059.07)">
            <rect x="-28.202" y="-2.762" width="26.547" height="19.669" style="fill:rgb(91,123,162);"/>
        </g>
        <g transform="matrix(-0.981005,0.193983,0.193983,0.981005,563.275,7028.71)">
            <rect x="-28.294" y="-2.771" width="28.399" height="1.699" style="fill:white;"/>
        </g>
        <g transform="matrix(-0.981006,0.193976,0.193976,0.981006,564.173,7033.25)">
            <rect x="-28.294" y="-2.77" width="28.399" height="1.697" style="fill:white;"/>
        </g>
    </g>
</svg>
