<?xml version="1.0" encoding="UTF-8" standalone="no"?>
<!DOCTYPE svg PUBLIC "-//W3C//DTD SVG 1.1//EN" "http://www.w3.org/Graphics/SVG/1.1/DTD/svg11.dtd">
<svg width="100%" height="100%" viewBox="0 0 214 180" version="1.1" xmlns="http://www.w3.org/2000/svg" xmlns:xlink="http://www.w3.org/1999/xlink" xml:space="preserve" xmlns:serif="http://www.serif.com/" style="fill-rule:evenodd;clip-rule:evenodd;stroke-linejoin:round;stroke-miterlimit:2;">
    <g id="_3" serif:id="3" transform="matrix(1,0,0,1,-1233.36,-2365.84)">
        <g transform="matrix(1,0,0,1,1346.85,2441.69)">
            <path d="M0,-14.278C-0.299,-12.075 -0.811,-4.844 3.014,-0.417C5.031,1.899 8.042,3.012 11.957,3.012C16.36,3.012 19.491,1.595 21.389,-1.206C24.311,-5.542 23.799,-12.261 22.596,-15.389C21.205,-18.705 1.713,-17.198 0,-14.278M-37.078,-15.389C-38.377,-12.261 -38.887,-5.542 -35.965,-1.206C-34.066,1.595 -30.842,3.012 -26.533,3.012C-22.595,3.012 -19.582,1.899 -17.589,-0.417C-13.763,-4.844 -14.274,-12.075 -14.574,-14.278C-16.082,-16.895 -35.662,-19.007 -37.078,-15.389M-26.326,-20.395L-30.635,-20.395C-37.772,-20.303 -43.287,-20.12 -45.097,-19.606C-47.321,-19.007 -47.229,-11.567 -45.097,-11.567L-41.088,-11.567C-41.482,-7.649 -40.88,-3.038 -38.469,0.484L-38.469,0.596C-39.488,0.993 -40.182,1.988 -40.182,3.31C-40.182,4.819 -38.979,6.117 -37.473,6.117C-36.568,6.117 -35.154,5.421 -34.158,4.404C-32.257,5.421 -29.732,6.117 -26.533,6.117C-21.692,6.117 -17.89,4.609 -15.271,1.595C-12.953,-1.022 -11.956,-4.337 -11.449,-7.35C-10.241,-7.741 -8.434,-8.343 -7.23,-8.343C-6.024,-8.343 -4.217,-7.741 -3.011,-7.35C-2.619,-4.337 -1.598,-1.022 0.695,1.595C3.316,4.609 7.141,6.117 11.957,6.117C15.178,6.117 17.591,5.421 19.491,4.516L19.396,4.516C20.395,5.421 21.694,6.117 22.412,6.117C24.011,6.117 25.213,4.911 25.213,3.31C25.213,2.197 24.613,1.299 23.799,0.786C23.799,0.695 23.893,0.596 24.011,0.484C26.326,-3.038 26.929,-7.649 26.533,-11.567L30.637,-11.567C32.656,-11.567 32.861,-19.007 30.637,-19.606C28.739,-20.12 23.223,-20.303 16.061,-20.395L11.746,-20.395C8.741,-20.21 4.52,-19.703 1.414,-18.587C0.303,-18.195 -3.219,-17.29 -7.23,-17.08C-11.354,-17.29 -14.875,-18.195 -15.967,-18.587C-19.096,-19.703 -23.311,-20.21 -26.326,-20.395ZM19.491,4.404L19.701,4.404L19.491,4.404Z" style="fill:rgb(91,123,162);"/>
        </g>
        <g transform="matrix(1,0,0,1,1259.72,2477.39)">
            <path d="M0,57.877L159.76,57.877C161.68,57.877 163.233,56.324 163.233,54.404L163.233,49.302C163.233,30.104 151.05,12.966 132.911,6.661L115.044,0.445C113.735,0 112.275,0.356 111.341,1.38C102.589,10.936 91.418,16.201 79.88,16.201C68.34,16.201 57.169,10.936 48.419,1.38C47.475,0.356 46.022,0 44.716,0.445L26.847,6.661C8.708,12.966 -3.474,30.104 -3.474,49.302L-3.474,54.404C-3.474,56.324 -1.921,57.877 0,57.877" style="fill:rgb(91,123,162);fill-rule:nonzero;"/>
        </g>
        <g transform="matrix(1,0,0,1,1322.23,2433.13)">
            <path d="M0,2.851L6.945,2.851C8.865,2.851 10.419,2.212 10.419,1.425C10.419,0.638 8.865,0 6.945,0L0,0C-1.922,0 -3.473,0.638 -3.473,1.425C-3.473,2.212 -1.922,2.851 0,2.851" style="fill:rgb(91,123,162);fill-rule:nonzero;"/>
        </g>
        <g transform="matrix(1,0,0,1,1350.01,2433.13)">
            <path d="M0,2.851L6.945,2.851C8.865,2.851 10.42,2.212 10.42,1.425C10.42,0.638 8.865,0 6.945,0L0,0C-1.92,0 -3.473,0.638 -3.473,1.425C-3.473,2.212 -1.92,2.851 0,2.851" style="fill:rgb(91,123,162);fill-rule:nonzero;"/>
        </g>
        <g transform="matrix(1,0,0,1,1301.24,2438)">
            <path d="M0,-13.831C0.034,-13.825 0.066,-13.82 0.101,-13.819C1.111,-13.727 2.17,-14.082 2.909,-14.823C3.644,-15.56 4.008,-16.598 3.901,-17.635L3.805,-18.504C3.717,-19.261 3.621,-20.023 3.621,-20.808C3.621,-39.957 19.203,-55.538 38.354,-55.538C57.502,-55.538 73.084,-39.957 73.084,-20.808C73.084,-20.023 72.988,-19.261 72.898,-18.504L72.805,-17.635C72.696,-16.598 73.063,-15.56 73.795,-14.823C74.534,-14.082 75.566,-13.725 76.604,-13.819C76.639,-13.82 76.672,-13.825 76.705,-13.831C77.688,-13.463 80.03,-9.812 80.03,-3.443C80.03,3.264 77.471,6.991 76.354,6.82C75.41,6.236 74.236,6.136 73.212,6.553C72.189,6.973 71.42,7.856 71.15,8.932C66.287,28.537 53.106,41.708 38.354,41.708C23.599,41.708 10.42,28.537 5.557,8.932C5.283,7.856 4.416,7.048 3.392,6.631C3.004,6.472 2.591,6.402 2.17,6.402C1.459,6.402 0.74,6.61 0.15,6.977C-0.713,6.977 -3.323,3.279 -3.323,-3.443C-3.323,-9.809 -0.984,-13.463 0,-13.831M-10.27,-3.443C-10.27,6.216 -6.004,13.559 -0.279,13.906C6.029,34.828 21.238,48.653 38.354,48.653C55.467,48.653 70.676,34.828 76.984,13.906C82.709,13.559 86.976,6.216 86.976,-3.443C86.976,-11.127 84.276,-17.344 79.996,-19.705C80.016,-20.07 80.03,-20.439 80.03,-20.808C80.03,-43.789 61.334,-62.484 38.354,-62.484C15.371,-62.484 -3.323,-43.789 -3.323,-20.808C-3.323,-20.506 -3.318,-20.205 -3.298,-19.906C-7.44,-17.641 -10.27,-11.31 -10.27,-3.443" style="fill:rgb(91,123,162);fill-rule:nonzero;"/>
        </g>
        <g transform="matrix(-0.889198,-0.457522,-0.457522,0.889198,1321.12,2414.27)">
            <path d="M-1.677,-6.721C-2.289,-4.06 -0.116,-2.239 1.71,-0.651C4.142,1.464 0.755,5.145 -1.677,3.029C-4.892,0.231 -7.611,-3.234 -6.572,-7.744C-5.848,-10.888 -0.954,-9.861 -1.677,-6.721" style="fill:rgb(91,123,162);fill-rule:nonzero;"/>
        </g>
        <g transform="matrix(1,0,0,1,1348.98,2416.11)">
            <path d="M0,-4.92C0.633,-1.074 3.721,1.348 7.084,2.851C8.329,3.408 9.762,3.225 10.506,1.955C11.137,0.877 10.854,-0.908 9.608,-1.465C7.336,-2.482 5.254,-3.617 4.82,-6.25C4.6,-7.596 2.953,-8.328 1.746,-7.996C0.33,-7.607 -0.223,-6.264 0,-4.92" style="fill:rgb(91,123,162);fill-rule:nonzero;"/>
        </g>
        <g transform="matrix(1,0,0,1,1337.34,2456.74)">
            <path d="M0,4.798C1.564,4.789 3.123,4.714 4.68,4.912C6.035,5.084 7.18,3.645 7.18,2.412C7.18,0.92 6.031,0.084 4.68,-0.088C3.123,-0.286 1.564,-0.211 0,-0.202C-3.224,-0.185 -3.225,4.815 0,4.798" style="fill:rgb(91,123,162);fill-rule:nonzero;"/>
        </g>
    </g>
</svg>
