<?xml version="1.0" encoding="UTF-8" standalone="no"?>
<!DOCTYPE svg PUBLIC "-//W3C//DTD SVG 1.1//EN" "http://www.w3.org/Graphics/SVG/1.1/DTD/svg11.dtd">
<svg width="100%" height="100%" viewBox="0 0 214 180" version="1.1" xmlns="http://www.w3.org/2000/svg" xmlns:xlink="http://www.w3.org/1999/xlink" xml:space="preserve" xmlns:serif="http://www.serif.com/" style="fill-rule:evenodd;clip-rule:evenodd;stroke-linejoin:round;stroke-miterlimit:2;">
    <g id="_13" serif:id="13" transform="matrix(1,0,0,1,-494.366,-6522.5)">
        <g transform="matrix(1,0,0,1,0,5665.88)">
            <rect x="569.831" y="943.125" width="55.164" height="38.873" style="fill:white;"/>
        </g>
        <g transform="matrix(1,0,0,1,578.873,6580.52)">
            <path d="M0,-25.621C0,-26.159 0.432,-26.583 0.963,-26.583C1.5,-26.583 1.923,-26.159 1.923,-25.621L1.923,-0.325C1.923,0.207 1.5,0.645 0.963,0.645C0.432,0.645 0,0.207 0,-0.325L0,-25.621ZM5.86,-25.621C5.86,-26.159 6.279,-26.583 6.818,-26.583C7.35,-26.583 7.792,-26.159 7.792,-25.621L7.792,-0.325C7.792,0.207 7.35,0.645 6.818,0.645C6.279,0.645 5.86,0.207 5.86,-0.325L5.86,-25.621ZM11.706,-25.621C11.706,-26.159 12.144,-26.583 12.671,-26.583C13.214,-26.583 13.646,-26.159 13.646,-25.621L13.646,-0.325C13.646,0.207 13.214,0.645 12.671,0.645C12.144,0.645 11.706,0.207 11.706,-0.325L11.706,-25.621ZM17.565,-25.621C17.565,-26.159 18.009,-26.583 18.524,-26.583C19.066,-26.583 19.494,-26.159 19.494,-25.621L19.494,-0.325C19.494,0.207 19.066,0.645 18.524,0.645C18.009,0.645 17.565,0.207 17.565,-0.325L17.565,-25.621ZM23.427,-25.621C23.427,-26.159 23.856,-26.583 24.388,-26.583C24.927,-26.583 25.354,-26.159 25.354,-25.621L25.354,-0.325C25.354,0.207 24.927,0.645 24.388,0.645C23.856,0.645 23.427,0.207 23.427,-0.325L23.427,-25.621ZM29.283,-25.621C29.283,-26.159 29.722,-26.583 30.245,-26.583C30.774,-26.583 31.215,-26.159 31.215,-25.621L31.215,-0.325C31.215,0.207 30.774,0.645 30.245,0.645C29.722,0.645 29.283,0.207 29.283,-0.325L29.283,-25.621ZM35.144,-25.621C35.144,-26.159 35.569,-26.583 36.102,-26.583C36.633,-26.583 37.071,-26.159 37.071,-25.621L37.071,-0.325C37.071,0.207 36.633,0.645 36.102,0.645C35.569,0.645 35.144,0.207 35.144,-0.325L35.144,-25.621ZM-2.894,3.556L39.958,3.556L39.958,-29.177L-2.894,-29.177L-2.894,3.556Z" style="fill:rgb(91,123,162);fill-rule:nonzero;"/>
        </g>
        <g transform="matrix(1,0,0,1,569.831,6659.52)">
            <path d="M0,4.548C0,9.354 6.391,13.245 14.283,13.245L40.863,13.245C48.762,13.245 55.164,9.354 55.164,4.548L55.164,-8.697L0,-8.697L0,4.548Z" style="fill:rgb(202,227,234);fill-rule:nonzero;"/>
        </g>
        <g transform="matrix(1,0,0,1,610.694,6605.75)">
            <path d="M0,-20.193L-26.58,-20.193C-34.473,-20.193 -40.863,-16.298 -40.863,-11.494L-40.863,0L14.301,0L14.301,-11.494C14.301,-16.298 7.898,-20.193 0,-20.193" style="fill:rgb(202,227,234);fill-rule:nonzero;"/>
        </g>
        <g transform="matrix(1,0,0,1,0,5665.88)">
            <rect x="569.831" y="943.125" width="55.164" height="38.873" style="fill:rgb(91,123,162);"/>
        </g>
        <g transform="matrix(1,0,0,1,578.873,6580.52)">
            <path d="M0,-25.621C0,-26.159 0.432,-26.583 0.963,-26.583C1.5,-26.583 1.923,-26.159 1.923,-25.621L1.923,-0.325C1.923,0.207 1.5,0.645 0.963,0.645C0.432,0.645 0,0.207 0,-0.325L0,-25.621ZM5.86,-25.621C5.86,-26.159 6.279,-26.583 6.818,-26.583C7.35,-26.583 7.792,-26.159 7.792,-25.621L7.792,-0.325C7.792,0.207 7.35,0.645 6.818,0.645C6.279,0.645 5.86,0.207 5.86,-0.325L5.86,-25.621ZM11.706,-25.621C11.706,-26.159 12.144,-26.583 12.671,-26.583C13.214,-26.583 13.646,-26.159 13.646,-25.621L13.646,-0.325C13.646,0.207 13.214,0.645 12.671,0.645C12.144,0.645 11.706,0.207 11.706,-0.325L11.706,-25.621ZM17.565,-25.621C17.565,-26.159 18.009,-26.583 18.524,-26.583C19.066,-26.583 19.494,-26.159 19.494,-25.621L19.494,-0.325C19.494,0.207 19.066,0.645 18.524,0.645C18.009,0.645 17.565,0.207 17.565,-0.325L17.565,-25.621ZM23.427,-25.621C23.427,-26.159 23.856,-26.583 24.388,-26.583C24.927,-26.583 25.354,-26.159 25.354,-25.621L25.354,-0.325C25.354,0.207 24.927,0.645 24.388,0.645C23.856,0.645 23.427,0.207 23.427,-0.325L23.427,-25.621ZM29.283,-25.621C29.283,-26.159 29.722,-26.583 30.245,-26.583C30.774,-26.583 31.215,-26.159 31.215,-25.621L31.215,-0.325C31.215,0.207 30.774,0.645 30.245,0.645C29.722,0.645 29.283,0.207 29.283,-0.325L29.283,-25.621ZM35.144,-25.621C35.144,-26.159 35.569,-26.583 36.102,-26.583C36.633,-26.583 37.071,-26.159 37.071,-25.621L37.071,-0.325C37.071,0.207 36.633,0.645 36.102,0.645C35.569,0.645 35.144,0.207 35.144,-0.325L35.144,-25.621ZM-2.894,3.556L39.958,3.556L39.958,-29.177L-2.894,-29.177L-2.894,3.556Z" style="fill:rgb(91,123,162);fill-rule:nonzero;"/>
        </g>
        <g transform="matrix(1,0,0,1,569.831,6659.52)">
            <path d="M0,4.548C0,9.354 6.391,13.245 14.283,13.245L40.863,13.245C48.762,13.245 55.164,9.354 55.164,4.548L55.164,-8.697L0,-8.697L0,4.548Z" style="fill:rgb(91,123,162);fill-rule:nonzero;"/>
        </g>
        <g transform="matrix(1,0,0,1,569.831,6659.52)">
            <path d="M0,4.548C0,9.354 6.391,13.245 14.283,13.245L40.863,13.245C48.762,13.245 55.164,9.354 55.164,4.548L55.164,-8.697L0,-8.697L0,4.548Z" style="fill:rgb(91,123,162);fill-rule:nonzero;"/>
        </g>
        <g transform="matrix(1,0,0,1,610.694,6605.75)">
            <path d="M0,-20.193L-26.58,-20.193C-34.473,-20.193 -40.863,-16.298 -40.863,-11.494L-40.863,0L14.301,0L14.301,-11.494C14.301,-16.298 7.898,-20.193 0,-20.193" style="fill:rgb(91,123,162);fill-rule:nonzero;"/>
        </g>
        <g transform="matrix(1,0,0,1,610.694,6605.75)">
            <path d="M0,-20.193L-26.58,-20.193C-34.473,-20.193 -40.863,-16.298 -40.863,-11.494L-40.863,0L14.301,0L14.301,-11.494C14.301,-16.298 7.898,-20.193 0,-20.193" style="fill:rgb(91,123,162);fill-rule:nonzero;"/>
        </g>
        <g transform="matrix(0,-1,-1,0,541.302,6590.86)">
            <path d="M-10,-10C-15.522,-10 -20,-5.523 -20,0C-20,5.523 -15.522,10 -10,10C-4.478,10 0,5.523 0,0C0,-5.523 -4.478,-10 -10,-10" style="fill:rgb(91,123,162);fill-rule:nonzero;"/>
        </g>
        <g transform="matrix(0,-1,-1,0,656.411,6557.07)">
            <path d="M-13.5,-13.5C-20.956,-13.5 -27,-7.457 -27,0C-27,7.457 -20.956,13.5 -13.5,13.5C-6.045,13.5 0,7.457 0,0C0,-7.457 -6.045,-13.5 -13.5,-13.5" style="fill:rgb(91,123,162);fill-rule:nonzero;"/>
        </g>
        <g transform="matrix(0,-1,-1,0,556.411,6630.32)">
            <path d="M-5.11,-5.11C-7.932,-5.11 -10.22,-2.822 -10.22,-0C-10.22,2.823 -7.932,5.11 -5.11,5.11C-2.289,5.11 0,2.823 0,-0C0,-2.822 -2.289,-5.11 -5.11,-5.11" style="fill:rgb(91,123,162);fill-rule:nonzero;"/>
        </g>
        <g transform="matrix(0,-1,-1,0,637.802,6613.11)">
            <path d="M-5.11,-5.11C-7.932,-5.11 -10.22,-2.822 -10.22,-0C-10.22,2.823 -7.932,5.11 -5.11,5.11C-2.289,5.11 0,2.823 0,-0C0,-2.822 -2.289,-5.11 -5.11,-5.11" style="fill:rgb(91,123,162);fill-rule:nonzero;"/>
        </g>
        <g transform="matrix(0,-1,-1,0,651.302,6643.32)">
            <path d="M-5.11,-5.11C-7.932,-5.11 -10.22,-2.822 -10.22,-0C-10.22,2.823 -7.932,5.11 -5.11,5.11C-2.289,5.11 0,2.823 0,-0C0,-2.822 -2.289,-5.11 -5.11,-5.11" style="fill:rgb(91,123,162);fill-rule:nonzero;"/>
        </g>
    </g>
</svg>
