<?xml version="1.0" encoding="UTF-8" standalone="no"?>
<!DOCTYPE svg PUBLIC "-//W3C//DTD SVG 1.1//EN" "http://www.w3.org/Graphics/SVG/1.1/DTD/svg11.dtd">
<svg width="100%" height="100%" viewBox="0 0 214 180" version="1.1" xmlns="http://www.w3.org/2000/svg" xmlns:xlink="http://www.w3.org/1999/xlink" xml:space="preserve" xmlns:serif="http://www.serif.com/" style="fill-rule:evenodd;clip-rule:evenodd;stroke-linejoin:round;stroke-miterlimit:2;">
    <g id="_18" serif:id="18" transform="matrix(1,0,0,1,-1238.4,-6979.8)">
        <g transform="matrix(1,0,0,1,1321.12,7010.86)">
            <path d="M0,15.483C-0.505,15.483 -1.013,15.32 -1.439,14.982L-14.761,4.437C-15.766,3.643 -15.935,2.183 -15.139,1.179C-14.343,0.172 -12.884,0 -11.878,0.798L1.442,11.343C2.445,12.138 2.617,13.597 1.821,14.602C1.362,15.181 0.685,15.483 0,15.483" style="fill:rgb(91,123,162);fill-rule:nonzero;"/>
        </g>
        <g transform="matrix(1,0,0,1,1327.77,7000.68)">
            <path d="M0,21.98C-0.738,21.98 -1.466,21.628 -1.916,20.972L-13.599,3.957C-14.323,2.9 -14.056,1.455 -12.998,0.729C-11.94,0 -10.497,0.273 -9.772,1.33L1.911,18.345C2.637,19.403 2.367,20.847 1.312,21.572C0.909,21.849 0.451,21.98 0,21.98" style="fill:rgb(91,123,162);fill-rule:nonzero;"/>
        </g>
        <g transform="matrix(1,0,0,1,1336.11,6997.45)">
            <path d="M0,24.964C-0.928,24.964 -1.803,24.403 -2.162,23.488L-9.996,3.474C-10.463,2.28 -9.874,0.934 -8.681,0.467C-7.484,0 -6.14,0.591 -5.673,1.781L2.161,21.796C2.629,22.989 2.039,24.335 0.846,24.802C0.567,24.91 0.282,24.964 0,24.964" style="fill:rgb(91,123,162);fill-rule:nonzero;"/>
        </g>
        <g transform="matrix(1,0,0,1,1376.55,7076.63)">
            <path d="M0,75.537C-4.022,75.537 -7.687,72.821 -8.718,68.743C-13.064,51.579 -18.168,32.534 -20.723,24.356L-59.011,18.547C-63.925,17.802 -67.305,13.214 -66.56,8.298C-65.814,3.383 -61.228,0 -56.312,0.75L-11.707,7.518L-10.586,8.021C-6.229,9.975 -5.116,13.696 -2.682,21.845C-1.401,26.13 0.244,32.016 2.211,39.341C5.541,51.739 8.7,64.2 8.731,64.325C9.952,69.143 7.034,74.039 2.216,75.26C1.475,75.446 0.731,75.537 0,75.537" style="fill:rgb(91,123,162);fill-rule:nonzero;"/>
        </g>
        <g transform="matrix(1,0,0,1,1318.87,7149.51)">
            <path d="M0,-69.916C-1.414,-69.916 -2.783,-69.469 -3.942,-68.614C-5.376,-67.556 -6.316,-66.003 -6.585,-64.236C-7.137,-60.595 -4.624,-57.185 -0.981,-56.631L38.738,-50.602L39.172,-49.215C41.557,-41.595 46.505,-23.292 51.212,-4.709C51.963,-1.741 54.626,0.333 57.681,0.333C58.229,0.333 58.784,0.265 59.325,0.128C62.896,-0.777 65.066,-4.417 64.162,-7.988C63.598,-10.215 60.7,-21.592 57.651,-32.939C55.687,-40.253 54.047,-46.119 52.776,-50.372C50.312,-58.616 49.379,-61.294 46.144,-62.744L45.315,-63.117L1.022,-69.837C0.68,-69.891 0.338,-69.916 0,-69.916M57.681,4.975C52.496,4.975 47.986,1.461 46.712,-3.57C42.29,-21.031 37.659,-38.218 35.167,-46.45L-1.68,-52.041C-7.851,-52.978 -12.11,-58.763 -11.173,-64.933C-10.72,-67.924 -9.129,-70.558 -6.694,-72.351C-4.261,-74.145 -1.274,-74.891 1.719,-74.424L46.636,-67.609L48.044,-66.979C53.372,-64.589 54.738,-60.011 57.222,-51.702C58.505,-47.407 60.158,-41.499 62.134,-34.144C65.19,-22.767 68.093,-11.363 68.646,-9.192C70.192,-3.077 66.518,3.093 60.467,4.626C59.552,4.858 58.613,4.975 57.681,4.975" style="fill:rgb(91,123,162);fill-rule:nonzero;"/>
        </g>
        <g transform="matrix(1,0,0,1,1387.14,7146.55)">
            <path d="M0,-121.095L-13.501,-81.093C-14.581,-77.893 -17.451,-75.633 -20.811,-75.343C-21.06,-75.313 -21.312,-75.302 -21.561,-75.302C-24.641,-75.302 -27.51,-76.983 -29.012,-79.723L-37.143,-94.574C-42.643,-87.334 -48.651,-75.233 -49.884,-66.302L-49.902,-66.133C-50.481,-61.953 -52.313,-58.252 -54.962,-55.352L-37.342,-42.061C-36.182,-41.361 -35.161,-40.401 -34.371,-39.231C-32.071,-35.821 -30.081,-32.871 -42.262,6.032C-43.462,9.882 -47.012,12.342 -50.843,12.342C-51.731,12.342 -52.643,12.212 -53.534,11.931C-58.282,10.441 -60.923,5.391 -59.433,0.651C-56.003,-10.329 -52.332,-23.509 -51.071,-29.86L-80.024,-51.692L-82.924,-53.882C-83.174,-54.072 -83.415,-54.272 -83.633,-54.472C-83.805,-54.641 -83.964,-54.802 -84.124,-54.973C-88.224,-59.233 -90.404,-65.252 -89.545,-71.563L-89.515,-71.742C-86.875,-90.984 -75.134,-112.395 -64.723,-123.936C-57.864,-132.076 -45.731,-133.437 -37.222,-126.875C-34.321,-124.636 -32.202,-121.754 -30.911,-118.595L-23.41,-104.884L-16.11,-126.526C-14.61,-130.977 -9.782,-133.366 -5.341,-131.865C-0.89,-130.366 1.501,-125.535 0,-121.095" style="fill:rgb(91,123,162);fill-rule:nonzero;"/>
        </g>
        <g transform="matrix(0,-1,-1,0,1357.95,6982.12)">
            <path d="M-16.244,-16.246C-25.216,-16.246 -32.489,-8.974 -32.489,-0.001C-32.489,8.971 -25.216,16.244 -16.244,16.244C-7.272,16.244 -0.001,8.971 -0.001,-0.001C-0.001,-8.974 -7.272,-16.246 -16.244,-16.246" style="fill:rgb(91,123,162);fill-rule:nonzero;"/>
        </g>
        <g transform="matrix(1,0,0,1,1357.96,7012.29)">
            <path d="M0,-27.849C-7.677,-27.849 -13.925,-21.603 -13.925,-13.923C-13.925,-6.245 -7.677,0.001 0,0.001C7.678,0.001 13.924,-6.245 13.924,-13.923C13.924,-21.603 7.678,-27.849 0,-27.849M0,4.641C-10.235,4.641 -18.565,-3.687 -18.565,-13.923C-18.565,-24.161 -10.235,-32.49 0,-32.49C10.237,-32.49 18.566,-24.161 18.566,-13.923C18.566,-3.687 10.237,4.641 0,4.641" style="fill:rgb(91,123,162);fill-rule:nonzero;"/>
        </g>
    </g>
</svg>
