<?xml version="1.0" encoding="UTF-8" standalone="no"?>
<!DOCTYPE svg PUBLIC "-//W3C//DTD SVG 1.1//EN" "http://www.w3.org/Graphics/SVG/1.1/DTD/svg11.dtd">
<svg width="100%" height="100%" viewBox="0 0 214 180" version="1.1" xmlns="http://www.w3.org/2000/svg" xmlns:xlink="http://www.w3.org/1999/xlink" xml:space="preserve" xmlns:serif="http://www.serif.com/" style="fill-rule:evenodd;clip-rule:evenodd;">
    <g id="_15" serif:id="15" transform="matrix(1,0,0,1,-1233.16,-6512.37)">
        <g transform="matrix(1,0,0,1,1335.88,6631.06)">
            <path d="M0,-14.829L-11.866,-18.013C-11.866,-18.013 -29.848,-24.432 -29.23,-8.564C-25.473,-1.19 -9.924,9.603 -9.924,9.603" style="fill:rgb(141,163,190);fill-rule:nonzero;"/>
        </g>
        <g transform="matrix(-0.0694895,-0.997583,-0.997583,0.0694895,1330.81,6617.33)">
            <ellipse cx="-12.627" cy="-0.879" rx="12.657" ry="12.657" style="fill:none;stroke:white;stroke-width:3px;"/>
        </g>
        <g transform="matrix(-0.0694895,-0.997583,-0.997583,0.0694895,1330.81,6617.33)">
            <path d="M-12.626,-13.536C-19.617,-13.534 -25.283,-7.869 -25.283,-0.877C-25.282,6.112 -19.616,11.778 -12.626,11.778C-5.636,11.776 0.03,6.111 0.03,-0.878C0.03,-7.869 -5.637,-13.535 -12.626,-13.536" style="fill:rgb(91,123,162);fill-rule:nonzero;"/>
        </g>
        <g transform="matrix(1,0,0,1,1402.75,6610.93)">
            <path d="M0,-20.786C1.068,-13.591 -5.574,-6.64 -14.838,-5.263L-143.788,10.526C-153.051,11.905 -160.712,10.472 -161.781,3.277C-162.852,-3.917 -155.053,-6.125 -145.787,-7.501L-18.715,-31.313C-9.447,-32.691 -1.071,-27.975 0,-20.786" style="fill:rgb(91,123,162);fill-rule:nonzero;"/>
        </g>
        <g transform="matrix(1,0,0,1,1423.45,6574.27)">
            <path d="M0,50.726C4.005,50.693 7.279,53.91 7.316,57.913C7.351,61.915 4.134,65.191 0.129,65.225L-38.606,65.568C-42.607,65.605 -45.883,62.386 -45.922,58.383C-45.953,54.378 -42.738,51.105 -38.736,51.07L0,50.726ZM-29.502,57.364C-29.433,61.369 -33.484,64.681 -38.541,64.769C-43.602,64.855 -47.76,61.679 -47.827,57.677L-48.488,18.947C-48.555,14.943 -44.506,11.625 -39.448,11.539C-34.387,11.454 -30.232,14.629 -30.162,18.632L-29.502,57.364ZM9.777,-7.269C3.129,-14.448 -8.078,-14.879 -15.258,-8.235C-22.439,-1.588 -22.871,9.622 -16.226,16.798C-9.576,23.978 1.631,24.414 8.81,17.763C15.992,11.117 16.422,-0.088 9.777,-7.269" style="fill:rgb(91,123,162);fill-rule:nonzero;"/>
        </g>
    </g>
</svg>
