<?xml version="1.0" encoding="UTF-8" standalone="no"?>
<!DOCTYPE svg PUBLIC "-//W3C//DTD SVG 1.1//EN" "http://www.w3.org/Graphics/SVG/1.1/DTD/svg11.dtd">
<svg width="100%" height="100%" viewBox="0 0 214 180" version="1.1" xmlns="http://www.w3.org/2000/svg" xmlns:xlink="http://www.w3.org/1999/xlink" xml:space="preserve" xmlns:serif="http://www.serif.com/" style="fill-rule:evenodd;clip-rule:evenodd;stroke-linejoin:round;stroke-miterlimit:2;">
    <g id="_12" serif:id="12" transform="matrix(1,0,0,1,122.506,80.9281)">
        <path d="M0,15.8C-0.198,14.48 -0.562,13.14 -1.049,11.743C-3.341,5.167 -8.585,3.862 -9.95,-9.014C7.415,-9.067 22.12,-11.1 31.614,-14.46C35.134,-15.706 36.978,-19.569 35.733,-23.091C34.487,-26.607 30.626,-28.454 27.103,-27.207C10.807,-21.442 -32.163,-19.054 -76.686,-31.802C-80.282,-32.837 -84.019,-30.753 -85.049,-27.165C-86.073,-23.575 -84.001,-19.834 -80.409,-18.804C-70.571,-15.986 -60.645,-13.839 -50.927,-12.284C-47.624,-11.753 -44.356,-11.314 -41.113,-10.918C-37.989,1.747 -29.274,12.264 -25.251,17.097L-46.598,26.466C-49.312,27.441 -51.75,28.51 -53.794,29.733C-54.009,29.863 -54.226,29.988 -54.423,30.136C-54.792,30.374 -55.192,30.599 -55.529,30.851C-57.302,32.152 -58.405,34.169 -58.548,36.364L-58.58,36.831C-59.374,49.149 -60.196,61.883 -60.296,70.835C-60.341,74.943 -57.048,78.309 -52.94,78.355L-52.856,78.355C-48.79,78.355 -45.468,75.079 -45.423,70.999C-45.341,63.33 -44.679,52.463 -43.981,41.562L-40.96,40.236C-36.882,38.841 -31.648,37.499 -27.087,36.335C-17.575,33.905 -9.362,31.808 -4.983,28.294C-2.77,26.519 -1.241,24.21 -0.423,21.536C0.177,19.573 0.33,17.991 0,15.8M49.825,64.984L20.993,43.21L5.034,21.718C4.05,25.999 1.846,29.748 -1.601,32.513C-3.565,34.089 -6.007,35.388 -8.813,36.528L9.753,53.353C10.106,53.675 10.484,53.955 10.878,54.197C10.976,54.279 11.075,54.359 11.179,54.436L40.861,76.851C42.204,77.865 43.776,78.355 45.339,78.355C47.591,78.355 49.817,77.333 51.278,75.399C53.752,72.122 53.103,67.457 49.825,64.984M-27.679,-29.985C-19.179,-28.208 -10.844,-33.659 -9.063,-42.159C-7.286,-50.663 -12.737,-58.997 -21.237,-60.774C-29.741,-62.555 -38.075,-57.104 -39.853,-48.6C-41.634,-40.099 -36.183,-31.763 -27.679,-29.985" style="fill:rgb(91,123,162);fill-rule:nonzero;"/>
    </g>
</svg>
