<svg id="Layer_1" enable-background="new 0 0 256 256" height="512" viewBox="0 0 256 256" width="512" xmlns="http://www.w3.org/2000/svg"><path d="m218.446 22.113-.391-.437c-7.933-8.846-18.693-13.815-29.913-13.815h-17.303c-7.445 0-14.757 2.191-21.2 6.35l-.542.35c-13.113 8.467-29.286 8.467-42.399 0l-.542-.35c-6.442-4.16-13.755-6.35-21.2-6.35h-17.304c-11.219 0-21.979 4.969-29.913 13.815l-.391.437c-11.224 12.515-18.49 28.764-20.699 46.291l-2.478 19.667c-2.15 17.059-1.599 34.406 1.627 51.253 3.521 18.388 10.133 35.866 19.487 51.51l11.858 19.833c13.946 23.323 37.423 37.333 62.564 37.333h18.078.223 18.078c25.141 0 48.619-14.01 62.564-37.333l12.009-20.085c9.254-15.477 15.796-32.769 19.279-50.961l.004-.022c3.26-17.028 3.817-34.563 1.644-51.806l-2.443-19.389c-2.207-17.527-9.473-33.776-20.697-46.291z" fill="#f9a7a7"/><path d="m217.875 111.11-5.604-33.54c-.016-.121-.033-.241-.05-.361-2.494-17.37-17.16-30.087-34.134-30.087h-5.048c-2.669 0-5.291.728-7.602 2.11-11.386 6.822-24.376 10.434-37.552 10.436-13.176-.002-26.166-3.614-37.552-10.436-2.311-1.382-4.933-2.11-7.602-2.11h-5.048c-16.973 0-31.639 12.717-34.134 30.087-.017.12-.034.24-.05.361l-5.604 33.54c-1.124 6.729-1.234 13.598-.326 20.362 1.495 11.132 5.707 21.686 12.24 30.665l9.898 13.606c15.197 23.585 40.78 37.752 68.177 37.757h.001.001c27.397-.005 52.98-14.172 68.177-37.757l9.898-13.606c6.533-8.979 10.745-19.533 12.24-30.665.908-6.764.798-13.633-.326-20.362z" fill="#4671c6"/><path d="m217.875 111.11-5.604-33.541c-.016-.121-.033-.241-.05-.361-2.494-17.37-17.16-30.087-34.134-30.087h-5.048c-2.669 0-5.291.728-7.602 2.11-11.386 6.822-24.376 10.434-37.552 10.436-13.176-.002-26.166-3.614-37.552-10.436-2.311-1.383-4.933-2.11-7.602-2.11h-5.048c-16.973 0-31.639 12.717-34.134 30.087-.017.12-.034.24-.05.361l-5.604 33.541c-1.124 6.729-1.234 13.598-.326 20.362 1.495 11.132 5.707 21.686 12.24 30.665l5.963 8.196-2.011-2.765 24.375-8.002c2.701-.887 5.449-1.61 8.228-2.168l-.121-1.619c-.602-8.03.002-16.105 1.793-23.956 1.062-4.655 3.551-8.862 7.119-12.034 4.196-3.729 9.614-5.789 15.227-5.789h6.082c3.031 0 5.645 2.128 6.261 5.095.3 1.447.09 2.954-.595 4.263l-3.58 6.843c-.898 1.315-1.418 2.835-1.418 4.458 0 4.975 4.815 9.007 10.755 9.007s10.755-4.032 10.755-9.007c0-1.624-.52-3.143-1.418-4.458l-3.58-6.843c-.685-1.31-.896-2.816-.595-4.263.616-2.968 3.23-5.095 6.261-5.095h6.082c5.613 0 11.032 2.06 15.227 5.789 3.569 3.172 6.057 7.379 7.119 12.034 1.791 7.851 2.395 15.926 1.793 23.956l-.121 1.618c2.781.558 5.53 1.282 8.232 2.169l24.371 8.001 3.951-5.43c6.533-8.979 10.745-19.533 12.24-30.665.905-6.764.795-13.633-.329-20.362z" fill="#f9cfcf"/><path d="m51.485 59.443c-4.113 4.889-6.959 10.968-7.935 17.766-.017.12-.034.24-.05.361l-5.604 33.541c-.495 2.964-.782 5.955-.883 8.952h22.924c5.855 0 11.337-3.132 14.08-8.304 1.12-2.111 2.384-4.137 3.776-6.067z" fill="#e0ebfc"/><path d="m97.59 53.039c-2.478-1.132-4.904-2.397-7.257-3.807-2.311-1.383-4.933-2.11-7.602-2.11h-5.048c-10.331 0-19.801 4.717-26.198 12.321l26.307 46.248c6.585-9.132 16.093-16.08 27.188-19.528z" fill="#e0ebfc"/><path d="m150.894 86.213 7.414-33.231c-9.545 4.384-19.924 6.684-30.422 6.686-10.452-.002-20.784-2.283-30.295-6.629l7.39 33.124c5.031-1.563 10.386-2.413 15.943-2.413h13.872c5.615 0 11.022.868 16.098 2.463z" fill="#e0ebfc"/><path d="m178.087 47.122h-5.048c-2.669 0-5.291.728-7.602 2.11-2.305 1.381-4.678 2.623-7.103 3.738l-7.418 33.25c11.079 3.485 20.564 10.462 27.117 19.618l26.335-46.296c-6.397-7.663-15.905-12.42-26.281-12.42z" fill="#e0ebfc"/><path d="m181.71 111.771c2.732 5.157 8.183 8.291 14.019 8.291h23.029c-.101-2.997-.388-5.988-.883-8.952l-5.604-33.541c-.016-.121-.033-.241-.05-.361-.97-6.752-3.784-12.795-7.852-17.667l-26.335 46.296c1.353 1.891 2.584 3.871 3.676 5.934z" fill="#e0ebfc"/><path d="m196.063 175.743 5.948-8.175-24.371-8.001c-7.197-2.363-14.724-3.567-22.299-3.567h-14.389c-3.344 0-6.624.911-9.488 2.636-2.219 1.259-4.937 1.259-7.155-.001-3.042-1.727-6.48-2.635-9.978-2.635h-13.895c-7.575 0-15.102 1.204-22.3 3.567l-24.375 8.002 5.947 8.174c15.197 23.585 40.78 37.752 68.177 37.757h.001.001c27.396-.005 52.979-14.172 68.176-37.757z" fill="#f9a7a7"/><g fill="#3762cc"><path d="m37.012 122.063c-.542 0-1.061-.22-1.438-.609-.376-.391-.579-.916-.561-1.458.106-3.136.412-6.236.909-9.215l5.647-33.854c.997-6.946 3.896-13.437 8.385-18.771.421-.501 1.053-.759 1.712-.705.651.06 1.233.435 1.556 1.003l26.307 46.249c.387.681.342 1.524-.116 2.159-1.347 1.866-2.568 3.829-3.631 5.833-3.063 5.778-9.135 9.367-15.847 9.367zm14.222-59.016c-2.997 4.276-4.955 9.217-5.706 14.445l-.047.343-5.614 33.604c-.359 2.15-.612 4.37-.756 6.623l20.825-.001c5.227 0 9.945-2.774 12.313-7.24.949-1.791 2.016-3.55 3.178-5.243z"/><path d="m77.792 107.691c-.036 0-.072-.001-.108-.003-.68-.036-1.294-.416-1.631-1.008l-26.306-46.248c-.414-.728-.331-1.636.208-2.276 6.968-8.283 17.074-13.034 27.728-13.034h5.048c3.026 0 6.009.828 8.628 2.394 2.228 1.335 4.603 2.581 7.063 3.705.569.261.984.772 1.121 1.384l7.39 33.124c.227 1.017-.364 2.036-1.358 2.346-10.483 3.258-19.773 9.93-26.16 18.788-.378.521-.982.828-1.623.828zm-23.865-48.001 24.112 42.391c6.39-7.866 14.981-13.898 24.595-17.25l-6.781-30.394c-2.272-1.074-4.47-2.246-6.548-3.49-1.998-1.194-4.271-1.826-6.574-1.826h-5.048c-9.016 0-17.599 3.836-23.756 10.569z"/><path d="m150.894 88.213c-.201 0-.403-.03-.6-.092-5.008-1.573-10.223-2.371-15.499-2.371h-13.872c-5.225 0-10.39.781-15.35 2.323-.534.167-1.113.102-1.596-.18-.483-.28-.828-.75-.95-1.295l-7.39-33.124c-.165-.741.104-1.512.693-1.989.589-.478 1.399-.58 2.09-.266 9.228 4.217 19.416 6.446 29.464 6.448 10.095-.002 20.326-2.251 29.587-6.504.689-.319 1.501-.216 2.092.262.591.479.86 1.249.695 1.991l-7.414 33.231c-.122.547-.467 1.017-.952 1.297-.305.178-.65.269-.998.269zm-29.97-6.463h13.872c4.954 0 9.859.653 14.611 1.944l6.1-27.342c-8.789 3.484-18.259 5.313-27.621 5.315-9.316-.002-18.743-1.814-27.496-5.266l6.08 27.248c4.7-1.26 9.553-1.899 14.454-1.899z"/><path d="m178.034 107.838c-.643 0-1.249-.31-1.626-.836-6.354-8.877-15.62-15.58-26.091-18.874-.991-.313-1.578-1.33-1.352-2.344l7.418-33.25c.136-.609.549-1.121 1.117-1.382 2.4-1.103 4.725-2.326 6.91-3.636 2.621-1.567 5.604-2.396 8.63-2.396h5.048c10.706 0 20.845 4.789 27.816 13.138.535.641.616 1.546.203 2.271l-26.334 46.297c-.337.593-.953.973-1.634 1.008-.035.003-.071.004-.105.004zm-24.772-22.944c9.601 3.384 18.169 9.441 24.531 17.324l24.137-42.434c-6.164-6.793-14.777-10.663-23.842-10.663h-5.048c-2.303 0-4.577.632-6.576 1.827-2.032 1.218-4.178 2.365-6.392 3.417z"/><path d="m218.758 122.063-23.029-.001c-6.681 0-12.729-3.585-15.787-9.354 0 0 0 0 0-.001-1.035-1.954-2.224-3.874-3.535-5.704-.454-.635-.498-1.475-.112-2.153l26.334-46.297c.324-.569.907-.944 1.56-1.003.656-.051 1.293.207 1.713.71 4.438 5.315 7.307 11.77 8.297 18.665l.043.308 5.604 33.549c.497 2.977.803 6.077.91 9.215.018.542-.184 1.067-.561 1.457-.376.389-.895.609-1.437.609zm-35.28-11.229c2.361 4.458 7.056 7.228 12.251 7.228l20.93.001c-.144-2.254-.397-4.474-.756-6.624l-5.604-33.54c-.003-.019-.015-.102-.018-.12l-.04-.289c-.744-5.18-2.675-10.082-5.628-14.332l-24.216 42.571c1.126 1.654 2.159 3.366 3.081 5.105z"/><path d="m55.773 172.333c-.618 0-1.228-.285-1.619-.823l-2.011-2.765c-.007-.01-.015-.021-.021-.03l-3.93-5.401c-6.711-9.224-11.07-20.142-12.605-31.575-.936-6.972-.823-14.022.335-20.958l5.647-33.854c2.604-18.134 18.129-31.806 36.113-31.806h5.048c3.026 0 6.009.828 8.628 2.394 11.083 6.641 23.712 10.151 36.526 10.153 12.813-.002 25.443-3.513 36.524-10.152 2.62-1.566 5.604-2.395 8.63-2.395h5.048c17.984 0 33.51 13.672 36.113 31.803l.043.308 5.604 33.549c1.159 6.935 1.272 13.986.336 20.958-1.536 11.434-5.895 22.352-12.605 31.575l-3.951 5.431c-.51.703-1.415.996-2.241.724l-24.371-8.001c-2.612-.857-5.305-1.566-8.002-2.108-.989-.199-1.676-1.104-1.601-2.11l.121-1.618c.588-7.837 0-15.697-1.748-23.361-.975-4.274-3.222-8.073-6.498-10.984-3.834-3.407-8.77-5.284-13.898-5.284h-6.082c-2.072 0-3.882 1.473-4.302 3.502-.206.991-.061 2.032.409 2.93l3.529 6.744c1.111 1.669 1.697 3.563 1.697 5.483 0 6.069-5.722 11.007-12.755 11.007s-12.755-4.938-12.755-11.007c0-1.922.586-3.815 1.697-5.483l3.529-6.745c.469-.896.615-1.938.409-2.929-.421-2.029-2.23-3.502-4.302-3.502h-6.082c-5.128 0-10.064 1.877-13.899 5.284-3.276 2.911-5.522 6.71-6.498 10.985-1.748 7.662-2.335 15.521-1.748 23.36l.122 1.619c.075 1.006-.611 1.911-1.601 2.11-2.701.543-5.393 1.252-7.998 2.107l-21.766 7.146.396.544c.65.894.453 2.145-.44 2.794-.355.257-.766.381-1.175.381zm21.91-123.212c-16.008 0-29.831 12.197-32.154 28.371l-.047.343-5.614 33.604c-1.093 6.541-1.199 13.191-.316 19.766 1.447 10.778 5.554 21.067 11.875 29.755l3.094 4.254 22.99-7.548c2.199-.722 4.455-1.345 6.727-1.858-.603-8.197.019-16.415 1.846-24.428 1.162-5.092 3.838-9.617 7.74-13.086 4.567-4.059 10.447-6.294 16.556-6.294h6.082c3.958 0 7.415 2.813 8.219 6.689.393 1.895.115 3.882-.782 5.596l-3.581 6.844c-.036.068-.076.135-.12.199-.71 1.04-1.07 2.161-1.07 3.331 0 3.863 3.927 7.007 8.755 7.007s8.755-3.144 8.755-7.007c0-1.169-.36-2.29-1.07-3.331-.043-.064-.083-.131-.12-.2l-3.58-6.843c-.897-1.714-1.174-3.701-.782-5.596.804-3.876 4.26-6.689 8.219-6.689h6.082c6.109 0 11.989 2.235 16.556 6.294 3.903 3.469 6.58 7.994 7.74 13.086 1.828 8.014 2.449 16.231 1.846 24.426 2.271.514 4.528 1.138 6.731 1.86l22.987 7.547 3.094-4.253c6.321-8.688 10.428-18.977 11.875-29.755.883-6.575.776-13.226-.316-19.766 0 0 0 0 0-.001l-5.604-33.54c-.003-.019-.015-.102-.018-.12l-.04-.289c-2.323-16.171-16.146-28.368-32.154-28.368h-5.048c-2.303 0-4.577.632-6.576 1.827-11.7 7.011-25.041 10.718-38.578 10.72-13.538-.002-26.879-3.709-38.581-10.721-1.998-1.194-4.271-1.826-6.574-1.826z"/><path d="m146.086 250h-36.379c-25.909 0-49.939-14.32-64.281-38.307l-11.858-19.833c-9.515-15.914-16.155-33.463-19.734-52.16-3.275-17.105-3.829-34.561-1.646-51.879l2.478-19.668c2.245-17.815 9.772-34.641 21.194-47.375l.392-.438c8.253-9.202 19.698-14.479 31.401-14.479h17.303c7.821 0 15.527 2.307 22.285 6.671l.543.351c12.407 8.012 27.822 8.011 40.229-.001l.542-.35c6.758-4.364 14.464-6.671 22.285-6.671h17.302c11.703 0 23.148 5.277 31.402 14.48l.392.436v.001c11.422 12.735 18.949 29.56 21.194 47.375l2.443 19.39c2.206 17.504 1.646 35.145-1.664 52.432-3.547 18.524-10.117 35.889-19.531 51.634l-12.009 20.085c-14.344 23.986-38.374 38.306-64.283 38.306zm-78.434-240.139c-10.724 0-20.818 4.67-28.424 13.15l-.392.438c-10.883 12.135-18.058 28.189-20.202 45.204l-2.478 19.668c-2.13 16.901-1.59 33.935 1.606 50.627 3.491 18.236 9.964 35.348 19.239 50.859l11.858 19.833c13.613 22.767 36.36 36.36 60.849 36.36h36.379c24.488 0 47.235-13.593 60.848-36.359l12.008-20.085c9.174-15.343 15.577-32.27 19.032-50.311 3.235-16.896 3.782-34.116 1.628-51.202l-2.443-19.39c-2.144-17.016-9.319-33.069-20.203-45.205v.001l-.392-.437c-7.606-8.481-17.701-13.151-28.424-13.151h-17.302c-7.05 0-14.005 2.085-20.115 6.03l-.542.351c-13.746 8.875-30.825 8.876-44.57.001l-.543-.352c-6.109-3.945-13.065-6.03-20.114-6.03h-17.303z"/><path d="m127.887 215.5c-28.126-.005-54.226-14.444-69.829-38.626l-5.914-8.129c-.376-.518-.482-1.183-.286-1.791s.672-1.087 1.279-1.286l24.375-8.002c7.412-2.433 15.125-3.666 22.924-3.666h13.895c3.836 0 7.628 1.001 10.965 2.896 1.598.907 3.583.907 5.181.002 3.13-1.887 6.768-2.897 10.476-2.897h14.389c7.799 0 15.511 1.233 22.923 3.666l24.372 8.001c.607.199 1.083.678 1.279 1.286s.09 1.273-.286 1.791l-5.915 8.129c-15.606 24.182-41.705 38.621-69.828 38.626zm-70.893-46.888 4.331 5.953c.022.03.043.062.064.094 14.86 23.063 39.719 36.836 66.496 36.841 26.777-.005 51.636-13.777 66.497-36.841.021-.032.042-.063.064-.094l4.332-5.954-21.762-7.145c-7.008-2.301-14.301-3.467-21.675-3.467h-14.389c-2.98 0-5.904.813-8.457 2.35-2.861 1.622-6.359 1.623-9.175.024-2.736-1.553-5.845-2.374-8.991-2.374h-13.895c-7.375 0-14.667 1.166-21.676 3.467z"/></g><path d="m130.933 167.686c-.295-1.373-1.527-2.37-2.929-2.37-.212 0-.425.023-.632.067-1.617.346-2.651 1.943-2.306 3.562.023.107 2.247 10.804-.082 19.624-.205.775-.095 1.583.308 2.275s1.052 1.187 1.825 1.39c.251.067.509.101.769.101 1.359 0 2.552-.919 2.899-2.235 2.704-10.241.254-21.922.148-22.414z" fill="#f9cfcf"/></svg>