<?xml version="1.0" encoding="UTF-8" standalone="no"?>
<!DOCTYPE svg PUBLIC "-//W3C//DTD SVG 1.1//EN" "http://www.w3.org/Graphics/SVG/1.1/DTD/svg11.dtd">
<svg width="100%" height="100%" viewBox="0 0 512 512" version="1.1" xmlns="http://www.w3.org/2000/svg" xmlns:xlink="http://www.w3.org/1999/xlink" xml:space="preserve" xmlns:serif="http://www.serif.com/" style="fill-rule:evenodd;clip-rule:evenodd;stroke-linejoin:round;stroke-miterlimit:2;">
    <path d="M436.892,44.226L436.11,43.352C420.244,25.66 398.724,15.722 376.284,15.722L341.678,15.722C326.788,15.722 312.164,20.104 299.278,28.422L298.194,29.122C271.968,46.056 239.622,46.056 213.396,29.122L212.312,28.422C199.428,20.102 184.802,15.722 169.912,15.722L135.304,15.722C112.866,15.722 91.346,25.66 75.478,43.352L74.696,44.226C52.248,69.256 37.716,101.754 33.298,136.808L28.342,176.142C24.042,210.26 25.144,244.954 31.596,278.648C38.638,315.424 51.862,350.38 70.57,381.668L94.286,421.334C122.178,467.98 169.132,496 219.414,496L292.172,496C342.454,496 389.41,467.98 417.3,421.334L441.318,381.164C459.826,350.21 472.91,315.626 479.876,279.242L479.884,279.198C486.404,245.142 487.518,210.072 483.172,175.586L478.286,136.808C473.872,101.754 459.34,69.256 436.892,44.226Z" style="fill:rgb(249,167,167);fill-rule:nonzero;"/>
    <path d="M435.75,222.22L424.542,155.14C424.51,154.898 424.476,154.658 424.442,154.418C419.454,119.678 390.122,94.244 356.174,94.244L346.078,94.244C340.74,94.244 335.496,95.7 330.874,98.464C308.102,112.108 282.122,119.332 255.77,119.336C229.418,119.332 203.438,112.108 180.666,98.464C176.044,95.7 170.8,94.244 165.462,94.244L155.366,94.244C121.42,94.244 92.088,119.678 87.098,154.418C87.064,154.658 87.03,154.898 86.998,155.14L75.79,222.22C73.542,235.678 73.322,249.416 75.138,262.944C78.128,285.208 86.552,306.316 99.618,324.274L119.414,351.486C149.808,398.656 200.974,426.99 255.768,427L255.772,427C310.566,426.99 361.732,398.656 392.126,351.486L411.922,324.274C424.988,306.316 433.412,285.208 436.402,262.944C438.218,249.416 437.998,235.678 435.75,222.22Z" style="fill:rgb(70,113,198);fill-rule:nonzero;"/>
    <path d="M435.75,222.22L424.542,155.138C424.51,154.896 424.476,154.656 424.442,154.416C419.454,119.676 390.122,94.242 356.174,94.242L346.078,94.242C340.74,94.242 335.496,95.698 330.874,98.462C308.102,112.106 282.122,119.33 255.77,119.334C229.418,119.33 203.438,112.106 180.666,98.462C176.044,95.696 170.8,94.242 165.462,94.242L155.366,94.242C121.42,94.242 92.088,119.676 87.098,154.416C87.064,154.656 87.03,154.896 86.998,155.138L75.79,222.22C73.542,235.678 73.322,249.416 75.138,262.944C78.128,285.208 86.552,306.316 99.618,324.274L111.544,340.666L107.522,335.136L156.272,319.132C161.674,317.358 167.17,315.912 172.728,314.796L172.486,311.558C171.282,295.498 172.49,279.348 176.072,263.646C178.196,254.336 183.174,245.922 190.31,239.578C198.702,232.12 209.538,228 220.764,228L232.928,228C238.99,228 244.218,232.256 245.45,238.19C246.05,241.084 245.63,244.098 244.26,246.716L237.1,260.402C235.304,263.032 234.264,266.072 234.264,269.318C234.264,279.268 243.894,287.332 255.774,287.332C267.654,287.332 277.284,279.268 277.284,269.318C277.284,266.07 276.244,263.032 274.448,260.402L267.288,246.716C265.918,244.096 265.496,241.084 266.098,238.19C267.33,232.254 272.558,228 278.62,228L290.784,228C302.01,228 312.848,232.12 321.238,239.578C328.376,245.922 333.352,254.336 335.476,263.646C339.058,279.348 340.266,295.498 339.062,311.558L338.82,314.794C344.382,315.91 349.88,317.358 355.284,319.132L404.026,335.134L411.928,324.274C424.994,306.316 433.418,285.208 436.408,262.944C438.218,249.416 437.998,235.678 435.75,222.22Z" style="fill:rgb(249,207,207);fill-rule:nonzero;"/>
    <path d="M102.97,118.886C94.744,128.664 89.052,140.822 87.1,154.418C87.066,154.658 87.032,154.898 87,155.14L75.792,222.222C74.802,228.15 74.228,234.132 74.026,240.126L119.874,240.126C131.584,240.126 142.548,233.862 148.034,223.518C150.274,219.296 152.802,215.244 155.586,211.384L102.97,118.886Z" style="fill:rgb(224,235,252);fill-rule:nonzero;"/>
    <path d="M195.18,106.078C190.224,103.814 185.372,101.284 180.666,98.464C176.044,95.698 170.8,94.244 165.462,94.244L155.366,94.244C134.704,94.244 115.764,103.678 102.97,118.886L155.584,211.382C168.754,193.118 187.77,179.222 209.96,172.326L195.18,106.078Z" style="fill:rgb(224,235,252);fill-rule:nonzero;"/>
    <path d="M301.788,172.426L316.616,105.964C297.526,114.732 276.768,119.332 255.772,119.336C234.868,119.332 214.204,114.77 195.182,106.078L209.962,172.326C220.024,169.2 230.734,167.5 241.848,167.5L269.592,167.5C280.822,167.5 291.636,169.236 301.788,172.426Z" style="fill:rgb(224,235,252);fill-rule:nonzero;"/>
    <path d="M356.174,94.244L346.078,94.244C340.74,94.244 335.496,95.7 330.874,98.464C326.264,101.226 321.518,103.71 316.668,105.94L301.832,172.44C323.99,179.41 342.96,193.364 356.066,211.676L408.736,119.084C395.942,103.758 376.926,94.244 356.174,94.244Z" style="fill:rgb(224,235,252);fill-rule:nonzero;"/>
    <path d="M363.42,223.542C368.884,233.856 379.786,240.124 391.458,240.124L437.516,240.124C437.314,234.13 436.74,228.148 435.75,222.22L424.542,155.138C424.51,154.896 424.476,154.656 424.442,154.416C422.502,140.912 416.874,128.826 408.738,119.082L356.068,211.674C358.774,215.456 361.236,219.416 363.42,223.542Z" style="fill:rgb(224,235,252);fill-rule:nonzero;"/>
    <path d="M392.126,351.486L404.022,335.136L355.28,319.134C340.886,314.408 325.832,312 310.682,312L281.904,312C275.216,312 268.656,313.822 262.928,317.272C258.49,319.79 253.054,319.79 248.618,317.27C242.534,313.816 235.658,312 228.662,312L200.872,312C185.722,312 170.668,314.408 156.272,319.134L107.522,335.138L119.416,351.486C149.81,398.656 200.976,426.99 255.77,427L255.774,427C310.566,426.99 361.732,398.656 392.126,351.486Z" style="fill:rgb(249,167,167);fill-rule:nonzero;"/>
    <path d="M261.866,335.372C261.276,332.626 258.812,330.632 256.008,330.632C255.584,330.632 255.158,330.678 254.744,330.766C251.51,331.458 249.442,334.652 250.132,337.89C250.178,338.104 254.626,359.498 249.968,377.138C249.558,378.688 249.778,380.304 250.584,381.688C251.39,383.072 252.688,384.062 254.234,384.468C254.736,384.602 255.252,384.67 255.772,384.67C258.49,384.67 260.876,382.832 261.57,380.2C266.978,359.718 262.078,336.356 261.866,335.372Z" style="fill:rgb(249,207,207);fill-rule:nonzero;"/>
    <g>
        <path d="M74.024,244.126C72.94,244.126 71.902,243.686 71.148,242.908C70.396,242.126 69.99,241.076 70.026,239.992C70.238,233.72 70.85,227.52 71.844,221.562L83.138,153.854C85.132,139.962 90.93,126.98 99.908,116.312C100.75,115.31 102.014,114.794 103.332,114.902C104.634,115.022 105.798,115.772 106.444,116.908L159.058,209.406C159.832,210.768 159.742,212.454 158.826,213.724C156.132,217.456 153.69,221.382 151.564,225.39C145.438,236.946 133.294,244.124 119.87,244.124L74.024,244.126ZM102.468,126.094C96.474,134.646 92.558,144.528 91.056,154.984L90.962,155.67L79.734,222.878C79.016,227.178 78.51,231.618 78.222,236.124L119.872,236.122C130.326,236.122 139.762,230.574 144.498,221.642C146.396,218.06 148.53,214.542 150.854,211.156L102.468,126.094Z" style="fill:rgb(73,59,161);fill-rule:nonzero;"/>
        <path d="M155.584,215.382C155.512,215.382 155.44,215.38 155.368,215.376C154.008,215.304 152.78,214.544 152.106,213.36L99.494,120.864C98.666,119.408 98.832,117.592 99.91,116.312C113.846,99.746 134.058,90.244 155.366,90.244L165.462,90.244C171.514,90.244 177.48,91.9 182.718,95.032C187.174,97.702 191.924,100.194 196.844,102.442C197.982,102.964 198.812,103.986 199.086,105.21L213.866,171.458C214.32,173.492 213.138,175.53 211.15,176.15C190.184,182.666 171.604,196.01 158.83,213.726C158.074,214.768 156.866,215.382 155.584,215.382ZM107.854,119.38L156.078,204.162C168.858,188.43 186.04,176.366 205.268,169.662L191.706,108.874C187.162,106.726 182.766,104.382 178.61,101.894C174.614,99.506 170.068,98.242 165.462,98.242L155.366,98.242C137.334,98.242 120.168,105.914 107.854,119.38Z" style="fill:rgb(73,59,161);fill-rule:nonzero;"/>
        <path d="M301.788,176.426C301.386,176.426 300.982,176.366 300.588,176.242C290.572,173.096 280.142,171.5 269.59,171.5L241.846,171.5C231.396,171.5 221.066,173.062 211.146,176.146C210.078,176.48 208.92,176.35 207.954,175.786C206.988,175.226 206.298,174.286 206.054,173.196L191.274,106.948C190.944,105.466 191.482,103.924 192.66,102.97C193.838,102.014 195.458,101.81 196.84,102.438C215.296,110.872 235.672,115.33 255.768,115.334C275.958,115.33 296.42,110.832 314.942,102.326C316.32,101.688 317.944,101.894 319.126,102.85C320.308,103.808 320.846,105.348 320.516,106.832L305.688,173.294C305.444,174.388 304.754,175.328 303.784,175.888C303.174,176.244 302.484,176.426 301.788,176.426ZM241.848,163.5L269.592,163.5C279.5,163.5 289.31,164.806 298.814,167.388L311.014,112.704C293.436,119.672 274.496,123.33 255.772,123.334C237.14,123.33 218.286,119.706 200.78,112.802L212.94,167.298C222.34,164.778 232.046,163.5 241.848,163.5Z" style="fill:rgb(73,59,161);fill-rule:nonzero;"/>
        <path d="M356.068,215.676C354.782,215.676 353.57,215.056 352.816,214.004C340.108,196.25 321.576,182.844 300.634,176.256C298.652,175.63 297.478,173.596 297.93,171.568L312.766,105.068C313.038,103.85 313.864,102.826 315,102.304C319.8,100.098 324.45,97.652 328.82,95.032C334.062,91.898 340.028,90.24 346.08,90.24L356.176,90.24C377.588,90.24 397.866,99.818 411.808,116.516C412.878,117.798 413.04,119.608 412.214,121.058L359.546,213.652C358.872,214.838 357.64,215.598 356.278,215.668C356.208,215.674 356.136,215.676 356.068,215.676ZM306.524,169.788C325.726,176.556 342.862,188.67 355.586,204.436L403.86,119.568C391.532,105.982 374.306,98.242 356.176,98.242L346.08,98.242C341.474,98.242 336.926,99.506 332.928,101.896C328.864,104.332 324.572,106.626 320.144,108.73L306.524,169.788Z" style="fill:rgb(73,59,161);fill-rule:nonzero;"/>
        <path d="M437.516,244.126L391.458,244.124C378.096,244.124 366,236.954 359.884,225.416L359.884,225.414C357.814,221.506 355.436,217.666 352.814,214.006C351.906,212.736 351.818,211.056 352.59,209.7L405.258,117.106C405.906,115.968 407.072,115.218 408.378,115.1C409.69,114.998 410.964,115.514 411.804,116.52C420.68,127.15 426.418,140.06 428.398,153.85L428.484,154.466L439.692,221.564C440.686,227.518 441.298,233.718 441.512,239.994C441.548,241.078 441.144,242.128 440.39,242.908C439.638,243.686 438.6,244.126 437.516,244.126ZM366.956,221.668C371.678,230.584 381.068,236.124 391.458,236.124L433.318,236.126C433.03,231.618 432.524,227.178 431.806,222.878L420.598,155.798C420.592,155.76 420.568,155.594 420.562,155.558L420.482,154.98C418.994,144.62 415.132,134.816 409.226,126.316L360.794,211.458C363.046,214.766 365.112,218.19 366.956,221.668Z" style="fill:rgb(73,59,161);fill-rule:nonzero;"/>
        <path d="M111.546,344.666C110.31,344.666 109.09,344.096 108.308,343.02L104.286,337.49C104.272,337.47 104.256,337.448 104.244,337.43L96.384,326.628C82.962,308.18 74.244,286.344 71.174,263.478C69.302,249.534 69.528,235.434 71.844,221.562L83.138,153.854C88.346,117.586 119.396,90.242 155.364,90.242L165.46,90.242C171.512,90.242 177.478,91.898 182.716,95.03C204.882,108.312 230.14,115.332 255.768,115.336C281.394,115.332 306.654,108.31 328.816,95.032C334.056,91.9 340.024,90.242 346.076,90.242L356.172,90.242C392.14,90.242 423.192,117.586 428.398,153.848L428.484,154.464L439.692,221.562C442.01,235.432 442.236,249.534 440.364,263.478C437.292,286.346 428.574,308.182 415.154,326.628L407.252,337.49C406.232,338.896 404.422,339.482 402.77,338.938L354.028,322.936C348.804,321.222 343.418,319.804 338.024,318.72C336.046,318.322 334.672,316.512 334.822,314.5L335.064,311.264C336.24,295.59 335.064,279.87 331.568,264.542C329.618,255.994 325.124,248.396 318.572,242.574C310.904,235.76 301.032,232.006 290.776,232.006L278.612,232.006C274.468,232.006 270.848,234.952 270.008,239.01C269.596,240.992 269.886,243.074 270.826,244.87L277.884,258.358C280.106,261.696 281.278,265.484 281.278,269.324C281.278,281.462 269.834,291.338 255.768,291.338C241.702,291.338 230.258,281.462 230.258,269.324C230.258,265.48 231.43,261.694 233.652,258.358L240.71,244.868C241.648,243.076 241.94,240.992 241.528,239.01C240.686,234.952 237.068,232.006 232.924,232.006L220.76,232.006C210.504,232.006 200.632,235.76 192.962,242.574C186.41,248.396 181.918,255.994 179.966,264.544C176.47,279.868 175.296,295.586 176.47,311.264L176.714,314.502C176.864,316.514 175.492,318.324 173.512,318.722C168.11,319.808 162.726,321.226 157.516,322.936L113.984,337.228L114.776,338.316C116.076,340.104 115.682,342.606 113.896,343.904C113.186,344.418 112.364,344.666 111.546,344.666ZM155.366,98.242C123.35,98.242 95.704,122.636 91.058,154.984L90.964,155.67L79.736,222.878C77.55,235.96 77.338,249.26 79.104,262.41C81.998,283.966 90.212,304.544 102.854,321.92L109.042,330.428L155.022,315.332C159.42,313.888 163.932,312.642 168.476,311.616C167.27,295.222 168.514,278.786 172.168,262.76C174.492,252.576 179.844,243.526 187.648,236.588C196.782,228.47 208.542,224 220.76,224L232.924,224C240.84,224 247.754,229.626 249.362,237.378C250.148,241.168 249.592,245.142 247.798,248.57L240.636,262.258C240.564,262.394 240.484,262.528 240.396,262.656C238.976,264.736 238.256,266.978 238.256,269.318C238.256,277.044 246.11,283.332 255.766,283.332C265.422,283.332 273.276,277.044 273.276,269.318C273.276,266.98 272.556,264.738 271.136,262.656C271.05,262.528 270.97,262.394 270.896,262.256L263.736,248.57C261.942,245.142 261.388,241.168 262.172,237.378C263.78,229.626 270.692,224 278.61,224L290.774,224C302.992,224 314.752,228.47 323.886,236.588C331.692,243.526 337.046,252.576 339.366,262.76C343.022,278.788 344.264,295.222 343.058,311.612C347.6,312.64 352.114,313.888 356.52,315.332L402.494,330.426L408.682,321.92C421.324,304.544 429.538,283.966 432.432,262.41C434.198,249.26 433.984,235.958 431.8,222.878L431.8,222.876L420.592,155.796C420.586,155.758 420.562,155.592 420.556,155.556L420.476,154.978C415.83,122.636 388.184,98.242 356.168,98.242L346.072,98.242C341.466,98.242 336.918,99.506 332.92,101.896C309.52,115.918 282.838,123.332 255.764,123.336C228.688,123.332 202.006,115.918 178.602,101.894C174.606,99.506 170.06,98.242 165.454,98.242L155.366,98.242Z" style="fill:rgb(73,59,161);fill-rule:nonzero;"/>
        <path d="M292.172,500L219.414,500C167.596,500 119.536,471.36 90.852,423.386L67.136,383.72C48.106,351.892 34.826,316.794 27.668,279.4C21.118,245.19 20.01,210.278 24.376,175.642L29.332,136.306C33.822,100.676 48.876,67.024 71.72,41.556L72.504,40.68C89.01,22.276 111.9,11.722 135.306,11.722L169.912,11.722C185.554,11.722 200.966,16.336 214.482,25.064L215.568,25.766C240.382,41.79 271.212,41.788 296.026,25.764L297.11,25.064C310.626,16.336 326.038,11.722 341.68,11.722L376.284,11.722C399.69,11.722 422.58,22.276 439.088,40.682L439.872,41.554L439.872,41.556C462.716,67.026 477.77,100.676 482.26,136.306L487.146,175.086C491.558,210.094 490.438,245.376 483.818,279.95C476.724,316.998 463.584,351.728 444.756,383.218L420.738,423.388C392.05,471.36 343.99,500 292.172,500ZM135.304,19.722C113.856,19.722 93.668,29.062 78.456,46.022L77.672,46.898C55.906,71.168 41.556,103.276 37.268,137.306L32.312,176.642C28.052,210.444 29.132,244.512 35.524,277.896C42.506,314.368 55.452,348.592 74.002,379.614L97.718,419.28C124.944,464.814 170.438,492 219.416,492L292.174,492C341.15,492 386.644,464.814 413.87,419.282L437.886,379.112C456.234,348.426 469.04,314.572 475.95,278.49C482.42,244.698 483.514,210.258 479.206,176.086L474.32,137.306C470.032,103.274 455.682,71.168 433.914,46.896L433.914,46.898L433.13,46.024C417.918,29.062 397.728,19.722 376.282,19.722L341.678,19.722C327.578,19.722 313.668,23.892 301.448,31.782L300.364,32.484C272.872,50.234 238.714,50.236 211.224,32.486L210.138,31.782C197.92,23.892 184.008,19.722 169.91,19.722L135.304,19.722Z" style="fill:rgb(73,59,161);fill-rule:nonzero;"/>
        <path d="M255.774,431C199.522,430.99 147.322,402.112 116.116,353.748L104.288,337.49C103.536,336.454 103.324,335.124 103.716,333.908C104.108,332.692 105.06,331.734 106.274,331.336L155.024,315.332C169.848,310.466 185.274,308 200.872,308L228.662,308C236.334,308 243.918,310.002 250.592,313.792C253.788,315.606 257.758,315.606 260.954,313.796C267.214,310.022 274.49,308.002 281.906,308.002L310.684,308.002C326.282,308.002 341.706,310.468 356.53,315.334L405.274,331.336C406.488,331.734 407.44,332.692 407.832,333.908C408.224,335.124 408.012,336.454 407.26,337.49L395.43,353.748C364.218,402.112 312.02,430.99 255.774,431ZM113.988,337.224L122.65,349.13C122.694,349.19 122.736,349.254 122.778,349.318C152.498,395.444 202.216,422.99 255.77,423C309.324,422.99 359.042,395.446 388.764,349.318C388.806,349.254 388.848,349.192 388.892,349.13L397.556,337.222L354.032,322.932C340.016,318.33 325.43,315.998 310.682,315.998L281.904,315.998C275.944,315.998 270.096,317.624 264.99,320.698C259.268,323.942 252.272,323.944 246.64,320.746C241.168,317.64 234.95,315.998 228.658,315.998L200.868,315.998C186.118,315.998 171.534,318.33 157.516,322.932L113.988,337.224Z" style="fill:rgb(73,59,161);fill-rule:nonzero;"/>
    </g>
    <path d="M261.866,335.372C261.276,332.626 258.812,330.632 256.008,330.632C255.584,330.632 255.158,330.678 254.744,330.766C251.51,331.458 249.442,334.652 250.132,337.89C250.178,338.104 254.626,359.498 249.968,377.138C249.558,378.688 249.778,380.304 250.584,381.688C251.39,383.072 252.688,384.062 254.234,384.468C254.736,384.602 255.252,384.67 255.772,384.67C258.49,384.67 260.876,382.832 261.57,380.2C266.978,359.718 262.078,336.356 261.866,335.372Z" style="fill:rgb(73,59,161);fill-rule:nonzero;"/>
</svg>
