<?xml version="1.0" encoding="UTF-8" standalone="no"?>
<!DOCTYPE svg PUBLIC "-//W3C//DTD SVG 1.1//EN" "http://www.w3.org/Graphics/SVG/1.1/DTD/svg11.dtd">
<svg width="100%" height="100%" viewBox="0 0 512 512" version="1.1" xmlns="http://www.w3.org/2000/svg" xmlns:xlink="http://www.w3.org/1999/xlink" xml:space="preserve" xmlns:serif="http://www.serif.com/" style="fill-rule:evenodd;clip-rule:evenodd;stroke-linejoin:round;stroke-miterlimit:2;">
    <g>
        <path d="M422.862,395.728L89.138,395.728C59.911,395.728 36.001,419.638 36.001,448.86C36.001,478.087 59.911,501.997 89.138,501.997L422.862,501.997C452.089,501.997 475.999,478.087 475.999,448.86C475.999,419.638 452.089,395.728 422.862,395.728Z" style="fill:none;stroke:rgb(73,59,161);stroke-width:10px;"/>
        <path d="M89.517,357.353C89.517,372.4 95.899,386.037 106.11,395.728L405.89,395.728C416.472,385.685 422.487,371.9 422.487,357.353C422.487,328.127 398.405,304.217 368.972,304.217L143.028,304.217C113.595,304.217 89.517,328.127 89.517,357.353Z" style="fill:none;stroke:rgb(73,59,161);stroke-width:10px;"/>
        <path d="M147.243,304.217L365.738,304.217C384.046,267.49 370.546,210.362 299.109,191.354C249.551,178.171 246.871,138.39 250.617,113.269C252.156,102.945 244.883,97.96 233.942,105.96C175.637,148.608 176.461,195.932 196.543,230.467C167.11,230.467 143.028,254.377 143.028,283.604C143.028,290.9 144.532,297.869 147.243,304.217Z" style="fill:none;stroke:rgb(73,59,161);stroke-width:10px;"/>
    </g>
    <g transform="matrix(1,0,0,1,37.0463,-1.83685)">
        <path d="M52.47,168.185C52.47,168.185 48.399,176.102 52.47,192.201C56.315,207.403 52.47,215.506 52.47,219.488" style="fill:none;stroke:rgb(73,59,161);stroke-width:10px;stroke-linecap:round;stroke-miterlimit:1.5;"/>
    </g>
    <g transform="matrix(1,0,0,1,203.58,-156.828)">
        <path d="M52.47,168.185C52.47,168.185 48.399,176.102 52.47,192.201C56.315,207.403 52.47,215.506 52.47,219.488" style="fill:none;stroke:rgb(73,59,161);stroke-width:10px;stroke-linecap:round;stroke-miterlimit:1.5;"/>
    </g>
    <g transform="matrix(1,0,0,1,314.745,-46.7569)">
        <path d="M52.47,168.185C52.47,168.185 48.399,176.102 52.47,192.201C56.315,207.403 52.47,215.506 52.47,219.488" style="fill:none;stroke:rgb(73,59,161);stroke-width:10px;stroke-linecap:round;stroke-miterlimit:1.5;"/>
    </g>
</svg>
