<?xml version="1.0" encoding="UTF-8" standalone="no"?>
<!DOCTYPE svg PUBLIC "-//W3C//DTD SVG 1.1//EN" "http://www.w3.org/Graphics/SVG/1.1/DTD/svg11.dtd">
<svg width="100%" height="100%" viewBox="0 0 512 512" version="1.1" xmlns="http://www.w3.org/2000/svg" xmlns:xlink="http://www.w3.org/1999/xlink" xml:space="preserve" xmlns:serif="http://www.serif.com/" style="fill-rule:evenodd;clip-rule:evenodd;stroke-linejoin:round;stroke-miterlimit:2;">
    <g transform="matrix(0.818679,0,0,0.818679,102.83,-11.6487)">
        <g>
            <path d="M499.793,495.046L465.547,480.127L377.049,391.968L386.882,382.135L499.793,495.046Z" style="fill-rule:nonzero;"/>
            <path d="M386.882,314.321L309.573,391.63C304.487,396.716 296.688,396.716 291.602,391.63L76.63,176.996L171.909,81.717L386.543,296.35C391.629,301.436 391.629,309.234 386.882,314.321Z" style="fill-rule:nonzero;"/>
        </g>
        <path d="M375.354,325.849L320.763,380.101L329.24,388.578C334.326,393.664 342.125,393.664 347.211,388.578L383.831,351.958C388.917,346.872 388.917,339.073 383.831,333.987L375.354,325.849Z" style="fill-rule:nonzero;"/>
        <g transform="matrix(0.7071,-0.7071,0.7071,0.7071,-159.792,378.974)">
            <rect x="357.561" y="365.419" width="40.01" height="33.907"/>
        </g>
        <path d="M179.37,74.257L69.51,184.456C62.729,191.237 62.729,202.088 69.51,208.53C76.291,215.311 87.142,215.311 93.584,208.53L203.444,98.67C210.225,91.889 210.225,81.038 203.444,74.596C197.001,67.815 186.151,67.815 179.37,74.257Z" style="fill-rule:nonzero;"/>
        <g transform="matrix(0.7071,-0.7071,0.7071,0.7071,-43.5203,98.0851)">
            <rect x="49" y="62.414" width="95.279" height="78.325"/>
        </g>
        <g transform="matrix(0.7071,-0.7071,0.7071,0.7071,-29.9434,65.4962)">
            <rect x="-6.268" y="61.942" width="140.714" height="13.902"/>
        </g>
        <g>
            <g transform="matrix(0.7071,-0.7071,0.7071,0.7071,-89.3932,159.451)">
                <rect x="119.126" y="183.394" width="57.303" height="8.477" style="fill:white;"/>
            </g>
            <g transform="matrix(0.7071,-0.7071,0.7071,0.7071,-107.024,177.951)">
                <rect x="144.51" y="213.926" width="33.568" height="8.477" style="fill:white;"/>
            </g>
            <g transform="matrix(0.7071,-0.7071,0.7071,0.7071,-108.048,203.788)">
                <rect x="163.318" y="228.082" width="57.303" height="8.477" style="fill:white;"/>
            </g>
            <g transform="matrix(0.7071,-0.7071,0.7071,0.7071,-125.712,222.751)">
                <rect x="189.245" y="258.885" width="33.568" height="8.477" style="fill:white;"/>
            </g>
            <g transform="matrix(0.7071,-0.7071,0.7071,0.7071,-126.499,248.488)">
                <rect x="208.051" y="272.703" width="57.303" height="8.477" style="fill:white;"/>
            </g>
            <g transform="matrix(0.7071,-0.7071,0.7071,0.7071,-144.128,267.465)">
                <rect x="234.011" y="303.473" width="33.568" height="8.477" style="fill:white;"/>
            </g>
            <g transform="matrix(0.7071,-0.7071,0.7071,0.7071,-144.916,293.202)">
                <rect x="252.817" y="317.292" width="57.303" height="8.477" style="fill:white;"/>
            </g>
            <g transform="matrix(0.7071,-0.7071,0.7071,0.7071,-162.545,312.18)">
                <rect x="278.777" y="348.061" width="33.568" height="8.477" style="fill:white;"/>
            </g>
        </g>
    </g>
    <g transform="matrix(0.482758,0,0,0.5296,75.7834,166.165)">
        <g transform="matrix(1.22148,0,0,1.22148,-125.605,14.2286)">
            <path d="M25.451,235.988L25.451,402.98L231.1,402.98L231.11,402.99L325.436,333.473L325.436,235.988L25.451,235.988Z" style="fill-rule:nonzero;"/>
        </g>
        <g transform="matrix(1.22148,0,0,1.22148,-125.605,14.2286)">
            <path d="M476.668,326.983C495.911,360.326 484.68,403.178 451.049,422.598L392.752,456.256L322.756,335.022C400.568,290.096 376.197,304.168 381.053,301.364C414.531,282.036 457.339,293.505 476.668,326.983Z" style="fill-rule:nonzero;"/>
        </g>
        <g transform="matrix(1.22148,0,0,1.22148,-125.605,14.2286)">
            <path d="M322.756,335.023L392.752,456.257L329.815,492.595C296.337,511.924 253.529,500.455 234.2,466.976C214.744,433.184 226.593,390.553 259.819,371.361L322.756,335.023Z" style="fill-rule:nonzero;"/>
        </g>
        <g transform="matrix(1.22148,0,0,1.22148,-125.605,14.2286)">
            <path d="M265.439,135.993L317.436,205.319C322.626,212.249 325.436,220.668 325.436,229.318L325.436,235.988L25.451,235.988L25.451,229.318C25.451,220.668 28.261,212.249 33.451,205.319L85.448,135.993L85.448,95.995L265.439,95.995L265.439,135.993Z" style="fill-rule:nonzero;"/>
        </g>
        <g transform="matrix(1.22148,0,0,1.22148,-125.605,14.2286)">
            <path d="M285.438,29.998L285.438,75.996C285.438,87.045 276.488,95.995 265.439,95.995L85.448,95.995C74.399,95.995 65.449,87.045 65.449,75.996L65.449,29.998C65.449,18.949 74.399,9.999 85.448,9.999L265.439,9.999C276.488,9.999 285.438,18.949 285.438,29.998Z" style="fill-rule:nonzero;"/>
        </g>
        <g transform="matrix(1.22148,0,0,1.22148,-125.605,14.2286)">
            <path d="M231.11,402.99L231.1,402.98L25.451,402.98L25.451,422.979C25.451,445.068 43.36,462.977 65.449,462.977L232.05,462.977L232.06,462.967L231.11,402.99Z" style="fill-rule:nonzero;"/>
        </g>
        <g transform="matrix(1.22148,0,0,1.22148,-125.605,14.2286)">
            <path d="M125.696,145.993C131.216,145.993 135.695,141.513 135.695,135.994C135.695,130.474 131.215,125.995 125.696,125.995C120.176,125.995 115.697,130.475 115.697,135.994C115.696,141.513 120.176,145.993 125.696,145.993Z" style="fill:white;fill-rule:nonzero;"/>
        </g>
        <g transform="matrix(1.95442,0,0,1.95442,-254.378,-222.499)">
            <path d="M215.691,312.984L185.693,312.984L185.693,282.986C185.693,277.464 181.215,272.987 175.694,272.987C170.173,272.987 165.695,277.465 165.695,282.986L165.695,312.984L135.697,312.984C130.175,312.984 125.698,317.462 125.698,322.984C125.698,328.506 130.176,332.983 135.697,332.983L165.695,332.983L165.695,362.981C165.695,368.503 170.173,372.98 175.694,372.98C181.215,372.98 185.693,368.502 185.693,362.981L185.693,332.983L215.691,332.983C221.213,332.983 225.69,328.505 225.69,322.984C225.691,317.462 221.214,312.984 215.691,312.984Z" style="fill:white;fill-rule:nonzero;"/>
        </g>
    </g>
</svg>
