<?xml version="1.0" encoding="UTF-8" standalone="no"?>
<!DOCTYPE svg PUBLIC "-//W3C//DTD SVG 1.1//EN" "http://www.w3.org/Graphics/SVG/1.1/DTD/svg11.dtd">
<svg width="100%" height="100%" viewBox="0 0 512 512" version="1.1" xmlns="http://www.w3.org/2000/svg" xmlns:xlink="http://www.w3.org/1999/xlink" xml:space="preserve" xmlns:serif="http://www.serif.com/" style="fill-rule:evenodd;clip-rule:evenodd;stroke-linejoin:round;stroke-miterlimit:2;">
    <path d="M81.528,280.703C89.398,274.306 107.243,266.444 122.22,276.051C137.196,285.659 166.821,322.573 166.821,322.573L167.491,50.406C167.491,50.406 167.175,30.738 188.169,30.738C209.164,30.738 211.132,49.184 211.132,49.184L211.266,197.323C211.266,197.323 211.434,210.112 226.594,210.112C241.754,210.112 241.03,198.01 241.03,198.01L242.898,17.719C242.898,17.719 245.775,0 262.159,0C278.544,0 284.39,18.479 284.531,18.479C284.673,18.479 284.531,197.807 284.531,197.807C284.531,197.807 286.217,210.466 302.877,210.466C319.537,210.466 316.516,198.389 316.516,198.389L316.784,47.202C316.784,47.202 320.153,29.622 337.244,29.888C353.147,30.136 359.417,37.236 360.783,46.801C364.826,75.11 361.503,199.742 361.503,199.742C361.503,199.742 362.417,210.017 377.508,210.017C392.599,210.017 390.903,199.818 390.903,199.818L392.352,77.1C392.352,77.1 396.586,59.738 415.634,60.077C434.682,60.416 437,75.385 437,75.385L437,388.348C437,388.348 426.187,511.701 312.758,512C223.484,512.235 171.227,422.88 171.227,422.88C171.227,422.88 88.958,338.633 75,314.431C68.535,303.22 73.658,287.1 81.528,280.703Z"/>
    <g transform="matrix(0.447448,0,0,0.447448,191.686,231.965)">
        <path d="M380.332,180.062C379.125,181.489 378.737,183.452 379.435,185.186C379.558,185.49 379.687,185.76 379.82,185.96C394.22,207.23 404.3,231.67 408.82,258L410,258C418.7,258 426.58,261.52 432.28,267.22C437.831,272.771 441.315,280.391 441.493,288.821C441.866,306.516 427.019,321 409.321,321L408.82,321C404.08,348.62 393.22,374.15 377.69,396.14L378.53,396.98C384.68,403.13 387.76,411.19 387.76,419.26C387.76,427.11 384.838,434.961 379.004,441.046C366.755,453.822 346.012,453.564 333.498,441.047L333.14,440.689C311.15,456.219 285.62,467.079 258,471.819L258,473C258,481.7 254.48,489.58 248.78,495.28C243.229,500.831 235.61,504.315 227.179,504.493C209.485,504.867 195,490.02 195,472.321L195,471.82C167.38,467.08 141.85,456.22 119.86,440.69L119.02,441.53C112.87,447.68 104.81,450.76 96.74,450.76C88.89,450.76 81.039,447.838 74.954,442.004C62.178,429.755 62.436,409.013 74.952,396.499L75.31,396.141C59.78,374.15 48.92,348.62 44.18,321L43,321C34.3,321 26.42,317.48 20.72,311.78C15.169,306.229 11.685,298.609 11.507,290.179C11.134,272.485 25.981,258 43.679,258L44.18,258C48.92,230.38 59.78,204.85 75.31,182.86L74.47,182.02C68.32,175.87 65.24,167.81 65.24,159.74C65.24,151.89 68.162,144.04 73.996,137.954C86.245,125.177 106.988,125.436 119.503,137.952L119.861,138.31C141.851,122.78 167.381,111.92 195.001,107.18L195.001,106C195.001,97.3 198.521,89.42 204.221,83.72C209.772,78.169 217.391,74.685 225.822,74.507C243.515,74.134 258,88.98 258,106.679L258,107.18C282.48,111.38 305.31,120.39 325.49,133.19C326.839,134.044 329.087,135.17 330.93,136.053C332.652,136.877 334.717,136.678 336.187,135.461C336.627,135.097 337.075,134.746 337.53,134.409C341.287,131.628 342.65,126.707 340.852,122.393C340.278,121.014 339.74,119.617 339.24,118.2C336.17,109.54 334.5,100.21 334.5,90.5C334.5,67.58 343.79,46.83 358.81,31.81C373.83,16.79 394.58,7.5 417.5,7.5C440.42,7.5 461.17,16.79 476.19,31.81C491.21,46.83 500.5,67.58 500.5,90.5C500.5,113.42 491.21,134.17 476.19,149.19C461.17,164.21 440.42,173.5 417.5,173.5C409.76,173.5 402.26,172.44 395.16,170.45L395.1,170.433C390.631,169.2 385.961,171.234 383.675,175.267C382.726,176.943 381.611,178.549 380.332,180.062Z" style="fill:white;fill-rule:nonzero;"/>
    </g>
    <g transform="matrix(0.447448,0,0,0.447448,191.686,231.965)">
        <path d="M226.5,444.5C140.896,444.5 71.5,375.104 71.5,289.5C71.5,203.896 140.896,134.5 226.5,134.5C312.104,134.5 381.5,203.896 381.5,289.5C381.5,375.104 312.104,444.5 226.5,444.5Z" style="fill-rule:nonzero;"/>
    </g>
    <g transform="matrix(0.447448,0,0,0.447448,191.686,231.965)">
        <path d="M293.5,371.5C268.647,371.5 248.5,351.353 248.5,326.5C248.5,301.647 268.647,281.5 293.5,281.5C318.353,281.5 338.5,301.647 338.5,326.5C338.5,351.353 318.353,371.5 293.5,371.5Z" style="fill:white;fill-rule:nonzero;"/>
    </g>
    <g transform="matrix(0.447448,0,0,0.447448,191.686,231.965)">
        <path d="M193,247.5C180.574,247.5 170.5,237.426 170.5,225C170.5,212.574 180.574,202.5 193,202.5C205.426,202.5 215.5,212.574 215.5,225C215.5,237.427 205.426,247.5 193,247.5Z" style="fill:white;fill-rule:nonzero;"/>
    </g>
    <g transform="matrix(0.447448,0,0,0.447448,191.686,231.965)">
        <path d="M182.5,399.5C168.693,399.5 157.5,388.307 157.5,374.5C157.5,360.693 168.693,349.5 182.5,349.5C196.307,349.5 207.5,360.693 207.5,374.5C207.5,388.307 196.307,399.5 182.5,399.5Z" style="fill:white;fill-rule:nonzero;"/>
    </g>
    <g transform="matrix(0.447448,0,0,0.447448,191.686,231.965)">
        <path d="M121.5,304.5C113.216,304.5 106.5,297.784 106.5,289.5C106.5,281.216 113.216,274.5 121.5,274.5C129.784,274.5 136.5,281.216 136.5,289.5C136.5,297.784 129.784,304.5 121.5,304.5Z" style="fill:white;fill-rule:nonzero;"/>
    </g>
    <g transform="matrix(0.447448,0,0,0.447448,191.686,231.965)">
        <path d="M402,78C393.716,78 387,71.284 387,63C387,54.716 393.716,48 402,48C410.284,48 417,54.716 417,63C417,71.284 410.284,78 402,78Z" style="fill-rule:nonzero;"/>
    </g>
    <g transform="matrix(0.447448,0,0,0.447448,191.686,231.965)">
        <path d="M422,138C413.716,138 407,131.284 407,123C407,114.716 413.716,108 422,108C430.284,108 437,114.716 437,123C437,131.284 430.284,138 422,138Z" style="fill-rule:nonzero;"/>
    </g>
</svg>
