<?xml version="1.0" encoding="UTF-8" standalone="no"?>
<!DOCTYPE svg PUBLIC "-//W3C//DTD SVG 1.1//EN" "http://www.w3.org/Graphics/SVG/1.1/DTD/svg11.dtd">
<svg width="100%" height="100%" viewBox="0 0 512 512" version="1.1" xmlns="http://www.w3.org/2000/svg" xmlns:xlink="http://www.w3.org/1999/xlink" xml:space="preserve" xmlns:serif="http://www.serif.com/" style="fill-rule:evenodd;clip-rule:evenodd;stroke-linejoin:round;stroke-miterlimit:2;">
    <path d="M0,378.418L512,378.418L512.001,512L0,512L0,378.418Z"/>
    <g transform="matrix(1.11925,0,0,1.18177,-19.2546,-143.146)">
        <path d="M71.754,286.003C71.754,319.147 98.898,346.002 131.752,346.002C164.606,346.002 191.752,319.149 191.752,286.003L191.752,248.503L71.754,248.503L71.754,286.003Z"/>
        <path d="M191.752,248.503C200.002,248.503 206.752,241.753 206.752,233.503L206.752,216.003C206.752,191.253 186.502,171.003 161.752,171.003L86.754,171.003C78.504,171.003 71.754,177.753 71.754,186.003C63.504,186.003 56.754,192.753 56.754,201.003L56.754,248.502L191.752,248.502L191.752,248.503Z"/>
        <path d="M71.754,286.003L71.754,248.503L56.754,248.503C48.505,248.503 41.754,255.254 41.754,263.503L41.754,271.003C41.754,279.253 48.504,286.003 56.754,286.003L71.754,286.003ZM191.752,248.503L191.752,286.003L206.752,286.003C215.002,286.003 221.752,279.253 221.752,271.003L221.752,263.503C221.752,255.253 215.002,248.503 206.752,248.503L191.752,248.503Z"/>
        <path d="M161.751,337.91C152.913,343.052 142.66,346.002 131.752,346.002C120.844,346.002 110.591,343.051 101.752,337.907L101.752,368.501L131.752,398.501L161.751,368.501L161.751,337.91Z"/>
        <path d="M109.252,171.004L86.753,171.004C78.503,171.004 71.753,177.754 71.753,186.004C63.503,186.004 56.753,192.754 56.753,201.004L56.753,248.503L79.253,248.503L79.253,208.503C79.253,200.253 86.003,193.503 94.253,193.503C94.253,185.253 101.002,178.503 109.252,178.503L109.252,171.004Z"/>
        <path d="M71.754,286.003C71.754,323.651 106.326,351.971 143.002,344.93C115.425,339.634 94.254,315.273 94.254,286.003L94.254,248.503L71.754,248.503L71.754,286.003Z"/>
        <path d="M124.251,345.532C116.147,344.51 108.533,341.854 101.751,337.907L101.751,368.501L124.251,391.001L124.251,345.532Z"/>
        <path d="M94.047,439.971L131.752,398.501L101.752,368.501L63.036,377.539L94.047,439.971Z"/>
        <path d="M131.752,398.501L168.141,438.524L198.645,377.114L161.837,368.521L131.752,398.501Z"/>
        <path d="M198.645,377.114L168.141,438.524L131.752,398.501L131.752,504.5L256,504.5L256,413.501C256,397.002 242.067,387.252 226,383.501L198.645,377.114Z"/>
        <path d="M131.752,504.5L131.752,398.501L94.048,439.971L63.037,377.54L37.504,383.501C21.438,387.252 7.505,397.001 7.505,413.501L7.505,504.5L131.752,504.5Z"/>
        <path d="M30.004,385.766C17.335,390.545 7.504,399.641 7.504,413.5L7.504,504.499L30.004,504.499L30.004,385.766Z"/>
    </g>
    <g transform="matrix(1.11925,0,0,1.18177,-52.6566,-143.146)">
        <path d="M395.248,368.501C427.917,368.501 455.248,341.837 455.248,308.502L455.248,271.003L425.248,271.003C408.749,271.003 395.249,257.503 395.249,241.003C395.249,257.503 381.749,271.003 365.249,271.003L335.25,271.003L335.25,308.502C335.249,341.835 362.578,368.501 395.248,368.501Z"/>
        <path d="M320.249,308.502L335.249,308.502L335.249,271.003L320.249,271.003C312.001,271.003 305.249,277.754 305.249,286.003L305.249,293.502C305.25,301.751 311.999,308.502 320.249,308.502ZM455.247,271.003L455.247,308.502L470.247,308.502C478.435,308.502 485.145,301.852 485.245,293.687L485.245,286.003C485.245,277.753 478.498,271.003 470.247,271.003L455.247,271.003Z"/>
        <path d="M320.249,271.003L365.248,271.003C381.748,271.003 395.248,257.503 395.248,241.003C395.248,257.503 408.748,271.003 425.247,271.003L470.247,271.003C478.434,271.003 485.145,277.653 485.245,285.818L485.245,265.74C485.245,216.243 444.746,175.741 395.248,175.741C345.75,175.741 305.25,216.241 305.25,265.74L305.25,286.003C305.25,277.753 312.001,271.003 320.249,271.003Z"/>
        <path d="M470.247,308.502L455.247,308.502C455.247,330.591 443.15,349.992 425.253,360.405L455.246,357.628C471.673,356.108 485.244,344.26 485.244,327.762L485.244,293.687C485.145,301.852 478.435,308.502 470.247,308.502ZM365.242,360.405C347.347,349.992 335.249,330.591 335.249,308.502L320.249,308.502C311.999,308.502 305.249,301.752 305.249,293.502L305.249,327.762C305.249,344.262 318.821,356.107 335.248,357.628L365.242,360.405Z"/>
        <path d="M320.249,271.003L327.749,271.003C327.749,222.989 357.317,182.651 406.497,176.448C353.078,169.713 305.249,211.655 305.249,265.74L305.249,286.003C305.25,277.753 312.001,271.003 320.249,271.003Z"/>
        <path d="M406.497,367.426C379.038,362.142 357.748,337.92 357.748,308.502L357.748,271.003L335.249,271.003L335.249,308.502C335.249,346.142 369.833,374.478 406.497,367.426Z"/>
        <path d="M285.999,435.999L285.999,504.5L395.247,504.5L395.247,458.001C362.821,458.001 336.408,432.277 335.29,400.124L315.998,406C300.215,410.807 285.999,419.5 285.999,435.999Z"/>
        <path d="M335.29,400.124C336.408,432.277 362.821,458.001 395.247,458.001C427.672,458.001 454.086,432.277 455.204,400.124L425.246,391L425.248,360.407C416.409,365.55 406.156,368.5 395.247,368.5C384.338,368.5 374.086,365.549 365.247,360.405L365.247,391L335.29,400.124Z"/>
        <path d="M455.205,400.124C454.087,432.277 427.673,458.001 395.248,458.001L395.248,504.5L504.496,504.5L504.496,435.999C504.496,419.499 490.279,410.807 474.497,406L455.205,400.124Z"/>
        <path d="M285.999,435.999L285.999,504.5L308.498,504.5L308.498,408.663C295.979,413.833 285.999,422.175 285.999,435.999Z"/>
    </g>
</svg>
