<?xml version="1.0" encoding="UTF-8" standalone="no"?>
<!DOCTYPE svg PUBLIC "-//W3C//DTD SVG 1.1//EN" "http://www.w3.org/Graphics/SVG/1.1/DTD/svg11.dtd">
<svg width="100%" height="100%" viewBox="0 0 512 512" version="1.1" xmlns="http://www.w3.org/2000/svg" xmlns:xlink="http://www.w3.org/1999/xlink" xml:space="preserve" xmlns:serif="http://www.serif.com/" style="fill-rule:evenodd;clip-rule:evenodd;stroke-linejoin:round;stroke-miterlimit:2;">
    <g>
        <path d="M453.703,180.001C453.703,169.355 437.936,162.756 409.71,142.981C399.284,135.676 392.329,125.056 392.329,112.232C392.329,80.676 379.84,53.602 358.306,33.954L184.622,250.89C191.057,260.928 204.36,278.952 217.652,296.515C214.962,435.813 189.576,463.078 179.674,512L383.481,512C390.288,512 393.769,503.834 389.054,498.923L337.939,445.677L337.939,402.618L327.557,334.847C327.557,334.847 406.783,327.758 437.507,309.902C442.426,295.529 443.471,272.362 442.15,247.411L440.949,230.756C440.27,223.222 439.41,215.664 438.412,208.27C448.964,196.288 453.703,189.391 453.703,180.001Z" style="fill-rule:nonzero;"/>
        <path d="M285.842,289.936C286.105,289.747 286.36,289.561 286.604,289.384C290.047,286.865 290.796,282.031 288.277,278.587C285.758,275.143 280.924,274.391 277.479,276.914C256.867,291.993 211.066,270.676 195.696,246.705L184.623,250.891L162.098,290.664C182.345,310.28 198.617,329.701 198.617,357.771C198.617,413.317 162.789,454.768 150.826,502.39C149.6,507.269 153.296,512.001 158.325,512.001L179.675,512.001C190.136,460.313 227.804,417.067 227.804,361.569C276.378,392.11 312.475,401.695 337.941,402.619L337.941,344.043C337.941,344.043 407.936,338.958 429.694,322.453C432.978,319.962 435.549,315.627 437.509,309.903C357.636,335.64 310.445,321.695 285.842,289.936Z" style="fill-rule:nonzero;"/>
        <path d="M247.377,223.407C244.584,223.407 241.887,221.887 240.511,219.236C237.561,213.545 232.685,209.303 226.781,207.291C220.994,205.319 214.908,205.738 209.64,208.47C205.85,210.436 201.188,208.955 199.225,205.167C197.26,201.379 198.739,196.715 202.527,194.752C211.572,190.061 221.955,189.322 231.766,192.664C241.459,195.968 249.437,202.879 254.23,212.124C256.195,215.913 254.715,220.575 250.927,222.539C249.79,223.128 248.574,223.407 247.377,223.407Z" style="fill-rule:nonzero;"/>
        <path d="M440.947,230.756C439.988,231.288 439.003,231.822 438.074,232.304C428.942,237.04 412.941,236.89 400.027,231.947C396.04,230.421 391.575,232.418 390.048,236.402C388.524,240.387 390.517,244.854 394.503,246.379C402.944,249.61 412.146,251.221 420.879,251.221C428.627,251.221 435.997,249.942 442.148,247.412C441.858,241.922 441.451,236.345 440.947,230.756Z" style="fill:white;fill-rule:nonzero;"/>
        <path d="M172.637,259.36L345.006,23.542C322.713,8.563 293.682,0 260.361,0C181.771,0 131.865,31.499 106.064,73.911C101.506,88.357 94.143,103.418 94.143,118.408C94.143,187.398 141.072,228.78 172.637,259.36Z" style="fill-rule:nonzero;"/>
        <path d="M345.006,23.542L172.637,249.059C168.917,245.454 165.054,241.842 161.135,238.162L222.639,74.465C224.14,70.471 222.117,66.015 218.123,64.514C214.131,63.013 209.674,65.034 208.173,69.029L148.987,226.556C123.503,201.473 99.293,170.925 99.293,118.407C99.293,103.417 101.505,88.356 106.063,73.91C91.475,97.89 84.589,125.357 84.589,152.595C84.589,225.501 128.74,258.346 162.096,290.663L358.307,33.954C354.197,30.204 349.751,26.73 345.006,23.542Z" style="fill-rule:nonzero;"/>
        <path d="M145.652,279.133C113.893,259.229 92.964,262.151 67.495,289.945C99.678,325.255 127.084,319.561 145.652,279.133Z" style="fill-rule:nonzero;"/>
        <path d="M145.652,279.133C119.861,309.925 100.341,312.651 67.495,289.945C65.051,292.614 62.565,295.507 60.024,298.634C57.233,302.067 57.898,307.169 61.49,309.75C104.439,340.603 127.746,335.606 162.097,290.663C156.283,286.219 150.825,282.375 145.652,279.133Z" style="fill-rule:nonzero;"/>
        <g>
            <path d="M392.323,111.672C392.297,106.295 391.907,101.05 391.172,95.951C369.231,92.485 334.065,102.357 322.358,113.009C319.202,115.881 318.971,120.767 321.842,123.924C323.367,125.599 325.46,126.451 327.559,126.451C329.415,126.451 331.276,125.786 332.757,124.439C341.667,116.333 374.133,107.984 390.393,111.512C391.043,111.65 391.689,111.695 392.323,111.672Z" style="fill:white;fill-rule:nonzero;"/>
            <path d="M361.585,179.152C355.614,179.152 344.82,178.375 339.618,173.173C336.6,170.156 336.6,165.264 339.618,162.247C342.567,159.299 347.306,159.231 350.336,162.046C353.981,164.218 369.193,164.217 372.836,162.046C375.866,159.232 380.605,159.299 383.554,162.247C386.571,165.265 386.571,170.157 383.554,173.173C378.353,178.375 367.557,179.152 361.585,179.152Z" style="fill:white;fill-rule:nonzero;"/>
        </g>
    </g>
</svg>
