<svg id="Layer_1" enable-background="new 0 0 128 128" height="512" viewBox="0 0 128 128" width="512" xmlns="http://www.w3.org/2000/svg"><g><path d="m121.003 15.12c-8.672-8.12-14.785-4.534-21.254-.739-3.443 2.021-7.003 4.109-11.242 4.61-3.061.359-6.28-1.434-9.126-3.018-1.551-.864-3.017-1.68-4.414-2.153-1.025-.347-4.705-1.48-8.967-1.48s-7.941 1.133-8.967 1.48c-1.397.473-2.863 1.289-4.414 2.153-2.844 1.583-6.067 3.379-9.126 3.018-4.239-.5-7.799-2.589-11.242-4.61-6.47-3.796-12.581-7.381-21.254.739-8.233 7.707.254 26.306 3.392 32.431-.133.66-.221 1.348-.238 2.072-.077 3.186 1.011 6.583 3.062 9.565 2.052 2.982 4.835 5.212 7.838 6.28 1.268.451 2.514.674 3.701.674 1.731 0 3.339-.476 4.706-1.417.564-.388 1.067-.844 1.509-1.357.536.047 1.064.078 1.573.078 3.215 0 5.888-.934 7.966-2.786 2.512-2.24 3.602-5.341 4.078-7.644.533.858 1.084 1.702 1.63 2.536 2.377 3.628 4.621 7.056 4.371 10.374-.222 2.938-1.854 4.56-3.921 6.614-2.909 2.891-6.53 6.489-7.006 15.11-.794 14.391 9.146 32.829 9.57 33.606.175.322.512.522.878.522h23.789c.366 0 .703-.2.878-.522.424-.778 10.364-19.216 9.57-33.606-.476-8.622-4.097-12.22-7.006-15.11-2.066-2.054-3.699-3.677-3.921-6.614-.25-3.318 1.994-6.746 4.371-10.374.552-.843 1.109-1.698 1.648-2.565.472 2.306 1.561 5.424 4.084 7.674 2.078 1.853 4.75 2.786 7.965 2.786.503 0 1.023-.031 1.552-.076.441.512.944.968 1.507 1.356 1.367.941 2.975 1.417 4.706 1.417 1.188 0 2.434-.224 3.701-.674 3.003-1.067 5.786-3.298 7.838-6.28 2.051-2.982 3.139-6.379 3.062-9.565-.018-.724-.105-1.412-.238-2.072 3.137-6.127 11.624-24.726 3.391-32.433zm-77.829 44.048c-1.764 1.573-4.112 2.327-6.972 2.266.585-1.254.917-2.701.956-4.294.077-3.186-1.01-6.583-3.062-9.565-2.559-3.721-6.175-6.093-9.665-6.742-2.573-4.134-6.246-11.448-3.448-13.779 1.526-1.276 3.662.255 7.014 2.864 1.951 1.519 4.162 3.241 6.593 4.362 3.974 1.835 8.079 1.31 10.278.794-.382 2.624-.82 7.944.92 12.532.33.871.725 1.719 1.155 2.552-.056 1.183-.486 6.082-3.769 9.01zm45.685.008c-3.327-2.959-3.731-7.976-3.78-9.064.421-.818.808-1.651 1.132-2.507 1.74-4.587 1.302-9.908.92-12.532 2.198.516 6.304 1.042 10.278-.794 2.431-1.122 4.642-2.843 6.593-4.362 3.352-2.608 5.485-4.139 7.014-2.864 2.795 2.329-.878 9.645-3.45 13.78-3.489.649-7.104 3.021-9.663 6.742-2.052 2.982-3.139 6.379-3.062 9.565.039 1.594.371 3.041.956 4.295-2.848.057-5.18-.696-6.938-2.259z" fill="#e6e7e8"/><g><g><path d="m116.319 11.85c-12.616-11.811-19.194 2.658-31.695 4.134-5.072.599-10.049-3.888-13.977-5.217-2.092-.707-5.369-1.427-8.647-1.427s-6.555.72-8.647 1.427c-3.929 1.329-8.906 5.816-13.977 5.217-12.501-1.476-19.08-15.944-31.696-4.134-7.82 7.32.881 25.957 3.764 31.556.457-1.89 1.445-3.494 2.973-4.545 1.551-1.067 3.434-1.414 5.394-1.143-2.289-3.606-7.206-12.319-3.469-15.433 3.544-2.953 8.396 4.193 14.666 7.087 5.374 2.48 11.123.295 11.123.295s-1.696 7.552.591 13.584c2.61 6.885 9.316 12.698 8.859 18.751-.591 7.825-10.138 7.432-10.926 21.704-.787 14.273 9.45 33.073 9.45 33.073h23.79s10.237-18.801 9.45-33.073c-.787-14.273-10.335-13.879-10.926-21.704-.457-6.054 6.249-11.867 8.859-18.751 2.287-6.032.591-13.584.591-13.584s5.749 2.185 11.123-.295c6.27-2.894 11.123-10.04 14.666-7.087 3.737 3.114-1.18 11.827-3.469 15.433 1.959-.271 3.843.076 5.394 1.143 1.528 1.051 2.516 2.655 2.973 4.545 2.882-5.598 11.583-24.235 3.763-31.556z" fill="#ffd7e5"/><g fill="#fa759e"><ellipse cx="102.345" cy="49.381" rx="12.769" ry="9.247" transform="matrix(.567 -.824 .824 .567 3.659 105.72)"/><ellipse cx="21.654" cy="49.381" rx="9.247" ry="12.769" transform="matrix(.824 -.567 .567 .824 -24.172 20.967)"/></g><path d="m55.91 27.98c1.404 2.105 2.153 4.578 2.153 7.108v42.51c1.189-.562 2.522-.88 3.937-.88 1.496 0 2.895.362 4.135.985v-42.616c0-2.53.749-5.003 2.153-7.108l2.484-3.725c1.047-1.57-.078-3.673-1.965-3.673h-13.416c-1.887 0-3.012 2.103-1.965 3.673z" fill="#6dc9f7"/><path d="m66.996 116.484h-9.992l-4.143-29.241c-.788-5.558 3.526-10.526 9.139-10.526 5.613 0 9.927 4.968 9.139 10.526z" fill="#0089ef"/><path d="m52.894 87.479c.697-4.339 4.449-7.761 9.106-7.761s8.409 3.422 9.106 7.761l.033-.236c.787-5.558-3.526-10.526-9.139-10.526s-9.927 4.968-9.139 10.526z" fill="#fff"/></g><g fill="#3a2c60"><path d="m117.003 11.12c-8.673-8.12-14.784-4.533-21.254-.738-3.443 2.021-7.003 4.109-11.242 4.61-3.074.363-6.283-1.435-9.126-3.018-1.551-.864-3.017-1.681-4.414-2.153-1.027-.348-4.709-1.481-8.967-1.481-4.259 0-7.94 1.133-8.968 1.48-1.397.473-2.863 1.289-4.415 2.153-2.843 1.583-6.064 3.378-9.124 3.018-4.239-.5-7.8-2.589-11.242-4.61-6.47-3.796-12.58-7.381-21.254.739-8.234 7.708.254 26.307 3.391 32.43-.133.66-.221 1.349-.238 2.073-.077 3.186 1.01 6.583 3.062 9.565s4.835 5.212 7.838 6.279c1.268.451 2.514.674 3.701.674 1.731 0 3.339-.476 4.706-1.417.564-.388 1.067-.844 1.509-1.357.536.047 1.063.078 1.573.078 3.215 0 5.889-.934 7.966-2.786 2.519-2.246 3.6-5.348 4.074-7.652.535.861 1.088 1.708 1.636 2.545 2.376 3.628 4.62 7.055 4.37 10.373-.222 2.937-1.854 4.559-3.922 6.613-2.909 2.891-6.53 6.489-7.005 15.111-.794 14.391 9.146 32.829 9.569 33.606.175.322.512.522.878.522h23.79c.366 0 .703-.2.878-.522.424-.778 10.364-19.216 9.569-33.606-.475-8.622-4.096-12.22-7.005-15.111-2.067-2.054-3.7-3.676-3.922-6.613-.25-3.318 1.994-6.746 4.371-10.374.554-.845 1.113-1.702 1.653-2.572.471 2.307 1.551 5.424 4.079 7.679 2.078 1.853 4.751 2.786 7.967 2.786.504 0 1.027-.031 1.559-.077.436.51.933.967 1.498 1.356 1.38.949 2.989 1.398 4.686 1.398 4.026 0 8.532-2.535 11.561-6.936 2.601-3.782 3.513-8.085 2.808-11.608 3.125-6.092 11.651-24.737 3.406-32.457zm-88.679 47.958c-1.763 1.212-4.109 1.392-6.605.505-2.608-.927-5.044-2.891-6.858-5.529-1.815-2.638-2.777-5.615-2.711-8.383.064-2.648 1.071-4.774 2.835-5.987 1.026-.706 2.248-1.062 3.582-1.062.96 0 1.979.185 3.023.556 2.608.927 5.044 2.891 6.858 5.529 1.815 2.638 2.777 5.615 2.711 8.383-.064 2.649-1.071 4.775-2.835 5.988zm10.849-3.91c-1.764 1.572-4.109 2.328-6.971 2.266.585-1.254.917-2.701.956-4.295.077-3.186-1.01-6.583-3.062-9.565s-4.835-5.212-7.838-6.28c-.621-.221-1.234-.372-1.841-.484-2.572-4.136-6.228-11.43-3.435-13.758 1.53-1.278 3.663.257 7.013 2.865 1.951 1.519 4.163 3.241 6.594 4.362 3.974 1.834 8.079 1.31 10.278.794-.382 2.624-.82 7.943.919 12.531.33.871.725 1.718 1.155 2.551-.054 1.183-.484 6.085-3.768 9.013zm14.678 31.935c-.335-2.362.37-4.75 1.935-6.551 1.564-1.801 3.829-2.834 6.215-2.834s4.65 1.033 6.215 2.834c1.563 1.801 2.269 4.189 1.934 6.551l-.102.719h-16.095zm15.913 2.719-1.198 8.455h-13.132l-1.198-8.455zm-1.481 10.454-1.198 8.455h-10.17l-1.198-8.455zm-1.481 10.455-.673 4.753h-8.256l-.674-4.753zm9.312-60.274c-2.568 3.921-4.994 7.624-4.692 11.62.277 3.68 2.331 5.721 4.506 7.882 2.806 2.788 5.985 5.948 6.419 13.803.69 12.517-7.441 28.903-9.055 32.018h-5.185l4.023-28.396c.416-2.936-.46-5.903-2.404-8.143-.747-.861-1.626-1.577-2.59-2.137v-8.642c0-.552-.447-1-1-1s-1 .448-1 1v7.753c-1.003-.323-2.058-.497-3.135-.497-1.007 0-1.993.159-2.938.443v-41.074c0-2.737-.803-5.386-2.321-7.663l-2.485-3.724c-.283-.425-.309-.948-.068-1.398.241-.451.69-.72 1.202-.72h13.416c.511 0 .96.269 1.201.72s.216.973-.068 1.398l-2.484 3.725c-1.518 2.277-2.32 4.927-2.32 7.663v16.042c0 .552.447 1 1 1s1-.448 1-1v-16.043c0-2.34.687-4.606 1.984-6.553l2.484-3.725c.689-1.033.754-2.356.168-3.451-.586-1.096-1.722-1.777-2.965-1.777h-13.416c-1.243 0-2.379.681-2.965 1.776-.586 1.096-.522 2.418.167 3.452l2.484 3.726c1.299 1.946 1.985 4.212 1.985 6.553v41.914c-1.041.574-1.99 1.322-2.787 2.24-1.944 2.239-2.821 5.207-2.405 8.143l4.024 28.396h-5.186c-1.613-3.115-9.744-19.501-9.055-32.018.434-7.855 3.613-11.015 6.419-13.803 2.175-2.161 4.229-4.202 4.506-7.882.302-3.996-2.124-7.699-4.691-11.619-1.59-2.428-3.234-4.938-4.229-7.562-2.149-5.671-.565-12.938-.55-13.01.08-.358-.043-.732-.32-.973-.277-.24-.664-.31-1.009-.181-.054.021-5.438 1.998-10.351-.268-2.222-1.026-4.337-2.672-6.203-4.125-3.432-2.671-6.672-5.197-9.522-2.823-3.872 3.227-.335 10.736 2.265 15.133-1.506.097-2.906.555-4.115 1.388-1.066.733-1.909 1.711-2.527 2.868-3.352-6.993-9.498-22.206-2.961-28.326 7.58-7.097 12.565-4.175 18.874-.474 3.621 2.125 7.365 4.321 12.021 4.871 3.702.436 7.225-1.526 10.332-3.257 1.47-.818 2.857-1.591 4.082-2.006.954-.322 4.374-1.375 8.327-1.375 3.952 0 7.372 1.052 8.326 1.375 1.225.415 2.612 1.188 4.082 2.006 3.108 1.732 6.638 3.696 10.333 3.257 4.655-.55 8.399-2.747 12.021-4.871 6.308-3.701 11.291-6.625 18.874.474 6.542 6.124.38 21.355-2.969 28.34-.607-1.151-1.44-2.141-2.519-2.883-1.226-.844-2.636-1.283-4.125-1.372 2.601-4.395 6.15-11.918 2.273-15.149-2.844-2.371-6.088.15-9.521 2.822-1.867 1.453-3.982 3.1-6.204 4.125-4.913 2.267-10.298.288-10.351.268-.342-.129-.731-.06-1.009.181s-.401.615-.32.974c.017.073 1.605 7.324-.549 13.01-.995 2.623-2.64 5.134-4.229 7.561zm8.746 4.719c-3.326-2.956-3.731-7.968-3.781-9.062.422-.819.809-1.653 1.134-2.509 1.738-4.587 1.301-9.907.918-12.531 2.198.516 6.303 1.042 10.278-.794 2.431-1.122 4.643-2.843 6.595-4.363 3.349-2.606 5.482-4.141 7.013-2.864 2.795 2.329-.878 9.646-3.451 13.779-3.49.649-7.104 3.022-9.664 6.743-3.188 4.636-3.849 10.058-2.087 13.86-2.854.06-5.194-.693-6.955-2.259zm24.28-1.122c-3.678 5.347-9.718 7.6-13.465 5.023-3.745-2.577-3.802-9.023-.124-14.37 2.645-3.845 6.511-6.09 9.867-6.09 1.311 0 2.545.343 3.598 1.066 3.745 2.579 3.802 9.025.124 14.371z"/><path d="m66.135 54.295c-.553 0-1 .448-1 1v9c0 .552.447 1 1 1s1-.448 1-1v-9c0-.552-.447-1-1-1z"/></g></g></g></svg>