<?xml version="1.0" encoding="UTF-8" standalone="no"?>
<!DOCTYPE svg PUBLIC "-//W3C//DTD SVG 1.1//EN" "http://www.w3.org/Graphics/SVG/1.1/DTD/svg11.dtd">
<svg width="100%" height="100%" viewBox="0 0 512 512" version="1.1" xmlns="http://www.w3.org/2000/svg" xmlns:xlink="http://www.w3.org/1999/xlink" xml:space="preserve" xmlns:serif="http://www.serif.com/" style="fill-rule:evenodd;clip-rule:evenodd;stroke-linejoin:round;stroke-miterlimit:2;">
    <g transform="matrix(1,0,0,1,7,0)">
        <path d="M468.012,44.48C433.32,12 408.876,26.348 382.996,41.528C369.224,49.612 354.984,57.964 338.028,59.968C325.732,61.42 312.896,54.228 301.524,47.896C295.32,44.44 289.456,41.172 283.868,39.284C279.76,37.892 265.032,33.36 248,33.36C230.964,33.36 216.24,37.892 212.128,39.28C206.54,41.172 200.676,44.436 194.468,47.892C183.096,54.224 170.212,61.404 157.972,59.964C141.016,57.964 126.772,49.608 113.004,41.524C87.124,26.34 62.684,12 27.988,44.48C-4.948,75.312 29.004,149.708 41.552,174.2C41.02,176.84 40.668,179.596 40.6,182.492C40.292,195.236 44.64,208.824 52.848,220.752C61.056,232.68 72.188,241.6 84.2,245.868C89.272,247.672 94.256,248.564 99.004,248.564C105.928,248.564 112.36,246.66 117.828,242.896C120.084,241.344 122.096,239.52 123.864,237.468C126.008,237.656 128.116,237.78 130.156,237.78C143.016,237.78 153.712,234.044 162.02,226.636C172.096,217.652 176.42,205.244 178.316,196.028C180.456,199.472 182.668,202.86 184.86,206.208C194.364,220.72 203.34,234.428 202.34,247.7C201.452,259.448 194.924,265.936 186.652,274.152C175.016,285.716 160.532,300.108 158.632,334.596C155.456,392.16 195.216,465.912 196.908,469.02C197.608,470.308 198.956,471.108 200.42,471.108L295.58,471.108C297.044,471.108 298.392,470.308 299.092,469.02C300.788,465.908 340.548,392.156 337.368,334.596C335.468,300.108 320.984,285.716 309.348,274.152C301.08,265.936 294.548,259.448 293.66,247.7C292.66,234.428 301.636,220.716 311.144,206.204C313.36,202.824 315.596,199.396 317.756,195.916C319.64,205.144 323.96,217.612 334.072,226.632C342.384,234.044 353.076,237.776 365.94,237.776C367.956,237.776 370.048,237.652 372.176,237.468C373.92,239.508 375.908,241.336 378.168,242.892C383.688,246.688 390.124,248.484 396.912,248.484C413.016,248.484 431.04,238.344 443.156,220.74C453.56,205.612 457.208,188.4 454.388,174.308C466.888,149.94 500.992,75.36 468.012,44.48ZM113.296,236.312C106.244,241.16 96.86,241.88 86.876,238.332C76.444,234.624 66.7,226.768 59.444,216.216C52.184,205.664 48.336,193.756 48.6,182.684C48.856,172.092 52.884,163.588 59.94,158.736C64.044,155.912 68.932,154.488 74.268,154.488C78.108,154.488 82.184,155.228 86.36,156.712C96.792,160.42 106.536,168.276 113.792,178.828C121.052,189.38 124.9,201.288 124.636,212.36C124.38,222.956 120.352,231.46 113.296,236.312ZM156.692,220.672C149.636,226.96 140.256,229.984 128.808,229.736C131.148,224.72 132.476,218.932 132.632,212.556C132.94,199.812 128.592,186.224 120.384,174.296C112.176,162.368 101.044,153.448 89.032,149.176C86.548,148.292 84.096,147.688 81.668,147.24C71.38,130.696 56.756,101.52 67.928,92.208C74.048,87.096 82.58,93.236 95.98,103.668C103.784,109.744 112.632,116.632 122.356,121.116C138.252,128.452 154.672,126.356 163.468,124.292C161.94,134.788 160.188,156.064 167.144,174.416C168.464,177.9 170.044,181.288 171.764,184.62C171.548,189.352 169.828,208.96 156.692,220.672ZM215.404,348.412C214.064,338.964 216.884,329.412 223.144,322.208C229.4,315.004 238.46,310.872 248.004,310.872C257.548,310.872 266.604,315.004 272.864,322.208C279.116,329.412 281.94,338.964 280.6,348.412L280.192,351.288L215.812,351.288L215.404,348.412ZM279.056,359.288L274.264,393.108L221.736,393.108L216.944,359.288L279.056,359.288ZM273.132,401.104L268.34,434.924L227.66,434.924L222.868,401.104L273.132,401.104ZM267.208,442.924L264.516,461.936L231.492,461.936L228.796,442.924L267.208,442.924ZM304.456,201.828C294.184,217.512 284.48,232.324 285.688,248.308C286.796,263.028 295.012,271.192 303.712,279.836C314.936,290.988 327.652,303.628 329.388,335.048C332.148,385.116 299.624,450.66 293.168,463.12L272.428,463.12L288.52,349.536C290.184,337.792 286.68,325.924 278.904,316.964C275.916,313.52 272.4,310.656 268.544,308.416L268.544,273.848C268.544,271.64 266.756,269.848 264.544,269.848C262.332,269.848 260.544,271.64 260.544,273.848L260.544,304.86C256.532,303.568 252.312,302.872 248.004,302.872C243.976,302.872 240.032,303.508 236.252,304.644L236.252,140.348C236.252,129.4 233.04,118.804 226.968,109.696L217.028,94.8C215.896,93.1 215.792,91.008 216.756,89.208C217.72,87.404 219.516,86.328 221.564,86.328L275.228,86.328C277.272,86.328 279.068,87.404 280.032,89.208C280.996,91.012 280.896,93.1 279.76,94.8L269.824,109.7C263.752,118.808 260.544,129.408 260.544,140.352L260.544,204.52C260.544,206.728 262.332,208.52 264.544,208.52C266.756,208.52 268.544,206.728 268.544,204.52L268.544,140.348C268.544,130.988 271.292,121.924 276.48,114.136L286.416,99.236C289.172,95.104 289.432,89.812 287.088,85.432C284.744,81.048 280.2,78.324 275.228,78.324L221.564,78.324C216.592,78.324 212.048,81.048 209.704,85.428C207.36,89.812 207.616,95.1 210.372,99.236L220.308,114.14C225.504,121.924 228.248,130.988 228.248,140.352L228.248,308.008C224.084,310.304 220.288,313.296 217.1,316.968C209.324,325.924 205.816,337.796 207.48,349.54L223.576,463.124L202.832,463.124C196.38,450.664 163.856,385.12 166.612,335.052C168.348,303.632 181.064,290.992 192.288,279.84C200.988,271.196 209.204,263.032 210.312,248.312C211.52,232.328 201.816,217.516 191.548,201.836C185.188,192.124 178.612,182.084 174.632,171.588C166.036,148.904 172.372,119.836 172.432,119.548C172.752,118.116 172.26,116.62 171.152,115.656C170.044,114.696 168.496,114.416 167.116,114.932C166.9,115.016 145.364,122.924 125.712,113.86C116.824,109.756 108.364,103.172 100.9,97.36C87.172,86.676 74.212,76.572 62.812,86.068C47.324,98.976 61.472,129.012 71.872,146.6C65.848,146.988 60.248,148.82 55.412,152.152C51.148,155.084 47.776,158.996 45.304,163.624C31.896,135.652 7.312,74.8 33.46,50.32C63.78,21.932 83.72,33.62 108.956,48.424C123.44,56.924 138.416,65.708 157.04,67.908C171.848,69.652 185.94,61.804 198.368,54.88C204.248,51.608 209.796,48.516 214.696,46.856C218.512,45.568 232.192,41.356 248.004,41.356C263.812,41.356 277.492,45.564 281.308,46.856C286.208,48.516 291.756,51.608 297.636,54.88C310.068,61.808 324.188,69.664 338.968,67.908C357.588,65.708 372.564,56.92 387.052,48.424C412.284,33.62 432.216,21.924 462.548,50.32C488.716,74.816 464.068,135.74 450.672,163.68C448.244,159.076 444.912,155.116 440.596,152.148C435.692,148.772 430.052,147.016 424.096,146.66C434.5,129.08 448.696,98.988 433.188,86.064C421.812,76.58 408.836,86.664 395.104,97.352C387.636,103.164 379.176,109.752 370.288,113.852C350.636,122.92 329.096,115.004 328.884,114.924C327.516,114.408 325.96,114.684 324.848,115.648C323.736,116.612 323.244,118.108 323.568,119.544C323.636,119.836 329.988,148.84 321.372,171.584C317.392,182.076 310.812,192.12 304.456,201.828ZM339.44,220.704C326.136,208.88 324.516,188.832 324.316,184.456C326.004,181.18 327.552,177.844 328.852,174.42C335.804,156.072 334.056,134.792 332.524,124.296C341.316,126.36 357.736,128.464 373.636,121.12C383.36,116.632 392.208,109.748 400.016,103.668C413.412,93.244 421.944,87.104 428.068,92.212C439.248,101.528 424.556,130.796 414.264,147.328C400.304,149.924 385.848,159.416 375.608,174.3C362.856,192.844 360.212,214.532 367.26,229.74C355.844,229.98 346.484,226.968 339.44,220.704ZM436.56,216.216C421.848,237.604 397.688,246.616 382.7,236.308C367.72,226 367.492,200.216 382.204,178.828C392.784,163.448 408.248,154.468 421.672,154.468C426.916,154.468 431.852,155.84 436.064,158.732C451.044,169.048 451.272,194.832 436.56,216.216Z" style="fill:rgb(73,59,161);fill-rule:nonzero;"/>
    </g>
    <g transform="matrix(1,0,0,1,7,0)">
        <path d="M264.54,217.18C262.328,217.18 260.54,218.972 260.54,221.18L260.54,257.18C260.54,259.388 262.328,261.18 264.54,261.18C266.752,261.18 268.54,259.388 268.54,257.18L268.54,221.18C268.54,218.972 266.752,217.18 264.54,217.18Z" style="fill:rgb(73,59,161);fill-rule:nonzero;"/>
    </g>
</svg>
