<?xml version="1.0" encoding="UTF-8" standalone="no"?>
<!DOCTYPE svg PUBLIC "-//W3C//DTD SVG 1.1//EN" "http://www.w3.org/Graphics/SVG/1.1/DTD/svg11.dtd">
<svg width="100%" height="100%" viewBox="0 0 573 187" version="1.1" xmlns="http://www.w3.org/2000/svg" xmlns:xlink="http://www.w3.org/1999/xlink" xml:space="preserve" xmlns:serif="http://www.serif.com/" style="fill-rule:evenodd;clip-rule:evenodd;stroke-linejoin:round;stroke-miterlimit:2;">
    <g transform="matrix(0.374972,0,0,0.374972,136.161,-19.3911)">
        <g transform="matrix(2.66667,0,0,2.66667,1163.12,208.46)">
            <path d="M0,77.655C0,105.148 -20.149,127.435 -45.007,127.435L-517.335,127.435C-542.192,127.435 -562.342,105.148 -562.342,77.655L-562.342,0.001C-562.342,-27.492 -542.192,-49.78 -517.335,-49.78L-45.007,-49.78C-20.149,-49.78 0,-27.492 0,0.001L0,77.655Z" style="fill:white;fill-rule:nonzero;"/>
        </g>
        <g transform="matrix(2.66667,0,0,2.66667,1136.46,184.46)">
            <path d="M0,77.655C0,105.148 -20.149,127.435 -45.007,127.435L-517.335,127.435C-542.192,127.435 -562.342,105.148 -562.342,77.655L-562.342,0.001C-562.342,-27.492 -542.192,-49.78 -517.335,-49.78L-45.007,-49.78C-20.149,-49.78 0,-27.492 0,0.001L0,77.655Z" style="fill:rgb(208,224,234);fill-rule:nonzero;"/>
        </g>
    </g>
</svg>
