<?xml version="1.0" encoding="UTF-8" standalone="no"?>
<!DOCTYPE svg PUBLIC "-//W3C//DTD SVG 1.1//EN" "http://www.w3.org/Graphics/SVG/1.1/DTD/svg11.dtd">
<svg width="100%" height="100%" viewBox="0 0 572 186" version="1.1" xmlns="http://www.w3.org/2000/svg" xmlns:xlink="http://www.w3.org/1999/xlink" xml:space="preserve" xmlns:serif="http://www.serif.com/" style="fill-rule:evenodd;clip-rule:evenodd;stroke-linejoin:round;stroke-miterlimit:2;">
    <g transform="matrix(0.999927,0,0,0.999927,-379.649,-1658.97)">
        <g transform="matrix(1,0,0,1,951.869,1717.87)">
            <path d="M0,77.655C0,105.148 -20.149,127.435 -45.007,127.435L-517.335,127.435C-542.192,127.435 -562.342,105.148 -562.342,77.655L-562.342,0.001C-562.342,-27.492 -542.192,-49.78 -517.335,-49.78L-45.007,-49.78C-20.149,-49.78 0,-27.492 0,0.001L0,77.655Z" style="fill:white;fill-rule:nonzero;"/>
        </g>
        <g transform="matrix(1,0,0,1,941.869,1708.87)">
            <path d="M0,77.655C0,105.148 -20.149,127.435 -45.007,127.435L-517.335,127.435C-542.192,127.435 -562.342,105.148 -562.342,77.655L-562.342,0.001C-562.342,-27.492 -542.192,-49.78 -517.335,-49.78L-45.007,-49.78C-20.149,-49.78 0,-27.492 0,0.001L0,77.655Z" style="fill:rgb(208,224,234);fill-rule:nonzero;"/>
        </g>
    </g>
    <g id="_1" serif:id="1" transform="matrix(1,0,0,1,-23.3478,24.6325)">
        <text x="141.873px" y="78.696px" style="font-family:'NotoSansMonoCJKtc-Regular', 'Noto Sans Mono CJK TC', sans-serif;font-size:25px;fill:rgb(27,73,193);">脈衝光不只用來改善皮膚問題</text>
        <text x="166.873px" y="111.696px" style="font-family:'NotoSansMonoCJKtc-Regular', 'Noto Sans Mono CJK TC', sans-serif;font-size:25px;fill:rgb(27,73,193);">還可以治療缺油型乾眼症</text>
    </g>
</svg>
