<?xml version="1.0" encoding="UTF-8" standalone="no"?>
<!DOCTYPE svg PUBLIC "-//W3C//DTD SVG 1.1//EN" "http://www.w3.org/Graphics/SVG/1.1/DTD/svg11.dtd">
<svg width="100%" height="100%" viewBox="0 0 970 183" version="1.1" xmlns="http://www.w3.org/2000/svg" xmlns:xlink="http://www.w3.org/1999/xlink" xml:space="preserve" xmlns:serif="http://www.serif.com/" style="fill-rule:evenodd;clip-rule:evenodd;stroke-linejoin:round;stroke-miterlimit:2;">
    <g transform="matrix(1,0,0,1,0,-122.225)">
        <g transform="matrix(1,0,0,1,124.171,216.831)">
            <path d="M0,-9.663C-2.147,-7.516 -4.652,-6.442 -7.515,-6.442C-10.26,-6.442 -12.287,-7.336 -13.598,-9.126C-15.745,-12.226 -16.938,-13.895 -17.176,-14.136L-17.355,-14.672L-17.176,-15.031L-16.818,-15.031L-17.892,-15.746L-17.892,-16.998C-17.176,-18.072 -16.46,-18.726 -15.745,-18.966C-15.029,-19.205 -14.255,-19.442 -13.419,-19.683C-12.586,-19.683 -11.392,-19.621 -9.84,-19.503C-8.649,-18.788 -6.799,-18.072 -4.294,-17.356C-2.625,-15.685 -1.194,-13.121 0,-9.663M-60.117,-6.442C-61.906,-3.339 -64.831,-1.67 -68.884,-1.433C-71.031,-3.222 -73.178,-4.949 -75.326,-6.621C-77.951,-9.006 -79.382,-11.273 -79.62,-13.42C-78.071,-15.685 -75.504,-17.057 -71.926,-17.536L-69.6,-16.462L-69.6,-16.82L-69.242,-17.177L-68.884,-17.177L-68.348,-16.998L-67.811,-17.177C-67.215,-16.82 -66.321,-16.4 -65.127,-15.926C-63.458,-14.493 -62.443,-13.537 -62.085,-13.062C-60.895,-11.748 -60.237,-10.496 -60.117,-9.305L-60.833,-8.053L-60.296,-7.516L-60.117,-6.442ZM35.426,-35.428C33.517,-32.444 32.563,-29.581 32.563,-26.839L33.995,-18.072C33.995,-17.831 33.696,-17.356 33.101,-16.641L32.743,-15.746C33.218,-14.911 33.486,-13.21 33.548,-10.647C33.606,-8.08 33.816,-6.264 34.174,-5.19L32.743,-3.937C32.265,-3.817 31.787,-3.758 31.311,-3.758C29.522,-3.758 27.313,-5.428 24.691,-8.768C22.902,-11.273 21.113,-13.778 19.324,-16.283L19.502,-17.356C19.86,-17.236 20.456,-16.969 21.292,-16.552C22.125,-16.132 22.84,-15.926 23.438,-15.926L23.618,-15.926L22.902,-19.145L23.26,-20.398C22.304,-21.589 21.708,-23.856 21.471,-27.198C21.23,-31.491 20.993,-33.996 20.755,-34.712L20.934,-35.964C17.355,-37.037 14.73,-37.575 13.061,-37.575C11.988,-37.575 11.032,-37.455 10.199,-37.216L10.377,-36.501C11.331,-35.544 12.284,-34.622 13.24,-33.727C14.193,-32.833 14.909,-31.429 15.387,-29.523C15.267,-28.807 13.956,-26.72 11.451,-23.261L10.377,-23.619C9.063,-22.545 7.632,-21.947 6.083,-21.829C3.937,-21.589 2.563,-21.351 1.968,-21.114C1.252,-21.472 0,-22.067 -1.789,-22.902L-2.863,-22.724L-4.115,-21.293C-9.245,-24.036 -11.809,-27.077 -11.809,-30.418C-11.809,-30.893 -11.63,-31.908 -11.272,-33.459C-10.797,-33.817 -10.14,-34.471 -9.304,-35.428L-7.873,-36.322C-7.993,-36.559 -8.051,-36.797 -8.051,-37.037L-7.873,-37.575C-7.635,-37.933 -7.335,-38.17 -6.978,-38.29C-8.292,-38.29 -10.26,-38.38 -12.882,-38.559C-15.507,-38.738 -17.476,-38.827 -18.787,-38.827C-24.154,-38.827 -26.838,-37.933 -26.838,-36.143C-26.838,-35.07 -26.48,-33.22 -25.765,-30.597L-26.123,-29.523L-25.585,-28.807C-25.468,-27.851 -25.527,-26.72 -25.765,-25.408C-24.691,-23.619 -23.081,-15.746 -20.934,-1.79L-21.292,-1.254C-21.412,-0.656 -21.532,0.178 -21.649,1.251C-18.907,2.087 -15.507,3.518 -11.451,5.545C-10.735,6.977 -9.424,8.828 -7.515,11.092C-8.708,11.69 -9.304,12.702 -9.304,14.133C-9.187,11.511 -9.066,12.764 -8.946,17.891L-13.956,18.427L-18.25,17.891L-21.292,18.786C-22.485,18.07 -24.096,17.712 -26.123,17.712C-26.48,17.712 -26.989,17.832 -27.643,18.07C-28.3,18.31 -28.689,18.427 -28.806,18.427C-29.762,18.427 -30.925,17.981 -32.295,17.086C-33.668,16.191 -34.652,15.744 -35.247,15.744C-35.605,15.744 -36.024,15.923 -36.5,16.28C-37.098,16.043 -37.693,15.923 -38.289,15.923C-38.647,15.923 -40.615,16.401 -44.193,17.355L-45.446,18.427C-45.686,18.19 -45.924,18.011 -46.162,17.891C-46.64,18.011 -46.998,18.19 -47.235,18.427C-47.951,18.31 -48.907,18.011 -50.098,17.532C-52.127,17.532 -55.527,16.638 -60.296,14.849C-61.37,13.776 -63.159,12.286 -65.664,10.377C-59.463,3.339 -48.845,-0.18 -33.816,-0.18C-33.341,-0.18 -32.536,-0.09 -31.4,0.089C-30.268,0.268 -29.404,0.357 -28.806,0.357C-28.448,0.357 -28.09,0.298 -27.732,0.178L-35.068,-13.241L-31.132,-11.81L-30.595,-13.241C-32.147,-21.589 -33.816,-29.761 -35.605,-37.753C-36.321,-37.871 -37.037,-37.933 -37.752,-37.933C-39.066,-37.933 -41.062,-37.753 -43.746,-37.395C-46.43,-37.037 -48.487,-36.859 -49.919,-36.859C-53.26,-36.859 -56.421,-35.785 -59.401,-33.638C-58.926,-32.923 -57.495,-32.145 -55.107,-31.312C-52.723,-30.476 -50.992,-30.059 -49.919,-30.059L-45.804,-27.018C-45.924,-26.54 -45.982,-26.061 -45.982,-25.587C-45.982,-25.466 -45.745,-23.976 -45.267,-21.114C-45.865,-20.278 -46.698,-18.966 -47.771,-17.177C-48.37,-17.295 -48.907,-17.356 -49.382,-17.356C-50.813,-17.356 -52.664,-16.878 -54.929,-15.926L-55.465,-16.283C-56.779,-17.356 -58.21,-18.31 -59.759,-19.145C-60,-19.384 -60.296,-19.594 -60.654,-19.772C-61.012,-19.951 -61.906,-20.04 -63.338,-20.04C-65.01,-22.067 -67.752,-25.051 -71.568,-28.986L-73.894,-28.807C-78.071,-28.807 -81.112,-30.178 -83.019,-32.923C-71.093,-38.408 -55.407,-40.913 -35.963,-40.437C-35.963,-45.448 -36.799,-50.815 -38.468,-56.54L-39.184,-57.256C-40.14,-57.614 -40.855,-57.731 -41.331,-57.614L-41.867,-57.972C-42.108,-57.851 -42.287,-57.672 -42.404,-57.435C-42.524,-57.194 -42.882,-57.077 -43.478,-57.077L-43.657,-56.72L-45.267,-58.15L-48.487,-57.972L-51.529,-59.761L-52.603,-59.581L-52.782,-60.834L-55.107,-61.192L-55.644,-62.087C-56.122,-62.204 -56.896,-62.503 -57.97,-62.981L-59.223,-62.265C-60.179,-62.981 -60.595,-63.876 -60.475,-64.949L-61.012,-65.486L-61.906,-65.665L-62.264,-66.023C-62.384,-66.38 -62.622,-66.739 -62.98,-67.097L-63.338,-67.097L-63.338,-68.349C-63.338,-68.586 -63.399,-68.886 -63.517,-69.244C-64.115,-69.244 -64.889,-69.422 -65.843,-69.781L-65.485,-71.57C-66.083,-71.928 -66.916,-72.643 -67.99,-73.717L-68.168,-74.253L-68.526,-74.79L-69.063,-74.611L-68.168,-75.506L-68.348,-78.726C-67.873,-78.964 -67.215,-79.263 -66.379,-79.621C-66.5,-81.169 -66.559,-81.827 -66.559,-81.589L-66.379,-82.305L-65.843,-82.663L-66.737,-84.095L-65.127,-84.989C-65.127,-85.705 -65.068,-86.241 -64.948,-86.599L-64.232,-86.241L-63.696,-86.061C-63.578,-86.657 -63.1,-87.373 -62.264,-88.209L-60.654,-87.672C-59.938,-89.579 -57.853,-90.831 -54.392,-91.429L-53.497,-90.356L-51.708,-91.429L-48.309,-90.714L-47.593,-90.893C-47.355,-91.25 -47.056,-91.489 -46.698,-91.608C-46.46,-91.489 -46.223,-91.309 -45.982,-91.072C-45.625,-91.189 -45.328,-91.368 -45.088,-91.608L-44.551,-91.608C-44.193,-91.489 -43.835,-91.309 -43.478,-91.072L-43.299,-91.787L-42.941,-91.787L-41.331,-91.608L-40.436,-90.178L-37.573,-91.072L-36.321,-88.745L-35.605,-89.103C-34.89,-88.625 -33.757,-88.148 -32.206,-87.672C-31.49,-87.672 -30.299,-87.552 -28.627,-87.314L-28.27,-86.241C-27.674,-85.525 -26.81,-85.078 -25.675,-84.899C-24.543,-84.72 -23.738,-84.511 -23.26,-84.273C-21.233,-82.484 -18.012,-79.979 -13.598,-76.759C-12.645,-76.281 -11.093,-75.623 -8.946,-74.79C-8.471,-74.432 -6.561,-72.88 -3.221,-70.138L-2.863,-69.065C-2.147,-68.349 -1.015,-67.156 0.537,-65.486L0.358,-64.055C0.716,-62.981 1.252,-61.309 1.968,-59.045C1.252,-55.705 -0.12,-53.795 -2.147,-53.32C-5.13,-52.484 -7.04,-51.648 -7.873,-50.815C-10.14,-50.932 -11.512,-50.993 -11.988,-50.993C-15.329,-50.993 -17.774,-50.694 -19.323,-50.099C-20.159,-50.574 -21.412,-51.231 -23.081,-52.067L-24.154,-51.888L-24.87,-47.595C-26.659,-47.236 -27.554,-46.579 -27.554,-45.626C-27.554,-45.267 -27.436,-44.79 -27.196,-44.194C-27.436,-42.88 -27.079,-41.748 -26.123,-40.795C-24.096,-40.795 -20.995,-40.885 -16.818,-41.063C-12.645,-41.243 -9.544,-41.331 -7.515,-41.331C-4.535,-41.331 0,-41.152 6.083,-40.795C12.167,-40.437 16.698,-40.259 19.681,-40.259C20.397,-40.259 21.32,-40.676 22.455,-41.511C23.587,-42.345 24.512,-42.763 25.228,-42.763L29.164,-42.763C29.522,-42.523 29.88,-42.226 30.238,-41.869L31.132,-42.406C33.517,-40.376 34.948,-38.05 35.426,-35.428M6.262,34.888L5.368,34.71L4.831,34.888C4.711,35.246 4.473,35.545 4.115,35.782C4.473,35.903 4.831,36.023 5.189,36.141L6.083,37.572C4.054,38.051 2.027,38.467 0,38.824C-1.314,38.587 -3.341,38.467 -6.083,38.467C-7.157,38.467 -10.081,38.707 -14.85,39.182C-18.549,39.54 -21.47,39.54 -23.618,39.182L-25.407,39.719L-25.585,39.182C-25.943,39.065 -26.063,38.945 -25.943,38.824L-25.765,38.467L-25.943,38.109L-26.48,38.109L-27.196,39.898L-30.595,39.719C-33.699,39.719 -36.62,40.138 -39.362,40.972C-40.676,42.286 -40.973,43.835 -40.257,45.624C-41.571,45.864 -43.419,48.011 -45.804,52.065C-47.355,54.81 -48.907,57.494 -50.456,60.115C-50.456,60.474 -50.397,60.832 -50.277,61.19L-52.245,62.085L-52.245,62.979C-49.74,62.859 -46.64,62.202 -42.941,61.01C-37.573,59.462 -34.532,58.567 -33.816,58.327C-30,57.969 -24.216,56.837 -16.46,54.927C-17.296,53.616 -18.25,51.411 -19.323,48.308C-18.965,47.591 -18.071,47.175 -16.64,47.054C-15.208,46.938 -14.313,46.817 -13.956,46.697C-11.929,46.817 -8.887,47.234 -4.831,47.949C-2.924,48.905 -0.062,50.275 3.757,52.065C3.159,52.901 2.563,53.974 1.968,55.285C2.085,55.644 2.265,55.942 2.505,56.179L1.968,57.254C3.399,57.494 4.115,58.806 4.115,61.19C4.115,62.381 3.548,63.99 2.416,66.021C1.28,68.047 0.179,69.18 -0.895,69.42L-3.399,68.346L-4.473,68.704C-4.951,68.106 -5.787,67.69 -6.978,67.452C-8.529,67.212 -9.483,66.974 -9.84,66.736C-12.466,67.927 -18.312,69.538 -27.375,71.567C-35.247,73.357 -40.676,75.324 -43.657,77.472C-44.014,77.352 -44.434,77.293 -44.909,77.293C-46.103,77.293 -47.593,77.829 -49.382,78.903C-51.171,79.976 -52.186,81.05 -52.424,82.124C-54.691,81.645 -56.6,80.871 -58.149,79.797L-60.117,80.871C-61.669,80.273 -63.489,78.693 -65.574,76.129C-67.663,73.563 -68.706,71.505 -68.706,69.957C-68.706,67.69 -67.215,65.065 -64.232,62.085C-61.252,59.105 -59.879,56.957 -60.117,55.644C-59.284,54.81 -58.032,52.842 -56.36,49.739C-54.691,46.638 -53.796,44.55 -53.676,43.476C-54.034,43.239 -54.392,43.06 -54.75,42.941L-55.644,43.119C-56.243,43.001 -56.807,43.06 -57.344,43.297C-57.881,43.538 -58.27,43.835 -58.507,44.192L-59.938,43.835C-61.61,44.074 -64.831,45.207 -69.6,47.234C-70.556,47.355 -71.867,47.591 -73.536,47.949C-74.85,48.665 -76.757,49.501 -79.262,50.455C-83.318,49.621 -87.791,48.607 -92.681,47.413C-93.396,47.054 -94.232,45.923 -95.186,44.014C-96.142,42.107 -96.617,40.793 -96.617,40.077L-97.69,38.109L-96.975,35.962L-97.69,33.994L-97.512,33.278L-96.796,33.278C-96.679,33.278 -96.438,33.398 -96.08,33.635C-95.723,33.877 -95.426,33.994 -95.186,33.994L-92.502,33.994C-91.669,33.994 -90.892,34.172 -90.176,34.531C-83.855,33.339 -74.313,31.788 -61.549,29.879C-54.392,29.045 -44.85,28.627 -32.921,28.627L-27.375,29.163L-25.585,27.91L-24.512,28.447C-23.917,27.852 -21.828,27.552 -18.25,27.552C-17.059,27.552 -16.164,27.435 -15.566,27.195L-14.313,28.627L-13.956,27.195L-13.598,28.627C-12.882,27.315 -10.976,26.719 -7.873,26.837L-1.073,27.195C-0.716,27.552 -0.358,27.972 0,28.447C0.358,28.925 0.895,29.582 1.61,30.415L1.789,30.415C3.338,31.131 4.233,31.847 4.473,32.563L4.115,33.457C4.59,33.815 5.306,34.293 6.262,34.888M-83.735,-5.727C-83.735,-5.845 -84.271,-3.758 -85.345,0.536C-87.97,0.419 -91.191,0.655 -95.007,1.251C-95.963,0.536 -97.274,-0.001 -98.943,-0.359L-100.017,-0.001C-101.09,-0.476 -103.357,-2.028 -106.815,-4.653C-108.247,-5.606 -110.276,-7.216 -112.899,-9.484C-116.36,-12.822 -119.34,-18.667 -121.845,-27.018C-123.396,-32.145 -124.171,-35.248 -124.171,-36.322C-124.171,-37.634 -123.875,-38.47 -123.276,-38.827C-121.965,-38.827 -120.833,-39.065 -119.877,-39.542C-118.803,-39.542 -117.134,-39.481 -114.867,-39.364C-113.676,-38.886 -112.004,-38.17 -109.857,-37.216C-108.546,-35.665 -107.173,-34.712 -105.742,-34.353C-105.146,-33.281 -104.132,-31.908 -102.7,-30.239C-101.747,-29.761 -100.615,-28.687 -99.301,-27.018C-96.321,-24.036 -92.742,-20.694 -88.565,-16.998L-88.565,-16.103C-88.448,-15.746 -87.671,-14.851 -86.24,-13.42L-86.956,-12.526C-84.808,-9.305 -83.735,-7.037 -83.735,-5.727" style="fill:rgb(64,34,15);fill-rule:nonzero;"/>
        </g>
        <g transform="matrix(1,0,0,1,330.967,292.155)">
            <path d="M0,-152.976C-0.836,-151.544 -1.968,-149.457 -3.399,-146.714C-4.115,-146.714 -6.025,-145.998 -9.125,-144.567C-12.228,-143.135 -14.018,-142.18 -14.493,-141.704C-14.613,-141.347 -14.554,-140.868 -14.314,-140.273L-17.713,-138.305C-18.071,-138.422 -18.49,-138.484 -18.966,-138.484C-20.28,-138.484 -22.187,-138.006 -24.691,-137.053L-25.228,-137.053L-25.407,-137.411L-24.154,-137.768C-23.321,-139.317 -22.485,-140.927 -21.649,-142.599C-21.054,-143.673 -19.802,-145.163 -17.892,-147.072C-17.059,-149.219 -15.507,-152.082 -13.24,-155.66C-12.407,-156.135 -11.272,-157.03 -9.841,-158.344L-8.588,-157.986L-8.946,-157.986L-9.125,-157.628L-8.946,-157.091L-8.588,-156.376L-6.799,-157.27C-5.368,-156.792 -3.104,-155.361 0,-152.976M-10.735,-121.308C-12.287,-120.234 -15.329,-119.219 -19.86,-118.266C-23.081,-118.981 -25.348,-119.635 -26.659,-120.234C-29.405,-121.425 -31.015,-123.035 -31.49,-125.064C-30.537,-125.898 -28.985,-126.734 -26.838,-127.57L-21.649,-127.57C-21.412,-127.57 -21.054,-127.45 -20.576,-127.212C-19.86,-127.45 -19.086,-127.57 -18.25,-127.57C-15.387,-127.57 -12.882,-126.376 -10.735,-123.991L-10.735,-121.308ZM-7.873,-74.788C-10.855,-73.356 -14.314,-71.389 -18.25,-68.883C-18.966,-69.122 -19.623,-69.242 -20.218,-69.242C-23.559,-69.242 -27.973,-66.259 -33.458,-60.296C-35.248,-58.386 -36.262,-55.823 -36.5,-52.602C-35.784,-52.839 -35.068,-52.96 -34.353,-52.96C-32.446,-52.96 -29.821,-51.825 -26.48,-49.56C-21.829,-46.339 -19.324,-44.668 -18.966,-44.551L-19.324,-43.834C-19.324,-42.163 -19.502,-40.793 -19.86,-39.719C-22.963,-39.719 -24.812,-39.421 -25.407,-38.825C-28.748,-38.825 -31.758,-40.257 -34.442,-43.119C-37.126,-45.982 -38.468,-49.082 -38.468,-52.423C-39.542,-52.423 -40.557,-52.004 -41.51,-51.171C-42.824,-49.977 -43.718,-49.261 -44.193,-49.023C-45.745,-51.171 -46.52,-52.661 -46.52,-53.496C-46.52,-55.166 -46.223,-56.538 -45.625,-57.611C-45.029,-58.207 -44.076,-59.222 -42.762,-60.653C-40.257,-63.276 -36.62,-67.452 -31.848,-73.177C-31.49,-73.773 -30.774,-74.668 -29.701,-75.862C-28.51,-76.578 -26.659,-77.71 -24.154,-79.261L-23.081,-78.546C-22.365,-79.261 -19.86,-79.619 -15.566,-79.619C-15.091,-79.619 -14.345,-79.44 -13.33,-79.082C-12.318,-78.724 -11.451,-78.604 -10.735,-78.724L-8.23,-76.756L-8.946,-75.504L-7.873,-74.788ZM8.767,-47.413L8.23,-45.803L7.873,-46.161L7.515,-46.161L7.157,-45.982L7.157,-45.087C7.274,-44.847 7.453,-44.489 7.693,-44.014L7.693,-42.761L8.051,-42.403L7.335,-40.972L7.693,-39.541C5.426,-34.648 3.637,-31.19 2.326,-29.163C-0.419,-24.869 -3.104,-22.364 -5.726,-21.648C-6.562,-20.575 -8.857,-19.113 -12.614,-17.266C-16.372,-15.414 -18.966,-14.431 -20.397,-14.313C-23.143,-13.955 -24.932,-13.598 -25.765,-13.239L-26.838,-13.418L-27.375,-14.134C-28.806,-14.014 -30.596,-13.539 -32.743,-12.703C-34.057,-13.301 -36.62,-13.48 -40.436,-13.239C-43.182,-14.313 -46.044,-15.087 -49.024,-15.565L-49.919,-15.208C-55.169,-17.354 -58.926,-20.455 -61.191,-24.511C-62.027,-25.584 -62.891,-26.748 -63.785,-28C-64.68,-29.252 -65.127,-30.595 -65.127,-32.026C-65.127,-33.217 -64.831,-34.232 -64.232,-35.068C-64.71,-36.259 -64.948,-37.332 -64.948,-38.288C-64.948,-41.747 -64.473,-44.668 -63.517,-47.056C-63.875,-48.367 -64.174,-51.945 -64.412,-57.791C-64.532,-62.443 -65.485,-65.842 -67.274,-67.989L-68.348,-67.989C-68.826,-67.869 -69.394,-67.9 -70.047,-68.079C-70.705,-68.258 -71.21,-68.347 -71.568,-68.347C-73.12,-68.347 -74.431,-68.047 -75.504,-67.452L-76.22,-66.558L-76.399,-65.663L-76.22,-64.947C-76.103,-64.59 -75.862,-64.35 -75.504,-64.232C-76.103,-63.992 -76.52,-63.455 -76.757,-62.622L-76.578,-61.727L-76.936,-61.547C-76.578,-61.07 -76.162,-60.771 -75.684,-60.653C-76.399,-59.938 -76.818,-59.043 -76.936,-57.969C-77.056,-56.896 -77.056,-55.912 -76.936,-55.018C-76.818,-54.123 -76.936,-53.318 -77.294,-52.602L-76.578,-50.097L-77.115,-49.56C-77.115,-48.845 -77.294,-47.889 -77.652,-46.697L-76.399,-43.834L-77.652,-42.582C-77.772,-42.224 -77.831,-41.806 -77.831,-41.33C-77.831,-40.614 -77.593,-39.898 -77.115,-39.183L-77.831,-35.426L-77.652,-35.426C-77.534,-35.543 -77.355,-35.784 -77.115,-36.142C-77.115,-37.215 -77.355,-35.842 -77.831,-32.026L-77.294,-30.952L-78.009,-28.984L-77.831,-28.984L-77.831,-28.447C-77.831,-27.85 -77.713,-27.492 -77.473,-27.374L-77.115,-27.374C-77.473,-26.06 -77.652,-24.092 -77.652,-21.469C-77.652,-21.35 -77.473,-20.872 -77.115,-20.039L-76.578,-19.502L-77.115,-17.354C-76.282,-14.134 -76.042,-12.107 -76.399,-11.271C-76.042,-8.767 -75.267,-5.188 -74.073,-0.536C-74.671,0.06 -75.208,1.849 -75.684,4.832L-78.904,5.547L-79.262,5.905C-79.62,5.665 -80.039,5.307 -80.514,4.832C-80.872,4.711 -81.292,4.591 -81.767,4.474C-81.887,3.28 -82.304,2.802 -83.02,3.042C-85.407,-1.014 -86.659,-3.876 -86.777,-5.546C-86.659,-6.144 -86.718,-6.977 -86.956,-8.051L-86.419,-12.345C-86.419,-13.659 -86.659,-14.788 -87.134,-15.744C-85.703,-18.367 -84.987,-20.097 -84.987,-20.933C-85.703,-22.124 -86.061,-23.376 -86.061,-24.69C-86.061,-26.002 -86.002,-27.553 -85.882,-29.343L-85.345,-29.879C-86.539,-31.07 -87.134,-36.142 -87.134,-45.087C-87.134,-49.261 -87.076,-52.661 -86.956,-55.286C-86.956,-56.119 -86.838,-57.433 -86.598,-59.222C-86.36,-61.011 -86.24,-62.322 -86.24,-63.158L-86.24,-64.053L-86.956,-64.59C-88.985,-64.469 -90.595,-63.812 -91.787,-62.622C-92.385,-62.859 -93.218,-63.158 -94.292,-63.516L-95.544,-62.622L-95.901,-62.622L-97.333,-63.337C-98.647,-62.501 -99.899,-61.696 -101.09,-60.922C-102.284,-60.144 -103.237,-58.923 -103.953,-57.254L-103.237,-56.717L-103.237,-56.002L-103.774,-55.465L-104.132,-54.749C-104.252,-54.033 -104.252,-53.318 -104.132,-52.602C-104.49,-52.482 -104.909,-52.303 -105.384,-52.065L-105.921,-51.171C-106.162,-50.692 -106.279,-49.798 -106.279,-48.487C-106.279,-48.009 -106.995,-44.967 -108.426,-39.362L-107.889,-37.573C-108.845,-36.857 -109.561,-35.604 -110.036,-33.815L-109.142,-31.489C-109.142,-31.249 -109.62,-29.759 -110.573,-27.016L-110.036,-26.122L-110.931,-25.943L-111.289,-25.584C-111.409,-24.987 -111.529,-24.45 -111.646,-23.975C-110.931,-21.828 -110.573,-20.218 -110.573,-19.144C-110.573,-17.354 -110.931,-15.208 -111.646,-12.703L-114.509,-13.955L-115.046,-15.029C-118.982,-17.293 -120.951,-20.872 -120.951,-25.764L-119.34,-28.984L-119.877,-29.879L-119.519,-30.774L-119.161,-31.131L-118.625,-31.489L-118.625,-32.742C-118.745,-34.173 -118.208,-35.484 -117.014,-36.678C-117.372,-37.036 -117.85,-37.573 -118.446,-38.288C-118.446,-38.405 -117.85,-39.362 -116.656,-41.151L-116.298,-40.793L-115.94,-41.151C-115.823,-41.626 -115.703,-42.104 -115.583,-42.582L-115.94,-43.119L-116.656,-43.298L-117.014,-43.119L-117.372,-42.761L-117.014,-43.656L-116.656,-44.193C-116.181,-44.31 -115.645,-44.431 -115.046,-44.551L-115.225,-45.267C-114.867,-45.742 -114.688,-46.278 -114.688,-46.876L-115.046,-47.413L-115.94,-47.95L-116.656,-47.771C-116.298,-49.203 -115.94,-50.572 -115.583,-51.887C-115.225,-53.197 -114.213,-54.271 -112.541,-55.106L-112.541,-57.433C-116.478,-56.955 -120.414,-55.345 -124.35,-52.602L-125.423,-52.781C-126.975,-52.898 -129.153,-51.945 -131.954,-49.918C-134.758,-47.889 -136.279,-46.876 -136.517,-46.876C-137.232,-46.756 -138.247,-46.457 -139.558,-45.982L-140.274,-45.267C-141.826,-46.1 -144.151,-46.935 -147.252,-47.771C-147.492,-49.32 -148.208,-50.365 -149.399,-50.902C-150.593,-51.439 -151.845,-51.887 -153.156,-52.244L-154.229,-54.212L-156.377,-54.392C-156.497,-55.224 -157.512,-56.449 -159.418,-58.059C-161.328,-59.669 -162.521,-61.727 -162.997,-64.232C-162.759,-65.663 -162.46,-67.095 -162.102,-68.526C-161.627,-69.6 -160.553,-70.432 -158.882,-71.031L-156.377,-70.673L-151.725,-71.389L-150.651,-69.778L-148.325,-70.494C-144.031,-68.347 -138.546,-67.273 -131.865,-67.273C-129.242,-67.273 -125.781,-67.57 -121.487,-68.168C-116.002,-69.001 -112.603,-69.479 -111.289,-69.6L-110.036,-70.494C-110.394,-70.852 -110.931,-71.148 -111.646,-71.389L-112.183,-71.747L-112.362,-72.283L-111.289,-72.999L-111.289,-73.536C-111.646,-73.653 -111.887,-73.715 -112.004,-73.715L-112.004,-74.251L-111.646,-74.609L-110.752,-74.609C-111.11,-75.683 -111.646,-77.351 -112.362,-79.619L-111.468,-81.229L-112.004,-82.124C-113.676,-81.168 -116.298,-79.856 -119.877,-78.187C-121.191,-80.452 -122.471,-82.809 -123.724,-85.255C-124.976,-87.698 -125.603,-90.234 -125.603,-92.859C-125.603,-93.932 -124.649,-95.959 -122.74,-98.942C-119.759,-100.134 -115.465,-103.236 -109.857,-108.247L-110.036,-109.319C-109.919,-109.437 -108.13,-110.215 -104.668,-111.646C-103.12,-111.288 -101.627,-111.168 -100.196,-111.288L-99.48,-110.393C-98.406,-110.273 -96.796,-109.915 -94.649,-109.319C-92.98,-108.722 -91.16,-107.559 -89.192,-105.831C-87.224,-104.1 -86.181,-102.459 -86.061,-100.911C-87.134,-98.764 -89.164,-95.66 -92.144,-91.606C-92.622,-91.606 -93.338,-91.724 -94.292,-91.965C-95.248,-92.202 -95.963,-92.322 -96.438,-92.322C-99.542,-92.322 -103.237,-90.891 -107.531,-88.028L-108.247,-87.134C-108.367,-86.536 -108.426,-85.999 -108.426,-85.523C-108.068,-85.165 -107.442,-84.657 -106.547,-84.002C-105.653,-83.346 -104.431,-82.004 -102.879,-79.977C-102.762,-79.379 -102.521,-78.604 -102.164,-77.651C-101.926,-77.173 -101.51,-76.516 -100.911,-75.683C-100.794,-74.726 -100.554,-73.356 -100.196,-71.567C-93.396,-73.832 -88.448,-75.146 -85.345,-75.504L-85.882,-78.187C-85.882,-81.408 -85.614,-86.267 -85.077,-92.769C-84.54,-99.269 -84.271,-104.131 -84.271,-107.351C-84.271,-110.572 -85.943,-114.866 -89.282,-120.234L-89.103,-121.486C-89.581,-121.724 -92.743,-123.871 -98.585,-127.927C-99.779,-128.286 -101.448,-129.06 -103.595,-130.254C-105.267,-131.207 -106.34,-132.28 -106.816,-133.474C-110.872,-135.264 -113.615,-138.363 -115.046,-142.778C-117.671,-143.731 -118.982,-146.058 -118.982,-149.755C-118.982,-150.709 -118.924,-151.663 -118.803,-152.619C-117.97,-153.452 -116.956,-154.883 -115.762,-156.913L-115.225,-157.091C-114.987,-157.45 -114.688,-157.687 -114.331,-157.808L-113.615,-157.27C-113.257,-158.103 -112.662,-158.523 -111.826,-158.523C-109.678,-158.523 -107.414,-158.044 -105.026,-157.091L-103.237,-157.27L-102.521,-155.66L-101.985,-155.66C-101.51,-155.66 -100.615,-155.271 -99.301,-154.497C-97.99,-153.72 -96.917,-153.334 -96.081,-153.334L-95.901,-153.334L-95.723,-152.619C-95.485,-152.498 -95.186,-152.351 -94.828,-152.171C-94.47,-151.993 -94.232,-151.724 -94.112,-151.366L-92.681,-152.082L-92.86,-151.187C-92.743,-150.83 -92.502,-150.589 -92.144,-150.472L-91.607,-150.65C-91.132,-150.41 -90.475,-150.231 -89.639,-150.114C-88.806,-149.994 -87.612,-149.814 -86.061,-149.577C-85.107,-149.457 -83.198,-149.755 -80.335,-150.472C-80.098,-150.351 -79.799,-150.114 -79.441,-149.755C-76.103,-151.783 -68.946,-153.871 -57.97,-156.018C-47.833,-157.925 -40.199,-158.881 -35.068,-158.881L-34.174,-158.881C-33.816,-158.64 -33.579,-158.344 -33.458,-157.986C-31.311,-158.344 -30.299,-158.523 -30.417,-158.523C-29.701,-158.523 -28.449,-157.539 -26.659,-155.571C-24.87,-153.602 -23.679,-152.44 -23.081,-152.082L-24.154,-149.755L-23.976,-149.398C-23.858,-149.157 -23.618,-148.92 -23.26,-148.683L-23.081,-147.967C-23.439,-147.251 -24.305,-146.535 -25.675,-145.819C-27.048,-145.104 -28.032,-143.673 -28.627,-141.525L-29.701,-141.525C-29.821,-140.569 -30.657,-138.752 -32.206,-136.068C-33.757,-133.385 -34.532,-130.907 -34.532,-128.643C-34.415,-128.643 -34.235,-128.582 -33.995,-128.464L-33.995,-127.749C-37.098,-125.959 -38.647,-122.677 -38.647,-117.908C-38.647,-116.356 -38.499,-115.104 -38.2,-114.151C-37.903,-113.195 -36.321,-112.299 -33.458,-111.467C-31.074,-110.751 -29.284,-110.452 -28.091,-110.572L-20.576,-111.109L-20.576,-113.077L-19.145,-111.467L-18.25,-113.077L-17.355,-113.256C-15.329,-113.256 -13.598,-112.299 -12.167,-110.393L-11.988,-109.499L-10.199,-109.499L-10.199,-107.173L-11.63,-107.889L-10.735,-105.383C-10.976,-105.143 -12.287,-104.369 -14.671,-103.058C-15.628,-102.459 -17.059,-101.685 -18.966,-100.731C-26.363,-99.658 -34.473,-98.226 -43.299,-96.437C-44.73,-97.391 -46.64,-99.18 -49.024,-101.805L-48.488,-103.952C-49.086,-108.126 -49.382,-110.452 -49.382,-110.93C-49.382,-111.288 -49.175,-112.004 -48.756,-113.077C-48.339,-114.151 -47.713,-117.251 -46.877,-122.381C-46.998,-123.455 -46.64,-124.945 -45.804,-126.854C-46.162,-129.717 -46.76,-134.011 -47.593,-139.736C-48.071,-139.854 -48.488,-139.915 -48.845,-139.915C-49.324,-139.915 -50.218,-139.496 -51.529,-138.663C-52.007,-138.9 -52.603,-139.08 -53.318,-139.2C-54.274,-139.2 -55.555,-138.69 -57.165,-137.679C-58.775,-136.664 -60.059,-136.275 -61.012,-136.516C-66.262,-132.101 -69.958,-128.464 -72.105,-125.601C-71.39,-125.003 -70.674,-123.634 -69.958,-121.486C-69.005,-121.129 -67.873,-120.173 -66.559,-118.624C-66.321,-116.476 -65.546,-113.494 -64.232,-109.677C-68.409,-104.785 -70.495,-101.744 -70.495,-100.553C-70.377,-99.955 -70.199,-99.3 -69.958,-98.584L-70.853,-96.08C-70.735,-96.08 -70.615,-96.018 -70.495,-95.901L-70.495,-95.364C-70.853,-95.124 -71.331,-93.991 -71.926,-91.965L-71.568,-90.891C-72.642,-89.577 -73.179,-87.312 -73.179,-84.092C-73.179,-84.567 -73.12,-83.135 -73,-79.798C-70.853,-82.898 -67.215,-84.45 -62.085,-84.45C-61.252,-84.45 -60.059,-84.151 -58.507,-83.556C-56.958,-82.957 -55.885,-82.6 -55.287,-82.482C-52.902,-81.646 -50.517,-80.872 -48.13,-80.155C-45.029,-78.842 -43.478,-76.695 -43.478,-73.715C-43.956,-72.163 -45.149,-69.957 -47.056,-67.095L-47.056,-66.379C-49.324,-65.064 -50.934,-62.739 -51.887,-59.401C-52.365,-56.538 -52.843,-53.675 -53.318,-50.813C-53.438,-48.426 -53.081,-44.967 -52.245,-40.435C-51.412,-38.405 -50.397,-37.095 -49.203,-36.499C-45.387,-34.232 -41.868,-32.742 -38.647,-32.026C-36.262,-31.906 -32.743,-31.19 -28.091,-29.879C-22.843,-30.712 -17.534,-31.548 -12.167,-32.383C-6.083,-33.815 -1.552,-36.379 1.431,-40.078C2.505,-42.224 4.411,-45.325 7.157,-49.382L8.767,-47.413Z" style="fill:rgb(64,34,15);fill-rule:nonzero;"/>
        </g>
        <g transform="matrix(1,0,0,1,488.74,246.351)">
            <path d="M0,-71.567L-0.179,-72.282C-2.208,-71.21 -5.309,-69.716 -9.483,-67.81L-13.419,-69.42C-14.375,-68.585 -14.851,-67.749 -14.851,-66.915L-14.851,-65.663C-14.493,-65.543 -14.135,-65.484 -13.777,-65.484C-14.971,-65.484 -13.062,-65.9 -8.052,-66.736L-0.358,-66.736C-0.358,-67.331 -0.299,-68.168 -0.179,-69.241C-0.062,-70.315 0,-71.089 0,-71.567M30.059,-59.043C28.865,-59.16 27.85,-59.071 27.017,-58.775C26.181,-58.475 25.107,-57.969 23.796,-57.254L23.438,-56.717L23.259,-56.001L17.713,-57.254C16.757,-56.655 16.282,-55.76 16.282,-54.57C16.282,-53.734 16.371,-52.482 16.55,-50.813C16.729,-49.141 16.818,-47.888 16.818,-47.055C16.818,-45.025 16.64,-43.656 16.282,-42.94C14.968,-42.7 13.299,-42.104 11.272,-41.151L10.198,-38.825L6.978,-39.361L5.546,-38.825C1.968,-41.447 -0.062,-46.278 -0.537,-53.317C-0.179,-53.913 0,-54.807 0,-56.001C0,-56.476 -0.062,-56.955 -0.179,-57.432C-3.64,-57.075 -8.829,-56.18 -15.745,-54.749C-15.865,-54.032 -15.924,-53.256 -15.924,-52.422C-15.924,-50.393 -15.449,-48.307 -14.493,-46.161L-10.915,-46.518C-5.429,-46.518 -1.91,-45.562 -0.358,-43.656L-1.074,-42.94C-1.074,-42.7 -0.777,-41.805 -0.179,-40.256C-1.73,-39.183 -3.878,-37.869 -6.62,-36.32C-6.861,-36.2 -8.588,-36.021 -11.809,-35.783C-13.718,-35.663 -14.672,-34.768 -14.672,-33.099C-14.672,-32.501 -14.613,-31.847 -14.493,-31.131C-14.613,-30.774 -14.672,-30.354 -14.672,-29.879C-14.672,-28.922 -14.314,-28.207 -13.598,-27.732C-13.002,-27.849 -12.645,-27.911 -12.524,-27.911C-9.662,-27.911 -8.351,-27.849 -8.588,-27.732C-6.919,-27.133 -5.309,-26.18 -3.757,-24.869L-3.757,-23.617C-3.52,-23.497 -2.924,-22.96 -1.968,-22.006L-2.147,-21.291C-4.294,-20.097 -7.218,-18.249 -10.915,-15.743L-11.451,-15.565C-12.524,-14.849 -13.212,-13.835 -13.509,-12.524C-13.808,-11.21 -14.018,-9.899 -14.135,-8.588L-11.63,-8.05C-9.603,-9.004 -6.978,-9.482 -3.757,-9.482C-2.326,-9.482 -0.716,-8.825 1.073,-7.514C1.191,-6.678 1.073,-5.367 0.715,-3.578C0.117,-3.099 -2.388,-1.967 -6.799,-0.178C-10.02,1.136 -12.049,2.567 -12.882,4.116L-11.63,17.178C-12.466,17.535 -13.151,18.58 -13.688,20.308C-14.224,22.039 -15.029,23.322 -16.103,24.156C-20.875,21.055 -23.26,17.297 -23.26,12.883L-22.544,8.589L-23.26,6.263C-25.885,6.503 -28.51,6.8 -31.132,7.158C-34.831,7.636 -37.157,8.293 -38.11,9.126C-41.213,8.531 -42.882,8.173 -43.12,8.052C-45.15,7.337 -46.044,6.026 -45.804,4.116L-44.73,1.253C-42.226,-0.178 -34.532,-2.504 -21.649,-5.724C-21.532,-7.273 -21.77,-9.241 -22.365,-11.629L-28.27,-10.198C-31.848,-11.271 -35.248,-13.418 -38.468,-16.639L-38.647,-18.428L-39.542,-19.502C-38.708,-22.601 -38.172,-24.271 -37.931,-24.511C-37.694,-24.749 -36.025,-24.807 -32.921,-24.69C-32.206,-25.286 -30.568,-25.613 -28.001,-25.674C-25.437,-25.733 -23.5,-26.3 -22.187,-27.373L-22.187,-31.847C-24.691,-31.847 -27.227,-31.221 -29.791,-29.968C-32.357,-28.716 -34.831,-27.491 -37.216,-26.3L-39.542,-28.269L-40.436,-28.089C-43.182,-31.786 -44.551,-34.589 -44.551,-36.499C-44.551,-37.214 -44.314,-37.93 -43.836,-38.646C-38.23,-40.315 -31.91,-42.163 -24.87,-44.192L-24.333,-44.013C-23.738,-44.251 -22.843,-44.609 -21.649,-45.087C-21.532,-45.92 -21.471,-46.697 -21.471,-47.413C-21.471,-48.962 -21.711,-50.633 -22.187,-52.422C-22.665,-52.54 -23.081,-52.601 -23.439,-52.601C-26.064,-52.601 -31.79,-50.813 -40.615,-47.234C-42.167,-46.994 -44.255,-46.577 -46.877,-45.982C-49.024,-45.025 -51.529,-44.192 -54.392,-43.477C-58.569,-42.403 -60.179,-41.867 -59.223,-41.867C-61.968,-41.867 -64.412,-43.356 -66.559,-46.339C-68.11,-48.844 -69.184,-51.646 -69.779,-54.749C-67.515,-56.418 -63.875,-57.432 -58.865,-57.791C-54.929,-58.028 -50.993,-58.266 -47.056,-58.506C-38.11,-59.938 -29.821,-61.844 -22.187,-64.232C-22.187,-64.947 -22.097,-65.99 -21.918,-67.363C-21.739,-68.732 -21.649,-69.778 -21.649,-70.494C-21.649,-71.089 -21.711,-71.626 -21.829,-72.104C-22.665,-72.579 -23.976,-73.356 -25.765,-74.43C-27.196,-74.668 -29.105,-75.442 -31.49,-76.756C-32.563,-77.83 -34.115,-79.319 -36.142,-81.229L-35.426,-83.376C-36.978,-84.209 -38.708,-85.64 -40.615,-87.67C-43.002,-88.981 -44.613,-90.681 -45.446,-92.769C-46.282,-94.855 -47.056,-96.974 -47.772,-99.121L-47.235,-100.194L-47.772,-101.805C-47.534,-103.831 -46.819,-105.889 -45.625,-107.977C-44.434,-110.063 -42.941,-111.109 -41.152,-111.109C-40.079,-111.109 -39.184,-111.226 -38.468,-111.466C-36.919,-111.346 -34.831,-110.93 -32.206,-110.214C-30.179,-108.782 -26.838,-106.932 -22.187,-104.668C-21.711,-104.427 -21.233,-104.131 -20.755,-103.773C-20.039,-104.606 -19.564,-107.827 -19.324,-113.435C-19.206,-115.224 -18.848,-116.415 -18.25,-117.013C-18.37,-117.371 -18.429,-117.787 -18.429,-118.265C-18.429,-119.697 -17.297,-120.413 -15.029,-120.413C-13.36,-120.413 -12.049,-119.935 -11.093,-118.981C-10.855,-117.668 -10.26,-115.224 -9.304,-111.646C-8.351,-108.543 -7.873,-106.038 -7.873,-104.131C-7.873,-103.057 -7.993,-102.043 -8.23,-101.089C-5.488,-100.133 -2.924,-99.716 -0.537,-99.836L1.073,-98.942L3.578,-99.3C5.127,-99.418 7.335,-99.18 10.198,-98.585C16.041,-95.721 20.218,-91.249 22.723,-85.165C22.007,-82.898 21.649,-81.466 21.649,-80.871C21.649,-80.393 21.887,-79.856 22.365,-79.26C19.262,-76.636 17.771,-73.356 17.892,-69.42L17.892,-68.705C20.039,-67.869 23.259,-66.616 27.554,-64.947C28.627,-63.633 29.46,-61.665 30.059,-59.043M22.723,17.178C21.292,18.013 19.86,19.445 18.429,21.471L14.85,26.302C13.657,27.734 11.21,29.853 7.515,32.654C3.816,35.456 1.311,37.037 0,37.395C-0.241,38.228 -2.446,39.453 -6.62,41.063C-10.797,42.673 -13.062,44.194 -13.419,45.625L-14.851,45.447C-15.807,46.043 -17.328,46.52 -19.413,46.878C-21.501,47.236 -22.963,47.594 -23.796,47.952L-25.049,47.773C-30.537,47.773 -33.699,48.13 -34.532,48.846C-38.588,48.13 -44.551,46.638 -52.424,44.373L-53.498,44.373C-57.434,40.912 -62.563,37.932 -68.885,35.428C-71.032,36.976 -72.463,38.17 -73.179,39.006C-74.73,40.317 -75.804,41.807 -76.399,43.479C-76.877,43.238 -77.534,42.226 -78.367,40.437C-79.203,38.648 -79.62,37.395 -79.62,36.68L-79.441,36.143C-79.681,34.591 -79.024,32.624 -77.473,30.239C-80.335,27.854 -82.84,26.244 -84.987,25.408C-85.703,25.29 -86.391,24.871 -87.045,24.156C-87.702,23.44 -88.745,22.607 -90.176,21.65C-90.176,20.935 -90.355,19.923 -90.713,18.609C-91.549,17.776 -92.681,16.283 -94.112,14.136C-94.353,13.661 -94.89,12.883 -95.723,11.81C-95.843,11.452 -95.843,11.036 -95.723,10.557C-95.605,10.2 -95.365,9.842 -95.007,9.484L-95.901,7.695C-95.186,6.026 -94.412,5.19 -93.576,5.19C-89.044,5.19 -84.571,6.503 -80.157,9.126C-76.103,11.751 -72.046,14.315 -67.99,16.82C-67.632,16.461 -67.157,15.866 -66.559,15.03L-66.738,14.494C-70.199,12.945 -72.524,10.857 -73.715,8.231C-74.551,6.204 -74.968,3.104 -74.968,-1.072C-74.968,-5.484 -74.551,-9.482 -73.715,-13.06C-72.882,-16.639 -72.046,-20.276 -71.21,-23.974L-72.105,-23.974C-73.299,-22.78 -74.851,-21.945 -76.757,-21.469C-79.262,-20.871 -80.872,-20.335 -81.588,-19.859L-88.387,-21.291C-88.865,-22.006 -89.701,-23.079 -90.892,-24.511C-91.728,-24.986 -92.801,-25.822 -94.112,-27.016C-94.71,-27.611 -95.248,-28.685 -95.723,-30.237C-95.843,-31.31 -96.022,-32.92 -96.259,-35.067C-95.664,-36.379 -94.232,-37.035 -91.965,-37.035C-91.37,-37.035 -90.534,-36.915 -89.46,-36.678C-88.387,-36.437 -87.612,-36.32 -87.134,-36.32C-85.823,-36.915 -82.214,-37.869 -76.31,-39.183C-70.405,-40.494 -66.858,-41.151 -65.664,-41.151C-63.399,-41.151 -59.701,-39.004 -54.571,-34.71C-54.571,-32.442 -54.392,-30.952 -54.034,-30.237C-57.255,-27.016 -59.164,-24.271 -59.76,-22.006C-63.937,-17.83 -66.022,-12.761 -66.022,-6.798C-66.022,-5.247 -65.368,-2.862 -64.054,0.359C-57.733,3.58 -54.571,7.22 -54.571,11.273C-54.571,12.467 -55.317,14.108 -56.808,16.193C-58.3,18.282 -59.044,19.923 -59.044,21.114C-58.449,21.114 -56.539,21.981 -53.318,23.708C-50.098,25.439 -48.012,26.302 -47.056,26.302C-46.698,26.901 -44.551,27.795 -40.615,28.986C-38.11,29.942 -33.757,31.253 -27.554,32.922C-24.216,32.802 -19.324,33.219 -12.882,34.175C-11.093,33.219 -8.023,32.355 -3.668,31.58C0.685,30.806 3.875,29.822 5.904,28.629C7.335,27.795 10.078,25.766 14.135,22.545C17.593,19.802 20.456,18.013 22.723,17.178M-78.725,-69.778C-79.919,-69.3 -80.515,-68.047 -80.515,-66.021C-80.515,-66.616 -80.456,-65.484 -80.335,-62.621L-79.978,-62.085C-79.86,-61.607 -79.799,-61.07 -79.799,-60.474L-81.946,-59.043L-81.946,-57.969C-83.14,-56.297 -85.167,-53.971 -88.029,-50.991C-88.507,-50.513 -89.818,-49.856 -91.965,-49.023C-93.517,-48.425 -94.59,-47.472 -95.186,-46.161L-96.796,-46.518C-97.274,-46.398 -97.931,-46.099 -98.764,-45.623C-99.48,-44.43 -101.688,-41.925 -105.384,-38.109C-108.487,-34.888 -110.335,-32.143 -110.931,-29.879C-109.142,-28.922 -107.325,-27.939 -105.474,-26.926C-103.626,-25.911 -102.404,-24.332 -101.806,-22.185L-98.228,-18.07C-98.348,-17.354 -98.468,-16.639 -98.585,-15.923L-98.228,-15.386L-98.228,-14.313C-99.659,-13.119 -100.436,-11.897 -100.554,-10.645C-100.674,-9.392 -100.794,-8.05 -100.912,-6.619C-100.912,-5.903 -101.09,-5.188 -101.448,-4.472C-100.973,-3.158 -100.732,-1.727 -100.732,-0.178C-100.732,1.731 -100.973,4.474 -101.448,8.052C-101.926,11.631 -102.164,14.315 -102.164,16.104C-102.164,24.454 -101.269,31.432 -99.48,37.037L-99.838,37.574C-99.958,38.17 -100.316,38.827 -100.912,39.543L-103.237,38.827L-104.132,39.006C-104.252,39.721 -104.49,40.733 -104.848,42.047L-106.637,41.511L-108.963,42.226C-112.424,38.765 -114.271,36.917 -114.509,36.68C-116.298,34.412 -117.193,31.97 -117.193,29.344C-117.193,28.629 -117.104,27.465 -116.925,25.855C-116.746,24.245 -116.656,23.023 -116.656,22.187C-116.776,17.893 -116.835,14.377 -116.835,11.631C-116.835,3.401 -116.36,-3.873 -115.404,-10.198C-115.287,-11.388 -115.345,-12.881 -115.583,-14.671L-115.046,-15.743L-117.193,-17.533C-119.223,-16.817 -120.654,-14.671 -121.487,-11.092C-121.845,-10.614 -122.323,-9.839 -122.918,-8.766L-123.098,-7.514L-122.74,-7.335L-122.74,-6.44L-123.992,-4.114L-123.276,-2.504C-123.634,-1.906 -123.964,-0.178 -124.261,2.685C-124.56,5.547 -125.186,7.577 -126.139,8.768C-127.57,8.768 -128.465,8.589 -128.823,8.231L-129.36,8.768C-129.36,9.842 -129.779,10.678 -130.612,11.273L-132.759,10.378L-133.475,10.736L-134.548,10.2L-135.085,10.557L-135.98,11.631L-136.695,11.989C-137.053,11.393 -137.294,10.915 -137.411,10.557L-137.232,10.02L-137.411,9.484C-144.21,7.337 -147.61,4.116 -147.61,-0.178C-147.61,-0.653 -147.551,-1.131 -147.431,-1.609C-147.789,-3.399 -146.715,-8.347 -144.21,-16.46C-142.541,-21.707 -140.811,-26.896 -139.021,-32.026C-138.188,-35.842 -136.637,-41.388 -134.37,-48.665C-132.821,-52.839 -130.674,-59.28 -127.928,-67.989C-127.213,-69.062 -126.318,-70.79 -125.245,-73.177C-124.412,-76.041 -123.039,-80.393 -121.129,-86.239L-119.877,-86.955L-120.593,-88.207C-119.402,-89.638 -118.803,-91.128 -118.803,-92.68C-117.73,-95.064 -116.656,-97.39 -115.583,-99.658C-113.914,-102.638 -110.335,-104.069 -104.848,-103.951L-104.311,-103.057L-103.774,-103.594L-103.059,-103.773L-101.985,-103.594C-101.39,-103.594 -100.973,-103.653 -100.732,-103.773C-99.421,-103.532 -97.453,-102.937 -94.828,-101.984C-94.71,-101.626 -94.77,-101.268 -95.007,-100.91L-94.47,-100.552L-94.112,-100.552C-93.875,-100.432 -93.606,-100.254 -93.307,-100.015C-93.011,-99.775 -92.206,-99.479 -90.892,-99.121C-90.654,-98.88 -90.238,-98.523 -89.639,-98.047L-88.745,-97.69C-88.27,-96.495 -87.196,-95.302 -85.524,-94.111C-85.765,-93.871 -85.882,-93.575 -85.882,-93.216C-84.929,-92.143 -83.438,-89.577 -81.409,-85.523L-82.125,-83.734L-80.157,-77.293L-80.515,-75.504C-80.157,-74.19 -79.561,-72.282 -78.725,-69.778" style="fill:rgb(64,34,15);fill-rule:nonzero;"/>
        </g>
        <g transform="matrix(1,0,0,1,634.882,236.154)">
            <path d="M0,-46.699C-1.909,-48.01 -4.355,-48.667 -7.336,-48.667C-11.154,-48.667 -13.598,-47.831 -14.672,-46.162L-15.029,-46.341L-15.029,-47.414C-16.103,-47.294 -17.207,-46.43 -18.34,-44.82C-19.475,-43.209 -20.039,-41.806 -20.039,-40.616C-20.039,-40.137 -19.98,-39.659 -19.86,-39.184C-18.429,-40.137 -15.865,-40.643 -12.167,-40.705C-8.471,-40.763 -5.846,-41.09 -4.294,-41.689L-0.895,-41.331C-0.657,-42.522 -0.358,-44.311 0,-46.699M-24.691,-66.2L-26.48,-66.738C-28.39,-66.26 -31.015,-65.424 -34.353,-64.233L-34.711,-64.412C-38.289,-63.338 -40.973,-62.98 -42.762,-63.338L-43.12,-63.159L-42.941,-62.802L-43.478,-62.802L-47.951,-60.297L-48.667,-60.475L-49.562,-61.191L-50.635,-61.012L-50.992,-60.654C-51.233,-60.176 -51.292,-59.699 -51.172,-59.223L-52.066,-59.223C-53.022,-59.341 -53.827,-59.072 -54.481,-58.417C-55.139,-57.761 -55.765,-57.076 -56.36,-56.36C-56.48,-56.003 -56.539,-55.583 -56.539,-55.108C-56.539,-54.63 -56.422,-53.884 -56.182,-52.871C-55.943,-51.857 -55.823,-51.052 -55.823,-50.456C-55.823,-50.098 -55.885,-49.62 -56.002,-49.025C-62.086,-46.878 -65.127,-43.595 -65.127,-39.184C-66.321,-38.944 -67.037,-38.228 -67.274,-37.037L-67.812,-33.995L-67.453,-33.459C-66.857,-33.218 -65.485,-33.101 -63.338,-33.101C-61.312,-33.101 -58.507,-33.459 -54.929,-34.174C-50.635,-35.128 -47.923,-35.634 -46.788,-35.695C-45.655,-35.754 -43.956,-35.844 -41.688,-35.964C-40.973,-36.321 -39.841,-36.797 -38.289,-37.395C-36.383,-37.512 -33.578,-37.811 -29.88,-38.289L-28.807,-43.835C-29.643,-43.953 -31.193,-43.953 -33.458,-43.835C-33.698,-43.835 -34.563,-44.133 -36.053,-44.73C-37.546,-45.326 -38.588,-45.625 -39.184,-45.625C-39.662,-45.625 -40.078,-45.446 -40.437,-45.089C-42.226,-46.162 -44.076,-47.294 -45.982,-48.488C-47.893,-49.679 -48.846,-51.23 -48.846,-53.14C-48.846,-56.36 -46.818,-57.97 -42.762,-57.97C-41.929,-57.97 -40.587,-57.85 -38.736,-57.613C-36.889,-57.372 -35.488,-57.255 -34.532,-57.255L-28.628,-57.97L-28.628,-59.044C-28.748,-62.98 -27.437,-65.365 -24.691,-66.2M-33.995,24.691C-35.427,26.363 -37.752,28.747 -40.973,31.847C-42.883,33.399 -45.745,35.488 -49.562,38.11C-50.518,38.35 -51.887,38.946 -53.677,39.899C-54.154,40.257 -55.765,41.928 -58.507,44.908C-61.012,44.908 -62.862,45.205 -64.054,45.803C-65.843,44.847 -66.916,43.625 -67.274,42.136C-67.632,40.645 -67.873,39.066 -67.99,37.394L-67.274,36.321L-67.453,35.963C-67.336,34.889 -67.216,33.816 -67.096,32.742C-66.978,31.668 -66.321,30.895 -65.127,30.417C-62.742,30.895 -61.61,31.132 -61.728,31.132C-60.179,31.132 -55.885,29.7 -48.846,26.838C-41.809,23.975 -37.932,22.605 -37.216,22.722L-35.963,22.902L-33.995,24.691ZM-35.784,15.387C-35.784,15.864 -35.846,16.343 -35.963,16.818C-37.277,17.296 -39.125,18.428 -41.51,20.218C-43.419,21.649 -45.328,22.364 -47.235,22.364C-48.071,22.364 -49.086,22.247 -50.276,22.008C-51.471,22.364 -52.843,22.544 -54.392,22.544C-58.211,22.544 -62.385,20.933 -66.916,17.713C-71.926,14.134 -74.431,10.556 -74.431,6.978L-74.431,3.22C-73.716,1.789 -72.167,1.073 -69.779,1.073C-64.77,1.073 -58.27,2.387 -50.276,5.009C-40.615,8.113 -35.784,11.571 -35.784,15.387M44.729,-34.711L42.404,-35.605L42.226,-33.637L40.973,-34.174L35.784,-33.101C31.607,-33.696 25.406,-34.649 17.176,-35.964L16.461,-35.605L13.419,-35.964C12.346,-35.485 11.151,-35.248 9.841,-35.248L8.946,-34.89C8.705,-34.292 8.767,-33.754 9.125,-33.28L9.125,-32.742C8.646,-32.385 8.289,-31.966 8.052,-31.491L7.872,-30.596C7.99,-29.998 8.23,-29.522 8.588,-29.164C8.23,-29.044 7.99,-28.924 7.872,-28.806C7.872,-28.449 8.23,-27.733 8.946,-26.659C8.588,-26.302 8.348,-25.824 8.23,-25.228C8.588,-24.75 8.767,-24.094 8.767,-23.26L7.156,-21.113L8.23,-19.324L6.978,-16.282C6.021,-15.089 4.711,-13.478 3.041,-11.451L-0.358,-13.061C-2.03,-16.282 -2.804,-20.098 -2.684,-24.512C-2.446,-29.639 -2.446,-32.742 -2.684,-33.816L-2.505,-34.353L-2.505,-34.89L-5.188,-34.89L-7.693,-34.174L-8.588,-34.711L-8.768,-34.353L-9.841,-34.174L-10.02,-33.459L-11.809,-34.711L-12.524,-33.459L-12.883,-33.459C-13.123,-33.459 -13.302,-33.576 -13.419,-33.816L-13.419,-34.174L-14.313,-33.459L-15.208,-33.995C-15.449,-33.875 -16.344,-33.696 -17.893,-33.459C-18.133,-33.218 -18.37,-33.101 -18.607,-33.101C-19.206,-32.623 -19.623,-32.444 -19.86,-32.564L-19.323,-32.742L-20.218,-33.28L-20.218,-33.816L-19.86,-34.174L-20.039,-34.711L-20.576,-34.711L-20.755,-33.816C-21.112,-33.696 -21.532,-33.576 -22.008,-33.459L-22.008,-33.101C-22.248,-33.218 -22.365,-33.159 -22.365,-32.922L-22.365,-32.385L-22.008,-31.848C-22.365,-31.728 -22.723,-31.518 -23.081,-31.222C-23.438,-30.922 -23.679,-29.639 -23.797,-27.375C-24.395,-25.824 -24.932,-23.378 -25.407,-20.04C-23.618,-20.04 -20.965,-20.397 -17.445,-21.113C-13.928,-21.829 -11.272,-22.186 -9.483,-22.186C-8.172,-22.186 -6.799,-22.008 -5.368,-21.65C-4.772,-21.052 -4.057,-19.978 -3.221,-18.429C-3.578,-16.878 -4.803,-15.745 -6.889,-15.03C-8.977,-14.314 -10.914,-13.657 -12.703,-13.061C-15.924,-11.272 -20.159,-9.304 -25.407,-7.157C-26.48,-5.485 -27.018,-3.28 -27.018,-0.537C-27.018,9.483 -26.721,16.282 -26.123,19.86L-25.228,18.966L-25.049,18.071L-25.765,13.955C-25.049,11.333 -20.576,7.218 -12.346,1.61C-5.787,-2.802 -0.42,-6.022 3.757,-8.052C4.353,-8.289 5.188,-8.706 6.262,-9.304C8.409,-8.946 10.794,-7.931 13.419,-6.262L14.492,-6.62C17.713,-5.784 20.455,-3.875 22.723,-0.895L22.007,0.358L24.333,1.968L21.828,2.147L20.755,5.188C19.681,5.188 17.771,6.083 15.029,7.872C12.642,7.039 10.735,6.619 9.304,6.619C6.559,6.619 3.995,7.156 1.61,8.23C-2.326,9.902 -4.652,10.855 -5.368,11.093C-5.726,10.975 -6.324,10.796 -7.157,10.556L-7.693,10.914C-4.951,15.448 -0.716,20.218 5.01,25.227C11.21,30.716 16.64,34.114 21.291,35.426C23.796,35.188 26.776,34.235 30.237,32.563C34.89,30.299 37.752,28.985 38.825,28.627L38.825,29.522C37.752,29.879 34.828,32.267 30.059,36.678C25.882,40.497 21.351,42.404 16.461,42.404C12.284,42.404 7.216,41.093 1.252,38.468C-6.503,34.889 -11.393,32.863 -13.419,32.384C-13.539,32.384 -13.777,32.563 -14.135,32.921L-14.672,33.1C-16.581,32.267 -18.549,30.835 -20.576,28.806L-20.576,27.732L-25.407,20.039L-26.123,20.218L-26.302,20.933C-26.302,21.411 -26.212,22.096 -26.033,22.991C-25.854,23.886 -25.706,24.453 -25.586,24.691C-25.228,29.343 -24.513,36.321 -23.438,45.625C-23.321,46.698 -22.812,48.694 -21.918,51.618C-21.023,54.539 -20.576,56.718 -20.576,58.149C-20.576,61.129 -21.412,63.455 -23.081,65.127C-27.615,61.191 -29.88,57.612 -29.88,54.391L-29.88,50.813C-29.763,49.024 -29.701,47.472 -29.701,46.162C-29.701,46.877 -30.059,42.167 -30.774,32.027C-32.206,14.134 -32.742,2.088 -32.385,-4.116C-32.742,-4.233 -35.784,-4.59 -41.51,-5.189C-45.208,-5.546 -48.013,-6.679 -49.919,-8.589L-49.919,-13.777C-47.177,-16.52 -45.745,-17.892 -45.625,-17.892C-46.341,-17.892 -44.255,-17.355 -39.362,-16.282L-37.752,-16.998L-35.605,-16.819C-34.294,-17.176 -33.042,-17.714 -31.848,-18.429C-31.848,-19.861 -31.432,-22.008 -30.596,-24.87C-30.836,-24.988 -31.015,-25.287 -31.133,-25.764L-30.774,-26.659C-31.133,-28.329 -31.253,-29.402 -31.133,-29.88C-31.61,-30.118 -32.206,-30.534 -32.922,-31.133L-34.532,-29.164C-35.726,-28.924 -37.395,-28.329 -39.542,-27.375L-40.078,-27.733L-40.078,-27.912L-39.721,-28.27L-40.794,-28.628C-41.152,-27.912 -42.404,-27.403 -44.552,-27.107C-46.698,-26.808 -47.951,-26.419 -48.309,-25.944C-49.382,-25.586 -50.992,-25.318 -53.14,-25.138C-55.286,-24.959 -59.284,-23.735 -65.127,-21.471C-65.843,-21.23 -66.38,-20.814 -66.737,-20.218L-66.559,-19.503C-67.395,-20.218 -67.99,-20.576 -68.348,-20.576L-69.421,-20.218L-69.421,-19.681C-70.02,-19.919 -70.316,-20.098 -70.316,-20.218L-71.39,-20.04L-72.463,-21.829C-72.941,-21.471 -73.509,-20.335 -74.163,-18.429C-74.819,-16.52 -75.566,-15.209 -76.399,-14.492C-76.757,-11.032 -78.01,-8.11 -80.156,-5.726L-80.156,-4.652L-81.051,-4.652L-81.23,-4.295C-81.112,-4.174 -80.872,-4.054 -80.515,-3.937L-82.125,-1.968L-82.304,-2.506C-82.424,-2.385 -82.544,-2.264 -82.661,-2.147L-82.661,-1.79C-82.661,-1.67 -82.544,-1.61 -82.304,-1.61L-82.304,-0.716L-82.125,-0.001L-82.304,-1.074L-82.482,-1.253C-83.198,-0.059 -84.213,1.73 -85.524,4.114C-87.671,7.934 -89.76,11.808 -91.786,15.744C-94.411,20.754 -95.784,24.752 -95.901,27.732C-95.901,28.09 -96.053,28.689 -96.349,29.522C-96.648,30.358 -96.796,30.953 -96.796,31.311C-96.796,31.789 -96.679,33.041 -96.438,35.068C-97.632,37.693 -98.228,39.541 -98.228,40.614C-98.228,40.972 -98.049,41.392 -97.69,41.867L-98.943,41.867L-100.017,40.793L-100.017,44.014L-100.554,44.193C-100.794,43.952 -100.973,43.774 -101.09,43.656L-101.09,44.014C-103.357,41.988 -104.252,40.139 -103.774,38.468L-104.669,37.752L-104.311,37.036C-104.909,36.321 -105.205,35.188 -105.205,33.637C-105.205,32.205 -104.462,29.522 -102.969,25.585C-101.479,21.649 -100.257,19.384 -99.301,18.786L-99.122,23.618C-91.728,10.377 -86.122,-1.848 -82.304,-13.061C-80.397,-19.741 -78.429,-26.419 -76.399,-33.101C-74.015,-41.09 -71.451,-47.652 -68.706,-52.782C-68.946,-53.378 -69.242,-53.735 -69.601,-53.855L-69.779,-53.676C-70.615,-53.556 -72.346,-53.078 -74.968,-52.245C-77.115,-51.647 -78.846,-51.35 -80.156,-51.35C-81.945,-51.35 -84.154,-52.125 -86.776,-53.676C-89.76,-55.225 -91.906,-56.12 -93.218,-56.36C-93.575,-57.076 -94.202,-57.582 -95.097,-57.881C-95.991,-58.178 -96.589,-58.477 -96.886,-58.776C-97.185,-59.072 -97.632,-59.581 -98.228,-60.297L-98.943,-59.76C-99.184,-60.235 -100.375,-61.25 -102.521,-62.802C-102.88,-63.634 -103.416,-64.59 -104.132,-65.664L-104.848,-66.022L-105.205,-69.422C-105.205,-73 -104.015,-75.147 -101.627,-75.863C-101.031,-76.338 -100.375,-76.578 -99.659,-76.578C-98.348,-76.578 -95.694,-75.89 -91.697,-74.521C-87.702,-73.148 -83.976,-72.463 -80.515,-72.463C-67.515,-72.463 -51.412,-73.953 -32.206,-76.936C-32.563,-77.294 -35.247,-79.5 -40.257,-83.556C-43.719,-86.298 -45.924,-88.683 -46.877,-90.713L-44.372,-89.997L-44.372,-90.892C-47.593,-93.872 -49.682,-98.166 -50.635,-103.774C-49.562,-108.306 -46.938,-110.99 -42.762,-111.826C-40.498,-111.227 -37.693,-110.453 -34.353,-109.5C-32.446,-108.306 -29.343,-106.696 -25.049,-104.669C-24.932,-105.264 -24.691,-105.742 -24.333,-106.1C-24.096,-105.742 -23.917,-105.384 -23.797,-105.027C-21.174,-103.833 -18.191,-102.461 -14.851,-100.912L-14.672,-100.196L-14.851,-99.302L-15.745,-99.302L-16.103,-99.48C-16.224,-99.597 -16.581,-99.838 -17.177,-100.196C-17.534,-100.076 -17.774,-99.956 -17.893,-99.838C-17.06,-99.24 -16.134,-97.75 -15.119,-95.365C-14.106,-92.977 -13.24,-91.428 -12.524,-90.713C-10.378,-90.831 -8.829,-90.414 -7.873,-89.461C-7.755,-88.983 -7.693,-88.566 -7.693,-88.208C-7.693,-87.492 -7.962,-86.625 -8.499,-85.614C-9.036,-84.599 -9.304,-83.793 -9.304,-83.199C-9.304,-82.483 -9.008,-81.052 -8.409,-78.904C-6.86,-78.904 -4.624,-79.083 -1.7,-79.441C1.222,-79.799 3.399,-79.978 4.831,-79.978C4.473,-79.978 8.348,-80.453 16.461,-81.409C17.056,-81.052 18.786,-80.873 21.649,-80.873C25.703,-80.873 28.744,-79.738 30.774,-77.472C29.58,-77.233 28.507,-76.696 27.554,-75.863L27.554,-74.431C24.213,-73.716 22.424,-73.358 22.186,-73.358C22.424,-73.117 22.781,-72.821 23.26,-72.463C21.229,-72.581 18.367,-72.284 14.671,-71.569L13.062,-71.926C11.151,-71.926 8.319,-71.538 4.562,-70.763C0.805,-69.986 -1.969,-69.6 -3.758,-69.6L-7.693,-70.137C-7.813,-70.137 -9.245,-69.78 -11.988,-69.063C-14.733,-68.348 -16.344,-67.928 -16.818,-67.811C-17.893,-68.169 -18.729,-68.348 -19.323,-68.348C-20.397,-68.348 -21.532,-68.228 -22.723,-67.99L-23.081,-67.633C-23.201,-67.392 -23.201,-67.095 -23.081,-66.738C-22.485,-66.497 -20.934,-66.2 -18.429,-65.844C-17.713,-65.844 -16.224,-64.828 -13.956,-62.802C-13.48,-60.654 -12.05,-59.312 -9.662,-58.776C-7.277,-58.239 -5.01,-57.73 -2.863,-57.255L-2.147,-57.613C-1.672,-57.613 -1.253,-57.73 -0.895,-57.97L-0.895,-58.508C0.296,-58.625 1.432,-58.686 2.505,-58.686L3.221,-58.15L6.083,-58.508C6.32,-58.508 7.274,-58.178 8.946,-57.523C10.615,-56.866 11.568,-56.478 11.809,-56.36C12.642,-55.287 14.073,-53.972 16.103,-52.424L16.281,-51.709C17.713,-49.679 18.429,-48.488 18.429,-48.13C18.188,-47.652 17.95,-46.878 17.713,-45.804C18.071,-44.253 19.145,-42.762 20.934,-41.331C21.887,-41.449 23.556,-40.794 25.943,-39.363C26.301,-39.838 26.539,-40.316 26.659,-40.794C26.776,-40.794 27.85,-40.554 29.88,-40.079L30.059,-41.152L30.774,-41.51C31.49,-41.51 32.144,-41.689 32.742,-42.046C33.458,-41.569 34.59,-41.269 36.142,-41.152C37.69,-41.032 38.764,-40.853 39.362,-40.616C40.794,-39.184 42.104,-38.348 43.299,-38.11L44.729,-34.711Z" style="fill:rgb(64,34,15);fill-rule:nonzero;"/>
        </g>
        <g transform="matrix(1,0,0,1,943.468,283.818)">
            <path d="M0,-42.339C-2.712,-35.942 -2.856,-27.398 -5.555,-20.996C-6.507,-18.743 -12.056,-6.791 -14.555,-7.384C-17.64,-6.788 -17.225,-21.468 -17.266,-24.545C-17.336,-29.919 -17.963,-35.244 -20.949,-39.974C-21.991,-41.623 -21.646,-42.49 -19.532,-42.935C-14.18,-44.063 -8.916,-45.623 -3.551,-46.674C1.309,-47.627 1.905,-46.83 0,-42.339M-30.785,-27.955C-30.924,-26.158 -30.973,-12.193 -31.055,-11.052C-31.384,-6.41 -31.381,-6.393 -36.078,-6.393C-41.837,-6.393 -40.998,-6.572 -41.229,-11.132C-41.38,-14.103 -41.53,-29.91 -41.901,-32.857C-42.208,-35.297 -41.292,-36.53 -38.94,-36.896C-38.268,-37.001 -37.61,-37.227 -36.954,-37.419C-31.996,-38.866 -31.177,-38.331 -30.808,-33.131C-30.67,-31.196 -30.785,-29.245 -30.785,-27.955M-52.557,-3.471C-59.662,-1.674 -59.648,-1.538 -62.733,-11.217C-63.609,-13.967 -64.396,-16.787 -65.358,-19.471C-66.244,-21.943 -67.308,-24.279 -68.694,-27.647C-63.071,-27.69 -58.411,-30.518 -53.522,-31.736C-51.612,-32.214 -50.888,-31.712 -50.89,-28.496C-50.896,-21.603 -50.623,-14.698 -50.27,-7.82C-50.128,-5.043 -50.562,-3.974 -52.557,-3.471M12.778,1.084C13.155,0.701 13.535,0.318 13.912,-0.064C13.688,-0.684 14.561,-1.172 13.796,-2.008C10.611,-5.482 11.115,-7.217 15.617,-8.45C17.349,-8.924 17.521,-10.036 16.326,-10.701C14.839,-11.529 14.453,-12.353 14.633,-13.924C14.79,-15.306 13.909,-16.212 12.636,-16.782C11.283,-17.388 9.999,-18.139 8.661,-18.778C7.199,-19.476 6.721,-20.142 7.669,-21.882C10.889,-27.793 13.267,-34.073 14.944,-40.599C16.096,-45.071 15.33,-47.661 12.03,-49.915C7.882,-52.751 3.354,-54.601 -1.792,-54.158C-6.908,-53.716 -12.108,-54.061 -17.12,-52.552C-17.734,-52.367 -18.602,-52.331 -19.113,-52.631C-21.146,-53.823 -23.083,-53.165 -25.076,-52.617C-34.232,-50.101 -43.515,-48.221 -52.889,-46.676C-59.573,-45.576 -66.289,-44.44 -72.684,-42.027C-71.842,-41.952 -71,-41.876 -69.997,-41.787C-71.102,-40.906 -72.167,-40.535 -73.414,-40.785C-75.058,-40.808 -76.718,-40.037 -78.277,-41.464C-81.693,-44.586 -85.863,-46.272 -90.293,-47.442C-94.586,-48.577 -95.7,-47.975 -95.271,-43.707C-94.11,-32.202 -91.7,-20.96 -87.369,-10.183C-86.817,-8.81 -85.578,-7.539 -87.517,-6.018C-92.379,-2.203 -92.325,1.006 -87.293,4.68C-80.985,9.283 -73.986,12.209 -66.047,12.231C-55.068,12.262 -44.131,11.02 -33.192,10.399C-27.544,10.077 -21.942,9.868 -16.324,10.147C-7.464,10.585 1.479,12.078 9.666,7.033C10.285,6.651 11.892,6.316 11.347,5.866C8.142,3.22 12.206,2.796 12.561,1.304C12.604,1.201 12.682,1.135 12.778,1.084" style="fill:rgb(64,34,15);"/>
        </g>
        <g transform="matrix(1,0,0,1,885.422,163.199)">
            <path d="M0,37.489C13.105,37.748 25.212,32.454 37.965,30.723C43.949,29.912 49.888,29.511 56.026,29.79C55.694,31.74 54.44,32.833 53.325,33.86C44.529,41.967 35.278,48.988 22.208,47.601C16.147,46.957 10.109,47.639 4.252,49.408C2.823,49.84 2.215,49.522 1.727,48.13C0.749,45.336 -0.343,42.576 -1.529,39.863C-2.285,38.129 -1.374,37.462 0,37.489M84.364,34.162C84.172,32.436 83.383,30.917 82.36,29.505C81.626,28.491 80.628,27.48 80.383,26.332C78.917,19.479 74.052,14.947 69.254,10.642C56.898,-0.443 42.618,-8.181 26.466,-12.257C24.064,-12.863 22.451,-13.909 22.518,-16.516C22.623,-20.732 17.318,-20.767 16.61,-24.316C16.601,-24.366 16.404,-24.414 16.304,-24.402C11.681,-23.825 6.754,-24.32 3.053,-20.542C2.181,-19.649 1.239,-18.858 0.12,-18.212C-10.892,-11.857 -21.823,-5.522 -28.698,5.944C-31.346,10.36 -35.78,13.533 -39.403,17.237C-44.628,22.578 -48.397,29.331 -50.269,36.782C-51.008,39.729 -52.913,42.721 -50.777,45.904C-49.133,48.351 -47.581,50.859 -45.976,53.333C-44.183,56.097 -40.149,54.412 -38.228,57.146C-38.088,57.346 -36.266,56.385 -35.239,55.933C-34.273,55.507 -33.538,54.824 -32.942,53.936C-32.443,53.191 -31.56,52.737 -30.961,53.584C-29.973,54.983 -29.74,53.938 -29.198,53.281C-25.397,48.664 -22.338,43.586 -20.154,38.035C-18.836,34.682 -16.434,32.135 -14.437,28.754C-13.713,30.424 -13.228,31.661 -12.65,32.853C-9.056,40.289 -7.522,48.699 -2.173,55.297C-0.128,57.818 1.658,61.135 5.299,61.292C14.674,61.701 24.064,61.791 33.45,61.87C37.39,61.903 41.132,60.704 44.664,59.044C45.705,58.554 47.466,57.9 45.987,55.998C43.338,52.593 43.469,52.18 47.397,50.698C48.467,50.294 49.567,49.972 50.632,49.561C56.662,47.237 61.692,43.669 64.929,37.92C66.037,35.949 66.843,33.747 65.291,31.803C61.363,26.877 57.489,22.655 49.849,23.269C35.306,24.438 21.057,26.987 6.879,30.165C0.666,31.558 -5.262,31.832 -10.91,28.042C-13.003,26.637 -12.778,25.697 -11.461,24.064C-8.38,20.249 -5.258,16.845 0.463,18.301C2.042,18.702 3.889,18.252 5.578,17.973C12.389,16.855 19.239,16.447 26.119,16.804C34.922,17.262 43.675,16.105 52.537,16.137C48.509,14.658 45.826,10.633 41.011,10.701C35.983,10.773 30.95,10.35 25.917,10.357C16.739,10.37 7.646,11.473 -1.812,13.201C1.786,7.839 6.997,4.876 10.87,0.611C14.858,-3.782 19.134,-4.623 24.72,-2.923C43.571,2.822 59.956,12.591 74.051,26.305C76.981,29.157 76.865,30.632 73.3,32.695C72.647,33.072 71.89,33.268 70.894,33.66C73.273,35.82 75.809,37.35 78.458,38.577C82.521,40.462 84.866,38.644 84.364,34.162" style="fill:rgb(64,34,15);"/>
        </g>
        <g transform="matrix(1,0,0,1,956.246,283.973)">
            <path d="M0,0.929C-0.072,1.002 -0.146,1.075 -0.218,1.148L4.628,1.148C4.63,1.016 4.631,0.883 4.633,0.751C3.466,0.428 2.3,0.104 1.134,-0.219C1.514,0.911 0.496,0.664 0,0.929" style="fill:rgb(64,34,15);"/>
        </g>
        <g transform="matrix(1,0,0,1,870.784,243.034)">
            <path d="M0,-1.243C-0.243,-0.828 -0.488,-0.414 -0.73,0C-0.004,-0.278 0.718,-0.567 1.688,-0.768C0.966,-0.828 0.357,-0.675 0,-1.243" style="fill:rgb(64,34,15);"/>
        </g>
        <g transform="matrix(1,0,0,1,812.818,183.019)">
            <path d="M0,-20.371C-1.51,-17.688 -2.802,-14.829 -4.659,-12.408C-9.186,-6.508 -11.441,0.488 -14.491,7.091C-15.664,9.629 -16.74,11.217 -19.755,9.685C-20.524,9.295 -21.567,9.166 -22.43,9.293C-24.659,9.621 -25.096,8.476 -25.248,6.593C-25.605,2.138 -25.673,2.143 -21.055,1.848C-19.229,1.732 -17.389,1.712 -15.576,1.48C-13.668,1.235 -12.89,-0.381 -12.676,-1.93C-12.408,-3.836 -14.35,-3.418 -15.385,-3.687C-18.836,-4.582 -22.377,-4.829 -25.792,-4.636C-31.361,-4.849 -36.654,-3.937 -41.935,-2.868C-43.275,-2.596 -44.644,-2.436 -46.008,-2.303C-47.663,-2.138 -48.619,-2.707 -48.319,-4.606C-48.177,-5.505 -47.894,-6.603 -48.253,-7.322C-49.991,-10.783 -47.441,-11.816 -45.162,-12.488C-39.478,-14.157 -35.096,-18.574 -28.953,-19.452C-22.872,-20.322 -16.958,-22.305 -10.92,-23.561C-7.773,-24.216 -4.575,-23.773 -1.37,-23.276C1.055,-22.899 0.879,-21.929 0,-20.371M-35.49,4.863C-36.101,10.698 -36.046,10.701 -42.025,11.298C-42.821,11.377 -43.612,11.5 -44.404,11.614C-48.439,12.2 -48.789,11.886 -48.433,7.351C-49.361,3.711 -47.037,2.725 -43.418,2.815C-41.486,2.863 -39.544,2.585 -37.611,2.412C-35.729,2.241 -35.305,3.087 -35.49,4.863M-36.462,32.604C-38.397,34.768 -41.225,34.433 -43.688,35.035C-44.999,35.355 -46.282,34.911 -46.953,33.276C-48.541,29.404 -48.188,25.698 -46.335,22.082C-45.632,20.709 -38.352,19.24 -37.492,20.388C-36.37,21.889 -37.222,23.906 -36.767,25.645C-36.073,27.72 -37.538,29.908 -36.443,31.964C-36.354,32.135 -36.35,32.479 -36.462,32.604M-54.632,26.464C-55.467,27.255 -56.17,26.505 -56.817,26.281C-58.885,25.561 -60.951,24.961 -63.163,25.015C-68.132,25.008 -68.067,25.015 -67.478,19.831C-67.281,18.113 -66.972,16.14 -65.128,16.271C-63.278,16.401 -60.915,13.439 -59.355,17.051C-58.98,17.924 -57.253,18.25 -56.115,18.753C-53.065,20.097 -52.273,24.232 -54.632,26.464M-68.613,9.169C-68.722,7.268 -70.071,6.138 -71.131,4.489C-67.786,3.264 -64.573,2.108 -61.055,2.08C-59.275,2.065 -57.198,1.888 -57.296,-0.371C-57.392,-2.549 -59.613,-2.169 -61.094,-2.202C-65.807,-2.306 -70.349,-1.151 -74.889,-0.059C-77.277,0.517 -79.982,1.12 -81.777,-0.616C-83.651,-2.427 -85.4,-1.204 -86.503,-0.643C-87.555,-0.107 -87.815,2.044 -87.124,3.706C-86.388,5.483 -85.271,6.611 -83.261,6.427C-82.018,6.315 -80.788,6.021 -79.557,5.787C-77.56,5.408 -76.519,5.651 -76.377,8.251C-76.178,11.926 -77.123,13.726 -81.05,14.351C-83.695,14.773 -86.488,14.734 -89.14,15.739C-87.8,7.275 -90.551,-1.087 -89.882,-10.098C-87.707,-7.885 -85.561,-8.007 -82.857,-8.485C-74.886,-9.898 -66.723,-10.057 -58.757,-11.666C-56.959,-12.03 -55.823,-9.973 -53.999,-10.395C-53.904,-10.416 -53.454,-9.744 -53.537,-9.574C-56.952,-2.61 -54.028,4.996 -56.02,11.923C-58.804,9.83 -62.253,10.759 -65.538,11.095C-67.347,11.282 -68.505,11.057 -68.613,9.169M8.233,-22.643C4.445,-27.389 -0.521,-29.226 -6.458,-29.338C-15.471,-29.508 -24.238,-27.922 -32.883,-25.724C-35.849,-24.969 -36.809,-25.814 -37.081,-28.428C-38.177,-38.915 -45.445,-45.271 -52.993,-51.046C-56.59,-53.797 -60.735,-55.809 -63.623,-59.486C-65.344,-61.678 -68.014,-60.572 -69.591,-60.041C-71.281,-59.473 -69.697,-57.392 -69.04,-55.971C-68.577,-54.964 -68.377,-53.754 -68.364,-52.631C-68.253,-42.417 -67.622,-32.285 -64.168,-22.538C-63.722,-21.28 -64.141,-20.587 -65.533,-20.497C-73.723,-19.966 -81.901,-18.428 -90.115,-20.399C-91.315,-20.687 -92.439,-20.943 -92.747,-22.205C-93.735,-26.254 -96.308,-29.641 -97.572,-33.482C-98.766,-37.101 -102.071,-37.28 -104.334,-39.097C-104.651,-39.351 -105.231,-39.421 -105.879,-39.174C-109.278,-37.88 -111.303,-35.669 -112.142,-32C-113.52,-25.975 -114.645,-19.928 -115.369,-13.791C-116.561,-3.699 -116.133,6.176 -111.745,15.572C-111.422,16.265 -111.351,17.069 -110.412,17.423C-107.617,18.472 -105.852,20.629 -104.305,23.1C-103.477,24.421 -102.211,25.466 -100.693,27.131C-101.538,19.959 -101.869,20.828 -96.997,18.622C-95.438,17.917 -92.787,15.925 -91.035,18.363C-88.811,21.457 -87.135,22.362 -83.728,20.814C-81.829,19.95 -79.852,19.462 -77.873,18.939C-77.105,18.736 -76.168,18.279 -75.74,19.733C-74.359,24.441 -76.168,27.569 -80.838,28.58C-85.676,29.627 -90.615,30.135 -95.354,31.775C-97.417,32.488 -96.794,34.017 -97.285,35.211C-97.958,36.839 -96.277,36.609 -95.602,37.1C-93.381,38.711 -90.709,38.639 -88.139,39.045C-77.695,40.69 -67.761,39.859 -58.891,33.434C-57.006,32.07 -55.711,31.48 -54.038,34.12C-50.455,39.773 -45.649,41.307 -39.205,39.494C-33.739,37.957 -28.877,35.186 -24.356,31.855C-22.591,30.552 -19.229,29.076 -21.205,26.455C-23.119,23.917 -25.031,27.026 -27.426,28.797C-25.982,25.664 -25.125,23.144 -24.97,20.591C-24.799,17.78 -20.077,19.551 -20.654,15.713C-20.775,14.901 -16.707,12.755 -14.414,12.474C-11.956,12.172 -10.788,10.893 -9.6,9.284C-4.778,2.757 0.025,-3.782 4.761,-10.369C6.629,-12.968 8.256,-15.715 9.078,-18.88C9.458,-20.345 9.196,-21.435 8.233,-22.643" style="fill:rgb(64,34,15);"/>
        </g>
        <g transform="matrix(1,0,0,1,788.334,272.205)">
            <path d="M0,-33.386C-1.001,-27.372 -2.317,-21.547 -5.651,-16.286C-6.896,-14.321 -8.119,-13.22 -10.291,-14.457C-12.445,-15.682 -14.693,-15.061 -16.91,-15.162C-17.556,-15.192 -18.342,-14.893 -18.121,-14.375C-16.725,-11.129 -19.403,-12.061 -20.734,-11.812C-27.47,-10.553 -34.241,-9.496 -40.925,-7.938C-41.949,-7.7 -43.592,-6.174 -44.521,-8.755C-45.406,-11.209 -44.271,-12.175 -42.457,-12.924C-36.535,-15.366 -30.472,-17.359 -24.072,-18.102C-19.258,-18.66 -14.482,-19.311 -10.514,-22.471C-9.852,-22.999 -8.504,-23.187 -8.873,-24.309C-9.216,-25.363 -10.456,-24.984 -11.317,-24.967C-17.761,-24.839 -24.035,-23.608 -30.192,-21.802C-35.009,-20.392 -39.787,-18.85 -44.566,-17.321C-45.847,-16.912 -47.041,-16.477 -47.586,-18.257C-48.018,-19.668 -48.113,-20.945 -46.405,-21.665C-40.705,-24.069 -34.879,-25.983 -28.649,-26.382C-23.905,-26.995 -18.806,-26.189 -14.83,-29.872C-14.259,-30.402 -13.269,-30.714 -13.43,-31.64C-13.65,-32.904 -14.887,-32.622 -15.68,-32.6C-21.637,-32.449 -27.525,-31.591 -33.288,-30.161C-37.59,-29.094 -41.769,-27.518 -45.966,-26.063C-47.48,-25.539 -49.032,-25.602 -50.187,-26.373C-51.317,-27.127 -51.377,-28.791 -51.489,-30.154C-51.609,-31.58 -50.256,-31.442 -49.525,-31.482C-37.235,-32.158 -26.182,-37.643 -14.443,-40.441C-11.663,-41.104 -8.883,-41.787 -5.984,-41.51C-1.5,-41.08 0.734,-37.806 0,-33.386M3.741,-47.565C0.777,-47.791 -2.198,-47.811 -5.162,-47.269C-16.518,-45.196 -27.83,-42.762 -39.264,-41.271C-47.159,-40.241 -55.521,-39.09 -61.865,-46.289C-62.955,-47.525 -64.658,-48.266 -66.163,-49.079C-68.811,-50.511 -73.646,-48.277 -74.201,-45.401C-76.592,-33.037 -73.702,-21.138 -70.948,-9.238C-70.81,-8.639 -70.189,-8.118 -69.715,-7.636C-67.556,-5.438 -65.31,-3.337 -63.948,-0.463C-63.615,0.243 -62.912,1.787 -61.678,0.557C-60.282,-0.831 -59.568,0.263 -58.614,1.009C-57.55,1.842 -56.443,2.628 -54.967,2.52C-52.813,2.363 -51.234,3.413 -49.746,5.78C-49.771,2.25 -48.436,0.533 -45.678,-0.033C-42.571,-0.672 -39.477,-1.367 -36.379,-2.039C-40.266,2.785 -43.229,8.51 -50.169,9.514C-52.543,9.858 -50.404,12.973 -52.173,14.208C-52.459,14.407 -51.076,15.957 -50.177,16.181C-46.908,16.994 -43.657,17.125 -40.988,14.493C-40.006,13.523 -38.729,12.877 -37.783,11.967C-33.615,7.949 -28.764,4.298 -26.988,-1.477C-26.215,-3.994 -25.169,-5.216 -22.736,-5.809C-18.887,-6.749 -15.778,-8.516 -10.964,-7.237C-5.616,-5.816 0.176,-8.929 3.724,-14.442C8.362,-21.646 10.591,-29.59 11.656,-37.925C12.323,-43.132 8.915,-47.17 3.741,-47.565" style="fill:rgb(64,34,15);"/>
        </g>
        <g transform="matrix(1,0,0,1,774.507,302.097)">
            <path d="M0,-33.861C-5.458,-36.507 -11.527,-32.267 -11.454,-25.685C-10.704,-19.559 -10.772,-12.521 -4.735,-7.606C-3.81,-6.854 -3.237,-5.594 -2.681,-4.479C-1.638,-2.394 -0.626,-0.444 2.192,-2.132C2.684,-2.427 3.083,-2.332 3.247,-1.789C3.747,-0.125 4.986,-0.765 6.108,-0.438C8.721,0.322 11.896,-0.75 14.054,1.762C14.626,2.428 15.949,2.646 16.37,1.514C17.269,-0.898 19.421,-2.076 21.032,-3.795C24.115,-7.084 23.153,-10.941 21.626,-14.313C17.29,-23.885 9.046,-29.475 0,-33.861" style="fill:rgb(64,34,15);"/>
        </g>
        <g transform="matrix(1,0,0,1,799.431,220.956)">
            <path d="M0,-21.475C-2.791,-24.445 -3.429,-20.285 -3.477,-19.822C-4.044,-14.456 -6.769,-9.135 -3.764,-3.615C-2.714,-1.685 -2.863,1.039 0.552,0.075C1.401,-0.165 2.223,0.496 2.487,1.211C3.093,2.852 3.669,2.97 4.804,1.626C5.185,1.178 6.015,1.022 6.669,0.908C12.089,-0.034 13.306,-1.463 13.273,-6.087C13.192,-9.814 13.031,-12.575 10.729,-14.823C7.623,-17.855 5.776,-22.785 0,-21.475" style="fill:rgb(64,34,15);"/>
        </g>
    </g>
</svg>
