<svg id="圖層_1" data-name="圖層 1" xmlns="http://www.w3.org/2000/svg" viewBox="0 0 954.5 150.99"><defs><style>.cls-1,.cls-3{fill:#c81d1d;}.cls-2{fill:none;}.cls-3{fill-rule:evenodd;}</style></defs><title>header_title_discount</title><path class="cls-1" d="M70.39,9.77,76.25,12h3a29.91,29.91,0,0,0-.21-4.51q7.58.62,7.58,1.55a.63.63,0,0,1-.47.63c-.69.24-1.07.57-1.14,1V12h2.33c1.73-1.69,2.82-2.54,3.27-2.54s1.16.54,2.44,1.61c1.11.76,1.66,1.31,1.66,1.66s-.36,1-1.09,1.55V17.4c1-2,1.64-3.06,2-3.06A9.36,9.36,0,0,1,97,16.46a3.74,3.74,0,0,1,.83,2,.5.5,0,0,1-.57.57H93.63v2.85c0,.83,0,1.66.05,2.49s-1.05,1.26-3.16,1.3c-1.59,0-2.46-.19-2.6-.57v-.73H85v3.79h3.06c1.73-1.56,2.84-2.34,3.32-2.34a7.37,7.37,0,0,1,2.44,1.56q1.56,1.14,1.56,1.71c0,.45-.33.95-1,1.51v3.53c0,.34.07.71.1,1.09a.88.88,0,0,1-.46.83,5.82,5.82,0,0,1,.83.51c2.28,2,3.49,3.22,3.63,3.74s-.21.68-.62.68H94a19.77,19.77,0,0,1-3.9,6.69c2.56.93,3.88,2.25,4,3.94v1.14a2.42,2.42,0,0,1-2.7,2.18q-1.25,0-5.14-3.58l-.15-.1q-6.75,4.46-18,5a2.75,2.75,0,0,1-.26-.62Q77,52.79,81.75,48.74a35,35,0,0,0-4.57-1.87l-.2.31q-.95,2.34-4.36,2.34c-2.25-.07-3.38-.63-3.38-1.66A54.46,54.46,0,0,0,74.59,41a41.34,41.34,0,0,0-5.86.46c-.35-.86-.68-1.71-1-2.54a53.27,53.27,0,0,0,7.89.57c.79-1.21,1.59-2.49,2.38-3.84H75.89V36c0,.65-1,1-2.86,1.19s-2.83-.24-2.9-.73q.15-1.6.15-4.2v-4.2q-.11-1.1-.15-1.92l5,2h4.1V24.35H76.61v.26c0,.73-1,1.14-3,1.25s-3.11-.25-3.21-.73q.15-1.71.15-4.62v-1.4a18.33,18.33,0,0,0-1.87.21c-.41-.8-.78-1.56-1.09-2.29a15.27,15.27,0,0,0,3,.37V13C70.51,11.79,70.45,10.7,70.39,9.77ZM75.89,34h3.37V29.7H75.89Zm.72-16.34h2.65v-4.1H76.61Zm0,5h2.65V19H76.61Zm1.25,23.25a61.28,61.28,0,0,1,6.22.46A14.11,14.11,0,0,0,86.94,41H81.33Zm7.21-10.28-2.7,3.84h7.89c.69-.72,1.61-1.76,2.75-3.11a7.77,7.77,0,0,1-1.66.15c-1.56,0-2.44-.19-2.65-.57v-.31Zm0-18h2.9v-4.1H85Zm0,5h2.9V19H85ZM85,34H88.7V29.7H85ZM100.38,7.75c5.64.86,8.45,1.6,8.45,2.23a4,4,0,0,1-2.12,1.09,32.36,32.36,0,0,1-2.55,8.77h3.74c.73-.94,1.68-2.06,2.85-3.38.25-.24.44-.36.58-.36a4.36,4.36,0,0,1,1.08.67,24.85,24.85,0,0,1,4,3.79c-.07.52-.31.78-.73.78h-1.92a47.83,47.83,0,0,1-.83,9.65,35.85,35.85,0,0,1-4,12.87,17.17,17.17,0,0,0,7.42,4.46v.94q-.78.15-1.77,1.92a26.92,26.92,0,0,0-.78,3.53c-.13,1-.51,1.55-1.14,1.55q-3.68-1.66-7.21-7.57a24.92,24.92,0,0,1-11.93,7c0-.14-.19-.36-.57-.68a31.55,31.55,0,0,0,10.37-11.1,60.56,60.56,0,0,1-3.11-17.74,26.89,26.89,0,0,1-3.89,3.73c-.24,0-.43-.17-.57-.52A55.08,55.08,0,0,0,100.38,7.75Zm4.87,31.54a31.83,31.83,0,0,0,1.51-7.21,86.92,86.92,0,0,0,.73-10.74h-4a26,26,0,0,1-2.18,3.37Q102.55,34.27,105.25,39.29Z"/><path class="cls-1" d="M127.83,27.36l5.86,2.23h22.47q3-2.49,3.84-2.49c.38,0,1.33.62,2.85,1.87,1.25.86,1.87,1.52,1.87,2s-.52,1.11-1.56,1.77v6.58c0,.73.07,1.44.11,2.13s-.57,1.2-1.72,1.4c.25.14.47.28.68.42q3.68,3.32,3.89,4.1c0,.45-.21.67-.62.67H148.69v4.78h11.2l3.32-3.9a1.6,1.6,0,0,1,.83-.51,3.09,3.09,0,0,1,1.25.77q4.1,3.54,4.31,4.41c0,.45-.19.68-.57.68H131.82a64.4,64.4,0,0,0-9.39.52c-.38-.87-.74-1.71-1.09-2.55a65.17,65.17,0,0,0,10.53.58h10.28V48H135.4a64.73,64.73,0,0,0-9.44.52c-.35-.86-.68-1.71-1-2.54a60.18,60.18,0,0,0,10.48.62h6.7V42.05h-7.58v.57c0,.79-1.12,1.26-3.27,1.4s-3.37-.28-3.47-.83c.13-1.25.2-2.89.2-4.93V30.68C128,29.4,127.89,28.29,127.83,27.36ZM164.46,21a4.28,4.28,0,0,1,1,.62q3.42,3.06,3.63,3.74c0,.48-.23.73-.68.73H131.87a54.78,54.78,0,0,0-9.34.57c-.38-.94-.74-1.8-1.09-2.6a60.32,60.32,0,0,0,10.49.62h28.9c.65-.79,1.61-1.88,2.85-3.26A1.86,1.86,0,0,1,164.46,21Zm-36-13,5.08,2h21.85q3.06-2.49,3.79-2.49c.41,0,1.38.62,2.9,1.86,1.25.87,1.87,1.53,1.87,2s-.54,1.07-1.61,1.76v6.49c0,.69.07,1.36.11,2,0,1-1.23,1.58-3.69,1.61-1.83,0-2.84-.23-3-.68v-.88H135.19v.57c0,.8-1.12,1.27-3.26,1.4s-3.38-.27-3.48-.83a37.08,37.08,0,0,0,.26-4.93V11.07C128.6,9.89,128.52,8.87,128.45,8Zm6.12,26.77h7.58V31.15h-7.58Zm0,5.6h7.58V36.44h-7.58Zm.62-25.47h20.55V11.59H135.19Zm0,5.13h20.55V16.57H135.19Zm13.5,14.74h7.83V31.15h-7.83Zm0,5.6h7.83V36.44h-7.83Zm0,6.23h8.45c.73-.86,1.78-2.07,3.17-3.63a6.26,6.26,0,0,1-.78.05c-1.8,0-2.8-.24-3-.73v-.25h-7.83Z"/><path class="cls-1" d="M176.24,8.84l6.43,2.49h4a16,16,0,0,1,3.63-3,10.71,10.71,0,0,1,5.08,4c0,.59-.58,1-1.76,1.25a37,37,0,0,1-8.46,12.45q8.31,4.73,8.41,11.21-.25,7.21-6.07,8.77c-.94,0-1.4-.43-1.4-1.3a4.3,4.3,0,0,0-3.58-4.56V55.07c0,.76-1.08,1.19-3.12,1.3s-3.06-.25-3.16-.73a39.23,39.23,0,0,0,.21-4.57V21.86Q176.35,14.28,176.24,8.84Zm6.28,30.3a10.59,10.59,0,0,0,2.85.52c1.45-.21,2.2-1.56,2.23-4a12.64,12.64,0,0,0-3.68-9.55q2.18-4.81,3.11-13.49h-4.51ZM195.28,8.52q3.63,1.41,6.59,2.75H212.3c2.08-1.86,3.36-2.8,3.84-2.8s1.33.61,2.85,1.82c1.28.93,1.92,1.61,1.92,2s-.45,1.08-1.35,1.77V26.84c0,1.35,0,2.68.06,4,0,1-1.23,1.57-3.69,1.61-1.83,0-2.83-.23-3-.68v-1.3h-6.85a34.22,34.22,0,0,0,5,10.49,16,16,0,0,0,3.73-8.05C219.6,35.2,222,36.49,222,36.8s-.72.7-2.18.94a21.8,21.8,0,0,1-7.88,4.41,32.69,32.69,0,0,0,3,3.22,15.65,15.65,0,0,0,7.83,3.37,4.87,4.87,0,0,1-.1,1,3.16,3.16,0,0,0-1.61,1.35,11.27,11.27,0,0,0-1.14,3.43c-.07,1.07-.38,1.62-.94,1.66q-3.94-.78-9-8.36-3.06-4.71-5.35-17.33h-2.28V47.75a44.2,44.2,0,0,0,5.81-.67,3,3,0,0,1,.31.83q-4.35,3.63-14.58,6.43c-.07,1.21-.36,1.87-.88,2s-.85-.77-1.19-2.33a57.62,57.62,0,0,1-1.61-6.64,19.52,19.52,0,0,0,5.6.57l0-33.26A48.59,48.59,0,0,0,195.28,8.52Zm7.11,11.21h10.53v-7H202.39Zm0,9.14h10.53V21.39H202.39Z"/><path class="cls-1" d="M271.14,7.64a3.65,3.65,0,0,1,1,.63q3.42,3.06,3.63,3.78c0,.45-.21.68-.62.68h-8.3a18.37,18.37,0,0,1-5.09,6.07h4.57c1.87-1.66,3-2.49,3.53-2.49s1.28.57,2.69,1.71c1.15.8,1.72,1.4,1.72,1.82s-.52,1-1.56,1.66V38.83c0,1.83.07,3.68.1,5.55,0,.93-1.14,1.42-3.42,1.45-1.73,0-2.68-.21-2.85-.62v-.83h-7.06q-.21,1-3.06,1.14c-2,0-3.12-.24-3.22-.72a39.47,39.47,0,0,0,.21-4.57V24c0-2.08-.09-3.91-.16-5.5h-.21a24,24,0,0,1-4.51,2.23,8.49,8.49,0,0,1,.88.67,7.17,7.17,0,0,1,2.08,2.29c0,.31-.73.77-2.18,1.4a29.47,29.47,0,0,1-2.75,4.56q5.24,1.62,5.4,4.93v1.09a2.25,2.25,0,0,1-2.5,2c-.79,0-2.49-1.26-5.08-3.78-.35-.25-.69-.47-1-.68a13.91,13.91,0,0,1-1.87,1.51,26.61,26.61,0,0,1-7.83,3.58l3,1.14h6.64Q246.13,37,246.86,37a7.47,7.47,0,0,1,2.59,1.71c1.21.87,1.82,1.49,1.82,1.87s-.54,1-1.61,1.66v8c0,.87.07,1.73.1,2.6s-1.12,1.45-3.37,1.45c-1.69,0-2.64-.21-2.85-.62V51.85h-5.81V54q-.06,1.09-3.12,1.35c-2,0-3.06-.26-3.16-.78a40.92,40.92,0,0,0,.2-4.62V41.27c0-.87-.06-1.68-.1-2.44a31.5,31.5,0,0,1-3.42.62c-.14-.24-.28-.47-.42-.67a30.11,30.11,0,0,0,11-7.06c.25-.28.49-.54.73-.78a32.09,32.09,0,0,0-5.14-2,23.8,23.8,0,0,1-5.7,4.3c-.18-.41-.33-.64-.47-.67q4.15-5.23,6.38-15.31,7.22,1.77,7.21,2.65c0,.45-.65.76-2,.93-.24.52-.5,1-.78,1.51H243q2.43-2.66,3.53-2.86a21.32,21.32,0,0,0,.88-2.85H233.52v.31q0,5.51-3.73,5.5c-1.77-.07-2.65-.92-2.65-2.54a1.94,1.94,0,0,1,.68-1.71,12.16,12.16,0,0,1,2.54-1.82,5.61,5.61,0,0,0,1.92-4H233a12.93,12.93,0,0,1,.42,2.75h5.34a4.33,4.33,0,0,1-1-2.28,5.51,5.51,0,0,0-2.86-4.15,1.73,1.73,0,0,0,.31-.67c1.21-.07,2-.11,2.44-.11a10,10,0,0,1,4.93,1A3.41,3.41,0,0,1,244.16,12a3.13,3.13,0,0,1-1.76,3.11h4.77c1.83-1.59,2.91-2.38,3.22-2.38a9.57,9.57,0,0,1,2.9,2.07c1.56,1.49,2.34,2.41,2.34,2.75a.32.32,0,0,1,0,.21l2.8,1h1.55q.42-2.7.68-6.07a54.49,54.49,0,0,0-8.41.57l-1-2.6a58.83,58.83,0,0,0,10.48.63h5.86q1-1.2,2.91-3.27A2,2,0,0,1,271.14,7.64ZM235,28.24q3.42.06,6.12.37a17.85,17.85,0,0,0,2.33-5H238.3A28.14,28.14,0,0,1,235,28.24Zm2.75,21.9h5.81V41h-5.81Zm18.68-4Q264,49,264,49.72c0,.45-.78.7-2.33.73a39.28,39.28,0,0,1-13.08,5.6l-.47-.41A19.84,19.84,0,0,0,256.41,46.09Zm3.11-19.87h7.06V20.41h-7.06Zm0,8.46h7.06v-6.8h-7.06Zm0,8h7.06V36.39h-7.06Zm4.93,3.53Q274.94,47.9,275.29,52a6,6,0,0,1-.46,2.44,2.93,2.93,0,0,1-3,1.76c-.66,0-1.59-1.31-2.81-3.94a15.61,15.61,0,0,0-5-5.4C264.19,46.84,264.34,46.63,264.45,46.25Z"/><path class="cls-1" d="M313,53.73H287.69v-2h3.89c2,0,3.25-.31,3.82-.94s.87-1.9.87-3.82V11.76a6.2,6.2,0,0,0-.36-2.53c-.39-.77-1.4-1.15-3-1.15h-5.19V6.13A19.08,19.08,0,0,0,301.46.94h3.25V47a13.23,13.23,0,0,0,.21,2.89,2.52,2.52,0,0,0,2,1.73,17.89,17.89,0,0,0,2.45.14H313Z"/><path class="cls-1" d="M363.63,27.48q0,11.76-4.47,19.18-5.06,8.22-14.43,8.22t-14.35-8.22q-4.54-7.42-4.54-19.18,0-11.91,4.54-19.26Q335.36,0,344.73,0t14.43,8.22Q363.63,15.59,363.63,27.48Zm-9.09,0q0-10.17-1.3-15.44-2.3-8.79-8.51-8.79T336.22,12q-1.29,5.27-1.29,15.44t1.29,15.43q2.31,8.81,8.51,8.8t8.51-8.8Q354.55,37.57,354.54,27.48Z"/><path class="cls-1" d="M408.06,27.48q0,11.76-4.48,19.18-5,8.22-14.42,8.22t-14.35-8.22q-4.55-7.42-4.55-19.18,0-11.91,4.55-19.26Q379.79,0,389.16,0t14.42,8.22Q408.05,15.59,408.06,27.48Zm-9.09,0q0-10.17-1.3-15.44-2.31-8.79-8.51-8.79T380.65,12q-1.31,5.27-1.3,15.44t1.3,15.43q2.31,8.81,8.51,8.8t8.51-8.8Q399,37.57,399,27.48Z"/><path class="cls-1" d="M452.48,27.48q0,11.76-4.47,19.18-5.06,8.22-14.42,8.22t-14.36-8.22q-4.53-7.42-4.54-19.18,0-11.91,4.54-19.26Q424.21,0,433.59,0T448,8.22Q452.48,15.59,452.48,27.48Zm-9.09,0q0-10.17-1.29-15.44-2.31-8.79-8.51-8.79T425.08,12q-1.31,5.27-1.3,15.44t1.3,15.43q2.3,8.81,8.51,8.8t8.51-8.8Q443.39,37.57,443.39,27.48Z"/><path class="cls-1" d="M466.23,8.06q9.86,1.29,10.12,2.44c0,.72-.83,1.21-2.49,1.45a53.77,53.77,0,0,1-3.79,9.13c1.24.45,1.87.82,1.87,1.09,0,.45-.14.69-.42.73-.72.34-1.09.71-1.09,1.09v26.1c0,1.8.05,3.54.05,5.24-.48.59-1.54,1-3.16,1.14-2.49,0-3.74-.26-3.74-.78.14-1.52.21-3.39.21-5.6V29.9a32,32,0,0,1-5.5,4.36,3.77,3.77,0,0,1-.42-.83Q464.37,24.67,466.23,8.06Zm12.5,3.84q9.13,2.24,9.14,3.27c0,.58-.85,1-2.55,1.29a31.82,31.82,0,0,1-9.44,12.66,39.14,39.14,0,0,0,7.37.58h10c1.83-1.6,3-2.39,3.58-2.39a6.64,6.64,0,0,1,2.7,1.71,10.83,10.83,0,0,1,2.44,2.39c0,.55-.18.88-.52,1a7.31,7.31,0,0,0-1.25,1q-.51,16.71-2.43,18.68-2,3.42-6.7,3.63c-.69,0-1.12-.48-1.3-1.45a7.13,7.13,0,0,0-1-4.1,8.31,8.31,0,0,0-4-1.81c0-.32,0-.7.05-1.15a47.1,47.1,0,0,0,5.81.37q1.56,0,1.92-.78a97.83,97.83,0,0,0,1-15.78H488a41.42,41.42,0,0,1-1.3,9.55q-3.57,12.3-14.79,14.79c-.07-.24-.15-.54-.25-.88q6.48-5.4,8.71-16.5.57-3.53.78-7-3.63.06-4.62.21a21.31,21.31,0,0,0-.78-2,33.08,33.08,0,0,1-3.84,2.49c-.2-.45-.36-.69-.46-.73Q476.19,24.41,478.73,11.9Zm15-4.05a11.8,11.8,0,0,1,3.94,3.06c-.2.83-1.14,1.49-2.8,2a10.55,10.55,0,0,0,3.27,5.61,11.74,11.74,0,0,0,8.61,3.89,2.16,2.16,0,0,1-.15.83q-1.25.32-2.13,3.48c-.41,2.28-1,3.61-1.61,4-1.73-.55-3.63-2.44-5.71-5.65a31.57,31.57,0,0,1-4.25-12.82h-3.37a30.73,30.73,0,0,0-3.43.31,24.18,24.18,0,0,1-1.29-2.39,28.09,28.09,0,0,0,4.15.57h2.33C492.47,9,493.28,8,493.73,7.85Z"/><path class="cls-1" d="M540.12,31.72q0,5.61-6.9,10l-.68-.83c2.18-2,3.27-3.59,3.27-4.67a.78.78,0,0,0-.67-.83Q531,34.37,531,31a4.41,4.41,0,0,1,1.34-3.21,4.08,4.08,0,0,1,3.07-1.3A4.35,4.35,0,0,1,539,28.14,5.84,5.84,0,0,1,540.12,31.72Z"/><path class="cls-1" d="M572.65,8.06c5.64.72,8.55,1.42,8.72,2.07,0,.38-.3.7-.88.94a82,82,0,0,0,9.49.41h14.43l2.85-3.27A2.68,2.68,0,0,1,608,7.8a4.28,4.28,0,0,1,1,.62q3.42,3.06,3.63,3.74c0,.48-.21.72-.62.72H602v3.69h2.23q2.81-2.45,3.58-2.44c.35,0,1.23.57,2.65,1.71,1.17.8,1.76,1.4,1.76,1.82s-.48,1-1.45,1.66V24c0,.52,0,1,0,1.5,0,1-1.14,1.47-3.42,1.51-.52,0-.94,0-1.25-.05a19.93,19.93,0,0,1,2.18,1.55c1.24.9,1.87,1.56,1.87,2,0,.56-.54,1.16-1.61,1.82v11c0,1.14.07,2.3.1,3.47,0,1-1.23,1.53-3.68,1.56-1.83,0-2.86-.24-3.06-.72v-.42H588.06v.47c0,.83-1.14,1.29-3.32,1.4s-3.3-.28-3.37-.83c.1-1.25.15-2.89.15-4.93V32c-.06-1.76-.12-3.27-.15-4.51-1.18-.07-1.8-.3-1.87-.68a39.16,39.16,0,0,0,.21-4.56V16.72c-.07-1-.14-1.78-.21-2.44l6,2.29h2.85V12.94a46.6,46.6,0,0,0-7.83.51c-.31-.83-.59-1.55-.83-2.18l-.47.11A63.61,63.61,0,0,1,575.61,21c1.52.52,2.28.93,2.28,1.25s-.14.6-.41.67c-.66.31-1,.66-1,1V50.5c0,1.73,0,3.38,0,4.93a4.61,4.61,0,0,1-2.9,1c-2.32,0-3.48-.24-3.48-.73.11-1.42.16-3.16.16-5.24V29.33a26.31,26.31,0,0,1-5.3,4.78,3.81,3.81,0,0,1-.31-.73Q570.83,24.61,572.65,8.06Zm16.87,39.38Q596,52,596,52.63a.37.37,0,0,1-.42.42,19.51,19.51,0,0,1-2.33-.11q-5.55,3.12-15.05,3.37a1.38,1.38,0,0,0-.31-.83A28.33,28.33,0,0,0,589.52,47.44Zm-1.92-18h14a15.92,15.92,0,0,1,3.52-2.7.82.82,0,0,1-.57-.47V25.8H585.78v.47c0,.76-1.06,1.19-3.06,1.3Zm-1.82-5.3h2.54v-6h-2.54Zm2.28,10.23h13.86V31H588.06Zm0,5.39h13.86V36.08H588.06Zm0,5.66h13.86V41.37H588.06Zm8.41-28.85V12.88h-2.65v3.69Zm-2.65,7.57h2.65v-6h-2.65Zm1.87,24.39q16.39.15,16.5,4a7.54,7.54,0,0,1-.15,1.76c-.39,1.32-1.41,2-3.07,2q-1.82,0-4.51-2.38a19,19,0,0,0-9.08-4.57A2.45,2.45,0,0,1,595.69,48.53ZM602,24.14h2.59v-6H602Z"/><path class="cls-1" d="M626.2,7.33c5.67,1.39,8.51,2.35,8.51,2.91s-.85,1-2.23,1.19a62.72,62.72,0,0,1-3.94,10.22c1.59.56,2.38,1,2.38,1.25s-.14.66-.41.72c-.7.32-1,.66-1,1V50.5c0,1.73,0,3.38,0,4.93a4.34,4.34,0,0,1-2.85,1c-2.32,0-3.48-.24-3.48-.73.11-1.42.16-3.16.16-5.24V30.16A42.05,42.05,0,0,1,618.21,36a.74.74,0,0,1-.62-.47A83.62,83.62,0,0,0,626.2,7.33Zm18.58.94q8,.83,8,1.76a1.06,1.06,0,0,1-.67,1.09c-.66.38-1,.78-1,1.19l-.36,2.39h5.81q1-1.25,3.06-3.53a1.86,1.86,0,0,1,.78-.52,3.36,3.36,0,0,1,1.14.73c2.52,2.18,3.86,3.54,4,4.1s-.22.72-.67.72H650.59l-1,6.39h3c2.08-2.22,3.41-3.32,4-3.32s1.38.55,2.8,1.66c1.73,1.31,2.59,2.21,2.59,2.69s-.59.9-1.66,1.56V53.51h.26q2.13-5.23,2.85-5.24a13.06,13.06,0,0,1,1.92,3.17,5.75,5.75,0,0,1,1,2.8c0,.41-.15.62-.46.62H639.17a55.8,55.8,0,0,0-8.19.31c-.39-.79-.75-1.55-1.09-2.28a29,29,0,0,0,5.6.57l0-28.12a47.87,47.87,0,0,0-.47-5.71q3.88,1.5,7,3h1.5q.36-1.66.93-6.39h-2.12a63.38,63.38,0,0,0-9.39.47c-.32-.9-.65-1.75-1-2.54a64.44,64.44,0,0,0,10.43.57h2.23c.1-1.11.22-2.28.36-3.53A23,23,0,0,0,644.78,8.27Zm-3.22,21.17h12V23.88h-12Zm0,7.42h12V31.1h-12Zm0,7.94h12V38.57h-12Zm0,8.71h12v-7h-12Z"/><path class="cls-1" d="M697.13,40.49l-1,11.67q-6.39-.25-11.47-.26,1.4,0-13.13.26V50A60.6,60.6,0,0,1,682.76,36.7q7.72-7.11,7.73-12.82a9,9,0,0,0-1.82-5.81,5.86,5.86,0,0,0-4.87-2.33,8.4,8.4,0,0,0-5.35,1.76,5.37,5.37,0,0,0-2.18,4.2c0,.45.71,1,2.13,1.72a3.21,3.21,0,0,1,2.08,2.8,3.84,3.84,0,0,1-1.09,2.9,4.47,4.47,0,0,1-2.86.94,3.57,3.57,0,0,1-3.11-1.87A8,8,0,0,1,672.33,24a9.41,9.41,0,0,1,4-8,13.8,13.8,0,0,1,8.51-2.6A13.64,13.64,0,0,1,693,15.69q4,2.69,4,8.3a11.25,11.25,0,0,1-2.55,7,29.2,29.2,0,0,1-5.76,5.24q-3.06,2.28-6.12,4.52a31.12,31.12,0,0,0-6,6.12h14.32a3.42,3.42,0,0,0,3.74-3.22l.47-3.11Z"/><path class="cls-1" d="M729.87,33.22q0,8.46-3.21,13.81a11.52,11.52,0,0,1-10.38,5.91A11.4,11.4,0,0,1,706,47q-3.27-5.36-3.27-13.81T706,19.37a11.41,11.41,0,0,1,10.33-5.92,11.53,11.53,0,0,1,10.38,5.92Q729.87,24.67,729.87,33.22Zm-6.53,0a49.7,49.7,0,0,0-.94-11.1q-1.67-6.33-6.12-6.33t-6.12,6.33a49.11,49.11,0,0,0-.94,11.1,49.51,49.51,0,0,0,.94,11.11q1.65,6.33,6.12,6.33t6.12-6.33A50.11,50.11,0,0,0,723.34,33.22Z"/><path class="cls-1" d="M761.11,41.32A10.47,10.47,0,0,1,757.22,50a14.44,14.44,0,0,1-9.39,2.91,14,14,0,0,1-8.56-2.49,9.59,9.59,0,0,1-3.9-8.25,8.69,8.69,0,0,1,2.29-5.92,12.06,12.06,0,0,1,5-3.42q-5.82-3.17-5.81-9.39a9,9,0,0,1,3.58-7.48,12.19,12.19,0,0,1,7.78-2.49,12.91,12.91,0,0,1,7.58,2.18,8.58,8.58,0,0,1,3.63,7.42q0,4.41-5.14,7.58Q761.11,34.32,761.11,41.32Zm-5.71,1.09a6,6,0,0,0-2.85-4.93,34.2,34.2,0,0,0-6.75-3.27q-4.51,4-4.51,8.09a8.94,8.94,0,0,0,2.18,6.18,5.64,5.64,0,0,0,4.36,2.23,7.2,7.2,0,0,0,5.5-2.28A8.75,8.75,0,0,0,755.4,42.41ZM754,22.64a7.64,7.64,0,0,0-1.61-5.14,5.09,5.09,0,0,0-4.1-1.87c-3.77,0-5.65,2-5.65,6.07q0,3.64,8.61,7.58A8.33,8.33,0,0,0,754,22.64Z"/><path class="cls-1" d="M793.07,41.32A10.44,10.44,0,0,1,789.18,50a14.44,14.44,0,0,1-9.39,2.91,14,14,0,0,1-8.56-2.49,9.58,9.58,0,0,1-3.89-8.25,8.73,8.73,0,0,1,2.28-5.92,12.06,12.06,0,0,1,5-3.42q-5.8-3.17-5.81-9.39a9,9,0,0,1,3.58-7.48,12.21,12.21,0,0,1,7.78-2.49,12.91,12.91,0,0,1,7.58,2.18,8.58,8.58,0,0,1,3.63,7.42q0,4.41-5.13,7.58Q793.08,34.32,793.07,41.32Zm-5.7,1.09a6,6,0,0,0-2.86-4.93,33.77,33.77,0,0,0-6.74-3.27q-4.51,4-4.52,8.09a8.94,8.94,0,0,0,2.18,6.18,5.64,5.64,0,0,0,4.36,2.23,7.18,7.18,0,0,0,5.5-2.28A8.76,8.76,0,0,0,787.37,42.41Zm-1.46-19.77a7.59,7.59,0,0,0-1.61-5.14,5.08,5.08,0,0,0-4.1-1.87c-3.77,0-5.65,2-5.65,6.07q0,3.64,8.61,7.58A8.3,8.3,0,0,0,785.91,22.64Z"/><path class="cls-1" d="M839.41,20.61a5.78,5.78,0,0,1,1.35.84q4.77,4.1,5,5.13c0,.49-.21.73-.62.73H831.42V46.4c0,1.21.78,1.82,2.33,1.82h5.56c1.27,0,2.09-1.31,2.43-3.94s.94-4.78,1.35-6.85a4.7,4.7,0,0,0,1,.36c0,2.63,0,5.17-.1,7.63A2.22,2.22,0,0,0,845.12,47a3.57,3.57,0,0,1,2.18,3.06q0,3-3.48,3.89a26.94,26.94,0,0,1-7.26.88,52,52,0,0,1-7.58-.41c-3-.21-4.46-2.34-4.46-6.39V27.31h-5.4v4.1Q819,52,799.3,56a1.32,1.32,0,0,1-.36-.88Q812,47.65,812.17,33.43V27.31h-2.23a62.21,62.21,0,0,0-9.4.47c-.31-.87-.64-1.72-1-2.55A64.44,64.44,0,0,0,810,25.8h24.49q1.39-1.65,3.89-4.67A2.54,2.54,0,0,1,839.41,20.61ZM834.32,8.16a6,6,0,0,1,1.46.94q4.71,4.1,5,5.08c0,.45-.19.68-.57.68H814.4a55.85,55.85,0,0,0-9.39.57c-.31-.9-.64-1.77-1-2.6a58.74,58.74,0,0,0,10.43.62h15l3.94-4.67A1.88,1.88,0,0,1,834.32,8.16Z"/><path class="cls-1" d="M14.81,112.13q11.07,3.08,11.07,4.65c-.07.57-1.08.86-3,.86q-7,7.89-22,12.32c-.5-.25-.79-.52-.86-.81Q11.36,121.26,14.81,112.13ZM7.35,82.3l7.13,2.76H35.39q3.4-3.3,4.22-3.3c.47,0,1.55.69,3.24,2.06C44.26,84.79,45,85.53,45,86s-.6,1.21-1.78,2v16.43c0,1.73.07,3.47.1,5.24,0,1.15-1.38,1.75-4.16,1.78-2,0-3.13-.29-3.35-.86v-3.3H14.91v3c0,.94-1.26,1.48-3.67,1.62s-3.78-.31-3.89-.92c.14-1.37.22-3.22.22-5.57v-16Q7.45,85.28,7.35,82.3Zm7.56,23.24H35.77V86.68H14.91Zm15.19,7.19Q48.75,116,49.44,124c-.14,1.8-.37,2.88-.7,3.24q-.81,2.33-3.78,2.32-2.05,0-5.62-6.8-4.7-6.5-9.84-9.19C29.79,113.52,30,113.23,30.1,112.73Z"/><path class="cls-1" d="M99.54,106.56a4.73,4.73,0,0,1,1.29.82q4.28,3.68,4.54,4.59c0,.47-.21.7-.65.7H94.4a20.47,20.47,0,0,1-4.1,7.94q10.8,2.06,11.07,6.81v1.08a2.33,2.33,0,0,1-2.59,2.06q-2.27,0-9.35-4.65l-3.35-1.51a25.55,25.55,0,0,1-5.35,2.7q-6.11,2.81-25.18,2.81l-.22-.92q15.36-1.45,22.59-5.78a15.4,15.4,0,0,0,1.68-1.14q-4.11-1.29-8.22-2.16C70,122,69,123,68.41,123a7.92,7.92,0,0,1-1.78.22c-3,0-4.45-.67-4.49-1.89a103.53,103.53,0,0,0,6.43-8.65H66.36q-7.78.1-9.73.6c-.36-.94-.74-1.84-1.13-2.71a62.3,62.3,0,0,0,10.91.65h3.08a37.12,37.12,0,0,0,3.35-6.37q8.59,2.16,8.59,3.24c-.14.54-1,.88-2.54,1-.46.69-1,1.39-1.45,2.11H95.16q1.25-1.51,3.51-4.1A2.51,2.51,0,0,1,99.54,106.56Zm-.81-27.23a10.56,10.56,0,0,1,1.29.76q4.22,3.72,4.49,4.59c0,.54-.24.81-.7.81H89.54v5.73H94.3c2.08-2,3.42-3.08,4-3.08.4,0,1.37.63,2.92,1.89,1.33.94,2,1.62,2,2,0,.58-.61,1.21-1.84,1.89v8.22c0,.83.08,1.69.11,2.59,0,1.08-1.28,1.64-3.83,1.68-1.91,0-3-.27-3.19-.81V104.3H67.28V106c0,.83-1.17,1.32-3.41,1.46s-3.51-.28-3.62-.86a45.89,45.89,0,0,0,.22-5.13V92.84c-.07-1.48-.15-2.76-.22-3.84l5.84,2.22H72V85.49H67.11a67.88,67.88,0,0,0-9.78.54,27.29,27.29,0,0,0-1-2.65,66.48,66.48,0,0,0,10.86.6H94.3q1.23-1.52,3.56-4.16A2,2,0,0,1,98.73,79.33ZM72,102.57V92.84h-4.7v9.73Zm-.11,16.53q5.89.06,10.54.43a19.63,19.63,0,0,0,4-6.86H76.35L72,119C71.94,119.07,71.91,119.1,71.87,119.1ZM83.22,91.22V85.49H78.3v5.73Zm0,11.35V92.84H78.3v9.73Zm11.24,0V92.84H89.54v9.73Z"/><path class="cls-1" d="M142.82,127.47H117.5v-2h3.9c2,0,3.24-.32,3.82-.94s.87-1.9.87-3.82V85.49a6.18,6.18,0,0,0-.36-2.52c-.39-.77-1.4-1.16-3-1.16h-5.2V79.87a19.11,19.11,0,0,0,13.78-5.2h3.24v46a13,13,0,0,0,.22,2.88,2.5,2.5,0,0,0,2,1.73,16.13,16.13,0,0,0,2.45.15h3.61Z"/><path class="cls-1" d="M192.94,111a17.69,17.69,0,0,1-4.83,12.62,17.32,17.32,0,0,1-12.91,5.05A16.52,16.52,0,0,1,160.63,121q-4.47-6.63-4.47-16.73,0-11.89,5.12-20.34,6.14-10.17,17.45-10.16A14.72,14.72,0,0,1,188,76.62a8.9,8.9,0,0,1,3.75,7.21,6.22,6.22,0,0,1-1.59,4.26A4.52,4.52,0,0,1,186.45,90a5.79,5.79,0,0,1-4-1.51A4.31,4.31,0,0,1,180.68,85a5.36,5.36,0,0,1,1.52-3.83,4,4,0,0,0,1.37-2.23c0-1.35-1.45-2-4.33-2q-6.13,0-10.1,7.86a41.72,41.72,0,0,0-3.75,14.93q4.7-5.55,11.25-5.55a15.72,15.72,0,0,1,11.69,4.76A16.46,16.46,0,0,1,192.94,111Zm-8.22.86a18.84,18.84,0,0,0-2.52-9.8q-2.67-4.62-6.71-4.62a8.11,8.11,0,0,0-7,3.75,16,16,0,0,0-2.59,9.45,20.92,20.92,0,0,0,2.31,10.24q2.59,4.76,7,4.76,4.55,0,7.21-4.69A17.71,17.71,0,0,0,184.72,111.81Z"/><path class="cls-1" d="M236.86,112.46q0,7.73-5.4,12.05-5,4-13.06,4-7.22,0-11.9-3.47-5.4-4-5.41-11.46a12.07,12.07,0,0,1,3.18-8.22,16.61,16.61,0,0,1,7-4.76q-8.07-4.41-8.08-13.06a12.51,12.51,0,0,1,5-10.38A16.94,16.94,0,0,1,219,73.74a18,18,0,0,1,10.53,3,11.94,11.94,0,0,1,5.05,10.32q0,6.14-7.14,10.53Q236.86,102.73,236.86,112.46ZM228.93,114q0-4-4-6.85a46.84,46.84,0,0,0-9.37-4.55q-6.27,5.63-6.28,11.25a12.4,12.4,0,0,0,3,8.59,7.89,7.89,0,0,0,6.06,3.1,10,10,0,0,0,7.65-3.18A12.12,12.12,0,0,0,228.93,114Zm-2-27.48a10.58,10.58,0,0,0-2.23-7.14,7.08,7.08,0,0,0-5.7-2.6q-7.86,0-7.86,8.44,0,5.05,12,10.53Q226.91,92.42,226.91,86.5Z"/><path class="cls-1" d="M286.2,93.22a5.45,5.45,0,0,1,1.41.86q5,4.28,5.24,5.35c0,.51-.22.76-.65.76H277.88v19.88c0,1.27.81,1.9,2.43,1.9h5.79q2,0,2.54-4.11.75-3.89,1.4-7.13a4.56,4.56,0,0,0,1,.37q0,4.11-.11,8a2.28,2.28,0,0,0,1.19,1.67,3.73,3.73,0,0,1,2.27,3.19c0,2-1.21,3.41-3.62,4a27.92,27.92,0,0,1-7.57.92,53,53,0,0,1-7.89-.43c-3.1-.22-4.64-2.43-4.64-6.65V100.19h-5.62v4.27q-.16,21.45-20.65,25.61a1.47,1.47,0,0,1-.38-.92q13.62-7.79,13.78-22.59v-6.37h-2.32a68.15,68.15,0,0,0-9.78.48c-.32-.9-.67-1.78-1-2.64a68,68,0,0,0,10.86.59h25.51q1.46-1.73,4.05-4.86A2.5,2.5,0,0,1,286.2,93.22Zm-5.29-13a6.13,6.13,0,0,1,1.51,1c3.28,2.85,5,4.61,5.19,5.3,0,.47-.2.7-.6.7H260.16a60.77,60.77,0,0,0-9.78.59c-.33-.93-.67-1.83-1-2.7a61.78,61.78,0,0,0,10.86.65h15.62l4.11-4.86A1.87,1.87,0,0,1,280.91,80.25Z"/><path class="cls-1" d="M343.1,101.49c-.5-.11-.79-.27-.86-.49v-.6h-15.4v.92c0,.69-.88,1.07-2.65,1.14s-2.74-.22-2.81-.65a4.23,4.23,0,0,0,.06-.65,17.6,17.6,0,0,1-2.33,2.22,3.56,3.56,0,0,1,.92,1.08,1.23,1.23,0,0,1-.54,1.08c-.32.25-.7.56-1.13.92v17.29q0,5.35-6.06,6.48-.48,0-.48-1.29a9.87,9.87,0,0,0-1.08-3.73,2.36,2.36,0,0,0-1.73-1v-.76h2.54a1,1,0,0,0,1.08-1c0-1.33,0-2.66-.06-4H308V129.1c0,.76-1,1.19-2.91,1.3s-3-.24-3.08-.71c.1-1.11.16-2.59.16-4.43V108.78q-.06-1.78-.06-3.3a3.45,3.45,0,0,1-1.24.22,2.41,2.41,0,0,1-2.48-2.32,2,2,0,0,1,.64-1.14,6,6,0,0,0,.87-3.46,6.78,6.78,0,0,0-.92-3.24c.22-.14.45-.3.7-.48a13.25,13.25,0,0,1,2.54,2.43V86.14a19,19,0,0,0-.38-4.43l4.49,1.35h6.75c1.37-1.62,2.27-2.43,2.71-2.43A4,4,0,0,1,318,81.87a5,5,0,0,1,1.83,1.89A2.35,2.35,0,0,1,318.73,85V96a2.64,2.64,0,0,1,.87-.54,6.92,6.92,0,0,1,1.94,1.25V87.92c-.07-1.73-.12-3.2-.16-4.43L326,85.22h2.54V83.49a17.26,17.26,0,0,0-.22-3.57c4.4.37,6.6.83,6.6,1.41,0,.25-.15.41-.44.49-.57.21-.9.5-1,.86v2.54h1.84V83.49a17.26,17.26,0,0,0-.22-3.57c4.4.37,6.59.83,6.59,1.41,0,.25-.14.41-.43.49-.57.21-.9.5-1,.86v2.54h1.57c1.65-1.66,2.68-2.49,3.08-2.49a6.56,6.56,0,0,1,2.32,1.52c1,.72,1.57,1.28,1.57,1.67s-.42.87-1.25,1.41v9.89c0,1,0,2,.06,3.08,0,.65-.58,1-1.73,1.19l.76.75a22.43,22.43,0,0,1,2.32,2.6.63.63,0,0,1-.54.7H328a54.16,54.16,0,0,0-6.05.48,11.62,11.62,0,0,0-1.08-2.21q2.32.27,7.3.32h12.48C341.81,102.94,342.64,102.06,343.1,101.49Zm-39.66-2.33a6.43,6.43,0,0,1,.7,2.81v.22l3.57,1.35h4.22q2.74-2.49,3.51-2.49a3.26,3.26,0,0,1,1.35.65c0-.79.09-1.64.16-2.54Zm5-11.18,2.6.81h2.91V84.46h-6.48V97.65h1.24V91.16A14,14,0,0,0,308.41,88ZM308,109.92h4.54v-4.76H308Zm0,6.75h4.54v-5H308Zm4.44-19h1.45V90.52h-1.45Zm33.12,25.61a11.86,11.86,0,0,1,2.32,2.06,26.89,26.89,0,0,1,2.27,2.54.66.66,0,0,1-.54.75H326.57a49.6,49.6,0,0,0-6,.49,17.58,17.58,0,0,0-1.08-2.22c1.51.18,3.93.29,7.24.33h9a27.27,27.27,0,0,0,1.35-8.76c5.69,1.16,8.54,2.09,8.54,2.81,0,.4-.7.69-2.11.87a31,31,0,0,1-5.83,5.08h4.21a36,36,0,0,0,2.54-2.81A4.82,4.82,0,0,1,345.59,123.26Zm-16.8-5.56v.16c0,.72-1,1.13-2.92,1.24s-3-.23-3.08-.7c.1-1.12.16-2.59.16-4.43V109.1c-.07-.86-.13-1.58-.16-2.16l5.51,2.11h11.78c1.8-1.55,2.93-2.32,3.4-2.32a6.93,6.93,0,0,1,2.54,1.62c1.16.83,1.73,1.42,1.73,1.78s-.45,1-1.35,1.62v4.33c0,.46,0,.93.06,1.4q0,1.41-3.3,1.41-2.49,0-2.7-.6v-.59ZM326,119.37q6.64.5,6.65,4.32c0,2.09-1.16,3.14-3.46,3.14a2.6,2.6,0,0,1-1.73-.76,18.69,18.69,0,0,1-.11-2.21c0-.72-.07-1.28-.11-1.68a4.41,4.41,0,0,0-1.73-2.21A1.32,1.32,0,0,1,326,119.37Zm.81-27.56h1.73v-5h-1.73Zm0,6.87h1.73V93.54h-1.73Zm2,11.94V116h11.67v-5.4Zm4.75-23.78v5h1.84v-5Zm0,6.7v5.14h1.84V93.54Zm6.81-6.7v5h1.89v-5Zm0,6.7v5.14h1.89V93.54Z"/><path class="cls-1" d="M357.91,112.78a33.76,33.76,0,0,1,.81,7.4q0,3.57-3,3.57a1.8,1.8,0,0,1-1.9-2,3.32,3.32,0,0,1,.81-2.27,10,10,0,0,0,2.22-3.83,10.59,10.59,0,0,0,.49-2.81C357.71,112.85,357.91,112.82,357.91,112.78Zm15.13-33a4,4,0,0,1,1.08.6A21.17,21.17,0,0,1,377.85,84c-.11.54-.36.81-.76.81h-7.61v6.48h.21c1.48-2.23,2.43-3.35,2.87-3.35a11.79,11.79,0,0,1,2,2.22,3.28,3.28,0,0,1,1.14,1.94c0,.47-.18.71-.54.71h-5.67v6.64c1.47-2.52,2.43-3.78,2.86-3.78A9.62,9.62,0,0,1,374.39,98a4,4,0,0,1,1.08,2.21q0,.6-.54.6h-5.45v6.48h.86q2.32-2.59,3.3-2.75a8.48,8.48,0,0,1,2.37,1.56,5.29,5.29,0,0,1,1.3,1.3v-4.92c0-1.4-.07-2.61-.11-3.62l4.6,1.78h2.05c1.51-1.65,2.45-2.48,2.81-2.48a6.24,6.24,0,0,1,2.16,1.4q1.41,1,1.41,1.41c0,.43-.35.88-1,1.35v8.11c0,.86.07,1.71.11,2.54s-.92,1.2-2.76,1.24c-1.37,0-2.13-.18-2.27-.54V112h-2.11v1.94q6,1.57,6,2.22c-.11.61-.83,1-2.16,1.13A14.32,14.32,0,0,1,384.5,120q5.13.91,5.13,4.16c0,2.12-1.13,3.19-3.4,3.19a2.51,2.51,0,0,1-1.73-.82,4.37,4.37,0,0,1-.54-2.26,5.67,5.67,0,0,0-.38-1.63,3.14,3.14,0,0,0-.33-.81A32.11,32.11,0,0,1,374,130a.7.7,0,0,1-.65-.44A41.89,41.89,0,0,0,379.69,115c-1.59,0-2.42-.22-2.49-.65.07-.9.11-2.13.11-3.68V108.4a3.17,3.17,0,0,1-.92.7,9.69,9.69,0,0,0-.54,1Q375,121.7,373.69,125c-.58,3.21-2.7,4.88-6.38,5-.36-.08-.56-.51-.59-1.3a6.93,6.93,0,0,0-1-3.46,10.36,10.36,0,0,0-2.81-1.62c.1,0,.16-.31.16-.92a18.07,18.07,0,0,0,4.16.54c1,0,1.58-.32,1.84-1a37.41,37.41,0,0,0,.81-4.11,2.14,2.14,0,0,1-1.46.44c-.65,0-1-1.09-1-3.14a8.91,8.91,0,0,0-1.09-4.7l.33-.27a7.28,7.28,0,0,1,3.62,3.94q.27-2.7.38-5.62h-8.86v.82c0,.68-1,1.09-2.92,1.24-1.95,0-3-.25-3.08-.76.11-1.11.16-2.59.16-4.43V88.79q-.06-4.44-.16-7.57l5.24,2h8.7c.68-.86,1.6-1.93,2.76-3.19A.72.72,0,0,1,373,79.76ZM360.67,112.4a14.41,14.41,0,0,1,2.1,7.4,2.17,2.17,0,0,1-2.37,2.27,1.17,1.17,0,0,1-1.35-1.24,5.6,5.6,0,0,1,.48-2,12.3,12.3,0,0,0,.76-4.22,10.08,10.08,0,0,0-.16-2A2.76,2.76,0,0,0,360.67,112.4Zm3.51-21.13V84.79h-2.32v6.48Zm0,8.16V92.79h-2.32v6.64Zm-2.32,7.84h2.32v-6.43h-2.32Zm1.62,4c2.19,2.23,3.29,4.49,3.29,6.76-.11,1.54-.77,2.32-2,2.32a1.5,1.5,0,0,1-1.51-1.46,8.67,8.67,0,0,1,.16-1.41,25.87,25.87,0,0,0,.22-3.94,5,5,0,0,0-.6-2A2.61,2.61,0,0,0,363.48,111.32Zm22.69-31.67C392,81.06,395,82.1,395,82.79s-.81,1-2.43,1.24q-.06.06,0,.06a11.84,11.84,0,0,0,4.7,4.26,18.26,18.26,0,0,0,7.94,2.17v.86c-.75.25-1.4,1.06-1.94,2.43-.15,1.41-.27,2.49-.38,3.24,0,.58-.22.92-.65,1q-2.76-.37-7.89-6.43a27.64,27.64,0,0,1-2.92-5.89A32.23,32.23,0,0,1,382.28,95c1.59.11,3.71.18,6.38.21h-.27c1.26-1.26,2.12-2.18,2.59-2.75a4.6,4.6,0,0,1,1.19-1.19,11.07,11.07,0,0,1,2.27,2,26.38,26.38,0,0,1,2.32,2.54.67.67,0,0,1-.54.76h-7.67a42.2,42.2,0,0,0-6.05.54,11.06,11.06,0,0,0-.81-1.78,35.11,35.11,0,0,1-6.27,3.24c-.22-.43-.38-.67-.49-.7Q382.24,91.54,386.17,79.65Zm-4,30.59h2.11v-7.89h-2.11Zm8.38-11.19,4.21,1.68h2.33c1.65-1.59,2.68-2.38,3.08-2.38a6.53,6.53,0,0,1,2.32,1.51c1.05.73,1.57,1.27,1.57,1.63s-.33.91-1,1.45v7.57c0,.83,0,1.64.05,2.43s-1,1.3-3,1.3q-2.26,0-2.49-.54V112h-2.16v1.41a.8.8,0,0,1-.43.59q7.19,1.85,7.19,2.7c0,.51-.76.89-2.27,1.14a22.3,22.3,0,0,1-1.57,2.75q6.17,1.2,6.16,5.46,0,3.13-3.51,3.14a2.28,2.28,0,0,1-1.62-.76,4,4,0,0,1-1.19-3,4.87,4.87,0,0,0-.81-2.27,3.64,3.64,0,0,0-.27-.65,24.2,24.2,0,0,1-8.92,7.51c-.22-.4-.38-.61-.49-.65q4-5.29,6.22-15.07l-.92.1c-1.62,0-2.47-.19-2.54-.59.07-.94.11-2.18.11-3.73v-7.62C390.62,101.18,390.58,100,390.55,99.05Zm5,11.24h2.16V102.4h-2.16Z"/><path class="cls-1" d="M418.22,80.14q8.8,1.14,9.07,2.16c0,.4-.3.72-.91,1a82.88,82.88,0,0,0,9.89.44h15l3-3.41a2.67,2.67,0,0,1,.81-.43,4.22,4.22,0,0,1,1,.65c2.37,2.13,3.63,3.42,3.78,3.89s-.22.76-.65.76H448.75V89h2.32q2.93-2.53,3.73-2.54c.36,0,1.28.6,2.76,1.79q1.83,1.25,1.83,1.89c0,.5-.5,1.08-1.51,1.73v4.86c0,.54,0,1.06.05,1.57,0,1-1.18,1.53-3.56,1.56a11.47,11.47,0,0,1-1.3,0,22.59,22.59,0,0,1,2.27,1.62c1.3.94,2,1.62,2,2s-.56,1.21-1.68,1.9v11.4c0,1.19.07,2.39.11,3.62q0,1.56-3.84,1.62c-1.91,0-3-.25-3.19-.76v-.43H434.27v.49c0,.86-1.19,1.35-3.46,1.46s-3.44-.29-3.52-.87c.11-1.3.17-3,.17-5.13V105.11c-.08-1.84-.13-3.41-.17-4.71-1.22-.07-1.87-.3-1.94-.7a42.11,42.11,0,0,0,.22-4.75V89.17c-.08-1-.15-1.86-.22-2.54L431.56,89h3V85.22a48,48,0,0,0-8.16.54l-.87-2.27-.48.11a67.29,67.29,0,0,1-3.73,10.05c1.58.54,2.37,1,2.37,1.3s-.14.63-.43.7q-1,.48-1,1.08v27.61c0,1.8,0,3.52,0,5.14a4.84,4.84,0,0,1-3,1.08c-2.41,0-3.62-.25-3.62-.76.11-1.48.16-3.3.16-5.46v-22a27.23,27.23,0,0,1-5.51,5,3.63,3.63,0,0,1-.32-.76Q416.33,97.38,418.22,80.14Zm17.56,41q6.71,4.7,6.7,5.4a.38.38,0,0,1-.43.43,19,19,0,0,1-2.43-.11c-3.86,2.17-9.08,3.33-15.68,3.52a1.42,1.42,0,0,0-.32-.87A29.66,29.66,0,0,0,435.78,121.16Zm-2-18.76h14.59A16.81,16.81,0,0,1,452,99.59a.83.83,0,0,1-.59-.48v-.49H431.89v.49c0,.79-1.1,1.24-3.19,1.35Zm-1.89-5.51h2.65V90.68h-2.65Zm2.38,10.65h14.42V104H434.27Zm0,5.62h14.42v-3.84H434.27Zm0,5.89h14.42v-4.22H434.27ZM443,89V85.17h-2.76V89Zm-2.76,7.89H443V90.68h-2.76Zm1.95,25.4q17.07.17,17.18,4.21a7.49,7.49,0,0,1-.16,1.84c-.4,1.37-1.46,2.06-3.19,2.06q-1.89,0-4.7-2.49a19.83,19.83,0,0,0-9.46-4.76A2.67,2.67,0,0,1,442.21,122.29Zm6.54-25.4h2.7V90.68h-2.7Z"/><path class="cls-1" d="M495,104.78q0,5.84-7.18,10.43l-.71-.86q3.4-3.19,3.41-4.87a.82.82,0,0,0-.7-.86q-4.33-1.08-4.33-4.59a4.59,4.59,0,0,1,1.41-3.36,4.23,4.23,0,0,1,3.19-1.35,4.53,4.53,0,0,1,3.78,1.73A6,6,0,0,1,495,104.78Z"/><path class="cls-1" d="M522.84,77.52l7.27,2.81h4.51a18.24,18.24,0,0,1,4.1-3.4,12.12,12.12,0,0,1,5.74,4.57c0,.67-.66,1.13-2,1.41A42.19,42.19,0,0,1,532.92,97q9.38,5.32,9.49,12.65-.28,8.16-6.85,9.91c-1.06,0-1.58-.49-1.58-1.47a5.37,5.37,0,0,0-2.06-4.33,5.2,5.2,0,0,0-2-.82v16.81q-.06,1.29-3.51,1.47c-2.27,0-3.46-.28-3.58-.82a43.88,43.88,0,0,0,.24-5.16v-33Q523,83.67,522.84,77.52Zm7.09,34.21a11.94,11.94,0,0,0,3.22.59c1.65-.23,2.49-1.76,2.52-4.57q0-6.8-4.16-10.78Q534,91.53,535,81.73h-5.1Zm14.42-34.57c2.73,1.06,5.21,2.09,7.44,3.11h11.77c2.35-2.11,3.79-3.16,4.34-3.16s1.5.68,3.22,2c1.45,1,2.17,1.81,2.17,2.28s-.51,1.21-1.52,2V97.85c0,1.52,0,3,.06,4.51,0,1.17-1.39,1.78-4.16,1.82-2.07,0-3.21-.26-3.4-.77V102h-7.74a38.77,38.77,0,0,0,5.63,11.84,18,18,0,0,0,4.22-9.09q8.14,3.87,8.14,4.4t-2.46,1.05a24.66,24.66,0,0,1-8.91,5,39,39,0,0,0,3.4,3.64q4.82,3.51,8.85,3.8a5.55,5.55,0,0,1-.12,1.12,3.48,3.48,0,0,0-1.81,1.52,12.26,12.26,0,0,0-1.29,3.87c-.08,1.21-.43,1.83-1.06,1.87q-4.46-.87-10.13-9.43-3.47-5.33-6-19.57h-2.58v19.51a48.63,48.63,0,0,0,6.57-.76,3.77,3.77,0,0,1,.35.94q-4.92,4.1-16.47,7.26c-.08,1.37-.41,2.11-1,2.23s-1-.88-1.35-2.64a65.91,65.91,0,0,1-1.82-7.5,22,22,0,0,0,6.33.65l-.06-37.56A55.53,55.53,0,0,0,544.35,77.16Zm8,12.66h11.9V82h-11.9Zm0,10.31h11.9V91.7h-11.9Z"/><path class="cls-1" d="M582.26,80.45,588.88,83h5.45q3.21-3,4-3c.39,0,1.39.62,3,1.87,1.33,1,2,1.68,2,2.11s-.6,1.13-1.81,1.88V112.2q0,4.23.17,8.44c0,1.06-1.29,1.6-3.87,1.64-1.95,0-3-.25-3.22-.76V118.3h-5.21V123c0,.82-1.2,1.29-3.46,1.41s-3.52-.27-3.63-.82a47.28,47.28,0,0,0,.23-5.22V92.16Q582.37,85.37,582.26,80.45Zm7.09,18.34h5.21V84.66h-5.21Zm0,17.57h5.21V100.72h-5.21ZM628,80.91a18.73,18.73,0,0,1,2.69,2.41,36.71,36.71,0,0,1,2.7,3c0,.47-.2.75-.59.82h-11.6v9.09h3.87a33,33,0,0,0,3.16-3.58,4.79,4.79,0,0,1,1.58-1.4,16.32,16.32,0,0,1,2.88,2.52A25.65,25.65,0,0,1,635.58,97c0,.51-.18.8-.53.88h-25.2a53.53,53.53,0,0,0-6.56.53A9.16,9.16,0,0,0,602.12,96q2.52.18,7.91.24h3.69V87.12h-2.28a45.22,45.22,0,0,0-6.45.59,9.08,9.08,0,0,0-1.29-2.4c1.68.16,4.34.25,8,.29h2.05V80.33a12.91,12.91,0,0,0-.35-3.75q10,.93,10,2.11a.73.73,0,0,1-.53.76c-.93.35-1.46.8-1.58,1.35v4.8h2.4c1.45-1.52,2.46-2.65,3-3.4A8.82,8.82,0,0,1,628,80.91Zm4.33,20.57c.75.78,1.49,1.64,2.23,2.58a4.42,4.42,0,0,1,1.11,2.34c0,.47-.17.71-.52.71h-7.09v16.75q0,5.92-8.56,7c-.9,0-1.38-.61-1.46-1.7a7.54,7.54,0,0,0-1.64-4.34c-.82-.7-2.56-1.35-5.22-1.93a3.07,3.07,0,0,0,.12-1.17,59.5,59.5,0,0,0,8.32.52c.7,0,1.05-.52,1.05-1.46V107.11h-6.91c-5.86,0-9.26.13-10.2.41q-.65-1.47-1.23-2.58,2.7.65,11.55.64h6.79a44,44,0,0,0-.52-7.09c4,.63,7.14,1.19,9.37,1.7.55.2.82.49.82.88,0,.55-.39.88-1.17,1a1.51,1.51,0,0,0-1.11.76v2.75h.82c1.4-2.58,2.34-4,2.81-4.22A2,2,0,0,1,632.35,101.48Zm-26.66,7.62q9.15.87,9.14,7c0,2.62-1.44,3.92-4.33,3.92a3.17,3.17,0,0,1-2.17-1,9.68,9.68,0,0,1-.59-3.58,11.81,11.81,0,0,0-.41-2.75,4.91,4.91,0,0,0-2.22-2.75A1.61,1.61,0,0,1,605.69,109.1Z"/><path class="cls-1" d="M642.84,77.52l7.27,2.81h4.51a18.24,18.24,0,0,1,4.1-3.4,12.12,12.12,0,0,1,5.74,4.57c0,.67-.66,1.13-2,1.41A42.19,42.19,0,0,1,652.92,97q9.38,5.32,9.49,12.65-.28,8.16-6.85,9.91c-1.06,0-1.58-.49-1.58-1.47a5.37,5.37,0,0,0-2.06-4.33,5.2,5.2,0,0,0-2-.82v16.81q-.06,1.29-3.51,1.47c-2.27,0-3.46-.28-3.58-.82a43.88,43.88,0,0,0,.24-5.16v-33Q643,83.67,642.84,77.52Zm7.09,34.21a11.94,11.94,0,0,0,3.22.59c1.65-.23,2.49-1.76,2.52-4.57q0-6.8-4.16-10.78Q654,91.53,655,81.73h-5.1Zm14.42-34.57c2.73,1.06,5.21,2.09,7.44,3.11h11.77c2.35-2.11,3.79-3.16,4.34-3.16s1.5.68,3.22,2c1.45,1,2.17,1.81,2.17,2.28s-.51,1.21-1.52,2V97.85c0,1.52,0,3,.06,4.51,0,1.17-1.39,1.78-4.16,1.82-2.07,0-3.21-.26-3.4-.77V102h-7.74a38.77,38.77,0,0,0,5.63,11.84,18,18,0,0,0,4.22-9.09q8.14,3.87,8.14,4.4t-2.46,1.05a24.66,24.66,0,0,1-8.91,5,39,39,0,0,0,3.4,3.64q4.82,3.51,8.85,3.8a5.55,5.55,0,0,1-.12,1.12,3.48,3.48,0,0,0-1.81,1.52,12.26,12.26,0,0,0-1.29,3.87c-.08,1.21-.43,1.83-1.06,1.87q-4.46-.87-10.13-9.43-3.47-5.33-6-19.57h-2.58v19.51a48.63,48.63,0,0,0,6.57-.76,3.77,3.77,0,0,1,.35.94q-4.92,4.1-16.47,7.26c-.08,1.37-.41,2.11-1,2.23s-1-.88-1.35-2.64a65.91,65.91,0,0,1-1.82-7.5,22,22,0,0,0,6.33.65l-.06-37.56A55.53,55.53,0,0,0,664.35,77.16Zm8,12.66h11.9V82h-11.9Zm0,10.31h11.9V91.7h-11.9Z"/><path class="cls-1" d="M708.17,98.43,714.8,101h25.37c2.26-1.87,3.71-2.81,4.33-2.81.43,0,1.51.7,3.23,2.11,1.4,1,2.1,1.72,2.1,2.23s-.58,1.25-1.75,2v7.44c0,.82.07,1.62.11,2.4s-.64,1.35-1.93,1.58l.76.47c2.78,2.5,4.24,4,4.4,4.63,0,.51-.24.76-.71.76h-19v5.39h12.66c.85-1,2.1-2.48,3.75-4.39a1.84,1.84,0,0,1,.93-.59,3.91,3.91,0,0,1,1.41.88c3.08,2.66,4.71,4.32,4.86,5,0,.51-.21.77-.64.77h-42a72.67,72.67,0,0,0-10.61.58c-.43-1-.84-1.93-1.23-2.87a75.22,75.22,0,0,0,11.89.64h11.61v-5.39h-7.62a74.25,74.25,0,0,0-10.67.59c-.39-1-.76-1.93-1.11-2.87a67.28,67.28,0,0,0,11.84.7h7.56V115h-8.56v.64c0,.9-1.27,1.43-3.69,1.58s-3.81-.31-3.93-.94a51.25,51.25,0,0,0,.24-5.56v-8.56Q708.29,100,708.17,98.43Zm41.37-7.14a4.16,4.16,0,0,1,1.11.7q3.87,3.45,4.11,4.22c0,.54-.26.82-.77.82H712.74c-5.62.08-9.14.29-10.54.64-.43-1-.84-2-1.23-2.93a68.13,68.13,0,0,0,11.83.71h32.64c.74-.9,1.82-2.13,3.22-3.7A2.14,2.14,0,0,1,749.54,91.29ZM708.88,76.58l5.74,2.22h24.67c2.3-1.87,3.73-2.81,4.27-2.81s1.57.71,3.29,2.11c1.4,1,2.11,1.72,2.11,2.23s-.61,1.21-1.82,2v7.32c0,.79.08,1.55.12,2.29,0,1.17-1.39,1.78-4.16,1.82-2.08,0-3.21-.26-3.4-.77V92H716.49v.64c0,.9-1.26,1.43-3.69,1.58s-3.81-.31-3.92-.93a42.5,42.5,0,0,0,.29-5.57V80C709.05,78.71,709,77.56,708.88,76.58Zm6.91,30.23h8.56v-4.1h-8.56Zm0,6.33h8.56v-4.45h-8.56Zm.7-28.77H739.7V80.62H716.49Zm0,5.8H739.7V86.25H716.49Zm15.24,16.64h8.85v-4.1h-8.85Zm0,6.33h8.85v-4.45h-8.85Zm0,7h9.55q1.23-1.45,3.57-4.1a5.94,5.94,0,0,1-.87.06c-2,0-3.17-.27-3.4-.82V115h-8.85Z"/><path class="cls-1" d="M805.56,91.4c.43,0,1.5.69,3.22,2,1.44,1.06,2.17,1.82,2.17,2.29s-.63,1.23-1.88,2.05V108c0,1.06,0,2.13.12,3.23S807.8,113,805,113c-2.07,0-3.22-.29-3.46-.88V109.8h-4.33v10.9c0,1.44.88,2.17,2.63,2.17h7.56q2.18,0,2.7-3.52.87-3.16,1.64-5.86a3.25,3.25,0,0,0,1.05.41c0,2.39,0,4.67-.11,6.86a2.09,2.09,0,0,0,1,1.4,3.27,3.27,0,0,1,1.88,2.7q0,3.35-3.93,4.45a32.79,32.79,0,0,1-8.38,1.06,54.07,54.07,0,0,1-8.79-.53q-5-.41-5-7.15V110.15q-6,18.41-28.77,21.1c-.27-.08-.41-.43-.41-1.06q16.53-6.68,21-20.39h-8c0,.74.06,1.49.06,2.23q-.42.87-3.81,1.23c-2.42,0-3.65-.26-3.69-.76,0-1.14.06-2.48.06-4V98.61q-2.52,1.17-5.22,2.11a4.76,4.76,0,0,0-.53-.7q12.78-10.44,16-23.73,10.32,2.8,10.49,3.33,0,1.18-2.52,1.47c-.59,1.17-1.19,2.27-1.82,3.28h9.26a21.54,21.54,0,0,1,4.22-3c.66.08,1.8.8,3.4,2.17,1.91,1.45,2.89,2.37,2.93,2.75s-.3.55-.88.82-1.31.34-1.94.53a31,31,0,0,1-9,6.92h10.84Q804.73,91.41,805.56,91.4ZM781.3,86a34.7,34.7,0,0,1-8.2,8.5l.23.12H788.1a47.51,47.51,0,0,0,4-8.62Zm-8,10.37V107a7.74,7.74,0,0,1,.06,1h8.61a34.46,34.46,0,0,0,1.23-8c.12-1.57.22-2.8.3-3.7Zm18.52,0a30.24,30.24,0,0,1-.47,3.93,43,43,0,0,1-1.23,7.73h11.48V96.32Z"/><path class="cls-1" d="M831.51,89.12a10.63,10.63,0,0,1,2.64,1.58q2.52,1.88,2.52,2.58c0,.51-.68,1-2,1.34q-1.87,4.81-4.45,11.31h1.11q3.11-2.46,3.81-2.46a3.74,3.74,0,0,1,2,1.29,28.42,28.42,0,0,1,2.64,2.23c0,.55-.55,1.17-1.64,1.87q-1.83,8.51-5,12.89a13.18,13.18,0,0,0,5.28,1.12q3.51.64,17,.64,14.82-.23,20.16-1.64a6.44,6.44,0,0,0,.06,1.17,3,3,0,0,0-1.47,1.82c-.23,1.25-.43,2.5-.59,3.75s-.46,1.76-1.28,1.76q-3.46,0-11.43-.3-13.36-.1-21.68-2.46a11.18,11.18,0,0,1-7-4.63q-.76.76-1.35,1.29a21.51,21.51,0,0,1-10,6.39,2.15,2.15,0,0,1-.47-.64q4.64-3.41,8-10.55a29.78,29.78,0,0,0,3.22-12h-2c-.23.58-.49,1.15-.76,1.7q-.24,1.11-3.75,1.11c-2.38,0-3.61-.59-3.69-1.64a75.65,75.65,0,0,0,6.79-15.35h-4.74a10.84,10.84,0,0,0-2,.23c-.2-.47-.53-1.13-1-2,.82,0,1.87.06,3.16.06h4Q830.51,89.12,831.51,89.12Zm-6.32-12.31q9.78.89,9.78,7,0,4-4.39,4a3.07,3.07,0,0,1-2.11-1,6.24,6.24,0,0,1-1-3.63,8.08,8.08,0,0,0-.64-2.69,5.26,5.26,0,0,0-2.23-2.76A2.19,2.19,0,0,1,825.19,76.81Zm44.12-.35a8.29,8.29,0,0,1,3,2.17c1.64,1.56,2.46,2.52,2.46,2.87a1.11,1.11,0,0,1-1.06.76,7.84,7.84,0,0,1-1.58.24,28.55,28.55,0,0,1-6.62,3.22l-.7-.41a16.94,16.94,0,0,0,1.34-3.69h-21v.29q-.06,5.81-4.4,5.8A3.34,3.34,0,0,1,837.26,85a4,4,0,0,1,1.46-3.17A5,5,0,0,0,843,76.46a6.85,6.85,0,0,0,.88.06A8.75,8.75,0,0,1,845,80h20.92C867.82,77.63,869,76.46,869.31,76.46Zm-.76,8.79a4.13,4.13,0,0,1,1,.59c2.07,1.83,3.17,3,3.28,3.39,0,.59-.23.88-.7.88H859.76v3.64h3.51c2.15-2,3.54-2.93,4.16-2.93s1.45.54,2.93,1.64c1.68,1.21,2.52,2.11,2.52,2.69a1.31,1.31,0,0,1-.41.94,11.25,11.25,0,0,0-1.17,1.23v8.14c0,.79.1,1.57.18,2.35,0,1-1.27,1.58-3.81,1.7-2.11,0-3.23-.24-3.34-.71v-.41h-4.52q.06,2.94.06,5.28h5.92c.78-.82,1.86-2,3.22-3.58a1.73,1.73,0,0,1,.82-.52,3.74,3.74,0,0,1,1.18.76q3.86,3.39,4.1,4.16c0,.58-.24.88-.71.88H859.93c0,2.19.08,3.88.12,5.09q-.3,2.17-5,2.17c-1.56,0-2.34-.45-2.34-1.34,0-1.29.07-3.27.11-5.92h-2.52a73.41,73.41,0,0,0-10.54.58c-.43-1-.84-2-1.23-2.87a81.86,81.86,0,0,0,11.83.59h2.46q.06-2.4.06-5.28h-4.57v.77c0,.86-1.13,1.36-3.4,1.52-2.34,0-3.55-.31-3.63-.94.12-1.25.18-3,.18-5.15v-9c0-1.56-.1-2.91-.18-4l5.68,2.17h6V90.11a73.1,73.1,0,0,0-10.55.59,28.1,28.1,0,0,0-1.23-2.87,81.82,81.82,0,0,0,11.78.58,56.34,56.34,0,0,0-.35-5.68q8.79.83,8.79,2.29a1.08,1.08,0,0,1-.41.82c-.74.31-1.14.6-1.17.87v1.7h5.5l2.64-2.81A1.61,1.61,0,0,1,868.55,85.25ZM848.27,100h4.57l.06-4.4h-4.63Zm0,6.5h4.57v-4.69h-4.57Zm11.49-10.9V100h4.57v-4.4Zm0,6.21v2.46c0,.82,0,1.57,0,2.23h4.52v-4.69Z"/><path class="cls-1" d="M912.86,123.12a4.57,4.57,0,1,1-6.67-5.18,4.68,4.68,0,0,1,6.22,1.66A4.55,4.55,0,0,1,912.86,123.12Zm9.91-36.05a64.33,64.33,0,0,1-3.21,8.12q-1.83,3.89-3.57,7.66a64.68,64.68,0,0,0-3.1,7.72l-.89,3.34-2.55-.68.89-3.34a58.86,58.86,0,0,0,1.14-8.31q.38-4.14.71-8.3a62.1,62.1,0,0,1,1.35-8.68,5.19,5.19,0,0,1,2-2.92,4.3,4.3,0,0,1,3.87-.66,4.45,4.45,0,0,1,3.09,2.53A5.21,5.21,0,0,1,922.77,87.07Z"/><rect class="cls-2" x="516.9" y="138.71" width="437.59" height="12.27"/><path class="cls-3" d="M865.44,139.77a8.64,8.64,0,0,1,1.16-.05A2.9,2.9,0,0,1,865.44,139.77Z"/><path class="cls-3" d="M882.88,148.1c.35,0,1.45-.11,1.33,0C883.59,148.15,883.33,148.11,882.88,148.1Z"/><path class="cls-3" d="M884.76,148.29a10.11,10.11,0,0,1,1.33,0A4.31,4.31,0,0,1,884.76,148.29Z"/><path class="cls-3" d="M890.11,147a5.42,5.42,0,0,1,1.34,0A13,13,0,0,1,890.11,147Z"/><path class="cls-3" d="M892.56,148.35a14,14,0,0,1,2.3-.08A20.3,20.3,0,0,1,892.56,148.35Z"/><path class="cls-3" d="M899.2,141.81a42.31,42.31,0,0,1,4.38,0C902.16,141.74,900.52,141.88,899.2,141.81Z"/><path class="cls-3" d="M902.33,144.67c1.45-.18,4.06,0,5.92-.1.26.15-2.73,0-3.26.14s-.78,0-1.13-.06A8.68,8.68,0,0,1,902.33,144.67Z"/><path class="cls-3" d="M920.16,145.11c0-.08.09-.13.59-.12.15,0,.2.07.17.12Z"/><path class="cls-3" d="M927.57,144.09a37.67,37.67,0,0,1,5.34,0,2.33,2.33,0,0,1,.59-.06c.88,0,2.86,0,.94,0C932.06,144.12,930.19,144,927.57,144.09Z"/><path class="cls-3" d="M928.46,145.59a9.54,9.54,0,0,1,1.34-.05A5.83,5.83,0,0,1,928.46,145.59Z"/><path class="cls-3" d="M930.27,141.67c.22-.07,1.2,0,1.72,0A9.8,9.8,0,0,1,930.27,141.67Z"/><path class="cls-3" d="M929.88,145.09c.47-.08,1.53-.06,2.12-.11C932.52,145.09,930.61,145.07,929.88,145.09Z"/><path class="cls-3" d="M930.76,145.51a20.2,20.2,0,0,1,2.3-.08C932.57,145.5,931.51,145.48,930.76,145.51Z"/><path class="cls-3" d="M932.11,141a4.92,4.92,0,0,1,1.35-.11A6.62,6.62,0,0,1,932.11,141Z"/><path class="cls-3" d="M932.94,141.68c.62-.09,2.76-.06,3.81-.05C935.41,141.7,934.4,141.7,932.94,141.68Z"/><path class="cls-3" d="M933.44,145.43a21.94,21.94,0,0,1,3.24,0C935.78,145.5,934.47,145.35,933.44,145.43Z"/><path class="cls-3" d="M936,144c.37-.05,1-.06,1.53-.08C937.61,144.08,936.61,144,936,144Z"/><path class="cls-3" d="M937.63,144.34a8.3,8.3,0,0,1,1.53,0C939,144.38,938.09,144.32,937.63,144.34Z"/><path class="cls-3" d="M939.28,144.71c.21-.08,1.64-.1,1.32.06-.41,0-.35,0-.36-.09C939.78,144.67,939.81,144.73,939.28,144.71Z"/><path class="cls-3" d="M943.29,142.41c-.94.13-2.56-.06,0,0Z"/><path class="cls-3" d="M945.38,141.31c.79-.06,1.56,0,2.48,0C947.28,141.33,945.77,141.34,945.38,141.31Z"/><path class="cls-3" d="M946,141.13c-.27-.09,1.26-.08,1,0Z"/><path class="cls-3" d="M947.78,139.55a6.1,6.1,0,0,1,1.34-.05A5.83,5.83,0,0,1,947.78,139.55Z"/><path class="cls-3" d="M953.09,139.69c1.59-.14,2.14,0,0,0Z"/><path class="cls-3" d="M910.23,139.63c.32,0,.76-.06,1-.11.59.12,1.66,0,2.46.07C912.7,139.72,911.65,139.55,910.23,139.63Z"/><path class="cls-3" d="M931.51,142.21c.46,0,.41.06,1,0,0,.05-.19.05-.21.09,1,0,1.48,0,2.29,0-.1,0-.2.05-.2.09,1.07-.16,2.32.1,4.56,0-2.14.18-6.9.05-8.77.09.28-.12,1.92,0,2.12-.14C932.29,142.27,931.19,142.35,931.51,142.21Z"/><path class="cls-3" d="M933.51,145c.22,0,.11,0,0,0a3.45,3.45,0,0,1,1,0C934.23,145.1,931.72,145.05,933.51,145Z"/><path class="cls-3" d="M947.66,144.71l0,.12c1.22,0,3.17,0,4,.08-1.44.08-4.51-.13-5.54.06-.24,0-.69,0-.94-.06-3.36.19-7,0-10.5.11,1.57-.32,5.12.11,6.9-.21.29,0,0,0-.2,0C942.9,144.83,945.67,144.9,947.66,144.71Z"/><path class="cls-3" d="M946.41,140.89c.29,0,.83-.06,1.16-.11A2.67,2.67,0,0,1,946.41,140.89Z"/><path class="cls-3" d="M565.2,138.71c-.85,0-1.79.11-2.69.11-2.09,0-4-.11-6.08,0-1.87,0-3.63.21-5.57.24-1.44,0-1.91.07-2.88.11a46.2,46.2,0,0,0-6.34.36c-2,.21-4.46.33-6.19.52-.27,0-.85,0-1,0-4.4.48-7.09,1.26-12.27,1.6a8.06,8.06,0,0,1-1.63.66c-.4.1-1.29.16-1.57.26-1.06.37-.13.85-2.1,1.13-.11.1.25.12.35.18-.06.75.72,1.38.24,2,1.35.34,1.06.73,2.1,1.05.65.21,1.93.39,2.76.59s2,.38,2.76.61c0,.22,1.21.27,1.44.46,1.48.13,2.61.33,4.11.46.15.08.51.12.54.21,3.16.39,6.36.86,10.69,1l1.7,0a87,87,0,0,1,9.85.37c.58,0,.57-.05,1.14,0a14.19,14.19,0,0,0,3.56.41c.51,0,1.4-.2,2.51-.23,1.66,0,3.24.21,4.74.17.68,0,1.41-.19,2.13-.23,1.87-.1,5.66,0,7.23,0,1.24.05,1.71.19,2.64.16s1.49-.18,1.41-.41c2.43-.51,8.7-.12,12.44-.34,2.75.18,5.38-.12,8-.09.53,0,1.16.07,1.71.07.9,0,2.1-.1,3.26-.14,2-.06,3.72,0,5.35-.12a49.64,49.64,0,0,0,6.49,0c.79,0,1.57.1,2.46.1s1.47-.08,2.29-.08,1.68.11,2.47.1c.58,0,1.05-.06,1.53-.05s1,.08,1.7.07,1.41-.13,2.12-.14c2.6,0,5.39.07,7.84-.15,4.42.19,8.27-.11,13.51.09a36.18,36.18,0,0,1,3.62,0,5.27,5.27,0,0,1,.78-.09c2.72.09,5.59-.16,8.39-.05a2,2,0,0,1,.4-.09c3.87.15,8.77.17,11.81,0,2.36.15,5.1,0,8,0,1.36,0,2.71.08,4,0,2.51-.06,5.79,0,8.2,0,.71,0,1.41-.1,2.11-.11,1.28,0,2.64.06,4,0,5.23-.17,11.24-.05,15.82-.05,1.42,0,2.63-.1,4.21-.13,2.63-.06,5.36.1,8,.06l1.92-.08c1.58,0,3.09,0,4.76,0,4.08,0,8.17-.18,12,0,4.9-.2,12.05-.13,17.75-.17a34.49,34.49,0,0,1,3.81,0c4.07-.06,9.28-.25,13.55-.12,17.94-.29,36.63-.16,54.38-.49a37.51,37.51,0,0,0,4.76,0,12,12,0,0,0,1.7.09c2.23-.19,5,0,7.83-.08.71-.2,2.4-.05,3.46-.2.45.11-.61.09.17.15,1.81-.35,8-.18,10.71-.28-.19,0-.23-.06,0-.06a13,13,0,0,0,1.73-.08c5,0,8.58-.39,12.85-.52a11.41,11.41,0,0,0,2.47.07c-.77,0-1.76,0-1.69-.16a26.44,26.44,0,0,0,3.83-.13c1.59,0,2.4.06,3.82,0,.35,0-.34-.16.41-.15,2.22.07,3.34-.05,5.32,0a20.67,20.67,0,0,1,3.64-.11c.65-.06-.71-.11-.16-.15,1.8,0,3.48-.1,5.14,0a7.5,7.5,0,0,1,1.37-.18c.46,0-.13.14.55.09s-.5-.13-.34-.24a4.24,4.24,0,0,0,1.18-.2,26.29,26.29,0,0,0,3.26-.14c1.18-.05,2.49,0,3.63,0,1,0,1.39-.15,2.5-.14.9,0,1.65.11,2.65.1.53,0-.35-.11.4-.12,3.5,0,7-.07,9.57-.26-4,.24-6.85,0-10.32.2-.52-.14-1.56.08-2.08-.1-.23.08.57.13-.21.12a6.94,6.94,0,0,0-.76,0c.5-.16-.24-.16-.52-.27l-7.83.09c-.47,0,.33.09-.21.12-1,0-1.71,0-2.86,0-.35-.12-1.12-.18-.71-.34,3.45,0,8.14-.22,12.24-.25a17.3,17.3,0,0,0,3.25-.07c-1.84.06-3.33-.15-4.93-.17-2.07,0-4.28.16-6.31.12-.57,0-.8-.07-1.32-.07s-1.08.09-1.54.09-.52-.07-.94-.07c-.86,0-1.53.12-2.49.11-1.61,0-3.18-.12-4.94-.08-.32-.05-.18-.18.23-.21h4.57c-.24,0-.38,0-.37-.09a7.12,7.12,0,0,0,1.34,0c-1.58,0-1.44-.23-.89-.34,3.93,0,8.76-.06,12,0a6.17,6.17,0,0,1,1.17-.17c3.64-.08,7.72,0,11.63-.07-4.46-.18-9.11-.08-14.29,0-.2,0,0-.11-.55-.1-2.21.09-4.78.07-6.5.1l-2.22-.4c-5.43.11-9.39-.42-14.59-.42,0-.1-.38-.12-.54-.19.42-.07.7-.17,1.18-.23.85,0,1.73-.06,2.48,0,4.38-.27,10.59-.08,16-.23.66-.15.14-.27-.32-.39-2.62-.09-5,.12-7.8-.07-1-.35,0-.6,2.2-.62,3.56,0,9.7,0,12,.05,10.43-.21,20.79-.12,31.48-.29-5.94-.06-11.44.13-16.76,0,0,.07-.18.1-.59.09-5.23,0-11,0-15.64.09-1.92-.22-5.64,0-7.58-.19.48-.34,2.08-.49,4.09-.58-2.05,0-4-.09-5.69-.11-1.41,0-3.86.08-4.57,0-.18,0,.15-.09-.18-.09.58,0-1,0-1.15,0a18.6,18.6,0,0,1-3.42,0c-4-.06-8,0-12,0h-1.33c-.38,0-.05-.08-.56-.09-.28,0-.15.06-.57.06-1.58,0-3.37-.06-5-.05l-11.8,0c-.72,0,.22-.13-.74-.13L843.3,140c-.45,0-.09-.14-.74-.12-.82,0-.62.12-1.36.11a7.1,7.1,0,0,1-1.11-.15c-6.79-.11-13.78,0-20.78.06l-19.25.07c-4.88,0-9.55.14-13.92.06-5.85.1-10.91.09-16.4.11-4,0-8.3-.06-11.62,0-.57,0-1.25.08-1.92.08-1,0-2-.1-3-.1-2.72,0-5.5.12-8.21.11l-9,0c-1.68,0-3.3.09-5,.09-1.11,0-2.27-.07-3.42-.07-3.22,0-6.49.14-9.54.11-4.07,0-8.25-.17-12.38,0-4.56-.08-10.1-.09-14.47,0-3.54-.24-7.23,0-11.23-.05-.43,0-.71-.05-1.14-.07-6.06-.17-12.79.15-17.71,0a46.1,46.1,0,0,1-5.14,0c-1.85,0-3.56.06-5.34.07-.59,0-1.12-.06-1.7-.07-1.8,0-3.56.08-5.55.1-3,0-6.11-.23-9.51-.08-2.62-.11-6.51-.24-9.51-.1-5.07-.22-10.2,0-15.42-.06-1.76,0-3.35-.19-5.13,0-1.84-.16-4-.07-6.27-.09l-6.84-.15c-3.29-.05-7.39.08-9.86-.25-1.12-.68-3.31.32-5.94.19a3.2,3.2,0,0,1-1.8-.58,29.12,29.12,0,0,0-3.62,0C568.1,139,567.08,138.72,565.2,138.71Zm333.46,7.36s0,.05.18.06C898.43,146.27,897.54,146.06,898.66,146.07Zm.39-.06c1.59,0,3.81-.15,5,0,.31,0-.27-.17.23-.21a24.17,24.17,0,0,0,2.64.13c.08.25-2.23.1-2.34.32a6.3,6.3,0,0,0-1.73.08c-1.83-.08-2.23.07-3.61,0C899.56,146.13,899,146.17,899.05,146Z"/></svg>