<svg id="圖層_1" data-name="圖層 1" xmlns="http://www.w3.org/2000/svg" viewBox="0 0 354.48 22.86"><defs><style>.cls-1{fill:#c30d23;}</style></defs><title>header_title_annotation</title><path class="cls-1" d="M9.37,12.64l-3.93-3L6,14.59H4.22l.59-4.93-3.91,3L0,11.05,4.49,9.12,0,7.22.9,5.66,4.81,8.59,4.22,3.81H6L5.44,8.59,9.37,5.66l.88,1.56L5.76,9.12l4.49,1.93Z"/><path class="cls-1" d="M21.08,12.64l-3.93-3,.59,4.93H15.93l.59-4.93-3.9,3-.91-1.59L16.2,9.12l-4.49-1.9.91-1.56,3.9,2.93-.59-4.78h1.81l-.59,4.78,3.93-2.93L22,7.22l-4.49,1.9L22,11.05Z"/><path class="cls-1" d="M38.82,2V.37c0-.2.13-.3.37-.3,1.2,0,1.81.1,1.81.3s-.08.34-.22.36-.25.2-.25.49V2h5.34V.46c0-.19.13-.29.37-.29,1.22,0,1.83.1,1.83.29s-.1.34-.24.37-.25.19-.25.49V2h6c.2,0,.3.12.3.37v.75c0,.27-.1.39-.3.39h-6V4.66c0,.2-.14.29-.39.29h-.95c-.24,0-.37-.09-.37-.29V3.51H40.53V4.66c0,.2-.14.29-.39.29h-1c-.24,0-.37-.09-.37-.29V3.51H32.43c-.19,0-.29-.12-.29-.39V2.37c0-.25.1-.37.29-.37ZM36.14,6.86V5.22c0-.17.12-.27.39-.27,1.2,0,1.81.1,1.81.27s-.1.37-.25.37-.22.22-.22.51v.76h3.61V5.32c0-.17.12-.27.39-.27,1.2,0,1.81.1,1.81.27s-.1.34-.25.36-.24.2-.24.49v.69h4.49V5.15c0-.2.12-.29.39-.29,1.2,0,1.81.09,1.81.29s-.1.34-.25.34-.24.22-.24.51v.86h3.54c.12,0,.19.09.19.29v.76c0,.24-.07.36-.19.36H49.39v2.59c0,.27-.12.39-.37.39H41.87c-.27,0-.39-.12-.39-.39V8.27H37.87v4H51.68c.2,0,.29.15.29.39v.76c0,.27-.09.39-.29.39H44v1.61h8.5c.12,0,.19.1.19.29v.76c0,.27-.07.39-.19.39H45.05A18.12,18.12,0,0,0,47.17,18a19.37,19.37,0,0,0,3.44,1.32A19.32,19.32,0,0,0,54,20.1c0,.1-.1.2-.25.27a10.78,10.78,0,0,0-.88,1c-.09.1-.17.17-.22.17a27.75,27.75,0,0,1-4.14-1.37,15.13,15.13,0,0,1-3.1-1.68A10,10,0,0,1,44,17.52V22c0,.19-.12.29-.36.29h-1c-.27,0-.39-.1-.39-.29V17.93c-.2.15-.42.3-.61.42a16.6,16.6,0,0,1-2.42,1.49c-1,.44-2,.87-3.12,1.29a19.18,19.18,0,0,1-2.42.68c-.12,0-.24-.12-.34-.31s-.51-.59-.8-.91c-.15-.14-.2-.24-.2-.29a35.57,35.57,0,0,0,4-.95A21.29,21.29,0,0,0,39.63,18a11.9,11.9,0,0,0,1.71-1.12H33.48c-.15,0-.19-.12-.19-.39v-.76c0-.19,0-.29.19-.29h8.86V13.81H36.53c-.27,0-.39-.12-.39-.39V8.27h-3c-.15,0-.2-.12-.2-.36V7.15c0-.2,0-.29.2-.29ZM47.68,8.27H43.19V9.71h4.49Z"/><path class="cls-1" d="M78.38,7.71c.12,0,.19.1.19.29v.76c0,.27-.07.39-.19.39H56.54c-.15,0-.19-.12-.19-.39V8c0-.19,0-.29.19-.29Zm-3.54,2.56c.24,0,.39.1.39.29V18.3c0,.19-.15.27-.39.27H71.45A14.85,14.85,0,0,0,74.16,20,28.55,28.55,0,0,0,77.5,21.1c.19.1.29.18.29.25s-.36.54-1.05,1.22l-.36-.05a29.86,29.86,0,0,1-6.1-2.81c-.15-.09-.2-.14-.2-.19s.27-.42.83-.95H63.84c.73.61,1.09.95,1.09,1.05s-.09.17-.29.17-.54.05-.56.12a29.84,29.84,0,0,1-5.9,2.95.45.45,0,0,1-.42-.24,2.37,2.37,0,0,0-.56-.69.46.46,0,0,1-.17-.31c0-.12.07-.2.22-.22a16.56,16.56,0,0,0,2.8-1.15,15.31,15.31,0,0,0,2.69-1.68H60.18c-.27,0-.39-.08-.39-.27V10.56c0-.19.12-.29.39-.29ZM62.18,2.17V.37q0-.3.36-.3,1.83,0,1.83.3c0,.22-.09.34-.24.36s-.24.2-.24.49v1h6.85V.27c0-.17.12-.27.39-.27,1.2,0,1.81.1,1.81.27s-.1.34-.25.36-.22.2-.22.49v1h4.37c.12,0,.2.1.2.29v.76c0,.27-.08.39-.2.39H72.47V6.1a.34.34,0,0,1-.39.37H62.54a.33.33,0,0,1-.36-.37V3.61h-4.3c-.14,0-.19-.12-.19-.39V2.46c0-.19.05-.29.19-.29Zm4.27,11.54v-2h-5v2Zm0,1.44h-5v2h5Zm4.29-10.1V3.61H63.89V5.05Zm-2.56,8.66h5.34v-2H68.18Zm5.34,1.44H68.18v2h5.34Z"/><path class="cls-1" d="M91.24,1.81V.27c0-.17.12-.27.39-.27,1.2,0,1.81.1,1.81.27s-.1.34-.25.36-.24.2-.24.49v.69h8.59c.12,0,.19.09.19.29v.75c0,.25-.07.37-.19.37H93V4.86h6.88c.1,0,.17.09.17.29V5.9c0,.25-.07.37-.17.37H93V7.91h9.64c.12,0,.19.09.19.29V9c0,.25-.07.37-.19.37H91.29l.88.49c.07.17.12.27.12.29s-.15.2-.42.2-.63.09-.73.26C90,11.2,89,11.74,88,12.22c.74.44,1.49.93,2.25,1.42.83-.49,1.54-1,2.15-1.34,1.53-1,2.83-1.81,3.85-2.59a12,12,0,0,1,1.9,1.81c0,.09-.17.12-.46.12a4.94,4.94,0,0,0-1.2.1c-2,1.17-4,2.26-6,3.24l9.07-.37a13.3,13.3,0,0,0-1.9-1.56A4.62,4.62,0,0,1,98.46,12c.08-.1.15-.17.22-.17a30.83,30.83,0,0,1,2.61,2.24c.78.88,1.47,1.64,2,2.32a.54.54,0,0,1-.12.22c-.54.76-.81,1.12-.83,1.12-.54-.68-1.1-1.34-1.63-2l-8,.73V22.2c0,.17-.15.27-.39.27h-1c-.27,0-.4-.1-.4-.27V16.64l-8.75.78a3.25,3.25,0,0,1-.76.78,9.36,9.36,0,0,1-.59-2.58,60,60,0,0,1,6.86-.52c.44-.24.85-.49,1.24-.73-1.17-.63-2-1.07-2.66-1.37a25.37,25.37,0,0,0-3-1.09c0-.15.32-.56,1-1.27.07-.1.14-.17.24-.17.63.29,1.29.58,2,.92a18.43,18.43,0,0,0,1.76-1.14c.53-.37.95-.69,1.27-.93H81.14c-.15,0-.2-.12-.2-.37V8.2c0-.2,0-.29.2-.29h10.1V6.27H83.43c-.14,0-.19-.12-.19-.37V5.15c0-.2.05-.29.19-.29h7.81V3.22H81.9c-.15,0-.2-.12-.2-.37V2.1c0-.2,0-.29.2-.29Zm-2,16.78a.68.68,0,0,1,.19.37c0,.05-.09.1-.26.1a1.82,1.82,0,0,0-.66.14,22.79,22.79,0,0,1-2.27,1.37A29.16,29.16,0,0,1,82.58,22c-.25,0-.37-.08-.42-.22-.36-.27-.68-.51-.92-.73-.15,0-.2-.13-.2-.2s0-.07.15-.1a8.63,8.63,0,0,0,1.75-.51A12.72,12.72,0,0,0,85.53,19a21.44,21.44,0,0,0,2.07-1.39.27.27,0,0,1,.2-.12ZM99.71,19c1.17.56,2.14,1.05,3,1.49a.72.72,0,0,1-.14.22c-.54.73-.81,1.12-.81,1.12a34,34,0,0,0-4-2,24.14,24.14,0,0,0-2.83-1,4.84,4.84,0,0,1,.75-1.07c.08-.1.15-.17.2-.17C97.46,18.05,98.73,18.54,99.71,19Z"/><path class="cls-1" d="M109.18.61c.17.15.27.24.27.34a.27.27,0,0,1-.2.27c-.15,0-.22.12-.24.32-.2.92-.39,1.68-.56,2.27h6c.19,0,.29.12.29.36V5c0,.25-.1.37-.29.37h-2.66c-.08,2.29-.17,4.15-.3,5.54h3.54c.17,0,.27.14.27.39V12c0,.25-.1.37-.27.37h-3.37a17.11,17.11,0,0,0,1.3,2.46,12.76,12.76,0,0,0,2.61,3c.15.07.22.17.22.26s-.07.13-.2.22a5.22,5.22,0,0,1-.78.81c-.1.14-.19.22-.27.22a.6.6,0,0,1-.39-.2A13.35,13.35,0,0,1,112,16.27a15.66,15.66,0,0,1-1-2,18,18,0,0,1-.88,3,10.87,10.87,0,0,1-4,4.86c-.44-.47-.8-.88-1.12-1.25a7.58,7.58,0,0,0,1.68-1.49,11.1,11.1,0,0,0,1.81-2.75,21.3,21.3,0,0,0,1.12-4.25h-4.15c-.19,0-.29-.12-.29-.37v-.75c0-.25.1-.39.29-.39h4.35c.14-1.42.27-3.25.34-5.54H108c-.22.63-.44,1.24-.68,1.8a17.4,17.4,0,0,1-1,1.74,1.13,1.13,0,0,1-.51-.1c-.32-.1-.64-.22-1-.34-.09-.05-.14-.1-.14-.15s0-.15,0-.19a14.93,14.93,0,0,0,1.44-2.86,20.2,20.2,0,0,0,.65-2.07c.2-.76.4-1.76.59-3,0-.1.07-.17.12-.17Zm17.3,14.22c.14.13.22.22.22.32a.27.27,0,0,1-.27.29c-.3.05-.47.18-.52.39a29.56,29.56,0,0,1-1.53,3.88h2.71c.19,0,.29.15.29.39v.76c0,.24-.1.39-.29.39H115.64c-.19,0-.29-.15-.29-.39V20.1c0-.24.1-.39.29-.39h6.76a19.58,19.58,0,0,0,1.22-2.48c.37-1.1.66-2.13.9-3.05,0-.18.13-.27.27-.27ZM127,2.17c.19,0,.29.15.29.39v.76c0,.27-.1.39-.29.39H116.23c-.2,0-.29-.12-.29-.39V2.56c0-.24.09-.39.29-.39Zm-.86,3.93c.25,0,.37.1.37.27v6c0,.2-.12.29-.37.29h-8.95c-.27,0-.39-.09-.39-.29v-6c0-.17.12-.27.39-.27Zm-6.49,10.73A19.22,19.22,0,0,1,120.4,19a6.46,6.46,0,0,1-1.61.46,11.21,11.21,0,0,0-.54-1.73,17.9,17.9,0,0,0-1.17-2.37c0-.1.44-.39,1.32-.85A25.27,25.27,0,0,1,119.64,16.83Zm5.15-9.22H118.5v3.54h6.29Z"/><path class="cls-1" d="M134.14,6.9c.12.15.2.25.2.32a.13.13,0,0,1-.15.15.65.65,0,0,0-.34.22,19.17,19.17,0,0,1-1.17,2,12,12,0,0,1-1.88,2.1c-.2,0-.34-.05-.39-.19-.34-.25-.61-.47-.86-.69-.12-.05-.17-.09-.17-.17a.16.16,0,0,1,.05-.14,3.54,3.54,0,0,0,.91-.71,10.91,10.91,0,0,0,1.31-1.73c.3-.54.66-1.2,1-2,0-.1.05-.18.1-.18Zm5.25,3.37c0,.15-.1.25-.3.29a.53.53,0,0,0-.51.37,26.78,26.78,0,0,1-1.39,3.68c.39.54.73,1.1,1.07,1.64a23.47,23.47,0,0,1,1.54,2.81.93.93,0,0,1,0,.29c0,.1-.39.36-1.15.85a.23.23,0,0,1-.19-.14,28,28,0,0,0-2.17-3.81,22.14,22.14,0,0,1-1.56,2.37,20.44,20.44,0,0,1-3.69,3.29,1.25,1.25,0,0,1-.39.1.5.5,0,0,1-.44-.27,3.89,3.89,0,0,0-.58-.66c-.15-.1-.22-.19-.22-.32s0-.12.19-.17a6.34,6.34,0,0,0,1.59-1,10.8,10.8,0,0,0,2.36-2.32,11.66,11.66,0,0,0,1.61-2.51,6.75,6.75,0,0,1-.48-.61c-.73-.73-1.52-1.49-2.3-2.24a.36.36,0,0,1-.09-.2,5.67,5.67,0,0,1,.78-1,.55.55,0,0,1,.36-.13c.64.57,1.34,1.25,2.08,2l.39.47a18,18,0,0,0,1-3.49.32.32,0,0,1,.32-.27C138.68,9.81,139.39,10.13,139.39,10.27ZM137,.27c0,.22-.1.34-.25.36s-.22.2-.22.49v2.3H141c.19,0,.29.14.29.39v.75c0,.27-.1.39-.29.39H129.85c-.2,0-.3-.12-.3-.39V3.81c0-.25.1-.39.3-.39h5V.27c0-.17.12-.27.39-.27C136.39,0,137,.1,137,.27Zm2.87,7.78c.59.88,1.08,1.64,1.52,2.32a.54.54,0,0,1-.12.22l-.74,1a32.31,32.31,0,0,0-2.07-3A11.11,11.11,0,0,0,137,7.05,4.18,4.18,0,0,1,137.75,6c.08-.1.15-.17.2-.17A26.89,26.89,0,0,1,139.87,8.05Zm6.2-7.34c.17.14.27.24.27.34a.26.26,0,0,1-.19.27.32.32,0,0,0-.35.29c-.24.88-.46,1.61-.65,2.2h6.34c.19,0,.29.12.29.36V5c0,.25-.1.37-.29.37h-1.37a38.88,38.88,0,0,1-.68,7,17.41,17.41,0,0,1-1.81,4.88,9.87,9.87,0,0,0,4.52,3.71c0,.15-.1.24-.25.34a11.9,11.9,0,0,0-.85.95c-.17.15-.27.25-.32.25a13.9,13.9,0,0,1-2.75-2,6.79,6.79,0,0,1-1.47-1.74,10.54,10.54,0,0,1-1.63,1.52,16.67,16.67,0,0,1-3.59,2.12c-.44-.46-.83-.88-1.15-1.24a11.9,11.9,0,0,0,2.76-1.54,11.2,11.2,0,0,0,2.64-2.47,11.75,11.75,0,0,1-.79-1.68,16.84,16.84,0,0,1-1-3.68,25.56,25.56,0,0,1-.32-4.15,10.13,10.13,0,0,1-1,1.41,1.25,1.25,0,0,1-.54-.09c-.31-.1-.63-.22-.92-.34-.13,0-.18-.1-.18-.15a.25.25,0,0,1,.1-.2,12.43,12.43,0,0,0,1.86-2.85,16.88,16.88,0,0,0,.85-2.07,30,30,0,0,0,.76-3c0-.12.09-.2.17-.2ZM145,7.32a22.05,22.05,0,0,0,.34,4,19.85,19.85,0,0,0,.88,3.17,7,7,0,0,0,.34.78,15.42,15.42,0,0,0,1.17-3.37,36,36,0,0,0,.68-6.61h-3.87c-.3.68-.61,1.32-.93,1.9,0,0-.05.1-.07.1Z"/><path class="cls-1" d="M156.54,3V.46c0-.19.13-.29.37-.29,1.22,0,1.83.1,1.83.29s-.1.34-.24.37-.25.19-.25.49V3h4.69V.46c0-.19.12-.29.36-.29,1.2,0,1.81.1,1.81.29s-.08.34-.22.37-.25.19-.25.49V3h1.91c.19,0,.29.12.29.37V4.1c0,.24-.1.36-.29.36h-1.91v10.2h1.91c.19,0,.29.15.29.39v.76c0,.27-.1.39-.29.39h-12.3c-.2,0-.29-.12-.29-.39v-.76c0-.24.09-.39.29-.39h2.29V4.46h-2c-.19,0-.29-.12-.29-.36V3.32c0-.25.1-.37.29-.37Zm2.79,14.49c.24.13.36.25.36.37s-.12.22-.34.27-.51.1-.59.29a15.48,15.48,0,0,1-2.44,3.37.88.88,0,0,1-.44.27,1.09,1.09,0,0,1-.46-.17,9.38,9.38,0,0,0-1-.47.77.77,0,0,1-.2-.12.23.23,0,0,1,.12-.19,14.08,14.08,0,0,0,1.86-1.83,7.9,7.9,0,0,0,1.31-2.08c.1-.19.2-.29.35-.29Zm3.61-10.58V4.46h-4.69v2.4Zm0,4V8.37h-4.69v2.49Zm0,3.8V12.37h-4.69v2.29Zm0,2.39a15.84,15.84,0,0,0,2.37,3.08.33.33,0,0,1,.12.27c0,.07-.07.17-.2.31-.51.47-.82.71-.95.71a.19.19,0,0,1-.14-.07,16.87,16.87,0,0,1-2.61-3.54,11.41,11.41,0,0,1,1.24-.95S162.81,16.93,162.91,17.05ZM175.21.76c.32,0,.49.12.49.36V19.64a2,2,0,0,1-1.1,1.81,9.68,9.68,0,0,1-2.71.66c-.19,0-.29-.1-.32-.3A4.24,4.24,0,0,0,171,20.3c0-.1.07-.15.22-.15a5,5,0,0,0,2.31-.29,1.07,1.07,0,0,0,.42-.93V14.47h-4.42c-.07.58-.14,1.12-.24,1.58a14.71,14.71,0,0,1-1.2,3.88,10.15,10.15,0,0,1-1.29,2.27.59.59,0,0,1-.27-.05,5.3,5.3,0,0,0-.88-.68.5.5,0,0,1-.09-.32,10.76,10.76,0,0,0,1.34-2.68,20,20,0,0,0,.85-3.76,35.25,35.25,0,0,0,.29-5V1.12a.33.33,0,0,1,.37-.36ZM174,13V8.37h-4.2V9.71c0,1.22,0,2.32-.1,3.25Zm0-6.1V2.27h-4.2V6.86Z"/><path class="cls-1" d="M190.34,12.78a4.92,4.92,0,0,1-1.56,1.71l-.64-.7A3.8,3.8,0,0,0,189.78,11H188V8.08h2.93v2.68A4.17,4.17,0,0,1,190.34,12.78Z"/><path class="cls-1" d="M208.4,1.71c0,.22-.1.34-.24.36s-.25.2-.25.49V16.49a61.63,61.63,0,0,0,5.73-2.39.32.32,0,0,1,.2-.1c.1,0,.17.1.17.3a5.11,5.11,0,0,1-.1,1.41q-4.75,2.23-9.61,4c-.29.49-.51.76-.66.76s-.51-.76-1-2.27a35.62,35.62,0,0,0,3.52-1.07V1.71c0-.2.12-.3.39-.3C207.76,1.41,208.4,1.51,208.4,1.71ZM222,1a.42.42,0,0,1-.26.34.5.5,0,0,0-.3.52,70.41,70.41,0,0,1-.66,9.51,19.52,19.52,0,0,1-1.24,4.25c-.07.19-.15.36-.22.51,1.17.73,2.17,1.39,2.95,2,1.08.91,2,1.71,2.78,2.42a1,1,0,0,1-.12.22c-.54.73-.8,1.12-.83,1.12a32.93,32.93,0,0,0-3.76-3.12c-.73-.49-1.34-.9-1.87-1.2a7,7,0,0,1-1.25,1.35,11.93,11.93,0,0,1-4.46,2.51,13.07,13.07,0,0,1-1.91.46.36.36,0,0,1-.36-.24,8.23,8.23,0,0,0-.73-1.07.6.6,0,0,1-.13-.4,14.37,14.37,0,0,0,4.4-1.36,9.15,9.15,0,0,0,2.87-2.25,12.42,12.42,0,0,0,1.71-3.75,34.23,34.23,0,0,0,.83-6.57c.05-1.73.1-3.51.1-5.32,0-.19,0-.29.1-.29A7.18,7.18,0,0,1,222,1ZM214.62,6c.83,1,1.56,1.81,2.17,2.56a.4.4,0,0,1-.14.22l-.81,1.13a30.84,30.84,0,0,0-3-3.32,15.17,15.17,0,0,0-2.1-1.73,5.11,5.11,0,0,1,.81-1.18c.09-.09.17-.17.21-.17A32.1,32.1,0,0,1,214.62,6Z"/><path class="cls-1" d="M244.71,4.27c.24,0,.39.1.39.29v2.3h3.81c.12,0,.19.09.19.29v.56c0,.27-.07.39-.19.39H245.1v2.27c0,.19-.15.29-.39.29H232.22c-.25,0-.37-.1-.37-.29V8.1h-4.29c-.15,0-.2-.12-.2-.39V7.15c0-.2,0-.29.2-.29h4.29V4.56c0-.19.12-.29.37-.29Zm-5-3.9c0,.22-.1.34-.25.36s-.24.2-.24.49v.59h9c.24,0,.36.09.36.29V5.51q0,.3-.36.3h-1c-.26,0-.38-.1-.38-.3V3.12H229.56V5.51c0,.2-.15.3-.39.3h-.95c-.25,0-.37-.1-.37-.3V2.1c0-.2.12-.29.37-.29h9.34V.37c0-.2.12-.3.39-.3C239.15.07,239.76.17,239.76.37Zm5.05,11.44c.24,0,.39.1.39.29v7.25c0,.19-.15.27-.39.27h-3.1c1.17.29,2.17.51,2.95.75,1,.32,1.9.61,2.63.88l-.12.2q-.72,1-.75,1c-1.13-.41-2.3-.78-3.54-1.12a21.35,21.35,0,0,0-2.56-.59,4.37,4.37,0,0,1,.75-1.07l.08-.07h-5.76c.68.58,1,.95,1,1.05s-.07.17-.22.17-.44,0-.44.12a47,47,0,0,1-6,1.51.36.36,0,0,1-.34-.17,1.4,1.4,0,0,0-.49-.51.42.42,0,0,1-.12-.27c0-.07.07-.12.24-.12,1.08-.22,2-.44,2.84-.66a28.6,28.6,0,0,0,3-1.12h-3c-.27,0-.39-.08-.39-.27V12.1c0-.19.12-.29.39-.29Zm-1.35,2.29V13H233.17V14.1Zm0,2.27V15.15H233.17v1.22Zm0,1.05H233.17v1h10.29Zm-6-10.56V5.42h-4V6.86Zm0,1.24h-4V9.52h4Zm1.64-1.24h4.36V5.42H239.1Zm4.36,1.24H239.1V9.52h4.36Z"/><path class="cls-1" d="M261.5,11.91c.24,0,.37.09.37.29v9.61c0,.2-.13.3-.37.3h-.95c-.27,0-.39-.1-.39-.3V20.67h-6v1.14c0,.2-.15.3-.39.3h-1q-.36,0-.36-.3V12.27a.32.32,0,0,1,.36-.36Zm-1.34,7.24V13.42h-6v5.73ZM268.75.85c.24,0,.36.1.36.27V10c0,.2-.12.27-.36.27h-1c-.24,0-.37-.07-.37-.27V9.15h-9.34v.95c0,.2-.15.27-.39.27h-.95c-.25,0-.37-.07-.37-.27V1.22a.33.33,0,0,1,.37-.37ZM267.4,7.61V2.37h-9.34V7.61Zm5.25,4.2c.24,0,.37.1.37.29v9.61c0,.2-.13.3-.37.3h-.95c-.27,0-.39-.1-.39-.3v-1h-6v1.14c0,.2-.15.3-.39.3h-1q-.36,0-.36-.3V12.2c0-.24.12-.39.36-.39Zm-1.34,7.34V13.32h-6v5.83Z"/><path class="cls-1" d="M287.12.78c.2.15.3.24.3.34a.37.37,0,0,1-.3.39c-.44,0-.68.27-.78.78-.24.88-.46,1.71-.66,2.47h7c.32,0,.49.1.49.29l-.81,4.1h3c.32,0,.49.1.49.27l-.78,4h2.49a.44.44,0,0,1,.48.49c-.36,2.29-.75,4.27-1.14,5.9a4.38,4.38,0,0,1-.86,2.08,3.68,3.68,0,0,1-2.29.51c-1,0-1.58-.17-1.58-.49a6.34,6.34,0,0,0-.42-1.15c0-.14.05-.19.2-.19a14.05,14.05,0,0,0,2,.19,1.24,1.24,0,0,0,1-.44A34.49,34.49,0,0,0,296.25,15H282c-.32.68-.63,1.36-1,2a39.05,39.05,0,0,1-3.07,4.54,1.85,1.85,0,0,1-.59-.1c-.36-.14-.7-.29-1-.39-.15-.07-.2-.12-.2-.17a.53.53,0,0,1,.22-.49,30.66,30.66,0,0,0,4.59-7.15A37.92,37.92,0,0,0,283,8c.2-.54.37-1.13.56-1.76h-6.66c-.19,0-.29-.12-.29-.37V5.15c0-.25.1-.39.29-.39h7c.32-1.27.64-2.66.93-4.2.1-.32.24-.49.39-.49ZM280.07.37A28.23,28.23,0,0,1,282,3.22c0,.24,0,.39-.14.39a2.76,2.76,0,0,1-1.37.56,30.91,30.91,0,0,0-1.71-3.12c0-.17.35-.44,1.05-.78A.34.34,0,0,1,280.07.37ZM283.37,17a.31.31,0,0,1,.34.32,26.12,26.12,0,0,1-1,4.29,1.4,1.4,0,0,1-.1.17,1.61,1.61,0,0,1-.61-.1,5,5,0,0,0-.93-.36.32.32,0,0,1-.17-.29,14.36,14.36,0,0,0,1.22-3.88c0-.2.12-.32.3-.32Zm9.88-3.61.75-2.76H283.78a.53.53,0,0,0-.07.22c-.34.88-.71,1.73-1,2.54Zm-2.69-4.27.76-2.88h-6.08c-.34,1.12-.63,2.07-.9,2.88Zm-4.29,8c.27.81.58,2.08,1,3.81,0,.14-.49.32-1.41.46-.15,0-.2-.05-.2-.14-.15-1.22-.37-2.49-.66-3.86,0-.15.39-.29,1.22-.46C286.22,17,286.25,17,286.27,17.15Zm3-.39c.44.9.86,1.86,1.25,2.86,0,.24-.05.36-.15.39a2.74,2.74,0,0,1-1.27.56c-.39-1.25-.73-2.3-1.05-3.15,0-.15.34-.41,1.05-.76A.25.25,0,0,1,289.22,16.76Zm2.95-.46A21,21,0,0,1,294,18.47c0,.24-.07.39-.17.39a2.39,2.39,0,0,1-1.27.56c-.58-1-1.12-1.8-1.61-2.46,0-.17.34-.42,1.05-.76A.22.22,0,0,1,292.17,16.3Z"/><path class="cls-1" d="M311.28,1.29c.78.52,1.44,1,2,1.37a.77.77,0,0,1-.15.22c-.34.49-.56.78-.66.93h8.62a.25.25,0,0,1,.29.29v1c0,.24-.1.37-.29.37h-8.66v6.19h7.51c.2,0,.29.1.29.3v.95c0,.27-.09.39-.29.39h-7.51v6.37H322a.25.25,0,0,1,.29.29v.95c0,.24-.1.39-.29.39H300.86c-.19,0-.29-.15-.29-.39v-.95a.25.25,0,0,1,.29-.29h9.72V13.25h-7.81c-.2,0-.3-.12-.3-.39v-.95a.27.27,0,0,1,.3-.3h7.81V5.42h-8.67c-.19,0-.29-.13-.29-.37v-1a.25.25,0,0,1,.29-.29H312a26,26,0,0,0-2.34-1.64,14.38,14.38,0,0,0-1.88-.95,4.84,4.84,0,0,1,.75-1.07c.08-.1.15-.15.2-.15A25.74,25.74,0,0,1,311.28,1.29Z"/><path class="cls-1" d="M341.88,12.64l-3.92-3,.58,4.93h-1.8l.58-4.93-3.9,3-.9-1.59L337,9.12l-4.48-1.9.9-1.56,3.9,2.93-.58-4.78h1.8L338,8.59l3.92-2.93.88,1.56-4.49,1.9,4.49,1.93Z"/><path class="cls-1" d="M353.6,12.64l-3.93-3,.58,4.93h-1.8L349,9.66l-3.9,3-.9-1.59,4.49-1.93-4.49-1.9.9-1.56L349,8.59l-.58-4.78h1.8l-.58,4.78,3.93-2.93.88,1.56L350,9.12l4.49,1.93Z"/></svg>