<svg id="圖層_1" data-name="圖層 1" xmlns="http://www.w3.org/2000/svg" viewBox="0 0 1030.76 176.95"><defs><style>.cls-1{fill:#40220f;}</style></defs><title>header_title_big</title><path class="cls-1" d="M40.44,86.78c0-.12-.54,2-1.61,6.26a50.12,50.12,0,0,0-9.67.71,10.1,10.1,0,0,0-3.93-1.61l-1.08.36a47.37,47.37,0,0,1-6.79-4.65A65.08,65.08,0,0,1,11.27,83Q6.08,78,2.33,65.48C.77,60.36,0,57.25,0,56.18c0-1.31.3-2.15.89-2.5A7.45,7.45,0,0,0,4.29,53q1.62,0,5,.18c1.2.48,2.87,1.19,5,2.15a8.15,8.15,0,0,0,4.12,2.86,26.36,26.36,0,0,0,3,4.11,11.77,11.77,0,0,1,3.4,3.22q4.47,4.48,10.74,10v.9a12.38,12.38,0,0,0,2.32,2.68l-.71.9C39.36,83.2,40.44,85.47,40.44,86.78Zm90,40.61-.89-.18-.54.18a1.76,1.76,0,0,1-.71.9l1.07.35.89,1.44c-2,.47-4,.89-6.08,1.25a37.06,37.06,0,0,0-6.08-.36q-1.62,0-8.77.72a36.12,36.12,0,0,1-8.77,0l-1.79.53-.17-.53q-.54-.18-.36-.36l.18-.36-.18-.36h-.54L97,132.4l-3.4-.18a30.08,30.08,0,0,0-8.77,1.25,4,4,0,0,0-.9,4.66c-1.31.24-3.16,2.38-5.54,6.44-1.55,2.74-3.11,5.43-4.65,8.05a3.28,3.28,0,0,0,.17,1.07l-2,.9v.89a37,37,0,0,0,9.3-2q8.05-2.32,9.12-2.68a132.46,132.46,0,0,0,17.36-3.4,33.72,33.72,0,0,1-2.86-6.62c.36-.72,1.25-1.13,2.68-1.25a15.84,15.84,0,0,0,2.69-.36,89.22,89.22,0,0,1,9.12,1.25q2.86,1.44,8.59,4.12a18.61,18.61,0,0,0-1.79,3.22,2.15,2.15,0,0,0,.54.89l-.54,1.08q2.14.36,2.15,3.93a10.94,10.94,0,0,1-1.7,4.83q-1.71,3-3.31,3.4l-2.51-1.07-1.07.36a4.11,4.11,0,0,0-2.51-1.25,9.49,9.49,0,0,1-2.86-.72q-3.94,1.78-17.53,4.83Q85,166.76,80.51,170a3.9,3.9,0,0,0-1.25-.17,9.22,9.22,0,0,0-4.47,1.61c-1.79,1.07-2.81,2.14-3,3.22A15.71,15.71,0,0,1,66,172.3l-2,1.07q-2.32-.88-5.45-4.74t-3.13-6.17q0-3.41,4.47-7.87t4.11-6.44a29.65,29.65,0,0,0,3.76-5.91q2.5-4.65,2.68-6.26a4.31,4.31,0,0,0-1.07-.54l-.89.18a2.73,2.73,0,0,0-1.7.18,2.65,2.65,0,0,0-1.17.9l-1.43-.36q-2.51.36-9.66,3.4c-1,.12-2.27.35-3.94.71A49.36,49.36,0,0,1,44.91,143q-6.09-1.26-13.42-3c-.72-.36-1.55-1.49-2.5-3.4a11.2,11.2,0,0,1-1.44-3.94l-1.07-2,.72-2.15-.72-2,.18-.72h.71a1.86,1.86,0,0,1,.72.36,1.72,1.72,0,0,0,.9.36h2.68A5.27,5.27,0,0,1,34,127q9.48-1.78,28.62-4.65a260.07,260.07,0,0,1,28.63-1.25l5.55.54,1.79-1.26,1.07.54c.59-.6,2.68-.89,6.26-.89a7.55,7.55,0,0,0,2.68-.36l1.26,1.43.36-1.43.35,1.43q1.08-2,5.73-1.79l6.8.36a14.1,14.1,0,0,1,1.07,1.25c.36.48.9,1.14,1.61,2H126c1.55.71,2.44,1.43,2.68,2.15l-.35.89C128.76,126.32,129.48,126.8,130.43,127.39ZM159.6,57.08a16,16,0,0,0-2.87,8.58l1.44,8.77a3.38,3.38,0,0,1-.9,1.43l-.36.9q.72,1.24.81,5.1a21.2,21.2,0,0,0,.62,5.45l-1.43,1.26a5.77,5.77,0,0,1-1.43.17c-1.79,0-4-1.66-6.62-5l-5.37-7.51.18-1.07a16.8,16.8,0,0,1,1.79.8,5,5,0,0,0,2.15.63h.18l-.72-3.22.36-1.26c-1-1.19-1.55-3.45-1.79-6.79a51,51,0,0,0-.71-7.52l.17-1.25a31.15,31.15,0,0,0-7.87-1.61,10.35,10.35,0,0,0-2.86.36l.18.71c.95,1,1.9,1.88,2.86,2.78a8.47,8.47,0,0,1,2.15,4.2c-.12.72-1.43,2.8-3.94,6.26l-1.07-.36a7.53,7.53,0,0,1-4.3,1.79,20.12,20.12,0,0,0-4.11.72c-.72-.36-2-1-3.76-1.79l-1.07.18-1.25,1.43q-7.69-4.11-7.7-9.12A17.85,17.85,0,0,1,112.9,59a15.16,15.16,0,0,0,2-2l1.43-.9a1.56,1.56,0,0,1-.18-.71l.18-.54a1.75,1.75,0,0,1,.89-.72q-2,0-5.9-.27c-2.63-.17-4.59-.26-5.91-.26-5.36,0-8,.89-8,2.68a24.88,24.88,0,0,0,1.08,5.55L98.05,63l.54.72a12,12,0,0,1-.18,3.4q1.61,2.67,4.83,23.61l-.36.54c-.12.6-.24,1.43-.36,2.5a69.17,69.17,0,0,1,10.2,4.3,31.26,31.26,0,0,0,3.94,5.55,3.11,3.11,0,0,0-1.79,3c.11-2.63.23-1.37.36,3.75l-5,.54-4.3-.54-3,.9a9.29,9.29,0,0,0-4.83-1.08,5.08,5.08,0,0,0-1.52.36,6.18,6.18,0,0,1-1.17.36,6.81,6.81,0,0,1-3.48-1.34,6.73,6.73,0,0,0-3-1.34,2.27,2.27,0,0,0-1.25.53,5,5,0,0,0-1.79-.35,58.35,58.35,0,0,0-5.9,1.43l-1.25,1.07a3,3,0,0,0-.72-.54,2.2,2.2,0,0,0-1.07.54,15.17,15.17,0,0,1-2.87-.89q-3,0-10.2-2.69a58.17,58.17,0,0,0-5.36-4.47q9.3-10.56,31.84-10.56a17.75,17.75,0,0,1,2.42.27,17.92,17.92,0,0,0,2.59.27,3.4,3.4,0,0,0,1.08-.18L89.1,79.26,93,80.69l.54-1.43q-2.34-12.53-5-24.51a13.09,13.09,0,0,0-2.15-.18,49.81,49.81,0,0,0-6,.54,49.62,49.62,0,0,1-6.17.53,16,16,0,0,0-9.48,3.22c.47.72,1.91,1.5,4.29,2.33a18,18,0,0,0,5.19,1.25l4.12,3a5.92,5.92,0,0,0-.18,1.44c0,.12.24,1.61.71,4.47-.59.84-1.43,2.15-2.5,3.94a8.33,8.33,0,0,0-1.61-.18,15.06,15.06,0,0,0-5.55,1.43l-.53-.36a27.23,27.23,0,0,0-4.3-2.86,3.54,3.54,0,0,0-.89-.63,7.86,7.86,0,0,0-2.69-.27c-1.67-2-4.41-5-8.23-8.94l-2.32.18q-6.27,0-9.13-4.12Q59,51.36,88.21,52.07A57.74,57.74,0,0,0,85.7,36L85,35.25a4,4,0,0,0-2.15-.36l-.54-.36a1.11,1.11,0,0,0-.53.54q-.18.36-1.08.36l-.18.35L78.9,34.35l-3.22.18-3-1.79-1.07.18-.18-1.25-2.33-.36-.53-.89a16.2,16.2,0,0,1-2.33-.9L65,30.24a2.8,2.8,0,0,1-1.25-2.69L63.16,27l-.9-.18-.35-.36a2.73,2.73,0,0,0-.72-1.07h-.36V24.15a3,3,0,0,0-.18-.89,7,7,0,0,1-2.32-.54l.36-1.79a14.45,14.45,0,0,1-2.51-2.14L56,18.25l-.36-.54-.53.18L56,17l-.18-3.22c.48-.24,1.14-.54,2-.9a16.69,16.69,0,0,0-.18-2l.18-.71.54-.36-.9-1.43L59,7.51a5.43,5.43,0,0,1,.18-1.61l.72.36.54.18a4.68,4.68,0,0,1,1.43-2.15l1.61.54Q64.59,2,69.78,1.07l.89,1.08,1.79-1.08,3.4.72.72-.18a1.71,1.71,0,0,1,.89-.72,2.82,2.82,0,0,1,.72.54,2.11,2.11,0,0,0,.89-.54h.54a4.31,4.31,0,0,1,1.07.54l.18-.71h.36l1.61.17.89,1.44,2.87-.9,1.25,2.33.72-.36A13.12,13.12,0,0,0,92,4.83a28.89,28.89,0,0,1,3.57.36l.36,1.07A4,4,0,0,0,98.5,7.6a9,9,0,0,1,2.41.63q3,2.68,9.66,7.52c1,.47,2.51,1.13,4.66,2q.7.54,5.72,4.66l.36,1.07c.71.71,1.85,1.91,3.4,3.58l-.18,1.43c.36,1.07.89,2.74,1.61,5q-1.08,5-4.12,5.72-4.47,1.26-5.72,2.51c-2.27-.12-3.64-.18-4.12-.18a22.15,22.15,0,0,0-7.33.89c-.84-.47-2.09-1.13-3.76-2l-1.07.18-.72,4.29c-1.79.36-2.68,1-2.68,2A3.94,3.94,0,0,0,97,48.31a3.6,3.6,0,0,0,1.07,3.4q3,0,9.3-.27t9.31-.27q4.47,0,13.59.54t13.6.54A5.2,5.2,0,0,0,146.63,51a5.19,5.19,0,0,1,2.77-1.25h3.93a7.7,7.7,0,0,1,1.08.89l.89-.53A11.88,11.88,0,0,1,159.6,57.08Zm-95.55,29q-2.69,4.65-8.76,5-3.23-2.68-6.44-5.19-3.94-3.57-4.3-6.8,2.33-3.39,7.7-4.11L54.57,76v-.36l.36-.35h.36l.53.17.54-.17A21.68,21.68,0,0,0,59,76.58a27.32,27.32,0,0,1,3.05,2.86,6.8,6.8,0,0,1,2,3.76l-.71,1.25.53.54Zm60.12-3.22a10.29,10.29,0,0,1-7.51,3.22q-4.12,0-6.09-2.68c-2.14-3.1-3.34-4.77-3.58-5l-.17-.54.17-.36h.36l-1.07-.71V75.5a4.58,4.58,0,0,1,2.15-2c.71-.24,1.49-.48,2.32-.72.83,0,2,.06,3.58.18a24.26,24.26,0,0,0,5.55,2.15A20,20,0,0,1,124.17,82.84Z"/><path class="cls-1" d="M339.73,120.41,339.2,122l-.36-.35h-.36l-.36.17v.9l.54,1.07v1.26l.36.35-.72,1.43.36,1.44a93.79,93.79,0,0,1-5.37,10.37q-4.11,6.45-8.05,7.52-1.25,1.6-6.89,4.38c-3.75,1.85-6.35,2.84-7.78,2.95a25,25,0,0,0-5.37,1.08l-1.07-.18-.54-.72a20.21,20.21,0,0,0-5.36,1.43c-1.32-.59-3.88-.77-7.7-.53a41.26,41.26,0,0,0-8.59-2.33l-.89.36q-7.87-3.23-11.27-9.3c-.84-1.08-1.7-2.24-2.6-3.49a6.86,6.86,0,0,1-1.34-4,5.09,5.09,0,0,1,.9-3,8.75,8.75,0,0,1-.72-3.22,23.58,23.58,0,0,1,1.43-8.77q-.54-2-.89-10.73-.18-7-2.87-10.2h-1.07a3.36,3.36,0,0,1-1.7-.09,6.23,6.23,0,0,0-1.52-.27,8.11,8.11,0,0,0-3.94.89l-.71.9-.18.89.18.72a1.07,1.07,0,0,0,.71.72,2.23,2.23,0,0,0-1.25,1.61l.18.89-.36.18a2.21,2.21,0,0,0,1.25.89,4.4,4.4,0,0,0-1.25,2.69,12.11,12.11,0,0,0,0,3,4.08,4.08,0,0,1-.36,2.42l.72,2.5-.54.54a10.83,10.83,0,0,1-.53,2.86l1.25,2.86-1.25,1.25a4,4,0,0,0-.18,1.26,3.8,3.8,0,0,0,.71,2.14l-.71,3.76h.18a7.45,7.45,0,0,0,.53-.71q0-1.62-.71,4.11l.53,1.07-.71,2h.18v.54c0,.6.11,1,.36,1.07h.35a24.65,24.65,0,0,0-.53,5.91,8.11,8.11,0,0,0,.53,1.43l.54.54-.54,2.14q1.26,4.83.72,6.09.54,3.75,2.32,10.73-.88.9-1.61,5.37l-3.22.71-.35.36a9.24,9.24,0,0,1-1.26-1.07c-.35-.12-.77-.24-1.25-.36-.12-1.19-.54-1.67-1.25-1.43q-3.58-6.09-3.76-8.59a6.36,6.36,0,0,0-.18-2.5l.54-4.3a7.51,7.51,0,0,0-.72-3.4q2.14-3.93,2.15-5.19a7.12,7.12,0,0,1-1.07-3.75c0-1.31.06-2.87.18-4.66l.53-.53q-1.78-1.78-1.79-15.21,0-6.26.18-10.2a33.25,33.25,0,0,1,.36-3.94,33,33,0,0,0,.36-3.93v-.9l-.72-.53a7.11,7.11,0,0,0-4.83,2c-.6-.24-1.43-.54-2.5-.9l-1.26.9h-.35l-1.44-.72c-1.31.84-2.56,1.64-3.75,2.42a7.87,7.87,0,0,0-2.87,3.66l.72.54v.72l-.54.53-.35.72a6.47,6.47,0,0,0,0,2.15,9.66,9.66,0,0,0-1.26.53l-.53.9a6.7,6.7,0,0,0-.36,2.68q0,.72-2.15,9.12l.54,1.79a6.69,6.69,0,0,0-2.15,3.76l.9,2.33a40.88,40.88,0,0,1-1.44,4.47l.54.9-.89.17-.36.36c-.12.6-.24,1.14-.36,1.61a16.89,16.89,0,0,1,1.07,4.83,23.82,23.82,0,0,1-1.07,6.44l-2.86-1.25-.54-1.07C212,150.53,210,147,210,142.06l1.61-3.22-.54-.89.36-.9.36-.35.53-.36v-1.25a4.86,4.86,0,0,1,1.61-3.94c-.35-.36-.83-.9-1.43-1.61a23.59,23.59,0,0,1,1.79-2.86l.36.35.36-.35c.11-.48.23-1,.35-1.44l-.35-.53-.72-.18-.36.18-.35.36.35-.9.36-.54c.48-.11,1-.23,1.61-.35l-.18-.72a2.58,2.58,0,0,0,.54-1.61l-.36-.54-.89-.53-.72.18c.36-1.44.72-2.81,1.07-4.12a5.31,5.31,0,0,1,3.05-3.22v-2.33a26.14,26.14,0,0,0-11.81,4.84l-1.08-.18q-2.32-.18-6.53,2.86a29.9,29.9,0,0,1-4.56,3,19.51,19.51,0,0,0-3,.89l-.72.72a34.27,34.27,0,0,0-7-2.5,3.81,3.81,0,0,0-2.15-3.14,27,27,0,0,0-3.76-1.34l-1.07-2-2.15-.17q-.18-1.26-3-3.67A10.39,10.39,0,0,1,168,103.6c.24-1.44.54-2.87.9-4.3a5.08,5.08,0,0,1,3.22-2.5l2.5.35,4.65-.71,1.08,1.61,2.32-.72q6.45,3.23,16.46,3.22a78.23,78.23,0,0,0,10.38-.89q8.24-1.25,10.2-1.43l1.25-.9a4.18,4.18,0,0,0-1.61-.89l-.54-.36-.17-.54,1.07-.71v-.54a3,3,0,0,0-.72-.18v-.53l.36-.36h.9c-.36-1.08-.9-2.74-1.61-5l.89-1.61-.54-.9q-2.51,1.44-7.87,3.94-2-3.39-3.85-7.07a16.48,16.48,0,0,1-1.87-7.6c0-1.08.95-3.1,2.86-6.09q4.47-1.78,12.88-9.3l-.18-1.07q.18-.18,5.37-2.33a14.38,14.38,0,0,0,4.47.36l.72.89a34,34,0,0,1,4.83,1.08A17.68,17.68,0,0,1,241.78,62c2,1.73,3,3.37,3.13,4.92a73.54,73.54,0,0,1-6.09,9.3,9.71,9.71,0,0,1-2.14-.36,9.87,9.87,0,0,0-2.15-.36q-4.65,0-11.09,4.3l-.72.89a8.33,8.33,0,0,0-.18,1.61,17.49,17.49,0,0,0,1.88,1.52,22,22,0,0,1,3.67,4,16.93,16.93,0,0,0,.71,2.33,16.33,16.33,0,0,0,1.26,2c.11,1,.35,2.33.71,4.12q10.2-3.39,14.85-3.94l-.53-2.68q0-4.83.8-14.58t.81-14.58c0-3.23-1.68-7.52-5-12.89l.18-1.25q-.72-.36-9.49-6.44a27.8,27.8,0,0,1-5-2.33,6.9,6.9,0,0,1-3.22-3.22,14.59,14.59,0,0,1-8.23-9.3q-3.93-1.43-3.93-7a22.86,22.86,0,0,1,.17-2.86,22.54,22.54,0,0,0,3.05-4.3l.53-.17a1.73,1.73,0,0,1,.9-.72l.71.54a1.85,1.85,0,0,1,1.79-1.26,18.23,18.23,0,0,1,6.8,1.44l1.79-.18.72,1.61H229a7.14,7.14,0,0,1,2.69,1.16,6.75,6.75,0,0,0,3.22,1.16h.18l.18.72.89.45a1.32,1.32,0,0,1,.72.8l1.43-.71-.18.89a1.09,1.09,0,0,0,.71.72l.54-.18a6.29,6.29,0,0,0,2,.53l3.58.54a19.88,19.88,0,0,0,5.72-.89,3.76,3.76,0,0,1,.9.71q5-3,21.47-6.26Q288.2,8.95,295.9,9h.89a1.71,1.71,0,0,1,.72.89c2.15-.36,3.16-.54,3-.54q1.08,0,3.76,3a24.21,24.21,0,0,0,3.58,3.49l-1.08,2.32.18.36a2,2,0,0,0,.72.71l.18.72a5.85,5.85,0,0,1-2.6,2.15q-2.06,1.06-3,4.29h-1.07c-.12,1-1,2.77-2.51,5.46a15,15,0,0,0-2.32,7.42,1.61,1.61,0,0,1,.53.18v.72q-4.65,2.69-4.65,9.84a12.91,12.91,0,0,0,.45,3.76c.29,1,1.88,1.85,4.74,2.68a14.93,14.93,0,0,0,5.37.89l7.51-.53v-2l1.43,1.61.9-1.61.89-.18a6.34,6.34,0,0,1,5.19,2.86l.18.9h1.79v2.32l-1.43-.71.89,2.5a34.5,34.5,0,0,1-3.93,2.33c-1,.6-2.39,1.37-4.3,2.33q-11.1,1.61-24.33,4.29A35.09,35.09,0,0,1,281.94,66l.54-2.15c-.6-4.17-.89-6.49-.89-7a7.54,7.54,0,0,1,.62-2.15,68.61,68.61,0,0,0,1.88-9.3A9.55,9.55,0,0,1,285.16,41q-.53-4.29-1.79-12.88a5.15,5.15,0,0,0-1.25-.18,6.78,6.78,0,0,0-2.68,1.25,6.68,6.68,0,0,0-1.79-.53,8,8,0,0,0-3.85,1.52c-1.61,1-2.89,1.4-3.84,1.16q-7.87,6.63-11.1,10.92c.72.59,1.43,2,2.15,4.11a9.53,9.53,0,0,1,3.4,2.86,44.71,44.71,0,0,0,2.33,8.95q-6.27,7.34-6.27,9.12a16,16,0,0,0,.54,2l-.89,2.51a.52.52,0,0,1,.35.18v.53c-.35.24-.83,1.38-1.43,3.4l.36,1.08q-1.61,2-1.61,6.79c0-.47.06,1,.18,4.3q3.22-4.65,10.91-4.65a11.06,11.06,0,0,1,3.58.89,23.8,23.8,0,0,0,3.22,1.08c2.39.83,4.77,1.61,7.16,2.32q4.65,2,4.65,6.44a28.88,28.88,0,0,1-3.58,6.62v.72q-3.41,2-4.83,7-.72,4.29-1.43,8.58a48.89,48.89,0,0,0,1.07,10.38q1.26,3,3,3.94a36.46,36.46,0,0,0,10.56,4.47A52.69,52.69,0,0,1,302.88,138q7.86-1.26,15.92-2.51,9.12-2.15,13.6-7.69a90.4,90.4,0,0,1,5.72-9.3ZM323.1,93a101.39,101.39,0,0,0-10.38,5.9,6.51,6.51,0,0,0-2-.35q-5,0-13.24,8.94a12.18,12.18,0,0,0-3,7.7,6.68,6.68,0,0,1,2.14-.36q2.86,0,7.88,3.4,7,4.83,7.51,5l-.36.71a13.26,13.26,0,0,1-.53,4.12c-3.11,0-4.95.3-5.55.89a12.14,12.14,0,0,1-9-4.29,13.39,13.39,0,0,1-4-9.31,4.54,4.54,0,0,0-3,1.26,16,16,0,0,1-2.69,2.14q-2.32-3.21-2.32-4.47a8.41,8.41,0,0,1,.89-4.12c.6-.59,1.55-1.61,2.87-3q3.75-3.93,10.91-12.52A19.68,19.68,0,0,1,301.27,92q1.78-1.08,5.54-3.4l1.08.71c.71-.71,3.22-1.07,7.51-1.07a7.89,7.89,0,0,1,2.24.53,5.28,5.28,0,0,0,2.59.36l2.51,2L322,92.32Zm-2.87-46.52q-2.33,1.6-9.12,3a37.79,37.79,0,0,1-6.8-2q-4.12-1.79-4.83-4.83a16.09,16.09,0,0,1,4.65-2.5h5.19a2.73,2.73,0,0,1,1.07.36,7.29,7.29,0,0,1,2.33-.36,9.8,9.8,0,0,1,7.51,3.58ZM331,14.85q-1.26,2.15-3.4,6.26-1.08,0-5.73,2.15a27.86,27.86,0,0,0-5.36,2.86,2.06,2.06,0,0,0,.17,1.43l-3.4,2a3.88,3.88,0,0,0-1.25-.18,17.86,17.86,0,0,0-5.72,1.43h-.54l-.18-.35,1.25-.36c.84-1.55,1.67-3.16,2.51-4.83a23.11,23.11,0,0,1,3.76-4.48,53.63,53.63,0,0,1,4.65-8.58,21.28,21.28,0,0,0,3.4-2.69l1.25.36H322l-.18.36.18.54.36.71,1.79-.89C325.6,11,327.86,12.47,331,14.85Z"/><path class="cls-1" d="M410,52.25c-1.2.47-1.79,1.73-1.79,3.75a31.11,31.11,0,0,1,.17,3.4l.36.54a6.61,6.61,0,0,1,.18,1.61L406.79,63v1.07a68.54,68.54,0,0,1-6.08,7,13.83,13.83,0,0,1-3.94,2,5.53,5.53,0,0,0-3.22,2.86l-1.61-.36a8.56,8.56,0,0,0-2,.9,61.69,61.69,0,0,1-6.62,7.51q-4.67,4.83-5.55,8.23c1.79,1,3.61,1.94,5.46,3a7.4,7.4,0,0,1,3.66,4.74l3.58,4.11-.36,2.15.36.54v1.07a5.63,5.63,0,0,0-2.32,3.67q-.18,1.88-.36,4a4.72,4.72,0,0,1-.54,2.15,12.42,12.42,0,0,1,.72,4.29,67,67,0,0,1-.72,8.24,65.8,65.8,0,0,0-.71,8q0,12.52,2.68,20.93l-.36.54a4.78,4.78,0,0,1-1.07,2l-2.33-.72-.89.18c-.12.71-.36,1.73-.72,3l-1.79-.54-2.32.72-5.55-5.55a11.58,11.58,0,0,1-2.68-7.33c0-.72.09-1.88.27-3.49s.26-2.83.26-3.67q-.18-6.44-.18-10.56a146.7,146.7,0,0,1,1.44-21.82,21,21,0,0,0-.18-4.48l.53-1.07-2.14-1.79c-2,.72-3.46,2.86-4.3,6.44a22.12,22.12,0,0,0-1.43,2.33l-.18,1.25.36.18v.89l-1.25,2.33.71,1.61c-.35.6-.68,2.32-1,5.19s-.93,4.89-1.88,6.08c-1.43,0-2.33-.18-2.68-.54l-.54.54a2.93,2.93,0,0,1-1.25,2.51l-2.15-.9-.71.36-1.08-.54-.54.36-.89,1.07L352,134a8,8,0,0,1-.71-1.43l.18-.54-.18-.53q-10.2-3.22-10.2-9.67a5.9,5.9,0,0,1,.18-1.43q-.54-2.68,3.22-14.85Q347,97.7,349.72,90q1.25-5.73,4.65-16.64,2.33-6.27,6.44-19.33a38.84,38.84,0,0,0,2.69-5.18q1.25-4.31,4.11-13.07l1.25-.71-.71-1.25a7,7,0,0,0,1.79-4.48c1.07-2.38,2.14-4.71,3.22-7q2.5-4.49,10.73-4.3l.54.9.54-.54.71-.18,1.08.18a3.07,3.07,0,0,0,1.25-.18,41.09,41.09,0,0,1,5.9,1.79,1.17,1.17,0,0,1-.18,1.07l.54.36h.36a4.69,4.69,0,0,1,.8.54,8.53,8.53,0,0,0,2.42.89A16.29,16.29,0,0,0,399.1,24l.9.35a8.57,8.57,0,0,0,3.22,3.58,1.22,1.22,0,0,0-.36.9,43.66,43.66,0,0,1,4.47,7.69l-.71,1.79,2,6.44-.35,1.79Q408.76,48.49,410,52.25ZM511.46,139.2a14.71,14.71,0,0,0-4.29,4.29l-3.58,4.84a49.51,49.51,0,0,1-7.34,6.35q-5.53,4.2-7.51,4.74c-.24.83-2.45,2.06-6.62,3.67s-6.44,3.13-6.8,4.56l-1.43-.18a13.28,13.28,0,0,1-4.56,1.43,22.86,22.86,0,0,0-4.39,1.07l-1.25-.17c-5.49,0-8.65.35-9.48,1.07q-6.09-1.08-17.89-4.47h-1.08a52.32,52.32,0,0,0-15.38-9,27.11,27.11,0,0,0-4.3,3.58,10.48,10.48,0,0,0-3.22,4.47c-.48-.24-1.13-1.25-2-3a11,11,0,0,1-1.25-3.76l.18-.53c-.24-1.56.42-3.52,2-5.91a29.12,29.12,0,0,0-7.52-4.83,3.67,3.67,0,0,1-2.05-1.25,17.68,17.68,0,0,0-3.14-2.51,12.42,12.42,0,0,0-.53-3,30.84,30.84,0,0,1-3.4-4.47,17.66,17.66,0,0,0-1.61-2.33,2.2,2.2,0,0,1,0-1.25,2.7,2.7,0,0,1,.71-1.07l-.89-1.79c.71-1.67,1.49-2.51,2.32-2.51a26,26,0,0,1,13.42,3.94q6.09,3.93,12.17,7.69a15.17,15.17,0,0,0,1.43-1.79l-.18-.53q-5.19-2.33-7-6.27-1.25-3-1.25-9.3A53.2,53.2,0,0,1,415,109q1.26-5.37,2.51-10.91h-.89a9.78,9.78,0,0,1-4.66,2.5,18.47,18.47,0,0,0-4.83,1.61l-6.8-1.43c-.47-.71-1.31-1.79-2.5-3.22a19.36,19.36,0,0,1-3.22-2.5A7.87,7.87,0,0,1,393,91.79L392.48,87c.6-1.32,2-2,4.29-2a12.3,12.3,0,0,1,2.51.36,11.91,11.91,0,0,0,2.33.35q2-.89,10.82-2.86t10.65-2q3.39,0,11.09,6.44a11.84,11.84,0,0,0,.54,4.48Q429.88,96.62,429,100a20.67,20.67,0,0,0-6.26,15.21c0,1.55.65,3.93,2,7.15q9.48,4.83,9.48,10.92,0,1.78-2.24,4.92c-1.49,2.08-2.23,3.73-2.23,4.92q.89,0,5.72,2.59t6.26,2.6c.36.59,2.51,1.49,6.44,2.68q3.76,1.43,13.07,3.94a86.79,86.79,0,0,1,14.67,1.25c1.79-1,4.86-1.82,9.21-2.6s7.54-1.76,9.57-2.95a87.78,87.78,0,0,0,8.23-6.08A34.49,34.49,0,0,1,511.46,139.2ZM518.8,63a6.92,6.92,0,0,0-3,.27,23.24,23.24,0,0,0-3.22,1.52l-.36.54L512,66l-5.55-1.25A3,3,0,0,0,505,67.45c0,.84.09,2.09.27,3.76s.27,2.92.27,3.76a10.38,10.38,0,0,1-.54,4.11,21.84,21.84,0,0,0-5,1.79l-1.07,2.33-3.22-.54-1.43.54q-5.37-3.93-6.09-14.49a5.31,5.31,0,0,0,.54-2.69,5.9,5.9,0,0,0-.18-1.43q-5.19.54-15.56,2.68a13.2,13.2,0,0,0-.18,2.33,15.23,15.23,0,0,0,1.43,6.26l3.58-.36q8.22,0,10.55,2.87l-.71.71a14.53,14.53,0,0,0,.89,2.69q-2.32,1.61-6.44,3.93a39.28,39.28,0,0,1-5.19.54c-1.91.12-2.86,1-2.86,2.68a11.91,11.91,0,0,0,.18,2,4,4,0,0,0-.18,1.25,2.41,2.41,0,0,0,1.07,2.15,9,9,0,0,1,1.08-.18q4.29,0,3.93.18A15.74,15.74,0,0,1,485,97.15v1.26a11.45,11.45,0,0,1,1.79,1.61l-.18.71c-2.14,1.2-5.07,3-8.76,5.55l-.54.18a4.8,4.8,0,0,0-2.06,3,28.06,28.06,0,0,0-.62,3.94l2.5.53a18.64,18.64,0,0,1,7.87-1.43,8.51,8.51,0,0,1,4.83,2,13.18,13.18,0,0,1-.35,3.94,53,53,0,0,1-7.52,3.39q-4.83,2-6.08,4.3l1.25,13.06c-.84.36-1.52,1.4-2.06,3.13a7.48,7.48,0,0,1-2.41,3.85q-7.15-4.65-7.16-11.27l.72-4.3-.72-2.32c-2.62.24-5.25.53-7.87.89q-5.55.72-7,2c-3.1-.6-4.77-1-5-1.07q-3-1.08-2.68-3.94l1.07-2.86q3.75-2.16,23.08-7a19.13,19.13,0,0,0-.72-5.91l-5.9,1.44a24.57,24.57,0,0,1-10.2-6.45l-.18-1.78-.89-1.08q1.24-4.65,1.61-5c.24-.24,1.91-.29,5-.18.71-.59,2.35-.92,4.92-1a9.39,9.39,0,0,0,5.81-1.7V90.18a17.23,17.23,0,0,0-7.6,1.87l-7.43,3.67-2.32-2-.9.18q-4.11-5.54-4.11-8.41a3.87,3.87,0,0,1,.71-2.14q8.42-2.5,19-5.55l.54.18,2.68-1.07a16.48,16.48,0,0,0,.18-2.33,19.41,19.41,0,0,0-.72-5,5.15,5.15,0,0,0-1.25-.18q-3.93,0-17.18,5.37c-1.55.24-3.63.66-6.26,1.25a45.78,45.78,0,0,1-7.51,2.51q-6.27,1.61-4.83,1.61c-2.75,0-5.19-1.49-7.34-4.48A24.66,24.66,0,0,1,419,67.27q3.41-2.51,10.91-3l11.81-.71a176.31,176.31,0,0,0,24.87-5.73,26.16,26.16,0,0,1,.27-3.13,26,26,0,0,0,.27-3.13,6.61,6.61,0,0,0-.18-1.61c-.83-.48-2.15-1.25-3.93-2.33a19.31,19.31,0,0,1-5.73-2.32c-1.07-1.08-2.63-2.57-4.65-4.48l.71-2.14a21.89,21.89,0,0,1-5.19-4.3,10.22,10.22,0,0,1-4.83-5.1c-.83-2.08-1.61-4.2-2.32-6.35l.53-1.07L441,20.22a16.13,16.13,0,0,1,2.15-6.17q1.78-3.13,4.47-3.14a8.54,8.54,0,0,0,2.68-.35,35.25,35.25,0,0,1,6.26,1.25,79.35,79.35,0,0,0,10,5.55,9.37,9.37,0,0,1,1.44.89q1.06-1.24,1.43-9.66c.11-1.79.47-3,1.07-3.58a3.92,3.92,0,0,1-.18-1.25c0-1.43,1.13-2.15,3.4-2.15A5.35,5.35,0,0,1,477.65,3c.23,1.32.83,3.76,1.79,7.34a27.14,27.14,0,0,1,1.43,7.51,12.36,12.36,0,0,1-.36,3,20.23,20.23,0,0,0,7.69,1.26l1.61.89,2.51-.36a25.68,25.68,0,0,1,6.62.72,25,25,0,0,1,12.52,13.42,20.83,20.83,0,0,0-1.07,4.29,2.71,2.71,0,0,0,.71,1.61,11.87,11.87,0,0,0-4.47,9.84v.72l9.66,3.76A14.34,14.34,0,0,1,518.8,63ZM488.74,50.46l-.18-.72c-2,1.07-5.13,2.57-9.3,4.47l-3.94-1.61a3.45,3.45,0,0,0-1.43,2.51v1.25a3.38,3.38,0,0,0,1.07.18q-1.79,0,5.73-1.25h7.69a24,24,0,0,1,.18-2.51C488.68,51.71,488.74,50.93,488.74,50.46Z"/><path class="cls-1" d="M679.61,77.11l-2.32-.89-.18,2-1.26-.54-5.18,1.08q-6.27-.9-18.61-2.87l-.72.36-3-.36a8.67,8.67,0,0,1-3.58.72l-.89.36a1.55,1.55,0,0,0,.18,1.61v.53a3.57,3.57,0,0,0-1.08,1.26l-.18.89a2.71,2.71,0,0,0,.72,1.43,2,2,0,0,0-.72.36,5.55,5.55,0,0,0,1.08,2.15,2.67,2.67,0,0,0-.72,1.43,3.2,3.2,0,0,1,.54,2L642,90.71l1.07,1.79-1.25,3q-1.44,1.8-3.94,4.83l-3.4-1.61a23.14,23.14,0,0,1-2.32-11.45c.24-5.12.24-8.23,0-9.3l.18-.54v-.53h-2.69l-2.5.71-.9-.54-.18.36-1.07.18-.18.72-1.79-1.26-.71,1.26H622a.58.58,0,0,1-.54-.36v-.36l-.89.72-.9-.54a15.42,15.42,0,0,1-2.68.54,1,1,0,0,1-.72.36c-.59.47-1,.65-1.25.53l.54-.18-.9-.53V78l.36-.36-.18-.54h-.53l-.18.9q-.54.18-1.26.36v.36c-.24-.12-.35-.06-.35.17v.54l.35.54a3.6,3.6,0,0,0-1.07.62c-.36.3-.6,1.59-.72,3.85a37.3,37.3,0,0,0-1.61,7.34,43.63,43.63,0,0,0,8-1.08,44.13,44.13,0,0,1,8-1.07,16.83,16.83,0,0,1,4.11.54,14.22,14.22,0,0,1,2.15,3.22q-.54,2.32-3.67,3.4c-2.08.71-4,1.37-5.81,2a122.38,122.38,0,0,1-12.71,5.91,12.13,12.13,0,0,0-1.61,6.62q0,15,.9,20.4l.89-.9.18-.89-.71-4.12q1.07-3.93,13.42-12.34a139.65,139.65,0,0,1,16.1-9.67,21.85,21.85,0,0,0,2.5-1.25,19.76,19.76,0,0,1,7.16,3l1.07-.35a14.89,14.89,0,0,1,8.23,5.72l-.71,1.25,2.32,1.61-2.5.18-1.07,3q-1.62,0-5.73,2.69a16.41,16.41,0,0,0-13.42.36q-5.9,2.5-7,2.86c-.35-.12-1-.3-1.79-.54l-.53.36q4.11,6.8,12.7,14.31,9.3,8.23,16.28,10.2a27.32,27.32,0,0,0,9-2.86q7-3.4,8.59-3.94v.9q-1.62.54-8.77,7.15-6.27,5.73-13.6,5.73-6.26,0-15.21-3.94-11.62-5.37-14.67-6.08c-.12,0-.36.18-.71.54l-.54.18a19.85,19.85,0,0,1-5.9-4.3v-1.07l-4.84-7.7-.71.18-.18.72a11.35,11.35,0,0,0,.27,2.06,8.82,8.82,0,0,0,.45,1.7q.53,7,2.14,20.93a41.23,41.23,0,0,0,1.52,6,24.89,24.89,0,0,1,1.35,6.53,9.44,9.44,0,0,1-2.51,7q-6.79-5.89-6.8-10.73v-3.58q.18-2.69.18-4.65,0,1.06-1.07-14.14Q602,117,602.5,107.71q-.54-.18-9.13-1.07-5.55-.54-8.41-3.4V98.05a57.44,57.44,0,0,1,4.3-4.12q-1.08,0,6.26,1.61l1.61-.71,2.15.18A15.12,15.12,0,0,0,603,93.4,25.38,25.38,0,0,1,604.29,87a1.29,1.29,0,0,1-.54-.9l.36-.89a9.41,9.41,0,0,1-.36-3.22A10.06,10.06,0,0,1,602,80.69l-1.61,2a26.66,26.66,0,0,0-5,1.79l-.54-.36v-.18l.36-.35-1.07-.36c-.36.71-1.61,1.22-3.76,1.52s-3.4.69-3.76,1.16a22,22,0,0,1-4.83.81q-3.21.27-12,3.66a2.93,2.93,0,0,0-1.61,1.26l.18.71a3.72,3.72,0,0,0-1.79-1.07l-1.07.36v.53c-.6-.23-.89-.41-.89-.53l-1.08.18L562.42,90c-.48.35-1,1.49-1.7,3.4a9,9,0,0,1-2.24,3.93,15.09,15.09,0,0,1-3.75,8.77v1.07h-.9l-.18.36a2,2,0,0,0,.72.36l-1.61,2-.18-.54-.36.36V110c0,.12.12.17.36.17v.9l.18.72-.18-1.08-.18-.18q-1.08,1.8-3,5.37-3.23,5.73-6.26,11.63-3.95,7.52-4.12,12a6.25,6.25,0,0,1-.45,1.79,6.07,6.07,0,0,0-.44,1.79c0,.47.11,1.73.35,3.75q-1.79,3.95-1.79,5.55a2.17,2.17,0,0,0,.54,1.25h-1.25l-1.07-1.07v3.22l-.54.18-.54-.54v.36q-3.4-3-2.68-5.55l-.9-.71.36-.72a5.24,5.24,0,0,1-.89-3.4q0-2.15,2.23-8.05c1.49-3.94,2.71-6.2,3.67-6.8l.18,4.83a225.46,225.46,0,0,0,16.82-36.68q2.85-10,5.9-20A107.6,107.6,0,0,1,566.18,59a1.69,1.69,0,0,0-.9-1.07l-.18.18a43.5,43.5,0,0,0-5.19,1.43,20.25,20.25,0,0,1-5.18.9q-2.68,0-6.62-2.33a27.32,27.32,0,0,0-6.45-2.68,3,3,0,0,0-1.87-1.53,4.61,4.61,0,0,1-1.79-.89c-.3-.3-.75-.8-1.35-1.52l-.71.54c-.24-.48-1.43-1.49-3.58-3a18.22,18.22,0,0,0-1.61-2.86L530,45.8l-.35-3.4q0-5.35,3.57-6.44a3.14,3.14,0,0,1,2-.71c1.31,0,4,.69,8,2.06a34.65,34.65,0,0,0,11.19,2q19.5,0,48.31-4.47-.54-.54-8-6.62c-3.47-2.74-5.67-5.13-6.63-7.16l2.51.72v-.9q-4.83-4.47-6.26-12.88,1.61-6.8,7.87-8c2.26.6,5.07,1.37,8.41,2.33a100.88,100.88,0,0,0,9.3,4.83,2.67,2.67,0,0,1,.72-1.43,4.26,4.26,0,0,1,.53,1.07c2.63,1.19,5.61,2.57,8.95,4.11l.18.72-.18.89h-.89l-.36-.17a8,8,0,0,0-1.07-.72A2,2,0,0,0,617,12c.83.6,1.76,2.09,2.77,4.47a16.2,16.2,0,0,0,2.6,4.65c2.14-.11,3.69.3,4.65,1.26a5.15,5.15,0,0,1,.18,1.25,5.76,5.76,0,0,1-.81,2.59,5.74,5.74,0,0,0-.8,2.42,20.26,20.26,0,0,0,.89,4.29,59.26,59.26,0,0,0,6.71-.54,60.83,60.83,0,0,1,6.53-.53q-.54,0,11.63-1.43c.6.35,2.33.53,5.19.53q6.08,0,9.13,3.4A6.87,6.87,0,0,0,662.44,36v1.43c-3.35.72-5.13,1.08-5.37,1.08a10.35,10.35,0,0,0,1.07.89,37.42,37.42,0,0,0-8.59.9l-1.61-.36a46.57,46.57,0,0,0-8.5,1.16,45.63,45.63,0,0,1-8.32,1.17l-3.93-.54c-.12,0-1.55.36-4.3,1.07s-4.35,1.14-4.83,1.25a8.79,8.79,0,0,0-2.5-.53,17.19,17.19,0,0,0-3.4.36l-.36.35a1.16,1.16,0,0,0,0,.9,28.48,28.48,0,0,0,4.65.89c.72,0,2.21,1,4.48,3a5.1,5.1,0,0,0,4.29,4q3.57.81,6.8,1.52l.71-.36a2.14,2.14,0,0,0,1.26-.36v-.53a33.89,33.89,0,0,1,3.4-.18l.71.54,2.86-.36a17.08,17.08,0,0,1,2.87,1c1.67.66,2.62,1.05,2.86,1.17A24.57,24.57,0,0,0,651,59.4l.18.72c1.43,2,2.15,3.22,2.15,3.58a10.75,10.75,0,0,0-.72,2.32,8.4,8.4,0,0,0,3.23,4.47c.95-.11,2.62.54,5,2a4.07,4.07,0,0,0,.71-1.43c.12,0,1.19.24,3.22.72l.18-1.08.72-.35a3.71,3.71,0,0,0,2-.54,7.19,7.19,0,0,0,3.4.89,12.3,12.3,0,0,1,3.22.54,8.38,8.38,0,0,0,3.94,2.51Zm-80.51,50.1a5.78,5.78,0,0,1-.18,1.43,24.56,24.56,0,0,0-5.55,3.4,9.54,9.54,0,0,1-5.72,2.15,15.75,15.75,0,0,1-3-.36,14.34,14.34,0,0,1-4.12.54q-5.73,0-12.52-4.83-7.51-5.37-7.52-10.74v-3.75c.72-1.44,2.26-2.15,4.65-2.15q7.51,0,19.51,3.94Q599.1,121.49,599.1,127.21Zm1.79,9.31q-2.14,2.5-7,7.15-2.86,2.33-8.59,6.27a20.22,20.22,0,0,0-4.11,1.78q-.72.54-4.83,5a12.93,12.93,0,0,0-5.55.9,5.81,5.81,0,0,1-3.22-3.67,29,29,0,0,1-.72-4.74l.72-1.07-.18-.36.36-3.22a2.77,2.77,0,0,1,2-2.33c2.39.48,3.52.72,3.4.72q2.33,0,12.89-4.3t11.63-4.11l1.25.18Zm9.3-90.9-1.79-.53q-2.86.72-7.87,2.5l-.36-.18q-5.37,1.62-8,1.08l-.36.18.18.35h-.54l-4.47,2.51-.72-.18-.89-.72-1.07.18-.36.36a2,2,0,0,0-.18,1.43h-.89a2.77,2.77,0,0,0-2.42.81c-.66.65-1.28,1.34-1.88,2.06a3.88,3.88,0,0,0-.18,1.25A10.8,10.8,0,0,0,578.7,59a11.18,11.18,0,0,1,.36,2.42,7.56,7.56,0,0,1-.18,1.43q-9.12,3.23-9.13,9.84a2.52,2.52,0,0,0-2.14,2.15l-.54,3,.36.54a14.08,14.08,0,0,0,4.11.36A45.42,45.42,0,0,0,580,77.65a71.19,71.19,0,0,1,8.14-1.52l5.1-.27c.72-.36,1.85-.83,3.4-1.43q2.86-.18,8.41-.89L606.08,68a28.61,28.61,0,0,0-4.66,0,14.18,14.18,0,0,1-2.59-.89,10.24,10.24,0,0,0-3.13-.9,1.69,1.69,0,0,0-1.25.54q-2.69-1.62-5.55-3.4A5.32,5.32,0,0,1,586,58.69c0-3.22,2-4.84,6.08-4.84a38.24,38.24,0,0,1,4,.36,35.24,35.24,0,0,0,4.2.36l5.9-.72V52.78C606.13,48.85,607.45,46.46,610.19,45.62Zm24.69,19.51a12.68,12.68,0,0,0-7.33-2c-3.82,0-6.27.84-7.34,2.5l-.36-.18V64.41c-1.07.12-2.18,1-3.31,2.6a7.72,7.72,0,0,0-1.7,4.2,5.78,5.78,0,0,0,.18,1.43c1.43-1,4-1.46,7.69-1.52s6.33-.38,7.88-1l3.4.35Q634.34,68.71,634.88,65.13Z"/><path class="cls-1" d="M764.38,103.06q.18,2.68-6.62,8.41a60.62,60.62,0,0,1-9.48,7L745.6,117l-1.79.54-2.68-1.25-1.08,2,.72,1.25a4.08,4.08,0,0,0-.9,2.5l.9,3.22h-.54a1.6,1.6,0,0,0-.18.72l.18.54v1.61l.18.18q-.36.71.54,6.71a42.24,42.24,0,0,0,1.43,7.24l-.18,1.61a9.84,9.84,0,0,0,1.43,4.3,7.75,7.75,0,0,1,1.25,4.11,4.12,4.12,0,0,1,1.79,3.22,18,18,0,0,1-1.52,6.17,23.76,23.76,0,0,0-1.7,5.82,11.63,11.63,0,0,1,.9,2.68l-1.08,2.51q-3.93-3.41-7.69-6.62c-1.07-1.32-1.73-4.47-2-9.48a34.88,34.88,0,0,0-.89-3.49,14.16,14.16,0,0,1-.72-3.67q0-1.43.27-4.47c.18-2,.27-3.52.27-4.48,0-.47-.06-1.25-.18-2.32a24.22,24.22,0,0,1-.18-2.51c0-2,.12-5.16.36-9.39s.36-7.43.36-9.57c0-1.31-.07-2.57-.18-3.76a1.64,1.64,0,0,1-.9-.9c-.24-.47-.6-1.25-1.07-2.32H729.5l-1.08.53a40.25,40.25,0,0,0-4.83,9.13l.18,1.61-3.58,5.9a4.47,4.47,0,0,0-3.4,2.33c-.95,1.79-1.67,2.8-2.14,3a2.9,2.9,0,0,1-1.26.36,3.6,3.6,0,0,1-2.86-1.61h-1.61a33.82,33.82,0,0,0-3-4.29,20,20,0,0,1-1.43-5.19q0-2.51,4.29-8.59,1.08-2.33,3.76-6.8c.71-.95,1.85-2.5,3.4-4.65q3.39-6.09,10.38-18.43a66,66,0,0,1,3.93-9.13l-.89-1.07a38.15,38.15,0,0,0-7,1.43c-3.34.84-5.43,1.67-6.26,2.51q-14.33-5-15.57-12.35a15.08,15.08,0,0,1,9.13-2.86,6.4,6.4,0,0,1,1.34.27,6.17,6.17,0,0,0,1.34.27,36.22,36.22,0,0,0,5.55-.72A18,18,0,0,1,724,61a100.53,100.53,0,0,1,26.48-3.22,12.13,12.13,0,0,1,5.37,1.43c1.9,1,3,2.21,3.22,3.76a34.46,34.46,0,0,0-2.51,5.9c-2.5,1-5.49,3.67-8.94,8.15s-5.43,8.08-5.91,10.82Q739,91.26,739,97a5,5,0,0,0,.36,1.07l3,2.68q.36,5.19,10,7.34a34.93,34.93,0,0,0,6.17-2.86,44.18,44.18,0,0,1,5.81-2.87Zm.9-61.19L764,48.13h-3a2.93,2.93,0,0,0-.81.27,1.32,1.32,0,0,0-.8.8l-2.15-1.07a7.64,7.64,0,0,1-4.65,1.79,22.94,22.94,0,0,0-5.19.54l-.54-.36a2.15,2.15,0,0,1-1.43-.45c-.36-.3-.84-.74-1.43-1.34l-.54.54a3.79,3.79,0,0,0-2.68-2c-.36-.48-.84-1.19-1.43-2.15a86.84,86.84,0,0,1-6.8-6.8,72.21,72.21,0,0,0-6.26-8.41l-.9-.36v-.53a48.33,48.33,0,0,1-2.5-6.62c-.48-.48-1.2-1.19-2.15-2.15l-2.15-5a16.61,16.61,0,0,1-1.25-5.19,7.89,7.89,0,0,1,1.43-4.47l2.33-.36q6.79,0,14.85,5.55l2.14-.54,1.79,3,1.79-.53,2.51,2.86,2.32.18.18.53a1.73,1.73,0,0,0,1.08,1.44l.71.35v.18a17.48,17.48,0,0,0,1.79,2.33l1.25.18a89.81,89.81,0,0,0,6.62,7.15V29.7l1.61,1.07a5,5,0,0,1,.72,2.87l1.07.18.54.89a11.69,11.69,0,0,0,1.79,3.58C764.92,40,765.4,41.15,765.28,41.87Zm90.89,63v.53a6.74,6.74,0,0,0-3.22,2.69,7,7,0,0,0,3.22,3.22,2.15,2.15,0,0,0-.89.54,30,30,0,0,1-1.43,3.22c-.12.12-1.38,1.25-3.76,3.4a36.21,36.21,0,0,1-2.86,3.75q-9,6.63-9,11.27l-1.07-.71a5.76,5.76,0,0,0-2.51,4.65,3,3,0,0,0-.89-.18,6,6,0,0,1-2.51,1.61l-.36.36-.18.72c-.24-.36-.53-.84-.89-1.44l-.89-.35h-.54c-.36.35-.9.83-1.61,1.43v.71a18.31,18.31,0,0,1-3.76,6.27l-.36.71a2,2,0,0,1-.18-.89h-.35c-.12.48-.24,1.13-.36,2-1.19.47-2.75,1.78-4.65,3.93s-2.75,3.76-2.51,4.83a6.12,6.12,0,0,0-2.5.72,2.76,2.76,0,0,0-1.61,2,5.41,5.41,0,0,0-.9.18l-.18-.18-.53.35-.72,1.08L808,161l-3.93,3.22-1.26-.18a32.78,32.78,0,0,0-3.4,1.25l-.71.54a12.94,12.94,0,0,0-4.3-.54,3.72,3.72,0,0,1-1.43-.18l-2.32.72L786,164.79l-1.61-2.51h-.35c-1.44.12-3.37-1.4-5.82-4.56s-3.67-5.64-3.67-7.43a1.21,1.21,0,0,1,.36-.89,21.56,21.56,0,0,1-4.56-5.73c-1.37-2.38-2.72-4.65-4-6.8l-.18-3.57q-2.86-3-2.86-5a4.72,4.72,0,0,1,.54-2.15q-1.44-.9-3.22-4.92a16.68,16.68,0,0,1-1.79-5.82A5.9,5.9,0,0,1,759,114l5-1.07q6.44,1.06,6.08,1.07a4.56,4.56,0,0,0,1.07-2.32l.54-.36a8.11,8.11,0,0,1-1.43-5v-.9a2.89,2.89,0,0,1,1.07-.71l.18-.72h.9l.35.72c.72-.6,1.49-1.19,2.33-1.79-.12,0,.24.36,1.07,1.07l2.51-1.43h.54a3.59,3.59,0,0,1,2,.72q1.62-1.26,10.74-3,5.91-1.08,12-2.15l.89.18q5-2.33,5.73-2.33h.53a3.11,3.11,0,0,1,1.43.9l1.08-1.08,1.61.9a1.65,1.65,0,0,1,.89-.9,5.19,5.19,0,0,1,1.43.27,5.24,5.24,0,0,0,1.26.27h1.43V94.83h.54q1.07-.18,3.39-.72l1.61.72a5.36,5.36,0,0,1,.72-.54l1.07-.18v.36l.18.36a17.32,17.32,0,0,0,10.56,3q-1.08,0,5.19-1.25l1.07,1.07.72.54,2-.9Q856.35,99.66,856.17,104.85Zm-20.4-80.52a21.87,21.87,0,0,1-.71,5.19,83.65,83.65,0,0,1-9.13,4.65q-1.78,1.8-16.46,9.13L808,42.76a22.26,22.26,0,0,0-3.4,1.25l-.71-.35-1.08-.72a9.66,9.66,0,0,0-2.5,1.79l-.72-1.43-2.5-.54-1.25.54-.72-.72a4,4,0,0,0-2.15-.35,8.88,8.88,0,0,0-3.93-3.94l-.72-.18-.72.36-.89-1.61-2,.71-7.51-7.69-1.08-.18q-.71-1.24-.35-5a3.18,3.18,0,0,0-.9-.89,6.36,6.36,0,0,1-2.5-.18l-.54-.54-.72-1.61A8.48,8.48,0,0,1,769.75,20l-.18-.72.18-.71.36-.72q0-10.55-.18-7.15c.24-3.23,1.31-5.19,3.22-5.91l1.43.36a3.62,3.62,0,0,1,2-.72,2.76,2.76,0,0,1,1.08.36l2.68-.71c.83.24,1.58.47,2.24.71a3.42,3.42,0,0,1,1.7,2l.89-1.07c.6,0,1.49.06,2.68.17a10.31,10.31,0,0,1,3,1.7,15.05,15.05,0,0,1,2.86,2.24l1.79-1.07a10.3,10.3,0,0,0,2.32.71l1.08-1.07a7.37,7.37,0,0,0,3.4,1.25l.35-.18q.36-.17.9-.36l.54.54,2.32.36.54.36a2.08,2.08,0,0,1,.71-.72h.9a3.18,3.18,0,0,1,.89.9l.72.18c.59-.24,1.49-.66,2.68-1.26H814a8.78,8.78,0,0,1,1.88.36,8.61,8.61,0,0,0,1.87.36,5.59,5.59,0,0,0,1.61-.36,3,3,0,0,0,.18.72l.18.35,3-.17a23.14,23.14,0,0,0,3.4,1.07,31.15,31.15,0,0,0,5.73,2.86Q835.77,17.36,835.77,24.33Zm8.77,29.35a17.84,17.84,0,0,0-8.41,8.58q-1.07,2.34-3.22,11.81c-.48,2.87-.95,5.67-1.43,8.41-.6,2.27-2.5,4.54-5.73,6.8a4.69,4.69,0,0,1-4.2-2.5c-1-1.67-1.94-3.34-2.77-5l-1.08-.18-13.24,6.62a24.56,24.56,0,0,1-7.15,7.33,29.35,29.35,0,0,1-8.06-4.11q-2.14-1.62-7.06-8.68t-5.64-9.93q-.72-2.86-2.32-8.95A16.83,16.83,0,0,1,773,59.76a2.33,2.33,0,0,1,.54-.9h.36l-.18-.71-.9-.36v-.36a4.65,4.65,0,0,0,2.87-1.88,13,13,0,0,1,2-2,37,37,0,0,1,5.54-1.7,36.8,36.8,0,0,1,6.08-1.34,3,3,0,0,1,.72-.18q1.78.53,5,5.36a42.47,42.47,0,0,1-1.43,5.19,20.74,20.74,0,0,0-.9,5.37,1.6,1.6,0,0,1-.89,1.43c.72.36,1.37,1.67,2,3.94q1.07,3.93,2.15,5a48.13,48.13,0,0,0,7.15-.81,49.36,49.36,0,0,1,7.34-.8l4.11.53.54-.17a5.79,5.79,0,0,0,2.15-.36,6.61,6.61,0,0,1-.18-1.61v-.18q1.43-2.69,3.93-1.43a27.77,27.77,0,0,0,1.61-10.38,43.73,43.73,0,0,0-.17-5.19,4.48,4.48,0,0,0-2-.54,5.36,5.36,0,0,0-2.87.9l-2-.9-.9.9c-.6,0-1.55-.06-2.86-.18h-2.68A13.73,13.73,0,0,0,803,58.24q-3.59,1.88-4.29,1.88c-1.67,0-2.75-.36-3.22-1.08q3.57-6.07,14.13-8.41,13.79-2.85,17-4.83l4.29-.53c.72.6,3.22,1.67,7.52,3.22A9.89,9.89,0,0,1,844.54,53.68ZM797.13,112l-5.37,1.79-1.07-.18q-.36,0-12.71,1.79a2.4,2.4,0,0,0-2.14,1.44A13.31,13.31,0,0,1,781,119.7l1.08.18,2.32,2.14a21.3,21.3,0,0,0,6.09-.71l1.25.36,5.37-.9.36-6.26Zm4.47,34.54c-1.07-1.08-2.57-3.52-4.47-7.34q.89-4.47.89-3.58a2.2,2.2,0,0,0-.53-.36v.18q-.18.36-.36.36v-1.25a1.16,1.16,0,0,1,.71-.54,15.24,15.24,0,0,1-1.07-2.32l.36-.54a23,23,0,0,0,2-1.25l-.36-2.33a9.13,9.13,0,0,0-1.79-.18c-1.07,0-3.16,1-6.26,2.86a5.15,5.15,0,0,0-.54,2.33,21.12,21.12,0,0,0,1.43,5.9l-.18.72a56.63,56.63,0,0,0,3.22,8.77h1.08A11.1,11.1,0,0,0,801.6,146.54Zm33.46-32q-1.6-6.8-15.75-6.8c-2,0-3.28.36-3.75,1.07l.53,2.15a33.46,33.46,0,0,1-3,3c-1.73,1.67-2.59,2.81-2.59,3.4v1.43H815a31.61,31.61,0,0,0,9.48-1.07,27.71,27.71,0,0,1,7,.72h.18l-.36.17-.36.36v.54l-.35.18h-1.26l-2,2.86-.72-.18a7.28,7.28,0,0,1-.9-.54c-1.07,1.91-3.46,2.93-7.15,3a66.41,66.41,0,0,0-8.77.89l-.36.72a16.71,16.71,0,0,0-.18,4.47,5.23,5.23,0,0,0-.35,2,3.08,3.08,0,0,0,.71,2l-.36.35-.17.36v.72c0-.72.17,1.07.53,5.37l2.15-.36L812,141l-.72-.72,1.08-1.07c1.07-.24,2.2-.54,3.4-.89a3.89,3.89,0,0,0,2.5-2.87c.36-.11,1-.29,2-.53q.88-.36,5.19-5l1.43,1.07.89-2.33.9-.35a11.77,11.77,0,0,0,2.5-.18l.72-.54-.36-1.07A77.56,77.56,0,0,1,835.06,114.51Zm-12,31-.36-.18h-.18l-.17.18.17.18.36.18ZM829,130.25l-.36-.35a.73.73,0,0,0-.54.18v.53l.18.18.18-.18.18-.18Zm.71,10.92-1.25,1.25v-.71l.36-.36a10.12,10.12,0,0,0,.89-.54Z"/><path class="cls-1" d="M1027.54,141.35q-3,2-4.65,7a3.53,3.53,0,0,0-1.61-.36l-.36.36v.35a2.6,2.6,0,0,0-1.25.9q0,.18.54.36c-1,.71-1.91,1.49-2.87,2.32a3.6,3.6,0,0,0-1.43,2.69,4.42,4.42,0,0,0,.36,1.61h-.89l-.9-1.26-.89,1.26-3.05,1.61-.71-.54h-.72c-1.07.59-2.92,1.49-5.54,2.68a1.16,1.16,0,0,0-.54.72l-3.58-.9-.71.18H998l-.54-.18-1.43,1.44c-.83,0-2.09-.09-3.76-.27s-2.86-.27-3.57-.27a3.1,3.1,0,0,0-2,.71H986c-.36-.35-.53-.59-.53-.71h-1.08a11.29,11.29,0,0,0-5.54-.72,127.06,127.06,0,0,1-16.82-6.8q-3.59,1.26-10.74,3.58-13.41,3.93-13.78,11.45l.18.54c-2.14.36-3.46,1.37-3.93,3q-13.06-2-13.06-16.1a23.55,23.55,0,0,1,2-8.77q3.22-7.16,3.58-8.41v-.71a3.7,3.7,0,0,1-.71-1.26A44.51,44.51,0,0,0,915,146.18q-4.29,5.55-8.41,11.09a38.55,38.55,0,0,0-5,5.37c-.6,1.55-1.67,3.87-3.22,7q-2,2.69-4.47,2.68l-.9-.18a14.06,14.06,0,0,1-2.32-2.68,10.15,10.15,0,0,1,.35-1.79c-.95-4.42-1.43-6.86-1.43-7.34,0-1.55,1.08-3.4,3.22-5.54a21.55,21.55,0,0,1,5.55-3.76,18.34,18.34,0,0,1,4.21-5.46,35.11,35.11,0,0,0,3.84-4,.69.69,0,0,0,.18.53l.36.18a107.64,107.64,0,0,1,12.88-15.56q11.45-11.64,14-14.68H931.1q-7,0-14.67,4.3-10.2,5.55-13.95,6.44a7.48,7.48,0,0,1-1.79,1.43q-1.8,1.26-4.48,3c-1.07,1-2.12,1.91-3.13,2.87a5.15,5.15,0,0,1-3.66,1.43c-1.56,0-4.12-1.08-7.7-3.22q-3.59-2.5-7.33-4.83a12.47,12.47,0,0,0-3-2.69c-.47.12-.89.24-1.25.36,0-2.62-.89-3.94-2.68-3.94a14.12,14.12,0,0,1-1.79-7.33l1.61-1.61.18-.72a8,8,0,0,1,5.72-2.68,3.52,3.52,0,0,1,1.79.53,48.23,48.23,0,0,0,8.77.9q7.34,0,21.11-3A224.43,224.43,0,0,1,930,99.66q4.11-.18,12.52-1.25-7.51-8.23-8.41-9.49-5-6.44-5-11.45,0-6.61,6.09-6.62a8.42,8.42,0,0,1,4,1.7,8.31,8.31,0,0,0,4,1.7A11.84,11.84,0,0,0,951,80.87a3.81,3.81,0,0,0,2.33,2.69c.83,1.19,1.49,3.64,2,7.33s1.49,6.33,3,7.87a42.08,42.08,0,0,1,8.86-1,61.32,61.32,0,0,0,9.75-1,62.61,62.61,0,0,1,6.8,2.14,9.53,9.53,0,0,1,4.83,5c-1.08.48-1.61,1.85-1.61,4.12l-4.83,1.43-2-.54a22.91,22.91,0,0,1-6.26.72q-9.14-.9-9.49-.9-2.32,0-7.87.54c-4.18.48-6.38.89-6.62,1.25a13.64,13.64,0,0,0,2.33,1.43,3.94,3.94,0,0,1,1.43,2.69,3.65,3.65,0,0,1,1.43-.18c.71,0,1.91.6,3.58,1.79a18.39,18.39,0,0,1,4.11,2.86,40.68,40.68,0,0,1,1,5.37,15.35,15.35,0,0,0,4.38,8.77,144,144,0,0,1,12-11.63,8.8,8.8,0,0,0,2-.63,7.65,7.65,0,0,1,2.14-.63,12.43,12.43,0,0,1,2.15.36,3.86,3.86,0,0,0,2.33,0q5.53,4.47,5.36,7.52v.89c-.35.6-1.37,2-3,4.29q-6.43,1.08-15.56,8.06,3.75,4.83,11.45,7.15a88.09,88.09,0,0,0,13.59,2.51,1.73,1.73,0,0,1,.72-.9c.47,0,1.25.06,2.33.18s1.72.18,2,.18l2.51-1.25,2.33.54q.89-.9,5.18-2a1.25,1.25,0,0,0-.35-.9A71.26,71.26,0,0,0,1027.54,141.35Zm-93-110.58a8,8,0,0,1-3.49,6q-3.12,2.23-6.17,4a47.9,47.9,0,0,0-7.51,8c-3,3.75-4.83,6.77-5.55,9q5.55,1.26,7.16,5.73.88,2.5.89,9.3a11,11,0,0,0,.72,4.12l-.72,5.54a3.06,3.06,0,0,0-.71,2,26.65,26.65,0,0,0,.35,3.67,27,27,0,0,1,.36,3.67q0,2-2.24,5.1c-1.49,2.08-2.83,3.13-4,3.13q-3.41-5-3.58-14.5-.36-11.62-1.43-15a13.69,13.69,0,0,1-2.33-2.14l-.18-.54a38.5,38.5,0,0,0-3.57,5.37,71.32,71.32,0,0,0-6.27,10.91q-1.07,3.22-3.4,9.84h-2.5l-.54.36a1.64,1.64,0,0,0,0,1.07l-.71-.35a6.93,6.93,0,0,1-2.69-.72l-1.43,1.43c-.36-1.07-.89-2.8-1.61-5.19l-.89-.35c-2.63-4.54-3.94-8.23-3.94-11.1a15.85,15.85,0,0,1,1.43-7.24,34.54,34.54,0,0,1,3-4.92c1.19-2.87,2.87-6.62,5-11.28q3.76-6.44,10.92-19.5a220.44,220.44,0,0,1,10.2-20.39,1.75,1.75,0,0,1-.72-1.08,50.76,50.76,0,0,1,2.33-6.44,5.88,5.88,0,0,1,5.54-3.4A9.06,9.06,0,0,1,918,5a57.94,57.94,0,0,0,5,4.11q6.09,5,8.23,8.24a18.93,18.93,0,0,1,3,10.91A11.7,11.7,0,0,0,934.5,30.77Zm79.44,62.63a4.6,4.6,0,0,0-2.68,2.14l-1.61-.89-1.61.71q-7.69-2.49-20.4-17-2.86-3-2.5-4.83h.36q-3.22-1.08-5.64-5.82T976,62.26q-1.43-4.11-6.26-11.45-3.4.36-10.2,5.64t-7.33,8.32l-3.05,2.15H949a2,2,0,0,1-1.62-1.08,1.87,1.87,0,0,0-.35.54,3.36,3.36,0,0,0-2.15-.9c-.72,0-1.37.48-2,1.44a33.09,33.09,0,0,0-3.22-3.4l-.36-.72q-4.11-2.32-7.42-8.86T928.6,42.4a.57.57,0,0,1,.36-.53h2a19,19,0,0,1,2.15-.18A14.51,14.51,0,0,1,938.26,43a14.37,14.37,0,0,0,5,1.34q3.75,0,21.29-3.75l-.18-1.08a5.39,5.39,0,0,1-1.07-1.43,1.16,1.16,0,0,1,.71-.54q-1.24-1.24-12.88-19a8.62,8.62,0,0,1,0-2.51q-4.65-2.33-4.47-8.59V6.62q1.07-2.5,5.72-2.5,6.81,0,10.2,5,2.32,3.41,4.3,11.28A69.11,69.11,0,0,0,974.4,39l.54.18A10.9,10.9,0,0,0,978.16,38a7.28,7.28,0,0,1,3.58-1,4,4,0,0,0,1.43.35,5.86,5.86,0,0,1,1.61-.35,9.25,9.25,0,0,1,.89.53l.54.18a4.91,4.91,0,0,1,4-2.32,14.8,14.8,0,0,0,3.66-.72,5.9,5.9,0,0,1,.72.9l.54.35c.23-2.26,2.32-3.4,6.26-3.4q7.33,0,9.84,3.58c-.36.72-.89,1.73-1.61,3l.89.9-.17.71a2,2,0,0,0-1.08-.35c-1.19,0-2.09,1.13-2.68,3.4q-.9.36-13.06,2.86l-.36-1.08A26.51,26.51,0,0,1,990,46.88l-1.61-.18-.72.18-.89-.54c-2.51.48-4,.78-4.48.89-1.9.6-3,1.38-3.39,2.33.71.36,1.43,1.43,2.14,3.22q1.62,4.65,9.66,12.88,1.8,1.8,12,9.31,7.51,5.73,10.38,11.09l.71.54-1.25,2.5,1.25.54-.71.54a7.56,7.56,0,0,0-.18,1.43,3.34,3.34,0,0,0,.18,1.07A1.75,1.75,0,0,0,1013.94,93.4Zm-60.47,50.45q-1.08-2-3.58-6.26-2.32-2.86-4.47-5.55a10.11,10.11,0,0,1-2-7h-3.22l-1.43,2A154.72,154.72,0,0,0,942,142.24a53.36,53.36,0,0,1-1.61,5.55Q949.35,144.39,953.47,143.85Zm52.24-131.33q-.71,1.26-4.83,7l-.89-.18-.9.54-.53.54-.36.71h-.9l-1.61,1.26-1.61-.9h-.89l-3.76-4.11a10.33,10.33,0,0,0-2-5.91q-2-2.86-3.75-5.55c.23-.83.59-2.08,1.07-3.75A9.24,9.24,0,0,1,986,1.61a2.09,2.09,0,0,1,2-.89h3.58a6.32,6.32,0,0,1,2.77.89,12,12,0,0,0,2.42,1.07,40.1,40.1,0,0,0,5,3.58C1003.33,7.34,1004.64,9.42,1005.71,12.52ZM988,69.24l-.89-1.07-.36.18.18.53.53.36Zm6.44-26.84v-.71h-.71l-.18.54Zm36.32,96.8-2.14.72,2.14-1.44Z"/></svg>