<svg id="圖層_1" data-name="圖層 1" xmlns="http://www.w3.org/2000/svg" viewBox="0 0 545.05 31.05"><defs><style>.cls-1{fill:#6b4431;}</style></defs><title>header_title_text</title><path class="cls-1" d="M25.65,11a3.35,3.35,0,0,1,.85.53q3,2.58,3.21,3.2c0,.33-.14.49-.43.49H6.57a46.56,46.56,0,0,0-5.88.29C.47,15,.24,14.43,0,14a45.33,45.33,0,0,0,6.6.33h16c.55-.7,1.35-1.67,2.42-2.91A1.87,1.87,0,0,1,25.65,11Z"/><path class="cls-1" d="M61.36,3.63a7.2,7.2,0,0,1,2,1.27c.92.79,1.38,1.31,1.38,1.57a.73.73,0,0,1-.56.72,1.08,1.08,0,0,0-.49.59,58.69,58.69,0,0,1-1.08,12c-.65,2.66-2.28,4-4.87,4-.39,0-.59-.31-.59-.88a4.59,4.59,0,0,0-.52-2.55,2.45,2.45,0,0,0-1.5-1,2.7,2.7,0,0,0,.06-.65,10.43,10.43,0,0,0,2,.19c.89,0,1.34-.52,1.34-1.57q.62-2.09.75-10.72h-14a19,19,0,0,1-2.55,3.63l1.93.79h5C51,9.8,51.78,9.18,52.11,9.18a5,5,0,0,1,1.83,1.15c.76.59,1.14,1,1.14,1.27s-.26.68-.78,1.11v4.58l.06,1.47c0,.65-.77,1-2.32,1-1.15,0-1.8-.15-1.93-.46V18.6H45v6q0,1.89,5.68,1.89l9.81,0c1.48-.06,2.33-.62,2.55-1.66a24.78,24.78,0,0,0,1.07-4.45c0,.11.3.16.82.16,0,2,0,3.05,0,3.21a2.59,2.59,0,0,0,1.38,2.09A1.72,1.72,0,0,1,66.81,27q0,3.27-6.7,3.5-1.59.2-6.17.19a64.65,64.65,0,0,1-9.38-.49q-3.57-.51-3.7-3.69V13.4c0-.39,0-.79,0-1.18A19.1,19.1,0,0,1,36.75,15a4.29,4.29,0,0,1-.23-.56Q41,9.61,42.24.49C46.4,1,48.54,1.55,48.68,2s-.54.76-1.61.91c-.39,1-.8,1.91-1.24,2.78H58.91C60,4.35,60.85,3.65,61.36,3.63ZM45,17.55h5.09V12H45.05Z"/><path class="cls-1" d="M74.83,10.62a9.57,9.57,0,0,1-1.14.92.46.46,0,0,1-.36-.23,32,32,0,0,0,3.6-11c3.26.81,4.9,1.37,4.9,1.7s-.5.6-1.31.69c-.15.39-.32.77-.49,1.14h1.9a11.86,11.86,0,0,1,2-1.63,5.23,5.23,0,0,1,1.64,1c.91.7,1.38,1.16,1.4,1.38s-.13.26-.39.39a8.81,8.81,0,0,0-1,.23A13.21,13.21,0,0,1,81.5,8.69h2.16c1.11-1,1.82-1.44,2.12-1.44a3.06,3.06,0,0,1,1.44.82,4.18,4.18,0,0,1,1.34,1.21.74.74,0,0,1-.33.65l-.68.56v1.86A11.56,11.56,0,0,0,91.37,6a17.52,17.52,0,0,0,.39-2.71c-1.72,0-2.82.07-3.3.13-.15-.43-.31-.89-.49-1.37a19.51,19.51,0,0,0,4.74.42h5.82c1-1.09,1.69-1.63,2-1.63a4.46,4.46,0,0,1,1.44.91,8.81,8.81,0,0,1,1.34,1.31c0,.33-.1.51-.29.56l-.66.55q-.33,6.71-1.47,7.45a4,4,0,0,1-2.35,1.25c.15.13.23.24.23.32a.68.68,0,0,1-.23.49c-.42.18-.63.34-.66.49v2.55h.3c.41-.54,1-1.18,1.63-1.93a.52.52,0,0,1,.33-.19,2.24,2.24,0,0,1,.65.42A16.06,16.06,0,0,1,103,17.16c-.07.35-.23.52-.49.52H97.87v2.91c0,.65,0,1.27,0,1.86h.49c.45-.54,1.12-1.31,2-2.29a1,1,0,0,1,.49-.26,2.75,2.75,0,0,1,.69.43,10.88,10.88,0,0,1,2.48,2.55c0,.32-.12.49-.36.49H97.91q.06,4.44.13,6.24c-.11.78-1.05,1.18-2.81,1.18-.87,0-1.31-.25-1.31-.76q.1-1.76.1-6.66a40.76,40.76,0,0,0-5.33.32,15.3,15.3,0,0,0-.62-1.6,38.35,38.35,0,0,0,6,.36V20.39l0-2.71H92A14.58,14.58,0,0,1,88.3,21.5c-.24,0-.36-.05-.36-.16a24.83,24.83,0,0,0,1.83-8.63A35.88,35.88,0,0,1,94,14.18,19,19,0,0,0,93.85,12c.92.09,1.71.19,2.39.3a3.52,3.52,0,0,0-.49-1.9,3.29,3.29,0,0,0-1.83-.88V9.41a9.83,9.83,0,0,1-6.37,3.89V26q0,3.56-4,4.28c-.31,0-.46-.27-.46-.82a4.63,4.63,0,0,0-.95-2.51,2.22,2.22,0,0,0-1.57-.59c0-.35,0-.54,0-.56s1,0,2.81,0c.43,0,.66-.23.68-.69V21.37H78.33c-.06.55-.13,1-.19,1.31a11.34,11.34,0,0,1-1.18,4,9.84,9.84,0,0,1-3.53,4.24,1.28,1.28,0,0,0-.36-.26c1.18-3.11,1.77-7.5,1.8-13.17ZM78.3,8.69h2.16a19.06,19.06,0,0,0,1.66-4H79.61a16.79,16.79,0,0,1-2.39,3.63Zm1.53,11.64v-5h-1.3V16c0,1.81,0,3.27-.1,4.38Zm0-10.62h-1.3v4.51h1.3Zm4.22,4.51V9.71H82.71v4.51Zm0,6.11q0-2.38,0-5H82.71v5Zm10-3.6V15a4.53,4.53,0,0,1-.78.1,15.74,15.74,0,0,1-.72,1.6ZM95.75,3.3a12,12,0,0,1-.65,3.89,6.93,6.93,0,0,1-.85,1.7,16.84,16.84,0,0,0,2.28.16c.79,0,1.26-.08,1.41-.26a17,17,0,0,0,.75-5.49Z"/><path class="cls-1" d="M110.24,8.82q5.69.46,5.69,3.79c0,1.66-.92,2.49-2.75,2.49a2,2,0,0,1-1.34-.59,4.7,4.7,0,0,1-.36-2,6,6,0,0,0-.23-1.44,3.11,3.11,0,0,0-1.4-1.73A1.23,1.23,0,0,1,110.24,8.82Zm9.41-.39.4.3q-.52,2.48-2.06,8.69A37.75,37.75,0,0,0,116.81,23a21,21,0,0,0,.26,3.63,6.31,6.31,0,0,1,.36,1.89c0,1.42-.78,2.12-2.35,2.12s-2.22-.75-2.22-2a20.85,20.85,0,0,0,.42-3.66c0-1.24-1-2.1-2.84-2.58,0-.17,0-.36.06-.56.79,0,1.46,0,2-.06,1.28-.05,2.71-2.09,4.28-6.15C117.51,14,118.45,11.57,119.65,8.43Zm-6.37-7.29q5.88.44,5.88,3.6c0,1.65-.91,2.48-2.74,2.48a1.88,1.88,0,0,1-1.34-.59,3.3,3.3,0,0,1-.49-1.86,6.08,6.08,0,0,0-.3-1.4,3.11,3.11,0,0,0-1.43-1.74A1.2,1.2,0,0,1,113.28,1.14Zm24.94,11.93a6.73,6.73,0,0,1,1.3,1.9,3,3,0,0,1,.79,1.7q0,.36-.33.36h-9.67a11.67,11.67,0,0,0,3.79,5.72A12.82,12.82,0,0,0,140.73,26c0,.37-.08.57-.13.59a1.33,1.33,0,0,0-1.14.69,12.13,12.13,0,0,0-1.08,2.64c-.15.68-.36,1-.62,1.08q-3.13-1-6.34-6.6a24.55,24.55,0,0,1-2-7.35h-.62q-1.67,11.24-11,14c0-.24-.23-.41-.56-.49A25.44,25.44,0,0,0,123,22.65,17,17,0,0,0,124.69,17h-.4a34.07,34.07,0,0,0-5.09.19c-.29-.5-.54-1-.76-1.43a35.35,35.35,0,0,0,6.34.35,35.59,35.59,0,0,0,.2-3.85l0-4.61h-1.21c-.76,0-1.69.05-2.78.16-.2-.41-.41-.85-.65-1.3a13,13,0,0,0,3.23.26H125l0-3.27a16.64,16.64,0,0,0-.26-3.4q5.92.72,5.92,1.54a.46.46,0,0,1-.36.45,2.39,2.39,0,0,0-1,.56V6.8h2.68c1.13-1.27,2-1.92,2.48-2A17.57,17.57,0,0,1,136.09,6c1,.67,1.54,1.17,1.54,1.5s-.41.7-1.21,1.24V16Q137.79,13.07,138.22,13.07Zm-9-5.39v4.15a32,32,0,0,1-.27,4.31h3.27l.07-8.46Z"/><path class="cls-1" d="M155.62.46a9.08,9.08,0,0,1,1.5,1.3c.74.79,1.25,1.36,1.54,1.7,0,.29-.12.45-.36.49h-1.18v7.78h6a21.62,21.62,0,0,0,1.11-6c2.63.79,3.95,1.29,3.95,1.5s-.35.44-1,.46a9.28,9.28,0,0,1-3.17,4h4.47c0-1.37-.06-2.81-.06-4.31,0-.7,0-1.33,0-1.9h-5.06a41,41,0,0,0-5.13.17c-.24-.53-.47-1-.69-1.41a38.33,38.33,0,0,0,6.44.33h.46c1-1.53,1.69-2.29,2-2.29a9.43,9.43,0,0,1,1.44,1.5c.24.24.42.44.55.59A33,33,0,0,0,168.13.2q5,.81,5,1.21a.63.63,0,0,1-.26.45c-.48.16-.74.39-.79.72,0,2.73,0,5.78,0,9.15h.23c1.11-1.65,1.83-2.48,2.15-2.48a8.92,8.92,0,0,1,1.54,1.6,2.15,2.15,0,0,1,.91,1.41q0,.39-.36.39h-4.47v.16q.16,3.46.49,6A33.84,33.84,0,0,0,174.15,14c2.28,1.66,3.43,2.63,3.43,2.91a.29.29,0,0,1-.33.33c-.52,0-.86-.07-1-.07a39.86,39.86,0,0,1-3,5.69,5.67,5.67,0,0,0,1,2.49c.64,0,1.32-1.25,2.06-3.73a5.3,5.3,0,0,1,.59.36,25.42,25.42,0,0,0-.91,4,3.49,3.49,0,0,0,.58,2.09,2.89,2.89,0,0,1,.27,1.27c0,.75-.42,1.15-1.25,1.21a4.13,4.13,0,0,1-2.61-1,8.29,8.29,0,0,1-2.29-3.4,12.64,12.64,0,0,1-7.35,4.22.87.87,0,0,0-.23-.33,25.48,25.48,0,0,0,3.79-2.94,4.41,4.41,0,0,1-1.21.13c-1,0-1.53-.12-1.66-.36v-.72h-1.83v1.8q0,.61-1.77.75c-1.18,0-1.81-.15-1.9-.46a16.49,16.49,0,0,0,.17-2.64v-8c-.05-1.38-.1-2.56-.17-3.57l3.11,1.18H164c1.11-1,1.8-1.47,2.06-1.47a4.44,4.44,0,0,1,1.57,1c.67.5,1,.86,1,1.08s-.33.59-1,1V24c0,.76,0,1.53.07,2.29a27.16,27.16,0,0,0,2.22-2.68,52.69,52.69,0,0,1-1.38-11h-11.4V24.54c.11,1.53.16,3.37.16,5.53,0,.52-.7.81-2.09.88-1.07,0-1.6-.19-1.6-.56q.1-1.7.1-6V22.29a14.84,14.84,0,0,1-4.9,3.69c0,.28,0,.59,0,.92a.32.32,0,0,1-.36.32q-.28,0-1.83-4.93c.7,0,1.38,0,2-.07V4.12c-.46,0-.83.09-1.11.13a7.26,7.26,0,0,0-.72-1.34c.94.06,2.41.11,4.41.13h2a17.85,17.85,0,0,0,1.67-1.83A3.22,3.22,0,0,1,155.62.46Zm-3.83,8.43h1.9V4h-1.9Zm0,6.14h1.9V10h-1.9Zm0,6.83a14.19,14.19,0,0,0,1.9-.36V16.05h-1.9Zm7.29-15.75q3.4,1.63,3.4,3.27c-.09,1.39-.69,2.09-1.8,2.09a1.35,1.35,0,0,1-1.4-1.31,3.29,3.29,0,0,0,0-.49q0-.51,0-1.47a4.17,4.17,0,0,0-.55-1.83A1.54,1.54,0,0,0,159.08,6.11ZM160.16,0c2.74.2,4.12,1.06,4.12,2.58,0,1.18-.65,1.77-1.93,1.77a1.37,1.37,0,0,1-.95-.43,2.59,2.59,0,0,1-.33-1.34,3.17,3.17,0,0,0-.22-1,2.28,2.28,0,0,0-1-1.24A1.37,1.37,0,0,1,160.16,0Zm2,19.94H164V16.08h-1.83Zm0,5.13H164V21h-1.83ZM173.1,2.68c2.33,1.2,3.5,2.37,3.5,3.53-.09,1.55-.74,2.32-2,2.32a1.48,1.48,0,0,1-1.51-1.44,4.52,4.52,0,0,1,0-.55c0-.37.06-.91.06-1.61a4.4,4.4,0,0,0-.59-2A3.21,3.21,0,0,0,173.1,2.68Z"/><path class="cls-1" d="M201.45,8.46q5.38,1.38,5.39,1.83t-1.44.63A9.24,9.24,0,0,1,201.74,13h5.43l2-2.22a1.3,1.3,0,0,1,.52-.33,3.67,3.67,0,0,1,.69.49c1.59,1.35,2.42,2.19,2.48,2.52s-.12.49-.36.49h-11.7v2.78h3.73c.48-.55,1.13-1.31,2-2.29a1.15,1.15,0,0,1,.52-.26,2.38,2.38,0,0,1,.69.42c1.59,1.37,2.42,2.22,2.48,2.55s-.12.46-.36.46h-9v3h7.29c.44-.54,1.08-1.31,1.93-2.29a1,1,0,0,1,.49-.26,3.16,3.16,0,0,1,.72.43,10.88,10.88,0,0,1,2.51,2.58.37.37,0,0,1-.42.42h-11A11.49,11.49,0,0,0,207,23.76a30.94,30.94,0,0,0,7.1.88,2.28,2.28,0,0,1,0,.56,2.27,2.27,0,0,0-1.17,1.47c-.09.85-.16,1.49-.2,1.93s-.13.61-.39.65q-2.66-.2-7.42-3.3a13.11,13.11,0,0,1-3.56-4.45h-.56v1.31q.23,2.88.23,7,0,1-2.61,1.11-2.1,0-2.1-.75.1-1.77.1-5.92a30.63,30.63,0,0,1-12.45,5,1.43,1.43,0,0,0-.39-.62q7.38-3.16,10.2-6.86a1.26,1.26,0,0,0,.22-.3h-3.49a42.14,42.14,0,0,0-5.89.33c-.21-.54-.44-1.08-.68-1.6a38.45,38.45,0,0,0,6.6.39h5.88v-3h-2.32a40.89,40.89,0,0,0-5.95.36c-.21-.59-.42-1.12-.62-1.6a41,41,0,0,0,6.61.36h2.28V14h-4.54a46.56,46.56,0,0,0-5.88.29c-.24-.56-.47-1.09-.69-1.57a45.33,45.33,0,0,0,6.6.33h1.28a1.17,1.17,0,0,1-.26-.2,2,2,0,0,1-.4-1.3,2.57,2.57,0,0,0-.26-1A3.05,3.05,0,0,0,191,9a.81.81,0,0,1,.39-.42q5.07.28,5.07,2.58a1.83,1.83,0,0,1-.92,1.86h4.77A10.77,10.77,0,0,0,201.45,8.46Zm8.63-3.62a3.76,3.76,0,0,1,.72.49,11.16,11.16,0,0,1,2.45,2.51c0,.33-.13.49-.4.49H190.73a47.83,47.83,0,0,0-5.88.3c-.22-.57-.45-1.09-.69-1.57a45.33,45.33,0,0,0,6.6.33h2.39V1.73A3.32,3.32,0,0,0,193,.39c3.42.29,5.14.64,5.14,1.08a.45.45,0,0,1-.3.43c-.46.15-.71.38-.75.68V7.39h2V1.73A3.38,3.38,0,0,0,198.9.39c3.44.29,5.16.64,5.16,1.08a.45.45,0,0,1-.29.43c-.48.15-.75.38-.82.68V7.39h1A19.11,19.11,0,0,0,205.44,1q5.13,1.52,5.13,2c0,.37-.46.57-1.38.59a10.13,10.13,0,0,1-4.41,3.83h2.81c.46-.53,1.12-1.28,2-2.26A1,1,0,0,1,210.08,4.84Zm-23-3.57q5.38.44,5.39,3.66c0,1.38-.74,2.06-2.22,2.06a1.56,1.56,0,0,1-1.11-.52,2.56,2.56,0,0,1-.75-1.89,3.41,3.41,0,0,0-.49-1.48,2.73,2.73,0,0,0-1.18-1.4A1.17,1.17,0,0,1,187.07,1.27Z"/><path class="cls-1" d="M224.08.62q5.13.55,5.13,1.18c0,.28-.38.61-1.15,1-.28,1.76-.55,3.41-.81,4.93h1c1.15-1.2,1.84-1.8,2.06-1.8A5.46,5.46,0,0,1,232,7.09c.95.76,1.43,1.28,1.43,1.54s-.15.39-.45.59a2.77,2.77,0,0,0-.76.58q-.45,3.15-1,5.56a.38.38,0,0,0,.1-.13c.07-.07.58-.41,1.54-1.05a3.27,3.27,0,0,0,1.21-2.28h.55a13.2,13.2,0,0,1,.23,1.89H246A9.11,9.11,0,0,1,248,12a6.21,6.21,0,0,1,1.8,1.34q1.47,1.41,1.47,1.77c0,.26-.24.4-.59.42a5.15,5.15,0,0,1-1,.13,19.54,19.54,0,0,1-4.64,1.77l-.49-.27a7.41,7.41,0,0,0,1.5-2.41H234.89v.58a5.38,5.38,0,0,1-.58,2.39l2.61,1h2.19v-.91a9.5,9.5,0,0,0-.29-2.81c3.68.22,5.54.65,5.59,1.31,0,.26-.21.46-.63.62s-.55.34-.55.58v1.21h1.89c1.12-.93,1.82-1.4,2.13-1.4a3.06,3.06,0,0,1,1.44.82c.8.54,1.24.94,1.3,1.2a.77.77,0,0,1-.29.66c-.2.15-.41.34-.65.55v4c0,2.18-1.15,3.48-3.44,3.92-.39,0-.58-.25-.58-.75a3.91,3.91,0,0,0-1.21-2.29,1.81,1.81,0,0,0-.56-.26c0,1,.07,2.65.07,4.8-.09.53-1.07.79-2.94.79-.94,0-1.41-.18-1.41-.53.07-3.63.1-5.74.1-6.3l0-4.15h-2.06v8.17c0,.45-.63.72-1.89.78s-2-.15-2-.46c.07-.74.1-1.71.1-2.9V19.74q0-.55,0-1.08a2.31,2.31,0,0,1-.69.16,1.87,1.87,0,0,1-1.86-1.2,25.37,25.37,0,0,1-1.11,3.07,4.81,4.81,0,0,1,2.81,3.69,3.32,3.32,0,0,1-.33,1.54A1.71,1.71,0,0,1,230.19,27c-.59,0-1.35-1.08-2.29-3.17A19.62,19.62,0,0,1,224.6,28q-2.88,2.75-4.48,2.94a1.13,1.13,0,0,0-.19-.65,17.69,17.69,0,0,0,3.2-3.27,23.15,23.15,0,0,0,3-5.75,19,19,0,0,0-1.44-1.41c-.09.26-.17.5-.23.72-.26.44-1.09.66-2.48.66q-1.74,0-1.77-.66a109.18,109.18,0,0,0,3-12,17,17,0,0,0-2.28.16,3.79,3.79,0,0,0-.75-1.37,13.33,13.33,0,0,0,3.2.29A44.08,44.08,0,0,0,224.08.62Zm.85,18.4,1.83.49a26,26,0,0,0,1-4.74,40.54,40.54,0,0,0,.69-6.17h-1.34Q225.88,15.62,224.93,19ZM245.45.75a3.89,3.89,0,0,1,1.67.92c.85.63,1.27,1.15,1.27,1.57,0,.19-.31.49-.95.88V6.21h.17A7.83,7.83,0,0,1,249,4.12a1.84,1.84,0,0,1,.33,0,16.29,16.29,0,0,1,1.18,1.34A2.3,2.3,0,0,1,251,6.73c0,.26-.1.39-.29.39h-3.31v4.61c0,.37-.67.6-2,.69-1,0-1.64-.14-1.77-.43v-.81h-3.56c-2.77,0-4.68.11-5.75.19-.2-.52-.38-1-.56-1.4,1.05.13,3.34.2,6.87.23h3V7.12h-4.34a47.77,47.77,0,0,0-5.69.17q-.42-.78-.75-1.44a35.69,35.69,0,0,0,6.5.36h4.28V3.37h-4.18c-2.55,0-4.08.08-4.61.13-.13-.35-.36-.87-.68-1.57a22.83,22.83,0,0,0,5.49.49h3.53A7.86,7.86,0,0,1,245.45.75Zm-2.22,19,0,4.28a1.45,1.45,0,0,1,0,.32h1.67c.39,0,.6-.2.65-.62,0-1.13,0-2.46,0-4Z"/><path class="cls-1" d="M283.86,5.59a4.06,4.06,0,0,1,.92.52q3,2.58,3.14,3.2c0,.33-.12.49-.36.49h-5.4a17.25,17.25,0,0,1-.35,2.55,18.49,18.49,0,0,1-3.7,9.68q7.23,2.55,7.68,6a2.57,2.57,0,0,1-.46,1.44,1.93,1.93,0,0,1-1.73,1.11c-1.17-.09-3.17-1.64-6-4.64q-.89-.72-1.89-1.44-6.24,5.32-18.5,6.4c-.15,0-.23-.26-.23-.65q10.26-2.85,15.23-7.84a50.08,50.08,0,0,0-6-2.62c-.26.55-.51,1.05-.75,1.51a2.5,2.5,0,0,1-1.6.45c-1.88,0-2.81-.42-2.81-1.14,2-4.14,3.66-7.74,4.83-10.79h-2a47.6,47.6,0,0,0-5.91.3c-.24-.57-.47-1.09-.69-1.57a45.63,45.63,0,0,0,6.63.33h2.32A31.16,31.16,0,0,0,268.54.33q6,1,6,1.79c0,.33-.49.63-1.47.89q-.91,2.94-2.06,5.85h9.81c.56-.7,1.38-1.67,2.45-2.91A1.35,1.35,0,0,1,283.86,5.59ZM266.54,19.15q4,.69,7.16,1.54a15.37,15.37,0,0,0,3.2-8.5c.11-1,.21-1.84.3-2.39h-6.54Q268.8,14.59,266.54,19.15Z"/><path class="cls-1" d="M310.91,4.38a1.1,1.1,0,0,0-.27.16q-4.8,7.32-15.88,10.85a5.25,5.25,0,0,1-.46-.55,39.72,39.72,0,0,0,6.93-5.43,28.83,28.83,0,0,0,4.84-5.95h-3.14a17.27,17.27,0,0,0-3.56.2,6.8,6.8,0,0,0-.62-1.34,19,19,0,0,0,4.38.36h2.64A12.65,12.65,0,0,1,308.68.23a5.94,5.94,0,0,1,2.16,1.34c1.07.91,1.6,1.56,1.6,1.93s-.22.44-.65.55A10.64,10.64,0,0,0,317,7.81a22.49,22.49,0,0,0,7.61,1.47v.65c-.54.16-1,.71-1.37,1.67-.09,1-.16,1.73-.23,2.26s-.15.65-.46.72q-2.83-.27-7.91-4.45A17.48,17.48,0,0,1,310.91,4.38Zm3,6.18a2.11,2.11,0,0,1,.75.49,12.09,12.09,0,0,1,2.74,2.77c0,.29-.13.43-.39.43h-5.59v6.5h3.14c.5-.65,1.25-1.56,2.25-2.71a2.67,2.67,0,0,1,.59-.36,3.15,3.15,0,0,1,.82.52,15.19,15.19,0,0,1,3,3q0,.45-.42.45h-9.35v7h5.79c.54-.68,1.35-1.66,2.41-3a1.8,1.8,0,0,1,.66-.32,3.23,3.23,0,0,1,.88.52q3,2.58,3.17,3.24,0,.42-.39.42H301.23a39.52,39.52,0,0,0-5.91.33c-.2-.55-.41-1.08-.62-1.6a40.41,40.41,0,0,0,6.56.36H307v-7h-3a38.18,38.18,0,0,0-5.92.36c-.19-.58-.4-1.13-.62-1.63a37.56,37.56,0,0,0,6.57.39H307V14.28a32.24,32.24,0,0,0-4.83.3c-.22-.55-.45-1.08-.69-1.61a41.6,41.6,0,0,0,6.6.36h3.2c.51-.56,1.23-1.38,2.16-2.45A.9.9,0,0,1,314,10.56Z"/><path class="cls-1" d="M335.3,1.63h.59a17.94,17.94,0,0,1,.36,2.46h8.46a2,2,0,0,1-.29-.92A3.77,3.77,0,0,0,341.77.59a3.47,3.47,0,0,1,.16-.43c4.34,0,6.55.65,6.64,1.93a2.46,2.46,0,0,1-.69,2h7.42Q357.16,2,357.46,2a5.39,5.39,0,0,1,2,1.44c1.06,1,1.6,1.66,1.6,1.9s-.3.41-.69.45a5.29,5.29,0,0,1-1,.13,14.55,14.55,0,0,1-3.76,2.26,2.75,2.75,0,0,1,.49.65c0,.31-.12.46-.36.46h-7.09a14.31,14.31,0,0,1-2.75,2.52,12.61,12.61,0,0,1,3.37,4.67,14,14,0,0,0,4.9-5.23c3.46,1.31,5.2,2.14,5.2,2.49s-.55.5-1.64.52a36.29,36.29,0,0,1-5,2.25,8.45,8.45,0,0,0,3.37,4,10.32,10.32,0,0,0,5.1,1.66,2.15,2.15,0,0,1,0,.59c-.54.18-1,.74-1.34,1.7-.11,1-.19,1.72-.26,2.23s-.16.68-.49.75c-1.15-.18-2.79-1.74-4.9-4.68a25.15,25.15,0,0,1-2.29-5.91c-.76.24-1.51.44-2.25.62a21.06,21.06,0,0,1,1.14,6.63c0,3.66-1,5.83-3.14,6.51a4.94,4.94,0,0,1-2.15.45c-.57,0-.86-.53-.89-1.6a2.46,2.46,0,0,0-.78-1.57c-1.05-.45-1.94-.87-2.68-1.24,0-.19,0-.4.07-.62l3.33.33a1.93,1.93,0,0,0,2.12-2.22q0-1.15-.06-2.16a41.41,41.41,0,0,1-14.22,5.46,3.46,3.46,0,0,1-.33-.49,46.3,46.3,0,0,0,14-9.42c0-.24-.08-.45-.13-.65a38,38,0,0,1-13,4.61,1.33,1.33,0,0,1-.33-.43,39.06,39.06,0,0,0,12.09-7.84c-.06-.17-.13-.33-.19-.46a28,28,0,0,1-11.57,3.08c-.09-.38-.16-.56-.2-.56q7.71-2.52,10.2-6h-.46a44.48,44.48,0,0,0-5.92.36,14.48,14.48,0,0,0-.62-1.6,40.64,40.64,0,0,0,6.57.36h7.94c.46-.55,1.12-1.31,2-2.29a1.15,1.15,0,0,1,.52-.26,2.47,2.47,0,0,1,.68.42c.53.46,1,.85,1.31,1.18A14.7,14.7,0,0,0,355.43,5H336.28v.26q0,4.41-3.53,4.41c-1.42-.08-2.13-.78-2.13-2.09a1.66,1.66,0,0,1,.53-1.37,14.85,14.85,0,0,1,2.35-1.44A4.11,4.11,0,0,0,335.3,1.63Z"/><path class="cls-1" d="M394,6.93a4.88,4.88,0,0,1,.89.52q3,2.58,3.17,3.2c0,.33-.13.49-.4.49h-12a18.55,18.55,0,0,0,4.58,8.93q4,4.28,8,5c0,.4-.05.6-.1.62a1.59,1.59,0,0,0-1.33.85,13.15,13.15,0,0,0-1.25,3c-.17.79-.41,1.2-.72,1.25q-3.85-1.38-7.74-9.25-1.5-3.21-2.49-10.4h-.75Q382.28,26.8,368,30.69a1.25,1.25,0,0,1-.36-.49q9.93-5.73,11.63-19.06h-4.25a48.8,48.8,0,0,0-5.91.3c-.2-.57-.41-1.09-.62-1.57a44,44,0,0,0,6.56.33h4.38c.16-1.44.24-2.93.27-4.48-.16-2.59-.3-4.43-.43-5.52q6.24.72,6.24,1.5c0,.39-.44.71-1.34,1,0,1.5-.08,3-.13,4.54,0,1,0,2.05-.13,3h7c.55-.7,1.35-1.67,2.42-2.91A1.59,1.59,0,0,1,394,6.93Z"/><path class="cls-1" d="M409.15,7.52q6.74.92,6.8,1.5c0,.54-.54.94-1.63,1.18A21.79,21.79,0,0,1,405,23.33c-.22-.24-.35-.35-.39-.35A35.92,35.92,0,0,0,409.15,7.52ZM418,.1a38.34,38.34,0,0,1,5.43,1.08.57.57,0,0,1,.26.52c-.05.24-.29.46-.72.65s-.52.43-.52.69l0,22.58q-.19,5.2-5.69,5.23c-.33,0-.53-.41-.62-1.11a6.34,6.34,0,0,0-.88-2.81,5.24,5.24,0,0,0-3.14-1.28s.07-.27.07-.81c1.52.15,3.12.23,4.8.23.74,0,1.12-.33,1.15-1l0-16.25Q418.17,4,418,.1Zm8.37,7.48q8.1,5.4,8.5,11.57c-.09,1.33-.36,2.17-.82,2.52a2.73,2.73,0,0,1-2.19.78c-1.64,0-2.45-1.53-2.45-4.48q-.27-6.66-3.5-9.83A6.61,6.61,0,0,0,426.41,7.58Z"/><path class="cls-1" d="M442.53,5.46l3.3,1.27h.63q.26-2.86.26-6.44,5.58,1.16,5.58,1.87c0,.28-.44.48-1.34.59a19.47,19.47,0,0,1-3.3,4h2.49c1.24-1.26,2-1.89,2.35-1.89a4.09,4.09,0,0,1,1.63.91q1.38,1,1.38,1.5a1,1,0,0,1-.17.53,3.28,3.28,0,0,0-.58.68V14Q457,9,457.73.49c3.83.5,5.81,1,5.92,1.41s-.49.73-1.48.88A31.57,31.57,0,0,1,460.8,6.9H466C467.29,5.61,468.19,5,468.65,5a7.33,7.33,0,0,1,1.89,1.24c.87.76,1.31,1.25,1.31,1.47a.78.78,0,0,1-.52.75c-.4.28-.59.56-.59.82q-.83,15.92-2.23,18.43-1,2.71-5.42,3c-.28,0-.52-.45-.72-1.34a4.07,4.07,0,0,0-1.7-2.52,3.83,3.83,0,0,0-1.86-.68c0-.57.06-.85.19-.85a15.07,15.07,0,0,0,4.16.39A1.59,1.59,0,0,0,465,24.38q.72-1.61,1.6-16.54h-6.17a17.94,17.94,0,0,1-5.62,7.29v9.38c0,1.55.08,3.11.13,4.67,0,.57-.73.89-2.19.95-1.16,0-1.78-.13-1.87-.39V27.52h-4.34v2.42c0,.47-.68.76-2,.85s-1.93-.17-2-.49a24.81,24.81,0,0,0,.13-2.91V12.26Q442.6,8.3,442.53,5.46Zm4,10.39h4.34V7.68h-4.34Zm0,10.62h4.34V16.93h-4.34Zm11.57-13.59q5,2.31,5.19,5a3.49,3.49,0,0,1-.81,2.51,2.7,2.7,0,0,1-2.19.79c-.72,0-1.08-.84-1.08-2.45a8.91,8.91,0,0,0-1.51-5.36C457.75,13.26,457.88,13.09,458.06,12.88Z"/><path class="cls-1" d="M481.18,8.1a20.93,20.93,0,0,1,.68,5.3c0,2-.82,3-2.45,3a1.47,1.47,0,0,1-1.5-1.6,2.09,2.09,0,0,1,.65-1.6,7.83,7.83,0,0,0,1.8-2.81,6.32,6.32,0,0,0,.39-2.19Zm1.4-7.51c3.46.48,5.2.89,5.2,1.24q0,.25-1.11.75l-.27,7.91v.33a19,19,0,0,0,1.47-4c1.25.87,2.16,1.52,2.75,2,0-1,0-1.85-.07-2.62l3.73,1.44h2c.14-1.13.22-2.37.27-3.72h-1.21a42,42,0,0,0-5.92.32,16.79,16.79,0,0,0-.62-1.6,40.47,40.47,0,0,0,6.57.36h7.19c.48-.61,1.18-1.45,2.09-2.52a1.64,1.64,0,0,1,.52-.29,3.34,3.34,0,0,1,.79.46c1.72,1.5,2.62,2.43,2.71,2.78s-.12.49-.36.49h-7.16a10.67,10.67,0,0,1-3.26,3.72H502c1.28-1.13,2.09-1.7,2.41-1.7A5.35,5.35,0,0,1,506.21,7c.81.56,1.21,1,1.21,1.27s-.31.69-.92,1.14V20.26c0,1.18,0,2.34,0,3.5,0,.65-.77,1-2.29,1-1.16,0-1.8-.16-1.93-.49v-.85H494.8v.23c0,.5-.7.8-2.05.88s-2.13-.17-2.2-.52a28.15,28.15,0,0,0,.14-3.1V10.72c0-.33,0-.64,0-1h-.32a11.19,11.19,0,0,1-4,3,54.15,54.15,0,0,1-.52,5.72q3.86,2.32,3.86,5.62,0,2.55-2.46,2.55c-.91,0-1.39-.5-1.43-1.5A7.76,7.76,0,0,1,486,24a6.79,6.79,0,0,0,.2-1.54,6.35,6.35,0,0,0-.56-2.78Q484,27.91,479.18,31c-.19-.18-.29-.27-.29-.3a38.2,38.2,0,0,0,2.65-7.51q.94-2.19,1.07-12.91l0-8.24A8.06,8.06,0,0,1,482.58.59Zm12.19,23.53q4.05,2.84,4.05,3.27a.23.23,0,0,1-.26.26q-.94,0-1.47,0c-2.63,2-6.18,3.15-10.62,3.33a.85.85,0,0,0-.2-.52A20.86,20.86,0,0,0,494.77,24.12Zm0-12h7.52V8.56H494.8Zm0,4.93h7.52V13.17H494.8Zm0,5.3h7.52V18.17H494.8Zm4.42,2.51q9.21.11,9.28,3.79a4.51,4.51,0,0,1-.1,1c-.2.76-.78,1.14-1.77,1.14-.67,0-1.51-.62-2.51-1.86a10.29,10.29,0,0,0-5.07-3.66A1.65,1.65,0,0,1,499.22,24.9Z"/><path class="cls-1" d="M517.73,6a18.65,18.65,0,0,1,.88,5.66c0,1.94-.82,2.91-2.45,2.91A1.45,1.45,0,0,1,514.65,13a2.44,2.44,0,0,1,.59-1.7,8.67,8.67,0,0,0,1.64-3,7.2,7.2,0,0,0,.39-2.25C517.57,6.06,517.73,6,517.73,6ZM518.9.33q4.9.42,4.91,1.24a.64.64,0,0,1-.23.49c-.42.15-.64.33-.66.52V7.06A.2.2,0,0,0,523,7c2.55,1.11,3.82,2.35,3.82,3.7s-.66,2-1.86,2c-.94,0-1.43-.53-1.47-1.6l-.06-.59a3.67,3.67,0,0,1-.07-.75,4.2,4.2,0,0,0-.46-1.93V20.69c.07,4.42.12,7.43.17,9-.11.78-1.05,1.17-2.81,1.17-.88,0-1.31-.25-1.31-.75.06-1.46.1-4.66.1-9.61l0-16.24A32.75,32.75,0,0,0,518.9.33Zm15.23.26q4.85,1.47,4.84,2c0,.33-.43.49-1.27.49a9.18,9.18,0,0,1-5,4.28c3.43.68,5.14,2.24,5.14,4.71a2.11,2.11,0,0,1-2.36,2h-.19a7.27,7.27,0,0,1-2.55,1.83h7.19c1.17-1,1.93-1.53,2.25-1.53a4.83,4.83,0,0,1,1.67,1.08q1.11.78,1.11,1.17c0,.31-.29.64-.88,1v9.11q0,1.47,0,2.91c0,.61-.72.93-2.16.95-1.06,0-1.65-.15-1.76-.46V28.79H529.82v1.05c0,.48-.68.76-2,.85s-1.93-.18-2-.53a23.36,23.36,0,0,0,.14-2.87V18.46c0-1.52-.09-2.84-.14-4l3.5,1.37h2a14.54,14.54,0,0,0,.66-4l1.76.45a5.56,5.56,0,0,1-.2-1.53,5.83,5.83,0,0,0-1.73-3.5A18.66,18.66,0,0,0,534.13.59Zm-6.27-.2c3.22,1,4.83,1.63,4.83,1.93s-.42.52-1.27.52c-1.31,2.4-2.87,3.91-4.67,4.55q4.77,1,4.77,4.8a2.09,2.09,0,0,1-2.39,2,1.54,1.54,0,0,1-1-.29,4.45,4.45,0,0,1-.75-3,6.27,6.27,0,0,0-1.47-3.53A22.85,22.85,0,0,0,527.86.39Zm2,27.39h10.36V18.56a2.66,2.66,0,0,1-1.14.49,9.92,9.92,0,0,1-1.38,3.11,4.79,4.79,0,0,1,2,2.65c0,1.13-.32,1.81-1,2.05a2.25,2.25,0,0,1-1.17.27c-.42,0-.74-.27-1-.79s-.52-1.11-.82-1.89a19.38,19.38,0,0,1-5.07,3.13c-.15,0-.26-.12-.32-.36a17.74,17.74,0,0,0,3.79-5A23.76,23.76,0,0,0,530.31,19q.16-.16.33-.36c1.61.61,3,1.19,4.15,1.76a10.3,10.3,0,0,0,.58-3.2c2.88.43,4.48.8,4.81,1.11V16.9H529.82Zm10.39-27q4.85,1.44,4.84,2c0,.33-.43.49-1.28.49a8.9,8.9,0,0,1-4.93,4q5.26,1,5.26,4.84a2.1,2.1,0,0,1-2.39,2,1.6,1.6,0,0,1-1-.29,3.9,3.9,0,0,1-.91-3A6.11,6.11,0,0,0,538,7.19,17.77,17.77,0,0,0,540.21.75Z"/></svg>