<svg id="圖層_1" data-name="圖層 1" xmlns="http://www.w3.org/2000/svg" viewBox="0 0 135.37 136.07"><title>icon_4</title><path d="M49.75,99.87C52,33.56,99.93,54.91,115,29.32c9,40.22-26,83.6-62.48,76.72C63.59,85.2,79.37,68.57,96.69,53.12c-19.22,10-33.28,29.51-46.94,46.75" transform="translate(0)"/><path d="M31.9,62.88c1.43,10.1,2.85,20.21,4.21,29.79-15.49-8.62-8.91-29.12-4.37-44.48C46,53.77,55.08,75.52,40.81,95.46c-4.87-9-3.16-26.63-8.91-32.58" transform="translate(0)"/><path d="M67.69,136.07C-25,131-20,2.77,67.69,0,160.43,5.09,155.41,133.29,67.69,136.07ZM67.69.75c-91.8,5.08-86.68,131.85,0,134.57C159.48,130.24,154.36,3.46,67.69.75Z" transform="translate(0)"/></svg>