<svg id="圖層_1" data-name="圖層 1" xmlns="http://www.w3.org/2000/svg" viewBox="0 0 135.37 136.07"><defs><style>.cls-1{fill:#040000;}</style></defs><title>icon_1</title><path d="M67.69,136.07C-25,131-20,2.77,67.69,0,160.43,5.09,155.41,133.29,67.69,136.07ZM67.69.75c-91.8,5.08-86.68,131.85,0,134.57C159.48,130.24,154.36,3.46,67.69.75Z"/><path class="cls-1" d="M25.45,72.82c.24,0,7.58-1,8.5-1.13,13.73,40.57,50.19-19.11,8.27-13.37.88-.38-.7-9,2.31-7.37C78.29,46.72,43.05,9.09,34.8,41l-8.5-1.51c8.44-38,63.41-7.43,31.55,14.08C99.49,75,33.52,117.37,25.45,72.82Z"/><path class="cls-1" d="M81.47,97.57c-36.25-3.38-9.72,17.13-1.92,17C45.12,111,57.14,74.4,77.7,70.28V51.55c-13.51-2.29,23.74-3.4,10.31,0,0-.11,0,18.47,0,18.91,10.19,2,20.22,12.58,19.72,24.75,8.34-8.16-10-25.35-17.42-26.78,1-3.7-2.11-15.61,1.56-15.11,7.54-8.07-11-5.9-16.25-6.09-5.83,1.32-2.38,5.07-.22,7.54v13.9C19.9,95.38,94.08,156.55,109.92,97.6c-6.1,3.58-16.24,3.41-28.45,0m8.69,9.12c3.16-.08.71,6.41-1.72,1.73.08-.55.16-1.07,1.72-1.73m-4.27,9.4c-.38-.84-.86-.84,0,0,.52.83-3.15,1.24,0,0M93.06,66s-4.18-9.07,13.51-12.7c0,0-1.13,15-12.79,13.58A44.36,44.36,0,0,1,102,58s-5.71,3.71-8.89,8m4,2.45s2.58-3.78,8.19,2.32c0,0-6.17,3.1-8.36-1.83a20.34,20.34,0,0,1,5.44,1.11,18.34,18.34,0,0,0-5.27-1.6M82.56,100.52c4.18-.12.88,8.45-2.25,2.28.1-.73.2-1.42,2.25-2.28"/></svg>