<svg id="圖層_1" data-name="圖層 1" xmlns="http://www.w3.org/2000/svg" viewBox="0 0 135.37 136.07"><title>icon_3</title><path d="M67.69,136.07C-25,131-20,2.77,67.69,0,160.43,5.09,155.41,133.29,67.69,136.07ZM67.69.75c-91.8,5.08-86.68,131.85,0,134.57C159.49,130.24,154.36,3.46,67.69.75Z"/><path d="M64.7,30.77l-7.16-4.61c4.53,13.66-38.36,11.19-27.45,56.32,0,0-4.06-33.38,30.75-39.23l1.15,6,9.88-13.89Z"/><path d="M107.29,74.56C109.67,56.08,95,35.74,76.55,32.31c0,0,26.9,12.8,19.83,40.62l-6.59-1,9.82,13.92,13.45-10.44Z"/><path d="M47.79,91.16l4.48-3.59L35.38,85.32l-1.46,17c10.26-9.53,38.59,30.59,67.87-11,0,0-26.07,27.38-54-.14"/></svg>