<?xml version="1.0" encoding="UTF-8"?>
<!-- Generator: Adobe Illustrator 16.0.0, SVG Export Plug-In . SVG Version: 6.00 Build 0)  -->
<!DOCTYPE svg PUBLIC "-//W3C//DTD SVG 1.1//EN" "http://www.w3.org/Graphics/SVG/1.1/DTD/svg11.dtd">
<svg version="1.1" xmlns="http://www.w3.org/2000/svg" xmlns:xlink="http://www.w3.org/1999/xlink" x="0px" y="0px" width="274.021px" height="65.102px" viewBox="0 0 274.021 65.102" enable-background="new 0 0 274.021 65.102" xml:space="preserve">
<g id="圖層_1" display="none">
	<path display="inline" fill="#89B829" d="M24.862,13.674h35.667c1.501,0,2.896,0.3,4.178,0.842c1.918,0.81,3.57,2.18,4.729,3.896   c0.58,0.859,1.036,1.8,1.348,2.804c0.313,1.004,0.481,2.069,0.481,3.194v40.186h13.249V24.409c0.001-3.292-0.673-6.465-1.889-9.337   c-1.826-4.313-4.857-7.961-8.683-10.548c-1.912-1.291-4.026-2.316-6.285-3.021c-2.257-0.703-4.66-1.079-7.13-1.079H24.862V13.674z"/>
	<path display="inline" fill="#036EB8" d="M11.236,34.26h8.819c0.743,0.002,1.42,0.146,2.045,0.41   c0.934,0.396,1.75,1.068,2.317,1.912c0.283,0.421,0.506,0.88,0.657,1.368c0.152,0.489,0.235,1.007,0.235,1.565v25.465h13.249   V39.517c0.001-2.537-0.52-4.988-1.458-7.205c-1.41-3.329-3.746-6.142-6.695-8.136c-1.476-0.996-3.107-1.787-4.851-2.33   c-1.744-0.544-3.6-0.834-5.501-0.834h-8.819L11.236,34.26L11.236,34.26z"/>
	<rect x="0" y="0.397" display="inline" fill="#89B829" width="14.49" height="64.584"/>
	<path display="inline" fill="#89B829" d="M24.006,13.674h11.271c1.501,0,2.896,0.3,4.178,0.842c1.917,0.81,3.57,2.18,4.729,3.896   c0.58,0.859,1.036,1.8,1.348,2.804s0.481,2.069,0.481,3.194v40.186h13.249V24.409c0-3.292-0.673-6.465-1.89-9.337   c-1.826-4.313-4.856-7.961-8.682-10.548c-1.912-1.291-4.027-2.316-6.285-3.021c-2.257-0.703-4.66-1.079-7.13-1.079H24.005   L24.006,13.674L24.006,13.674z"/>
	<g display="inline">
		<g>
			<path fill="#89B829" d="M100.126,49.468h2.962v5.786h5.122v-5.786h2.951v15.344h-2.951v-6.726h-5.122v6.726h-2.962V49.468z"/>
			<path fill="#89B829" d="M128.926,59.959h-9.146c0.131,0.809,0.486,1.45,1.058,1.925c0.574,0.479,1.307,0.716,2.197,0.716     c1.063,0,1.979-0.371,2.742-1.116l2.398,1.128c-0.598,0.847-1.313,1.476-2.147,1.882c-0.834,0.407-1.824,0.608-2.973,0.608     c-1.781,0-3.23-0.562-4.349-1.685c-1.122-1.124-1.682-2.526-1.682-4.218c0-1.732,0.559-3.17,1.675-4.313     c1.117-1.144,2.515-1.716,4.198-1.716c1.788,0,3.237,0.572,4.36,1.716c1.118,1.145,1.679,2.656,1.679,4.533L128.926,59.959z      M126.079,57.719c-0.188-0.633-0.559-1.146-1.113-1.545c-0.554-0.396-1.196-0.592-1.928-0.592c-0.795,0-1.492,0.219-2.089,0.666     c-0.375,0.279-0.725,0.768-1.046,1.471H126.079z"/>
			<path fill="#89B829" d="M142.81,53.464h2.847v11.348h-2.847v-1.2c-0.554,0.532-1.111,0.91-1.67,1.144     c-0.562,0.232-1.167,0.348-1.819,0.348c-1.465,0-2.732-0.566-3.802-1.703c-1.07-1.14-1.604-2.552-1.604-4.238     c0-1.754,0.518-3.188,1.552-4.312c1.034-1.117,2.291-1.679,3.771-1.679c0.682,0,1.321,0.128,1.917,0.386     c0.599,0.259,1.149,0.645,1.656,1.159L142.81,53.464L142.81,53.464z M139.817,55.798c-0.882,0-1.612,0.312-2.192,0.934     c-0.585,0.624-0.876,1.422-0.876,2.396c0,0.98,0.298,1.789,0.89,2.42c0.594,0.635,1.321,0.949,2.189,0.949     c0.895,0,1.636-0.313,2.224-0.935c0.59-0.621,0.884-1.435,0.884-2.446c0-0.983-0.294-1.786-0.884-2.397     C141.464,56.105,140.717,55.798,139.817,55.798z"/>
			<path fill="#89B829" d="M151.43,49.084h2.846v15.728h-2.846V49.084z"/>
			<path fill="#89B829" d="M160.409,49.28h2.849v4.184h1.688v2.448h-1.688v8.898h-2.849v-8.898h-1.46v-2.448h1.46V49.28z"/>
			<path fill="#89B829" d="M169.687,49.084h2.825v5.526c0.557-0.479,1.113-0.84,1.679-1.082c0.562-0.239,1.131-0.358,1.711-0.358     c1.123,0,2.074,0.392,2.847,1.167c0.659,0.678,0.992,1.666,0.992,2.975v7.5h-2.807v-4.976c0-1.313-0.063-2.206-0.188-2.67     c-0.128-0.466-0.339-0.813-0.643-1.044c-0.306-0.229-0.679-0.344-1.12-0.344c-0.577,0-1.075,0.19-1.487,0.574     c-0.415,0.382-0.7,0.901-0.86,1.563c-0.085,0.338-0.123,1.118-0.123,2.338v4.557h-2.825V49.084z"/>
			<path fill="#89B829" d="M196.679,49.468h2.844l3.558,10.701l3.589-10.701h2.845l2.572,15.344h-2.822l-1.646-9.689l-3.261,9.689     h-2.571l-3.231-9.689l-1.684,9.689h-2.847L196.679,49.468z"/>
			<path fill="#89B829" d="M228.674,59.959h-9.146c0.131,0.809,0.481,1.45,1.058,1.925c0.575,0.479,1.307,0.716,2.195,0.716     c1.063,0,1.981-0.371,2.746-1.116l2.396,1.128c-0.597,0.847-1.313,1.476-2.147,1.882c-0.835,0.407-1.826,0.608-2.972,0.608     c-1.78,0-3.232-0.562-4.354-1.685c-1.118-1.124-1.675-2.526-1.675-4.218c0-1.732,0.557-3.17,1.672-4.313     c1.118-1.144,2.518-1.716,4.2-1.716c1.787,0,3.24,0.572,4.361,1.716c1.116,1.145,1.676,2.656,1.676,4.533L228.674,59.959z      M225.827,57.719c-0.188-0.633-0.561-1.146-1.116-1.545c-0.55-0.396-1.194-0.592-1.925-0.592c-0.797,0-1.491,0.219-2.092,0.666     c-0.374,0.279-0.726,0.768-1.043,1.471H225.827z"/>
			<path fill="#89B829" d="M242.559,49.084h2.849v15.728h-2.849v-1.2c-0.557,0.532-1.11,0.91-1.671,1.144     c-0.563,0.232-1.166,0.348-1.82,0.348c-1.465,0-2.732-0.566-3.799-1.703c-1.073-1.14-1.607-2.552-1.607-4.238     c0-1.754,0.52-3.188,1.553-4.312c1.035-1.117,2.292-1.679,3.771-1.679c0.679,0,1.323,0.128,1.917,0.386     c0.597,0.259,1.148,0.645,1.656,1.159V49.084z M239.564,55.798c-0.881,0-1.612,0.312-2.192,0.934     c-0.583,0.624-0.872,1.422-0.872,2.396c0,0.98,0.296,1.789,0.888,2.42c0.595,0.635,1.322,0.949,2.187,0.949     c0.896,0,1.64-0.313,2.228-0.935c0.59-0.621,0.885-1.435,0.885-2.446c0-0.983-0.295-1.786-0.885-2.397     C241.213,56.105,240.466,55.798,239.564,55.798z"/>
			<path fill="#89B829" d="M252.599,48.791c0.5,0,0.929,0.181,1.285,0.541c0.357,0.361,0.533,0.802,0.533,1.313     c0,0.509-0.176,0.941-0.528,1.301c-0.355,0.356-0.776,0.537-1.269,0.537c-0.507,0-0.938-0.186-1.296-0.546     c-0.359-0.367-0.533-0.812-0.533-1.331c0-0.501,0.174-0.932,0.526-1.285C251.674,48.968,252.102,48.791,252.599,48.791z      M251.176,53.464h2.849v11.348h-2.849V53.464z"/>
			<path fill="#89B829" d="M268.189,53.464h2.849v11.348h-2.849v-1.2c-0.558,0.532-1.113,0.91-1.671,1.144     c-0.561,0.232-1.165,0.348-1.816,0.348c-1.467,0-2.731-0.566-3.805-1.703c-1.069-1.14-1.604-2.552-1.604-4.238     c0-1.754,0.516-3.188,1.553-4.312c1.035-1.117,2.293-1.679,3.771-1.679c0.684,0,1.317,0.128,1.917,0.386     c0.599,0.259,1.149,0.645,1.656,1.159V53.464z M265.194,55.798c-0.88,0-1.609,0.312-2.193,0.934     c-0.58,0.624-0.873,1.422-0.873,2.396c0,0.98,0.296,1.789,0.892,2.42c0.592,0.635,1.321,0.949,2.187,0.949     c0.896,0,1.639-0.313,2.225-0.935c0.592-0.621,0.888-1.435,0.888-2.446c0-0.983-0.296-1.786-0.888-2.397     C266.843,56.105,266.099,55.798,265.194,55.798z"/>
		</g>
		<g>
			<g>
				<path fill="#89B829" d="M105.566,3.824c0.592,0.271,1.349,0.654,1.676,0.856c0,0,0,0,0,0.181c0,0.456-0.368,0.819-1.054,1.096      c-1.052,3.009-2.016,5.607-2.884,7.798v28.959c0,0.651-0.534,1.184-1.187,1.184h-1.198c-0.652,0-1.188-0.531-1.188-1.184V22.554      c0-0.651-0.254-0.721-0.566-0.146c0,0-1.081,1.971-1.949,3.475l-1.999-1.988c-0.462-0.458-0.574-1.302-0.254-1.863      c0,0,2.984-5.222,4.357-8.415c1.282-2.914,2.518-6.521,3.801-10.895L105.566,3.824z M113.559,7.507l1.053,0.654      c0.553,0.343,1.192,0.788,1.419,0.989c0,0,0,0,0,0.183c0,0.364-0.321,0.729-0.915,1.046L111.2,18.26      c-0.289,0.579,0.008,1.059,0.661,1.059h2.8c0.653,0,1.147,0.531,1.104,1.18c0,0-0.648,9.129-1.334,11.953      c-0.322,1.277-0.688,2.372-1.055,3.285c1.417,1.277,3.021,2.141,4.759,2.688c2.475,0.916,7.372,1.368,14.697,1.368h3.618      c0.656,0,0.969,0.485,0.697,1.077l-0.805,1.771c-0.271,0.589-1.024,1.061-1.678,1.047c0,0-9.802-0.247-13.141-0.745      c-2.748-0.415-4.945-1.05-6.686-1.917c-1.189-0.592-2.243-1.279-3.159-2.101c-0.093,0.187-0.183,0.319-0.274,0.414      c-1.007,1.367-2.517,2.826-4.532,4.373l-1.977-1.874c-0.476-0.444-0.427-1.123,0.104-1.504c0,0,2.102-1.499,3.019-2.592      c0.412-0.457,0.777-0.958,1.146-1.507c-1.235-1.642-2.518-4.243-3.892-7.844l1.772-0.675c0.611-0.229,1.331,0.065,1.602,0.657      c0,0,1.34,2.936,2.165,4.215c0.642-2.279,1.143-5.521,1.465-9.715h-2.154c-0.652,0-1.404,0.44-1.668,0.982      c-0.265,0.536-0.987,0.803-1.604,0.594l-0.957-0.324c-0.619-0.214-0.896-0.867-0.619-1.457l5.033-10.672      c0.277-0.59-0.029-1.073-0.684-1.073h-2.065c-0.65,0-1.187-0.53-1.187-1.181v-1.19c0-0.646,0.535-1.183,1.187-1.183h2.981      c0.654,0,1.579-0.081,2.058-0.182l0,0C112.963,7.188,113.286,7.324,113.559,7.507z M122.169,6.642      c0.654,0,1.188-0.533,1.188-1.187V4.083c0-0.651,0.533-1.14,1.185-1.087l1.112,0.086c0.65,0.051,1.614,0.176,2.144,0.275      c0,0,0,0,0,0.272c0,0.229-0.229,0.595-0.687,1.051v0.774c0,0.652,0.534,1.187,1.187,1.187h5.134      c0.654,0,1.188,0.529,1.188,1.181v4.066c0,0.647,0.524,1.181,1.169,1.181c0.64,0,1.164,0.532,1.164,1.184v0.827      c0,0.65-0.524,1.185-1.164,1.185c-0.645,0-1.169,0.527-1.169,1.181v4.065c0,0.647-0.533,1.18-1.188,1.18h-5.134      c-0.651,0-1.187,0.535-1.187,1.184v0.646c0,0.649,0.534,1.183,1.187,1.183h5.134c0.654,0,1.188,0.531,1.188,1.18v0.693      c0,0.649-0.533,1.181-1.188,1.181h-5.134c-0.651,0-1.187,0.535-1.187,1.187v0.644c0,0.651,0.534,1.184,1.187,1.184h6.188      c0.652,0,1.186,0.531,1.186,1.183v1.01c0,0.648-0.532,1.185-1.186,1.185h-6.188c-0.651,0-1.187,0.527-1.187,1.181v1.055      c0,0.651-0.535,1.187-1.188,1.187h-1.382c-0.649,0-1.186-0.534-1.186-1.187v-1.055c0-0.652-0.532-1.181-1.188-1.181H117.4      c-0.652,0-1.188-0.535-1.188-1.185v-1.01c0-0.65,0.534-1.183,1.188-1.183h4.769c0.654,0,1.188-0.531,1.188-1.184v-0.644      c0-0.65-0.532-1.187-1.188-1.187h-3.53c-0.652,0-1.188-0.53-1.188-1.181v-0.693c0-0.647,0.536-1.18,1.188-1.18h3.53      c0.654,0,1.188-0.532,1.188-1.183v-0.646c0-0.647-0.532-1.184-1.188-1.184h-3.53c-0.652,0-1.188-0.531-1.188-1.18v-0.83      c0-0.648,0.536-1.181,1.188-1.181h3.53c0.654,0,1.188-0.528,1.188-1.181v-0.875c0-0.652-0.532-1.181-1.188-1.181h-5.315      c-0.653,0-1.188-0.533-1.188-1.185v-0.827c0-0.65,0.535-1.184,1.188-1.184h5.315c0.654,0,1.188-0.532,1.188-1.181V11.06      c0-0.648-0.532-1.185-1.188-1.185h-3.53c-0.652,0-1.188-0.531-1.188-1.178V7.822c0-0.65,0.536-1.181,1.188-1.181L122.169,6.642      L122.169,6.642z M127.109,11.889c0,0.647,0.534,1.181,1.187,1.181h1.38c0.652,0,1.188-0.532,1.188-1.181V11.06      c0-0.648-0.536-1.185-1.188-1.185h-1.38c-0.651,0-1.187,0.535-1.187,1.185V11.889z M127.109,18.319      c0,0.65,0.534,1.181,1.187,1.181h1.38c0.652,0,1.188-0.528,1.188-1.181v-0.875c0-0.652-0.536-1.181-1.188-1.181h-1.38      c-0.651,0-1.187,0.527-1.187,1.181V18.319z"/>
				<path fill="#89B829" d="M164.283,3.13c0.655,0.053,1.7,0.213,2.331,0.363c0,0,0,0,0,0.32c0,0.227-0.319,0.594-0.87,1.048l0,0      c0,0.601,0.535,1.096,1.188,1.096h13.33c0.646,0,1.185,0.532,1.185,1.182v1.378c0,0.648-0.537,1.182-1.185,1.182h-12.825      c-0.655,0-1.19,0.528-1.19,1.181v0.281c0,0.65,0.535,1.182,1.19,1.182h8.201c0.649,0,1.183,0.532,1.183,1.185v3.337      c0,0.646,0.537,1.179,1.188,1.179h2.983c0.654,0,1.187,0.529,1.187,1.185v1.191c0,0.65-0.531,1.183-1.187,1.183h-2.983      c-0.65,0-1.188,0.531-1.188,1.184v3.699c0,0.651-0.532,1.184-1.183,1.184h-7.287c-0.651,0-0.887,0.438-0.521,0.979      c0,0,2.127,3.125,3.772,4.718c2.246-1.456,4.214-2.915,5.905-4.419l1.967,2.021c0.455,0.468,0.951,1.056,1.101,1.306      c0,0,0,0,0,0.228c0,0.275-0.456,0.367-1.279,0.367c-1.65,1.002-3.296,1.915-4.942,2.828c2.244,1.64,4.896,3.145,8.008,4.47      l-2.995,2.286c-0.516,0.396-1.395,0.443-1.956,0.108c0,0-4.748-2.854-6.994-4.948c-1.512-1.279-2.882-2.875-4.168-4.698v4.471      c0,0.651-0.085,1.706-0.188,2.353c0,0-0.313,1.932-1.274,2.796c-0.823,0.913-2.932,1.37-6.226,1.37l-1.171-3      c-0.235-0.608,0.104-1.105,0.756-1.105h0.926c0.647,0,1.687-0.18,2.3-0.397c0,0,0.667-0.236,0.761-1.563v-0.412      c0-0.65-0.475-0.94-1.056-0.647c0,0-6.129,3.114-11.438,5.531c-0.322,0.455-0.646,0.683-0.918,0.683      c-0.277,0-0.458-0.228-0.458-0.641l-0.681-2.815c-0.157-0.632,0.229-1.306,0.849-1.498c0,0,8.895-2.751,13.702-5.213v-3.974      c0-0.647-0.536-1.181-1.188-1.181h-8.153c-0.652,0-1.188-0.53-1.188-1.184v-1.012c0-0.648,0.535-1.181,1.188-1.181h8.153      c0.651,0,1.188-0.532,1.188-1.184v-0.324c0-0.651-0.536-1.184-1.188-1.184H149.4c-0.651,0-1.187,0.123-1.187,0.272      c0,0.148-0.017,0.809-0.046,1.456c0,0-0.274,7.206-0.826,10.674c-0.408,2.646-1.187,5.885-2.376,9.896l-2.878-1.435      c-0.585-0.289-0.904-1.036-0.719-1.659c0,0,1.58-5.203,2.038-7.76c0.549-3.692,0.87-7.342,0.87-10.898V7.138      c0-0.648,0.533-1.182,1.186-1.182h14.795c0.653,0,1.188-0.531,1.188-1.183V4.083c0-0.651,0.531-1.14,1.184-1.087L164.283,3.13z       M162.128,10.878c0-0.651-0.537-1.181-1.188-1.181h-11.543c-0.651,0-1.187,0.528-1.187,1.181v5.983      c0,0.646,0.534,1.179,1.187,1.179h11.543c0.65,0,1.188-0.512,1.188-1.14c0-0.629-0.537-1.137-1.188-1.137h-8.153      c-0.653,0-1.188-0.535-1.188-1.185v-1.056c0-0.651,0.534-1.185,1.188-1.185h8.153c0.65,0,1.188-0.53,1.188-1.182V10.878z       M158.557,32.132l-1.67,1.82c-0.443,0.479-1.26,0.598-1.824,0.264c0,0-3.828-2.267-6.485-3.498l2.657-2.508      C154.118,29.441,156.545,30.764,158.557,32.132z M166.246,16.9c0,0.628,0.535,1.14,1.19,1.14h4.265      c0.651,0,1.183-0.512,1.183-1.14c0-0.629-0.53-1.137-1.183-1.137h-4.265C166.781,15.764,166.246,16.271,166.246,16.9z       M166.246,23.105c0,0.65,0.535,1.184,1.19,1.184h4.265c0.651,0,1.183-0.532,1.183-1.184v-0.324c0-0.651-0.53-1.184-1.183-1.184      h-4.265c-0.655,0-1.19,0.531-1.19,1.184V23.105z"/>
			</g>
			<g>
				<path fill="#89B829" d="M197.048,3.943c0.59,0.281,1.362,0.671,1.714,0.873c0,0,0,0,0,0.228c0,0.273-0.092,0.455-0.229,0.546      h9.938c0.649,0,1.186-0.527,1.186-1.183V3.9c0-0.65,0.534-1.141,1.186-1.089l1.112,0.089c0.648,0.05,1.635,0.176,2.188,0.271      c0,0,0,0,0,0.275c0,0.228-0.272,0.592-0.732,1.047l0,0c0,0.604,0.537,1.095,1.189,1.095h9.984c0.653,0,1.188,0.535,1.188,1.188      v0.827c0,0.646-0.535,1.178-1.188,1.178h-9.984c-0.652,0-1.189,0.483-1.189,1.075c0,0.588,0.537,1.067,1.189,1.067h8.886      c0.652,0,1.188,0.535,1.188,1.185v11.545c0,0.652-0.453,1.184-1.009,1.184c-0.552,0-0.603,0.352-0.114,0.782      c0,0,2.542,2.224,4.191,4.007l-2.262,1.488c-0.545,0.36-1.33,0.24-1.747-0.257c0,0-0.522-0.644-1.12-1.371      c-5.174,0.41-12.957,0.91-23.303,1.551c-0.318,0.501-0.641,0.73-0.916,0.73c-0.273,0-0.41-0.186-0.41-0.596l-0.568-2.539      c-0.143-0.631,0.275-1.172,0.932-1.19c0,0,7.188-0.236,11.31-0.418v-1.008c0-0.647-0.535-1.181-1.186-1.181h-8.523      c-0.651,0-1.186-0.53-1.186-1.184V12.108c0-0.648,0.533-1.185,1.186-1.185h8.523c0.649,0,1.186-0.479,1.186-1.067      c0-0.592-0.535-1.075-1.186-1.075h-9.256c-0.653,0-1.185-0.531-1.185-1.178V7.138c0-0.648-0.127-1.097-0.277-0.998      c0,0,0,0-0.091,0c-0.915,2.688-1.831,5.062-2.653,7.16v29.413c0,0.651-0.536,1.184-1.188,1.184h-1.564      c-0.649,0-1.188-0.531-1.188-1.184V22.872c0-0.65-0.253-0.716-0.567-0.146c0,0-1.264,2.292-2.313,4.071L186,24.585      c-0.458-0.464-0.565-1.303-0.235-1.863c0,0,3.201-5.453,4.67-8.738c1.328-3.01,2.655-6.748,4.028-11.262L197.048,3.943z       M216.341,32.862c0.654,0,1.192-0.531,1.192-1.183v-0.146c0-0.648,0.526-1.116,1.174-1.033l1.581,0.202      c0.648,0.082,1.508,0.273,1.907,0.427c0,0,0,0,0,0.273c0,0.363-0.317,0.728-0.909,1.091l0,0c0,0.202,0.531,0.367,1.185,0.367      h2.802c0.65,0,1.187,0.532,1.187,1.181v1.01c0,0.65-0.535,1.184-1.187,1.184h-2.802c-0.652,0-1.185,0.532-1.185,1.184v0.278      c0,0.651-0.1,1.706-0.222,2.346c0,0-0.33,1.755-1.427,2.574c-0.92,0.822-3.252,1.279-6.916,1.279l-1.031-2.64      c-0.239-0.605,0.1-1.098,0.757-1.098h1.652c0.652,0,1.697-0.153,2.323-0.342c0,0,1.016-0.301,1.109-1.62v-0.779      c0-0.65-0.538-1.184-1.192-1.184h-11.127c-0.654,0-0.754,0.31-0.223,0.686c0,0,2.196,1.55,3.794,3.056l-2.261,1.488      c-0.543,0.358-1.349,0.261-1.783-0.222c0,0-1.905-2.087-3.464-3.228l1.313-1.045c0.516-0.403,0.396-0.735-0.256-0.735h-3.808      c-0.652,0-1.186-0.532-1.186-1.184v-1.01c0-0.647,0.532-1.181,1.186-1.181h17.815V32.862z M208.47,16.264      c0.649,0,1.186-0.487,1.186-1.073c0-0.588-0.535-1.071-1.186-1.071H203.7c-0.65,0-1.187,0.483-1.187,1.071      c0,0.586,0.535,1.073,1.187,1.073H208.47z M209.655,20.457c0-0.627-0.535-1.14-1.187-1.14h-4.77c-0.65,0-1.187,0.513-1.187,1.14      c0,0.626,0.535,1.142,1.187,1.142h4.77C209.12,21.598,209.655,21.083,209.655,20.457z M213.409,15.19      c0,0.586,0.537,1.073,1.189,1.073h5.136c0.649,0,1.183-0.487,1.183-1.073c0-0.588-0.532-1.071-1.183-1.071h-5.136      C213.946,14.119,213.409,14.603,213.409,15.19z M220.917,20.457c0-0.627-0.532-1.14-1.183-1.14h-5.136      c-0.652,0-1.189,0.513-1.189,1.14c0,0.626,0.537,1.142,1.189,1.142h5.136C220.385,21.598,220.917,21.083,220.917,20.457z       M218.445,25.517L218.445,25.517c0.479-0.375,0.339-0.681-0.318-0.681h-3.527c-0.652,0-1.189,0.449-1.189,1.001      c0,0.553,0.537,0.975,1.187,0.939c0,0,2.98-0.166,4.996-0.299C219.179,26.156,218.813,25.838,218.445,25.517z"/>
				<path fill="#89B829" d="M239.517,3.076c0.647,0.08,1.525,0.267,1.956,0.417c0,0,0,0,0,0.32c0,0.319-0.32,0.729-0.872,1.229      c-0.184,2.326-0.365,4.517-0.55,6.611h6.141c0.651,0,1.146,0.532,1.104,1.182c0,0-0.88,12.364-1.797,16.104      c-0.184,0.728-0.362,1.413-0.547,2.005c1.371,1.549,2.653,3.189,3.891,4.926l-2.223,2.178c-0.462,0.458-1.143,0.389-1.507-0.15      c0,0-1.123-1.663-1.856-2.71c-0.55,1.047-1.144,1.956-1.783,2.732c-1.373,1.869-3.39,3.785-6.042,5.79l-2.391-2.239      c-0.477-0.447-0.427-1.121,0.104-1.499c0,0,3.247-2.323,4.438-3.873c1.054-1.188,1.966-2.601,2.699-4.332      c-0.915-0.91-1.923-1.78-2.933-2.509c-0.228,0.909-0.454,1.822-0.685,2.689l-2.643-0.995c-0.608-0.229-0.986-0.938-0.831-1.567      c0,0,1.368-5.646,1.825-8.655c0.229-1.549,0.459-3.329,0.688-5.332h-2.155c-0.652,0-1.188-0.534-1.188-1.187v-1.376      c0-0.648,0.534-1.182,1.188-1.182h1.334c0.654,0,1.226-0.528,1.271-1.177c0,0,0.327-4.478,0.51-7.759L239.517,3.076z       M243.257,15.398h-2.429c-0.652,0-1.251,0.525-1.325,1.172c0,0-0.321,2.702-0.549,4.437c-0.275,1.501-0.505,3.009-0.779,4.468      c1.191,0.729,2.384,1.508,3.481,2.368C242.39,24.746,242.894,20.594,243.257,15.398z M250.313,7.734      c0.648,0,1.184-0.531,1.184-1.185V4.083c0-0.651,0.536-1.133,1.187-1.078l1.251,0.111c0.647,0.057,1.653,0.227,2.23,0.377      c0,0,0,0,0,0.32c0,0.182-0.271,0.503-0.728,0.867V6.55c0,0.652,0.531,1.185,1.187,1.185h7.649c0.646,0,1.186-0.531,1.186-1.185      V4.083c0-0.651,0.538-1.133,1.187-1.078l1.252,0.111c0.647,0.057,1.635,0.227,2.188,0.377c0,0,0,0,0,0.32      c0,0.182-0.226,0.503-0.683,0.867V6.55c0,0.652,0.53,1.185,1.181,1.185h1.747c0.654,0,1.189,0.532,1.189,1.183v1.192      c0,0.65-0.535,1.181-1.189,1.181h-1.747c-0.649,0-1.181,0.534-1.181,1.184v10.269c0,0.652-0.541,1.184-1.19,1.184h-4.263      c-0.657,0-1.188,0.528-1.188,1.181v1.376c0,0.651,0.53,1.184,1.188,1.184h8.381c0.654,0,1.189,0.532,1.189,1.181v1.193      c0,0.652-0.535,1.182-1.189,1.182H266.1c-0.651,0-0.854,0.418-0.443,0.921c0,0,2.232,2.772,3.281,3.596      c1.285,1.277,2.979,2.417,5.085,3.509l-3.08,2.925c-0.469,0.448-1.237,0.442-1.703-0.016c0,0-2.45-2.408-3.592-4.046      c-0.965-1.277-1.927-2.919-2.887-4.926v9.531c0,0.651-0.535,1.184-1.189,1.184h-1.746c-0.65,0-1.186-0.531-1.186-1.184v-8.261      c0-0.648-0.315-0.749-0.696-0.222c0,0-0.998,1.368-1.823,2.322c-1.509,1.917-3.659,4.059-6.403,6.431l-3.166-2.313      c-0.525-0.384-0.518-1.002,0.021-1.367c0,0,4.332-2.978,6.163-4.709c1.056-1.006,2.149-2.101,3.299-3.377h-7.649      c-0.653,0-1.187-0.527-1.187-1.181v-1.194c0-0.646,0.532-1.18,1.187-1.18h9.07c0.651,0,1.188-0.531,1.188-1.184v-1.376      c0-0.651-0.535-1.181-1.188-1.181h-4.769c-0.651,0-1.188-0.53-1.188-1.184V12.473c0-0.648-0.534-1.184-1.184-1.184h-2.066      c-0.652,0-1.188-0.529-1.188-1.181V8.917c0-0.649,0.533-1.183,1.188-1.183H250.313z M255.437,12.938      c0,0.647,0.531,1.181,1.187,1.181h7.649c0.646,0,1.186-0.532,1.186-1.181v-0.466c0-0.648-0.538-1.184-1.186-1.184h-7.649      c-0.654,0-1.187,0.534-1.187,1.184V12.938z M255.437,19.182c0,0.653,0.531,1.185,1.187,1.185h7.649      c0.646,0,1.186-0.53,1.186-1.185v-0.644c0-0.649-0.538-1.181-1.186-1.181h-7.649c-0.654,0-1.187,0.53-1.187,1.181V19.182z"/>
			</g>
		</g>
	</g>
</g>
<g id="圖層_2">
	<g>
		
			<linearGradient id="SVGID_1_" gradientUnits="userSpaceOnUse" x1="1068.5105" y1="-27.0916" x2="1103.8396" y2="-27.0916" gradientTransform="matrix(0.7301 -0.6834 0.6834 0.7301 -725.7019 796.7093)">
			<stop offset="0" style="stop-color:#89B829"/>
			<stop offset="0.2115" style="stop-color:#82B426"/>
			<stop offset="0.5259" style="stop-color:#6EAB1F"/>
			<stop offset="0.9028" style="stop-color:#4D9B13"/>
			<stop offset="1" style="stop-color:#43960F"/>
		</linearGradient>
		<path fill="url(#SVGID_1_)" d="M55.773,18.231c-4.531-13.63-21.21-8.884-16.494,5.525c2.231,6.814,7.685,13.137,9.246,23.567    c0.667,4.456,1.739,8.14,1.601,12.333C49.707,72.349,62.142,37.392,55.773,18.231z"/>
		<linearGradient id="SVGID_2_" gradientUnits="userSpaceOnUse" x1="29.4949" y1="41.0994" x2="53.3914" y2="41.0994">
			<stop offset="0" style="stop-color:#FFF21F"/>
			<stop offset="0.0112" style="stop-color:#FFEF1C"/>
			<stop offset="0.0974" style="stop-color:#FDDC0D"/>
			<stop offset="0.1863" style="stop-color:#FCD103"/>
			<stop offset="0.2809" style="stop-color:#FCCD00"/>
			<stop offset="0.6685" style="stop-color:#F1942E"/>
			<stop offset="0.8876" style="stop-color:#EA652D"/>
			<stop offset="1" style="stop-color:#E5352B"/>
		</linearGradient>
		<path fill="url(#SVGID_2_)" d="M39.195,59.974c9.45,10.814,20.094-2.63,10.306-10.402c-9.375-7.445-24.362-43.78-18.802-27.024    C34.035,32.627,28.195,47.386,39.195,59.974z"/>
		
			<linearGradient id="SVGID_3_" gradientUnits="userSpaceOnUse" x1="-721.2986" y1="914.6423" x2="-699.3718" y2="914.6423" gradientTransform="matrix(0.2072 0.9783 0.9783 -0.2072 -735.2124 935.8146)">
			<stop offset="0" style="stop-color:#0346C5"/>
			<stop offset="0.0244" style="stop-color:#0348C4"/>
			<stop offset="0.3612" style="stop-color:#035DBE"/>
			<stop offset="0.6902" style="stop-color:#036AB9"/>
			<stop offset="1" style="stop-color:#036EB8"/>
		</linearGradient>
		<path fill="url(#SVGID_3_)" d="M10.059,62.376c-9.677,6.113-14.49-7.679-4.654-9.251c12.807-2.049,10.875-5.059,16.393-13.543    C27.317,31.098,19.739,56.26,10.059,62.376z"/>
		<linearGradient id="SVGID_4_" gradientUnits="userSpaceOnUse" x1="11.7288" y1="37.9968" x2="31.7273" y2="37.9968">
			<stop offset="0" style="stop-color:#0346C5"/>
			<stop offset="0.0244" style="stop-color:#0348C4"/>
			<stop offset="0.3612" style="stop-color:#035DBE"/>
			<stop offset="0.6902" style="stop-color:#036AB9"/>
			<stop offset="1" style="stop-color:#036EB8"/>
		</linearGradient>
		<path fill="url(#SVGID_4_)" d="M31.619,24.354C29.9,10.055,14.636,13.365,15.424,24.711c0.572,8.226,4.658,17.354-1.408,30.258    c-0.505,1.077-2.287,6.157-2.287,6.157s2.707-2.103,5.806-5.806C24.095,47.484,32.8,34.177,31.619,24.354z"/>
	</g>
	<g>
		<path fill="#89B829" d="M220.813,40.902c1.549,0.001,2.978-0.601,4.003-1.611c1.028-1.008,1.653-2.436,1.651-3.996v-1.767h1.119    c0.377,0,0.746-0.153,1.013-0.42s0.42-0.636,0.42-1.013V30.61c0-0.377-0.153-0.746-0.42-1.013    c-0.267-0.267-0.636-0.419-1.013-0.419h-1.119v-1.814c0.002-1.561-0.62-2.991-1.644-4.011c-1.021-1.023-2.451-1.644-4.011-1.642    h-3.209v-2.236c0-0.377-0.152-0.746-0.419-1.013c-0.267-0.267-0.636-0.419-1.014-0.419h-1.48c-0.378,0-0.747,0.152-1.014,0.419    c-0.267,0.267-0.419,0.636-0.419,1.013v2.236h-7.195c-0.378,0-0.747,0.153-1.014,0.419c-0.267,0.267-0.42,0.636-0.42,1.013v1.484    c0,0.377,0.153,0.746,0.42,1.013c0.267,0.267,0.636,0.419,1.014,0.419h7.195v3.118h-7.804c-0.377,0-0.747,0.153-1.014,0.419    c-0.267,0.267-0.419,0.636-0.419,1.013v1.486c0,0.377,0.152,0.746,0.419,1.013s0.637,0.42,1.014,0.42h7.804v3.023h-7.195    c-0.378,0-0.747,0.153-1.014,0.42s-0.42,0.636-0.42,1.013v1.485c0,0.377,0.153,0.746,0.42,1.013s0.636,0.42,1.014,0.42h7.195    v2.608h-8.217c-0.377,0-0.746,0.153-1.013,0.42c-0.021,0.021-0.029,0.05-0.048,0.071c0.195-1.661,0.362-3.391,0.493-5.218    c0.028-0.397-0.108-0.786-0.381-1.078c-0.272-0.291-0.649-0.456-1.048-0.456h-1.057c1.288-4.313,2.155-9.172,2.486-14.72    c0.023-0.393-0.118-0.782-0.388-1.068c-0.27-0.287-0.649-0.45-1.042-0.45h-6.962c-0.377,0-0.746,0.152-1.013,0.419    c-0.267,0.267-0.42,0.636-0.42,1.013v1.484c0,0.377,0.153,0.746,0.42,1.013c0.267,0.267,0.636,0.42,1.013,0.42h3.828    c-0.409,4.394-1.271,8.244-2.489,11.888h-1.339c-0.377,0-0.746,0.153-1.013,0.42s-0.42,0.636-0.42,1.013v1.485    c0,0.377,0.153,0.746,0.42,1.013s0.636,0.42,1.013,0.42h3.816c-0.291,3.006-0.699,5.757-1.21,8.31    c-0.202-0.399-0.392-0.792-0.563-1.16c-0.16-0.348-0.448-0.611-0.808-0.742c-0.359-0.133-0.748-0.115-1.096,0.047l-1.302,0.604    c-0.361,0.168-0.619,0.471-0.743,0.82V22.165c0-0.666-0.461-1.246-1.111-1.396c-0.648-0.149-1.316,0.169-1.609,0.768    l-6.558,13.439c-0.289,0.591-0.139,1.301,0.365,1.725l1.526,1.285c0.34,0.287,0.788,0.398,1.223,0.305    c0.436-0.093,0.798-0.379,0.99-0.779l0.869-1.808v26.965c0,0.377,0.152,0.746,0.419,1.013s0.636,0.42,1.014,0.42h1.439    c0.377,0,0.746-0.153,1.013-0.42s0.42-0.636,0.42-1.013V50.421c0.015,0.044,0.025,0.089,0.045,0.133    c0.685,1.493,1.644,3.383,3.02,5.235c-0.59,1.946-1.282,3.78-2.06,5.63c-0.305,0.725,0.03,1.557,0.752,1.869l1.392,0.603    c0.727,0.313,1.566-0.018,1.883-0.742c0.524-1.205,0.994-2.465,1.438-3.749c0.958,0.775,2.021,1.488,3.232,2.063    c1.979,0.941,4.317,1.526,7.005,1.525h16.561c0.377,0,0.747-0.152,1.014-0.419c0.266-0.267,0.419-0.636,0.419-1.014V60.07    c0-0.378-0.153-0.747-0.419-1.014c-0.267-0.267-0.637-0.419-1.014-0.419h-10.177c0.203-0.253,0.335-0.563,0.335-0.888v-3.162    h8.358c0.378,0,0.747-0.153,1.014-0.42s0.42-0.636,0.42-1.013v-1.482c0-0.377-0.153-0.746-0.42-1.013s-0.636-0.42-1.014-0.42    h-8.358v-2.377h8.358c0.378,0,0.747-0.152,1.014-0.419s0.42-0.636,0.42-1.014v-1.486c0-0.378-0.153-0.747-0.42-1.014    s-0.636-0.42-1.014-0.42h-8.358v-2.608H220.813z M222.119,29.177h-4.515v-3.118h3.209c0.387,0.002,0.697,0.145,0.932,0.376    c0.23,0.233,0.373,0.543,0.374,0.928V29.177z M222.119,35.295c-0.003,0.39-0.14,0.675-0.361,0.895    c-0.225,0.217-0.539,0.361-0.944,0.362h-3.209v-3.023h4.515V35.295z M210.885,58.637c-2.218-0.003-4.014-0.499-5.536-1.284    c-1.293-0.668-2.381-1.561-3.322-2.558c0.644-2.529,1.185-5.244,1.613-8.208c0.037,0.32,0.16,0.628,0.389,0.856    c0.267,0.267,0.636,0.419,1.013,0.419h8.217v2.377h-8.217c-0.377,0-0.746,0.153-1.013,0.42s-0.42,0.636-0.42,1.013v1.482    c0,0.377,0.153,0.746,0.42,1.013s0.636,0.42,1.013,0.42h8.217v3.162c0,0.325,0.132,0.635,0.335,0.888H210.885z"/>
		<g>
			<path fill="#89B829" d="M252.67,50.646l-0.834-1.25c-0.215-0.323-0.545-0.541-0.927-0.613c-0.381-0.071-0.769,0.012-1.086,0.234     l-2.614,1.829l-4.113-3.923c-0.572-0.546-1.478-0.524-2.024,0.047l-1.021,1.069c-0.546,0.573-0.527,1.475,0.043,2.022     l3.479,3.343l-6.467,4.565c-0.313,0.221-0.524,0.559-0.587,0.938c-0.063,0.377,0.03,0.766,0.255,1.076l0.879,1.207     c0.46,0.632,1.342,0.778,1.981,0.329l12.667-8.907C252.938,52.165,253.101,51.294,252.67,50.646z"/>
			<path fill="#89B829" d="M273.55,59.763l-8.245-6.276l5.468-3.276c0.329-0.196,0.563-0.513,0.655-0.884s0.032-0.76-0.165-1.087     l-0.788-1.301c-0.408-0.673-1.281-0.891-1.958-0.489l-6.968,4.146l-4.275-3.253v-0.872h8.03c1.516-0.002,2.918-0.626,3.947-1.633     c1.031-1.004,1.707-2.43,1.707-4.021v-0.793h1.631c0.377,0,0.746-0.153,1.013-0.42s0.42-0.636,0.42-1.013v-1.488     c0-0.377-0.153-0.746-0.42-1.013s-0.636-0.42-1.013-0.42h-1.631v-1.024c0-1.591-0.676-3.017-1.707-4.022     c-1.029-1.007-2.431-1.632-3.947-1.634h-8.03v-2.65c0-0.081-0.034-0.156-0.048-0.235h15.128c0.377,0,0.747-0.152,1.014-0.419     c0.267-0.267,0.419-0.635,0.419-1.013v-1.487c0-0.377-0.152-0.746-0.419-1.013c-0.267-0.267-0.637-0.419-1.014-0.419h-15.961     v-2.374c0-0.377-0.153-0.746-0.42-1.013c-0.267-0.267-0.636-0.419-1.013-0.419h-1.485c-0.377,0-0.747,0.152-1.014,0.419     c-0.267,0.267-0.419,0.636-0.419,1.013v2.374h-12.301c-1.778-0.002-3.396,0.722-4.556,1.886c-1.16,1.159-1.885,2.756-1.976,4.513     h-0.001l-2.135,34.333c-0.05,0.79,0.551,1.469,1.34,1.519l1.483,0.093c0.382,0.023,0.75-0.103,1.037-0.355     c0.287-0.254,0.459-0.604,0.482-0.985l1.429-23.013c0.239,0.166,0.513,0.28,0.805,0.28h15.272v2.097h-12.579     c-0.377,0-0.746,0.153-1.013,0.419c-0.267,0.268-0.42,0.637-0.42,1.014v1.484c0,0.377,0.153,0.746,0.42,1.013     s0.636,0.42,1.013,0.42h12.579v10.815c0,0.618-0.24,1.157-0.627,1.553c-0.39,0.393-0.907,0.63-1.509,0.631h-3.806     c-0.377,0-0.747,0.153-1.014,0.42s-0.419,0.636-0.419,1.013v1.486c0,0.377,0.152,0.746,0.419,1.013s0.637,0.42,1.014,0.42h3.806     c3.576-0.003,6.485-2.921,6.486-6.535v-4.482l13.705,10.446c0.313,0.238,0.704,0.337,1.092,0.276     c0.389-0.063,0.73-0.277,0.954-0.601l0.835-1.209C274.295,61.088,274.157,60.226,273.55,59.763z M266.612,35.672h-9.339v-2.329     h8.03c0.352-0.001,0.679,0.143,0.921,0.382c0.242,0.242,0.387,0.555,0.388,0.923V35.672z M266.612,40.818     c-0.001,0.366-0.145,0.68-0.388,0.921c-0.243,0.24-0.569,0.384-0.921,0.383h-8.03v-2.097h9.339V40.818z M237.092,35.79     l0.459-7.401c0.047-0.671,0.321-1.256,0.711-1.655c0.396-0.399,0.875-0.623,1.479-0.627h13.229     c-0.014,0.079-0.047,0.154-0.047,0.235v2.65h-12.579c-0.377,0-0.746,0.153-1.013,0.419c-0.267,0.267-0.42,0.636-0.42,1.013v1.486     c0,0.377,0.153,0.746,0.42,1.013s0.636,0.42,1.013,0.42h12.579v2.329H237.65C237.458,35.672,237.267,35.715,237.092,35.79z"/>
		</g>
	</g>
	<g>
		<path fill="#89B829" stroke="#89B829" stroke-width="0.6524" stroke-miterlimit="10" d="M95.636,63.717    c-0.634,0-1.327-0.418-2.076-1.252L72.043,37.887v23.376c0,1.67-0.808,2.453-2.366,2.453c-1.615,0-2.365-0.783-2.365-2.453V31.835    c0-1.565,0.692-2.4,2.192-2.4c0.519,0,1.154,0.418,1.846,1.252l21.517,24.523V31.835c0-1.565,0.808-2.4,2.423-2.4    c1.558,0,2.365,0.835,2.365,2.4v29.429C97.655,62.933,96.963,63.717,95.636,63.717z"/>
		<path fill="#89B829" stroke="#89B829" stroke-width="0.6524" stroke-miterlimit="10" d="M131.258,58.864    c-3.057,3.234-7.326,4.853-12.749,4.853c-5.538,0-9.75-1.618-12.749-4.904c-2.827-3.027-4.211-7.045-4.211-12.106    c0-5.113,1.384-9.235,4.153-12.313c2.942-3.287,7.211-4.958,12.807-4.958c5.538,0,9.806,1.67,12.806,5.009    c2.769,3.078,4.21,7.2,4.21,12.314C135.526,51.82,134.084,55.838,131.258,58.864z M127.565,37.679    c-2.192-2.661-5.191-4.018-9.056-4.018c-3.923,0-6.98,1.356-9.057,3.965c-1.846,2.349-2.769,5.375-2.769,9.027    s0.923,6.626,2.826,8.922c2.077,2.609,5.076,3.914,9,3.914c3.807,0,6.807-1.253,8.999-3.861c1.846-2.296,2.827-5.218,2.827-8.87    S129.411,40.08,127.565,37.679z"/>
		<path fill="#89B829" stroke="#89B829" stroke-width="0.6524" stroke-miterlimit="10" d="M181.242,32.565l-10.037,29.586    c-0.346,1.095-1.097,1.617-2.134,1.617c-1.097,0-1.847-0.522-2.192-1.617l-8.308-23.688l-8.191,23.688    c-0.403,1.095-1.154,1.617-2.191,1.617c-1.097,0-1.847-0.522-2.192-1.617l-10.211-29.586c-0.173-0.416-0.231-0.834-0.231-1.147    c0-1.253,0.75-1.931,2.308-1.931c1.038,0,1.788,0.522,2.135,1.513l8.191,23.897L156.321,31c0.347-0.991,1.039-1.513,2.192-1.513    c1.096,0,1.847,0.522,2.191,1.513l8.366,23.897L176.972,31c0.347-0.991,1.039-1.513,2.192-1.513c1.5,0,2.308,0.678,2.308,1.931    C181.472,31.731,181.357,32.149,181.242,32.565z"/>
	</g>
</g>
</svg>